<svg width="2500" height="1719" viewBox="0 0 256 176" xmlns="http://www.w3.org/2000/svg" preserveAspectRatio="xMidYMid"><path d="M57.838 170.017c.151 1.663-.051 3.789-.14 5.436h56.864c.053-1.654.091-3.311.091-4.974 0-39.942-15.768-76.266-44.011-104.51C56.704 52.032 40.885 41.31 23.246 33.898L0 86.328c33.989 15.82 54.211 43.783 57.838 83.689zm69.197-1.644c.108 2.371-.062 4.732-.167 7.08h58.177c.077-2.355.13-4.714.13-7.08 0-28.826-5.66-56.82-16.82-83.207-10.767-25.456-26.169-48.306-45.778-67.915a216.421 216.421 0 0 0-15.686-14.218l-37.68 44.315c37.293 33.313 55.304 65.858 57.824 121.025zM235.263 64.39C226.595 41.785 213.935 19.521 198.727 0l-46.95 34.442c27.495 35.099 44.442 79.71 46.058 127.612.152 4.502-.164 8.969-.457 13.399h58.252c.226-4.448.447-8.916.344-13.399-.805-34.945-8.23-65.12-20.71-97.665z" fill="#3676A1"/></svg>