<svg viewBox="0 0 150 134" version="1.1" xmlns="http://www.w3.org/2000/svg" xmlns:xlink="http://www.w3.org/1999/xlink">
    <title>Untitled</title>
    <g id="sentry" fill="#000000" fill-rule="nonzero">
        <path style="fill:#221f20" d="M86.9,7.43 C84.4430551,3.1785152 79.9053667,0.559932776 74.995,0.559932776 C70.0846333,0.559932776 65.5469449,3.1785152 63.09,7.43 L43.49,41.38 L48.49,44.25 C76.4054109,60.3953737 94.3667995,89.4610537 96.32,121.65 L82.56,121.65 C80.6256171,94.350123 65.2628284,69.7921433 41.56,56.11 L36.56,53.25 L18.3,85 L23.3,87.87 C35.5781336,95.0821178 43.8597493,107.537727 45.76,121.65 L14.33,121.65 C13.5113725,121.663415 12.7489511,121.23496 12.3347402,120.52873 C11.9205293,119.8225 11.918718,118.947939 12.33,118.24 L21.09,103.07 C18.1310309,100.575254 14.7423935,98.6403422 11.09,97.36 L2.42,112.5 C-0.033833822,116.754289 -0.0322538222,121.994373 2.42414508,126.247181 C4.88054397,130.49999 9.41876057,133.119738 14.33,133.12 L57.58,133.12 L57.58,127.39 C57.585764,109.009083 48.7518498,91.7468551 33.84,81 L40.72,69.08 C59.8414525,82.3159451 71.2600253,104.084468 71.28,127.34 L71.28,133.08 L107.93,133.08 L107.93,127.35 C107.896313,91.0129684 89.5283621,57.1465894 59.09,37.3 L73,13.17 C73.4057253,12.4685156 74.1546338,12.0365188 74.965,12.0365188 C75.7753662,12.0365188 76.5242747,12.4685156 76.93,13.17 L137.59,118.24 C138.001282,118.947939 137.999471,119.8225 137.58526,120.52873 C137.171049,121.23496 136.408627,121.663415 135.59,121.65 L121.4,121.65 C121.58,125.48 121.6,129.31 121.4,133.13 L135.64,133.13 C140.551239,133.13 145.089456,130.50999 147.545855,126.257181 C150.002254,122.004373 150.003834,116.764289 147.55,112.51 L86.9,7.43 Z" id="Path"></path>
    </g>
</svg>