<svg xmlns="http://www.w3.org/2000/svg" fill="none" viewBox="2 2 28 28">
<path d="M16 2C8.26945 2 2 8.26945 2 16C2 23.7305 8.26945 30 16 30C23.7305 30 30 23.7305 30 16C30 8.26945 23.7305 2 16 2ZM15.9745 3.33509H15.9771C15.9847 3.33608 15.9924 3.33608 16 3.33509C21.7884 3.33509 26.6705 7.21945 28.18 12.5204C26.8819 15.1893 25.0581 17.5685 22.818 19.5153C21.74 20.4482 20.5615 21.2755 19.2671 21.8596C17.9715 22.4425 16.5485 22.7747 15.1345 22.6945C14.1248 22.6341 13.1396 22.3595 12.2442 21.8889C14.6962 20.5438 16.8855 18.7675 18.7071 16.6453C19.9238 15.2249 20.9865 13.6035 21.3989 11.7669C21.6089 10.848 21.6407 9.88327 21.4498 8.958C21.2636 8.02347 20.8237 7.15824 20.1784 6.45709C19.5336 5.78467 18.7171 5.30142 17.8175 5.05964C16.9231 4.82153 15.9866 4.7876 15.0773 4.96036C13.2662 5.29255 11.6498 6.34255 10.3618 7.64327C8.08745 9.93418 6.68364 13.1669 6.942 16.3933C7.07182 18.0058 7.60891 19.5891 8.53545 20.9165C8.71745 21.1775 8.91982 21.4231 9.12982 21.6598C7.85448 22.1009 6.53898 22.4159 5.20218 22.6004C4.02929 20.6835 3.38784 18.4889 3.34374 16.242C3.29964 13.9952 3.85447 11.7771 4.95124 9.81567C6.048 7.85422 7.64716 6.22009 9.58445 5.08117C11.5217 3.94225 13.7273 3.33958 15.9745 3.33509ZM16.0636 5.906C16.0687 5.90473 16.084 5.90855 16.0789 5.90727C16.9596 5.90727 17.8442 6.17582 18.5429 6.70527C19.1712 7.19131 19.6437 7.85048 19.9022 8.60164C20.1617 9.3568 20.2452 10.1613 20.1465 10.9536C19.9645 12.5356 19.1665 13.9929 18.1955 15.272C16.4722 17.5349 14.1787 19.3485 11.6295 20.6175C11.3876 20.7384 11.1382 20.8555 10.8887 20.9662C10.3561 20.4936 9.90466 19.9368 9.55236 19.318C8.80145 17.9893 8.55455 16.4111 8.69964 14.8864C8.84727 13.3604 9.36909 11.8878 10.0767 10.5209C10.8951 8.93764 12.0062 7.44345 13.5538 6.58818C14.3205 6.15399 15.1839 5.919 16.0649 5.90473L16.0636 5.906ZM28.5745 14.5733C28.628 15.0404 28.6649 15.5138 28.6649 15.9949C28.6649 22.9911 22.9987 28.6624 16.0013 28.6624C14.1609 28.663 12.3427 28.2613 10.674 27.4852C9.00533 26.7091 7.52653 25.5775 6.34127 24.1696C7.72478 23.8451 9.07536 23.3935 10.3758 22.8205C10.9625 23.2609 11.6065 23.6275 12.2938 23.8896C14.3175 24.666 16.6109 24.5515 18.6524 23.8451C20.6925 23.1387 22.4973 21.8736 24.0691 20.4024C25.8712 18.7112 27.3921 16.7435 28.5745 14.5733Z" fill="black"/>
</svg>