<svg viewBox="0 0 32 32" xmlns="http://www.w3.org/2000/svg">
<path d="M5 8C5.26522 8 5.51957 7.89464 5.70711 7.70711C5.89464 7.51957 6 7.26522 6 7C6 6.73478 5.89464 6.48043 5.70711 6.29289C5.51957 6.10536 5.26522 6 5 6C4.73478 6 4.48043 6.10536 4.29289 6.29289C4.10536 6.48043 4 6.73478 4 7C4 7.26522 4.10536 7.51957 4.29289 7.70711C4.48043 7.89464 4.73478 8 5 8ZM9 7C9 7.26522 8.89464 7.51957 8.70711 7.70711C8.51957 7.89464 8.26522 8 8 8C7.73478 8 7.48043 7.89464 7.29289 7.70711C7.10536 7.51957 7 7.26522 7 7C7 6.73478 7.10536 6.48043 7.29289 6.29289C7.48043 6.10536 7.73478 6 8 6C8.26522 6 8.51957 6.10536 8.70711 6.29289C8.89464 6.48043 9 6.73478 9 7ZM11 8C11.2652 8 11.5196 7.89464 11.7071 7.70711C11.8946 7.51957 12 7.26522 12 7C12 6.73478 11.8946 6.48043 11.7071 6.29289C11.5196 6.10536 11.2652 6 11 6C10.7348 6 10.4804 6.10536 10.2929 6.29289C10.1054 6.48043 10 6.73478 10 7C10 7.26522 10.1054 7.51957 10.2929 7.70711C10.4804 7.89464 10.7348 8 11 8V8Z" fill="black"/>
<path fill-rule="evenodd" clip-rule="evenodd" d="M1.17157 3.17157C1.92172 2.42143 2.93913 2 4 2H28C29.0609 2 30.0783 2.42143 30.8284 3.17157C31.5786 3.92172 32 4.93913 32 6V26C32 27.0609 31.5786 28.0783 30.8284 28.8284C30.0783 29.5786 29.0609 30 28 30H4C2.93913 30 1.92172 29.5786 1.17157 28.8284C0.421427 28.0783 0 27.0609 0 26V6C0 4.93913 0.421427 3.92172 1.17157 3.17157ZM30 9V6C30 5.46957 29.7893 4.96086 29.4142 4.58579C29.0391 4.21071 28.5304 4 28 4H4C3.46957 4 2.96086 4.21071 2.58579 4.58579C2.21071 4.96086 2 5.46957 2 6V9V10V12V13V26C2 26.5304 2.21071 27.0391 2.58579 27.4142C2.96086 27.7893 3.46957 28 4 28H28C28.5304 28 29.0391 27.7893 29.4142 27.4142C29.7893 27.0391 30 26.5304 30 26V13V12V10V9Z" fill="black"/>
<path d="M24 17.5C24 19.4891 23.2098 21.3968 21.8033 22.8033C20.3968 24.2098 18.4891 25 16.5 25C14.5109 25 12.6032 24.2098 11.1967 22.8033C9.79018 21.3968 9 19.4891 9 17.5C9 15.5109 9.79018 13.6032 11.1967 12.1967C12.6032 10.7902 14.5109 10 16.5 10C18.4891 10 20.3968 10.7902 21.8033 12.1967C23.2098 13.6032 24 15.5109 24 17.5V17.5ZM16.5 13.2812C16.5 13.1569 16.4506 13.0377 16.3627 12.9498C16.2748 12.8619 16.1556 12.8125 16.0312 12.8125C15.9069 12.8125 15.7877 12.8619 15.6998 12.9498C15.6119 13.0377 15.5625 13.1569 15.5625 13.2812V18.4375C15.5625 18.5201 15.5844 18.6013 15.6259 18.6727C15.6674 18.7442 15.727 18.8034 15.7987 18.8444L19.08 20.7194C19.1877 20.7776 19.3139 20.7913 19.4315 20.7577C19.5492 20.7241 19.6491 20.6458 19.7099 20.5396C19.7706 20.4333 19.7873 20.3075 19.7565 20.189C19.7257 20.0706 19.6498 19.9688 19.545 19.9056L16.5 18.1656V13.2812Z" fill="black"/>
</svg>
