<?xml version="1.0" encoding="UTF-8"?>
<svg viewBox="0 0 30 30" version="1.1" xmlns="http://www.w3.org/2000/svg" xmlns:xlink="http://www.w3.org/1999/xlink">
    <g id="icn_resize" stroke="none" stroke-width="1">
        <g id="Group" transform="translate(0.000000, 4.000000)">
            <path d="M6.3676531,7.24426522 C6.34293965,7.2140599 6.31488039,7.18662417 6.28398858,7.16245992 C6.0529554,6.98174063 5.71583449,7.01836611 5.53100794,7.24426522 L-0.811179719,14.9958279 C-0.887171026,15.0887062 -0.928571429,15.2041069 -0.928571429,15.3230491 C-0.928571429,15.6123411 -0.688723973,15.8468587 -0.392857143,15.8468587 L12.2915182,15.8468587 C12.4131636,15.8468587 12.5311871,15.8063783 12.6261762,15.7320757 C12.8572094,15.5513564 12.8946673,15.221727 12.7098408,14.9958279 L6.3676531,7.24426522 Z M13.5464859,14.3413855 C14.1009655,15.0190828 13.9885919,16.0079708 13.2954924,16.5501287 C13.010525,16.7730365 12.6564545,16.8944777 12.2915182,16.8944777 L-0.392857143,16.8944777 C-1.28045763,16.8944777 -2,16.1909252 -2,15.3230491 C-2,14.9662225 -1.87579879,14.6200203 -1.64782487,14.3413855 L4.69436279,6.58982279 C5.24884242,5.91212546 6.26020517,5.80224902 6.9533047,6.34440688 C7.04598012,6.41689965 7.13015792,6.49920683 7.20429825,6.58982279 L13.5464859,14.3413855 Z" id="Triangle" fill-rule="nonzero" transform="translate(5.949360, 11.447239) rotate(-90.000000) translate(-5.949360, -11.447239) "></path>
            <path d="M24.2839886,7.16245992 C24.0529554,6.98174063 23.7158345,7.01836611 23.5310079,7.24426522 L17.1888203,14.9958279 C17.112829,15.0887062 17.0714286,15.2041069 17.0714286,15.3230491 C17.0714286,15.6123411 17.311276,15.8468587 17.6071429,15.8468587 L30.2915182,15.8468587 C30.4131636,15.8468587 30.5311871,15.8063783 30.6261762,15.7320757 C30.8572094,15.5513564 30.8946673,15.221727 30.7098408,14.9958279 L24.3676531,7.24426522 C24.3429397,7.2140599 24.3148804,7.18662417 24.2839886,7.16245992 Z M31.5464859,14.3413855 C32.1009655,15.0190828 31.9885919,16.0079708 31.2954924,16.5501287 C31.010525,16.7730365 30.6564545,16.8944777 30.2915182,16.8944777 L17.6071429,16.8944777 C16.7195424,16.8944777 16,16.1909252 16,15.3230491 C16,14.9662225 16.1242012,14.6200203 16.3521751,14.3413855 L22.6943628,6.58982279 C23.2488424,5.91212546 24.2602052,5.80224902 24.9533047,6.34440688 C25.0459801,6.41689965 25.1301579,6.49920683 25.2042983,6.58982279 L31.5464859,14.3413855 Z" id="Triangle-Copy" fill-rule="nonzero" transform="translate(23.949360, 11.447239) rotate(90.000000) translate(-23.949360, -11.447239) "></path>
            <rect id="Rectangle" x="14.4136458" y="0" width="1.07142857" height="22"></rect>
        </g>
    </g>
</svg>