<svg viewBox="0 0 32 32" xmlns="http://www.w3.org/2000/svg">
<path d="M5 8C5.26522 8 5.51957 7.89464 5.70711 7.70711C5.89464 7.51957 6 7.26522 6 7C6 6.73478 5.89464 6.48043 5.70711 6.29289C5.51957 6.10536 5.26522 6 5 6C4.73478 6 4.48043 6.10536 4.29289 6.29289C4.10536 6.48043 4 6.73478 4 7C4 7.26522 4.10536 7.51957 4.29289 7.70711C4.48043 7.89464 4.73478 8 5 8ZM9 7C9 7.26522 8.89464 7.51957 8.70711 7.70711C8.51957 7.89464 8.26522 8 8 8C7.73478 8 7.48043 7.89464 7.29289 7.70711C7.10536 7.51957 7 7.26522 7 7C7 6.73478 7.10536 6.48043 7.29289 6.29289C7.48043 6.10536 7.73478 6 8 6C8.26522 6 8.51957 6.10536 8.70711 6.29289C8.89464 6.48043 9 6.73478 9 7ZM11 8C11.2652 8 11.5196 7.89464 11.7071 7.70711C11.8946 7.51957 12 7.26522 12 7C12 6.73478 11.8946 6.48043 11.7071 6.29289C11.5196 6.10536 11.2652 6 11 6C10.7348 6 10.4804 6.10536 10.2929 6.29289C10.1054 6.48043 10 6.73478 10 7C10 7.26522 10.1054 7.51957 10.2929 7.70711C10.4804 7.89464 10.7348 8 11 8V8Z" fill="black"/>
<g clip-path="url(#clip0_113_129)">
<path d="M14.0938 15.625C13.9694 15.625 13.8502 15.6744 13.7623 15.7623C13.6744 15.8502 13.625 15.9694 13.625 16.0938V18.9062C13.625 19.0306 13.6744 19.1498 13.7623 19.2377C13.8502 19.3256 13.9694 19.375 14.0938 19.375H16.9062C17.0306 19.375 17.1498 19.3256 17.2377 19.2377C17.3256 19.1498 17.375 19.0306 17.375 18.9062V16.0938C17.375 15.9694 17.3256 15.8502 17.2377 15.7623C17.1498 15.6744 17.0306 15.625 16.9062 15.625H14.0938Z" fill="black"/>
<path d="M13.1562 10.4688C13.1562 10.3444 13.1069 10.2252 13.019 10.1373C12.931 10.0494 12.8118 10 12.6875 10C12.5632 10 12.444 10.0494 12.356 10.1373C12.2681 10.2252 12.2188 10.3444 12.2188 10.4688V11.875C11.5971 11.875 11.001 12.1219 10.5615 12.5615C10.1219 13.001 9.875 13.5971 9.875 14.2188H8.46875C8.34443 14.2188 8.2252 14.2681 8.13729 14.356C8.04939 14.444 8 14.5632 8 14.6875C8 14.8118 8.04939 14.931 8.13729 15.019C8.2252 15.1069 8.34443 15.1562 8.46875 15.1562H9.875V16.0938H8.46875C8.34443 16.0938 8.2252 16.1431 8.13729 16.231C8.04939 16.319 8 16.4382 8 16.5625C8 16.6868 8.04939 16.806 8.13729 16.894C8.2252 16.9819 8.34443 17.0312 8.46875 17.0312H9.875V17.9688H8.46875C8.34443 17.9688 8.2252 18.0181 8.13729 18.106C8.04939 18.194 8 18.3132 8 18.4375C8 18.5618 8.04939 18.681 8.13729 18.769C8.2252 18.8569 8.34443 18.9062 8.46875 18.9062H9.875V19.8438H8.46875C8.34443 19.8438 8.2252 19.8931 8.13729 19.981C8.04939 20.069 8 20.1882 8 20.3125C8 20.4368 8.04939 20.556 8.13729 20.644C8.2252 20.7319 8.34443 20.7812 8.46875 20.7812H9.875C9.875 21.4029 10.1219 21.999 10.5615 22.4385C11.001 22.8781 11.5971 23.125 12.2188 23.125V24.5312C12.2188 24.6556 12.2681 24.7748 12.356 24.8627C12.444 24.9506 12.5632 25 12.6875 25C12.8118 25 12.931 24.9506 13.019 24.8627C13.1069 24.7748 13.1562 24.6556 13.1562 24.5312V23.125H14.0938V24.5312C14.0938 24.6556 14.1431 24.7748 14.231 24.8627C14.319 24.9506 14.4382 25 14.5625 25C14.6868 25 14.806 24.9506 14.894 24.8627C14.9819 24.7748 15.0312 24.6556 15.0312 24.5312V23.125H15.9688V24.5312C15.9688 24.6556 16.0181 24.7748 16.106 24.8627C16.194 24.9506 16.3132 25 16.4375 25C16.5618 25 16.681 24.9506 16.769 24.8627C16.8569 24.7748 16.9062 24.6556 16.9062 24.5312V23.125H17.8438V24.5312C17.8438 24.6556 17.8931 24.7748 17.981 24.8627C18.069 24.9506 18.1882 25 18.3125 25C18.4368 25 18.556 24.9506 18.644 24.8627C18.7319 24.7748 18.7812 24.6556 18.7812 24.5312V23.125C19.4029 23.125 19.999 22.8781 20.4385 22.4385C20.8781 21.999 21.125 21.4029 21.125 20.7812H22.5312C22.6556 20.7812 22.7748 20.7319 22.8627 20.644C22.9506 20.556 23 20.4368 23 20.3125C23 20.1882 22.9506 20.069 22.8627 19.981C22.7748 19.8931 22.6556 19.8438 22.5312 19.8438H21.125V18.9062H22.5312C22.6556 18.9062 22.7748 18.8569 22.8627 18.769C22.9506 18.681 23 18.5618 23 18.4375C23 18.3132 22.9506 18.194 22.8627 18.106C22.7748 18.0181 22.6556 17.9688 22.5312 17.9688H21.125V17.0312H22.5312C22.6556 17.0312 22.7748 16.9819 22.8627 16.894C22.9506 16.806 23 16.6868 23 16.5625C23 16.4382 22.9506 16.319 22.8627 16.231C22.7748 16.1431 22.6556 16.0938 22.5312 16.0938H21.125V15.1562H22.5312C22.6556 15.1562 22.7748 15.1069 22.8627 15.019C22.9506 14.931 23 14.8118 23 14.6875C23 14.5632 22.9506 14.444 22.8627 14.356C22.7748 14.2681 22.6556 14.2188 22.5312 14.2188H21.125C21.125 13.5971 20.8781 13.001 20.4385 12.5615C19.999 12.1219 19.4029 11.875 18.7812 11.875V10.4688C18.7812 10.3444 18.7319 10.2252 18.644 10.1373C18.556 10.0494 18.4368 10 18.3125 10C18.1882 10 18.069 10.0494 17.981 10.1373C17.8931 10.2252 17.8438 10.3444 17.8438 10.4688V11.875H16.9062V10.4688C16.9062 10.3444 16.8569 10.2252 16.769 10.1373C16.681 10.0494 16.5618 10 16.4375 10C16.3132 10 16.194 10.0494 16.106 10.1373C16.0181 10.2252 15.9688 10.3444 15.9688 10.4688V11.875H15.0312V10.4688C15.0312 10.3444 14.9819 10.2252 14.894 10.1373C14.806 10.0494 14.6868 10 14.5625 10C14.4382 10 14.319 10.0494 14.231 10.1373C14.1431 10.2252 14.0938 10.3444 14.0938 10.4688V11.875H13.1562V10.4688ZM14.0938 14.6875H16.9062C17.2792 14.6875 17.6369 14.8357 17.9006 15.0994C18.1643 15.3631 18.3125 15.7208 18.3125 16.0938V18.9062C18.3125 19.2792 18.1643 19.6369 17.9006 19.9006C17.6369 20.1643 17.2792 20.3125 16.9062 20.3125H14.0938C13.7208 20.3125 13.3631 20.1643 13.0994 19.9006C12.8357 19.6369 12.6875 19.2792 12.6875 18.9062V16.0938C12.6875 15.7208 12.8357 15.3631 13.0994 15.0994C13.3631 14.8357 13.7208 14.6875 14.0938 14.6875V14.6875Z" fill="black"/>
</g>
<path fill-rule="evenodd" clip-rule="evenodd" d="M1.17157 3.17157C1.92172 2.42143 2.93913 2 4 2H28C29.0609 2 30.0783 2.42143 30.8284 3.17157C31.5786 3.92172 32 4.93913 32 6V26C32 27.0609 31.5786 28.0783 30.8284 28.8284C30.0783 29.5786 29.0609 30 28 30H4C2.93913 30 1.92172 29.5786 1.17157 28.8284C0.421427 28.0783 0 27.0609 0 26V6C0 4.93913 0.421427 3.92172 1.17157 3.17157ZM30 9V6C30 5.46957 29.7893 4.96086 29.4142 4.58579C29.0391 4.21071 28.5304 4 28 4H4C3.46957 4 2.96086 4.21071 2.58579 4.58579C2.21071 4.96086 2 5.46957 2 6V9V10V12V13V26C2 26.5304 2.21071 27.0391 2.58579 27.4142C2.96086 27.7893 3.46957 28 4 28H28C28.5304 28 29.0391 27.7893 29.4142 27.4142C29.7893 27.0391 30 26.5304 30 26V13V12V10V9Z" fill="black"/>
<defs>
<clipPath id="clip0_113_129">
<rect width="15" height="15" fill="white" transform="translate(8 10)"/>
</clipPath>
</defs>
</svg>
