<svg xmlns="http://www.w3.org/2000/svg" fill="none" viewBox="-15.49 -2.92 108.01 86.2">
<g clip-path="url(#clip0_1260_990)">
<rect y="0.522217" width="76" height="76" rx="38" fill="#FAFBFB"/>
<path d="M85.6203 25.6173C85.6203 25.6173 88.5291 60.5475 27.1494 48.9148L26.4434 35.733C26.4434 35.733 76.7772 13.874 85.6203 25.6173Z" fill="white"/>
<path d="M86.3039 25.3503C86.3435 25.4648 86.3508 25.6005 86.3573 25.7217C86.4062 27.2604 86.24 28.8015 85.9474 30.3059C84.5387 38.1262 78.8031 44.5649 71.7465 47.6885C66.2531 50.2528 60.061 51.2953 54.0579 51.5784C45.0348 52.0162 35.9581 50.828 27.109 49.1554L26.9254 49.122L26.9153 48.9329L26.2093 35.751L26.2002 35.5813L26.3545 35.5143C37.3663 30.8512 78.0478 14.0261 86.3042 25.3551L86.3039 25.3503ZM84.9358 25.8889C76.2461 16.3834 37.5339 31.4788 26.5363 35.9612L26.6815 35.7245L27.3875 48.9064L27.1935 48.679C36.0308 50.221 45.0382 51.2769 54.0071 50.7205C59.8816 50.3571 65.9373 49.2688 71.2813 46.6837C79.7792 42.6916 84.9542 34.9859 84.9358 25.8889Z" fill="#221F1F"/>
<path d="M-15.2842 24.8699C-15.2842 24.8699 -6.65261 39.8829 13.8262 46.4121L44.4776 44.5401L41.6294 32.6942L-15.2842 24.8699Z" fill="white"/>
<path d="M-15.0841 25.0035C-15.0269 25 -14.9767 24.958 -14.9739 24.9238C-14.9767 24.8754 -14.9486 24.9466 -14.9228 24.9791C-14.5459 25.5347 -14.1463 26.0694 -13.7326 26.5985C-8.55784 33.2017 -1.80484 38.5561 5.62557 42.3132C8.17694 43.7231 11.5005 44.9983 13.8131 46.1699L44.4597 44.2982L44.2427 44.5983L41.3945 32.7523C23.7517 30.7957 3.48792 27.4674 -15.0841 25.0035ZM-15.4825 24.7361C3.57313 27.2872 22.7247 29.8422 41.8188 32.4784L41.8567 32.6366L44.7049 44.4826L44.774 44.7652L44.4879 44.7827L13.8413 46.6544C9.29543 45.6727 4.92762 43.7222 0.965228 41.2558C-2.97414 38.8561 -6.68765 35.8153 -9.85599 32.4398C-11.9218 30.2466 -13.8121 27.8627 -15.3471 25.253C-15.369 25.2057 -15.3889 25.1923 -15.4493 25.0598C-15.4942 24.9459 -15.497 24.8148 -15.4875 24.7315L-15.4825 24.7361Z" fill="#221F1F"/>
<path d="M58.136 61.0773C55.3649 58.8841 56.3972 54.4244 59.8314 53.7193C69.3481 51.775 83.8141 49.5402 86.8191 53.1989C86.8191 53.1989 91.5791 58.0494 88.5539 67.0331C87.4673 70.2516 84.4192 72.4804 81.2197 72.3676C78.7082 72.2783 75.5566 71.3845 71.0476 69.2112C66.5386 67.0378 62.1403 64.2527 58.1359 61.0821L58.1336 61.0797L58.136 61.0773Z" fill="white"/>
<path d="M57.8005 61.339C56.4741 60.2976 55.8394 58.457 56.2151 56.7952C56.5517 55.0822 57.9442 53.6305 59.6317 53.2833C62.6735 52.6374 65.6992 52.0919 68.7609 51.6335C73.232 51.0765 83.9711 49.4472 87.1191 52.8954C90.7112 57.1753 90.5914 63.4956 88.382 68.3679C87.3409 70.3088 85.5531 71.8413 83.446 72.4342C80.3372 73.2586 77.0243 72.0378 74.1306 70.9669C68.382 68.6461 62.3427 64.9954 57.7981 61.3414L57.8005 61.339ZM58.4682 60.8177C62.4904 64.0414 68.8421 68.1301 74.3836 70.31C79.3441 72.2911 84.5705 73.5555 87.7286 68.014C89.5685 63.8562 89.8013 58.6584 87.3915 54.6951C86.3137 52.7232 84.6758 52.1935 82.5666 51.9037C78.0217 51.375 73.4197 51.9989 68.8955 52.6172C65.8648 53.0547 62.8227 53.5975 59.8334 54.2109C58.4703 54.4807 57.3668 55.612 57.079 56.9902C56.738 58.4392 57.3326 59.9048 58.4658 60.8152L58.4682 60.8177Z" fill="#221F1F"/>
<mask id="mask0_1260_990" style="mask-type:luminance" maskUnits="userSpaceOnUse" x="-15" y="45" width="41" height="39">
<path d="M13.3664 45.4121L-14.7881 64.7952L-2.60184 83.093L25.5527 63.71L13.3664 45.4121Z" fill="white"/>
</mask>
<g mask="url(#mask0_1260_990)">
<path d="M22.3507 62.0619C23.8824 58.8622 21.0073 55.3273 17.6127 56.2224C8.21454 58.7167 -5.75565 63.1574 -6.85673 67.7731C-6.85673 67.7731 -9.01334 74.2372 -2.37099 80.9411C0.00988322 83.3417 3.72065 83.9797 6.54615 82.4551C8.76177 81.2539 11.2038 79.0499 14.3034 75.096C17.403 71.1421 20.1395 66.689 22.3473 62.0618L22.3507 62.0619Z" fill="white"/>
<path d="M21.7598 61.9421C22.3473 60.6564 22.2734 59.1706 21.3506 58.0593C20.5286 57.0232 19.1387 56.539 17.8729 56.8859C14.9365 57.6781 11.9613 58.5296 9.04359 59.4546C4.71071 60.8829 0.319035 62.3662 -3.54222 64.8126C-5.30928 65.9952 -6.53038 67.1463 -6.65694 69.3752C-7.12625 73.99 -4.67581 78.5566 -1.20987 81.4592C0.802918 82.9374 3.57078 83.3975 5.8726 82.4029C8.17817 81.3036 10.0588 79.469 11.7652 77.5527C15.6979 73.2035 19.7984 66.2207 21.763 61.9456L21.7598 61.9421ZM22.9345 62.1803C20.1259 68.1842 12.6591 79.9424 6.13749 83.0334C3.60569 84.103 0.592984 83.6666 -1.63573 82.0577C-4.14326 80.0208 -6.05632 77.2502 -7.06828 74.1447C-7.62113 72.3141 -7.83158 70.3488 -7.52305 68.4524C-7.39339 67.3508 -6.83184 66.2299 -6.02813 65.4407C-1.3219 60.7714 10.9908 57.2538 17.5406 55.5215C21.2921 54.5566 24.6251 58.6521 22.9278 62.1801L22.9345 62.1803Z" fill="#221F1F"/>
</g>
<path d="M18.9248 70.0416L17.1992 39.8129C17.1865 39.6123 17.1704 39.4116 17.1511 39.2108C16.9512 37.0969 16.0799 20.3003 38.4649 19.0055C38.4649 19.0055 59.3255 18.185 60.0611 37.594L60.2383 68.4045C60.2961 69.8378 60.0655 71.2053 59.598 72.475C58.8077 74.6167 57.3523 76.4027 55.5544 77.8663C54.6314 78.6158 53.6323 79.2537 52.5895 79.8085C49.3213 81.5485 45.6655 82.4659 41.9545 82.6113L38.7422 82.7361C36.2258 82.8347 33.706 82.5703 31.2772 81.9197C29.636 81.4805 28.1125 81.0189 26.6807 80.3339C23.6463 78.8857 21.1987 76.8338 19.9043 74.0417C19.3344 72.815 18.9895 71.4684 18.9316 70.0385L18.925 70.0382L18.9248 70.0416Z" fill="white"/>
<path d="M18.7541 70.3297C17.9357 60.4766 16.9668 48.8949 16.3436 39.0937C15.7478 29.0021 21.6816 21.7236 31.1634 19.2915C33.479 18.6524 35.8917 18.3733 38.2705 18.1979C41.6749 18.1182 45.0372 18.7352 48.2535 19.8686C56.3528 22.7926 60.7518 29.3992 60.8354 38.0596C60.8891 46.2576 60.8789 58.3899 60.9047 66.6207C60.9205 68.5575 61.0041 70.6531 60.2849 72.4993C58.1841 78.2164 52.3032 81.3194 46.7503 82.5807C44.06 83.2318 40.9945 83.1828 38.2441 83.2855C32.0614 83.3143 23.9452 81.1254 20.3511 75.6229C19.2822 73.9725 18.6619 72.0248 18.6037 70.0558L19.074 70.3528C18.9921 70.4003 18.8354 70.3906 18.7572 70.3366L18.7541 70.3297ZM19.0994 69.7502C19.028 69.6931 18.8747 69.6835 18.7962 69.7278L19.2665 70.0248C19.7155 78.1032 28.6051 81.527 35.4591 82.1424C37.0583 82.3629 39.3922 82.1348 41.0175 82.0986C47.7747 81.9811 56.5185 78.9902 59.0548 72.0563C59.702 70.353 59.5779 68.4491 59.5537 66.6476C59.4616 58.4039 59.3572 46.3009 59.2939 38.089C59.1962 30.0892 55.2164 24.0761 47.7099 21.3896C44.7309 20.3438 41.5044 19.7627 38.3507 19.839C36.0854 20.0155 33.7564 20.2912 31.5789 20.8986C22.7856 23.1449 17.3197 29.9674 17.956 39.3181C18.4752 48.7658 18.7904 60.2228 19.0961 69.7501L19.0994 69.7502Z" fill="#221F1F"/>
<path d="M25.3281 22.8995C25.3281 22.8995 38.1088 24.61 50.4171 21.8997L25.3281 22.8995Z" fill="white"/>
<path d="M24.5769 23.0022C24.5769 23.0022 38.6613 24.7302 50.9696 22.0203" stroke="#221F1F" stroke-width="0.688256" stroke-miterlimit="10"/>
<path d="M17.1377 36.6037C17.1377 36.6037 38.612 30.7288 59.6966 35.0347L17.1377 36.6037Z" fill="white"/>
<path d="M17.0498 36.2758C19.5926 35.2746 22.2602 34.8665 24.9176 34.3735C29.326 33.6253 33.8491 33.1116 38.3114 32.8894C42.7339 32.6589 47.3833 32.7855 51.7984 33.2002C52.6485 33.3082 54.9931 33.597 55.8231 33.7076C57.1549 33.9597 58.4782 34.2588 59.7629 34.7017L59.6315 35.3623C57.8602 35.3564 56.0752 34.9985 54.3203 34.8209C45.5228 33.7392 36.5266 34.0489 27.7531 35.1887C26.2302 35.4089 23.9858 35.7426 22.4837 36.0312C20.7367 36.3575 18.9921 36.7075 17.2255 36.9316L17.0496 36.2791L17.0498 36.2758Z" fill="#221F1F"/>
<path d="M18.3569 57.4025C22.1963 56.1662 36.9414 52.5276 61.0974 55.1685L18.3569 57.4025Z" fill="white"/>
<path d="M18.2556 57.0817C24.9633 54.8868 32.0512 54.1265 39.0692 53.8095C42.5835 53.6883 46.103 53.6958 49.6134 53.8584C53.1207 54.0142 56.6448 54.1672 60.0913 54.9694L60.0195 55.6425C56.5091 55.7502 53.0542 55.262 49.5588 55.1439C42.6016 54.8145 35.6078 54.9297 28.6908 55.7576C25.2386 56.182 21.7937 56.7689 18.4584 57.7285L18.2555 57.0851L18.2556 57.0817Z" fill="#221F1F"/>
<path d="M51.6303 54.7667C52.2265 47.2548 52.0854 34.1654 52.0854 34.1654C52.0854 34.1654 34.3528 32.0811 24.8849 35.5509C24.8849 35.5509 25.3031 48.6378 26.9252 55.824" stroke="#221F1F" stroke-width="0.688256" stroke-miterlimit="10"/>
<path d="M25.0159 35.3797C24.6921 37.8052 26.1652 51.9648 26.9257 55.3015C33.3279 53.9414 45.8428 53.8008 51.5064 54.0833C52.0332 49.9668 51.8433 39.4496 51.7538 34.4913L51.7484 34.2774C41.2865 32.4343 29.6535 34.3497 25.0159 35.3797Z" fill="#5BC2C7"/>
<path d="M38.1875 45.6444L38.2048 41.8563C38.2093 41.7344 38.3356 41.658 38.4403 41.7164L41.9765 43.7529C42.0877 43.815 42.0815 43.9809 41.9659 44.0374L38.4125 45.789C38.3071 45.8391 38.1864 45.763 38.1842 45.6442L38.1875 45.6444Z" fill="white" stroke="black" stroke-width="0.165181"/>
<g clip-path="url(#clip1_1260_990)">
<path d="M-8.39111 26.0443C-8.39111 26.0443 13.1049 44.7151 42.2391 39.7768C42.2391 39.7768 83.7014 24.2466 89.4408 30.8852C89.4408 30.8852 85.9968 24.3282 68.158 21.8552C68.158 21.8552 -7.15976 27.4807 -8.39111 26.0443Z" fill="white"/>
<path d="M-9.11417 25.3152C-8.74286 24.9561 -8.00768 24.9639 -7.6484 25.3306L-7.57248 25.393C-7.55477 25.4121 -7.1527 25.7389 -7.10367 25.782C-6.44581 26.2834 -5.80286 26.8164 -5.12992 27.2816C8.37488 36.9724 25.5978 41.8962 42.1365 39.1801C49.252 36.5975 57.7404 33.9258 65.4972 31.9221C71.426 30.5245 82.7494 27.4987 88.3035 29.7828C88.7872 30.0115 89.2544 30.3176 89.6163 30.7396L89.2394 30.9973C88.1744 29.406 86.5198 28.2395 84.8858 27.2667C79.8052 24.333 73.8599 23.0965 68.1067 22.2714C49.4677 23.8144 29.8046 25.3348 10.8006 26.543C6.00525 26.832 1.20991 27.121 -3.59825 27.2533C-5.20272 27.2606 -6.81619 27.3916 -8.42037 27.1323L-8.56597 27.0904C-8.59794 27.0847 -8.70665 27.0394 -8.77454 27.0094L-8.83324 26.9798C-8.85127 26.9699 -9.04525 26.8665 -9.18546 26.6731C-9.34862 26.4789 -9.44492 26.0848 -9.36626 25.8118C-9.30121 25.5338 -9.17695 25.4003 -9.10499 25.3155L-9.11417 25.3152ZM-7.66311 26.7778C-7.14228 26.3505 -7.2985 25.4441 -7.84533 25.1811L-7.8678 25.1665C-7.89026 25.1519 -7.95404 25.1359 -7.93568 25.1365C-7.94027 25.1364 -7.9037 25.1423 -7.9037 25.1423C-4.91245 25.4325 -1.87077 25.2098 1.13683 25.1697C23.5141 24.3664 45.8755 22.8455 68.2235 21.4437C74.0603 22.3729 80.0567 23.7261 85.174 26.7898C86.8739 27.8476 88.5546 29.0564 89.6516 30.7822L90.5129 32.2835C89.7964 31.6192 89.0246 30.576 88.1041 30.2216C84.7843 28.9591 81.0832 29.6271 77.643 30.07C65.5445 32.1444 53.8489 36.2003 42.3465 40.3825C26.5755 43.2271 10.0641 39.234 -3.42575 30.803C-5.30994 29.6283 -7.1497 28.3679 -8.88357 26.9734L-8.96835 26.9014L-8.9772 26.8919C-8.66614 27.1925 -7.95752 27.1718 -7.65852 26.778L-7.66311 26.7778Z" fill="#221F1F"/>
<path d="M20.0347 24.7453C20.0347 24.7453 14.5676 3.6035 42.5453 5.33408C42.5453 5.33408 59.5704 4.83688 58.2001 22.9415" fill="white"/>
<path d="M19.8115 24.7818C17.8577 18.2016 19.5836 9.99876 27.477 6.482C31.9927 4.36337 37.517 3.99743 42.6284 4.25648C43.2321 4.21178 45.5185 4.41811 46.6535 4.68642C57.1633 6.82859 60.5404 15.2644 58.4284 22.9499L57.9697 22.9225C57.637 20.1278 57.2307 17.4664 56.1149 14.8497C54.0654 9.92408 49.1938 6.5414 42.6161 6.41033C38.5535 6.12978 34.4995 6.25392 30.7066 7.30642C25.2989 8.78673 21.8958 12.4522 20.7166 16.9137C20.0341 19.4297 19.8795 22.0968 20.2599 24.7132L19.8115 24.7818Z" fill="#221F1F"/>
<path d="M17.2817 17.7517C17.2817 17.7517 15.1732 25.9817 16.05 26.9183C16.9269 27.8549 53.5344 32.3698 63.9118 24.9258L64.1827 17.3106C64.1827 17.3106 31.3825 21.9301 17.2817 17.7517Z" fill="#FFEAEA"/>
<path d="M17.3985 17.9489C17.4539 17.9417 17.5083 17.8333 17.5037 17.8332L17.4982 17.8606L17.487 17.9153L17.4647 18.0248C17.2332 19.1058 16.9899 20.26 16.795 21.3469C16.5412 23.0522 16.0821 24.8467 16.325 26.5467C16.3422 26.5794 16.3588 26.6306 16.3591 26.6214C16.355 26.6075 16.3415 26.5978 16.3325 26.5929C17.8566 27.0378 19.566 27.1813 21.1762 27.3995C31.9185 28.5629 54.7811 30.3966 63.785 24.7329C63.7898 24.7285 63.6915 24.9088 63.6915 24.9088L63.9624 17.2937L64.2252 17.5282C60.3223 18.0558 56.4188 18.4731 52.4991 18.8254C42.2284 19.655 31.8204 20.3372 21.5702 18.9108C20.2818 18.6904 18.6272 18.4247 17.4032 17.9445L17.3985 17.9489ZM17.1736 17.5503C18.0505 17.7102 19.3028 18.0397 20.1931 18.2092C20.9146 18.3452 22.3591 18.5712 23.0913 18.6616C32.8375 19.7851 42.7005 19.1754 52.4554 18.3734C56.4535 18.0147 60.4539 17.5871 64.4263 17.0436L64.4167 17.3144L64.1458 24.9296L64.1417 25.0443C64.1417 25.0443 64.0522 25.1055 64.0476 25.1053C56.1874 30.6627 37.8347 29.8443 28.2856 29.1231C24.6516 28.81 21.0285 28.4513 17.4407 27.7445C16.876 27.5958 16.252 27.5644 15.7594 27.1976C15.4108 26.7899 15.441 26.1981 15.4431 25.7523C15.5072 24.2104 15.8506 22.6967 16.1701 21.2098C16.411 20.1245 16.7048 18.9721 17.0004 17.898L17.0319 17.7888L17.0476 17.7342L17.0532 17.7068C17.0538 17.6885 17.1089 17.5618 17.1695 17.5363L17.1736 17.5503Z" fill="#221F1F"/>
</g>
</g>
<defs>
<clipPath id="clip0_1260_990">
<rect y="0.522217" width="76" height="76" rx="38" fill="white"/>
</clipPath>
<clipPath id="clip1_1260_990">
<rect width="100.956" height="54.9199" fill="white" transform="translate(-8.37207 -2.91919) rotate(2.03748)"/>
</clipPath>
</defs>
</svg>