<svg xmlns="http://www.w3.org/2000/svg" fill="none" viewBox="-10.61 0.52 97.48 88.77">
<g clip-path="url(#clip0_1260_1154)">
<rect y="0.522217" width="76" height="76" rx="38" fill="#FAFBFB"/>
<path d="M56.6019 60.1576C54.9538 57.0219 57.6998 53.3667 61.1255 54.1236C70.6145 56.2302 84.7475 60.0908 86.0174 64.6615C86.0174 64.6615 88.4108 71.0377 82.0141 78.0149C79.72 80.5134 76.0317 81.3068 73.1513 79.898C70.8904 78.7915 68.3692 76.6883 65.1237 72.8616C61.8782 69.035 58.981 64.6942 56.5998 60.1619L56.5987 60.1587L56.6019 60.1576Z" fill="white"/>
<path d="M56.1893 60.2601C55.397 58.7668 55.5603 56.8254 56.5753 55.4597C57.5752 54.0313 59.4353 53.2727 61.1189 53.644C64.1617 54.2949 67.1492 55.031 70.1345 55.8614C74.4486 57.1769 84.9281 60.0702 86.4139 64.5067C87.9696 69.8847 85.3064 75.6129 81.3172 79.1648C79.5808 80.5141 77.3266 81.1852 75.16 80.8673C71.9838 80.3523 69.4474 77.8844 67.2337 75.7247C62.9141 71.2574 58.8659 65.4558 56.1862 60.2613L56.1893 60.2601ZM57.0105 60.056C59.3865 64.6441 63.5433 70.9735 67.7304 75.2275C71.4666 79.0626 75.7354 82.3512 80.8626 78.5747C84.2252 75.5251 86.5383 70.869 85.9358 66.2629C85.7469 64.0206 84.463 62.868 82.6511 61.7423C78.7083 59.4044 74.2475 58.0967 69.8602 56.8156C66.9117 55.9786 63.9102 55.2333 60.9286 54.5741C59.573 54.2645 58.1066 54.8483 57.2866 55.9905C56.3892 57.1759 56.3409 58.7582 57.0094 60.0528L57.0105 60.056Z" fill="#221F1F"/>
<mask id="mask0_1260_1154" style="mask-type:luminance" maskUnits="userSpaceOnUse" x="-11" y="49" width="40" height="41">
<path d="M13.1826 49.0842L-10.6123 74.0203L4.85754 89.2944L28.6525 64.3584L13.1826 49.0842Z" fill="white"/>
</mask>
<g mask="url(#mask0_1260_1154)">
<path d="M25.278 63.4499C26.1615 59.9978 22.6549 57.161 19.4967 58.7611C10.7561 63.2071 -2.09462 70.5316 -2.28107 75.2742C-2.28107 75.2742 -3.14535 82.0476 4.67252 87.173C7.4743 89.0079 11.2398 88.8371 13.7175 86.744C15.6593 85.0971 17.6291 82.4226 19.9052 77.8987C22.1813 73.3748 24.0043 68.4412 25.2747 63.4504L25.278 63.4499Z" fill="white"/>
<path d="M24.6744 63.4589C25.0019 62.0778 24.6416 60.6428 23.5206 59.755C22.5131 58.9191 21.0552 58.7436 19.8801 59.3531C17.1517 60.7548 14.3966 62.2227 11.7122 63.75C7.73644 66.0714 3.7136 68.4593 0.397926 71.6741C-1.10725 73.2068 -2.0827 74.592 -1.77509 76.7956C-1.34166 81.4022 1.94802 85.3373 5.91201 87.4303C8.17382 88.4432 10.9795 88.3004 13.0459 86.8369C15.0957 85.2702 16.5861 83.0765 17.8896 80.8403C20.9067 75.7521 23.5783 68.0565 24.6783 63.4617L24.6744 63.4589ZM25.8735 63.4403C24.2801 69.9037 19.2298 82.9826 13.428 87.3958C11.1504 88.9819 8.10906 89.2002 5.60998 88.1058C2.75435 86.6531 0.340038 84.357 -1.25479 81.5409C-2.15203 79.8717 -2.73932 77.9976 -2.80392 76.0797C-2.89006 74.9764 -2.55609 73.7617 -1.92019 72.8191C1.79415 67.253 13.197 61.1844 19.2897 58.0918C22.7846 56.3472 26.8492 59.6334 25.8669 63.4415L25.8735 63.4403Z" fill="#221F1F"/>
</g>
<path d="M22.7829 74.4887L19.956 44.3243C19.936 44.1242 19.9127 43.9241 19.886 43.724C19.6093 41.6179 18.1259 24.8534 40.4108 22.6557C40.4108 22.6557 61.1923 20.9939 62.6357 40.3765L63.9392 71.1853C64.0492 72.6166 63.8692 73.9935 63.4491 75.2823C62.7391 77.4563 61.3523 79.3013 59.6122 80.8377C58.7188 81.6245 57.7454 82.3028 56.7253 82.8997C53.5284 84.7719 49.9148 85.8368 46.2179 86.1319L43.0177 86.3863C40.5108 86.5864 37.9873 86.4236 35.5405 85.8707C33.887 85.4977 32.3503 85.0975 30.8968 84.47C27.8166 83.1439 25.2997 81.1904 23.9063 78.45C23.2929 77.246 22.8996 75.9132 22.7896 74.4853H22.7829V74.4887Z" fill="white"/>
<path d="M22.623 74.7837C21.4462 64.9618 20.0561 53.4169 19.0761 43.6391C18.1127 33.5696 23.7664 26.0506 33.1371 23.2356C35.4239 22.503 37.8207 22.1265 40.1876 21.8552C43.5811 21.6382 46.9581 22.1198 50.2083 23.1237C58.3955 25.7216 63.0259 32.1519 63.4259 40.8106C63.7792 49.0079 64.2126 61.1429 64.5393 69.3742C64.626 71.3107 64.786 73.4033 64.1359 75.2789C62.2491 81.0818 56.4954 84.4225 51.0017 85.908C48.3415 86.6677 45.2813 86.7423 42.5411 86.9559C36.374 87.2341 28.1967 85.3721 24.4098 80.0135C23.283 78.4059 22.593 76.4829 22.463 74.5158L22.943 74.7939C22.863 74.8447 22.7063 74.8413 22.6263 74.7905L22.623 74.7837ZM22.9463 74.1902C22.873 74.1359 22.7197 74.1325 22.643 74.18L23.123 74.4581C23.8664 82.5198 32.8604 85.5858 39.7209 85.9249C41.3243 86.0809 43.6445 85.7587 45.2646 85.657C52.0017 85.267 60.6157 81.9229 62.8925 74.8854C63.4759 73.1558 63.2825 71.2565 63.1925 69.4556C62.7992 61.2141 62.2525 49.1131 61.8891 40.9021C61.4991 32.9049 57.3088 27.0511 49.7216 24.6668C46.7114 23.7409 43.4711 23.2898 40.3276 23.4933C38.0741 23.7613 35.7606 24.1309 33.6104 24.8262C24.9198 27.4275 19.7161 34.4718 20.6929 43.7985C21.5562 53.227 22.2896 64.6735 22.943 74.1902H22.9463Z" fill="#221F1F"/>
<path d="M39.864 22.0326C40.3799 21.9902 40.6508 21.3939 40.3512 20.9698C37.5011 16.9277 25.8871 2.1166 15.3021 12.4271C4.51649 22.9312 25.0873 16.0637 32.1318 16.387C34.3019 16.4877 36.373 17.4101 37.8346 19.0455C38.4624 19.7505 38.9809 20.5775 39.1684 21.5052C39.2362 21.8365 39.5358 22.0618 39.8666 22.0379V22.0326H39.864Z" fill="white"/>
<path d="M39.6034 22.0433C39.6165 21.985 39.6764 21.8551 39.7858 21.8021C39.8822 21.7517 39.9239 21.765 39.9994 21.7226C40.2339 21.5927 40.2782 21.2746 40.0958 21.0758L40.0177 20.9672C38.6603 19.0906 37.1597 17.3121 35.5263 15.6794C30.618 10.6831 23.498 6.49267 17.0866 11.3855C15.4922 12.6339 13.8613 14.1951 12.8609 15.9709C12.6473 16.4242 12.4519 16.9331 12.7749 17.3254C13.0276 17.5798 13.3715 17.6911 13.7623 17.7786C14.7705 17.9774 15.8126 17.9323 16.8443 17.8661C21.0647 17.54 25.2643 16.5726 29.5004 16.1591C30.9385 16.0266 32.4235 15.9444 33.8433 16.3102C36.3052 16.9384 38.7177 18.7434 39.4002 21.325L39.4289 21.4602C39.4653 21.651 39.6529 21.7888 39.8431 21.7756C39.8431 21.7703 39.593 22.0565 39.6008 22.0353L39.8587 22.3004C39.8171 22.3004 39.7389 22.2871 39.679 22.2235C39.6164 22.1626 39.6008 22.0857 39.6008 22.0459L39.6034 22.0433ZM40.1245 22.0221C40.1245 21.9823 40.1088 21.9055 40.0489 21.8445C39.9864 21.7835 39.9108 21.7676 39.8718 21.7676C39.8718 21.7729 40.1375 22.03 40.1297 22.038V22.2924L39.8874 22.303C39.5122 22.3348 39.1293 22.1122 38.9756 21.7597C38.392 19.2602 36.0681 17.5241 33.6974 16.941C32.3687 16.6071 30.9697 16.6945 29.5681 16.8297C25.3216 17.2697 21.182 18.253 16.9016 18.6056C14.9034 18.7805 10.6334 18.8733 12.2122 15.637C12.5639 14.9399 13.0276 14.3621 13.5018 13.8028C14.4709 12.7002 15.4974 11.6718 16.6749 10.8051C20.4291 7.93721 24.9804 7.8895 29.0888 10.002C33.7521 12.406 37.402 16.4083 40.4579 20.6465L40.5361 20.7578L40.5752 20.8134C40.9581 21.3329 40.6533 22.152 40.0255 22.2765C40.0124 22.2818 40.0593 22.2659 40.0802 22.2447C40.1427 22.197 40.1609 22.0751 40.1297 22.0221H40.1245Z" fill="#221F1F"/>
<path d="M27.3936 27.0984C27.3936 27.0984 40.2278 28.3092 52.4253 25.0974L27.3936 27.0984Z" fill="white"/>
<path d="M26.6465 27.2307C26.6465 27.2307 40.7842 28.4076 52.9817 25.1958" stroke="#221F1F" stroke-width="0.660459" stroke-miterlimit="10"/>
<path d="M19.7266 41.122C19.7266 41.122 40.9647 34.3694 62.1929 37.8559L19.7266 41.122Z" fill="white"/>
<path d="M19.626 40.7965C22.1295 39.6908 24.7797 39.1753 27.4165 38.575C31.7935 37.6491 36.2938 36.9538 40.7441 36.5536C45.1545 36.1466 49.8048 36.089 54.2318 36.3298C55.0852 36.4044 57.4387 36.6011 58.2721 36.6791C59.6122 36.8792 60.9456 37.1268 62.2457 37.5202L62.139 38.1884C60.3689 38.2528 58.5721 37.9645 56.812 37.856C47.9813 37.12 39.004 37.7882 30.2801 39.2804C28.7666 39.5619 26.5365 39.9859 25.0464 40.3352C23.3129 40.732 21.5828 41.1526 19.826 41.4476L19.626 40.7998V40.7965Z" fill="#221F1F"/>
<path d="M21.7305 61.8584C25.5207 60.4645 40.1184 56.2251 64.3535 57.9174L21.7305 61.8584Z" fill="white"/>
<path d="M21.6162 61.5391C28.2367 59.0701 35.2905 58.0255 42.291 57.4286C45.7979 57.1674 49.3148 57.0351 52.8284 57.0589C56.3387 57.0758 59.8656 57.0894 63.3392 57.7575L63.2925 58.4358C59.7889 58.6834 56.3187 58.3307 52.8218 58.3511C45.8579 58.2968 38.8741 58.6902 31.9936 59.7958C28.56 60.3588 25.1398 61.0846 21.8429 62.1801L21.6162 61.5425V61.5391Z" fill="#221F1F"/>
<path d="M54.8647 57.9036C55.1814 50.3676 54.5547 37.283 54.5547 37.283C54.5547 37.283 36.7668 35.9027 27.4395 39.7487C27.4395 39.7487 28.3428 52.8197 30.2297 59.9419" stroke="#221F1F" stroke-width="0.660459" stroke-miterlimit="10"/>
<path d="M27.5637 39.5726C27.3304 42.0112 29.3272 56.1132 30.2106 59.42C36.5544 57.8056 49.0486 57.168 54.7157 57.2256C55.089 53.0879 54.509 42.5775 54.2356 37.6225L54.2223 37.4088C43.7049 35.981 32.1574 38.3585 27.5637 39.5726Z" fill="#5BC2C7"/>
<path d="M41.1028 49.3165L40.9795 45.5282C40.9795 45.4061 41.1028 45.3247 41.2095 45.3789L44.8164 47.2748C44.9298 47.3325 44.9298 47.4987 44.8164 47.5597L41.3328 49.4522C41.2295 49.5065 41.1062 49.4352 41.0995 49.3165H41.1028Z" fill="white" stroke="black" stroke-width="0.15851"/>
<g clip-path="url(#clip1_1260_1154)">
<path d="M39.9363 35.7145C39.9363 35.7145 48.0699 34.3791 50.7045 34.8407C50.7045 34.8407 54.5317 35.9284 57.6478 34.9962C58.3814 34.7767 59.1279 34.6035 59.8879 34.53C61.0316 34.4194 62.4887 34.3269 62.7268 34.5426C62.7268 34.5426 64.0612 39.569 62.5069 43.2498C62.5069 43.2498 59.3822 50.4154 51.9771 52.7937C51.9771 52.7937 49.3112 54.1949 46.6471 51.0538C46.6471 51.0538 42.293 45.3601 40.7979 46.3326L39.9363 35.7145Z" fill="white"/>
<path d="M39.8672 35.6532C39.9205 35.6133 40.0254 35.6028 40.092 35.5915L40.2595 35.566C40.4503 35.5348 41.0602 35.4537 41.2655 35.4212C43.9391 35.0601 46.655 34.658 49.3545 34.6148C49.8156 34.6109 50.2776 34.6406 50.7384 34.7C52.6846 35.1523 54.7478 35.3364 56.7007 34.9488C57.6953 34.7319 58.6554 34.3597 59.6707 34.1944C60.686 34.0527 61.658 33.7369 62.6952 33.7297C62.7372 33.7303 62.8151 33.7457 62.8842 33.7658L62.9365 33.7813C62.9513 33.784 62.9931 33.8043 63.0215 33.8178C63.1572 33.872 63.2674 33.9934 63.3818 34.0769C63.6608 35.1997 63.8083 36.3213 63.8906 37.4699C64.1521 41.9514 63.1031 44.2187 60.4156 47.488C58.1745 50.1226 55.293 52.1931 52.0779 53.1412C50.9148 53.6641 49.2479 53.4854 48.0038 52.6285C47.8319 52.4884 47.6266 52.3629 47.4598 52.2184C47.1398 51.9383 46.7779 51.5687 46.4995 51.2398C45.6019 50.0902 42.2735 45.7312 40.8464 46.4177L40.718 46.4755L40.707 46.3402L39.8637 35.6554L39.8672 35.6532ZM40.0103 35.7758L40.8898 46.3233C40.8898 46.3233 40.7486 46.2459 40.7522 46.2456C42.268 45.3485 45.8383 49.7215 46.8413 50.9119C47.1109 51.2001 47.452 51.5377 47.7581 51.7815C47.9144 51.909 48.1056 52.0179 48.2667 52.1372C49.3555 52.8111 50.7312 52.9977 51.8789 52.4424C54.4844 51.5556 56.8283 49.9179 58.7245 47.8207C59.9757 46.4494 61.085 44.8367 61.8969 43.1317C62.9479 40.5522 62.6761 37.45 62.0158 34.7526L62.2563 35.1537C62.2837 35.1771 62.3165 35.1982 62.3503 35.2112C62.3635 35.2161 62.3916 35.2257 62.3933 35.2235L62.4005 35.223C62.4096 35.2222 62.4271 35.2129 62.4062 35.2027C62.3927 35.194 62.388 35.1805 62.3653 35.1705C62.019 35.0169 61.6313 34.9812 61.2522 34.9389C60.2564 34.8499 59.2587 34.8716 58.2846 35.1165C57.3002 35.3919 56.2653 35.5845 55.2423 35.5866C53.7035 35.5929 52.1713 35.3894 50.6734 34.9778C50.3026 34.9269 49.7784 34.8726 49.3554 34.8734C46.3256 34.8684 43.2751 35.2838 40.2857 35.7535L40.1183 35.7809L40.0408 35.7931C40.0408 35.7931 40.0256 35.7845 40.0099 35.7719L40.0103 35.7758Z" fill="black"/>
<path d="M40.4778 35.6252C40.4778 35.6252 32.2661 35.6161 29.7531 36.4955C29.7531 36.4955 26.1659 38.1847 22.953 37.7661C22.1954 37.6676 21.4343 37.6168 20.676 37.6665C19.5349 37.7413 18.0874 37.8844 17.8871 38.1357C17.8871 38.1357 17.3842 43.3111 19.5044 46.6939C19.5044 46.6939 23.7289 53.2631 31.3898 54.4189C31.3898 54.4189 34.2359 55.3729 36.3497 51.8441C36.3497 51.8441 39.7126 45.5241 41.3394 46.2433L40.4778 35.6252Z" fill="white"/>
<path d="M40.4179 35.6952C40.4027 35.7102 40.398 35.7205 40.3908 35.7211L40.3124 35.7215L40.1446 35.7213C37.1302 35.7487 34.0643 35.8158 31.0907 36.3236C30.6766 36.3908 30.1629 36.5332 29.8161 36.6423C28.41 37.2956 26.9365 37.7469 25.4209 37.9943C24.4147 38.1589 23.3608 38.1397 22.3488 38.0303C21.3537 37.9491 20.3746 38.0878 19.4094 38.33C19.0435 38.4288 18.6701 38.5243 18.3563 38.7255C18.3355 38.7391 18.3347 38.751 18.3228 38.7618C18.3038 38.7752 18.324 38.7775 18.3351 38.7786L18.3441 38.7779C18.3827 38.7589 18.4434 38.7204 18.4729 38.6785L18.65 38.2317C18.4326 40.9924 18.6601 44.0883 20.0983 46.46C21.092 47.9177 22.3573 49.239 23.685 50.3616C25.9656 52.2363 28.6301 53.5842 31.466 54.0532C32.6696 54.4117 33.9818 53.9952 34.9342 53.1675C35.0718 53.02 35.2433 52.8856 35.3769 52.7346C35.636 52.443 35.9224 52.0623 36.1381 51.7308C36.9296 50.4046 39.735 45.5084 41.3756 46.1494C41.3792 46.1491 41.2523 46.2483 41.2523 46.2483L40.4198 35.697L40.4179 35.6952ZM40.5393 35.551L41.4297 46.2319L41.4407 46.3673L41.3046 46.331C39.8961 45.9199 37.6297 50.0417 36.9501 51.2186L36.5299 51.9972C36.3061 52.363 36.0183 52.7951 35.7436 53.1176C34.751 54.304 33.2716 55.0422 31.763 54.8585C31.595 54.8346 31.4625 54.8197 31.2888 54.7686L31.3427 54.782C28.9781 54.4782 26.6653 53.5995 24.6 52.2879C22.5164 50.9738 20.6477 49.275 19.1235 47.2362C17.3296 44.5261 16.9512 40.9862 17.1444 37.7713C17.2522 37.6381 17.3995 37.4761 17.5425 37.3953C18.0999 37.1388 18.7124 37.2471 19.2872 37.2281C20.5104 37.2434 21.9528 37.2626 23.1476 37.4678C24.3754 37.6289 25.6133 37.5106 26.8302 37.246C27.8034 37.0347 28.771 36.7311 29.6934 36.3442C30.1386 36.2113 30.5883 36.1116 31.0458 36.0409C31.3773 35.9903 32.056 35.9037 32.3909 35.8725C34.8399 35.6422 37.3442 35.5773 39.8047 35.5336L40.1417 35.528L40.3111 35.5261L40.4004 35.5248C40.4478 35.5249 40.4998 35.5365 40.5411 35.5509L40.5393 35.551Z" fill="black"/>
<path d="M48.7475 35.2802C48.7475 35.2802 35.5597 35.7578 33.0273 36.5558C30.4949 37.3537 33.3932 45.178 33.3932 45.178L42.5266 46.2518L47.8509 44.4374L48.7692 35.5253L48.7493 35.2801L48.7475 35.2802Z" fill="white"/>
<path d="M39.9881 37.4698C39.9881 37.4698 48.1217 36.1345 50.7563 36.5961C50.7563 36.5961 55.3096 37.8895 58.5281 36.4434C58.5281 36.4434 62.3788 35.9334 62.7784 36.296C62.7784 36.296 64.1128 41.3224 62.5585 45.0033C62.5585 45.0033 59.4338 52.1688 52.0287 54.5471C52.0287 54.5471 49.3628 55.9483 46.6987 52.8072C46.6987 52.8072 42.3446 47.1135 40.8495 48.086L39.9881 37.4698Z" fill="#636161"/>
<path d="M39.9166 37.4082C40.0197 37.3524 40.192 37.3404 40.3088 37.3191C40.5053 37.2913 41.1049 37.1952 41.3141 37.1664C43.987 36.7955 46.7048 36.417 49.4048 36.4033C49.8626 36.4036 50.323 36.4354 50.7788 36.5011C52.0495 36.8325 53.3639 37.0043 54.6681 37.0288C55.9729 37.0375 57.2946 36.873 58.505 36.3482C59.7517 36.2036 61.0039 36.0368 62.2639 36.0787C62.4722 36.1053 62.6568 36.0883 62.8547 36.2342C63.1644 37.2182 63.3544 38.2337 63.4836 39.2639C63.9557 43.6217 62.9273 45.917 60.3621 49.1427C60.0852 49.4614 59.6747 49.9549 59.3811 50.2473C57.4384 52.3561 54.6527 54.1462 52.1758 54.8646C50.7708 55.4862 49.1119 55.1804 47.8681 54.2603C47.1457 53.764 46.5294 53.0241 45.9901 52.3114C45.1324 51.2712 42.221 47.5557 40.8996 48.1744L40.7713 48.2342L40.7604 48.0988L39.9189 37.4139L39.9166 37.4082ZM40.0597 37.5309L40.9393 48.0784C40.9393 48.0784 40.798 48.001 40.8016 48.0007C42.2358 47.1536 45.3736 50.8724 46.3417 51.9689L46.9061 52.6538C47.2778 53.0542 47.7023 53.4759 48.1526 53.7652C49.2576 54.5485 50.7247 54.7829 51.9331 54.2109L53.2189 53.7156L54.4629 53.111C54.8591 52.8695 55.2621 52.6433 55.6521 52.3924C56.6031 51.7505 57.5355 50.9915 58.369 50.1813C58.6427 49.8905 59.0829 49.45 59.3353 49.1431C59.7835 48.6209 60.268 48.0287 60.6576 47.4579C61.211 46.6803 61.7223 45.8568 62.1492 45.0045C62.5458 44.1607 62.7834 43.1994 62.9092 42.2551C63.196 40.3952 62.9567 38.0527 62.7181 36.3717C62.5997 36.3062 62.4009 36.2829 62.2525 36.2751C61.0108 36.2337 59.7693 36.3976 58.5388 36.5409C57.4324 37.0435 55.9548 37.2423 54.6657 37.2245C53.3413 37.1977 52.0251 37.026 50.7321 36.6905C50.1374 36.5986 49.3654 36.5921 48.7299 36.6042C45.9293 36.705 43.1066 37.094 40.3354 37.5124L40.168 37.5398L40.0906 37.5521C40.0815 37.5528 40.0752 37.5415 40.0579 37.531L40.0597 37.5309Z" fill="black"/>
<path d="M40.5296 37.3786C40.5296 37.3786 32.3179 37.3696 29.8049 38.2489C29.8049 38.2489 25.536 40.2581 22.1409 39.3487C22.1409 39.3487 18.2747 39.4649 17.9387 39.8871C17.9387 39.8871 17.4358 45.0626 19.556 48.4453C19.556 48.4453 23.7805 55.0146 31.4414 56.1703C31.4414 56.1703 34.2875 57.1243 36.4013 53.5955C36.4013 53.5955 39.7642 47.2756 41.391 47.9948L40.5296 37.3786Z" fill="black"/>
<path d="M40.469 37.4503C40.4538 37.4654 40.4492 37.4757 40.4419 37.4762C40.4236 37.4758 40.225 37.478 40.1959 37.4784C37.4046 37.5134 34.5667 37.5817 31.7975 37.9328C31.1702 38.0252 30.4127 38.1518 29.8425 38.3403C28.626 38.8794 27.3583 39.2607 26.061 39.5002C24.7989 39.7251 23.3102 39.7649 22.1446 39.4487C20.9108 39.5054 19.6646 39.5433 18.4512 39.784C18.304 39.8137 18.1115 39.8688 18.009 39.9541L18.0303 39.9011C18.332 42.833 18.6789 45.7375 20.2007 48.1734C21.4183 49.8955 22.9873 51.4073 24.6512 52.6271C26.7602 54.1642 29.1545 55.1924 31.6581 55.635C33.1181 56.0063 34.6284 55.2439 35.5656 54.0501C35.7297 53.8689 35.9153 53.5714 36.0632 53.3718C36.1779 53.167 36.3792 52.8386 36.505 52.6349C37.3076 51.4006 39.8488 47.2723 41.4249 47.9048C41.4285 47.9045 41.3016 48.0036 41.3016 48.0036L40.4692 37.4523L40.469 37.4503ZM40.5904 37.3062L41.4808 47.9871L41.4918 48.1225L41.3556 48.0842C39.9889 47.7172 37.7803 51.8994 37.1306 53.062L36.72 53.8458C36.4934 54.2236 36.1996 54.6701 35.922 55.0026C34.8166 56.3503 33.1123 57.1265 31.4283 56.7596C31.3835 56.7474 31.3485 56.7423 31.2866 56.7217L31.3722 56.7424L29.9454 56.4889C26.6416 55.7142 23.5565 53.8811 21.1012 51.3589C20.3952 50.6381 19.7338 49.8821 19.1249 49.0309C17.9385 47.2215 17.5211 45.0672 17.5034 42.9377C17.513 41.8883 17.6013 40.8404 17.8564 39.8263C18.0286 39.6563 18.2064 39.6439 18.406 39.5862C19.6373 39.3421 20.8944 39.3033 22.1447 39.2473C23.4186 39.5725 24.7441 39.5222 26.0266 39.3016C27.3042 39.0656 28.57 38.6844 29.7655 38.1549C30.2029 38.0168 30.6485 37.9115 31.1003 37.8373C33.7565 37.4184 36.4905 37.3525 39.1773 37.2885C39.3475 37.2945 40.0113 37.2722 40.1887 37.2776L40.3583 37.2776L40.4477 37.2783C40.4952 37.2784 40.5472 37.29 40.5885 37.3044L40.5904 37.3062Z" fill="black"/>
<path d="M48.7973 37.0353C48.7973 37.0353 35.6095 37.513 33.0771 38.3109C30.5447 39.1089 33.443 46.9331 33.443 46.9331L42.5764 48.0069L47.9007 46.1925L48.819 37.2804L48.7991 37.0352L48.7973 37.0353Z" fill="black"/>
<path d="M17.9063 42.8859C16.3046 43.0159 15.2748 44.7544 15.8257 46.3963L16.9124 49.6298C17.422 51.1446 19.0469 51.8403 20.3567 51.102L20.8207 50.8412C22.0329 50.1583 22.4744 48.5189 21.7942 47.2173L20.2435 44.2446C19.7706 43.339 18.8576 42.8088 17.9063 42.8859Z" fill="white"/>
<path d="M17.9627 43.5881C16.9596 43.79 16.2604 44.8381 16.3894 45.9118C16.4505 46.2821 16.6396 46.9046 16.7338 47.2781C16.8569 47.7619 17.172 48.9923 17.2902 49.4606C17.5291 50.561 18.5994 51.3451 19.6348 51.1801C19.8476 51.151 20.063 51.0861 20.2578 50.9913C20.8773 50.7139 21.4776 50.3354 21.7764 49.6575C22.13 48.9119 22.0809 47.9699 21.6426 47.2669L21.4528 46.9505C20.9397 46.1114 20.3999 45.2803 19.8663 44.4586C19.4306 43.8087 18.6714 43.4654 17.9649 43.5919L17.9627 43.5881ZM17.8486 42.1814C18.9972 42.1316 20.136 42.8825 20.6062 44.0016C20.9878 44.9285 21.3599 45.8502 21.762 46.7596L21.9135 47.0988C22.2994 47.9206 22.319 48.9262 21.9366 49.7432C21.5471 50.63 20.6915 51.1437 19.8742 51.4786C18.8404 51.8192 17.634 51.4274 16.9395 50.4884C16.6346 50.1241 16.4219 49.5035 16.2275 49.063L15.649 47.6881C15.5597 47.4643 15.3145 46.87 15.2257 46.652C14.3906 44.5415 15.7236 42.2235 17.8484 42.1794L17.8486 42.1814Z" fill="black"/>
<path d="M63.9821 38.3886C65.5838 38.2586 66.8805 39.8083 66.6015 41.5175L66.0503 44.884C65.7916 46.4612 64.3001 47.4097 62.8884 46.8922L62.3884 46.7097C61.082 46.2311 60.382 44.6843 60.8434 43.2901L61.8945 40.1063C62.2152 39.1363 63.0308 38.4658 63.9821 38.3886Z" fill="white"/>
<path d="M63.9315 37.7607C65.9882 37.4833 67.6431 39.4917 67.1831 41.6678C67.1323 41.8951 66.9937 42.5245 66.9416 42.7598C66.837 43.2462 66.7174 43.7279 66.6054 44.2129C66.4862 44.6768 66.3852 45.3209 66.145 45.7314C65.5669 46.8566 64.3503 47.4174 63.2436 47.1518C62.4466 46.9281 61.5972 46.5744 61.1084 45.8103C60.6031 45.0673 60.464 44.0714 60.7198 43.2014L60.8183 42.8419C61.0761 41.8829 61.3041 40.9165 61.5407 39.9434C61.826 38.7847 62.8151 37.8928 63.9314 37.7588L63.9315 37.7607ZM64.0336 39.0183C63.3271 39.0105 62.6004 39.4723 62.2613 40.2384C61.8767 41.1406 61.4873 42.051 61.1256 42.9651L60.9913 43.3097C60.6798 44.0795 60.7849 45.015 61.2578 45.6955C61.7621 46.4484 62.6397 46.7446 63.4529 46.8543C64.3405 46.9146 65.2414 46.3063 65.5423 45.4071C65.6904 45.0514 65.6997 44.4246 65.7466 44.0357C65.8175 43.1117 65.9744 42.0108 66.0254 41.1337C65.9999 40.0101 65.079 39.0224 64.0352 39.0162L64.0336 39.0183Z" fill="black"/>
<path d="M31.3693 41.0348L26.2139 48.6614" stroke="white" stroke-width="0.363575" stroke-miterlimit="10" stroke-linecap="round"/>
<path d="M31.0739 51.2294L38.3902 41.3716" stroke="white" stroke-width="0.363575" stroke-miterlimit="10" stroke-linecap="round"/>
<path d="M52.6547 40.0657L47.9867 47.9233" stroke="white" stroke-width="0.363575" stroke-miterlimit="10" stroke-linecap="round"/>
<path d="M51.7735 49.7471L57.8652 39.7912" stroke="white" stroke-width="0.363575" stroke-miterlimit="10" stroke-linecap="round"/>
</g>
</g>
<defs>
<clipPath id="clip0_1260_1154">
<rect y="0.522217" width="76" height="76" rx="38" fill="white"/>
</clipPath>
<clipPath id="clip1_1260_1154">
<rect width="52.5001" height="20.9182" fill="white" transform="translate(14.3086 37.3381) rotate(-4.63897)"/>
</clipPath>
</defs>
</svg>