<svg xmlns="http://www.w3.org/2000/svg" fill="none" viewBox="-8.74 0.52 96.38 85.82">
<g clip-path="url(#clip0_1260_389)">
<rect y="0.522217" width="76" height="76" rx="38" fill="#FAFBFB"/>
<path d="M23.026 65.7421C26.0007 63.8632 25.4102 59.3212 22.0604 58.245C12.7778 55.2794 -1.40417 51.4908 -4.7543 54.7997C-4.7543 54.7997 -9.96776 59.1019 -7.83803 68.3583C-7.07347 71.6742 -4.25762 74.2176 -1.06144 74.4541C1.44784 74.6347 4.67408 74.0895 9.37427 72.4195C14.0745 70.7495 18.7276 68.4612 23.0233 65.7402L23.026 65.7421Z" fill="white"/>
<path d="M22.5873 65.3215C23.7588 64.5515 24.4736 63.2551 24.2719 61.8168C24.1164 60.4967 23.1901 59.3367 21.9341 58.9466C19.0271 58.0309 16.0561 57.1443 13.0954 56.351C8.67019 55.219 4.16622 54.102 -0.391521 54.0858C-2.51031 54.1316 -4.14918 54.4457 -5.42308 56.2624C-8.23651 59.9117 -8.54643 65.097 -7.12356 69.4234C-6.18866 71.7604 -4.08006 73.6442 -1.60578 74.0461C0.926517 74.3614 3.48293 73.8255 5.9342 73.1263C11.5484 71.5718 18.6832 67.8808 22.5882 65.3262L22.5873 65.3215ZM23.4597 66.1574C17.9337 69.7182 5.44228 75.63 -1.71088 74.7223C-4.41966 74.2597 -6.7485 72.2638 -7.79821 69.6995C-8.86064 66.6228 -9.03455 63.2467 -8.26828 60.0739C-7.77954 58.2272 -6.92964 56.4514 -5.6753 55.0142C-4.98876 54.1527 -3.92552 53.508 -2.83028 53.2745C3.60798 51.8671 15.9 55.5413 22.3661 57.6132C26.0553 58.823 26.7411 64.0864 23.4542 66.1536L23.4597 66.1574Z" fill="#221F1F"/>
<path d="M18.647 24.0055C24.1843 16.4102 34.1386 13.8272 37.818 13.7882C50.6421 13.7437 57.5206 20.8198 59.8341 24.6025C69.9297 41.1086 72.2117 53.2066 69.7409 56.6185C55.4762 58.4107 20.2254 61.0026 13.3491 57.9881C4.75368 54.22 11.7252 33.4996 18.647 24.0055Z" fill="#9D9D9D"/>
<path d="M55.9885 60.9631C52.924 59.209 53.2838 54.645 56.5744 53.4339C65.6946 50.0876 79.6647 45.7133 83.1776 48.8813C83.1776 48.8813 88.6021 52.9651 86.9424 62.3007C86.3451 65.6456 83.6619 68.3056 80.4822 68.6727C77.986 68.9602 74.7378 68.548 69.9582 67.0737C65.1786 65.5994 60.4177 63.5036 55.9891 60.9679L55.9865 60.9658L55.9885 60.9631Z" fill="white"/>
<path d="M55.6952 61.2725C54.2295 60.4411 53.3294 58.7162 53.4545 57.0168C53.5335 55.2727 54.6951 53.6289 56.312 53.0331C59.2234 51.9393 62.1338 50.9472 65.0928 50.0358C69.4304 48.816 79.8058 45.5982 83.4289 48.5367C87.6142 52.2311 88.4323 58.4984 86.97 63.6466C86.2283 65.7216 84.6879 67.5043 82.6926 68.4059C79.7414 69.6863 76.2854 68.9748 73.2659 68.3489C67.2389 66.9143 60.7274 64.2082 55.6932 61.2751L55.6952 61.2725ZM56.278 60.6571C60.7321 63.2427 67.6173 66.3353 73.4187 67.6616C78.6163 68.8781 83.9705 69.3464 86.2715 63.3945C87.4744 59.0081 86.9345 53.8337 83.9649 50.2754C82.6072 48.4869 80.9095 48.2082 78.7813 48.2373C74.2098 48.3946 69.7526 49.7001 65.3716 50.9883C62.4402 51.8744 59.5131 52.8663 56.6488 53.9201C55.3412 54.3908 54.4178 55.6746 54.3375 57.0803C54.2151 58.5641 55.0201 59.9243 56.2753 60.655L56.278 60.6571Z" fill="#221F1F"/>
<path d="M19.9851 73.8449L17.1582 43.6805C17.1382 43.4804 17.1148 43.2803 17.0882 43.0802C16.8115 40.9741 15.3281 24.2096 37.613 22.0119C37.613 22.0119 58.3945 20.3501 59.8379 39.7328L61.1413 70.5416C61.2513 71.9728 61.0713 73.3498 60.6513 74.6385C59.9412 76.8125 58.5545 78.6575 56.8143 80.1939C55.9209 80.9807 54.9475 81.6591 53.9275 82.256C50.7306 84.1281 47.117 85.193 43.4201 85.4881L40.2198 85.7425C37.713 85.9426 35.1895 85.7798 32.7426 85.227C31.0892 84.8539 29.5524 84.4537 28.099 83.8262C25.0187 82.5002 22.5019 80.5466 21.1085 77.8063C20.4951 76.6023 20.1017 75.2694 19.9917 73.8415H19.9851V73.8449Z" fill="white"/>
<path d="M19.8242 74.1401C18.6474 64.3182 17.2573 52.7734 16.2772 42.9956C15.3138 32.9261 20.9676 25.407 30.3382 22.592C32.6251 21.8594 35.0219 21.483 37.3887 21.2117C40.7823 20.9946 44.1592 21.4762 47.4095 22.4801C55.5967 25.078 60.227 31.5084 60.6271 40.167C60.9804 48.3644 61.4138 60.4993 61.7405 68.7306C61.8272 70.6672 61.9872 72.7598 61.3371 74.6353C59.4503 80.4382 53.6966 83.7789 48.2029 85.2644C45.5427 86.0241 42.4824 86.0987 39.7423 86.3124C33.5751 86.5905 25.3979 84.7285 21.611 79.3699C20.4842 77.7623 19.7942 75.8393 19.6642 73.8722L20.1442 74.1503C20.0642 74.2012 19.9075 74.1978 19.8275 74.1469L19.8242 74.1401ZM20.1475 73.5466C20.0742 73.4923 19.9208 73.4889 19.8442 73.5364L20.3242 73.8145C21.0676 81.8762 30.0616 84.9422 36.922 85.2814C38.5255 85.4374 40.8457 85.1152 42.4658 85.0134C49.2029 84.6234 57.8169 81.2793 60.0937 74.2419C60.6771 72.5122 60.4837 70.6129 60.3937 68.812C60.0004 60.5706 59.4537 48.4695 59.0903 40.2586C58.7003 32.2613 54.51 26.4075 46.9228 24.0233C43.9125 23.0974 40.6723 22.6463 37.5288 22.8498C35.2753 23.1177 32.9618 23.4874 30.8116 24.1827C22.121 26.784 16.9173 33.8282 17.894 43.155C18.7574 52.5835 19.4908 64.0299 20.1442 73.5466H20.1475Z" fill="#221F1F"/>
<path d="M24.5967 26.4549C24.5967 26.4549 37.4309 27.6657 49.6285 24.4539L24.5967 26.4549Z" fill="white"/>
<path d="M23.8486 26.5872C23.8486 26.5872 37.9863 27.764 50.1838 24.5522" stroke="#221F1F" stroke-width="0.676267" stroke-miterlimit="10"/>
<path d="M16.9287 40.4791C16.9287 40.4791 38.1669 33.7266 59.3951 37.2131L16.9287 40.4791Z" fill="white"/>
<path d="M16.8291 40.1531C19.3326 39.0475 21.9828 38.532 24.6197 37.9317C28.9966 37.0058 33.497 36.3105 37.9473 35.9103C42.3576 35.5033 47.0079 35.4457 51.4349 35.6865C52.2883 35.7611 54.6418 35.9578 55.4752 36.0358C56.8153 36.2359 58.1487 36.4835 59.4488 36.8769L59.3421 37.545C57.572 37.6095 55.7752 37.3212 54.0151 37.2127C45.1845 36.4767 36.2071 37.1448 27.4832 38.6371C25.9698 38.9186 23.7396 39.3426 22.2495 39.6919C20.516 40.0887 18.7859 40.5093 17.0291 40.8043L16.8291 40.1565V40.1531Z" fill="#221F1F"/>
<path d="M18.9316 61.2149C22.7219 59.8209 37.3196 55.5815 61.5547 57.2739L18.9316 61.2149Z" fill="white"/>
<path d="M18.8193 60.896C25.4398 58.427 32.4936 57.3824 39.4941 56.7855C43.0011 56.5243 46.518 56.3921 50.0316 56.4158C53.5418 56.4328 57.0687 56.4463 60.5423 57.1145L60.4956 57.7928C56.9921 58.0404 53.5218 57.6876 50.0249 57.708C43.0611 57.6537 36.0772 58.0471 29.1967 59.1528C25.7632 59.7158 22.3429 60.4416 19.046 61.537L18.8193 60.8994V60.896Z" fill="#221F1F"/>
<path d="M52.0679 57.2603C52.3845 49.7243 51.7578 36.6397 51.7578 36.6397C51.7578 36.6397 33.9699 35.2593 24.6426 39.1054C24.6426 39.1054 25.546 52.1764 27.4328 59.2986" stroke="#221F1F" stroke-width="0.676267" stroke-miterlimit="10"/>
<path d="M24.7649 38.9291C24.5316 41.3676 26.5284 55.4696 27.4118 58.7764C33.7556 57.162 46.2498 56.5244 51.9168 56.5821C52.2902 52.4444 51.7102 41.934 51.4368 36.9789L51.4235 36.7653C40.9061 35.3374 29.3586 37.7149 24.7649 38.9291Z" fill="#5BC2C7"/>
<path d="M38.304 48.673L38.1807 44.8846C38.1807 44.7625 38.304 44.6811 38.4107 44.7354L42.0176 46.6313C42.1309 46.6889 42.1309 46.8551 42.0176 46.9162L38.534 48.8086C38.4307 48.8629 38.3073 48.7917 38.3007 48.673H38.304Z" fill="white" stroke="black" stroke-width="0.162304"/>
<g clip-path="url(#clip1_1260_389)">
<path d="M62.2733 50.8239C60.4259 24.8418 38.5477 26.6464 38.5477 26.6464C14.875 29.4982 17.6119 54.735 17.6119 54.735L17.0114 47.1558C17.0114 47.1558 14.2766 21.9188 37.9472 19.0672C37.9472 19.0672 59.8275 17.2624 61.6728 43.2447L62.2733 50.8239Z" fill="#FFE8C2"/>
<path d="M62.2634 50.7135C62.0581 49.5723 61.9182 48.3118 61.733 47.1599C61.6105 46.2183 61.3375 45.0741 61.1276 44.1446C61.0234 43.7977 60.7345 42.7372 60.6266 42.3707C60.4723 41.957 60.1572 41.03 60.0131 40.6355C59.7647 40.0854 59.5337 39.4937 59.284 38.9527C56.8449 33.7461 52.391 29.7907 47.1467 28.0494C44.9236 27.2829 42.6008 26.8455 40.2699 26.7492C39.5063 26.7182 38.7042 26.7039 37.952 26.8499C36.8348 26.9922 35.6208 27.2565 34.5185 27.5199C33.8791 27.7027 33.2003 27.9179 32.5622 28.1162C32.1954 28.2595 31.2931 28.6167 30.9282 28.7577C30.5369 28.9343 29.9988 29.2151 29.6081 29.3984C29.2105 29.5756 28.4584 30.0598 28.0788 30.2732C27.6036 30.5507 27.0818 30.9702 26.6219 31.2775C23.9607 33.3061 21.8108 36.0709 20.3589 39.1774C18.1667 43.9618 17.3383 49.4233 17.716 54.7236L17.5069 54.7419C17.1284 51.936 16.6811 48.7533 16.4088 45.9336C16.0638 40.9108 16.7742 35.7622 18.7587 31.1806C22.3305 22.969 29.4229 18.8369 37.723 17.8096C40.0024 17.6545 42.2933 17.9434 44.5206 18.4693C45.6747 18.7487 46.9235 19.1466 48.0258 19.6041C55.9985 22.8776 60.4402 29.8935 61.7611 38.6C61.8238 39.0996 61.9637 40.3356 62.0203 40.8379C62.0458 41.1294 62.0639 41.673 62.0868 41.958C62.3282 44.8828 62.0395 47.7472 62.2636 50.7157L62.2634 50.7135ZM62.2806 50.9345C62.1128 48.9934 61.7036 47.089 61.4197 45.098C61.2779 44.1048 61.1608 43.0559 61.0173 42.0672C60.9884 41.8094 60.8978 41.2322 60.868 40.9878C60.8337 40.8128 60.5651 39.4301 60.5206 39.2115C58.7701 30.6294 54.0575 24.0333 45.9538 21.4543C43.3834 20.6448 40.6576 20.2027 37.9859 20.3543C37.6423 20.4022 36.5346 20.5793 36.1766 20.6307C34.8684 20.8787 33.5627 21.2267 32.2942 21.6382C24.0401 24.4658 19.4443 31.332 17.9668 40.1634C17.5901 42.5282 17.3797 44.9385 17.5018 47.3442L17.5532 48.8216C17.616 50.5249 17.6885 53.0372 17.7183 54.7256L17.5092 54.744C16.8588 45.8007 19.6671 35.8737 26.9849 30.754C27.558 30.3188 28.3693 29.8362 28.9913 29.4791C29.2712 29.3055 29.7474 29.088 30.0463 28.9395C30.2435 28.8332 30.6552 28.6481 30.845 28.5536C30.9982 28.4979 32.0366 28.0821 32.2181 28.0128C32.9401 27.7382 33.7267 27.5269 34.4636 27.3022L35.6104 27.0416C36.5546 26.8009 37.5446 26.6986 38.5041 26.5367C44.5424 26.2994 50.8452 28.3841 55.287 32.8501C57.5678 35.1424 59.3008 38.0367 60.4127 41.1322L60.8246 42.2977L61.1608 43.4898C61.3862 44.1865 61.5664 45.1853 61.7282 45.901C61.8979 46.6359 61.9953 47.6042 62.1278 48.3469C62.242 49.169 62.2378 50.1083 62.2782 50.9303L62.2806 50.9345Z" fill="black"/>
<path d="M17.9248 36.4846C17.9248 36.4846 19.7698 36.4232 20.4883 38.6587" stroke="black" stroke-width="0.202726" stroke-miterlimit="10"/>
<path d="M18.792 33.6497C18.792 33.6497 21.4236 33.931 21.941 36.1329" stroke="black" stroke-width="0.202726" stroke-miterlimit="10"/>
<path d="M19.9814 30.502C19.9814 30.502 23.2697 31.2776 23.9179 33.6016" stroke="black" stroke-width="0.202726" stroke-miterlimit="10"/>
<path d="M22.3145 27.1733C22.3145 27.1733 25.5698 28.0787 26.8731 30.9527" stroke="black" stroke-width="0.202726" stroke-miterlimit="10"/>
<path d="M26.2119 23.4167C26.2119 23.4167 29.7497 27.0185 29.9019 29.1167" stroke="black" stroke-width="0.202726" stroke-miterlimit="10"/>
<path d="M29.8828 21.2598C29.8828 21.2598 33.1064 24.5219 33.4632 27.7058" stroke="black" stroke-width="0.202726" stroke-miterlimit="10"/>
<path d="M35.594 19.4403C35.594 19.4403 35.6159 24.0708 36.2377 26.791" stroke="black" stroke-width="0.202726" stroke-miterlimit="10"/>
<path d="M40.2459 19.0884C40.2459 19.0884 39.2605 23.0217 40.1987 26.6353" stroke="black" stroke-width="0.202726" stroke-miterlimit="10"/>
<path d="M45.1651 19.9214C45.1651 19.9214 43.845 23.0163 43.9003 27.0654" stroke="black" stroke-width="0.202726" stroke-miterlimit="10"/>
<path d="M49.1163 21.4113C49.1163 21.4113 47.5488 24.0406 47.5867 28.0823" stroke="black" stroke-width="0.202726" stroke-miterlimit="10"/>
<path d="M52.3828 23.4036C52.3828 23.4036 49.0969 27.1312 49.7765 28.9474" stroke="black" stroke-width="0.202726" stroke-miterlimit="10"/>
<path d="M55.2983 26.0652C55.2983 26.0652 53.0314 27.9748 53.0486 31.0349" stroke="black" stroke-width="0.202726" stroke-miterlimit="10"/>
<path d="M58.02 30.2145C58.02 30.2145 55.3288 31.8519 55.4823 33.1958" stroke="black" stroke-width="0.202726" stroke-miterlimit="10"/>
<path d="M59.1625 32.1682C59.1625 32.1682 57.7798 32.6965 57.0426 35.035" stroke="black" stroke-width="0.202726" stroke-miterlimit="10"/>
</g>
</g>
<defs>
<clipPath id="clip0_1260_389">
<rect y="0.522217" width="76" height="76" rx="38" fill="white"/>
</clipPath>
<clipPath id="clip1_1260_389">
<rect width="45.8821" height="35.1409" fill="white" transform="translate(14.127 19.876) rotate(-5.00468)"/>
</clipPath>
</defs>
</svg>