<svg xmlns="http://www.w3.org/2000/svg" fill="none" viewBox="-13 0.52 102.72 88.53">
<g clip-path="url(#clip0_1260_128)">
<rect y="0.522217" width="76" height="76" rx="37.1846" fill="#FAFBFB"/>
<path d="M63.2096 65.8475C59.736 66.3597 57.2925 62.5103 59.1726 59.502C64.3897 51.1723 72.8303 39.0102 77.5039 39.3426C77.5039 39.3426 84.2377 39.2137 88.5047 47.6621C90.0315 50.6907 89.4981 54.4723 87.2013 56.7412C85.3978 58.5218 82.581 60.2142 77.9173 62.0151C73.2536 63.816 68.2333 65.1116 63.2129 65.8509H63.2096V65.8475Z" fill="white"/>
<path d="M63.1627 66.2749C61.506 66.5259 59.7625 65.7153 58.8458 64.2875C57.8657 62.8528 57.8024 60.8247 58.7258 59.346C60.3759 56.6667 62.086 54.0687 63.8828 51.5047C66.5863 47.8385 72.8734 38.8305 77.4971 38.9119C83.0175 39.2443 87.4111 43.7144 89.3313 48.7135C89.9847 50.823 89.8313 53.1971 88.7912 55.154C87.2211 58.0063 84.0609 59.5902 81.2974 60.9705C75.6703 63.5786 68.8998 65.4779 63.1627 66.2783V66.2749ZM63.2561 65.4236C68.3264 64.708 75.6236 62.8834 81.0074 60.3295C85.8477 58.064 90.3647 55.1066 88.6279 48.9475C86.9578 44.7149 83.4375 40.9401 78.9605 39.9599C76.8171 39.3833 75.3069 40.2177 73.6402 41.5641C70.1166 44.5317 67.3697 48.3404 64.6729 52.0881C62.8827 54.6148 61.1593 57.2229 59.5225 59.8412C58.7691 61.0282 58.8058 62.6222 59.5825 63.7889C60.3726 65.0438 61.8227 65.6237 63.2528 65.4236H63.2561Z" fill="#221F1F"/>
<mask id="mask0_1260_128" style="mask-type:luminance" maskUnits="userSpaceOnUse" x="-13" y="50" width="41" height="40">
<path d="M14.4322 50.773L-13 71.282L-0.165137 89.0519L27.2671 68.543L14.4322 50.773Z" fill="white"/>
</mask>
<g mask="url(#mask0_1260_128)">
<path d="M23.9919 67.0042C25.4053 63.7348 22.4118 60.3127 19.0582 61.3505C9.7742 64.2401 -4.00012 69.2698 -4.93352 73.9399C-4.93352 73.9399 -6.85365 80.506 0.0101695 86.9465C2.47035 89.2528 6.19394 89.7378 8.95747 88.0929C11.1243 86.7973 13.4811 84.4876 16.4313 80.3974C19.3815 76.3072 21.9517 71.732 23.9885 67.0042H23.9919Z" fill="white"/>
<path d="M23.3984 66.9093C23.9384 65.5967 23.8117 64.1112 22.8517 63.0361C21.9949 62.0322 20.5915 61.6049 19.3414 62.0051C16.4412 62.9208 13.5043 63.8976 10.6275 64.9455C6.35716 66.5565 2.03018 68.2252 -1.73342 70.8367C-3.45354 72.0949 -4.63029 73.2989 -4.67696 75.5373C-4.98032 80.1804 -2.37347 84.6538 1.18679 87.4179C3.24693 88.8152 6.0238 89.1612 8.28396 88.0691C10.5441 86.8719 12.3543 84.9557 13.9877 82.9648C17.7546 78.4439 21.5949 71.2776 23.4017 66.9126L23.3984 66.9093ZM24.5785 67.0992C21.9916 73.2311 14.9644 85.322 8.57065 88.6898C6.08381 89.8666 3.06359 89.5546 0.783426 88.0352C-1.79009 86.0986 -3.7969 83.4023 -4.91698 80.333C-5.53369 78.5219 -5.81371 76.5616 -5.57369 74.6488C-5.48369 73.5397 -4.96365 72.3934 -4.19026 71.5692C0.336728 66.6956 12.4909 62.6596 18.9614 60.6519C22.6683 59.5292 26.1386 63.494 24.5718 67.0992H24.5785Z" fill="#221F1F"/>
</g>
<path d="M20.8962 75.2116L18.0693 45.0472C18.0493 44.8471 18.026 44.647 17.9993 44.4469C17.7226 42.3408 16.2392 25.5763 38.5241 23.3786C38.5241 23.3786 59.3056 21.7168 60.749 41.0995L62.0524 71.9083C62.1625 73.3395 61.9824 74.7165 61.5624 76.0052C60.8524 78.1792 59.4656 80.0242 57.7255 81.5606C56.8321 82.3474 55.8587 83.0258 54.8386 83.6227C51.6417 85.4948 48.0281 86.5597 44.3312 86.8548L41.131 87.1092C38.6241 87.3093 36.1006 87.1465 33.6538 86.5937C32.0003 86.2206 30.4635 85.8204 29.0101 85.1929C25.9299 83.8669 23.413 81.9133 22.0196 79.173C21.4062 77.969 21.0129 76.6361 20.9029 75.2082H20.8962V75.2116Z" fill="white"/>
<path d="M20.7353 75.5068C19.5585 65.6849 18.1684 54.1401 17.1884 44.3623C16.225 34.2928 21.8787 26.7737 31.2494 23.9587C33.5362 23.2261 35.933 22.8497 38.2999 22.5784C41.6935 22.3613 45.0704 22.8429 48.3206 23.8468C56.5078 26.4447 61.1382 32.8751 61.5382 41.5337C61.8916 49.7311 62.3249 61.866 62.6516 70.0973C62.7383 72.0339 62.8983 74.1265 62.2483 76.002C60.3615 81.8049 54.6077 85.1456 49.114 86.6311C46.4538 87.3908 43.3936 87.4654 40.6534 87.6791C34.4863 87.9572 26.309 86.0952 22.5221 80.7366C21.3953 79.129 20.7053 77.206 20.5753 75.2389L21.0553 75.517C20.9753 75.5679 20.8186 75.5645 20.7386 75.5136L20.7353 75.5068ZM21.0587 74.9133C20.9853 74.859 20.832 74.8556 20.7553 74.9031L21.2353 75.1812C21.9787 83.2429 30.9727 86.3089 37.8332 86.6481C39.4366 86.8041 41.7568 86.4819 43.3769 86.3801C50.1141 85.9901 58.728 82.646 61.0048 75.6086C61.5882 73.8789 61.3949 71.9796 61.3049 70.1787C60.9115 61.9373 60.3648 49.8362 60.0014 41.6253C59.6114 33.628 55.4211 27.7742 47.8339 25.3899C44.8237 24.4641 41.5835 24.013 38.4399 24.2165C36.1864 24.4844 33.8729 24.8541 31.7227 25.5494C23.0321 28.1507 17.8284 35.1949 18.8052 44.5217C19.6686 53.9502 20.4019 65.3966 21.0553 74.9133H21.0587Z" fill="#221F1F"/>
<path d="M38.7055 25.56C39.1725 25.5333 39.4389 24.9205 39.1841 24.4681C36.7601 20.1563 26.8215 4.31697 16.8911 14.711C6.77263 25.3 25.5887 18.8348 31.9342 19.4106C33.889 19.5891 35.7243 20.6212 36.9834 22.3761C37.5242 23.1327 37.9618 24.0126 38.0971 24.9864C38.146 25.3342 38.4082 25.5793 38.7076 25.5657L38.7078 25.5601L38.7055 25.56Z" fill="white"/>
<path d="M38.4705 25.5625C38.4844 25.5021 38.5432 25.3687 38.6439 25.3171C38.7328 25.2678 38.7699 25.2831 38.8396 25.2414C39.056 25.1139 39.1076 24.7837 38.9503 24.5702L38.8838 24.4542C37.7276 22.4512 36.4385 20.5456 35.0242 18.7875C30.7777 13.4108 24.5056 8.79946 18.5402 13.685C17.0556 14.933 15.5265 16.5059 14.5586 18.324C14.3492 18.7894 14.1543 19.3136 14.4314 19.7336C14.6502 20.0075 14.9564 20.1353 15.3059 20.2397C16.2085 20.4812 17.1506 20.4695 18.0841 20.4353C21.9049 20.2382 25.7303 19.3715 29.5684 19.0838C30.8711 18.9943 32.2143 18.9589 33.4822 19.3884C35.681 20.1269 37.792 22.091 38.3134 24.8065L38.3343 24.9484C38.3603 25.1487 38.5245 25.2988 38.6966 25.2914C38.6968 25.2859 38.4606 25.5759 38.4684 25.5541L38.6915 25.8392C38.6539 25.8378 38.5838 25.8214 38.5321 25.753C38.4779 25.6873 38.4666 25.6066 38.4681 25.5651L38.4705 25.5625ZM38.9415 25.558C38.943 25.5165 38.9317 25.4358 38.8798 25.3702C38.8256 25.3045 38.758 25.2854 38.7228 25.2841C38.7226 25.2896 38.953 25.5667 38.9456 25.5748L38.9363 25.8401L38.7173 25.843C38.3775 25.8634 38.0401 25.6183 37.9143 25.2454C37.4792 22.619 35.4456 20.7298 33.3274 20.0414C32.1406 19.6481 30.8748 19.6919 29.605 19.7854C25.7565 20.1005 21.9845 20.9858 18.1087 21.2085C16.299 21.3232 12.4421 21.2754 13.9855 17.9537C14.3284 17.2387 14.7681 16.6518 15.2165 16.0846C16.1315 14.9675 17.0955 13.9298 18.19 13.0657C21.683 10.202 25.7922 10.3064 29.4225 12.6486C33.543 15.3137 36.6903 19.6112 39.2929 24.1347L39.3593 24.2534L39.3925 24.3128C39.7191 24.8675 39.414 25.7114 38.8428 25.82C38.8309 25.8251 38.8738 25.8101 38.8934 25.7887C38.9516 25.7411 38.9725 25.6145 38.9462 25.5582L38.9415 25.558Z" fill="#221F1F"/>
<path d="M25.5049 27.8216C25.5049 27.8216 38.3391 29.0324 50.5367 25.8206L25.5049 27.8216Z" fill="white"/>
<path d="M24.7588 27.9539C24.7588 27.9539 38.8965 29.1307 51.094 25.9189" stroke="#221F1F" stroke-width="0.64777" stroke-miterlimit="10"/>
<path d="M17.8379 41.8456C17.8379 41.8456 39.0761 35.093 60.3043 38.5795L17.8379 41.8456Z" fill="white"/>
<path d="M17.7383 41.5201C20.2418 40.4144 22.892 39.8989 25.5288 39.2986C29.9058 38.3727 34.4061 37.6775 38.8565 37.2773C43.2668 36.8703 47.9171 36.8126 52.3441 37.0534C53.1975 37.128 55.551 37.3247 56.3844 37.4028C57.7245 37.6029 59.0579 37.8504 60.358 38.2439L60.2513 38.912C58.4812 38.9764 56.6844 38.6881 54.9243 38.5796C46.0936 37.8437 37.1163 38.5118 28.3924 40.0041C26.8789 40.2856 24.6488 40.7095 23.1587 41.0588C21.4252 41.4556 19.6951 41.8762 17.9383 42.1713L17.7383 41.5235V41.5201Z" fill="#221F1F"/>
<path d="M19.8428 62.5813C23.633 61.1874 38.2308 56.948 62.4658 58.6403L19.8428 62.5813Z" fill="white"/>
<path d="M19.7275 62.2627C26.348 59.7937 33.4018 58.7491 40.4023 58.1522C43.9093 57.891 47.4262 57.7588 50.9398 57.7825C54.45 57.7995 57.9769 57.813 61.4505 58.4812L61.4038 59.1595C57.9003 59.4071 54.43 59.0543 50.9331 59.0747C43.9693 59.0204 36.9854 59.4138 30.1049 60.5195C26.6714 61.0825 23.2511 61.8083 19.9542 62.9037L19.7275 62.2661V62.2627Z" fill="#221F1F"/>
<path d="M52.977 58.627C53.2937 51.091 52.667 38.0064 52.667 38.0064C52.667 38.0064 34.8791 36.626 25.5518 40.4721C25.5518 40.4721 26.4552 53.5431 28.342 60.6653" stroke="#221F1F" stroke-width="0.64777" stroke-miterlimit="10"/>
<path d="M25.676 40.2958C25.4427 42.7343 27.4395 56.8363 28.3229 60.1431C34.6667 58.5287 47.1609 57.8911 52.828 57.9488C53.2013 53.8111 52.6213 43.3007 52.3479 38.3456L52.3346 38.132C41.8172 36.7041 30.2697 39.0816 25.676 40.2958Z" fill="#5BC2C7"/>
<path d="M39.2142 50.0397L39.0908 46.2513C39.0908 46.1292 39.2142 46.0478 39.3208 46.1021L42.9278 47.998C43.0411 48.0556 43.0411 48.2218 42.9278 48.2829L39.4442 50.1753C39.3408 50.2296 39.2175 50.1584 39.2108 50.0397H39.2142Z" fill="white" stroke="black" stroke-width="0.155465"/>
<g clip-path="url(#clip1_1260_128)">
<path d="M29.7479 56.3553C33.8433 56.1931 37.0317 52.7416 36.8694 48.6463C36.7072 44.551 33.2557 41.3626 29.1604 41.5248C25.065 41.6871 21.8766 45.1385 22.0389 49.2339C22.2011 53.3292 25.6526 56.5176 29.7479 56.3553Z" fill="#F0D9FF"/>
<path d="M36.5274 48.6605C36.2513 43.7738 31.0188 40.7359 26.6509 42.8606C21.2834 45.4767 21.5562 53.1424 27.0756 55.4014C31.6598 57.2808 36.8806 53.6699 36.5275 48.6625L36.5274 48.6605ZM37.2154 48.6332C37.2808 51.6901 35.5022 54.7045 32.7263 56.0296C29.9245 57.43 26.3384 56.947 24.0043 54.8423C20.6652 52.0018 20.4002 46.5638 23.4518 43.3958C28.3514 38.1865 37.0205 41.5276 37.2133 48.6333L37.2154 48.6332Z" fill="black"/>
<path d="M50.7479 55.3177C54.8433 55.1555 58.0317 51.704 57.8694 47.6087C57.7072 43.5134 54.2557 40.325 50.1604 40.4872C46.065 40.6495 42.8766 44.1009 43.0389 48.1963C43.2011 52.2916 46.6526 55.48 50.7479 55.3177Z" fill="#F0D9FF"/>
<path d="M57.2648 47.6331C57.0844 44.0175 53.7982 41.0016 50.1825 41.1263C46.4637 41.1478 43.299 44.4275 43.4251 48.1814C43.4172 51.9921 46.92 55.2676 50.7318 54.9908C54.5107 54.8204 57.5354 51.3915 57.2648 47.6331ZM58.4698 47.5853C58.5772 54.5665 50.3561 58.2136 45.2029 53.5841C41.093 49.8272 42.0857 43.0665 47.0995 40.6357C52.2748 38.116 58.3768 41.8022 58.4698 47.5853Z" fill="black"/>
<path d="M43.0556 48.3904C43.0556 48.3904 40.1684 47.9873 36.8734 49.0286L43.0556 48.3904Z" fill="white"/>
<path d="M43.0556 48.3904C43.0556 48.3904 40.1684 47.9873 36.8734 49.0286" stroke="black" stroke-width="0.608116" stroke-miterlimit="10" stroke-linecap="round"/>
</g>
</g>
<defs>
<clipPath id="clip0_1260_128">
<rect y="0.522217" width="76" height="76" rx="37.1846" fill="white"/>
</clipPath>
<clipPath id="clip1_1260_128">
<rect width="37.1816" height="16.1511" fill="white" transform="translate(21 40.9941) rotate(-2.26875)"/>
</clipPath>
</defs>
</svg>