<svg xmlns="http://www.w3.org/2000/svg" fill="none" viewBox="-13.41 0.52 97.48 88.13">
<g clip-path="url(#clip0_1260_1286)">
<rect y="0.522217" width="76" height="76" rx="35.0025" fill="#FAFBFB"/>
<path d="M53.8035 59.5144C52.1555 56.3786 54.9016 52.7235 58.3273 53.4805C67.8164 55.5872 81.9495 59.4482 83.2193 64.0189C83.2193 64.0189 85.6126 70.3953 79.2157 77.3724C76.9215 79.8708 73.2332 80.6642 70.3527 79.2553C68.0919 78.1487 65.5707 76.0455 62.3252 72.2187C59.0797 68.3919 56.1826 64.0511 53.8015 59.5187L53.8003 59.5156L53.8035 59.5144Z" fill="white"/>
<path d="M53.3909 59.6169C52.5987 58.1236 52.762 56.1822 53.777 54.8165C54.777 53.3881 56.6371 52.6295 58.3207 53.0009C61.3635 53.6518 64.3511 54.388 67.3364 55.2185C71.6505 56.5341 82.1301 59.4275 83.6158 63.8641C85.1714 69.2422 82.5081 74.9704 78.5187 78.5223C76.7823 79.8715 74.5281 80.5426 72.3615 80.2246C69.1852 79.7095 66.6488 77.2416 64.4351 75.0818C60.1156 70.6144 56.0675 64.8127 53.3878 59.6181L53.3909 59.6169ZM54.2122 59.4128C56.5881 64.001 60.7448 70.3306 64.9319 74.5846C68.668 78.4199 72.9368 81.7086 78.0641 77.9322C81.4268 74.8825 83.7401 70.2265 83.1377 65.6203C82.9488 63.378 81.6649 62.2254 79.853 61.0997C75.9102 58.7617 71.4493 57.4538 67.062 56.1726C64.1135 55.3356 61.112 54.5903 58.1304 53.931C56.7748 53.6213 55.3084 54.2051 54.4883 55.3473C53.5909 56.5327 53.5425 58.115 54.2111 59.4097L54.2122 59.4128Z" fill="#221F1F"/>
<mask id="mask0_1260_1286" style="mask-type:luminance" maskUnits="userSpaceOnUse" x="-14" y="48" width="40" height="41">
<path d="M10.3861 48.4406L-13.4102 73.3752L2.0584 88.6507L25.8546 63.716L10.3861 48.4406Z" fill="white"/>
</mask>
<g mask="url(#mask0_1260_1286)">
<path d="M22.4795 62.807C23.3632 59.3548 19.8567 56.5176 16.6982 58.1176C7.95695 62.5632 -4.89485 69.8872 -5.08163 74.63C-5.08163 74.63 -5.94642 81.4037 1.87146 86.5299C4.67324 88.3651 8.43894 88.1946 10.9169 86.1016C12.8589 84.4547 14.8289 81.7802 17.1055 77.2562C19.382 72.7322 21.2054 67.7985 22.4762 62.8076L22.4795 62.807Z" fill="white"/>
<path d="M21.8749 62.8163C22.2025 61.4351 21.8423 60 20.7213 59.1121C19.7138 58.2761 18.2559 58.1005 17.0806 58.71C14.352 60.1115 11.5967 61.5793 8.91212 63.1065C4.93597 65.4278 0.912789 67.8155 -2.40326 71.0302C-3.9086 72.5629 -4.88419 73.9481 -4.57672 76.1519C-4.14359 80.7588 -0.85403 84.6943 3.10999 86.7877C5.37183 87.8007 8.17761 87.6582 10.2443 86.1947C12.2943 84.6281 13.7848 82.4344 15.0885 80.1981C18.1062 75.1099 20.7784 67.4141 21.8788 62.8191L21.8749 62.8163ZM23.0741 62.7978C21.4801 69.2614 16.4287 82.3407 10.6264 86.7537C8.34853 88.3397 5.30702 88.5578 2.8079 87.4631C-0.0477607 86.0102 -2.46202 83.7138 -4.05672 80.8975C-4.9539 79.228 -5.54108 77.3538 -5.60555 75.4359C-5.69162 74.3324 -5.35755 73.1177 -4.72156 72.1751C-1.00666 66.609 10.3971 60.5409 16.4903 57.4486C19.9855 55.7041 24.05 58.9908 23.0675 62.799L23.0741 62.7978Z" fill="#221F1F"/>
</g>
<path d="M19.9851 73.8454L17.1582 43.681C17.1382 43.4809 17.1148 43.2808 17.0882 43.0807C16.8115 40.9745 15.3281 24.2101 37.613 22.0124C37.613 22.0124 58.3945 20.3506 59.8379 39.7332L61.1413 70.542C61.2513 71.9733 61.0713 73.3502 60.6513 74.639C59.9412 76.813 58.5545 78.658 56.8143 80.1944C55.9209 80.9812 54.9475 81.6595 53.9275 82.2565C50.7306 84.1286 47.117 85.1935 43.4201 85.4886L40.2198 85.743C37.713 85.9431 35.1895 85.7803 32.7426 85.2274C31.0892 84.8544 29.5524 84.4542 28.099 83.8267C25.0187 82.5006 22.5019 80.5471 21.1085 77.8067C20.4951 76.6027 20.1017 75.2699 19.9917 73.842H19.9851V73.8454Z" fill="white"/>
<path d="M19.8251 74.1404C18.6484 64.3184 17.2583 52.7736 16.2782 42.9958C15.3148 32.9263 20.9686 25.4072 30.3392 22.5923C32.6261 21.8597 35.0229 21.4832 37.3897 21.2119C40.7833 20.9948 44.1602 21.4764 47.4104 22.4803C55.5977 25.0783 60.228 31.5086 60.6281 40.1672C60.9814 48.3646 61.4148 60.4996 61.7415 68.7308C61.8281 70.6674 61.9881 72.76 61.3381 74.6355C59.4513 80.4385 53.6976 83.7791 48.2038 85.2646C45.5436 86.0243 42.4834 86.099 39.7432 86.3126C33.5761 86.5907 25.3989 84.7288 21.6119 79.3701C20.4852 77.7625 19.7951 75.8395 19.6651 73.8724L20.1452 74.1505C20.0652 74.2014 19.9085 74.198 19.8285 74.1471L19.8251 74.1404ZM20.1485 73.5468C20.0752 73.4926 19.9218 73.4892 19.8451 73.5367L20.3252 73.8148C21.0686 81.8765 30.0625 84.9424 36.923 85.2816C38.5265 85.4376 40.8466 85.1154 42.4668 85.0137C49.2039 84.6236 57.8178 81.2796 60.0947 74.2421C60.6781 72.5124 60.4847 70.6132 60.3947 68.8122C60.0013 60.5708 59.4546 48.4698 59.0913 40.2588C58.7012 32.2616 54.5109 26.4078 46.9237 24.0235C43.9135 23.0976 40.6733 22.6465 37.5297 22.85C35.2762 23.118 32.9627 23.4876 30.8126 24.1829C22.122 26.7842 16.9183 33.8285 17.895 43.1552C18.7584 52.5837 19.4918 64.0302 20.1452 73.5468H20.1485Z" fill="#221F1F"/>
<path d="M37.8207 22.1219C38.3036 22.0822 38.5573 21.5239 38.2768 21.1269C35.6085 17.3428 24.7356 3.47677 14.826 13.1294C4.7287 22.9631 23.9868 16.5339 30.5818 16.8366C32.6135 16.9309 34.5525 17.7944 35.9207 19.3254C36.5085 19.9855 36.9939 20.7597 37.1695 21.6281C37.2329 21.9383 37.5134 22.1492 37.8231 22.1269V22.1219H37.8207Z" fill="white"/>
<path d="M37.5759 22.1319C37.5881 22.0773 37.6442 21.9557 37.7466 21.9061C37.8369 21.859 37.8759 21.8714 37.9466 21.8317C38.1661 21.7101 38.2076 21.4123 38.0368 21.2262L37.9637 21.1245C36.693 19.3676 35.2881 17.7026 33.7589 16.1741C29.1639 11.4967 22.4981 7.5736 16.4958 12.1542C15.0032 13.323 13.4764 14.7845 12.5398 16.4471C12.3398 16.8714 12.1569 17.3478 12.4593 17.715C12.6959 17.9533 13.0178 18.0575 13.3837 18.1394C14.3276 18.3255 15.3032 18.2833 16.269 18.2212C20.2201 17.916 24.1518 17.0103 28.1175 16.6232C29.4639 16.4992 30.8541 16.4222 32.1833 16.7647C34.4881 17.3528 36.7466 19.0426 37.3856 21.4595L37.4125 21.586C37.4466 21.7647 37.6222 21.8937 37.8003 21.8813C37.8003 21.8763 37.5661 22.1443 37.5734 22.1245L37.8149 22.3726C37.7759 22.3726 37.7027 22.3602 37.6466 22.3007C37.5881 22.2436 37.5734 22.1716 37.5734 22.1344L37.5759 22.1319ZM38.0637 22.1121C38.0637 22.0748 38.049 22.0029 37.9929 21.9458C37.9344 21.8887 37.8637 21.8739 37.8271 21.8739C37.8271 21.8788 38.0759 22.1195 38.0686 22.127V22.3652L37.8417 22.3751C37.4905 22.4049 37.132 22.1964 36.9881 21.8664C36.4418 19.5265 34.2662 17.9011 32.0467 17.3552C30.8029 17.0426 29.4931 17.1245 28.181 17.251C24.2054 17.6629 20.3299 18.5835 16.3227 18.9136C14.452 19.0773 10.4545 19.1642 11.9325 16.1344C12.2618 15.4818 12.6959 14.9408 13.1398 14.4173C14.0471 13.385 15.0081 12.4222 16.1105 11.6108C19.625 8.92595 23.8859 8.88129 27.7322 10.859C32.0979 13.1096 35.5149 16.8565 38.3759 20.8242L38.449 20.9284L38.4856 20.9806C38.8441 21.4669 38.5588 22.2337 37.971 22.3503C37.9588 22.3552 38.0027 22.3404 38.0222 22.3205C38.0808 22.2758 38.0978 22.1617 38.0686 22.1121H38.0637Z" fill="#221F1F"/>
<path d="M24.5957 26.4549C24.5957 26.4549 37.43 27.6657 49.6275 24.4539L24.5957 26.4549Z" fill="white"/>
<path d="M23.8486 26.5872C23.8486 26.5872 37.9863 27.764 50.1838 24.5522" stroke="#221F1F" stroke-width="0.665524" stroke-miterlimit="10"/>
<path d="M16.9287 40.4794C16.9287 40.4794 38.1669 33.7268 59.3951 37.2133L16.9287 40.4794Z" fill="white"/>
<path d="M16.8291 40.1536C19.3326 39.048 21.9828 38.5325 24.6197 37.9322C28.9966 37.0063 33.497 36.311 37.9473 35.9108C42.3576 35.5038 47.0079 35.4462 51.4349 35.687C52.2883 35.7616 54.6418 35.9583 55.4752 36.0363C56.8153 36.2364 58.1487 36.484 59.4488 36.8774L59.3421 37.5455C57.572 37.61 55.7752 37.3217 54.0151 37.2132C45.1845 36.4772 36.2071 37.1453 27.4832 38.6376C25.9698 38.9191 23.7396 39.3431 22.2495 39.6924C20.516 40.0892 18.7859 40.5097 17.0291 40.8048L16.8291 40.157V40.1536Z" fill="#221F1F"/>
<path d="M18.9316 61.2149C22.7219 59.8209 37.3196 55.5815 61.5547 57.2739L18.9316 61.2149Z" fill="white"/>
<path d="M18.8193 60.8963C25.4398 58.4272 32.4936 57.3826 39.4941 56.7857C43.0011 56.5246 46.518 56.3923 50.0316 56.4161C53.5418 56.433 57.0687 56.4466 60.5423 57.1147L60.4956 57.793C56.9921 58.0406 53.5218 57.6879 50.0249 57.7082C43.0611 57.654 36.0772 58.0474 29.1967 59.153C25.7632 59.716 22.3429 60.4418 19.046 61.5373L18.8193 60.8997V60.8963Z" fill="#221F1F"/>
<path d="M52.0679 57.2605C52.3845 49.7245 51.7578 36.64 51.7578 36.64C51.7578 36.64 33.9699 35.2596 24.6426 39.1056C24.6426 39.1056 25.546 52.1766 27.4328 59.2989" stroke="#221F1F" stroke-width="0.665524" stroke-miterlimit="10"/>
<path d="M24.7659 38.9291C24.5325 41.3676 26.5294 55.4696 27.4127 58.7764C33.7565 57.162 46.2508 56.5244 51.9178 56.5821C52.2912 52.4444 51.7111 41.934 51.4378 36.9789L51.4245 36.7653C40.907 35.3374 29.3596 37.7149 24.7659 38.9291Z" fill="#5BC2C7"/>
<path d="M38.304 48.673L38.1807 44.8846C38.1807 44.7625 38.304 44.6811 38.4107 44.7354L42.0176 46.6313C42.1309 46.6889 42.1309 46.8551 42.0176 46.9162L38.534 48.8086C38.4307 48.8629 38.3073 48.7917 38.3007 48.673H38.304Z" fill="white" stroke="black" stroke-width="0.159726"/>
<g clip-path="url(#clip1_1260_1286)">
<path d="M52.8892 40.164C52.8892 40.164 58.1592 35.5789 62.5229 35.5144C63.8101 35.4948 64.9753 36.2753 65.4479 37.4733C66.5386 40.241 66.6655 46.4759 53.8177 55.8699C53.8177 55.8699 40.5347 53.4645 41.7275 44.2068C41.7275 44.2068 43.5707 35.604 52.8905 40.1651L52.8892 40.164Z" fill="white"/>
<path d="M52.8815 40.1046C52.8815 40.1046 52.8694 40.1017 52.8659 40.1031C52.8659 40.1031 52.8738 40.0955 52.8772 40.0917L52.9032 40.0649C52.9981 39.9658 53.1791 39.8015 53.279 39.7057C55.5181 37.707 58.0376 35.9665 61.0168 35.2484C61.8507 35.0696 62.7399 34.9523 63.5735 35.1946C64.6118 35.492 65.4818 36.2899 65.8734 37.2948C68.5405 44.6381 59.2269 52.3732 53.8049 55.9284C47.6063 55.2076 39.974 51.3734 40.9772 44.045C41.549 41.7021 43.1079 39.4581 45.4469 38.6231C47.9711 37.7363 50.7607 38.6416 52.8815 40.1034L52.8815 40.1046ZM52.897 40.2236C50.8006 39.5809 48.4451 38.9571 46.3012 39.7242C44.2733 40.4041 42.956 42.5739 42.4872 44.3049C41.5533 50.8363 48.7648 54.1867 53.7818 55.8218C58.3551 52.1139 65.8479 45.7627 65.42 39.368C65.3515 38.6535 65.1914 37.9336 64.8504 37.2988C64.4321 36.5726 63.655 36.0679 62.8203 35.99C62.279 35.944 61.7292 36.0184 61.195 36.1123C59.6886 36.4016 58.2731 37.0298 56.9124 37.735C55.5428 38.4505 54.1725 39.3375 52.8982 40.2236L52.897 40.2236Z" fill="black"/>
<path d="M52.9764 41.6439C52.9764 41.6439 57.932 37.3005 63.1004 37.4752C68.2687 37.6499 62.1951 49.145 53.794 54.5783C53.794 54.5783 43.3042 51.9804 43.4776 45.8753C43.5382 43.7329 45.0269 41.9045 47.0773 41.2808C48.6716 40.7957 50.8822 40.5284 52.9765 41.6451L52.9764 41.6439Z" fill="#FFEAEA"/>
<path d="M52.9693 41.5845C52.9693 41.5845 52.9572 41.5817 52.9526 41.5855C52.9492 41.5881 52.9582 41.5792 52.9605 41.5767C53.0617 41.4819 53.226 41.3391 53.3308 41.2465C55.8991 39.1133 59.0279 37.3931 62.4266 37.2165C63.3994 37.1554 64.4672 37.2615 64.9825 38.2279C66.0263 40.3651 63.9411 43.974 62.7825 45.7854C60.4327 49.3032 57.3997 52.4019 53.8038 54.6427C50.0502 53.6023 44.334 51.1977 43.5005 46.9537C43.4895 46.8704 43.4381 46.5064 43.4312 46.43C43.4223 46.2794 43.4245 46.0537 43.418 45.9018C43.4395 45.128 43.6446 44.3566 44.0184 43.6772C44.8208 42.152 46.4258 41.2391 48.0879 40.9671C49.7208 40.6464 51.4938 40.7696 52.9693 41.5845ZM52.9836 41.7037C51.4921 40.9244 49.752 40.7477 48.1117 41.0844C45.8619 41.4403 43.9549 42.9672 43.5953 45.2891C43.2413 47.6228 44.5753 49.576 46.3288 50.9743C48.5161 52.6889 51.1474 53.7787 53.8087 54.5212C55.8911 53.0392 58.1863 50.9952 59.9192 48.8945C61.7923 46.6691 65.1964 41.8715 64.6783 38.9056C64.4898 38.0495 63.7798 37.7268 62.9589 37.7404C62.1048 37.7201 61.2549 37.8314 60.4178 38.0164C57.7009 38.647 55.2137 40.0606 52.9836 41.7037Z" fill="black"/>
<path d="M66.9329 39.408C67.7251 39.3612 68.3295 38.6811 68.2827 37.8889C68.2359 37.0966 67.5558 36.4923 66.7636 36.5391C65.9713 36.5859 65.367 37.266 65.4138 38.0582C65.4606 38.8505 66.1407 39.4548 66.9329 39.408Z" fill="white"/>
<path d="M67.7867 37.9181C67.7233 37.6772 67.5903 37.4967 67.4468 37.3013C67.0982 36.8828 66.4096 36.8011 65.952 37.176C65.0069 37.9311 65.7296 39.5054 66.9259 39.2669C67.5519 39.1435 67.9289 38.4783 67.7867 37.9181ZM68.7812 37.8594C68.7436 39.3959 66.9351 40.0736 65.8552 39.0926C65.0349 38.3853 65.1449 36.9765 66.0819 36.391C67.1991 35.6461 68.8613 36.4524 68.7812 37.8594Z" fill="black"/>
<path d="M24.5631 42.0762C24.5631 42.0762 18.789 38.1431 14.4492 38.5925C13.1687 38.7245 12.1034 39.6366 11.775 40.8819C11.0176 43.7588 11.6251 49.9653 25.4891 57.7823C25.4891 57.7823 38.3968 53.8307 36.123 44.7777C36.123 44.7777 33.2803 36.4515 24.5619 42.0775L24.5631 42.0762Z" fill="white"/>
<path d="M24.5617 42.1361C21.833 40.7378 18.9216 39.3347 15.836 39.0634C15.2965 39.0281 14.7455 39.0222 14.2169 39.129C13.4066 39.3016 12.6998 39.8867 12.3741 40.6485C11.8616 42.0246 12.007 43.5526 12.4533 44.937C14.3762 50.5045 20.878 54.7149 25.4736 57.7255C30.5749 55.5243 37.0329 51.1713 35.3821 45.0312C34.6254 43.1446 33.0691 41.4084 31.0342 40.9743C30.2893 40.812 29.457 40.7951 28.6876 40.9089C28.6113 40.917 28.4544 40.9407 28.3829 40.9485C27.9534 41.029 27.4837 41.1395 27.0587 41.2546L26.2414 41.5128C25.7549 41.683 25.0141 41.9763 24.563 42.1372L24.5617 42.1361ZM24.563 42.0161C26.5593 40.0701 29.5155 38.798 32.2812 39.7059C34.494 40.451 36.1119 42.4379 36.8841 44.5862C38.6339 51.733 31.5474 56.3521 25.508 57.8398C19.6928 54.9576 9.51559 48.3695 11.3052 40.7476C11.579 39.6962 12.352 38.7917 13.3564 38.3701C14.1614 38.0263 15.0618 38.0403 15.9168 38.1158C18.9621 38.4758 21.6782 39.9241 24.1246 41.6617C24.2376 41.7462 24.4309 41.8919 24.538 41.978L24.5669 42.0015C24.5707 42.0048 24.5795 42.0103 24.5795 42.0115C24.5758 42.0093 24.5687 42.011 24.5641 42.0148L24.563 42.0161Z" fill="black"/>
<path d="M24.649 43.5562C24.649 43.5562 19.2156 39.8261 14.1037 40.6077C8.99179 41.3893 16.3757 52.0899 25.3578 56.497C25.3578 56.497 35.469 52.6829 34.5785 46.6406C34.2662 44.5202 32.5728 42.8797 30.4633 42.5016C28.8229 42.2074 26.5963 42.2021 24.6478 43.5574L24.649 43.5562Z" fill="#FFEAEA"/>
<path d="M24.6489 43.6162C22.8265 42.595 20.8853 41.7368 18.8535 41.2329C17.3622 40.8628 15.8057 40.6884 14.2828 40.8994C12.944 41.0396 12.5531 41.9156 12.8105 43.1671C13.2772 45.1608 14.5279 46.8994 15.7905 48.4971C18.4387 51.721 21.692 54.4666 25.3832 56.4415C25.3856 56.4413 25.3363 56.4395 25.3363 56.4395C27.8918 55.3901 30.3766 53.9983 32.3469 52.0371C33.9237 50.4434 35.0186 48.3455 34.3925 46.0698C33.7609 43.8051 31.6912 42.5155 29.4127 42.4257C27.7442 42.2843 26.0369 42.6646 24.6475 43.6138L24.6489 43.6162ZM24.649 43.4962C26.0184 42.5133 27.7645 42.1811 29.4238 42.3087C31.1052 42.3833 32.8089 43.1008 33.784 44.5211C34.2339 45.1519 34.5296 45.8937 34.642 46.6596C34.6557 46.81 34.6774 47.0354 34.691 47.1857C34.6957 47.285 34.6828 47.6144 34.6838 47.7139C34.4034 51.1324 31.1474 53.521 28.4002 55.1022C27.4261 55.6491 26.421 56.1391 25.3802 56.5532L25.3556 56.5631L25.3321 56.5513C21.4963 54.7673 18.1075 52.0645 15.3651 48.8497C13.9822 47.1668 11.486 43.8343 12.279 41.5599C12.6888 40.5173 13.7401 40.2813 14.7384 40.226C18.144 40.0033 21.4603 41.3573 24.2512 43.1994C24.3675 43.2801 24.5452 43.404 24.6557 43.4874C24.6582 43.4897 24.6682 43.4963 24.6645 43.4953C24.6596 43.4932 24.6536 43.4935 24.6479 43.4975L24.649 43.4962Z" fill="black"/>
<path d="M10.5247 42.9781C11.3169 42.9313 11.9213 42.2512 11.8745 41.4589C11.8277 40.6667 11.1476 40.0624 10.3553 40.1092C9.56312 40.1559 8.95881 40.8361 9.00558 41.6283C9.05235 42.4205 9.73249 43.0248 10.5247 42.9781Z" fill="white"/>
<path d="M8.5557 41.655C8.30555 40.1608 9.69956 39.0864 11.0793 39.7007C12.206 40.2148 12.4445 41.7337 11.5814 42.5572C10.6304 43.4962 8.7711 43.089 8.5557 41.655ZM9.45462 41.602C9.35251 42.209 9.84059 42.9179 10.5201 42.9077C11.682 42.9003 12.1287 41.3421 11.1122 40.7868C10.6527 40.5404 10.177 40.692 9.82816 41.0005C9.64354 41.1446 9.48298 41.3508 9.45462 41.602Z" fill="black"/>
<path d="M36.9105 47.5176C36.9105 47.5176 38.9249 46.06 41.0214 47.2749L41.6259 45.2012C41.6259 45.2012 39.0767 43.6543 35.9682 45.5352L36.9105 47.5176Z" fill="white"/>
<path d="M36.9256 47.4602C36.916 47.4404 36.8903 47.4527 36.9018 47.4436C36.9279 47.4193 36.9541 47.395 36.9803 47.3718C38.098 46.4314 39.891 46.2847 41.0524 47.2226L40.9645 47.2578L41.569 45.1853L41.5958 45.2532C40.69 44.9661 39.7231 44.842 38.7802 44.9229C37.8247 44.9925 36.9082 45.2973 35.9993 45.5872L36.0223 45.5103C36.3304 46.1567 36.6264 46.8025 36.9256 47.4602ZM36.8964 47.5759C36.567 46.9128 36.2344 46.2367 35.9151 45.5622L35.8904 45.5109L35.9381 45.4853C37.4467 44.0755 40.0063 43.8896 41.6582 45.1512L41.6979 45.174L41.685 45.2192L41.0804 47.2917L41.0605 47.3613L40.9925 47.3269C39.6575 46.7999 38.3658 46.965 37.0692 47.5153L37.0071 47.5406L36.9766 47.5532C36.9766 47.5532 36.9569 47.5639 36.9415 47.5684C36.9251 47.5742 36.9096 47.5751 36.8963 47.5747L36.8964 47.5759Z" fill="black"/>
</g>
</g>
<defs>
<clipPath id="clip0_1260_1286">
<rect y="0.522217" width="76" height="76" rx="35.0025" fill="white"/>
</clipPath>
<clipPath id="clip1_1260_1286">
<rect width="60.3662" height="20.5675" fill="white" transform="translate(8.34375 38.2488) rotate(-3.37862)"/>
</clipPath>
</defs>
</svg>