<svg xmlns="http://www.w3.org/2000/svg" fill="none" viewBox="-6.41 0.52 91.27 81.63">
<g clip-path="url(#clip0_1260_1441)">
<rect y="0.522217" width="76" height="76" rx="36.4107" fill="#FAFBFB"/>
<path d="M23.658 62.9299C26.4795 61.1708 25.9337 56.9414 22.7657 55.9487C13.9869 53.2135 0.572496 49.7262 -2.60854 52.8186C-2.60854 52.8186 -7.5564 56.8418 -5.56722 65.4585C-4.85308 68.5453 -2.19484 70.9063 0.830151 71.1171C3.20505 71.2779 6.26076 70.7605 10.7151 69.1908C15.1694 67.6212 19.581 65.4757 23.6554 62.9282L23.658 62.9299Z" fill="white"/>
<path d="M23.2439 62.5402C24.3551 61.8194 25.0356 60.6096 24.8488 59.2703C24.7055 58.041 23.832 56.9631 22.6441 56.6034C19.8948 55.759 17.0849 54.9419 14.2845 54.2116C10.0986 53.1702 5.83816 52.1429 1.52361 52.1413C-0.482283 52.1904 -2.03465 52.4878 -3.24587 54.1839C-5.91983 57.5919 -6.22829 62.4232 -4.89391 66.4494C-4.01569 68.6237 -2.02505 70.3723 0.316062 70.7394C2.71235 71.0257 5.13395 70.5188 7.45649 69.8603C12.7757 68.3955 19.5406 64.9359 23.2447 62.5446L23.2439 62.5402ZM24.0673 63.3163C18.8257 66.6498 6.98352 72.1941 0.214606 71.3697C-2.34833 70.9468 -4.54712 69.0943 -5.53338 66.7086C-6.53018 63.8456 -6.68499 60.701 -5.95037 57.743C-5.48234 56.0212 -4.67261 54.3645 -3.48101 53.0219C-2.82858 52.2173 -1.82018 51.6136 -0.782696 51.3928C5.3162 50.0627 16.9418 53.449 23.057 55.36C26.5458 56.4761 27.1797 61.3773 24.0621 63.3127L24.0673 63.3163Z" fill="#221F1F"/>
<path d="M54.883 58.5643C51.9844 56.9369 52.3342 52.6855 55.4528 51.5509C64.0963 48.4158 77.3348 44.3135 80.6551 47.257C80.6551 47.257 85.784 51.0494 84.1936 59.7473C83.6213 62.8637 81.0751 65.3465 78.0631 65.6949C75.6987 65.9677 72.6235 65.5904 68.1001 64.227C63.5768 62.8636 59.0723 60.9214 54.8835 58.5687L54.881 58.5668L54.883 58.5643Z" fill="white"/>
<path d="M54.6047 58.8529C53.2184 58.0816 52.3694 56.4769 52.4913 54.894C52.5696 53.2695 53.6729 51.7362 55.2052 51.1781C57.9645 50.1535 60.7226 49.2236 63.5266 48.3687C67.6368 47.224 77.4686 44.2061 80.8938 46.9354C84.8499 50.3677 85.6121 56.2029 84.217 61.0006C83.5105 62.9346 82.0482 64.598 80.1569 65.4417C77.3596 66.6401 74.0882 65.9845 71.23 65.4078C65.5253 64.0839 59.3644 61.5768 54.6028 58.8554L54.6047 58.8529ZM55.1579 58.2785C59.3707 60.6776 65.8848 63.5438 71.376 64.7673C76.2957 65.8898 81.3652 66.315 83.5561 60.7672C84.704 56.6795 84.203 51.8616 81.3979 48.5537C80.1157 46.8907 78.5085 46.6346 76.4931 46.666C72.1636 46.8218 67.9401 48.0466 63.7887 49.2553C61.0109 50.0865 58.237 51.0162 55.5224 52.0034C54.2832 52.4445 53.4062 53.642 53.3274 54.9514C53.2085 56.3335 53.9681 57.5987 55.1554 58.2766L55.1579 58.2785Z" fill="#221F1F"/>
<path d="M20.7901 70.5206L18.1128 42.4405C18.0939 42.2543 18.0718 42.068 18.0465 41.8817C17.7845 39.9211 16.3795 24.3151 37.4853 22.2692C37.4853 22.2692 57.1673 20.7222 58.5344 38.7656L59.7688 67.4455C59.873 68.7779 59.7025 70.0597 59.3047 71.2594C58.6322 73.2832 57.3188 75.0007 55.6708 76.4309C54.8246 77.1634 53.9027 77.7948 52.9366 78.3505C49.9089 80.0933 46.4865 81.0846 42.9852 81.3593L39.9543 81.5961C37.5801 81.7824 35.1901 81.6308 32.8727 81.1162C31.3067 80.7689 29.8512 80.3963 28.4747 79.8123C25.5575 78.5778 23.1738 76.7593 21.8541 74.2082C21.2731 73.0874 20.9006 71.8467 20.7964 70.5175H20.7901V70.5206Z" fill="white"/>
<path d="M20.6387 70.7955C19.5242 61.6522 18.2076 50.9051 17.2794 41.8029C16.367 32.4292 21.7216 25.4297 30.5965 22.8093C32.7623 22.1273 35.0323 21.7769 37.2739 21.5243C40.488 21.3222 43.6862 21.7705 46.7645 22.7051C54.5185 25.1235 58.9039 31.1095 59.2827 39.1698C59.6174 46.8008 60.0278 58.0972 60.3372 65.7597C60.4193 67.5625 60.5709 69.5105 59.9552 71.2564C58.1683 76.6584 52.7189 79.7682 47.5159 81.1511C44.9964 81.8583 42.0981 81.9277 39.5029 82.1266C33.6621 82.3855 25.9175 80.6522 22.3309 75.6638C21.2638 74.1673 20.6103 72.3772 20.4871 70.546L20.9418 70.8049C20.866 70.8523 20.7176 70.8491 20.6418 70.8018L20.6387 70.7955ZM20.9449 70.2429C20.8755 70.1924 20.7302 70.1893 20.6576 70.2335L21.1123 70.4924C21.8163 77.997 30.3344 80.8511 36.8319 81.1668C38.3505 81.3121 40.548 81.0121 42.0823 80.9174C48.463 80.5543 56.6212 77.4414 58.7776 70.8902C59.3301 69.28 59.147 67.512 59.0617 65.8355C58.6892 58.1635 58.1714 46.8987 57.8273 39.2551C57.4579 31.8104 53.4893 26.3611 46.3035 24.1416C43.4526 23.2797 40.3838 22.8598 37.4065 23.0492C35.2723 23.2986 33.0812 23.6428 31.0448 24.29C22.814 26.7115 17.8856 33.269 18.8107 41.9513C19.6284 50.7283 20.323 61.3839 20.9418 70.2429H20.9449Z" fill="#221F1F"/>
<path d="M37.0205 21.2968C37.4778 21.2599 37.7181 20.7401 37.4524 20.3706C34.9254 16.8479 24.6277 3.94002 15.2425 12.9257C5.67935 22.0799 23.9186 16.0949 30.1646 16.3767C32.0888 16.4645 33.9252 17.2683 35.221 18.6936C35.7777 19.308 36.2374 20.0287 36.4037 20.8372C36.4638 21.1259 36.7294 21.3223 37.0228 21.3015V21.2968H37.0205Z" fill="white"/>
<path d="M36.79 21.3058C36.8016 21.255 36.8547 21.1418 36.9517 21.0956C37.0372 21.0517 37.0741 21.0633 37.1411 21.0263C37.349 20.9131 37.3883 20.636 37.2266 20.4627L37.1573 20.368C35.9538 18.7326 34.6233 17.1826 33.175 15.7597C28.8231 11.4055 22.51 7.75347 16.8253 12.0176C15.4116 13.1056 13.9656 14.4661 13.0786 16.0138C12.8892 16.4088 12.7159 16.8523 13.0023 17.1942C13.2264 17.4159 13.5313 17.5129 13.8778 17.5892C14.7718 17.7624 15.6957 17.7231 16.6105 17.6654C20.3525 17.3813 24.0762 16.5381 27.8321 16.1778C29.1072 16.0623 30.4238 15.9907 31.6828 16.3095C33.8656 16.8569 36.0046 18.43 36.6098 20.6798L36.6352 20.7976C36.6676 20.964 36.8339 21.0841 37.0025 21.0725C37.0025 21.0679 36.7808 21.3174 36.7877 21.2989L37.0164 21.5299C36.9794 21.5299 36.9101 21.5183 36.857 21.4629C36.8016 21.4098 36.7877 21.3428 36.7877 21.3081L36.79 21.3058ZM37.252 21.2874C37.252 21.2527 37.2381 21.1857 37.185 21.1326C37.1296 21.0795 37.0626 21.0656 37.0279 21.0656C37.0279 21.0702 37.2635 21.2943 37.2566 21.3012V21.523L37.0418 21.5322C36.7092 21.5599 36.3696 21.3659 36.2333 21.0587C35.7159 18.8804 33.6554 17.3674 31.5534 16.8592C30.3753 16.5682 29.1349 16.6444 27.8922 16.7622C24.127 17.1456 20.4565 18.0026 16.6613 18.3099C14.8896 18.4623 11.1036 18.5432 12.5034 15.7227C12.8152 15.1152 13.2264 14.6117 13.6468 14.1243C14.5061 13.1633 15.4162 12.2671 16.4603 11.5117C19.7889 9.01238 23.8244 8.9708 27.4671 10.8118C31.6019 12.9069 34.8381 16.3949 37.5477 20.0885L37.617 20.1855L37.6516 20.234C37.9912 20.6868 37.7209 21.4005 37.1642 21.5091C37.1527 21.5137 37.1943 21.4999 37.2127 21.4814C37.2682 21.4398 37.2843 21.3336 37.2566 21.2874H37.252Z" fill="#221F1F"/>
<path d="M25.1572 26.4055C25.1572 26.4055 37.3124 27.5326 48.8646 24.5427L25.1572 26.4055Z" fill="white"/>
<path d="M24.4502 26.5286C24.4502 26.5286 37.8399 27.6241 49.392 24.6343" stroke="#221F1F" stroke-width="0.631439" stroke-miterlimit="10"/>
<path d="M17.8955 39.4605C17.8955 39.4605 38.01 33.1745 58.115 36.4201L17.8955 39.4605Z" fill="white"/>
<path d="M17.8008 39.1572C20.1718 38.1279 22.6818 37.648 25.1791 37.0892C29.3245 36.2273 33.5868 35.5801 37.8016 35.2075C41.9786 34.8286 46.3829 34.775 50.5756 34.9991C51.3839 35.0686 53.6128 35.2517 54.4021 35.3243C55.6713 35.5106 56.9342 35.7411 58.1655 36.1073L58.0645 36.7293C56.388 36.7893 54.6863 36.5209 53.0193 36.4199C44.6559 35.7348 36.1536 36.3567 27.8912 37.7459C26.4578 38.0079 24.3456 38.4026 22.9344 38.7278C21.2926 39.0972 19.6541 39.4887 17.9902 39.7633L17.8008 39.1603V39.1572Z" fill="#221F1F"/>
<path d="M19.793 58.7636C23.3827 57.4659 37.2081 53.5195 60.1609 55.0949L19.793 58.7636Z" fill="white"/>
<path d="M19.6855 58.4666C25.9557 56.1682 32.6364 55.1958 39.2665 54.6401C42.5878 54.397 45.9187 54.2739 49.2464 54.296C52.5709 54.3118 55.9112 54.3244 59.201 54.9464L59.1568 55.5778C55.8386 55.8083 52.5519 55.4799 49.24 55.4989C42.6447 55.4484 36.0303 55.8146 29.5139 56.8438C26.262 57.3679 23.0227 58.0436 19.9002 59.0634L19.6855 58.4698V58.4666Z" fill="#221F1F"/>
<path d="M51.1754 55.0825C51.4753 48.0672 50.8818 35.8867 50.8818 35.8867C50.8818 35.8867 34.035 34.6017 25.2012 38.182C25.2012 38.182 26.0568 50.3498 27.8437 56.9799" stroke="#221F1F" stroke-width="0.631439" stroke-miterlimit="10"/>
<path d="M25.3176 38.0175C25.0966 40.2875 26.9878 53.4152 27.8244 56.4934C33.8326 54.9906 45.6657 54.397 51.033 54.4507C51.3866 50.5989 50.8372 40.8148 50.5783 36.2021L50.5657 36.0032C40.6048 34.6741 29.6682 36.8872 25.3176 38.0175Z" fill="#5BC2C7"/>
<path d="M38.1403 47.0882L38.0234 43.5616C38.0234 43.4479 38.1403 43.3722 38.2413 43.4227L41.6574 45.1876C41.7647 45.2412 41.7647 45.3959 41.6574 45.4528L38.3581 47.2145C38.2602 47.265 38.1434 47.1987 38.1371 47.0882H38.1403Z" fill="white" stroke="black" stroke-width="0.151545"/>
<g clip-path="url(#clip1_1260_1441)">
<path d="M48.6344 21.1705C48.6344 21.1705 47.2707 14.3675 44.8519 12.251C44.8519 12.251 38.3391 10.7392 36.1531 19.8099C36.1531 19.8099 36.9906 24.3452 46.9684 24.0429L48.6344 25.2311C48.6344 25.2311 51.3132 33.1498 54.7359 34.3411C54.7359 34.3411 61.551 33.3917 61.6689 26.1473C61.6689 26.1473 60.783 21.2461 50.8537 23.2477L48.6344 21.1705Z" fill="#EBE3F6"/>
<path d="M48.7649 21.098C48.774 21.0648 48.7619 21.0194 48.7558 20.9892L48.7316 20.838C48.6984 20.6384 48.6047 20.1305 48.5653 19.9279C48.1541 17.887 47.6492 15.8733 46.7663 13.9685C46.3823 13.1672 45.9197 12.3327 45.188 11.6494C43.9665 11.3773 42.6875 11.5768 41.5235 11.985C38.258 13.1702 36.6102 16.5808 36.0055 19.7767L35.9964 19.81L36.0024 19.8372C36.3743 21.1555 37.4628 22.0837 38.6148 22.7186C41.1425 24.0762 44.154 24.2274 46.9689 24.1941L46.8752 24.1669L48.5412 25.3552C49.2517 27.5684 50.697 30.6797 52.4143 32.7478C53.0342 33.4674 53.7598 34.1507 54.6971 34.4954C55.7342 34.4561 56.732 34.1749 57.6874 33.7546C60.6959 32.4424 62.4133 29.3856 62.4072 26.1595V26.0778L62.3951 26.0174C62.1714 25.08 61.5999 24.3302 60.8803 23.7255C58.9241 22.1653 56.224 22.0565 53.8415 22.3891C52.8286 22.5403 51.7945 22.7973 50.8239 23.0996L50.957 23.1389L48.7679 21.098H48.7649ZM48.5018 21.2462L50.7484 23.3596L50.8028 23.411C52.3267 23.2961 53.8626 23.2085 55.3865 23.3113C56.7683 23.4141 58.2831 23.7104 59.423 24.4421C60.1033 24.8684 60.7049 25.5003 60.9408 26.2804C60.8591 28.6932 59.9067 31.3418 57.2732 32.9836C56.4961 33.4946 55.6193 33.9028 54.7153 34.1931L54.7848 34.1991C53.9382 33.8968 53.2458 33.2406 52.6502 32.5513C50.8723 30.3864 49.7173 27.7529 48.7619 25.1375L48.7226 25.1103L47.0566 23.922L47.0173 23.8948C43.3678 23.9734 37.7863 23.5532 36.3018 19.8463C37.3328 15.9277 40.2022 12.0243 44.7012 12.9072L44.411 12.759C44.9492 13.1763 45.4118 13.8173 45.8169 14.4794C47.0536 16.5566 47.8427 18.9211 48.5018 21.2492V21.2462Z" fill="black"/>
<path d="M50.7641 23.1086C50.3983 23.798 49.848 24.7474 49.2675 25.4035C48.8019 25.9296 48.0067 26.0203 47.4261 25.6242C47.414 25.6181 47.405 25.6091 47.3929 25.603C46.7428 25.1525 46.5402 24.2817 46.9242 23.5893C47.2024 23.0874 47.5501 22.4948 47.8827 22.0141C48.2546 21.4789 48.9409 21.2703 49.5456 21.5061C49.7754 21.5938 50.0324 21.6996 50.2985 21.8145C50.8004 22.0292 51.0151 22.6278 50.7581 23.1086H50.7641Z" fill="white"/>
<path d="M50.5461 22.9967C50.1833 23.7224 49.7963 24.439 49.3095 25.083C49.1432 25.3037 48.9951 25.4851 48.7683 25.5909C47.828 26.0929 46.682 25.089 46.9451 24.0913C47.0963 23.5349 47.6103 22.897 47.9277 22.386C48.3329 21.6845 49.0162 21.5061 49.7237 21.8841C49.7903 21.9113 50.1319 22.0504 50.1924 22.0745C50.5431 22.2136 50.7215 22.6551 50.5461 22.9967ZM50.9785 23.2265C51.3444 22.6067 50.9997 21.745 50.3194 21.5182L49.9354 21.361C49.2339 20.983 48.2694 21.101 47.7675 21.7571C47.5982 21.9778 47.453 22.2529 47.3109 22.4797C47.0509 22.9846 46.6881 23.4533 46.5792 24.0217C46.3283 25.2886 47.7221 26.4648 48.9074 25.8721C49.1765 25.7482 49.4063 25.5214 49.5847 25.3007C50.1228 24.6597 50.5673 23.9491 50.9815 23.2235L50.9785 23.2265Z" fill="black"/>
<path d="M47.8857 22.0137L47.0875 19.8096" stroke="black" stroke-width="0.302356" stroke-miterlimit="10" stroke-linecap="round"/>
<path d="M47.0869 23.2505L44.8525 22.8333" stroke="black" stroke-width="0.302356" stroke-miterlimit="10" stroke-linecap="round"/>
<path d="M50.4706 23.6406L52.8652 24.1214" stroke="black" stroke-width="0.302356" stroke-miterlimit="10" stroke-linecap="round"/>
<path d="M49.6033 24.9861L51.2451 26.1471" stroke="black" stroke-width="0.302356" stroke-miterlimit="10" stroke-linecap="round"/>
</g>
</g>
<defs>
<clipPath id="clip0_1260_1441">
<rect y="0.522217" width="76" height="76" rx="36.4107" fill="white"/>
</clipPath>
<clipPath id="clip1_1260_1441">
<rect width="26.4078" height="22.97" fill="white" transform="matrix(-1 0 0 1 62.4082 11.5222)"/>
</clipPath>
</defs>
</svg>