<svg xmlns="http://www.w3.org/2000/svg" fill="none" viewBox="-13.56 0.52 97.48 88.03">
<g clip-path="url(#clip0_1260_909)">
<rect y="0.522217" width="76" height="76" rx="38" fill="#FAFBFB"/>
<path d="M53.6509 59.4162C52.0027 56.2807 54.7482 52.6254 58.1738 53.3821C67.6626 55.4877 81.7953 59.347 83.0654 63.9175C83.0654 63.9175 85.4593 70.2933 79.0635 77.2708C76.7696 79.7694 73.0816 80.5631 70.2011 79.1546C67.9403 78.0483 65.4191 75.9454 62.1734 72.1191C58.9277 68.2928 56.0303 63.9525 53.6489 59.4205L53.6478 59.4173L53.6509 59.4162Z" fill="white"/>
<path d="M53.2394 59.5187C52.4471 58.0256 52.6101 56.0842 53.625 54.7185C54.6248 53.2901 56.4847 52.5313 58.1683 52.9024C61.211 53.553 64.1984 54.2889 67.1836 55.119C71.4976 56.4341 81.9769 59.3264 83.4629 63.7626C85.0191 69.1403 82.3565 74.8685 78.3677 78.4207C76.6315 79.7701 74.3775 80.4414 72.2109 80.1237C69.0348 79.6089 66.4983 77.1413 64.2845 74.9819C59.9648 70.5151 55.9164 64.7141 53.2363 59.5199L53.2394 59.5187ZM54.0606 59.3146C56.4369 63.9023 60.594 70.2312 64.7812 74.4847C68.5175 78.3193 72.7864 81.6075 77.913 77.8307C81.2753 74.7808 83.5879 70.1247 82.9851 65.5188C82.796 63.2766 81.512 62.1242 79.7001 60.9987C75.7573 58.6612 71.2966 57.3538 66.9094 56.0732C63.961 55.2365 60.9596 54.4915 57.978 53.8326C56.6225 53.523 55.1562 54.1069 54.3363 55.2492C53.4391 56.4346 53.3909 58.0168 54.0595 59.3114L54.0606 59.3146Z" fill="#221F1F"/>
<mask id="mask0_1260_909" style="mask-type:luminance" maskUnits="userSpaceOnUse" x="-14" y="48" width="40" height="41">
<path d="M10.2268 48.341L-13.5625 73.2827L1.91295 88.5511L25.7023 63.6094L10.2268 48.341Z" fill="white"/>
</mask>
<g mask="url(#mask0_1260_909)">
<path d="M22.3202 62.7056C23.2024 59.2541 19.6957 56.4191 16.5386 58.0198C7.80105 62.4674 -5.04494 69.7941 -5.22994 74.5357C-5.22994 74.5357 -6.09203 81.3078 1.72583 86.4295C4.5276 88.2631 8.29233 88.0912 10.7689 85.9979C12.7099 84.3508 14.6784 81.6763 16.9527 77.1527C19.2271 72.6292 21.0482 67.6962 22.3169 62.7062L22.3202 62.7056Z" fill="white"/>
<path d="M21.7158 62.715C22.0429 61.3341 21.6822 59.8996 20.5611 59.0123C19.5536 58.1769 18.0959 58.0019 16.9212 58.6117C14.1937 60.0138 11.4397 61.4822 8.75627 63.0101C4.78194 65.3322 0.760605 67.7207 -2.55346 70.9357C-4.05788 72.4686 -5.03272 73.8538 -4.72452 76.0567C-4.2898 80.6622 -0.999592 84.5953 2.96423 86.6866C5.2259 87.6985 8.03095 87.5549 10.0965 86.0911C12.1455 84.5242 13.6349 82.3305 14.9375 80.0944C17.9525 75.0065 20.6213 67.3119 21.7197 62.7178L21.7158 62.715ZM22.9147 62.6961C21.3235 69.1584 16.2781 82.2358 10.4788 86.6498C8.20208 88.2361 5.16138 88.4553 2.66247 87.362C-0.193036 85.9105 -2.60755 83.6157 -4.2029 80.8008C-5.10047 79.1322 -5.6882 77.2587 -5.75336 75.3414C-5.83981 74.2383 -5.50627 73.0238 -4.87078 72.0812C-1.15882 66.5153 10.2399 60.4446 16.3305 57.3509C19.8242 55.6056 23.889 58.8898 22.9081 62.6972L22.9147 62.6961Z" fill="#221F1F"/>
</g>
<path d="M19.8327 73.7453L17.0058 43.5809C16.9858 43.3808 16.9625 43.1807 16.9358 42.9806C16.6591 40.8744 15.1757 24.11 37.4606 21.9123C37.4606 21.9123 58.2421 20.2505 59.6855 39.6331L60.989 70.4419C61.099 71.8732 60.919 73.2501 60.4989 74.5389C59.7889 76.7129 58.4021 78.5579 56.662 80.0943C55.7686 80.8811 54.7952 81.5594 53.7751 82.1563C50.5782 84.0285 46.9646 85.0934 43.2677 85.3885L40.0675 85.6429C37.5606 85.843 35.0371 85.6802 32.5903 85.1273C30.9368 84.7543 29.4001 84.3541 27.9466 83.7266C24.8664 82.4005 22.3496 80.447 20.9561 77.7066C20.3427 76.5026 19.9494 75.1698 19.8394 73.7419H19.8327V73.7453Z" fill="white"/>
<path d="M19.6718 74.0403C18.4951 64.2184 17.105 52.6735 16.1249 42.8957C15.1615 32.8262 20.8152 25.3071 30.1859 22.4922C32.4727 21.7596 34.8696 21.3831 37.2364 21.1118C40.63 20.8947 44.0069 21.3763 47.2571 22.3802C55.4444 24.9782 60.0747 31.4085 60.4747 40.0672C60.8281 48.2645 61.2614 60.3995 61.5881 68.6308C61.6748 70.5673 61.8348 72.6599 61.1848 74.5354C59.298 80.3384 53.5442 83.6791 48.0505 85.1646C45.3903 85.9243 42.3301 85.9989 39.5899 86.2125C33.4228 86.4906 25.2455 84.6287 21.4586 79.27C20.3319 77.6624 19.6418 75.7394 19.5118 73.7723L19.9918 74.0504C19.9118 74.1013 19.7552 74.0979 19.6752 74.0471L19.6718 74.0403ZM19.9952 73.4468C19.9218 73.3925 19.7685 73.3891 19.6918 73.4366L20.1719 73.7147C20.9152 81.7764 29.9092 84.8424 36.7697 85.1815C38.3732 85.3375 40.6933 85.0153 42.3134 84.9136C49.0506 84.5235 57.6645 81.1795 59.9414 74.142C60.5247 72.4123 60.3314 70.5131 60.2414 68.7122C59.848 60.4707 59.3013 48.3697 58.938 40.1587C58.5479 32.1615 54.3576 26.3077 46.7704 23.9234C43.7602 22.9975 40.52 22.5464 37.3764 22.7499C35.1229 23.0179 32.8094 23.3875 30.6593 24.0828C21.9686 26.6841 16.7649 33.7284 17.7417 43.0551C18.6051 52.4836 19.3385 63.9301 19.9918 73.4468H19.9952Z" fill="#221F1F"/>
<path d="M37.0115 21.34C37.4704 21.3054 37.7115 20.8184 37.4449 20.4721C34.9092 17.1715 24.5763 5.0771 15.159 13.4964C5.56317 22.0737 23.8647 16.4659 30.1322 16.7299C32.0629 16.8122 33.9056 17.5654 35.2059 18.9008C35.7645 19.4765 36.2257 20.1518 36.3926 20.9093C36.4529 21.1798 36.7194 21.3638 37.0138 21.3443V21.34H37.0115Z" fill="white"/>
<path d="M36.7794 21.3486C36.791 21.301 36.8443 21.1949 36.9416 21.1516C37.0274 21.1105 37.0645 21.1213 37.1317 21.0867C37.3403 20.9806 37.3797 20.7209 37.2174 20.5586L37.1479 20.4698C35.9403 18.9375 34.6053 17.4852 33.152 16.152C28.7852 12.0722 22.4506 8.65035 16.7464 12.6457C15.3279 13.6651 13.8769 14.9399 12.9869 16.3901C12.7968 16.7602 12.623 17.1757 12.9104 17.496C13.1352 17.7038 13.4412 17.7947 13.7888 17.8661C14.6858 18.0285 15.613 17.9917 16.5308 17.9376C20.2857 17.6713 24.022 16.8814 27.7908 16.5437C29.0703 16.4355 30.3914 16.3684 31.6547 16.6671C33.845 17.18 35.9913 18.654 36.5986 20.762L36.6241 20.8724C36.6565 21.0282 36.8234 21.1408 36.9926 21.13C36.9926 21.1256 36.7701 21.3594 36.7771 21.3421L37.0065 21.5585C36.9694 21.5585 36.8999 21.5477 36.8466 21.4957C36.791 21.446 36.7771 21.3832 36.7771 21.3507L36.7794 21.3486ZM37.2429 21.3313C37.2429 21.2988 37.229 21.236 37.1757 21.1862C37.1201 21.1365 37.0529 21.1235 37.0181 21.1235C37.0181 21.1278 37.2545 21.3378 37.2476 21.3442V21.552L37.032 21.5607C36.6983 21.5867 36.3575 21.4048 36.2208 21.117C35.7016 19.076 33.6341 17.6584 31.5249 17.1822C30.3428 16.9095 29.0981 16.9809 27.8511 17.0913C24.073 17.4506 20.39 18.2536 16.5818 18.5414C14.804 18.6843 11.0051 18.76 12.4097 16.1173C12.7226 15.5481 13.1352 15.0763 13.557 14.6196C14.4193 13.7192 15.3325 12.8795 16.3802 12.1717C19.7202 9.82991 23.7694 9.79096 27.4246 11.5159C31.5735 13.479 34.8208 16.7472 37.5396 20.208L37.6092 20.2989L37.6439 20.3443C37.9846 20.7685 37.7135 21.4373 37.1549 21.539C37.1433 21.5434 37.185 21.5304 37.2035 21.5131C37.2592 21.4741 37.2754 21.3745 37.2476 21.3313H37.2429Z" fill="#221F1F"/>
<path d="M24.4424 26.3553C24.4424 26.3553 37.2766 27.566 49.4742 24.3542L24.4424 26.3553Z" fill="white"/>
<path d="M23.6963 26.4876C23.6963 26.4876 37.834 27.6644 50.0315 24.4526" stroke="#221F1F" stroke-width="0.696928" stroke-miterlimit="10"/>
<path d="M16.7764 40.3793C16.7764 40.3793 38.0145 33.6267 59.2427 37.1132L16.7764 40.3793Z" fill="white"/>
<path d="M16.6758 40.0535C19.1793 38.9479 21.8295 38.4324 24.4663 37.8321C28.8433 36.9062 33.3436 36.2109 37.794 35.8107C42.2043 35.4037 46.8546 35.3461 51.2816 35.5869C52.135 35.6615 54.4885 35.8582 55.3219 35.9362C56.662 36.1363 57.9954 36.3839 59.2955 36.7773L59.1888 37.4454C57.4187 37.5099 55.6219 37.2216 53.8618 37.1131C45.0311 36.3771 36.0538 37.0452 27.3299 38.5375C25.8164 38.819 23.5863 39.243 22.0962 39.5923C20.3627 39.9891 18.6326 40.4096 16.8758 40.7047L16.6758 40.0569V40.0535Z" fill="#221F1F"/>
<path d="M18.7793 61.1153C22.5696 59.7213 37.1673 55.4819 61.4023 57.1743L18.7793 61.1153Z" fill="white"/>
<path d="M18.666 60.7964C25.2865 58.3274 32.3403 57.2828 39.3408 56.6859C42.8477 56.4247 46.3647 56.2925 49.8782 56.3162C53.3885 56.3332 56.9154 56.3467 60.389 57.0149L60.3423 57.6932C56.8387 57.9407 53.3685 57.588 49.8716 57.6084C42.9077 57.5541 35.9239 57.9475 29.0434 59.0532C25.6098 59.6162 22.1896 60.342 18.8927 61.4374L18.666 60.7998V60.7964Z" fill="#221F1F"/>
<path d="M51.9145 57.1607C52.2312 49.6247 51.6045 36.5401 51.6045 36.5401C51.6045 36.5401 33.8166 35.1597 24.4893 39.0058C24.4893 39.0058 25.3927 52.0768 27.2795 59.199" stroke="#221F1F" stroke-width="0.696928" stroke-miterlimit="10"/>
<path d="M24.6135 38.8295C24.3802 41.268 26.377 55.37 27.2604 58.6768C33.6042 57.0624 46.0984 56.4248 51.7655 56.4825C52.1388 52.3448 51.5588 41.8344 51.2854 36.8793L51.2721 36.6657C40.7547 35.2378 29.2072 37.6153 24.6135 38.8295Z" fill="#5BC2C7"/>
<path d="M38.1507 48.5731L38.0273 44.7848C38.0273 44.6627 38.1507 44.5813 38.2574 44.6355L41.8643 46.5314C41.9776 46.5891 41.9776 46.7553 41.8643 46.8163L38.3807 48.7088C38.2774 48.7631 38.154 48.6918 38.1474 48.5731H38.1507Z" fill="white" stroke="black" stroke-width="0.167263"/>
<path d="M55.6875 45.4875L59.5968 45.8294C60.242 45.8857 60.362 46.7807 59.7521 47.0034L55.8609 48.4246" fill="white"/>
<path d="M55.696 45.3821C57.0322 45.2046 58.3482 45.2171 59.6787 45.298C60.7686 45.3889 61.0749 46.9168 60.1087 47.429C58.7235 47.9492 57.362 48.3023 55.8939 48.5211L55.8214 48.324C57.002 47.5705 58.3067 47.0005 59.581 46.4848C59.609 46.4621 59.5994 46.406 59.5811 46.3799C59.5586 46.3539 59.46 46.3534 59.4156 46.3477C58.1476 46.1897 56.9042 45.9841 55.6748 45.591L55.6939 45.3822L55.696 45.3821Z" fill="black"/>
<path d="M48.664 54.423C52.8202 54.1777 55.9906 50.6095 55.7452 46.4533C55.4998 42.2971 51.9316 39.1268 47.7755 39.3721C43.6193 39.6175 40.4489 43.1857 40.6943 47.3419C40.9396 51.4981 44.5078 54.6684 48.664 54.423Z" fill="#EDF6FF"/>
<path d="M54.7829 46.5101C54.5791 44.7999 53.7828 43.2149 52.5721 42.0005C49.9659 39.4274 45.4583 39.469 42.8836 42.155C39.1918 45.8531 40.7958 52.3074 45.8068 53.8638C50.5505 55.371 55.325 51.393 54.785 46.51L54.7829 46.5101ZM56.7082 46.3964C56.8503 50.9002 53.1259 54.7218 48.6802 54.7094C45.5993 54.755 42.6771 52.9766 41.3343 50.2366C39.4123 46.461 40.9433 41.6235 44.6866 39.6153C49.8335 36.7229 56.6518 40.3605 56.7082 46.3964Z" fill="black"/>
<path d="M42.822 55.0725C41.6813 55.2217 39.5911 55.4563 37.7985 55.4362C36.9148 55.4255 36.0553 55.7195 35.3731 56.28C34.6428 56.879 33.6388 57.7816 32.5297 58.9987C31.1191 60.5462 29.354 61.7391 27.3588 62.3729C25.7198 62.8934 24.1201 63.0507 23.9645 61.7657C23.9645 61.7657 23.4145 60.5857 25.076 59.4157C25.076 59.4157 21.7375 60.0721 22.7822 62.9158C22.7822 62.9158 25.1189 69.8785 38.8285 64.0347C38.8285 64.0347 40.4514 63.0998 42.8002 63.8002C42.8002 63.8002 56.8509 68.4247 58.6843 61.6038C58.6843 61.6038 60.0758 57.9556 55.8456 57.3663C55.8456 57.3663 57.8297 58.7469 57.0198 59.6674C56.9255 59.7757 56.8401 59.8919 56.7786 60.0235C56.5568 60.4939 55.651 61.5312 52.1593 59.9837C50.7311 59.3506 49.4253 58.4795 48.2409 57.4628C47.4742 56.8054 46.2584 55.9311 44.6411 55.2924C44.0633 55.0643 43.4362 54.9943 42.82 55.0747L42.822 55.0725Z" fill="#828282"/>
<path d="M42.8972 55.6324C41.532 55.8536 40.1534 55.9518 38.7716 55.962C37.9413 55.9691 37.0685 55.8591 36.2983 56.2444C36.0223 56.3656 35.7642 56.5423 35.5321 56.7322C34.5724 57.4958 33.6654 58.336 32.8138 59.2253C31.3717 60.7369 29.567 61.9321 27.5593 62.5331C26.42 62.8479 24.1132 63.5001 23.8626 61.778C23.558 61.0597 24.059 60.0589 24.7336 59.5471L25.0186 59.3289L25.099 59.5172C24.6686 59.6538 24.244 59.8529 23.8838 60.1112C22.6709 60.9212 22.6772 62.2718 23.5013 63.3684C26.8892 67.6701 34.3128 65.0733 38.5168 63.3001L38.4312 63.3429C38.9234 63.081 39.4388 62.9289 39.9785 62.832C41.4584 62.5307 42.9012 62.9846 44.3048 63.4157C48.0572 64.4045 56.6659 66.3904 58.2732 61.4939C59.0861 59.3462 58.0186 57.8926 55.8331 57.472C55.829 57.4722 55.9059 57.2831 55.9058 57.281C56.2425 57.5128 56.5535 57.7714 56.8337 58.0758C57.1923 58.4637 57.556 59.0463 57.2859 59.5888C57.2337 59.6989 57.143 59.7965 57.0985 59.86C56.9717 60.0227 56.926 60.2079 56.791 60.3732C55.8733 61.4217 54.3199 61.012 53.1678 60.6836C51.6157 60.1899 50.1623 59.4136 48.8452 58.4572C47.6201 57.4975 46.3884 56.5318 44.9284 55.9635C44.2882 55.672 43.5969 55.5114 42.8973 55.6345L42.8972 55.6324ZM42.7492 54.5126C43.6426 54.4011 44.5494 54.6245 45.3412 55.033C46.4634 55.5646 47.5042 56.2457 48.4337 57.0656C49.3067 57.8531 50.2314 58.5579 51.2459 59.1483C52.5634 59.8613 54.033 60.6283 55.5658 60.5483C55.9247 60.5145 56.2672 60.3831 56.483 60.1292C56.6068 59.9876 56.6823 59.7755 56.8127 59.6377C57.0951 59.3756 57.1079 59.0602 56.937 58.7242C56.6215 58.1051 56.0404 57.6423 55.4916 57.2299L55.8608 57.2648C56.9012 57.3355 58.0134 57.6621 58.6824 58.5477C59.9184 60.1906 59.0701 63.0181 57.5803 64.2556C53.9875 67.2849 46.6933 65.7835 42.56 64.5612C41.5102 64.2603 40.3264 64.2484 39.3139 64.6858C35.7179 66.2049 31.808 67.451 27.8269 66.8889C25.8418 66.5929 23.8473 65.6051 22.7884 63.8343C21.8947 62.3767 22.0457 60.5994 23.6705 59.7672C24.2253 59.4639 24.8466 59.3286 25.4629 59.2503C25.3388 59.352 24.9951 59.6051 24.8649 59.7093C24.2741 60.1847 23.7742 60.9903 24.0689 61.7533C24.2116 62.7497 25.377 62.6641 26.1414 62.4994C28.778 61.9284 31.045 60.2842 32.7337 58.2232C33.5142 57.3737 34.3423 56.5486 35.2321 55.8081C35.8398 55.3359 36.5774 55.0385 37.3421 54.9514C37.7987 54.9035 38.2782 54.9234 38.7335 54.8902C39.6373 54.8495 41.8171 54.6054 42.7452 54.515L42.7492 54.5126Z" fill="black"/>
</g>
<defs>
<clipPath id="clip0_1260_909">
<rect y="0.522217" width="76" height="76" rx="38" fill="white"/>
</clipPath>
</defs>
</svg>