<svg xmlns="http://www.w3.org/2000/svg" fill="none" viewBox="-13.34 0.45 97.48 91.18">
<g clip-path="url(#clip0_1260_836)">
<rect x="0.015625" y="0.453613" width="76" height="76" rx="38" fill="#FAFBFB"/>
<path d="M53.8736 62.4943C52.2253 59.3589 54.9709 55.7036 58.3965 56.4602C67.8853 58.5658 82.0179 62.4252 83.2881 66.9956C83.2881 66.9956 85.6819 73.3714 79.2861 80.3489C76.9923 82.8475 73.3043 83.6412 70.4238 82.2327C68.163 81.1264 65.6417 79.0235 62.396 75.1973C59.1504 71.371 56.253 67.0306 53.8716 62.4987L53.8704 62.4955L53.8736 62.4943Z" fill="white"/>
<path d="M53.4621 62.5969C52.6697 61.1037 52.8328 59.1623 53.8477 57.7966C54.8475 56.3682 56.7074 55.6094 58.3909 55.9806C61.4336 56.6312 64.4211 57.367 67.4063 58.1972C71.7203 59.5122 82.1995 62.4045 83.6856 66.8408C85.2417 72.2184 82.5791 77.9467 78.5903 81.4988C76.8542 82.8482 74.6001 83.5195 72.4336 83.2018C69.2575 82.687 66.721 80.2195 64.5072 78.06C60.1874 73.5932 56.139 67.7922 53.4589 62.598L53.4621 62.5969ZM54.2833 62.3927C56.6595 66.9804 60.8166 73.3093 65.0038 77.5628C68.7402 81.3975 73.0091 84.6856 78.1357 80.9088C81.4979 77.859 83.8105 73.2028 83.2077 68.5969C83.0186 66.3547 81.7347 65.2023 79.9228 64.0768C75.9799 61.7393 71.5192 60.432 67.132 59.1513C64.1836 58.3146 61.1822 57.5696 58.2007 56.9107C56.8451 56.6012 55.3789 57.185 54.559 58.3273C53.6618 59.5127 53.6135 61.095 54.2821 62.3895L54.2833 62.3927Z" fill="#221F1F"/>
<mask id="mask0_1260_836" style="mask-type:luminance" maskUnits="userSpaceOnUse" x="-14" y="51" width="40" height="41">
<path d="M10.4495 51.4191L-13.3398 76.3608L2.1356 91.6292L25.9249 66.6875L10.4495 51.4191Z" fill="white"/>
</mask>
<g mask="url(#mask0_1260_836)">
<path d="M22.5438 65.7833C23.4261 62.3317 19.9194 59.4967 16.7622 61.0975C8.02469 65.545 -4.82131 72.8718 -5.00631 77.6133C-5.00631 77.6133 -5.8684 84.3854 1.94946 89.5072C4.75124 91.3408 8.51596 91.1689 10.9926 89.0755C12.9335 87.4284 14.9021 84.7539 17.1764 80.2304C19.4507 75.7068 21.2718 70.7738 22.5405 65.7839L22.5438 65.7833Z" fill="white"/>
<path d="M21.9394 65.7927C22.2665 64.4118 21.9058 62.9772 20.7847 62.0899C19.7772 61.2545 18.3196 61.0796 17.1448 61.6893C14.4174 63.0915 11.6633 64.5599 8.9799 66.0877C5.00557 68.4098 0.984238 70.7983 -2.32982 74.0134C-3.83424 75.5462 -4.80909 76.9314 -4.50088 79.1344C-4.06617 83.7398 -0.775959 87.6729 3.18787 89.7642C5.44953 90.7761 8.25458 90.6325 10.3202 89.1687C12.3691 87.6018 13.8585 85.4081 15.1611 83.172C18.1761 78.0841 20.8449 70.3895 21.9433 65.7954L21.9394 65.7927ZM23.1383 65.7737C21.5471 72.2361 16.5017 85.3135 10.7024 89.7274C8.42571 91.3138 5.38501 91.533 2.8861 90.4396C0.0305968 88.9882 -2.38392 86.6933 -3.97927 83.8784C-4.87684 82.2098 -5.46457 80.3363 -5.52972 78.419C-5.61618 77.3159 -5.28263 76.1015 -4.64715 75.1589C-0.935191 69.5929 10.4636 63.5223 16.5542 60.4285C20.0478 58.6832 24.1126 61.9674 23.1317 65.7749L23.1383 65.7737Z" fill="#221F1F"/>
</g>
<path d="M20.0573 76.8234L17.2305 46.659C17.2104 46.4589 17.1871 46.2588 17.1604 46.0587C16.8838 43.9526 15.4003 27.1882 37.6852 24.9904C37.6852 24.9904 58.4667 23.3286 59.9102 42.7113L61.2136 73.5201C61.3236 74.9513 61.1436 76.3283 60.7235 77.6171C60.0135 79.791 58.6267 81.636 56.8866 83.1724C55.9932 83.9593 55.0198 84.6376 53.9997 85.2345C50.8028 87.1066 47.1893 88.1716 43.4923 88.4666L40.2921 88.721C37.7852 88.9211 35.2617 88.7583 32.8149 88.2055C31.1614 87.8324 29.6247 87.4322 28.1712 86.8048C25.091 85.4787 22.5742 83.5251 21.1807 80.7848C20.5674 79.5808 20.174 78.2479 20.064 76.82H20.0573V76.8234Z" fill="white"/>
<path d="M19.8964 77.1184C18.7197 67.2965 17.3296 55.7517 16.3495 45.9738C15.3861 35.9043 21.0398 28.3853 30.4105 25.5703C32.6973 24.8377 35.0942 24.4613 37.461 24.1899C40.8546 23.9729 44.2315 24.4545 47.4817 25.4584C55.669 28.0563 60.2993 34.4867 60.6993 43.1453C61.0527 51.3426 61.4861 63.4776 61.8127 71.7089C61.8994 73.6455 62.0594 75.738 61.4094 77.6136C59.5226 83.4165 53.7688 86.7572 48.2751 88.2427C45.6149 89.0024 42.5547 89.077 39.8145 89.2907C33.6474 89.5688 25.4702 87.7068 21.6832 82.3482C20.5565 80.7406 19.8664 78.8176 19.7364 76.8505L20.2164 77.1286C20.1364 77.1795 19.9798 77.1761 19.8998 77.1252L19.8964 77.1184ZM20.2198 76.5249C20.1464 76.4706 19.9931 76.4672 19.9164 76.5147L20.3965 76.7928C21.1398 84.8545 30.1338 87.9205 36.9943 88.2596C38.5978 88.4156 40.9179 88.0934 42.538 87.9917C49.2752 87.6017 57.8891 84.2576 60.166 77.2201C60.7493 75.4905 60.556 73.5912 60.466 71.7903C60.0726 63.5488 59.5259 51.4478 59.1626 43.2369C58.7725 35.2396 54.5822 29.3858 46.995 27.0015C43.9848 26.0756 40.7446 25.6246 37.601 25.828C35.3475 26.096 33.034 26.4657 30.8839 27.1609C22.1933 29.7622 16.9896 36.8065 17.9663 46.1332C18.8297 55.5617 19.5631 67.0082 20.2164 76.5249H20.2198Z" fill="#221F1F"/>
<path d="M37.1365 24.3676C37.6523 24.3252 37.9233 23.7288 37.6237 23.3047C34.7736 19.2627 23.1595 4.45156 12.5745 14.7621C1.78895 25.2661 22.3597 18.3986 29.4042 18.722C31.5744 18.8227 33.6455 19.7451 35.107 21.3804C35.7349 22.0855 36.2533 22.9124 36.4409 23.8401C36.5086 24.1714 36.8082 24.3967 37.1391 24.3729V24.3676H37.1365Z" fill="white"/>
<path d="M36.8759 24.3782C36.8889 24.3199 36.9488 24.1901 37.0583 24.137C37.1547 24.0867 37.1963 24.0999 37.2719 24.0575C37.5064 23.9277 37.5506 23.6096 37.3683 23.4108L37.2901 23.3021C35.9328 21.4256 34.4322 19.6471 32.7987 18.0143C27.8905 13.0181 20.7705 8.82764 14.359 13.7205C12.7646 14.9689 11.1338 16.5301 10.1334 18.3059C9.91974 18.7591 9.72435 19.268 10.0474 19.6603C10.3001 19.9148 10.644 20.0261 11.0348 20.1136C12.043 20.3123 13.0851 20.2673 14.1167 20.201C18.3372 19.875 22.5368 18.9076 26.7729 18.4941C28.211 18.3616 29.6959 18.2794 31.1158 18.6452C33.5777 19.2733 35.9901 21.0783 36.6727 23.66L36.7013 23.7951C36.7378 23.986 36.9254 24.1238 37.1156 24.1105C37.1156 24.1052 36.8655 24.3915 36.8733 24.3703L37.1312 24.6353C37.0895 24.6353 37.0114 24.6221 36.9514 24.5585C36.8889 24.4975 36.8733 24.4207 36.8733 24.3809L36.8759 24.3782ZM37.3969 24.357C37.3969 24.3173 37.3813 24.2404 37.3214 24.1795C37.2589 24.1185 37.1833 24.1026 37.1442 24.1026C37.1442 24.1079 37.41 24.365 37.4021 24.3729V24.6274L37.1599 24.638C36.7847 24.6698 36.4017 24.4472 36.248 24.0946C35.6645 21.5952 33.3406 19.8591 30.9699 19.276C29.6412 18.942 28.2422 19.0295 26.8406 19.1647C22.5941 19.6047 18.4544 20.588 14.1741 20.9405C12.1759 21.1155 7.90591 21.2082 9.48467 17.9719C9.83637 17.2748 10.3001 16.697 10.7743 16.1378C11.7434 15.0352 12.7698 14.0068 13.9474 13.14C17.7015 10.2722 22.2528 10.2245 26.3612 12.3369C31.0246 14.7409 34.6745 18.7432 37.7304 22.9814L37.8086 23.0927L37.8476 23.1484C38.2306 23.6679 37.9258 24.4869 37.2979 24.6115C37.2849 24.6168 37.3318 24.6009 37.3526 24.5797C37.4152 24.532 37.4334 24.4101 37.4021 24.357H37.3969Z" fill="#221F1F"/>
<path d="M24.667 29.4331C24.667 29.4331 37.5012 30.6439 49.6988 27.4321L24.667 29.4331Z" fill="white"/>
<path d="M23.9189 29.5654C23.9189 29.5654 38.0566 30.7423 50.2542 27.5305" stroke="#221F1F" stroke-width="0.696928" stroke-miterlimit="10"/>
<path d="M16.999 43.4572C16.999 43.4572 38.2372 36.7046 59.4654 40.1911L16.999 43.4572Z" fill="white"/>
<path d="M16.8984 43.1317C19.4019 42.026 22.0521 41.5105 24.689 40.9102C29.066 39.9843 33.5663 39.289 38.0166 38.8888C42.4269 38.4818 47.0773 38.4242 51.5042 38.665C52.3576 38.7396 54.7111 38.9363 55.5445 39.0143C56.8846 39.2144 58.218 39.462 59.5181 39.8554L59.4115 40.5236C57.6413 40.588 55.8445 40.2997 54.0844 40.1912C45.2538 39.4552 36.2765 40.1234 27.5525 41.6156C26.0391 41.8971 23.8089 42.3211 22.3188 42.6704C20.5854 43.0672 18.8552 43.4878 17.0985 43.7828L16.8984 43.1351V43.1317Z" fill="#221F1F"/>
<path d="M19.002 64.1931C22.7922 62.7992 37.3899 58.5598 61.625 60.2522L19.002 64.1931Z" fill="white"/>
<path d="M18.8896 63.8743C25.5101 61.4053 32.564 60.3607 39.5645 59.7638C43.0714 59.5026 46.5883 59.3703 50.1019 59.3941C53.6121 59.411 57.139 59.4246 60.6126 60.0927L60.5659 60.771C57.0624 61.0186 53.5921 60.6659 50.0952 60.6863C43.1314 60.632 36.1475 61.0254 29.2671 62.1311C25.8335 62.6941 22.4132 63.4198 19.1163 64.5153L18.8896 63.8777V63.8743Z" fill="#221F1F"/>
<path d="M52.1392 60.2386C52.4558 52.7026 51.8291 39.618 51.8291 39.618C51.8291 39.618 34.0412 38.2376 24.7139 42.0836C24.7139 42.0836 25.6173 55.1547 27.5041 62.2769" stroke="#221F1F" stroke-width="0.696928" stroke-miterlimit="10"/>
<path d="M24.8362 41.9073C24.6029 44.3459 26.5997 58.4479 27.4831 61.7547C33.8268 60.1403 46.3211 59.5027 51.9881 59.5603C52.3615 55.4227 51.7815 44.9123 51.5081 39.9572L51.4948 39.7435C40.9774 38.3157 29.4299 40.6932 24.8362 41.9073Z" fill="#5BC2C7"/>
<path d="M38.139 52.4083L38.0156 48.62C38.0156 48.4979 38.139 48.4165 38.2456 48.4707L41.8526 50.3666C41.9659 50.4243 41.9659 50.5905 41.8526 50.6515L38.369 52.544C38.2656 52.5983 38.1423 52.527 38.1356 52.4083H38.139Z" fill="white" stroke="black" stroke-width="0.167263"/>
<g clip-path="url(#clip1_1260_836)">
<path d="M38.5156 42.7144C33.7158 38.7144 23.0157 37.7144 19.0156 38.2144L20.0156 41.2139C23.5156 39.2139 35.0156 42.2139 39.0156 46.7139C42.0156 42.7142 50.3156 35.8145 55.5156 38.2145L56.5156 35.714C49.5156 34.2139 41.5156 39.5477 38.5156 42.7144Z" fill="#B48961" stroke="black" stroke-width="0.2"/>
<path d="M53.576 36.7783L62.7366 23.6662C62.7366 23.6662 64.7747 41.7547 61.5326 49.5081C61.5326 49.5081 56.7856 55.5901 53.6196 55.5988L53.5778 36.7782L53.576 36.7783Z" fill="white"/>
<path d="M53.4944 36.7514C54.072 35.8275 62.977 21.7997 63.2053 21.4311L63.5344 23.5756C63.7065 25.7734 63.8015 27.9457 63.8515 30.1311C63.9372 34.4959 63.8531 38.8776 63.2506 43.2068C62.9225 45.3633 62.5003 47.5359 61.6146 49.542C59.9976 51.5291 58.2221 53.4498 56.0477 54.8362C55.288 55.2939 54.4443 55.6984 53.5342 55.6882C53.5176 55.6452 53.5086 36.8139 53.4962 36.753L53.4944 36.7514ZM53.6627 36.8031L53.7084 55.5971L53.6205 55.509C54.4589 55.4953 55.2475 55.1115 55.9561 54.6832C58.0791 53.3509 59.924 51.3223 61.4522 49.4723C62.2155 47.4487 62.5134 45.2869 62.721 43.1445C62.9069 40.9927 62.9497 38.83 62.9168 36.6681C62.8397 32.3574 62.497 28.02 61.9405 23.7548L63.394 24.1239L53.661 36.8032L53.6627 36.8031Z" fill="black"/>
<path d="M63.1836 29.2974L53.5857 40.6424" stroke="black" stroke-width="0.175618" stroke-miterlimit="10"/>
<path d="M63.4054 36.381L53.634 46.8021" stroke="black" stroke-width="0.175618" stroke-miterlimit="10"/>
<path d="M62.8709 44.0804L53.6124 52.4362" stroke="black" stroke-width="0.175618" stroke-miterlimit="10"/>
<path d="M22.6872 38.5231L12.0665 26.5644C12.0665 26.5644 12.1445 44.7672 16.2658 52.0912C16.2658 52.0912 21.6874 57.5804 24.833 57.221L22.6872 38.5231Z" fill="white"/>
<path d="M22.6082 38.5593C18.8084 34.6978 15.0504 30.9184 11.3588 27.1931L13.0142 26.5601C12.9339 30.8553 13.0732 35.2046 13.4709 39.4914C13.6772 41.6414 13.9605 43.7851 14.383 45.9014C14.826 48.0077 15.3609 50.1226 16.344 52.0479C17.4667 53.14 18.8606 54.3587 20.2244 55.3013C21.2653 56.0163 22.3669 56.6874 23.5914 57.0207C23.9967 57.1237 24.4151 57.1784 24.8242 57.1352L24.7472 57.233L22.6083 38.5611L22.6082 38.5593ZM22.7694 38.4883C22.7583 38.5998 24.9392 57.2059 24.9323 57.2996C24.4663 57.3619 23.9951 57.3067 23.5485 57.1903C22.3009 56.8514 21.1793 56.1709 20.1238 55.4461C18.7204 54.4583 17.4065 53.3458 16.1907 52.1342C15.0676 50.2506 14.3835 48.1425 13.7948 46.0412C12.6686 41.8128 12.0495 37.4703 11.6026 33.1231C11.3876 30.9455 11.2172 28.7776 11.1202 26.5702C11.1202 26.5702 11.2325 24.0006 11.2324 23.9988C11.849 24.7686 21.8207 37.3034 22.7677 38.4884L22.7694 38.4883Z" fill="black"/>
<path d="M12.2783 32.2102L23.1297 42.3629" stroke="black" stroke-width="0.175618" stroke-miterlimit="10"/>
<path d="M12.8799 39.2698L23.7962 48.4846" stroke="black" stroke-width="0.175618" stroke-miterlimit="10"/>
<path d="M24.5241 54.5112L14.2549 46.6501" stroke="black" stroke-width="0.175618" stroke-miterlimit="10"/>
</g>
</g>
<defs>
<clipPath id="clip0_1260_836">
<rect x="0.015625" y="0.453613" width="76" height="76" rx="38" fill="white"/>
</clipPath>
<clipPath id="clip1_1260_836">
<rect width="52.529" height="37.7859" fill="white" transform="translate(10.9609 24.0144) rotate(-3.33702)"/>
</clipPath>
</defs>
</svg>