<svg xmlns="http://www.w3.org/2000/svg" fill="none" viewBox="-13.41 0.52 97.48 88.13">
<g clip-path="url(#clip0_1260_613)">
<rect y="0.522217" width="76" height="76" rx="38" fill="#FAFBFB"/>
<path d="M35.5073 6.40146L6.58596 25.0608L6.68424 26.7794L36.9646 31.8859L67.4202 17.2446L67.2989 15.4604L35.5073 6.40146Z" fill="#777777"/>
<path d="M35.5633 6.8776C35.6379 6.83282 6.30261 25.498 6.69304 25.0585L6.79132 26.7772C6.16734 26.3914 37.2221 30.7915 37.0741 30.6772L36.5983 30.7464L67.3826 17.1188L67.3173 17.2516L67.1962 15.4698C67.7723 15.88 35.4262 6.76525 35.5654 6.87747L35.5633 6.8776ZM35.4511 5.92684C35.533 5.97281 67.3245 15.3171 67.3996 15.3555C67.4002 15.4413 67.5311 17.2439 67.534 17.3322C67.5631 17.3546 37.3376 33.0001 37.335 33.0298L37.1041 33.1485L36.857 33.0991L6.67287 26.9159L6.58397 26.8972L6.57786 26.7902L6.47958 25.0715L6.47453 24.9833C6.44266 24.9503 35.4554 5.96413 35.4532 5.92671L35.4511 5.92684Z" fill="black"/>
<path d="M35.5206 6.50699L35.6315 8.44595L6.68461 26.7641" fill="#777777"/>
<path d="M35.5206 6.50699L35.6315 8.44595L6.68461 26.7641" stroke="black" stroke-width="0.393943" stroke-miterlimit="10"/>
<path d="M35.6162 8.47656L67.4084 17.2448" stroke="black" stroke-width="0.393943" stroke-miterlimit="10"/>
<path d="M53.8023 59.514C52.1543 56.3783 54.9005 52.7231 58.3262 53.4802C67.8153 55.587 81.9484 59.448 83.2182 64.0188C83.2182 64.0188 85.6115 70.3951 79.2145 77.3722C76.9203 79.8707 73.232 80.664 70.3515 79.2551C68.0907 78.1485 65.5695 76.0453 62.324 72.2184C59.0785 68.3916 56.1814 64.0508 53.8003 59.5184L53.7992 59.5152L53.8023 59.514Z" fill="white"/>
<path d="M53.3908 59.6165C52.5985 58.1232 52.7618 56.1818 53.7769 54.8161C54.7769 53.3878 56.637 52.6291 58.3206 53.0005C61.3634 53.6515 64.3509 54.3877 67.3363 55.2182C71.6504 56.5338 82.13 59.4274 83.6157 63.864C85.1713 69.2421 82.5079 74.9702 78.5185 78.5221C76.7821 79.8714 74.5279 80.5425 72.3612 80.2245C69.185 79.7093 66.6486 77.2414 64.4349 75.0816C60.1153 70.6141 56.0673 64.8124 53.3876 59.6177L53.3908 59.6165ZM54.212 59.4125C56.5879 64.0006 60.7446 70.3303 64.9316 74.5844C68.6678 78.4196 72.9366 81.7084 78.0639 77.932C81.4267 74.8824 83.7399 70.2263 83.1376 65.6202C82.9487 63.3779 81.6648 62.2252 79.8529 61.0995C75.9101 58.7615 71.4492 57.4536 67.0619 56.1723C64.1134 55.3353 61.1119 54.5899 58.1303 53.9307C56.7746 53.621 55.3082 54.2047 54.4882 55.347C53.5908 56.5323 53.5424 58.1146 54.2109 59.4093L54.212 59.4125Z" fill="#221F1F"/>
<mask id="mask0_1260_613" style="mask-type:luminance" maskUnits="userSpaceOnUse" x="-14" y="48" width="40" height="41">
<path d="M10.3865 48.4413L-13.4102 73.3755L2.05794 88.6514L25.8546 63.7172L10.3865 48.4413Z" fill="white"/>
</mask>
<g mask="url(#mask0_1260_613)">
<path d="M22.48 62.8075C23.3638 59.3552 19.8573 56.518 16.6987 58.1179C7.95718 62.5633 -4.895 69.8871 -5.0819 74.6301C-5.0819 74.6301 -5.94687 81.4039 1.87101 86.5304C4.67279 88.3657 8.43856 88.1953 10.9166 86.1023C12.8587 84.4554 14.8288 81.7809 17.1055 77.2569C19.3822 72.7329 21.2057 67.799 22.4767 62.8081L22.48 62.8075Z" fill="white"/>
<path d="M21.8763 62.8166C22.204 61.4354 21.8438 60.0003 20.7228 59.1123C19.7153 58.2762 18.2574 58.1006 17.0821 58.71C14.3534 60.1115 11.598 61.5793 8.91333 63.1065C4.93706 65.4277 0.913755 67.8153 -2.40242 71.03C-3.90783 72.5627 -4.88347 73.948 -4.57605 76.1517C-4.14302 80.7587 -0.853502 84.6944 3.11053 86.7879C5.37239 87.8011 8.17822 87.6586 10.2449 86.1952C12.295 84.6286 13.7856 82.4349 15.0894 80.1986C18.1072 75.1103 20.7797 67.4144 21.8802 62.8193L21.8763 62.8166ZM23.0755 62.7981C21.4814 69.2618 16.4296 82.3412 10.627 86.7542C8.34912 88.3401 5.30755 88.5582 2.80842 87.4634C-0.0472522 86.0104 -2.4615 83.7138 -4.05615 80.8975C-4.9533 79.228 -5.54045 77.3537 -5.60487 75.4357C-5.69092 74.3322 -5.35681 73.1175 -4.72079 72.1749C-1.0057 66.6088 10.3984 60.5408 16.4918 57.4486C19.987 55.7042 24.0516 58.991 23.0689 62.7993L23.0755 62.7981Z" fill="#221F1F"/>
</g>
<path d="M19.9851 73.8452L17.1582 43.6808C17.1382 43.4807 17.1148 43.2806 17.0882 43.0805C16.8115 40.9743 15.3281 24.2099 37.613 22.0122C37.613 22.0122 58.3945 20.3503 59.8379 39.733L61.1413 70.5418C61.2513 71.973 61.0713 73.35 60.6513 74.6388C59.9412 76.8128 58.5545 78.6578 56.8143 80.1941C55.9209 80.981 54.9475 81.6593 53.9275 82.2562C50.7306 84.1283 47.117 85.1933 43.4201 85.4884L40.2198 85.7427C37.713 85.9428 35.1895 85.78 32.7426 85.2272C31.0892 84.8541 29.5524 84.4539 28.099 83.8265C25.0187 82.5004 22.5019 80.5469 21.1085 77.8065C20.4951 76.6025 20.1017 75.2696 19.9917 73.8418H19.9851V73.8452Z" fill="white"/>
<path d="M19.8251 74.1401C18.6484 64.3182 17.2583 52.7734 16.2782 42.9956C15.3148 32.9261 20.9686 25.407 30.3392 22.592C32.6261 21.8594 35.0229 21.483 37.3897 21.2117C40.7833 20.9946 44.1602 21.4762 47.4104 22.4801C55.5977 25.078 60.228 31.5084 60.628 40.167C60.9814 48.3644 61.4148 60.4993 61.7415 68.7306C61.8281 70.6672 61.9881 72.7598 61.3381 74.6353C59.4513 80.4382 53.6976 83.7789 48.2038 85.2644C45.5436 86.0241 42.4834 86.0987 39.7432 86.3124C33.5761 86.5905 25.3989 84.7285 21.6119 79.3699C20.4852 77.7623 19.7951 75.8393 19.6651 73.8722L20.1452 74.1503C20.0652 74.2012 19.9085 74.1978 19.8285 74.1469L19.8251 74.1401ZM20.1485 73.5466C20.0752 73.4923 19.9218 73.4889 19.8451 73.5364L20.3252 73.8145C21.0686 81.8762 30.0625 84.9422 36.923 85.2814C38.5265 85.4374 40.8466 85.1152 42.4668 85.0134C49.2039 84.6234 57.8178 81.2793 60.0947 74.2419C60.678 72.5122 60.4847 70.6129 60.3947 68.812C60.0013 60.5706 59.4546 48.4695 59.0913 40.2586C58.7012 32.2613 54.5109 26.4075 46.9237 24.0233C43.9135 23.0974 40.6733 22.6463 37.5297 22.8498C35.2762 23.1177 32.9627 23.4874 30.8126 24.1827C22.122 26.784 16.9183 33.8282 17.895 43.155C18.7584 52.5835 19.4918 64.0299 20.1452 73.5466H20.1485Z" fill="#221F1F"/>
<path d="M24.5957 26.4549C24.5957 26.4549 37.43 27.6657 49.6275 24.4539L24.5957 26.4549Z" fill="white"/>
<path d="M23.8477 26.5872C23.8477 26.5872 37.9853 27.764 50.1829 24.5522" stroke="#221F1F" stroke-width="0.676267" stroke-miterlimit="10"/>
<path d="M16.9287 40.4791C16.9287 40.4791 38.1669 33.7266 59.3951 37.2131L16.9287 40.4791Z" fill="white"/>
<path d="M16.8281 40.1536C19.3316 39.048 21.9818 38.5325 24.6187 37.9322C28.9957 37.0063 33.496 36.311 37.9463 35.9108C42.3566 35.5038 47.0069 35.4462 51.4339 35.687C52.2873 35.7616 54.6408 35.9583 55.4742 36.0363C56.8143 36.2364 58.1477 36.484 59.4478 36.8774L59.3412 37.5455C57.571 37.61 55.7742 37.3217 54.0141 37.2132C45.1835 36.4772 36.2062 37.1453 27.4822 38.6376C25.9688 38.9191 23.7386 39.3431 22.2485 39.6924C20.5151 40.0892 18.7849 40.5097 17.0281 40.8048L16.8281 40.157V40.1536Z" fill="#221F1F"/>
<path d="M18.9316 61.2151C22.7219 59.8212 37.3196 55.5818 61.5547 57.2741L18.9316 61.2151Z" fill="white"/>
<path d="M18.8184 60.896C25.4388 58.427 32.4927 57.3824 39.4932 56.7855C43.0001 56.5243 46.517 56.3921 50.0306 56.4158C53.5408 56.4328 57.0677 56.4463 60.5413 57.1145L60.4947 57.7928C56.9911 58.0404 53.5208 57.6876 50.0239 57.708C43.0601 57.6537 36.0763 58.0471 29.1958 59.1528C25.7622 59.7158 22.3419 60.4416 19.045 61.537L18.8184 60.8994V60.896Z" fill="#221F1F"/>
<path d="M52.0669 57.2606C52.3836 49.7245 51.7569 36.64 51.7569 36.64C51.7569 36.64 33.9689 35.2596 24.6416 39.1056C24.6416 39.1056 25.545 52.1766 27.4318 59.2989" stroke="#221F1F" stroke-width="0.676267" stroke-miterlimit="10"/>
<path d="M24.7659 38.9291C24.5325 41.3676 26.5294 55.4696 27.4127 58.7764C33.7565 57.162 46.2508 56.5244 51.9178 56.5821C52.2912 52.4444 51.7111 41.934 51.4378 36.9789L51.4245 36.7653C40.907 35.3374 29.3596 37.7149 24.7659 38.9291Z" fill="#5BC2C7"/>
<path d="M38.304 48.673L38.1807 44.8846C38.1807 44.7625 38.304 44.6811 38.4107 44.7354L42.0176 46.6313C42.1309 46.6889 42.1309 46.8551 42.0176 46.9162L38.534 48.8086C38.4307 48.8629 38.3073 48.7917 38.3007 48.673H38.304Z" fill="white" stroke="black" stroke-width="0.162304"/>
<path d="M19.3548 26.3869L18.0263 32.7856C18.0263 32.7856 20.5388 29.4681 32.988 32.3691C32.988 32.3691 37.0682 34.1475 40.9443 31.9227C42.0234 31.3033 43.1482 30.7256 44.353 30.2354C47.961 28.7699 54.3898 26.5932 56.4355 28.7135L53.2156 22.9673C52.6862 22.0242 51.4775 21.3724 50.0305 21.2489C44.2155 20.7551 29.0539 19.9842 20.9979 24.4126C20.107 24.9028 19.5175 25.6133 19.3571 26.3868L19.3548 26.3869Z" fill="#777777"/>
<path d="M19.6289 26.4065L18.1405 32.7949L17.9288 32.7521C18.6811 31.906 20.0761 31.4789 21.3794 31.2388C23.6926 30.8385 26.078 30.9844 28.3526 31.2611L28.8426 31.3172L29.3226 31.3962C29.8964 31.4869 30.6839 31.614 31.2387 31.7281L33.1241 32.1209L33.1518 32.1271L33.1984 32.1466C35.3282 32.9938 38.2713 33.0277 40.3546 31.9079C41.6655 31.2044 42.9733 30.485 44.4294 29.9333C47.3193 28.8392 54.2049 26.2939 56.5313 28.6694L56.3311 28.7485C55.5518 27.5325 54.7926 26.309 54.0424 25.085L52.9249 23.2453C52.7529 22.9423 52.5661 22.6991 52.275 22.4606C51.6611 21.9491 50.7493 21.6371 49.7846 21.594C49.5834 21.576 48.9309 21.541 48.7139 21.5256C45.8607 21.3541 42.9857 21.2794 40.1127 21.3176C34.3337 21.4548 27.925 21.8786 22.7031 23.92C22.2276 24.1176 21.6426 24.3887 21.1961 24.6164C20.3746 25.0467 19.8001 25.7007 19.6268 26.4098L19.6289 26.4065ZM19.0831 26.3681C19.2208 25.5546 19.8396 24.7611 20.7734 24.2253C21.4478 23.8469 22.2086 23.4664 22.9508 23.1602C30.7941 19.9011 41.8018 20.1073 50.3331 20.9225C51.6484 21.0906 52.8041 21.6901 53.3952 22.5197C53.6506 22.8478 54.4402 24.523 54.6549 24.8965C55.2978 26.1542 55.9296 27.4157 56.5434 28.6814L56.7472 29.1034L56.3409 28.7606C56.0425 28.4749 55.63 28.2629 55.1655 28.1353C51.8704 27.2779 44.845 30.1212 42.0781 31.6168C41.4204 31.9687 40.782 32.3799 40.0518 32.6583C38.8093 33.1668 37.3275 33.3876 35.9365 33.2893C34.9264 33.2474 33.4228 32.8887 32.8525 32.6211C32.2101 32.4852 30.7116 32.1374 30.0735 32.0378C29.7792 31.9825 28.9545 31.8418 28.6672 31.7893C27.936 31.6922 27.027 31.5487 26.2848 31.4969C23.7409 31.2445 19.2236 31.2508 17.8451 33.1582L17.9144 32.7785L19.0808 26.3682L19.0831 26.3681Z" fill="black"/>
<path d="M46.1236 9.11345C46.1236 9.11345 53.565 -0.722211 53.7845 23.666L54.5897 36.1802C54.6112 36.5197 54.3957 36.8228 54.0838 36.8894C53.6892 36.9744 53.3177 36.6543 53.3134 36.2223C53.2585 31.3454 52.783 6.72787 48.6893 9.704L46.1214 9.11314L46.1236 9.11345Z" fill="white"/>
<path d="M46.021 9.15198C46.0113 9.1042 46.0358 9.0242 46.0729 8.98544L46.1075 8.9301C46.9749 7.59538 48.5428 6.29152 50.171 6.92628C53.4632 8.30065 53.8503 16.5028 54.0486 19.802C54.1186 21.1691 54.1196 22.5308 54.1658 23.8968C54.2517 25.2569 54.7066 32.5919 54.7992 34.1014L54.9192 36.1437C54.9393 36.3832 54.87 36.6632 54.7187 36.8619C54.4227 37.2787 53.8241 37.3808 53.4203 37.077C53.1264 36.8748 52.9669 36.4877 52.9894 36.1245C52.9892 35.976 52.9838 35.5159 52.9825 35.358C52.9779 34.7403 52.9448 32.9424 52.9308 32.2932C52.7823 26.8555 52.5671 21.392 51.822 16.0009C51.4886 14.0371 51.2314 11.9218 50.2278 10.2098C49.8372 9.60402 49.2958 9.38027 48.7068 9.83166C47.8066 9.62837 46.8955 9.38871 46.0205 9.15654L46.021 9.15198ZM46.2231 9.07658C47.0711 9.24223 47.8851 9.4007 48.7104 9.59326L48.6282 9.6093C49.2791 9.09256 49.9953 9.36457 50.441 10.0386C51.5286 11.7765 51.8219 13.9364 52.1992 15.9344C53.1539 22.012 53.4106 28.1866 53.5954 34.3254C53.6064 34.7933 53.6272 35.7589 53.6374 36.2336C53.6602 36.6567 54.2947 36.6572 54.2564 36.1809C54.1618 34.9332 53.6657 27.3904 53.5682 25.9614C53.3466 23.276 53.3987 20.479 53.1739 17.8023C52.9289 15.1877 52.3742 8.54582 49.7159 7.62883C48.4621 7.28901 47.2261 8.2786 46.294 9.10297L46.2499 9.14537C46.2454 9.14704 46.2278 9.16771 46.2355 9.15722C46.2486 9.13822 46.2429 9.09333 46.2255 9.0746L46.2231 9.07658Z" fill="black"/>
<path d="M52.6195 36.7896L52.9794 40.2975C52.9974 40.4786 53.1751 40.5939 53.3442 40.5381L54.1159 40.2795C54.2597 40.2311 54.3397 40.0754 54.296 39.9272C54.2102 39.6388 54.5674 39.4313 54.7684 39.6531L54.8082 39.6971C54.8973 39.7951 55.0399 39.8174 55.1531 39.7507L55.6979 39.4309C55.8287 39.3547 55.8761 39.1847 55.8031 39.0477L55.6534 38.7699L56.4636 39.1819C56.5996 39.2513 56.7647 39.1974 56.8367 39.0592L57.0047 38.7343C57.0667 38.6136 57.0364 38.4677 56.9317 38.3812L53.6818 35.7131" fill="white"/>
<path d="M52.7141 36.7799C53.0691 37.9162 53.2828 39.0677 53.4516 40.2399C53.4533 40.1456 53.3526 40.0455 53.2462 40.0513C53.1222 40.0726 53.2814 40.0304 53.3398 40.004C53.4545 39.9629 53.6839 39.8847 53.7987 39.8436C53.8298 39.8324 53.9289 39.7989 53.9542 39.7895C53.8492 39.8249 53.7814 39.9474 53.8123 40.056C53.8016 40.0087 53.7682 39.8155 53.7991 39.7061C53.9051 39.0597 54.7627 38.8596 55.1247 39.3772C55.1303 39.3872 55.136 39.3912 55.1246 39.3812C55.0731 39.3429 54.9803 39.349 54.9544 39.3917C55.1179 39.3241 55.3358 39.2397 55.501 39.1839C55.5088 39.184 55.5516 39.1632 55.5476 39.171C55.5642 39.2165 55.6344 39.1805 55.6294 39.1352L55.6151 39.0721C55.5953 38.9872 55.5794 38.9005 55.5655 38.8137L55.3142 38.4868C55.5517 38.6052 56.1493 38.9131 56.3925 39.0355C56.5017 39.0906 56.5684 39.143 56.6718 39.0879C56.7497 39.052 56.8068 38.8802 56.8506 38.8064C56.9028 38.6973 56.9639 38.6258 56.9155 38.5207C56.8897 38.4534 56.7177 38.3422 56.6588 38.286L56.0492 37.7854L53.6127 35.7848L53.7332 35.6319C54.1885 36.0058 56.3736 37.7993 56.7774 38.1311L56.9298 38.2558C57.1648 38.4134 57.168 38.6709 57.0191 38.896C56.9474 39.0184 56.902 39.1865 56.7616 39.2586C56.6208 39.3522 56.4191 39.2836 56.3045 39.2087L55.6054 38.8518C55.6054 38.8538 55.7335 38.7069 55.7353 38.7187C55.8359 38.8188 55.9504 38.9015 56.0177 39.0305C56.1222 39.2446 56.0537 39.5145 55.8597 39.668L55.6615 39.8392C55.5969 39.8891 55.438 40.0275 55.3734 40.0735C55.1441 40.2539 54.8061 40.2476 54.5656 40.0741C54.5179 40.0398 54.4724 39.9918 54.4286 39.9536C54.5191 40.083 54.7324 40.0399 54.7644 39.8695C54.7708 39.8323 54.7714 39.8009 54.766 39.7772C54.7863 39.8326 54.8105 39.9962 54.7974 40.0824C54.7707 40.3923 54.5475 40.671 54.2541 40.7618C54.0753 40.8213 53.8265 40.9012 53.6458 40.9587L53.5292 40.9938C53.1535 41.1538 52.6243 40.9179 52.5198 40.4837C52.498 40.4047 52.4914 40.3378 52.4888 40.269C52.4202 39.1065 52.3978 37.9567 52.5149 36.7899L52.7065 36.7699L52.7141 36.7799Z" fill="black"/>
<path d="M52.6078 36.9374C53.3545 36.9513 53.9707 36.3471 53.984 35.5878C53.9973 34.8285 53.4027 34.2017 52.6559 34.1877C51.9091 34.1737 51.2929 34.7779 51.2797 35.5372C51.2664 36.2965 51.861 36.9234 52.6078 36.9374Z" fill="white"/>
<path d="M53.8377 35.5848C53.9755 34.8899 53.2959 34.3016 52.6526 34.4055C51.4744 34.5957 51.4707 36.2401 52.6163 36.4737C53.155 36.6095 53.7748 36.1947 53.8377 35.5848ZM54.1293 35.5903C54.2492 37.127 52.3705 38.0369 51.2816 36.8849C50.575 36.186 50.6577 34.8869 51.4389 34.3062C52.5382 33.4387 54.0076 34.2717 54.1274 35.5903L54.1293 35.5903Z" fill="black"/>
</g>
<defs>
<clipPath id="clip0_1260_613">
<rect y="0.522217" width="76" height="76" rx="38" fill="white"/>
</clipPath>
</defs>
</svg>