<svg xmlns="http://www.w3.org/2000/svg" fill="none" viewBox="-11.61 0.52 97.47 88.33">
<g clip-path="url(#clip0_1260_164)">
<rect y="0.522217" width="76" height="76" rx="38" fill="#FAFBFB"/>
<path d="M55.5985 59.7192C53.9504 56.5837 56.696 52.9284 60.1216 53.6851C69.6105 55.791 83.7433 59.6508 85.0133 64.2213C85.0133 64.2213 87.4071 70.5972 81.011 77.5746C78.7171 80.0732 75.029 80.8668 72.1485 79.4582C69.8877 78.3518 67.3665 76.2489 64.1208 72.4225C60.8752 68.5961 57.9779 64.2556 55.5965 59.7235L55.5954 59.7204L55.5985 59.7192Z" fill="white"/>
<path d="M55.187 59.8217C54.3947 58.3285 54.5578 56.3872 55.5727 55.0215C56.5726 53.593 58.4325 52.8343 60.1161 53.2055C63.1588 53.8562 66.1463 54.5921 69.1315 55.4223C73.4455 56.7375 83.9249 59.6301 85.4108 64.0664C86.9669 69.4442 84.3041 75.1724 80.3152 78.7245C78.579 80.0739 76.3249 80.7452 74.1583 80.4274C70.9822 79.9125 68.4457 77.4448 66.2319 75.2853C61.9122 70.8184 57.8639 65.0172 55.1839 59.8229L55.187 59.8217ZM56.0082 59.6176C58.3844 64.2054 62.5414 70.5345 66.7286 74.7881C70.4649 78.6229 74.7338 81.9112 79.8606 78.1345C83.2229 75.0847 85.5357 70.4286 84.9329 65.8226C84.7439 63.5804 83.4599 62.4279 81.648 61.3024C77.7052 58.9647 73.2445 57.6573 68.8572 56.3765C65.9088 55.5397 62.9074 54.7946 59.9258 54.1356C58.5703 53.8261 57.104 54.4099 56.284 55.5522C55.3868 56.7376 55.3385 58.3198 56.0071 59.6144L56.0082 59.6176Z" fill="#221F1F"/>
<mask id="mask0_1260_164" style="mask-type:luminance" maskUnits="userSpaceOnUse" x="-12" y="48" width="40" height="41">
<path d="M12.1776 48.6443L-11.6133 73.5845L3.86058 88.8545L27.6515 63.9144L12.1776 48.6443Z" fill="white"/>
</mask>
<g mask="url(#mask0_1260_164)">
<path d="M24.272 63.0094C25.1545 59.5576 21.6479 56.7222 18.4904 58.3227C9.75205 62.7698 -3.09526 70.0959 -3.28066 74.8378C-3.28066 74.8378 -4.14337 81.6102 3.67449 86.733C6.47627 88.567 10.2412 88.3955 12.7181 86.3021C14.6593 84.6551 16.6282 81.9806 18.903 77.457C21.1778 72.9333 22.9995 68.0001 24.2687 63.01L24.272 63.0094Z" fill="white"/>
<path d="M23.6675 63.0186C23.9947 61.6376 23.6342 60.2029 22.5131 59.3155C21.5056 58.4799 20.0479 58.3048 18.873 58.9145C16.1453 60.3165 13.3909 61.7848 10.7073 63.3124C6.73252 65.6344 2.71076 68.0227 -0.60375 71.2377C-2.10838 72.7705 -3.08339 74.1557 -2.77536 76.3588C-2.341 80.9646 0.949059 84.8983 4.91293 86.9901C7.17464 88.0022 9.97985 87.8589 12.0457 86.3952C14.0949 84.8283 15.5845 82.6346 16.8874 80.3985C19.903 75.3105 22.5726 67.6156 23.6714 63.0213L23.6675 63.0186ZM24.8665 62.9997C23.2747 69.4624 18.2279 82.5402 12.4279 86.9539C10.1509 88.5402 7.11005 88.7591 4.61109 87.6655C1.75555 86.2137 -0.658909 83.9184 -2.25411 81.1032C-3.15159 79.4344 -3.7392 77.5608 -3.80419 75.6433C-3.89056 74.5401 -3.5569 73.3256 -2.92129 72.383C0.79133 66.8171 12.1912 60.747 18.2824 57.6536C21.7764 55.9085 25.8412 59.1932 24.8599 63.0009L24.8665 62.9997Z" fill="#221F1F"/>
</g>
<path d="M21.7819 74.0485L18.9551 43.8841C18.9351 43.684 18.9117 43.4839 18.8851 43.2838C18.6084 41.1777 17.1249 24.4133 39.4099 22.2155C39.4099 22.2155 60.1913 20.5537 61.6348 39.9364L62.9382 70.7452C63.0482 72.1764 62.8682 73.5534 62.4482 74.8422C61.7381 77.0161 60.3513 78.8611 58.6112 80.3975C57.7178 81.1844 56.7444 81.8627 55.7243 82.4596C52.5275 84.3317 48.9139 85.3967 45.2169 85.6917L42.0167 85.9461C39.5099 86.1462 36.9863 85.9834 34.5395 85.4306C32.8861 85.0575 31.3493 84.6573 29.8958 84.0299C26.8156 82.7038 24.2988 80.7502 22.9053 78.0099C22.292 76.8059 21.8986 75.473 21.7886 74.0452H21.7819V74.0485Z" fill="white"/>
<path d="M21.622 74.3437C20.4453 64.5218 19.0552 52.977 18.0751 43.1992C17.1117 33.1297 22.7654 25.6106 32.1361 22.7956C34.4229 22.0631 36.8198 21.6866 39.1866 21.4153C42.5802 21.1982 45.9571 21.6798 49.2073 22.6837C57.3946 25.2816 62.0249 31.712 62.4249 40.3706C62.7783 48.568 63.2116 60.7029 63.5383 68.9342C63.625 70.8708 63.785 72.9634 63.135 74.8389C61.2482 80.6418 55.4944 83.9825 50.0007 85.468C47.3405 86.2277 44.2803 86.3023 41.5401 86.516C35.373 86.7941 27.1957 84.9321 23.4088 79.5735C22.2821 77.9659 21.592 76.0429 21.462 74.0758L21.942 74.3539C21.862 74.4048 21.7054 74.4014 21.6253 74.3505L21.622 74.3437ZM21.9454 73.7502C21.872 73.6959 21.7187 73.6926 21.642 73.74L22.122 74.0181C22.8654 82.0798 31.8594 85.1458 38.7199 85.485C40.3233 85.641 42.6435 85.3188 44.2636 85.217C51.0008 84.827 59.6147 81.4829 61.8916 74.4455C62.4749 72.7158 62.2816 70.8165 62.1916 69.0156C61.7982 60.7742 61.2515 48.6731 60.8881 40.4622C60.4981 32.4649 56.3078 26.6111 48.7206 24.2269C45.7104 23.301 42.4702 22.8499 39.3266 23.0534C37.0731 23.3213 34.7596 23.691 32.6095 24.3863C23.9188 26.9876 18.7151 34.0318 19.6919 43.3586C20.5553 52.7871 21.2887 64.2335 21.942 73.7502H21.9454Z" fill="#221F1F"/>
<path d="M38.9184 21.1705C39.4013 21.1308 39.6549 20.5725 39.3744 20.1755C36.7062 16.3914 25.8333 2.52536 15.9237 12.178C5.82635 22.0117 25.0845 15.5824 31.6795 15.8852C33.7111 15.9795 35.6501 16.843 37.0184 18.374C37.6062 19.0341 38.0915 19.8082 38.2672 20.6767C38.3306 20.9869 38.611 21.1978 38.9208 21.1755V21.1705H38.9184Z" fill="white"/>
<path d="M38.6735 21.1805C38.6857 21.1259 38.7418 21.0043 38.8443 20.9547C38.9345 20.9075 38.9735 20.92 39.0443 20.8803C39.2638 20.7587 39.3052 20.4609 39.1345 20.2748L39.0613 20.1731C37.7906 18.4162 36.3858 16.7512 34.8565 15.2227C30.2615 10.5453 23.5958 6.62218 17.5935 11.2028C16.1008 12.3716 14.574 13.8331 13.6375 15.4956C13.4375 15.92 13.2545 16.3964 13.557 16.7636C13.7936 17.0018 14.1155 17.1061 14.4814 17.1879C15.4252 17.374 16.4008 17.3319 17.3667 17.2698C21.3178 16.9646 25.2494 16.0589 29.2152 15.6718C30.5615 15.5477 31.9517 15.4708 33.281 15.8133C35.5858 16.4013 37.8443 18.0912 38.4833 20.508L38.5101 20.6346C38.5443 20.8133 38.7199 20.9423 38.8979 20.9299C38.8979 20.9249 38.6638 21.1929 38.6711 21.1731L38.9126 21.4212C38.8735 21.4212 38.8004 21.4088 38.7443 21.3492C38.6857 21.2922 38.6711 21.2202 38.6711 21.183L38.6735 21.1805ZM39.1613 21.1607C39.1613 21.1234 39.1467 21.0515 39.0906 20.9944C39.0321 20.9373 38.9613 20.9224 38.9248 20.9224C38.9248 20.9274 39.1735 21.1681 39.1662 21.1755V21.4138L38.9394 21.4237C38.5882 21.4535 38.2296 21.245 38.0857 20.915C37.5394 18.575 35.3639 16.9497 33.1444 16.4038C31.9005 16.0912 30.5908 16.1731 29.2786 16.2996C25.3031 16.7115 21.4276 17.6321 17.4203 17.9621C15.5496 18.1259 11.5521 18.2128 13.0302 15.183C13.3594 14.5304 13.7936 13.9894 14.2375 13.4659C15.1448 12.4336 16.1057 11.4708 17.2081 10.6594C20.7227 7.97454 24.9836 7.92987 28.8298 9.90754C33.1956 12.1582 36.6126 15.9051 39.4735 19.8728L39.5467 19.977L39.5833 20.0291C39.9418 20.5155 39.6564 21.2822 39.0687 21.3989C39.0565 21.4038 39.1004 21.3889 39.1199 21.3691C39.1784 21.3244 39.1955 21.2103 39.1662 21.1607H39.1613Z" fill="#221F1F"/>
<path d="M26.3906 26.6585C26.3906 26.6585 39.2249 27.8693 51.4224 24.6575L26.3906 26.6585Z" fill="white"/>
<path d="M25.6445 26.7905C25.6445 26.7905 39.7822 27.9674 51.9797 24.7556" stroke="#221F1F" stroke-width="0.651534" stroke-miterlimit="10"/>
<path d="M18.7236 40.6825C18.7236 40.6825 39.9618 33.9299 61.19 37.4164L18.7236 40.6825Z" fill="white"/>
<path d="M18.624 40.357C21.1275 39.2514 23.7777 38.7358 26.4146 38.1355C30.7916 37.2096 35.2919 36.5144 39.7422 36.1142C44.1525 35.7072 48.8028 35.6495 53.2298 35.8903C54.0832 35.9649 56.4367 36.1617 57.2701 36.2397C58.6102 36.4398 59.9436 36.6873 61.2437 37.0808L61.1371 37.7489C59.3669 37.8133 57.5701 37.5251 55.81 37.4165C46.9794 36.6806 38.0021 37.3487 29.2781 38.841C27.7647 39.1225 25.5345 39.5464 24.0444 39.8958C22.311 40.2926 20.5808 40.7131 18.824 41.0082L18.624 40.3604V40.357Z" fill="#221F1F"/>
<path d="M20.7275 61.4185C24.5178 60.0246 39.1155 55.7851 63.3506 57.4775L20.7275 61.4185Z" fill="white"/>
<path d="M20.6143 61.0996C27.2347 58.6306 34.2886 57.586 41.2891 56.9891C44.796 56.7279 48.3129 56.5957 51.8265 56.6194C55.3367 56.6364 58.8637 56.6499 62.3372 57.3181L62.2906 57.9964C58.787 58.244 55.3167 57.8912 51.8198 57.9116C44.856 57.8573 37.8722 58.2508 30.9917 59.3564C27.5581 59.9194 24.1378 60.6452 20.8409 61.7407L20.6143 61.103V61.0996Z" fill="#221F1F"/>
<path d="M53.8638 57.4642C54.1804 49.9281 53.5537 36.8436 53.5537 36.8436C53.5537 36.8436 35.7658 35.4632 26.4385 39.3092C26.4385 39.3092 27.3419 52.3802 29.2287 59.5025" stroke="#221F1F" stroke-width="0.651534" stroke-miterlimit="10"/>
<path d="M26.5608 39.1327C26.3275 41.5712 28.3243 55.6733 29.2077 58.98C35.5515 57.3656 48.0457 56.728 53.7127 56.7857C54.0861 52.648 53.5061 42.1376 53.2327 37.1825L53.2194 36.9689C42.702 35.541 31.1545 37.9185 26.5608 39.1327Z" fill="#5BC2C7"/>
<path d="M40.0989 48.8766L39.9756 45.0882C39.9756 44.9661 40.0989 44.8847 40.2056 44.939L43.8125 46.8349C43.9259 46.8925 43.9259 47.0587 43.8125 47.1198L40.3289 49.0123C40.2256 49.0665 40.1023 48.9953 40.0956 48.8766H40.0989Z" fill="white" stroke="black" stroke-width="0.156368"/>
<g clip-path="url(#clip1_1260_164)">
<path d="M40.8282 37.9568C42.4795 38.4686 49.0833 35.9145 49.0833 35.9145C53.4146 33.7675 57.5328 34.8753 57.5328 34.8753C63.1477 36.165 62.4761 43.0943 62.4761 43.0943C62.327 49.7226 57.3941 53.121 57.3941 53.121C48.9059 58.0801 43.8249 52.1726 43.8249 52.1726C42.7676 50.3505 41.5235 49.735 41.5235 49.735L41.4889 49.7438C41.4889 49.7438 40.3259 50.5014 39.4904 52.4353C39.4904 52.4353 35.1397 58.8996 26.127 54.9736C26.127 54.9736 20.8285 52.1793 19.9006 45.6146C19.9006 45.6146 18.4183 38.8124 23.8424 36.871C23.8424 36.871 27.8016 35.2864 32.3555 36.9088C32.3555 36.9088 39.2139 38.6668 40.7936 37.9656L40.8282 37.9568Z" fill="white"/>
<path d="M40.83 37.8892C41.5323 38.0464 42.2392 37.8695 42.9326 37.7381C43.6274 37.5863 44.3131 37.3932 44.9939 37.1855C46.3537 36.7647 47.7022 36.2893 49.0295 35.7746C50.4026 35.0748 52.0685 34.5969 53.6595 34.4529C56.0554 34.2588 58.7825 34.4585 60.5835 36.2475C62.366 37.9971 62.8949 40.7772 62.7659 43.1003C62.7145 47.0804 60.7524 50.9842 57.591 53.4053C56.509 54.0487 55.3532 54.5844 54.1379 54.9587C51.7185 55.7162 49.0035 55.6766 46.668 54.6283C45.6418 54.1783 44.6881 53.5618 43.8662 52.7984C43.7418 52.6815 43.6227 52.5629 43.4954 52.4205L43.4686 52.3788C42.935 51.4863 42.2447 50.6408 41.3368 50.1122L41.6317 50.1421L41.5971 50.1509L41.7182 50.0964L41.6574 50.1419C40.8588 50.7807 40.293 51.676 39.8845 52.6053C39.7958 52.774 39.6524 52.931 39.5394 53.0755C36.016 57.1917 30.6462 57.5141 25.9287 55.384C22.4464 53.3538 19.9878 49.6717 19.4402 45.681C18.8386 42.5392 19.523 38.4582 22.801 36.8448C25.7494 35.459 29.443 35.4854 32.4601 36.615C33.6821 36.9481 35.2334 37.3213 36.5827 37.5915C37.2797 37.7273 37.9802 37.8548 38.6835 37.9376C39.3941 38.0064 40.1405 38.1096 40.8299 37.8879L40.83 37.8892ZM40.8272 38.0245C39.4271 38.611 35.9866 37.9293 34.3873 37.6576C33.6738 37.5174 32.9616 37.3757 32.2504 37.2056C30.7709 36.7201 29.2087 36.5057 27.6582 36.5797C25.4426 36.7159 22.9555 37.195 21.525 39.0289C20.1312 40.8418 19.9801 43.362 20.3606 45.551C20.8446 49.151 22.9997 52.4524 26.0545 54.4039C26.1499 54.4631 26.2549 54.5258 26.3387 54.5722L26.3081 54.5578C27.4064 55.0373 28.5494 55.4062 29.7167 55.6142C32.0382 56.0351 34.4953 55.7117 36.528 54.4907C37.5223 53.8971 38.4401 53.1282 39.1336 52.197C39.425 51.4355 40.3546 49.9743 41.3125 49.3571C41.375 49.3413 41.5066 49.3051 41.5719 49.2891L41.7098 49.3593C42.7707 49.9613 43.5682 50.9315 44.1805 51.9666L44.1363 51.9044C44.5176 52.3223 44.986 52.704 45.4551 53.0302C47.8918 54.7628 51.0902 55.1414 53.9293 54.2632C55.0426 53.9462 56.2744 53.3696 57.1981 52.8368C60.2099 50.5597 62.1034 46.8666 62.187 43.0885C62.3271 40.8161 61.8654 38.282 60.2353 36.5964C58.5619 34.8863 55.9631 34.6871 53.6911 34.8293C52.1165 34.9534 50.5616 35.364 49.1366 36.0547C47.7921 36.5528 46.4356 37.0085 45.0565 37.4006C44.3669 37.5953 43.6724 37.7755 42.9672 37.913C42.2729 38.0283 41.5211 38.1997 40.8257 38.0232L40.8272 38.0245Z" fill="black"/>
<path d="M43.9522 45.6809C43.9522 45.6809 42.8315 42.486 45.7408 40.8741C46.1516 40.6472 46.6118 40.5255 47.0815 40.4951C49.1217 40.3638 55.7948 39.8982 57.3593 39.3506C57.3593 39.3506 61.2316 38.5817 61.2723 43.8479C61.2723 43.8479 61.5375 46.7151 58.6557 49.5722C57.5289 50.6897 56.0368 51.3655 54.4559 51.4966C54.4222 51.4986 54.3886 51.5019 54.355 51.5053C50.3461 51.8135 46.4714 49.8633 44.3644 46.4388C44.2015 46.1741 44.0608 45.919 43.9536 45.6808L43.9522 45.6809Z" fill="#EBE3F6"/>
<path d="M43.8633 45.7169C43.3935 44.3032 43.5639 42.6126 44.6224 41.5045C45.1493 40.956 45.8053 40.512 46.5559 40.3434C46.8698 40.2586 47.3378 40.2472 47.6626 40.2105L48.7415 40.1103C51.3318 39.8466 53.9342 39.6254 56.4948 39.1555C56.7512 39.1052 57.0396 39.0247 57.28 38.9551C57.9316 38.8491 58.584 38.9159 59.2039 39.1414C61.0974 39.8186 61.6954 42.0312 61.6594 43.8476C61.6756 44.2128 61.6133 44.9432 61.4832 45.4156C60.8852 47.8259 59.0086 50.2494 56.6865 51.1903C55.7349 51.5923 54.7042 51.7302 53.6783 51.7205C50.7575 51.72 47.9089 50.5143 45.8747 48.4378C45.0777 47.6378 44.3692 46.7353 43.8635 45.7196L43.8633 45.7169ZM44.0428 45.6455C45.7177 49.2563 49.7415 51.5112 53.6739 51.3493C54.6407 51.3179 55.6144 51.1536 56.4937 50.7383C58.5068 49.8278 60.1006 47.6939 60.6736 45.5931C60.8211 45.0251 60.9215 44.437 60.8856 43.8514C60.8628 42.3438 60.4859 40.491 58.9155 39.9082C58.5645 39.7749 58.1772 39.7127 57.798 39.7202C57.6885 39.7186 57.5368 39.7356 57.439 39.7495L57.4949 39.734C56.7466 39.9647 56.0394 40.0456 55.2876 40.1481C52.771 40.4493 50.2258 40.5847 47.6972 40.7042C47.4105 40.7225 46.9281 40.7199 46.6479 40.7797C45.9766 40.8963 45.363 41.2797 44.8787 41.7501C43.859 42.737 43.6651 44.3277 44.0442 45.6454L44.0428 45.6455Z" fill="black"/>
<path d="M38.6365 45.5054C38.6365 45.5054 39.3736 42.2007 36.2948 40.9424C35.8602 40.7654 35.3888 40.6987 34.9188 40.7237C32.8773 40.8335 26.1958 41.1563 24.5778 40.7966C24.5778 40.7966 20.6419 40.4886 21.2211 45.723C21.2211 45.723 21.2951 48.6015 24.493 51.0997C25.7436 52.0768 27.3048 52.5723 28.8901 52.5166C28.9238 52.5146 28.9575 52.5139 28.9913 52.5133C33.0086 52.3477 36.627 49.9551 38.3164 46.3065C38.447 46.0245 38.5567 45.7546 38.6352 45.5055L38.6365 45.5054Z" fill="#EBE3F6"/>
<path d="M38.5659 45.4869C38.7867 44.1243 38.4027 42.5623 37.2643 41.7001C36.724 41.2902 36.0693 40.9776 35.3863 40.9423C35.0986 40.9201 34.6303 40.9734 34.3342 40.9922C31.4415 41.1914 28.5334 41.4279 25.6306 41.3426C25.4913 41.34 25.2092 41.3202 25.0707 41.3081C24.8864 41.2987 24.6814 41.2595 24.4851 41.2292L24.5465 41.2391C24.057 41.2315 23.5534 41.3504 23.1237 41.5784C21.4547 42.4821 21.5056 44.7176 21.7956 46.358C22.3532 48.7325 24.4718 51.1404 26.8164 51.8855C27.7219 52.19 28.692 52.2381 29.6399 52.1619C33.5307 51.8903 37.2589 49.2061 38.5674 45.4908L38.5659 45.4869ZM38.7059 45.5245C38.0182 47.4226 36.8345 49.1339 35.2529 50.3985C32.3324 52.7351 27.7336 53.8982 24.4632 51.5894C22.7678 50.3777 21.3676 48.6272 20.8758 46.5663C20.626 45.3099 20.5549 43.878 21.065 42.5645C21.6192 41.1269 23.1002 40.2654 24.6187 40.3567C24.9478 40.417 25.3359 40.4697 25.6789 40.49C28.1872 40.6432 30.7096 40.5794 33.2257 40.5443L34.309 40.5196C34.6263 40.517 35.1024 40.4808 35.4211 40.5242C36.1836 40.6034 36.8857 40.9632 37.4696 41.4475C38.6429 42.4211 39.0053 44.0749 38.7045 45.5246L38.7059 45.5245Z" fill="black"/>
</g>
</g>
<defs>
<clipPath id="clip0_1260_164">
<rect y="0.522217" width="76" height="76" rx="38" fill="white"/>
</clipPath>
<clipPath id="clip1_1260_164">
<rect width="43.5738" height="21.1254" fill="white" transform="translate(18.7939 36.2937) rotate(-3.37862)"/>
</clipPath>
</defs>
</svg>