<svg xmlns="http://www.w3.org/2000/svg" fill="none" viewBox="-8.74 -10.68 96.38 97.01">
<g clip-path="url(#clip0_1260_350)">
<rect y="0.522217" width="76" height="76" rx="38" fill="#FAFBFB"/>
<path d="M56.1236 34.6713C50.3338 32.3542 36.441 27.8823 17.9337 29.1666C17.9337 29.1666 3.01818 28.4998 2.17809 26.5905C1.338 24.6812 0.324937 56.1107 62.0386 47.7171C62.0386 47.7171 76.2935 45.0664 76.8359 36.1221C76.8359 36.1221 71.6753 37.1244 64.8936 36.6928C61.882 36.502 58.9286 35.7944 56.1236 34.6713Z" fill="white"/>
<path d="M56.0238 34.9262C46.9618 31.4892 37.2856 29.8471 27.6281 29.637C24.3778 29.5748 21.1324 29.7226 17.8985 29.9481C15.6554 29.8638 13.4341 29.7317 11.1991 29.5435C9.10399 29.2826 2.23806 28.9772 1.32939 27.0362C1.32528 27.0258 1.29731 26.9669 1.30964 26.9982C1.32959 27.0398 1.31848 27.0298 1.3872 27.1254C1.76165 27.6516 2.67786 27.5744 2.93664 26.9383C3.10573 31.9831 6.78495 37.0243 10.8914 40.0752C23.0886 48.9324 40.8539 48.7983 55.3094 47.7464C57.7765 47.507 60.2569 47.3773 62.6807 46.9337C66.6199 46.0164 70.6667 44.5827 73.7048 41.7952C75.2925 40.3117 76.4794 38.3322 76.6616 36.1108C76.6614 36.1073 76.869 36.2978 76.8688 36.2943C73.3921 36.8804 69.8742 37.0555 66.3555 36.9705C62.8246 36.9182 59.3101 36.2304 56.0236 34.9227L56.0238 34.9262ZM56.2232 34.4186C59.4474 35.7443 62.8933 36.4613 66.3739 36.5558C69.8534 36.6932 73.3725 36.5394 76.8069 35.9487L77.0331 35.9099C76.991 37.1388 76.7416 38.3697 76.1978 39.4901C74.6745 42.6523 71.594 44.7009 68.5602 46.1513C66.7602 46.9953 64.8874 47.6727 62.9654 48.1641C60.4876 48.7072 57.9488 48.9225 55.4516 49.2493C42.1938 50.5989 28.0586 50.8612 15.5752 45.2941C9.31087 42.421 3.53158 37.4007 1.54193 30.5062C1.2162 29.2962 0.950817 28.0967 1.02864 26.8157C1.061 26.5214 1.09458 26.2484 1.29253 25.9619C1.61298 25.4825 2.3467 25.4093 2.73591 25.7634C2.91252 25.9024 3.00835 26.1033 3.04783 26.1793C3.03591 26.1551 3.01657 26.1242 2.99784 26.104C2.99784 26.104 3.00134 26.1037 3.00155 26.1073C3.04291 26.1547 3.24302 26.2744 3.4481 26.3581C5.94209 27.265 8.68521 27.49 11.3646 27.8294C13.5567 28.0666 15.7704 28.249 17.9706 28.3823C20.7698 28.2367 24.5484 28.1954 27.6742 28.3544C37.4234 28.8762 47.1537 30.7289 56.2267 34.4184L56.2232 34.4186Z" fill="black"/>
<path d="M23.027 65.7421C26.0017 63.8632 25.4112 59.3212 22.0614 58.245C12.7788 55.2794 -1.40319 51.4908 -4.75332 54.7997C-4.75332 54.7997 -9.96678 59.1019 -7.83706 68.3583C-7.07249 71.6742 -4.25664 74.2176 -1.06046 74.4541C1.44882 74.6347 4.67505 74.0895 9.37524 72.4195C14.0754 70.7495 18.7286 68.4612 23.0242 65.7402L23.027 65.7421Z" fill="white"/>
<path d="M22.5882 65.3215C23.7597 64.5515 24.4746 63.2551 24.2729 61.8168C24.1174 60.4967 23.1911 59.3367 21.935 58.9466C19.0281 58.0309 16.057 57.1443 13.0964 56.351C8.67117 55.219 4.1672 54.102 -0.390544 54.0858C-2.50933 54.1316 -4.14821 54.4457 -5.42211 56.2624C-8.23553 59.9117 -8.54545 65.097 -7.12258 69.4234C-6.18768 71.7604 -4.07908 73.6442 -1.6048 74.0461C0.927493 74.3614 3.4839 73.8255 5.93518 73.1263C11.5494 71.5718 18.6842 67.8808 22.5891 65.3262L22.5882 65.3215ZM23.4607 66.1574C17.9346 69.7182 5.44325 75.63 -1.7099 74.7223C-4.41869 74.2597 -6.74752 72.2638 -7.79723 69.6995C-8.85966 66.6228 -9.03357 63.2467 -8.2673 60.0739C-7.77857 58.2272 -6.92866 56.4514 -5.67433 55.0142C-4.98778 54.1527 -3.92454 53.508 -2.82931 53.2745C3.60895 51.8671 15.901 55.5413 22.3671 57.6132C26.0563 58.823 26.7421 64.0864 23.4551 66.1536L23.4607 66.1574Z" fill="#221F1F"/>
<path d="M55.9885 60.9634C52.924 59.2093 53.2838 54.6453 56.5744 53.4342C65.6946 50.0878 79.6647 45.7135 83.1776 48.8816C83.1776 48.8816 88.6021 52.9654 86.9424 62.301C86.3451 65.6459 83.6619 68.3058 80.4822 68.673C77.986 68.9605 74.7378 68.5483 69.9582 67.074C65.1786 65.5997 60.4177 63.5039 55.9891 60.9681L55.9865 60.966L55.9885 60.9634Z" fill="white"/>
<path d="M55.6962 61.2725C54.2305 60.4411 53.3303 58.7162 53.4555 57.0168C53.5345 55.2727 54.6961 53.6289 56.313 53.0331C59.2244 51.9393 62.1348 50.9472 65.0937 50.0358C69.4314 48.816 79.8068 45.5982 83.4299 48.5367C87.6152 52.2311 88.4333 58.4984 86.9709 63.6466C86.2293 65.7216 84.6889 67.5043 82.6936 68.4059C79.7424 69.6863 76.2863 68.9748 73.2669 68.3489C67.2399 66.9143 60.7284 64.2082 55.6941 61.2751L55.6962 61.2725ZM56.279 60.6571C60.7331 63.2427 67.6183 66.3353 73.4196 67.6616C78.6172 68.8781 83.9715 69.3464 86.2725 63.3945C87.4754 59.0081 86.9355 53.8337 83.9659 50.2754C82.6082 48.4869 80.9104 48.2082 78.7822 48.2373C74.2108 48.3946 69.7536 49.7001 65.3726 50.9883C62.4412 51.8744 59.5141 52.8663 56.6498 53.9201C55.3422 54.3908 54.4188 55.6746 54.3385 57.0803C54.216 58.5641 55.0211 59.9243 56.2763 60.655L56.279 60.6571Z" fill="#221F1F"/>
<path d="M19.9851 73.8449L17.1582 43.6805C17.1382 43.4804 17.1148 43.2803 17.0882 43.0802C16.8115 40.9741 15.3281 24.2096 37.613 22.0119C37.613 22.0119 58.3945 20.3501 59.8379 39.7328L61.1413 70.5416C61.2513 71.9728 61.0713 73.3498 60.6513 74.6385C59.9412 76.8125 58.5545 78.6575 56.8143 80.1939C55.9209 80.9807 54.9475 81.6591 53.9275 82.256C50.7306 84.1281 47.117 85.193 43.4201 85.4881L40.2198 85.7425C37.713 85.9426 35.1895 85.7798 32.7426 85.227C31.0892 84.8539 29.5524 84.4537 28.099 83.8262C25.0187 82.5002 22.5019 80.5466 21.1085 77.8063C20.4951 76.6023 20.1017 75.2694 19.9917 73.8415H19.9851V73.8449Z" fill="white"/>
<path d="M19.8251 74.1401C18.6484 64.3182 17.2583 52.7734 16.2782 42.9956C15.3148 32.9261 20.9686 25.407 30.3392 22.592C32.6261 21.8594 35.0229 21.483 37.3897 21.2117C40.7833 20.9946 44.1602 21.4762 47.4104 22.4801C55.5977 25.078 60.228 31.5084 60.628 40.167C60.9814 48.3644 61.4148 60.4993 61.7415 68.7306C61.8281 70.6672 61.9881 72.7598 61.3381 74.6353C59.4513 80.4382 53.6976 83.7789 48.2038 85.2644C45.5436 86.0241 42.4834 86.0987 39.7432 86.3124C33.5761 86.5905 25.3989 84.7285 21.6119 79.3699C20.4852 77.7623 19.7951 75.8393 19.6651 73.8722L20.1452 74.1503C20.0652 74.2012 19.9085 74.1978 19.8285 74.1469L19.8251 74.1401ZM20.1485 73.5466C20.0752 73.4923 19.9218 73.4889 19.8451 73.5364L20.3252 73.8145C21.0686 81.8762 30.0625 84.9422 36.923 85.2814C38.5265 85.4374 40.8466 85.1152 42.4668 85.0134C49.2039 84.6234 57.8178 81.2793 60.0947 74.2419C60.678 72.5122 60.4847 70.6129 60.3947 68.812C60.0013 60.5706 59.4546 48.4695 59.0913 40.2586C58.7012 32.2613 54.5109 26.4075 46.9237 24.0233C43.9135 23.0974 40.6733 22.6463 37.5297 22.8498C35.2762 23.1177 32.9627 23.4874 30.8126 24.1827C22.122 26.784 16.9183 33.8282 17.895 43.155C18.7584 52.5835 19.4918 64.0299 20.1452 73.5466H20.1485Z" fill="#221F1F"/>
<path d="M24.5957 26.4549C24.5957 26.4549 37.43 27.6657 49.6275 24.4539L24.5957 26.4549Z" fill="white"/>
<path d="M23.8486 26.5872C23.8486 26.5872 37.9863 27.764 50.1838 24.5522" stroke="#221F1F" stroke-width="0.676267" stroke-miterlimit="10"/>
<path d="M16.9277 40.4789C16.9277 40.4789 38.1659 33.7263 59.3941 37.2128L16.9277 40.4789Z" fill="white"/>
<path d="M16.8281 40.1534C19.3316 39.0477 21.9818 38.5322 24.6187 37.9319C28.9957 37.006 33.496 36.3108 37.9463 35.9106C42.3566 35.5036 47.0069 35.4459 51.4339 35.6867C52.2873 35.7613 54.6408 35.958 55.4742 36.0361C56.8143 36.2362 58.1477 36.4837 59.4478 36.8772L59.3412 37.5453C57.571 37.6097 55.7742 37.3214 54.0141 37.2129C45.1835 36.477 36.2062 37.1451 27.4822 38.6374C25.9688 38.9189 23.7386 39.3428 22.2485 39.6921C20.5151 40.0889 18.7849 40.5095 17.0281 40.8046L16.8281 40.1568V40.1534Z" fill="#221F1F"/>
<path d="M18.9307 61.2149C22.7209 59.8209 37.3186 55.5815 61.5537 57.2739L18.9307 61.2149Z" fill="white"/>
<path d="M18.8193 60.896C25.4398 58.427 32.4936 57.3824 39.4941 56.7855C43.0011 56.5243 46.518 56.3921 50.0316 56.4158C53.5418 56.4328 57.0687 56.4463 60.5423 57.1145L60.4956 57.7928C56.9921 58.0404 53.5218 57.6876 50.0249 57.708C43.0611 57.6537 36.0772 58.0471 29.1967 59.1528C25.7632 59.7158 22.3429 60.4416 19.046 61.537L18.8193 60.8994V60.896Z" fill="#221F1F"/>
<path d="M52.0669 57.2603C52.3836 49.7243 51.7569 36.6397 51.7569 36.6397C51.7569 36.6397 33.9689 35.2593 24.6416 39.1054C24.6416 39.1054 25.545 52.1764 27.4318 59.2986" stroke="#221F1F" stroke-width="0.676267" stroke-miterlimit="10"/>
<path d="M24.7659 38.9291C24.5325 41.3676 26.5294 55.4696 27.4127 58.7764C33.7565 57.162 46.2508 56.5244 51.9178 56.5821C52.2912 52.4444 51.7111 41.934 51.4378 36.9789L51.4245 36.7653C40.907 35.3374 29.3596 37.7149 24.7659 38.9291Z" fill="#5BC2C7"/>
<path d="M38.303 48.673L38.1797 44.8846C38.1797 44.7625 38.303 44.6811 38.4097 44.7354L42.0166 46.6313C42.13 46.6889 42.13 46.8551 42.0166 46.9162L38.533 48.8086C38.4297 48.8629 38.3064 48.7917 38.2997 48.673H38.303Z" fill="white" stroke="black" stroke-width="0.162304"/>
<g clip-path="url(#clip1_1260_350)">
<path d="M-0.704102 25.7654C-0.704102 25.7654 4.77559 33.6564 28.8467 35.3104C28.8467 35.3104 37.9066 35.0393 52.0057 45.0095C52.0057 45.0095 59.904 48.8471 67.5796 45.9265" stroke="black" stroke-width="0.355675" stroke-miterlimit="10"/>
<path d="M23.9367 27.1412C23.9367 27.1412 30.5794 2.9468 35.0808 -0.525739C35.0808 -0.525739 42.5903 -7.2885 46.4238 -6.92147C46.4238 -6.92147 51.7004 -7.14819 54.8376 -6.27857C54.8376 -6.27857 64.6658 -9.56642 67.4366 -2.38867C67.4366 -2.38867 65.1681 -5.45216 59.3961 -3.07715C59.3961 -3.07715 58.2978 -5.86596 53.2006 -1.06798C53.2006 -1.06798 50.2358 -3.62888 48.8213 0.30186C48.8213 0.30186 46.5312 0.163926 47.5074 5.05545C47.5074 5.05545 53.3541 22.5304 55.3907 31.1424C55.3907 31.1424 38.8998 26.5627 23.9367 27.1412Z" fill="#CABFF7"/>
<path d="M23.7878 27.2636C23.7521 27.1886 23.7527 27.0382 23.7884 26.9587C23.7983 26.9157 23.871 26.673 23.8831 26.6172C24.5194 24.3808 25.2162 22.02 25.9124 19.8096C27.6353 14.5885 31.3043 2.5616 34.9574 -0.690454C37.7926 -3.07015 42.7621 -7.23872 46.4356 -7.12773C49.1374 -7.18622 52.1211 -7.17055 54.8802 -6.48026C58.7607 -7.77667 65.5658 -7.9896 67.6115 -2.46871L68.0789 -1.33992L67.2956 -2.26312C65.7946 -3.91293 63.408 -3.97227 61.4685 -3.53502L60.461 -3.25333L59.471 -2.89027L59.3118 -2.82907C58.7505 -4.16771 57.1583 -3.6476 56.2263 -3.12041C55.1365 -2.51968 54.1574 -1.69446 53.2414 -0.818483L53.0935 -0.913158C51.3679 -1.95096 50.0298 -1.49111 49.5527 0.621533L48.8061 1.14696C47.5835 1.40481 48.0884 4.17421 48.1508 4.80963C50.823 13.5068 53.5287 22.1999 55.5841 31.0893C55.5841 31.0893 55.6621 31.418 55.6626 31.4221L55.3574 31.3425C46.9885 29.1742 38.4397 27.7669 29.8814 27.3672C27.8818 27.2814 25.7923 27.3278 23.799 27.2622L23.7878 27.2636ZM24.0832 27.0145C29.2531 26.6589 34.596 27.1924 39.769 27.8552C45.0289 28.5783 50.2585 29.5808 55.4296 30.9411C55.4296 30.9411 55.2029 31.1943 55.2056 31.1856C54.6416 28.9871 53.9901 26.816 53.3236 24.6468C51.314 18.1486 49.1212 11.702 46.8727 5.29556C46.3477 3.23011 46.1919 -0.4045 48.8453 -0.548941L48.0982 -0.0276279C49.1837 -2.49433 51.3619 -3.14862 53.3127 -1.22804C53.3127 -1.22804 53.0633 -1.22264 53.0777 -1.22858C54.4975 -2.50848 58.0178 -5.66915 59.5673 -3.15673L59.3257 -3.27338L60.3371 -3.64741C62.6967 -4.39901 65.6544 -4.62654 67.5788 -2.51901L67.2592 -2.31296C67.0174 -2.89724 66.7365 -3.46005 66.372 -3.96255C63.5688 -7.62049 58.579 -7.12396 54.8398 -6.06612C52.0877 -6.76144 49.2068 -6.77296 46.4064 -6.71497C42.8542 -6.79483 37.9602 -2.68977 35.198 -0.364901C33.4499 1.20561 32.4276 3.63119 31.399 5.81952C30.3885 8.09334 29.4963 10.4362 28.6518 12.7983C27.0276 17.3685 25.5729 22.0558 24.2397 26.7449L24.1767 26.9739L24.145 27.0863L24.1373 27.1165C24.1324 27.138 24.1351 27.1293 24.1373 27.1165C24.1408 27.0827 24.1156 27.0315 24.0832 27.0145Z" fill="black"/>
<path d="M21.2381 27.3114L23.2597 21.6195C23.2597 21.6195 42.6653 18.1727 57.059 24.349L58.7387 32.3031C58.7387 32.3031 38.2046 25.0811 21.2381 27.3114Z" fill="white"/>
<path d="M21.0908 27.438C21.7395 25.4589 22.411 23.4186 23.1232 21.4317C25.9646 20.8718 28.8412 20.5999 31.7243 20.4441C40.2492 20.1047 49.0244 20.7285 57.1229 24.1575L57.218 24.1918L57.2433 24.3057L58.923 32.2598L58.995 32.6017L58.6868 32.4974C52.6169 30.4784 46.3889 29.0258 40.1291 28.0572C36.0444 27.4328 31.8524 27.1095 27.7392 27.0898C25.5576 27.1265 23.2843 27.3122 21.094 27.4335L21.0908 27.438ZM21.3862 27.189C22.916 26.9646 24.3104 26.7485 25.9462 26.7408C26.6337 26.7237 27.6417 26.6632 28.3192 26.6891C32.255 26.7138 36.2677 27.0589 40.17 27.6472C46.4574 28.6249 52.6892 30.0771 58.7941 32.1043L58.5579 32.3419L56.8782 24.3878C56.8782 24.3878 56.9991 24.5401 56.9948 24.5364C48.9098 21.3104 40.2252 20.6839 31.7649 21.0864C28.9314 21.2152 26.1014 21.4647 23.2951 21.8157L23.4351 21.6901C22.7853 23.5357 22.098 25.3233 21.3847 27.1767L21.3862 27.189Z" fill="black"/>
<path d="M-0.705078 25.7654C-0.705078 25.7654 6.63146 33.8764 31.6893 35.6062C31.6893 35.6062 40.4469 37.2344 52.0047 45.0095C52.0047 45.0095 61.1215 52.6819 75.8839 41.0583C75.8839 41.0583 79.6729 35.7853 80.0177 32.4027C80.0177 32.4027 68.8718 35.0455 58.7393 32.3034C58.7393 32.3034 44.3666 25.895 19.739 27.4406C19.739 27.4406 0.0246339 28.3904 -0.705078 25.7654Z" fill="#CABFF7" stroke="black" stroke-width="0.355675" stroke-miterlimit="10"/>
</g>
</g>
<defs>
<clipPath id="clip0_1260_350">
<rect y="0.522217" width="76" height="76" rx="38" fill="white"/>
</clipPath>
<clipPath id="clip1_1260_350">
<rect width="80.8726" height="57.2943" fill="white" transform="translate(-5.26855 -0.873535) rotate(-6.9615)"/>
</clipPath>
</defs>
</svg>