<svg xmlns="http://www.w3.org/2000/svg" fill="none" viewBox="-13.36 0.52 97.48 91.18">
<g clip-path="url(#clip0_1260_797)">
<rect y="0.522217" width="76" height="76" rx="38" fill="#FAFBFB"/>
<path d="M53.8579 62.5629C52.2097 59.4275 54.9553 55.7722 58.3809 56.5288C67.8697 58.6344 82.0023 62.4938 83.2725 67.0642C83.2725 67.0642 85.6663 73.44 79.2705 80.4175C76.9767 82.9162 73.2886 83.7099 70.4082 82.3013C68.1474 81.195 65.6261 79.0921 62.3804 75.2659C59.1347 71.4396 56.2374 67.0992 53.8559 62.5673L53.8548 62.5641L53.8579 62.5629Z" fill="white"/>
<path d="M53.4465 62.6655C52.6541 61.1723 52.8172 59.2309 53.8321 57.8652C54.8318 56.4368 56.6918 55.678 58.3753 56.0492C61.418 56.6998 64.4054 57.4356 67.3907 58.2658C71.7046 59.5808 82.1839 62.4731 83.67 66.9094C85.2261 72.287 82.5635 78.0153 78.5747 81.5674C76.8385 82.9168 74.5845 83.5881 72.418 83.2704C69.2419 82.7557 66.7054 80.2881 64.4916 78.1286C60.1718 73.6618 56.1234 67.8608 53.4433 62.6666L53.4465 62.6655ZM54.2676 62.4613C56.6439 67.049 60.801 73.3779 64.9882 77.6314C68.7245 81.4661 72.9934 84.7542 78.1201 80.9774C81.4823 77.9276 83.7949 73.2714 83.1921 68.6655C83.003 66.4233 81.719 65.2709 79.9071 64.1454C75.9643 61.8079 71.5036 60.5006 67.1164 59.2199C64.168 58.3832 61.1666 57.6382 58.1851 56.9793C56.8295 56.6698 55.3633 57.2536 54.5433 58.3959C53.6461 59.5813 53.5979 61.1636 54.2665 62.4581L54.2676 62.4613Z" fill="#221F1F"/>
<mask id="mask0_1260_797" style="mask-type:luminance" maskUnits="userSpaceOnUse" x="-14" y="51" width="40" height="41">
<path d="M10.4339 51.4877L-13.3555 76.4294L2.11998 91.6979L25.9093 66.7561L10.4339 51.4877Z" fill="white"/>
</mask>
<g mask="url(#mask0_1260_797)">
<path d="M22.5282 65.8519C23.4104 62.4003 19.9037 59.5653 16.7466 61.1661C8.00906 65.6136 -4.83693 72.9404 -5.02193 77.6819C-5.02193 77.6819 -5.88403 84.454 1.93383 89.5758C4.73561 91.4094 8.50034 91.2375 10.9769 89.1441C12.9179 87.497 14.8864 84.8225 17.1608 80.299C19.4351 75.7754 21.2562 70.8424 22.5249 65.8525L22.5282 65.8519Z" fill="white"/>
<path d="M21.9238 65.8613C22.2509 64.4804 21.8902 63.0458 20.7691 62.1586C19.7616 61.3232 18.3039 61.1482 17.1292 61.7579C14.4018 63.1601 11.6477 64.6285 8.96427 66.1563C4.98994 68.4784 0.968613 70.8669 -2.34545 74.082C-3.84987 75.6148 -4.82471 77 -4.51651 79.203C-4.08179 83.8084 -0.791584 87.7415 3.17224 89.8328C5.43391 90.8447 8.23896 90.7011 10.3046 89.2373C12.3535 87.6704 13.8429 85.4767 15.1455 83.2406C18.1605 78.1527 20.8293 70.4581 21.9277 65.864L21.9238 65.8613ZM23.1227 65.8423C21.5315 72.3047 16.4861 85.3821 10.6868 89.796C8.41009 91.3824 5.36939 91.6016 2.87048 90.5082C0.0149718 89.0568 -2.39954 86.7619 -3.99489 83.947C-4.89246 82.2784 -5.48019 80.4049 -5.54535 78.4876C-5.63181 77.3845 -5.29826 76.1701 -4.66277 75.2275C-0.950816 69.6616 10.448 63.5909 16.5385 60.4971C20.0322 58.7518 24.097 62.036 23.1161 65.8435L23.1227 65.8423Z" fill="#221F1F"/>
</g>
<path d="M20.0417 76.892L17.2148 46.7276C17.1948 46.5275 17.1715 46.3274 17.1448 46.1273C16.8681 44.0212 15.3847 27.2568 37.6696 25.059C37.6696 25.059 58.4511 23.3972 59.8945 42.7799L61.198 73.5887C61.308 75.0199 61.1279 76.3969 60.7079 77.6857C59.9979 79.8596 58.6111 81.7046 56.871 83.241C55.9776 84.0279 55.0042 84.7062 53.9841 85.3031C50.7872 87.1752 47.1736 88.2402 43.4767 88.5352L40.2765 88.7896C37.7696 88.9897 35.2461 88.8269 32.7993 88.2741C31.1458 87.901 29.609 87.5008 28.1556 86.8734C25.0754 85.5473 22.5585 83.5937 21.1651 80.8534C20.5517 79.6494 20.1584 78.3165 20.0484 76.8886H20.0417V76.892Z" fill="white"/>
<path d="M19.8808 77.187C18.7041 67.3651 17.314 55.8203 16.3339 46.0424C15.3705 35.9729 21.0242 28.4539 30.3949 25.6389C32.6817 24.9063 35.0786 24.5299 37.4454 24.2585C40.839 24.0415 44.2159 24.5231 47.4661 25.527C55.6534 28.1249 60.2837 34.5553 60.6837 43.2139C61.0371 51.4113 61.4704 63.5462 61.7971 71.7775C61.8838 73.7141 62.0438 75.8066 61.3938 77.6822C59.507 83.4851 53.7532 86.8258 48.2595 88.3113C45.5993 89.071 42.5391 89.1456 39.7989 89.3593C33.6318 89.6374 25.4545 87.7754 21.6676 82.4168C20.5408 80.8092 19.8508 78.8862 19.7208 76.9191L20.2008 77.1972C20.1208 77.2481 19.9641 77.2447 19.8841 77.1938L19.8808 77.187ZM20.2042 76.5935C20.1308 76.5392 19.9775 76.5358 19.9008 76.5833L20.3808 76.8614C21.1242 84.9231 30.1182 87.9891 36.9787 88.3282C38.5821 88.4842 40.9023 88.162 42.5224 88.0603C49.2596 87.6703 57.8735 84.3262 60.1503 77.2888C60.7337 75.5591 60.5404 73.6598 60.4504 71.8589C60.057 63.6174 59.5103 51.5164 59.1469 43.3055C58.7569 35.3082 54.5666 29.4544 46.9794 27.0701C43.9692 26.1442 40.729 25.6932 37.5854 25.8967C35.3319 26.1646 33.0184 26.5343 30.8683 27.2295C22.1776 29.8308 16.9739 36.8751 17.9507 46.2018C18.8141 55.6303 19.5474 67.0768 20.2008 76.5935H20.2042Z" fill="#221F1F"/>
<path d="M37.1209 24.4362C37.6367 24.3938 37.9076 23.7974 37.608 23.3733C34.7579 19.3313 23.1439 4.52017 12.5589 14.8307C1.77333 25.3347 22.3441 18.4672 29.3886 18.7906C31.5587 18.8913 33.6299 19.8137 35.0914 21.4491C35.7193 22.1541 36.2377 22.9811 36.4253 23.9087C36.493 24.2401 36.7926 24.4653 37.1235 24.4415V24.4362H37.1209Z" fill="white"/>
<path d="M36.8603 24.4469C36.8733 24.3885 36.9332 24.2587 37.0426 24.2057C37.139 24.1553 37.1807 24.1685 37.2563 24.1261C37.4907 23.9963 37.535 23.6782 37.3527 23.4794L37.2745 23.3707C35.9172 21.4942 34.4166 19.7157 32.7831 18.0829C27.8749 13.0867 20.7548 8.89624 14.3434 13.7891C12.749 15.0375 11.1181 16.5987 10.1177 18.3745C9.90412 18.8277 9.70872 19.3366 10.0318 19.7289C10.2845 19.9834 10.6284 20.0947 11.0191 20.1822C12.0274 20.3809 13.0695 20.3359 14.1011 20.2696C18.3216 19.9436 22.5212 18.9762 26.7572 18.5627C28.1953 18.4302 29.6803 18.348 31.1001 18.7138C33.5621 19.3419 35.9745 21.147 36.6571 23.7286L36.6857 23.8637C36.7222 24.0546 36.9098 24.1924 37.0999 24.1791C37.0999 24.1738 36.8498 24.4601 36.8577 24.4389L37.1156 24.704C37.0739 24.704 36.9957 24.6907 36.9358 24.6271C36.8733 24.5661 36.8577 24.4893 36.8577 24.4495L36.8603 24.4469ZM37.3813 24.4256C37.3813 24.3859 37.3657 24.309 37.3058 24.2481C37.2432 24.1871 37.1677 24.1712 37.1286 24.1712C37.1286 24.1765 37.3943 24.4336 37.3865 24.4415V24.696L37.1442 24.7066C36.7691 24.7384 36.3861 24.5158 36.2324 24.1632C35.6488 21.6638 33.325 19.9277 30.9543 19.3446C29.6256 19.0106 28.2266 19.0981 26.825 19.2333C22.5785 19.6733 18.4388 20.6566 14.1584 21.0091C12.1602 21.1841 7.89029 21.2768 9.46904 18.0405C9.82075 17.3435 10.2845 16.7656 10.7586 16.2064C11.7278 15.1038 12.7542 14.0754 13.9318 13.2086C17.6859 10.3408 22.2372 10.2931 26.3456 12.4055C31.009 14.8096 34.6589 18.8118 37.7148 23.05L37.7929 23.1613L37.832 23.217C38.215 23.7365 37.9102 24.5555 37.2823 24.6801C37.2693 24.6854 37.3162 24.6695 37.337 24.6483C37.3995 24.6006 37.4178 24.4787 37.3865 24.4256H37.3813Z" fill="#221F1F"/>
<path d="M24.6514 29.5017C24.6514 29.5017 37.4856 30.7125 49.6832 27.5007L24.6514 29.5017Z" fill="white"/>
<path d="M23.9033 29.634C23.9033 29.634 38.041 30.8109 50.2385 27.5991" stroke="#221F1F" stroke-width="0.696928" stroke-miterlimit="10"/>
<path d="M16.9834 43.5258C16.9834 43.5258 38.2216 36.7732 59.4498 40.2597L16.9834 43.5258Z" fill="white"/>
<path d="M16.8828 43.2003C19.3863 42.0946 22.0365 41.5791 24.6734 40.9788C29.0503 40.0529 33.5507 39.3576 38.001 38.9574C42.4113 38.5505 47.0616 38.4928 51.4886 38.7336C52.342 38.8082 54.6955 39.0049 55.5289 39.0829C56.869 39.283 58.2024 39.5306 59.5025 39.924L59.3958 40.5922C57.6257 40.6566 55.8289 40.3683 54.0688 40.2598C45.2382 39.5238 36.2609 40.192 27.5369 41.6842C26.0235 41.9657 23.7933 42.3897 22.3032 42.739C20.5697 43.1358 18.8396 43.5564 17.0828 43.8514L16.8828 43.2037V43.2003Z" fill="#221F1F"/>
<path d="M18.9863 64.2617C22.7766 62.8678 37.3743 58.6284 61.6094 60.3208L18.9863 64.2617Z" fill="white"/>
<path d="M18.874 63.9429C25.4945 61.4739 32.5483 60.4293 39.5488 59.8324C43.0557 59.5712 46.5727 59.4389 50.0862 59.4627C53.5965 59.4796 57.1234 59.4932 60.597 60.1613L60.5503 60.8396C57.0467 61.0872 53.5765 60.7345 50.0796 60.7549C43.1157 60.7006 36.1319 61.094 29.2514 62.1997C25.8179 62.7627 22.3976 63.4884 19.1007 64.5839L18.874 63.9463V63.9429Z" fill="#221F1F"/>
<path d="M52.1235 60.3072C52.4402 52.7712 51.8135 39.6866 51.8135 39.6866C51.8135 39.6866 34.0256 38.3062 24.6982 42.1522C24.6982 42.1522 25.6016 55.2233 27.4884 62.3455" stroke="#221F1F" stroke-width="0.696928" stroke-miterlimit="10"/>
<path d="M24.8206 41.9759C24.5872 44.4145 26.584 58.5165 27.4674 61.8233C33.8112 60.2089 46.3054 59.5713 51.9725 59.6289C52.3459 55.4913 51.7658 44.9809 51.4925 40.0258L51.4791 39.8121C40.9617 38.3843 29.4142 40.7618 24.8206 41.9759Z" fill="#5BC2C7"/>
<path d="M38.3587 51.7199L38.2354 47.9315C38.2354 47.8094 38.3587 47.728 38.4654 47.7823L42.0723 49.6781C42.1856 49.7358 42.1856 49.902 42.0723 49.963L38.5887 51.8555C38.4854 51.9098 38.362 51.8386 38.3554 51.7199H38.3587Z" fill="white" stroke="black" stroke-width="0.167263"/>
<g clip-path="url(#clip1_1260_797)">
<path d="M2.81258 37.3777C2.81258 37.3777 2.85092 28.1109 18.4109 28.9475L52.9711 24.8431C52.9711 24.8431 70.8797 22.2762 74.145 34.9275C75.4003 39.7863 73.0184 44.8153 68.493 46.8199C63.9675 48.8244 56.1466 50.0393 43.0053 47.1971C43.0053 47.1971 26.3289 40.9501 12.2698 44.367C12.2698 44.367 3.15322 45.8738 2.80878 37.3777" fill="#D1B3A1"/>
<path d="M3.51048 37.3806C4.44258 30.4535 12.8207 29.4341 18.4332 29.8357C18.494 29.8282 30.9163 28.4471 30.9847 28.4358C37.8816 27.6072 45.8652 26.5127 52.7699 25.6339C60.3166 24.6419 70.6896 25.8818 73.4636 34.3339C74.488 37.2148 74.0984 40.5609 72.3759 43.0944C67.6002 50.5346 50.5093 49.0468 43.0938 46.7843C40.9567 45.8681 38.0748 45.1264 35.6137 44.5216C30.498 43.3189 25.2549 42.5944 19.9894 42.7155C17.351 42.7818 14.7152 43.1261 12.1164 43.6869L12.1658 43.6755C11.6834 43.743 11.1291 43.7677 10.6053 43.7617C6.58164 43.745 3.61796 41.6786 3.51441 37.3459L2.11726 37.4057C2.25978 43.3256 7.09698 45.8013 12.3992 45.051C19.9453 43.2868 27.8533 43.9566 35.3816 45.5747C37.9037 46.1142 40.4022 46.8466 42.8665 47.5904C44.4407 47.8517 46.0306 47.9973 47.6049 48.2625C54.9262 49.4358 68.1888 50.4791 73.0118 43.5411C74.9285 40.8539 75.4296 37.1724 74.3759 34.0327C71.6159 24.9551 60.6793 23.207 52.5788 24.1195C41.8316 25.245 29.079 26.6286 18.3077 28.0667C14.1179 27.8332 7.51452 28.3735 4.17266 32.3869C3.00154 33.7798 2.1934 35.5179 2.11361 37.371L3.51049 37.3767L3.51048 37.3806Z" fill="black"/>
<path d="M54.6386 36.133C54.6386 36.133 49.2136 15.1749 47.3236 13.2365C47.3236 13.2365 46.5512 11.8471 44.3029 11.1929C42.8167 10.7621 41.2693 11.3387 40.2093 12.4811C39.7708 12.9581 39.0403 13.3682 37.8329 13.425C36.7661 13.4746 35.7351 13.1151 34.8455 12.5168C34.0241 11.9613 32.4019 11.3638 29.5557 12.0779C24.7071 13.2935 20.9785 17.1933 19.6334 22.0877C19.0669 24.1434 18.7954 26.4744 19.2638 28.851" fill="#D1B3A1"/>
<path d="M54.8214 36.0834C53.2816 30.2504 51.6962 24.4327 49.822 18.6987C49.1615 16.8619 48.5332 14.5812 47.4839 13.1405C46.8363 11.8597 45.6211 11.0516 44.3249 10.5635C42.7518 10.028 40.9543 10.5264 39.7312 11.6295C38.8886 12.5141 37.4237 12.4347 36.3742 11.9516C35.6052 11.57 34.8564 10.895 34.0108 10.6869C32.9834 10.3622 31.9549 10.3116 30.9829 10.3848C24.334 10.9133 18.6235 16.7356 18.2577 23.4989C18.1172 25.3363 18.3447 27.2292 19.0705 28.881L19.4429 28.8053C19.4994 27.0603 19.7947 25.4321 20.2642 23.8702C21.5657 19.4081 24.6537 15.2894 29.0786 13.7439C30.8347 13.1642 32.609 12.7893 34.1204 13.564C36.1608 14.9084 39.3488 15.0567 41.0124 12.9863C41.5273 12.4015 42.2162 11.9487 42.9799 11.7858C44.4651 11.5487 46.1173 12.2313 47.1491 13.3283C48.2736 14.9276 48.7814 16.9839 49.4571 18.8208C51.3276 24.5393 52.9092 30.357 54.4491 36.1784L54.8177 36.0795L54.8214 36.0834Z" fill="black"/>
<path d="M17.9175 29.5003C25.177 28.3471 39.5037 37.3992 39.5037 37.3992C54.6252 49.2155 62.5739 49.0117 62.5739 49.0117" stroke="black" stroke-width="0.355675" stroke-miterlimit="10"/>
<path d="M41.1144 38.7333C49.8161 41.1247 56.3389 34.8965 56.3389 34.8965L53.7514 28.9897C53.7514 28.9897 44.8937 38.1968 33.0761 33.5801L41.1144 38.7333Z" fill="white"/>
<path d="M41.037 38.9106C45.0834 40.0278 49.4149 39.3739 53.0729 37.385C54.3218 36.7067 55.5057 35.9124 56.5707 34.9476L56.5133 34.8199L53.9258 28.9131L53.8112 28.6501C49.8021 32.514 44.1401 34.9 38.5362 34.4251C36.7197 34.267 34.9353 33.8156 33.2405 33.1405L29.3297 31.8733C31.5811 33.2263 38.6663 37.4876 41.0331 38.9067L41.037 38.9106ZM41.1928 38.556L33.329 33.1834L32.9051 34.0118C35.5861 35.0191 38.4857 35.4481 41.338 35.1703C46.0585 34.6763 50.5046 32.4243 53.8902 29.1215C53.8941 29.1215 53.5741 29.0661 53.5741 29.0623L56.1616 34.9691L56.205 34.753C53.6842 36.9667 50.4835 38.4477 47.1674 38.9398C46.1986 39.0478 45.1142 39.1051 44.1461 39.0393C43.1163 38.9578 42.1872 38.7802 41.1928 38.5483L41.1928 38.556Z" fill="black"/>
</g>
</g>
<defs>
<clipPath id="clip0_1260_797">
<rect y="0.522217" width="76" height="76" rx="38" fill="white"/>
</clipPath>
<clipPath id="clip1_1260_797">
<rect width="72.8059" height="38.7086" fill="white" transform="matrix(-0.999991 -0.00413777 -0.00413777 0.999991 75.0264 10.4819)"/>
</clipPath>
</defs>
</svg>