<svg xmlns="http://www.w3.org/2000/svg" fill="none" viewBox="0 0 32 32">
<rect width="32" height="32" rx="10" fill="#FFEEEE"/>
<path d="M13 17C13.5523 17 14 16.5523 14 16C14 15.4477 13.5523 15 13 15C12.4477 15 12 15.4477 12 16C12 16.5523 12.4477 17 13 17Z" stroke="black" stroke-width="2" stroke-linecap="round" stroke-linejoin="round"/>
<path d="M19 17C19.5523 17 20 16.5523 20 16C20 15.4477 19.5523 15 19 15C18.4477 15 18 15.4477 18 16C18 16.5523 18.4477 17 19 17Z" stroke="black" stroke-width="2" stroke-linecap="round" stroke-linejoin="round"/>
<path d="M12 24V26H20V24" stroke="black" stroke-width="2" stroke-linecap="round" stroke-linejoin="round"/>
<path d="M16.5 21L16 20L15.5 21H16.5Z" stroke="black" stroke-width="2" stroke-linecap="round" stroke-linejoin="round"/>
<path d="M20 24C20.3767 23.9998 20.7457 23.8932 21.0644 23.6924C21.3832 23.4917 21.6388 23.2051 21.8018 22.8655C21.9648 22.5259 22.0286 22.1471 21.9858 21.7729C21.943 21.3986 21.7954 21.0441 21.56 20.75C22.706 19.6423 23.495 18.2175 23.8258 16.6584C24.1566 15.0993 24.0142 13.4769 23.4168 11.9993C22.8194 10.5217 21.7942 9.25619 20.4728 8.36509C19.1513 7.474 17.5938 6.99792 16 6.99792C14.4062 6.99792 12.8487 7.474 11.5272 8.36509C10.2058 9.25619 9.18065 10.5217 8.58324 11.9993C7.98584 13.4769 7.84341 15.0993 8.17423 16.6584C8.50505 18.2175 9.29403 19.6423 10.44 20.75C10.2046 21.0441 10.057 21.3986 10.0142 21.7729C9.97141 22.1471 10.0352 22.5259 10.1982 22.8655C10.3612 23.2051 10.6168 23.4917 10.9356 23.6924C11.2543 23.8932 11.6233 23.9998 12 24" stroke="black" stroke-width="2" stroke-linecap="round" stroke-linejoin="round"/>
</svg>