<svg xmlns="http://www.w3.org/2000/svg" fill="none" viewBox="0 0 32 32">
<rect width="32" height="32" rx="10" fill="#FFEEEE"/>
<path d="M6 6L26 26" stroke="black" stroke-width="2" stroke-linecap="round" stroke-linejoin="round"/>
<path d="M14.41 14.41C14.2242 14.5958 14.0036 14.7432 13.7608 14.8437C13.518 14.9443 13.2578 14.9961 12.995 14.9961C12.7322 14.9961 12.472 14.9443 12.2292 14.8437C11.9864 14.7432 11.7658 14.5958 11.58 14.41C11.3942 14.2241 11.2468 14.0035 11.1462 13.7607C11.0457 13.518 10.9939 13.2577 10.9939 12.995C10.9939 12.7322 11.0457 12.472 11.1462 12.2292C11.2468 11.9864 11.3942 11.7658 11.58 11.58" stroke="black" stroke-width="2" stroke-linecap="round" stroke-linejoin="round"/>
<path d="M17.5 17.5L10 25" stroke="black" stroke-width="2" stroke-linecap="round" stroke-linejoin="round"/>
<path d="M22 16L25 19" stroke="black" stroke-width="2" stroke-linecap="round" stroke-linejoin="round"/>
<path d="M7.59 7.58997C7.40358 7.77451 7.25548 7.99408 7.15423 8.23606C7.05298 8.47804 7.00056 8.73766 7 8.99997V23C7 23.5304 7.21071 24.0391 7.58579 24.4142C7.96086 24.7893 8.46957 25 9 25H23C23.55 25 24.052 24.78 24.41 24.41" stroke="black" stroke-width="2" stroke-linecap="round" stroke-linejoin="round"/>
<path d="M25 19V9C25 8.46957 24.7893 7.96086 24.4142 7.58579C24.0391 7.21071 23.5304 7 23 7H13" stroke="black" stroke-width="2" stroke-linecap="round" stroke-linejoin="round"/>
</svg>