<svg xmlns="http://www.w3.org/2000/svg" fill="none" viewBox="1.53 1.5 21 21">
<path d="M12.0005 1.5029C12.0005 1.5029 18.1896 1.22615 21.471 7.42495H11.4739C11.4739 7.42495 9.58723 7.36436 7.97561 9.64499C7.51266 10.6022 7.01503 11.5883 7.57347 13.5316C6.76901 12.1735 3.30263 6.15929 3.30263 6.15929C3.30263 6.15929 5.74763 1.74796 12.0004 1.5029H12.0005Z" fill="#EF3F36"/>
<path d="M21.1497 17.2392C21.1497 17.2392 18.2938 22.7201 11.2684 22.4491C12.1365 20.9527 16.2684 13.8227 16.2684 13.8227C16.2684 13.8227 17.2666 12.2254 16.089 9.69398C15.49 8.81461 14.8794 7.89488 12.9119 7.40468C14.4947 7.39036 21.4535 7.40468 21.4535 7.40468C21.4535 7.40468 24.0605 11.7209 21.1497 17.2392Z" fill="#FCD900"/>
<path d="M2.89453 17.2825C2.89453 17.2825 -0.441698 12.0784 3.30826 6.15057C4.17344 7.64698 8.30533 14.7771 8.30533 14.7771C8.30533 14.7771 9.19656 16.4378 11.983 16.6857C13.045 16.6079 14.1502 16.5415 15.5623 15.0913C14.7839 16.4638 11.2913 22.4608 11.2913 22.4608C11.2913 22.4608 6.23355 22.553 2.89445 17.2825H2.89453Z" fill="#61BC5B"/>
<path d="M11.2656 22.501L12.6718 16.654C12.6718 16.654 14.2169 16.5328 15.5133 15.1172C14.7088 16.5272 11.2656 22.501 11.2656 22.501V22.501Z" fill="#5AB055"/>
<path d="M7.28989 12.0668C7.28989 9.48931 9.38771 7.39899 11.9745 7.39899C14.5612 7.39899 16.659 9.48931 16.659 12.0668C16.659 14.6444 14.5612 16.7346 11.9745 16.7346C9.38771 16.7317 7.28989 14.6444 7.28989 12.0668V12.0668Z" fill="white"/>
<path d="M8.07399 12.0668C8.07399 9.92177 9.81882 8.1803 11.9745 8.1803C14.1272 8.1803 15.8749 9.9189 15.8749 12.0668C15.8749 14.2119 14.1302 15.9534 11.9745 15.9534C9.8217 15.9534 8.07399 14.2119 8.07399 12.0668V12.0668Z" fill="url(#paint0_linear_1313_1054)"/>
<path d="M21.4506 7.40767L15.6607 9.1001C15.6607 9.1001 14.7869 7.82279 12.9091 7.40767C14.5381 7.39899 21.4506 7.40767 21.4506 7.40767V7.40767Z" fill="#EACA05"/>
<path d="M7.46065 13.3182C6.64748 11.9141 3.30263 6.15924 3.30263 6.15924L7.59081 10.386C7.59081 10.386 7.15094 11.2885 7.31594 12.5801L7.46056 13.3182H7.46065Z" fill="#DF3A32"/>
<defs>
<linearGradient id="paint0_linear_1313_1054" x1="11.9743" y1="8.23518" x2="11.9743" y2="15.7194" gradientUnits="userSpaceOnUse">
<stop stop-color="#86BBE5"/>
<stop offset="1" stop-color="#1072BA"/>
</linearGradient>
</defs>
</svg>