<svg width="24" height="24" viewBox="0 0 24 24" fill="none" xmlns="http://www.w3.org/2000/svg">
    <path fill-rule="evenodd" clip-rule="evenodd" d="M11.9962 2.00001L12 2C13.9778 2.00001 15.9112 2.5865 17.5557 3.68531C19.2002 4.78412 20.4819 6.34591 21.2388 8.17317C21.9957 10.0004 22.1937 12.0111 21.8079 13.9509C21.422 15.8907 20.4696 17.6725 19.0711 19.0711C17.6725 20.4696 15.8907 21.422 13.9509 21.8079C12.0111 22.1937 10.0004 21.9957 8.17317 21.2388C6.3459 20.4819 4.78412 19.2002 3.6853 17.5557C2.58649 15.9112 2 13.9778 2 12C2 11.4477 2.44772 11 3 11C3.55228 11 4 11.4477 4 12C4 13.5823 4.46919 15.129 5.34824 16.4446C6.22729 17.7602 7.47672 18.7855 8.93853 19.391C10.4003 19.9965 12.0089 20.155 13.5607 19.8463C15.1126 19.5376 16.538 18.7757 17.6569 17.6569C18.7757 16.538 19.5376 15.1126 19.8463 13.5607C20.155 12.0089 19.9965 10.4003 19.391 8.93854C18.7855 7.47673 17.7602 6.2273 16.4446 5.34825C15.1295 4.46955 13.5835 4.00038 12.0019 4.00001C9.7473 4.00897 7.58329 4.88786 5.96097 6.45325L5.41421 7.00001H7C7.55228 7.00001 8 7.44772 8 8.00001C8 8.55229 7.55228 9.00001 7 9.00001H3C2.86441 9.00001 2.73512 8.97302 2.61722 8.92413C2.50014 8.87569 2.3904 8.80406 2.29502 8.70923C2.2936 8.70782 2.29219 8.70641 2.29078 8.70499C2.11106 8.5242 2 8.27507 2 8.00001V7.99983V3.00001C2 2.44772 2.44772 2.00001 3 2.00001C3.55228 2.00001 4 2.44772 4 3.00001V5.58579L4.55289 5.0329L4.56496 5.02104C6.55946 3.0929 9.22213 2.01045 11.9962 2.00001ZM10.0208 7.41526C10.3419 7.23997 10.733 7.25398 11.0408 7.4518L16.8072 11.1588C17.0934 11.3428 17.2664 11.6597 17.2664 11.9999C17.2664 12.3402 17.0934 12.6571 16.8072 12.8411L11.0408 16.5481C10.733 16.7459 10.3419 16.7599 10.0208 16.5846C9.69974 16.4093 9.5 16.0727 9.5 15.7069V8.29298C9.5 7.92717 9.69974 7.59055 10.0208 7.41526ZM11.5 13.8753L14.4171 11.9999L11.5 10.1246V13.8753Z" fill="currentColor"/>
</svg>
