<svg width="400" height="226" viewBox="0 0 400 226" fill="none" xmlns="http://www.w3.org/2000/svg">
<g clip-path="url(#clip0_292_84)">
<rect width="400" height="225" transform="translate(0 0.5)" fill="#3B9C9F" fill-opacity="0.2"/>
<path d="M34.1101 26.134C34.7768 26.5189 34.7768 27.4811 34.1101 27.866L25.6949 32.7245C25.0283 33.1094 24.1949 32.6283 24.1949 31.8585L24.1949 22.1415C24.1949 21.3717 25.0283 20.8906 25.6949 21.2755L34.1101 26.134Z" fill="white" fill-opacity="0.25"/>
<path d="M77.1101 26.134C77.7768 26.5189 77.7768 27.4811 77.1101 27.866L68.6949 32.7245C68.0283 33.1094 67.1949 32.6283 67.1949 31.8585L67.1949 22.1415C67.1949 21.3717 68.0283 20.8906 68.6949 21.2755L77.1101 26.134Z" fill="white" fill-opacity="0.25"/>
<path d="M120.11 26.134C120.777 26.5189 120.777 27.4811 120.11 27.866L111.695 32.7245C111.028 33.1094 110.195 32.6283 110.195 31.8585L110.195 22.1415C110.195 21.3717 111.028 20.8906 111.695 21.2755L120.11 26.134Z" fill="white" fill-opacity="0.25"/>
<path d="M163.11 26.134C163.777 26.5189 163.777 27.4811 163.11 27.866L154.695 32.7245C154.028 33.1094 153.195 32.6283 153.195 31.8585L153.195 22.1415C153.195 21.3717 154.028 20.8906 154.695 21.2755L163.11 26.134Z" fill="white" fill-opacity="0.25"/>
<path d="M206.11 26.134C206.777 26.5189 206.777 27.4811 206.11 27.866L197.695 32.7245C197.028 33.1094 196.195 32.6283 196.195 31.8585L196.195 22.1415C196.195 21.3717 197.028 20.8906 197.695 21.2755L206.11 26.134Z" fill="white" fill-opacity="0.25"/>
<path d="M249.11 26.134C249.777 26.5189 249.777 27.4811 249.11 27.866L240.695 32.7245C240.028 33.1094 239.195 32.6283 239.195 31.8585L239.195 22.1415C239.195 21.3717 240.028 20.8906 240.695 21.2755L249.11 26.134Z" fill="white" fill-opacity="0.25"/>
<path d="M292.11 26.134C292.777 26.5189 292.777 27.4811 292.11 27.866L283.695 32.7245C283.028 33.1094 282.195 32.6283 282.195 31.8585L282.195 22.1415C282.195 21.3717 283.028 20.8906 283.695 21.2755L292.11 26.134Z" fill="white" fill-opacity="0.25"/>
<path d="M335.11 26.134C335.777 26.5189 335.777 27.4811 335.11 27.866L326.695 32.7245C326.028 33.1094 325.195 32.6283 325.195 31.8585L325.195 22.1415C325.195 21.3717 326.028 20.8906 326.695 21.2755L335.11 26.134Z" fill="white" fill-opacity="0.25"/>
<path d="M378.11 26.134C378.777 26.5189 378.777 27.4811 378.11 27.866L369.695 32.7245C369.028 33.1094 368.195 32.6283 368.195 31.8585L368.195 22.1415C368.195 21.3717 369.028 20.8906 369.695 21.2755L378.11 26.134Z" fill="white" fill-opacity="0.25"/>
<path d="M34.1101 69.134C34.7768 69.5189 34.7768 70.4811 34.1101 70.866L25.6949 75.7245C25.0283 76.1094 24.1949 75.6283 24.1949 74.8585L24.1949 65.1415C24.1949 64.3717 25.0283 63.8906 25.6949 64.2755L34.1101 69.134Z" fill="white" fill-opacity="0.25"/>
<path d="M77.1101 69.134C77.7768 69.5189 77.7768 70.4811 77.1101 70.866L68.6949 75.7245C68.0283 76.1094 67.1949 75.6283 67.1949 74.8585L67.1949 65.1415C67.1949 64.3717 68.0283 63.8906 68.6949 64.2755L77.1101 69.134Z" fill="white" fill-opacity="0.25"/>
<path d="M120.11 69.134C120.777 69.5189 120.777 70.4811 120.11 70.866L111.695 75.7245C111.028 76.1094 110.195 75.6283 110.195 74.8585L110.195 65.1415C110.195 64.3717 111.028 63.8906 111.695 64.2755L120.11 69.134Z" fill="white" fill-opacity="0.25"/>
<path d="M163.11 69.134C163.777 69.5189 163.777 70.4811 163.11 70.866L154.695 75.7245C154.028 76.1094 153.195 75.6283 153.195 74.8585L153.195 65.1415C153.195 64.3717 154.028 63.8906 154.695 64.2755L163.11 69.134Z" fill="white" fill-opacity="0.25"/>
<path d="M206.11 69.134C206.777 69.5189 206.777 70.4811 206.11 70.866L197.695 75.7245C197.028 76.1094 196.195 75.6283 196.195 74.8585L196.195 65.1415C196.195 64.3717 197.028 63.8906 197.695 64.2755L206.11 69.134Z" fill="white" fill-opacity="0.25"/>
<path d="M249.11 69.134C249.777 69.5189 249.777 70.4811 249.11 70.866L240.695 75.7245C240.028 76.1094 239.195 75.6283 239.195 74.8585L239.195 65.1415C239.195 64.3717 240.028 63.8906 240.695 64.2755L249.11 69.134Z" fill="white" fill-opacity="0.25"/>
<path d="M292.11 69.134C292.777 69.5189 292.777 70.4811 292.11 70.866L283.695 75.7245C283.028 76.1094 282.195 75.6283 282.195 74.8585L282.195 65.1415C282.195 64.3717 283.028 63.8906 283.695 64.2755L292.11 69.134Z" fill="white" fill-opacity="0.25"/>
<path d="M335.11 69.134C335.777 69.5189 335.777 70.4811 335.11 70.866L326.695 75.7245C326.028 76.1094 325.195 75.6283 325.195 74.8585L325.195 65.1415C325.195 64.3717 326.028 63.8906 326.695 64.2755L335.11 69.134Z" fill="white" fill-opacity="0.25"/>
<path d="M378.11 69.134C378.777 69.5189 378.777 70.4811 378.11 70.866L369.695 75.7245C369.028 76.1094 368.195 75.6283 368.195 74.8585L368.195 65.1415C368.195 64.3717 369.028 63.8906 369.695 64.2755L378.11 69.134Z" fill="white" fill-opacity="0.25"/>
<path d="M34.1101 112.134C34.7768 112.519 34.7768 113.481 34.1101 113.866L25.6949 118.725C25.0283 119.109 24.1949 118.628 24.1949 117.858L24.1949 108.142C24.1949 107.372 25.0283 106.891 25.6949 107.275L34.1101 112.134Z" fill="white" fill-opacity="0.25"/>
<path d="M77.1101 112.134C77.7768 112.519 77.7768 113.481 77.1101 113.866L68.6949 118.725C68.0283 119.109 67.1949 118.628 67.1949 117.858L67.1949 108.142C67.1949 107.372 68.0283 106.891 68.6949 107.275L77.1101 112.134Z" fill="white" fill-opacity="0.25"/>
<path d="M120.11 112.134C120.777 112.519 120.777 113.481 120.11 113.866L111.695 118.725C111.028 119.109 110.195 118.628 110.195 117.858L110.195 108.142C110.195 107.372 111.028 106.891 111.695 107.275L120.11 112.134Z" fill="white" fill-opacity="0.25"/>
<path d="M163.11 112.134C163.777 112.519 163.777 113.481 163.11 113.866L154.695 118.725C154.028 119.109 153.195 118.628 153.195 117.858L153.195 108.142C153.195 107.372 154.028 106.891 154.695 107.275L163.11 112.134Z" fill="white" fill-opacity="0.25"/>
<path d="M206.11 112.134C206.777 112.519 206.777 113.481 206.11 113.866L197.695 118.725C197.028 119.109 196.195 118.628 196.195 117.858L196.195 108.142C196.195 107.372 197.028 106.891 197.695 107.275L206.11 112.134Z" fill="white" fill-opacity="0.25"/>
<path d="M249.11 112.134C249.777 112.519 249.777 113.481 249.11 113.866L240.695 118.725C240.028 119.109 239.195 118.628 239.195 117.858L239.195 108.142C239.195 107.372 240.028 106.891 240.695 107.275L249.11 112.134Z" fill="white" fill-opacity="0.25"/>
<path d="M292.11 112.134C292.777 112.519 292.777 113.481 292.11 113.866L283.695 118.725C283.028 119.109 282.195 118.628 282.195 117.858L282.195 108.142C282.195 107.372 283.028 106.891 283.695 107.275L292.11 112.134Z" fill="white" fill-opacity="0.25"/>
<path d="M335.11 112.134C335.777 112.519 335.777 113.481 335.11 113.866L326.695 118.725C326.028 119.109 325.195 118.628 325.195 117.858L325.195 108.142C325.195 107.372 326.028 106.891 326.695 107.275L335.11 112.134Z" fill="white" fill-opacity="0.25"/>
<path d="M378.11 112.134C378.777 112.519 378.777 113.481 378.11 113.866L369.695 118.725C369.028 119.109 368.195 118.628 368.195 117.858L368.195 108.142C368.195 107.372 369.028 106.891 369.695 107.275L378.11 112.134Z" fill="white" fill-opacity="0.25"/>
<path d="M34.1101 155.134C34.7768 155.519 34.7768 156.481 34.1101 156.866L25.6949 161.725C25.0283 162.109 24.1949 161.628 24.1949 160.858L24.1949 151.142C24.1949 150.372 25.0283 149.891 25.6949 150.275L34.1101 155.134Z" fill="white" fill-opacity="0.25"/>
<path d="M77.1101 155.134C77.7768 155.519 77.7768 156.481 77.1101 156.866L68.6949 161.725C68.0283 162.109 67.1949 161.628 67.1949 160.858L67.1949 151.142C67.1949 150.372 68.0283 149.891 68.6949 150.275L77.1101 155.134Z" fill="white" fill-opacity="0.25"/>
<path d="M120.11 155.134C120.777 155.519 120.777 156.481 120.11 156.866L111.695 161.725C111.028 162.109 110.195 161.628 110.195 160.858L110.195 151.142C110.195 150.372 111.028 149.891 111.695 150.275L120.11 155.134Z" fill="white" fill-opacity="0.25"/>
<path d="M163.11 155.134C163.777 155.519 163.777 156.481 163.11 156.866L154.695 161.725C154.028 162.109 153.195 161.628 153.195 160.858L153.195 151.142C153.195 150.372 154.028 149.891 154.695 150.275L163.11 155.134Z" fill="white" fill-opacity="0.25"/>
<path d="M206.11 155.134C206.777 155.519 206.777 156.481 206.11 156.866L197.695 161.725C197.028 162.109 196.195 161.628 196.195 160.858L196.195 151.142C196.195 150.372 197.028 149.891 197.695 150.275L206.11 155.134Z" fill="white" fill-opacity="0.25"/>
<path d="M249.11 155.134C249.777 155.519 249.777 156.481 249.11 156.866L240.695 161.725C240.028 162.109 239.195 161.628 239.195 160.858L239.195 151.142C239.195 150.372 240.028 149.891 240.695 150.275L249.11 155.134Z" fill="white" fill-opacity="0.25"/>
<path d="M292.11 155.134C292.777 155.519 292.777 156.481 292.11 156.866L283.695 161.725C283.028 162.109 282.195 161.628 282.195 160.858L282.195 151.142C282.195 150.372 283.028 149.891 283.695 150.275L292.11 155.134Z" fill="white" fill-opacity="0.25"/>
<path d="M335.11 155.134C335.777 155.519 335.777 156.481 335.11 156.866L326.695 161.725C326.028 162.109 325.195 161.628 325.195 160.858L325.195 151.142C325.195 150.372 326.028 149.891 326.695 150.275L335.11 155.134Z" fill="white" fill-opacity="0.25"/>
<path d="M378.11 155.134C378.777 155.519 378.777 156.481 378.11 156.866L369.695 161.725C369.028 162.109 368.195 161.628 368.195 160.858L368.195 151.142C368.195 150.372 369.028 149.891 369.695 150.275L378.11 155.134Z" fill="white" fill-opacity="0.25"/>
<path d="M34.1101 198.134C34.7768 198.519 34.7768 199.481 34.1101 199.866L25.6949 204.725C25.0283 205.109 24.1949 204.628 24.1949 203.858L24.1949 194.142C24.1949 193.372 25.0283 192.891 25.6949 193.275L34.1101 198.134Z" fill="white" fill-opacity="0.25"/>
<path d="M77.1101 198.134C77.7768 198.519 77.7768 199.481 77.1101 199.866L68.6949 204.725C68.0283 205.109 67.1949 204.628 67.1949 203.858L67.1949 194.142C67.1949 193.372 68.0283 192.891 68.6949 193.275L77.1101 198.134Z" fill="white" fill-opacity="0.25"/>
<path d="M120.11 198.134C120.777 198.519 120.777 199.481 120.11 199.866L111.695 204.725C111.028 205.109 110.195 204.628 110.195 203.858L110.195 194.142C110.195 193.372 111.028 192.891 111.695 193.275L120.11 198.134Z" fill="white" fill-opacity="0.25"/>
<path d="M163.11 198.134C163.777 198.519 163.777 199.481 163.11 199.866L154.695 204.725C154.028 205.109 153.195 204.628 153.195 203.858L153.195 194.142C153.195 193.372 154.028 192.891 154.695 193.275L163.11 198.134Z" fill="white" fill-opacity="0.25"/>
<path d="M206.11 198.134C206.777 198.519 206.777 199.481 206.11 199.866L197.695 204.725C197.028 205.109 196.195 204.628 196.195 203.858L196.195 194.142C196.195 193.372 197.028 192.891 197.695 193.275L206.11 198.134Z" fill="white" fill-opacity="0.25"/>
<path d="M249.11 198.134C249.777 198.519 249.777 199.481 249.11 199.866L240.695 204.725C240.028 205.109 239.195 204.628 239.195 203.858L239.195 194.142C239.195 193.372 240.028 192.891 240.695 193.275L249.11 198.134Z" fill="white" fill-opacity="0.25"/>
<path d="M292.11 198.134C292.777 198.519 292.777 199.481 292.11 199.866L283.695 204.725C283.028 205.109 282.195 204.628 282.195 203.858L282.195 194.142C282.195 193.372 283.028 192.891 283.695 193.275L292.11 198.134Z" fill="white" fill-opacity="0.25"/>
<path d="M335.11 198.134C335.777 198.519 335.777 199.481 335.11 199.866L326.695 204.725C326.028 205.109 325.195 204.628 325.195 203.858L325.195 194.142C325.195 193.372 326.028 192.891 326.695 193.275L335.11 198.134Z" fill="white" fill-opacity="0.25"/>
<path d="M378.11 198.134C378.777 198.519 378.777 199.481 378.11 199.866L369.695 204.725C369.028 205.109 368.195 204.628 368.195 203.858L368.195 194.142C368.195 193.372 369.028 192.891 369.695 193.275L378.11 198.134Z" fill="white" fill-opacity="0.25"/>
</g>
<defs>
<clipPath id="clip0_292_84">
<rect width="400" height="225" fill="white" transform="translate(0 0.5)"/>
</clipPath>
</defs>
</svg>
