<svg xmlns="http://www.w3.org/2000/svg" viewBox="0 0 576 512"><path d="M569.517 440.013C587.975 472.007 564.806 512 527.94 512H48.054c-36.937 0-59.999-40.054-41.577-71.987L246.423 23.985c18.467-32.009 64.72-31.952 83.154 0l239.94 416.028zm-27.658 15.991l-240-416c-6.16-10.678-21.583-10.634-27.718 0l-240 416C27.983 466.678 35.731 480 48 480h480c12.323 0 19.99-13.369 13.859-23.996zM288 372c-15.464 0-28 12.536-28 28s12.536 28 28 28 28-12.536 28-28-12.536-28-28-28zm-11.49-212h22.979c6.823 0 12.274 5.682 11.99 12.5l-7 168c-.268 6.428-5.556 11.5-11.99 11.5h-8.979c-6.433 0-11.722-5.073-11.99-11.5l-7-168c-.283-6.818 5.167-12.5 11.99-12.5zM288 372c-15.464 0-28 12.536-28 28s12.536 28 28 28 28-12.536 28-28-12.536-28-28-28z"/></svg>