<svg xmlns="http://www.w3.org/2000/svg" fill="none" viewBox="-0.23 0.05 70.49 70.45"><g clip-path="url(#a)"><rect y=".5" width="70" height="70" rx="35" fill="#fff"/><mask id="b" fill="#fff"><path d="M37.75.607a34.747 34.747 0 0 1-.387 69.308l-.467-6.918a27.813 27.813 0 0 0 .31-55.478L37.75.607Z"/></mask><path d="M37.75.607a34.747 34.747 0 0 1-.387 69.308l-.467-6.918a27.813 27.813 0 0 0 .31-55.478L37.75.607Z" fill="#D7D9EA" stroke="#000" stroke-linejoin="round" mask="url(#b)"/><path d="M48.511 34.163c0 3.484-2.16 8.903-6.531 12.146-1.058 2.538-2.562 1.214-6.304 1.214-3.032 0-3.782 1.461-6.104-.368-5.098-4.018-7.331-8.769-7.331-12.992 0-7.379 6.346-13.36 13.435-13.36s12.835 5.981 12.835 13.36Z" fill="#F0D3D3"/><path d="M28.771 46.587a.424.424 0 0 1-.209-.055A13.88 13.88 0 0 1 21.4 34.38c0-7.653 6.226-13.879 13.879-13.879a.433.433 0 1 1 0 .867c-7.175 0-13.012 5.837-13.012 13.012 0 4.741 2.573 9.107 6.713 11.394a.432.432 0 0 1-.209.814Z" fill="#000"/><path d="M41.785 46.587a.434.434 0 0 1-.209-.814 13.015 13.015 0 0 0 6.713-11.395c0-7.174-5.836-13.01-13.01-13.01a.436.436 0 0 1-.434-.434.434.434 0 0 1 .434-.434c7.652 0 13.877 6.226 13.877 13.879a13.88 13.88 0 0 1-7.161 12.153.423.423 0 0 1-.21.055Zm-13.012 6.875a.435.435 0 0 1-.433-.434v-6.875a.433.433 0 1 1 .867 0v6.875a.434.434 0 0 1-.434.434Z" fill="#000"/><path d="M41.783 53.462a.436.436 0 0 1-.433-.434v-6.865a.434.434 0 1 1 .867 0v6.865a.435.435 0 0 1-.434.434Z" fill="#000"/><path d="M41.783 48.258h-13.01a.436.436 0 0 1-.4-.268.432.432 0 0 1 .4-.6h13.01a.434.434 0 1 1 0 .867Zm-1.735 6.939h-9.54a.433.433 0 0 1-.307-.127l-1.735-1.735a.434.434 0 1 1 .614-.613l1.607 1.607h9.182l1.608-1.607a.433.433 0 1 1 .613.613l-1.735 1.735a.434.434 0 0 1-.307.127ZM27.906 50.86a.434.434 0 0 1-.026-.867l14.745-.867a.44.44 0 0 1 .459.407.434.434 0 0 1-.408.458l-14.745.868a.27.27 0 0 1-.025 0Zm0 1.734a.433.433 0 0 1-.026-.866l14.745-.868a.434.434 0 0 1 .051.866l-14.745.867-.025.001ZM33.11 43.053a.434.434 0 0 1-.27-.773l2.168-1.735a.435.435 0 0 1 .542.678l-2.169 1.735a.432.432 0 0 1-.27.095Z" fill="#000"/><path d="M37.446 43.053a.43.43 0 0 1-.27-.095l-2.168-1.735a.434.434 0 0 1 .542-.678l2.167 1.735a.434.434 0 0 1-.27.773Zm-4.336-1.735a.434.434 0 0 1-.434-.434v-6.072a.435.435 0 0 1 .6-.4.435.435 0 0 1 .268.4v6.072a.434.434 0 0 1-.434.434Z" fill="#000"/><path d="M33.11 35.246a.435.435 0 0 1-.434-.434c0-.717-.583-1.301-1.3-1.301-.718 0-1.302.584-1.302 1.301a.434.434 0 1 1-.867 0 2.17 2.17 0 0 1 2.168-2.168 2.17 2.17 0 0 1 2.169 2.168.434.434 0 0 1-.434.434Z" fill="#000"/><path d="M31.375 36.98a2.17 2.17 0 0 1-2.168-2.168.432.432 0 0 1 .433-.433.434.434 0 0 1 .434.433c0 .718.584 1.301 1.301 1.301a.433.433 0 1 1 0 .868Zm6.071 4.338a.434.434 0 0 1-.433-.434v-6.072a.433.433 0 1 1 .867 0v6.072a.432.432 0 0 1-.434.434Z" fill="#000"/><path d="M40.916 35.246a.436.436 0 0 1-.434-.434c0-.717-.583-1.301-1.3-1.301-.718 0-1.302.584-1.302 1.301a.433.433 0 1 1-.867 0 2.17 2.17 0 0 1 2.168-2.168 2.17 2.17 0 0 1 2.169 2.168.432.432 0 0 1-.434.434Z" fill="#000"/><path d="M39.181 36.98a.433.433 0 1 1 0-.867c.718 0 1.301-.584 1.301-1.301a.434.434 0 1 1 .868 0 2.171 2.171 0 0 1-2.169 2.169Zm-13.878-2.168a.434.434 0 0 1-.433-.434c0-5.74 4.669-10.409 10.409-10.409a.434.434 0 1 1 0 .868c-5.262 0-9.542 4.28-9.542 9.541a.432.432 0 0 1-.434.434ZM35.694 60.68a.5.5 0 0 1-.86 0l-2.658-4.46a.5.5 0 0 1 .43-.755h5.316a.5.5 0 0 1 .43.756l-2.658 4.46Z" fill="#000"/><path stroke="#000" stroke-linecap="round" d="M35.212 17.797V1.001M35.295 69.802l-.078-7.896M41.44 17.698l.646-2.834M29.54 17.9l-1.463-2.512"/><mask id="c" fill="#fff"><path d="M33.127.552a34.747 34.747 0 0 0 .155 69.398l.347-6.925a27.813 27.813 0 0 1-.124-55.55L33.127.552Z"/></mask><path d="M33.127.552a34.747 34.747 0 0 0 .155 69.398l.347-6.925a27.813 27.813 0 0 1-.124-55.55L33.127.552Z" fill="#8ED4DA" stroke="#000" stroke-linejoin="round" mask="url(#c)"/><path d="m19.902 8.436-1.294.837a32.186 32.186 0 0 0-14.5 23.424l-.047.421a30.238 30.238 0 0 0 11.723 27.434l4.118 3.137" stroke="#000" stroke-width=".4"/><path d="M8.683 21.849a31.035 31.035 0 0 0-.092 26.556l1.279 2.727" stroke="#000" stroke-width=".2"/></g><defs><clipPath id="a"><rect y=".5" width="70" height="70" rx="35" fill="#fff"/></clipPath></defs></svg>