<svg xmlns="http://www.w3.org/2000/svg" fill="none" viewBox="0.46 0 71.04 71"><g clip-path="url(#a)"><rect x="1" y=".5" width="70" height="70" rx="4" fill="#fff"/><path fill="#8ED4DA" d="M.457.422H71v9.206H.457z"/><path fill-rule="evenodd" clip-rule="evenodd" d="M15.647 55.302V9.627h-.5v45.675h.5Zm13.9 0V9.627h-.5v45.675h.5ZM43.448 9.627v45.675h-.5V9.627h.5Zm13.9 45.675V9.627h-.5v45.675h.5Z" fill="#D7D7D7"/><path fill-rule="evenodd" clip-rule="evenodd" d="M71 55.021H1.289v.5H71v-.5Zm0-14.9H1.289v.5H71v-.5Zm-69.711-14.9H71v.5H1.289v-.5ZM71 9.321H1.289v.5H71v-.5Z" fill="#D7D7D7"/><path stroke="#000" stroke-width=".5" d="M71 9.571.822 9.531"/><rect x="45.618" y="33.077" width="8.968" height="2" rx="1" fill="#4E4E4F"/><rect x="45.618" y="47.077" width="8.968" height="2" rx="1" fill="#4E4E4F"/><rect x="60.027" y="33.47" width="8.468" height="1.5" rx=".75" fill="#8ED4DA" stroke="#000" stroke-width=".5"/><rect x="60.027" y="16.689" width="8.468" height="1.5" rx=".75" fill="#F0D3D3" stroke="#000" stroke-width=".5"/><rect x="60.027" y="47.47" width="8.468" height="1.5" rx=".75" fill="#F0D3D3" stroke="#000" stroke-width=".5"/><rect x="63.368" y="2.75" width="5.5" height="4.78" rx="2.39" fill="#fff" stroke="#333" stroke-width=".5"/><rect x="3.368" y="2.75" width="39.468" height="4.78" rx="2.39" fill="#fff" stroke="#333" stroke-width=".5"/><rect x="3.724" y="16.439" width="8.968" height="2" rx="1" fill="#9299D3"/><rect x="17.618" y="16.439" width="8.968" height="2" rx="1" fill="#9299D3"/><rect x="31.777" y="16.439" width="8.968" height="2" rx="1" fill="#9299D3"/><rect x="45.618" y="16.439" width="8.968" height="2" rx="1" fill="#9299D3"/><rect x="31.777" y="33.077" width="8.968" height="2" rx="1" fill="#4E4E4F"/><rect opacity=".4" x="31.777" y="47.077" width="8.968" height="2" rx="1" fill="#4E4E4F"/><rect x="17.618" y="33.077" width="8.968" height="2" rx="1" fill="#4E4E4F"/><rect x="17.618" y="47.077" width="8.968" height="2" rx="1" fill="#4E4E4F"/><rect x="3.724" y="33.077" width="8.968" height="2" rx="1" fill="#4E4E4F"/><rect x="3.724" y="47.077" width="8.968" height="2" rx="1" fill="#4E4E4F"/><rect x="13.189" y="62.077" width="2" height="2" rx="1" fill="#B2B2B2"/><rect x="17.189" y="62.077" width="37.91" height="2" rx="1" fill="#B2B2B2"/><rect x="57.099" y="62.077" width="2" height="2" rx="1" fill="#B2B2B2"/><path fill-rule="evenodd" clip-rule="evenodd" d="M3.273 61.879a.157.157 0 0 0-.195.245l8.766 6.993a.157.157 0 0 0 .196-.245L3.273 61.88Zm-.22 1.712a.157.157 0 0 1 .22-.025l6.684 5.306a.157.157 0 1 1-.195.246L3.078 63.81a.157.157 0 0 1-.025-.22Zm.225 1.506a.157.157 0 1 0-.204.237l4.399 3.78a.157.157 0 1 0 .204-.238l-4.4-3.78Zm-.22 1.615a.157.157 0 0 1 .221-.014l2.477 2.18a.157.157 0 0 1-.207.235l-2.477-2.18a.157.157 0 0 1-.014-.22Zm-.007 1.535a.157.157 0 0 1 .22-.03l.854.653a.157.157 0 1 1-.19.25l-.854-.653a.157.157 0 0 1-.03-.22Z" fill="#010101"/></g><rect x=".75" y=".25" width="70.5" height="70.5" rx="4.25" stroke="#000" stroke-width=".5"/><defs><clipPath id="a"><rect x="1" y=".5" width="70" height="70" rx="4" fill="#fff"/></clipPath></defs></svg>