<svg viewBox="0 0 24 24" fill="none" xmlns="http://www.w3.org/2000/svg">
<path d="M12.0005 1.5029C12.0005 1.5029 18.1896 1.22615 21.471 7.42495H11.4739C11.4739 7.42495 9.58722 7.36436 7.9756 9.64499C7.51265 10.6022 7.01502 11.5883 7.57345 13.5316C6.769 12.1735 3.30261 6.15929 3.30261 6.15929C3.30261 6.15929 5.74761 1.74796 12.0004 1.5029H12.0005Z" fill="#EF3F36"/>
<path d="M21.1497 17.2392C21.1497 17.2392 18.2938 22.7201 11.2684 22.4491C12.1365 20.9527 16.2683 13.8227 16.2683 13.8227C16.2683 13.8227 17.2666 12.2254 16.089 9.69398C15.4899 8.81461 14.8794 7.89488 12.9119 7.40468C14.4947 7.39036 21.4535 7.40468 21.4535 7.40468C21.4535 7.40468 24.0605 11.7209 21.1497 17.2392Z" fill="#FCD900"/>
<path d="M2.89448 17.2825C2.89448 17.2825 -0.441744 12.0784 3.30821 6.15057C4.17339 7.64698 8.30528 14.7771 8.30528 14.7771C8.30528 14.7771 9.19651 16.4378 11.9829 16.6857C13.0449 16.6079 14.1502 16.5415 15.5623 15.0913C14.7838 16.4638 11.2913 22.4608 11.2913 22.4608C11.2913 22.4608 6.2335 22.553 2.8944 17.2825H2.89448Z" fill="#61BC5B"/>
<path d="M11.2655 22.501L12.6717 16.654C12.6717 16.654 14.2169 16.5328 15.5132 15.1172C14.7088 16.5272 11.2655 22.501 11.2655 22.501Z" fill="#5AB055"/>
<path d="M7.28979 12.0668C7.28979 9.48931 9.38762 7.39899 11.9744 7.39899C14.5611 7.39899 16.6589 9.48931 16.6589 12.0668C16.6589 14.6444 14.5611 16.7346 11.9744 16.7346C9.38762 16.7317 7.28979 14.6444 7.28979 12.0668Z" fill="white"/>
<path d="M8.07397 12.0668C8.07397 9.9218 9.81881 8.18033 11.9745 8.18033C14.1272 8.18033 15.8749 9.91893 15.8749 12.0668C15.8749 14.212 14.1302 15.9534 11.9745 15.9534C9.82168 15.9534 8.07397 14.212 8.07397 12.0668Z" fill="url(#paint0_linear_716_8431)"/>
<path d="M21.4506 7.40764L15.6607 9.10007C15.6607 9.10007 14.7869 7.82276 12.9091 7.40764C14.5381 7.39896 21.4506 7.40764 21.4506 7.40764Z" fill="#EACA05"/>
<path d="M7.46063 13.3183C6.64747 11.9141 3.30261 6.15927 3.30261 6.15927L7.59079 10.386C7.59079 10.386 7.15093 11.2885 7.31593 12.5801L7.46055 13.3183H7.46063Z" fill="#DF3A32"/>
<defs>
<linearGradient id="paint0_linear_716_8431" x1="11.9743" y1="8.23521" x2="11.9743" y2="15.7195" gradientUnits="userSpaceOnUse">
<stop stop-color="#86BBE5"/>
<stop offset="1" stop-color="#1072BA"/>
</linearGradient>
</defs>
</svg>
