<svg viewBox="0 0 24 24" fill="none" xmlns="http://www.w3.org/2000/svg">
<path d="M21.7429 8.04486C21.2862 6.94305 20.3605 5.75354 19.6338 5.37779C20.2253 6.54011 20.5674 7.70594 20.6982 8.57582C20.6982 8.57582 20.6982 8.58196 20.7004 8.59336C19.5117 5.62332 17.4958 4.42549 15.8495 1.81805C15.766 1.68652 15.6829 1.55498 15.6015 1.41424C15.5555 1.33488 15.5184 1.26298 15.486 1.19502C15.4178 1.06318 15.3651 0.923844 15.3289 0.779812C15.3292 0.772973 15.327 0.76627 15.3226 0.761005C15.3182 0.755739 15.3121 0.752285 15.3053 0.751313C15.2989 0.749562 15.2921 0.749562 15.2856 0.751313C15.2839 0.752107 15.2823 0.75314 15.2808 0.754382C15.2782 0.754382 15.2756 0.757452 15.2729 0.758328L15.2773 0.752629C12.6362 2.30297 11.7402 5.17085 11.658 6.60588C10.6026 6.67821 9.59346 7.06769 8.76227 7.72348C8.67539 7.64986 8.58455 7.58106 8.49015 7.51741C8.25061 6.67703 8.24049 5.78762 8.46084 4.94198C7.38069 5.43523 6.54071 6.21347 5.92998 6.90227H5.92517C5.50825 6.37307 5.53756 4.62761 5.56118 4.26327C5.55637 4.24047 5.25057 4.42242 5.21119 4.45004C4.8433 4.71307 4.4994 5.00828 4.18354 5.3322C3.8241 5.69741 3.49572 6.09207 3.20182 6.51205C2.52564 7.47242 2.0461 8.55759 1.79093 9.70482C1.78612 9.72762 1.78174 9.75129 1.77693 9.77453C1.75724 9.86704 1.68593 10.3314 1.67324 10.4322V10.4554C1.58028 10.9352 1.52238 11.4211 1.5 11.9093V11.9633C1.5 17.7823 6.20735 22.5 12.0137 22.5C17.2141 22.5 21.5316 18.7162 22.3773 13.746C22.3948 13.6114 22.4092 13.4755 22.4249 13.3395C22.6341 11.5323 22.4018 9.63291 21.7429 8.04486ZM9.62455 16.2929C9.67355 16.3161 9.71992 16.342 9.77023 16.3648L9.77723 16.3692C9.72692 16.3446 9.67574 16.3192 9.62499 16.2929H9.62455ZM20.7013 8.59818V8.5881V8.5995V8.59818Z" fill="url(#paint0_linear_716_8611)"/>
<path d="M21.7428 8.04487C21.2861 6.94306 20.3604 5.75356 19.6337 5.37781C20.2252 6.54013 20.5673 7.70596 20.6981 8.57583V8.59732C21.6903 11.2929 21.1496 14.034 20.3709 15.7089C19.166 18.3001 16.2493 20.9562 11.6833 20.8269C6.75411 20.6866 2.40857 17.0164 1.59703 12.2132C1.44916 11.4551 1.59703 11.0706 1.6714 10.4554C1.58084 10.9294 1.54628 11.0666 1.50122 11.9093V11.9633C1.50122 17.7823 6.20857 22.5 12.0149 22.5C17.2153 22.5 21.5328 18.7162 22.3785 13.746C22.396 13.6114 22.4104 13.4755 22.4262 13.3395C22.634 11.5323 22.4017 9.63292 21.7428 8.04487Z" fill="url(#paint1_radial_716_8611)"/>
<path d="M21.7428 8.04487C21.2861 6.94306 20.3604 5.75356 19.6337 5.37781C20.2252 6.54013 20.5673 7.70596 20.6981 8.57583V8.59732C21.6903 11.2929 21.1496 14.034 20.3709 15.7089C19.166 18.3001 16.2493 20.9562 11.6833 20.8269C6.75411 20.6866 2.40857 17.0164 1.59703 12.2132C1.44916 11.4551 1.59703 11.0706 1.6714 10.4554C1.58084 10.9294 1.54628 11.0666 1.50122 11.9093V11.9633C1.50122 17.7823 6.20857 22.5 12.0149 22.5C17.2153 22.5 21.5328 18.7162 22.3785 13.746C22.396 13.6114 22.4104 13.4755 22.4262 13.3395C22.634 11.5323 22.4017 9.63292 21.7428 8.04487Z" fill="url(#paint2_radial_716_8611)"/>
<path d="M16.6336 9.28306C16.6567 9.29928 16.6773 9.3155 16.6992 9.33173C16.4353 8.86218 16.1066 8.43234 15.7227 8.05497C12.4547 4.77978 14.8661 0.953025 15.2725 0.758355L15.2769 0.752655C12.6358 2.303 11.7398 5.17087 11.6576 6.60591C11.7801 6.59758 11.9021 6.58706 12.0268 6.58706C13.9977 6.58706 15.7144 7.67352 16.6336 9.28306Z" fill="url(#paint3_radial_716_8611)"/>
<path d="M12.0334 9.93723C12.0163 10.2003 11.0923 11.1035 10.769 11.1035C7.77924 11.1035 7.29407 12.916 7.29407 12.916C7.42531 14.4427 8.48665 15.6997 9.77068 16.3649C9.8293 16.3951 9.88836 16.4223 9.94567 16.4495C10.0485 16.4933 10.1517 16.5372 10.2545 16.5762C10.6949 16.7318 11.156 16.8205 11.6226 16.8392C16.8628 17.0857 17.8786 10.5598 14.0965 8.66486C15.0647 8.49606 16.07 8.88672 16.6313 9.28176C15.7126 7.67222 13.9955 6.58575 12.0246 6.58575C11.8999 6.58575 11.7779 6.59628 11.6554 6.60461C10.6007 6.67784 9.59258 7.06775 8.76227 7.72352C8.92283 7.85988 9.10395 8.04139 9.485 8.41758C10.1998 9.12436 12.0294 9.85174 12.0334 9.93723Z" fill="url(#paint4_radial_716_8611)"/>
<path d="M12.0334 9.93723C12.0163 10.2003 11.0923 11.1035 10.769 11.1035C7.77924 11.1035 7.29407 12.916 7.29407 12.916C7.42531 14.4427 8.48665 15.6997 9.77068 16.3649C9.8293 16.3951 9.88836 16.4223 9.94567 16.4495C10.0485 16.4933 10.1517 16.5372 10.2545 16.5762C10.6949 16.7318 11.156 16.8205 11.6226 16.8392C16.8628 17.0857 17.8786 10.5598 14.0965 8.66486C15.0647 8.49606 16.07 8.88672 16.6313 9.28176C15.7126 7.67222 13.9955 6.58575 12.0246 6.58575C11.8999 6.58575 11.7779 6.59628 11.6554 6.60461C10.6007 6.67784 9.59258 7.06775 8.76227 7.72352C8.92283 7.85988 9.10395 8.04139 9.485 8.41758C10.1998 9.12436 12.0294 9.85174 12.0334 9.93723Z" fill="url(#paint5_radial_716_8611)"/>
<path d="M8.27355 7.3732C8.35886 7.42844 8.42886 7.47492 8.4923 7.51745C8.25276 6.67706 8.24264 5.78766 8.46298 4.94202C7.38283 5.43527 6.54286 6.21351 5.93213 6.90231C5.98156 6.90099 7.50664 6.87337 8.27355 7.3732Z" fill="url(#paint6_radial_716_8611)"/>
<path d="M1.5974 12.2132C2.40893 17.0163 6.75448 20.6866 11.6871 20.8269C16.2532 20.9562 19.1681 18.3001 20.3747 15.7089C21.1535 14.0336 21.6942 11.2929 20.702 8.59729V8.57713C20.702 8.57976 20.702 8.58326 20.7042 8.59466C21.0769 11.0355 19.8384 13.4 17.9021 14.999C17.9001 15.0035 17.8982 15.0081 17.8964 15.0126C14.1231 18.0918 10.5125 16.8703 9.78145 16.3718C9.7307 16.3473 9.67951 16.3218 9.62876 16.2955C7.42865 15.2433 6.51999 13.233 6.71467 11.5103C4.85754 11.5103 4.22406 9.93982 4.22406 9.93982C4.22406 9.93982 5.89176 8.74812 8.08969 9.78461C10.1253 10.7448 12.0371 9.94025 12.0371 9.93982C12.0332 9.85432 10.2036 9.12474 9.49008 8.42016C9.10903 8.04398 8.92791 7.86246 8.76735 7.7261C8.68048 7.65248 8.58964 7.58368 8.49524 7.52003C8.43268 7.47619 8.36399 7.43234 8.27649 7.37578C7.50958 6.87595 5.98451 6.90358 5.9342 6.90489H5.92938C5.51246 6.37569 5.54177 4.63024 5.56539 4.26589C5.56058 4.24309 5.25478 4.42504 5.21541 4.45266C4.84751 4.7157 4.50361 5.0109 4.18775 5.33482C3.82832 5.70003 3.49994 6.09469 3.20603 6.51468C2.52986 7.47505 2.05032 8.56021 1.79514 9.70744C1.78683 9.72761 1.41278 11.3643 1.5974 12.2132Z" fill="url(#paint7_radial_716_8611)"/>
<path d="M15.7227 8.05495C16.1065 8.43232 16.4353 8.86215 16.6991 9.3317C16.7538 9.37286 16.8064 9.41676 16.8566 9.46323C19.24 11.6625 17.9932 14.7759 17.8983 14.9995C19.8346 13.4005 21.0731 11.0359 20.7004 8.59511C19.5117 5.62332 17.4958 4.42549 15.8495 1.81805C15.766 1.68652 15.6829 1.55498 15.6015 1.41424C15.5555 1.33488 15.5184 1.26298 15.486 1.19502C15.4178 1.06318 15.3651 0.923844 15.3289 0.779812C15.3292 0.772973 15.327 0.76627 15.3226 0.761005C15.3182 0.755739 15.3121 0.752285 15.3053 0.751313C15.2989 0.749562 15.2921 0.749562 15.2856 0.751313C15.2839 0.752107 15.2823 0.75314 15.2808 0.754382C15.2782 0.754382 15.2756 0.757452 15.2729 0.758328C14.8661 0.952999 12.4546 4.77976 15.7227 8.05495Z" fill="url(#paint8_radial_716_8611)"/>
<path d="M16.8557 9.46108C16.8055 9.4146 16.7529 9.3707 16.6982 9.32955C16.6768 9.31332 16.6545 9.2971 16.6326 9.28088C16.0713 8.88628 15.066 8.49518 14.0978 8.66398C17.8794 10.5589 16.864 17.0848 11.6238 16.8384C11.1573 16.8196 10.6962 16.731 10.2558 16.5753C10.153 16.5367 10.0498 16.4942 9.94697 16.4486C9.88747 16.4214 9.82841 16.3942 9.77197 16.364L9.77897 16.3684C10.51 16.8682 14.1206 18.0897 17.8939 15.0092C17.8939 15.0092 17.8961 15.0035 17.8996 14.9956C17.9932 14.7759 19.24 11.6625 16.8557 9.46108Z" fill="url(#paint9_radial_716_8611)"/>
<path d="M7.29399 12.916C7.29399 12.916 7.77916 11.1035 10.7689 11.1035C11.0922 11.1035 12.0162 10.1994 12.0333 9.93724C12.0503 9.67505 10.1215 10.7422 8.08584 9.78203C5.88791 8.74554 4.22021 9.93724 4.22021 9.93724C4.22021 9.93724 4.85369 11.5078 6.71082 11.5078C6.51614 13.2304 7.4248 15.2389 9.62492 16.2929C9.67391 16.3162 9.72029 16.3421 9.7706 16.3649C8.48658 15.701 7.42655 14.4427 7.29399 12.916Z" fill="url(#paint10_radial_716_8611)"/>
<path d="M21.7429 8.04486C21.2862 6.94305 20.3605 5.75354 19.6338 5.37779C20.2253 6.54011 20.5674 7.70594 20.6982 8.57582C20.6982 8.57582 20.6982 8.58196 20.7004 8.59336C19.5117 5.62332 17.4958 4.42549 15.8495 1.81805C15.766 1.68652 15.6829 1.55498 15.6015 1.41424C15.5555 1.33488 15.5184 1.26298 15.486 1.19502C15.4178 1.06318 15.3651 0.923844 15.3289 0.779812C15.3292 0.772973 15.327 0.76627 15.3226 0.761005C15.3182 0.755739 15.3121 0.752285 15.3053 0.751313C15.2989 0.749562 15.2921 0.749562 15.2856 0.751313C15.2839 0.752107 15.2823 0.75314 15.2808 0.754382C15.2782 0.754382 15.2756 0.757452 15.2729 0.758328L15.2773 0.752629C12.6362 2.30297 11.7402 5.17085 11.658 6.60588C11.7805 6.59755 11.9025 6.58703 12.0272 6.58703C13.9981 6.58703 15.7148 7.6735 16.6339 9.28303C16.0727 8.88843 15.0673 8.49734 14.0992 8.66614C17.8808 10.5611 16.8654 17.0869 11.6252 16.8405C11.1586 16.8218 10.6975 16.7331 10.2572 16.5775C10.1543 16.5389 10.0511 16.4963 9.94829 16.4507C9.88879 16.4236 9.82973 16.3964 9.7733 16.3661L9.7803 16.3705C9.72955 16.346 9.67836 16.3205 9.62761 16.2942C9.67661 16.3175 9.72298 16.3433 9.7733 16.3661C8.48665 15.701 7.42662 14.4427 7.29406 12.916C7.29406 12.916 7.77923 11.1035 10.769 11.1035C11.0923 11.1035 12.0163 10.1994 12.0333 9.93719C12.0294 9.8517 10.1998 9.12212 9.4863 8.41754C9.10525 8.04135 8.92414 7.85984 8.76358 7.72348C8.6767 7.64986 8.58586 7.58106 8.49146 7.51741C8.25193 6.67703 8.2418 5.78762 8.46215 4.94198C7.382 5.43523 6.54202 6.21347 5.93129 6.90227H5.92648C5.50956 6.37307 5.53887 4.62761 5.56249 4.26327C5.55768 4.24047 5.25188 4.42242 5.21251 4.45004C4.84461 4.71307 4.50071 5.00828 4.18485 5.3322C3.82541 5.69741 3.49703 6.09207 3.20313 6.51205C2.52695 7.47242 2.04742 8.55759 1.79224 9.70482C1.78743 9.72762 1.78305 9.75129 1.77824 9.77453C1.75855 9.86704 1.66931 10.3379 1.65706 10.4388C1.65706 10.4313 1.65706 10.4467 1.65706 10.4388C1.57514 10.9253 1.52269 11.4164 1.5 11.9093V11.9633C1.5 17.7823 6.20735 22.5 12.0137 22.5C17.2141 22.5 21.5316 18.7162 22.3773 13.746C22.3948 13.6114 22.4092 13.4755 22.4249 13.3395C22.6341 11.5323 22.4018 9.63291 21.7429 8.04486ZM20.6999 8.5859V8.5973V8.5859Z" fill="url(#paint11_linear_716_8611)"/>
<defs>
<linearGradient id="paint0_linear_716_8611" x1="20.3513" y1="4.11945" x2="2.86044" y2="20.9578" gradientUnits="userSpaceOnUse">
<stop offset="0.05" stop-color="#FFF44F"/>
<stop offset="0.11" stop-color="#FFE847"/>
<stop offset="0.22" stop-color="#FFC830"/>
<stop offset="0.37" stop-color="#FF980E"/>
<stop offset="0.4" stop-color="#FF8B16"/>
<stop offset="0.46" stop-color="#FF672A"/>
<stop offset="0.53" stop-color="#FF3647"/>
<stop offset="0.7" stop-color="#E31587"/>
</linearGradient>
<radialGradient id="paint1_radial_716_8611" cx="0" cy="0" r="1" gradientUnits="userSpaceOnUse" gradientTransform="translate(19.5445 3.16409) scale(21.9185 21.9666)">
<stop offset="0.13" stop-color="#FFBD4F"/>
<stop offset="0.19" stop-color="#FFAC31"/>
<stop offset="0.25" stop-color="#FF9D17"/>
<stop offset="0.28" stop-color="#FF980E"/>
<stop offset="0.4" stop-color="#FF563B"/>
<stop offset="0.47" stop-color="#FF3750"/>
<stop offset="0.71" stop-color="#F5156C"/>
<stop offset="0.78" stop-color="#EB0878"/>
<stop offset="0.86" stop-color="#E50080"/>
</radialGradient>
<radialGradient id="paint2_radial_716_8611" cx="0" cy="0" r="1" gradientUnits="userSpaceOnUse" gradientTransform="translate(11.5354 12.1443) scale(21.9185 21.9666)">
<stop offset="0.3" stop-color="#960E18"/>
<stop offset="0.35" stop-color="#B11927" stop-opacity="0.74"/>
<stop offset="0.43" stop-color="#DB293D" stop-opacity="0.34"/>
<stop offset="0.5" stop-color="#F5334B" stop-opacity="0.09"/>
<stop offset="0.53" stop-color="#FF3750" stop-opacity="0"/>
</radialGradient>
<radialGradient id="paint3_radial_716_8611" cx="0" cy="0" r="1" gradientUnits="userSpaceOnUse" gradientTransform="translate(14.1784 -1.82102) scale(15.879 15.9138)">
<stop offset="0.13" stop-color="#FFF44F"/>
<stop offset="0.25" stop-color="#FFDC3E"/>
<stop offset="0.51" stop-color="#FF9D12"/>
<stop offset="0.53" stop-color="#FF980E"/>
</radialGradient>
<radialGradient id="paint4_radial_716_8611" cx="0" cy="0" r="1" gradientUnits="userSpaceOnUse" gradientTransform="translate(9.11138 17.8823) scale(10.4362 10.4591)">
<stop offset="0.35" stop-color="#3A8EE6"/>
<stop offset="0.47" stop-color="#5C79F0"/>
<stop offset="0.67" stop-color="#9059FF"/>
<stop offset="1" stop-color="#C139E6"/>
</radialGradient>
<radialGradient id="paint5_radial_716_8611" cx="0" cy="0" r="1" gradientUnits="userSpaceOnUse" gradientTransform="translate(11.8503 9.53372) rotate(-13.9265) scale(5.52987 6.50889)">
<stop offset="0.21" stop-color="#9059FF" stop-opacity="0"/>
<stop offset="0.28" stop-color="#8C4FF3" stop-opacity="0.06"/>
<stop offset="0.75" stop-color="#7716A8" stop-opacity="0.45"/>
<stop offset="0.97" stop-color="#6E008B" stop-opacity="0.6"/>
</radialGradient>
<radialGradient id="paint6_radial_716_8611" cx="0" cy="0" r="1" gradientUnits="userSpaceOnUse" gradientTransform="translate(11.2585 2.2653) scale(7.50813 7.52461)">
<stop stop-color="#FFE226"/>
<stop offset="0.12" stop-color="#FFDB27"/>
<stop offset="0.3" stop-color="#FFC82A"/>
<stop offset="0.5" stop-color="#FFA930"/>
<stop offset="0.73" stop-color="#FF7E37"/>
<stop offset="0.79" stop-color="#FF7139"/>
</radialGradient>
<radialGradient id="paint7_radial_716_8611" cx="0" cy="0" r="1" gradientUnits="userSpaceOnUse" gradientTransform="translate(17.1605 -2.50722) scale(32.0332 32.1034)">
<stop offset="0.11" stop-color="#FFF44F"/>
<stop offset="0.46" stop-color="#FF980E"/>
<stop offset="0.62" stop-color="#FF5634"/>
<stop offset="0.72" stop-color="#FF3647"/>
<stop offset="0.9" stop-color="#E31587"/>
</radialGradient>
<radialGradient id="paint8_radial_716_8611" cx="0" cy="0" r="1" gradientUnits="userSpaceOnUse" gradientTransform="translate(14.0639 1.00031) rotate(84.2447) scale(23.3997 15.3407)">
<stop stop-color="#FFF44F"/>
<stop offset="0.06" stop-color="#FFE847"/>
<stop offset="0.17" stop-color="#FFC830"/>
<stop offset="0.3" stop-color="#FF980E"/>
<stop offset="0.36" stop-color="#FF8B16"/>
<stop offset="0.45" stop-color="#FF672A"/>
<stop offset="0.57" stop-color="#FF3647"/>
<stop offset="0.74" stop-color="#E31587"/>
</radialGradient>
<radialGradient id="paint9_radial_716_8611" cx="0" cy="0" r="1" gradientUnits="userSpaceOnUse" gradientTransform="translate(11.0818 5.05207) scale(19.9983 20.0422)">
<stop offset="0.14" stop-color="#FFF44F"/>
<stop offset="0.48" stop-color="#FF980E"/>
<stop offset="0.59" stop-color="#FF5634"/>
<stop offset="0.66" stop-color="#FF3647"/>
<stop offset="0.9" stop-color="#E31587"/>
</radialGradient>
<radialGradient id="paint10_radial_716_8611" cx="0" cy="0" r="1" gradientUnits="userSpaceOnUse" gradientTransform="translate(16.3609 6.22535) scale(21.8883 21.9363)">
<stop offset="0.09" stop-color="#FFF44F"/>
<stop offset="0.23" stop-color="#FFE141"/>
<stop offset="0.51" stop-color="#FFAF1E"/>
<stop offset="0.63" stop-color="#FF980E"/>
</radialGradient>
<linearGradient id="paint11_linear_716_8611" x1="20.1413" y1="4.02914" x2="5.25782" y2="18.8804" gradientUnits="userSpaceOnUse">
<stop offset="0.17" stop-color="#FFF44F" stop-opacity="0.8"/>
<stop offset="0.27" stop-color="#FFF44F" stop-opacity="0.63"/>
<stop offset="0.49" stop-color="#FFF44F" stop-opacity="0.22"/>
<stop offset="0.6" stop-color="#FFF44F" stop-opacity="0"/>
</linearGradient>
</defs>
</svg>
