<svg viewBox="0 0 24 25" fill="none" xmlns="http://www.w3.org/2000/svg">
<g clip-path="url(#clip0_475_20166)">
<rect y="0.199951" width="24" height="24" rx="12" fill="#FFF2E8"/>
<path fill-rule="evenodd" clip-rule="evenodd" d="M-4 0.199951V24.2H28V0.199951H-4Z" fill="#2E42A5"/>
<mask id="mask0_475_20166" maskUnits="userSpaceOnUse" x="-4" y="0" width="32" height="25">
<path fill-rule="evenodd" clip-rule="evenodd" d="M-4 0.199951V24.2H28V0.199951H-4Z" fill="white"/>
</mask>
<g mask="url(#mask0_475_20166)">
<path d="M-7.56323 22.4853L-0.521543 25.4634L28.1597 3.43776L31.874 -0.987722L24.344 -1.98308L12.6456 7.50839L3.22956 13.9034L-7.56323 22.4853Z" fill="white"/>
<path d="M-6.59924 24.5718L-3.01183 26.3L30.5402 -1.39889H25.5031L-6.59924 24.5718Z" fill="#F50100"/>
<path d="M31.5631 22.4853L24.5214 25.4634L-4.15982 3.43776L-7.87415 -0.987722L-0.344074 -1.98308L11.3543 7.50839L20.7703 13.9034L31.5631 22.4853Z" fill="white"/>
<path d="M31.3229 23.9827L27.7355 25.7109L13.4487 13.8516L9.21293 12.5266L-8.23151 -0.972633H-3.19436L14.2403 12.2062L18.8713 13.795L31.3229 23.9827Z" fill="#F50100"/>
<mask id="path-8-inside-1_475_20166" fill="white">
<path fill-rule="evenodd" clip-rule="evenodd" d="M15.7777 -1.80005H8.22215V8.19995H-5.97253V16.2H8.22215V26.2H15.7777V16.2H30.0275V8.19995H15.7777V-1.80005Z"/>
</mask>
<path fill-rule="evenodd" clip-rule="evenodd" d="M15.7777 -1.80005H8.22215V8.19995H-5.97253V16.2H8.22215V26.2H15.7777V16.2H30.0275V8.19995H15.7777V-1.80005Z" fill="#F50100"/>
<path d="M8.22215 -1.80005V-3.80005H6.22215V-1.80005H8.22215ZM15.7777 -1.80005H17.7777V-3.80005H15.7777V-1.80005ZM8.22215 8.19995V10.2H10.2222V8.19995H8.22215ZM-5.97253 8.19995V6.19995H-7.97253V8.19995H-5.97253ZM-5.97253 16.2H-7.97253V18.2H-5.97253V16.2ZM8.22215 16.2H10.2222V14.2H8.22215V16.2ZM8.22215 26.2H6.22215V28.2H8.22215V26.2ZM15.7777 26.2V28.2H17.7777V26.2H15.7777ZM15.7777 16.2V14.2H13.7777V16.2H15.7777ZM30.0275 16.2V18.2H32.0275V16.2H30.0275ZM30.0275 8.19995H32.0275V6.19995H30.0275V8.19995ZM15.7777 8.19995H13.7777V10.2H15.7777V8.19995ZM8.22215 0.199951H15.7777V-3.80005H8.22215V0.199951ZM10.2222 8.19995V-1.80005H6.22215V8.19995H10.2222ZM-5.97253 10.2H8.22215V6.19995H-5.97253V10.2ZM-3.97253 16.2V8.19995H-7.97253V16.2H-3.97253ZM8.22215 14.2H-5.97253V18.2H8.22215V14.2ZM10.2222 26.2V16.2H6.22215V26.2H10.2222ZM15.7777 24.2H8.22215V28.2H15.7777V24.2ZM13.7777 16.2V26.2H17.7777V16.2H13.7777ZM30.0275 14.2H15.7777V18.2H30.0275V14.2ZM28.0275 8.19995V16.2H32.0275V8.19995H28.0275ZM15.7777 10.2H30.0275V6.19995H15.7777V10.2ZM13.7777 -1.80005V8.19995H17.7777V-1.80005H13.7777Z" fill="white" mask="url(#path-8-inside-1_475_20166)"/>
</g>
</g>
<defs>
<clipPath id="clip0_475_20166">
<rect y="0.199951" width="24" height="24" rx="12" fill="white"/>
</clipPath>
</defs>
</svg>
