<?xml version="1.0"?>
<svg xmlns="http://www.w3.org/2000/svg" viewBox="0 0 50 50">
    <path d="M 15 3 C 8.3845336 3 3 8.3845336 3 15 L 3 35 C 3 41.615466 8.3845336 47 15 47 L 35 47 C 41.615466 47 47 41.615466 47 35 L 47 15 C 47 8.3845336 41.615466 3 35 3 L 15 3 z M 15 5 L 35 5 C 40.534534 5 45 9.4654664 45 15 L 45 35 C 45 40.534534 40.534534 45 35 45 L 15 45 C 9.4654664 45 5 40.534534 5 35 L 5 15 C 5 9.4654664 9.4654664 5 15 5 z M 11.615234 18.066406 C 10.912234 18.066406 10.394531 18.567563 10.394531 19.226562 C 10.394531 19.876563 10.912234 20.376953 11.615234 20.376953 C 12.318234 20.376953 12.837891 19.876562 12.837891 19.226562 C 12.837891 18.567562 12.318234 18.066406 11.615234 18.066406 z M 22.037109 18.636719 C 18.398109 18.636719 16.113281 21.18525 16.113281 25.28125 C 16.113281 29.36825 18.354109 31.933594 22.037109 31.933594 C 25.711109 31.933594 27.943359 29.35925 27.943359 25.28125 C 27.943359 21.19425 25.693109 18.637719 22.037109 18.636719 z M 34.966797 18.636719 C 32.198797 18.636719 30.351562 20.139437 30.351562 22.398438 C 30.351562 24.261437 31.397406 25.37025 33.691406 25.90625 L 35.326172 26.302734 C 37.005172 26.697734 37.744141 27.277141 37.744141 28.244141 C 37.744141 29.369141 36.583953 30.185547 35.001953 30.185547 C 33.306858 30.185547 32.128927 29.421639 31.960938 28.21875 L 30.007812 28.21875 C 30.148813 30.48675 32.037609 31.935547 34.849609 31.935547 C 37.855609 31.935547 39.736328 30.416234 39.736328 27.990234 C 39.736328 26.083234 38.6645 25.027875 36.0625 24.421875 L 34.666016 24.078125 C 33.014016 23.691125 32.345703 23.172578 32.345703 22.267578 C 32.345703 21.124578 33.383453 20.378906 34.939453 20.378906 C 36.416453 20.378906 37.434141 21.106391 37.619141 22.275391 L 39.535156 22.275391 C 39.421156 20.139391 37.541797 18.636719 34.966797 18.636719 z M 22.037109 20.472656 C 24.446109 20.472656 25.931641 22.33725 25.931641 25.28125 C 25.931641 28.20725 24.445109 30.097656 22.037109 30.097656 C 19.603109 30.097656 18.126953 28.20825 18.126953 25.28125 C 18.126953 22.33725 19.646109 20.473656 22.037109 20.472656 z M 10.675781 22.056641 L 10.675781 31.626953 L 12.556641 31.626953 L 12.556641 22.056641 L 10.675781 22.056641 z" />
</svg>
