<svg xmlns="http://www.w3.org/2000/svg" viewBox="0 0 439 512">
  <path d="M386.119712,156.730242 C370.064347,142.780281 351.783595,136 330.157025,136 C329.505936,136 327.893921,136.198046 325.5465,136.678707 C322.503277,137.301841 318.703447,138.302203 314.208178,139.682894 C304.574018,142.641958 292.174659,147.212012 277.123351,153.375883 L277.017495,153.419234 L276.911263,153.461651 C261.758047,159.512116 245.989939,162.558559 229.779614,162.558559 C211.299149,162.558559 193.227807,156.873585 175.903761,145.979626 C162.138823,139.328531 147.140762,136 130.61157,136 C101.061111,136 77.4223944,148.331081 57.6414229,174.550721 C36.4952207,202.579972 26,234.696402 26,271.765766 C26,309.305151 33.3533544,345.272258 48.1047848,379.876227 C62.6884785,414.086719 82.9399594,443.458263 108.95713,468.189679 C124.47616,480.393504 138.456561,486 151.170799,486 C154.533907,486 162.645975,484.466213 174.331178,481.27685 C200.919865,470.719918 218.631657,465.477477 230.988981,465.477477 C245.681279,465.477477 261.510955,469.966024 278.849968,478.465403 C292.53536,483.568332 304.046608,486 313.225895,486 C327.395576,486 338.295878,483.059325 346.55719,477.508453 C358.977828,468.273899 371.950788,453.545804 385.155084,433.240369 C393.686799,420.120381 400.645584,407.332306 406.055361,394.884082 C389.52852,385.423615 375.670474,371.483572 364.750207,353.429172 C349.39449,328.041673 341.647383,300.250215 341.647383,270.558559 C341.647383,245.870772 348.475157,221.285986 361.796914,197.06468 C369.833598,182.452568 379.381778,170.480995 390.42853,161.407604 C389.058301,159.813819 387.622289,158.254972 386.119712,156.730242 Z M426.906336,170.36036 C409.975122,175.994022 395.865988,189.071969 384.578512,209.594595 C373.291036,230.11722 367.647383,250.438338 367.647383,270.558559 C367.647383,295.507632 374.097273,318.645539 386.997245,339.972973 C399.897218,361.300407 417.231296,374.780753 439,380.414414 C432.550014,402.144253 421.867384,424.477363 406.951791,447.414414 C392.036197,470.351466 376.919269,487.453397 361.600551,498.720721 C348.700578,507.573618 332.575854,512 313.225895,512 C300.325923,512 285.410553,508.780813 268.479339,502.342342 C253.96687,495.099063 241.470209,491.477477 230.988981,491.477477 C222.926498,491.477477 206.801774,496.306258 182.614325,505.963964 C168.101856,509.988008 157.620785,512 151.170799,512 C131.82084,512 112.068053,503.952032 91.9118457,487.855856 C62.8869072,460.492356 40.3122937,427.898087 24.1873278,390.072072 C8.06236198,352.246057 0,312.811016 0,271.765766 C0,229.110898 12.295102,191.486649 36.8856749,158.891892 C61.4762478,126.297134 92.7179005,110 130.61157,110 C151.574026,110 170.923695,114.426382 188.661157,123.279279 C202.367378,132.132176 216.073393,136.558559 229.779614,136.558559 C242.679587,136.558559 255.176248,134.144168 267.269972,129.315315 C298.713656,116.438374 319.675797,110 330.157025,110 C358.375715,110 382.965919,119.255163 403.928375,137.765766 C413.603354,147.423472 421.262598,158.288228 426.906336,170.36036 Z M219,110 C219,85.5554333 229.658808,61.493174 250.976744,37.8125 C272.29468,17.1873969 298.302172,4.58335625 329,0 C329,29.0279229 318.767544,54.6179448 298.302326,76.7708333 C275.278955,98.9237219 248.84511,110 219,110 Z"/>
</svg>
