<svg xmlns="http://www.w3.org/2000/svg" viewBox="0 0 523 533">
  <path d="M28,257 L220,257 L220,71 L28,98.1685393 L28,257 Z M0,285 L0,73.8516847 L248,38.7589881 L248,285 L0,285 Z M28,434.818182 L220,462 L220,278 L28,278 L28,434.818182 Z M0,459.133371 L0,250 L248,250 L248,494.24322 L0,459.133371 Z M240,464.396226 L495,500 L495,278 L240,278 L240,464.396226 Z M212,488.758398 L212,250 L523,250 L523,532.181039 L212,488.758398 Z M240,68.4299065 L240,256 L495,256 L495,33 L240,68.4299065 Z M212,44.0512774 L523,0.840685529 L523,284 L212,284 L212,44.0512774 Z"/>
</svg>
