<svg xmlns="http://www.w3.org/2000/svg" viewBox="0 0 448 512"><path d="M216 185h16a16 16 0 0 0 16-16v-16a16 16 0 0 0-16-16h-16a16 16 0 0 0-16 16v16a16 16 0 0 0 16 16zm96 96h16a16 16 0 0 0 16-16v-16a16 16 0 0 0-16-16h-16a16 16 0 0 0-16 16v16a16 16 0 0 0 16 16zm-96 0h16a16 16 0 0 0 16-16v-16a16 16 0 0 0-16-16h-16a16 16 0 0 0-16 16v16a16 16 0 0 0 16 16zm-96 0h16a16 16 0 0 0 16-16v-16a16 16 0 0 0-16-16h-16a16 16 0 0 0-16 16v16a16 16 0 0 0 16 16zm96 96h16a16 16 0 0 0 16-16v-16a16 16 0 0 0-16-16h-16a16 16 0 0 0-16 16v16a16 16 0 0 0 16 16zM432 33H16A16 16 0 0 0 0 49v416a16 16 0 0 0 16 16h416a16 16 0 0 0 16-16V49a16 16 0 0 0-16-16zm-16 416H32V65h384z"/></svg>