<svg viewBox="0 0 32 32" xmlns="http://www.w3.org/2000/svg">
<path d="M5 8C5.26522 8 5.51957 7.89464 5.70711 7.70711C5.89464 7.51957 6 7.26522 6 7C6 6.73478 5.89464 6.48043 5.70711 6.29289C5.51957 6.10536 5.26522 6 5 6C4.73478 6 4.48043 6.10536 4.29289 6.29289C4.10536 6.48043 4 6.73478 4 7C4 7.26522 4.10536 7.51957 4.29289 7.70711C4.48043 7.89464 4.73478 8 5 8ZM9 7C9 7.26522 8.89464 7.51957 8.70711 7.70711C8.51957 7.89464 8.26522 8 8 8C7.73478 8 7.48043 7.89464 7.29289 7.70711C7.10536 7.51957 7 7.26522 7 7C7 6.73478 7.10536 6.48043 7.29289 6.29289C7.48043 6.10536 7.73478 6 8 6C8.26522 6 8.51957 6.10536 8.70711 6.29289C8.89464 6.48043 9 6.73478 9 7ZM11 8C11.2652 8 11.5196 7.89464 11.7071 7.70711C11.8946 7.51957 12 7.26522 12 7C12 6.73478 11.8946 6.48043 11.7071 6.29289C11.5196 6.10536 11.2652 6 11 6C10.7348 6 10.4804 6.10536 10.2929 6.29289C10.1054 6.48043 10 6.73478 10 7C10 7.26522 10.1054 7.51957 10.2929 7.70711C10.4804 7.89464 10.7348 8 11 8V8Z" fill="black"/>
<path fill-rule="evenodd" clip-rule="evenodd" d="M1.17157 3.17157C1.92172 2.42143 2.93913 2 4 2H28C29.0609 2 30.0783 2.42143 30.8284 3.17157C31.5786 3.92172 32 4.93913 32 6V26C32 27.0609 31.5786 28.0783 30.8284 28.8284C30.0783 29.5786 29.0609 30 28 30H4C2.93913 30 1.92172 29.5786 1.17157 28.8284C0.421427 28.0783 0 27.0609 0 26V6C0 4.93913 0.421427 3.92172 1.17157 3.17157ZM30 9V6C30 5.46957 29.7893 4.96086 29.4142 4.58579C29.0391 4.21071 28.5304 4 28 4H4C3.46957 4 2.96086 4.21071 2.58579 4.58579C2.21071 4.96086 2 5.46957 2 6V9V10V12V13V26C2 26.5304 2.21071 27.0391 2.58579 27.4142C2.96086 27.7893 3.46957 28 4 28H28C28.5304 28 29.0391 27.7893 29.4142 27.4142C29.7893 27.0391 30 26.5304 30 26V13V12V10V9Z" fill="black"/>
<g clip-path="url(#clip0_113_146)">
<path d="M16 11C16.1326 11 16.2598 11.0527 16.3536 11.1464C16.4473 11.2402 16.5 11.3674 16.5 11.5V13C16.5 13.1326 16.4473 13.2598 16.3536 13.3536C16.2598 13.4473 16.1326 13.5 16 13.5C15.8674 13.5 15.7402 13.4473 15.6464 13.3536C15.5527 13.2598 15.5 13.1326 15.5 13V11.5C15.5 11.3674 15.5527 11.2402 15.6464 11.1464C15.7402 11.0527 15.8674 11 16 11V11ZM11.732 12.732C11.8258 12.6383 11.9529 12.5856 12.0855 12.5856C12.2181 12.5856 12.3452 12.6383 12.439 12.732L13.354 13.646C13.4479 13.7399 13.5006 13.8672 13.5006 14C13.5006 14.1328 13.4479 14.2601 13.354 14.354C13.2601 14.4479 13.1328 14.5006 13 14.5006C12.8672 14.5006 12.7399 14.4479 12.646 14.354L11.732 13.439C11.6383 13.3452 11.5856 13.2181 11.5856 13.0855C11.5856 12.9529 11.6383 12.8258 11.732 12.732V12.732ZM10 17C10 16.8674 10.0527 16.7402 10.1464 16.6464C10.2402 16.5527 10.3674 16.5 10.5 16.5H12.086C12.2186 16.5 12.3458 16.5527 12.4396 16.6464C12.5333 16.7402 12.586 16.8674 12.586 17C12.586 17.1326 12.5333 17.2598 12.4396 17.3536C12.3458 17.4473 12.2186 17.5 12.086 17.5H10.5C10.3674 17.5 10.2402 17.4473 10.1464 17.3536C10.0527 17.2598 10 17.1326 10 17ZM19.5 17C19.5 16.8674 19.5527 16.7402 19.6464 16.6464C19.7402 16.5527 19.8674 16.5 20 16.5H21.5C21.6326 16.5 21.7598 16.5527 21.8536 16.6464C21.9473 16.7402 22 16.8674 22 17C22 17.1326 21.9473 17.2598 21.8536 17.3536C21.7598 17.4473 21.6326 17.5 21.5 17.5H20C19.8674 17.5 19.7402 17.4473 19.6464 17.3536C19.5527 17.2598 19.5 17.1326 19.5 17ZM20.254 12.754C20.1847 12.6851 20.0921 12.6448 19.9944 12.6411C19.8968 12.6374 19.8013 12.6705 19.727 12.734L15.547 16.31C15.4507 16.3924 15.3727 16.4941 15.318 16.6084C15.2633 16.7227 15.233 16.8472 15.2292 16.9739C15.2254 17.1006 15.2481 17.2267 15.2959 17.3441C15.3436 17.4615 15.4153 17.5676 15.5065 17.6557C15.5976 17.7438 15.7062 17.8118 15.8252 17.8555C15.9441 17.8992 16.0709 17.9175 16.1974 17.9094C16.3239 17.9012 16.4473 17.8667 16.5597 17.8081C16.672 17.7495 16.7709 17.6681 16.85 17.569L20.284 13.272C20.3437 13.1972 20.3738 13.103 20.3685 13.0075C20.3631 12.9119 20.3227 12.8216 20.255 12.754H20.254Z" fill="black"/>
<path fill-rule="evenodd" clip-rule="evenodd" d="M14.6639 24.889C13.6278 24.7136 12.6365 24.3358 11.7464 23.7772C10.8564 23.2186 10.085 22.4902 9.47649 21.6336C8.24747 19.9034 7.75607 17.756 8.1104 15.6635C8.46473 13.5711 9.63576 11.7051 11.3659 10.4761C13.096 9.2471 15.2435 8.7557 17.3359 9.11003C19.4285 9.46436 21.2946 10.6354 22.5237 12.3657C23.7528 14.0959 24.2442 16.2435 23.8899 18.336C23.5356 20.4286 22.3645 22.2947 20.6343 23.5238C18.9041 24.7529 16.7565 25.2444 14.6639 24.89V24.889ZM9.9989 20.606C11.8226 19.5508 13.8929 18.9967 15.9999 19C18.1859 19 20.2359 19.585 22.0009 20.606C22.6388 19.5439 22.9833 18.3314 22.9993 17.0926C23.0153 15.8537 22.7022 14.6328 22.092 13.5545C21.4818 12.4762 20.5963 11.5792 19.526 10.9551C18.4557 10.331 17.2389 10.0021 15.9999 10.0021C14.7609 10.0021 13.5441 10.331 12.4738 10.9551C11.4035 11.5792 10.518 12.4762 9.90781 13.5545C9.29758 14.6328 8.98448 15.8537 9.00048 17.0926C9.01649 18.3314 9.36102 19.5439 9.9989 20.606V20.606Z" fill="black"/>
</g>
<defs>
<clipPath id="clip0_113_146">
<rect width="16" height="16" fill="white" transform="translate(8 9)"/>
</clipPath>
</defs>
</svg>
