<?xml version="1.0" encoding="utf-8"?>
<svg version="1.1" xmlns="http://www.w3.org/2000/svg" xmlns:xlink="http://www.w3.org/1999/xlink" x="0px" y="0px" viewBox="0 0 1000 1000" enable-background="new 0 0 1000 1000" xml:space="preserve">
<metadata> Svg Vector Icons : http://www.onlinewebfonts.com/icon </metadata>
<g><path d="M702.5,826.7H598V722.1h107.8v-68.6H78.6V157h816.7v277.7h55.5c3.3,0,9.8,0,13.1,3.3V134.1c0-26.1-19.6-45.7-45.7-45.7H55.7C29.6,88.4,10,108,10,134.1v542.3c0,26.1,19.6,45.7,45.7,45.7h323.4v104.5H255c-22.9,0-42.5,19.6-42.5,42.5c0,22.9,19.6,42.5,42.5,42.5h460.6c-6.5-9.8-9.8-19.6-9.8-29.4v-55.5H702.5z"/><path d="M960.6,457.5H767.9c-16.3,0-29.4,13.1-29.4,29.4v392c0,16.3,13.1,29.4,29.4,29.4h192.7c16.3,0,29.4-13.1,29.4-29.4v-392C990,473.9,976.9,457.5,960.6,457.5z M862.6,892c-6.5,0-13.1-6.5-13.1-13.1s6.5-13.1,13.1-13.1c6.5,0,13.1,6.5,13.1,13.1S869.1,892,862.6,892z M970.4,849.5H754.8V522.9h215.6V849.5z"/></g>
</svg>