<svg viewBox="0 0 32 32" xmlns="http://www.w3.org/2000/svg">
<path d="M5 8C5.26522 8 5.51957 7.89464 5.70711 7.70711C5.89464 7.51957 6 7.26522 6 7C6 6.73478 5.89464 6.48043 5.70711 6.29289C5.51957 6.10536 5.26522 6 5 6C4.73478 6 4.48043 6.10536 4.29289 6.29289C4.10536 6.48043 4 6.73478 4 7C4 7.26522 4.10536 7.51957 4.29289 7.70711C4.48043 7.89464 4.73478 8 5 8ZM9 7C9 7.26522 8.89464 7.51957 8.70711 7.70711C8.51957 7.89464 8.26522 8 8 8C7.73478 8 7.48043 7.89464 7.29289 7.70711C7.10536 7.51957 7 7.26522 7 7C7 6.73478 7.10536 6.48043 7.29289 6.29289C7.48043 6.10536 7.73478 6 8 6C8.26522 6 8.51957 6.10536 8.70711 6.29289C8.89464 6.48043 9 6.73478 9 7ZM11 8C11.2652 8 11.5196 7.89464 11.7071 7.70711C11.8946 7.51957 12 7.26522 12 7C12 6.73478 11.8946 6.48043 11.7071 6.29289C11.5196 6.10536 11.2652 6 11 6C10.7348 6 10.4804 6.10536 10.2929 6.29289C10.1054 6.48043 10 6.73478 10 7C10 7.26522 10.1054 7.51957 10.2929 7.70711C10.4804 7.89464 10.7348 8 11 8V8Z" fill="black"/>
<path fill-rule="evenodd" clip-rule="evenodd" d="M1.17157 3.17157C1.92172 2.42143 2.93913 2 4 2H28C29.0609 2 30.0783 2.42143 30.8284 3.17157C31.5786 3.92172 32 4.93913 32 6V26C32 27.0609 31.5786 28.0783 30.8284 28.8284C30.0783 29.5786 29.0609 30 28 30H4C2.93913 30 1.92172 29.5786 1.17157 28.8284C0.421427 28.0783 0 27.0609 0 26V6C0 4.93913 0.421427 3.92172 1.17157 3.17157ZM30 9V6C30 5.46957 29.7893 4.96086 29.4142 4.58579C29.0391 4.21071 28.5304 4 28 4H4C3.46957 4 2.96086 4.21071 2.58579 4.58579C2.21071 4.96086 2 5.46957 2 6V9V10V12V13V26C2 26.5304 2.21071 27.0391 2.58579 27.4142C2.96086 27.7893 3.46957 28 4 28H28C28.5304 28 29.0391 27.7893 29.4142 27.4142C29.7893 27.0391 30 26.5304 30 26V13V12V10V9Z" fill="black"/>
<path d="M23 17.5C23 19.4891 22.2098 21.3968 20.8033 22.8033C19.3968 24.2098 17.4891 25 15.5 25C13.5109 25 11.6032 24.2098 10.1967 22.8033C8.79018 21.3968 8 19.4891 8 17.5C8 15.5109 8.79018 13.6032 10.1967 12.1967C11.6032 10.7902 13.5109 10 15.5 10C17.4891 10 19.3968 10.7902 20.8033 12.1967C22.2098 13.6032 23 15.5109 23 17.5V17.5ZM19.2781 14.6594C19.2112 14.5926 19.1314 14.5401 19.0437 14.5049C18.9559 14.4697 18.862 14.4525 18.7675 14.4544C18.673 14.4564 18.5798 14.4773 18.4936 14.5161C18.4073 14.5548 18.3298 14.6106 18.2656 14.68L15.0097 18.8284L13.0475 16.8653C12.9142 16.7411 12.7379 16.6735 12.5558 16.6767C12.3736 16.6799 12.1998 16.7537 12.071 16.8825C11.9422 17.0114 11.8684 17.1852 11.8651 17.3673C11.8619 17.5495 11.9295 17.7258 12.0537 17.8591L14.5344 20.3406C14.6012 20.4073 14.6808 20.4599 14.7684 20.4952C14.8559 20.5305 14.9497 20.5477 15.0441 20.546C15.1385 20.5442 15.2316 20.5235 15.3178 20.485C15.4041 20.4465 15.4816 20.391 15.5459 20.3219L19.2884 15.6437C19.416 15.5111 19.4865 15.3337 19.4848 15.1496C19.483 14.9656 19.4092 14.7896 19.2791 14.6594H19.2781Z" fill="black"/>
</svg>
