<svg viewBox="0 0 32 32" xmlns="http://www.w3.org/2000/svg">
<path d="M5 8C5.26522 8 5.51957 7.89464 5.70711 7.70711C5.89464 7.51957 6 7.26522 6 7C6 6.73478 5.89464 6.48043 5.70711 6.29289C5.51957 6.10536 5.26522 6 5 6C4.73478 6 4.48043 6.10536 4.29289 6.29289C4.10536 6.48043 4 6.73478 4 7C4 7.26522 4.10536 7.51957 4.29289 7.70711C4.48043 7.89464 4.73478 8 5 8ZM9 7C9 7.26522 8.89464 7.51957 8.70711 7.70711C8.51957 7.89464 8.26522 8 8 8C7.73478 8 7.48043 7.89464 7.29289 7.70711C7.10536 7.51957 7 7.26522 7 7C7 6.73478 7.10536 6.48043 7.29289 6.29289C7.48043 6.10536 7.73478 6 8 6C8.26522 6 8.51957 6.10536 8.70711 6.29289C8.89464 6.48043 9 6.73478 9 7ZM11 8C11.2652 8 11.5196 7.89464 11.7071 7.70711C11.8946 7.51957 12 7.26522 12 7C12 6.73478 11.8946 6.48043 11.7071 6.29289C11.5196 6.10536 11.2652 6 11 6C10.7348 6 10.4804 6.10536 10.2929 6.29289C10.1054 6.48043 10 6.73478 10 7C10 7.26522 10.1054 7.51957 10.2929 7.70711C10.4804 7.89464 10.7348 8 11 8V8Z" fill="black"/>
<path fill-rule="evenodd" clip-rule="evenodd" d="M1.17157 3.17157C1.92172 2.42143 2.93913 2 4 2H28C29.0609 2 30.0783 2.42143 30.8284 3.17157C31.5786 3.92172 32 4.93913 32 6V26C32 27.0609 31.5786 28.0783 30.8284 28.8284C30.0783 29.5786 29.0609 30 28 30H4C2.93913 30 1.92172 29.5786 1.17157 28.8284C0.421427 28.0783 0 27.0609 0 26V6C0 4.93913 0.421427 3.92172 1.17157 3.17157ZM30 9V6C30 5.46957 29.7893 4.96086 29.4142 4.58579C29.0391 4.21071 28.5304 4 28 4H4C3.46957 4 2.96086 4.21071 2.58579 4.58579C2.21071 4.96086 2 5.46957 2 6V9V10V12V13V26C2 26.5304 2.21071 27.0391 2.58579 27.4142C2.96086 27.7893 3.46957 28 4 28H28C28.5304 28 29.0391 27.7893 29.4142 27.4142C29.7893 27.0391 30 26.5304 30 26V13V12V10V9Z" fill="black"/>
<g clip-path="url(#clip0_113_165)">
<path d="M20 9H12C11.4696 9 10.9609 9.21071 10.5858 9.58579C10.2107 9.96086 10 10.4696 10 11V23C10 23.5304 10.2107 24.0391 10.5858 24.4142C10.9609 24.7893 11.4696 25 12 25H20C20.5304 25 21.0391 24.7893 21.4142 24.4142C21.7893 24.0391 22 23.5304 22 23V11C22 10.4696 21.7893 9.96086 21.4142 9.58579C21.0391 9.21071 20.5304 9 20 9V9ZM14.646 14.646C14.6925 14.5995 14.7477 14.5626 14.8084 14.5375C14.8692 14.5123 14.9343 14.4994 15 14.4994C15.0657 14.4994 15.1308 14.5123 15.1916 14.5375C15.2523 14.5626 15.3075 14.5995 15.354 14.646C15.4005 14.6925 15.4374 14.7477 15.4625 14.8084C15.4877 14.8692 15.5006 14.9343 15.5006 15C15.5006 15.0657 15.4877 15.1308 15.4625 15.1916C15.4374 15.2523 15.4005 15.3075 15.354 15.354L13.707 17L15.354 18.646C15.4479 18.7399 15.5006 18.8672 15.5006 19C15.5006 19.1328 15.4479 19.2601 15.354 19.354C15.2601 19.4479 15.1328 19.5006 15 19.5006C14.8672 19.5006 14.7399 19.4479 14.646 19.354L12.646 17.354C12.5994 17.3076 12.5625 17.2524 12.5373 17.1916C12.5121 17.1309 12.4991 17.0658 12.4991 17C12.4991 16.9342 12.5121 16.8691 12.5373 16.8084C12.5625 16.7476 12.5994 16.6924 12.646 16.646L14.646 14.646V14.646ZM17.354 14.646L19.354 16.646C19.4006 16.6924 19.4375 16.7476 19.4627 16.8084C19.4879 16.8691 19.5009 16.9342 19.5009 17C19.5009 17.0658 19.4879 17.1309 19.4627 17.1916C19.4375 17.2524 19.4006 17.3076 19.354 17.354L17.354 19.354C17.3075 19.4005 17.2523 19.4374 17.1916 19.4625C17.1308 19.4877 17.0657 19.5006 17 19.5006C16.9343 19.5006 16.8692 19.4877 16.8084 19.4625C16.7477 19.4374 16.6925 19.4005 16.646 19.354C16.5995 19.3075 16.5626 19.2523 16.5375 19.1916C16.5123 19.1308 16.4994 19.0657 16.4994 19C16.4994 18.9343 16.5123 18.8692 16.5375 18.8084C16.5626 18.7477 16.5995 18.6925 16.646 18.646L18.293 17L16.646 15.354C16.5521 15.2601 16.4994 15.1328 16.4994 15C16.4994 14.8672 16.5521 14.7399 16.646 14.646C16.7399 14.5521 16.8672 14.4994 17 14.4994C17.1328 14.4994 17.2601 14.5521 17.354 14.646V14.646Z" fill="black"/>
</g>
<defs>
<clipPath id="clip0_113_165">
<rect width="16" height="16" fill="white" transform="translate(8 9)"/>
</clipPath>
</defs>
</svg>
