<svg xmlns="http://www.w3.org/2000/svg" viewBox="0 0 384 512"><path d="M369.941 97.941l-83.882-83.882A48 48 0 0 0 252.118 0H48C21.49 0 0 21.49 0 48v416c0 26.51 21.49 48 48 48h288c26.51 0 48-21.49 48-48V131.882a48 48 0 0 0-14.059-33.941zm-22.627 22.628a15.89 15.89 0 0 1 4.195 7.431H256V32.491a15.88 15.88 0 0 1 7.431 4.195l83.883 83.883zM336 480H48c-8.837 0-16-7.163-16-16V48c0-8.837 7.163-16 16-16h176v104c0 13.255 10.745 24 24 24h104v304c0 8.837-7.163 16-16 16zm-161.471-67.404l-25.928-7.527a5.1 5.1 0 0 1-3.476-6.32l58.027-199.869a5.1 5.1 0 0 1 6.32-3.476l25.927 7.527a5.1 5.1 0 0 1 3.476 6.32L180.849 409.12a5.1 5.1 0 0 1-6.32 3.476zm-48.446-47.674l18.492-19.724a5.101 5.101 0 0 0-.351-7.317L105.725 304l38.498-33.881a5.1 5.1 0 0 0 .351-7.317l-18.492-19.724a5.1 5.1 0 0 0-7.209-.233L57.61 300.279a5.1 5.1 0 0 0 0 7.441l61.263 57.434a5.1 5.1 0 0 0 7.21-.232zm139.043.232l61.262-57.434a5.1 5.1 0 0 0 0-7.441l-61.262-57.434a5.1 5.1 0 0 0-7.209.233l-18.492 19.724a5.101 5.101 0 0 0 .351 7.317L278.275 304l-38.499 33.881a5.1 5.1 0 0 0-.351 7.317l18.492 19.724a5.1 5.1 0 0 0 7.209.232z"/></svg>