<svg viewBox="0 0 32 32" xmlns="http://www.w3.org/2000/svg">
<path d="M5 8C5.26522 8 5.51957 7.89464 5.70711 7.70711C5.89464 7.51957 6 7.26522 6 7C6 6.73478 5.89464 6.48043 5.70711 6.29289C5.51957 6.10536 5.26522 6 5 6C4.73478 6 4.48043 6.10536 4.29289 6.29289C4.10536 6.48043 4 6.73478 4 7C4 7.26522 4.10536 7.51957 4.29289 7.70711C4.48043 7.89464 4.73478 8 5 8ZM9 7C9 7.26522 8.89464 7.51957 8.70711 7.70711C8.51957 7.89464 8.26522 8 8 8C7.73478 8 7.48043 7.89464 7.29289 7.70711C7.10536 7.51957 7 7.26522 7 7C7 6.73478 7.10536 6.48043 7.29289 6.29289C7.48043 6.10536 7.73478 6 8 6C8.26522 6 8.51957 6.10536 8.70711 6.29289C8.89464 6.48043 9 6.73478 9 7ZM11 8C11.2652 8 11.5196 7.89464 11.7071 7.70711C11.8946 7.51957 12 7.26522 12 7C12 6.73478 11.8946 6.48043 11.7071 6.29289C11.5196 6.10536 11.2652 6 11 6C10.7348 6 10.4804 6.10536 10.2929 6.29289C10.1054 6.48043 10 6.73478 10 7C10 7.26522 10.1054 7.51957 10.2929 7.70711C10.4804 7.89464 10.7348 8 11 8V8Z" fill="black"/>
<path fill-rule="evenodd" clip-rule="evenodd" d="M1.17157 3.17157C1.92172 2.42143 2.93913 2 4 2H28C29.0609 2 30.0783 2.42143 30.8284 3.17157C31.5786 3.92172 32 4.93913 32 6V26C32 27.0609 31.5786 28.0783 30.8284 28.8284C30.0783 29.5786 29.0609 30 28 30H4C2.93913 30 1.92172 29.5786 1.17157 28.8284C0.421427 28.0783 0 27.0609 0 26V6C0 4.93913 0.421427 3.92172 1.17157 3.17157ZM30 9V6C30 5.46957 29.7893 4.96086 29.4142 4.58579C29.0391 4.21071 28.5304 4 28 4H4C3.46957 4 2.96086 4.21071 2.58579 4.58579C2.21071 4.96086 2 5.46957 2 6V9V10V12V13V26C2 26.5304 2.21071 27.0391 2.58579 27.4142C2.96086 27.7893 3.46957 28 4 28H28C28.5304 28 29.0391 27.7893 29.4142 27.4142C29.7893 27.0391 30 26.5304 30 26V13V12V10V9Z" fill="black"/>
<path d="M20.7188 10H14.5444C14.1715 10.0003 13.8141 10.1487 13.5506 10.4125L11.2866 12.6747C11.156 12.8053 11.0525 12.9604 10.9818 13.1311C10.9112 13.3018 10.8749 13.4847 10.875 13.6694V23.5938C10.875 23.9667 11.0232 24.3244 11.2869 24.5881C11.5506 24.8518 11.9083 25 12.2813 25H20.7188C21.0917 25 21.4494 24.8518 21.7131 24.5881C21.9768 24.3244 22.125 23.9667 22.125 23.5938V11.4062C22.125 11.0333 21.9768 10.6756 21.7131 10.4119C21.4494 10.1482 21.0917 10 20.7188 10V10ZM14.1563 12.5781C14.3427 12.5781 14.5216 12.6522 14.6534 12.7841C14.7853 12.9159 14.8594 13.0948 14.8594 13.2812V15.1562C14.8594 15.3427 14.7853 15.5216 14.6534 15.6534C14.5216 15.7853 14.3427 15.8594 14.1563 15.8594C13.9698 15.8594 13.7909 15.7853 13.6591 15.6534C13.5272 15.5216 13.4531 15.3427 13.4531 15.1562V13.2812C13.4531 13.0948 13.5272 12.9159 13.6591 12.7841C13.7909 12.6522 13.9698 12.5781 14.1563 12.5781V12.5781ZM16.0312 12.5781C16.2177 12.5781 16.3966 12.6522 16.5284 12.7841C16.6603 12.9159 16.7344 13.0948 16.7344 13.2812V15.1562C16.7344 15.3427 16.6603 15.5216 16.5284 15.6534C16.3966 15.7853 16.2177 15.8594 16.0312 15.8594C15.8448 15.8594 15.6659 15.7853 15.5341 15.6534C15.4022 15.5216 15.3281 15.3427 15.3281 15.1562V13.2812C15.3281 13.0948 15.4022 12.9159 15.5341 12.7841C15.6659 12.6522 15.8448 12.5781 16.0312 12.5781V12.5781ZM18.6094 13.2812V15.1562C18.6094 15.3427 18.5353 15.5216 18.4034 15.6534C18.2716 15.7853 18.0927 15.8594 17.9062 15.8594C17.7198 15.8594 17.5409 15.7853 17.4091 15.6534C17.2772 15.5216 17.2031 15.3427 17.2031 15.1562V13.2812C17.2031 13.0948 17.2772 12.9159 17.4091 12.7841C17.5409 12.6522 17.7198 12.5781 17.9062 12.5781C18.0927 12.5781 18.2716 12.6522 18.4034 12.7841C18.5353 12.9159 18.6094 13.0948 18.6094 13.2812V13.2812ZM19.7812 12.5781C19.9677 12.5781 20.1466 12.6522 20.2784 12.7841C20.4103 12.9159 20.4844 13.0948 20.4844 13.2812V15.1562C20.4844 15.3427 20.4103 15.5216 20.2784 15.6534C20.1466 15.7853 19.9677 15.8594 19.7812 15.8594C19.5948 15.8594 19.4159 15.7853 19.2841 15.6534C19.1522 15.5216 19.0781 15.3427 19.0781 15.1562V13.2812C19.0781 13.0948 19.1522 12.9159 19.2841 12.7841C19.4159 12.6522 19.5948 12.5781 19.7812 12.5781V12.5781Z" fill="black"/>
</svg>
