<svg xmlns="http://www.w3.org/2000/svg" viewBox="0 0 16 16">
<g clip-path="url(#clip0_322_2510)">
<path fill-rule="evenodd" clip-rule="evenodd" d="M1.95801 6.66413C1.96504 7.49187 2.2347 8.29603 2.72816 8.96069C2.73328 8.96759 2.73825 8.97457 2.74304 8.98161C2.78908 9.01786 2.83075 9.06126 2.86636 9.1115C3.15601 9.52018 3.70303 10.0709 4.39747 10.5164C5.09214 10.9619 5.88124 11.2684 6.65956 11.2684C7.00474 11.2684 7.28456 11.5482 7.28456 11.8934C7.28456 12.2386 7.00474 12.5184 6.65956 12.5184C5.56421 12.5184 4.54129 12.0937 3.72259 11.5685C2.90365 11.0432 2.23594 10.3837 1.84653 9.8343L1.83975 9.82454C1.79721 9.79103 1.75836 9.75139 1.72452 9.70581C1.07259 8.82771 0.716628 7.76512 0.708027 6.6715L0.708008 6.66659C0.708008 3.25163 4.11207 0.708252 7.99967 0.708252C11.8873 0.708252 15.2913 3.25163 15.2913 6.66659V6.6804L15.2912 6.68039C15.2799 7.19201 15.1962 7.69945 15.0425 8.18758C14.9389 8.51683 14.5879 8.69972 14.2587 8.59608C13.9294 8.49244 13.7465 8.14151 13.8502 7.81226C13.9677 7.43895 14.032 7.05096 14.0413 6.65972C14.0366 4.18409 11.4689 1.95825 7.99967 1.95825C4.52843 1.95825 1.9597 4.18674 1.95801 6.66413ZM9.95801 13.1206V8.77774L12.9688 11.8542L11.651 11.4139C11.3837 11.3246 11.0897 11.4253 10.9332 11.6597L9.95801 13.1206ZM10.0931 7.13325C9.95984 7.02219 9.77556 6.93506 9.55301 6.93506L9.53463 6.93533C9.31312 6.94185 9.10288 7.03444 8.94853 7.19346C8.79426 7.35242 8.70798 7.56522 8.70801 7.78673V7.787V14.4534C8.70801 14.4607 8.70814 14.4681 8.7084 14.4754C8.71458 14.6507 8.7743 14.8199 8.87953 14.9602C8.98476 15.1005 9.13044 15.2052 9.29697 15.2602C9.36022 15.2811 9.4264 15.2917 9.49301 15.2917H9.55301C9.68626 15.2917 9.81768 15.2607 9.93687 15.2011C10.056 15.1415 10.1597 15.055 10.2397 14.9484C10.2465 14.9392 10.2531 14.9299 10.2595 14.9204L11.7078 12.7508L14.2483 13.5995C14.308 13.6195 14.3704 13.6303 14.4333 13.6316C14.6107 13.6353 14.7848 13.583 14.9308 13.4823C15.0769 13.3815 15.1875 13.2373 15.247 13.0701C15.3065 12.903 15.3119 12.7213 15.2623 12.5509C15.2179 12.3982 15.1315 12.2615 15.0134 12.1561L10.1397 7.17624C10.1249 7.16113 10.1094 7.14679 10.0931 7.13325Z" fill="black"/>
</g>
<defs>
<clipPath id="clip0_322_2510">
<rect width="16" height="16" fill="none"/>
</clipPath>
</defs>
</svg>