<svg width="23" height="20" viewBox="0 0 23 20" fill="none" xmlns="http://www.w3.org/2000/svg">
<path d="M14.1784 4.38745H9.12144C8.56244 4.38745 8.10944 3.93445 8.10944 3.37545C8.10944 2.81745 8.56244 2.36445 9.12144 2.36445H14.1784C14.7374 2.36445 15.1904 2.81745 15.1904 3.37545C15.1904 3.93445 14.7374 4.38745 14.1784 4.38745ZM0.523438 0.340454V18.0425C0.523438 18.8765 1.20644 19.5595 2.04044 19.5595H21.2594C22.0934 19.5595 22.7764 18.8765 22.7764 18.0425V0.340454H0.523438Z" fill="#EEEEEE"/>
<path d="M11.6504 8.4325C8.25838 8.4325 5.27738 10.1895 3.56738 12.8435V19.5585H8.25238L11.6504 13.6725H20.2114C18.6204 10.5625 15.3834 8.4325 11.6504 8.4325Z" fill="#DB4437"/>
<path d="M3.56453 12.8474C2.60053 14.3454 2.04053 16.1284 2.04053 18.0424C2.04053 18.5584 2.08153 19.0654 2.16053 19.5594H7.47853L3.56453 12.8474Z" fill="#0F9D58"/>
<path d="M21.2594 18.0425C21.2594 16.4695 20.8814 14.9845 20.2114 13.6735H11.6504L15.0484 19.5595H21.1394C21.2184 19.0655 21.2594 18.5585 21.2594 18.0425Z" fill="#FFCD40"/>
<path d="M11.6505 13.6735C9.23747 13.6735 7.28247 15.6295 7.28247 18.0425C7.28247 18.5765 7.37847 19.0875 7.55347 19.5595H8.50147C8.27947 19.1005 8.15547 18.5855 8.15547 18.0425C8.15547 16.1115 9.72047 14.5475 11.6505 14.5475C13.5805 14.5475 15.1455 16.1115 15.1455 18.0425C15.1455 18.5865 15.0215 19.1005 14.7995 19.5595H15.7475C15.9225 19.0865 16.0185 18.5755 16.0185 18.0425C16.0185 15.6295 14.0625 13.6735 11.6505 13.6735Z" fill="#F1F1F1"/>
<path d="M11.6505 14.5475C9.72052 14.5475 8.15552 16.1115 8.15552 18.0425C8.15552 18.5865 8.27952 19.1005 8.50152 19.5595H14.7995C15.0215 19.1005 15.1455 18.5855 15.1455 18.0425C15.1445 16.1115 13.5805 14.5475 11.6505 14.5475Z" fill="#4285F4"/>
<path opacity="0.05" d="M0.523438 0.340454V9.95045H22.7764V0.340454H0.523438ZM14.1784 4.38745H9.12144C8.56244 4.38745 8.10944 3.93445 8.10944 3.37545C8.10944 2.81745 8.56244 2.36445 9.12144 2.36445H14.1794C14.7384 2.36445 15.1914 2.81745 15.1914 3.37545C15.1904 3.93445 14.7374 4.38745 14.1784 4.38745Z" fill="#212121"/>
<path opacity="0.02" d="M22.7764 9.82349H0.523438V9.95049H22.7764V9.82349Z" fill="#212121"/>
<path opacity="0.05" d="M22.7764 9.95044H0.523438V10.0774H22.7764V9.95044Z" fill="white"/>
<path opacity="0.02" d="M0.523438 0.340454V0.467454H22.7764V0.340454H0.523438ZM14.1784 4.38745H9.12144C8.58444 4.38745 8.14544 3.96745 8.11344 3.43945C8.11044 3.46045 8.10944 3.48145 8.10944 3.50245C8.10944 4.06145 8.56244 4.51345 9.12144 4.51345H14.1784C14.7374 4.51345 15.1904 4.06145 15.1904 3.50245C15.1904 3.48145 15.1894 3.46045 15.1864 3.43945C15.1544 3.96645 14.7164 4.38745 14.1784 4.38745Z" fill="#212121"/>
<path opacity="0.1" d="M21.2594 19.4324H2.04044C1.20644 19.4324 0.523438 18.7505 0.523438 17.9155V18.0424C0.523438 18.8764 1.20644 19.5595 2.04044 19.5595H21.2594C22.0934 19.5595 22.7764 18.8764 22.7764 18.0424V17.9155C22.7764 18.7505 22.0934 19.4324 21.2594 19.4324ZM9.12144 2.36345H14.1784C14.7154 2.36345 15.1544 2.78345 15.1864 3.31145C15.1874 3.29045 15.1904 3.26945 15.1904 3.24845C15.1904 2.68945 14.7374 2.23645 14.1784 2.23645H9.12144C8.56244 2.23645 8.10944 2.68945 8.10944 3.24845C8.10944 3.26945 8.11044 3.29045 8.11344 3.31145C8.14544 2.78345 8.58344 2.36345 9.12144 2.36345Z" fill="#231F20"/>
</svg>
