<svg xmlns="http://www.w3.org/2000/svg" width="800" height="450" viewBox="0 0 800 450" fill="none">
  <rect width="800" height="450" fill="#F8FAFC"/>

  <!-- top nav -->
  <rect width="800" height="56" fill="#FFFFFF"/>
  <rect y="55" width="800" height="1" fill="#E5E7EB"/>
  <circle cx="32" cy="28" r="10" fill="#394EFF"/>
  <rect x="50" y="21" width="86" height="14" rx="4" fill="#111827"/>
  <rect x="300" y="18" width="200" height="22" rx="11" fill="#F1F5F9" stroke="#E5E7EB"/>
  <rect x="316" y="26" width="90" height="6" rx="3" fill="#CBD5E1"/>
  <rect x="690" y="18" width="44" height="22" rx="6" fill="#EEF2FF"/>
  <rect x="700" y="26" width="24" height="6" rx="3" fill="#394EFF"/>
  <rect x="748" y="20" width="20" height="18" rx="4" fill="#E2E8F0"/>

  <!-- section title -->
  <rect x="32" y="84" width="150" height="16" rx="4" fill="#0F172A"/>
  <rect x="636" y="86" width="132" height="24" rx="6" fill="#FFFFFF" stroke="#E5E7EB"/>
  <rect x="650" y="95" width="80" height="6" rx="3" fill="#CBD5E1"/>

  <!-- product cards -->
  <g>
    <rect x="32" y="128" width="174" height="278" rx="12" fill="#FFFFFF" stroke="#E5E7EB"/>
    <rect x="44" y="140" width="150" height="140" rx="8" fill="#DBEAFE"/>
    <rect x="92" y="186" width="54" height="54" rx="8" fill="#93C5FD"/>
    <rect x="44" y="296" width="120" height="12" rx="4" fill="#1E293B"/>
    <rect x="44" y="318" width="70" height="10" rx="4" fill="#94A3B8"/>
    <rect x="44" y="344" width="60" height="16" rx="4" fill="#0F172A"/>
    <rect x="44" y="372" width="150" height="22" rx="6" fill="#394EFF"/>
    <rect x="96" y="380" width="46" height="6" rx="3" fill="#FFFFFF"/>
  </g>
  <g>
    <rect x="218" y="128" width="174" height="278" rx="12" fill="#FFFFFF" stroke="#E5E7EB"/>
    <rect x="230" y="140" width="150" height="140" rx="8" fill="#FEF3C7"/>
    <rect x="278" y="186" width="54" height="54" rx="8" fill="#FCD34D"/>
    <rect x="230" y="296" width="132" height="12" rx="4" fill="#1E293B"/>
    <rect x="230" y="318" width="80" height="10" rx="4" fill="#94A3B8"/>
    <rect x="230" y="344" width="56" height="16" rx="4" fill="#0F172A"/>
    <rect x="230" y="372" width="150" height="22" rx="6" fill="#394EFF"/>
    <rect x="282" y="380" width="46" height="6" rx="3" fill="#FFFFFF"/>
  </g>
  <g>
    <rect x="404" y="128" width="174" height="278" rx="12" fill="#FFFFFF" stroke="#E5E7EB"/>
    <rect x="416" y="140" width="150" height="140" rx="8" fill="#DCFCE7"/>
    <rect x="464" y="186" width="54" height="54" rx="8" fill="#86EFAC"/>
    <rect x="416" y="296" width="110" height="12" rx="4" fill="#1E293B"/>
    <rect x="416" y="318" width="64" height="10" rx="4" fill="#94A3B8"/>
    <rect x="416" y="344" width="64" height="16" rx="4" fill="#0F172A"/>
    <rect x="416" y="372" width="150" height="22" rx="6" fill="#394EFF"/>
    <rect x="468" y="380" width="46" height="6" rx="3" fill="#FFFFFF"/>
  </g>
  <g>
    <rect x="590" y="128" width="178" height="278" rx="12" fill="#FFFFFF" stroke="#E5E7EB"/>
    <rect x="602" y="140" width="154" height="140" rx="8" fill="#FCE7F3"/>
    <rect x="652" y="186" width="54" height="54" rx="8" fill="#F9A8D4"/>
    <rect x="602" y="296" width="120" height="12" rx="4" fill="#1E293B"/>
    <rect x="602" y="318" width="72" height="10" rx="4" fill="#94A3B8"/>
    <rect x="602" y="344" width="58" height="16" rx="4" fill="#0F172A"/>
    <rect x="602" y="372" width="154" height="22" rx="6" fill="#394EFF"/>
    <rect x="656" y="380" width="46" height="6" rx="3" fill="#FFFFFF"/>
  </g>
</svg>
