<svg width="522" height="226" viewBox="0 0 522 226" fill="none" xmlns="http://www.w3.org/2000/svg">
<g clip-path="url(#clip0_595_6993)">
<rect width="521.25" height="225" transform="translate(0.125 0.5)" fill="#EBF4F5"/>
<path d="M102.125 88.5754C102.125 82.3622 107.162 77.3254 113.375 77.3254H494.375C500.588 77.3254 505.625 82.3622 505.625 88.5754V183.075C505.625 189.289 500.588 194.325 494.375 194.325H113.375C107.162 194.325 102.125 189.289 102.125 183.075V88.5754Z" fill="white"/>
<path d="M137.445 117.736V119.575H128.41V117.736H137.445ZM128.867 102.513V119.575H126.605V102.513H128.867ZM136.25 109.849V111.689H128.41V109.849H136.25ZM137.328 102.513V104.365H128.41V102.513H137.328ZM141.383 106.896L144.16 111.513L146.973 106.896H149.516L145.367 113.154L149.645 119.575H147.137L144.207 114.818L141.277 119.575H138.758L143.023 113.154L138.887 106.896H141.383ZM157.133 106.896V108.56H150.277V106.896H157.133ZM152.598 103.814H154.766V116.435C154.766 116.865 154.832 117.189 154.965 117.407C155.098 117.626 155.27 117.771 155.48 117.841C155.691 117.911 155.918 117.947 156.16 117.947C156.34 117.947 156.527 117.931 156.723 117.9C156.926 117.861 157.078 117.829 157.18 117.806L157.191 119.575C157.02 119.63 156.793 119.681 156.512 119.728C156.238 119.782 155.906 119.81 155.516 119.81C154.984 119.81 154.496 119.704 154.051 119.493C153.605 119.282 153.25 118.931 152.984 118.439C152.727 117.939 152.598 117.267 152.598 116.423V103.814ZM164.938 119.81C164.055 119.81 163.254 119.661 162.535 119.365C161.824 119.06 161.211 118.634 160.695 118.087C160.188 117.54 159.797 116.892 159.523 116.142C159.25 115.392 159.113 114.572 159.113 113.681V113.189C159.113 112.157 159.266 111.24 159.57 110.435C159.875 109.622 160.289 108.935 160.812 108.372C161.336 107.81 161.93 107.384 162.594 107.095C163.258 106.806 163.945 106.661 164.656 106.661C165.562 106.661 166.344 106.818 167 107.13C167.664 107.443 168.207 107.88 168.629 108.443C169.051 108.997 169.363 109.654 169.566 110.411C169.77 111.161 169.871 111.982 169.871 112.872V113.845H160.402V112.075H167.703V111.911C167.672 111.349 167.555 110.802 167.352 110.271C167.156 109.74 166.844 109.302 166.414 108.958C165.984 108.615 165.398 108.443 164.656 108.443C164.164 108.443 163.711 108.548 163.297 108.759C162.883 108.962 162.527 109.267 162.23 109.673C161.934 110.079 161.703 110.575 161.539 111.161C161.375 111.747 161.293 112.423 161.293 113.189V113.681C161.293 114.282 161.375 114.849 161.539 115.38C161.711 115.904 161.957 116.365 162.277 116.763C162.605 117.161 163 117.474 163.461 117.7C163.93 117.927 164.461 118.04 165.055 118.04C165.82 118.04 166.469 117.884 167 117.572C167.531 117.259 167.996 116.841 168.395 116.318L169.707 117.361C169.434 117.775 169.086 118.169 168.664 118.544C168.242 118.919 167.723 119.224 167.105 119.458C166.496 119.693 165.773 119.81 164.938 119.81ZM174.57 109.603V119.575H172.402V106.896H174.453L174.57 109.603ZM174.055 112.755L173.152 112.72C173.16 111.853 173.289 111.052 173.539 110.318C173.789 109.575 174.141 108.931 174.594 108.384C175.047 107.837 175.586 107.415 176.211 107.118C176.844 106.814 177.543 106.661 178.309 106.661C178.934 106.661 179.496 106.747 179.996 106.919C180.496 107.083 180.922 107.349 181.273 107.716C181.633 108.083 181.906 108.56 182.094 109.146C182.281 109.724 182.375 110.431 182.375 111.267V119.575H180.195V111.243C180.195 110.579 180.098 110.048 179.902 109.65C179.707 109.243 179.422 108.95 179.047 108.771C178.672 108.583 178.211 108.49 177.664 108.49C177.125 108.49 176.633 108.603 176.188 108.829C175.75 109.056 175.371 109.368 175.051 109.767C174.738 110.165 174.492 110.622 174.312 111.138C174.141 111.646 174.055 112.185 174.055 112.755ZM193.051 116.212C193.051 115.9 192.98 115.611 192.84 115.345C192.707 115.072 192.43 114.825 192.008 114.607C191.594 114.38 190.969 114.185 190.133 114.021C189.43 113.872 188.793 113.697 188.223 113.493C187.66 113.29 187.18 113.044 186.781 112.755C186.391 112.466 186.09 112.126 185.879 111.736C185.668 111.345 185.562 110.888 185.562 110.365C185.562 109.865 185.672 109.392 185.891 108.947C186.117 108.501 186.434 108.107 186.84 107.763C187.254 107.419 187.75 107.15 188.328 106.954C188.906 106.759 189.551 106.661 190.262 106.661C191.277 106.661 192.145 106.841 192.863 107.2C193.582 107.56 194.133 108.04 194.516 108.642C194.898 109.236 195.09 109.896 195.09 110.622H192.922C192.922 110.271 192.816 109.931 192.605 109.603C192.402 109.267 192.102 108.99 191.703 108.771C191.312 108.552 190.832 108.443 190.262 108.443C189.66 108.443 189.172 108.536 188.797 108.724C188.43 108.904 188.16 109.134 187.988 109.415C187.824 109.697 187.742 109.993 187.742 110.306C187.742 110.54 187.781 110.751 187.859 110.939C187.945 111.118 188.094 111.286 188.305 111.443C188.516 111.591 188.812 111.732 189.195 111.865C189.578 111.997 190.066 112.13 190.66 112.263C191.699 112.497 192.555 112.779 193.227 113.107C193.898 113.435 194.398 113.837 194.727 114.314C195.055 114.79 195.219 115.368 195.219 116.048C195.219 116.603 195.102 117.111 194.867 117.572C194.641 118.032 194.309 118.431 193.871 118.767C193.441 119.095 192.926 119.353 192.324 119.54C191.73 119.72 191.062 119.81 190.32 119.81C189.203 119.81 188.258 119.611 187.484 119.212C186.711 118.814 186.125 118.298 185.727 117.665C185.328 117.032 185.129 116.365 185.129 115.661H187.309C187.34 116.255 187.512 116.728 187.824 117.079C188.137 117.423 188.52 117.669 188.973 117.818C189.426 117.958 189.875 118.029 190.32 118.029C190.914 118.029 191.41 117.95 191.809 117.794C192.215 117.638 192.523 117.423 192.734 117.15C192.945 116.876 193.051 116.564 193.051 116.212ZM200.422 106.896V119.575H198.242V106.896H200.422ZM198.078 103.532C198.078 103.181 198.184 102.884 198.395 102.642C198.613 102.4 198.934 102.279 199.355 102.279C199.77 102.279 200.086 102.4 200.305 102.642C200.531 102.884 200.645 103.181 200.645 103.532C200.645 103.868 200.531 104.157 200.305 104.4C200.086 104.634 199.77 104.751 199.355 104.751C198.934 104.751 198.613 104.634 198.395 104.4C198.184 104.157 198.078 103.868 198.078 103.532ZM203.328 113.376V113.107C203.328 112.193 203.461 111.345 203.727 110.564C203.992 109.775 204.375 109.091 204.875 108.513C205.375 107.927 205.98 107.474 206.691 107.154C207.402 106.825 208.199 106.661 209.082 106.661C209.973 106.661 210.773 106.825 211.484 107.154C212.203 107.474 212.812 107.927 213.312 108.513C213.82 109.091 214.207 109.775 214.473 110.564C214.738 111.345 214.871 112.193 214.871 113.107V113.376C214.871 114.29 214.738 115.138 214.473 115.919C214.207 116.7 213.82 117.384 213.312 117.97C212.812 118.548 212.207 119.001 211.496 119.329C210.793 119.65 209.996 119.81 209.105 119.81C208.215 119.81 207.414 119.65 206.703 119.329C205.992 119.001 205.383 118.548 204.875 117.97C204.375 117.384 203.992 116.7 203.727 115.919C203.461 115.138 203.328 114.29 203.328 113.376ZM205.496 113.107V113.376C205.496 114.009 205.57 114.607 205.719 115.169C205.867 115.724 206.09 116.216 206.387 116.646C206.691 117.075 207.07 117.415 207.523 117.665C207.977 117.907 208.504 118.029 209.105 118.029C209.699 118.029 210.219 117.907 210.664 117.665C211.117 117.415 211.492 117.075 211.789 116.646C212.086 116.216 212.309 115.724 212.457 115.169C212.613 114.607 212.691 114.009 212.691 113.376V113.107C212.691 112.482 212.613 111.892 212.457 111.337C212.309 110.775 212.082 110.279 211.777 109.849C211.48 109.411 211.105 109.068 210.652 108.818C210.207 108.568 209.684 108.443 209.082 108.443C208.488 108.443 207.965 108.568 207.512 108.818C207.066 109.068 206.691 109.411 206.387 109.849C206.09 110.279 205.867 110.775 205.719 111.337C205.57 111.892 205.496 112.482 205.496 113.107ZM219.758 109.603V119.575H217.59V106.896H219.641L219.758 109.603ZM219.242 112.755L218.34 112.72C218.348 111.853 218.477 111.052 218.727 110.318C218.977 109.575 219.328 108.931 219.781 108.384C220.234 107.837 220.773 107.415 221.398 107.118C222.031 106.814 222.73 106.661 223.496 106.661C224.121 106.661 224.684 106.747 225.184 106.919C225.684 107.083 226.109 107.349 226.461 107.716C226.82 108.083 227.094 108.56 227.281 109.146C227.469 109.724 227.562 110.431 227.562 111.267V119.575H225.383V111.243C225.383 110.579 225.285 110.048 225.09 109.65C224.895 109.243 224.609 108.95 224.234 108.771C223.859 108.583 223.398 108.49 222.852 108.49C222.312 108.49 221.82 108.603 221.375 108.829C220.938 109.056 220.559 109.368 220.238 109.767C219.926 110.165 219.68 110.622 219.5 111.138C219.328 111.646 219.242 112.185 219.242 112.755ZM238.238 116.212C238.238 115.9 238.168 115.611 238.027 115.345C237.895 115.072 237.617 114.825 237.195 114.607C236.781 114.38 236.156 114.185 235.32 114.021C234.617 113.872 233.98 113.697 233.41 113.493C232.848 113.29 232.367 113.044 231.969 112.755C231.578 112.466 231.277 112.126 231.066 111.736C230.855 111.345 230.75 110.888 230.75 110.365C230.75 109.865 230.859 109.392 231.078 108.947C231.305 108.501 231.621 108.107 232.027 107.763C232.441 107.419 232.938 107.15 233.516 106.954C234.094 106.759 234.738 106.661 235.449 106.661C236.465 106.661 237.332 106.841 238.051 107.2C238.77 107.56 239.32 108.04 239.703 108.642C240.086 109.236 240.277 109.896 240.277 110.622H238.109C238.109 110.271 238.004 109.931 237.793 109.603C237.59 109.267 237.289 108.99 236.891 108.771C236.5 108.552 236.02 108.443 235.449 108.443C234.848 108.443 234.359 108.536 233.984 108.724C233.617 108.904 233.348 109.134 233.176 109.415C233.012 109.697 232.93 109.993 232.93 110.306C232.93 110.54 232.969 110.751 233.047 110.939C233.133 111.118 233.281 111.286 233.492 111.443C233.703 111.591 234 111.732 234.383 111.865C234.766 111.997 235.254 112.13 235.848 112.263C236.887 112.497 237.742 112.779 238.414 113.107C239.086 113.435 239.586 113.837 239.914 114.314C240.242 114.79 240.406 115.368 240.406 116.048C240.406 116.603 240.289 117.111 240.055 117.572C239.828 118.032 239.496 118.431 239.059 118.767C238.629 119.095 238.113 119.353 237.512 119.54C236.918 119.72 236.25 119.81 235.508 119.81C234.391 119.81 233.445 119.611 232.672 119.212C231.898 118.814 231.312 118.298 230.914 117.665C230.516 117.032 230.316 116.365 230.316 115.661H232.496C232.527 116.255 232.699 116.728 233.012 117.079C233.324 117.423 233.707 117.669 234.16 117.818C234.613 117.958 235.062 118.029 235.508 118.029C236.102 118.029 236.598 117.95 236.996 117.794C237.402 117.638 237.711 117.423 237.922 117.15C238.133 116.876 238.238 116.564 238.238 116.212Z" fill="black"/>
<g opacity="0.2">
<path d="M477.5 105.45L466.25 116.7" stroke="black" stroke-width="1.8" stroke-linecap="round" stroke-linejoin="round"/>
<path d="M466.25 105.45L477.5 116.7" stroke="black" stroke-width="1.8" stroke-linecap="round" stroke-linejoin="round"/>
</g>
<path d="M128.352 172.564V149.254L148.678 160.816L128.352 172.564Z" fill="white"/>
<path d="M146.74 160.555L129.549 150.466V170.644L146.74 160.555ZM149.086 158.47C149.825 158.898 150.281 159.693 150.281 160.555C150.281 161.417 149.825 162.213 149.086 162.641L130.239 173.704C128.699 174.609 126.587 173.575 126.587 171.618V149.492C126.587 147.535 128.699 146.502 130.239 147.407L149.086 158.47Z" fill="#122AF5"/>
<path d="M139.656 159.999C139.855 160.113 139.978 160.325 139.978 160.555C139.978 160.785 139.855 160.997 139.656 161.111L134.573 164.061C134.157 164.303 133.588 164.027 133.588 163.505V157.605C133.588 157.083 134.157 156.807 134.573 157.049L139.656 159.999Z" fill="#3EAAAF"/>
<g filter="url(#filter0_d_595_6993)">
<circle cx="140.336" cy="153.408" r="3.55263" fill="#CC0000"/>
<circle cx="140.336" cy="153.408" r="3.55263" stroke="white" stroke-width="1.06683"/>
</g>
<g clip-path="url(#clip1_595_6993)">
<path d="M169.997 164.23C169.997 163.923 169.949 163.649 169.854 163.41C169.765 163.171 169.604 162.952 169.372 162.754C169.139 162.555 168.811 162.364 168.387 162.179C167.97 161.988 167.437 161.793 166.788 161.595C166.077 161.376 165.42 161.134 164.819 160.867C164.224 160.594 163.705 160.279 163.26 159.924C162.816 159.561 162.471 159.148 162.225 158.683C161.979 158.211 161.855 157.668 161.855 157.052C161.855 156.444 161.982 155.89 162.235 155.391C162.495 154.892 162.86 154.462 163.332 154.099C163.811 153.73 164.375 153.447 165.024 153.248C165.673 153.043 166.391 152.941 167.177 152.941C168.285 152.941 169.238 153.146 170.038 153.556C170.845 153.966 171.463 154.516 171.894 155.207C172.332 155.897 172.55 156.659 172.55 157.493H169.997C169.997 157.001 169.891 156.567 169.679 156.191C169.474 155.808 169.16 155.508 168.736 155.289C168.319 155.07 167.789 154.961 167.146 154.961C166.538 154.961 166.032 155.053 165.629 155.238C165.226 155.422 164.925 155.672 164.727 155.986C164.528 156.301 164.429 156.656 164.429 157.052C164.429 157.333 164.494 157.589 164.624 157.822C164.754 158.047 164.952 158.259 165.219 158.457C165.485 158.649 165.82 158.83 166.224 159.001C166.627 159.172 167.102 159.336 167.649 159.493C168.476 159.739 169.197 160.012 169.813 160.313C170.428 160.607 170.94 160.942 171.351 161.318C171.761 161.694 172.068 162.121 172.273 162.6C172.479 163.072 172.581 163.608 172.581 164.21C172.581 164.839 172.455 165.406 172.202 165.912C171.949 166.411 171.586 166.838 171.115 167.194C170.65 167.542 170.089 167.812 169.433 168.004C168.784 168.188 168.059 168.281 167.259 168.281C166.542 168.281 165.834 168.185 165.137 167.993C164.446 167.802 163.817 167.511 163.25 167.122C162.683 166.725 162.231 166.233 161.896 165.645C161.562 165.051 161.394 164.357 161.394 163.564H163.968C163.968 164.049 164.05 164.463 164.214 164.804C164.385 165.146 164.621 165.427 164.921 165.645C165.222 165.857 165.571 166.014 165.967 166.117C166.371 166.219 166.801 166.271 167.259 166.271C167.861 166.271 168.363 166.185 168.767 166.014C169.177 165.844 169.484 165.604 169.689 165.297C169.895 164.989 169.997 164.634 169.997 164.23ZM177.093 159.114V172.341H174.622V156.981H176.898L177.093 159.114ZM184.322 162.426V162.641C184.322 163.448 184.226 164.196 184.035 164.886C183.85 165.57 183.573 166.168 183.204 166.681C182.842 167.187 182.394 167.58 181.861 167.86C181.328 168.14 180.712 168.281 180.015 168.281C179.325 168.281 178.72 168.154 178.2 167.901C177.688 167.641 177.253 167.276 176.898 166.804C176.542 166.332 176.255 165.779 176.037 165.143C175.825 164.5 175.674 163.796 175.585 163.031V162.2C175.674 161.386 175.825 160.648 176.037 159.985C176.255 159.322 176.542 158.751 176.898 158.273C177.253 157.794 177.688 157.425 178.2 157.165C178.713 156.906 179.311 156.776 179.995 156.776C180.692 156.776 181.311 156.912 181.851 157.186C182.391 157.452 182.845 157.835 183.214 158.334C183.583 158.826 183.86 159.421 184.045 160.118C184.229 160.809 184.322 161.578 184.322 162.426ZM181.851 162.641V162.426C181.851 161.913 181.803 161.438 181.707 161C181.611 160.556 181.461 160.166 181.256 159.831C181.051 159.496 180.788 159.237 180.466 159.052C180.152 158.861 179.772 158.765 179.328 158.765C178.891 158.765 178.515 158.84 178.2 158.99C177.886 159.134 177.623 159.336 177.411 159.595C177.199 159.855 177.035 160.159 176.918 160.508C176.802 160.85 176.72 161.222 176.672 161.626V163.615C176.754 164.107 176.895 164.558 177.093 164.969C177.291 165.379 177.571 165.707 177.934 165.953C178.303 166.192 178.774 166.312 179.349 166.312C179.793 166.312 180.172 166.216 180.487 166.025C180.801 165.833 181.058 165.57 181.256 165.235C181.461 164.893 181.611 164.5 181.707 164.056C181.803 163.612 181.851 163.14 181.851 162.641ZM185.952 162.651V162.415C185.952 161.615 186.068 160.874 186.301 160.19C186.533 159.5 186.868 158.902 187.306 158.396C187.75 157.883 188.29 157.487 188.926 157.206C189.568 156.919 190.293 156.776 191.1 156.776C191.913 156.776 192.638 156.919 193.273 157.206C193.916 157.487 194.459 157.883 194.904 158.396C195.348 158.902 195.687 159.5 195.919 160.19C196.151 160.874 196.268 161.615 196.268 162.415V162.651C196.268 163.451 196.151 164.193 195.919 164.876C195.687 165.56 195.348 166.158 194.904 166.671C194.459 167.177 193.919 167.573 193.284 167.86C192.648 168.14 191.927 168.281 191.12 168.281C190.307 168.281 189.579 168.14 188.936 167.86C188.3 167.573 187.76 167.177 187.316 166.671C186.872 166.158 186.533 165.56 186.301 164.876C186.068 164.193 185.952 163.451 185.952 162.651ZM188.423 162.415V162.651C188.423 163.15 188.475 163.622 188.577 164.066C188.68 164.51 188.84 164.9 189.059 165.235C189.278 165.57 189.558 165.833 189.9 166.025C190.242 166.216 190.648 166.312 191.12 166.312C191.578 166.312 191.975 166.216 192.31 166.025C192.651 165.833 192.932 165.57 193.15 165.235C193.369 164.9 193.53 164.51 193.632 164.066C193.742 163.622 193.796 163.15 193.796 162.651V162.415C193.796 161.923 193.742 161.458 193.632 161.021C193.53 160.576 193.366 160.183 193.14 159.842C192.921 159.5 192.641 159.233 192.299 159.042C191.964 158.844 191.564 158.744 191.1 158.744C190.635 158.744 190.231 158.844 189.89 159.042C189.555 159.233 189.278 159.5 189.059 159.842C188.84 160.183 188.68 160.576 188.577 161.021C188.475 161.458 188.423 161.923 188.423 162.415ZM203.425 156.981V158.785H197.17V156.981H203.425ZM198.975 154.263H201.446V165.01C201.446 165.351 201.494 165.615 201.589 165.799C201.692 165.977 201.832 166.096 202.01 166.158C202.188 166.219 202.396 166.25 202.635 166.25C202.806 166.25 202.97 166.24 203.127 166.219C203.285 166.199 203.411 166.178 203.507 166.158L203.517 168.045C203.312 168.106 203.073 168.161 202.799 168.209C202.533 168.257 202.225 168.281 201.876 168.281C201.309 168.281 200.807 168.181 200.369 167.983C199.932 167.778 199.59 167.447 199.344 166.989C199.098 166.531 198.975 165.922 198.975 165.163V154.263Z" fill="black" fill-opacity="0.85"/>
</g>
<rect x="402.125" y="136.45" width="42" height="42" rx="13.5" fill="#E2E4F6"/>
<path d="M431.654 166.561H414.705L413.959 162.9L416.468 161.747L419.247 159.035V152.526H417.01L415.112 150.763L416.468 147.916H430.028V151.78L427.383 153.204V160.052L431.654 162.9V166.561Z" fill="white"/>
<path d="M423.125 166.825V173.075" stroke="black" stroke-width="1.5" stroke-linecap="round" stroke-linejoin="round"/>
<path d="M414.375 166.825H431.875V164.625C431.875 164.16 431.745 163.705 431.5 163.309C431.255 162.914 430.904 162.595 430.487 162.388L428.263 161.263C427.846 161.056 427.495 160.737 427.25 160.342C427.005 159.946 426.875 159.491 426.875 159.025V153.075H428.125C428.788 153.075 429.424 152.812 429.893 152.343C430.362 151.874 430.625 151.238 430.625 150.575C430.625 149.912 430.362 149.277 429.893 148.808C429.424 148.339 428.788 148.075 428.125 148.075H418.125C417.462 148.075 416.826 148.339 416.357 148.808C415.888 149.277 415.625 149.912 415.625 150.575C415.625 151.238 415.888 151.874 416.357 152.343C416.826 152.812 417.462 153.075 418.125 153.075H419.375V159.025C419.375 159.491 419.245 159.946 419 160.342C418.755 160.737 418.404 161.056 417.987 161.263L415.763 162.388C415.346 162.595 414.995 162.914 414.75 163.309C414.505 163.705 414.375 164.16 414.375 164.625V166.825Z" stroke="black" stroke-width="1.5" stroke-linecap="round" stroke-linejoin="round"/>
<path d="M470.469 153.522C470.469 153.895 470.617 154.253 470.881 154.516C471.144 154.78 471.502 154.928 471.875 154.928C472.248 154.928 472.606 154.78 472.869 154.516C473.133 154.253 473.281 153.895 473.281 153.522C473.281 153.149 473.133 152.791 472.869 152.528C472.606 152.264 472.248 152.116 471.875 152.116C471.502 152.116 471.144 152.264 470.881 152.528C470.617 152.791 470.469 153.149 470.469 153.522ZM470.469 160.553C470.469 160.926 470.617 161.284 470.881 161.548C471.144 161.811 471.502 161.959 471.875 161.959C472.248 161.959 472.606 161.811 472.869 161.548C473.133 161.284 473.281 160.926 473.281 160.553C473.281 160.18 473.133 159.823 472.869 159.559C472.606 159.295 472.248 159.147 471.875 159.147C471.502 159.147 471.144 159.295 470.881 159.559C470.617 159.823 470.469 160.18 470.469 160.553V160.553ZM470.469 167.584C470.469 167.957 470.617 168.315 470.881 168.579C471.144 168.843 471.502 168.991 471.875 168.991C472.248 168.991 472.606 168.843 472.869 168.579C473.133 168.315 473.281 167.957 473.281 167.584C473.281 167.212 473.133 166.854 472.869 166.59C472.606 166.326 472.248 166.178 471.875 166.178C471.502 166.178 471.144 166.326 470.881 166.59C470.617 166.854 470.469 167.212 470.469 167.584V167.584Z" fill="black" fill-opacity="0.85"/>
<path d="M428.009 192.78L430.708 195.726L429.973 184.68L430.708 173.633L434.023 172.774L436.723 173.633L437.951 182.716H441.387L444.456 183.33L445.806 184.68L450.224 183.33L453.047 186.275H455.502H459.675V189.957V199.163L455.502 206.404L445.806 210.332L434.759 209.35L425.922 202.231L422.363 195.726L424.327 192.78H428.009Z" fill="white"/>
<path d="M459.875 194.9C459.875 198.878 458.295 202.693 455.482 205.507C452.669 208.32 448.853 209.9 444.875 209.9" stroke="black" stroke-width="2.25" stroke-linecap="round" stroke-linejoin="round"/>
<path d="M452.375 189.275V187.4C452.375 186.405 451.98 185.452 451.277 184.748C450.573 184.045 449.62 183.65 448.625 183.65C447.63 183.65 446.677 184.045 445.973 184.748C445.27 185.452 444.875 186.405 444.875 187.4" stroke="black" stroke-width="2.25" stroke-linecap="round" stroke-linejoin="round"/>
<path d="M444.875 187.4V185.525C444.875 184.53 444.48 183.577 443.777 182.873C443.073 182.17 442.12 181.775 441.125 181.775C440.13 181.775 439.177 182.17 438.473 182.873C437.77 183.577 437.375 184.53 437.375 185.525V187.4" stroke="black" stroke-width="2.25" stroke-linecap="round" stroke-linejoin="round"/>
<path d="M437.375 186.462V176.15C437.375 175.155 436.98 174.202 436.277 173.498C435.573 172.795 434.62 172.4 433.625 172.4C432.63 172.4 431.677 172.795 430.973 173.498C430.27 174.202 429.875 175.155 429.875 176.15V194.9" stroke="black" stroke-width="2.25" stroke-linecap="round" stroke-linejoin="round"/>
<path d="M452.376 189.275C452.376 188.28 452.771 187.327 453.474 186.623C454.177 185.92 455.131 185.525 456.126 185.525C457.12 185.525 458.074 185.92 458.777 186.623C459.481 187.327 459.876 188.28 459.876 189.275V194.9C459.876 198.878 458.295 202.693 455.482 205.507C452.669 208.32 448.854 209.9 444.876 209.9H441.126C435.876 209.9 432.688 208.287 429.894 205.512L423.144 198.762C422.499 198.048 422.154 197.113 422.179 196.15C422.204 195.188 422.599 194.272 423.281 193.593C423.963 192.913 424.88 192.522 425.842 192.5C426.805 192.478 427.738 192.827 428.451 193.475L431.751 196.775" stroke="black" stroke-width="2.25" stroke-linecap="round" stroke-linejoin="round"/>
<rect width="531" height="58.5" transform="translate(-8.875 0.825439)" fill="white"/>
<rect x="9.125" y="12.0754" width="396" height="36" rx="18" fill="#F1F3F4"/>
<path d="M387.413 27.4762L382.875 27.0825L381.103 22.9106C380.785 22.1512 379.697 22.1512 379.378 22.9106L377.607 27.0918L373.078 27.4762C372.253 27.5418 371.916 28.5731 372.544 29.1168L375.985 32.0981L374.953 36.5231C374.766 37.3293 375.638 37.9668 376.35 37.5356L380.241 35.1918L384.132 37.545C384.844 37.9762 385.716 37.3387 385.528 36.5325L384.497 32.0981L387.938 29.1168C388.566 28.5731 388.238 27.5418 387.413 27.4762V27.4762ZM380.241 33.4387L376.716 35.5668L377.653 31.5543L374.541 28.8543L378.647 28.4981L380.241 24.72L381.844 28.5075L385.95 28.8637L382.838 31.5637L383.775 35.5762L380.241 33.4387Z" fill="#6B6C6E"/>
<rect x="423.125" y="9.82544" width="40.5" height="40.5" rx="20.25" fill="#E2E4F6"/>
<path d="M451.164 28.7911H449.962V23.4883H444.659V22.2863C444.659 21.1285 443.829 20.0768 442.68 19.9619C441.354 19.8293 440.24 20.8634 440.24 22.1626V23.4883H434.946V28.6143H436.175C437.333 28.6143 438.384 29.3921 438.605 30.5234C438.897 32.0435 437.739 33.3869 436.263 33.3869H434.938V38.5129H440.064V37.2756C440.064 36.1178 440.841 35.0661 441.973 34.8452C443.493 34.5535 444.836 35.7113 444.836 37.1872V38.5129H449.962V33.2101H451.288C452.587 33.2101 453.621 32.0965 453.489 30.7708C453.374 29.6219 452.313 28.7911 451.164 28.7911V28.7911Z" fill="#6B6C6E"/>
<path fill-rule="evenodd" clip-rule="evenodd" d="M499.062 21.6379H482.188V38.5129H499.062V21.6379ZM493.036 24.0487H484.598V36.1022H493.036V24.0487Z" fill="#6B6C6E"/>
</g>
<defs>
<filter id="filter0_d_595_6993" x="136.25" y="149.322" width="8.17188" height="9.06028" filterUnits="userSpaceOnUse" color-interpolation-filters="sRGB">
<feFlood flood-opacity="0" result="BackgroundImageFix"/>
<feColorMatrix in="SourceAlpha" type="matrix" values="0 0 0 0 0 0 0 0 0 0 0 0 0 0 0 0 0 0 127 0" result="hardAlpha"/>
<feOffset dy="0.888158"/>
<feComposite in2="hardAlpha" operator="out"/>
<feColorMatrix type="matrix" values="0 0 0 0 0 0 0 0 0 0 0 0 0 0 0 0 0 0 0.25 0"/>
<feBlend mode="normal" in2="BackgroundImageFix" result="effect1_dropShadow_595_6993"/>
<feBlend mode="normal" in="SourceGraphic" in2="effect1_dropShadow_595_6993" result="shape"/>
</filter>
<clipPath id="clip0_595_6993">
<rect width="521.25" height="225" fill="white" transform="translate(0.125 0.5)"/>
</clipPath>
<clipPath id="clip1_595_6993">
<rect width="44" height="45" fill="white" transform="translate(160.625 138.075)"/>
</clipPath>
</defs>
</svg>
