<svg width="522" height="226" viewBox="0 0 522 226" fill="none" xmlns="http://www.w3.org/2000/svg">
<g clip-path="url(#clip0_595_7038)">
<path d="M-246 8C-246 3.85786 -242.642 0.5 -238.5 0.5H481.773V198.5C481.773 202.642 478.415 206 474.273 206H-238.5C-242.642 206 -246 202.642 -246 198.5V8Z" fill="white"/>
<rect x="-222.546" y="79.7954" width="486.682" height="46.9091" rx="23.4545" fill="#F1F3F4"/>
<path d="M241.056 99.8631L235.144 99.3501L232.835 93.914C232.419 92.9245 231.002 92.9245 230.587 93.914L228.278 99.3623L222.378 99.8631C221.303 99.9487 220.863 101.292 221.682 102.001L226.165 105.886L224.821 111.651C224.577 112.702 225.713 113.533 226.641 112.971L231.711 109.917L236.781 112.983C237.709 113.545 238.845 112.714 238.601 111.664L237.257 105.886L241.74 102.001C242.559 101.292 242.131 99.9487 241.056 99.8631V99.8631ZM231.711 107.632L227.118 110.405L228.339 105.177L224.284 101.659L229.634 101.195L231.711 96.2717L233.8 101.207L239.15 101.671L235.095 105.189L236.316 110.418L231.711 107.632Z" fill="#6B6C6E"/>
<rect x="287.591" y="79.4546" width="47.5909" height="47.5909" rx="23.7955" fill="#E2E4F6"/>
<path d="M303.526 116.571V90.6705L326.112 103.517L303.526 116.571Z" fill="white"/>
<path d="M323.957 103.227L304.856 92.0172V114.438L323.957 103.227ZM326.563 100.91C327.385 101.386 327.891 102.27 327.891 103.227C327.891 104.185 327.385 105.069 326.563 105.545L305.622 117.837C303.911 118.842 301.564 117.694 301.564 115.52V90.9351C301.564 88.761 303.911 87.6124 305.622 88.6179L326.563 100.91Z" fill="#122AF5"/>
<path d="M316.086 102.609C316.307 102.736 316.444 102.972 316.444 103.227C316.444 103.483 316.307 103.718 316.086 103.845L310.438 107.123C309.977 107.391 309.344 107.085 309.344 106.505V99.9494C309.344 99.3697 309.977 99.0634 310.438 99.3315L316.086 102.609Z" fill="#3EAAAF"/>
<ellipse cx="316.842" cy="95.286" rx="3.94737" ry="3.94737" fill="#CC0000" stroke="white" stroke-width="1.87683"/>
<path d="M389.309 101.576H387.743V94.6667H380.833V93.1005C380.833 91.5918 379.75 90.2214 378.253 90.0717C376.526 89.899 375.075 91.2464 375.075 92.9392V94.6667H368.177V101.346H369.777C371.286 101.346 372.656 102.36 372.944 103.834C373.324 105.814 371.816 107.565 369.892 107.565H368.165V114.244H374.844V112.632C374.844 111.123 375.858 109.753 377.332 109.465C379.313 109.085 381.063 110.594 381.063 112.517V114.244H387.743V107.335H389.47C391.163 107.335 392.51 105.883 392.338 104.156C392.188 102.659 390.806 101.576 389.309 101.576V101.576Z" fill="#6B6C6E"/>
<path fill-rule="evenodd" clip-rule="evenodd" d="M451.722 92.2556H429.733V114.244H451.722V92.2556ZM443.869 95.3968H432.875V111.103H443.869V95.3968Z" fill="#6B6C6E"/>
<path d="M319.134 140.28L321.833 143.226L321.098 132.179L321.833 121.133L325.148 120.274L327.848 121.133L329.076 130.215H332.512L335.581 130.829L336.931 132.179L341.349 130.829L344.172 133.775H346.627H350.8V137.457V146.662L346.627 153.904L336.931 157.831L325.884 156.85L317.047 149.731L313.488 143.226L315.452 140.28H319.134Z" fill="white"/>
<path d="M351 142.4C351 146.378 349.42 150.193 346.607 153.007C343.794 155.82 339.978 157.4 336 157.4" stroke="black" stroke-width="2.25" stroke-linecap="round" stroke-linejoin="round"/>
<path d="M343.5 136.775V134.9C343.5 133.905 343.105 132.951 342.402 132.248C341.698 131.545 340.745 131.15 339.75 131.15C338.755 131.15 337.802 131.545 337.098 132.248C336.395 132.951 336 133.905 336 134.9" stroke="black" stroke-width="2.25" stroke-linecap="round" stroke-linejoin="round"/>
<path d="M336 134.9V133.025C336 132.03 335.605 131.076 334.902 130.373C334.198 129.67 333.245 129.275 332.25 129.275C331.255 129.275 330.302 129.67 329.598 130.373C328.895 131.076 328.5 132.03 328.5 133.025V134.9" stroke="black" stroke-width="2.25" stroke-linecap="round" stroke-linejoin="round"/>
<path d="M328.5 133.962V123.65C328.5 122.655 328.105 121.701 327.402 120.998C326.698 120.295 325.745 119.9 324.75 119.9C323.755 119.9 322.802 120.295 322.098 120.998C321.395 121.701 321 122.655 321 123.65V142.4" stroke="black" stroke-width="2.25" stroke-linecap="round" stroke-linejoin="round"/>
<path d="M343.501 136.775C343.501 135.78 343.896 134.826 344.599 134.123C345.302 133.42 346.256 133.025 347.251 133.025C348.245 133.025 349.199 133.42 349.902 134.123C350.606 134.826 351.001 135.78 351.001 136.775V142.4C351.001 146.378 349.42 150.193 346.607 153.006C343.794 155.819 339.979 157.4 336.001 157.4H332.251C327.001 157.4 323.813 155.787 321.019 153.012L314.269 146.262C313.624 145.548 313.279 144.613 313.304 143.65C313.329 142.688 313.724 141.772 314.406 141.093C315.088 140.413 316.005 140.022 316.967 140C317.93 139.978 318.863 140.327 319.576 140.975L322.876 144.275" stroke="black" stroke-width="2.25" stroke-linecap="round" stroke-linejoin="round"/>
</g>
<defs>
<clipPath id="clip0_595_7038">
<rect width="521.25" height="225" fill="white" transform="translate(0 0.5)"/>
</clipPath>
</defs>
</svg>
