<svg viewBox="0 0 14 15" xmlns="http://www.w3.org/2000/svg">
<g clip-path="url(#clip0_40_126)">
<path d="M4.76949 1.40322C4.58949 2.35322 4.36949 3.76322 4.24949 5.19322C4.03949 7.71322 4.16949 9.40322 4.16949 9.40322L0.619487 12.7732C0.619487 12.7732 0.349487 10.8832 0.209487 8.75322C0.129487 7.43322 0.0994873 6.27322 0.0994873 5.57322C0.0994873 5.53322 0.119487 5.49322 0.119487 5.45322C0.119487 5.40322 0.179487 4.93322 0.639487 4.49322C1.13949 4.01322 4.82949 1.12322 4.76949 1.40322Z" fill="#394EFF"/>
<path d="M4.76949 1.40317C4.58949 2.35317 4.36949 3.76317 4.24949 5.19317C4.24949 5.19317 0.319487 4.72317 0.0994873 5.67317C0.0994873 5.62317 0.169487 5.04317 0.629487 4.60317C1.12949 4.12317 4.82949 1.12317 4.76949 1.40317Z" fill="#1284EA"/>
<path d="M0.0995107 5.44322V5.66322C0.139511 5.49322 0.209511 5.37322 0.349511 5.18322C0.639511 4.81322 1.10951 4.71322 1.29951 4.69322C2.25951 4.56322 3.67951 4.41322 5.10951 4.37322C7.63951 4.29322 9.30951 4.50322 9.30951 4.50322L12.8595 1.13322C12.8595 1.13322 10.9995 0.783224 8.87951 0.533224C7.48951 0.363224 6.26951 0.273224 5.57951 0.233224C5.52951 0.233224 5.03951 0.173224 4.57951 0.613224C4.07951 1.09322 1.53951 3.50322 0.519511 4.47322C0.0595107 4.91322 0.0995107 5.40322 0.0995107 5.44322Z" fill="#B4DC00"/>
<path d="M12.7295 9.75325C11.7695 9.88325 10.3495 10.0432 8.91948 10.0932C6.38948 10.1732 4.70948 9.96325 4.70948 9.96325L1.15948 13.3432C1.15948 13.3432 3.03948 13.7132 5.15948 13.9532C6.45948 14.1032 7.60948 14.1832 8.30948 14.2232C8.35948 14.2232 8.43948 14.1832 8.48948 14.1832C8.53948 14.1832 9.02948 14.0932 9.48948 13.6532C9.98948 13.1732 13.0095 9.72325 12.7295 9.75325Z" fill="#6F2DA8"/>
<path d="M12.7295 9.75324C11.7695 9.88324 10.3495 10.0432 8.9195 10.0932C8.9195 10.0932 9.1895 14.0432 8.2395 14.2132C8.2895 14.2132 8.9395 14.1832 9.3995 13.7432C9.8995 13.2632 13.0095 9.72324 12.7295 9.75324Z" fill="#591F91"/>
<path d="M8.44949 14.2332C8.37949 14.2332 8.30949 14.2232 8.22949 14.2232C8.40949 14.1932 8.52949 14.1332 8.71949 13.9932C9.09949 13.7232 9.21949 13.2532 9.25949 13.0632C9.42949 12.1132 9.65949 10.7032 9.76949 9.27324C9.96949 6.75324 9.84949 5.07324 9.84949 5.07324L13.3995 1.69324C13.3995 1.69324 13.6595 3.57324 13.8095 5.70324C13.8995 7.09324 13.9295 8.32324 13.9395 9.00324C13.9395 9.05324 13.9795 9.54324 13.5195 9.98324C13.0195 10.4632 10.4795 12.8832 9.46949 13.8532C8.98949 14.2932 8.49949 14.2332 8.44949 14.2332Z" fill="#73BE28"/>
</g>
<defs>
<clipPath id="clip0_40_126">
<rect width="14" height="14.2" fill="white" transform="translate(0 0.133301)"/>
</clipPath>
</defs>
</svg>
