<svg viewBox="0 0 120 120" xmlns="http://www.w3.org/2000/svg"><rect fill="#fff" height="120" rx="6.01" width="120"/><g fill="#764abc"><path d="m76.26 75.87a6 6 0 0 0 -.65-12h-.21a6 6 0 0 0 -5.79 6.22 6.16 6.16 0 0 0 1.71 4c-3.64 7.18-9.22 12.44-17.58 16.83a29 29 0 0 1 -17.48 3.33c-4.83-.64-8.58-2.79-10.94-6.33a15.74 15.74 0 0 1 -.86-16.62 25.18 25.18 0 0 1 7.29-8.58c-.43-1.39-1.07-3.75-1.39-5.47-15.55 11.22-13.94 26.45-9.23 33.63 3.54 5.37 10.73 8.69 18.66 8.69a26.22 26.22 0 0 0 6.44-.75 41.15 41.15 0 0 0 30.03-22.95z"/><path d="m95.13 62.57c-8.13-9.57-20.13-14.8-33.89-14.8h-1.71a5.9 5.9 0 0 0 -5.26-3.21h-.21a6 6 0 0 0 .21 12h.22a6 6 0 0 0 5.25-3.65h1.93a40.88 40.88 0 0 1 22.84 7 28.71 28.71 0 0 1 11.37 13.71 14.87 14.87 0 0 1 -.21 12.65 15.76 15.76 0 0 1 -14.67 8.8 27.55 27.55 0 0 1 -10.51-2.25c-1.18 1.07-3.32 2.78-4.82 3.86a33.16 33.16 0 0 0 13.8 3.32c10.3 0 17.91-5.68 20.81-11.37 3.11-6.22 2.89-16.94-5.15-26.06z"/><path d="m40.65 77.69a6 6 0 0 0 6 5.8h.21a6 6 0 0 0 -.21-12h-.22a1.8 1.8 0 0 0 -.75.11 39.29 39.29 0 0 1 -5.57-23.81 28.73 28.73 0 0 1 6.32-16.62c3.11-4 9.12-5.9 13.19-6 11.38-.24 16.21 13.92 16.53 19.6 1.39.32 3.75 1.07 5.36 1.61-1.29-17.38-12.01-26.38-22.31-26.38-9.65 0-18.55 7-22.09 17.27-4.93 13.73-1.71 26.91 4.29 37.31a4.85 4.85 0 0 0 -.75 3.11z"/></g></svg>