<svg xmlns="http://www.w3.org/2000/svg" viewBox="0 0 51 51">
  <g fill="none">
    <path fill="#E01E5A" d="M10.9228346 5.62204724C10.9228346 8.55354331 8.55354331 10.9228346 5.62204724 10.9228346 2.69055118 10.9228346.321259843 8.55354331.321259843 5.62204724.321259843 2.69055118 2.69055118.321259843 5.62204724.321259843L10.9228346.321259843 10.9228346 5.62204724zM13.5732283 5.62204724C13.5732283 2.69055118 15.9425197.321259843 18.8740157.321259843 21.8055118.321259843 24.1748031 2.69055118 24.1748031 5.62204724L24.1748031 18.8740157C24.1748031 21.8055118 21.8055118 24.1748031 18.8740157 24.1748031 15.9425197 24.1748031 13.5732283 21.8055118 13.5732283 18.8740157L13.5732283 5.62204724z" transform="translate(0 26.504)"/>
    <path fill="#36C5F0" d="M18.8740157 10.8425197C15.9425197 10.8425197 13.5732283 8.47322835 13.5732283 5.54173228 13.5732283 2.61023622 15.9425197.240944882 18.8740157.240944882 21.8055118.240944882 24.1748031 2.61023622 24.1748031 5.54173228L24.1748031 10.8425197 18.8740157 10.8425197zM18.8740157 13.5330709C21.8055118 13.5330709 24.1748031 15.9023622 24.1748031 18.8338583 24.1748031 21.7653543 21.8055118 24.1346457 18.8740157 24.1346457L5.58188976 24.1346457C2.6503937 24.1346457.281102362 21.7653543.281102362 18.8338583.281102362 15.9023622 2.6503937 13.5330709 5.58188976 13.5330709L18.8740157 13.5330709z"/>
    <path fill="#2EB67D" d="M13.6133858 18.8338583C13.6133858 15.9023622 15.9826772 13.5330709 18.9141732 13.5330709 21.8456693 13.5330709 24.2149606 15.9023622 24.2149606 18.8338583 24.2149606 21.7653543 21.8456693 24.1346457 18.9141732 24.1346457L13.6133858 24.1346457 13.6133858 18.8338583zM10.9629921 18.8338583C10.9629921 21.7653543 8.59370079 24.1346457 5.66220472 24.1346457 2.73070866 24.1346457.361417323 21.7653543.361417323 18.8338583L.361417323 5.54173228C.361417323 2.61023622 2.73070866.240944882 5.66220472.240944882 8.59370079.240944882 10.9629921 2.61023622 10.9629921 5.54173228L10.9629921 18.8338583z" transform="translate(26.504)"/>
    <path fill="#ECB22E" d="M5.66220472 13.5732283C8.59370079 13.5732283 10.9629921 15.9425197 10.9629921 18.8740157 10.9629921 21.8055118 8.59370079 24.1748031 5.66220472 24.1748031 2.73070866 24.1748031.361417323 21.8055118.361417323 18.8740157L.361417323 13.5732283 5.66220472 13.5732283zM5.66220472 10.9228346C2.73070866 10.9228346.361417323 8.55354331.361417323 5.62204724.361417323 2.69055118 2.73070866.321259843 5.66220472.321259843L18.9543307.321259843C21.8858268.321259843 24.2551181 2.69055118 24.2551181 5.62204724 24.2551181 8.55354331 21.8858268 10.9228346 18.9543307 10.9228346L5.66220472 10.9228346z" transform="translate(26.504 26.504)"/>
  </g>
</svg>
