<?xml version="1.0" encoding="utf-8"?>
<!-- Generator: Adobe Illustrator 20.1.0, SVG Export Plug-In . SVG Version: 6.00 Build 0)  -->
<svg version="1.1" id="Layer_1" xmlns="http://www.w3.org/2000/svg" xmlns:xlink="http://www.w3.org/1999/xlink" x="0px" y="0px"
	 viewBox="0 0 14 14" style="enable-background:new 0 0 14 14;" xml:space="preserve">
<style type="text/css">
	.st0{fill:#000097;}
	.st1{fill:#FFFFFF;}
</style>
<path class="st0" d="M13.9,7c0,2.3,0,4.5,0,6.8c0,0.1,0,0.1-0.1,0.1c-4.5,0-9,0-13.6,0c-0.1,0-0.1,0-0.1-0.1c0-4.5,0-9.1,0-13.6
	c0-0.1,0-0.1,0.1-0.1c4.5,0,9,0,13.6,0c0.1,0,0.1,0,0.1,0.1C13.9,2.5,13.9,4.7,13.9,7z"/>
<path class="st1" d="M3.9,7.9c0.4-0.5,1.3-0.5,1.6,0c0.1-0.2,0.3-0.3,0.6-0.4c0.2-0.1,0.4,0,0.7,0C7.1,7.7,7.3,8,7.3,8.5
	c0,0.7,0,1.3,0,2c0,0.1,0,0.1-0.1,0.1c-0.2,0-0.4,0-0.5,0c-0.1,0-0.1,0-0.1-0.1c0-0.5,0-1.1,0-1.6c0-0.1,0-0.2,0-0.3
	c0-0.2-0.1-0.3-0.3-0.4c-0.2,0-0.4,0-0.5,0.2C5.6,8.5,5.6,8.6,5.6,8.8c0,0.5,0,1.1,0,1.6c0,0.1,0,0.1-0.1,0.1c-0.2,0-0.3,0-0.5,0
	c-0.1,0-0.1,0-0.1-0.1c0-0.5,0-1.1,0-1.6c0-0.1,0-0.2,0-0.2c0-0.2-0.1-0.4-0.4-0.4C4.3,8.1,4.1,8.2,4,8.4C3.9,8.6,3.9,8.7,3.9,8.8
	c0,0.5,0,1.1,0,1.6c0,0.1,0,0.1-0.1,0.1c-0.2,0-0.3,0-0.5,0c-0.1,0-0.1,0-0.1-0.1c0-0.9,0-1.8,0-2.7c0-0.1,0-0.1,0.1-0.1
	c0.2,0,0.3,0,0.5,0c0.1,0,0.1,0,0.1,0.1C3.9,7.8,3.9,7.8,3.9,7.9z"/>
<path class="st1" d="M8.2,9.1c0-0.1,0-0.3,0-0.4c0-0.1,0-0.3,0.1-0.4c0.3-0.5,0.8-0.7,1.4-0.7c0.5,0,1,0.3,1.2,0.8
	c0,0.1,0,0.1,0,0.2c0,0.3,0,0.7,0,1c0,0.1,0,0.1,0,0.2c-0.3,0.6-0.9,0.9-1.5,0.8c-0.5-0.1-0.8-0.3-1.1-0.7C8.2,9.8,8.2,9.7,8.2,9.5
	C8.2,9.4,8.2,9.2,8.2,9.1z"/>
<path class="st1" d="M10.2,6.1C9.8,6.6,9,6.5,8.7,6.3C8.5,6.1,8.4,5.9,8.4,5.7c0-0.4,0-0.9,0-1.3c0-0.3,0-0.5,0-0.8
	c0-0.1,0-0.1,0.1-0.1c0.2,0,0.3,0,0.5,0c0.1,0,0.1,0,0.1,0.1c0,0.5,0,1.1,0,1.6c0,0,0,0.1,0,0.1c0,0.4,0.1,0.5,0.4,0.5
	c0.4,0,0.6-0.1,0.6-0.5c0-0.2,0-0.3,0-0.5c0-0.4,0-0.8,0-1.2c0-0.1,0-0.1,0.1-0.1c0.2,0,0.4,0,0.5,0c0.1,0,0.1,0,0.1,0.1
	c0,0.9,0,1.8,0,2.7c0,0.1,0,0.1-0.1,0.1c-0.2,0-0.3,0-0.5,0c-0.1,0-0.1,0-0.1-0.1C10.2,6.2,10.2,6.2,10.2,6.1z"/>
<path class="st1" d="M5.6,5.5c0,0.5-0.2,0.8-0.8,0.9C4.2,6.5,3.6,6.4,3.1,6C3,5.9,3,5.9,3.1,5.8c0.1-0.1,0.2-0.2,0.3-0.3
	c0.1-0.1,0.1-0.1,0.2,0c0.2,0.2,0.4,0.3,0.7,0.3c0.2,0,0.4,0,0.5,0c0.1,0,0.2-0.1,0.2-0.2c0-0.1-0.1-0.2-0.2-0.3
	C4.5,5.2,4.3,5.2,4.1,5.2C3.8,5.1,3.6,5,3.4,4.9C3.3,4.8,3.2,4.7,3.2,4.5c0-0.1,0-0.2,0-0.2c0-0.3,0.1-0.5,0.4-0.7
	c0.5-0.3,1.5-0.2,2,0.2c0,0,0,0.1,0,0.1C5.4,4,5.3,4.1,5.3,4.2c0,0.1-0.1,0.1-0.1,0C4.9,4.1,4.6,4,4.4,4C4.2,4,4.1,4,4,4
	c-0.1,0-0.2,0.1-0.2,0.3C3.9,4.4,4,4.5,4,4.5c0.3,0.1,0.5,0.1,0.8,0.2c0.2,0,0.3,0.1,0.5,0.2C5.5,5,5.6,5.1,5.6,5.4
	C5.6,5.4,5.6,5.5,5.6,5.5z"/>
<path class="st0" d="M10.3,9.1c0,0.1,0,0.2,0,0.2c0,0.3-0.1,0.5-0.4,0.6C9.6,10,9.3,10,9.1,9.8C9,9.6,8.9,9.5,8.9,9.3
	c0-0.2,0-0.4,0-0.5c0-0.3,0.3-0.6,0.6-0.7c0.3,0,0.6,0.1,0.8,0.4c0.1,0.1,0,0.3,0,0.4C10.3,9,10.3,9,10.3,9.1z"/>
</svg>
