<svg width="210" height="200" viewBox="0 0 210 200" fill="none" xmlns="http://www.w3.org/2000/svg">
<g clip-path="url(#clip0_9_195)">
<rect width="210" height="200" fill="white"/>
<path d="M27.8174 199.451C30.2217 198.986 32.2674 198.573 35.4878 198.189C42.3668 197.37 50.5828 196.869 58.9692 196.478C77.7443 195.603 98.1449 195.502 117.512 195.964C130.215 196.267 142.14 196.862 154.008 197.575C159.59 197.91 166.176 198.384 174.18 198.876" stroke="black" stroke-linecap="round"/>
<circle cx="101.718" cy="91.953" r="84.3749" fill="#FDF9F3"/>
<path d="M136.53 66.3708C137.02 66.7308 137.61 67.0008 137.98 67.4608C146.41 77.9508 149.66 90.1408 149.65 103.371C149.65 104.841 149.29 106.301 149.1 107.771C149 108.561 148.92 109.361 148.76 110.841C157.66 105.541 166.12 100.711 175.44 97.7108C175.44 96.3008 175.3 95.1008 175.49 93.9508C175.59 93.3208 176.16 92.4708 176.69 92.3108C177.14 92.1808 177.97 92.7808 178.4 93.2608C178.94 93.8708 179.15 94.7508 179.66 95.4008C180.13 96.0008 180.74 96.7508 181.41 96.8908C185.91 97.8808 186.95 101.381 187.46 105.171C187.68 106.791 187.41 108.491 187.29 110.151C187.16 111.971 186.5 113.601 185.01 114.731C183.8 115.651 183.45 116.711 184.05 118.201C185.41 118.751 186.9 119.221 188.26 119.931C190.81 121.271 192.41 123.531 193.79 125.991C195.03 128.211 196.47 130.241 199.5 130.761C197.47 133.621 194.74 135.241 192.06 136.931C187.49 139.801 182.36 140.941 177.12 141.691C174.74 142.031 173.58 141.681 171.63 140.231C173.99 137.521 174.49 134.201 174.85 130.761C175.23 127.151 175.92 123.591 179.15 121.021C178.93 120.181 178.71 119.341 178.3 117.751C177.07 120.901 175.05 122.121 172.62 123.271C165.03 126.851 157.63 130.821 149.99 134.721C149.99 135.651 149.99 136.551 149.99 137.461C149.99 146.081 149.27 154.621 147.7 163.101C146.95 167.171 145.22 170.591 142.08 173.321C140.83 174.411 139.67 175.621 138.53 176.821C136.42 179.041 133.63 180.081 130.94 181.281C129.26 182.031 127.51 182.601 125.62 183.321C125.56 184.291 125.49 185.271 125.43 186.171C128.23 186.851 130.95 187.291 133.53 188.171C137.29 189.461 140.15 191.471 140.76 197.041C139.63 197.371 138.45 197.831 137.23 198.051C133.5 198.711 129.77 199.321 126.02 199.871C121.74 200.501 117.55 199.701 113.37 198.871C112.28 198.651 111.13 198.661 110.1 198.311C109.02 197.941 108.05 197.261 107.03 196.721C107.39 196.741 107.76 196.721 108.11 196.801C113.69 198.041 119.27 199.261 125.05 198.861C127.35 198.701 129.66 198.581 131.94 198.241C134.54 197.851 137.11 197.231 139.72 196.701C139.15 193.271 137.57 190.951 134.73 189.791C132.36 188.821 129.85 188.131 127.35 187.551C126.46 187.341 125.3 187.641 124.43 188.061C119.31 190.561 114.02 190.891 108.55 189.571C108.04 189.451 107.5 189.391 106.74 189.261C106.74 190.521 106.7 191.601 106.75 192.681C106.82 194.051 106.97 195.421 107.09 196.791C106.77 196.511 106.22 196.281 106.16 195.951C105.7 193.421 104.97 190.901 106.04 188.321C106.34 187.611 106.31 186.761 106.46 185.781H94.0996C93.3996 187.721 93.7496 189.471 94.0596 191.301C95.2496 198.351 94.6696 198.611 88.1796 200.101C83.1496 201.251 78.0696 200.451 73.0396 199.811C70.4996 199.491 67.9796 198.961 65.4596 198.471C64.4696 198.281 63.4696 198.051 62.5196 197.701C60.2096 196.861 59.6896 195.511 60.6996 193.191C62.8396 188.271 67.4996 185.551 72.9796 186.041C73.5296 186.091 74.0696 186.211 74.5796 186.301C75.5296 184.391 75.5696 184.291 73.9296 183.651C70.0196 182.131 66.4096 180.071 63.1496 177.481C61.2196 175.941 59.5696 174.051 57.7796 172.331C57.1996 171.771 56.5696 171.261 55.9596 170.731C55.4896 169.101 55.0296 167.471 54.6096 166.011C48.9796 164.911 44.1396 162.881 39.5396 159.841C39.6096 166.911 44.2496 171.531 50.8596 171.351C52.5896 171.301 54.2996 170.901 56.0196 170.651C53.7196 173.101 50.7596 172.621 48.0396 172.081C42.0796 170.911 38.9996 165.921 38.6096 161.751C38.4796 160.351 38.4796 158.871 37.3696 157.611C36.8796 157.051 36.9296 155.821 37.0496 154.941C37.7596 149.731 38.3196 144.481 39.3796 139.341C41.0696 131.131 44.1596 123.401 48.6096 116.301C50.3696 113.501 51.9596 110.951 51.3096 107.421C50.9096 105.271 51.0296 103.011 51.0496 100.801C51.1296 90.4608 53.0196 80.6708 59.0396 71.8908C63.3196 65.6408 67.9196 59.8708 74.3796 55.7308C77.8496 53.5008 81.5396 51.9208 85.5696 51.0908C86.7996 50.8408 87.9796 50.4008 89.4596 49.9708C88.8596 49.1508 88.5496 48.4008 87.9996 48.0308C84.3296 45.5708 80.7696 42.8508 75.9596 43.0808C74.5896 43.1408 73.2096 42.7508 71.8296 42.6808C67.0896 42.4508 66.5096 37.4208 68.3796 34.6008C71.5396 29.8408 77.7796 28.8408 82.1396 32.6608C83.9196 34.2208 85.3296 36.2308 86.8096 38.1208C88.7996 40.6608 90.6796 43.2808 92.6096 45.8708C93.0796 47.0608 92.7896 48.5408 94.1896 49.9408C94.1796 46.2808 96.5496 45.0808 98.9796 43.8908C99.7996 43.4908 100.61 43.0108 101.28 42.4008C101.87 41.8608 102.38 41.1508 102.69 40.4208C103.24 39.1308 102.71 38.2608 101.3 38.1108C100.59 38.0308 99.7896 38.0608 99.1396 38.3308C97.1396 39.1408 95.4596 40.3508 94.4996 42.4108C93.9296 43.6208 93.1996 44.7608 92.5496 45.9408C92.9896 42.4608 94.4396 39.6308 97.6896 37.9608C98.2596 37.6708 98.8596 37.4008 99.4696 37.2308C101.09 36.7908 102.86 37.2808 103.45 38.3608C104.24 39.8108 103.63 41.1208 102.67 42.1408C101.8 43.0608 100.7 43.7708 99.6296 44.4808C98.7096 45.0908 97.6996 45.5608 96.7396 46.0908C95.5096 46.7708 95.1196 47.7608 95.6796 49.3708C96.7596 49.4408 97.9196 49.4908 99.0896 49.5908C108.06 50.3708 116.81 52.1408 124.75 56.5408C128.26 58.4908 131.43 61.0808 134.64 63.5308C135.51 64.2008 135.95 65.4408 136.59 66.4108C135.96 65.9108 135.26 65.4808 134.7 64.9108C131.18 61.2908 126.97 58.7108 122.51 56.4408C121.2 55.7808 120.17 55.6708 119.1 56.9008C118.6 57.4708 117.72 57.7008 117.01 58.0808C117.76 57.2108 118.5 56.3308 119.37 55.3108C117.05 53.9308 114.64 53.4108 112.23 52.8708C106.82 51.6608 101.43 50.3708 95.8296 50.3408C94.3696 50.3408 93.0796 50.4308 92.8596 52.4408C92.5396 49.4708 91.9196 46.8508 90.1096 44.5608C88.4496 42.4608 87.0496 40.1608 85.4296 38.0308C84.1996 36.4208 82.9696 34.7508 81.4496 33.4408C77.5396 30.0708 71.8996 30.9508 69.1296 35.1908C67.0996 38.3008 68.4696 41.4508 72.1096 41.8808C74.1296 42.1208 76.1596 42.1908 78.1896 42.3508C80.2596 42.5108 82.1496 43.1808 83.8696 44.3608C84.7796 44.9808 85.7496 45.5208 86.7196 46.0608C89.2396 47.4508 90.8096 49.4008 90.6196 52.8708C89.7796 51.2108 88.6696 51.3908 87.3596 51.6208C80.2796 52.8408 74.4096 56.3808 69.1596 61.0708C67.6896 62.3908 66.4396 63.9508 64.6296 65.9008C68.3096 66.4908 71.2796 67.1808 74.2796 67.4008C81.9996 67.9808 89.5496 66.6108 97.0896 65.1008C103.58 63.8108 109.78 61.8708 115.54 58.5708C116 58.3108 116.55 58.2208 117.06 58.0408C116.77 58.3708 116.54 58.8508 116.18 59.0108C112.22 60.7708 108.36 62.8208 104.25 64.1008C99.5096 65.5808 94.5896 66.6208 89.6696 67.3608C84.9396 68.0708 80.1196 68.3908 75.3296 68.3908C72.3296 68.3908 69.3196 67.5608 66.3396 66.9608C64.7896 66.6508 63.6996 66.9008 62.8396 68.3208C60.9296 71.4808 58.8296 74.5308 56.9996 77.7408C56.0696 79.3708 55.0896 81.0808 54.9996 83.0008C55.2796 83.1908 55.4196 83.3608 55.5796 83.3908C67.2496 85.4608 78.9196 86.7708 90.8396 85.3708C106.79 83.5008 121.28 78.0708 134.32 68.7508C135.18 68.1408 135.78 67.1808 136.51 66.3808L136.53 66.3708ZM182.57 137.171C183.84 137.231 185.13 137.461 186.37 137.301C188.45 137.041 189.15 136.011 189.06 133.571C187.32 134.291 185.62 134.901 184.01 135.701C183.44 135.981 183.1 136.721 182.65 137.261C180.67 136.991 176.87 138.681 174.98 140.651C178.53 140.811 184.75 139.491 186.69 138.121C185.16 138.271 183.67 138.511 182.57 137.171V137.171ZM52.7296 116.021C52.7296 116.851 52.7496 117.751 52.7296 118.641C52.6796 120.671 52.6696 122.701 52.5196 124.731C52.1496 129.791 51.4696 134.821 51.7696 139.911C51.9796 143.511 52.2096 147.101 52.2596 150.701C52.3396 155.971 53.7596 160.891 55.6896 165.741C57.7096 170.811 61.0096 174.741 65.6196 177.671C69.8496 180.361 74.0896 183.221 79.1596 183.711C86.0396 184.371 92.9696 184.671 99.8896 184.771C105.24 184.851 110.6 184.551 115.94 184.111C126.29 183.261 135.56 180.051 142.39 171.591C144.35 169.161 145.81 166.621 146.47 163.551C148.12 155.841 148.71 148.001 148.99 140.161C149.3 131.481 149.01 122.801 148 114.171C147.93 113.581 147.62 113.031 147.38 112.371C146.5 112.661 145.8 112.901 145.11 113.121C138.43 115.231 131.81 117.541 125.05 119.381C119.89 120.781 114.53 121.161 109.17 121.551C97.6896 122.391 86.2796 122.351 74.9296 120.351C67.5796 119.061 60.2796 117.511 52.7196 116.021H52.7296ZM130.41 72.7608C129.5 73.2408 128.92 73.5108 128.38 73.8408C122.04 77.7308 115.14 80.3908 108.13 82.7108C100.29 85.3108 92.1496 86.4608 83.9096 86.9708C82.4696 87.0608 81.0496 87.2908 79.6096 87.4508C79.3396 98.3308 79.0896 108.921 78.8196 119.901C99.3396 122.141 119.31 121.501 138.85 114.411C137.11 100.251 134.94 86.3608 130.4 72.7508L130.41 72.7608ZM77.9296 119.591C78.2096 108.751 78.4896 98.1808 78.7596 87.5508C70.4496 86.5408 62.5196 85.5708 54.4496 84.5908C54.4196 84.6408 54.1896 84.8408 54.1196 85.0808C53.8196 86.0508 53.5296 87.0308 53.3096 88.0208C51.4796 96.2408 52.1696 104.571 52.3496 112.871C52.3696 113.931 52.8596 114.641 53.8296 114.971C54.6996 115.271 55.5896 115.551 56.4896 115.731C62.6496 116.951 68.8196 118.151 74.9896 119.321C75.8696 119.491 76.7796 119.491 77.9296 119.591V119.591ZM175.62 98.7408C173.07 99.7108 170.66 100.391 168.46 101.501C162.62 104.461 156.94 107.721 151.07 110.611C148.91 111.671 148.27 113.011 148.68 115.171C148.77 115.621 148.74 116.091 148.83 116.551C149.76 121.471 150.15 126.421 149.96 131.421C149.94 132.021 150.06 132.631 150.16 133.651C151.5 132.961 152.56 132.481 153.56 131.891C160.09 128.051 166.86 124.701 173.85 121.791C175.34 121.171 176.27 120.261 176.84 118.811C179.55 112.001 178.27 105.481 175.63 98.7408H175.62ZM37.6396 156.781C42.4296 160.961 47.5696 163.541 53.4896 164.571C52.7596 160.911 51.8696 157.601 51.4796 154.231C51.0796 150.751 51.0296 147.221 51.0696 143.711C51.1396 136.791 51.3896 129.881 51.5296 122.961C51.5896 120.151 51.5296 117.341 51.5296 114.531C51.2996 114.491 51.0796 114.461 50.8496 114.421C42.1696 127.161 38.9296 141.621 37.6196 156.771L37.6396 156.781ZM147.28 111.381C151.14 96.6908 144.56 75.3708 136.81 68.1008C135.07 69.2908 133.32 70.4808 131.58 71.7008C131.36 71.8508 131.23 72.1108 131.02 72.3608C136.03 85.7408 137.96 99.8008 139.89 114.221C142.65 113.161 145.03 112.241 147.28 111.371V111.381ZM60.7796 196.031C64.1296 197.671 67.4996 198.181 70.8396 198.631C74.0296 199.061 77.2696 199.141 80.4996 199.361C84.2196 199.621 87.8796 199.341 91.4496 198.161C92.5796 197.781 93.4196 197.201 93.5696 195.911C93.8596 193.481 93.5096 191.191 92.3596 188.911C86.8596 191.061 81.6096 189.911 76.5796 187.931C73.0996 186.561 69.8996 186.821 66.6696 188.271C63.3696 189.751 61.9096 192.641 60.7896 196.031H60.7796ZM196 131.101C194.74 129.291 193.68 128.011 192.89 126.581C190.73 122.701 187.96 119.691 183.07 119.211C182.83 117.181 182.65 115.261 182.36 113.361C182.21 112.381 182.1 111.251 181.56 110.491C179.88 108.141 179.57 105.571 179.86 102.841C180.15 100.091 179.3 97.5708 178.43 95.0608C178.18 94.3608 177.59 93.7808 176.86 92.7308C175.9 95.7508 176.24 98.0608 177.28 100.401C179.07 104.441 179.83 108.741 179.33 113.091C179.02 115.731 179.09 118.191 180.04 120.641C180.13 120.871 180.05 121.171 180.05 121.551C177.18 123.441 176.45 126.481 175.96 129.631C175.75 131.001 175.74 132.401 175.48 133.751C175.17 135.431 174.7 137.091 174.16 139.301C181.36 135.801 187.91 131.921 195.99 131.101H196ZM107.08 188.081C112.49 190.271 117.62 189.481 122.69 187.901C124.6 187.301 124.81 186.411 124.13 183.901C123.6 183.951 123.06 184.001 122.52 184.071C120.26 184.371 118 184.791 115.73 184.971C113.25 185.161 110.76 185.131 108.27 185.231C107.94 185.241 107.61 185.471 107.22 185.631C107.18 186.421 107.13 187.141 107.08 188.081V188.081ZM183.52 114.531C185.29 113.531 186.15 112.341 186.34 110.791C186.55 109.051 186.74 107.291 186.7 105.541C186.6 101.101 184.42 98.4308 180.61 97.7808C180.71 100.561 180.72 103.361 180.94 106.141C181.11 108.291 182.08 110.021 184.25 110.861C184.34 110.901 184.35 111.161 184.41 111.351C184.01 111.511 183.61 111.681 183.05 111.911C183.19 112.671 183.33 113.451 183.53 114.541L183.52 114.531ZM92.3896 185.661C87.0496 185.311 81.6896 184.951 76.3296 184.591C76.1596 186.781 76.1096 186.991 77.5396 187.341C80.3796 188.031 83.2596 188.681 86.1596 188.941C87.8296 189.091 89.5996 188.551 91.2896 188.161C92.2396 187.941 92.9296 187.301 92.3896 185.661V185.661ZM190.73 133.171C190.24 134.641 189.84 135.821 189.39 137.151C192.26 135.941 194.66 134.301 196.88 132.401C196.79 132.221 196.7 132.031 196.61 131.851C194.67 132.281 192.72 132.721 190.72 133.161L190.73 133.171Z" fill="black"/>
<path d="M52.7396 116.021C60.2996 117.501 67.5996 119.061 74.9496 120.351C86.2996 122.341 97.7096 122.391 109.19 121.551C114.55 121.161 119.91 120.781 125.07 119.381C131.82 117.541 138.45 115.231 145.13 113.121C145.83 112.901 146.52 112.661 147.4 112.371C147.63 113.031 147.95 113.581 148.02 114.171C149.03 122.811 149.32 131.491 149.01 140.161C148.73 148.001 148.14 155.841 146.49 163.551C145.83 166.621 144.37 169.161 142.41 171.591C135.58 180.051 126.31 183.271 115.96 184.111C110.63 184.551 105.26 184.851 99.9096 184.771C92.9896 184.671 86.0596 184.381 79.1796 183.711C74.1096 183.221 69.8696 180.361 65.6396 177.671C61.0296 174.741 57.7296 170.811 55.7096 165.741C53.7796 160.901 52.3596 155.971 52.2796 150.701C52.2296 147.101 51.9896 143.501 51.7896 139.911C51.4996 134.821 52.1796 129.781 52.5396 124.731C52.6896 122.711 52.6896 120.671 52.7496 118.641C52.7696 117.741 52.7496 116.851 52.7496 116.021H52.7396ZM128.13 128.991C125.25 129.001 123.3 130.841 123.33 133.511C123.37 136.051 125.68 138.001 128.62 137.971C131.16 137.941 133.17 135.751 133.12 133.051C133.08 130.781 130.86 128.981 128.12 128.991H128.13ZM126.74 145.441C128.74 144.971 130.65 144.631 132.47 144.041C132.97 143.881 133.51 142.981 133.53 142.401C133.55 141.511 132.85 140.831 131.87 140.931C129.21 141.211 126.55 141.531 123.9 141.941C123.47 142.011 122.88 142.551 122.8 142.951C122.72 143.381 123.05 144.161 123.42 144.331C124.46 144.821 125.61 145.071 126.73 145.421L126.74 145.441Z" fill="white"/>
<path d="M130.42 72.7608C134.96 86.3708 137.12 100.251 138.87 114.421C119.32 121.511 99.3596 122.151 78.8396 119.911C79.1096 108.931 79.3696 98.3408 79.6296 87.4608C81.0696 87.3008 82.4996 87.0708 83.9296 86.9808C92.1596 86.4608 100.31 85.3208 108.15 82.7208C115.16 80.4008 122.06 77.7408 128.4 73.8508C128.94 73.5208 129.52 73.2508 130.43 72.7708L130.42 72.7608ZM116.14 103.941C116.14 98.1508 111.59 93.7408 105.63 93.7508C100.64 93.7508 96.5296 97.9408 96.5496 103.021C96.5696 108.561 101.34 113.311 106.83 113.261C112.11 113.211 116.14 109.181 116.14 103.951V103.941Z" fill="#C8E2E2"/>
<path d="M136.53 66.3708C135.81 67.1708 135.2 68.1208 134.34 68.7408C121.3 78.0608 106.81 83.4808 90.8596 85.3608C78.9396 86.7608 67.2695 85.4508 55.5995 83.3808C55.4395 83.3508 55.2995 83.1808 55.0195 82.9908C55.1095 81.0708 56.0895 79.3608 57.0195 77.7308C58.8395 74.5208 60.9496 71.4708 62.8596 68.3108C63.7196 66.8908 64.7996 66.6408 66.3596 66.9508C69.3396 67.5508 72.3495 68.3808 75.3495 68.3808C80.1295 68.3808 84.9595 68.0608 89.6895 67.3508C94.6095 66.6208 99.5295 65.5708 104.27 64.0908C108.38 62.8108 112.25 60.7508 116.2 59.0008C116.57 58.8408 116.79 58.3608 117.08 58.0308L117.02 58.0908C117.73 57.7108 118.61 57.4808 119.11 56.9108C120.19 55.6808 121.22 55.7908 122.52 56.4508C126.97 58.7208 131.19 61.3008 134.71 64.9208C135.26 65.4908 135.96 65.9208 136.6 66.4208L136.549 66.3608L136.53 66.3708Z" fill="white"/>
<path d="M77.9496 119.591C76.7996 119.491 75.8896 119.491 75.0096 119.321C68.8396 118.141 62.6796 116.941 56.5096 115.731C55.6096 115.551 54.7196 115.271 53.8496 114.971C52.8796 114.641 52.3896 113.931 52.3696 112.871C52.1896 104.571 51.4996 96.2508 53.3296 88.0208C53.5496 87.0308 53.8396 86.0508 54.1396 85.0808C54.2196 84.8308 54.4396 84.6308 54.4696 84.5908C62.5396 85.5708 70.4696 86.5408 78.7796 87.5508C78.4996 98.1808 78.2296 108.761 77.9496 119.591V119.591Z" fill="white"/>
<path d="M117.07 58.0208C116.56 58.1908 116.01 58.2808 115.55 58.5508C109.8 61.8508 103.59 63.7908 97.0997 65.0808C89.5597 66.5808 82.0097 67.9508 74.2897 67.3808C71.2797 67.1508 68.3096 66.4608 64.6396 65.8808C66.4496 63.9308 67.6997 62.3708 69.1697 61.0508C74.4197 56.3508 80.2796 52.8208 87.3696 51.6008C88.6796 51.3708 89.7896 51.2008 90.6296 52.8508C90.8196 49.3908 89.2497 47.4308 86.7297 46.0408C85.7597 45.5108 84.7896 44.9708 83.8796 44.3408C82.1596 43.1608 80.2696 42.5008 78.1996 42.3308C76.1696 42.1708 74.1396 42.1008 72.1196 41.8608C68.4796 41.4308 67.0996 38.2808 69.1396 35.1708C71.9096 30.9308 77.5497 30.0508 81.4597 33.4208C82.9797 34.7308 84.2096 36.4008 85.4396 38.0108C87.0596 40.1408 88.4596 42.4508 90.1196 44.5408C91.9296 46.8208 92.5496 49.4508 92.8696 52.4208C93.0896 50.4108 94.3797 50.3208 95.8397 50.3208C101.44 50.3508 106.83 51.6408 112.24 52.8508C114.65 53.3908 117.06 53.9108 119.38 55.2908C118.51 56.3108 117.76 57.1908 117.02 58.0608L117.08 58.0008L117.07 58.0208Z" fill="white"/>
<path d="M175.63 98.7408C178.27 105.481 179.55 112.001 176.84 118.811C176.26 120.261 175.34 121.161 173.85 121.791C166.87 124.701 160.09 128.051 153.56 131.891C152.56 132.481 151.5 132.961 150.16 133.651C150.07 132.631 149.94 132.031 149.96 131.421C150.15 126.421 149.76 121.461 148.83 116.551C148.74 116.101 148.77 115.631 148.68 115.171C148.27 113.011 148.92 111.671 151.07 110.611C156.94 107.721 162.62 104.461 168.46 101.501C170.65 100.391 173.07 99.7108 175.62 98.7408H175.63Z" fill="white"/>
<path d="M37.6597 156.771C38.9697 141.621 42.2096 127.161 50.8896 114.421C51.1196 114.461 51.3396 114.491 51.5696 114.531C51.5696 117.341 51.6196 120.151 51.5696 122.961C51.4296 129.881 51.1797 136.791 51.1097 143.711C51.0697 147.221 51.1197 150.751 51.5197 154.231C51.9097 157.601 52.7897 160.911 53.5297 164.571C47.6097 163.541 42.4696 160.961 37.6796 156.781L37.6597 156.771Z" fill="white"/>
<path d="M147.299 111.381C145.039 112.251 142.66 113.161 139.91 114.231C137.98 99.8108 136.05 85.7508 131.04 72.3708C131.25 72.1208 131.39 71.8608 131.6 71.7108C133.34 70.5008 135.09 69.3108 136.83 68.1108C144.58 75.3708 151.159 96.7008 147.299 111.391V111.381Z" fill="white"/>
<path d="M60.7995 196.031C61.9195 192.641 63.3895 189.751 66.6795 188.271C69.9095 186.821 73.0995 186.561 76.5895 187.931C81.6295 189.911 86.8695 191.061 92.3695 188.911C93.5195 191.191 93.8695 193.491 93.5795 195.911C93.4295 197.211 92.5895 197.791 91.4595 198.161C87.8895 199.351 84.2295 199.621 80.5095 199.361C77.2895 199.141 74.0495 199.061 70.8495 198.631C67.5095 198.181 64.1296 197.671 60.7896 196.031H60.7995Z" fill="white"/>
<path d="M196.01 131.101C187.93 131.911 181.38 135.791 174.18 139.301C174.71 137.091 175.18 135.431 175.5 133.751C175.75 132.391 175.77 130.991 175.98 129.631C176.47 126.481 177.2 123.441 180.07 121.551C180.07 121.171 180.15 120.871 180.06 120.641C179.11 118.181 179.04 115.731 179.35 113.091C179.86 108.741 179.1 104.441 177.3 100.401C176.26 98.0608 175.91 95.7508 176.88 92.7308C177.6 93.7808 178.2 94.3608 178.45 95.0608C179.33 97.5708 180.17 100.091 179.88 102.841C179.59 105.561 179.9 108.141 181.58 110.491C182.13 111.251 182.23 112.381 182.38 113.361C182.67 115.261 182.85 117.181 183.09 119.211C187.97 119.691 190.75 122.701 192.91 126.581C193.7 128.011 194.76 129.291 196.02 131.101H196.01Z" fill="white"/>
<path d="M107.1 196.781C106.98 195.411 106.83 194.041 106.76 192.671C106.7 191.591 106.75 190.511 106.75 189.251C107.52 189.381 108.05 189.441 108.56 189.561C114.03 190.881 119.32 190.551 124.44 188.051C125.3 187.631 126.46 187.331 127.36 187.541C129.86 188.111 132.359 188.811 134.739 189.781C137.579 190.941 139.16 193.261 139.73 196.691C137.12 197.221 134.56 197.841 131.95 198.231C129.68 198.571 127.36 198.691 125.06 198.851C119.29 199.251 113.7 198.041 108.12 196.791C107.77 196.711 107.4 196.731 107.04 196.711L107.1 196.771V196.781Z" fill="white"/>
<path d="M56.0296 170.651C54.3096 170.891 52.5896 171.301 50.8696 171.351C44.2596 171.531 39.6196 166.901 39.5496 159.841C44.1496 162.871 48.9896 164.901 54.6196 166.011C55.0396 167.471 55.4996 169.101 55.9696 170.731L56.0396 170.671L56.0296 170.651ZM48.8896 166.961C48.7796 167.131 48.6596 167.301 48.5496 167.461C49.7296 168.241 50.8596 169.121 52.1196 169.741C52.6096 169.981 53.6196 169.821 54.0096 169.441C54.6496 168.821 54.5496 167.961 53.5096 167.301C53.2796 167.851 53.0696 168.341 52.7796 169.041C51.3996 168.301 50.1496 167.631 48.8896 166.961Z" fill="white"/>
<path d="M107.09 188.081C107.14 187.131 107.18 186.411 107.23 185.631C107.63 185.471 107.95 185.251 108.28 185.231C110.76 185.131 113.26 185.161 115.74 184.971C118.01 184.791 120.27 184.381 122.53 184.071C123.07 184.001 123.61 183.951 124.14 183.901C124.82 186.411 124.62 187.301 122.7 187.901C117.63 189.481 112.5 190.271 107.09 188.081V188.081Z" fill="white"/>
<path d="M183.53 114.531C183.33 113.441 183.19 112.671 183.05 111.901C183.61 111.671 184.01 111.511 184.41 111.341C184.35 111.141 184.34 110.881 184.25 110.851C182.08 110.021 181.11 108.281 180.94 106.131C180.72 103.351 180.71 100.551 180.61 97.7708C184.42 98.4208 186.6 101.091 186.7 105.531C186.74 107.281 186.56 109.041 186.34 110.781C186.15 112.331 185.3 113.511 183.52 114.521L183.53 114.531Z" fill="white"/>
<path d="M92.3996 185.661C92.9396 187.301 92.2496 187.941 91.2996 188.161C89.6096 188.551 87.8497 189.101 86.1697 188.941C83.2696 188.671 80.3896 188.031 77.5496 187.341C76.1196 186.991 76.1696 186.781 76.3396 184.591C81.6996 184.951 87.0596 185.301 92.3996 185.661V185.661Z" fill="white"/>
<path d="M92.5596 45.9308C93.2196 44.7608 93.9396 43.6208 94.5096 42.4008C95.4696 40.3408 97.1496 39.1408 99.1496 38.3208C99.7996 38.0608 100.6 38.0308 101.31 38.1008C102.72 38.2508 103.25 39.1208 102.7 40.4108C102.39 41.1408 101.88 41.8608 101.29 42.3908C100.62 43.0008 99.8096 43.4808 98.9896 43.8808C96.5496 45.0608 94.1796 46.2708 94.1996 49.9308C92.7996 48.5308 93.0796 47.0508 92.6196 45.8608L92.5696 45.9308H92.5596Z" fill="white"/>
<path d="M182.58 137.171C183.67 138.501 185.16 138.271 186.7 138.121C184.76 139.491 178.53 140.811 174.99 140.651C176.88 138.671 180.69 136.991 182.66 137.261L182.58 137.181V137.171Z" fill="white"/>
<path d="M190.74 133.171C192.74 132.721 194.68 132.291 196.63 131.861C196.72 132.041 196.81 132.231 196.9 132.411C194.67 134.301 192.28 135.951 189.41 137.161C189.86 135.831 190.25 134.651 190.75 133.181L190.74 133.171Z" fill="white"/>
<path d="M182.58 137.171L182.66 137.251C183.11 136.721 183.45 135.981 184.02 135.691C185.63 134.891 187.32 134.281 189.07 133.561C189.16 136.001 188.46 137.031 186.38 137.291C185.14 137.451 183.85 137.211 182.58 137.161V137.171Z" fill="white"/>
<path d="M128.13 128.991C130.87 128.981 133.09 130.781 133.13 133.051C133.18 135.751 131.17 137.951 128.63 137.971C125.69 138.001 123.37 136.051 123.34 133.511C123.3 130.841 125.25 129.001 128.14 128.991H128.13ZM132.21 132.991C132.16 131.191 130.07 129.571 127.89 129.631C125.92 129.691 124.36 131.431 124.43 133.501C124.5 135.451 126.34 137.011 128.61 137.031C130.66 137.051 132.28 135.231 132.21 132.991V132.991Z" fill="black"/>
<path d="M126.73 145.451C125.6 145.101 124.46 144.841 123.42 144.361C123.05 144.191 122.729 143.401 122.799 142.981C122.869 142.581 123.47 142.041 123.9 141.971C126.54 141.561 129.199 141.231 131.869 140.961C132.849 140.861 133.55 141.531 133.53 142.431C133.52 143.001 132.97 143.901 132.47 144.071C130.65 144.661 128.739 145.001 126.739 145.471L126.73 145.451ZM123.85 142.881C125.6 145.281 127.789 144.061 129.819 143.941C130.859 143.881 132.219 143.851 132.619 141.811C129.519 142.191 126.69 142.531 123.86 142.881H123.85Z" fill="black"/>
<path d="M116.14 103.951C116.14 109.181 112.11 113.211 106.83 113.261C101.34 113.311 96.5696 108.561 96.5496 103.021C96.5396 97.9508 100.64 93.7608 105.63 93.7508C111.59 93.7508 116.14 98.1508 116.14 103.941V103.951ZM111.57 96.8208C108.18 101.141 104.8 105.451 101.42 109.761C104.88 112.931 110.14 112.641 113.1 109.241C116.26 105.611 115.69 100.451 111.57 96.8208ZM100.44 109.161C103.67 104.521 107.47 100.641 110.39 96.0708C106.82 93.8108 102.61 94.4108 99.9296 97.4008C97.0496 100.601 97.1196 104.981 100.44 109.161Z" fill="black"/>
<path d="M48.8996 166.961C50.1496 167.631 51.4096 168.301 52.7896 169.041C53.0796 168.341 53.2896 167.851 53.5196 167.301C54.5596 167.961 54.6596 168.821 54.0196 169.441C53.6296 169.821 52.6196 169.981 52.1296 169.741C50.8696 169.131 49.7396 168.241 48.5596 167.461C48.6696 167.291 48.7896 167.121 48.8996 166.961Z" fill="black"/>
<path d="M132.21 132.991C132.28 135.231 130.66 137.041 128.61 137.031C126.34 137.011 124.49 135.451 124.43 133.501C124.36 131.441 125.92 129.691 127.89 129.631C130.08 129.571 132.16 131.191 132.21 132.991V132.991Z" fill="#F0C3BA"/>
<path d="M123.86 142.881C126.69 142.531 129.52 142.191 132.62 141.811C132.22 143.851 130.86 143.881 129.82 143.941C127.8 144.061 125.6 145.281 123.85 142.881H123.86Z" fill="white"/>
<path d="M111.56 96.8208C115.68 100.441 116.25 105.611 113.09 109.241C110.13 112.641 104.87 112.931 101.41 109.761C104.78 105.461 108.17 101.151 111.56 96.8208Z" fill="white"/>
<path d="M100.44 109.161C97.1196 104.991 97.0496 100.611 99.9296 97.4008C102.61 94.4108 106.82 93.8108 110.39 96.0708C107.47 100.641 103.67 104.511 100.44 109.161Z" fill="white"/>
<path d="M143.778 35.4336L143.833 35.0733L144.178 35.3194L144.188 35.3099L144.97 34.6028L144.557 34.5402C144.664 34.2811 144.77 34.0241 144.874 33.7692C145.282 32.7749 145.677 31.8113 146.146 30.869C147.167 28.8317 148.567 27.4904 150.227 26.6754C151.895 25.8566 153.856 25.5541 156.011 25.6515L156.011 25.6515C158.027 25.742 159.8 26.2371 161.255 27.1767C162.705 28.1136 163.866 29.5102 164.636 31.4536C164.863 32.0316 165.006 32.6524 165.137 33.3495C165.18 33.5813 165.223 33.825 165.267 34.0779C165.354 34.5692 165.446 35.0954 165.562 35.6371L165.702 36.2913L166.29 35.9714C167.705 35.2008 169.086 34.6674 170.376 34.593C171.641 34.5201 172.839 34.8855 173.936 35.9671C175.552 37.5666 177.087 39.3244 177.433 41.9095C162.827 42.0736 148.523 42.2338 134.137 42.3898C133.866 39.6566 134.953 37.5968 136.72 35.8319L136.721 35.8314C137.681 34.8702 138.73 34.6563 139.898 34.7375C140.494 34.7789 141.113 34.8971 141.767 35.0357C141.889 35.0616 142.013 35.0883 142.138 35.1153C142.671 35.2302 143.225 35.3498 143.778 35.4336Z" fill="#EEEFFC" stroke="black"/>
<path d="M171.359 14.2913L171.359 14.2913L171.361 14.2904C173.732 13.2652 175.997 14.2097 178.142 16.1528C178.365 16.3563 178.561 16.7038 178.779 17.1986C178.846 17.3504 178.916 17.5192 178.989 17.6964C179.137 18.051 179.298 18.4393 179.476 18.7933L179.744 19.3275L180.222 18.9694C181.026 18.3675 181.738 18.1552 182.35 18.2552C182.956 18.3542 183.592 18.7813 184.202 19.7405L184.203 19.7415C184.81 20.6921 185.202 21.748 184.665 22.9504C181.379 23.5967 178.064 23.6563 174.703 23.6428C174.245 23.641 173.785 23.6378 173.325 23.6346C170.521 23.6149 167.683 23.5951 164.85 23.8839C164.845 23.4199 164.858 23.046 164.899 22.7374C164.953 22.3217 165.051 22.0615 165.187 21.8751C165.32 21.6917 165.523 21.5337 165.87 21.3832C166.226 21.2294 166.702 21.0965 167.355 20.9483L167.244 20.4607L167.744 20.4598C167.741 18.7632 168.12 17.4524 168.748 16.4578C169.376 15.4646 170.273 14.7552 171.359 14.2913Z" fill="#EEEFFC" stroke="black"/>
</g>
<defs>
<clipPath id="clip0_9_195">
<rect width="210" height="200" fill="white"/>
</clipPath>
</defs>
</svg>
