<svg viewBox="0 0 210 197" fill="none" xmlns="http://www.w3.org/2000/svg">
<rect width="210" height="197" fill="white"/>
<path d="M125.355 144.82V51.0932C125.355 47.8823 127.883 45.2405 131.09 45.0991L176.201 43.1098C179.754 42.9531 182.663 45.904 182.455 49.4544L176.014 159.538C175.666 165.49 167.789 167.346 164.821 162.175L155.192 145.401C153.572 142.579 149.997 141.563 147.135 143.11L134.208 150.098C130.21 152.259 125.355 149.364 125.355 144.82Z" fill="#FDF9F3" stroke="black" stroke-linecap="round"/>
<path d="M11.7727 185.874C15.0263 184.5 15.9446 184.649 20.3026 183.518C29.6116 181.102 30.5103 181.623 41.8592 180.47C67.2667 177.889 103.054 183.704 121.082 178.953C139.11 174.202 154.41 181.603 170.471 183.704C178.025 184.693 186.937 186.093 197.768 187.542" stroke="black" stroke-linecap="round"/>
<path d="M155.814 104.849C154.768 105.367 154.018 105.803 153.22 106.117C152.092 106.558 150.932 106.923 149.776 107.295C148.996 107.545 148.766 107.942 149.024 108.753C149.528 110.337 149.91 111.957 150.378 113.689C148.305 113.777 146.693 113.274 145.43 112.195C145.994 110.909 146.63 109.755 146.996 108.527C147.289 107.546 147.353 106.469 147.308 105.442C147.293 105.119 146.533 104.513 146.214 104.569C144.386 104.887 142.556 105.269 140.79 105.821C139.338 106.275 137.977 106.995 136.576 107.597C136.484 107.49 136.392 107.383 136.298 107.277C137.008 106.37 137.674 105.429 138.436 104.563C139.628 103.209 139.634 103.245 138.544 101.783C137.822 100.815 137.17 99.8019 136.376 98.6473C139.102 98.4913 141.281 99.2713 143.196 100.305C144.817 98.1019 146.36 96.0046 147.901 93.9086C148.04 93.9579 148.177 94.0073 148.314 94.0566C148.349 94.4166 148.422 94.7779 148.412 95.1353C148.353 96.9166 148.264 98.6966 148.201 100.478C148.145 102.097 148.178 102.018 149.758 102.465C151.418 102.934 153.029 103.565 154.653 104.149C154.95 104.255 155.205 104.475 155.814 104.849Z" fill="#EBC885"/>
<path d="M140.433 90.4433C141.155 92.683 141.79 94.6582 142.425 96.6321C141.525 96.5321 139.969 92.1561 140.433 90.4433Z" fill="black"/>
<path d="M154.099 109.964C155.128 109.397 160.3 110.38 160.951 111.221C158.631 110.796 156.511 110.406 154.099 109.964Z" fill="black"/>
<path d="M156.5 95.1787C155.239 96.8133 153.305 97.7947 151.844 99.5C151.775 99.1413 151.648 98.872 151.72 98.808C153.199 97.4787 154.701 96.172 156.199 94.8613C156.3 94.9667 156.4 95.0733 156.5 95.1787Z" fill="black"/>
<path d="M56.3003 170.162C57.4327 171.807 57.8185 172.262 59.0498 172.547C60.9838 172.995 62.8895 173.644 64.9329 173.513C65.8124 173.457 66.7032 173.615 67.5892 173.618C69.1957 173.623 70.8306 173.862 72.5442 173.146C72.4623 172.505 72.3829 171.886 72.2921 171.18C66.8491 170.834 61.5812 170.498 56.3003 170.162ZM94.2303 170.022C92.9536 170.163 91.7321 170.355 90.5041 170.424C86.5258 170.647 82.545 170.839 78.5643 171.014C77.4595 171.061 76.3506 171.001 75.2442 171.006C74.6347 171.008 74.0397 171.082 73.8249 171.795C73.6109 172.507 73.9343 173.26 74.749 173.552C75.7111 173.897 76.7227 174.251 77.7286 174.303C82.2305 174.533 86.7235 174.521 91.1631 173.507C93.5915 172.952 93.7528 172.852 94.2303 170.022ZM64.4563 47.7206C64.4044 48.0878 64.3023 48.3707 64.3355 48.6365C64.5957 50.7067 65.4063 52.4511 67.2147 53.6605C67.8445 54.082 68.6526 54.4005 68.9744 55.3781C67.2139 55.8985 65.5789 55.2929 63.6644 55.2711C64.1256 55.9682 64.3704 56.5072 64.7627 56.8995C65.724 57.86 66.8896 58.489 68.2498 58.7079C70.0168 58.9932 71.3381 59.9578 72.5361 61.2588C73.5209 62.3295 74.0762 63.5867 74.6744 64.8561C74.8657 65.2606 75.2239 65.5864 75.7079 66.2081C75.9235 65.4486 76.0864 65.0482 76.1472 64.634C76.6538 61.1396 76.0183 57.8041 74.274 54.7896C73.0265 52.6335 71.6023 50.4911 69.0903 49.5071C67.5859 48.917 66.0742 48.3439 64.4563 47.7206ZM134.062 112.02C134.923 115.549 135.773 119.045 136.637 122.537C136.721 122.878 136.897 123.195 137.024 123.506C141.098 122.687 143.124 120.503 143.42 116.616C143.499 115.589 143.529 114.536 143.391 113.521C143.255 112.517 142.877 111.545 142.592 110.516C142.818 110.209 143.061 109.931 143.244 109.618C143.445 109.275 143.592 108.899 143.871 108.306C143.042 108.306 142.437 108.17 141.924 108.33C139.17 109.182 136.525 110.288 134.062 112.02ZM56.841 173.057C56.4681 175.558 57.0744 177.805 58.9549 179.32C61.1573 181.096 63.7089 182.343 66.7202 182.124C68.4192 182.001 70.1254 181.98 71.8228 181.84C72.3651 181.796 72.8879 181.519 73.281 181.393C73.161 179.1 73.0549 177.057 72.9487 175.025C70.149 174.904 67.4895 174.951 64.8746 174.633C62.2475 174.312 59.665 173.628 56.841 173.057ZM94.2449 173.765C87.7465 175.714 81.2449 175.897 74.5998 174.938C74.2967 176.761 74.4207 178.381 74.6339 179.977C74.7036 180.501 75.1024 181.148 75.5457 181.423C76.6635 182.115 77.8348 182.883 79.088 183.169C84.9768 184.511 90.5705 183.472 95.7947 180.552C98.5587 179.007 100.866 176.973 101.429 173.412C99.589 172.165 97.6817 171.203 95.2848 171.896C94.9103 172.568 94.5561 173.205 94.2449 173.765ZM109.869 83.1937C107.548 85.4098 104.796 86.7148 102.183 88.2209C102.183 88.6083 102.133 88.9099 102.191 89.1887C103.073 93.4223 103.287 97.7135 103.296 102.02C103.302 105.283 103.269 108.548 103.273 111.811C103.274 112.372 103.374 112.933 103.438 113.612C107.3 112.642 110.758 111.238 113.867 109.22C115.511 101.252 113.348 88.5467 109.869 83.1937ZM53.8013 67.5432C53.3304 68.9244 53.7186 69.859 54.5705 70.5739C55.3025 71.1875 56.0717 71.8416 56.9398 72.1885C58.7896 72.927 60.6815 73.6168 62.6155 74.078C68.2279 75.4171 73.9416 75.4187 79.6432 74.9153C83.4829 74.5765 87.3023 73.9272 90.8575 72.3263C92.1236 71.7557 93.3767 71.0254 94.4232 70.1216C96.3442 68.4623 96.1221 67.1038 93.9036 65.8531C89.3725 63.299 84.4807 61.9469 79.3182 61.5222C78.8999 61.4882 78.4687 61.6106 77.9888 61.6673C77.3817 63.5511 77.9856 65.8061 76.1707 67.1784C74.9103 67.1038 74.2245 66.4991 73.7836 65.4138C73.3694 64.3941 72.806 63.427 72.2378 62.4787C71.8276 61.7946 71.1816 61.5295 70.3419 61.6073C64.3128 62.1658 58.8009 64.1298 53.8013 67.5432ZM132.433 111.51C131.691 111.848 131.275 111.998 130.897 112.215C126.82 114.556 122.398 116.032 117.953 117.476C114.715 118.528 111.499 119.657 108.315 120.863C105.199 122.044 102.134 123.36 99.0516 124.629C96.5834 125.644 94.1192 126.675 91.9631 128.291C91.4338 128.686 90.8275 129.077 90.4927 129.617C89.3166 131.514 88.3496 133.513 88.1526 135.795C87.9102 138.608 88.9672 140.399 91.621 141.261C92.7988 141.643 94.0795 141.811 95.3237 141.869C99.7527 142.075 104.018 141.085 108.215 139.827C117.274 137.111 125.789 133.137 133.995 128.471C134.564 128.147 135.086 127.739 135.76 127.282C135.682 121.861 134.253 116.781 132.433 111.51ZM39.673 84.6317C40.4212 84.8854 40.9513 85.1302 41.5073 85.2428C47.1643 86.389 52.81 87.6056 58.4913 88.6164C63.5955 89.5251 68.7442 90.1192 73.9489 90.1541C78.476 90.1849 82.9755 89.9255 87.4596 89.3078C92.3757 88.6302 97.2748 87.8439 102.073 86.5624C105.026 85.7729 107.355 84.0286 109.196 81.3877C106.188 75.8467 102.219 71.2921 96.9805 67.8277C95.0473 71.3707 93.8931 72.3523 89.9026 73.8089C88.9299 74.1639 87.9402 74.489 86.9359 74.7386C78.6746 76.7885 70.3694 76.881 62.0489 75.1512C59.8725 74.6989 57.7512 74.0067 55.8034 72.8889C54.5705 72.1813 53.439 71.3593 52.7646 70.0446C52.5765 69.6774 52.3293 69.341 52.0091 68.8295C46.4364 73.0477 42.4363 78.2233 39.673 84.6317ZM101.996 114.114C102.891 109.478 101.973 92.0606 100.667 88.55C100.325 88.55 99.9562 88.5111 99.5979 88.5556C93.2762 89.3338 86.9675 90.2424 80.6305 90.8585C77.3282 91.1795 73.9692 91.1462 70.6499 90.9833C67.4011 90.8228 64.1742 90.2651 60.9327 89.9336C54.6638 89.2916 48.4929 88.0977 42.3536 86.7173C41.3558 86.4927 40.3734 86.1993 39.2077 85.8905C36.0546 93.4791 35.5991 101.259 36.4113 109.164C40.7957 111.881 45.45 113.325 50.1635 114.65C55.4768 116.143 61.0041 116.234 66.3887 117.242C66.6051 117.282 66.8329 117.268 67.055 117.272C70.3159 117.327 73.5769 117.427 76.837 117.42C79.3563 117.415 81.8852 117.399 84.3899 117.17C87.4847 116.886 90.5592 116.382 93.6402 115.962C96.5007 115.573 99.3069 114.95 101.996 114.114ZM113.75 117.239C114.05 114.149 113.965 111.907 113.468 110.827C112.813 111.156 112.169 111.499 111.51 111.809C110.438 112.312 109.382 112.863 108.273 113.272C103.327 115.1 98.2799 116.55 93.0168 117.135C90.6613 117.397 88.3123 117.711 85.9535 117.93C83.9652 118.115 81.9679 118.218 79.9731 118.313C79.3133 118.345 78.6478 118.203 77.9848 118.207C75.0278 118.226 72.066 118.376 69.1138 118.269C66.5306 118.176 63.9594 117.769 61.3777 117.559C53.1034 116.881 45.1411 115.063 37.7317 111.179C37.4853 111.05 37.2008 110.992 36.8198 110.863C36.7347 111.246 36.6317 111.512 36.6236 111.781C36.4972 115.78 36.3626 119.781 36.2775 123.781C36.2459 125.262 36.3221 126.745 36.378 128.227C36.438 129.781 36.5815 131.333 36.6026 132.888C36.6512 136.52 36.6698 140.154 36.6601 143.788C36.648 148.427 37.7738 152.753 40.2453 156.681C44.2698 163.076 50.0475 167.091 57.3354 168.922C58.7523 169.278 60.2559 169.337 61.7255 169.42C64.3144 169.565 66.9091 169.631 69.5013 169.713C72.3059 169.803 75.0926 170.133 77.9199 169.903C81.4629 169.615 85.0254 169.506 88.5806 169.467C90.2301 169.449 91.8415 169.333 93.4108 168.874C103.936 165.787 110.99 159.276 113.246 148.279C113.807 145.545 113.763 142.688 113.981 139.887C113.989 139.78 113.825 139.66 113.676 139.457C113.013 139.669 112.314 139.889 111.616 140.113C107.162 141.54 102.663 142.758 97.9654 143.064C95.6496 143.215 93.3589 143.063 91.1598 142.31C87.9702 141.216 86.4342 138.655 87.1686 135.342C87.5633 133.556 88.4258 131.878 89.0296 130.135C89.4884 128.808 90.3776 127.875 91.4922 127.081C93.6264 125.562 96.0103 124.543 98.4169 123.573C103.362 121.579 108.318 119.61 113.267 117.624C113.398 117.571 113.498 117.444 113.75 117.239ZM68.9298 60.4214C68.2222 60.158 67.5438 59.9254 66.8823 59.6538C65.1809 58.9568 63.8419 57.8333 62.9738 56.1976C62.4599 55.2289 62.4469 54.8277 62.7727 53.3557C63.9416 53.6767 64.8486 54.8788 66.4001 54.4265C66.0969 54.0811 65.8626 53.7764 65.5919 53.5097C64.1369 52.0798 63.5874 50.2512 63.3288 48.3107C63.2291 47.5674 63.3328 46.8298 64.0056 46.1465C64.3517 46.2956 64.7376 46.4504 65.1137 46.6255C65.784 46.9376 66.4195 47.3688 67.1215 47.5641C72.7347 49.1245 75.4866 53.3249 77.2552 58.4501C77.4465 59.0046 77.5851 59.5768 77.7732 60.2285C79.691 60.5228 81.5886 60.7635 83.4667 61.1112C89.4884 62.225 94.9185 64.6988 99.6295 68.5961C108.707 76.1069 114.153 85.6619 115.542 97.446C116.043 101.695 115.847 105.88 114.683 110.01C114.543 110.503 114.424 111.043 114.479 111.542C114.672 113.287 114.945 115.023 115.207 116.898C121.324 115.303 127.024 113.077 132.482 110.218C132.934 110.46 133.315 110.662 133.72 110.879C133.912 110.812 134.127 110.759 134.322 110.664C136.383 109.656 138.408 108.571 140.511 107.662C141.361 107.295 142.385 107.14 143.315 107.187C144.758 107.261 145.245 108.22 144.644 109.508C144.458 109.906 144.175 110.259 143.88 110.72C144.041 111.235 144.219 111.791 144.385 112.349C145.138 114.882 144.788 117.337 143.833 119.74C143.198 121.339 141.963 122.388 140.516 123.208C139.359 123.863 138.173 124.469 136.9 125.15C136.856 126.116 136.813 127.064 136.759 128.211C134.189 129.641 131.592 131.218 128.879 132.562C124.962 134.502 120.993 136.345 116.981 138.078C115.614 138.669 114.963 139.429 115.034 140.888C115.073 141.701 115.004 142.519 115 143.335C114.982 147.325 114.084 151.073 112.316 154.683C111.033 157.303 109.557 159.757 107.626 161.914C104.756 165.117 101.251 167.431 97.2391 168.984C96.8606 169.13 96.5323 169.424 96.2121 169.688C96.1408 169.747 96.2016 169.966 96.2016 170.224C98.5206 170.641 100.798 171.241 102.617 173.181C102.287 175.207 101.814 177.221 100.259 178.733C98.8238 180.127 97.214 181.295 95.378 182.18C90.0323 184.757 84.4588 185.383 78.6916 184.206C77.1183 183.884 75.6244 183.169 73.7876 182.527C71.5853 183.008 69.0109 183.188 66.4154 183.231C63.0921 183.287 60.2997 181.887 57.9482 179.805C56.0596 178.132 55.1979 175.791 55.7021 173.153C55.771 172.794 55.8942 172.447 55.9996 172.067C55.0634 170.401 53.8508 169.263 52.0286 168.436C42.2255 163.99 36.8295 156.195 35.535 145.601C35.2149 142.977 35.6347 140.269 35.6015 137.602C35.5302 131.894 35.3308 126.187 35.2919 120.48C35.2708 117.443 35.4872 114.404 35.5667 111.365C35.5861 110.631 35.5739 109.875 35.4305 109.159C33.755 100.809 34.7934 92.7625 38.2261 85.028C41.2909 78.1227 45.7726 72.2842 51.8705 67.7653C56.3408 64.4524 61.2999 62.1934 66.7745 61.1104C67.4279 60.9816 68.0804 60.8494 68.7313 60.7108C68.7718 60.7019 68.7961 60.6208 68.9298 60.4214Z" fill="black"/>
<path d="M113.75 117.239C113.497 117.444 113.398 117.572 113.266 117.624C108.318 119.609 103.362 121.579 98.4168 123.573C96.0102 124.543 93.6263 125.561 91.4921 127.081C90.3775 127.875 89.4883 128.808 89.0295 130.135C88.4257 131.877 87.5632 133.556 87.1685 135.342C86.4349 138.655 87.9701 141.216 91.1597 142.31C93.3588 143.063 95.6503 143.215 97.9653 143.064C102.663 142.758 107.162 141.54 111.617 140.113C112.314 139.889 113.013 139.669 113.676 139.457C113.825 139.66 113.989 139.78 113.981 139.887C113.763 142.688 113.807 145.545 113.246 148.279C110.99 159.276 103.936 165.787 93.4107 168.874C91.8414 169.334 90.23 169.449 88.5805 169.467C85.0253 169.506 81.4628 169.615 77.9198 169.903C75.0925 170.132 72.3058 169.803 69.5012 169.714C66.909 169.631 64.3144 169.565 61.7254 169.42C60.2558 169.337 58.7522 169.278 57.3361 168.922C50.0483 167.092 44.2705 163.076 40.246 156.681C37.7746 152.753 36.6479 148.427 36.66 143.788C36.6698 140.154 36.6511 136.52 36.6025 132.887C36.5814 131.334 36.4379 129.78 36.3788 128.227C36.322 126.745 36.2458 125.262 36.2774 123.781C36.3625 119.78 36.4971 115.78 36.6236 111.781C36.6325 111.512 36.7354 111.246 36.8197 110.863C37.2007 110.992 37.4852 111.05 37.7316 111.179C45.1411 115.063 53.1033 116.881 61.3776 117.559C63.9593 117.769 66.5305 118.176 69.1138 118.27C72.0659 118.377 75.0277 118.226 77.9847 118.207C78.6477 118.203 79.3132 118.345 79.973 118.313C81.9678 118.218 83.9651 118.115 85.9534 117.93C88.3122 117.711 90.6612 117.397 93.0168 117.136C98.2806 116.55 103.326 115.1 108.273 113.272C109.381 112.863 110.438 112.312 111.51 111.808C112.169 111.499 112.813 111.156 113.468 110.827C113.965 111.907 114.05 114.149 113.75 117.239Z" fill="white"/>
<path d="M101.996 114.114C99.3066 114.95 96.5012 115.573 93.6407 115.962C90.5589 116.381 87.4844 116.886 84.3897 117.169C81.885 117.4 79.356 117.416 76.8375 117.421C73.5766 117.426 70.3157 117.327 67.0547 117.272C66.8326 117.268 66.6057 117.282 66.3893 117.242C61.0038 116.235 55.4765 116.143 50.1632 114.65C45.4497 113.325 40.7954 111.882 36.4118 109.164C35.5996 101.259 36.0552 93.4796 39.2075 85.891C40.3731 86.199 41.3555 86.4924 42.3533 86.7169C48.4926 88.0973 54.6635 89.2921 60.9325 89.9333C64.174 90.2656 67.4008 90.8233 70.6496 90.983C73.9689 91.1467 77.3279 91.1791 80.6302 90.859C86.9673 90.2429 93.276 89.3335 99.5976 88.5553C99.9559 88.5115 100.325 88.5496 100.667 88.5496C101.973 92.061 102.891 109.479 101.996 114.114Z" fill="white"/>
<path d="M39.6729 84.632C42.4361 78.2228 46.4355 73.0473 52.0082 68.8299C52.3291 69.3405 52.5764 69.6777 52.7644 70.0441C53.4388 71.3597 54.5704 72.1808 55.8033 72.8892C57.7511 74.007 59.8715 74.6992 62.0479 75.1515C70.3684 76.8813 78.6736 76.7881 86.9358 74.7381C87.9401 74.4893 88.9298 74.1642 89.9024 73.8092C93.8929 72.3518 95.0472 71.3702 96.9804 67.8272C102.218 71.2924 106.187 75.847 109.195 81.3881C107.355 84.0281 105.025 85.7733 102.072 86.562C97.2738 87.8435 92.3755 88.6305 87.4586 89.3082C82.9745 89.9258 78.475 90.1844 73.9479 90.1536C68.7441 90.1188 63.5953 89.5254 58.4911 88.6168C52.809 87.6052 47.1642 86.3893 41.5072 85.2432C40.9503 85.1305 40.421 84.8857 39.6729 84.632Z" fill="white"/>
<path d="M132.432 111.51C134.253 116.781 135.682 121.861 135.759 127.281C135.085 127.739 134.564 128.147 133.994 128.472C125.789 133.137 117.274 137.111 108.215 139.827C104.017 141.085 99.7522 142.075 95.3232 141.869C94.0798 141.811 92.7991 141.643 91.6213 141.261C88.9667 140.399 87.9097 138.608 88.1521 135.795C88.349 133.513 89.3161 131.514 90.493 129.617C90.827 129.077 91.4341 128.686 91.9626 128.291C94.1195 126.675 96.5828 125.644 99.051 124.629C102.134 123.36 105.199 122.044 108.315 120.863C111.498 119.657 114.715 118.528 117.953 117.476C122.397 116.032 126.82 114.556 130.898 112.215C131.275 111.998 131.69 111.848 132.432 111.51Z" fill="white"/>
<path d="M53.8006 67.543C58.8003 64.1296 64.3121 62.1656 70.3412 61.6079C71.1809 61.5301 71.8278 61.7944 72.2379 62.4793C72.8053 63.4269 73.3687 64.3939 73.7829 65.4136C74.2246 66.4989 74.9104 67.1036 76.17 67.179C77.9849 65.8067 77.381 63.5509 77.9889 61.6671C78.468 61.6112 78.8992 61.488 79.3175 61.522C84.48 61.9468 89.3726 63.2996 93.9037 65.8537C96.1215 67.1036 96.3444 68.463 94.4225 70.1222C93.3761 71.0252 92.1237 71.7555 90.8568 72.3262C87.3024 73.9278 83.4822 74.5763 79.6425 74.9151C73.9409 75.4185 68.2272 75.4169 62.6148 74.0778C60.6808 73.6166 58.7897 72.9268 56.94 72.1884C56.0711 71.8422 55.3018 71.1873 54.5707 70.5737C53.718 69.8588 53.3305 68.9242 53.8006 67.543Z" fill="white"/>
<path d="M109.869 83.1941C113.348 88.5463 115.511 101.252 113.867 109.22C110.758 111.238 107.299 112.641 103.438 113.612C103.373 112.933 103.274 112.371 103.273 111.811C103.269 108.547 103.302 105.284 103.296 102.02C103.287 97.7131 103.073 93.4227 102.191 89.1891C102.132 88.9103 102.183 88.6087 102.183 88.2213C104.796 86.7152 107.548 85.4094 109.869 83.1941Z" fill="#CAE4E4"/>
<path d="M94.2448 173.765C94.5561 173.206 94.9103 172.569 95.2848 171.895C97.6816 171.204 99.5889 172.164 101.428 173.412C100.866 176.973 98.5587 179.007 95.7946 180.552C90.5705 183.473 84.9759 184.512 79.0871 183.169C77.8348 182.883 76.6635 182.116 75.5457 181.423C75.1015 181.148 74.7035 180.501 74.633 179.977C74.4206 178.38 74.2966 176.761 74.5998 174.937C81.244 175.896 87.7456 175.714 94.2448 173.765Z" fill="white"/>
<path d="M56.8403 173.057C59.6652 173.627 62.2476 174.312 64.8739 174.633C67.4888 174.952 70.1483 174.904 72.9488 175.024C73.0542 177.057 73.1612 179.1 73.2803 181.392C72.8872 181.519 72.3644 181.796 71.8221 181.841C70.1256 181.98 68.4185 182.001 66.7196 182.124C63.7091 182.343 61.1566 181.096 58.9543 179.32C57.0746 177.805 56.4674 175.558 56.8403 173.057Z" fill="white"/>
<path d="M134.062 112.02C136.525 110.288 139.17 109.182 141.924 108.33C142.437 108.17 143.042 108.306 143.871 108.306C143.592 108.899 143.445 109.275 143.244 109.618C143.061 109.931 142.818 110.209 142.592 110.516C142.876 111.545 143.254 112.517 143.391 113.521C143.528 114.536 143.498 115.589 143.42 116.616C143.124 120.503 141.098 122.687 137.023 123.506C136.897 123.195 136.721 122.878 136.637 122.537C135.773 119.045 134.923 115.549 134.062 112.02Z" fill="white"/>
<path d="M64.4563 47.7209C66.0734 48.3434 67.5851 48.9173 69.0904 49.5074C71.6015 50.4914 73.0257 52.6338 74.2732 54.7899C76.0183 57.8036 76.6538 61.1399 76.1464 64.6335C76.0864 65.0485 75.9235 65.4481 75.7079 66.2084C75.2232 65.5867 74.8649 65.2609 74.6744 64.8564C74.0754 63.587 73.521 62.3298 72.5353 61.2591C71.3381 59.9573 70.0168 58.9935 68.2498 58.7082C66.8888 58.4893 65.7241 57.8603 64.7627 56.899C64.3704 56.5075 64.1248 55.9685 63.6636 55.2706C65.5781 55.2932 67.2131 55.8987 68.9744 55.3784C68.6527 54.4008 67.8445 54.0823 67.2139 53.6599C65.4063 52.4506 64.5949 50.707 64.3355 48.6368C64.3015 48.371 64.4036 48.0881 64.4563 47.7209Z" fill="white"/>
<path d="M94.2306 170.022C93.7524 172.852 93.5919 172.952 91.1634 173.507C86.7239 174.521 82.2309 174.533 77.729 174.303C76.7231 174.252 75.7115 173.897 74.7485 173.552C73.9347 173.26 73.6113 172.507 73.8253 171.795C74.0401 171.082 74.635 171.009 75.2438 171.005C76.351 171.001 77.4599 171.062 78.5647 171.013C82.5454 170.839 86.5253 170.647 90.5036 170.424C91.7325 170.355 92.954 170.163 94.2306 170.022Z" fill="white"/>
<path d="M56.3 170.162C61.5809 170.498 66.8488 170.834 72.2918 171.18C72.3826 171.886 72.4621 172.505 72.5439 173.146C70.8304 173.862 69.1955 173.623 67.5889 173.618C66.7029 173.615 65.8121 173.457 64.9327 173.513C62.8892 173.644 60.9835 172.996 59.0495 172.547C57.8183 172.262 57.4324 171.807 56.3 170.162Z" fill="white"/>
<path d="M21.5141 64.4412C22.6241 64.3912 23.8841 65.5912 23.8541 66.6712C23.8341 67.5112 22.5341 68.6112 21.5141 68.6612C20.4341 68.7112 19.4641 67.7212 19.4641 66.5612C19.4641 65.3812 20.3141 64.5012 21.5141 64.4512V64.4412ZM21.2941 68.0112C21.8641 67.5112 22.5041 67.2112 22.5641 66.8312C22.6241 66.4512 22.0841 65.9912 21.8141 65.5712C21.4241 65.8712 20.8041 66.1112 20.7041 66.4912C20.6041 66.8512 21.0241 67.3712 21.3041 68.0212L21.2941 68.0112Z" fill="black"/>
<path d="M57.8341 13.7912C57.7741 15.0512 56.7141 16.0712 55.5141 16.0112C54.3241 15.9512 53.5641 15.1612 53.6741 14.0912C53.7841 12.9412 54.7941 11.9612 55.8141 12.0012C57.0141 12.0512 57.8841 12.8212 57.8441 13.7912H57.8341ZM55.6741 12.8212C55.2641 13.3912 54.8741 13.7512 54.7741 14.1812C54.7341 14.3612 55.4741 14.9512 55.5941 14.8912C55.9941 14.6612 56.3641 14.2612 56.5541 13.8412C56.6141 13.7012 56.0941 13.3012 55.6741 12.8212Z" fill="black"/>
<path d="M81.2641 35.9812C80.7641 36.8412 80.2641 37.7012 79.7741 38.5612C78.7641 37.8112 77.7641 37.0612 76.7041 36.2712C77.2441 35.2812 77.7641 34.3312 78.3441 33.2612C79.1341 34.4112 79.8841 35.5012 80.6441 36.6012C80.8541 36.3912 81.0641 36.1912 81.2741 35.9812H81.2641Z" fill="white"/>
<path d="M21.294 68.0212C21.014 67.3712 20.594 66.8612 20.694 66.4912C20.804 66.1112 21.414 65.8712 21.804 65.5712C22.084 65.9912 22.614 66.4612 22.554 66.8312C22.494 67.2112 21.864 67.5112 21.284 68.0112L21.294 68.0212Z" fill="white"/>
<path d="M65.674 2.81122C66.094 3.28122 66.614 3.68122 66.554 3.83122C66.374 4.25122 65.994 4.65122 65.594 4.88122C65.474 4.95122 64.734 4.35122 64.774 4.17122C64.874 3.75122 65.264 3.39122 65.674 2.81122Z" fill="white"/>
</svg>
