<svg width="210" height="197" viewBox="0 0 210 197" fill="none" xmlns="http://www.w3.org/2000/svg">
<rect width="210" height="197" fill="white"/>
<path d="M11.9121 184.085C15.1657 182.711 16.0839 182.86 20.442 181.729C29.751 179.313 30.6497 179.834 41.9986 178.681C67.4061 176.1 95.0132 175.802 121.221 177.164C138.412 178.058 154.55 179.814 170.61 181.915C178.164 182.904 187.077 184.304 197.907 185.753" stroke="black" stroke-linecap="round"/>
<rect x="109.664" y="64.8859" width="88.2438" height="80.702" rx="4" fill="#F4F5FF"/>
<rect x="7.80273" y="8.6078" width="88.2438" height="80.702" rx="4" fill="#FDF9F3"/>
<path d="M173.29 99.9065C173.245 99.9603 173.194 100.014 173.149 100.068C171.433 101.406 169.968 103.029 169.01 105.237L169.049 105.183C168.547 105.652 168.001 106.075 167.558 106.614C166.169 108.267 164.82 109.967 163.457 111.644C162.602 112.706 161.754 113.175 160.475 112.375C159.447 111.736 158.232 111.352 157.069 111.229C153.348 110.821 149.614 110.567 145.88 110.29C145.025 110.229 144.157 110.283 143.296 110.283C143.45 109.837 143.63 109.675 143.83 109.583C146.49 108.306 148.913 106.537 151.227 104.522C154.98 101.26 157.892 97.0528 160.61 92.6454C161.06 91.9147 161.503 91.3993 162.249 91.1917C167.198 89.7841 171.504 86.8766 175.411 83.023C177.159 81.3 178.368 79.1848 179.132 76.6465C179.884 74.139 180.096 71.5391 180.231 68.9085C180.488 63.9473 178.927 59.9014 175.996 56.5324C175.405 55.8556 174.711 55.3171 174.055 54.7095C175.148 46.0177 173.927 38.349 167.378 32.8186C170.334 31.8187 172.628 32.6956 174.569 35.0415C175.36 36.003 176.073 37.0491 176.832 38.0567C177.577 39.0413 178.477 39.4874 179.55 38.9721C180.733 38.4029 181.504 37.4029 181.607 35.7953C181.78 33.0417 181.08 30.7803 179.139 29.1266C175.469 25.996 171.394 25.3268 167.095 26.4114C165.964 26.696 164.935 27.5267 163.804 28.1343C162.911 27.4344 161.992 26.7036 160.809 25.7729C161.548 25.4499 161.96 25.2345 162.39 25.0807C165.167 24.0654 168.007 24.0961 170.867 24.3576C179.332 25.1345 187.237 28.3035 194.955 32.2879C195.604 32.6263 196.247 33.0263 196.838 33.4955C199.017 35.2108 200.437 37.4568 200.791 40.7027C201.421 46.4869 200.547 51.925 198.304 57.0016C196.337 61.4629 194.107 65.7472 192.025 70.1315C191.652 70.9084 191.414 71.7776 191.118 72.6006C190.771 73.1467 190.424 73.7005 190.071 74.2466C189.582 75.1927 189.1 76.1388 188.612 77.0772L188.651 77.0234C187.532 77.8233 186.877 79.0463 186.472 80.4924L186.504 80.4385C186.356 80.5385 186.163 80.5924 186.067 80.7308C184.055 83.6076 182.057 86.492 180.064 89.3918C179.891 89.6456 179.814 89.9994 179.692 90.3071L179.73 90.2533C179.12 91.1224 178.515 91.9916 177.905 92.8608L177.943 92.8069L176.118 95.4222L176.157 95.3683C175.61 96.0913 175.058 96.8221 174.511 97.5451C174.46 97.5989 174.415 97.6528 174.364 97.7066C173.997 98.4373 173.631 99.1681 173.271 99.8988L173.29 99.9065Z" fill="white"/>
<path d="M191.119 72.5929C191.421 71.7699 191.658 70.9007 192.025 70.1238C194.114 65.7395 196.344 61.4475 198.304 56.9939C200.54 51.9174 201.421 46.4793 200.791 40.695C200.438 37.4414 199.017 35.2031 196.839 33.4878C196.247 33.0186 195.605 32.6186 194.955 32.2802C187.237 28.2882 179.325 25.1191 170.867 24.35C168.008 24.0884 165.173 24.0577 162.39 25.073C161.96 25.2268 161.549 25.4422 160.809 25.7652C161.986 26.696 162.911 27.419 163.804 28.1266C164.936 27.519 165.964 26.6883 167.095 26.4037C171.395 25.3191 175.469 25.9883 179.139 29.1189C181.08 30.7726 181.787 33.034 181.607 35.7877C181.504 37.3952 180.726 38.3952 179.55 38.9644C178.483 39.4797 177.577 39.0336 176.832 38.049C176.08 37.0491 175.366 35.9953 174.569 35.0339C172.628 32.6802 170.334 31.811 167.378 32.8109C173.927 38.349 175.141 46.01 174.055 54.7018C174.711 55.3094 175.405 55.8555 175.996 56.5247C178.927 59.8937 180.489 63.9396 180.231 68.9008C180.096 71.5391 179.884 74.1313 179.132 76.6388C178.368 79.1771 177.159 81.2923 175.411 83.0153C171.504 86.8612 167.204 89.7687 162.249 91.184C161.504 91.3993 161.06 91.907 160.61 92.6377C157.885 97.0528 154.98 101.253 151.227 104.514C148.907 106.529 146.49 108.298 143.83 109.575C143.63 109.675 143.45 109.837 143.296 110.275C144.157 110.275 145.019 110.221 145.88 110.283C149.614 110.567 153.348 110.813 157.069 111.221C158.232 111.352 159.447 111.729 160.475 112.367C161.754 113.167 162.603 112.698 163.457 111.636C164.82 109.952 166.169 108.26 167.558 106.606C168.008 106.068 168.547 105.652 169.049 105.175C168.837 105.583 168.676 106.052 168.406 106.398C166.491 108.821 164.556 111.221 162.532 113.744C163.657 117.851 163.04 122.251 162.48 126.666C162.288 128.205 161.388 129.005 160.366 129.589C159.299 130.189 158.168 130.658 157.037 131.058C152.808 132.535 148.476 133.35 144.093 133.85C140.256 134.289 136.432 134.85 132.332 135.396C131.831 143.719 131.451 152.195 131.014 160.856C131.522 160.933 132.036 160.964 132.525 161.087C133.81 161.418 134.337 162.325 134.054 163.848C133.637 166.125 133.155 168.387 132.66 170.848C134.838 171.148 136.959 171.356 139.061 171.748C144.222 172.709 149.37 173.709 154.511 174.786C155.726 175.04 156.908 175.578 158.072 176.109C158.541 176.324 159.164 176.794 159.261 177.271C159.511 178.586 160.315 179.04 161.15 179.586C161.934 180.093 162.397 180.847 162.166 182.039C162.082 182.478 162.14 182.993 162.256 183.432C163.342 187.524 160.803 191.277 157.191 190.839C153.393 190.377 152.191 186.631 153.226 183.593C153.823 181.839 154.183 180.163 156.163 179.363C147.461 177.578 139.151 175.871 130.706 174.14C130.243 177.463 129.761 180.863 129.266 184.432C129.813 184.678 130.41 184.939 131.002 185.224C132.293 185.832 133.02 186.908 133.026 188.624C133.026 189.262 133.103 189.893 133.148 190.531C133.386 193.954 131.252 196.639 128.264 196.669C125.262 196.7 123.244 194.116 123.174 190.7C123.116 188.062 124.266 186.662 125.905 185.478C126.355 185.155 126.85 184.901 127.403 184.562C127.158 182.747 126.876 180.947 126.689 179.14C126.496 177.324 126.394 175.501 126.239 173.486C122.505 174.863 119.028 176.178 115.532 177.44C112.081 178.678 108.553 179.647 105.288 181.578C106.412 182.324 107.537 183.001 108.591 183.801C109.266 184.316 109.735 185.055 109.427 186.147C109.375 186.339 109.42 186.57 109.427 186.778C109.619 192.062 105.705 195.6 101.477 193.954C98.3595 192.739 97.7168 189.085 98.9315 186.831C99.0922 186.531 99.33 186.208 99.33 185.893C99.3364 183.662 100.596 182.663 102.151 181.77C101.952 180.078 102.903 179.393 104.067 178.778C109.459 175.948 115.031 173.755 120.667 171.763C121.914 171.325 123.148 170.848 124.504 170.348C124.183 168.579 123.887 166.94 123.585 165.294C123.084 162.548 123.251 162.264 125.59 161.949C125.822 161.918 126.046 161.833 126.522 161.71C126.708 153.103 126.901 144.465 127.094 135.581C126.284 135.504 125.719 135.381 125.16 135.404C120.275 135.619 115.442 134.781 110.59 134.473C105.725 134.166 100.892 133.497 96.0459 133.143C91.5728 132.82 87.2218 131.797 82.8193 131.081C79.5288 130.543 78.1534 128.72 77.6007 124.659C77.1059 120.997 76.8424 117.328 78.1085 113.752C78.5648 112.467 79.2267 111.567 80.3322 111.221C81.881 110.729 83.4428 110.337 84.9981 109.867C85.7886 109.629 86.5598 109.29 87.3375 109.006C88.9313 109.198 90.4995 109.006 91.9584 108.652C92.0933 108.352 92.1898 108.237 92.2026 108.106C93.0317 100.13 91.4314 93.0223 86.894 86.9919C86.3284 86.2382 85.5315 85.7382 84.8953 85.169C83.3785 86.6074 83.0572 87.3227 82.8386 89.6995C82.4723 93.6453 83.0572 97.4836 83.8412 101.291C84.2461 103.245 85.0238 104.983 86.0906 106.56C86.5984 107.314 86.9454 108.221 87.3696 109.06C84.9531 106.552 83.3849 103.422 82.8772 99.668C82.4145 96.2529 81.7782 92.8454 82.2602 89.3072C82.5237 87.3765 83.1857 85.8151 84.2461 84.4306C84.4646 84.1537 84.8374 83.9152 85.1459 83.8998C85.8528 83.8614 86.5919 83.8383 87.2668 84.046C93.1923 85.9074 97.4726 89.9148 99.1501 97.2605C99.1822 97.3989 99.2336 97.522 99.3557 97.9066C99.8634 97.9451 100.468 97.9912 101.271 98.0604C100.532 95.876 99.857 93.9915 99.2464 92.0762C98.186 88.738 97.3119 85.3459 97.524 81.7077C97.7554 77.8233 98.623 74.1082 100.21 70.7546C101.522 67.9932 103.231 65.5011 104.767 62.8935C104.999 62.5013 105.262 62.1321 105.577 61.6475C102.46 59.9784 99.4392 58.4015 96.4443 56.7555C93.5008 55.1402 90.2488 54.2403 87.6138 51.3866C88.2308 49.9559 88.8478 48.5253 89.529 46.9561C88.9313 46.5331 88.2951 46.0793 87.6138 45.6024C84.2526 48.6022 80.5057 47.7946 76.8617 46.9254C73.976 46.2331 72.4399 43.5794 72.0929 40.2335C71.6944 36.3722 71.1224 32.5109 71.3024 28.5727C71.3731 26.9652 71.7973 26.0191 73.0569 25.3037C75.1264 24.1192 77.318 23.95 79.4967 24.0038C82.8194 24.0807 86.1421 24.35 89.3812 25.3883C89.7797 25.5191 90.1653 25.6883 90.5638 25.8345C91.5728 26.2037 92.0162 26.9729 91.8105 28.2497C91.7527 28.5881 91.8041 28.9573 91.8041 29.4342C92.6396 30.0188 93.5587 30.3342 94.5934 30.3419C96.8685 30.3496 97.7233 31.2341 98.0125 33.8878C98.0832 34.5647 98.2374 34.9723 98.7259 35.4261C101.387 37.926 103.867 40.7335 106.637 43.0333C109.157 45.1255 111.972 46.7023 114.658 48.5099C115.622 49.156 116.348 48.9099 117.171 47.9561C122.351 41.9719 127.84 36.4415 134.087 32.0571C137.326 29.7881 140.687 27.819 144.222 26.3421C149.19 24.2653 154.267 23.6192 159.453 25.173C159.871 25.296 160.398 25.1961 160.803 24.9961C164.196 23.3039 167.725 23.1808 171.311 23.5115C178.246 24.15 184.852 26.3729 191.279 29.4419C192.989 30.2573 194.711 31.0572 196.344 32.0571C199.454 33.957 201.344 36.8568 201.678 41.2104C202.076 46.4485 201.402 51.4328 199.563 56.1632C197.43 61.6552 194.782 66.801 191.858 71.7391C191.658 72.0775 191.369 72.3391 191.119 72.6391V72.5929ZM125.873 186.708C128.225 185.993 130.295 186.624 132.068 188.716C132.377 187.662 131.959 187.07 131.432 186.578C129.838 185.085 127.666 185.162 125.905 186.739C125.34 187.116 124.774 187.501 124.208 187.878C124.305 188.031 124.395 188.178 124.491 188.331C124.954 187.785 125.417 187.239 125.879 186.701L125.873 186.708ZM106.11 104.929C104.979 103.406 103.739 101.976 102.756 100.33C101.894 98.8835 100.962 98.4681 99.5549 99.0911C99.9534 102.176 99.8056 105.122 98.186 107.791C100.461 107.791 102.524 107.791 104.594 107.791C105.815 107.791 106.38 106.937 106.592 105.614C107.261 105.206 107.987 104.898 108.591 104.383C110.834 102.452 113.386 101.76 116.104 101.553C111.438 103.191 106.843 104.922 105.166 111.413C107.839 111.806 110.352 112.206 112.871 112.544C115.429 112.883 117.756 114.067 120.07 115.436C120.558 114.444 120.924 113.552 121.413 112.759C122.165 111.536 122.981 110.506 124.51 111.136C125.147 111.398 125.924 111.198 126.638 111.144C130.43 110.852 134.228 110.629 138.013 110.19C140.616 109.89 143.174 109.267 145.539 107.775C149.357 105.368 152.821 102.399 155.707 98.545C157.204 96.5452 158.586 94.4222 160.263 92.007C157.133 92.607 154.646 94.3761 151.825 94.2992C155.09 92.9762 158.361 91.707 161.69 90.6994C165.842 89.4379 169.634 87.315 173.008 84.1998C174.409 82.9076 175.983 81.5846 176.845 79.8232C179.814 73.7697 180.803 67.3702 177.937 60.7783C177.057 58.7554 175.784 57.1247 173.94 55.9171C173.747 56.6786 173.567 57.1939 173.49 57.7323C173.04 60.9168 172.146 63.9012 170.945 66.7856C170.257 68.4316 169.756 70.1931 169.248 71.9391C169.049 72.6237 169.074 73.4082 168.997 74.1851C165.681 77.3695 155.552 79.7617 150.276 78.3848C152.249 77.5772 154.036 78.3694 155.944 77.5772C155.25 77.3234 154.858 77.1849 154.479 77.0388C140.089 71.5853 127.37 63.1243 118.013 48.2791C117.608 48.7945 117.132 49.4175 116.644 50.0175C112.679 54.8172 108.604 59.4938 104.78 64.4473C101.586 68.5855 99.5035 73.5544 98.5781 79.1155C98.3338 80.5693 98.1217 82.1153 98.2888 83.5537C99.0022 89.8302 100.705 95.6837 103.861 100.868C104.664 102.183 105.371 103.575 106.123 104.937L106.11 104.929ZM105.236 108.421C104.844 108.352 104.626 108.267 104.407 108.275C97.042 108.606 89.7283 109.429 82.4787 111.152C79.7537 111.798 78.462 113.567 78.1085 116.621C77.9671 117.813 77.8964 119.028 77.9092 120.228C77.9221 121.574 78.102 122.92 78.1406 124.274C78.2434 127.743 80.4993 130.004 82.9608 130.358C85.3773 130.704 87.7681 131.304 90.1846 131.643C92.8389 132.012 95.5253 132.035 98.1603 132.512C101.875 133.181 105.59 133.55 109.337 133.52C109.69 133.52 110.05 133.589 110.404 133.635C115.905 134.35 121.406 134.82 126.946 134.52C128.964 134.412 130.989 134.389 133 134.227C141.182 133.581 149.357 132.774 157.288 130.074C158.515 129.658 159.678 128.851 160.764 128.028C161.253 127.658 161.722 126.835 161.786 126.159C162.069 123.128 162.281 120.074 162.358 117.028C162.41 114.967 161.516 113.506 159.794 112.944C158.766 112.606 157.737 112.244 156.69 112.052C155.167 111.767 153.631 111.521 152.088 111.436C147.879 111.19 143.656 110.798 139.447 110.898C134.292 111.021 129.138 111.59 123.983 111.96C122.415 112.075 120.532 114.813 120.95 116.613C121.548 119.205 120.95 121.682 120.687 124.197C120.558 125.466 119.896 126.128 118.829 126.435C114.138 127.774 109.414 127.843 104.677 126.943C102.743 126.582 100.815 126.151 98.8994 125.682C97.2927 125.289 95.7052 124.782 94.0086 124.297C94.3106 121.997 95.1332 120.182 95.9238 118.382C97.6719 114.413 100.076 111.467 104.247 111.452C104.555 110.49 104.87 109.529 105.223 108.437L105.236 108.421ZM160.482 53.5634C149.183 51.1251 141.034 43.4948 134.491 32.9263C128.585 36.8953 123.611 41.9642 118.842 47.3946C120.597 51.0328 122.807 53.8941 125.25 56.517C131.811 63.5627 139.215 69.0162 147.287 73.2006C147.705 73.4159 148.161 73.5467 148.573 73.7082C152.185 66.8087 155.61 59.9091 160.488 53.5711L160.482 53.5634ZM135.025 32.5186C135.301 33.0263 135.462 33.4032 135.68 33.7109C138.47 37.6798 141.368 41.4719 144.974 44.4871C147.711 46.7792 150.424 49.1098 153.618 50.2944C157.288 51.6635 161.022 52.8404 164.781 53.8095C166.549 54.2633 168.445 54.2403 170.263 54.1095C173.695 53.8634 173.657 54.2787 173.676 49.5944C173.689 47.1869 173.599 44.7794 172.673 42.4872C171.883 42.3872 171.112 42.3641 170.366 42.1718C168.342 41.6642 166.259 41.3334 164.331 40.5027C157.429 37.5337 151.58 32.5186 146.085 26.496C142.339 27.9959 138.598 29.8573 135.025 32.511V32.5186ZM149.113 74.2159C151.304 75.0466 153.123 75.685 154.903 76.4311C159.068 78.1694 162.982 76.8926 166.831 75.0466C167.41 74.7697 167.995 74.0236 168.245 73.3236C169.332 70.2546 170.263 67.1163 171.317 64.0319C172.352 61.0014 172.821 57.8477 173.245 54.4556C169.344 55.2633 165.694 55.1479 162.088 54.0787C161.169 53.8095 160.604 54.3403 160.128 55.1171C158.014 58.5477 155.867 61.9475 153.836 65.4395C152.255 68.1624 150.822 71.0238 149.113 74.2082V74.2159ZM88.4622 51.4558C89.9018 52.325 91.245 53.2096 92.6332 53.9634C95.8145 55.6863 99.0215 57.3555 102.222 59.04C103.141 59.5245 104.099 59.9245 105.011 60.4245C105.905 60.9168 106.528 60.6398 107.196 59.8014C109.619 56.7786 112.1 53.8326 114.555 50.8482C114.825 50.5174 115.044 50.1329 115.416 49.579C108.61 46.8331 103.713 41.0335 98.4559 35.9723C96.2901 38.126 89.5097 48.5714 88.4557 51.4635L88.4622 51.4558ZM94.7284 123.682C95.1333 123.82 95.3453 123.905 95.5638 123.959C98.7066 124.666 101.836 125.474 104.992 126.051C109.472 126.874 113.958 126.866 118.431 125.774C119.549 125.497 120.095 124.866 120.211 123.566C120.359 121.874 120.552 120.19 120.661 118.498C120.731 117.421 120.359 116.528 119.491 116.098C117.692 115.213 115.924 114.159 114.054 113.575C110.596 112.49 107.036 112.298 103.469 112.444C102.723 112.475 101.914 112.683 101.264 113.106C97.7426 115.39 96.2451 119.459 94.7219 123.682H94.7284ZM71.7909 27.5651C72.0608 31.4802 72.2921 35.08 72.5749 38.6721C72.6456 39.5797 72.877 40.4797 73.0891 41.3642C73.7896 44.2794 75.4927 45.887 77.9285 46.31C79.5095 46.5869 81.1162 46.6254 82.7165 46.7638C85.4737 46.9946 87.3053 45.2486 88.7192 42.6641C89.7218 40.8335 90.1203 38.7951 90.3002 36.6338C90.5252 33.9647 90.9236 31.3187 91.3093 28.2189C89.3683 29.8034 87.4789 29.965 85.5765 29.965C81.534 29.965 77.5043 29.7881 73.6289 28.1497C73.1341 27.942 72.6135 27.8266 71.7909 27.5728V27.5651ZM163.682 31.0034C165.308 32.2494 167.031 31.9033 168.715 31.7264C171.639 31.4264 173.901 32.7725 175.707 35.4569C176.266 36.2876 176.902 37.0337 177.506 37.8106C178.194 38.6875 178.972 38.6413 179.762 38.0644C180.566 37.4722 181.073 36.6414 181.086 35.4569C181.118 33.0109 180.373 31.0726 178.644 29.6573C175.482 27.0728 171.992 26.4652 168.284 26.9575C166.324 27.219 164.736 28.4497 163.175 29.7419C163.02 29.2035 163.007 28.5497 162.738 28.3112C161.054 26.8267 159.248 25.6883 157.101 25.396C154.119 24.9884 151.182 25.2268 148.258 25.8883C147.924 25.9652 147.602 26.1114 146.966 26.3421C147.622 27.1036 148.059 27.742 148.592 28.2189C150.739 30.1034 152.911 31.9648 155.096 33.7955C159.068 37.1183 163.38 39.6105 168.104 40.9565C169.441 41.3334 170.842 41.4104 172.449 41.6565C171.716 38.8028 170.315 36.9876 168.92 35.1569C167.481 33.2801 165.366 32.6417 163.695 31.011L163.682 31.0034ZM92.7103 108.544C93.7258 108.406 94.5356 108.198 95.3389 108.214C96.8621 108.244 97.8454 107.298 98.3724 105.76C98.7451 104.668 99.0151 103.429 98.9958 102.26C98.8544 93.4992 94.4456 87.3304 87.5624 84.8382C87.1575 84.6921 86.6883 84.8229 86.0007 84.8229C91.6949 91.4224 93.8157 99.2834 92.7039 108.552L92.7103 108.544ZM130.263 161.172C130.693 152.411 131.111 143.888 131.541 135.15C130.14 135.266 128.984 135.358 127.807 135.458C127.64 144.242 127.48 152.834 127.313 161.641C128.45 161.464 129.363 161.318 130.256 161.179L130.263 161.172ZM130.995 172.786C131.946 169.902 132.775 167.048 133.187 164.033C133.405 162.464 133.09 161.833 131.766 161.941C129.189 162.156 126.625 162.564 124.08 162.895C123.964 165.594 125.269 170.456 126.644 172.509C128.084 171.209 129.498 171.825 130.989 172.786H130.995ZM131.786 173.402C134.922 174.094 137.949 174.809 140.989 175.425C146.079 176.455 151.182 177.424 156.285 178.394C157.069 178.54 157.892 178.863 158.888 178.047C158.47 177.586 158.2 177.109 157.834 176.924C156.908 176.448 155.964 175.948 154.987 175.732C150.199 174.686 145.411 173.671 140.603 172.763C137.859 172.248 135.089 171.971 132.261 171.571C132.081 172.248 131.953 172.763 131.786 173.402V173.402ZM91.3414 26.9729C90.2745 26.5037 89.4648 26.0652 88.6228 25.8037C87.7681 25.5422 86.8811 25.4114 86.0007 25.3114C82.7615 24.9499 79.5288 24.5499 76.264 25.0268C74.8886 25.2268 73.6739 25.7191 72.215 26.8959C74.3616 27.5959 76.129 28.4804 77.9606 28.7035C81.0712 29.0881 84.2204 29.1189 87.3503 29.1804C88.7964 29.2112 90.1074 28.6112 91.3414 26.9729V26.9729ZM103.398 193.408C104.921 193.431 106.509 192.662 107.569 191.393C108.308 190.5 108.752 189.47 108.758 188.185C108.765 187.178 108.578 186.416 107.64 186.085C107.158 185.908 106.747 185.432 106.31 185.078C104.247 183.355 100.622 184.47 99.5356 187.17C98.321 190.185 100.288 193.369 103.398 193.423V193.408ZM157.506 190.008C158.779 189.908 159.98 189.401 160.944 188.239C162.011 186.955 162.442 184.724 161.587 183.609C160.829 182.616 159.788 181.847 158.766 181.247C158.264 180.955 157.506 181.216 156.876 181.332C156.613 181.378 156.388 181.709 156.144 181.901C155.707 182.255 155.269 182.632 154.82 182.962C153.579 183.87 153.129 185.27 153.573 186.916C154.068 188.77 155.623 190.024 157.506 190.016V190.008ZM128.039 195.723C129.864 195.739 131.284 194.831 132.011 192.823C132.287 192.062 132.441 190.816 132.107 190.224C130.385 187.147 127.242 186.093 125.172 188.608C123.804 190.277 123.463 191.623 124.568 193.554C125.391 194.992 126.567 195.715 128.032 195.731L128.039 195.723ZM95.5767 35.5261C95.0176 36.0492 94.4327 36.3107 94.3235 36.7491C93.8607 38.5875 92.7489 39.4951 91.3671 40.1412C90.9944 40.3181 90.5252 40.5104 90.3324 40.8719C89.6061 42.2103 88.9763 43.6256 88.2565 45.1332C89.2012 45.487 89.9532 46.4331 90.7758 45.2639C92.9224 42.2257 95.069 39.2028 97.1577 36.1107C97.9739 34.9031 97.6911 33.5263 97.087 32.311C96.5022 31.1418 95.4867 30.7957 94.4456 31.0957C93.8864 31.2572 93.1088 31.7956 92.9995 32.334C92.8838 32.8802 93.3595 33.7647 93.7772 34.257C94.2592 34.8185 94.9597 35.1031 95.5831 35.5184L95.5767 35.5261ZM102.91 180.847L103.07 181.263C103.597 181.132 104.144 181.055 104.658 180.863C109.176 179.178 113.694 177.501 118.193 175.763C120.5 174.871 122.775 173.871 125.063 172.902C125.205 172.84 125.301 172.609 125.449 172.409C125.25 171.979 125.057 171.556 124.838 171.079C124.498 171.194 124.221 171.271 123.945 171.379C118.488 173.517 113.026 175.625 107.595 177.824C106.2 178.386 104.883 179.224 103.552 179.993C103.289 180.147 103.122 180.555 102.916 180.847H102.91ZM128.155 183.447C128.264 183.432 128.367 183.424 128.476 183.409C128.559 183.101 128.682 182.809 128.726 182.493C129.093 179.778 129.472 177.071 129.787 174.348C129.935 173.055 129.658 172.717 128.598 172.625C127.39 172.517 126.811 173.125 126.933 174.632C127.113 176.878 127.39 179.109 127.673 181.34C127.762 182.055 127.987 182.747 128.155 183.447V183.447ZM93.8607 35.5569C92.1062 33.6186 91.9969 33.1263 92.7617 30.6418C92.4083 30.6188 92.0934 30.6034 91.5278 30.5726C91.6113 31.711 91.4442 32.8494 91.7977 33.6724C92.5754 35.4877 92.6782 35.8723 91.5278 37.3414C91.0715 37.926 90.6345 38.4413 90.9622 39.4105C92.6075 38.8798 93.6486 37.7644 93.8607 35.5569V35.5569ZM100.101 184.878C100.57 184.724 100.744 184.716 100.872 184.616C103.064 182.986 105.166 182.863 107.196 185.024C107.621 185.478 108.161 185.816 108.81 185.47C107.421 182.032 102.338 181.516 100.108 184.878H100.101ZM153.984 182.439C155.449 181.601 156.542 180.77 157.731 180.34C159.113 179.84 160.077 181.24 161.163 182.07C161.754 181.109 161.259 180.701 160.758 180.293C158.894 178.794 155.655 179.686 153.984 182.439V182.439ZM91.8041 34.757C91.6435 34.7262 91.4828 34.6954 91.3221 34.657C91.2836 35.18 91.2514 35.7107 91.2128 36.2338C91.3414 36.2492 91.4635 36.2645 91.592 36.2799C91.6627 35.7723 91.7334 35.2646 91.8041 34.757V34.757Z" fill="black"/>
<path d="M77.8064 99.2219C78.7319 98.2989 79.7795 98.3296 80.7949 98.8604C81.1548 99.0527 81.5147 99.5988 81.5983 100.06C81.6433 100.306 81.1548 100.906 80.827 101.006C78.8283 101.645 76.8295 102.452 74.7922 102.699C69.9528 103.268 65.0876 103.575 60.2289 103.945C58.2302 104.098 56.225 104.137 54.0848 104.237C54.6311 131.635 55.1645 158.756 55.7044 185.985C57.896 185.985 60.0104 185.939 62.1249 185.993C66.8165 186.116 71.5145 186.231 76.1161 187.531C77.3758 187.885 78.6419 188.37 79.8116 189.031C81.2512 189.847 81.3733 191.293 80.0237 192.277C78.7255 193.223 77.273 193.969 75.8077 194.469C72.0094 195.769 68.0761 195.931 64.1622 196.139C58.3459 196.454 52.5295 196.731 46.7132 196.892C41.7259 197.031 36.7387 196.985 31.745 197C30.164 197 28.6794 196.492 27.3748 195.415C26.1408 194.4 26.1151 193.231 27.2783 192.139C27.7411 191.708 28.2873 191.393 28.8272 191.108C34.7206 188.039 40.9162 186.531 47.3045 185.993C47.8957 185.947 48.4934 186.047 49.0847 186.055C49.6631 186.07 50.2416 186.055 50.9357 186.055V104.437C50.3058 104.368 49.7917 104.268 49.2839 104.252C46.4947 104.16 43.7055 103.983 40.9162 104.037C37.7734 104.091 34.6307 104.352 31.4879 104.522C28.0496 104.706 24.6112 104.914 21.1664 105.06C20.6715 105.083 20.1767 104.868 19.6625 104.522C21.8027 102.691 24.3284 102.329 26.9506 101.491C26.5971 101.106 26.4043 100.776 26.1344 100.614C23.1202 98.8219 21.5199 95.4991 20.0738 92.1839C16.3848 83.746 12.8757 75.2004 9.32166 66.6779C8.89749 65.6703 8.54402 64.5857 8.33194 63.4935C7.89491 61.2859 8.65327 59.8399 10.5363 59.5015C12.8822 59.0861 15.2537 58.7554 17.6188 58.6554C23.4351 58.4169 29.2578 58.3092 35.0741 58.2015C38.0434 58.1477 41.019 58.2323 43.9882 58.2169C46.2569 58.2015 47.8829 59.163 49.014 61.7244C52.7159 70.0777 56.2121 78.5463 59.2777 87.2611C60.6531 91.1609 60.6981 91.207 64.1172 91.3378C68.6288 91.5147 73.1405 91.5609 77.6522 91.6685C77.89 91.6685 78.1278 91.6685 78.3655 91.6916C79.5931 91.8608 79.9337 92.4993 79.3681 93.8607C78.8411 95.1299 78.1663 96.3067 77.5622 97.5297C77.3308 97.9989 77.1187 98.4758 76.7974 99.168C77.2858 99.168 77.5686 99.168 77.8514 99.168C76.6303 99.4219 75.4092 99.8526 74.1816 99.8834C68.963 100.022 63.7315 99.9449 58.5129 100.137C51.5719 100.399 44.6309 99.7757 37.6963 100.491C33.0176 100.976 28.3709 101.576 23.8271 103.037C23.0623 103.283 22.3232 103.645 21.5713 103.952C23.4865 104.183 25.331 104.314 27.1562 104.16C32.8376 103.691 38.4868 103.014 44.2131 103.268C52.6966 103.637 61.1865 103.106 69.6571 102.514C72.5492 102.314 75.4285 101.737 78.3013 101.214C79.1882 101.053 80.0173 100.491 81.0327 100.037C80.3215 99.5142 79.2439 99.2296 77.8 99.1834L77.8064 99.2219ZM79.1625 92.6685C78.6033 92.5685 78.2692 92.4608 77.9414 92.4531C73.2498 92.307 68.5581 91.9608 63.873 92.1147C61.0965 92.207 59.5284 90.9455 58.7315 87.938C58.6608 87.6688 58.5322 87.4227 58.4422 87.1612C55.5566 78.7386 52.0411 70.6699 48.7312 62.4782C47.7801 60.1245 46.3662 59.1015 44.2453 59.1246C40.4406 59.1553 36.6423 59.0861 32.8376 59.0938C26.6035 59.1092 20.363 58.8861 14.1418 59.663C13.0814 59.7937 12.0081 59.9091 10.9605 60.1553C9.1417 60.5706 8.56974 61.6859 9.10317 63.8319C9.3731 64.9165 9.77796 65.9549 10.2021 66.9702C12.7343 73.0852 15.2151 79.2232 17.8501 85.2767C19.5468 89.1764 21.2885 93.0838 23.3387 96.7221C25.1125 99.8757 27.5933 101.499 31.1152 100.783C34.8428 100.022 38.6732 99.7372 42.465 99.6834C51.6105 99.5373 60.7624 99.6603 69.9142 99.6296C71.5145 99.6296 73.1148 99.4142 74.7087 99.2142C75.2164 99.1527 75.8848 98.9988 76.174 98.5835C77.3823 96.8605 78.3334 94.9299 79.1689 92.6685H79.1625ZM27.2334 194.031C27.7218 194.423 28.1974 195.016 28.7694 195.215C29.8941 195.615 31.0638 195.992 32.2206 196.023C35.0034 196.092 37.7927 195.931 40.582 195.908C42.6579 195.892 44.7337 196.023 46.8096 195.977C50.4279 195.9 54.0527 195.831 57.6646 195.592C62.7547 195.254 67.8448 194.816 72.9284 194.3C74.9979 194.092 77.0159 193.416 78.8733 192.223C79.4838 191.831 80.2101 191.516 80.1651 190.27C78.8347 188.97 77.138 188.524 75.4799 188.131C69.2715 186.662 62.9925 186.493 56.6941 186.739C56.4178 186.747 56.1414 186.885 55.8651 186.97C55.7044 188.262 55.6337 189.47 55.3959 190.623C55.1067 192.054 54.2519 192.639 52.973 192.477C51.8611 192.339 51.3663 191.731 51.2377 190.239C51.1413 189.131 51.1028 188.024 51.0321 186.855C47.8765 186.539 44.888 186.97 41.9123 187.616C37.5871 188.547 33.3067 189.693 29.2835 191.908C28.4994 192.339 27.574 192.608 27.2269 194.039L27.2334 194.031ZM51.7776 104.429C51.7776 105.537 51.7776 106.452 51.7776 107.36C51.7776 132.874 51.7711 158.387 51.7647 183.893C51.7647 185.739 51.6876 187.585 51.7583 189.431C51.8162 191.131 52.3174 191.747 53.3329 191.723C54.3098 191.7 54.7854 191.154 54.8882 189.593C54.9846 188.047 54.946 186.485 54.9139 184.939C54.554 167.04 54.1748 149.134 53.8213 131.235C53.6606 122.997 53.545 114.752 53.41 106.514C53.3971 105.837 53.3393 105.16 53.3007 104.429H51.7904H51.7776Z" fill="black"/>
<path d="M95.0303 0.0900269C95.7051 2.62832 95.1653 3.60518 93.2244 3.49749C92.8709 3.48211 92.511 3.41288 92.164 3.47442C91.0136 3.68979 90.4737 4.48204 90.6601 5.84349C90.7757 6.66651 91.0714 7.46646 91.3284 8.25102C92.0932 10.5893 91.0521 12.62 88.9634 12.7123C88.1407 12.743 87.3117 12.5584 86.4826 12.4661C86.0134 12.4123 85.5378 12.2661 85.0751 12.2815C83.0249 12.3584 81.746 14.1891 82.2023 16.5735C82.4594 17.9119 82.9735 19.1811 83.4812 20.8194C81.9645 19.158 81.3861 17.3196 81.3604 15.3044C81.3347 13.0046 83.0699 11.297 85.2551 11.3585C86.0199 11.3816 86.7782 11.6123 87.5495 11.7046C88.0765 11.7739 88.6227 11.8508 89.1433 11.7739C90.5315 11.5816 91.1678 10.297 90.7372 8.70484C90.4865 7.75875 90.1523 6.83573 90.0174 5.86657C89.7667 4.03592 90.5894 2.88215 92.1447 2.68216C92.2025 2.68216 92.2604 2.67447 92.3246 2.66678C93.0123 2.59755 93.8735 2.78985 94.3491 2.3668C94.7861 1.98221 94.8054 0.928433 95.0239 0.0977188L95.0303 0.0900269Z" fill="black"/>
<path d="M96.2258 14.1199C94.2978 13.7122 93.8093 13.9506 92.736 15.989C91.5663 18.2042 90.5573 18.5734 88.5971 17.5043C87.1896 16.7351 86.1228 17.4273 85.9557 19.2811C85.885 20.0887 85.9428 20.9117 85.9428 21.7886C84.8117 20.1272 84.8888 17.9042 86.0842 16.6735C86.8426 15.889 87.7231 15.8044 88.7321 16.412C90.6794 17.5735 91.0586 17.4735 92.3183 15.2583C93.0445 13.9814 93.9443 13.1661 95.2875 13.4584C95.6217 13.5276 95.9109 13.8968 96.2258 14.1276V14.1199Z" fill="black"/>
<path d="M179.704 90.2994C179.826 89.9917 179.897 89.6379 180.077 89.3841C182.069 86.4843 184.068 83.5999 186.08 80.7231C186.183 80.577 186.369 80.5231 186.517 80.4308C186.395 80.8154 186.35 81.2769 186.144 81.5769C184.216 84.369 182.262 87.1381 180.302 89.9071C180.167 90.0994 179.91 90.1763 179.704 90.2994Z" fill="black"/>
<path d="M169.004 105.237C169.968 103.037 171.427 101.406 173.143 100.068C171.761 101.791 170.379 103.514 169.004 105.237Z" fill="black"/>
<path d="M186.478 80.4847C186.883 79.0386 187.539 77.8156 188.657 77.0157C187.931 78.1694 187.205 79.3232 186.478 80.4847Z" fill="black"/>
<path d="M177.918 92.8608C178.529 91.9916 179.133 91.1224 179.743 90.2533C179.133 91.1224 178.529 91.9916 177.918 92.8608Z" fill="black"/>
<path d="M176.131 95.4222L177.956 92.8069L176.131 95.4222Z" fill="black"/>
<path d="M188.618 77.0772C189.107 76.1311 189.589 75.185 190.077 74.2466C189.949 75.4542 189.525 76.4388 188.618 77.0772Z" fill="black"/>
<path d="M174.531 97.5451C175.077 96.8221 175.63 96.0913 176.176 95.3683C175.893 96.3759 175.418 97.1836 174.531 97.5451Z" fill="black"/>
<path d="M173.291 99.9065C173.657 99.1757 174.023 98.445 174.383 97.7143C174.017 98.445 173.65 99.1757 173.291 99.9065Z" fill="black"/>
<path d="M106.11 104.929C105.358 103.568 104.645 102.176 103.848 100.86C100.692 95.6837 98.9893 89.8302 98.276 83.546C98.1089 82.1076 98.3209 80.5539 98.5651 79.1079C99.497 73.5467 101.579 68.5778 104.767 64.4396C108.591 59.4861 112.666 54.8095 116.631 50.0098C117.126 49.4098 117.595 48.7868 118 48.2714C127.351 63.1166 140.076 71.5776 154.466 77.0311C154.852 77.1772 155.237 77.3157 155.931 77.5695C154.023 78.3617 152.236 77.5695 150.263 78.3771C155.539 79.754 165.668 77.3618 168.984 74.1774C169.062 73.4005 169.036 72.6237 169.235 71.9314C169.736 70.1854 170.244 68.4239 170.932 66.7779C172.134 63.8858 173.033 60.9014 173.477 57.7247C173.554 57.1862 173.734 56.6709 173.927 55.9094C175.771 57.117 177.044 58.7477 177.924 60.7706C180.784 67.3625 179.801 73.7621 176.832 79.8155C175.97 81.5692 174.389 82.8999 172.995 84.1921C169.621 87.3073 165.829 89.4302 161.677 90.6917C158.348 91.707 155.077 92.9685 151.812 94.2915C154.633 94.3684 157.127 92.5993 160.25 91.9993C158.579 94.4145 157.191 96.5298 155.694 98.5373C152.808 102.399 149.35 105.368 145.526 107.767C143.161 109.26 140.597 109.883 138 110.183C134.221 110.613 130.423 110.844 126.625 111.136C125.912 111.19 125.134 111.39 124.498 111.129C122.968 110.506 122.152 111.536 121.4 112.752C120.911 113.544 120.545 114.436 120.057 115.429C117.749 114.059 115.423 112.883 112.859 112.536C110.339 112.198 107.826 111.806 105.153 111.406C106.83 104.906 111.425 103.183 116.091 101.545C113.373 101.753 110.821 102.445 108.578 104.375C107.974 104.891 107.248 105.206 106.579 105.606C106.419 105.375 106.258 105.145 106.097 104.914L106.11 104.929ZM133.739 86.0382L133.701 85.9843C133.874 86.4151 133.99 86.8919 134.228 87.2612C134.652 87.915 135.083 88.5995 135.629 89.0841C136.349 89.7148 137.107 89.3764 137.686 88.6841C138.341 87.8996 137.801 87.2612 137.364 86.715C136.644 85.8074 135.88 84.9536 135.14 84.0691C134.909 83.946 134.684 83.8152 134.453 83.6922C133.624 82.2846 133.264 82.3692 132.3 84.4075C132.756 84.9228 133.251 85.4843 133.739 86.0458V86.0382ZM139.183 77.0003C137.281 76.9772 135.757 78.7386 135.764 80.977C135.764 82.9614 136.991 84.4383 138.675 84.4998C140.513 84.569 142.152 82.7538 142.223 80.5924C142.287 78.5771 140.97 77.0311 139.177 77.0003H139.183Z" fill="white"/>
<path d="M105.236 108.421C104.883 109.514 104.568 110.475 104.259 111.436C100.088 111.452 97.6912 114.398 95.9367 118.367C95.1398 120.167 94.3171 121.982 94.0215 124.282C95.7181 124.766 97.3056 125.266 98.9123 125.666C100.828 126.135 102.756 126.566 104.69 126.928C109.433 127.82 114.15 127.758 118.842 126.42C119.909 126.112 120.564 125.459 120.699 124.182C120.956 121.667 121.561 119.19 120.963 116.598C120.545 114.79 122.428 112.052 123.996 111.944C129.151 111.575 134.299 111.006 139.459 110.883C143.669 110.783 147.885 111.175 152.101 111.421C153.637 111.513 155.18 111.752 156.703 112.036C157.75 112.229 158.779 112.59 159.807 112.929C161.536 113.49 162.429 114.952 162.371 117.013C162.294 120.059 162.082 123.113 161.799 126.143C161.735 126.82 161.266 127.643 160.777 128.012C159.691 128.835 158.528 129.643 157.3 130.058C149.37 132.766 141.201 133.566 133.013 134.212C130.995 134.373 128.977 134.396 126.959 134.504C121.426 134.804 115.918 134.343 110.416 133.62C110.063 133.573 109.709 133.504 109.35 133.504C105.603 133.535 101.882 133.166 98.1732 132.497C95.5382 132.02 92.8454 131.997 90.1975 131.627C87.781 131.289 85.3902 130.689 82.9737 130.343C80.5122 129.989 78.2563 127.728 78.1535 124.259C78.1149 122.913 77.935 121.567 77.9221 120.213C77.9093 119.013 77.98 117.798 78.1214 116.605C78.4749 113.552 79.7666 111.783 82.4916 111.136C89.7412 109.414 97.055 108.591 104.42 108.26C104.639 108.252 104.857 108.337 105.249 108.406L105.236 108.421Z" fill="white"/>
<path d="M160.475 53.5634C155.597 59.9014 152.172 66.7933 148.56 73.7005C148.142 73.539 147.692 73.4159 147.274 73.1929C139.202 69.0085 131.799 63.555 125.237 56.5094C122.794 53.8865 120.59 51.0328 118.829 47.3869C123.604 41.9642 128.572 36.8876 134.479 32.9186C141.021 43.4948 149.17 51.1174 160.469 53.5557L160.475 53.5634Z" fill="#C8E2E2"/>
<path d="M135.019 32.5186C138.598 29.865 142.332 28.0036 146.079 26.5037C151.574 32.5186 157.416 37.5414 164.325 40.5104C166.253 41.3411 168.335 41.6719 170.36 42.1795C171.105 42.3641 171.877 42.3872 172.667 42.4949C173.586 44.7871 173.676 47.1946 173.67 49.6021C173.65 54.2864 173.689 53.8711 170.257 54.1172C168.438 54.248 166.542 54.271 164.775 53.8172C161.015 52.8404 157.288 51.6635 153.611 50.3021C150.417 49.1175 147.705 46.7792 144.967 44.4948C141.362 41.4873 138.47 37.6875 135.674 33.7186C135.456 33.4032 135.295 33.034 135.019 32.5263V32.5186Z" fill="white"/>
<path d="M149.113 74.2159C150.822 71.0238 152.249 68.1701 153.836 65.4472C155.867 61.9475 158.02 58.5554 160.128 55.1248C160.604 54.348 161.169 53.8172 162.088 54.0864C165.7 55.1479 169.351 55.271 173.245 54.4633C172.821 57.8554 172.352 61.0091 171.317 64.0396C170.263 67.124 169.332 70.27 168.245 73.3313C167.995 74.0313 167.416 74.7697 166.831 75.0543C162.982 76.9003 159.061 78.1771 154.903 76.4388C153.116 75.6927 151.304 75.062 149.113 74.2236V74.2159Z" fill="white"/>
<path d="M88.4624 51.4558C89.51 48.5637 96.2968 38.1183 98.4626 35.9646C103.72 41.0335 108.617 46.8254 115.423 49.5714C115.05 50.1252 114.832 50.5098 114.562 50.8405C112.107 53.8249 109.626 56.7786 107.203 59.7937C106.535 60.6322 105.911 60.9091 105.018 60.4168C104.105 59.9091 103.154 59.5168 102.229 59.0323C99.0282 57.3555 95.8212 55.6863 92.6399 53.9557C91.2517 53.2019 89.9085 52.3173 88.4688 51.4482L88.4624 51.4558Z" fill="white"/>
<path d="M94.7283 123.682C96.2514 119.459 97.7489 115.39 101.271 113.106C101.92 112.683 102.73 112.475 103.475 112.444C107.036 112.29 110.603 112.49 114.06 113.575C115.931 114.159 117.698 115.213 119.497 116.098C120.365 116.528 120.738 117.421 120.667 118.498C120.558 120.19 120.359 121.874 120.217 123.566C120.108 124.866 119.562 125.497 118.437 125.774C113.964 126.866 109.478 126.874 104.998 126.051C101.836 125.474 98.7065 124.666 95.5702 123.959C95.3517 123.913 95.1332 123.82 94.7347 123.682H94.7283Z" fill="white"/>
<path d="M71.7908 27.5651C72.607 27.819 73.134 27.9343 73.6288 28.142C77.5043 29.7804 81.5339 29.9496 85.5764 29.9573C87.4723 29.9573 89.3683 29.7957 91.3092 28.2112C90.93 31.311 90.5251 33.957 90.3002 36.6261C90.1202 38.7951 89.7217 40.8335 88.7191 42.6564C87.3052 45.2409 85.4736 46.9869 82.7165 46.7562C81.1226 46.6254 79.5094 46.5792 77.9284 46.3023C75.4926 45.8716 73.7895 44.2717 73.089 41.3565C72.8769 40.472 72.652 39.572 72.5748 38.6644C72.2856 35.0723 72.0607 31.4802 71.7908 27.5574V27.5651Z" fill="white"/>
<path d="M163.682 31.0034C165.36 32.634 167.468 33.2724 168.907 35.1492C170.308 36.9722 171.703 38.7951 172.436 41.6488C170.829 41.4027 169.434 41.3257 168.091 40.9488C163.361 39.6028 159.055 37.1106 155.083 33.7878C152.898 31.9571 150.732 30.1034 148.579 28.2112C148.039 27.742 147.609 27.1036 146.953 26.3344C147.589 26.1114 147.911 25.9575 148.245 25.8806C151.176 25.2191 154.106 24.9807 157.088 25.3883C159.241 25.6806 161.047 26.8113 162.725 28.3035C162.995 28.542 163.007 29.1958 163.162 29.7342C164.723 28.4497 166.317 27.2113 168.271 26.9498C171.979 26.4575 175.476 27.0728 178.631 29.6496C180.366 31.0649 181.112 33.0032 181.073 35.4492C181.054 36.6261 180.553 37.4645 179.749 38.0567C178.959 38.6336 178.181 38.6798 177.494 37.8029C176.889 37.026 176.253 36.2722 175.694 35.4492C173.888 32.7648 171.626 31.4187 168.702 31.7187C167.018 31.8956 165.295 32.2417 163.669 30.9957L163.682 31.0034Z" fill="white"/>
<path d="M87.3697 109.06C86.9519 108.221 86.5984 107.314 86.0907 106.56C85.0239 104.983 84.2462 103.245 83.8413 101.291C83.0572 97.4912 82.4724 93.653 82.8387 89.6995C83.0572 87.3227 83.3786 86.615 84.8953 85.169C85.5316 85.7382 86.3285 86.2382 86.8941 86.9919C91.4314 93.0223 93.0317 100.137 92.2027 108.106C92.1898 108.237 92.0934 108.352 91.9585 108.652C90.4996 109.006 88.9314 109.198 87.3375 109.006L87.3825 109.06H87.3697Z" fill="white"/>
<path d="M92.7169 108.544C93.8287 99.2757 91.7079 91.4147 86.0137 84.8152C86.7013 84.8152 87.1705 84.6844 87.5754 84.8305C94.4586 87.3227 98.8674 93.4992 99.0088 102.252C99.0281 103.422 98.7582 104.66 98.3854 105.752C97.8584 107.291 96.8751 108.229 95.3519 108.206C94.5485 108.191 93.7388 108.406 92.7233 108.537L92.7169 108.544Z" fill="white"/>
<path d="M130.269 161.172C129.376 161.31 128.463 161.456 127.325 161.633C127.493 152.826 127.653 144.234 127.82 135.45C128.996 135.35 130.153 135.258 131.554 135.143C131.124 143.88 130.706 152.403 130.275 161.164L130.269 161.172Z" fill="white"/>
<path d="M131.002 172.779C129.51 171.817 128.09 171.202 126.657 172.502C125.282 170.448 123.971 165.587 124.093 162.887C126.638 162.564 129.202 162.156 131.779 161.933C133.103 161.818 133.418 162.448 133.199 164.025C132.788 167.04 131.959 169.894 131.008 172.779H131.002Z" fill="white"/>
<path d="M131.792 173.394C131.959 172.755 132.094 172.24 132.268 171.563C135.096 171.956 137.866 172.24 140.61 172.755C145.417 173.663 150.205 174.678 154.993 175.725C155.97 175.94 156.915 176.44 157.84 176.917C158.207 177.109 158.47 177.578 158.894 178.04C157.898 178.855 157.069 178.532 156.291 178.386C151.189 177.417 146.092 176.44 140.996 175.417C137.956 174.801 134.929 174.086 131.792 173.394V173.394Z" fill="white"/>
<path d="M91.3478 26.9652C90.1139 28.6035 88.8028 29.2035 87.3567 29.1727C84.2204 29.1035 81.0777 29.0804 77.9671 28.6958C76.1418 28.4728 74.368 27.5882 72.2214 26.8882C73.6868 25.7114 74.9014 25.2191 76.2704 25.0191C79.5352 24.5422 82.7679 24.9422 86.0071 25.3037C86.8876 25.4037 87.7745 25.5345 88.6293 25.796C89.4776 26.0575 90.281 26.496 91.3478 26.9652V26.9652Z" fill="white"/>
<path d="M103.405 193.4C100.294 193.346 98.3275 190.162 99.5422 187.147C100.628 184.455 104.26 183.339 106.316 185.055C106.747 185.416 107.158 185.893 107.646 186.062C108.585 186.401 108.771 187.155 108.765 188.162C108.752 189.447 108.308 190.485 107.576 191.37C106.522 192.646 104.928 193.416 103.405 193.385V193.4ZM105.114 188.431C105.153 187.608 104.536 186.708 103.874 186.631C103 186.531 101.972 187.485 101.972 188.393C101.972 189.385 102.569 190.262 103.302 190.339C104.189 190.431 105.056 189.516 105.108 188.431H105.114Z" fill="white"/>
<path d="M157.513 190C155.63 190 154.081 188.762 153.579 186.901C153.142 185.255 153.592 183.855 154.826 182.947C155.276 182.616 155.713 182.247 156.15 181.886C156.394 181.686 156.619 181.363 156.883 181.316C157.513 181.201 158.271 180.94 158.772 181.232C159.794 181.832 160.835 182.601 161.594 183.593C162.448 184.709 162.018 186.939 160.951 188.224C159.987 189.385 158.779 189.893 157.513 189.993V190ZM157.872 183.547C157.211 183.493 156.291 184.585 156.24 185.485C156.195 186.331 156.786 187.085 157.551 187.155C158.348 187.231 159.145 186.462 159.164 185.593C159.184 184.724 158.464 183.593 157.872 183.539V183.547Z" fill="white"/>
<path d="M128.045 195.715C126.58 195.7 125.404 194.985 124.581 193.539C123.476 191.6 123.816 190.262 125.185 188.593C127.248 186.078 130.397 187.139 132.12 190.208C132.454 190.8 132.3 192.047 132.023 192.808C131.297 194.816 129.877 195.723 128.052 195.708L128.045 195.715ZM128.013 189.485C127.216 189.439 126.67 190.024 126.606 190.985C126.541 191.939 127.088 192.716 127.807 192.7C128.502 192.685 129.221 191.939 129.286 191.154C129.356 190.27 128.791 189.524 128.013 189.485V189.485Z" fill="white"/>
<path d="M106.11 104.929C106.271 105.16 106.432 105.391 106.592 105.621C106.374 106.937 105.815 107.798 104.594 107.798C102.531 107.798 100.461 107.798 98.186 107.798C99.8056 105.129 99.9534 102.176 99.555 99.0988C100.962 98.4758 101.894 98.8835 102.756 100.337C103.739 101.983 104.979 103.414 106.11 104.937V104.929Z" fill="white"/>
<path d="M95.5896 35.5184C94.9661 35.1031 94.2656 34.8185 93.7836 34.257C93.3659 33.7647 92.8903 32.8802 93.006 32.334C93.1217 31.7956 93.8929 31.2572 94.452 31.0957C95.4932 30.7957 96.5086 31.1418 97.0935 32.311C97.6976 33.5186 97.9739 34.9031 97.1641 36.1107C95.0754 39.2028 92.9288 42.2334 90.7823 45.2639C89.9596 46.4331 89.2013 45.4793 88.2629 45.1332C88.9892 43.6256 89.619 42.2103 90.3388 40.8719C90.538 40.5104 91.0008 40.3104 91.3735 40.1412C92.7553 39.4951 93.8672 38.5875 94.3299 36.7491C94.4392 36.3107 95.024 36.0492 95.5832 35.5261L95.5896 35.5184Z" fill="white"/>
<path d="M102.923 180.84C103.135 180.547 103.295 180.14 103.559 179.986C104.889 179.217 106.207 178.378 107.601 177.817C113.039 175.617 118.501 173.509 123.951 171.371C124.228 171.263 124.504 171.186 124.845 171.071C125.063 171.556 125.263 171.971 125.455 172.402C125.301 172.602 125.211 172.832 125.07 172.894C122.788 173.863 120.507 174.863 118.199 175.755C113.694 177.494 109.176 179.17 104.664 180.855C104.15 181.047 103.61 181.124 103.077 181.255L102.916 180.84H102.923Z" fill="white"/>
<path d="M128.167 183.432C128 182.732 127.775 182.039 127.685 181.324C127.403 179.094 127.126 176.855 126.946 174.617C126.824 173.109 127.409 172.502 128.611 172.609C129.665 172.709 129.948 173.04 129.8 174.332C129.485 177.055 129.106 179.77 128.739 182.478C128.694 182.793 128.579 183.086 128.489 183.393C128.379 183.409 128.277 183.416 128.167 183.432V183.432Z" fill="white"/>
<path d="M93.8735 35.5415C93.6614 37.7491 92.6203 38.8644 90.975 39.3951C90.6408 38.4259 91.0843 37.9106 91.5406 37.326C92.691 35.8569 92.5881 35.4723 91.8105 33.657C91.457 32.834 91.6177 31.6956 91.5406 30.5572C92.1061 30.588 92.421 30.6111 92.7745 30.6265C92.0097 33.1109 92.119 33.6109 93.8735 35.5415V35.5415Z" fill="white"/>
<path d="M100.12 184.87C102.351 181.516 107.441 182.032 108.822 185.462C108.18 185.808 107.64 185.462 107.209 185.016C105.178 182.855 103.077 182.978 100.885 184.609C100.757 184.701 100.583 184.716 100.114 184.87H100.12Z" fill="white"/>
<path d="M153.997 182.424C155.668 179.67 158.907 178.778 160.771 180.278C161.272 180.678 161.767 181.086 161.176 182.055C160.09 181.232 159.132 179.824 157.744 180.324C156.555 180.755 155.462 181.578 153.997 182.424V182.424Z" fill="white"/>
<path d="M125.905 186.739C127.666 185.162 129.838 185.085 131.432 186.578C131.959 187.07 132.377 187.654 132.068 188.716C130.295 186.624 128.225 185.993 125.873 186.708L125.899 186.747L125.905 186.739Z" fill="white"/>
<path d="M91.8171 34.7416C91.7464 35.2492 91.6757 35.7569 91.605 36.2645C91.4765 36.2492 91.3544 36.2338 91.2258 36.2184C91.2644 35.6954 91.2965 35.1646 91.3351 34.6416C91.4957 34.6723 91.6564 34.7031 91.8171 34.7416V34.7416Z" fill="white"/>
<path d="M125.873 186.708C125.41 187.255 124.947 187.801 124.485 188.339C124.388 188.185 124.298 188.039 124.202 187.885C124.767 187.508 125.333 187.124 125.899 186.747L125.873 186.708Z" fill="white"/>
<path d="M79.1626 92.6685C78.3271 94.9299 77.376 96.8605 76.1677 98.5835C75.8785 98.9988 75.2165 99.145 74.7024 99.2142C73.1085 99.4142 71.5082 99.6219 69.9079 99.6296C60.7561 99.6603 51.6042 99.5373 42.4588 99.6834C38.6669 99.7449 34.8365 100.03 31.1089 100.783C27.587 101.499 25.1062 99.8757 23.3324 96.7221C21.2822 93.0838 19.5405 89.1764 17.8438 85.2767C15.2153 79.2232 12.728 73.0852 10.1959 66.9702C9.77811 65.9549 9.36681 64.9088 9.09688 63.8319C8.56345 61.6859 9.13541 60.5706 10.9542 60.1553C12.0018 59.9168 13.0687 59.8014 14.1355 59.663C20.3567 58.8861 26.5908 59.1092 32.8313 59.0938C36.636 59.0861 40.4343 59.1553 44.239 59.1246C46.3663 59.1092 47.7738 60.1245 48.725 62.4782C52.0348 70.6623 55.5503 78.7309 58.436 87.1612C58.5259 87.4227 58.6481 87.6688 58.7252 87.938C59.5285 90.9455 61.0903 92.207 63.8667 92.1147C68.5519 91.9608 73.2435 92.307 77.9351 92.4531C78.2693 92.4608 78.5971 92.5685 79.1562 92.6685H79.1626ZM30.3698 74.1082L30.4019 74.1466C28.5896 72.5621 26.3787 72.816 25.6461 74.7235C26.6551 75.9388 28.0047 75.185 29.2001 75.5312C29.1487 75.7619 29.1294 75.9773 29.0523 76.1542C27.5613 79.7924 28.3261 85.0075 30.7297 87.7688C32.0408 89.2687 33.6089 89.4072 35.2157 88.8457C36.7838 88.2995 37.5743 86.8304 37.87 84.9305C38.5512 80.6078 35.055 73.2313 30.3698 74.1082Z" fill="white"/>
<path d="M27.2397 194.039C27.5868 192.616 28.5123 192.346 29.2964 191.908C33.3196 189.693 37.5998 188.547 41.9251 187.616C44.9008 186.978 47.8893 186.539 51.0449 186.855C51.1156 188.024 51.1541 189.131 51.2505 190.239C51.3791 191.731 51.8739 192.339 52.9858 192.477C54.2647 192.639 55.1195 192.054 55.4087 190.624C55.6465 189.462 55.7172 188.262 55.8779 186.97C56.1542 186.893 56.4306 186.755 56.7069 186.739C63.0053 186.485 69.2908 186.662 75.4927 188.131C77.1573 188.524 78.854 188.962 80.1779 190.27C80.2229 191.516 79.4966 191.831 78.8861 192.223C77.0287 193.416 75.0171 194.093 72.9412 194.3C67.8576 194.816 62.7675 195.254 57.6774 195.592C54.0655 195.831 50.4407 195.9 46.8224 195.977C44.7465 196.023 42.6707 195.892 40.5948 195.908C37.8055 195.923 35.0163 196.092 32.2334 196.023C31.0766 195.992 29.9005 195.615 28.7822 195.216C28.2102 195.016 27.7282 194.423 27.2462 194.031L27.2397 194.039Z" fill="white"/>
<path d="M51.7774 104.437H53.2877C53.3263 105.168 53.3905 105.845 53.397 106.521C53.5384 114.759 53.6476 123.005 53.8083 131.243C54.1618 149.142 54.5409 167.048 54.9008 184.947C54.933 186.501 54.9715 188.062 54.8751 189.6C54.7787 191.162 54.2967 191.7 53.3198 191.731C52.3044 191.754 51.8095 191.139 51.7452 189.439C51.681 187.601 51.7517 185.747 51.7517 183.901C51.7517 158.387 51.7645 132.874 51.7645 107.368C51.7645 106.452 51.7645 105.545 51.7645 104.437H51.7774Z" fill="white"/>
<path d="M77.8066 99.2219C79.2505 99.2681 80.3281 99.5526 81.0393 100.076C80.0239 100.522 79.1884 101.091 78.3079 101.253C75.4351 101.776 72.5558 102.352 69.6637 102.552C61.1931 103.145 52.7032 103.675 44.2197 103.306C38.4934 103.06 32.8442 103.729 27.1628 104.198C25.3376 104.352 23.4931 104.222 21.5779 103.991C22.3298 103.683 23.0689 103.322 23.8337 103.075C28.3775 101.614 33.0242 101.014 37.7029 100.53C44.6375 99.8142 51.5849 100.437 58.5195 100.176C63.7381 99.9757 68.9632 100.06 74.1882 99.9219C75.4158 99.8911 76.6305 99.4526 77.858 99.2065L77.813 99.2373L77.8066 99.2219Z" fill="white"/>
<path d="M139.183 77.0003C140.976 77.0234 142.294 78.5771 142.229 80.5924C142.159 82.7538 140.52 84.569 138.682 84.4998C136.998 84.4383 135.777 82.9614 135.77 80.977C135.764 78.7463 137.281 76.9772 139.189 77.0003H139.183ZM141.49 80.6154C141.535 79.1078 140.565 77.8618 139.324 77.8387C137.949 77.8079 136.683 79.2232 136.619 80.8616C136.561 82.3999 137.486 83.5768 138.778 83.6075C140.192 83.646 141.439 82.2692 141.484 80.6154H141.49Z" fill="black"/>
<path d="M134.453 83.6845C134.684 83.8075 134.909 83.9383 135.141 84.0614C135.533 84.8152 135.899 85.592 136.323 86.3228C136.67 86.9304 137.088 87.4765 137.519 88.1073C136.445 88.9918 135.777 88.6149 135.16 87.7919C134.691 87.1689 134.196 86.5766 133.714 85.9766L133.752 86.0305C133.54 85.3921 133.322 84.7536 133.084 84.0537C133.258 83.8845 133.418 83.6076 133.617 83.5691C133.887 83.5153 134.177 83.6383 134.459 83.6845H134.453Z" fill="white"/>
<path d="M133.701 85.9766C134.183 86.5843 134.678 87.1765 135.147 87.7919C135.77 88.6149 136.439 88.9918 137.506 88.1072C137.081 87.4765 136.664 86.9227 136.31 86.3227C135.886 85.592 135.52 84.8152 135.128 84.0614C135.873 84.9382 136.638 85.7997 137.351 86.7073C137.788 87.2611 138.335 87.8919 137.673 88.6764C137.094 89.3687 136.336 89.7071 135.616 89.0764C135.07 88.5995 134.639 87.9073 134.215 87.2535C133.977 86.8843 133.862 86.4074 133.688 85.9766H133.701Z" fill="black"/>
<path d="M134.453 83.6845C134.17 83.6383 133.875 83.5153 133.611 83.5691C133.418 83.6076 133.258 83.8845 133.078 84.0537C133.315 84.7536 133.527 85.392 133.746 86.0305C133.251 85.469 132.763 84.9152 132.306 84.3921C133.27 82.3538 133.63 82.2692 134.459 83.6768L134.453 83.6845Z" fill="black"/>
<path d="M105.114 188.431C105.063 189.516 104.195 190.431 103.308 190.339C102.576 190.262 101.978 189.385 101.978 188.393C101.978 187.478 103 186.524 103.88 186.631C104.542 186.708 105.159 187.608 105.121 188.431H105.114ZM103.803 189.631C103.977 189.301 104.375 188.854 104.44 188.339C104.536 187.624 104.105 187.07 103.482 187.285C103.128 187.408 102.685 187.939 102.64 188.347C102.569 188.939 102.801 189.608 103.803 189.624V189.631Z" fill="black"/>
<path d="M157.872 183.547C158.464 183.593 159.183 184.732 159.164 185.601C159.145 186.462 158.354 187.239 157.551 187.162C156.786 187.093 156.188 186.339 156.24 185.493C156.291 184.593 157.21 183.501 157.872 183.555V183.547ZM158.836 185.393C158.297 184.901 157.956 184.585 157.615 184.278C157.377 184.701 157.037 185.101 156.953 185.562C156.921 185.739 157.48 186.262 157.77 186.27C158.059 186.27 158.348 185.816 158.836 185.393V185.393Z" fill="black"/>
<path d="M128.02 189.493C128.797 189.539 129.363 190.277 129.292 191.162C129.228 191.947 128.514 192.693 127.814 192.708C127.094 192.723 126.548 191.939 126.612 190.993C126.676 190.031 127.223 189.454 128.02 189.493V189.493ZM127.878 192.108C128.155 191.631 128.514 191.277 128.476 191.023C128.431 190.739 128.007 190.347 127.762 190.354C127.544 190.362 127.191 190.862 127.184 191.154C127.184 191.423 127.563 191.693 127.885 192.108H127.878Z" fill="black"/>
<path d="M30.3761 74.1159C35.0613 73.2467 38.5575 80.6231 37.8762 84.9382C37.5742 86.8381 36.7901 88.2995 35.2219 88.8534C33.6216 89.4149 32.0471 89.2764 30.736 87.7765C28.3259 85.0151 27.5675 79.8001 29.0586 76.1619C29.1293 75.985 29.1485 75.7696 29.2064 75.5389C28.011 75.1927 26.6678 75.9465 25.6523 74.7312C26.385 72.8236 28.5958 72.5775 30.4018 74.1543C29.1614 73.9543 27.921 73.7313 26.7256 74.3389C27.9917 75.2389 29.1742 74.5774 30.3696 74.1159H30.3761ZM29.8426 85.0921C30.3118 85.8382 30.6717 86.5843 31.1666 87.1612C32.9404 89.2302 36.1281 88.4765 36.9443 85.7689C37.5549 83.7537 37.3428 81.7769 36.4174 79.9232C33.0497 81.6615 31.3851 82.9537 29.8426 85.0921V85.0921ZM28.9943 79.5078C30.646 78.3617 32.227 77.2695 33.8402 76.1542C32.754 75.0312 31.1087 74.4697 30.4403 75.1543C29.3992 76.2388 28.7244 77.6233 28.9943 79.5078ZM34.38 80.1078C34.1165 79.1848 33.8787 78.3541 33.551 77.2234C32.3556 78.0002 31.3594 78.6463 30.2475 79.3617C30.5946 80.4155 30.8838 81.2923 31.2116 82.2846C32.3041 81.5308 33.2167 80.9 34.38 80.1001V80.1078ZM29.4506 83.9383C30.3761 83.1127 30.4125 81.8513 29.5599 80.1539C28.4287 81.3539 29.2 82.5384 29.4506 83.9383ZM35.9482 79.0925C35.4726 77.9131 34.877 77.3644 34.1615 77.4464C34.3672 78.1771 34.56 78.8771 34.7978 79.7232C35.2541 79.4694 35.6011 79.2848 35.9546 79.0925H35.9482Z" fill="black"/>
<path d="M141.49 80.6077C141.445 82.2615 140.198 83.6383 138.785 83.5999C137.493 83.5614 136.567 82.3922 136.625 80.8539C136.683 79.2155 137.949 77.7926 139.331 77.831C140.571 77.8618 141.542 79.1078 141.497 80.6077H141.49Z" fill="white"/>
<path d="M103.797 189.639C102.794 189.624 102.569 188.954 102.633 188.362C102.678 187.954 103.122 187.424 103.475 187.301C104.099 187.085 104.529 187.631 104.433 188.354C104.362 188.87 103.964 189.316 103.797 189.647V189.639Z" fill="white"/>
<path d="M158.837 185.393C158.355 185.816 158.059 186.27 157.77 186.27C157.48 186.27 156.921 185.739 156.953 185.562C157.037 185.101 157.378 184.701 157.615 184.278C157.956 184.593 158.297 184.901 158.837 185.393V185.393Z" fill="white"/>
<path d="M127.878 192.108C127.557 191.7 127.178 191.423 127.178 191.154C127.178 190.862 127.538 190.362 127.756 190.354C128 190.339 128.425 190.731 128.47 191.023C128.515 191.277 128.155 191.631 127.872 192.108H127.878Z" fill="white"/>
<path d="M29.8364 85.0921C31.3724 82.9614 33.0435 81.6692 36.4111 79.9232C37.3366 81.7769 37.5487 83.7537 36.9382 85.7689C36.1219 88.4765 32.9342 89.2226 31.1604 87.1611C30.6655 86.5843 30.3056 85.8305 29.8364 85.0921V85.0921Z" fill="white"/>
<path d="M28.9945 79.5078C28.7245 77.6233 29.3994 76.2388 30.4405 75.1543C31.1025 74.462 32.7542 75.0312 33.8404 76.1542C32.2272 77.2695 30.6462 78.3694 28.9945 79.5078Z" fill="white"/>
<path d="M34.3737 80.1001C33.204 80.9077 32.2978 81.5308 31.2052 82.2846C30.8775 81.2923 30.5883 80.4155 30.2412 79.3617C31.3466 78.6463 32.3492 77.9925 33.5446 77.2234C33.8724 78.3541 34.1102 79.1771 34.3737 80.1078V80.1001Z" fill="white"/>
<path d="M29.4507 83.9306C29.2001 82.5307 28.4289 81.3462 29.56 80.1462C30.4126 81.8436 30.3762 83.105 29.4507 83.9306Z" fill="white"/>
<path d="M35.9481 79.0848C35.6011 79.2771 35.254 79.4617 34.7913 79.7155C34.5599 78.8771 34.3607 78.1695 34.155 77.4387C34.8706 77.3516 35.4661 77.9002 35.9417 79.0848H35.9481Z" fill="white"/>
<path d="M30.376 74.1159C29.1806 74.5774 27.998 75.2389 26.7319 74.3389C27.9273 73.7313 29.1677 73.9543 30.4081 74.1543L30.376 74.1159V74.1159Z" fill="white"/>
</svg>
