<svg width="210" height="197" viewBox="0 0 210 197" fill="none" xmlns="http://www.w3.org/2000/svg">
<g clip-path="url(#clip0_9_617)">
<rect width="210" height="197" fill="white"/>
<path d="M11.912 184.085C15.5312 182.711 16.5526 182.86 21.4004 181.729C31.7555 179.313 32.7552 179.834 45.3794 178.681C73.642 176.1 104.352 175.802 133.505 177.164C152.628 178.058 170.578 179.814 188.444 181.915C196.846 182.904 206.761 184.304 218.808 185.753" stroke="black" stroke-linecap="round"/>
<circle cx="101.718" cy="91.953" r="84.3749" fill="#FDF9F3"/>
<path d="M201.525 122.89C201.115 120.37 200.115 117.94 197.895 116.06C190.925 118.47 188.314 124.27 186.344 130.81H181.245C181.165 130.33 181.055 130.06 181.085 129.8C181.155 128.88 181.245 127.96 181.375 127.05C182.535 118.72 181.565 110.64 178.335 102.88C176.305 97.9999 172.905 94.2799 168.045 92.1099C162.215 89.5199 156.215 87.3999 149.955 86.0399C146.345 85.2599 142.755 84.3599 139.135 83.6399C133.065 82.4399 127.015 81.0499 120.895 80.2699C113.935 79.3999 106.895 79.1299 99.9045 78.5599C89.0645 77.6899 78.2945 78.2899 67.5645 79.9299C61.3445 80.8799 55.2345 82.2899 49.4545 84.9099C38.3645 89.9599 31.3945 98.5199 28.4145 110.17C27.6145 113.31 26.6045 115.99 24.6145 118.54C21.5445 122.45 17.9545 124.17 13.0045 122.76C10.7345 122.11 8.40453 122.35 6.27452 123.51C3.68453 124.93 2.81452 127.4 3.95452 130.1C5.29452 133.25 7.78454 134.9 11.1045 134.86C16.1645 134.8 20.5145 133.08 23.3245 128.54C24.0545 127.36 24.7245 126.15 25.4345 124.96C25.7345 124.47 26.0945 124 26.7545 123.03C26.9045 125.01 27.0145 126.38 27.1245 127.75C27.2145 129.04 27.1645 130.36 27.4145 131.61C29.5845 142.12 35.0545 150.5 43.6745 156.88C49.6745 161.32 56.3445 164.38 63.3745 166.83C67.0845 168.12 70.6345 169.85 74.6245 171.54C72.2345 174.05 70.0545 176.3 67.9145 178.58C66.7345 179.85 65.6045 181.17 64.4545 182.46L64.4945 182.49C64.5445 182.52 64.6645 182.6 64.6645 182.6C67.0345 180.43 69.6745 178.48 71.7345 176.04C76.8645 169.97 81.7345 163.69 86.6945 157.48C88.5945 155.1 90.4745 152.7 92.3145 150.27C92.7545 149.69 93.0045 148.96 93.3445 148.3C93.2345 148.25 93.1245 148.21 93.0145 148.16C91.2345 150.34 89.4545 152.51 87.4045 155.02C87.0645 153.87 86.8245 153.28 86.7045 152.66C84.2545 140.33 83.4645 127.88 85.4345 115.45C86.6645 107.72 88.6445 100.09 90.5245 92.4799C91.4045 88.8999 92.7445 85.4299 94.0745 81.9899C95.1145 79.2999 95.3545 79.2899 98.2045 79.4599C100.975 79.6299 103.755 79.6899 106.505 79.9699C113.215 80.6399 119.965 81.0999 126.595 82.2199C133.875 83.4499 141.015 85.4199 148.255 86.8899C154.815 88.2199 161.065 90.4099 167.195 93.0199C169.785 94.1199 171.985 95.7699 173.855 97.8899C180.055 104.91 181.125 113.37 180.755 122.24C180.715 123.35 180.565 124.45 180.415 125.55C179.695 130.75 179.105 135.98 177.365 141.06C174.765 141.43 173.755 143.26 173.725 145.55C173.685 148.3 174.005 151.05 174.165 153.8C174.215 154.8 174.475 155.87 174.225 156.8C172.565 163.1 170.095 169.08 165.985 174.2C164.035 176.62 161.905 179.21 158.705 179.94C155.125 180.76 151.435 181.41 147.765 181.53C138.785 181.82 129.875 180.91 121.025 179.38C115.075 178.34 107.515 177.05 101.385 176.01C101.095 175.96 100.805 175.91 100.515 175.86C100.725 176.12 100.955 176.35 101.225 176.55C102.385 177.41 104.065 177.73 106.205 178.08C110.035 178.71 113.855 179.36 117.675 180.03C125.775 181.44 133.875 182.7 142.145 182.71C147.165 182.72 152.105 182.36 157.015 181.42C159.245 180.99 161.174 180.11 162.904 178.58C166.154 175.72 168.744 172.38 170.594 168.52C171.384 166.89 172.415 166.34 174.075 166.51C176.455 166.76 178.845 167.03 181.245 167.19C182.665 167.28 183.895 167.62 185.085 168.5C186.495 169.55 188.095 170.2 189.975 170.14C191.795 170.07 192.575 168.63 193.815 167.74C196.445 165.86 197.095 163.27 196.585 160.41C196.205 158.27 195.295 156.21 194.515 154.17C194.165 153.27 193.535 152.48 192.955 151.51C193.475 151.51 193.755 151.46 194.005 151.52C199.245 152.73 199.795 152.81 201.495 146.58C201.565 146.31 201.605 146.03 201.625 145.75C201.965 141.89 202.575 138.03 202.575 134.16C202.575 130.29 202.145 126.61 201.525 122.89V122.89ZM26.3445 121.1C25.1345 123.47 23.7845 125.79 22.3545 128.04C19.7045 132.18 15.6045 133.64 10.9545 133.64C8.25452 133.65 6.21453 132.25 5.09453 129.71C4.14453 127.56 4.75452 125.68 6.80452 124.53C8.67452 123.47 10.7445 123.31 12.7245 123.85C18.3345 125.38 22.4645 123.46 25.5445 118.74C25.8945 118.22 26.3345 117.76 26.7345 117.26C26.9445 117.33 27.1545 117.39 27.3645 117.46C27.0345 118.68 26.9045 119.99 26.3445 121.1V121.1ZM34.4745 100.05C31.1245 115.21 31.3945 129.93 34.4445 144.79C25.3445 134.95 26.0745 109.14 34.4745 100.05ZM85.5445 151.28C86.5145 155.09 85.7345 157.65 83.2345 160.4C80.4545 163.47 78.0945 166.92 75.4045 170.39C73.9745 169.91 72.5745 169.51 71.2245 168.98C66.6645 167.22 62.1445 165.34 57.5545 163.67C55.5945 162.96 54.3245 161.89 53.5045 159.91C49.7945 150.94 47.7945 141.57 46.8445 131.97C46.4145 127.57 46.4745 123.11 46.3645 118.68C46.3345 117.69 46.5045 116.7 46.6245 115.2C58.7845 118.98 70.8045 120.64 83.3845 120.59C83.3845 121.6 83.4045 122.38 83.3845 123.16C83.2345 132.6 83.2345 142.08 85.5445 151.28V151.28ZM83.6245 119.45C73.7745 119.58 54.4145 117.24 46.6745 114.05C46.9845 111.79 47.2245 109.42 47.6445 107.08C48.7745 100.9 50.2545 94.8199 52.9345 89.0799C53.2245 88.4499 53.3045 87.7199 53.4745 87.0299C53.4745 87.0299 53.4679 87.0332 53.4545 87.0399C51.9445 90.4399 50.1045 93.7199 49.0045 97.2499C43.3545 115.36 44.1145 133.51 49.3445 151.57C50.2645 154.74 51.6345 157.77 53.0045 161.41C51.2745 160.51 49.8845 159.91 48.6345 159.09C44.2645 156.27 40.3645 152.88 37.0245 148.89C36.4045 148.15 35.9445 147.16 35.7345 146.22C33.6445 136.89 32.8545 127.42 33.1045 117.88C33.2745 111.49 34.2345 105.19 35.9645 99.0299C36.6845 96.4899 37.9745 94.3399 40.0045 92.5599C44.0745 88.9899 48.6445 86.3599 54.0145 84.4999C53.7745 85.5299 53.6045 86.2899 53.4245 87.0399H53.4545C53.4545 87.0399 53.4545 87.0299 53.4645 87.0199C53.4745 86.9999 53.4745 86.9899 53.4845 86.9699C53.4845 86.9899 53.4745 86.9999 53.4745 87.0199C53.5445 86.9899 53.6245 86.9599 53.6945 86.9299C53.7845 86.8899 53.8645 86.8499 53.8845 86.7799C54.8645 83.9099 57.2645 83.1899 59.8745 82.6399C66.0245 81.3299 72.1745 80.1599 78.4645 79.8899C83.5245 79.6699 88.5745 79.4099 93.9545 79.1499C89.0245 92.5099 85.6845 105.84 83.6245 119.45V119.45ZM180.844 132.18H186.165C185.635 137.09 186.394 141.7 188.154 146.91C186.094 145.71 184.595 144.77 183.045 143.94C181.505 143.13 179.915 142.42 178.315 141.64C179.165 138.47 179.974 135.45 180.844 132.18V132.18ZM172.205 165.6C173.185 162.73 174.115 160.01 175.055 157.28C177.275 160.32 179.395 163.23 181.585 166.23C178.535 166.02 175.545 165.82 172.205 165.6ZM185.275 167.62C180.925 164.47 177.455 160.6 175.625 155.43C174.365 151.87 174.125 148.27 175.255 144.55L175.615 146.47C176.245 149.96 177.295 153.3 179.295 156.26C181.555 159.62 183.905 162.93 186.265 166.23C187.305 167.7 188.685 168.73 190.565 168.9C188.425 169.61 186.785 168.72 185.275 167.62V167.62ZM193.715 154.77C194.765 156.76 195.465 159.02 195.885 161.24C196.315 163.43 195.465 165.39 193.535 166.78C191.295 168.4 189.315 168.27 187.375 166.3C184.305 163.18 182.185 159.39 179.955 155.67C178.035 152.45 176.905 148.97 176.365 145.28C176.235 144.44 176.344 143.55 176.344 142.28C178.124 143 179.585 143.49 180.955 144.16C186.075 146.66 190.945 149.53 193.715 154.77ZM188.805 145.75C186.975 139.89 186.535 134.02 188.425 128.07C189.545 124.54 191.555 121.6 194.215 119.11C195.045 118.33 196.164 117.87 197.154 117.26C197.314 117.43 197.475 117.61 197.635 117.78C196.005 128.65 194.895 139.53 196.965 150.45C193.225 151.12 189.865 149.13 188.805 145.75V145.75ZM198.505 150.66C195.835 146.96 196.665 127.95 198.575 118.52C202.605 125.62 202.435 145.87 198.505 150.66Z" fill="black"/>
<path d="M98.0245 187.33C97.6645 187.32 97.4445 187.31 97.2345 187.33C88.5845 187.8 79.9145 188.56 71.4245 185.87C69.0145 185.1 66.4046 184.75 64.6646 182.6C64.6646 182.6 64.5445 182.52 64.4945 182.49C64.4745 182.48 64.4545 182.47 64.4545 182.47C63.7845 182.79 63.6845 183.25 64.2745 183.71C65.1045 184.36 65.9846 184.94 66.8746 185.57C66.5146 186.06 66.3046 186.37 66.0746 186.65C64.3546 188.66 63.9046 190.9 64.9746 193.34C66.0846 195.85 68.3245 196.61 70.8045 196.9C73.9445 197.27 76.8546 196.62 79.5046 194.86C80.1846 194.41 80.9146 194.03 81.7246 193.56C83.3546 195.25 85.1946 194.73 86.8146 193.84C88.2446 193.06 89.6246 191.99 90.6646 190.76C92.0146 189.15 93.4646 188.25 95.6046 188.36C96.3646 188.4 97.2846 188.45 98.0346 187.67C98.0846 187.62 98.1246 187.58 98.1546 187.53C98.2146 187.47 98.2646 187.4 98.3146 187.33H98.0245V187.33ZM83.1445 193.58C82.9845 192.92 82.8945 192.53 82.7745 191.99C81.7145 192.58 80.7145 193.05 79.8045 193.66C77.2545 195.38 74.4946 196.08 71.4146 195.84C69.1646 195.66 67.1346 195.17 66.0746 193.02C64.9646 190.8 65.5845 188.71 67.0845 186.85C67.3145 186.56 67.5645 186.3 67.9545 185.87C75.2845 188.38 82.9146 189.16 90.7846 188.93C88.8146 191.48 86.9545 193.97 83.1445 193.58V193.58Z" fill="black"/>
<path d="M51.6945 191.886C50.5945 193.626 49.2445 193.046 47.6945 192.016C47.7845 193.406 47.8545 194.466 47.9445 195.886C46.1845 194.856 44.6945 193.916 43.1345 193.086C41.5545 192.236 39.9145 191.506 37.8745 190.516C41.3345 189.906 43.2945 192.486 46.0745 192.986C46.2945 192.106 46.5145 191.196 46.8445 189.856C47.9945 190.476 48.8945 190.976 49.8945 191.516C50.4745 191.086 51.1145 190.616 51.9745 189.976C52.8545 190.986 53.6745 191.926 54.5245 192.896C55.6845 192.126 56.7945 191.386 58.0745 190.536C58.4845 191.316 58.7645 191.846 59.0845 192.446C60.0945 192.106 61.1145 191.756 62.1445 191.416C62.2345 191.556 62.3245 191.706 62.4145 191.846C60.9345 192.856 59.4545 193.856 57.7445 195.016C57.5445 194.036 57.4045 193.376 57.2045 192.396C56.4245 193.256 55.8345 193.906 55.0145 194.806C53.9845 193.906 52.9945 193.026 51.7045 191.886H51.6945Z" fill="#A1C7C7"/>
<path d="M29.5846 181.11C32.3846 181.1 34.6546 182.24 36.9146 183.95C37.5846 183.55 38.4246 183.2 39.0646 182.63C40.6846 181.19 41.2046 181.12 42.6546 182.51C43.0446 182.89 43.3446 183.37 43.7746 183.91C44.5146 183.36 45.1846 182.75 45.9646 182.31C46.7246 181.88 47.5946 181.62 48.6446 181.73C47.6146 182.5 46.4946 183.17 45.5946 184.06C44.7046 184.94 44.0546 186.05 43.1246 187.27C42.1546 185.81 42.9046 183.63 40.6446 182.96C40.5446 184.02 40.4446 184.96 40.3646 185.83C39.2646 186.8 38.1046 183.71 37.5546 185.88C34.7446 184.2 32.1646 182.65 29.5846 181.11V181.11Z" fill="#A1C7C7"/>
<path d="M108.345 156.24C105.765 162.75 103.435 169.33 101.385 176.01C101.325 176.19 101.275 176.37 101.225 176.55C100.135 180.12 99.1247 183.71 98.2047 187.33C98.1847 187.4 98.1647 187.46 98.1547 187.53C98.1147 187.67 98.0746 187.8 98.0446 187.94C98.0346 187.85 98.0347 187.76 98.0347 187.67C98.0247 187.56 98.0247 187.45 98.0247 187.33C98.1147 181.17 104.435 161.96 108.345 156.24V156.24Z" fill="black"/>
<path d="M18.162 190.31C20.372 188.44 21.412 191.15 23.252 191.73C24.262 189.25 27.072 191.73 28.422 189.66C27.192 192.23 26.872 192.39 24.722 191.74C24.272 192.27 23.802 192.82 23.302 193.4C22.642 192.9 22.012 192.41 21.292 191.87C21.012 192.44 20.792 192.87 20.392 193.66C18.962 192.7 17.672 191.74 16.292 190.94C14.872 190.11 13.372 189.43 11.912 188.68C11.982 188.51 12.052 188.34 12.122 188.17C14.042 188.85 15.972 189.54 18.162 190.32V190.31Z" fill="#A1C7C7"/>
<path d="M104.655 126.12C103.615 122.78 100.855 121.86 97.9245 123.74C96.1345 124.89 96.1746 126.7 96.1646 128.4C96.1646 131.17 98.2845 133.28 100.805 133.26C103.105 133.24 104.955 131.05 105.015 127.84C104.955 127.55 104.875 126.81 104.655 126.12V126.12ZM102.705 131.49C101.735 132.42 100.555 132.3 99.3645 131.77C97.5545 130.96 97.1645 129.44 97.1545 127.69C97.1745 125.72 98.4945 124.16 100.405 123.86C102.045 123.6 103.415 124.83 103.965 126.96C104.425 128.74 103.975 130.27 102.705 131.49V131.49Z" fill="black"/>
<path d="M119.264 186.39C118.204 187.03 117.364 187.54 116.324 188.17C115.874 187.1 115.534 186.3 115.154 185.4C114.424 185.9 113.724 186.38 112.774 187.03C112.644 185.22 113.504 184.28 114.694 183.78C116.284 183.12 116.504 184.89 117.414 185.66C117.964 185.35 118.484 185 119.054 184.75C120.744 184 121.004 184.19 121.374 186.51C122.994 186.61 124.654 186.72 127.014 186.87C125.434 187.26 124.404 187.57 123.364 187.75C122.324 187.93 121.264 187.99 119.964 188.13C119.774 187.68 119.524 187.07 119.244 186.38L119.264 186.39Z" fill="#A1C7C7"/>
<path d="M174.519 189.808C172.889 189.678 171.259 189.588 169.639 189.388C169.419 189.358 169.269 188.818 169.039 188.448C168.459 188.908 167.919 189.328 167.289 189.818C166.459 189.058 165.729 188.398 164.869 187.608C164.219 189.058 163.659 190.328 163.089 191.608C162.199 189.628 162.919 188.028 163.799 186.498C164.229 185.768 165.009 185.678 165.719 186.208C166.229 186.588 166.689 187.048 167.289 187.578C168.509 186.898 169.659 186.158 171.009 187.798C171.699 188.648 173.299 188.758 174.479 189.198C174.489 189.398 174.499 189.608 174.509 189.808H174.519Z" fill="#A1C7C7"/>
<path d="M203.054 188.779C200.734 189.209 198.624 189.869 196.514 189.859C195.394 189.859 194.284 188.669 192.724 187.759C191.814 188.359 190.474 189.239 188.934 190.259C188.814 188.589 189.984 187.909 190.954 187.279C191.844 186.709 192.924 186.429 193.934 186.089C194.104 186.029 194.484 186.279 194.614 186.479C195.924 188.459 197.704 188.629 199.854 188.129C200.794 187.909 202.014 187.719 203.044 188.789L203.054 188.779Z" fill="#A1C7C7"/>
<path d="M110.175 124.07C110.035 123.63 109.155 123.13 108.675 123.17C108.265 123.21 107.675 123.97 107.605 124.48C107.245 126.93 107.015 129.4 106.785 131.87C106.745 132.32 106.795 132.84 107.005 133.22C107.335 133.8 107.825 134.7 108.255 134.7C108.795 134.71 109.655 134.04 109.825 133.49C110.355 131.75 110.635 129.93 110.985 128.27C110.705 126.73 110.585 125.35 110.175 124.07V124.07ZM108.205 133.8C107.205 130.41 108.475 127.49 108.755 124.48C110.405 125.56 109.915 127.21 109.925 128.62C109.945 130.36 110.015 132.23 108.205 133.8Z" fill="black"/>
<path d="M173.855 97.8899C171.985 95.7699 169.785 94.1199 167.195 93.0199C161.065 90.4099 154.815 88.2199 148.255 86.8899C141.015 85.4199 133.875 83.4499 126.595 82.2199C119.965 81.0999 113.215 80.6399 106.505 79.9699C103.755 79.6899 100.975 79.6299 98.2045 79.4599C95.3545 79.2899 95.1146 79.2999 94.0746 81.9899C92.7446 85.4299 91.4045 88.8999 90.5245 92.4799C88.6445 100.09 86.6645 107.72 85.4345 115.45C83.4645 127.88 84.2545 140.33 86.7045 152.66C86.8245 153.28 87.0645 153.87 87.4045 155.02C89.4545 152.51 91.2345 150.34 93.0145 148.16C93.1245 148.21 93.2345 148.25 93.3445 148.3C93.0045 148.96 92.7545 149.69 92.3145 150.27C90.4745 152.7 88.5945 155.1 86.6945 157.48C81.7345 163.69 76.8645 169.97 71.7345 176.04C69.6745 178.48 67.0346 180.43 64.6646 182.6C66.4046 184.75 69.0145 185.1 71.4245 185.87C79.9145 188.56 88.5845 187.8 97.2345 187.33C97.4445 187.31 97.6645 187.32 98.0245 187.33C98.1145 181.17 104.435 161.96 108.345 156.24C105.765 162.75 103.435 169.33 101.385 176.01C107.515 177.05 115.075 178.34 121.025 179.38C129.875 180.91 138.785 181.82 147.765 181.53C151.435 181.41 155.125 180.76 158.705 179.94C161.905 179.21 164.035 176.62 165.985 174.2C170.095 169.08 172.565 163.1 174.225 156.8C174.475 155.87 174.215 154.8 174.165 153.8C174.005 151.05 173.685 148.3 173.725 145.55C173.755 143.26 174.765 141.43 177.365 141.06C179.105 135.98 179.695 130.75 180.415 125.55C180.565 124.45 180.715 123.35 180.755 122.24C181.125 113.37 180.055 104.91 173.855 97.8899ZM100.805 133.26C98.2845 133.28 96.1646 131.17 96.1646 128.4C96.1646 126.7 96.1345 124.89 97.9245 123.74C100.855 121.86 103.615 122.78 104.655 126.12C104.875 126.81 104.955 127.55 105.015 127.84C104.955 131.05 103.105 133.24 100.805 133.26V133.26ZM109.825 133.49C109.655 134.04 108.795 134.71 108.255 134.7C107.825 134.7 107.335 133.8 107.005 133.22C106.795 132.84 106.745 132.32 106.785 131.87C107.015 129.4 107.245 126.93 107.605 124.48C107.675 123.97 108.265 123.21 108.675 123.17C109.155 123.13 110.035 123.63 110.175 124.07C110.585 125.35 110.705 126.73 110.985 128.27C110.635 129.93 110.355 131.75 109.825 133.49V133.49Z" fill="white"/>
<path d="M46.6247 115.2C58.7847 118.97 70.8047 120.63 83.3847 120.59C83.3847 121.6 83.3947 122.38 83.3847 123.16C83.2347 132.6 83.2346 142.08 85.5446 151.27C86.5046 155.09 85.7346 157.65 83.2346 160.4C80.4546 163.47 78.0947 166.91 75.4047 170.39C73.9747 169.91 72.5747 169.5 71.2247 168.98C66.6647 167.22 62.1447 165.34 57.5547 163.67C55.5947 162.96 54.3346 161.89 53.5146 159.91C49.8046 150.94 47.7947 141.57 46.8447 131.97C46.4147 127.57 46.4746 123.11 46.3646 118.68C46.3346 117.69 46.5147 116.69 46.6347 115.2H46.6247ZM50.1446 120.66C50.1846 121.01 50.1246 121.42 50.2946 121.67C51.7846 123.87 53.2747 126.07 54.8747 128.2C55.3547 128.84 56.0947 129.35 56.8247 129.7C57.8747 130.21 58.9647 130.19 59.8547 129.23C60.7547 128.26 60.8347 127.2 60.0747 125.96C58.5447 123.47 53.4446 120.7 50.1446 120.66V120.66Z" fill="white"/>
<path d="M53.4245 87.0399C53.5845 86.9499 53.8345 86.8999 53.8745 86.7799C54.8545 83.9099 57.2545 83.1899 59.8745 82.6399C66.0145 81.3399 72.1645 80.1699 78.4545 79.8899C83.5145 79.6699 88.5645 79.4099 93.9445 79.1499C89.0145 92.5099 85.6745 105.84 83.6145 119.45C73.7745 119.58 54.4046 117.24 46.6646 114.06C46.9746 111.8 47.2046 109.43 47.6346 107.09C48.7646 100.91 50.2446 94.8199 52.9146 89.0899C53.2146 88.4399 53.2945 87.6899 53.4745 86.9799L53.4146 87.0499L53.4245 87.0399Z" fill="#C8E2E2"/>
<path d="M53.4845 86.9699C51.9745 90.3899 50.1146 93.6999 49.0046 97.2499C43.3546 115.36 44.1146 133.51 49.3446 151.57C50.2646 154.74 51.6346 157.77 53.0046 161.41C51.2846 160.51 49.8946 159.9 48.6346 159.09C44.2646 156.26 40.3645 152.88 37.0245 148.88C36.4045 148.14 35.9445 147.15 35.7345 146.21C33.6545 136.88 32.8546 127.41 33.1046 117.87C33.2746 111.48 34.2246 105.18 35.9646 99.0199C36.6746 96.4899 37.9646 94.3299 40.0046 92.5499C44.0746 88.9799 48.6445 86.3499 54.0145 84.4899C53.7745 85.5199 53.6045 86.2799 53.4245 87.0399L53.4845 86.9699V86.9699Z" fill="white"/>
<path d="M176.345 142.28C178.125 143 179.585 143.49 180.955 144.16C186.065 146.65 190.935 149.53 193.705 154.76C194.755 156.75 195.455 159.01 195.885 161.23C196.305 163.43 195.455 165.38 193.525 166.78C191.285 168.4 189.305 168.27 187.365 166.3C184.295 163.17 182.175 159.39 179.945 155.67C178.015 152.45 176.885 148.97 176.345 145.28C176.225 144.43 176.325 143.55 176.325 142.27L176.345 142.28Z" fill="white"/>
<path d="M197.635 117.77C195.995 128.64 194.895 139.53 196.965 150.45C193.225 151.12 189.865 149.12 188.805 145.75C186.975 139.89 186.525 134.01 188.425 128.06C189.545 124.54 191.545 121.59 194.215 119.1C195.045 118.33 196.165 117.86 197.155 117.26C197.315 117.43 197.475 117.6 197.635 117.77V117.77Z" fill="white"/>
<path d="M27.3546 117.46C27.0246 118.68 26.8946 120 26.3346 121.1C25.1246 123.48 23.7746 125.79 22.3446 128.04C19.6946 132.18 15.5946 133.64 10.9446 133.65C8.25458 133.65 6.21456 132.26 5.08456 129.72C4.13456 127.57 4.74455 125.69 6.79455 124.54C8.66455 123.49 10.7246 123.32 12.7146 123.86C18.3246 125.39 22.4546 123.46 25.5346 118.75C25.8746 118.22 26.3246 117.76 26.7246 117.27C26.9346 117.33 27.1446 117.4 27.3546 117.46V117.46Z" fill="white"/>
<path d="M34.4746 100.05C31.1246 115.22 31.3946 129.93 34.4446 144.79C25.3446 134.96 26.0746 109.14 34.4746 100.05Z" fill="white"/>
<path d="M198.575 118.52C202.605 125.62 202.435 145.87 198.515 150.66C195.845 146.96 196.675 127.95 198.575 118.52V118.52Z" fill="white"/>
<path d="M186.165 132.18C185.635 137.09 186.385 141.7 188.155 146.9C186.095 145.7 184.595 144.77 183.035 143.94C181.505 143.12 179.915 142.41 178.305 141.64C179.155 138.47 179.965 135.45 180.845 132.18H186.165V132.18Z" fill="white"/>
<path d="M190.555 168.9C188.415 169.61 186.785 168.72 185.265 167.63C180.915 164.48 177.445 160.6 175.615 155.44C174.355 151.88 174.115 148.28 175.245 144.56C175.365 145.2 175.485 145.84 175.595 146.48C176.225 149.97 177.285 153.31 179.275 156.27C181.545 159.63 183.895 162.94 186.245 166.24C187.295 167.71 188.675 168.74 190.545 168.91L190.555 168.9Z" fill="white"/>
<path d="M172.205 165.6C173.185 162.73 174.115 160.02 175.055 157.28C177.275 160.32 179.395 163.23 181.575 166.23C178.525 166.03 175.535 165.83 172.195 165.6H172.205Z" fill="white"/>
<path d="M83.1345 193.58C82.9845 192.92 82.8944 192.53 82.7644 191.99C81.7044 192.58 80.7044 193.05 79.7944 193.66C77.2444 195.38 74.4844 196.08 71.3944 195.84C69.1444 195.66 67.1245 195.17 66.0545 193.03C64.9445 190.8 65.5645 188.72 67.0645 186.85C67.2945 186.57 67.5545 186.3 67.9345 185.87C75.2645 188.38 82.8845 189.16 90.7545 188.93C88.7845 191.48 86.9245 193.98 83.1145 193.58H83.1345Z" fill="white"/>
<path d="M97.1545 127.69C97.1745 125.72 98.4945 124.16 100.405 123.86C102.045 123.6 103.415 124.84 103.965 126.96C104.425 128.74 103.975 130.27 102.705 131.49C101.735 132.42 100.555 132.3 99.3645 131.77C97.5645 130.97 97.1645 129.44 97.1545 127.69V127.69Z" fill="#E1B7AE"/>
<path d="M108.204 133.8C107.204 130.41 108.474 127.49 108.754 124.48C110.394 125.56 109.914 127.21 109.924 128.62C109.934 130.36 110.004 132.23 108.204 133.81V133.8Z" fill="white"/>
<path d="M59.4879 128.89L59.488 128.89C59.8796 128.468 60.0604 128.063 60.0882 127.662C60.1165 127.254 59.9923 126.782 59.6483 126.221L59.4879 128.89ZM59.4879 128.89C59.1159 129.291 58.7268 129.474 58.3405 129.52C57.9452 129.567 57.5073 129.476 57.043 129.25L57.0407 129.249M59.4879 128.89L57.0407 129.249M57.0407 129.249C56.3562 128.921 55.69 128.445 55.2729 127.898C53.7419 125.869 52.3112 123.756 50.876 121.637C50.8201 121.554 50.7643 121.472 50.7085 121.389L50.7085 121.389L50.7083 121.389C50.7076 121.388 50.701 121.376 50.6938 121.344C50.6854 121.308 50.6791 121.259 50.6748 121.192M57.0407 129.249L50.6748 121.192M50.6748 121.192C52.1284 121.337 53.9018 121.959 55.537 122.836C57.3857 123.827 58.9514 125.087 59.6483 126.221L50.6748 121.192Z" stroke="black"/>
<path d="M55.6013 60.8644C53.0233 50.4257 49.5426 40.5197 47.0856 30.3385C47.2691 30.2892 47.4377 30.2231 47.6212 30.1738C48.6754 33.2869 49.8069 36.3792 50.7742 39.5156C51.8082 42.8619 52.6904 46.2593 53.6208 49.6438C54.5253 52.9318 55.3911 56.2301 56.3515 59.8032C57.2641 59.6926 58.0771 59.7122 58.8225 59.4808C65.2647 57.5214 71.6791 55.497 78.1213 53.5376C82.8891 52.0904 87.6776 50.7204 92.461 49.3311C94.0466 48.8739 95.6478 48.4745 97.4924 47.9788C96.9395 49.5046 95.7221 49.5212 94.759 49.7904C91.2084 50.7965 87.6067 51.6507 84.0814 52.7122C79.3979 54.1264 74.7883 55.7382 70.1101 57.1717C66.0543 58.4171 61.9726 59.566 57.8858 60.6956C57.1325 60.8981 56.3013 60.8108 55.6083 60.8521L55.6013 60.8644Z" fill="black"/>
<path d="M58.7964 55.3769C59.1289 52.4917 59.2062 49.5819 60.1838 46.8236C61.0276 44.8779 63.1119 44.7732 64.4334 46.2612C64.8162 46.645 65.2237 47.1982 65.6059 47.2715C65.7195 47.3859 66.3474 46.6787 66.725 46.0802C67.2954 45.2745 67.6683 44.2734 67.9498 43.3175C69.0032 44.0388 70.1756 45.0491 71.2602 45.6171C71.6659 45.2388 72.2192 44.562 72.599 44.0871C74.4026 41.8213 75.7225 39.2195 76.811 36.566C77.4748 34.4512 79.1189 32.9013 81.2255 34.6131C81.9777 35.1772 83.9094 36.7393 84.6816 37.3394L83.0622 37.6712C83.6814 36.4692 84.2736 35.2435 84.9296 34.0628L85.5105 33.0265L86.4142 33.6534C86.8341 33.9443 87.3105 34.1373 87.4728 34.1247C87.5456 34.1259 87.5263 34.1311 87.5746 34.1181C87.6036 34.1103 87.6838 33.9852 87.7214 33.7783C87.9643 30.2131 89.1632 26.3908 91.4109 23.5811L91.5825 23.6799C90.4271 26.3928 89.728 29.2627 89.6366 32.197C89.6081 32.7845 89.6581 33.2785 89.5797 34.0658C89.3024 36.5013 86.8475 36.4984 85.3052 35.4218L86.7924 35.0221C86.0226 36.6269 85.1247 38.2559 84.3207 39.8492C83.1405 38.8099 81.2285 37.1286 80.0509 36.099C79.7256 35.8136 79.4665 35.6969 79.3989 35.715C79.3209 35.6946 79.1188 35.7903 78.8914 36.1C78.1838 37.2428 77.4471 38.6627 76.6422 39.7903C75.2639 41.8279 73.7088 43.7474 72.1434 45.6282C71.9312 45.8405 71.855 46.0578 71.5307 46.2381C71.0486 46.4091 70.7408 46.1502 70.5403 46.0591C69.6948 45.5718 68.8211 45.1336 67.9571 44.6928L68.7687 44.3607C68.5561 45.6501 68.1025 46.8904 67.3626 47.9901C67.0999 48.361 66.6603 48.883 65.9011 49.025C64.4132 49.3835 63.4996 47.6409 62.5309 47.0418C62.3793 46.979 62.2653 46.9786 62.1379 47.0439C61.3619 47.4699 61.0339 49.3702 60.5628 50.8534C60.0879 52.3996 59.6007 53.9388 59.004 55.4557L58.8068 55.4155L58.7964 55.3769Z" fill="black"/>
<path d="M160.255 39.2181C160.053 38.857 159.822 38.5031 159.67 38.1204C159.425 37.5066 159.266 36.8566 159.02 36.2428C158.515 34.9718 157.742 34.0619 156.189 34.2352C155.951 34.2641 155.698 34.1197 155.222 33.9969C155.568 33.6142 155.756 33.2387 156.045 33.1304C158.125 32.3504 159.461 31.0867 159.244 28.6747C159.237 28.5592 159.338 28.4292 159.396 28.3209C159.425 28.2703 159.49 28.2342 159.75 27.9959C160.01 28.4075 160.392 28.7686 160.479 29.1874C160.898 31.1228 162.169 32.0977 163.989 32.5743C164.602 32.7332 165.18 33.0148 165.787 33.6286C165.137 33.802 164.494 33.9897 163.844 34.1558C161.562 34.748 160.984 35.4268 160.826 37.716C160.789 38.1998 160.696 38.6764 160.623 39.1603C160.501 39.1819 160.385 39.1964 160.262 39.2181H160.255ZM159.923 35.629C161.028 34.7624 162.053 33.9464 162.941 33.2531C161.952 32.5021 160.927 31.7294 159.937 30.9711C159.251 31.7511 158.529 32.5526 157.901 33.2676C158.645 34.1269 159.316 34.9141 159.93 35.629H159.923Z" fill="black"/>
<path d="M171.961 50.1369C170.194 51.5042 169.055 53.2927 168.545 55.5025C167.368 54.8381 167.7 53.4588 167.058 52.6139C166.4 51.7473 165.729 50.9313 164.306 50.693C165.072 49.9997 166.09 49.4364 166.53 48.5771C166.964 47.7322 166.812 46.5912 167.086 45.4935C168.35 47.3711 169.477 49.3137 171.961 50.1369V50.1369ZM166.249 50.4041C166.971 51.2129 167.577 51.8989 168.199 52.585C168.841 51.8412 169.469 51.119 170.184 50.2958C169.39 49.6603 168.625 49.0609 167.809 48.4038C167.274 49.097 166.798 49.7036 166.249 50.4041V50.4041Z" fill="black"/>
<path d="M152.037 47.0461C149.885 45.2359 148.253 44.2225 147.141 44.0059C147.87 43.2621 148.657 42.6844 149.141 41.9117C149.618 41.1534 149.784 40.2002 150.167 39.1169C151.373 40.7923 152.369 42.4677 154.536 42.9804C152.644 43.7242 152.355 45.3707 152.044 47.0389L152.037 47.0461ZM152.499 43.161C152.348 43.3126 152.196 43.4571 152.044 43.6087C151.503 42.8143 150.954 42.0272 150.383 41.1967C149.964 41.9694 149.589 42.6555 149.199 43.3704C149.972 43.9481 150.694 44.4825 151.416 45.0241C151.777 44.4031 152.131 43.782 152.492 43.161H152.499Z" fill="black"/>
<path d="M174.344 20.3845C175.146 20.3484 176.056 21.2149 176.034 21.9949C176.02 22.6015 175.081 23.3958 174.344 23.4319C173.564 23.468 172.864 22.7531 172.864 21.9154C172.864 21.0633 173.478 20.4278 174.344 20.3917V20.3845ZM174.185 22.9625C174.597 22.6015 175.059 22.3848 175.102 22.1104C175.146 21.836 174.756 21.5038 174.561 21.2005C174.279 21.4171 173.831 21.5905 173.759 21.8649C173.687 22.1248 173.99 22.5004 174.193 22.9698L174.185 22.9625Z" fill="black"/>
<path d="M185.574 45.7174C185.552 46.9234 184.888 47.5155 183.978 47.4794C183.082 47.4505 182.613 46.9522 182.678 46.0929C182.736 45.2913 183.53 44.5547 184.332 44.7786C184.859 44.923 185.27 45.4791 185.566 45.7174H185.574ZM184.05 45.3202C183.797 45.7101 183.516 45.999 183.566 46.0857C183.703 46.3167 183.978 46.4828 184.23 46.6056C184.281 46.6345 184.606 46.3312 184.577 46.2518C184.49 45.9846 184.303 45.7463 184.043 45.3202H184.05Z" fill="black"/>
<path d="M142.801 19.9151C142.757 20.825 141.992 21.5616 141.125 21.5182C140.266 21.4749 139.717 20.9044 139.797 20.1317C139.876 19.3012 140.605 18.5935 141.342 18.6224C142.209 18.6585 142.837 19.2146 142.808 19.9151H142.801ZM141.241 19.2146C140.945 19.6262 140.663 19.8862 140.591 20.1967C140.562 20.3267 141.097 20.7528 141.183 20.7094C141.472 20.5433 141.739 20.2545 141.876 19.9512C141.92 19.8501 141.544 19.5612 141.241 19.2146Z" fill="black"/>
<path d="M159.923 35.629C159.309 34.9141 158.63 34.1269 157.894 33.2676C158.529 32.5526 159.244 31.7511 159.93 30.9711C160.927 31.7222 161.945 32.5021 162.934 33.2531C162.053 33.9464 161.021 34.7624 159.916 35.629H159.923Z" fill="white"/>
<path d="M166.256 50.4041C166.798 49.7036 167.274 49.097 167.816 48.4038C168.639 49.0537 169.397 49.6603 170.192 50.2958C169.477 51.119 168.849 51.8484 168.206 52.585C167.592 51.8989 166.978 51.2129 166.256 50.4041V50.4041Z" fill="white"/>
<path d="M152.499 43.161C152.138 43.782 151.777 44.4031 151.423 45.0241C150.694 44.4825 149.972 43.9409 149.206 43.3704C149.596 42.6555 149.972 41.9694 150.391 41.1967C150.961 42.0272 151.503 42.8143 152.052 43.6087C152.203 43.457 152.355 43.3126 152.507 43.161H152.499Z" fill="white"/>
<path d="M174.185 22.9698C173.983 22.5004 173.68 22.1321 173.752 21.8649C173.831 21.5905 174.272 21.4171 174.553 21.2005C174.756 21.5038 175.138 21.8432 175.095 22.1104C175.052 22.3848 174.597 22.6015 174.178 22.9625L174.185 22.9698Z" fill="white"/>
<path d="M184.05 45.3202C184.302 45.7463 184.49 45.9773 184.584 46.2518C184.613 46.3312 184.288 46.6345 184.237 46.6056C183.985 46.4828 183.718 46.3095 183.573 46.0857C183.523 45.999 183.804 45.7101 184.057 45.3202H184.05Z" fill="white"/>
<path d="M141.241 19.2074C141.544 19.5468 141.92 19.8356 141.876 19.944C141.746 20.2473 141.472 20.5361 141.183 20.7022C141.096 20.7528 140.562 20.3195 140.591 20.1895C140.663 19.8862 140.945 19.6262 141.241 19.2074Z" fill="white"/>
</g>
<defs>
<clipPath id="clip0_9_617">
<rect width="210" height="197" fill="white"/>
</clipPath>
</defs>
</svg>
