<svg viewBox="0 0 210 198" fill="none" xmlns="http://www.w3.org/2000/svg">
<rect x="13" y="8.86084" width="88.2438" height="80.702" rx="4" fill="#FDF9F3"/>
<rect x="103.398" y="32.9722" width="88.2438" height="80.702" rx="40.351" fill="#E4EDF6"/>
<g clip-path="url(#clip0_299_2)">
<path d="M198.247 50.1014H55.7612V138.451H198.247V50.1014Z" fill="white"/>
<path d="M198.298 138.51C198.084 138.51 55.7384 138.665 55.539 138.665C55.539 138.104 55.4873 50.3895 55.4873 49.8356C96.0141 49.7322 158.17 49.3187 198.239 49.3925H198.948V50.1015C198.889 78.2664 198.446 110.426 198.298 138.51ZM198.18 138.392C198.129 117.996 197.759 92.5851 197.619 72.0707L197.53 50.1015L198.239 50.8104C158.451 50.8104 95.9919 50.5519 55.7532 50.3673C56.2405 48.4695 56.1593 139.876 55.7532 138.237C55.7605 138.237 198.18 138.392 198.18 138.392Z" fill="black"/>
<path d="M72.5015 82.7046V64.9593H97.8972" fill="white"/>
<path d="M72.3391 82.7045C72.1766 77.5796 72.1692 70.1581 72.1323 64.9593V64.5901H72.5016C79.9822 64.6196 90.52 64.6344 97.8972 64.7969V65.1218C90.5643 65.2695 79.9452 65.3064 72.5016 65.3285L72.8708 64.9593L72.8191 73.8356C72.7896 76.7969 72.7379 79.7507 72.664 82.7119C72.664 82.7046 72.3391 82.7045 72.3391 82.7045Z" fill="black"/>
<path d="M159.596 64.9593H184.991V82.7046" fill="white"/>
<path d="M159.596 64.7821C166.929 64.6344 177.548 64.6196 184.991 64.5901H185.361V64.9593L185.316 73.8356C185.294 76.7969 185.242 79.7507 185.169 82.7119H184.814C184.681 77.587 184.637 70.1655 184.622 64.9667L184.991 65.3359L172.297 65.2916C168.066 65.2695 163.834 65.2178 159.603 65.1439C159.596 65.1365 159.596 64.7821 159.596 64.7821Z" fill="black"/>
<path d="M95.3566 134.316H69.9609V116.57" fill="white"/>
<path d="M95.3568 134.471C88.0239 134.869 77.4048 134.604 69.9611 134.641H69.6362V134.316L69.6953 125.439L69.8061 116.563H70.1088L70.2196 125.439L70.2787 134.316L69.9538 133.991C74.4067 133.976 84.6861 133.924 88.9987 133.969C91.1181 133.983 93.2301 134.05 95.3495 134.161C95.3568 134.161 95.3568 134.471 95.3568 134.471Z" fill="black"/>
<path d="M185.198 116.57V134.316H159.802" fill="white"/>
<path d="M185.316 116.57C185.493 122.323 185.545 128.585 185.567 134.316V134.685H185.198C182.03 134.677 175.664 134.655 172.504 134.633C169.343 134.611 162.963 134.515 159.81 134.441V134.197C162.978 134.124 169.336 134.028 172.504 134.005C175.672 133.983 182.037 133.961 185.198 133.954L184.829 134.323C184.851 130.047 184.873 125.306 184.954 121.009L185.072 116.57H185.316Z" fill="black"/>
<path d="M115.03 88.3021H121.417" stroke="black" stroke-width="0.738462" stroke-miterlimit="10"/>
<path d="M114.815 95.251L114.66 88.3021H115.399L115.244 95.251H114.815Z" fill="black"/>
<path d="M143.328 88.3021V95.251" stroke="black" stroke-width="0.738462" stroke-miterlimit="10"/>
<path d="M136.939 87.9329L143.327 88.1175V88.4867L136.939 88.6713V87.9329Z" fill="black"/>
<path d="M115.03 115.448V108.499" stroke="black" stroke-width="0.738462" stroke-miterlimit="10"/>
<path d="M121.417 115.802L115.03 115.817V115.079L121.417 115.093V115.802Z" fill="black"/>
<path d="M143.379 115.448H136.991" stroke="black" stroke-width="0.738462" stroke-miterlimit="10"/>
<path d="M143.571 108.499L143.748 115.448H143.01L143.194 108.499H143.571Z" fill="black"/>
<path d="M160.637 73.8356C162.167 73.8356 163.407 72.5958 163.407 71.0664C163.407 69.537 162.167 68.2971 160.637 68.2971C159.108 68.2971 157.868 69.537 157.868 71.0664C157.868 72.5958 159.108 73.8356 160.637 73.8356Z" fill="#FAE3E3"/>
<path d="M163.221 71.0664C163.221 67.699 158.237 67.7211 158.222 71.0664C158.377 74.2713 163.029 74.2935 163.221 71.0664ZM163.591 71.0664C163.561 75.1575 157.594 75.1722 157.521 71.0664C157.72 67.1008 163.384 67.123 163.591 71.0664Z" fill="black"/>
<path d="M89.907 68.2971H79.9229C78.6011 68.2971 77.5229 69.3679 77.5229 70.6971C77.5229 72.019 78.5937 73.0971 79.9229 73.0971H89.907C91.2288 73.0971 92.307 72.0264 92.307 70.6971C92.2996 69.3679 91.2288 68.2971 89.907 68.2971Z" fill="#EFF7FC"/>
<path d="M89.9067 68.4301C86.6279 68.4449 83.3344 68.4965 80.0556 68.5704C78.3276 68.4596 77.1977 70.6233 78.3054 71.9452C78.6894 72.4399 79.3024 72.7279 79.9227 72.7279C83.2014 72.7427 86.495 72.7944 89.7737 72.8682C92.8162 72.979 92.927 68.5409 89.9067 68.4301ZM89.9067 68.1643C93.3774 68.2603 93.2224 73.3335 89.7737 73.3187C86.495 73.3925 83.2014 73.4442 79.9227 73.459C79.0808 73.4516 78.2464 73.0455 77.7516 72.3735C76.3264 70.6012 77.8033 67.8319 80.0556 68.0239L81.1485 68.0461C84.0654 68.1199 86.9824 68.1495 89.9067 68.1643Z" fill="black"/>
<path d="M167.161 73.0309V67.4108H169.06C169.499 67.4108 169.86 67.4858 170.141 67.6358C170.423 67.784 170.632 67.988 170.767 68.2478C170.902 68.5076 170.97 68.803 170.97 69.1342C170.97 69.4653 170.902 69.7589 170.767 70.0151C170.632 70.2712 170.424 70.4724 170.144 70.6188C169.864 70.7633 169.506 70.8356 169.071 70.8356H167.534V70.2209H169.049C169.349 70.2209 169.591 70.177 169.774 70.0891C169.958 70.0013 170.092 69.8769 170.174 69.7159C170.258 69.5531 170.3 69.3592 170.3 69.1342C170.3 68.9091 170.258 68.7125 170.174 68.5442C170.09 68.3758 169.956 68.246 169.771 68.1545C169.586 68.0612 169.342 68.0145 169.038 68.0145H167.842V73.0309H167.161ZM169.806 70.5063L171.19 73.0309H170.399L169.038 70.5063H169.806ZM172.104 73.0309V67.4108H175.496V68.0145H172.785V69.9135H175.32V70.5172H172.785V72.4272H175.54V73.0309H172.104ZM181.245 69.1671H180.564C180.524 68.9713 180.454 68.7994 180.353 68.6512C180.254 68.503 180.134 68.3786 179.991 68.278C179.85 68.1755 179.694 68.0987 179.522 68.0475C179.35 67.9962 179.17 67.9706 178.984 67.9706C178.644 67.9706 178.335 68.0566 178.059 68.2286C177.785 68.4005 177.566 68.6539 177.403 68.9887C177.242 69.3235 177.162 69.7342 177.162 70.2209C177.162 70.7075 177.242 71.1182 177.403 71.453C177.566 71.7878 177.785 72.0412 178.059 72.2132C178.335 72.3851 178.644 72.4711 178.984 72.4711C179.17 72.4711 179.35 72.4455 179.522 72.3943C179.694 72.3431 179.85 72.2671 179.991 72.1665C180.134 72.0641 180.254 71.9387 180.353 71.7906C180.454 71.6405 180.524 71.4686 180.564 71.2746H181.245C181.194 71.5619 181.1 71.8189 180.965 72.0458C180.83 72.2726 180.661 72.4656 180.46 72.6248C180.259 72.7821 180.033 72.902 179.782 72.9843C179.534 73.0666 179.267 73.1078 178.984 73.1078C178.504 73.1078 178.078 72.9907 177.705 72.7565C177.332 72.5224 177.038 72.1894 176.824 71.7576C176.61 71.3259 176.503 70.8136 176.503 70.2209C176.503 69.6281 176.61 69.1159 176.824 68.6841C177.038 68.2524 177.332 67.9194 177.705 67.6852C178.078 67.451 178.504 67.334 178.984 67.334C179.267 67.334 179.534 67.3751 179.782 67.4574C180.033 67.5398 180.259 67.6605 180.46 67.8197C180.661 67.977 180.83 68.1691 180.965 68.396C181.1 68.621 181.194 68.878 181.245 69.1671Z" fill="white"/>
<path d="M63.1377 60.2332C104.24 59.6941 151.657 60.2406 192.871 60.2332V60.5359C163.975 60.6689 124.467 60.691 95.5709 60.7279L79.3543 60.7501C73.9488 60.7575 68.5432 60.7796 63.1377 60.5359V60.2332Z" fill="black"/>
<path d="M65.7594 57.7408C67.443 57.7408 67.443 55.1267 65.7594 55.1267C64.0757 55.1193 64.0757 57.7408 65.7594 57.7408Z" fill="#F0C3BA"/>
<path d="M71.2847 57.7408C72.9684 57.7408 72.9684 55.1267 71.2847 55.1267C69.601 55.1193 69.601 57.7408 71.2847 57.7408Z" fill="#E9CC9E"/>
<path d="M76.8129 57.7408C78.4966 57.7408 78.4966 55.1267 76.8129 55.1267C75.1292 55.1267 75.1218 57.7408 76.8129 57.7408Z" fill="#71BCBE"/>
<path d="M128.373 107.465C131.338 107.465 133.742 105.062 133.742 102.097C133.742 99.1315 131.338 96.7279 128.373 96.7279C125.408 96.7279 123.005 99.1315 123.005 102.097C123.005 105.062 125.408 107.465 128.373 107.465Z" fill="white"/>
<path d="M133.388 102.097C133.506 97.6436 127.871 95.2805 124.748 98.4707C122.732 100.361 122.761 103.832 124.762 105.715C127.886 108.883 133.439 106.52 133.388 102.097ZM134.111 102.097C134.17 107.103 127.864 109.651 124.401 106.077C122.244 103.98 122.266 100.236 124.415 98.131C127.886 94.5642 134.104 97.1119 134.111 102.097Z" fill="black"/>
<path d="M133.964 96.9421L123.271 107.724L122.747 107.207L133.528 96.5064L133.964 96.9421Z" fill="black"/>
</g>
<g clip-path="url(#clip1_299_2)">
<path d="M49.6948 70.5582C49.6948 70.5582 27.5096 75.2763 27.978 94.1622C28.3378 108.561 31.9901 127.352 33.7076 135.464C34.6376 139.863 37.387 143.733 41.372 145.803C43.5443 146.93 46.1851 147.609 49.24 147.113C49.5387 147.066 49.8306 147.018 50.1293 146.984C53.2317 146.638 71.9207 144.513 77.5417 142.782C77.5417 142.782 88.3967 140.42 84.147 113.517L79.7819 91.0191C77.8879 81.2638 70.7056 73.2193 61.0861 70.7347C57.6578 69.8522 53.8223 69.6146 49.688 70.5582H49.6948Z" fill="white"/>
<path d="M49.7222 70.6872C38.1951 73.5656 27.2723 81.9834 28.2498 94.9565C28.7522 106.803 30.7005 118.554 32.9543 130.183C33.511 132.382 33.8844 135.749 34.7533 137.82C37.0071 143.936 43.6532 148.179 50.1567 146.652C59.267 145.518 68.581 144.71 77.4944 142.511C86.1295 138.96 85.2742 123.401 84.2287 115.696C83.7535 111.718 81.7102 102.166 80.9906 98.0928C80.2234 94.7121 79.6668 89.6817 78.3294 86.4979C74.2563 75.2084 61.5344 67.7681 49.7358 70.694L49.7222 70.6872ZM49.6679 70.4292C61.6294 67.5373 74.3649 75.0115 78.5874 86.3893C79.9587 89.5731 80.5561 94.6171 81.3232 98.0182C83.3801 109.328 87.0935 122.057 84.4527 133.523C83.5227 137.358 81.6219 141.594 77.603 143.047C70.0269 144.995 61.9757 145.79 54.1552 146.828L50.2246 147.29C48.9211 147.487 47.5498 147.697 46.2261 147.561C40.7544 147.141 36.0499 143.081 34.1491 138.051C33.3005 135.885 32.8525 132.579 32.3433 130.298C30.2389 119.28 28.4399 108.167 27.8425 96.9523L27.7746 94.9701C27.5642 90.9851 28.372 86.9052 30.3814 83.4362C34.441 76.4847 42.0579 72.3572 49.6679 70.4292Z" fill="#231F20"/>
<path d="M51.216 70.2595C51.216 70.2595 50.958 69.8115 50.4964 69.0715C44.7464 59.8797 34.0815 54.7883 23.3759 56.499C20.674 56.9335 18.1962 57.7549 16.5533 59.2009C15.182 60.4092 14.4828 62.2693 14.9716 64.0343C15.5961 66.2678 18.1215 68.9221 27.1843 67.2725C27.2657 67.2589 27.3472 67.2386 27.4287 67.225C28.6914 66.9399 40.4017 64.3398 44.407 66.3425L49.6885 70.5582L51.2092 70.2595H51.216Z" fill="white"/>
<path d="M51.0324 70.178C49.8852 68.637 48.8737 66.9331 47.5363 65.5346C44.624 62.2761 40.897 59.7371 36.8239 58.1758C30.9517 56.0577 24.0205 55.6708 18.2977 58.3998C13.0026 61.2306 14.7744 67.1028 20.6194 67.3879C23.7897 67.7002 26.9736 67.001 30.0692 66.3764C33.2463 65.7994 36.4505 65.3378 39.6887 65.3242C41.3111 65.3513 43.0151 65.4056 44.5697 66.1456L49.8173 70.3953C49.8376 70.4021 49.6544 70.3545 49.6544 70.3545C50.1092 70.2595 50.5437 70.2188 51.0257 70.1712L51.0324 70.178ZM51.399 70.3478C50.8424 70.5039 50.2314 70.6668 49.6408 70.7754L49.5661 70.7211L44.2574 66.5461C43.1033 66.0506 41.2025 65.8605 39.6955 65.8808C36.5048 65.908 33.3209 66.39 30.1846 66.9738C27.0075 67.6323 23.8305 68.3451 20.5583 68.0464C14.0616 67.7409 12.0997 60.993 17.999 57.8431C23.9119 55.0394 30.9924 55.4535 37.0275 57.653C43.0898 60.0087 48.446 64.5299 51.4058 70.3545L51.399 70.3478Z" fill="#231F20"/>
<path d="M81.5205 99.9393C81.5205 99.9393 96.5912 96.1377 98.1051 96.4432C98.1051 96.4432 104.303 95.3842 105.973 104.006C107.643 112.627 83.7675 111.507 83.7675 111.507L81.5205 99.9393Z" fill="white"/>
<path d="M81.3979 99.8646C81.6899 99.7085 81.8256 99.7289 82.0021 99.6678C82.3144 99.5931 83.2173 99.3487 83.5432 99.2672C84.833 98.9278 88.3834 98.0521 89.7208 97.7262C92.314 97.156 95.8509 96.1649 98.0504 96.1105C102.64 95.6353 105.484 99.6474 106.19 103.707C107.432 109.986 97.5616 110.957 93.2441 111.446C90.0466 111.718 86.8492 111.785 83.645 111.65L83.6246 111.534L81.3979 99.8646ZM81.6491 100.021L83.9165 111.48C83.9165 111.48 83.774 111.358 83.7808 111.358C86.9239 111.453 90.0806 111.358 93.2101 111.052C97.0321 110.55 103.841 109.919 105.586 106.002C106.013 104.983 105.62 103.721 105.369 102.689C102.735 94.1758 96.4483 96.9591 89.8362 98.1946C88.4853 98.4933 84.9416 99.2808 83.6314 99.5931C83.3327 99.6678 82.3823 99.885 82.0836 99.9597C81.9207 99.9868 81.7034 100.089 81.6559 100.021H81.6491Z" fill="#231F20"/>
<path d="M29.139 108.615C29.139 108.615 15.4735 127.603 14.815 132.287C14.815 132.287 12.6494 140.759 21.1148 143.482C21.1148 143.482 28.4533 147.256 33.7077 135.464L29.139 108.615Z" fill="white"/>
<path d="M29.1055 108.758C29.1191 108.934 29.1055 108.907 29.0036 109.056L28.7593 109.409L28.2637 110.122C27.6595 110.998 25.9691 113.51 25.3514 114.433C22.7921 118.275 20.2531 122.152 17.9586 126.157C16.8656 128.126 15.664 130.142 15.1413 132.335C14.2248 136.252 15.7862 140.814 19.6082 142.524C21.3257 143.319 23.179 144.045 25.1409 143.651C28.5692 143.054 30.9859 140.121 32.6288 137.243L33.5724 135.403C33.5927 135.831 29.0987 108.656 29.0987 108.751L29.1055 108.758ZM29.1666 108.479C29.1734 108.527 33.8439 135.444 33.8507 135.485C33.8507 135.485 33.8303 135.518 33.8303 135.525L32.9275 137.412C31.2982 140.481 28.8407 143.536 25.236 144.215C23.1315 144.663 21.1696 143.95 19.3231 143.095C15.2363 141.268 13.4713 136.428 14.4828 132.212C15.698 127.888 18.6578 123.828 21.0745 119.939C22.9007 117.128 25.0187 114.094 26.9738 111.351C27.2725 110.95 28.1958 109.64 28.5013 109.24L28.7593 108.887L28.9018 108.69C28.9765 108.595 29.0851 108.527 29.1598 108.479H29.1666Z" fill="#231F20"/>
<path d="M103.495 98.6902C103.088 98.181 103.162 97.4411 103.665 97.0338C104.866 96.0562 107.195 94.7053 109.883 95.839C112.32 96.8708 113.148 99.7356 113.427 101.772C113.678 103.605 113.128 105.506 111.763 106.762C110.474 107.95 108.403 108.737 105.273 107.108C105.273 107.108 107.955 104.243 103.488 98.6834L103.495 98.6902Z" fill="white"/>
<path d="M103.257 98.8803C101.56 96.545 106.767 94.6985 108.512 95.1194C112.442 95.5742 114.119 100.204 113.685 103.673C113.338 106.11 111.207 108.316 108.661 108.283C107.31 108.303 106.075 107.787 104.921 107.196C107.039 104.623 105.036 101.08 103.257 98.8803ZM103.733 98.5001C105.572 100.869 107.521 104.467 105.45 107.271L105.389 106.911C107.364 107.997 109.978 108.255 111.648 106.517C114.771 103.687 112.856 96.1513 108.423 95.7847C107.33 95.6489 106.21 95.9001 105.212 96.4092C104.479 96.8437 103.013 97.4683 103.726 98.5001H103.733Z" fill="#231F20"/>
<path d="M15.3651 138.451C15.0188 137.691 14.0277 137.514 13.4371 138.112C12.1744 139.388 10.6334 141.696 11.5906 144.853C12.5953 148.172 16.5531 149.021 19.0852 149.211C20.7416 149.34 22.3777 148.77 23.5521 147.589C24.3803 146.754 25.1882 145.593 25.5073 144.065C25.5073 144.065 18.2299 144.737 15.3651 138.458V138.451Z" fill="white"/>
<path d="M15.114 138.56C13.7834 136.496 11.6315 141.038 11.6518 142.212C11.197 146.082 14.1636 148.193 17.6733 148.709C19.8525 149.204 22.2828 148.797 23.7423 146.964C24.4891 146.122 25.0458 145.111 25.2969 144.011L25.5345 144.276C21.3324 144.561 16.8791 142.531 15.1276 138.56H15.114ZM15.6096 138.336C17.2388 142.131 21.4953 144.072 25.4802 143.841L25.7789 143.828L25.7178 144.106C25.1612 147.086 22.4797 149.679 19.3365 149.53C4.99898 148.831 12.9213 133.801 15.6096 138.342V138.336Z" fill="#231F20"/>
<path d="M27.9717 96.4024C27.9717 96.4024 50.4216 74.6314 78.9542 87.8081Z" fill="white"/>
<path d="M27.8154 96.2395C31.0197 92.947 35.1064 90.5982 39.1524 88.4666C47.3531 84.3391 56.7553 82.4111 65.8996 83.667C70.4547 84.3051 74.8877 85.6764 79.0559 87.5976L78.8658 88.0117C74.7248 86.1448 70.3257 84.8211 65.8249 84.2305C54.5083 82.6962 42.9405 86.1381 33.5654 92.4786C31.651 93.7006 29.9471 95.2144 28.1345 96.5654L27.8154 96.2327V96.2395Z" fill="#231F20"/>
<path d="M29.75 112.2C29.75 112.2 54.3452 97.957 81.52 102.648Z" fill="white"/>
<path d="M29.6416 112.016C32.4385 110.129 35.6495 109.002 38.7383 107.685C43.9316 105.662 49.3761 104.053 54.8409 102.994C60.2379 101.881 66.0218 101.406 71.5341 101.46C73.4417 101.596 76.3541 101.664 78.2277 101.989L81.5541 102.444L81.4795 102.865L78.1666 102.444C66.0218 101.026 53.5783 103.089 42.0919 107.122C39.071 108.228 35.7378 109.559 32.8662 110.978C31.8615 111.453 30.8975 112.009 29.852 112.39L29.6416 112.023V112.016Z" fill="#231F20"/>
<path d="M68.8597 84.4545L70.1223 101.698C70.1223 101.698 55.6083 101.433 44.0065 106.124L38.3584 89.9872C38.3584 89.9872 48.6839 80.1777 68.8529 84.4545H68.8597Z" fill="#C8E2E2"/>
<path d="M68.9612 84.3662L70.2306 101.691V101.806C65.7705 101.793 61.2968 102.173 56.8774 102.852C52.4988 103.531 48.1744 104.603 44.047 106.226L43.9451 106.266L43.9112 106.164L38.0458 90.1026L37.9644 89.8854L38.1273 89.7428C46.6877 82.866 58.5882 82.0581 68.9612 84.3662ZM68.7575 84.5427C58.561 82.574 46.8778 83.3955 38.5957 90.2316L38.6839 89.8718L44.1081 106.09C44.1081 106.09 43.9655 106.029 43.9723 106.029C48.1133 104.399 52.458 103.327 56.8503 102.648C61.2425 101.969 65.6823 101.589 70.1288 101.596C70.1288 101.596 70.0202 101.704 70.027 101.704L68.7643 84.5427H68.7575Z" fill="#231F20"/>
<path d="M46.8301 147.276C46.8301 147.276 46.6808 150.739 48.344 150.589C48.344 150.589 56.212 150.413 59.8371 149.218C59.8371 149.218 60.9165 147.704 60.9029 145.667L46.8301 147.276Z" fill="white" stroke="#231F20" stroke-width="0.678862" stroke-miterlimit="10"/>
<path d="M63.0074 145.382C63.0074 145.382 62.5458 147.337 63.0074 148.132C63.469 148.926 72.6948 148.2 74.8128 147.276C74.8128 147.276 76.1773 146.367 76.0212 143.183L63.0006 145.382H63.0074Z" fill="white" stroke="#231F20" stroke-width="0.678862" stroke-miterlimit="10"/>
<path d="M74.8135 147.276C74.8135 147.276 88.2074 157.697 85.1389 160.419C82.0705 163.141 62.7976 162.388 62.7976 162.388C62.7976 162.388 57.8487 157.921 63.0013 148.132C63.0013 148.132 66.3345 148.96 74.8067 147.276H74.8135Z" fill="white"/>
<path d="M74.8946 146.95C75.0983 147.025 75.3359 147.276 75.5192 147.412C77.7051 149.279 88.2207 157.697 85.3355 160.596C84.6023 161.2 83.7538 161.424 82.9391 161.648C79.6331 162.415 76.2523 162.517 72.8852 162.632C69.5045 162.68 66.0626 162.741 62.7091 162.51C59.0636 158.464 60.6046 152.409 62.8856 148.071C62.9467 147.948 62.9059 147.962 63.0553 147.996C66.9384 148.512 71.0726 147.65 74.9014 146.957L74.8946 146.95ZM74.7385 147.609C71.8669 148.179 68.9003 148.519 65.9744 148.525C64.9765 148.512 63.9785 148.485 62.9738 148.274L63.1435 148.2C60.8015 152.544 59.5727 158.416 62.8109 162.238C67.8345 162.367 72.8784 162.361 77.8816 161.926C80.2508 161.614 82.9799 161.566 84.9893 160.209C87.1141 157.663 77.5558 149.985 75.5871 148.322C75.3223 148.125 74.9286 147.779 74.6706 147.589C74.6231 147.555 74.6774 147.602 74.7385 147.602V147.609Z" fill="#231F20"/>
<path d="M48.344 150.589C48.344 150.589 41.3856 156.638 42.146 160.568C42.9063 164.499 62.1384 163.596 62.8037 162.381C62.8037 162.381 64.6842 159.027 59.8439 149.211C59.8439 149.211 49.4166 151.248 48.3507 150.582L48.344 150.589Z" fill="white"/>
<path d="M48.3715 150.929C48.4123 150.942 48.4598 150.935 48.4801 150.922C48.4937 150.915 48.4462 150.956 48.4258 150.969L48.2901 151.092C46.9391 152.327 45.6629 153.678 44.5495 155.131C43.4701 156.631 42.255 158.403 42.3975 160.297C42.9203 164.031 58.731 163.359 61.779 162.619C62.0845 162.53 62.4511 162.483 62.648 162.272C63.4423 159.828 62.6751 157.161 61.9691 154.757C61.3649 152.877 60.5842 151.064 59.7289 149.279C59.7153 149.265 59.8579 149.347 59.8579 149.34C56.5247 150.019 53.1847 150.732 49.7903 151.03C49.3219 151.051 48.8399 151.092 48.3715 150.976V150.969V150.942V150.929ZM48.3172 150.25C48.4598 150.277 48.5888 150.338 48.7381 150.358C50.5167 150.501 52.3089 150.182 54.074 149.985C55.9884 149.727 57.9027 149.428 59.8171 149.096L59.9122 149.082L59.9529 149.164C61.6501 152.734 63.3268 156.495 63.3268 160.534C63.2725 161.227 63.2997 162.082 62.8109 162.632C62.5258 162.822 62.1864 162.904 61.8741 162.978C57.896 163.8 44.6174 164.506 42.0988 161.173C40.6325 157.758 45.561 152.789 47.842 150.589C47.9846 150.467 48.1339 150.29 48.3172 150.25Z" fill="#231F20"/>
<path d="M51.2158 89.9872L52.6211 96.9455L58.1063 91.9559L51.2158 89.9872Z" fill="white" stroke="#231F20" stroke-width="0.678862" stroke-miterlimit="10"/>
</g>
<defs>
<clipPath id="clip0_299_2">
<rect width="144" height="90.0923" fill="white" transform="translate(55 48.8608)"/>
</clipPath>
<clipPath id="clip1_299_2">
<rect width="102.752" height="107.81" fill="white" transform="translate(11 55.8608)"/>
</clipPath>
</defs>
</svg>
