<svg width="210" height="200" viewBox="0 0 210 200" fill="none" xmlns="http://www.w3.org/2000/svg">
<rect width="210" height="200" fill="white"/>
<ellipse opacity="0.1" cx="113.196" cy="98.5413" rx="90.6724" ry="85.8823" fill="url(#paint0_linear_787_386)"/>
<ellipse opacity="0.45" cx="113.196" cy="87.3113" rx="68.533" ry="59.682" fill="#EFDBBB" fill-opacity="0.72"/>
<path d="M13 195C43.4017 185.19 121.364 171.456 190 195" stroke="black"/>
<g clip-path="url(#clip0_787_386)">
<path d="M138.733 51.154L140.884 156.191C140.976 160.722 146.2 163.196 149.768 160.399L155.731 155.723C157.874 154.041 160.935 154.186 162.913 156.066L182.522 174.758C185.939 178.016 191.598 175.734 191.803 171.018L197.337 41.6297C197.488 38.068 194.256 35.3044 190.761 36.0102L143.153 45.6531C140.547 46.1808 138.7 48.4959 138.753 51.1474L138.733 51.154Z" fill="white"/>
<path d="M141.768 51.0947C141.887 85.5574 141.075 120.152 141.544 154.621C141.583 155.182 141.517 156.745 141.735 157.319C142.427 160.294 146.161 161.85 148.766 160.274C149.445 159.839 151.437 158.249 152.117 157.715C153.02 156.989 154.643 155.696 155.527 155.024C157.716 153.388 160.961 153.487 163.065 155.248C164.371 156.422 166.027 158.018 167.307 159.212C172.049 163.71 177.213 168.492 182.015 172.944L183.07 173.92C183.413 174.237 183.657 174.428 184.04 174.639C186.863 176.334 190.728 174.138 190.603 170.787L190.866 159.291C191.691 121.9 192.179 81.7648 193.412 44.2945L193.492 41.4583C193.498 40.5019 192.588 39.684 191.678 39.8159C191.625 39.8357 191.566 39.8357 191.513 39.8423L191.355 39.8753C180.617 42.1113 169.661 44.1362 158.877 46.0621L147.559 48.1068L144.729 48.6213L143.575 48.8323C142.553 49.0698 141.781 50.013 141.761 51.1013L141.768 51.0947ZM135.7 51.22C135.508 47.2362 138.444 43.4172 142.361 42.5664L142.764 42.474L143.463 42.3157C158.752 38.9189 174.667 35.1791 190.009 32.1847C195.82 30.9909 201.466 35.786 201.143 41.7089C201.103 42.6521 199.777 65.9614 199.692 67.5774C197.654 101.341 195.048 137.215 192.99 170.886C192.858 176.222 186.513 179.336 182.318 175.899C181.336 175.068 179.588 173.261 178.625 172.344C173.942 167.707 168.903 162.886 164.187 158.322C163.573 157.781 162.729 156.857 162.149 156.376C160.559 155.004 158.04 154.898 156.338 156.138C154.458 157.55 151.978 159.529 150.111 160.98C146.761 163.651 141.431 161.837 140.416 157.669C140.172 156.811 140.185 155.545 140.165 154.654C139.228 120.192 136.993 85.6629 135.706 51.2266L135.7 51.22Z" fill="#231F20"/>
<path d="M138.733 51.154L140.884 156.191C140.976 160.722 146.2 163.196 149.768 160.399L155.731 155.723C157.874 154.041 160.935 154.186 162.913 156.066L182.522 174.758C185.939 178.016 191.598 175.734 191.803 171.018L197.337 41.6297C197.488 38.068 194.256 35.3044 190.761 36.0102L143.153 45.6531C140.547 46.1808 138.7 48.4959 138.753 51.1474L138.733 51.154Z" fill="white"/>
<path d="M161.35 110.793L174.628 116.993L169.173 103.94L179.522 93.8284L166.383 91.2099L160.091 77.5501L155.21 91.4869L148.06 92.4433L149.894 96.4073" fill="#F8F3DE"/>
<path d="M161.489 110.496L174.957 116.287L173.909 117.296L168.87 104.072L168.79 103.874L168.942 103.709L178.757 93.0501L179.311 94.9035L166.324 91.5396L166.159 91.5001L166.086 91.355L159.418 77.8667L160.79 77.8007L155.513 91.6056L155.447 91.7771L155.243 91.8233L148.192 93.4986L149.003 92.0145L150.184 96.2754L149.584 96.5524C148.931 95.5828 146.754 92.4037 146.127 91.4737C147.209 91.4407 153.91 91.2099 155.15 91.1703L154.88 91.3879L159.372 77.3126L159.972 75.4329C160.137 75.789 166.258 90.148 166.667 91.0845L166.429 90.8999C167.979 91.1109 180.828 92.9248 182.015 93.0896L180.274 94.6199L169.391 104.184L169.463 103.821C170.024 105.048 175.861 117.863 176.244 118.694C175.525 118.345 162.366 111.683 161.199 111.096L161.476 110.496H161.489Z" fill="#231F20"/>
<path d="M37.0536 159.37C37.0536 159.37 30.2798 170.095 41.8157 174.244C41.8157 174.244 51.063 174.824 49.6383 165.564" fill="white"/>
<path d="M37.4755 159.634C34.0392 166.197 35.8068 171.137 41.8815 173.281C44.6187 173.479 47.844 172.43 48.8268 169.633C48.8796 169.369 49.0774 168.756 49.1236 168.492C49.1566 168.235 49.1962 167.556 49.2291 167.285C49.2291 166.744 49.1764 166.19 49.15 165.643L50.1262 165.491C50.5417 167.918 50.4296 170.609 48.6553 172.529C46.8679 174.488 44.223 175.2 41.6374 175.207C36.4532 173.399 33.2411 169.066 34.7581 163.506C35.1604 161.936 35.7738 160.492 36.6313 159.113L37.4689 159.641L37.4755 159.634Z" fill="#231F20"/>
<path d="M51.419 123.615C51.419 123.615 34.0656 150.941 35.022 155.479C35.9058 159.674 41.3012 167.417 53.6945 165.366C55.7524 165.023 57.5135 163.697 58.4039 161.817C60.8509 156.659 65.026 144.681 61.8798 127.335C61.8798 127.335 60.376 116.933 51.419 123.615Z" fill="white"/>
<path d="M51.7819 123.951C47.5804 132.222 42.5545 140.896 38.6366 149.285C37.8319 151.152 36.9151 153.005 36.6315 155.01C36.6315 155.07 36.6447 155.083 36.6315 155.123C36.6183 155.123 36.6447 155.202 36.6579 155.255L36.704 155.433C37.2053 157.306 38.32 159.008 39.7183 160.36C42.8381 163.466 47.4287 164.416 51.7621 164.033L53.444 163.842C55.0534 163.592 56.4583 162.523 57.1244 161.032L57.4872 160.248C60.1123 154.377 61.4051 147.986 61.7547 141.575C61.9723 136.872 61.6953 132.163 60.9764 127.44C60.02 121.702 56.4847 120.647 51.7753 123.951H51.7819ZM51.0564 123.278C56.3593 118.793 61.2996 120.277 62.7704 127.15C63.3508 130.079 63.8323 133.179 64.0368 136.166C64.5512 143.501 63.8389 150.941 61.5238 157.972C60.4355 161.098 59.3406 164.726 56.0691 166.203C54.9676 166.837 53.2989 166.969 52.0589 167.133C44.4211 168.103 36.2226 164.449 33.67 156.765C33.5711 156.415 33.4589 156.046 33.3996 155.683C33.2215 154.536 33.5777 153.329 33.9075 152.253C35.2398 148.468 37.1657 144.932 39.1115 141.476C42.7194 135.177 46.6966 129.083 51.0564 123.278Z" fill="#231F20"/>
<path d="M44.711 88.9344C44.711 88.9344 54.5585 135.823 54.5123 146.852C54.4661 156.409 78.6989 165.471 111.961 154.028C121.156 150.868 126.709 141.39 125.041 131.701C122.936 119.446 121.505 102.304 119.289 90.4382C116.506 75.5385 108.69 63.5276 95.1157 59.1678C85.9014 56.2064 73.917 56.6417 59.1623 65.5855C59.1623 65.5855 41.7232 76.3365 44.711 88.9344Z" fill="white"/>
<path d="M46.7557 88.4793C50.1987 107.066 54.011 125.402 55.7259 144.253L55.7919 146.693C55.7919 146.924 55.8117 147.023 55.8183 147.188C55.9238 149.028 57.0451 150.532 58.4566 151.831C65.5404 157.609 75.4933 158.519 84.4306 158.513C93.7306 158.361 102.978 156.435 111.796 153.48C114.652 152.471 117.33 150.855 119.408 148.619C123.688 144.253 125.588 137.776 124.552 131.761C123.491 125.58 122.732 119.367 121.947 113.161C119.461 95.4576 118.788 74.061 101.936 63.5738C88.2627 55.1708 71.9976 59.2074 59.3404 67.5972C52.9755 72.2076 44.8957 79.9246 46.7623 88.4793H46.7557ZM42.6664 89.3961C39.9885 77.748 52.2764 66.9838 61.5632 62.2481C85.8355 49.1621 111.546 57.4464 118.827 85.1155C122.363 100.404 122.831 116.175 125.529 131.596C126.907 139.629 123.378 148.026 116.466 152.418L115.444 153.058L114.369 153.612C114.105 153.764 113.557 154.001 113.274 154.113C97.5561 160.05 71.2259 164.495 56.8934 153.619C54.9212 152.009 53.1932 149.437 53.2129 146.706L53.081 144.457C50.8055 126.002 46.5315 107.581 42.6664 89.4027V89.3961Z" fill="#231F20"/>
<path d="M115.912 79.0804C115.912 79.0804 104.851 92.7797 45.377 93.3865Z" fill="white"/>
<path d="M116.295 79.3903C115.285 80.6435 113.973 81.5933 112.667 82.4705C111.414 83.3082 109.963 84.0997 108.597 84.7395C105.873 86.0652 102.839 87.1139 99.9305 87.9846C85.1825 92.1795 69.7946 93.4524 54.5321 93.8218L45.3838 93.8812L45.3706 92.8918L54.4859 92.5026C63.4957 92.0541 72.7363 91.2297 81.6669 89.9237C90.6042 88.499 99.5018 86.5995 107.852 83.0839C109.547 82.4112 111.282 81.5207 112.871 80.6435C113.742 80.1027 114.778 79.4629 115.529 78.7703L116.301 79.3903H116.295Z" fill="#231F20"/>
<path d="M121.143 106.743C121.143 106.743 99.6209 121.484 50.4761 119.987Z" fill="white"/>
<path d="M121.42 107.152C109.508 114.051 95.7688 116.973 82.2937 118.991C77.9339 119.525 73.0728 119.987 68.6801 120.244C66.0682 120.422 62.2097 120.455 59.5714 120.561L50.4561 120.482L50.489 119.492L59.5648 119.598C74.5965 119.374 89.9118 117.83 104.337 113.451C110.022 111.617 115.813 109.526 120.866 106.334L121.426 107.152H121.42Z" fill="#231F20"/>
<path d="M62.0974 172.285C62.0974 172.285 45.8982 190.509 57.9882 195.812C66.2527 199.439 78.6131 197.698 87.0952 195.713C94.5748 193.965 97.3384 185.397 91.4088 180.727C88.7705 178.65 85.2022 176.334 80.3939 173.775" fill="white"/>
<path d="M62.4668 172.614C59.347 177.733 50.08 191.003 58.971 194.361C67.1102 197.691 79.8334 196.115 88.2363 193.853C92.7742 192.21 95.1948 186.564 91.8772 182.627C91.211 181.783 90.3602 181.143 89.4499 180.417C86.5346 178.155 83.3885 176.13 80.1697 174.217L80.6314 173.347C85.011 175.503 89.4302 177.72 93.1897 180.971C95.4191 183.194 96.3161 186.459 95.5114 189.513C94.4033 193.813 90.6042 196.57 86.3961 197.381C77.0697 199.472 66.8925 201.068 57.6519 197.527C50.0272 194.525 50.977 186.822 54.4793 180.925C56.4515 177.535 58.8787 174.547 61.7281 171.968L62.4668 172.628V172.614Z" fill="#231F20"/>
<path d="M87.4714 173.162C87.4714 173.162 75.5265 185.892 80.3942 195.126C81.278 196.801 83.105 197.843 85.0772 197.817C92.1016 197.718 112.225 198.687 122.31 196.88C126.281 196.168 128.457 192.257 125.806 189.361C122.482 185.727 116.46 180.503 105.629 173.162" fill="white"/>
<path d="M87.8343 173.498C84.1012 178.828 79.3259 186.393 81.4035 192.976C81.5156 193.292 81.7861 193.892 81.951 194.183C82.4456 195.132 83.3822 195.719 84.4375 195.858C86.3965 195.871 91.8248 195.845 93.8695 195.891C103.176 195.924 112.608 196.359 121.802 195.132C124.137 194.928 126.558 192.6 124.639 190.397C121.908 187.257 118.689 184.408 115.438 181.631C112.159 178.874 108.769 176.209 105.359 173.571L105.913 172.753C113.38 177.245 120.76 182.06 126.954 188.279C129.157 190.416 129.117 194.189 126.907 196.346C125.107 198.364 122.403 198.773 119.929 199.077C108.598 200.475 97.108 199.927 85.7567 199.749C80.1305 199.967 77.4922 195.469 77.5978 190.337C77.7363 185.575 80.025 181.433 82.6963 177.746C84.0286 175.972 85.4797 174.329 87.1154 172.826L87.8343 173.505V173.498Z" fill="#231F20"/>
<path d="M66.1543 157.359L62.1045 172.291L80.4011 173.782L84.2266 159.113C84.2266 159.113 80.5396 160.524 66.1543 157.359Z" fill="white" stroke="#231F20" stroke-width="0.98936" stroke-miterlimit="10"/>
<path d="M89.9116 159.106L87.4712 173.162H105.629L111.955 154.028C111.955 154.028 101.969 157.134 89.9116 159.106Z" fill="white" stroke="#231F20" stroke-width="0.98936" stroke-miterlimit="10"/>
<path d="M146.595 97.2186C146.595 97.2186 150.685 91.0912 160.697 94.5078C170.709 97.9244 163.79 111.446 159.516 111.109" fill="white"/>
<path d="M146.187 96.9482C148.64 93.4327 153.138 92.285 157.175 92.7797C160.414 93.2414 164.081 94.2703 165.782 97.3571C167.86 101.196 166.409 105.925 163.863 109.137C162.768 110.417 161.357 111.729 159.484 111.604L159.563 110.615C160.875 110.509 161.944 109.289 162.702 108.24C165.459 104.441 166.343 97.7661 161.159 95.6752C157.208 94.0461 152.288 93.5184 148.607 96.0775C148.02 96.4799 147.44 96.9878 147.011 97.4956L146.187 96.9482Z" fill="#231F20"/>
<path d="M133.807 124.525C133.807 124.525 96.6133 129.848 125.041 108.141C153.469 86.4347 158.739 105.747 158.739 105.747C158.739 105.747 167.366 118.45 133.8 124.518L133.807 124.525Z" fill="white"/>
<path d="M133.938 125.33C112.746 127.388 105.972 121.742 125.239 107.106C132.632 101.598 143.212 94.1912 152.862 97.5682C156.318 98.894 159.015 101.855 160.229 105.351L160.018 104.889C162.993 109.896 160.005 115.436 155.553 118.259C149.095 122.507 141.411 124.017 133.938 125.336V125.33ZM133.675 123.714C140.725 122.17 148.132 120.429 154.069 116.188C157.103 114.097 159.629 110.12 157.465 106.611L157.432 106.571L157.254 106.149C156.476 103.458 154.484 101.044 151.892 99.9031C143.588 96.5063 132.791 103.458 126.103 108.247C107.417 121.788 113.577 126.497 133.675 123.707V123.714Z" fill="#231F20"/>
<path d="M91.2442 58.2972C89.3182 62.037 86.2974 64.9985 82.9863 67.4851C80.5063 69.2857 77.7559 70.8687 74.9263 72.0361C73.3367 72.8012 70.8172 73.5729 69.1352 74.1467C68.1657 74.3908 65.5999 75.0372 64.6567 75.268C63.6674 75.4329 61.1214 75.8484 60.1123 76.0133C58.3314 76.264 55.8185 76.3959 54.0046 76.5674L47.8838 76.6201L47.8904 75.6308L53.9255 75.3736C56.8078 75.057 60.0199 74.7601 62.8759 74.1467L64.3533 73.8763L65.8044 73.5004C73.4884 71.6338 81.0603 68.1182 86.6733 62.4723C88.0584 61.074 89.371 59.5174 90.3405 57.8685L91.231 58.2972H91.2442Z" fill="#231F20"/>
<path d="M68.6802 60.8564C62.6781 52.8756 38.386 25.2328 8.28963 54.3266C8.28963 54.3266 -10.7259 78.0647 39.7645 62.2877C39.7645 62.2877 56.0955 53.0734 64.8744 63.7849C65.6791 64.7677 67.0972 64.9853 68.1393 64.2532C69.2408 63.4749 69.4915 61.9381 68.6802 60.8564Z" fill="white"/>
<path d="M68.245 61.1795C61.4646 51.9851 51.327 44.1493 39.824 42.6653C27.9913 41.0427 17.0753 48.0672 9.63532 55.4017C7.86766 57.908 4.28618 63.5738 8.64596 65.1567C15.5847 67.7027 31.8959 62.9802 39.3557 60.975L39.0919 61.0872C40.5034 60.3616 41.8621 59.8274 43.2868 59.3261C50.608 56.6878 60.1323 56.4702 65.3297 63.2242C66.7412 65.1831 69.5774 63.2044 68.2516 61.1795H68.245ZM69.1091 60.5265C71.4308 63.8244 66.794 67.2212 64.2414 64.1278C60.3301 59.4316 53.741 58.7985 48.1346 60.3748C45.3776 61.0674 42.6404 62.2744 40.1736 63.5936C32.5621 66.1131 24.944 68.4546 16.884 69.2989C14.3513 69.5363 11.5547 69.6089 8.95596 69.0153C3.67937 67.9138 1.84575 63.6529 3.71235 58.8446C4.54341 56.701 5.62511 54.8608 7.08277 53.08C11.5349 48.9378 16.4619 45.2508 22.1145 42.8895C40.8266 34.8098 57.804 45.8972 69.1091 60.5265Z" fill="#231F20"/>
<path d="M107.397 84.324C107.397 84.324 113.241 109.249 113.135 110.489Z" fill="white"/>
<path d="M107.397 84.324C107.397 84.324 113.241 109.249 113.135 110.489" stroke="#231F20" stroke-width="0.98936" stroke-miterlimit="10"/>
<path d="M106.5 84.5C109.5 83.5 108 85 116 79.5C120 86.3 121.333 100.667 121.5 107L113 110.5L106.5 84.5Z" fill="#5BC3C8" stroke="black"/>
</g>
<defs>
<linearGradient id="paint0_linear_787_386" x1="113.196" y1="12.659" x2="113.196" y2="184.424" gradientUnits="userSpaceOnUse">
<stop stop-color="#009490"/>
<stop offset="1" stop-color="#009490" stop-opacity="0"/>
</linearGradient>
<clipPath id="clip0_787_386">
<rect width="198.149" height="168" fill="white" transform="translate(3 32)"/>
</clipPath>
</defs>
</svg>
