<svg viewBox="0 0 250 100" fill="none" xmlns="http://www.w3.org/2000/svg">
<rect width="250" height="100" rx="13.1579" fill="#3EAAAF" fill-opacity="0.08"/>
<rect opacity="0.6" x="86.8947" y="29.579" width="138.158" height="14.4737" rx="6.57895" fill="#3EAAAF" fill-opacity="0.5"/>
<rect opacity="0.3" x="86.8947" y="55.8948" width="46.0526" height="14.4737" rx="6.57895" fill="#3EAAAF" fill-opacity="0.5"/>
<g clip-path="url(#clip0_2_20)">
<path d="M54 67C58.5087 67 62.8327 65.2089 66.0208 62.0208C69.2089 58.8327 71 54.5087 71 50C71 45.4913 69.2089 41.1673 66.0208 37.9792C62.8327 34.7911 58.5087 33 54 33C49.4913 33 45.1673 34.7911 41.9792 37.9792C38.7911 41.1673 37 45.4913 37 50C37 54.5087 38.7911 58.8327 41.9792 62.0208C45.1673 65.2089 49.4913 67 54 67V67ZM51.875 46.8125C51.875 48.572 50.923 50 49.75 50C48.577 50 47.625 48.572 47.625 46.8125C47.625 45.053 48.577 43.625 49.75 43.625C50.923 43.625 51.875 45.053 51.875 46.8125ZM46.1056 59.4201C45.8616 59.2792 45.6835 59.0472 45.6106 58.775C45.5377 58.5028 45.5759 58.2128 45.7168 57.9688C46.5559 56.5145 47.7632 55.3069 49.2174 54.4676C50.6715 53.6282 52.321 53.1867 54 53.1875C55.6789 53.1872 57.3283 53.6289 58.7823 54.4682C60.2364 55.3075 61.4438 56.5148 62.2832 57.9688C62.4219 58.2127 62.4585 58.5015 62.385 58.7723C62.3115 59.0431 62.1338 59.2738 61.8909 59.414C61.6479 59.5543 61.3593 59.5928 61.088 59.5211C60.8168 59.4494 60.5849 59.2733 60.443 59.0312C59.7904 57.9 58.8513 56.9607 57.7202 56.3079C56.5891 55.655 55.306 55.3117 54 55.3125C52.694 55.3117 51.4109 55.655 50.2798 56.3079C49.1487 56.9607 48.2096 57.9 47.557 59.0312C47.4161 59.2753 47.184 59.4533 46.9118 59.5263C46.6397 59.5992 46.3497 59.561 46.1056 59.4201ZM58.25 50C57.077 50 56.125 48.572 56.125 46.8125C56.125 45.053 57.077 43.625 58.25 43.625C59.423 43.625 60.375 45.053 60.375 46.8125C60.375 48.572 59.423 50 58.25 50Z" fill="#3EAAAF" fill-opacity="0.5"/>
</g>
<path d="M28.375 28.0625C28.375 26.7198 28.9084 25.4322 29.8578 24.4828C30.8072 23.5334 32.0948 23 33.4375 23H73.9375C75.2802 23 76.5678 23.5334 77.5172 24.4828C78.4666 25.4322 79 26.7198 79 28.0625V71.9375C79 73.2802 78.4666 74.5678 77.5172 75.5172C76.5678 76.4666 75.2802 77 73.9375 77H33.4375C32.0948 77 30.8072 76.4666 29.8578 75.5172C28.9084 74.5678 28.375 73.2802 28.375 71.9375V66.875H26.6875C26.2399 66.875 25.8107 66.6972 25.4943 66.3807C25.1778 66.0643 25 65.6351 25 65.1875C25 64.7399 25.1778 64.3107 25.4943 63.9943C25.8107 63.6778 26.2399 63.5 26.6875 63.5H28.375V51.6875H26.6875C26.2399 51.6875 25.8107 51.5097 25.4943 51.1932C25.1778 50.8768 25 50.4476 25 50C25 49.5524 25.1778 49.1232 25.4943 48.8068C25.8107 48.4903 26.2399 48.3125 26.6875 48.3125H28.375V36.5H26.6875C26.2399 36.5 25.8107 36.3222 25.4943 36.0057C25.1778 35.6893 25 35.2601 25 34.8125C25 34.3649 25.1778 33.9357 25.4943 33.6193C25.8107 33.3028 26.2399 33.125 26.6875 33.125H28.375V28.0625ZM33.4375 26.375C32.9899 26.375 32.5607 26.5528 32.2443 26.8693C31.9278 27.1857 31.75 27.6149 31.75 28.0625V71.9375C31.75 72.3851 31.9278 72.8143 32.2443 73.1307C32.5607 73.4472 32.9899 73.625 33.4375 73.625H73.9375C74.3851 73.625 74.8143 73.4472 75.1307 73.1307C75.4472 72.8143 75.625 72.3851 75.625 71.9375V28.0625C75.625 27.6149 75.4472 27.1857 75.1307 26.8693C74.8143 26.5528 74.3851 26.375 73.9375 26.375H33.4375Z" fill="#3EAAAF" fill-opacity="0.5"/>
<defs>
<clipPath id="clip0_2_20">
<rect width="34" height="34" fill="white" transform="translate(37 33)"/>
</clipPath>
</defs>
</svg>
