<svg viewBox="0 0 210 198" fill="none" xmlns="http://www.w3.org/2000/svg">
<rect width="40.2491" height="80.702" rx="4" transform="matrix(0.938191 0.346117 -0.00820296 0.999966 165.932 39.1896)" fill="#F4F5FF"/>
<rect x="13" y="8.86084" width="69.5967" height="80.702" rx="4" fill="#FDF9F3"/>
<g clip-path="url(#clip0_305_444)">
<path d="M85.1782 121.48V4.86084" stroke="#231F20" stroke-width="0.199732" stroke-miterlimit="10"/>
<path d="M6.06396 180.785C8.25303 178.895 13.1704 175.041 21.6271 168.789C30.8268 162.094 38.7681 156.294 47.5483 149.151C60.507 139.333 72.6347 130.405 85.1739 121.48C107.332 129.066 128.656 136.209 151.229 143.795C156.666 145.58 162.099 146.471 167.116 149.151C169.205 150.042 171.714 149.599 173.807 150.49C183.422 154.508 193.037 156.737 202.521 160.129" stroke="#231F20" stroke-width="0.199732" stroke-miterlimit="10"/>
<path d="M100.277 50.7513L57.958 76.5807L59.2403 152.055L100.277 121.097V50.7513Z" fill="white" stroke="#231F20" stroke-width="0.399464" stroke-miterlimit="10"/>
<path d="M100.277 50.7513L67.7048 40.4931C67.3293 40.3732 66.9219 40.4172 66.5823 40.6129L22.4016 65.7033C21.9582 65.9549 21.6865 66.4223 21.6865 66.9336V136.8C21.6865 138.038 22.4695 139.141 23.6359 139.552L59.2402 152.055L57.9699 77.3876C57.9619 76.8843 58.2175 76.4169 58.649 76.1572L100.277 50.7473" fill="white"/>
<path d="M100.218 50.9431C93.6387 48.8658 73.8573 42.6582 67.6256 40.6928C67.1702 40.533 66.7109 40.7607 66.3314 41.0044L64.9812 41.7714C53.3168 48.4065 34.7817 58.9363 23.1213 65.5635C22.8057 65.7672 22.1746 66.0148 22.0388 66.4223C21.851 66.7578 21.9429 67.4689 21.9229 67.8524C21.9309 68.8031 21.9189 71.5155 21.9229 72.5101C21.9269 82.5647 21.9429 126.238 21.9469 136.189C21.7991 137.739 22.5621 139.061 24.1519 139.456L35.8682 143.591L59.3008 151.864C58.6097 153.254 58.1983 89.3036 57.9786 89.6072C57.9346 87.0227 57.8228 80.3956 57.7788 77.8989L57.7708 77.4116C57.7509 76.8563 58.0465 76.2971 58.5178 76.0015L60.1876 74.9828C68.7282 69.7698 91.3658 55.9523 100.17 50.5755L100.378 50.9151C91.4337 56.3758 69.0118 70.0614 60.3953 75.3224L58.7336 76.337C58.374 76.5607 58.1583 76.9761 58.1703 77.4036L58.1783 77.8909C58.2822 84.8376 59.3048 143.707 59.4366 152.047L59.4406 152.335C59.4366 152.335 59.169 152.239 59.165 152.239L35.7044 144.042L23.9762 139.944C22.622 139.604 21.4715 138.426 21.4236 136.98C21.4116 126.518 21.4436 83.1319 21.4436 72.5101C21.4555 71.5354 21.4356 68.8071 21.4436 67.8524C21.4755 67.397 21.3557 66.654 21.6073 66.2186C21.7831 65.6953 22.4542 65.4156 22.8816 65.156C34.534 58.5369 53.0971 48.019 64.7575 41.3959L66.1077 40.6289C66.575 40.3293 67.1742 40.0816 67.7375 40.2814C73.8892 42.2108 93.8824 48.5343 100.33 50.5596L100.21 50.9391L100.218 50.9431Z" fill="#231F20"/>
<path d="M68.8239 85.1292L102.635 97.1331C103.198 97.3328 103.577 97.8681 103.577 98.4673V136.664C103.577 137.85 102.431 138.701 101.292 138.354L67.9411 128.179C67.3459 128 66.9385 127.448 66.9385 126.825V86.4594C66.9385 85.4807 67.9052 84.8016 68.8239 85.1252V85.1292Z" fill="white"/>
<path d="M68.932 84.8256C77.88 88.0094 93.507 93.4141 102.295 96.5699L102.587 96.6737C103.482 96.9014 104.089 97.7843 103.989 98.703C103.993 99.0705 103.981 100.177 103.985 100.565C103.917 110.327 103.937 126.945 103.881 136.556C103.985 137.922 102.519 139.101 101.197 138.641L100.901 138.55L81.9226 132.705C80.1849 132.174 71.6124 129.53 70.0625 129.054C69.7149 128.93 68.6324 128.627 68.2849 128.507C67.6377 128.371 66.9387 127.956 66.7869 127.249C66.667 125.036 66.723 106.289 66.691 103.62C66.683 100.381 66.6431 91.8722 66.6311 88.7284C66.6471 88.0413 66.5871 86.9068 66.6431 86.1998C66.7749 85.1572 67.9493 84.4581 68.928 84.8296L68.932 84.8256ZM68.7163 85.4328C67.7735 85.1492 67.1224 85.9082 67.2463 86.8629C67.2542 87.2184 67.2343 88.3449 67.2383 88.7244C67.2263 91.8282 67.1903 100.393 67.1783 103.616C67.1744 105.734 67.1344 125.012 67.1344 126.578C67.0625 127.892 67.9773 127.98 68.9999 128.291C69.7349 128.507 71.8002 129.142 72.5631 129.37C78.603 131.195 94.8333 136.097 101.077 137.982C102.135 138.442 103.318 137.783 103.266 136.56C103.254 132.733 103.23 124.349 103.218 120.426L103.162 100.569V99.3262V98.707C103.162 98.6151 103.162 98.4793 103.162 98.4194C103.146 98.0559 102.91 97.7124 102.575 97.5646C93.5789 94.3569 77.852 88.7284 68.7243 85.4408L68.7163 85.4328Z" fill="#231F20"/>
<path d="M84.1569 119.881C87.3955 119.881 89.569 116.257 89.0113 111.787C88.4537 107.316 85.3763 103.692 82.1376 103.692C78.8989 103.692 76.7255 107.316 77.2831 111.787C77.8407 116.257 80.9182 119.881 84.1569 119.881Z" fill="#E4EDF6" stroke="#231F20" stroke-width="0.399464" stroke-miterlimit="10"/>
<path d="M79.7349 117.436C81.6564 117.436 83.076 115.35 82.9055 112.776C82.7351 110.203 81.0391 108.117 79.1175 108.117C77.1959 108.117 75.7764 110.203 75.9469 112.776C76.1173 115.35 77.8133 117.436 79.7349 117.436Z" fill="#FAE3E3" stroke="#231F20" stroke-width="0.399464" stroke-miterlimit="10"/>
<path d="M95.8797 106.213L94.3098 105.625C93.3871 105.278 92.4004 105.961 92.4004 106.948V124.117C92.4004 124.688 92.7439 125.203 93.2712 125.423L94.8411 126.078C95.7719 126.465 96.7985 125.782 96.7985 124.772V107.539C96.7985 106.948 96.431 106.42 95.8797 106.217V106.213Z" fill="#E5F1FD" stroke="#231F20" stroke-width="0.399464" stroke-miterlimit="10"/>
<path d="M66.9858 111.766H65.5996C64.8187 111.766 64.1855 112.399 64.1855 113.18V118.596C64.1855 119.377 64.8187 120.01 65.5996 120.01H66.9858C67.7668 120.01 68.3999 119.377 68.3999 118.596V113.18C68.3999 112.399 67.7668 111.766 66.9858 111.766Z" fill="white" stroke="#231F20" stroke-width="0.399464" stroke-miterlimit="10"/>
<path d="M66.9858 89.771H65.5996C64.8187 89.771 64.1855 90.4041 64.1855 91.1851V96.6018C64.1855 97.3828 64.8187 98.0159 65.5996 98.0159H66.9858C67.7668 98.0159 68.3999 97.3828 68.3999 96.6018V91.1851C68.3999 90.4041 67.7668 89.771 66.9858 89.771Z" fill="white" stroke="#231F20" stroke-width="0.399464" stroke-miterlimit="10"/>
<path d="M70.8008 85.8323L90.2267 73.5567C91.1695 72.9615 92.3958 73.6366 92.3958 74.7511V91.4967C92.3958 92.4754 91.4291 93.1544 90.5104 92.8309L70.8008 85.8363" fill="#E4EDF6"/>
<path d="M70.8008 85.8323L90.2267 73.5567C91.1695 72.9615 92.3958 73.6366 92.3958 74.7511V91.4967C92.3958 92.4754 91.4291 93.1544 90.5104 92.8309L70.8008 85.8363" stroke="#231F20" stroke-width="0.399464" stroke-miterlimit="10"/>
<path d="M57.9147 76.7285L21.6313 66.3025L21.7432 65.915L58.0026 76.4329L57.9147 76.7285Z" fill="#231F20"/>
<path d="M179.744 74.108L178.418 75.8497C178.09 76.2811 178.094 76.8803 178.429 77.3037C178.809 77.7871 179.492 77.9029 180.007 77.5673L182.125 76.2052C182.903 75.7019 182.836 74.5394 181.997 74.136L181.21 73.7565C180.702 73.5088 180.087 73.6566 179.748 74.108H179.744Z" fill="#FFF7E9" stroke="#231F20" stroke-width="0.399464" stroke-miterlimit="10"/>
<path d="M182.512 70.1972L198.087 53.6754C198.662 53.0642 199.677 53.228 200.032 53.991L203.248 60.9177C203.5 61.461 203.308 62.1121 202.797 62.4277L185.851 72.9775C185.496 73.1972 185.048 73.2172 184.677 73.0254L182.831 72.0707C182.128 71.7072 181.968 70.7725 182.512 70.1972Z" fill="#FFF7E9" stroke="#231F20" stroke-width="0.399464" stroke-miterlimit="10"/>
<path d="M149.112 154.121C149.112 154.121 149.18 158.455 147.754 159.19C146.328 159.925 139.753 159.885 140.037 159.006C140.32 158.127 140.676 155.012 140.676 155.012C140.676 155.012 140.52 157.876 140.037 159.006C139.553 160.137 134.033 159.909 131.991 159.478C129.95 159.046 129.579 154.468 129.579 154.468" fill="white"/>
<path d="M149.112 154.121C149.112 154.121 149.18 158.455 147.754 159.19C146.328 159.925 139.753 159.885 140.037 159.006M140.037 159.006C140.32 158.127 140.676 155.012 140.676 155.012C140.676 155.012 140.52 157.876 140.037 159.006ZM140.037 159.006C139.553 160.137 134.033 159.909 131.991 159.478C129.95 159.046 129.579 154.468 129.579 154.468" stroke="#231F20" stroke-width="0.399464" stroke-miterlimit="10"/>
<path d="M142.592 75.1146C142.592 75.1146 124.273 73.2132 117.494 91.7523C112.736 104.767 113.216 126.885 113.923 138.909C114.27 144.785 117.869 149.97 123.254 152.351C129.386 155.059 141.086 156.242 152.507 154.268C158.012 153.318 162.617 149.559 164.611 144.342C165.925 140.898 167.163 136.089 168.054 129.342C170.818 108.414 176.483 76.5807 142.588 75.1146H142.592Z" fill="white"/>
<path d="M142.566 75.4822C132.918 74.883 123.607 79.6885 119.249 88.4528C113.588 99.9174 113.56 117.845 113.732 130.596C113.788 132.981 113.884 135.366 114.004 137.751C114.06 138.941 114.124 140.123 114.387 141.286C115.618 147.258 120.411 151.764 126.247 153.246C134.528 155.599 146.165 155.643 154.514 153.557C159.027 152.147 162.778 148.604 164.416 144.17C166.062 139.704 166.957 134.994 167.612 130.293C170.92 106.588 175.11 76.8483 142.562 75.4822H142.566ZM142.617 74.7511C159.902 75.4023 169.398 84.4262 170.432 101.779C171.055 111.378 169.497 120.905 168.223 130.377C167.52 135.114 166.573 139.848 164.872 144.342C163.166 148.9 159.295 152.539 154.645 153.973C149.996 155.187 145.15 155.419 140.364 155.443C134.408 155.319 128.273 154.76 122.772 152.311C118.394 150.246 115.122 146.076 114.116 141.346C113.844 140.175 113.768 138.961 113.704 137.771C113.568 135.386 113.461 132.997 113.393 130.608C113.249 125.831 113.241 121.049 113.425 116.267C113.728 109.109 114.339 101.891 116.205 94.9401C117.435 90.2983 119.528 85.7764 122.88 82.273C127.881 76.9482 135.383 74.3517 142.617 74.7551V74.7511Z" fill="#231F20"/>
<path d="M133.5 97.3608C127.5 96.5608 120.333 93.3608 117.5 91.8608C115.1 99.4608 114.5 107.028 114.5 109.861C116.9 111.461 125.833 114.528 130 115.861L133.5 97.3608Z" fill="#C8E2E2" stroke="black" stroke-width="0.005"/>
<path d="M127.82 144.562C127.82 144.562 127.872 151.948 134.923 149.982C141.973 148.017 138.262 142.856 138.262 142.856C138.262 142.856 136.041 147.086 127.816 144.562" fill="white"/>
<path d="M127.82 144.562C127.82 144.562 127.872 151.948 134.923 149.982C141.973 148.017 138.262 142.856 138.262 142.856C138.262 142.856 136.041 147.086 127.816 144.562" stroke="#231F20" stroke-width="0.399464" stroke-miterlimit="10"/>
<path d="M169.897 113.799C139.198 125.711 114.063 109.528 114.063 109.528C122.488 114.442 130.114 116.044 130.146 115.576L133.721 97.1171C133.721 97.1171 121.893 94.2809 117.499 91.7523C117.499 91.7523 142.19 104.475 169.23 95.6591C169.23 95.6591 170.935 104.272 169.897 113.799Z" fill="white" stroke="#231F20" stroke-width="0.399464" stroke-miterlimit="10"/>
<path d="M135.642 121.345C133.441 118.361 128.871 118.369 126.922 121.516C126.542 122.128 126.291 122.791 126.291 123.478C126.291 123.478 124.277 138.318 126.291 142.896C127.501 145.644 131.476 145.556 134.464 145.045C137.779 144.482 140.308 141.741 140.548 138.39C140.548 138.338 140.556 138.286 140.56 138.238C140.58 137.906 140.564 137.571 140.532 137.239C140.292 134.986 139.142 126.082 135.646 121.345H135.642Z" fill="white" stroke="#231F20" stroke-width="0.399464" stroke-miterlimit="10"/>
<path d="M128.756 78.1545C128.756 78.1545 141.81 88.7963 160.154 80.3995Z" fill="white"/>
<path d="M128.756 78.1545C128.756 78.1545 141.81 88.7963 160.154 80.3995" stroke="#231F20" stroke-width="0.399464" stroke-miterlimit="10"/>
<path d="M143.328 78.1546C142.773 78.6619 141.882 78.2265 141.95 77.4795C142.286 73.6606 143.728 65.3238 149.923 60.0948C158.168 53.1321 167.144 53.8671 167.144 53.8671C167.144 53.8671 175.361 54.2346 169.968 61.9283C164.576 69.622 147.175 67.4249 146.807 70.9043L143.328 78.1586V78.1546Z" fill="white" stroke="#231F20" stroke-width="0.399464" stroke-miterlimit="10"/>
<path d="M132.167 159.522C132.055 159.494 131.931 159.51 131.831 159.569C130.729 160.221 124.189 164.171 124.317 166.348C124.457 168.725 141.063 167.171 142.109 166.408C142.868 165.853 142.177 162.29 140.292 159.386C140.164 159.186 139.896 159.126 139.693 159.246C138.898 159.713 136.657 160.604 132.167 159.522Z" fill="white" stroke="#231F20" stroke-width="0.399464" stroke-miterlimit="10"/>
<path d="M147.363 159.278C147.582 159.23 147.81 159.35 147.886 159.561C148.265 160.624 149.643 163.624 149.727 164.862C149.807 166.001 144.486 166.34 142.665 166.396C142.401 166.404 142.185 166.185 142.205 165.917C142.265 165.154 142.122 163.412 140.56 160.085C140.396 159.737 140.715 159.358 141.083 159.462C142.154 159.761 144.119 159.981 147.359 159.278H147.363Z" fill="white" stroke="#231F20" stroke-width="0.399464" stroke-miterlimit="10"/>
</g>
<defs>
<clipPath id="clip0_305_444">
<rect width="197.555" height="176" fill="white" transform="translate(6 4.86084)"/>
</clipPath>
</defs>
</svg>
