<svg viewBox="0 0 250 100" fill="none" xmlns="http://www.w3.org/2000/svg">
<rect width="250" height="100" rx="13.1579" fill="#3EAAAF" fill-opacity="0.08"/>
<rect opacity="0.6" x="86.8421" y="28.579" width="138.158" height="14.4737" rx="6.57895" fill="#3EAAAF" fill-opacity="0.5"/>
<rect opacity="0.3" x="86.8421" y="54.8948" width="46.0526" height="14.4737" rx="6.57895" fill="#3EAAAF" fill-opacity="0.5"/>
<g clip-path="url(#clip0_2_44)">
<path fill-rule="evenodd" clip-rule="evenodd" d="M71.047 68.047C65.9884 73.1055 59.1276 75.9474 51.9737 75.9474C44.8198 75.9474 37.959 73.1055 32.9004 68.047C27.8419 62.9884 25 56.1276 25 48.9737C25 41.8198 27.8419 34.959 32.9004 29.9004C37.959 24.8419 44.8198 22 51.9737 22C57.1003 22 62.0765 23.4594 66.3467 26.1483C65.4733 27.1904 64.9474 28.5338 64.9474 30C64.9474 33.3137 67.6336 36 70.9474 36C72.4136 36 73.7569 35.4741 74.7991 34.6006C77.4879 38.8709 78.9474 43.847 78.9474 48.9737C78.9474 56.1276 76.1055 62.9884 71.047 68.047ZM45.2303 48.9737C47.0914 48.9737 48.602 46.7079 48.602 43.9161C48.602 41.1243 47.0914 38.8586 45.2303 38.8586C43.3691 38.8586 41.8586 41.1243 41.8586 43.9161C41.8586 46.7079 43.3691 48.9737 45.2303 48.9737ZM38.6623 62.8968C38.7781 63.3287 39.0606 63.6969 39.4478 63.9205C39.835 64.144 40.2951 64.2046 40.727 64.0889C41.1589 63.9732 41.5271 63.6907 41.7507 63.3035C42.7861 61.5086 44.2762 60.0182 46.0709 58.9823C47.8656 57.9465 49.9015 57.4017 51.9737 57.403C54.0458 57.4017 56.0818 57.9465 57.8764 58.9823C59.6711 60.0182 61.1612 61.5086 62.1967 63.3035C62.4219 63.6875 62.7898 63.9669 63.2202 64.0807C63.6506 64.1945 64.1085 64.1334 64.494 63.9108C64.8796 63.6882 65.1614 63.3222 65.278 62.8926C65.3947 62.4629 65.3366 62.0046 65.1166 61.6176C63.7847 59.3106 61.8688 57.395 59.5617 56.0633C57.2546 54.7315 54.6376 54.0307 51.9737 54.0312C49.3097 54.03 46.6924 54.7306 44.3851 56.0624C42.0779 57.3941 40.1622 59.3102 38.8308 61.6176C38.6072 62.0048 38.5466 62.465 38.6623 62.8968ZM55.3454 43.9161C55.3454 46.7079 56.8559 48.9737 58.7171 48.9737C60.5783 48.9737 62.0888 46.7079 62.0888 43.9161C62.0888 41.1243 60.5783 38.8586 58.7171 38.8586C56.8559 38.8586 55.3454 41.1243 55.3454 43.9161Z" fill="#3EAAAF" fill-opacity="0.5"/>
</g>
<circle opacity="0.7" cx="70.9474" cy="30" r="5" fill="#3EAAAF" fill-opacity="0.5"/>
<path fill-rule="evenodd" clip-rule="evenodd" d="M145.872 57.1005C145.617 56.9984 145.337 56.9734 145.068 57.0286C144.799 57.0838 144.552 57.2167 144.358 57.4109C144.164 57.6051 144.031 57.852 143.976 58.121C143.921 58.39 143.946 58.6693 144.048 58.9242L149.659 72.9529C149.76 73.204 149.931 73.4207 150.152 73.5769C150.372 73.733 150.634 73.822 150.904 73.8331C151.174 73.8443 151.442 73.777 151.675 73.6395C151.908 73.502 152.096 73.3001 152.217 73.0582L154.153 69.1876L158.387 73.4243C158.65 73.6874 159.007 73.8351 159.379 73.8349C159.751 73.8348 160.108 73.6869 160.371 73.4236C160.634 73.1604 160.782 72.8034 160.782 72.4313C160.781 72.0591 160.633 71.7023 160.37 71.4392L156.135 67.2026L160.007 65.268C160.248 65.1469 160.45 64.9586 160.587 64.7258C160.724 64.4929 160.791 64.2255 160.78 63.9555C160.768 63.6856 160.679 63.4246 160.523 63.204C160.367 62.9834 160.151 62.8126 159.9 62.712L145.872 57.1005Z" fill="#3EAAAF" fill-opacity="0.5"/>
<defs>
<clipPath id="clip0_2_44">
<rect width="53.9474" height="53.9474" fill="white" transform="translate(25 22)"/>
</clipPath>
</defs>
</svg>
