<svg viewBox="0 0 250 100" fill="none" xmlns="http://www.w3.org/2000/svg">
<rect width="250" height="100" rx="13.1579" fill="#3EAAAF" fill-opacity="0.08"/>
<rect opacity="0.6" x="85.8947" y="28.579" width="138.158" height="14.4737" rx="6.57895" fill="#3EAAAF" fill-opacity="0.5"/>
<rect opacity="0.3" x="85.8947" y="54.8948" width="46.0526" height="14.4737" rx="6.57895" fill="#3EAAAF" fill-opacity="0.5"/>
<g clip-path="url(#clip0_2_27)">
<path d="M52.5 58C55.8152 58 58.9946 56.683 61.3388 54.3388C63.683 51.9946 65 48.8152 65 45.5C65 42.1848 63.683 39.0054 61.3388 36.6612C58.9946 34.317 55.8152 33 52.5 33C49.1848 33 46.0054 34.317 43.6612 36.6612C41.317 39.0054 40 42.1848 40 45.5C40 48.8152 41.317 51.9946 43.6612 54.3388C46.0054 56.683 49.1848 58 52.5 58V58ZM50.9375 43.1562C50.9375 44.45 50.2375 45.5 49.375 45.5C48.5125 45.5 47.8125 44.45 47.8125 43.1562C47.8125 41.8625 48.5125 40.8125 49.375 40.8125C50.2375 40.8125 50.9375 41.8625 50.9375 43.1562ZM46.6953 52.4266C46.5159 52.323 46.385 52.1523 46.3313 51.9522C46.2777 51.7521 46.3058 51.5388 46.4094 51.3594C47.0264 50.2901 47.9141 49.4022 48.9833 48.785C50.0526 48.1678 51.2655 47.8432 52.5 47.8438C53.7345 47.8435 54.9473 48.1683 56.0164 48.7854C57.0856 49.4025 57.9734 50.2903 58.5906 51.3594C58.6926 51.5387 58.7195 51.7511 58.6654 51.9502C58.6114 52.1493 58.4808 52.3189 58.3021 52.4221C58.1234 52.5252 57.9112 52.5535 57.7118 52.5008C57.5123 52.4481 57.3418 52.3186 57.2375 52.1406C56.7576 51.3088 56.0671 50.6182 55.2354 50.1381C54.4037 49.6581 53.4603 49.4057 52.5 49.4062C51.5397 49.4057 50.5963 49.6581 49.7646 50.1381C48.9329 50.6182 48.2424 51.3088 47.7625 52.1406C47.6589 52.3201 47.4883 52.451 47.2881 52.5046C47.088 52.5582 46.8747 52.5302 46.6953 52.4266ZM55.625 45.5C54.7625 45.5 54.0625 44.45 54.0625 43.1562C54.0625 41.8625 54.7625 40.8125 55.625 40.8125C56.4875 40.8125 57.1875 41.8625 57.1875 43.1562C57.1875 44.45 56.4875 45.5 55.625 45.5Z" fill="#3EAAAF" fill-opacity="0.5"/>
</g>
<path d="M31.875 28.875C31.875 27.0516 32.5993 25.303 33.8886 24.0136C35.178 22.7243 36.9266 22 38.75 22H66.25C68.0734 22 69.822 22.7243 71.1114 24.0136C72.4007 25.303 73.125 27.0516 73.125 28.875V75.2812C73.1248 75.5921 73.0404 75.8972 72.8805 76.1639C72.7207 76.4305 72.4916 76.6489 72.2175 76.7956C71.9434 76.9424 71.6347 77.012 71.3241 76.9971C71.0136 76.9823 70.7129 76.8835 70.4541 76.7113L52.5 67.0347L34.5459 76.7113C34.2871 76.8835 33.9864 76.9823 33.6759 76.9971C33.3653 77.012 33.0566 76.9424 32.7825 76.7956C32.5084 76.6489 32.2793 76.4305 32.1195 76.1639C31.9596 75.8972 31.8752 75.5921 31.875 75.2812V28.875ZM38.75 25.4375C37.8383 25.4375 36.964 25.7997 36.3193 26.4443C35.6747 27.089 35.3125 27.9633 35.3125 28.875V72.0706L51.5478 63.5387C51.8299 63.351 52.1612 63.2509 52.5 63.2509C52.8388 63.2509 53.1701 63.351 53.4522 63.5387L69.6875 72.0706V28.875C69.6875 27.9633 69.3253 27.089 68.6807 26.4443C68.036 25.7997 67.1617 25.4375 66.25 25.4375H38.75Z" fill="#3EAAAF" fill-opacity="0.5"/>
<defs>
<clipPath id="clip0_2_27">
<rect width="25" height="25" fill="white" transform="translate(40 33)"/>
</clipPath>
</defs>
</svg>
