<svg width="210" height="200" viewBox="0 0 210 200" fill="none" xmlns="http://www.w3.org/2000/svg">
<rect width="210" height="200" fill="white"/>
<ellipse opacity="0.1" cx="113.196" cy="98.5413" rx="90.6724" ry="85.8823" fill="url(#paint0_linear_723_325)"/>
<ellipse opacity="0.45" cx="113.196" cy="87.3113" rx="68.533" ry="59.682" fill="#EFDBBB" fill-opacity="0.72"/>
<g clip-path="url(#clip0_723_325)">
<path d="M172.058 54.9577L165.618 98.6155C165.392 100.135 166.412 101.563 167.931 101.846L170.266 102.277C171.922 102.583 173.486 101.404 173.645 99.7265L177.76 55.6379C177.919 53.9601 176.592 52.509 174.903 52.509C173.486 52.509 172.273 53.552 172.069 54.9577H172.058Z" fill="white"/>
<path d="M172.636 55.0371C171.173 65.8523 168.146 88.231 166.627 98.7969C166.502 99.7151 167.16 100.645 168.067 100.815C168.577 100.917 169.983 101.166 170.516 101.257C171.411 101.427 172.375 100.792 172.568 99.8852C172.658 99.4657 172.76 97.9579 172.817 97.4931L173.146 94.1148C174.098 84.3992 175.617 70.0469 176.626 60.2973C176.717 59.2997 177.068 56.2841 177.136 55.2978C177.068 52.5657 173.044 52.2823 172.636 55.0257V55.0371ZM171.479 54.867C172.159 50.7858 178.168 51.0919 178.372 55.2751C178.157 58.7328 177.136 70.3303 176.864 73.9808C176.49 78.4701 175.538 89.9655 175.141 94.3075C175.039 95.3845 174.778 98.3321 174.688 99.3864C174.722 101.71 172.534 103.74 170.198 103.32C169.11 103.071 167.534 102.98 166.548 102.425C165.187 101.676 164.371 100.078 164.587 98.5474L165.097 95.1578C166.4 86.6212 170.062 63.6757 171.468 54.867H171.479Z" fill="#231F20"/>
<path d="M177.623 57.0777C191.729 57.0777 203.165 45.6423 203.165 31.536C203.165 17.4297 191.729 5.99435 177.623 5.99435C163.517 5.99435 152.082 17.4297 152.082 31.536C152.082 45.6423 163.517 57.0777 177.623 57.0777Z" fill="white"/>
<path d="M202.452 31.536C202.35 14.1908 184.211 2.43462 168.362 9.19131C152.547 15.6873 148.239 36.6829 160.279 48.8812C175.674 64.6506 202.712 53.7107 202.463 31.536H202.452ZM203.857 31.536C203.427 54.7536 175.663 66.5212 158.839 50.3096C141.823 33.6333 153.76 4.57726 177.624 4.71331C191.965 4.65662 204.265 17.2517 203.869 31.536H203.857Z" fill="#231F20"/>
<path d="M177.919 53.79C190.322 53.79 200.377 43.7352 200.377 31.332C200.377 18.9287 190.322 8.87389 177.919 8.87389C165.515 8.87389 155.46 18.9287 155.46 31.332C155.46 43.7352 165.515 53.79 177.919 53.79Z" fill="white"/>
<path d="M200.308 31.332C200.002 11.6627 176.365 2.0265 162.444 15.846C153.941 24.0651 153.85 38.6328 162.262 46.988C176.206 61.1816 200.365 51.2393 200.308 31.332ZM200.444 31.332C200.274 51.2959 176.15 61.3516 161.82 47.4301C152.83 38.9956 152.739 23.6343 161.639 15.0637C176.036 0.768126 200.592 11.0959 200.433 31.332H200.444Z" fill="#231F20"/>
<path d="M88.2675 165.23C111.145 191.305 87.2245 193.22 87.2245 193.22C87.2245 193.22 49.2691 196.724 48.7477 188.142C48.2262 179.56 63.8255 166.352 63.8255 166.352" fill="white"/>
<path d="M88.6988 164.856C97.0426 173.812 106.838 189.819 88.6308 193.912C78.7678 195.012 68.7915 195.306 58.8832 194.252C55.0967 193.572 49.8138 193.209 47.9546 189.185C46.4695 181.022 57.7155 170.717 63.4746 165.933L64.2115 166.795C62.647 168.28 61.0939 169.81 59.6314 171.409C56.2644 175.116 48.2267 183.89 50.1086 189.037C52.2966 191.452 56.015 191.758 59.1553 192.302C67.7372 193.357 76.5232 192.994 85.1617 192.484C95.6822 192.087 100.455 185.999 95.2741 176.204C93.3015 172.406 90.6827 168.903 87.8599 165.604L88.7101 164.856H88.6988Z" fill="#231F20"/>
<path d="M112.188 160.707C112.188 160.707 133.478 167.271 142.298 176.714C146.232 180.931 144.645 187.643 139.181 189.808C129.953 193.459 111.213 198.027 83.4495 191.486C83.4495 191.486 73.8699 186.52 89.5373 165.411" fill="white"/>
<path d="M112.358 160.174C121.122 162.6 145.688 171.102 145.938 181.782C146.187 187.563 141.868 190.964 136.698 192.279C128.037 195.136 118.934 196.213 109.91 196.157C100.795 196.077 91.7142 194.683 82.9509 192.472C74.2443 185.75 84.266 171.409 89.0954 165.071L90.0024 165.752C87.3042 169.731 84.6741 173.835 82.9736 178.324C81.6019 182.212 80.2755 187.654 83.9712 190.511C91.2041 192.03 101.543 193.527 109.921 193.413C118.696 193.413 127.504 192.28 135.757 189.491C137.639 188.81 139.646 188.289 141.052 186.827C143.024 184.922 143.591 181.725 142.333 179.288C140.859 176.669 138.07 174.776 135.644 172.95C128.411 168.019 120.203 164.391 112.03 161.251L112.358 160.163V160.174Z" fill="#231F20"/>
<path d="M115.952 140.55L112.189 160.707L88.2681 165.219L91.2836 148.985C91.2836 148.985 104.65 147.93 115.952 140.539V140.55Z" fill="white" stroke="#231F20" stroke-width="1.13367" stroke-miterlimit="10"/>
<path d="M67.6007 148.69L63.8369 166.364L88.2676 165.23L91.2831 148.996C91.2831 148.996 82.7919 150.549 67.5894 148.69H67.6007Z" fill="white" stroke="#231F20" stroke-width="1.13367" stroke-miterlimit="10"/>
<path d="M124.273 80.8848L118.435 59.9459C115.997 51.2053 110.794 43.5189 103.538 38.4174C94.6731 32.1936 80.8989 27.3188 61.3657 32.9645C56.1509 34.4722 51.1967 36.8529 46.8321 40.0726C37.8307 46.7046 25.0769 60.1159 31.7429 79.7851C31.7429 79.7851 46.2539 127.671 49.893 141.672C50.5278 144.098 52.2964 146.026 54.5977 146.774C67.2835 150.889 108.028 160.457 131.903 123.624C133.025 121.901 133.388 119.758 132.912 117.729L124.273 80.8621V80.8848Z" fill="white"/>
<path d="M123.616 81.0548L117.324 59.6398C115.181 52.6904 111.145 46.3191 105.624 41.7051C94.401 32.2502 78.711 30.323 64.8122 34.1208C46.5827 38.3834 28.2625 55.8533 33.0013 75.7379C33.4208 77.2797 34.0556 79.4564 34.5091 80.9528C40.3475 100.475 46.1859 120.405 51.3555 140.131C52.081 144.076 54.133 145.039 57.7494 145.98C63.0096 147.533 68.4059 148.667 73.8702 149.234C92.0883 151.399 111.338 146.139 124.058 132.456C126.575 129.769 128.91 126.912 130.973 123.851C132.368 122.082 132.833 119.883 132.322 117.741C132.118 116.924 131.597 114.51 131.381 113.659C128.933 103.093 126.212 91.5187 123.616 81.0548ZM124.942 80.7147C127.323 91.2239 129.919 102.867 132.47 113.399C132.628 114.215 133.263 116.664 133.445 117.48C134.102 119.872 133.535 122.661 132.05 124.577C130.021 127.74 127.686 130.71 125.169 133.521C112.37 147.885 92.4284 153.848 73.5981 152.147C67.9298 151.717 62.3067 150.719 56.8084 149.234C52.0583 148.214 48.8841 146.037 47.8297 141.072C42.15 121.289 34.2483 96.5748 28.4439 76.7922C22.9003 54.4249 43.193 34.4269 63.8599 30.2776C78.7337 26.5819 95.7048 29.246 107.302 39.7551C113.05 44.9247 117.143 51.7381 119.183 59.0843L124.931 80.7147H124.942Z" fill="#231F20"/>
<path d="M106.5 88.5L98 59C106.8 51.4001 111 47.5 112 46.5C117.2 52.5 121.5 69.6667 123 77.5C116.6 83.5 109.333 87.3334 106.5 88.5Z" fill="#5BC3C8"/>
<path d="M163.226 65.5009C163.226 65.5009 174.97 58.6195 181.206 69.276C187.441 79.9326 172.034 85.2608 172.034 85.2608" fill="white"/>
<path d="M162.931 65.0134C169.903 61.1362 177.998 61.8164 182.034 69.344C186.591 77.0303 179.018 83.5716 172.216 85.805L171.842 84.7393C179.313 81.7804 185.639 75.6359 179.426 67.9156C175.447 62.8367 168.815 63.2562 163.509 65.9997L162.931 65.0247V65.0134Z" fill="#231F20"/>
<path d="M162.886 96.7109L119.67 104.227C119.67 104.227 97.5412 106.778 113.866 89.8182C126.439 76.7582 143.58 68.7885 150.801 65.8183C154.168 64.4352 157.875 64.0611 161.412 64.934C167.5 66.4418 174.699 71.6114 171.06 88.3671C171.06 88.3671 169.631 95.5432 162.897 96.7222L162.886 96.7109Z" fill="white"/>
<path d="M163.045 97.6179C149.395 99.7945 135.734 101.903 122.142 104.431C117.868 105.281 108.9 106.052 107.245 100.815C106.384 95.6679 112.018 90.5211 115.192 87.1314C122.663 79.7738 131.427 73.7994 140.711 68.9813C147.083 65.8977 153.794 61.6577 161.185 63.3923C166.831 64.4239 171.683 68.9473 172.726 74.6383C173.576 78.1073 173.282 81.9278 172.76 85.4082L172.239 88.0043C171.388 92.573 167.817 96.9263 163.045 97.6065V97.6179ZM162.727 95.8153C166.706 95.1124 169.461 91.4507 170.085 87.5848C170.345 86.2358 170.64 83.9458 170.742 82.5854C171.309 75.0464 168.781 67.8476 160.585 66.2264C153.953 64.7867 147.774 68.7432 141.947 71.4073C135.848 74.4909 129.941 77.9826 124.42 82.0185C118.197 86.6439 97.2803 103.547 116.904 103.706C118.627 103.762 120.248 103.524 121.96 103.207C135.587 101.008 149.157 98.3774 162.727 95.8153Z" fill="#231F20"/>
<path d="M123.231 77.155C123.231 77.155 90.9891 106.2 39.4297 105.474" stroke="#231F20" stroke-width="1.13367" stroke-miterlimit="10"/>
<path d="M112.098 46.6026C107.733 52.8264 101.441 57.2818 95.1151 61.2836C82.384 69.1967 67.7596 73.9354 52.8858 75.5679L50.1083 75.9307L47.3081 76.0667C45.4376 76.1234 40.7555 76.4748 38.919 76.3388C37.0484 76.2934 32.4344 76.1461 30.5298 76.1007L30.5865 74.9671C32.5024 74.9784 37.0711 74.9897 38.8963 75.0011C40.6875 75.0918 45.3129 74.6496 47.1834 74.5363L49.9383 74.3435L52.6704 73.9467C68.1451 72.0195 83.3136 66.6912 96.3395 58.0867C98.5162 56.5789 100.92 54.8444 102.96 53.1665C105.772 50.8198 108.538 48.4051 111.179 45.911L112.075 46.6139L112.098 46.6026Z" fill="#231F20"/>
<path d="M66.3427 31.1505C76.7839 29.2006 98.335 28.8492 83.7219 44.029C83.4272 44.4032 82.8603 44.868 82.4862 45.1741C81.2392 46.2397 79.8448 47.3507 78.4503 48.1783C68.0092 54.5382 55.6635 56.8396 43.6012 57.4404C40.1095 57.4857 34.9853 55.8192 36.4704 51.3072C37.2527 48.9945 38.7605 47.2827 40.2569 45.6502C43.3178 42.4306 46.7869 39.7324 50.3012 37.1136L50.9815 38.0206C47.5578 40.6734 44.1681 43.4282 41.2885 46.5911C27.1516 61.9978 59.5407 53.994 65.8439 51.9874C71.4443 50.1622 76.8519 47.6568 81.3185 43.825C85.0597 40.458 91.0114 33.962 82.5316 32.2729C77.294 31.2412 71.841 31.672 66.5241 32.2729L66.3427 31.1505Z" fill="#231F20"/>
<path d="M64.2793 41.5463C65.5377 40.7641 65.8438 39.0863 64.9255 37.9186C58.0555 29.1666 32.2531 6.84461 6.74542 38.3607C4.64812 40.9455 3.61648 44.2898 2.85692 47.5888C1.32646 54.1868 1.73458 62.9954 18.2635 55.808C23.025 53.7333 27.2195 50.3436 30.3031 45.9223C35.0306 39.1543 43.7145 29.2347 50.9473 34.9597L60.1074 42.2152C60.9237 42.8614 62.0573 42.9294 62.9529 42.3739L64.2907 41.5463H64.2793Z" fill="white"/>
<path d="M63.9391 41.0022C64.812 40.5147 65.1295 39.2903 64.5966 38.4287C64.4266 38.1567 64.0978 37.7825 63.8598 37.4538C62.7714 36.1387 61.5697 34.9143 60.3 33.7693C52.8745 27.0807 42.8868 22.2172 32.7404 23.5436C22.7188 24.802 14.613 31.8648 8.53651 39.5851C6.00841 42.8614 4.57999 48.3597 4.60266 52.679C4.84073 55.7059 6.25782 56.3068 9.16003 56.1254C15.3612 55.2524 21.6418 52.3616 26.1084 47.8722C30.8018 42.7027 34.6223 36.3201 41.243 33.2138C43.7711 31.9328 47.1607 31.5247 49.8135 32.9531C51.5254 33.8034 54.5863 36.7169 56.1168 37.9186C56.6949 38.3607 60.3907 41.5917 60.9802 41.8751C62.0005 42.4079 63.0775 41.467 63.9391 40.9908V41.0022ZM64.608 42.0792C64.1205 42.4079 63.4063 42.8954 62.8735 43.1675C61.6151 43.7683 60.164 43.3375 59.1663 42.4419C56.831 40.6847 52.6704 37.5558 50.335 35.8326C49.4848 35.2771 48.8159 34.9143 47.8296 34.6196L46.764 34.4836C43.6804 34.4382 40.8802 36.4788 38.6582 38.5875C34.7924 42.0565 32.4343 46.7726 29.0333 50.6611C25.3375 54.833 20.3834 57.7012 15.1458 59.4697C0.147326 64.6393 -2.72087 54.0167 2.22195 41.8978C4.26256 36.7622 8.70656 32.9077 12.7764 29.2687C24.646 19.213 39.7012 17.9546 52.8178 26.4345C57.3071 29.2233 61.2523 32.7604 64.6873 36.7509C66.3198 38.2473 66.6486 40.7074 64.608 42.0678V42.0792Z" fill="#231F20"/>
<path d="M97.6211 58.4834L106.577 88.4804" stroke="#231F20" stroke-width="1.13367" stroke-miterlimit="10"/>
<circle cx="179" cy="30" r="20" fill="white"/>
</g>
<defs>
<linearGradient id="paint0_linear_723_325" x1="113.196" y1="12.659" x2="113.196" y2="184.424" gradientUnits="userSpaceOnUse">
<stop stop-color="#009490"/>
<stop offset="1" stop-color="#009490" stop-opacity="0"/>
</linearGradient>
<clipPath id="clip0_723_325">
<rect width="203.868" height="191.443" fill="white" transform="translate(0 4.71332)"/>
</clipPath>
</defs>
</svg>
