<svg width="210" height="160" viewBox="0 0 210 160" fill="none" xmlns="http://www.w3.org/2000/svg">
<rect x="13" y="7.86084" width="88.2438" height="80.702" rx="4" fill="#FDF9F3"/>
<rect x="103.398" y="31.9722" width="88.2438" height="80.702" rx="40.351" fill="#E4EDF6"/>
<g clip-path="url(#clip0_299_2)">
<path d="M198.247 49.1014H55.7612V137.451H198.247V49.1014Z" fill="white"/>
<path d="M198.298 137.51C198.084 137.51 55.7384 137.665 55.539 137.665C55.539 137.104 55.4873 49.3895 55.4873 48.8356C96.0141 48.7322 158.17 48.3187 198.239 48.3925H198.948V49.1015C198.889 77.2664 198.446 109.426 198.298 137.51ZM198.18 137.392C198.129 116.996 197.759 91.5851 197.619 71.0707L197.53 49.1015L198.239 49.8104C158.451 49.8104 95.9919 49.5519 55.7532 49.3673C56.2405 47.4695 56.1593 138.876 55.7532 137.237C55.7605 137.237 198.18 137.392 198.18 137.392Z" fill="black"/>
<path d="M72.5015 81.7046V63.9593H97.8972" fill="white"/>
<path d="M72.3391 81.7045C72.1766 76.5796 72.1692 69.1581 72.1323 63.9593V63.5901H72.5016C79.9822 63.6196 90.52 63.6344 97.8972 63.7969V64.1218C90.5643 64.2695 79.9452 64.3064 72.5016 64.3285L72.8708 63.9593L72.8191 72.8356C72.7896 75.7969 72.7379 78.7507 72.664 81.7119C72.664 81.7046 72.3391 81.7045 72.3391 81.7045Z" fill="black"/>
<path d="M159.596 63.9593H184.991V81.7046" fill="white"/>
<path d="M159.596 63.7821C166.929 63.6344 177.548 63.6196 184.991 63.5901H185.361V63.9593L185.316 72.8356C185.294 75.7969 185.242 78.7507 185.169 81.7119H184.814C184.681 76.587 184.637 69.1655 184.622 63.9667L184.991 64.3359L172.297 64.2916C168.066 64.2695 163.834 64.2178 159.603 64.1439C159.596 64.1365 159.596 63.7821 159.596 63.7821Z" fill="black"/>
<path d="M95.3566 133.316H69.9609V115.57" fill="white"/>
<path d="M95.3568 133.471C88.0239 133.869 77.4048 133.604 69.9611 133.641H69.6362V133.316L69.6953 124.439L69.8061 115.563H70.1088L70.2196 124.439L70.2787 133.316L69.9538 132.991C74.4067 132.976 84.6861 132.924 88.9987 132.969C91.1181 132.983 93.2301 133.05 95.3495 133.161C95.3568 133.161 95.3568 133.471 95.3568 133.471Z" fill="black"/>
<path d="M185.198 115.57V133.316H159.802" fill="white"/>
<path d="M185.316 115.57C185.493 121.323 185.545 127.585 185.567 133.316V133.685H185.198C182.03 133.677 175.664 133.655 172.504 133.633C169.343 133.611 162.963 133.515 159.81 133.441V133.197C162.978 133.124 169.336 133.028 172.504 133.005C175.672 132.983 182.037 132.961 185.198 132.954L184.829 133.323C184.851 129.047 184.873 124.306 184.954 120.009L185.072 115.57H185.316Z" fill="black"/>
<path d="M115.03 87.3021H121.417" stroke="black" stroke-width="0.738462" stroke-miterlimit="10"/>
<path d="M114.815 94.251L114.66 87.3021H115.399L115.244 94.251H114.815Z" fill="black"/>
<path d="M143.328 87.3021V94.251" stroke="black" stroke-width="0.738462" stroke-miterlimit="10"/>
<path d="M136.939 86.9329L143.327 87.1175V87.4867L136.939 87.6713V86.9329Z" fill="black"/>
<path d="M115.03 114.448V107.499" stroke="black" stroke-width="0.738462" stroke-miterlimit="10"/>
<path d="M121.417 114.802L115.03 114.817V114.079L121.417 114.093V114.802Z" fill="black"/>
<path d="M143.379 114.448H136.991" stroke="black" stroke-width="0.738462" stroke-miterlimit="10"/>
<path d="M143.571 107.499L143.748 114.448H143.01L143.194 107.499H143.571Z" fill="black"/>
<path d="M160.637 72.8356C162.167 72.8356 163.407 71.5958 163.407 70.0664C163.407 68.537 162.167 67.2971 160.637 67.2971C159.108 67.2971 157.868 68.537 157.868 70.0664C157.868 71.5958 159.108 72.8356 160.637 72.8356Z" fill="#FAE3E3"/>
<path d="M163.221 70.0664C163.221 66.699 158.237 66.7211 158.222 70.0664C158.377 73.2713 163.029 73.2935 163.221 70.0664ZM163.591 70.0664C163.561 74.1575 157.594 74.1722 157.521 70.0664C157.72 66.1008 163.384 66.123 163.591 70.0664Z" fill="black"/>
<path d="M89.907 67.2971H79.9229C78.6011 67.2971 77.5229 68.3679 77.5229 69.6971C77.5229 71.019 78.5937 72.0971 79.9229 72.0971H89.907C91.2288 72.0971 92.307 71.0264 92.307 69.6971C92.2996 68.3679 91.2288 67.2971 89.907 67.2971Z" fill="#EFF7FC"/>
<path d="M89.9067 67.4301C86.6279 67.4449 83.3344 67.4965 80.0556 67.5704C78.3276 67.4596 77.1977 69.6233 78.3054 70.9452C78.6894 71.4399 79.3024 71.7279 79.9227 71.7279C83.2014 71.7427 86.495 71.7944 89.7737 71.8682C92.8162 71.979 92.927 67.5409 89.9067 67.4301ZM89.9067 67.1643C93.3774 67.2603 93.2224 72.3335 89.7737 72.3187C86.495 72.3925 83.2014 72.4442 79.9227 72.459C79.0808 72.4516 78.2464 72.0455 77.7516 71.3735C76.3264 69.6012 77.8033 66.8319 80.0556 67.0239L81.1485 67.0461C84.0654 67.1199 86.9824 67.1495 89.9067 67.1643Z" fill="black"/>
<path d="M167.161 72.0309V66.4108H169.06C169.499 66.4108 169.86 66.4858 170.141 66.6358C170.423 66.784 170.632 66.988 170.767 67.2478C170.902 67.5076 170.97 67.803 170.97 68.1342C170.97 68.4653 170.902 68.7589 170.767 69.0151C170.632 69.2712 170.424 69.4724 170.144 69.6188C169.864 69.7633 169.506 69.8356 169.071 69.8356H167.534V69.2209H169.049C169.349 69.2209 169.591 69.177 169.774 69.0891C169.958 69.0013 170.092 68.8769 170.174 68.7159C170.258 68.5531 170.3 68.3592 170.3 68.1342C170.3 67.9091 170.258 67.7125 170.174 67.5442C170.09 67.3758 169.956 67.246 169.771 67.1545C169.586 67.0612 169.342 67.0145 169.038 67.0145H167.842V72.0309H167.161ZM169.806 69.5063L171.19 72.0309H170.399L169.038 69.5063H169.806ZM172.104 72.0309V66.4108H175.496V67.0145H172.785V68.9135H175.32V69.5172H172.785V71.4272H175.54V72.0309H172.104ZM181.245 68.1671H180.564C180.524 67.9713 180.454 67.7994 180.353 67.6512C180.254 67.503 180.134 67.3786 179.991 67.278C179.85 67.1755 179.694 67.0987 179.522 67.0475C179.35 66.9962 179.17 66.9706 178.984 66.9706C178.644 66.9706 178.335 67.0566 178.059 67.2286C177.785 67.4005 177.566 67.6539 177.403 67.9887C177.242 68.3235 177.162 68.7342 177.162 69.2209C177.162 69.7075 177.242 70.1182 177.403 70.453C177.566 70.7878 177.785 71.0412 178.059 71.2132C178.335 71.3851 178.644 71.4711 178.984 71.4711C179.17 71.4711 179.35 71.4455 179.522 71.3943C179.694 71.3431 179.85 71.2671 179.991 71.1665C180.134 71.0641 180.254 70.9387 180.353 70.7906C180.454 70.6405 180.524 70.4686 180.564 70.2746H181.245C181.194 70.5619 181.1 70.8189 180.965 71.0458C180.83 71.2726 180.661 71.4656 180.46 71.6248C180.259 71.7821 180.033 71.902 179.782 71.9843C179.534 72.0666 179.267 72.1078 178.984 72.1078C178.504 72.1078 178.078 71.9907 177.705 71.7565C177.332 71.5224 177.038 71.1894 176.824 70.7576C176.61 70.3259 176.503 69.8136 176.503 69.2209C176.503 68.6281 176.61 68.1159 176.824 67.6841C177.038 67.2524 177.332 66.9194 177.705 66.6852C178.078 66.451 178.504 66.334 178.984 66.334C179.267 66.334 179.534 66.3751 179.782 66.4574C180.033 66.5398 180.259 66.6605 180.46 66.8197C180.661 66.977 180.83 67.1691 180.965 67.396C181.1 67.621 181.194 67.878 181.245 68.1671Z" fill="white"/>
<path d="M63.1377 59.2332C104.24 58.6941 151.657 59.2406 192.871 59.2332V59.5359C163.975 59.6689 124.467 59.691 95.5709 59.7279L79.3543 59.7501C73.9488 59.7575 68.5432 59.7796 63.1377 59.5359V59.2332Z" fill="black"/>
<path d="M65.7594 56.7408C67.443 56.7408 67.443 54.1267 65.7594 54.1267C64.0757 54.1193 64.0757 56.7408 65.7594 56.7408Z" fill="#F0C3BA"/>
<path d="M71.2847 56.7408C72.9684 56.7408 72.9684 54.1267 71.2847 54.1267C69.601 54.1193 69.601 56.7408 71.2847 56.7408Z" fill="#E9CC9E"/>
<path d="M76.8129 56.7408C78.4966 56.7408 78.4966 54.1267 76.8129 54.1267C75.1292 54.1267 75.1218 56.7408 76.8129 56.7408Z" fill="#71BCBE"/>
<path d="M128.373 106.465C131.338 106.465 133.742 104.062 133.742 101.097C133.742 98.1315 131.338 95.7279 128.373 95.7279C125.408 95.7279 123.005 98.1315 123.005 101.097C123.005 104.062 125.408 106.465 128.373 106.465Z" fill="white"/>
<path d="M133.388 101.097C133.506 96.6436 127.871 94.2805 124.748 97.4707C122.732 99.3612 122.761 102.832 124.762 104.715C127.886 107.883 133.439 105.52 133.388 101.097ZM134.111 101.097C134.17 106.103 127.864 108.651 124.401 105.077C122.244 102.98 122.266 99.2356 124.415 97.131C127.886 93.5642 134.104 96.1119 134.111 101.097Z" fill="black"/>
<path d="M133.964 95.9421L123.271 106.724L122.747 106.207L133.528 95.5064L133.964 95.9421Z" fill="black"/>
</g>
<g clip-path="url(#clip1_299_2)">
<path d="M49.6948 69.5582C49.6948 69.5582 27.5096 74.2763 27.978 93.1622C28.3378 107.561 31.9901 126.352 33.7076 134.464C34.6376 138.863 37.387 142.733 41.372 144.803C43.5443 145.93 46.1851 146.609 49.24 146.113C49.5387 146.066 49.8306 146.018 50.1293 145.984C53.2317 145.638 71.9207 143.513 77.5417 141.782C77.5417 141.782 88.3967 139.42 84.147 112.517L79.7819 90.0191C77.8879 80.2638 70.7056 72.2193 61.0861 69.7347C57.6578 68.8522 53.8223 68.6146 49.688 69.5582H49.6948Z" fill="white"/>
<path d="M49.7222 69.6872C38.1951 72.5656 27.2723 80.9834 28.2498 93.9565C28.7522 105.803 30.7005 117.554 32.9543 129.183C33.511 131.382 33.8844 134.749 34.7533 136.82C37.0071 142.936 43.6532 147.179 50.1567 145.652C59.267 144.518 68.581 143.71 77.4944 141.511C86.1295 137.96 85.2742 122.401 84.2287 114.696C83.7535 110.718 81.7102 101.166 80.9906 97.0928C80.2234 93.7121 79.6668 88.6817 78.3294 85.4979C74.2563 74.2084 61.5344 66.7681 49.7358 69.694L49.7222 69.6872ZM49.6679 69.4292C61.6294 66.5373 74.3649 74.0115 78.5874 85.3893C79.9587 88.5731 80.5561 93.6171 81.3232 97.0182C83.3801 108.328 87.0935 121.057 84.4527 132.523C83.5227 136.358 81.6219 140.594 77.603 142.047C70.0269 143.995 61.9757 144.79 54.1552 145.828L50.2246 146.29C48.9211 146.487 47.5498 146.697 46.2261 146.561C40.7544 146.141 36.0499 142.081 34.1491 137.051C33.3005 134.885 32.8525 131.579 32.3433 129.298C30.2389 118.28 28.4399 107.167 27.8425 95.9523L27.7746 93.9701C27.5642 89.9851 28.372 85.9052 30.3814 82.4362C34.441 75.4847 42.0579 71.3572 49.6679 69.4292Z" fill="#231F20"/>
<path d="M51.216 69.2595C51.216 69.2595 50.958 68.8115 50.4964 68.0715C44.7464 58.8797 34.0815 53.7883 23.3759 55.499C20.674 55.9335 18.1962 56.7549 16.5533 58.2009C15.182 59.4092 14.4828 61.2693 14.9716 63.0343C15.5961 65.2678 18.1215 67.9221 27.1843 66.2725C27.2657 66.2589 27.3472 66.2386 27.4287 66.225C28.6914 65.9399 40.4017 63.3398 44.407 65.3425L49.6885 69.5582L51.2092 69.2595H51.216Z" fill="white"/>
<path d="M51.0324 69.178C49.8852 67.637 48.8737 65.9331 47.5363 64.5346C44.624 61.2761 40.897 58.7371 36.8239 57.1758C30.9517 55.0577 24.0205 54.6708 18.2977 57.3998C13.0026 60.2306 14.7744 66.1028 20.6194 66.3879C23.7897 66.7002 26.9736 66.001 30.0692 65.3764C33.2463 64.7994 36.4505 64.3378 39.6887 64.3242C41.3111 64.3513 43.0151 64.4056 44.5697 65.1456L49.8173 69.3953C49.8376 69.4021 49.6544 69.3545 49.6544 69.3545C50.1092 69.2595 50.5437 69.2188 51.0257 69.1712L51.0324 69.178ZM51.399 69.3478C50.8424 69.5039 50.2314 69.6668 49.6408 69.7754L49.5661 69.7211L44.2574 65.5461C43.1033 65.0506 41.2025 64.8605 39.6955 64.8808C36.5048 64.908 33.3209 65.39 30.1846 65.9738C27.0075 66.6323 23.8305 67.3451 20.5583 67.0464C14.0616 66.7409 12.0997 59.993 17.999 56.8431C23.9119 54.0394 30.9924 54.4535 37.0275 56.653C43.0898 59.0087 48.446 63.5299 51.4058 69.3545L51.399 69.3478Z" fill="#231F20"/>
<path d="M81.5205 98.9393C81.5205 98.9393 96.5912 95.1377 98.1051 95.4432C98.1051 95.4432 104.303 94.3842 105.973 103.006C107.643 111.627 83.7675 110.507 83.7675 110.507L81.5205 98.9393Z" fill="white"/>
<path d="M81.3979 98.8646C81.6899 98.7085 81.8256 98.7289 82.0021 98.6678C82.3144 98.5931 83.2173 98.3487 83.5432 98.2672C84.833 97.9278 88.3834 97.0521 89.7208 96.7262C92.314 96.156 95.8509 95.1649 98.0504 95.1105C102.64 94.6353 105.484 98.6474 106.19 102.707C107.432 108.986 97.5616 109.957 93.2441 110.446C90.0466 110.718 86.8492 110.785 83.645 110.65L83.6246 110.534L81.3979 98.8646ZM81.6491 99.0208L83.9165 110.48C83.9165 110.48 83.774 110.358 83.7808 110.358C86.9239 110.453 90.0806 110.358 93.2101 110.052C97.0321 109.55 103.841 108.919 105.586 105.002C106.013 103.983 105.62 102.721 105.369 101.689C102.735 93.1758 96.4483 95.9591 89.8362 97.1946C88.4853 97.4933 84.9416 98.2808 83.6314 98.5931C83.3327 98.6678 82.3823 98.885 82.0836 98.9597C81.9207 98.9868 81.7034 99.0887 81.6559 99.0208H81.6491Z" fill="#231F20"/>
<path d="M29.139 107.615C29.139 107.615 15.4735 126.603 14.815 131.287C14.815 131.287 12.6494 139.759 21.1148 142.482C21.1148 142.482 28.4533 146.256 33.7077 134.464L29.139 107.615Z" fill="white"/>
<path d="M29.1055 107.758C29.1191 107.934 29.1055 107.907 29.0036 108.056L28.7593 108.409L28.2637 109.122C27.6595 109.998 25.9691 112.51 25.3514 113.433C22.7921 117.275 20.2531 121.152 17.9586 125.157C16.8656 127.126 15.664 129.142 15.1413 131.335C14.2248 135.252 15.7862 139.814 19.6082 141.524C21.3257 142.319 23.179 143.045 25.1409 142.651C28.5692 142.054 30.9859 139.121 32.6288 136.243L33.5724 134.403C33.5927 134.831 29.0987 107.656 29.0987 107.751L29.1055 107.758ZM29.1666 107.479C29.1734 107.527 33.8439 134.444 33.8507 134.485C33.8507 134.485 33.8303 134.518 33.8303 134.525L32.9275 136.412C31.2982 139.481 28.8407 142.536 25.236 143.215C23.1315 143.663 21.1696 142.95 19.3231 142.095C15.2363 140.268 13.4713 135.428 14.4828 131.212C15.698 126.888 18.6578 122.828 21.0745 118.939C22.9007 116.128 25.0187 113.094 26.9738 110.351C27.2725 109.95 28.1958 108.64 28.5013 108.24L28.7593 107.887L28.9018 107.69C28.9765 107.595 29.0851 107.527 29.1598 107.479H29.1666Z" fill="#231F20"/>
<path d="M103.495 97.6902C103.088 97.181 103.162 96.4411 103.665 96.0338C104.866 95.0562 107.195 93.7053 109.883 94.839C112.32 95.8708 113.148 98.7356 113.427 100.772C113.678 102.605 113.128 104.506 111.763 105.762C110.474 106.95 108.403 107.737 105.273 106.108C105.273 106.108 107.955 103.243 103.488 97.6834L103.495 97.6902Z" fill="white"/>
<path d="M103.257 97.8803C101.56 95.545 106.767 93.6985 108.512 94.1194C112.442 94.5742 114.119 99.2041 113.685 102.673C113.338 105.11 111.207 107.316 108.661 107.283C107.31 107.303 106.075 106.787 104.921 106.196C107.039 103.623 105.036 100.08 103.257 97.8803ZM103.733 97.5001C105.572 99.8694 107.521 103.467 105.45 106.271L105.389 105.911C107.364 106.997 109.978 107.255 111.648 105.517C114.771 102.687 112.856 95.1513 108.423 94.7847C107.33 94.6489 106.21 94.9001 105.212 95.4092C104.479 95.8437 103.013 96.4683 103.726 97.5001H103.733Z" fill="#231F20"/>
<path d="M15.3651 137.451C15.0188 136.691 14.0277 136.514 13.4371 137.112C12.1744 138.388 10.6334 140.696 11.5906 143.853C12.5953 147.172 16.5531 148.021 19.0852 148.211C20.7416 148.34 22.3777 147.77 23.5521 146.589C24.3803 145.754 25.1882 144.593 25.5073 143.065C25.5073 143.065 18.2299 143.737 15.3651 137.458V137.451Z" fill="white"/>
<path d="M15.114 137.56C13.7834 135.496 11.6315 140.038 11.6518 141.212C11.197 145.082 14.1636 147.193 17.6733 147.709C19.8525 148.204 22.2828 147.797 23.7423 145.964C24.4891 145.122 25.0458 144.111 25.2969 143.011L25.5345 143.276C21.3324 143.561 16.8791 141.531 15.1276 137.56H15.114ZM15.6096 137.336C17.2388 141.131 21.4953 143.072 25.4802 142.841L25.7789 142.828L25.7178 143.106C25.1612 146.086 22.4797 148.679 19.3365 148.53C4.99898 147.831 12.9213 132.801 15.6096 137.342V137.336Z" fill="#231F20"/>
<path d="M27.9717 95.4024C27.9717 95.4024 50.4216 73.6314 78.9542 86.8081Z" fill="white"/>
<path d="M27.8154 95.2395C31.0197 91.947 35.1064 89.5982 39.1524 87.4666C47.3531 83.3391 56.7553 81.4111 65.8996 82.667C70.4547 83.3051 74.8877 84.6764 79.0559 86.5976L78.8658 87.0117C74.7248 85.1448 70.3257 83.8211 65.8249 83.2305C54.5083 81.6962 42.9405 85.1381 33.5654 91.4786C31.651 92.7006 29.9471 94.2144 28.1345 95.5654L27.8154 95.2327V95.2395Z" fill="#231F20"/>
<path d="M29.75 111.2C29.75 111.2 54.3452 96.957 81.52 101.648Z" fill="white"/>
<path d="M29.6416 111.016C32.4385 109.129 35.6495 108.002 38.7383 106.685C43.9316 104.662 49.3761 103.053 54.8409 101.994C60.2379 100.881 66.0218 100.406 71.5341 100.46C73.4417 100.596 76.3541 100.664 78.2277 100.989L81.5541 101.444L81.4795 101.865L78.1666 101.444C66.0218 100.026 53.5783 102.089 42.0919 106.122C39.071 107.228 35.7378 108.559 32.8662 109.978C31.8615 110.453 30.8975 111.009 29.852 111.39L29.6416 111.023V111.016Z" fill="#231F20"/>
<path d="M68.8597 83.4545L70.1223 100.698C70.1223 100.698 55.6083 100.433 44.0065 105.124L38.3584 88.9872C38.3584 88.9872 48.6839 79.1777 68.8529 83.4545H68.8597Z" fill="#C8E2E2"/>
<path d="M68.9612 83.3662L70.2306 100.691V100.806C65.7705 100.793 61.2968 101.173 56.8774 101.852C52.4988 102.531 48.1744 103.603 44.047 105.226L43.9451 105.266L43.9112 105.164L38.0458 89.1026L37.9644 88.8854L38.1273 88.7428C46.6877 81.866 58.5882 81.0581 68.9612 83.3662ZM68.7575 83.5427C58.561 81.574 46.8778 82.3955 38.5957 89.2316L38.6839 88.8718L44.1081 105.09C44.1081 105.09 43.9655 105.029 43.9723 105.029C48.1133 103.399 52.458 102.327 56.8503 101.648C61.2425 100.969 65.6823 100.589 70.1288 100.596C70.1288 100.596 70.0202 100.704 70.027 100.704L68.7643 83.5427H68.7575Z" fill="#231F20"/>
<path d="M46.8301 146.276C46.8301 146.276 46.6808 149.739 48.344 149.589C48.344 149.589 56.212 149.413 59.8371 148.218C59.8371 148.218 60.9165 146.704 60.9029 144.667L46.8301 146.276Z" fill="white" stroke="#231F20" stroke-width="0.678862" stroke-miterlimit="10"/>
<path d="M63.0074 144.382C63.0074 144.382 62.5458 146.337 63.0074 147.132C63.469 147.926 72.6948 147.2 74.8128 146.276C74.8128 146.276 76.1773 145.367 76.0212 142.183L63.0006 144.382H63.0074Z" fill="white" stroke="#231F20" stroke-width="0.678862" stroke-miterlimit="10"/>
<path d="M74.8135 146.276C74.8135 146.276 88.2074 156.697 85.1389 159.419C82.0705 162.141 62.7976 161.388 62.7976 161.388C62.7976 161.388 57.8487 156.921 63.0013 147.132C63.0013 147.132 66.3345 147.96 74.8067 146.276H74.8135Z" fill="white"/>
<path d="M74.8946 145.95C75.0983 146.025 75.3359 146.276 75.5192 146.412C77.7051 148.279 88.2207 156.697 85.3355 159.596C84.6023 160.2 83.7538 160.424 82.9391 160.648C79.6331 161.415 76.2523 161.517 72.8852 161.632C69.5045 161.68 66.0626 161.741 62.7091 161.51C59.0636 157.464 60.6046 151.409 62.8856 147.071C62.9467 146.948 62.9059 146.962 63.0553 146.996C66.9384 147.512 71.0726 146.65 74.9014 145.957L74.8946 145.95ZM74.7385 146.609C71.8669 147.179 68.9003 147.519 65.9744 147.525C64.9765 147.512 63.9785 147.485 62.9738 147.274L63.1435 147.2C60.8015 151.544 59.5727 157.416 62.8109 161.238C67.8345 161.367 72.8784 161.361 77.8816 160.926C80.2508 160.614 82.9799 160.566 84.9893 159.209C87.1141 156.663 77.5558 148.985 75.5871 147.322C75.3223 147.125 74.9286 146.779 74.6706 146.589C74.6231 146.555 74.6774 146.602 74.7385 146.602V146.609Z" fill="#231F20"/>
<path d="M48.344 149.589C48.344 149.589 41.3856 155.638 42.146 159.568C42.9063 163.499 62.1384 162.596 62.8037 161.381C62.8037 161.381 64.6842 158.027 59.8439 148.211C59.8439 148.211 49.4166 150.248 48.3507 149.582L48.344 149.589Z" fill="white"/>
<path d="M48.3715 149.929C48.4123 149.942 48.4598 149.935 48.4801 149.922C48.4937 149.915 48.4462 149.956 48.4258 149.969L48.2901 150.092C46.9391 151.327 45.6629 152.678 44.5495 154.131C43.4701 155.631 42.255 157.403 42.3975 159.297C42.9203 163.031 58.731 162.359 61.779 161.619C62.0845 161.53 62.4511 161.483 62.648 161.272C63.4423 158.828 62.6751 156.161 61.9691 153.757C61.3649 151.877 60.5842 150.064 59.7289 148.279C59.7153 148.265 59.8579 148.347 59.8579 148.34C56.5247 149.019 53.1847 149.732 49.7903 150.03C49.3219 150.051 48.8399 150.092 48.3715 149.976V149.969V149.942V149.929ZM48.3172 149.25C48.4598 149.277 48.5888 149.338 48.7381 149.358C50.5167 149.501 52.3089 149.182 54.074 148.985C55.9884 148.727 57.9027 148.428 59.8171 148.096L59.9122 148.082L59.9529 148.164C61.6501 151.734 63.3268 155.495 63.3268 159.534C63.2725 160.227 63.2997 161.082 62.8109 161.632C62.5258 161.822 62.1864 161.904 61.8741 161.978C57.896 162.8 44.6174 163.506 42.0988 160.173C40.6325 156.758 45.561 151.789 47.842 149.589C47.9846 149.467 48.1339 149.29 48.3172 149.25Z" fill="#231F20"/>
<path d="M51.2158 88.9872L52.6211 95.9455L58.1063 90.9559L51.2158 88.9872Z" fill="white" stroke="#231F20" stroke-width="0.678862" stroke-miterlimit="10"/>
</g>
<defs>
<clipPath id="clip0_299_2">
<rect width="144" height="90.0923" fill="white" transform="translate(55 47.8608)"/>
</clipPath>
<clipPath id="clip1_299_2">
<rect width="102.752" height="107.81" fill="white" transform="translate(11 54.8608)"/>
</clipPath>
</defs>
</svg>
