<svg width="480" height="201" viewBox="0 0 480 201" fill="none" xmlns="http://www.w3.org/2000/svg">
<g clip-path="url(#clip0_2300_19075)">
<path d="M0 7.1117C0 3.24571 3.13401 0.111694 7 0.111694H473C476.866 0.111694 480 3.2457 480 7.11169V193.112C480 196.978 476.866 200.112 473 200.112H7.00001C3.13401 200.112 0 196.978 0 193.112V7.1117Z" fill="#EAE4FF" fill-opacity="0.2"/>
<line opacity="0.5" x1="240.25" y1="0.116821" x2="240.25" y2="200.112" stroke="#E2E4F6" stroke-width="0.5"/>
<path d="M240.54 86.5731L243.432 109.922L266.532 105.457L245.219 115.422L256.604 136.011L240.54 118.821L224.477 136.011L235.862 115.422L214.549 105.457L237.649 109.922L240.54 86.5731Z" fill="url(#paint0_radial_2300_19075)"/>
<path d="M0 87.3805L4.44444 90.0277C8.88889 92.675 17.7778 97.9695 26.6667 97.1031C35.5556 96.2367 44.4444 89.2094 53.3333 89.0697C62.2222 88.93 71.1111 95.678 80 96.5298C88.8889 97.3816 97.7778 92.3373 106.667 91.9313C115.556 91.5252 124.444 95.7575 133.333 99.193C142.222 102.628 151.111 105.267 160 105.376C168.889 105.485 177.778 103.063 186.667 102.252C195.556 101.441 204.444 102.239 213.333 104.996C222.222 107.753 231.111 112.469 240 114.122C248.889 115.774 257.778 114.364 266.667 113.388C275.556 112.412 284.444 111.87 293.333 106.877C302.222 101.884 311.111 92.4385 320 93.8907C328.889 95.343 337.778 107.693 346.667 106.861C355.556 106.029 364.444 92.0165 373.333 87.3232C382.222 82.6299 391.111 87.2561 400 91.0168C408.889 94.7775 417.778 97.6726 426.667 98.2269C435.556 98.7812 444.444 96.9946 453.333 94.6317C462.222 92.2688 471.111 89.3296 475.556 87.86L480 86.3904" stroke="#E0DFFF" stroke-opacity="0.7" stroke-dasharray="2 2"/>
<path d="M480 87.3805L475.556 90.0277C471.111 92.675 462.222 97.9695 453.333 97.1031C444.444 96.2367 435.556 89.2094 426.667 89.0697C417.778 88.93 408.889 95.678 400 96.5298C391.111 97.3816 382.222 92.3373 373.333 91.9313C364.444 91.5252 355.556 95.7575 346.667 99.193C337.778 102.628 328.889 105.267 320 105.376C311.111 105.485 302.222 103.063 293.333 102.252C284.444 101.441 275.556 102.239 266.667 104.996C257.778 107.753 248.889 112.469 240 114.122C231.111 115.774 222.222 114.364 213.333 113.388C204.444 112.412 195.556 111.87 186.667 106.877C177.778 101.884 168.889 92.4385 160 93.8907C151.111 95.343 142.222 107.693 133.333 106.861C124.444 106.029 115.556 92.0165 106.667 87.3232C97.7778 82.6299 88.8889 87.2561 80 91.0168C71.1111 94.7775 62.2222 97.6726 53.3333 98.2269C44.4444 98.7812 35.5555 96.9946 26.6666 94.6317C17.7777 92.2688 8.88889 89.3296 4.44444 87.86L-4.21269e-06 86.3904" stroke="#E0DFFF" stroke-width="2"/>
<circle cx="240.54" cy="113.902" r="5.315" fill="#394EFF"/>
</g>
<defs>
<radialGradient id="paint0_radial_2300_19075" cx="0" cy="0" r="1" gradientUnits="userSpaceOnUse" gradientTransform="translate(240.54 113.902) rotate(90) scale(27.3289)">
<stop stop-color="#FFC12F"/>
<stop offset="1" stop-color="white" stop-opacity="0"/>
</radialGradient>
<clipPath id="clip0_2300_19075">
<path d="M0 7.1117C0 3.24571 3.13401 0.111694 7 0.111694H473C476.866 0.111694 480 3.2457 480 7.11169V193.112C480 196.978 476.866 200.112 473 200.112H7.00001C3.13401 200.112 0 196.978 0 193.112V7.1117Z" fill="white"/>
</clipPath>
</defs>
</svg>
