<svg viewBox="0 0 100 100" fill="none" xmlns="http://www.w3.org/2000/svg">
<rect width="100" height="100" rx="13.1579" fill="#3EAAAF" fill-opacity="0.08"/>
<g clip-path="url(#clip0_3_7)">
<path d="M48.9575 23H48.89L48.215 23.135C46.73 23.315 45.2788 23.7312 43.8613 24.3838C42.4438 25.0363 41.195 25.9025 40.115 26.9825C38.27 28.6475 36.9875 30.695 36.2675 33.125C35.8625 34.475 35.6825 35.8925 35.7275 37.3775C35.7725 38.8625 36.0425 40.28 36.5375 41.63C37.3025 43.655 38.4725 45.41 40.0475 46.895L40.925 47.705L35.3225 56.8175C34.1525 56.7725 33.14 56.93 32.285 57.29C30.935 57.875 29.9225 58.775 29.2475 59.99C28.9325 60.665 28.73 61.3625 28.64 62.0825C28.55 62.8025 28.595 63.5225 28.775 64.2425C29.135 65.5925 29.8775 66.6725 31.0025 67.4825C31.6775 67.9325 32.42 68.2588 33.23 68.4613C34.04 68.6638 34.85 68.7088 35.66 68.5963C36.47 68.4838 37.2463 68.2025 37.9888 67.7525C38.7313 67.3025 39.35 66.74 39.845 66.065C40.385 65.3 40.7113 64.4225 40.8238 63.4325C40.9363 62.4425 40.8125 61.52 40.4525 60.665C40.4075 60.44 40.25 60.125 39.98 59.72L39.7775 59.315L47.7425 46.355C48.0125 45.95 48.1925 45.635 48.2825 45.41L47.6075 45.2075C47.2025 45.1175 46.91 45.0275 46.73 44.9375C45.695 44.4875 44.7613 43.8688 43.9288 43.0813C43.0963 42.2938 42.455 41.405 42.005 40.415C41.24 38.795 41.0375 37.1075 41.3975 35.3525C41.5775 34.3175 41.96 33.35 42.545 32.45C43.13 31.55 43.8275 30.785 44.6375 30.155C46.3025 28.94 48.1475 28.3325 50.1725 28.3325C51.3875 28.2875 52.5688 28.5013 53.7163 28.9738C54.8638 29.4463 55.865 30.1325 56.72 31.0325C57.485 31.7525 58.0813 32.6188 58.5088 33.6313C58.9363 34.6438 59.1725 35.6675 59.2175 36.7025C59.2175 37.4675 59.0825 38.4125 58.8125 39.5375L63.5375 40.82L64.0775 40.8875C64.7075 38.9525 64.865 37.0175 64.55 35.0825C64.37 33.5975 63.9313 32.1688 63.2338 30.7963C62.5363 29.4238 61.6475 28.22 60.5675 27.185C58.6775 25.295 56.36 24.035 53.615 23.405C53.345 23.315 52.94 23.225 52.4 23.135L51.455 23H48.9575ZM50.1725 31.37C49.4075 31.37 48.6425 31.5275 47.8775 31.8425C47.1125 32.1575 46.4263 32.6188 45.8188 33.2263C45.2113 33.8338 44.7725 34.5425 44.5025 35.3525C44.1425 36.2525 44.0525 37.2425 44.2325 38.3225C44.3675 39.1325 44.6825 39.8975 45.1775 40.6175C45.6725 41.3375 46.3025 41.9 47.0675 42.305C48.1475 42.98 49.4075 43.2725 50.8475 43.1825C50.9825 43.3625 51.095 43.5425 51.185 43.7225L58.745 56.615C58.88 56.885 59.015 57.0875 59.15 57.2225C60.365 56.0525 61.6813 55.2537 63.0988 54.8263C64.5163 54.3988 65.9788 54.32 67.4863 54.59C68.9938 54.86 70.31 55.445 71.435 56.345C72.875 57.47 73.8538 58.8538 74.3713 60.4963C74.8888 62.1388 74.9 63.7925 74.405 65.4575C74.045 66.7175 73.4038 67.8425 72.4813 68.8325C71.5588 69.8225 70.4675 70.565 69.2075 71.06C67.8125 71.645 66.3163 71.8363 64.7188 71.6338C63.1213 71.4313 61.6925 70.88 60.4325 69.98C60.2525 69.845 59.96 69.62 59.555 69.305L59.2175 68.9C59.0375 69.035 58.79 69.26 58.475 69.575L55.3025 72.68C56.3375 73.715 57.5075 74.5813 58.8125 75.2788C60.1175 75.9763 61.49 76.46 62.93 76.73L64.415 77H67.0475L68.9375 76.6625C71.8175 76.0775 74.2925 74.7275 76.3625 72.6125C77.3525 71.6225 78.1738 70.4863 78.8263 69.2038C79.4788 67.9213 79.9175 66.5825 80.1425 65.1875C80.3675 63.5675 80.3225 61.9588 80.0075 60.3613C79.6925 58.7638 79.13 57.3125 78.32 56.0075C77.51 54.7025 76.52 53.555 75.35 52.565C74.18 51.575 72.8975 50.7875 71.5025 50.2025C69.9725 49.5725 68.3863 49.2125 66.7438 49.1225C65.1013 49.0325 63.4925 49.19 61.9175 49.595L60.77 49.9325L55.3025 40.685C55.8875 39.83 56.2475 38.9975 56.3825 38.1875C56.6075 36.7475 56.315 35.3975 55.505 34.1375C54.785 33.0125 53.795 32.225 52.535 31.775C51.77 31.505 50.9825 31.37 50.1725 31.37ZM31.1375 49.19C28.5275 49.775 26.2775 50.9675 24.3875 52.7675C22.2725 54.7475 20.9 57.11 20.27 59.855L20 61.475V63.9725L20.135 64.715C20.225 65.3 20.315 65.75 20.405 66.065C20.72 67.46 21.2713 68.7875 22.0588 70.0475C22.8463 71.3075 23.8025 72.41 24.9275 73.355C27.1775 75.2 29.765 76.3025 32.69 76.6625C34.4 76.8425 36.11 76.7413 37.82 76.3588C39.53 75.9763 41.105 75.335 42.545 74.435C44.93 72.905 46.685 70.8575 47.81 68.2925C48.125 67.5275 48.44 66.515 48.755 65.255C49.025 65.21 49.43 65.21 49.97 65.255L58.4075 65.39C59.0375 65.39 59.4875 65.4125 59.7575 65.4575C60.2525 66.3575 60.815 67.055 61.445 67.55C62.075 68.045 62.7838 68.405 63.5713 68.63C64.3588 68.855 65.1575 68.945 65.9675 68.9C67.2275 68.765 68.3525 68.315 69.3425 67.55C70.5575 66.605 71.2775 65.39 71.5025 63.905C71.5925 63.14 71.5588 62.3975 71.4013 61.6775C71.2438 60.9575 70.94 60.2825 70.49 59.6525C69.77 58.6625 68.8475 57.9425 67.7225 57.4925C66.9575 57.1775 66.1588 57.0312 65.3263 57.0538C64.4938 57.0763 63.695 57.245 62.93 57.56C61.67 58.1 60.7025 58.9325 60.0275 60.0575L59.825 60.4625C59.195 60.4625 58.25 60.44 56.99 60.395L49.3625 60.3275C48.6875 60.2825 47.72 60.26 46.46 60.26L43.085 60.1925L43.2875 61.34C43.6475 63.275 43.355 65.0975 42.41 66.8075C41.78 68.0225 40.88 69.035 39.71 69.845C38.54 70.655 37.2575 71.15 35.8625 71.33C34.2875 71.6 32.7125 71.4313 31.1375 70.8238C29.5625 70.2163 28.28 69.26 27.29 67.955C26.03 66.38 25.4225 64.6025 25.4675 62.6225C25.5125 60.9575 26.03 59.405 27.02 57.965C27.605 57.11 28.325 56.39 29.18 55.805C30.035 55.22 30.9575 54.7925 31.9475 54.5225L32.555 54.32L31.1375 49.19Z" fill="#3EAAAF" fill-opacity="0.5"/>
</g>
<defs>
<clipPath id="clip0_3_7">
<rect width="60.345" height="54" fill="white" transform="translate(20 23)"/>
</clipPath>
</defs>
</svg>
