<svg viewBox="0 0 100 100" fill="none" xmlns="http://www.w3.org/2000/svg">
<rect width="100" height="100" rx="13.1579" fill="#3EAAAF" fill-opacity="0.08"/>
<path d="M42.5 50C45.4837 50 48.3452 48.8147 50.455 46.705C52.5647 44.5952 53.75 41.7337 53.75 38.75C53.75 35.7663 52.5647 32.9048 50.455 30.795C48.3452 28.6853 45.4837 27.5 42.5 27.5C39.5163 27.5 36.6548 28.6853 34.545 30.795C32.4353 32.9048 31.25 35.7663 31.25 38.75C31.25 41.7337 32.4353 44.5952 34.545 46.705C36.6548 48.8147 39.5163 50 42.5 50ZM23.75 72.5C23.75 72.5 20 72.5 20 68.75C20 65 23.75 53.75 42.5 53.75C61.25 53.75 65 65 65 68.75C65 72.5 61.25 72.5 61.25 72.5H23.75ZM61.25 33.125C61.25 32.6277 61.4475 32.1508 61.7992 31.7992C62.1508 31.4475 62.6277 31.25 63.125 31.25H78.125C78.6223 31.25 79.0992 31.4475 79.4508 31.7992C79.8025 32.1508 80 32.6277 80 33.125C80 33.6223 79.8025 34.0992 79.4508 34.4508C79.0992 34.8025 78.6223 35 78.125 35H63.125C62.6277 35 62.1508 34.8025 61.7992 34.4508C61.4475 34.0992 61.25 33.6223 61.25 33.125ZM63.125 42.5C62.6277 42.5 62.1508 42.6975 61.7992 43.0492C61.4475 43.4008 61.25 43.8777 61.25 44.375C61.25 44.8723 61.4475 45.3492 61.7992 45.7008C62.1508 46.0525 62.6277 46.25 63.125 46.25H78.125C78.6223 46.25 79.0992 46.0525 79.4508 45.7008C79.8025 45.3492 80 44.8723 80 44.375C80 43.8777 79.8025 43.4008 79.4508 43.0492C79.0992 42.6975 78.6223 42.5 78.125 42.5H63.125ZM70.625 53.75C70.1277 53.75 69.6508 53.9475 69.2992 54.2992C68.9475 54.6508 68.75 55.1277 68.75 55.625C68.75 56.1223 68.9475 56.5992 69.2992 56.9508C69.6508 57.3025 70.1277 57.5 70.625 57.5H78.125C78.6223 57.5 79.0992 57.3025 79.4508 56.9508C79.8025 56.5992 80 56.1223 80 55.625C80 55.1277 79.8025 54.6508 79.4508 54.2992C79.0992 53.9475 78.6223 53.75 78.125 53.75H70.625ZM70.625 65C70.1277 65 69.6508 65.1975 69.2992 65.5492C68.9475 65.9008 68.75 66.3777 68.75 66.875C68.75 67.3723 68.9475 67.8492 69.2992 68.2008C69.6508 68.5525 70.1277 68.75 70.625 68.75H78.125C78.6223 68.75 79.0992 68.5525 79.4508 68.2008C79.8025 67.8492 80 67.3723 80 66.875C80 66.3777 79.8025 65.9008 79.4508 65.5492C79.0992 65.1975 78.6223 65 78.125 65H70.625Z" fill="#3EAAAF" fill-opacity="0.5"/>
</svg>
