<svg width="210" height="200" viewBox="0 0 210 200" fill="none" xmlns="http://www.w3.org/2000/svg">
<rect width="210" height="200" fill="white"/>
<ellipse opacity="0.1" cx="113.196" cy="98.5413" rx="90.6724" ry="85.8823" fill="url(#paint0_linear_810_783)"/>
<ellipse opacity="0.45" cx="113.196" cy="87.3113" rx="68.533" ry="59.682" fill="#EFDBBB" fill-opacity="0.72"/>
<g clip-path="url(#clip0_810_783)">
<path d="M43.0006 169.539C52.9614 169.539 61.0363 161.464 61.0363 151.503C61.0363 141.542 52.9614 133.468 43.0006 133.468C33.0397 133.468 24.9648 141.542 24.9648 151.503C24.9648 161.464 33.0397 169.539 43.0006 169.539Z" fill="white"/>
<path d="M60.2756 151.503C60.714 141.858 52.5452 134.05 43.0001 134.433C28.5327 135.01 21.5903 152.552 31.768 162.735C42.0623 172.941 59.7595 166.193 60.2756 151.503ZM61.8017 151.503C62.1347 168.99 41.3076 178.152 28.7214 165.782C18.7213 155.765 22.334 138.634 35.6194 133.695C48.1167 129 61.3522 138.379 61.7961 151.509L61.8017 151.503Z" fill="#231F20"/>
<path d="M112.258 192.009C122.219 192.009 130.294 183.934 130.294 173.973C130.294 164.012 122.219 155.937 112.258 155.937C102.297 155.937 94.2222 164.012 94.2222 173.973C94.2222 183.934 102.297 192.009 112.258 192.009Z" fill="white"/>
<path d="M129.317 173.973C129.461 158.451 110.937 150.61 99.9656 161.681C89.4328 172.569 97.1409 190.771 112.258 190.721C121.342 190.732 129.267 183.124 129.317 173.973ZM131.276 173.973C131.603 184.317 122.713 193.568 112.258 193.302C104.627 193.307 97.3685 188.379 94.6603 181.265C90.7979 171.792 95.6315 160.521 105.127 156.77C117.297 151.764 131.142 160.727 131.27 173.973H131.276Z" fill="#231F20"/>
<path d="M185.461 169.539C195.421 169.539 203.496 161.464 203.496 151.503C203.496 141.543 195.421 133.468 185.461 133.468C175.5 133.468 167.425 141.543 167.425 151.503C167.425 161.464 175.5 169.539 185.461 169.539Z" fill="white"/>
<path d="M202.003 151.503C202.309 139.483 189.967 130.97 178.801 135.427C167.308 139.933 164.339 155.177 173.307 163.651C184.267 173.901 201.576 166.359 201.998 151.503H202.003ZM204.995 151.503C205.344 165.277 190.599 174.722 178.174 169.101C168.796 165.111 164.262 153.695 168.279 144.383C176.676 125.493 204.196 130.743 205 151.503H204.995Z" fill="#231F20"/>
<path d="M109.627 130.11C141.361 130.11 167.086 104.385 167.086 72.6511C167.086 40.9173 141.361 15.192 109.627 15.192C77.8933 15.192 52.168 40.9173 52.168 72.6511C52.168 104.385 77.8933 130.11 109.627 130.11Z" fill="white"/>
<path d="M165.288 72.6511C165 33.7938 124.389 6.62369 88.3727 21.3408C59.8429 32.462 45.5975 66.0195 57.268 94.3384C70.5146 127.435 111.664 140.005 140.993 119.6C156.198 109.205 165.654 91.0476 165.283 72.6511H165.288ZM168.884 72.6511C168.701 104.832 141.736 131.126 109.633 130.721C77.801 130.721 51.3634 104.494 51.1303 72.6511C50.6308 30.5529 93.5282 1.49599 132.502 17.4285C154.55 26.2077 169.4 48.9827 168.879 72.6511H168.884Z" fill="#231F20"/>
<path d="M110.099 124.971C138.762 124.971 161.998 101.736 161.998 73.0728C161.998 44.4101 138.762 21.1743 110.099 21.1743C81.4364 21.1743 58.2007 44.4101 58.2007 73.0728C58.2007 101.736 81.4364 124.971 110.099 124.971Z" fill="white"/>
<path d="M161.409 73.0729C161.692 52.7341 148.59 33.2388 129.727 25.6916C96.1198 11.8235 58.894 36.6962 58.9662 73.0729C58.9995 109.411 96.0865 134.239 129.688 120.371C148.529 112.829 161.598 93.3728 161.404 73.0729H161.409ZM162.586 73.0729C162.858 93.8833 149.522 113.878 130.232 121.681C95.7868 136.087 57.2847 110.443 57.4345 73.0729C57.4456 35.6973 95.6925 10.1698 130.199 24.5484C149.461 32.3454 162.769 52.3012 162.586 73.0729Z" fill="#231F20"/>
<path d="M67.3732 110.032C64.2821 114.161 61.1245 118.234 57.9114 122.263C54.6927 126.298 51.5517 130.382 47.9834 134.122L47.1177 133.429C50.0089 129.145 53.3275 125.199 56.5795 121.198C59.8315 117.197 63.1334 113.24 66.5075 109.339L67.3732 110.032Z" fill="#231F20"/>
<path d="M74.7489 118.301L57.0239 140.166" stroke="#231F20" stroke-width="1.10989" stroke-miterlimit="10"/>
<path d="M104.155 129.844V157.863" stroke="#231F20" stroke-width="1.10989" stroke-miterlimit="10"/>
<path d="M118.396 129.233V157.513" stroke="#231F20" stroke-width="1.10989" stroke-miterlimit="10"/>
<path d="M148.179 115.021L169.883 141.409" stroke="#231F20" stroke-width="1.10989" stroke-miterlimit="10"/>
<path d="M158.235 103.673L182.431 134.505L181.559 135.194L157.364 104.361L158.235 103.673Z" fill="#231F20"/>
<path d="M44.2269 161.243C50.0471 161.243 54.7653 156.524 54.7653 150.704C54.7653 144.884 50.0471 140.166 44.2269 140.166C38.4067 140.166 33.6885 144.884 33.6885 150.704C33.6885 156.524 38.4067 161.243 44.2269 161.243Z" fill="#E7EFF9"/>
<path d="M53.6994 150.704C53.4385 142.38 43.505 138.068 37.3618 143.839C32.2507 148.618 33.8934 157.314 40.4084 159.916C46.7514 162.558 53.9435 157.519 53.6994 150.699V150.704ZM55.8304 150.704C55.6028 160.765 43.4717 165.555 36.3795 158.551C32.0565 154.406 31.9288 146.942 36.1853 142.663C43.3052 135.232 56.0412 140.31 55.8304 150.704Z" fill="#231F20"/>
<path d="M185.46 161.243C191.28 161.243 195.999 156.524 195.999 150.704C195.999 144.884 191.28 140.166 185.46 140.166C179.64 140.166 174.922 144.884 174.922 150.704C174.922 156.524 179.64 161.243 185.46 161.243Z" fill="#FFFCE1"/>
<path d="M195.411 150.704C195.255 142.014 184.778 137.763 178.64 143.884C174.916 147.497 174.872 153.928 178.574 157.591C184.689 163.862 195.505 159.522 195.411 150.704ZM196.593 150.704C196.426 160.621 184.628 165.643 177.447 158.718C171.637 153.135 173.601 143.14 181.093 140.155C188.446 137.108 196.765 142.757 196.593 150.704Z" fill="#231F20"/>
<path d="M112.258 182.319C118.078 182.319 122.796 177.601 122.796 171.781C122.796 165.961 118.078 161.243 112.258 161.243C106.437 161.243 101.719 165.961 101.719 171.781C101.719 177.601 106.437 182.319 112.258 182.319Z" fill="#F0C3BA"/>
<path d="M121.886 171.781C121.741 165.222 114.694 160.921 108.761 163.335C99.1495 167.408 101.791 181.387 112.257 181.737C117.685 181.942 122.146 177.081 121.88 171.781H121.886ZM123.711 171.781C123.434 181.559 111.353 186.537 104.255 179.783C99.649 175.627 99.4326 167.835 103.867 163.39C111.32 155.754 123.939 161.198 123.706 171.781H123.711Z" fill="#231F20"/>
<path d="M142.635 112.835V74.4658C142.635 66.4856 140.521 60.8807 134.788 55.3312C129.916 50.6197 123.512 46.6574 111.813 46.0803C103.717 45.6807 95.6144 47.734 88.9107 52.2901C82.5177 56.6298 76.713 63.5944 77.6453 74.4047L81.6021 115.659" fill="white"/>
<path d="M142.08 112.835C141.553 100.304 141.17 86.7411 140.892 74.1661C140.809 69.0162 139.427 63.8885 136.137 59.8984C131.819 54.5487 125.753 50.7141 118.961 49.3711C108.889 47.2512 97.6788 48.8772 89.3879 55.0981C85.3257 58.1059 82.1292 62.035 80.8251 66.863C79.8595 70.0484 80.037 73.6389 80.3534 76.9297C80.7807 82.2627 81.1525 88.1562 81.4522 93.4726C81.8184 100.837 82.1458 108.206 82.1569 115.604L81.0526 115.709C78.9937 104.81 77.4676 93.8611 76.1191 82.8676C75.9027 81.0363 75.3533 76.4025 75.1591 74.6322C73.017 56.0915 91.7186 43.805 108.417 43.5997C112.346 43.5275 116.158 43.916 119.988 44.7706C125.709 46.0303 131.247 48.8994 135.465 53.0226C138.323 55.7086 140.876 58.9051 142.407 62.5788C144.766 67.823 144.411 74.0884 144.261 79.6767C143.961 90.3816 143.684 102.185 143.195 112.829H142.086L142.08 112.835Z" fill="#231F20"/>
<path d="M92.5 100.5L89.5 73.5C109.1 76.7 124.667 72.8333 130 70.5V98C117.2 103.6 99.6667 102 92.5 100.5Z" fill="#5BC3C8" stroke="black"/>
<path d="M108.634 90.5558L108.184 83.648C108.158 83.2448 108.575 82.9621 108.94 83.1361L115.745 86.3818C116.13 86.5652 116.151 87.1049 115.782 87.3177L109.426 90.9798C109.087 91.1754 108.66 90.9469 108.634 90.5558Z" fill="white" stroke="black" stroke-width="0.529072"/>
<path d="M85.8312 102.701C85.7091 101.064 85.6869 99.4271 85.637 97.7901C85.5704 95.7257 84.3495 92.0686 75.6646 95.881C69.599 98.5448 65.3981 103.14 62.7621 106.919C60.1261 110.698 60.4147 116.137 63.7499 119.533C67.0352 122.874 72.3183 126.264 80.2318 126.209C84.2385 126.181 87.3351 122.668 87.0354 118.673L85.8312 102.707V102.701Z" fill="white"/>
<path d="M85.2539 102.746C85.1929 101.808 85.0542 99.2496 84.9931 98.334C85.0264 95.7146 83.5336 94.6991 81.0197 95.0764C73.6556 96.5581 67.4235 101.963 63.4224 108.173C61.5411 111.314 61.8741 115.615 64.3214 118.34C67.9119 122.291 73.0396 124.727 78.3615 125.132C79.255 125.199 80.1873 125.288 81.0752 125.177C83.6557 124.866 85.7922 122.707 86.214 120.132C86.4415 118.54 86.0808 116.076 86.0475 114.444C85.8089 110.543 85.6369 106.63 85.2539 102.74V102.746ZM86.4082 102.657C86.6136 106.564 87.0298 110.454 87.3794 114.35C87.4793 116.126 87.9399 118.595 87.729 120.36C87.0298 125.149 82.8899 127.702 78.2283 127.147C72.074 126.886 65.9141 124.122 61.9684 119.322C58.833 115.354 59.0494 109.499 62.2015 105.609C65.4979 101.148 69.8431 97.3573 74.9763 95.1708C78.9942 93.3616 86.4748 91.4526 86.325 98.284C86.3416 99.183 86.3971 101.719 86.4138 102.663L86.4082 102.657Z" fill="#231F20"/>
<path d="M134.705 100.115C134.705 100.115 132.691 86.5525 143.768 92.7679L158.618 100.443C161.781 102.08 163.091 106.414 161.359 109.805C159.345 113.745 154.833 118.295 144.822 120.571C141.809 121.253 138.817 119.294 137.885 116.003C136.953 112.713 135.86 107.818 134.7 100.115H134.705Z" fill="white"/>
<path d="M134.067 100.215C132.913 93.1619 135.599 87.6125 143.412 91.1086C146.564 92.5515 151.753 94.9544 154.889 96.4638C155.704 96.8689 157.863 97.9233 158.657 98.3118C161.365 99.4328 163.49 102.035 163.901 104.877C164.8 109.366 161.72 113.512 158.446 116.176C154.939 119.017 150.682 120.582 146.354 121.497C142.069 122.835 138.057 120.388 137.058 116.137C136.958 115.715 136.686 114.505 136.592 114.061C135.615 109.461 134.988 104.816 134.067 100.204V100.215ZM135.338 100.027C135.882 105.115 136.969 110.143 138.457 115.038C139.089 117.813 141.548 120.166 144.439 119.416C146.997 118.712 149.617 117.768 151.925 116.497C156.609 114.128 163.94 106.98 158.002 102.319C153.157 99.7158 146.992 96.2585 142.258 93.4616C136.204 89.8933 134.972 94.8323 135.338 100.027Z" fill="#231F20"/>
<path d="M77.884 69.0938C94.5546 74.4324 113.068 75.176 129.755 69.5267C133.606 68.2004 137.308 66.5355 140.909 64.621L141.475 65.5755C127.407 74.6488 109.821 77.2571 93.4502 74.5656C87.9784 73.6721 82.6066 72.2792 77.4678 70.1149L77.8895 69.0883L77.884 69.0938Z" fill="#231F20"/>
<path d="M85.831 98.4505C99.8267 101.442 114.721 101.991 128.567 97.9511C130.554 97.4072 132.469 96.6581 134.394 95.9255L134.86 96.9355C133.512 97.6237 131.953 98.3118 130.537 98.8834C118.195 103.639 104.455 103.789 91.6191 101.142C89.5658 100.681 87.5347 100.193 85.5146 99.5105L85.8365 98.445L85.831 98.4505Z" fill="#231F20"/>
<path d="M89.3105 72.873L92.5958 100.52" stroke="#231F20" stroke-width="1.10989" stroke-miterlimit="10"/>
<path d="M129.844 70.4369V98.3562" stroke="#231F20" stroke-width="1.10989" stroke-miterlimit="10"/>
<path d="M88.9053 52.2901C88.9053 52.2901 111.07 62.6898 124.899 48.7496" stroke="#231F20" stroke-width="1.10989" stroke-miterlimit="10"/>
<path d="M108.723 47.9616C106.131 41.0692 93.5948 13.8824 60.5699 26.019C56.0138 27.695 52.157 30.9858 49.9205 35.2977C46.774 41.3744 48.0948 46.0692 74.3603 44.6541C78.1839 44.4488 81.9686 43.6663 85.5203 42.2456C87.3794 41.502 89.7656 40.7362 92.335 40.3921C98.2452 39.5986 103.833 43.3111 105.521 49.0326C105.804 49.9927 106.852 50.4977 107.779 50.1148C108.623 49.7707 109.039 48.8217 108.717 47.9671L108.723 47.9616Z" fill="white"/>
<path d="M108.19 48.1613C104.016 37.0291 94.9431 26.7793 82.873 24.5095C77.0072 23.3497 70.814 23.999 65.1147 25.6971C62.3511 26.5295 59.371 27.4619 56.9737 29.1211C54.5708 30.7416 52.5452 32.917 51.1745 35.4531C50.4864 36.7128 49.8926 38.0835 49.9037 39.2156C49.9814 44.4099 65.4699 43.694 69.3323 43.7551C72.3457 43.6774 75.4034 43.6718 78.3835 43.1946C84.5212 42.401 90.2371 38.311 96.5968 39.7817C101.014 40.7473 104.693 44.2046 106.009 48.4888L106.175 48.9716C106.725 50.2202 108.634 49.4766 108.184 48.1558L108.19 48.1613ZM109.255 47.7618C110.237 50.9638 105.62 52.1569 104.799 48.8883C103.106 43.633 97.4015 40.2034 91.9797 41.2856C87.4125 42.0181 83.3281 44.5264 78.722 45.1702C75.631 45.7362 72.5177 45.8028 69.3934 45.9471C64.7263 46.0969 60.0037 46.1191 55.3588 45.3311C50.664 44.593 45.8526 42.1901 48.0613 36.563C49.5541 32.7338 52.3121 29.4763 55.7084 27.2232C58.3555 25.4197 61.4687 24.4541 64.532 23.6161C66.6186 23.0056 69.2935 22.5173 71.4633 22.2509C89.7599 19.9701 102.923 31.4353 109.255 47.7618Z" fill="#231F20"/>
<path d="M71.6074 131.104C77.4889 131.104 82.2568 126.929 82.2568 121.78C82.2568 116.631 77.4889 112.457 71.6074 112.457C65.7259 112.457 60.958 116.631 60.958 121.78C60.958 126.929 65.7259 131.104 71.6074 131.104Z" fill="white"/>
<path d="M81.447 121.78C81.4526 113.451 70.5257 110.471 64.8319 115.587C60.9362 118.878 61.0861 124.594 65.1039 127.641C70.4979 132.108 81.0807 129.522 81.447 121.78ZM83.0674 121.78C82.9898 131.536 70.5423 135.504 63.5667 129.522C58.6609 125.526 58.7608 118.162 63.8386 114.377C70.4757 109.044 82.6623 112.629 83.0674 121.786V121.78Z" fill="#231F20"/>
<path d="M155.683 123.317C161.317 122.677 165.443 118.275 164.899 113.485C164.355 108.694 159.347 105.33 153.713 105.97C148.079 106.61 143.953 111.012 144.497 115.802C145.041 120.592 150.05 123.957 155.683 123.317Z" fill="white"/>
<path d="M163.39 113.667C163.163 109.189 158.151 106.12 153.773 106.586C151.409 106.769 149.111 107.824 147.48 109.505C143.945 113.029 144.811 118.479 149.195 120.676C152.957 122.657 158.024 121.792 161.004 118.906C162.469 117.552 163.501 115.704 163.385 113.667H163.39ZM166.387 113.329C167.53 121.481 158.862 126.631 151.642 124.683C144.089 122.818 140.671 114.322 146.625 108.645C152.408 102.996 164.85 104.35 166.387 113.329Z" fill="#231F20"/>
</g>
<defs>
<linearGradient id="paint0_linear_810_783" x1="113.196" y1="12.659" x2="113.196" y2="184.424" gradientUnits="userSpaceOnUse">
<stop stop-color="#009490"/>
<stop offset="1" stop-color="#009490" stop-opacity="0"/>
</linearGradient>
<clipPath id="clip0_810_783">
<rect width="182" height="180.307" fill="white" transform="translate(23 13)"/>
</clipPath>
</defs>
</svg>
