<svg width="214" height="197" viewBox="0 0 214 197" fill="none" xmlns="http://www.w3.org/2000/svg">
<g clip-path="url(#clip0_9_498)">
<rect width="214" height="197" fill="white"/>
<circle cx="101.718" cy="91.953" r="84.3749" fill="#FDF9F3"/>
<path d="M0.911954 193.085C4.53119 191.711 5.55262 191.86 10.4004 190.729C20.7555 188.313 21.7552 188.834 34.3794 187.681C62.642 185.1 93.3515 184.802 122.505 186.164C141.628 187.058 159.578 188.814 177.444 190.915C185.846 191.904 195.761 193.304 207.808 194.753" stroke="black" stroke-linecap="round"/>
<path d="M189.398 36.3112C188.927 36.6835 188.48 37.1138 187.967 37.4199C182.332 40.7379 178.501 45.5287 176.275 51.6517C175.531 53.6954 175.2 55.7806 175.39 57.9567C175.556 59.8598 175.589 61.7794 175.804 63.6743C176.052 65.8256 175.531 67.7535 174.53 69.6235C172.37 73.6696 169.019 76.5408 165.262 78.9817C161.423 81.4806 158.163 84.5255 155.689 88.3979C152.925 92.7253 152.081 97.4252 152.917 102.456C153.471 105.782 154.1 109.084 155.631 112.137C155.97 112.815 156.301 113.494 156.665 114.222C159.826 113.999 161.498 115.869 162.648 118.376C164.319 122.025 164.89 125.641 162.432 129.273C161.382 130.828 160.025 131.755 158.295 132.334C156.351 132.98 156.367 133.021 156.533 134.866C154.936 136.306 153.447 137.696 151.916 139.028C148.283 142.173 147.059 146.252 147.828 150.811C148.722 156.115 147.34 160.649 143.435 164.116C139.207 167.856 137.072 172.407 136.584 177.893C136.567 178.033 136.493 178.182 136.418 178.315C136.402 178.356 136.302 178.348 136.004 178.431C135.93 177.868 135.748 177.305 135.806 176.767C136.335 171.985 137.982 167.715 141.738 164.488C144.825 161.841 146.802 158.589 147.282 154.518C147.382 153.69 147.398 152.822 147.266 152.011C146.455 147.154 147.257 142.727 150.584 138.772C150.013 139.053 149.442 139.343 148.863 139.616C144.568 141.626 140.299 143.679 135.971 145.598C134.78 146.128 134.06 146.707 134.076 148.072C134.093 149.065 133.928 150.058 133.936 151.043C133.961 155.163 132.951 158.986 131.197 162.742C127.879 169.834 122.691 174.74 115.401 177.52C115.004 177.669 114.715 178.108 114.218 178.546C116.03 179.159 117.577 179.523 118.976 180.193C121.45 181.376 121.4 181.691 120.631 184.281C119.712 187.359 117.371 189.071 114.822 190.453C109.187 193.523 103.155 194.408 96.8338 193.192C96.6849 193.167 96.5277 193.134 96.387 193.084C94.7652 192.48 93.1766 191.554 91.5052 191.363C89.8917 191.173 88.2037 191.794 86.5406 191.976C82.7592 192.389 79.2426 191.711 76.1563 189.32C73.7485 187.45 72.466 185.1 72.9294 181.98C73.2107 180.052 72.1185 178.075 70.2154 177.347C64.9198 175.311 60.6337 171.968 57.3819 167.343C53.8571 162.337 52.045 156.777 52.0864 150.596C52.136 143.182 52.0367 135.768 52.0285 128.354C52.0285 124.995 52.1195 121.627 52.136 118.268C52.136 117.209 52.136 116.133 51.9374 115.099C50.324 106.535 51.5072 98.3022 55.1727 90.483C60.4434 79.2465 68.6598 71.1129 80.7072 67.2736C82.6434 66.6613 84.6458 66.2807 86.946 65.7098C83.446 64.2617 79.946 63.0289 80.0122 58.4035C81.4105 58.9165 82.6351 59.3716 83.868 59.8267C83.9756 59.7109 84.0748 59.595 84.1824 59.4792C81.758 57.1458 80.3349 54.4981 81.1126 51.0559C88.2865 52.8515 93.2841 56.7487 95.2121 63.9721C95.3445 64.4769 95.5017 64.9816 95.6671 65.5443C99.8622 65.8504 103.933 66.5041 107.781 68.0927C121.864 73.9096 130.212 84.6083 133.795 99.1628C135.276 105.17 135.409 111.276 133.448 117.283C133.332 117.639 133.232 118.045 133.29 118.401C133.572 120.188 133.911 121.967 134.258 123.886C140.564 122.223 146.504 119.915 152.545 116.762C152.76 117.25 152.967 117.722 153.19 118.218C154.233 117.06 155.044 116.158 155.987 115.107C155.813 114.785 155.59 114.338 155.35 113.899C153.091 109.721 151.982 105.195 151.593 100.52C151.072 94.2147 153.339 88.8281 157.518 84.178C159.578 81.886 161.986 80.0326 164.485 78.2453C166.834 76.5656 169.16 74.7618 171.154 72.685C174.017 69.7062 175.456 66.1814 174.778 61.8208C173.28 52.1482 177.426 44.7261 184.699 38.7852C186.031 37.693 187.719 37.0393 189.25 36.187C189.307 36.2449 189.357 36.3111 189.415 36.3691L189.398 36.3112ZM132.86 117.259C132.215 117.54 131.859 117.656 131.545 117.838C127.722 120.022 123.552 121.272 119.34 122.389C113.109 124.044 106.705 124.557 100.309 124.987C98.8693 125.086 97.4213 124.921 95.9733 124.929C92.8622 124.954 89.751 125.111 86.6482 125.036C84.29 124.979 81.9401 124.606 79.5819 124.424C70.6622 123.737 62.0569 121.892 54.1053 117.606C53.8654 117.474 53.5427 117.499 53.22 117.449C53.071 122.67 52.798 127.775 52.798 132.872C52.798 138.987 52.98 145.102 53.1703 151.208C53.2282 153.111 53.3193 155.056 53.7661 156.893C56.3063 167.459 63.2401 173.863 73.3513 177.107C74.8655 177.595 76.479 177.893 78.0594 177.992C81.7167 178.215 85.3905 178.29 89.056 178.373C91.4142 178.431 93.7806 178.464 96.147 178.406C100.193 178.315 104.248 178.158 108.294 178.017C108.674 178 109.063 177.984 109.436 177.909C126.083 174.442 133.621 162.37 133.017 146.798C132.256 147.03 131.553 147.261 130.841 147.46C127.896 148.279 124.983 149.206 122.004 149.859C118.099 150.72 114.135 151.109 110.189 150.075C106.3 149.057 104.512 146.119 105.497 142.239C105.902 140.625 106.73 139.119 107.293 137.539C107.83 136.016 108.774 134.833 110.172 134.113C112.745 132.781 115.327 131.457 117.991 130.324C122.898 128.23 127.862 126.269 132.877 124.226V117.234L132.86 117.259ZM119.53 94.2478C108.724 95.8282 98.1577 97.6899 87.4094 96.8459C76.7686 96.0102 66.2189 94.5043 55.6692 91.6662C55.0072 93.9334 54.3122 96.0351 53.7826 98.1698C52.4918 103.341 52.3263 108.604 52.6987 113.899C52.7897 115.182 53.0628 116.233 54.4777 116.762C56.0415 117.358 57.4978 118.243 59.0451 118.889C67.4187 122.347 76.3135 123.431 85.225 124.176C95.0217 124.987 104.777 124.118 114.45 122.48C116.601 122.116 118.711 121.495 120.887 120.974C120.995 111.897 121.226 103.068 119.53 94.2478V94.2478ZM115.137 72.8422C114.723 75.6472 112.936 77.0455 110.809 78.0716C109.369 78.7666 107.888 79.4451 106.349 79.834C103.61 80.5125 100.847 81.1744 98.0501 81.4723C91.3314 82.1756 84.6044 82.0929 78.0346 80.2642C74.4353 79.2713 70.8691 78.0798 69.2142 74.0006C63.2981 78.4522 59.1195 83.8967 56.2484 90.5988C57.0675 90.8636 57.5557 91.0705 58.0687 91.1781C64.1255 92.3944 70.174 93.6934 76.2556 94.7774C83.3384 96.0351 90.504 96.6143 97.7026 96.1592C105.257 95.6875 112.72 94.5126 120.085 92.7253C122.956 92.0303 125.223 90.4913 127.25 88.4475C128.011 87.678 128.127 86.925 127.565 85.9901C124.453 80.8269 120.581 76.3836 115.137 72.8505V72.8422ZM152.023 117.945C147.175 120.858 142.111 122.538 137.063 124.325C130.154 126.766 123.336 129.463 116.51 132.111C114.946 132.715 113.482 133.567 111.968 134.295C109.22 135.611 107.756 137.936 106.829 140.708C105.1 145.879 107.226 149.131 112.654 149.57C113.035 149.603 113.424 149.644 113.796 149.603C116.378 149.355 119.001 149.322 121.524 148.8C133.175 146.376 143.774 141.312 154.084 135.553C155.308 134.866 155.581 133.956 155.49 132.732C155.101 127.75 153.827 122.976 152.032 117.954L152.023 117.945ZM95.9154 66.6282C95.5678 68.2913 95.3858 69.7393 94.9473 71.1129C94.426 72.7512 93.1269 72.9084 92.0761 71.5266C91.803 71.1708 91.6955 70.6991 91.4886 70.2937C91.0832 69.4745 90.686 68.6471 90.2309 67.8611C89.6269 66.8268 88.7333 66.4958 87.517 66.653C81.9897 67.3729 76.7935 69.036 72.0606 72.023C70.265 73.1566 70.0582 74.3812 71.5227 75.8871C72.2012 76.5822 73.0369 77.211 73.914 77.6082C75.4365 78.3032 77.0086 78.9321 78.6304 79.3458C86.2262 81.2654 93.9213 81.3234 101.592 79.9333C104.496 79.4037 107.359 78.4687 110.114 77.3931C111.463 76.8635 112.696 75.7548 113.672 74.6294C114.756 73.38 114.466 72.1637 112.96 71.4521C110.139 70.1282 107.268 68.854 104.322 67.8528C101.666 66.9426 98.861 66.4875 95.9071 66.6199L95.9154 66.6282ZM120.631 94.3967C122.567 102.969 121.64 111.74 121.955 120.577C125.604 119.526 128.855 118.276 131.942 116.572C132.753 116.125 133.183 115.612 133.274 114.652C134.043 106.535 133.117 98.658 130.063 91.0705C129.757 90.3175 129.36 89.6059 129.071 89.0019C126.249 90.8057 123.568 92.5185 120.631 94.3967V94.3967ZM92.2747 183.511C92.2747 185.257 92.1919 186.928 92.3161 188.575C92.3657 189.187 92.7794 189.973 93.2759 190.304C94.4012 191.057 95.6258 191.86 96.9166 192.149C103.164 193.564 109.088 192.431 114.59 189.27C117.354 187.681 119.613 185.546 120.143 182.08C118.744 180.871 117.139 180.259 115.36 180.052C114.367 179.936 113.54 180.152 113.184 181.244C112.936 182.005 112.505 182.51 111.612 182.7C107.268 183.619 102.907 184.429 98.439 184.098C96.4698 183.95 94.5087 183.726 92.2747 183.511V183.511ZM91.0253 183.097C85.0264 184.264 79.6233 182.998 74.2698 181.426C73.5499 184.628 74.6008 187.127 77.0748 188.831C81.4436 191.835 86.16 191.33 90.9508 190.403C91.0666 190.379 91.1411 190.18 91.0335 190.312V183.097H91.0253ZM81.0547 60.0418C81.8408 62.2842 83.5122 63.335 85.5973 63.7322C87.6742 64.1293 89.2959 65.1554 90.504 66.8185C91.2569 67.8528 91.77 69.0525 92.4319 70.1613C92.7049 70.6164 93.069 71.0053 93.5241 71.5928C95.8657 64.8989 91.9106 53.894 81.758 52.5784C81.667 54.2498 82.0559 55.8219 83.1068 57.0548C84.0914 58.2132 85.3656 59.1234 86.5075 60.1411C86.4413 60.2818 86.3668 60.4307 86.3006 60.5714C84.6044 60.4059 82.9082 60.2322 81.0547 60.0501V60.0418ZM156.88 116.2C154.34 117.085 153.463 119.187 154.216 121.694C155.01 124.317 155.614 126.998 156.301 129.654C156.483 130.349 156.682 131.044 156.864 131.714C159.727 131.217 160.513 130.704 161.721 128.719C163.955 125.02 163.252 119.402 160.132 116.415C159.619 115.918 158.924 115.612 158.271 115.19C157.451 116.291 158.163 117.904 156.508 118.508C156.64 117.672 156.756 116.986 156.88 116.216V116.2ZM112.696 178.629C105.745 179.002 98.7783 179.374 91.803 179.746C91.4307 181.79 91.4555 181.939 93.0938 182.46C94.1033 182.775 95.1707 182.998 96.2215 183.048C100.648 183.271 105.058 183.139 109.419 182.204C112.017 181.649 112.315 181.393 112.687 178.621L112.696 178.629ZM73.07 178.505C74.096 179.771 75.0889 180.929 76.7769 181.36C80.6576 182.344 84.6044 182.369 88.5595 182.27C89.0725 182.253 89.5855 182.08 90.2806 181.939C90.2061 181.153 90.1316 180.433 90.0572 179.68C84.3396 179.283 78.8124 178.902 73.07 178.505V178.505Z" fill="black"/>
<path d="M21.7943 171.207C23.3995 171.282 24.5248 171.29 25.6418 171.406C26.883 171.538 27.4787 172.407 27.7518 173.524C28 174.517 28.1903 175.526 28.8274 176.478C28.8605 176.089 28.9598 175.692 28.9019 175.311C28.6868 173.722 28.3889 172.142 28.182 170.553C27.8676 168.154 28.0248 167.988 30.5236 167.856C32.2613 167.757 32.6584 167.98 33.1135 169.709C33.5355 171.331 33.8003 172.994 34.1395 174.641C34.2471 175.154 34.3712 175.659 34.5284 176.337C35.3724 176.379 36.1667 176.42 37.1017 176.461C37.2093 173.185 35.24 170.413 35.8854 167.186C37.4575 166.648 39.071 166.921 40.6183 167.087C43.9611 167.434 47.2957 167.881 50.5971 168.477C51.9706 168.725 53.2614 169.436 54.9577 170.082C52.7484 172.531 50.8371 174.649 48.6526 177.074C49.6704 177.305 50.3737 177.438 51.0605 177.611C53.4186 178.215 55.8513 178.646 58.1267 179.498C61.6847 180.83 62.7024 184.992 60.187 187.896C59.0121 189.253 57.5641 190.503 56.0002 191.38C52.947 193.101 49.7531 194.359 46.0545 194.284C41.0237 194.185 35.9847 194.532 30.9456 194.681C26.5851 194.805 22.4976 193.597 18.4514 192.149C16.4408 191.429 14.3722 190.784 12.8001 189.245C11.8816 188.343 10.9384 187.416 10.2185 186.357C8.90289 184.421 9.44073 182.005 11.4762 180.83C13.0483 179.92 14.7694 179.266 16.598 178.422C16.5401 177.942 16.4904 177.355 16.4077 176.776C16.1926 175.278 16.4077 174.922 17.8391 174.418C19.5767 173.805 20.2387 173.954 20.9337 175.245C21.3144 175.957 21.5874 176.734 21.9515 177.587C23.6146 176.767 22.4893 175.642 22.4479 174.765C22.4066 173.731 22.0839 172.713 21.786 171.224L21.7943 171.207ZM11.1949 185.729C11.2859 185.968 11.3107 186.2 11.4348 186.357C12.9656 188.318 14.8521 189.758 17.1937 190.726C22.5803 192.944 28.1407 194.052 33.9575 193.846C38.2353 193.688 42.5048 193.316 46.7827 193.324C50.1503 193.324 53.0628 192.116 55.843 190.536C57.2745 189.725 58.4411 188.442 59.6492 187.284C60.2449 186.713 60.6173 185.944 60.1622 185.042C46.9233 190.718 25.9397 191.016 11.2032 185.729H11.1949ZM36.5804 188.31C39.2944 188.749 39.5178 188.649 40.4942 186.44C40.9244 185.464 41.2389 184.438 41.6691 183.461C41.9091 182.915 42.1904 182.344 42.5959 181.922C45.6987 178.662 48.8347 175.444 51.9458 172.2C52.2354 171.894 52.4588 171.53 52.856 170.992C47.3701 170.404 42.2318 169.238 36.7707 168.907C36.9693 170.148 37.0521 171.058 37.2589 171.935C37.954 174.815 38.7069 177.686 39.3854 180.565C39.493 181.029 39.4351 181.6 39.253 182.046C38.4008 184.148 37.4823 186.217 36.5804 188.31V188.31ZM41.0734 188.111C41.363 188.178 41.5781 188.277 41.7933 188.269C46.46 188.045 51.0687 187.433 55.5369 186.043C56.9021 185.621 58.2591 184.992 59.4506 184.206C60.9896 183.205 60.8903 182.022 59.3513 180.971C58.979 180.714 58.5487 180.541 58.135 180.342C55.2804 178.968 52.2023 178.439 49.0995 177.992C48.1645 177.86 47.5191 178.182 46.8654 178.819C44.2424 181.401 41.8512 184.132 41.0651 188.103L41.0734 188.111ZM30.4078 185.422C30.2754 182.758 29.4397 178.803 28.604 177.529C28.7529 178.968 28.844 180.003 28.9598 181.037C29.0674 182.022 29.2908 183.015 29.2577 183.991C29.2411 184.479 28.8522 185.249 28.4633 185.373C27.4125 185.712 26.2707 185.778 25.1205 185.968C24.7482 184.479 24.4503 183.155 24.078 181.856C23.7387 180.656 24.0283 179.167 22.2328 177.951C22.3404 179.059 22.3486 179.688 22.4728 180.301C22.7458 181.724 23.1181 183.13 23.3664 184.554C23.5898 185.877 23.3333 186.208 22.0342 186.366C21.0578 186.49 20.0815 186.515 19.0637 186.589C18.3522 184.214 17.6571 181.906 16.9372 179.531C14.9018 179.928 13.0731 180.458 11.5507 181.674C10.2102 182.75 10.1937 183.941 11.6417 184.81C12.9325 185.588 14.3722 186.233 15.8285 186.589C22.2411 188.161 28.7695 188.658 35.5048 188.567C36.2412 186.804 36.8949 185.025 37.7306 183.337C38.7897 181.186 38.3925 179.241 37.1927 177.206C36.3736 177.256 35.571 177.305 34.6443 177.363C34.7601 178.282 34.8511 178.952 34.9339 179.63C35.0828 180.996 35.2814 182.361 35.3558 183.726C35.422 185.042 35.0993 185.356 33.8003 185.406C32.675 185.447 31.5414 185.414 30.4161 185.414L30.4078 185.422ZM34.6277 184.338C34.1147 178.844 33.4941 173.665 31.8393 168.609C31.1773 168.683 30.805 168.717 30.4409 168.774C30.0106 168.849 29.5887 168.956 28.9764 169.089C29.7376 174.26 30.474 179.283 31.2187 184.33H34.636L34.6277 184.338ZM28.604 184.338C28.0827 180.847 27.6525 177.62 27.1064 174.409C26.7837 172.548 26.2458 172.208 24.3014 172.208C23.8628 172.208 23.416 172.266 22.7375 172.316C23.7139 176.602 24.6654 180.739 25.6253 184.959C26.734 184.727 27.5284 184.562 28.604 184.338V184.338ZM17.1524 175.75C17.5495 179.059 18.4845 182.278 19.6429 185.571C20.7186 185.464 21.5957 185.373 22.7458 185.257C22.0425 182.32 21.455 179.581 20.7269 176.883C20.1063 174.591 19.6347 174.467 17.1524 175.758V175.75ZM52.161 170.206C52.1858 170.049 52.2106 169.892 52.2354 169.734C47.5356 168.435 42.6951 168.104 37.8712 167.6C37.8464 167.782 37.8133 167.964 37.7885 168.137C42.5793 168.824 47.3701 169.511 52.161 170.198V170.206Z" fill="black"/>
<path d="M212.045 13.3003C209.207 16.3618 206.344 19.4067 203.531 22.5096C201.438 24.8181 199.427 27.1929 197.309 29.609C198.558 24.2389 199.783 18.9848 201.007 13.7306C200.635 14.6407 200.188 15.5261 199.923 16.4611C198.972 19.8453 198.087 23.246 197.168 26.6302C196.986 27.3004 196.87 28.0451 196.068 28.5829C195.364 25.2318 194.719 22.1042 194.04 18.9848C193.387 15.9812 192.534 11.7282 191.856 8.69152C191.839 8.62533 191.831 8.55913 191.815 8.50121C191.798 8.55085 191.781 8.6005 191.773 8.65842C191.508 9.69271 191.69 11.7447 191.864 12.5804C193.031 18.2566 194.264 23.9328 195.397 29.6255C195.571 30.4778 195.778 31.2473 196.192 31.9506C196.399 32.3312 196.663 32.6787 197.011 33.018C197.996 33.9778 198.74 35.1528 198.293 36.8821C197.185 36.9896 196.101 37.0972 194.719 37.2379C195.439 38.4045 196.018 39.3395 196.672 40.3904C197.317 39.9105 197.78 39.5629 198.492 39.0334C198.144 41.5653 197.077 43.4519 195.704 45.1895C195.563 45.3632 195.199 45.3549 194.917 45.4211C194.909 44.5854 194.735 43.8242 193.627 43.2036C193.122 44.6268 192.675 45.901 192.228 47.1753C192.923 47.407 193.312 47.5311 193.527 47.6056C192.427 49.7817 191.368 51.8503 190.003 54.5312C189.539 53.6044 189.142 52.8101 188.745 52.0158C188.555 52.1399 188.364 52.2557 188.174 52.3798C187.719 54.0347 187.016 55.673 187.901 57.5927C188.828 57.1624 189.614 56.79 190.416 56.4094C191.856 60.1742 192.013 60.4059 193.536 61.1837C192.981 60.0005 192.443 58.8421 191.914 57.6754C191.897 57.6257 192.063 57.4934 192.146 57.4023C192.675 57.7664 193.196 58.1305 193.908 58.6269C194.711 56.608 195.033 54.7546 194.727 52.5619C193.651 53.108 192.783 53.5465 191.666 54.1009C192.195 51.4118 193.296 49.4838 195.116 47.8372C195.414 48.4247 195.67 48.946 195.977 49.5418C197.4 48.6895 197.995 47.4732 198.442 46.05C197.813 45.8762 197.342 45.7521 197.044 45.6694C198.037 43.1374 198.997 40.6965 199.973 38.2059C200.321 38.2308 200.817 38.2639 201.62 38.3052C201.305 37.0062 201.049 35.9305 200.776 34.83C200.188 34.8631 199.766 34.888 199.427 34.9045C198.55 33.6799 197.722 32.5298 196.837 31.2969C201.131 26.4482 205.409 21.6656 209.613 16.8334C210.548 15.7578 211.243 14.4835 212.045 13.3003V13.3003ZM196.928 39.5878C196.548 38.9424 196.291 38.5038 195.91 37.8502C196.73 37.8005 197.284 37.7757 198.07 37.726C197.665 38.3963 197.375 38.8679 196.928 39.5878ZM188.356 56.517C188.439 55.4661 188.488 54.9118 188.555 54.1092C189.159 54.5063 189.564 54.7794 190.16 55.1766C189.622 55.5737 189.2 55.8881 188.356 56.517ZM193.858 54.0678C193.776 55.2924 193.718 56.1612 193.66 57.0383C193.486 57.121 193.312 57.2038 193.139 57.2948C192.675 56.7652 192.212 56.2357 191.591 55.5323C192.394 55.0111 192.99 54.6222 193.858 54.0678ZM193.139 46.5795C193.387 46.0003 193.61 45.4625 193.85 44.9081C194.28 45.1398 194.57 45.297 194.86 45.446C194.678 46.2237 194.313 46.7864 193.139 46.5795V46.5795Z" fill="black"/>
<path d="M212.5 12.8287C212.352 12.9859 212.194 13.1431 212.045 13.3003C209.207 16.3618 206.344 19.4067 203.531 22.5096C201.438 24.8181 199.427 27.1929 197.309 29.609C198.558 24.2389 199.783 18.9848 201.007 13.7306C201.082 13.3582 201.165 12.9859 201.247 12.6053C201.661 11.993 201.984 11.4055 202.985 11.5379C205.534 11.8523 208.099 11.993 210.647 12.266C211.276 12.3322 211.88 12.6301 212.5 12.8287V12.8287Z" fill="#FDF9F3"/>
<path d="M152.205 178.249C152.909 177.636 153.331 176.478 154.605 176.908C155.656 177.264 156.202 178.058 156.31 179.142C156.384 179.895 156.417 180.665 156.409 181.418C156.401 182.328 156.318 183.246 156.252 184.471C157.575 184.554 158.817 184.628 160.314 184.719C160.314 185.679 160.455 186.572 160.281 187.408C159.942 189.063 159.503 189.361 157.807 189.518C157.278 189.568 156.74 189.584 156.202 189.617C155.755 189.642 155.308 189.684 154.779 189.717C154.357 190.751 154.034 191.769 153.546 192.704C152.95 193.846 152.313 194.996 151.51 195.997C150.476 197.279 149.467 197.255 148.135 196.361C147.555 195.972 146.819 195.658 146.124 195.6C140.712 195.194 135.293 194.863 129.881 194.491C127.498 194.326 127.217 194.044 126.787 191.694C126.663 191.032 126.497 190.37 126.34 189.642H121.516C120.689 188.509 121.135 187.342 121.442 186.299C121.566 185.877 122.468 185.538 123.063 185.422C124.321 185.182 125.612 185.116 126.82 184.992C127.523 183.089 128.152 181.384 128.797 179.639C131.553 179.407 134.134 179.109 136.716 178.985C141.3 178.762 145.884 178.637 150.468 178.455C151.064 178.431 151.659 178.265 152.255 178.174C151.32 181.161 150.286 184.115 149.491 187.135C148.954 189.187 148.697 191.33 148.449 193.448C148.341 194.375 148.118 195.658 149.285 196.063C150.609 196.526 151.097 195.227 151.684 194.4C152.652 193.026 153.248 191.487 153.546 189.692C152.694 189.593 151.957 189.51 151.171 189.419C150.501 188.145 151.006 186.961 151.469 185.877C152.164 184.231 154.067 185.48 155.292 184.405C155.424 183.37 155.656 182.171 155.722 180.963C155.879 177.86 155.044 177.239 152.197 178.249H152.205ZM147.481 194.963C147.762 189.46 149.334 184.405 151.337 179.208C150.518 179.208 150.071 179.2 149.624 179.208C146.265 179.308 142.897 179.382 139.538 179.531C136.716 179.655 133.894 179.92 131.065 180.036C129.526 180.102 128.715 180.83 128.334 182.286C127.573 185.182 126.977 188.087 127.258 191.107C127.482 193.498 127.614 193.73 129.939 193.92C133.365 194.201 136.799 194.367 140.233 194.574C142.582 194.714 144.924 194.822 147.464 194.954L147.481 194.963ZM151.585 188.699C153.637 188.79 155.292 188.939 156.938 188.931C159.288 188.914 159.801 188.211 159.545 185.364C157.112 185.505 154.663 185.646 152.106 185.795C151.924 186.804 151.783 187.59 151.577 188.699H151.585ZM121.855 188.823C125.637 189.46 127.407 188.848 126.58 185.695C125.124 185.886 123.643 186.076 122.079 186.275C121.996 187.243 121.922 187.987 121.847 188.823H121.855Z" fill="black"/>
<path d="M145.073 46.894C149.037 45.6197 150.907 46.2403 153.447 49.5831C154.682 51.2104 155.298 52.7439 155.292 54.1836C142.699 56.0288 129.956 55.7144 117.313 56.5501C115.989 50.8243 119.58 47.0595 125.455 48.0276C125.711 47.3904 126.067 46.7368 126.266 46.0335C127.499 41.5322 131.661 39.3892 136.154 39.4306C140.258 39.4719 143.493 42.1362 144.808 46.3479C144.85 46.4885 144.941 46.6127 145.073 46.8857V46.894ZM125.984 48.9047C123.783 48.6895 121.541 47.7628 119.82 49.6576C118.298 51.3373 117.412 53.3148 117.917 55.8964C130.072 55.1517 142.152 54.4153 154.498 53.6706C154.2 51.1387 152.669 49.5583 151.163 48.2096C149.078 46.3396 146.67 47.0595 144.353 48.4827C143.998 47.1588 143.849 46.0086 143.394 44.9992C141.896 41.706 139.099 40.2911 135.649 40.3159C131.983 40.3407 128.922 41.6729 127.333 45.2805C126.82 46.4555 126.431 47.68 125.976 48.9129L125.984 48.9047Z" fill="black"/>
<path d="M47.726 78.1874C51.4825 79.0396 52.8974 81.0255 51.8135 83.9794C49.8773 83.9794 47.8997 83.9546 45.9139 83.9794C40.337 84.0621 34.7519 84.2111 29.175 84.2525C26.1962 84.269 23.2175 84.0704 20.2387 84.0622C19.1382 84.0622 18.5839 83.516 18.1205 82.6555C16.6229 79.8505 17.3096 76.0361 19.8002 73.8682C22.9444 71.1377 26.4941 70.815 30.5485 72.2961C33.4859 70.1779 36.8701 69.8883 40.3784 71.2535C43.7047 72.5443 46.3524 74.6046 47.726 78.1709V78.1874ZM30.4492 73.5703C28.3145 72.0561 26.1135 72.0809 23.9125 72.594C19.6347 73.6034 17.2103 77.815 18.5177 81.704C18.9148 82.8872 19.5271 83.4995 20.8345 83.3919C22.0508 83.2926 23.2837 83.3092 24.5 83.3009C32.9894 83.2595 41.4706 83.2347 49.96 83.1933C50.3986 83.1933 50.8454 83.0609 51.3418 82.9865C51.3667 79.8091 49.1988 79.2217 46.8489 79.0479C45.8891 75.2748 43.2413 73.3552 40.0143 72.0396C36.6053 70.6495 33.428 71.055 30.4409 73.5703H30.4492Z" fill="black"/>
<path d="M152.206 178.249C155.052 177.239 155.888 177.86 155.731 180.963C155.673 182.171 155.433 183.37 155.3 184.405C154.076 185.48 152.181 184.231 151.478 185.877C151.014 186.961 150.509 188.145 151.18 189.419C151.966 189.51 152.702 189.593 153.554 189.692C153.257 191.487 152.661 193.026 151.693 194.4C151.105 195.236 150.609 196.535 149.293 196.063C148.126 195.649 148.35 194.375 148.457 193.448C148.697 191.33 148.962 189.195 149.5 187.135C150.286 184.115 151.329 181.161 152.264 178.174L152.206 178.24V178.249Z" fill="white"/>
<path d="M109.179 38.5866C99.7217 40.3986 90.2558 39.1327 80.9307 39.8525C79.8137 36.5759 80.6577 35.1941 84.2156 34.2674C85.0017 30.3454 87.6246 28.1196 91.4639 27.4824C95.4025 26.8288 99.8209 28.8643 101.997 31.992C106.962 30.635 110.445 33.6965 109.179 38.5866ZM85.1423 35.1279C81.7333 35.7071 81.27 36.1622 81.3941 38.992C90.3386 38.2142 99.3493 39.3395 108.244 37.9743C109.287 36.4932 108.625 35.2024 107.748 34.1681C106.043 32.174 103.884 32.0333 101.633 33.291C100.955 32.2815 100.566 31.1231 99.7547 30.5853C96.8836 28.6409 93.6649 27.5817 90.2393 28.6905C87.2109 29.6669 85.1341 31.6941 85.1423 35.1279V35.1279Z" fill="black"/>
<path d="M197.764 4.98463C198.161 4.77777 198.55 4.56263 198.947 4.35577C199.576 3.8014 200.205 3.24703 200.834 2.69266L200.776 2.7423C201.628 2.3865 202.472 2.0307 203.515 1.59216C203.515 2.63472 203.515 3.50354 203.515 4.37234C203.101 5.91136 202.679 7.45037 202.265 8.98939C201.959 9.49412 201.653 10.0071 201.289 10.6194C198.476 10.0402 195.712 9.52723 193.163 8.35228C194.777 7.17733 196.275 6.07684 197.772 4.98463H197.764Z" fill="#FDF9F3"/>
<path d="M201.247 12.6053C201.165 12.9859 201.082 13.3582 201.007 13.7306C200.635 14.6407 200.188 15.5261 199.924 16.4611C198.972 19.8453 198.087 23.246 197.168 26.6302C196.986 27.3004 196.87 28.0451 196.068 28.5829C195.364 25.2318 194.719 22.1042 194.041 18.9848C193.387 15.9812 192.535 11.7282 191.856 8.69153C192.278 8.86529 192.684 9.04733 193.106 9.16317C195.306 9.80029 197.507 10.4291 199.725 11.0083C200.61 11.24 201.355 11.48 201.247 12.6053V12.6053Z" fill="#FDF9F3"/>
<path d="M212.5 12.8287C211.88 12.6301 211.276 12.3322 210.647 12.266C208.098 11.993 205.533 11.8523 202.985 11.5379C201.984 11.4055 201.661 11.993 201.247 12.6053C201.355 11.48 200.61 11.24 199.725 11.0083C197.507 10.4291 195.306 9.80029 193.105 9.16317C192.683 9.04733 192.278 8.86529 191.856 8.69153C191.831 8.69153 191.798 8.6667 191.773 8.65842C191.724 8.64187 191.674 8.61704 191.624 8.6005C192.394 7.50829 195.687 5.58865 197.764 4.97635C196.266 6.06856 194.769 7.16077 193.155 8.34399C195.704 9.51895 198.467 10.032 201.28 10.6112C201.644 9.9906 201.951 9.48586 202.257 8.98113V10.9504C205.715 11.2483 208.959 11.5213 212.699 11.844C210.928 9.81683 209.546 8.21161 208.14 6.63949C206.775 5.11702 205.873 3.1891 204.267 1.66663C203.953 2.77538 203.73 3.56972 203.506 4.36406V1.5839C202.472 2.01417 201.62 2.36995 200.767 2.73402C201.628 1.52597 202.786 0.756454 204.441 0.193802C204.615 0.45858 204.805 0.789558 205.037 1.07916C207.676 4.31441 210.316 7.54138 212.964 10.7684C213.907 11.9102 213.882 12.0343 212.5 12.8287V12.8287Z" fill="black"/>
<path d="M189.233 36.1291C190.152 35.5334 191.078 34.9376 191.997 34.3501C192.096 34.5073 192.195 34.6646 192.286 34.8218C191.318 35.3182 190.358 35.8147 189.39 36.3112C189.332 36.2532 189.283 36.187 189.225 36.1291H189.233Z" fill="black"/>
<path d="M191.881 34.7721C193.031 34.4494 194.057 33.8206 195.075 33.1917C195.373 33.0097 195.679 32.8194 195.886 32.5463C196.117 32.2402 196.225 31.8596 196.316 31.4872" stroke="black" stroke-width="0.413715" stroke-miterlimit="10"/>
<path d="M200.825 2.68438C200.197 3.23875 199.568 3.79314 198.939 4.34752C199.568 3.79314 200.197 3.23875 200.825 2.68438Z" fill="black"/>
<path d="M132.86 117.259V124.25C127.838 126.294 122.873 128.255 117.975 130.349C115.311 131.482 112.729 132.806 110.156 134.138C108.757 134.858 107.814 136.05 107.276 137.564C106.714 139.144 105.894 140.65 105.481 142.264C104.496 146.153 106.283 149.082 110.172 150.099C114.119 151.134 118.082 150.745 121.988 149.884C124.967 149.231 127.887 148.304 130.825 147.485C131.536 147.286 132.24 147.054 133.001 146.823C133.605 162.395 126.067 174.467 109.419 177.934C109.047 178.009 108.658 178.025 108.277 178.042C104.231 178.174 100.185 178.34 96.1307 178.431C93.7725 178.48 91.4061 178.455 89.0396 178.397C85.3741 178.306 81.7003 178.24 78.0431 178.017C76.4627 177.918 74.8492 177.62 73.335 177.132C63.2238 173.888 56.2899 167.484 53.7497 156.917C53.3112 155.08 53.2119 153.136 53.154 151.233C52.9719 145.118 52.7816 139.012 52.7816 132.897C52.7816 127.792 53.0464 122.687 53.2036 117.474C53.5263 117.523 53.849 117.507 54.089 117.631C62.0488 121.917 70.6458 123.762 79.5655 124.449C81.9237 124.631 84.2736 125.003 86.6318 125.061C89.7347 125.136 92.8458 124.979 95.9569 124.954C97.4049 124.945 98.8529 125.103 100.293 125.012C106.697 124.581 113.093 124.068 119.324 122.414C123.535 121.297 127.705 120.047 131.528 117.863C131.843 117.681 132.198 117.565 132.844 117.283L132.86 117.259Z" fill="white"/>
<path d="M119.531 94.2478C121.227 103.06 120.995 111.897 120.887 120.974C118.711 121.487 116.601 122.116 114.45 122.48C104.769 124.126 95.0137 124.995 85.2252 124.176C76.3221 123.44 67.4272 122.356 59.0453 118.889C57.498 118.252 56.0418 117.358 54.4779 116.762C53.063 116.224 52.79 115.182 52.6989 113.899C52.3266 108.604 52.4921 103.35 53.7829 98.1698C54.3124 96.0351 55.0075 93.9334 55.6694 91.6662C66.2192 94.5043 76.7689 96.0185 87.4096 96.8459C98.1497 97.6899 108.724 95.8282 119.531 94.2478V94.2478Z" fill="white"/>
<path d="M115.137 72.8422C120.573 76.3836 124.453 80.8186 127.565 85.9818C128.127 86.9168 128.011 87.6698 127.25 88.4393C125.223 90.483 122.956 92.022 120.085 92.7171C112.721 94.5043 105.257 95.6793 97.7027 96.1509C90.5123 96.606 83.3468 96.0268 76.2557 94.7691C70.1741 93.6934 64.1255 92.3861 58.0688 91.1698C57.5558 91.0705 57.0593 90.8553 56.2484 90.5906C59.1113 83.8801 63.2981 78.4356 69.2142 73.9923C70.8691 78.0633 74.4353 79.2548 78.0346 80.256C84.6044 82.0763 91.3315 82.159 98.0502 81.464C100.847 81.1744 103.619 80.5125 106.349 79.8257C107.888 79.4451 109.369 78.7583 110.809 78.0633C112.936 77.0373 114.723 75.6472 115.137 72.8339V72.8422Z" fill="white"/>
<path d="M152.024 117.945C153.819 122.968 155.093 127.742 155.482 132.723C155.581 133.956 155.3 134.866 154.076 135.545C143.766 141.304 133.166 146.368 121.516 148.792C118.993 149.322 116.37 149.355 113.788 149.595C113.407 149.628 113.027 149.595 112.646 149.562C107.218 149.123 105.092 145.871 106.821 140.7C107.748 137.928 109.221 135.594 111.959 134.287C113.474 133.559 114.938 132.707 116.502 132.103C123.337 129.455 130.146 126.758 137.055 124.317C142.103 122.538 147.167 120.858 152.015 117.937L152.024 117.945Z" fill="white"/>
<path d="M95.9156 66.6282C98.8778 66.4875 101.674 66.9509 104.331 67.8611C107.276 68.8705 110.147 70.1365 112.969 71.4604C114.475 72.1637 114.756 73.3883 113.68 74.6377C112.704 75.7547 111.471 76.8718 110.123 77.4013C107.367 78.477 104.504 79.412 101.6 79.9415C93.9297 81.3316 86.2429 81.2737 78.6388 79.3541C77.0253 78.9486 75.4449 78.3115 73.9225 77.6165C73.0454 77.2193 72.2097 76.5905 71.5312 75.8954C70.0666 74.3895 70.2735 73.1732 72.069 72.0313C76.8019 69.036 81.9899 67.3729 87.5254 66.6613C88.7417 66.5041 89.6354 66.8351 90.2394 67.8693C90.6945 68.6554 91.0834 69.4911 91.4971 70.302C91.7039 70.7074 91.8115 71.1791 92.0846 71.5348C93.1354 72.9084 94.4345 72.7594 94.9557 71.1211C95.3943 69.7559 95.5763 68.3079 95.9238 66.6365L95.9156 66.6282Z" fill="white"/>
<path d="M120.631 94.3967C123.568 92.5185 126.241 90.8057 129.071 89.0019C129.36 89.6059 129.757 90.3175 130.064 91.0705C133.117 98.658 134.044 106.535 133.274 114.652C133.183 115.612 132.753 116.125 131.942 116.572C128.856 118.276 125.604 119.526 121.955 120.577C121.64 111.74 122.567 102.977 120.631 94.3967V94.3967Z" fill="#C8E2E2"/>
<path d="M92.2749 183.511C94.5007 183.726 96.47 183.95 98.4392 184.098C102.916 184.429 107.268 183.61 111.612 182.7C112.506 182.51 112.936 182.005 113.184 181.244C113.54 180.143 114.376 179.936 115.36 180.052C117.139 180.259 118.744 180.88 120.143 182.08C119.613 185.546 117.354 187.681 114.591 189.27C109.088 192.439 103.172 193.573 96.9168 192.149C95.626 191.86 94.4014 191.057 93.2761 190.304C92.7796 189.973 92.3659 189.187 92.3163 188.575C92.1839 186.928 92.2749 185.257 92.2749 183.511V183.511Z" fill="white"/>
<path d="M91.0171 183.097V190.312C91.1247 190.18 91.0502 190.379 90.9344 190.403C86.1518 191.338 81.4355 191.835 77.0584 188.831C74.5844 187.135 73.5335 184.636 74.2534 181.426C79.6069 182.998 85.01 184.264 91.0088 183.097H91.0171Z" fill="white"/>
<path d="M81.0548 60.0418C82.9083 60.2239 84.6045 60.3976 86.3007 60.5631C86.3669 60.4225 86.4414 60.2735 86.5076 60.1329C85.3657 59.1151 84.0915 58.205 83.1068 57.0466C82.056 55.8137 81.6588 54.2416 81.7581 52.5702C91.9107 53.8858 95.8658 64.8906 93.5242 71.5845C93.0691 70.997 92.705 70.5999 92.432 70.153C91.77 69.0526 91.2487 67.8528 90.5041 66.8102C89.3043 65.1554 87.6825 64.1211 85.5974 63.7239C83.5205 63.3267 81.8409 62.2759 81.0548 60.0336V60.0418Z" fill="white"/>
<path d="M156.88 116.2C156.756 116.977 156.649 117.656 156.508 118.492C158.155 117.887 157.451 116.266 158.271 115.174C158.924 115.596 159.619 115.91 160.132 116.398C163.252 119.385 163.955 125.012 161.721 128.702C160.521 130.696 159.727 131.201 156.864 131.697C156.682 131.027 156.483 130.34 156.301 129.637C155.614 126.981 155.002 124.3 154.216 121.677C153.463 119.178 154.34 117.077 156.88 116.183V116.2Z" fill="white"/>
<path d="M112.696 178.629C112.323 181.401 112.017 181.658 109.427 182.212C105.059 183.139 100.657 183.271 96.2299 183.056C95.1791 183.006 94.1117 182.783 93.1023 182.468C91.4639 181.947 91.4391 181.798 91.8115 179.754C98.7784 179.382 105.754 179.01 112.704 178.637L112.696 178.629Z" fill="white"/>
<path d="M73.0702 178.505C78.8126 178.902 84.3398 179.283 90.0573 179.68C90.1318 180.441 90.2063 181.153 90.2807 181.939C89.5857 182.08 89.0727 182.253 88.5597 182.27C84.6046 182.369 80.6577 182.344 76.7771 181.36C75.0891 180.929 74.1045 179.779 73.0702 178.505V178.505Z" fill="white"/>
<path d="M11.1949 185.729C25.9315 191.008 46.9151 190.718 60.154 185.042C60.6091 185.944 60.245 186.713 59.641 187.284C58.4329 188.442 57.258 189.725 55.8348 190.536C53.0546 192.108 50.1421 193.324 46.7744 193.324C42.4966 193.324 38.2271 193.697 33.9493 193.846C28.1324 194.052 22.5721 192.944 17.1855 190.726C14.8439 189.758 12.9573 188.327 11.4266 186.357C11.3025 186.2 11.2777 185.977 11.1866 185.729H11.1949Z" fill="white"/>
<path d="M36.5804 188.31C37.4823 186.217 38.4008 184.148 39.253 182.046C39.4351 181.6 39.493 181.029 39.3854 180.565C38.7069 177.678 37.9457 174.815 37.2589 171.935C37.0438 171.058 36.9611 170.148 36.7708 168.907C42.2318 169.238 47.3701 170.404 52.856 170.992C52.4588 171.53 52.2354 171.894 51.9458 172.2C48.8347 175.444 45.6905 178.662 42.5959 181.922C42.1904 182.344 41.9091 182.915 41.6691 183.461C41.2389 184.438 40.9245 185.464 40.4942 186.44C39.5178 188.649 39.2944 188.749 36.5804 188.31V188.31Z" fill="white"/>
<path d="M41.0734 188.111C41.8594 184.14 44.2424 181.409 46.8737 178.828C47.519 178.191 48.1644 177.868 49.1077 178C52.2106 178.447 55.2886 178.968 58.1432 180.35C58.557 180.549 58.9872 180.723 59.3596 180.979C60.8986 182.03 60.9979 183.213 59.4589 184.214C58.2591 184.992 56.9104 185.621 55.5451 186.051C51.077 187.441 46.4599 188.054 41.8015 188.277C41.5864 188.285 41.363 188.186 41.0816 188.12L41.0734 188.111Z" fill="white"/>
<path d="M30.3995 185.422C31.5165 185.422 32.6501 185.455 33.7836 185.414C35.091 185.364 35.4137 185.042 35.3392 183.734C35.2647 182.361 35.0662 181.004 34.9172 179.639C34.8428 178.96 34.7517 178.29 34.6276 177.371C35.5543 177.314 36.3487 177.264 37.1761 177.214C38.3759 179.25 38.7731 181.186 37.7139 183.346C36.8782 185.033 36.2328 186.821 35.4882 188.575C28.7529 188.666 22.2244 188.169 15.8119 186.597C14.3556 186.242 12.9159 185.596 11.6251 184.818C10.1688 183.941 10.1936 182.75 11.534 181.682C13.0565 180.466 14.8851 179.945 16.9206 179.539C17.6322 181.914 18.3272 184.223 19.0471 186.597C20.0648 186.523 21.0495 186.49 22.0176 186.374C23.3084 186.217 23.5732 185.886 23.3497 184.562C23.1098 183.13 22.7374 181.732 22.4561 180.309C22.3403 179.705 22.3237 179.076 22.2162 177.959C24.0117 179.175 23.7221 180.656 24.0613 181.864C24.4337 183.172 24.7316 184.496 25.1039 185.977C26.254 185.795 27.3959 185.728 28.4467 185.381C28.8356 185.257 29.2245 184.487 29.241 183.999C29.2741 183.023 29.0507 182.03 28.9432 181.045C28.8273 180.011 28.728 178.977 28.5874 177.537C29.4314 178.811 30.2671 182.766 30.3912 185.431L30.3995 185.422Z" fill="white"/>
<path d="M34.6195 184.338H31.2022C30.4575 179.291 29.7211 174.269 28.9598 169.097C29.5721 168.965 29.9941 168.857 30.4244 168.783C30.7885 168.717 31.1608 168.692 31.8227 168.617C33.4776 173.673 34.0982 178.853 34.6112 184.347L34.6195 184.338Z" fill="#F0C3BA"/>
<path d="M28.5957 184.338C27.5201 184.562 26.7257 184.727 25.617 184.959C24.6489 180.739 23.7056 176.602 22.7292 172.316C23.4077 172.266 23.8546 172.208 24.2931 172.208C26.2376 172.208 26.7754 172.548 27.0981 174.409C27.6525 177.62 28.0744 180.847 28.5957 184.338V184.338Z" fill="#F9E6A6"/>
<path d="M17.1523 175.75C19.6346 174.459 20.1063 174.583 20.7268 176.875C21.455 179.572 22.0507 182.311 22.7458 185.249C21.5956 185.364 20.7186 185.455 19.6429 185.563C18.4762 182.278 17.5495 179.051 17.1523 175.741V175.75Z" fill="#C8E2E2"/>
<path d="M52.161 170.206C47.3702 169.519 42.5794 168.832 37.7886 168.146C37.8134 167.964 37.8465 167.782 37.8713 167.608C42.687 168.113 47.5357 168.435 52.2355 169.743C52.2107 169.9 52.1859 170.057 52.161 170.214V170.206Z" fill="white"/>
<path d="M193.139 57.2948C192.675 56.7652 192.212 56.2439 191.583 55.5323C192.386 55.0111 192.99 54.6222 193.85 54.0595C193.767 55.2924 193.71 56.1612 193.652 57.03C193.478 57.1127 193.304 57.2037 193.13 57.2865L193.139 57.2948Z" fill="white"/>
<path d="M195.911 37.8584C196.73 37.8088 197.284 37.784 198.07 37.7343C197.665 38.4046 197.375 38.8762 196.928 39.5961C196.548 38.9507 196.291 38.5038 195.911 37.8584Z" fill="white"/>
<path d="M188.348 56.5253C188.439 55.4744 188.488 54.9201 188.555 54.1174C189.159 54.5146 189.564 54.7877 190.16 55.1848C189.622 55.5903 189.2 55.9047 188.356 56.5336L188.348 56.5253Z" fill="white"/>
<path d="M194.868 45.4294C194.686 46.2238 194.322 46.7947 193.139 46.5878C193.387 46.0003 193.619 45.4708 193.85 44.9164C194.305 45.1564 194.611 45.3219 194.918 45.4791L194.868 45.4294V45.4294Z" fill="white"/>
<path d="M147.481 194.963C144.941 194.83 142.591 194.714 140.249 194.582C136.815 194.383 133.381 194.21 129.956 193.928C127.631 193.738 127.498 193.506 127.275 191.115C126.994 188.095 127.581 185.191 128.351 182.295C128.731 180.847 129.542 180.11 131.081 180.044C133.903 179.928 136.724 179.663 139.554 179.539C142.913 179.39 146.281 179.316 149.64 179.217C150.087 179.2 150.534 179.217 151.353 179.217C149.351 184.413 147.779 189.477 147.497 194.971L147.481 194.963Z" fill="white"/>
<path d="M151.585 188.699C151.784 187.59 151.932 186.804 152.115 185.795C154.671 185.646 157.112 185.505 159.553 185.364C159.81 188.211 159.297 188.906 156.947 188.931C155.292 188.947 153.645 188.798 151.593 188.699H151.585Z" fill="white"/>
<path d="M121.855 188.823C121.93 187.979 121.996 187.243 122.087 186.275C123.651 186.076 125.124 185.886 126.588 185.695C127.416 188.848 125.645 189.46 121.864 188.823H121.855Z" fill="white"/>
<path d="M125.984 48.9046C126.439 47.6718 126.828 46.4472 127.341 45.2722C128.93 41.6646 131.991 40.3242 135.657 40.3076C139.107 40.2911 141.904 41.6977 143.402 44.9909C143.857 46.0003 144.006 47.1422 144.361 48.4744C146.678 47.0595 149.086 46.3396 151.171 48.2013C152.677 49.55 154.208 51.1304 154.506 53.6624C142.161 54.4153 130.08 55.1517 117.925 55.8881C117.412 53.3065 118.306 51.329 119.828 49.6493C121.541 47.7545 123.783 48.6729 125.993 48.8964L125.984 48.9046Z" fill="#EEEFFC"/>
<path d="M30.4575 73.5703C33.4446 71.0632 36.6302 70.6578 40.0309 72.0396C43.2579 73.3552 45.8974 75.2749 46.8655 79.0479C49.2154 79.2217 51.3832 79.8092 51.3584 82.9865C50.862 83.061 50.4151 83.1933 49.9766 83.1933C41.4872 83.2347 33.006 83.2595 24.5166 83.3009C23.292 83.3009 22.0674 83.2927 20.8511 83.3919C19.5354 83.4995 18.9232 82.8789 18.5343 81.704C17.2269 77.8068 19.6513 73.6034 23.9291 72.594C26.1301 72.0727 28.3228 72.0479 30.4658 73.5703H30.4575Z" fill="#EEEFFC"/>
<path d="M85.1424 35.1279C85.1341 31.6858 87.2027 29.6586 90.2394 28.6905C93.6732 27.5817 96.8919 28.6491 99.7548 30.5853C100.557 31.1314 100.955 32.2815 101.633 33.291C103.884 32.0333 106.043 32.1657 107.748 34.1681C108.633 35.2024 109.295 36.4932 108.244 37.9743C99.3494 39.3395 90.347 38.2142 81.3942 38.992C81.27 36.1622 81.7251 35.7071 85.1424 35.1279V35.1279Z" fill="#EEEFFC"/>
<path d="M203.506 4.36406C203.73 3.56972 203.953 2.78366 204.267 1.67491C205.873 3.19738 206.775 5.1253 208.14 6.64777C209.555 8.21989 210.928 9.82511 212.699 11.8523C208.959 11.5296 205.715 11.2566 202.257 10.9587C202.257 10.1312 202.257 9.56031 202.257 8.98939C202.671 7.45037 203.093 5.91136 203.506 4.37234V4.36406Z" fill="#FDF9F3"/>
</g>
<defs>
<clipPath id="clip0_9_498">
<rect width="214" height="197" fill="white"/>
</clipPath>
</defs>
</svg>
