<svg width="210" height="200" viewBox="0 0 210 200" fill="none" xmlns="http://www.w3.org/2000/svg">
<g clip-path="url(#clip0_709_505)">
<rect width="210" height="200" fill="white"/>
<ellipse opacity="0.1" cx="94.8863" cy="90.3937" rx="94.8863" ry="90.3937" transform="matrix(0.996522 0.0833268 0.181643 0.983364 0.242188 -0.217407)" fill="url(#paint0_linear_709_505)"/>
<ellipse opacity="0.05" cx="71.718" cy="84.2783" rx="71.718" ry="84.2783" transform="matrix(0.996522 0.0833268 0.181643 0.983364 26.1909 17.2076)" fill="#122AF5"/>
<g clip-path="url(#clip1_709_505)">
<path d="M193.669 44.38C189.29 45.4531 185.548 48.0665 182.279 51.1343C179.347 53.8865 176.303 57.4215 176.228 61.7013C176.153 65.9811 179.197 69.2131 182.516 71.3214C186.358 73.7706 190.513 75.5633 194.131 78.4039C197.749 81.2445 200.668 84.6658 201.928 89.0593C203.276 93.7557 202.49 98.7678 200.718 103.237C196.988 112.63 189.003 119.056 182.753 126.643C176.503 134.231 171.512 144.495 175.38 154.191C175.679 154.923 176.864 154.62 176.577 153.862C173.122 144.886 177.388 135.317 182.953 128.259C188.517 121.202 195.915 115.117 200.169 106.86C203.999 99.4116 205.134 90.4733 200.119 83.3024C197.898 80.1209 194.867 77.6086 191.648 75.5002C187.905 73.051 183.364 71.435 180.245 68.1526C178.411 66.221 177.189 63.6581 177.538 60.9438C177.887 58.2295 179.409 56.0706 181.119 54.1895C184.574 50.3642 188.991 46.9934 194.043 45.8193C194.942 45.6046 194.567 44.2033 193.657 44.4179L193.669 44.38Z" fill="#231F20"/>
<path d="M110.893 158.786H89.5967V148.257L112.203 142.74L110.893 158.786Z" fill="white" stroke="#231F20" stroke-width="1.26248" stroke-miterlimit="10"/>
<path d="M110.992 185.185C110.992 185.185 78.7302 187.609 74.0892 182.685C69.4483 177.761 89.5965 158.786 89.5965 158.786H110.88L110.992 185.185Z" fill="white"/>
<path d="M111.454 185.614C111.317 185.791 110.843 185.854 110.905 185.829H110.78L110.518 185.879C108.41 186.182 104.829 186.435 102.671 186.637C94.1627 187.078 85.6668 187.684 77.2457 185.803C73.0663 184.882 70.7708 182.294 72.5298 177.938C76.0979 169.959 82.8223 163.988 89.1725 158.344C89.1725 158.344 89.3471 158.18 89.3596 158.168H89.6091H111.516C111.566 167.321 111.516 176.511 111.467 185.614H111.454ZM110.543 184.755C110.406 176.057 110.294 167.447 110.269 158.799L110.893 159.43H89.6091L90.0333 159.266C86.7646 163.104 73.3532 177.105 75.1248 181.587C75.6862 182.256 77.0336 182.698 78.0067 182.963C80.5268 183.632 83.2714 183.91 86.0036 184.149C92.8528 184.68 99.914 184.654 106.788 184.629C107.911 184.591 109.72 184.617 110.83 184.579C110.993 184.553 110.593 184.604 110.543 184.781V184.755Z" fill="#231F20"/>
<path d="M130.019 137.602C130.019 137.602 128.397 151.969 124.217 158.66H107.912L109.346 144.129" fill="white"/>
<path d="M130.019 137.602C130.019 137.602 128.397 151.969 124.217 158.66H107.912L109.346 144.129" stroke="#231F20" stroke-width="1.26248" stroke-miterlimit="10"/>
<path d="M107.912 158.66L122.034 158.799C165.263 179.062 148.42 184.566 148.42 184.566C148.42 184.566 107.7 192.09 104.381 179.642C104.381 179.642 99.9147 175.047 107.899 158.66" fill="white"/>
<path d="M107.911 158.029L122.034 158.168H122.171L122.296 158.231C130.243 161.74 152.3 171.007 152.998 180.652C152.998 183.228 150.965 185.223 148.669 185.917C144.777 186.586 140.909 187.066 136.992 187.445C128.633 188.076 106.838 190.02 103.782 179.819C100.426 174.428 104.43 164.543 107.35 158.395L108.473 158.95C106.913 162.22 105.503 165.591 104.58 169.101C103.881 172.37 102.996 176.347 104.917 179.301C105.491 181.069 106.838 182.395 108.522 183.253C117.318 186.99 127.436 185.538 136.743 184.856C140.573 184.44 144.428 183.91 148.183 183.228L148.008 183.266C148.569 183.064 149.268 182.622 149.655 182.167C154.383 175.602 126.687 162.17 121.759 159.367C123.156 159.518 107.574 159.253 107.886 159.291V158.029H107.911Z" fill="#231F20"/>
<path d="M138.926 128.196C139.9 107.34 139.588 41.2617 96.5963 39.4311C80.59 38.7494 65.1326 46.6399 57.2728 60.9817C56.0003 63.3046 54.8775 65.8675 54.0042 68.6954C52.7317 72.8111 52.6444 77.2298 53.7422 81.396C57.2728 94.8541 66.8417 130.86 70.9961 141.781C70.9961 141.781 72.88 158.66 132.876 136.554C136.356 135.279 138.739 131.984 138.914 128.196H138.926Z" fill="white"/>
<path d="M138.29 128.158C139.276 102.681 136.394 61.4614 113.401 46.2864C97.1825 36.0981 73.7406 41.9939 62.3378 57.0301C56.7112 64.4661 53.1058 74.1367 56.4243 83.3529C60.2169 97.9093 64.0719 112.453 68.1265 126.934C69.5113 131.883 71.0459 136.806 72.6303 141.604C73.1667 143.245 75.0007 144.444 76.635 145.05C79.3547 146.161 82.5609 146.426 85.4927 146.477C92.4792 146.553 99.6652 145.227 106.464 143.662C114.137 141.856 121.847 139.508 129.32 136.933L131.591 136.175C135.246 135.291 138.128 132.034 138.302 128.184L138.29 128.158ZM139.587 128.221C139.488 132.628 136.294 136.529 132.127 137.677L129.869 138.498C122.396 141.288 114.711 143.864 107.001 145.884C100.052 147.689 92.6912 149.229 85.4803 149.33C81.7126 149.381 77.7578 149.027 74.2895 147.449C72.0564 146.313 69.9355 144.659 69.3991 141.957L69.4989 142.361C65.9682 132.83 63.2735 123.197 60.3916 113.501C57.622 103.83 55.0021 94.1345 52.4071 84.426C50.8102 79.3508 50.2488 73.6317 51.8831 68.4429C54.9023 58.2926 61.7889 49.4678 70.7464 44.0518C83.9707 36.0729 101.998 34.7725 115.148 43.5342C139.388 60.6282 140.423 101.091 139.575 128.209L139.587 128.221Z" fill="#231F20"/>
<path d="M126.762 58.3936C126.762 58.3936 91.8551 52.5862 55.8252 89.2613L126.762 58.3936Z" fill="white"/>
<path d="M126.662 59.0122C121.772 59.6308 116.906 59.1511 112.041 60.0222L109.621 60.3757C94.2755 63.1405 79.8037 70.2609 67.5525 79.9442C63.8347 82.7216 59.6928 86.5848 56.2744 89.7158L55.3887 88.8194C57.784 86.4712 60.1294 84.0599 62.5996 81.7874C75.7491 69.9579 91.7554 61.0448 109.184 57.8886C111.592 57.5098 114.299 57.1059 116.719 56.9417C120.075 56.7776 123.531 56.4115 126.85 57.7623L126.65 59.0122H126.662Z" fill="#231F20"/>
<path d="M136.144 84.7416C136.144 84.7416 99.6895 89.034 63.3228 116.758L136.144 84.7416Z" fill="white"/>
<path d="M136.144 84.7416C136.144 84.7416 99.6895 89.034 63.3228 116.758" stroke="#231F20" stroke-width="1.26248" stroke-miterlimit="10"/>
<path d="M109.346 58.0527C109.346 58.0527 119.177 75.4876 120.125 88.2639L109.346 58.0527Z" fill="white"/>
<path d="M109.346 58.0527C109.346 58.0527 119.177 75.4876 120.125 88.2639" stroke="#231F20" stroke-width="1.26248" stroke-miterlimit="10"/>
<path d="M166.472 74.4902C166.472 74.4902 171.675 59.7318 183.714 70.0337C195.753 80.3355 179.172 94.3996 172.223 89.2613" fill="white"/>
<path d="M165.886 74.2756C167.857 68.0642 173.296 63.2667 179.896 66.1578C184.2 68.2031 188.467 71.839 189.091 76.9521C190.301 85.0951 179.122 94.8036 171.849 89.7663L172.585 88.7436C179.659 92.4427 190.014 81.5475 185.797 74.4523C183.015 69.6802 175.679 64.6681 170.764 69.5034C169.192 70.8543 167.969 72.748 167.058 74.6796L165.886 74.2503V74.2756Z" fill="#231F20"/>
<path d="M157.29 101.899C152.624 103.464 147.783 104.398 142.88 104.79C126.25 106.128 88.5362 107.138 122.782 84.4638C122.782 84.4638 156.828 60.1863 166.26 74.6417C168.406 77.9242 169.965 80.7521 171.113 83.1761C174.07 89.4506 170.864 96.7099 163.952 99.4495C161.956 100.245 159.71 101.078 157.277 101.886L157.29 101.899Z" fill="white"/>
<path d="M157.589 102.808C151.301 104.878 144.639 105.61 138.077 105.838C129.93 106.052 121.497 106.532 113.512 104.272C112.851 104.032 111.766 103.616 111.142 103.25C100.251 96.6594 122.695 83.5422 127.835 79.982C136.281 74.8563 145.313 69.7433 155.393 68.8091C161.145 68.3293 165.985 70.6649 168.655 75.9926C171.25 80.386 174.481 85.3349 173.109 90.6752C172.198 94.7152 169.329 97.9976 165.773 99.7904C163.69 100.826 159.785 101.962 157.577 102.808H157.589ZM157.003 101.002C159.548 99.9166 163.503 98.8183 165.811 97.3285C170.289 94.5132 172.435 88.5417 169.99 83.719C168.156 80.285 166.447 76.5607 163.752 73.7327C158.862 69.6675 151.875 71.5865 146.324 73.3414C137.216 76.5102 128.683 81.5223 120.674 87.0014C116.095 90.246 102.945 99.3737 113.949 102.972C121.697 105.282 129.98 104.815 138.015 104.411C144.49 104.045 150.902 103.174 157.015 101.002H157.003Z" fill="#231F20"/>
<path d="M104.393 40.5547C104.393 40.5547 84.4067 34.6842 55.251 65.2615" stroke="#231F20" stroke-width="1.26248" stroke-miterlimit="10"/>
<path d="M74.0896 44.4684C74.0896 44.4684 42.1143 24.6222 20.6561 48.9376C6.78307 64.6555 12.7589 75.0078 18.7223 80.3734C23.9372 85.0572 31.722 85.8021 37.3486 81.6359C41.8773 78.2903 45.7198 71.536 44.6843 58.0527C44.6843 58.0527 52.5316 40.7188 69.9227 46.9934" fill="white"/>
<path d="M73.7653 45.0113C59.1687 37.1081 39.3073 34.1918 25.9084 45.8571C18.2608 52.5988 9.75234 64.1884 15.853 74.4902C19.7953 81.5475 28.9151 85.5622 36.0761 80.8405C40.767 77.8484 42.9128 72.2051 43.6738 66.7638C44.0731 63.8601 44.1354 60.8807 44.0481 57.9138C46.9799 51.9928 52.1074 47.006 58.5823 45.4531C62.4498 44.6073 66.4046 45.1501 70.1224 46.4126L69.6982 47.5994C62.5746 44.8976 54.6899 46.501 49.5 52.2705C47.8158 54.0633 46.3187 56.1464 45.2333 58.3305L45.2832 58.0148V58.0275C46.3437 66.8396 45.4703 77.6212 37.5607 83.1382C26.0955 91.2307 10.4385 80.1461 10.6381 66.928C10.7005 61.3225 13.2206 56.2852 16.4019 51.917C22.0409 43.8624 30.6492 37.6889 40.4052 36.1991C52.2571 34.2928 64.2713 37.8782 74.414 43.9508L73.7653 45.0239V45.0113Z" fill="#231F20"/>
<path d="M120 86.5C118.5 73 110 60 110 59.5C112 57.9 121.833 57.8333 126.5 58C128.9 60.8 133.167 72.1667 135 77.5C132.6 77.1 124 83.3333 120 86.5Z" fill="#5BC3C8" stroke="black"/>
</g>
</g>
<defs>
<linearGradient id="paint0_linear_709_505" x1="94.8863" y1="0" x2="94.8863" y2="180.787" gradientUnits="userSpaceOnUse">
<stop stop-color="#009490"/>
<stop offset="1" stop-color="#009490" stop-opacity="0"/>
</linearGradient>
<clipPath id="clip0_709_505">
<rect width="210" height="200" fill="white"/>
</clipPath>
<clipPath id="clip1_709_505">
<rect width="212" height="177" fill="white" transform="translate(-2 11)"/>
</clipPath>
</defs>
</svg>
