<svg width="210" height="200" viewBox="0 0 210 200" fill="none" xmlns="http://www.w3.org/2000/svg">
<g clip-path="url(#clip0_731_325)">
<rect width="210" height="200" fill="white"/>
<ellipse opacity="0.1" cx="94.8863" cy="90.3937" rx="94.8863" ry="90.3937" transform="matrix(0.996522 0.0833268 0.181643 0.983364 0.242188 -0.217407)" fill="url(#paint0_linear_731_325)"/>
<ellipse opacity="0.05" cx="71.718" cy="84.2783" rx="71.718" ry="84.2783" transform="matrix(0.996522 0.0833268 0.181643 0.983364 26.1909 17.2076)" fill="#122AF5"/>
<g clip-path="url(#clip1_731_325)">
<path d="M126.13 138.12L126.75 159.44H131.9V137.94" fill="white"/>
<path d="M126.63 138.1C127.4 143.19 127.14 148.96 127.27 154.09C127.28 155.87 127.27 157.65 127.24 159.43L126.74 158.94H131.9L131.4 159.44C131.23 157.65 131.11 155.86 131.02 154.07C130.97 148.69 130.15 143.25 131.4 137.95H132.4C133.39 141.5 132.97 145.09 132.98 148.7C132.9 152.29 132.74 155.87 132.4 159.45L132.35 159.95H126.27C125.99 156.24 125.79 152.53 125.65 148.81C125.58 145.67 125.22 141.24 125.62 138.14L126.62 138.11L126.63 138.1Z" fill="#231F20"/>
<path d="M126.13 138.11C145.885 138.11 161.9 132.209 161.9 124.93C161.9 117.651 145.885 111.75 126.13 111.75C106.375 111.75 90.3599 117.651 90.3599 124.93C90.3599 132.209 106.375 138.11 126.13 138.11Z" fill="white" stroke="#231F20" stroke-miterlimit="10"/>
<path d="M89.94 116.79C89.94 116.79 79.52 138.03 126.13 138.11C173.7 138.2 163.54 116.79 163.54 116.79" fill="white"/>
<path d="M90.3901 117.01C82.0301 141.69 137.81 139.09 151.16 134.41C159.05 132.13 166.49 125.85 163.1 117L164 116.57C166.87 123.14 163.42 129.87 157.41 133.09C148.06 138.2 136.98 138.63 126.63 138.78C114.88 138.6 90.6701 137.9 88.5001 122.97C88.2901 120.79 88.6001 118.61 89.5001 116.57L90.4001 117.01H90.3901Z" fill="#231F20"/>
<path d="M126.75 122.75C147.074 122.75 163.55 120.082 163.55 116.79C163.55 113.498 147.074 110.83 126.75 110.83C106.426 110.83 89.9497 113.498 89.9497 116.79C89.9497 120.082 106.426 122.75 126.75 122.75Z" fill="white" stroke="#231F20" stroke-miterlimit="10"/>
<path d="M126.75 159.44L125.98 162.8C125.54 164.72 126.77 166.74 128.73 166.98C128.87 167 129.01 167.01 129.16 167.01C129.32 167.01 129.48 167 129.64 166.98C131.45 166.73 132.64 164.92 132.4 163.1L131.92 159.45H126.76L126.75 159.44Z" fill="white" stroke="#231F20" stroke-miterlimit="10"/>
<path d="M126.13 164.9L101.04 177.27C100.09 177.74 100.43 179.16 101.48 179.16H102.52C102.69 179.16 102.85 179.12 103 179.04L126.74 165.91V178.17C126.74 178.72 127.19 179.17 127.74 179.17H130.85C131.42 179.17 131.87 178.69 131.85 178.12L131.28 166.2L156.27 175.66C156.38 175.7 156.5 175.72 156.62 175.72H157.64C158.76 175.72 159.03 174.15 157.97 173.78L132.42 164.89" fill="white"/>
<path d="M126.13 164.9L101.04 177.27C100.09 177.74 100.43 179.16 101.48 179.16H102.52C102.69 179.16 102.85 179.12 103 179.04L126.74 165.91V178.17C126.74 178.72 127.19 179.17 127.74 179.17H130.85C131.42 179.17 131.87 178.69 131.85 178.12L131.28 166.2L156.27 175.66C156.38 175.7 156.5 175.72 156.62 175.72H157.64C158.76 175.72 159.03 174.15 157.97 173.78L132.42 164.89" stroke="#231F20" stroke-miterlimit="10"/>
<path d="M98.1999 186.27C100.735 186.27 102.79 184.215 102.79 181.68C102.79 179.145 100.735 177.09 98.1999 177.09C95.6649 177.09 93.6099 179.145 93.6099 181.68C93.6099 184.215 95.6649 186.27 98.1999 186.27Z" fill="white"/>
<path d="M102.19 181.68C102.11 176.28 94.31 176.31 94.21 181.68C94.43 186.85 101.94 186.84 102.19 181.68ZM103.38 181.68C103.26 188.65 93.17 188.62 93.02 181.68C93.29 174.93 103.08 174.96 103.38 181.68Z" fill="#231F20"/>
<path d="M129.59 188.76C132.124 188.76 134.18 186.705 134.18 184.17C134.18 181.635 132.124 179.58 129.59 179.58C127.055 179.58 125 181.635 125 184.17C125 186.705 127.055 188.76 129.59 188.76Z" fill="white"/>
<path d="M133.34 184.17C133.52 178.74 125.68 178.81 125.85 184.17C126.26 188.74 132.97 188.59 133.34 184.17ZM135.02 184.17C135.09 191.83 124.11 191.76 124.17 184.17C124.67 177.42 134.51 177.47 135.02 184.17Z" fill="#231F20"/>
<path d="M159.88 184.18C162.415 184.18 164.47 182.125 164.47 179.59C164.47 177.055 162.415 175 159.88 175C157.345 175 155.29 177.055 155.29 179.59C155.29 182.125 157.345 184.18 159.88 184.18Z" fill="white"/>
<path d="M163.79 179.59C163.76 174.2 155.93 174.21 155.89 179.59C156.15 184.65 163.51 184.61 163.79 179.59ZM165.14 179.59C165.07 186.68 154.78 186.64 154.69 179.59C155.03 172.85 164.79 172.86 165.14 179.59Z" fill="#231F20"/>
<path d="M22.9897 179.58C22.9897 184.1 35.3597 187.76 50.6197 187.76C65.8797 187.76 78.2497 184.1 78.2497 179.58" fill="white"/>
<path d="M23.4897 179.58C24.3697 183.42 32.3897 184.62 35.7997 185.29C47.9197 186.99 60.7397 186.86 72.5297 183.43C74.4797 182.67 77.2497 181.77 77.7497 179.58H78.7497C78.8597 181.09 77.8197 182.4 76.7397 183.29C65.9697 191.25 39.9497 190.5 27.9697 185.23C25.6797 184.09 22.5297 182.55 22.4897 179.58H23.4897Z" fill="#231F20"/>
<path d="M78.5 180.5V113L65.5 117.5L23 116.5V180.5C45.4 193.3 69.3333 185.833 78.5 180.5Z" fill="#E6F5F4" stroke="black"/>
<path d="M77.7001 113.2C77.1101 109.05 69.0301 107.66 65.5401 106.97C55.7501 105.39 45.5301 105.73 35.8401 107.69C32.8501 108.41 25.4001 110.12 24.6201 113.21C25.5301 116.26 32.8901 117.79 35.8901 118.46C45.6001 120.29 55.7001 120.6 65.4901 119.15C68.8901 118.51 77.0201 117.09 77.7101 113.2H77.7001ZM78.8001 113.2C78.4301 118.1 69.7401 119.98 65.8401 120.97C55.8001 123.08 45.4301 123.41 35.2701 121.66C16.8301 118.47 16.6101 107.92 35.3201 104.99C45.4501 103.38 55.7601 103.72 65.7801 105.7C69.5501 106.63 78.3901 108.56 78.8001 113.19V113.2Z" fill="#231F20"/>
<path d="M22.9897 113.2V179.58" stroke="#231F20" stroke-miterlimit="10"/>
<path d="M78.25 113.2V179.58" stroke="#231F20" stroke-miterlimit="10"/>
<path d="M65.4999 117.27L21.2799 116.22L9.36986 89.04C8.36986 86.75 10.0499 84.17 12.4999 84.23L52.0899 85.17C53.4799 85.2 54.6999 86.11 55.1599 87.44L65.4999 117.27Z" fill="white"/>
<path d="M65.9099 117.56C51.0999 117.33 36.1499 117.08 21.2799 116.71H20.9599L20.8299 116.41C16.8599 107.98 12.9499 99.53 9.11989 91.04L8.39989 89.45C7.40989 87.33 8.33989 84.59 10.4799 83.55C11.6399 82.89 13.2099 83.11 14.4399 83.1L17.9299 83.14L31.8899 83.41C34.4399 83.46 47.0699 83.71 49.3399 83.76L51.0799 83.81L51.9499 83.83C53.9299 83.77 55.9099 85.27 56.4299 87.15C59.8799 97.24 62.9899 107.92 65.8799 117.56H65.9099ZM65.0999 116.97C61.1399 106.84 57.3899 97.68 53.9699 88C53.7199 87.21 53.1699 86.73 52.4799 86.55C48.0399 86.35 36.4399 86.12 31.8299 85.96L17.8699 85.57L14.3799 85.45C13.7199 85.47 12.0599 85.22 11.4699 85.58C10.3899 86.06 9.83989 87.5 10.3399 88.61L11.0199 90.22C14.6699 98.79 18.2299 107.39 21.7399 116.02C21.7399 116.02 21.2899 115.72 21.2999 115.72C35.8999 116.06 50.4399 116.51 65.0999 116.98V116.97Z" fill="#231F20"/>
<path d="M65.5 117.27L86.99 109.64C87.05 107.02 84.52 105.17 82.11 106.07L63.96 112.85L65.49 117.27H65.5Z" fill="white" stroke="#231F20" stroke-miterlimit="10"/>
<path d="M81.1499 104.05L62.3899 103.6C61.5999 103.58 61.0299 104.38 61.2999 105.14L63.5899 111.74C63.7999 112.35 64.4499 112.66 65.0399 112.44L81.5099 106.29C82.6799 105.85 82.3999 104.08 81.1499 104.05Z" fill="#D9D9D9" stroke="#231F20" stroke-miterlimit="10"/>
<path d="M38.8002 49.81L37.2903 63.45C37.2903 63.45 37.0703 70.19 50.7903 70.3C53.0603 70.32 55.0603 68.79 55.5803 66.58L58.8202 53.05" fill="white"/>
<path d="M39.3001 49.87C39.1101 54.45 38.6601 59 38.1901 63.55V63.48C38.2201 63.97 38.4701 64.7 38.7501 65.17C40.7201 68.25 44.7801 68.95 48.2101 69.32C49.5701 69.35 51.1201 69.67 52.3901 69.16C53.5901 68.69 54.5301 67.63 54.8401 66.35L55.9701 61.87L58.3201 52.93L59.2901 53.16C58.6401 56.18 57.0001 63.81 56.3201 66.71C55.9501 68.45 54.6701 69.99 53.0101 70.68C51.4001 71.39 49.7201 71.08 48.0601 71.03C44.8501 70.72 41.5301 70.15 38.9001 68.05C37.5901 66.93 36.4401 65.46 36.3701 63.39C36.6601 61.11 36.8901 58.81 37.2301 56.54C37.5401 54.27 37.8801 52.01 38.2901 49.76L39.2801 49.87H39.3001Z" fill="#231F20"/>
<path d="M59.5957 52.4517C59.8957 50.6877 55.3852 48.4493 49.5212 47.4522C43.6573 46.4551 38.6605 47.0769 38.3605 48.841C38.0605 50.6051 42.571 52.8434 48.435 53.8405C54.2989 54.8376 59.2958 54.2158 59.5957 52.4517Z" fill="white" stroke="#231F20" stroke-miterlimit="10"/>
<path d="M58.52 54.35C58.52 54.35 65.26 52.18 65.51 59.23" stroke="#231F20" stroke-miterlimit="10"/>
<path d="M58.8297 68.43C58.8297 68.43 57.6796 70.16 54.8896 68.16" stroke="#231F20" stroke-miterlimit="10"/>
</g>
<g clip-path="url(#clip2_731_325)">
<path d="M78.1801 61.81C78.1801 61.81 66.8001 53.8 62.0901 60.8C54.5801 71.95 69.5001 76.56 71.1701 73.45" fill="white"/>
<path d="M77.8901 62.21C73.8601 60.32 69.0001 57.76 64.7701 59.72C63.4901 60.42 62.7101 61.71 62.0301 62.99C59.4401 67.53 62.0101 71.89 66.7101 73.35C67.8801 73.72 69.8701 74.13 70.7201 73.2L71.6001 73.67C70.4801 75.44 68.0501 75.08 66.3201 74.74C62.8201 73.93 59.4401 71.21 59.0301 67.4C58.7601 64.52 59.9101 61.96 61.5201 59.73C65.9301 54.13 74.1001 57.74 78.4601 61.38L77.8801 62.2L77.8901 62.21Z" fill="#231F20"/>
<path d="M104.14 64.55L92.5002 60.09C87.1002 58.02 80.5002 59.19 76.9202 62.91C72.4902 67.52 68.4502 73.69 73.4902 77.55C82.3702 84.34 103.91 79.88 103.91 79.88" fill="white"/>
<path d="M103.96 65.02C100.87 64.04 97.82 62.99 94.77 61.9C91.92 60.81 88.85 59.81 85.77 60.15C82.77 60.39 79.77 61.49 77.7 63.57C76.61 64.69 75.56 65.89 74.65 67.14C71.75 71.06 70.57 75.31 75.73 77.87C78.42 79.3 81.56 79.95 84.7 80.29C91.02 80.89 97.5 80.41 103.81 79.39L104.01 80.37C95.08 82.18 77.71 84.42 71.23 76.58C68.07 71.43 72.84 65.81 76.23 62.15C78.75 59.6 82.2 58.32 85.61 58.1C88.99 57.76 92.36 58.88 95.39 60.26C98.38 61.49 101.36 62.75 104.31 64.08L103.95 65.01L103.96 65.02Z" fill="#231F20"/>
<path d="M148.16 25.1C148.16 25.1 175.73 -4.11999 196.66 19.3C197.96 20.75 198.96 22.44 199.69 24.24C201.74 29.31 204.45 39.26 193.87 38.61C189.04 38.31 184.6 35.86 181.54 32.11C175.93 25.25 164.35 13.54 155.96 21.59L151.45 26.41L148.16 25.09V25.1Z" fill="white"/>
<path d="M147.67 25.21C147.64 24.84 147.95 24.6 148.16 24.37C151.92 20.42 156.23 17.01 160.93 14.23C168.17 9.92001 177.45 7.35001 185.79 10.22C192.58 12.64 199.01 17.85 201.46 24.77C205.05 33.83 202.89 41.92 191.56 39.81C188.58 39.23 185.77 37.91 183.45 36.02C181.17 34.24 179.61 31.82 177.66 29.74C174.1 25.88 170.01 21.9 164.97 20.28C160.68 18.99 157.6 20.63 154.76 23.83L151.79 26.75L151.55 26.99C150.22 26.49 148.86 25.83 147.66 25.2L147.67 25.21ZM148.65 24.99C149.73 25.29 150.67 25.55 151.63 25.95C151.63 25.95 151.06 26.09 151.08 26.07L153.81 22.9C155.63 20.63 157.97 18.46 161 18.03C168.56 17.12 174.76 22.98 179.67 27.89C181.56 29.81 183.1 32.13 185.26 33.75C188.68 36.5 195.2 38.59 198.81 35.98C200.26 34.76 200.32 32.04 199.8 29.56C198 19.12 187.67 11.23 177.21 11.45C166.71 11.73 156.99 17.9 149.27 24.74L148.89 25.09L148.7 25.27L148.61 25.36C148.61 25.36 148.67 25.29 148.68 25.23C148.7 25.15 148.68 25.06 148.65 25V24.99Z" fill="#231F20"/>
<path d="M168.18 73.04L171.15 48.86C171.52 45.85 171.09 42.8 169.9 40.01C166.18 31.31 146.14 17.12 123.21 26.52C123.21 26.52 108.62 28.93 104.79 56.38C104.19 60.67 104.03 65.01 104.16 69.34L103.94 96.74C104.13 102.98 107.75 108.61 113.38 111.31C120.87 114.91 133.3 117.58 151.98 112.24C160.5 109.8 166.58 102.28 167.06 93.43L168.14 73.55C168.14 73.38 168.16 73.21 168.18 73.05V73.04Z" fill="white"/>
<path d="M166.31 72.81C167.11 65.67 167.87 58.52 168.74 51.38C169.23 48.2 169.55 44.74 168.39 41.67C166.1 35.67 159.75 31.21 153.95 28.5C147.73 25.64 140.62 24.41 133.79 25.23C130.37 25.51 126.93 26.57 123.69 27.7C108.04 32.14 104.28 56.32 104.76 70.31C104.68 73.95 104.58 83.55 104.54 87.3C104.6 90.49 104.23 95.45 104.61 98.55C105.76 106.58 111.95 111.1 119.43 112.93C130.25 115.88 141.89 114.25 152.4 110.9C160.13 108.31 165.46 100.71 165.5 92.74L165.61 89.91C165.82 84.58 166.05 78.11 166.31 72.8V72.81ZM170.05 73.27C169.78 76.95 169.11 86.52 168.86 90.09L168.66 92.92C168.37 102.08 161.78 110.56 153.1 113.06C142.05 116.12 130.21 117.4 119.08 114.12C111.3 112.08 104.73 107.09 103.6 98.7C103.26 97.07 103.51 94.64 103.45 92.98L103.48 87.32C103.5 79.76 103.6 72.24 103.48 64.64C103.55 60.84 103.84 57.01 104.53 53.26C106.1 43.88 109.49 33.87 117.44 27.96C119.19 26.75 120.82 25.77 123 25.26L122.72 25.34C136.5 19.3 153.35 21.44 165.01 31.1C171.99 36.76 174.44 43.01 172.88 51.89C172 59.02 171 66.14 170.05 73.27Z" fill="#231F20"/>
<path d="M105.84 48.41C105.92 48.13 106.09 47.93 106.23 47.73C110.13 43.44 115.94 41.32 121.51 40.23C137.59 37.39 153.72 43.43 167.11 51.96L170.7 54.38L170.16 55.22L166.44 53.09C157.79 48.35 148.42 44.39 138.67 42.86C127.94 41.16 116.23 42.41 107.06 48.5L106.9 48.64C106.83 48.7 106.87 48.66 106.82 48.67L105.85 48.41H105.84Z" fill="#231F20"/>
<path d="M104.14 71.91C104.14 71.91 118.45 57.76 168.06 74.92L104.14 71.91Z" fill="white"/>
<path d="M103.79 71.56C108.81 67.59 115.42 66.63 121.61 66.07C134.73 65.38 147.84 68.21 160.35 71.92L168.22 74.46L167.89 75.41L160.05 72.89C146.37 68.87 131.9 65.72 117.59 67.49C113.05 68.25 108.12 69.35 104.48 72.28L103.78 71.57L103.79 71.56Z" fill="#231F20"/>
<path d="M98.3701 83.03C98.3701 83.03 113.74 82.67 115.53 112.17C115.55 112.56 115.58 112.96 115.59 113.37C115.59 113.37 116.55 122.93 113.15 122.97" fill="white"/>
<path d="M98.3701 83.03C98.3701 83.03 113.74 82.67 115.53 112.17C115.55 112.56 115.58 112.96 115.59 113.37C115.59 113.37 116.55 122.93 113.15 122.97" stroke="#231F20" stroke-miterlimit="10"/>
<path d="M90.4301 118.3C88.5901 117.02 87.5301 114.89 87.6401 112.66C88.0301 104.73 89.8601 83.31 98.3701 83.03C108.83 82.69 113.15 122.97 113.15 122.97C113.15 122.97 98.4201 123.87 90.4301 118.3Z" fill="#E7E7E7"/>
<path d="M90.0299 118.86C87.9999 117.51 86.7399 115.05 86.8499 112.59L86.8999 111.26C87.1199 106.85 87.4999 102.39 88.2799 98.03C89.3699 92.25 92.0299 80.04 100.26 82.29C109.6 86.27 112.66 113.42 113.64 122.9C113.64 122.9 113.69 123.42 113.69 123.43C105.62 123.72 97.0999 123.27 90.0299 118.85V118.86ZM90.8199 117.73C97.3199 121.95 105.55 122.56 113.12 122.46C113.12 122.46 112.65 123.03 112.65 123.01C112.14 119.55 111.57 116.08 110.9 112.64C109.75 106.15 102.79 71.93 93.2799 88.62C91.8099 91.62 90.9099 95 90.2099 98.39C89.3499 102.61 88.8299 107.03 88.4999 111.35L88.4099 112.66C88.2699 114.62 89.1999 116.58 90.8199 117.73Z" fill="#231F20"/>
<path d="M110.97 45.13C110.97 45.13 108.08 65.61 108.54 69.34L110.97 45.13Z" fill="white"/>
<path d="M110.97 45.13C110.97 45.13 108.08 65.61 108.54 69.34" stroke="#231F20" stroke-miterlimit="10"/>
<path d="M145.01 42.96C145.01 42.96 142.5 61.67 143.17 68.17L145.01 42.96Z" fill="white"/>
<path d="M145.01 42.96C145.01 42.96 142.5 61.67 143.17 68.17" stroke="#231F20" stroke-miterlimit="10"/>
<path d="M127.3 25.07C127.3 25.07 149.31 19.84 170.43 41.41" stroke="#231F20" stroke-miterlimit="10"/>
<path d="M139.49 86.74C139.49 86.74 153.61 81.94 158.9 113.58C159.12 114.89 158.9 116.26 158.25 117.39C157.36 118.97 155.68 121.07 152.67 122.36" fill="white"/>
<path d="M139.49 86.74C139.49 86.74 153.61 81.94 158.9 113.58C159.12 114.89 158.9 116.26 158.25 117.39C157.36 118.97 155.68 121.07 152.67 122.36" stroke="#231F20" stroke-miterlimit="10"/>
<path d="M127.9 124.11C126.01 123.2 124.9 120.97 125.06 118.65C125.67 110.26 128.27 90.29 139.28 87.05C150.29 83.81 153.27 108.59 153.9 118.45C154.06 120.94 152.57 123.23 150.23 124.12C145.3 126.01 136.39 128.22 127.89 124.12L127.9 124.11Z" fill="#E7E7E7"/>
<path d="M127.58 124.78C122.42 122.05 124.65 115.71 124.96 111.13C126.4 102.2 128.64 90.59 137.74 86.32C140.12 85.23 143.36 85.31 145.49 87C152.94 92.83 153.89 110.06 154.44 119.04C154.35 122.43 151.51 124.57 148.45 125.28C141.72 127.48 134.15 127.9 127.57 124.79L127.58 124.78ZM128.22 123.45C135.26 126.94 144.22 126.49 151.22 123.04C154.35 120.97 153.18 116.98 152.92 113.86C152.09 107.08 150.88 100.12 147.99 93.92C146.57 91.15 144.76 88.15 141.54 87.96C138.45 87.97 135.67 90.04 133.78 92.49C129.7 97.96 128.05 104.75 126.84 111.43C126.45 113.7 126.16 115.98 125.95 118.28C125.64 120.32 126.41 122.5 128.23 123.46L128.22 123.45Z" fill="#231F20"/>
<path d="M170.42 113.16C170.42 113.16 171.23 120.47 176.75 120.76C180.24 120.95 183.41 118.39 183.88 114.92C184.15 112.94 183.55 110.59 180.65 108.41" fill="white"/>
<path d="M170.92 113.1C171.62 116.04 173.33 119.68 176.75 119.77C179.82 119.93 182.76 117.44 182.98 114.35C183.21 112.33 182.05 110.34 180.34 108.81L180.94 108.01C186.29 110.95 186.06 118.29 180.59 120.96C174.74 123.78 170.14 118.96 169.92 113.21L170.91 113.1H170.92Z" fill="#231F20"/>
<path d="M177.85 91.1C177.85 91.1 163.79 60.21 161.95 81.31C160.91 93.23 162.22 102.51 163.55 108.34C164.62 113 170.33 114.04 174.87 112.51C180.62 110.57 185.16 106.8 177.85 91.11V91.1Z" fill="white"/>
<path d="M177.01 91.49C175.37 87.87 173.55 84.28 171.45 80.91C169.9 78.62 168.3 75.8 165.77 74.67C163.21 74.03 162.82 79.29 162.55 81.05C161.77 89.01 161.97 97.09 163.43 104.96C163.84 106.78 163.95 108.9 165.2 110.35C168.84 114.33 177.39 112.36 179.95 108.02C180.84 106.47 180.91 104.52 180.7 102.63C180.17 98.81 178.63 95.11 177.02 91.48L177.01 91.49ZM178.7 90.71C180.46 94.37 181.9 98.27 182.41 102.45C182.81 105.57 181.93 109.36 179.1 111.25C174.85 114.1 168.12 115.31 164.3 111.11C162.89 109.41 162.81 107.21 162.37 105.16C160.98 97.17 160.79 89.02 161.43 80.95C161.74 78.23 162.15 72.55 166.14 73.4C169.25 74.6 170.94 77.56 172.76 80.07C175 83.48 176.93 87.05 178.7 90.71Z" fill="#231F20"/>
<path d="M108.054 69.2625C107.654 62.8625 109.554 50.9292 110.554 45.7625C120.954 38.5625 137.555 41.0958 144.555 43.2625C142.955 50.4625 142.555 62.9292 142.555 68.2625C126.155 65.0625 112.721 67.5958 108.054 69.2625Z" fill="#5BC3C8" stroke="black"/>
<path d="M121.69 57.9258L121.723 51.6738C121.725 51.3088 122.119 51.0807 122.436 51.2605L128.361 54.6165C128.696 54.8062 128.681 55.2938 128.335 55.462L122.377 58.358C122.058 58.5128 121.688 58.2797 121.69 57.9258Z" fill="white" stroke="black" stroke-width="0.477838"/>
</g>
</g>
<defs>
<linearGradient id="paint0_linear_731_325" x1="94.8863" y1="0" x2="94.8863" y2="180.787" gradientUnits="userSpaceOnUse">
<stop stop-color="#FACF89"/>
<stop offset="1" stop-color="#FACF89"/>
</linearGradient>
<clipPath id="clip0_731_325">
<rect width="210" height="200" fill="white"/>
</clipPath>
<clipPath id="clip1_731_325">
<rect width="193.89" height="178.89" fill="white" transform="translate(8 11)"/>
</clipPath>
<clipPath id="clip2_731_325">
<rect width="144.06" height="118.01" fill="white" transform="translate(59 9)"/>
</clipPath>
</defs>
</svg>
