<svg width="210" height="200" viewBox="0 0 210 200" fill="none" xmlns="http://www.w3.org/2000/svg">
<g clip-path="url(#clip0_736_325)">
<rect width="210" height="200" fill="white"/>
<ellipse opacity="0.1" cx="98.6733" cy="43.8858" rx="95.6128" ry="41.5883" fill="url(#paint0_linear_736_325)"/>
<ellipse opacity="0.05" cx="98.6734" cy="48.0672" rx="73.4879" ry="38.9361" fill="#122AF5"/>
<line opacity="0.8" x1="79.7746" y1="-79.052" x2="79.7746" y2="87.2513" stroke="url(#paint1_linear_736_325)" stroke-width="0.598042"/>
<path opacity="0.8" d="M-31.0205 150.395L79.4756 87.2513" stroke="url(#paint2_linear_736_325)" stroke-width="0.598042"/>
<line x1="366.009" y1="87.5503" x2="79.5032" y2="87.5503" stroke="url(#paint3_linear_736_325)" stroke-width="0.598042"/>
<g clip-path="url(#clip1_736_325)">
<path d="M151.953 166.038C151.953 166.038 166.26 176.283 162.834 183.601C159.409 190.918 136.565 187.694 136.565 187.694C136.565 187.694 129.427 181.236 141.762 166.027" fill="white"/>
<path d="M152.261 165.603C158.868 169.262 170.841 179.92 161.986 187.185C154.87 191.502 143.999 189.943 136.31 188.193C130.467 181.246 136.745 171.563 141.348 165.699L142.175 166.367C138.665 170.906 134.985 176.209 135.07 182.158C135.112 183.972 135.695 185.997 136.925 187.302C136.925 187.302 136.629 187.164 136.65 187.175C141.825 186.867 162.696 188.32 161.594 180.536C160.554 174.925 155.612 170.577 151.656 166.462L152.271 165.603H152.261Z" fill="#231F20"/>
<path d="M139.503 166.038C147.892 189.455 139.503 189.455 139.503 189.455C139.503 189.455 93.9 194.142 94.1121 183.304C94.3242 172.476 122.937 164.861 122.937 164.861" fill="white"/>
<path d="M140.001 165.858C142.164 171.595 148.092 186.729 140.711 190.409C140.34 190.547 140.054 190.653 139.502 190.685H139.629C132.619 191.449 125.609 191.979 118.546 192C111.377 191.915 103.995 191.947 97.1973 189.243C92.987 187.482 91.2902 184.014 93.39 179.708C95.4156 175.837 99.1381 173.409 102.776 171.373C109.128 167.979 115.905 165.858 122.799 164.352L123.074 165.381C116.351 167.883 95.1717 175.54 95.808 183.844C98.0776 188.776 113.434 188.712 118.557 188.924C125.153 189.009 134.03 188.67 139.502 188.235C143.14 187.164 142.122 180.005 141.708 176.962C141.432 175.583 141.093 173.695 140.711 172.338C140.223 170.28 139.587 168.265 139.004 166.218L140.001 165.858Z" fill="#231F20"/>
<path d="M114.803 149.123L122.937 164.861L139.503 166.038L136.565 152.484L114.803 149.123Z" fill="white" stroke="#231F20" stroke-width="1.06054" stroke-miterlimit="10"/>
<path d="M149.005 152.559L151.953 166.038H139.503L136.565 152.484L149.005 152.559Z" fill="white" stroke="#231F20" stroke-width="1.06054" stroke-miterlimit="10"/>
<path d="M103.741 62.7948C103.741 62.7948 88.6498 90.6763 94.1222 133.48C94.1222 133.48 92.6162 152.198 144.678 153.248C152.218 153.396 159.069 148.794 161.7 141.731C162.94 138.4 164.022 134.169 164.68 128.792C165.422 122.705 164.648 116.522 165.348 110.424C166.44 100.879 168.095 88.3644 169.632 84.5146C169.632 84.5146 181.956 52.4122 135.43 45.6035C135.43 45.6035 116.012 43.334 103.752 62.7842L103.741 62.7948Z" fill="white"/>
<path d="M104.6 63.3039C97.378 78.0135 94.2494 94.6534 93.5389 110.964C93.3374 118.42 93.7722 126.013 94.6418 133.416C94.6206 135.07 95.3842 136.948 96.3387 138.347C105.279 150.989 131.283 152.039 145.622 152.315C152.738 152.081 159.091 147.044 161.053 140.225C162.527 135.675 163.386 130.818 163.672 126.056C163.916 121.156 163.471 116.214 163.874 111.251C164.107 108.737 164.404 106.33 164.701 103.869C165.507 97.7183 166.164 91.5142 167.734 85.4373C168.911 82.1178 169.632 78.5756 169.526 75.0334C169.484 59.3057 155.241 51.182 141.443 48.2019C139.45 47.6928 137.254 47.364 135.229 46.9822C122.969 46.0702 111.027 53.0061 104.6 63.3145V63.3039ZM102.861 62.2858C109.415 51.3092 121.611 43.8643 134.539 44.1824C135.08 44.1506 135.939 44.3097 136.512 44.3945C138.304 44.7233 140.309 44.9566 142.069 45.402C157.341 48.3821 172.676 57.63 172.644 74.991C172.708 78.8514 171.955 82.6587 170.629 86.2751C169.07 92.1081 168.36 98.1849 167.511 104.219C167.193 106.637 166.886 109.119 166.61 111.495C166.122 116.341 166.493 121.273 166.143 126.204C165.74 131.252 164.786 136.163 163.152 140.946C160.872 148.433 153.533 154.075 145.675 154.139C143.469 154.245 140.436 153.831 138.219 153.81C130.88 153.386 123.34 152.474 116.181 150.724C110.2 149.197 104.091 147.139 99.2021 143.173C97.781 141.953 96.3599 140.575 95.3842 138.952L94.8751 138.135L94.4721 137.255C93.9101 136.279 93.5389 134.349 93.5813 133.543C93.3056 130.531 92.9132 127.53 92.7223 124.518C92.4253 120.17 92.3723 115.313 92.4041 110.922C92.9344 94.2716 95.713 77.4621 102.861 62.2858Z" fill="#231F20"/>
<path d="M103.741 62.7949C103.741 62.7949 113.891 78.3635 171.096 78.6817L103.741 62.7949Z" fill="white"/>
<path d="M104.176 62.5085C114.039 72.3185 139.789 75.7546 153.512 76.9954C159.366 77.5151 165.221 77.8014 171.096 78.1514V79.2119C165.284 79.3604 159.197 79.3392 153.374 79.0211C138.697 78.056 123.329 76.2 110.274 68.9247C107.644 67.3551 105.141 65.6371 103.296 63.0812L104.187 62.4979L104.176 62.5085Z" fill="#231F20"/>
<path d="M95.0874 90.4218C95.0874 90.4218 113.392 108.949 166.154 103.7L95.0874 90.4218Z" fill="white"/>
<path d="M95.4585 90.0506C113.095 102.459 135.907 104.241 156.885 103.732L166.09 103.18L166.196 104.241L156.959 105.078C138.516 106.065 119.045 104.962 102.32 96.382C99.5628 94.876 96.9327 93.1474 94.7056 90.793L95.4585 90.0506Z" fill="#231F20"/>
<path d="M121.42 72.5624C121.42 72.5624 113.922 94.3352 115.831 100.614L121.42 72.5624Z" fill="white"/>
<path d="M121.42 72.5624C121.42 72.5624 113.922 94.3352 115.831 100.614" stroke="#231F20" stroke-width="1.06054" stroke-miterlimit="10"/>
<path d="M127.444 46.1232C127.444 46.1232 141.518 64.3326 165.624 59.5072" stroke="#231F20" stroke-width="1.06054" stroke-miterlimit="10"/>
<path d="M146.534 51.7759C146.534 51.7759 166.504 16.1843 196.39 37.0132C200.07 39.5797 202.615 43.5779 202.976 48.0534C203.337 52.5289 201.565 57.0574 192.296 56.1241C188.521 55.7423 185.074 53.9076 182.497 51.129C178.637 46.9504 170.651 41.3508 158.72 47.555L149.196 53.2182L146.534 51.7653V51.7759Z" fill="white"/>
<path d="M146.025 51.9243C145.983 51.5425 146.195 51.3092 146.333 51.0335C146.502 50.7577 146.98 49.9093 147.16 49.623C158.837 30.7878 178.308 21.943 197.779 35.9845C206.136 41.5841 208.745 57.6724 195.383 57.9906C190.642 58.2451 185.817 56.6649 182.338 53.3879C181.129 52.2107 180.387 51.288 179.347 50.4184C175.349 46.8656 169.93 45.4126 164.68 46.6429C159.176 47.8307 154.51 51.3092 149.461 53.6848L149.186 53.8333C148.104 53.2606 147.012 52.5819 146.015 51.9243H146.025ZM147.043 51.6274C147.902 51.988 148.677 52.3273 149.451 52.7622H148.921C151.858 50.7684 154.902 48.7533 157.893 46.8125C162.453 44.1188 167.883 42.5916 173.207 43.8006C177.682 44.6278 181.691 47.7352 184.639 50.8638C187.503 53.5257 191.363 54.6711 195.234 54.4802C201.682 54.4166 202.202 49.4745 200.41 44.6278C198.49 39.5903 193.399 36.7162 188.722 34.5209C183.78 32.2196 178.223 31.3393 172.889 32.3468C162.273 34.3194 153.587 42.4856 147.563 51.1607C147.499 51.288 147.139 51.7865 147.054 51.9349C147.054 51.9561 147.118 51.7122 147.033 51.638L147.043 51.6274Z" fill="#231F20"/>
<path d="M130.615 156.111C130.615 156.111 130.859 156.727 131.432 157.533C135.313 162.92 143.787 161.191 145.59 154.796C145.929 153.587 146.258 152.134 146.523 150.395" fill="white"/>
<path d="M130.615 156.111C130.615 156.111 130.859 156.727 131.432 157.533C135.313 162.92 143.787 161.191 145.59 154.796C145.929 153.587 146.258 152.134 146.523 150.395" stroke="#231F20" stroke-width="1.06054" stroke-miterlimit="10"/>
<path d="M146.025 134.455C146.025 134.455 136.565 95.8518 124.634 105.694C122.556 107.412 121.389 109.999 121.325 112.693C121.166 119.364 120.975 135.028 122.375 146.089C123.16 152.304 128.802 156.769 135.028 156.027C136.937 155.804 138.983 155.38 141.062 154.648C146.524 152.739 149.546 146.874 147.966 141.306L146.025 134.455Z" fill="white"/>
<path d="M144.858 134.763C142.663 127.063 139.98 119.449 136.151 112.449C134.295 109.448 132.174 105.736 128.547 105.397C125.1 105.545 122.534 109.246 122.396 112.608C122.152 117.985 122.035 123.404 122.046 128.803C122.046 134.201 122.269 139.609 122.82 144.965C122.979 147.617 123.913 150.109 125.694 152.018C128.356 154.955 132.482 156.08 136.321 155.189C140.054 154.542 144.095 153.089 145.972 149.61C147.616 146.864 147.711 143.523 146.619 140.596C146.247 139.376 145.229 136.014 144.837 134.742L144.858 134.763ZM147.181 134.148C147.52 135.431 148.4 138.782 148.729 140.023C149.874 143.512 149.524 147.5 147.467 150.544C145.102 154.372 140.733 155.857 136.544 156.44C132.386 157.257 127.752 156.027 124.92 152.771C123 150.713 121.855 147.882 121.664 145.124C120.996 139.716 120.742 134.286 120.498 128.856C120.286 123.426 120.211 118.006 120.232 112.555C120.254 108.027 123.584 103.053 128.526 102.83C133.373 102.926 136.406 107.496 138.633 111.007C142.801 118.176 145.187 126.194 147.16 134.158L147.181 134.148Z" fill="#231F20"/>
<path d="M65.5 8.50002L1 40V147.5L71 105.5V22.5C72.6 8.50002 68 7.33335 65.5 8.50002Z" fill="#E6F5F4" stroke="black"/>
<path d="M65.9016 107.093L70.3665 104.188L70.1226 104.633C69.8256 89.637 69.6665 74.6411 69.5499 59.6451C69.3908 43.9491 69.4332 28.2532 69.3484 12.5572C69.3272 10.1816 66.6228 8.80295 64.5972 10.1074L54.4691 14.9859C44.3833 19.8749 23.9998 29.5895 13.8611 34.3619C7.06307 37.5223 0.275632 40.7251 -6.54362 43.8325L-7.01025 42.878C15.1337 31.4878 41.0745 18.7614 63.4836 7.78483C67.5031 5.46226 72.3815 8.58023 71.9573 13.2572C71.8831 28.7198 71.9255 44.1931 71.7664 59.6557C71.427 74.7577 71.9255 90.1037 70.9498 105.089L66.4849 107.995L65.9122 107.104L65.9016 107.093Z" fill="#231F20"/>
<path d="M12.4512 54.9256L46.5686 40.1099C49.4003 38.8797 52.5607 40.9584 52.5607 44.0445V71.5018" fill="white"/>
<path d="M12.2388 54.4378C23.0456 48.7533 34.1176 43.6309 45.2639 38.6676C49.2833 36.4087 54.5648 39.41 54.4375 44.0657L54.3951 48.6367C54.2148 56.2301 53.9497 63.9296 53.1012 71.4912H52.0407C51.0438 62.4342 50.7681 53.1545 50.7044 44.0657C50.7362 42.3477 48.8167 41.0856 47.2577 41.828L46.7274 42.0507C35.4857 46.8019 24.191 51.3941 12.663 55.4135L12.2388 54.4378Z" fill="#231F20"/>
<path d="M16.7987 56.2937C28.0192 60.4298 48.2012 67.8642 62.1367 72.9866C64.5759 73.8774 66.1879 76.2 66.1879 78.7877V139.981C66.1879 144.361 61.7655 147.351 57.7036 145.729L12.3551 127.583C10.0113 126.639 8.46289 124.37 8.46289 121.835V62.1055C8.46289 57.7997 12.7475 54.809 16.7881 56.3043L16.7987 56.2937Z" fill="white"/>
<path d="M16.9793 55.7953C27.065 59.3799 52.6451 68.4687 62.3808 71.9261C65.3715 72.8699 67.5138 76.0091 67.3547 79.1483L67.4396 87.1766L67.7153 119.3L67.7683 135.357C67.6941 136.926 67.9699 140.108 67.5881 141.72C67.0578 144.212 65.2019 146.333 62.8369 147.256C60.6097 148.232 57.8735 147.723 55.8267 146.715C54.7025 146.248 51.4255 144.944 50.2377 144.456C45.5395 142.558 32.7706 137.393 27.9028 135.431L13.0447 129.322C8.99341 128.06 6.76628 124.698 7.1905 120.467C7.25413 116.935 7.52987 86.5933 7.60411 82.3299L7.7844 66.2734L7.82682 62.254C7.64653 57.6618 12.6947 54.0984 16.9686 55.7953H16.9793ZM16.6081 56.8028C13.0234 55.3605 8.85554 58.3936 9.09946 62.2434L9.14189 66.2628L9.32218 82.3193C9.34339 86.7418 9.72518 116.787 9.73579 120.456C9.49186 123.765 10.86 125.865 14.0734 126.798L29.0376 132.631L58.7538 144.371C61.1506 145.114 63.9504 143.491 64.4595 141.009C64.6716 140.044 64.5761 136.439 64.5973 135.357L64.6504 119.3L64.9261 87.1766L65.011 79.1483C65.17 76.8257 63.8019 74.7153 61.6278 73.9517C52.0936 70.314 26.4604 60.5571 16.5975 56.8028H16.6081Z" fill="#231F20"/>
<path d="M33.4383 124.083C40.7832 124.083 46.7374 113.196 46.7374 99.7651C46.7374 86.3346 40.7832 75.447 33.4383 75.447C26.0934 75.447 20.1392 86.3346 20.1392 99.7651C20.1392 113.196 26.0934 124.083 33.4383 124.083Z" fill="white"/>
<path d="M48.6779 99.7651C48.5294 107.645 46.7901 116.034 41.1162 121.899C36.8423 126.469 30.1185 126.385 26.1415 121.538C17.3708 111.06 17.3708 88.481 26.1415 77.9923C30.1079 73.1563 36.8317 73.0502 41.1162 77.6317C46.8007 83.5071 48.5294 91.8853 48.6779 99.7651ZM44.7857 99.7651C44.6902 92.755 43.4388 85.204 38.9421 79.6998C35.8984 75.9031 30.8927 75.7546 27.552 79.3392C18.3571 88.9052 18.3465 110.614 27.552 120.191C30.9033 123.765 35.909 123.638 38.9421 119.83C43.4388 114.326 44.6902 106.786 44.7857 99.7651Z" fill="#231F20"/>
<path d="M30.6807 110.466C32.2036 110.466 33.4381 105.979 33.4381 100.444C33.4381 94.9088 32.2036 90.4218 30.6807 90.4218C29.1579 90.4218 27.9233 94.9088 27.9233 100.444C27.9233 105.979 29.1579 110.466 30.6807 110.466Z" fill="white"/>
<path d="M35.3682 100.444C35.1137 103.297 34.2758 111.134 30.6806 111.452C29.7792 111.378 29.2701 110.805 28.8883 110.18C27.0536 107.284 26.0355 89.5415 30.6806 89.3082C34.3183 89.5522 35.3046 97.5804 35.3682 100.433V100.444ZM31.4972 100.444C31.4654 97.6228 31.7518 94.5367 30.7018 91.8747C30.5746 91.5778 30.4261 91.546 30.67 91.5354C30.9139 91.4505 30.6382 91.4611 30.4367 91.7369C27.8278 95.4487 27.6263 106.33 30.67 109.469C31.7199 106.892 31.6881 103.392 31.4866 100.444H31.4972Z" fill="#231F20"/>
<path d="M56.2507 87.6114C58.6687 88.2795 60.3444 90.4748 60.3444 92.9883V127.339C60.3444 130.022 57.6931 131.899 55.1584 131.009C53.5994 130.457 52.5601 128.994 52.5601 127.339V90.4112C52.5601 88.4916 54.3948 87.0917 56.2507 87.6008V87.6114Z" fill="#FACF89" fill-opacity="0.53"/>
<path d="M56.3988 87.1023C59.188 87.7387 62.0515 90.0824 61.903 93.2428C61.903 94.1655 61.903 96.785 61.903 97.7501C61.8818 106.754 61.5318 115.779 61.2773 124.783L61.2349 126.289C61.5424 129.354 59.3365 132.249 56.0807 131.91C53.7263 131.698 51.8385 129.439 52.0294 127.127L52.0824 121.124C52.1355 115.132 52.1991 103.085 52.1991 97.0926C52.3052 94.5579 51.9234 91.9808 52.2521 89.4673C52.7188 87.7281 54.6596 86.6251 56.3988 87.1235V87.1023ZM56.1125 88.1204C54.2778 87.5796 52.7612 89.2658 53.0157 91.0687C52.9945 93.0732 52.9415 95.0776 52.9521 97.0714C52.9521 103.063 53.0157 115.111 53.0687 121.103L53.1218 127.106C53.0051 128.93 54.5005 130.468 56.1867 130.542C57.8518 130.659 59.4214 129.28 59.4956 127.678C59.5274 127.01 59.4426 125.515 59.4426 124.762C59.188 115.758 58.8487 106.733 58.8169 97.7289C58.8169 96.7638 58.8169 94.1655 58.8169 93.2216C58.9441 91.249 58.3396 88.7356 56.1231 88.1098L56.1125 88.1204Z" fill="#231F20"/>
<path d="M8.88723 64.4493C9.8205 64.8735 10.4144 65.7962 10.4144 66.8143V71.9154C10.4144 73.6653 8.71754 74.9168 7.0419 74.3865C5.96015 74.0471 5.21777 73.0502 5.21777 71.9154V66.8143C5.21777 64.9265 7.15856 63.6751 8.87662 64.4493H8.88723Z" fill="white" stroke="#231F20" stroke-width="1.06054" stroke-miterlimit="10"/>
<path d="M7.92141 103.138C8.85468 103.562 9.44858 104.485 9.44858 105.503V110.604C9.44858 112.354 7.75172 113.605 6.07608 113.075C4.99433 112.735 4.25195 111.739 4.25195 110.604V105.503C4.25195 103.615 6.19274 102.363 7.91081 103.138H7.92141Z" fill="white" stroke="#231F20" stroke-width="1.06054" stroke-miterlimit="10"/>
<path d="M116 100.5C114.4 93.7 119 79.6667 121.5 73.5C114.3 71.5 106.5 66.3333 103.5 64C99.1 68.8 96 83.6667 95 90.5C102.6 96.1 112.167 99.5 116 100.5Z" fill="#5BC3C8" stroke="black"/>
</g>
</g>
<defs>
<linearGradient id="paint0_linear_736_325" x1="98.6733" y1="2.29755" x2="98.6733" y2="85.4741" gradientUnits="userSpaceOnUse">
<stop stop-color="#009490"/>
<stop offset="1" stop-color="#009490" stop-opacity="0"/>
</linearGradient>
<linearGradient id="paint1_linear_736_325" x1="79.4756" y1="4.09965" x2="79.4756" y2="-83.3582" gradientUnits="userSpaceOnUse">
<stop/>
<stop offset="1" stop-opacity="0"/>
</linearGradient>
<linearGradient id="paint2_linear_736_325" x1="60.981" y1="74.7029" x2="-16.1725" y2="166.383" gradientUnits="userSpaceOnUse">
<stop/>
<stop offset="1" stop-opacity="0"/>
</linearGradient>
<linearGradient id="paint3_linear_736_325" x1="259.382" y1="87.2513" x2="366.009" y2="87.2513" gradientUnits="userSpaceOnUse">
<stop/>
<stop offset="1" stop-opacity="0"/>
</linearGradient>
<clipPath id="clip0_736_325">
<rect width="210" height="200" fill="white"/>
</clipPath>
<clipPath id="clip1_736_325">
<rect width="211.726" height="185" fill="white" transform="translate(-7 7)"/>
</clipPath>
</defs>
</svg>
