<svg  viewBox="0 0 210 197" fill="none" xmlns="http://www.w3.org/2000/svg">
<g clip-path="url(#clip0_39_211)">
<rect width="40.2491" height="80.702" rx="4" transform="matrix(0.938191 0.346117 -0.00820296 0.999966 165.932 38.3288)" fill="#F4F5FF"/>
<rect x="13" y="8" width="88.2438" height="80.702" rx="4" fill="#FDF9F3"/>
<path d="M163.204 103.088C152.823 101.957 142.32 101.896 131.902 101.793C121.447 101.691 110.986 101.751 100.531 101.793C79.5514 101.884 58.5769 102.011 37.597 102.217C25.8209 102.332 14.0501 102.447 2.27933 102.767C2.21516 102.767 2.21516 102.882 2.27933 102.882C23.2539 102.997 44.2337 102.695 65.2083 102.555C86.1561 102.41 107.115 102.199 128.062 102.289C133.924 102.314 139.78 102.392 145.641 102.549C151.497 102.707 157.348 103.033 163.204 103.196C163.262 103.196 163.262 103.094 163.204 103.088Z" fill="#010101"/>
<path d="M162.351 84.5336C162.587 84.5336 162.593 84.1647 162.351 84.1647C162.115 84.1647 162.115 84.5336 162.351 84.5336Z" fill="black"/>
<path d="M150.594 12.3377C150.395 16.184 150.431 20.0484 150.425 23.9007C150.419 27.753 150.419 31.6053 150.431 35.4636C150.455 43.1985 150.516 50.9273 150.619 58.6621C150.679 63.0043 150.8 67.3464 150.963 71.6826C150.969 71.8096 151.163 71.8156 151.163 71.6826C151.235 63.9779 151.181 56.2673 151.121 48.5627C151.06 40.8278 151.024 33.099 151 25.3642C150.988 21.0281 151.048 16.6738 150.848 12.3377C150.842 12.1744 150.607 12.1744 150.594 12.3377Z" fill="black"/>
<path d="M106.429 146.316C92.4935 147.93 78.5994 150.011 64.7156 152.146C50.9408 154.262 37.1815 156.506 23.443 158.901C15.648 160.261 7.85814 161.658 0.0890588 163.188C-0.00948097 163.207 0.0320104 163.382 0.13055 163.364C14.0091 161.072 27.8773 158.653 41.761 156.397C55.6137 154.147 69.4818 151.994 83.3656 149.962C91.0672 148.838 98.7637 147.688 106.45 146.485C106.528 146.473 106.512 146.31 106.429 146.316Z" fill="black"/>
<path d="M171.351 146.635C173.673 147.839 176.084 148.874 178.464 149.96C180.858 151.054 183.254 152.145 185.647 153.236C188.03 154.322 190.416 155.408 192.799 156.491C195.184 157.575 197.57 158.658 199.956 159.736C202.344 160.817 204.74 161.878 207.13 162.953C207.431 163.089 207.732 163.225 208.036 163.361C208.084 163.384 208.13 163.31 208.079 163.286C205.691 162.185 203.31 161.066 200.919 159.97C198.539 158.878 196.158 157.787 193.775 156.699C191.382 155.605 188.989 154.514 186.593 153.42C184.2 152.329 181.804 151.238 179.408 150.147C178.217 149.604 177.022 149.064 175.831 148.521C174.655 147.985 173.481 147.435 172.289 146.94C171.986 146.815 171.682 146.692 171.376 146.571C171.34 146.553 171.315 146.615 171.351 146.635Z" fill="black"/>
<path d="M20.5054 73.1279C20.5054 73.1279 15.9516 71.3076 15.4254 75.3353L15.2803 88.6158C15.2803 88.6158 16.1451 90.2002 20.076 89.5289C20.1667 85.6404 20.5054 73.1279 20.5054 73.1279Z" fill="white"/>
<path d="M18.2922 90.0853C15.6615 90.0853 14.96 88.8637 14.9297 88.8033L14.8813 88.7126L15.0265 75.3293C15.1837 74.0956 15.6796 73.2489 16.5081 72.7651C18.1773 71.7854 20.554 72.7167 20.6568 72.759L20.9108 72.8618L20.9047 73.14C20.9047 73.14 20.5721 85.6525 20.4754 89.535L20.4693 89.8616L20.1488 89.916C19.4352 90.037 18.8244 90.0853 18.2922 90.0853ZM15.6736 88.4888C15.8913 88.7367 16.8589 89.5955 19.6831 89.1843C19.7799 85.3622 20.052 75.2507 20.1004 73.4061C19.4956 73.2126 17.9596 72.8316 16.9073 73.4485C16.3086 73.7992 15.9397 74.4524 15.8187 75.3837L15.6736 88.4888Z" fill="#020202"/>
<path d="M42.8447 36.7881C43.897 36.8364 121.137 38.56 121.137 38.56L119.649 119.059L44.3748 120.16L42.8447 36.7881Z" fill="white"/>
<path d="M43.9879 120.565L42.4397 36.3768L42.863 36.395C43.9032 36.4434 120.375 38.1488 121.149 38.1669L121.542 38.173L121.536 38.566L120.042 119.446L43.9879 120.565ZM43.2501 37.1933L44.768 119.755L119.262 118.666L120.732 38.947C114.376 38.808 49.1888 37.3505 43.2501 37.1933Z" fill="#020202"/>
<path d="M54.0088 113.907L53.3315 46.9057L53.271 45.5328L55.0732 45.1095H55.1216L113.632 45.545L111.884 111.863L54.0088 113.907ZM54.0935 46.1618L54.1237 46.8875L54.7889 113.09L111.11 111.107L112.815 46.3432L55.1578 45.9138L54.0935 46.1618Z" fill="#020202"/>
<path d="M53.9847 113.235L53.2046 103.378L102.553 102.501L111.074 111.125L53.9847 113.235ZM54.0633 104.152L54.7165 112.413L109.241 110.399L102.226 103.299L54.0633 104.152Z" fill="#020202"/>
<path d="M53.6343 103.765L102.396 102.9L102.777 45.9925L53.6827 45.7989L53.6343 103.765Z" fill="#E0E1E0"/>
<path d="M53.2349 104.17L53.2832 45.4058L103.176 45.5994L102.789 103.293L53.2349 104.17ZM54.0755 46.1981L54.0271 103.36L101.996 102.507L102.371 46.3795L54.0755 46.1981Z" fill="#020202"/>
<path d="M29.8065 41.5838L55.3635 48.2966L56.2767 107.315L30.1451 120.021L20.7472 120.069L20.0759 40.5799L29.8065 41.5838Z" fill="white"/>
<path d="M20.348 120.462L19.6707 40.1324L29.9031 41.1967L55.7505 47.9882L56.6697 107.557L30.2297 120.414L20.348 120.462ZM20.4689 41.0153L21.1342 119.67L30.0483 119.622L55.8714 107.067L54.9703 48.599L29.7338 41.9708L20.4689 41.0153Z" fill="#020202"/>
<path d="M20.348 120.462L19.6707 40.1445L28.8025 40.8278L30.5442 120.408L20.348 120.462ZM20.4689 41.0032L21.1342 119.67L29.7338 119.628L28.0224 41.5717L20.4689 41.0032Z" fill="#020202"/>
<path d="M111.999 161.616C111.926 165.734 132.27 165.196 133.462 162.807C134.653 160.425 138.415 151.462 126.453 152.654C126.453 152.66 114.345 151.97 111.999 161.616Z" fill="white"/>
<path d="M123.12 164.942C120.193 164.942 117.272 164.7 115.24 164.204C112.876 163.624 111.684 162.753 111.702 161.61L111.708 161.543C114.091 151.765 126.344 152.351 126.471 152.357C130.492 151.952 133.201 152.678 134.465 154.516C136.286 157.159 134.556 161.289 133.728 162.946C133.074 164.253 128.091 164.942 123.12 164.942ZM112.295 161.652C112.307 162.438 113.402 163.14 115.379 163.624C121.288 165.069 132.421 164.223 133.195 162.674C133.976 161.114 135.614 157.232 133.976 154.855C132.845 153.21 130.323 152.575 126.483 152.956C126.313 152.95 114.581 152.4 112.295 161.652Z" fill="#020202"/>
<path d="M157.707 163.86C157.525 167.978 140.471 166.242 139.606 163.823C138.736 161.368 136.099 152.224 146.108 154.105C146.071 154.069 156.298 154.069 157.707 163.86Z" fill="white"/>
<path d="M150.655 166.629C145.781 166.629 139.89 165.505 139.328 163.926C138.681 162.094 137.399 157.57 139.491 155.127C140.749 153.657 142.999 153.216 146.168 153.809V153.815C146.44 153.784 146.966 153.809 147.994 153.978C150.643 154.425 156.926 156.276 158.009 163.817L158.015 163.848V163.878C157.978 164.767 157.253 165.928 154.011 166.418C153.013 166.557 151.864 166.629 150.655 166.629ZM143.658 154.147C141.965 154.147 140.719 154.601 139.939 155.514C138.052 157.715 139.273 161.985 139.89 163.721C140.398 165.13 148.726 166.599 153.915 165.819C155.191 165.626 157.325 165.118 157.41 163.872C156.14 155.181 147.643 154.456 146.319 154.401L146.301 154.444L146.053 154.395C145.176 154.232 144.378 154.147 143.658 154.147Z" fill="#020202"/>
<path d="M121.935 149.225C121.681 150.198 122.334 154.069 123.199 154.97C124.07 155.871 126.162 158.078 132.162 157.026C135.808 156.161 134.581 149.327 134.581 149.327L123.846 148.711C123.852 148.717 122.189 148.287 121.935 149.225Z" fill="white"/>
<path d="M129.198 157.606C125.316 157.606 123.743 155.968 122.993 155.187C122.056 154.208 121.367 150.234 121.645 149.152C121.905 148.184 123.199 148.245 123.925 148.432L134.835 149.049L134.877 149.279C134.931 149.569 136.111 156.397 132.228 157.316C131.085 157.522 130.081 157.606 129.198 157.606ZM122.225 149.303C121.996 150.204 122.637 153.954 123.417 154.764C124.282 155.665 126.289 157.752 132.113 156.736C135.07 156.034 134.496 150.791 134.327 149.618L123.834 149.019C123.761 149.001 122.395 148.68 122.225 149.303Z" fill="#020202"/>
<path d="M138.488 148.862L138.923 155.151C138.923 155.151 143.259 158.151 151.931 155.042L150.268 147.132L138.488 148.862Z" fill="white"/>
<path d="M144.541 156.76C140.785 156.76 138.868 155.478 138.747 155.399L138.626 155.314L138.167 148.608L150.498 146.793L152.269 155.236L152.021 155.326C149.016 156.403 146.518 156.76 144.541 156.76ZM139.207 154.976C139.938 155.399 144.099 157.449 151.58 154.849L150.032 147.465L138.802 149.116L139.207 154.976Z" fill="#020202"/>
<path d="M100.938 127.653C100.938 127.653 97.9026 132.781 101.374 138.387C101.374 138.387 106.72 143.516 111.31 138.962L110.875 127.979L100.938 127.653Z" fill="white"/>
<path d="M107.064 141.139C103.865 141.139 101.204 138.641 101.168 138.605L101.12 138.545C97.5939 132.854 100.654 127.556 100.684 127.502L100.775 127.35L111.165 127.689L111.612 139.083L111.521 139.173C110.052 140.631 108.504 141.139 107.064 141.139ZM101.61 138.194C102.057 138.611 106.823 142.862 111.007 138.841L110.59 128.27L101.114 127.961C100.666 128.838 98.6341 133.362 101.61 138.194Z" fill="#020202"/>
<path d="M109.683 100.227C109.465 99.326 100.182 110.671 98.5552 128.373C98.5552 128.373 102.347 132.672 112.537 134.553C112.537 134.553 114.309 119.198 109.683 100.227Z" fill="white"/>
<path d="M112.797 134.904L112.482 134.843C102.31 132.969 98.4882 128.747 98.331 128.566L98.2463 128.469L98.2584 128.342C99.8127 111.409 108.461 99.955 109.598 99.8764C109.773 99.8643 109.936 99.9792 109.979 100.155C114.563 118.956 112.857 134.432 112.839 134.589L112.797 134.904ZM98.8632 128.27C99.474 128.887 103.363 132.491 112.271 134.202C112.482 131.916 113.571 117.68 109.465 100.608C107.868 101.957 100.357 112.467 98.8632 128.27Z" fill="#020202"/>
<path d="M108.092 132.243C106.647 118.545 106.611 94.6634 109.683 81.909C112.755 69.191 128.727 61.4561 142.527 64.6372C142.527 64.6372 168.145 67.0925 167.062 103.299C168.689 122.343 166.554 133.906 166.554 133.906C166.554 133.906 165.798 144.713 158.245 148.287C152.028 151.65 142.418 156.312 118.065 149.95C112.573 146.479 109.507 145.898 108.092 132.243Z" fill="white"/>
<path d="M139.316 153.409C133.807 153.409 126.876 152.557 117.992 150.234L117.908 150.198C117.406 149.884 116.928 149.587 116.462 149.309C111.866 146.515 109.09 144.828 107.796 132.273C106.248 117.626 106.423 94.1796 109.393 81.8365C112.404 69.3724 128.225 61.0328 142.594 64.3408C142.618 64.3408 149.125 65.0182 155.39 70.1525C161.16 74.8878 167.921 84.4792 167.359 103.299C168.967 122.131 166.869 133.833 166.851 133.948C166.844 134.027 165.998 144.937 158.372 148.547C154.695 150.549 149.397 153.409 139.316 153.409ZM118.192 149.672C143.065 156.161 152.482 151.069 158.112 148.021C165.435 144.55 166.258 133.991 166.27 133.882C166.294 133.731 168.381 122.101 166.778 103.323C167.334 84.7091 160.694 75.2688 155.028 70.6182C148.901 65.5927 142.576 64.9335 142.515 64.9274C128.406 61.6799 112.924 69.8078 109.985 81.9695C107.028 94.2521 106.859 117.608 108.401 132.201C109.665 144.465 112.193 146.001 116.789 148.789C117.23 149.073 117.702 149.364 118.192 149.672Z" fill="#020202"/>
<path d="M138.137 85.9488C121.113 85.9488 109.985 81.6006 109.822 81.5341L110.046 80.9777C110.275 81.0684 133.117 89.9886 163.518 82.0844L163.669 82.665C154.308 85.1021 145.648 85.9488 138.137 85.9488Z" fill="#020202"/>
<path d="M109.937 81.401C109.937 81.401 114.854 83.7838 128.727 85.2654L127.463 104.346C127.463 104.346 108.963 102.682 107.736 98.2012C107.808 94.9174 108.746 84.8723 109.937 81.401Z" fill="#C8E2E2"/>
<path d="M127.741 104.672L127.438 104.642C126.676 104.575 108.715 102.906 107.445 98.2798L107.433 98.2375V98.1951C107.505 94.8871 108.443 84.8179 109.652 81.3043L109.761 80.9837L110.064 81.1289C110.112 81.1531 115.113 83.5116 128.757 84.9691L129.041 84.9993L127.741 104.672ZM108.032 98.1649C109.066 101.582 121.905 103.517 127.184 104.019L128.412 85.5315C116.589 84.2494 111.388 82.3384 110.118 81.8062C108.981 85.5013 108.11 94.9295 108.032 98.1649Z" fill="#020202"/>
<path d="M137.665 105.646C118.96 105.646 107.651 100.106 107.487 100.022L107.753 99.4893C107.983 99.6042 131.309 111.022 166.542 100.808L166.711 101.382C155.789 104.551 145.992 105.646 137.665 105.646Z" fill="#020202"/>
<path d="M133.934 67.0199C134.188 63.5486 133.643 47.2201 148.569 43.6762C148.569 43.6762 159.267 41.9769 156.159 50.7217C154.641 53.0318 154.066 55.0215 146.694 57.2228C146.694 57.2228 138.778 57.7671 137.332 68.3503C135.881 71.2834 133.68 70.4912 133.934 67.0199Z" fill="white"/>
<path d="M135.367 70.4549C135.246 70.4549 135.131 70.4368 135.01 70.4065C134.03 70.1404 133.498 68.8342 133.637 67.0017C133.655 66.7356 133.673 66.391 133.685 65.9797C133.891 61.2142 134.514 46.7061 148.496 43.386C148.738 43.3436 153.951 42.5514 156.116 45.1519C157.198 46.4581 157.307 48.3631 156.436 50.8184L156.406 50.885C156.255 51.1148 156.116 51.3385 155.977 51.5623C154.713 53.5822 153.522 55.4932 146.772 57.5131L146.706 57.5252C146.391 57.5494 139.013 58.1904 137.622 68.3987L137.592 68.4895C136.975 69.7474 136.159 70.4549 135.367 70.4549ZM134.23 67.0441C134.103 68.7616 134.611 69.6808 135.167 69.832C135.754 69.9893 136.479 69.3784 137.042 68.2717C138.469 57.9848 146.035 56.9991 146.633 56.9386C153.141 54.9913 154.217 53.2556 155.469 51.2539C155.602 51.0362 155.741 50.8184 155.886 50.5947C156.672 48.3692 156.594 46.6698 155.656 45.545C153.709 43.2045 148.659 43.9726 148.611 43.9786C135.089 47.1899 134.478 61.3533 134.278 66.0099C134.266 66.4212 134.248 66.7719 134.23 67.0441Z" fill="#020202"/>
<path d="M173.968 134.263C173.968 134.263 175.994 146.298 165.87 145.79C155.753 145.282 159.514 133.827 159.514 133.827L173.968 134.263Z" fill="white"/>
<path d="M166.482 146.104C166.276 146.104 166.07 146.098 165.859 146.086C163.077 145.947 161.051 144.979 159.835 143.213C157.35 139.597 159.152 133.973 159.231 133.737L159.303 133.525L174.222 133.973L174.265 134.214C174.307 134.468 175.263 140.401 172.227 143.818C170.872 145.336 168.943 146.104 166.482 146.104ZM159.732 134.136C159.436 135.188 158.269 139.881 160.325 142.881C161.426 144.483 163.301 145.366 165.883 145.493C168.453 145.62 170.437 144.925 171.773 143.425C174.289 140.601 173.847 135.696 173.702 134.559L159.732 134.136Z" fill="#020202"/>
<path d="M163.561 102.362C162.805 102.688 157.997 103.735 157.489 125.851C157.489 125.851 157.416 134.704 158.136 136.513C158.862 138.321 175.154 139.258 175.553 133.513C175.958 127.798 174.761 97.4089 163.561 102.362Z" fill="white"/>
<path d="M165.157 138.188C161.565 138.188 158.245 137.565 157.864 136.615C157.126 134.777 157.186 126.207 157.192 125.839C157.416 116.017 158.668 103.934 163.355 102.114L163.439 102.078C165.393 101.213 167.171 101.334 168.737 102.434C175.371 107.091 176.218 128.252 175.849 133.519C175.698 135.726 173.454 137.232 169.36 137.873C168.03 138.091 166.572 138.188 165.157 138.188ZM165.913 102.108C165.211 102.108 164.468 102.283 163.681 102.628L163.573 102.67C160.156 103.995 158.099 112.225 157.791 125.845C157.791 125.929 157.725 134.656 158.42 136.386C158.728 137.154 164.171 138.085 169.275 137.281C171.434 136.942 175.087 135.992 175.262 133.477C175.613 128.481 174.736 107.369 168.398 102.924C167.618 102.386 166.796 102.108 165.913 102.108Z" fill="#020202"/>
<path d="M135.596 72.8255C131.49 72.8255 121.856 72.5474 119.486 69.9953C119.087 69.5659 118.911 69.0942 118.96 68.5862L119.552 68.6406C119.522 68.9793 119.643 69.2877 119.921 69.5901C121.778 71.5858 129.845 72.3478 137.03 72.2208C146.222 72.0515 152.778 70.9085 152.959 69.445L153.552 69.5175C153.207 72.2268 141.886 72.7227 137.036 72.8135C136.721 72.8135 136.225 72.8255 135.596 72.8255Z" fill="#020202"/>
<path d="M175.414 68.1387L191.748 57.4042L194.965 64.5948L178.202 71.3862L175.414 68.1387Z" fill="#F0F3C2"/>
<path d="M178.111 71.7491L174.966 68.0782L191.875 56.9688L195.365 64.7641L178.111 71.7491ZM175.861 68.2052L178.286 71.0355L194.566 64.4376L191.621 57.8518L175.861 68.2052Z" fill="#020202"/>
<path d="M173.787 69.1486L175.559 71.8217L171.839 73.013C171.839 73.013 170.068 71.3862 170.866 71.1685C171.652 70.9206 173.787 69.1486 173.787 69.1486Z" fill="#F0F3C2"/>
<path d="M171.761 73.3577L171.634 73.2428C171.204 72.8497 170.231 71.8761 170.37 71.2834C170.394 71.1685 170.485 70.969 170.781 70.8903C171.374 70.7029 173.013 69.4087 173.593 68.9249L173.847 68.7132L176.018 71.991L171.761 73.3577ZM170.957 71.4588C170.999 71.6705 171.422 72.2087 171.912 72.6804L175.087 71.6644L173.714 69.5962C173.109 70.086 171.646 71.2351 170.957 71.4588Z" fill="#020202"/>
<path d="M55.7377 165.051C55.6955 165.093 55.6533 165.135 55.6172 165.178C55.5991 165.202 55.575 165.22 55.5569 165.238C55.5448 165.25 55.5328 165.262 55.5267 165.268C55.5147 165.28 55.5026 165.292 55.4966 165.31C55.4785 165.334 55.5147 165.371 55.5388 165.352C55.5508 165.34 55.5629 165.334 55.581 165.322C55.593 165.31 55.6051 165.298 55.6111 165.292C55.6352 165.268 55.6533 165.25 55.6774 165.232C55.7196 165.19 55.7618 165.147 55.8101 165.111C55.8281 165.093 55.8281 165.063 55.8101 165.045C55.786 165.033 55.7558 165.027 55.7377 165.051Z" fill="#010101"/>
<path d="M85.8127 61.8673C82.4442 63.7058 79.0575 65.5261 75.689 67.3646C72.3205 69.203 68.9339 71.0113 65.6501 73.007C65.5714 73.0553 65.638 73.1702 65.7226 73.1279C69.1637 71.4285 72.5201 69.5477 75.8825 67.6972C79.245 65.8406 82.5954 63.9719 85.9578 62.1213C86.1211 62.0246 85.9759 61.7766 85.8127 61.8673Z" fill="#010101"/>
<path d="M89.8652 64.9879C82.4025 68.8705 75.0305 72.9042 67.7855 77.1859C65.7232 78.4014 63.661 79.623 61.6835 80.9777C61.6169 81.0261 61.6774 81.1228 61.75 81.0865C65.4451 79.0909 69.0131 76.8472 72.6538 74.7547C76.2944 72.6562 79.9592 70.594 83.6362 68.556C85.7347 67.4009 87.8392 66.264 89.9559 65.1452C90.0526 65.0907 89.9619 64.9395 89.8652 64.9879Z" fill="#010101"/>
<path d="M90.0403 72.5595C84.0411 75.5772 78.0963 78.7219 72.206 81.9513C70.5248 82.8706 68.8375 83.7838 67.1805 84.7635C67.1139 84.8058 67.1744 84.9026 67.2409 84.8663C70.2708 83.4209 73.2462 81.8364 76.2095 80.258C79.1789 78.6796 82.1482 77.1133 85.0934 75.5046C86.7746 74.5854 88.4437 73.6299 90.1129 72.6925C90.2036 72.6441 90.131 72.5171 90.0403 72.5595Z" fill="#010101"/>
<path d="M111.999 90.1035C112.9 89.6681 113.765 89.148 114.636 88.6521C115.513 88.1622 116.36 87.63 117.206 87.0918C117.321 87.0192 117.218 86.8559 117.103 86.9104C116.202 87.3579 115.319 87.8175 114.442 88.3194C113.572 88.8153 112.689 89.2931 111.854 89.8374C111.685 89.9462 111.824 90.1821 111.999 90.1035Z" fill="#010101"/>
<path d="M110.983 93.8046C112.422 93.0426 113.795 92.1415 115.216 91.3311C116.631 90.5207 118.077 89.7467 119.467 88.9C119.54 88.8577 119.48 88.7609 119.401 88.7911C117.913 89.4503 116.474 90.2667 115.065 91.0832C113.656 91.8996 112.204 92.7039 110.898 93.6715C110.825 93.7259 110.892 93.8529 110.983 93.8046Z" fill="#010101"/>
</g>
<defs>
<clipPath id="clip0_39_211">
<rect width="210" height="197" fill="white"/>
</clipPath>
</defs>
</svg>
