<svg width="210" height="200" viewBox="0 0 210 200" fill="none" xmlns="http://www.w3.org/2000/svg">
<rect width="210" height="200" fill="white"/>
<ellipse opacity="0.1" cx="100.043" cy="91.859" rx="95.4172" ry="87.1074" fill="url(#paint0_linear_705_418)"/>
<ellipse opacity="0.05" cx="100.043" cy="101.15" rx="72.1192" ry="81.2143" fill="#122AF5"/>
<g clip-path="url(#clip0_705_418)">
<path d="M140.719 32.0109C140.719 32.0109 184.309 7.04444 202.878 41.0798C202.878 41.0798 207.548 61.5523 182.46 53.4551C182.46 53.4551 175.186 49.312 171.988 42.9152C168.614 36.1405 161.745 31.8355 154.201 32.3888C151.515 32.5912 148.695 33.0635 145.928 33.9812" fill="white"/>
<path d="M140.381 31.4306C153.364 24.4805 168.762 19.6626 183.472 23.4008C192.527 25.749 200.206 32.5237 204.417 40.7289C205.551 46.3295 204.134 53.509 198.223 55.7493C192.73 57.7871 187.143 56.2081 181.92 54.5887C178.492 52.4564 175.51 49.9058 173.081 46.6939C171.907 45.2229 171.056 43.3065 170.125 41.7411C164.862 33.0365 155.24 31.606 146.13 34.6425L145.712 33.3604C147.547 32.7261 149.423 32.2673 151.34 31.9704C157.129 30.7963 163.485 32.1998 167.966 36.181C171.043 38.5292 172.662 42.4698 174.822 45.3713C177.048 48.1919 180.004 50.5805 183.067 52.4024C184.201 52.6723 188.115 53.7789 190.193 53.8869C200.233 55.034 202.433 48.8666 201.488 41.849C192.622 24.5614 174.781 21.552 157.305 26.3428C151.704 27.8273 146.198 29.9191 141.07 32.6047L140.395 31.4306H140.381Z" fill="#231F20"/>
<path d="M132.285 189.421L121.488 179.718L131.394 161.796L136.994 162.093C136.994 162.093 155.699 170.77 155.011 182.552C154.93 184.009 154.039 185.305 152.703 185.912C149.518 187.383 140.625 189.232 134.741 188.557" fill="white"/>
<path d="M131.825 189.92L121.029 180.217L120.624 179.853L120.88 179.38L130.786 161.459L130.988 161.094L131.407 161.121L137.007 161.418C144.632 164.913 153.539 170.662 155.78 179.3C156.319 181.675 156.319 184.698 154.147 186.29C152.257 187.613 149.869 188.004 147.682 188.544C143.404 189.435 139.018 189.893 134.659 189.232L134.808 187.896C138.951 188.058 143.148 187.356 147.223 186.466C148.991 186.02 151.394 185.48 152.811 184.576C154.309 183.456 154.012 181.405 153.715 179.745C151.528 171.675 143.62 166.6 136.697 162.7L136.94 162.768L131.339 162.471L131.96 162.12L122.055 180.042L121.92 179.219L132.716 188.922L131.812 189.92H131.825Z" fill="#231F20"/>
<path d="M131.392 163.631C131.392 163.631 140.745 177.181 135.859 187.208C135.198 188.571 133.795 189.421 132.283 189.421H88.963C86.3044 189.421 84.3745 186.857 85.1438 184.306C86.4663 179.92 94.2936 172.849 115.603 163.618" fill="white"/>
<path d="M131.946 163.254C136.737 169.718 140.678 178.611 137.709 186.749C137.047 189.151 134.861 191.04 132.297 191C124.24 190.96 99.5032 190.906 91.8513 190.825C91.325 190.811 89.6246 190.811 89.0982 190.798C86.1967 190.892 83.5516 188.314 83.6866 185.386C84.9821 175.48 106.912 166.627 115.347 163.011L115.887 164.252C109.274 167.356 102.688 170.581 96.6017 174.617C93.4842 176.762 84.9012 182.417 86.5746 186.601C87.0739 187.559 88.0321 188.099 89.1117 188.058H90.0294L91.8648 188.031C94.159 187.991 100.502 187.977 102.891 187.964L132.297 187.856C133.039 187.856 133.781 187.491 134.227 186.897C137.925 179.772 134.335 170.743 130.853 164.009L131.96 163.24L131.946 163.254Z" fill="#231F20"/>
<path d="M106.184 147.248C106.184 147.248 113.444 161.459 115.617 163.631H131.393V147.248C131.393 147.248 116.562 147.585 106.184 147.248Z" fill="white" stroke="#231F20" stroke-width="1.34954" stroke-miterlimit="10"/>
<path d="M165.428 133.928C165.428 133.928 167.142 80.9047 170.867 67.5307C171.326 65.8708 171.488 64.1434 171.326 62.416C170.692 55.3849 166.063 40.1216 139.004 31.4441C138.37 31.2417 137.709 31.0797 137.061 30.9583C130.34 29.7302 95.9406 25.3442 88.6936 62.443C88.6936 62.443 82.3643 94.67 82.1888 126.937C82.1618 131.054 83.7543 135.021 86.6693 137.923C92.2699 143.523 104.74 150.082 132.378 149.11C132.797 149.097 133.228 149.07 133.647 149.016C138.114 148.503 162.918 145.183 165.455 133.928H165.428Z" fill="white"/>
<path d="M164.308 133.78C164.901 115.804 165.59 97.0721 167.533 79.2177C167.978 75.574 168.383 71.9437 169.26 68.246C169.706 66.4376 170.043 65.0206 169.962 63.2392C168.991 48.5697 155.617 38.8666 142.796 34.0757L140.259 33.1715C136.129 31.5655 131.608 31.3631 127.209 31.2956C120.11 31.3361 112.89 32.7396 106.763 36.2889C100.569 39.7303 95.8456 45.4388 92.9576 51.9301C89.9616 58.4214 89.0304 65.6819 87.8023 72.8479C84.9683 90.7968 83.052 108.935 82.863 127.113C83.5648 145.642 112.607 148.436 126.804 148.314C136.561 148.544 161.325 144.508 164.308 133.753V133.78ZM166.548 134.063C163.579 146.438 137.56 150.365 126.804 150.055C111.689 149.974 82.1613 146.857 81.5 127.14C81.6889 105.21 83.9562 83.3338 87.8833 61.7682C89.9616 50.8505 95.7106 40.0811 105.684 34.4671C112.188 30.6209 119.773 29.0959 127.182 28.9879C131.824 29.0014 136.629 29.2174 141.042 30.8638L143.66 31.7815C157.371 36.7208 171.825 47.3282 172.769 63.1447C172.891 65.0341 172.405 67.1934 171.973 68.9208C171.15 72.3216 170.704 75.9519 170.259 79.5281C168.302 97.342 167.358 116.114 166.534 134.049L166.548 134.063Z" fill="#231F20"/>
<path d="M114.038 32.0379C114.038 32.0379 150.867 30.189 170.84 59.3121Z" fill="white"/>
<path d="M114.038 32.0379C114.038 32.0379 150.867 30.189 170.84 59.3121" stroke="#231F20" stroke-width="1.34954" stroke-miterlimit="10"/>
<path d="M91.3389 53.2256C91.3389 53.2256 132.716 49.5819 169.342 75.8169Z" fill="white"/>
<path d="M91.2713 52.5509C98.2214 51.2823 105.226 51.9031 112.108 52.7398C132.797 55.2904 152.945 62.8343 169.72 75.2636L168.937 76.3567C151.906 64.8991 132.162 57.7466 111.784 55.3309C105.01 54.4942 98.1809 54.3458 91.3793 53.8869L91.2578 52.5374L91.2713 52.5509Z" fill="#231F20"/>
<path d="M84.7529 88.4891C84.7529 88.4891 108.343 84.2245 166.737 105.831Z" fill="white"/>
<path d="M84.645 87.8143C91.7436 86.2084 98.8692 87.3825 105.941 88.2192C126.764 91.1342 147.358 97.7739 166.994 105.183L166.522 106.451L156.562 103.037C140.017 97.6794 122.864 92.7671 105.644 90.4189C98.8017 89.4338 91.7571 89.1638 84.8879 89.1369L84.645 87.8143Z" fill="#231F20"/>
<path d="M102.324 88.867C102.324 88.867 103.849 61.2689 110.03 53.8059Z" fill="white"/>
<path d="M102.324 88.867C102.324 88.867 103.849 61.2689 110.03 53.8059" stroke="#231F20" stroke-width="1.34954" stroke-miterlimit="10"/>
<path d="M123.35 153.523C123.35 153.523 124.983 165.17 140.718 161.459C140.718 161.459 146.98 158.274 148.006 150.419" fill="white"/>
<path d="M123.35 153.523C123.35 153.523 124.983 165.17 140.718 161.459C140.718 161.459 146.98 158.274 148.006 150.419" stroke="#231F20" stroke-width="1.34954" stroke-miterlimit="10"/>
<path d="M140.718 107.626C140.718 107.626 122.729 77.9222 116.224 115.979C109.719 154.036 119.004 153.429 119.004 153.429C119.004 153.429 140.354 154.589 150.88 149.218C150.88 149.218 156.535 136.411 140.718 107.639V107.626Z" fill="white"/>
<path d="M139.26 108.462C133.808 100.432 125.617 91.728 120.434 105.507C117.115 114.859 116.021 125.143 115.212 135.008C115.009 138.341 115.036 141.688 115.428 144.94C115.832 147.41 116.21 150.069 117.992 151.863C118.221 152.133 118.72 152.363 118.95 152.43C121.635 152.565 124.375 152.619 127.101 152.565C135.009 152.349 143.296 151.904 150.583 148.598L150.273 148.921C153.431 135.682 145.59 119.852 139.26 108.449V108.462ZM142.189 106.775C148.208 118.827 155.779 136.236 151.42 149.718C146.373 152.214 140.826 153.199 135.293 153.834C130.057 154.428 123.903 154.589 119.085 154.414C118.046 154.414 117.384 153.996 116.669 153.402C114.415 151.351 113.768 148.085 113.268 145.264C112.796 141.796 112.702 138.341 112.836 134.913C113.079 128.044 113.997 121.296 115.09 114.549C116.008 109.461 117.195 104.063 120.057 99.5958C126.926 88.9074 137.857 99.2719 142.175 106.789L142.189 106.775Z" fill="#231F20"/>
<path d="M19.9004 28.8665C19.9004 28.8665 22.1137 74.3054 16.783 87.234C16.2837 88.4351 17.5927 89.6767 18.9153 89.6767H32.5051" fill="white"/>
<path d="M19.9004 28.8665C19.9004 28.8665 22.1137 74.3054 16.783 87.234C16.2837 88.4351 17.5927 89.6767 18.9153 89.6767H32.5051" stroke="#231F20" stroke-width="1.34954" stroke-miterlimit="10"/>
<path d="M21.9788 26.0729H65.8118C67.0939 26.0729 68.0926 27.22 67.9441 28.5561C67.0669 36.7343 66.4461 63.887 78.457 91.1612C79.1048 92.6322 78.0656 94.3191 76.5002 94.3191H34.5835C33.5039 94.3191 32.5997 93.4959 32.4512 92.3892C31.574 85.5201 24.5834 66.7885 19.9005 28.907C19.7251 27.4495 20.5618 26.0864 21.9788 26.0864V26.0729Z" fill="white"/>
<path d="M21.9784 25.0608C31.5331 25.1013 55.8518 25.1957 65.0691 25.2227C66.6076 25.0338 68.335 25.8705 68.6859 27.4899C68.9558 28.7585 68.5374 30.0541 68.5374 31.3226C67.8222 43.1986 68.9693 55.169 71.412 66.802C72.9234 73.7791 74.9477 80.6618 77.6063 87.288C77.7548 87.8008 79.2393 90.9992 79.2933 91.6065C79.4822 92.7671 78.9289 93.9952 77.9032 94.6025C76.8371 95.2368 75.1772 94.9129 74.0166 94.9939H70.4268C60.1163 95.0343 44.853 95.0343 34.4886 95.0613C32.8286 95.0478 31.6546 93.5498 31.5871 91.9709C28.7261 79.1503 24.9473 66.4916 22.7206 53.509C21.4116 46.424 20.251 39.3254 19.3198 32.1863L19.0769 30.4049L18.9554 29.5142C18.4426 27.5979 19.6707 24.9663 21.9649 25.0473L21.9784 25.0608ZM21.9784 27.0716C20.5074 27.22 20.9392 29.0959 21.0877 30.162C23.1795 47.3551 26.3239 64.4133 30.6694 81.1881C31.5601 84.8453 32.6397 88.4621 33.22 92.2138C33.274 92.9156 33.8543 93.5229 34.5561 93.5364C44.9205 93.5364 60.1298 93.6038 70.4403 93.6173H74.0301C74.6778 93.5633 76.7291 93.7793 77.2285 93.4284C78.0112 92.9291 78.2001 91.9709 77.7278 91.1342C74.3809 83.4148 71.7763 75.3311 69.9949 67.1124C67.3633 54.7641 66.1353 42.038 67.0529 29.4063L67.1339 28.5021C67.1609 28.2727 67.1339 28.0972 67.0934 27.9083C66.837 26.9771 65.9598 26.8152 65.0691 26.8961C55.9462 26.9231 31.4116 27.0311 21.9784 27.0581V27.0716Z" fill="#231F20"/>
<path d="M62.9643 136.411C61.6552 139.313 58.7402 141.647 55.4339 141.485C52.5594 141.35 49.9143 138.786 49.7928 135.885C49.7658 135.197 49.8603 134.454 50.1842 133.834C50.5081 133.213 51.3988 132.228 52.1815 132.754C52.7078 133.118 52.6538 133.969 52.5054 134.495C52.2895 135.291 51.7226 135.979 51.1019 136.492C48.2138 138.935 44.0303 137.855 41.2907 135.736C38.3217 133.442 36.5538 129.798 36.4864 126.06C36.4864 125.197 35.1233 125.197 35.1368 126.06C35.2043 130.338 37.2961 134.454 40.7374 137.005C44.1787 139.556 49.6713 140.392 52.7483 136.735C53.7739 135.52 54.5162 133.483 53.3961 132.066C52.087 130.419 49.9278 131.553 49.0775 133.037C47.1342 136.438 49.6848 140.824 52.9372 142.241C57.3232 144.171 62.303 141.148 64.1384 137.072C64.4893 136.29 63.3287 135.601 62.9778 136.398L62.9643 136.411Z" fill="#231F20"/>
<path d="M129.699 65.5064C129.564 67.0314 129.537 68.5564 129.618 70.0814C129.632 70.4457 129.915 70.7561 130.293 70.7561C130.644 70.7561 130.981 70.4457 130.968 70.0814C130.887 68.5564 130.914 67.0314 131.049 65.5064C131.076 65.1421 130.711 64.8317 130.374 64.8317C129.983 64.8317 129.726 65.1421 129.699 65.5064Z" fill="#231F20"/>
<path d="M132.83 68.192C132.83 68.192 132.83 68.2595 132.843 68.3V68.219C132.843 68.219 132.843 68.3405 132.843 68.4079C132.843 68.5159 132.87 68.6239 132.87 68.7183C132.884 68.9343 132.897 69.1637 132.911 69.3796C132.911 69.8249 132.911 70.2568 132.87 70.7021C132.843 71.053 133.207 71.3904 133.545 71.3769C133.936 71.3634 134.193 71.08 134.22 70.7021C134.301 69.744 134.26 68.7858 134.112 67.8411C134.085 67.6792 133.936 67.5172 133.801 67.4363C133.653 67.3553 133.437 67.3148 133.275 67.3688C133.113 67.4228 132.951 67.5172 132.87 67.6792C132.776 67.8546 132.776 68.0031 132.803 68.2055L132.83 68.192Z" fill="#231F20"/>
<path d="M135.893 69.2851V71.1745C135.893 71.5254 136.203 71.8628 136.567 71.8493C136.932 71.8358 137.242 71.5524 137.242 71.1745V69.2851C137.242 68.9343 136.932 68.5969 136.567 68.6104C136.203 68.6239 135.893 68.9073 135.893 69.2851Z" fill="#231F20"/>
<path d="M105.992 89.0845C107.433 68.2845 112.598 57.0845 115 54.0845C104.911 52.8845 95.983 52.9179 92.7801 53.0845C88.4563 63.4845 85.7739 81.0845 84.9731 88.5845C92.66 87.3845 102.189 88.4179 105.992 89.0845Z" fill="#5BC3C8" stroke="black"/>
<path d="M90.3244 73.2182L90.9083 69.2507C90.9681 68.8447 91.4781 68.6979 91.7445 69.0101L92.9862 70.4649C93.1295 70.6329 93.1391 70.8773 93.0093 71.056L91.1837 73.5686C90.8902 73.9727 90.2517 73.7123 90.3244 73.2182Z" fill="white" stroke="black" stroke-width="0.477838"/>
<path d="M41.3749 55.125C40.7916 52.6043 42.7131 49.8431 44.3055 48.0556C46.6352 45.4404 49.9277 44.0432 53.368 43.75C54.1727 43.6814 55.6327 43.517 56.1041 44.4236C56.9314 46.0147 55.2348 47.8207 54.3055 48.875C52.229 51.2306 49.9992 53.4617 48.0694 55.9444C46.4444 58.0349 44.8417 60.5206 44.6666 63.2431C44.4302 66.9172 48.2302 67.848 51.1249 68.25" stroke="#E6C1C3" stroke-width="3" stroke-linecap="round"/>
<path d="M49.625 74.25C49.4598 74.0665 49.4592 74 49.25 74" stroke="#E6C1C3" stroke-width="3" stroke-linecap="round"/>
<ellipse cx="43.9617" cy="30.3051" rx="0.939209" ry="0.787786" fill="#D5E7E6"/>
<path d="M46.1056 29.07L43.9763 30.1789L46.313 30.0592L46.1056 29.07Z" fill="black" stroke="black" stroke-linejoin="round"/>
<path d="M48.2683 28.7723C48.4934 29.411 48.4734 30.1102 48.2747 30.714C48.0724 31.3283 47.7127 31.7766 47.313 32.0146C46.9134 32.2526 46.4172 32.3139 45.9273 32.1118C45.4458 31.9131 45.0254 31.4761 44.8003 30.8373C44.5752 30.1986 44.5952 29.4994 44.7939 28.8957C44.9962 28.2814 45.3559 27.833 45.7556 27.595C46.1552 27.3571 46.6514 27.2957 47.1413 27.4979C47.6228 27.6965 48.0432 28.1335 48.2683 28.7723Z" fill="#5BC3C8" stroke="black" stroke-width="0.6"/>
</g>
<defs>
<linearGradient id="paint0_linear_705_418" x1="100.043" y1="4.75165" x2="100.043" y2="178.966" gradientUnits="userSpaceOnUse">
<stop stop-color="#009490"/>
<stop offset="1" stop-color="#009490" stop-opacity="0"/>
</linearGradient>
<clipPath id="clip0_705_418">
<rect width="190.46" height="171" fill="white" transform="translate(16 20)"/>
</clipPath>
</defs>
</svg>
