<svg width="210" height="200" viewBox="0 0 210 200" fill="none" xmlns="http://www.w3.org/2000/svg">
<rect width="210" height="200" fill="white"/>
<circle cx="93" cy="92.0155" r="91.7371" fill="#FDF9F3"/>
<path d="M181.796 189.581C171.142 189.581 160.542 188.84 149.911 188.182C122.108 186.459 94.3121 186.082 66.4659 186.082C57.1337 186.082 47.8015 186.082 38.4693 186.082C35.326 186.082 33.7208 186.082 28.515 186.782" stroke="black" stroke-linecap="round"/>
<path d="M199.968 75.089C201.928 76.759 203.098 78.959 203.968 81.309C206.858 89.109 206.728 96.869 203.448 104.529C202.308 107.189 200.748 109.579 198.568 111.519C196.128 113.689 193.338 114.949 190.008 114.869C187.428 114.809 184.848 114.749 182.278 114.769C180.008 114.789 177.868 114.469 175.988 113.069C175.628 112.799 175.178 112.549 174.748 112.499C171.078 112.049 167.408 111.629 163.738 111.269C163.258 111.219 162.618 111.469 162.248 111.799C158.908 114.799 155.058 116.189 150.468 115.529C150.278 116.179 150.058 116.689 149.988 117.219C149.388 121.319 146.818 124.239 144.048 126.989C143.178 127.859 141.898 128.449 140.698 128.829C138.258 129.609 137.438 131.049 137.258 133.659C136.858 139.449 136.008 145.219 135.248 150.979C134.708 155.079 132.798 158.479 129.658 161.199C128.408 162.289 127.258 163.499 126.108 164.699C123.998 166.909 121.208 167.949 118.518 169.149C116.838 169.899 115.088 170.469 113.208 171.189C113.148 172.169 113.078 173.149 113.028 174.039C115.838 174.719 118.538 175.209 121.138 176.039C125.248 177.359 127.888 180.069 128.398 184.899C127.228 185.239 126.048 185.699 124.818 185.919C121.088 186.579 117.358 187.179 113.608 187.729C109.328 188.359 105.138 187.559 100.968 186.729C99.8776 186.509 98.7275 186.519 97.6975 186.169C96.6175 185.799 95.6475 185.119 94.6375 184.579C94.9975 184.599 95.3676 184.579 95.7176 184.659C101.298 185.899 106.878 187.119 112.658 186.719C114.958 186.559 117.268 186.439 119.548 186.099C122.148 185.709 124.718 185.089 127.328 184.559C126.758 181.129 125.178 178.809 122.338 177.649C119.968 176.679 117.458 175.989 114.958 175.409C114.068 175.199 112.908 175.499 112.038 175.919C106.918 178.419 101.628 178.749 96.1576 177.429C95.6476 177.309 95.1076 177.249 94.3476 177.119C94.3476 178.379 94.3076 179.459 94.3576 180.539C94.4276 181.909 94.5775 183.279 94.6975 184.649C94.3775 184.369 93.8275 184.139 93.7675 183.809C93.2975 181.279 92.5776 178.759 93.6476 176.179C93.9476 175.469 93.9175 174.619 94.0675 173.639H81.7276C81.0476 175.179 81.8276 175.529 83.0276 175.679C86.1076 176.079 88.4675 177.709 89.6975 180.479C90.5775 182.459 90.8675 184.689 91.5075 187.179C89.7675 187.629 88.3976 188.129 86.9876 188.309C82.0876 188.929 77.2076 188.379 72.3376 187.769C70.5976 187.549 68.8675 187.269 67.1375 186.939C66.2375 186.769 65.3276 186.539 64.4776 186.199C61.2176 184.889 60.8475 184.349 61.2575 180.839C61.4675 179.019 61.9676 177.229 62.3476 175.439C62.5576 174.459 62.7876 173.479 63.0476 172.339C62.3076 171.959 61.7076 171.569 61.0476 171.309C56.7076 169.589 52.8576 167.049 49.1876 164.209C45.2276 161.139 43.2076 156.789 41.4276 152.279C39.3876 147.119 38.8676 141.709 38.7276 136.239C38.6076 131.709 38.4576 127.179 38.5376 122.649C38.6476 116.469 39.0976 110.289 39.1676 104.109C39.2176 99.499 38.8376 94.889 38.7376 90.279C38.5176 79.849 40.0376 69.879 45.9176 60.889C50.3076 54.169 55.0976 47.929 61.9976 43.559C65.4776 41.349 69.1576 39.759 73.1876 38.929C74.3576 38.689 75.4876 38.279 77.0976 37.819C76.3676 36.919 75.9176 35.999 75.1776 35.509C73.1776 34.189 71.1476 32.869 68.9576 31.919C67.4876 31.279 65.7376 31.209 64.1076 30.979C62.5576 30.759 60.9876 30.599 59.4276 30.529C54.6876 30.299 54.1176 25.259 55.9876 22.449C59.1576 17.689 65.3876 16.689 69.7476 20.519C71.5276 22.079 72.9376 24.089 74.4176 25.979C76.4076 28.519 78.2876 31.139 80.2176 33.729C80.6876 34.919 80.3976 36.399 81.7976 37.799C81.7876 34.139 84.1576 32.939 86.5876 31.749C87.4076 31.349 88.2175 30.869 88.8875 30.259C89.4775 29.719 89.9876 29.009 90.2976 28.279C90.8476 26.989 90.3176 26.119 88.9076 25.969C88.1976 25.889 87.3976 25.919 86.7476 26.189C84.7476 26.999 83.0676 28.209 82.1076 30.269C81.5376 31.479 80.8076 32.619 80.1576 33.799C80.5976 30.319 82.0476 27.489 85.2976 25.819C85.8676 25.529 86.4675 25.259 87.0775 25.089C88.6975 24.649 90.4676 25.139 91.0576 26.219C91.8376 27.669 91.2375 28.979 90.2675 29.999C89.3975 30.919 88.2976 31.629 87.2276 32.339C86.3076 32.949 85.3076 33.429 84.3376 33.949C83.0776 34.629 82.7975 35.659 83.1975 37.229C84.3475 37.299 85.5176 37.359 86.6876 37.459C95.6576 38.239 104.408 40.009 112.348 44.409C115.858 46.359 119.028 48.949 122.238 51.409C123.108 52.079 123.548 53.319 124.188 54.299C123.558 53.799 122.858 53.369 122.298 52.799C118.788 49.179 114.558 46.589 110.108 44.319C108.808 43.649 107.768 43.539 106.688 44.769C106.188 45.339 105.308 45.569 104.598 45.949C105.348 45.079 106.088 44.199 106.938 43.209C106.508 42.929 106.238 42.669 105.918 42.569C103.898 41.939 101.878 41.249 99.8275 40.759C94.4375 39.479 89.0276 38.229 83.4376 38.199C81.9776 38.199 80.6876 38.289 80.4676 40.289C80.1476 37.319 79.5276 34.699 77.7176 32.409C76.0576 30.309 74.6576 28.009 73.0376 25.879C71.8076 24.269 70.5776 22.599 69.0576 21.289C65.1476 17.919 59.5076 18.799 56.7376 23.039C54.7076 26.149 56.0776 29.299 59.7176 29.729C61.7376 29.969 63.7676 30.039 65.7976 30.199C67.8676 30.359 69.7576 31.029 71.4776 32.209C72.3876 32.829 73.3575 33.369 74.3275 33.909C76.8475 35.299 78.4176 37.249 78.2276 40.709C77.3876 39.059 76.2776 39.229 74.9676 39.459C67.8876 40.679 62.0175 44.219 56.7675 48.909C55.2975 50.229 54.0476 51.789 52.2376 53.739C55.9176 54.329 58.8875 55.019 61.8875 55.239C69.6075 55.819 77.1575 54.449 84.6975 52.939C91.1875 51.649 97.3876 49.709 103.148 46.409C103.608 46.149 104.158 46.059 104.668 45.879C104.378 46.209 104.148 46.689 103.788 46.849C99.8276 48.609 95.9676 50.659 91.8576 51.939C87.1176 53.419 82.1976 54.459 77.2776 55.199C72.5476 55.909 67.7276 56.229 62.9376 56.229C59.9376 56.229 56.9275 55.399 53.9475 54.799C52.3975 54.489 51.3075 54.729 50.4475 56.149C48.5375 59.309 46.4376 62.359 44.6076 65.569C43.6776 67.199 42.6976 68.909 42.6076 70.829C42.8876 71.029 43.0276 71.189 43.1876 71.219C54.8576 73.289 66.5275 74.599 78.4475 73.199C94.3975 71.329 108.888 65.899 121.928 56.589C122.788 55.979 123.398 55.029 124.128 54.229C124.838 54.879 125.668 55.449 126.228 56.209C129.718 60.889 132.688 65.859 134.388 71.849C136.198 71.589 138.028 71.669 139.568 71.029C141.688 70.149 143.818 69.849 146.028 69.749C148.338 69.639 150.638 69.599 152.948 69.569C155.628 69.539 158.068 70.369 160.178 71.969C161.318 72.829 162.388 72.979 163.768 72.709C168.838 71.719 173.898 70.599 179.028 70.039C183.228 69.579 187.498 69.829 191.738 69.829C192.248 69.829 192.768 70.189 193.278 70.379C185.578 69.959 181.218 72.559 177.898 79.539C177.698 79.959 177.518 80.379 177.348 80.809C175.078 86.559 174.598 92.469 175.968 98.479C176.988 102.959 178.798 107.079 182.178 110.329C186.948 114.909 193.218 114.979 198.108 110.529C200.698 108.169 202.438 105.249 203.458 101.929C206.098 93.389 205.328 85.169 201.018 77.299C200.628 76.579 200.318 75.819 199.978 75.079L199.968 75.089ZM146.198 72.029C146.398 71.599 146.608 71.179 147.048 70.249C144.708 70.739 142.778 70.939 140.988 71.549C136.998 72.919 134.478 76.009 132.598 79.579C127.808 88.659 129.328 101.169 135.768 109.059C138.628 112.569 141.888 115.129 146.958 114.299C146.678 113.999 146.488 113.699 146.218 113.519C141.728 110.439 139.238 106.039 137.748 100.919C136.648 97.129 136.328 93.249 136.718 89.399C137.258 83.999 138.968 78.909 142.638 74.739C143.628 73.619 145.038 72.869 146.268 71.959C145.938 72.369 145.668 72.859 145.268 73.189C142.298 75.719 140.348 78.929 139.148 82.579C137.008 89.099 137.048 95.649 139.188 102.159C140.178 105.169 141.658 107.929 143.798 110.289C149.098 116.129 156.628 116.329 161.998 110.569C163.668 108.779 165.088 106.619 166.098 104.389C168.798 98.379 169.018 92.089 167.538 85.699C166.498 81.199 164.658 77.129 161.258 73.909C157.198 70.059 152.628 69.329 147.508 71.639C147.098 71.819 146.648 71.899 146.208 72.019L146.198 72.029ZM52.8076 127.019C55.0076 128.779 56.8076 130.729 59.0276 131.869C61.7876 133.289 64.8276 134.279 67.8576 135.009C73.8476 136.449 79.5976 135.489 84.9976 132.519C86.8576 131.499 88.6575 130.329 90.5675 129.419C96.8275 126.439 100.078 120.689 104.038 115.239C99.0676 112.969 94.6376 110.399 91.7976 106.339C88.2476 108.119 84.9476 109.969 81.4876 111.459C78.6976 112.659 75.7276 113.639 72.6276 113.339C69.6976 113.049 66.7875 112.479 63.8875 111.889C62.4675 111.599 61.0576 111.049 60.1676 109.589C62.2776 110.159 64.1276 110.739 65.9976 111.149C67.7076 111.519 69.4776 111.619 71.1776 112.009C74.4276 112.749 77.3076 111.679 80.2276 110.369C66.7576 109.359 53.5675 106.899 40.0775 103.649C40.0775 106.849 40.2076 109.799 40.0476 112.739C39.7676 117.799 39.0276 122.829 39.3376 127.929C39.5676 131.709 39.6276 135.499 39.8976 139.279C40.7776 151.489 45.0375 161.729 56.5775 167.709C56.8275 167.839 57.0576 167.989 57.2976 168.119C60.4076 169.779 63.5676 171.489 67.1276 171.689C75.0476 172.129 82.9776 172.369 90.9076 172.569C93.6676 172.639 96.4476 172.179 99.2076 172.249C107.068 172.459 114.448 170.639 121.258 166.849C128.338 162.909 133.198 157.269 134.588 148.889C136.468 137.529 136.648 126.099 136.648 114.639C136.648 114.009 136.478 113.389 136.358 112.569C131.008 111.809 125.708 111.119 120.428 110.289C117.798 109.869 115.098 109.479 112.648 108.519C111.258 107.979 110.128 107.709 108.738 108.069C107.408 108.409 106.058 108.649 104.638 108.949C104.258 111.199 102.208 113.409 105.138 115.259C104.398 116.439 103.698 117.419 103.138 118.479C98.1375 127.849 89.6276 132.709 80.0576 135.869C72.3176 138.419 64.8976 136.419 57.9176 132.709C55.6276 131.489 53.7876 129.729 52.8076 127.049V127.019ZM89.4876 100.929C86.5276 100.299 83.4776 99.619 80.4076 99.019C78.7276 98.689 77.5775 97.699 76.7575 96.309C75.5975 94.339 75.2176 92.219 75.4776 89.919C75.7676 87.359 77.1475 85.859 79.5775 85.349C82.2875 84.789 85.0175 84.289 87.7575 83.909C89.1775 83.709 90.4476 83.639 91.0876 82.009C91.3076 81.449 92.1675 80.989 92.8275 80.769C94.7475 80.129 96.6876 79.469 98.6776 79.119C101.948 78.549 105.268 78.209 108.568 77.759C109.208 77.669 109.998 77.719 110.438 77.369C113.158 75.169 116.538 74.939 119.718 74.079C120.308 73.919 120.858 73.629 121.548 73.339C120.318 69.049 119.818 64.719 117.788 60.629C102.138 70.089 85.2775 74.619 67.2076 75.069C66.9376 86.119 66.6876 96.779 66.4176 107.799C71.7576 108.239 76.7976 108.799 81.8476 109.019C85.8076 109.189 88.7275 106.899 91.5675 104.339C90.8275 103.109 90.2076 102.089 89.4976 100.909L89.4876 100.929ZM41.8376 72.439C41.5176 73.629 41.1376 74.859 40.8576 76.109C39.0376 84.239 39.7976 92.479 39.9176 100.689C39.9376 101.869 40.5376 102.579 41.6176 102.929C42.3176 103.159 43.0176 103.409 43.7476 103.549C50.0876 104.799 56.4376 106.039 62.7876 107.239C63.6276 107.399 64.5276 107.259 65.5276 107.259C65.8076 96.529 66.0776 86.029 66.3476 75.429C58.0876 74.419 50.1576 73.459 41.8376 72.439ZM135.848 111.609C135.948 111.439 136.048 111.269 136.148 111.089C131.438 105.499 128.938 99.109 128.988 91.799C129.038 84.519 131.268 78.079 136.658 72.909C136.348 72.749 136.278 72.669 136.208 72.679C128.488 73.399 120.858 74.649 113.368 76.659C112.418 76.909 111.448 77.779 110.878 78.629C108.378 82.329 107.428 86.599 107.058 90.929C106.558 96.959 108.058 102.499 112.288 107.019C112.978 107.759 114.088 108.339 115.088 108.529C118.618 109.189 122.198 109.659 125.748 110.179C129.118 110.669 132.488 111.139 135.858 111.609H135.848ZM92.2675 103.689C92.7775 102.949 92.9475 102.609 93.1975 102.339C97.2775 97.999 101.608 98.779 103.828 104.319C104.308 105.529 104.918 106.159 106.198 106.179C107.328 106.199 108.468 106.269 110.008 106.339C104.318 96.969 105.518 87.919 109.488 78.589C105.778 79.109 102.288 79.439 98.8776 80.119C91.4276 81.609 91.5275 81.739 89.0175 89.139C87.2775 94.279 89.1075 98.889 92.2675 103.669V103.689ZM185.168 113.929C176.888 108.679 174.348 100.979 174.268 92.279C174.188 83.519 176.778 75.789 185.068 70.339C183.348 70.339 182.348 70.359 181.348 70.339C178.788 70.279 176.768 71.259 175.018 73.179C172.498 75.939 170.398 78.919 169.088 82.439C168.588 83.789 168.408 85.059 168.718 86.489C169.508 90.139 169.618 93.859 168.898 97.499C168.378 100.139 168.998 102.449 170.088 104.709C170.768 106.109 171.748 107.369 172.618 108.669C175.528 113.009 179.598 114.709 185.168 113.949V113.929ZM62.9076 175.749C62.6276 177.489 62.3575 179.019 62.1375 180.559C61.7075 183.639 62.0376 184.149 65.0476 185.189C65.4876 185.339 65.9176 185.559 66.3676 185.609C72.1476 186.259 77.9176 187.029 83.7176 187.429C85.8276 187.579 88.1676 187.809 90.1876 186.399C89.3576 182.839 89.0375 179.039 84.7575 177.449C84.0675 178.679 83.4576 179.779 82.8476 180.869C82.7276 180.819 82.6076 180.779 82.4776 180.729C82.8876 179.559 83.2976 178.389 83.7176 177.179C82.2976 176.329 80.9676 176.239 79.4676 176.849C76.5676 178.029 73.5576 178.229 70.4976 177.499C68.0876 176.919 65.6776 176.379 62.9076 175.729V175.749ZM132.928 71.709C131.528 65.679 128.288 60.739 124.698 55.749C122.518 57.269 120.508 58.669 118.678 59.959C120.098 64.649 121.418 69.029 122.758 73.469C125.868 72.989 128.778 72.539 131.688 72.069C132.038 72.009 132.378 71.869 132.918 71.709H132.928ZM137.728 128.319C143.708 127.239 148.358 121.929 149.048 115.479C147.138 115.349 145.188 115.419 143.338 115.029C141.438 114.629 139.628 113.779 137.728 113.119V128.319ZM89.8875 84.599C87.7075 84.909 86.1776 85.099 84.6576 85.349C81.2076 85.909 80.5075 86.669 80.2675 90.139C80.2075 91.049 80.1976 91.989 80.3376 92.889C81.0076 97.439 84.3776 100.009 88.7876 99.269C86.6276 94.459 87.1776 89.759 89.8976 84.589L89.8875 84.599ZM102.188 113.529C103.848 110.129 103.908 107.109 102.628 104.049C101.148 100.509 97.7776 99.599 94.8376 102.059C93.8276 102.899 93.1076 104.099 92.2276 105.159C95.0076 108.909 98.3176 111.429 102.188 113.529V113.529ZM94.6476 175.949C100.038 178.169 105.168 177.349 110.238 175.789C112.168 175.189 112.358 174.359 111.738 171.789C111.208 171.839 110.668 171.869 110.128 171.939C107.868 172.239 105.608 172.659 103.338 172.839C100.858 173.039 98.3676 172.999 95.8776 173.099C95.5376 173.109 95.2176 173.329 94.8076 173.479C94.7576 174.259 94.7076 174.979 94.6476 175.949ZM174.848 71.459C170.718 72.289 166.898 73.059 162.828 73.879C163.918 75.489 164.838 76.749 165.638 78.079C166.448 79.429 167.138 80.849 167.798 82.079C170.148 78.549 172.368 75.199 174.858 71.469L174.848 71.459ZM64.0976 172.469C63.1376 174.149 63.8876 174.989 65.2376 175.279C68.0976 175.899 70.9676 176.549 73.8676 176.829C75.4576 176.979 77.1376 176.479 78.7276 176.099C79.7576 175.849 80.5976 175.209 79.9376 173.549C74.7276 173.199 69.3776 172.829 64.0876 172.469H64.0976ZM164.048 110.219C167.238 110.599 170.108 110.949 173.178 111.319C171.338 108.159 169.668 105.279 167.998 102.409C166.768 104.839 165.498 107.359 164.048 110.219ZM80.2675 86.269C76.8475 87.379 75.8676 89.459 76.4976 93.219C77.0476 96.469 78.5576 98.009 81.4076 97.969C79.2276 94.369 78.3075 90.639 80.2675 86.259V86.269ZM106.588 107.389C106.578 107.279 106.568 107.159 106.558 107.049C105.998 107.079 105.438 107.109 104.888 107.129C104.908 107.289 104.928 107.449 104.938 107.609C105.488 107.539 106.038 107.459 106.598 107.389H106.588Z" fill="black"/>
<path d="M199.968 75.089C200.308 75.829 200.618 76.599 201.008 77.309C205.318 85.179 206.088 93.399 203.448 101.939C202.418 105.259 200.688 108.189 198.098 110.539C193.208 114.989 186.938 114.919 182.168 110.339C178.778 107.089 176.968 102.969 175.958 98.489C174.598 92.479 175.068 86.569 177.338 80.819C177.508 80.389 177.698 79.969 177.888 79.549C181.208 72.569 185.568 69.979 193.268 70.389C193.658 70.539 194.038 70.679 194.428 70.829C195.448 71.399 196.458 71.979 197.478 72.549C198.308 73.389 199.128 74.239 199.958 75.079L199.968 75.089ZM187.358 74.169C185.558 74.279 184.108 74.919 183.398 76.719C183.138 76.979 182.888 77.229 182.628 77.489C182.078 77.929 181.388 78.269 180.988 78.819C179.018 81.469 177.968 84.529 177.528 87.769C176.638 94.409 177.528 100.729 181.688 106.189C186.608 112.649 194.118 112.439 198.858 105.849C201.068 102.769 202.248 99.279 202.658 95.569C203.358 89.319 202.448 83.409 198.398 78.309C198.318 78.239 198.248 78.169 198.168 78.099C197.308 77.279 196.448 76.469 195.598 75.649C195.158 75.359 194.708 75.059 194.268 74.769C192.048 73.169 189.708 73.209 187.278 74.209L187.368 74.169H187.358Z" fill="white"/>
<path d="M197.488 72.549C196.468 71.979 195.458 71.399 194.438 70.829C195.458 71.399 196.468 71.979 197.488 72.549Z" fill="black"/>
<path d="M52.8076 127.009C53.7876 129.689 55.6276 131.449 57.9176 132.669C64.8976 136.379 72.3176 138.389 80.0576 135.829C89.6276 132.669 98.1375 127.819 103.138 118.439C103.698 117.389 104.398 116.409 105.138 115.219C102.208 113.369 104.248 111.159 104.638 108.909C106.058 108.609 107.408 108.369 108.738 108.029C110.128 107.669 111.258 107.939 112.648 108.479C115.098 109.439 117.798 109.829 120.428 110.249C125.708 111.079 131.008 111.779 136.358 112.529C136.478 113.349 136.648 113.969 136.648 114.599C136.648 126.059 136.468 137.489 134.588 148.849C133.208 157.229 128.348 162.869 121.258 166.809C114.438 170.599 107.068 172.419 99.2076 172.209C96.4476 172.139 93.6676 172.599 90.9076 172.529C82.9776 172.329 75.0476 172.099 67.1276 171.649C63.5676 171.449 60.4076 169.729 57.2976 168.079C57.0576 167.949 56.8275 167.789 56.5775 167.669C45.0475 161.699 40.7776 151.449 39.8976 139.239C39.6276 135.459 39.5676 131.669 39.3376 127.889C39.0276 122.799 39.7676 117.759 40.0476 112.699C40.2076 109.759 40.0775 106.809 40.0775 103.609C53.5675 106.859 66.7676 109.319 80.2276 110.329C77.3076 111.639 74.4276 112.709 71.1776 111.969C69.4676 111.579 67.6976 111.489 65.9976 111.109C64.1176 110.699 62.2776 110.119 60.1676 109.549C61.0676 111.009 62.4775 111.559 63.8875 111.849C66.7775 112.439 69.6876 113.009 72.6276 113.299C75.7276 113.609 78.6976 112.619 81.4876 111.419C84.9476 109.929 88.2476 108.089 91.7976 106.299C94.6476 110.359 99.0776 112.929 104.038 115.199C100.068 120.649 96.8275 126.389 90.5675 129.379C88.6575 130.289 86.8576 131.449 84.9976 132.479C79.5976 135.449 73.8376 136.409 67.8576 134.969C64.8276 134.239 61.7876 133.249 59.0276 131.829C56.8076 130.689 55.0076 128.739 52.8076 126.979V127.009Z" fill="white"/>
<path d="M104.578 45.959C105.288 45.579 106.168 45.349 106.668 44.779C107.748 43.549 108.778 43.659 110.088 44.329C114.538 46.599 118.768 49.179 122.278 52.809C122.828 53.379 123.528 53.809 124.168 54.309L124.118 54.259C123.388 55.059 122.778 56.009 121.918 56.619C108.878 65.939 94.3876 71.359 78.4376 73.229C66.5176 74.629 54.8476 73.319 43.1776 71.249C43.0176 71.219 42.8775 71.049 42.5975 70.859C42.6875 68.939 43.6675 67.229 44.5975 65.599C46.4175 62.389 48.5276 59.339 50.4376 56.179C51.2976 54.759 52.3876 54.509 53.9376 54.829C56.9176 55.429 59.9276 56.259 62.9276 56.259C67.7076 56.259 72.5375 55.939 77.2675 55.229C82.1875 54.499 87.0975 53.449 91.8475 51.969C95.9575 50.689 99.8275 48.629 103.778 46.879C104.148 46.719 104.368 46.239 104.658 45.909L104.598 45.969L104.578 45.959Z" fill="white"/>
<path d="M89.4875 100.919C90.1975 102.099 90.8176 103.119 91.5576 104.349C88.7176 106.909 85.7975 109.199 81.8375 109.029C76.7875 108.809 71.7475 108.249 66.4075 107.809C66.6775 96.789 66.9275 86.119 67.1975 75.079C85.2775 74.639 102.138 70.109 117.778 60.639C119.808 64.729 120.308 69.059 121.538 73.349C120.848 73.629 120.298 73.929 119.708 74.089C116.538 74.949 113.148 75.179 110.428 77.379C109.988 77.739 109.198 77.689 108.558 77.769C105.258 78.219 101.948 78.549 98.6675 79.129C96.6775 79.479 94.7375 80.139 92.8175 80.779C92.1575 80.999 91.3075 81.459 91.0775 82.019C90.4375 83.649 89.1676 83.719 87.7476 83.919C85.0076 84.299 82.2775 84.799 79.5675 85.359C77.1275 85.859 75.7575 87.369 75.4675 89.929C75.2075 92.229 75.5776 94.349 76.7476 96.319C77.5676 97.709 78.7175 98.699 80.3975 99.029C83.4675 99.629 86.5175 100.309 89.4775 100.939L89.4875 100.919Z" fill="#C8E2E2"/>
<path d="M41.8375 72.429C50.1575 73.439 58.0875 74.409 66.3475 75.419C66.0775 86.009 65.7975 96.519 65.5275 107.249C64.5275 107.249 63.6275 107.389 62.7875 107.229C56.4376 106.039 50.0876 104.789 43.7476 103.539C43.0276 103.399 42.3276 103.149 41.6176 102.919C40.5476 102.569 39.9376 101.859 39.9176 100.679C39.7976 92.469 39.0376 84.239 40.8576 76.099C41.1376 74.849 41.5175 73.619 41.8375 72.429Z" fill="white"/>
<path d="M104.648 45.899C104.138 46.069 103.588 46.159 103.128 46.429C97.3776 49.729 91.1676 51.669 84.6776 52.959C77.1376 54.459 69.5876 55.839 61.8676 55.259C58.8576 55.029 55.8875 54.339 52.2175 53.759C54.0275 51.809 55.2776 50.249 56.7476 48.929C61.9976 44.229 67.8575 40.699 74.9475 39.479C76.2575 39.249 77.3675 39.079 78.2075 40.729C78.3975 37.269 76.8276 35.319 74.3076 33.929C73.3376 33.399 72.3675 32.859 71.4575 32.229C69.7375 31.049 67.8475 30.389 65.7775 30.219C63.7475 30.059 61.7175 29.989 59.6975 29.749C56.0575 29.319 54.6775 26.179 56.7175 23.059C59.4875 18.819 65.1275 17.939 69.0375 21.309C70.5575 22.619 71.7875 24.289 73.0175 25.899C74.6375 28.029 76.0375 30.339 77.6975 32.429C79.5075 34.709 80.1275 37.339 80.4475 40.309C80.6675 38.299 81.9575 38.209 83.4175 38.219C89.0175 38.249 94.4176 39.499 99.8076 40.779C101.868 41.269 103.878 41.959 105.898 42.589C106.218 42.689 106.488 42.949 106.918 43.229C106.068 44.219 105.328 45.099 104.578 45.969L104.638 45.909L104.648 45.899Z" fill="white"/>
<path d="M135.858 111.599C132.488 111.119 129.118 110.659 125.748 110.169C122.188 109.649 118.618 109.179 115.088 108.519C114.088 108.329 112.978 107.749 112.288 107.009C108.058 102.479 106.558 96.949 107.058 90.919C107.418 86.579 108.378 82.309 110.878 78.619C111.448 77.769 112.418 76.899 113.368 76.649C120.858 74.649 128.488 73.389 136.208 72.669C136.278 72.669 136.358 72.739 136.658 72.899C131.268 78.069 129.038 84.509 128.988 91.789C128.938 99.099 131.448 105.489 136.148 111.079C136.048 111.249 135.948 111.419 135.848 111.599H135.858Z" fill="white"/>
<path d="M146.197 72.029C146.627 71.899 147.088 71.829 147.498 71.649C152.618 69.339 157.198 70.069 161.248 73.919C164.648 77.149 166.478 81.219 167.528 85.709C169.008 92.099 168.788 98.389 166.088 104.399C165.088 106.629 163.658 108.789 161.988 110.579C156.618 116.329 149.088 116.129 143.788 110.299C141.648 107.939 140.168 105.179 139.178 102.169C137.038 95.659 136.997 89.109 139.137 82.589C140.337 78.939 142.287 75.729 145.257 73.199C145.657 72.859 145.927 72.379 146.257 71.969L146.197 72.029V72.029ZM150.238 74.659C149.248 75.079 148.018 75.259 147.308 75.959C145.888 77.369 144.408 78.899 143.558 80.669C139.808 88.499 139.958 96.389 144.048 104.049C144.968 105.769 146.468 107.339 148.028 108.539C151.398 111.119 155.478 110.899 158.718 108.169C159.828 107.229 160.918 106.119 161.628 104.879C166.368 96.6089 166.317 88.2089 161.957 79.8189C160.697 77.3889 158.728 75.519 156.118 74.549C154.158 73.819 152.087 73.109 150.147 74.719L150.218 74.659H150.238Z" fill="white"/>
<path d="M92.2775 103.679C89.1075 98.889 87.2775 94.289 89.0275 89.149C91.5375 81.749 91.4375 81.619 98.8875 80.129C102.297 79.449 105.778 79.119 109.498 78.599C105.538 87.919 104.337 96.979 110.017 106.349C108.477 106.279 107.347 106.209 106.207 106.189C104.927 106.159 104.317 105.539 103.837 104.329C101.617 98.779 97.2875 98.009 93.2075 102.349C92.9575 102.619 92.7875 102.949 92.2775 103.699V103.679Z" fill="white"/>
<path d="M146.258 71.959C145.038 72.879 143.618 73.619 142.628 74.739C138.958 78.909 137.258 83.999 136.708 89.399C136.318 93.249 136.638 97.129 137.738 100.919C139.228 106.039 141.718 110.439 146.208 113.519C146.478 113.709 146.668 113.999 146.948 114.299C141.878 115.129 138.618 112.559 135.758 109.059C129.328 101.169 127.798 88.649 132.588 79.579C134.478 75.999 136.988 72.909 140.978 71.549C142.768 70.939 144.708 70.729 147.038 70.249C146.598 71.179 146.388 71.599 146.188 72.029L146.248 71.969L146.258 71.959Z" fill="white"/>
<path d="M94.6675 184.649C94.5475 183.279 94.3975 181.909 94.3275 180.539C94.2675 179.469 94.3175 178.389 94.3175 177.119C95.0875 177.249 95.6176 177.309 96.1276 177.429C101.598 178.749 106.887 178.419 112.007 175.919C112.867 175.499 114.028 175.199 114.928 175.409C117.428 175.979 119.928 176.679 122.308 177.649C125.148 178.809 126.728 181.129 127.298 184.559C124.688 185.089 122.128 185.709 119.518 186.099C117.248 186.439 114.928 186.559 112.628 186.719C106.858 187.119 101.268 185.909 95.6876 184.659C95.3376 184.579 94.9675 184.599 94.6075 184.579L94.6675 184.639V184.649Z" fill="white"/>
<path d="M185.178 113.919C179.608 114.679 175.538 112.979 172.628 108.639C171.758 107.339 170.778 106.079 170.098 104.679C169.008 102.429 168.388 100.109 168.908 97.469C169.628 93.829 169.528 90.109 168.728 86.459C168.418 85.039 168.598 83.759 169.098 82.409C170.408 78.879 172.508 75.909 175.028 73.149C176.778 71.229 178.788 70.259 181.358 70.309C182.358 70.329 183.358 70.309 185.078 70.309C176.788 75.759 174.198 83.489 174.278 92.249C174.358 100.949 176.898 108.649 185.178 113.899V113.919Z" fill="white"/>
<path d="M62.9075 175.739C65.6775 176.379 68.0975 176.929 70.4975 177.509C73.5575 178.239 76.5675 178.039 79.4675 176.859C80.9675 176.249 82.3075 176.339 83.7175 177.189C83.2975 178.399 82.8875 179.569 82.4775 180.739C82.5975 180.789 82.7175 180.829 82.8475 180.879C83.4575 179.779 84.0675 178.689 84.7575 177.459C89.0375 179.049 89.3575 182.839 90.1875 186.409C88.1675 187.819 85.8275 187.589 83.7175 187.439C77.9175 187.029 72.1475 186.259 66.3675 185.619C65.9175 185.569 65.4875 185.349 65.0475 185.199C62.0275 184.149 61.6975 183.649 62.1375 180.569C62.3475 179.029 62.6275 177.499 62.9075 175.759V175.739Z" fill="white"/>
<path d="M132.928 71.709C132.388 71.869 132.048 72.019 131.698 72.069C128.788 72.529 125.878 72.979 122.768 73.469C121.428 69.019 120.098 64.639 118.688 59.959C120.528 58.679 122.528 57.279 124.708 55.749C128.298 60.739 131.538 65.679 132.938 71.709H132.928Z" fill="white"/>
<path d="M137.728 128.309V113.109C139.628 113.779 141.438 114.619 143.338 115.019C145.188 115.409 147.138 115.339 149.048 115.469C148.358 121.919 143.708 127.229 137.728 128.309Z" fill="white"/>
<path d="M89.8875 84.589C87.1675 89.759 86.6176 94.459 88.7776 99.269C84.3676 100.009 80.9975 97.439 80.3275 92.889C80.1975 91.989 80.1975 91.049 80.2575 90.139C80.5075 86.669 81.2075 85.909 84.6475 85.349C86.1675 85.099 87.6976 84.909 89.8776 84.599L89.8875 84.589Z" fill="white"/>
<path d="M102.188 113.519C98.3276 111.419 95.0175 108.889 92.2275 105.149C93.0975 104.089 93.8175 102.899 94.8375 102.049C97.7875 99.589 101.148 100.509 102.628 104.039C103.908 107.089 103.848 110.109 102.188 113.519V113.519Z" fill="white"/>
<path d="M94.6475 175.939C94.7075 174.969 94.7576 174.249 94.8076 173.469C95.2176 173.319 95.5376 173.109 95.8776 173.089C98.3576 172.989 100.858 173.019 103.338 172.829C105.608 172.649 107.868 172.229 110.128 171.929C110.668 171.859 111.208 171.829 111.738 171.779C112.358 174.349 112.168 175.179 110.238 175.779C105.168 177.339 100.038 178.149 94.6475 175.939Z" fill="white"/>
<path d="M174.848 71.449C172.368 75.189 170.138 78.529 167.788 82.059C167.128 80.829 166.448 79.409 165.628 78.059C164.828 76.729 163.908 75.479 162.818 73.859C166.888 73.039 170.718 72.269 174.838 71.439L174.848 71.449Z" fill="white"/>
<path d="M64.0975 172.459C69.3775 172.819 74.7375 173.179 79.9475 173.539C80.6075 175.199 79.7675 175.839 78.7375 176.089C77.1375 176.469 75.4675 176.969 73.8775 176.819C70.9775 176.549 68.0975 175.899 65.2475 175.269C63.9075 174.979 63.1475 174.139 64.1075 172.459H64.0975Z" fill="white"/>
<path d="M80.1276 33.799C80.7876 32.629 81.5075 31.489 82.0775 30.269C83.0375 28.209 84.7175 27.0089 86.7175 26.1889C87.3675 25.9289 88.1676 25.899 88.8776 25.969C90.2876 26.119 90.8175 26.989 90.2675 28.279C89.9575 29.009 89.4475 29.729 88.8575 30.259C88.1875 30.869 87.3776 31.349 86.5576 31.749C84.1176 32.929 81.7475 34.139 81.7675 37.799C80.3675 36.399 80.6476 34.919 80.1876 33.729L80.1375 33.799H80.1276Z" fill="white"/>
<path d="M164.048 110.209C165.498 107.349 166.768 104.829 167.998 102.399C169.668 105.269 171.338 108.149 173.178 111.309C170.108 110.939 167.238 110.599 164.048 110.209Z" fill="white"/>
<path d="M80.2675 86.259C78.3075 90.639 79.2275 94.359 81.4075 97.969C78.5675 97.999 77.0476 96.469 76.4976 93.219C75.8576 89.459 76.8475 87.379 80.2675 86.269V86.259Z" fill="white"/>
<path d="M106.598 107.369C106.048 107.439 105.498 107.519 104.938 107.589C104.918 107.429 104.898 107.269 104.888 107.109C105.448 107.079 106.008 107.049 106.558 107.029C106.568 107.139 106.578 107.259 106.588 107.369H106.598Z" fill="white"/>
<path d="M194.258 74.769C194.698 75.059 195.148 75.359 195.588 75.649C196.448 76.469 197.308 77.279 198.158 78.099C198.238 78.169 198.308 78.239 198.388 78.309C198.568 78.919 198.638 79.579 198.938 80.119C201.798 85.259 202.438 90.769 201.658 96.479C201.118 100.389 199.728 103.989 196.898 106.869C192.848 110.979 187.468 110.939 183.438 106.799C181.258 104.559 179.898 101.849 179.088 98.869C177.028 91.219 178.138 84.069 182.628 77.499C182.888 77.239 183.138 76.989 183.398 76.729C184.718 75.879 186.038 75.029 187.358 74.179L187.268 74.219C189.598 74.409 191.928 74.589 194.258 74.779V74.769ZM187.228 98.809C189.438 96.379 190.758 93.469 192.308 90.469C191.428 90.139 190.878 89.939 190.308 89.719C190.798 88.549 191.238 87.509 191.878 85.969C188.818 88.989 188.478 90.249 189.928 92.059C189.078 94.319 187.478 96.269 187.218 98.799L187.228 98.809Z" fill="#F4F5FF"/>
<path d="M182.628 77.489C178.138 84.069 177.018 91.219 179.088 98.859C179.888 101.829 181.258 104.549 183.438 106.789C187.468 110.929 192.848 110.979 196.898 106.859C199.738 103.979 201.128 100.379 201.658 96.469C202.438 90.759 201.808 85.239 198.938 80.109C198.638 79.569 198.568 78.909 198.388 78.299C202.438 83.399 203.348 89.309 202.648 95.559C202.228 99.269 201.058 102.769 198.848 105.839C194.108 112.419 186.598 112.639 181.678 106.179C177.518 100.719 176.628 94.399 177.518 87.759C177.958 84.519 179.008 81.459 180.978 78.809C181.388 78.259 182.068 77.919 182.618 77.479L182.628 77.489Z" fill="black"/>
<path d="M194.258 74.769C191.928 74.579 189.598 74.399 187.268 74.209C189.688 73.209 192.038 73.169 194.258 74.769Z" fill="black"/>
<path d="M187.358 74.169C186.038 75.019 184.718 75.869 183.398 76.719C184.098 74.919 185.558 74.279 187.358 74.169Z" fill="black"/>
<path d="M198.158 78.089C197.298 77.269 196.438 76.459 195.588 75.639C196.448 76.459 197.308 77.269 198.158 78.089Z" fill="black"/>
<path d="M150.168 74.719C152.108 73.109 154.168 73.819 156.138 74.549C158.748 75.519 160.718 77.389 161.978 79.819C166.338 88.209 166.388 96.609 161.648 104.879C160.928 106.129 159.848 107.239 158.738 108.169C155.488 110.899 151.408 111.119 148.048 108.539C146.478 107.339 144.988 105.769 144.068 104.049C139.978 96.389 139.828 88.499 143.578 80.669C144.428 78.899 145.908 77.369 147.328 75.959C148.038 75.259 149.268 75.079 150.258 74.659C150.088 74.869 149.968 75.149 149.758 75.279C146.008 77.469 144.038 80.919 142.928 84.959C141.598 89.799 141.718 94.629 143.168 99.419C144.028 102.289 145.468 104.849 147.698 106.899C151.068 109.999 155.278 110.099 158.618 106.959C159.868 105.789 160.998 104.319 161.708 102.779C165.068 95.469 164.978 88.119 161.348 80.929C159.188 76.649 155.968 73.909 150.738 74.779C150.568 74.809 150.378 74.739 150.188 74.719H150.168Z" fill="black"/>
<path d="M187.228 98.809C187.488 96.279 189.088 94.329 189.938 92.069C188.488 90.259 188.828 88.999 191.888 85.979C191.248 87.509 190.808 88.559 190.318 89.729C190.888 89.939 191.438 90.149 192.318 90.479C190.758 93.479 189.448 96.399 187.238 98.819L187.228 98.809Z" fill="black"/>
<path d="M150.168 74.719C150.348 74.739 150.538 74.809 150.718 74.779C155.948 73.909 159.168 76.639 161.328 80.929C164.958 88.119 165.058 95.479 161.688 102.779C160.978 104.329 159.848 105.789 158.598 106.959C155.258 110.099 151.048 109.999 147.678 106.899C145.448 104.849 144.008 102.279 143.148 99.419C141.708 94.639 141.588 89.799 142.908 84.959C144.018 80.919 145.988 77.469 149.738 75.279C149.948 75.149 150.078 74.869 150.238 74.659L150.168 74.719V74.719ZM150.118 97.729C150.318 97.879 150.518 98.029 150.708 98.179C152.268 96.029 153.968 93.959 154.578 91.179C153.768 90.899 153.228 90.719 152.678 90.529C153.238 89.179 153.728 87.989 154.218 86.809C153.968 86.709 153.728 86.599 153.478 86.499C152.698 88.209 151.848 89.889 151.218 91.659C151.118 91.939 152.038 92.589 152.468 93.049C151.668 94.649 150.888 96.189 150.118 97.729Z" fill="#EEEFFC"/>
<path d="M150.118 97.729C150.888 96.189 151.668 94.639 152.468 93.049C152.028 92.579 151.118 91.939 151.218 91.659C151.848 89.899 152.698 88.209 153.478 86.499C153.728 86.599 153.968 86.709 154.218 86.809C153.728 87.999 153.238 89.179 152.678 90.529C153.228 90.719 153.768 90.899 154.578 91.179C153.968 93.959 152.268 96.029 150.708 98.179C150.508 98.029 150.308 97.879 150.118 97.729Z" fill="black"/>
</svg>
