<svg width="210" height="200" viewBox="0 0 210 200" fill="none" xmlns="http://www.w3.org/2000/svg">
<g clip-path="url(#clip0_8_72)">
<rect width="210" height="200" fill="white"/>
<path d="M35.7859 176.05C38.1902 175.584 40.2359 175.172 43.4563 174.788C50.3353 173.969 58.5513 173.468 66.9377 173.077C85.7128 172.202 106.113 172.101 125.48 172.563C138.184 172.866 150.109 173.461 161.977 174.173C167.559 174.508 174.145 174.983 182.148 175.474" stroke="black" stroke-linecap="round"/>
<path d="M42.3224 35.8988C42.3224 38.6195 42.3224 41.3401 42.3224 44.0607C42.3224 45.0296 41.8508 46.2914 43.031 46.2914" stroke="black" stroke-linecap="round"/>
<rect x="7.80286" y="8.6078" width="88.2438" height="80.702" rx="4" fill="#FDF9F3"/>
<rect x="112.794" y="71.2889" width="88.2438" height="80.702" rx="4" fill="#F4F5FF"/>
<path d="M99.8902 173.216C42.4475 170.95 27.0186 177.736 19.0232 181.68L92.9268 179.573L99.8902 173.216Z" fill="white"/>
<path d="M171.235 22.4191C171.692 25.3007 171.277 25.8686 168.862 26.0635C168.099 26.1228 167.336 26.1906 166.234 26.2754C166.234 29.479 166.226 32.5894 166.234 35.6999C166.26 42.2767 166.353 48.8619 166.294 55.4387C166.277 56.8372 166.683 57.7017 167.7 58.6255C175.235 65.482 180.1 73.8979 182.092 83.9072C182.981 88.3991 183.236 92.9418 182.38 97.4592C181.82 100.409 181.99 103.358 181.964 106.307C181.914 111.545 181.93 116.783 181.914 122.029C181.905 124.538 181.769 127.046 181.863 129.547C182.117 136.92 181.549 144.243 180.49 151.531C179.786 156.362 178.227 160.956 176.574 165.524C175.616 168.177 173.82 170.27 171.726 172.058C169.709 173.779 167.522 175.288 165.471 176.839C165.98 178.957 166.472 181.152 167.031 183.322C167.319 184.432 167.006 185.271 166.234 186.094C165.141 187.263 163.954 188.17 162.403 188.695C159.954 189.517 157.589 190.577 155.149 191.399C152.106 192.416 149.072 193.552 145.944 194.153C143.224 194.679 140.376 194.526 137.588 194.671C136.986 186.407 140.224 183.051 149.707 181.966C149.682 181.678 149.707 181.364 149.631 181.085C149.538 180.712 149.368 180.364 149.174 179.856C143.402 180.051 137.639 180.246 131.681 180.449C131.172 181.695 130.587 182.958 130.147 184.271C128.799 188.289 126.121 189.865 122.002 189.043C119.629 188.568 117.213 188.272 114.874 187.661C110.153 186.424 105.645 184.687 101.932 181.364C100.559 180.135 100.551 179.678 101.754 178.288C103.204 176.627 105.017 175.644 107.145 175.177C107.797 175.033 108.45 174.855 109.348 174.626C108.831 174.143 108.577 173.855 108.272 173.626C102.755 169.465 99.8983 163.854 99.1779 157.057C98.7033 152.548 97.9151 148.048 97.7456 143.522C97.5168 137.344 97.7456 131.157 97.7795 124.97C97.788 122.097 97.7795 119.224 97.7795 116.24C96.0506 116.156 94.347 116.02 92.635 115.986C84.1767 115.817 75.7353 115.927 67.277 116.613C60.1154 117.198 52.8945 117.173 45.699 116.444C42.0461 116.071 38.3594 116.071 34.6811 115.918C34.0624 115.893 33.4437 115.918 32.6047 115.918C32.5369 114.596 32.4606 113.376 32.4013 112.147C32.2487 109.028 32.0792 105.901 31.9521 102.773C31.8843 101.129 31.825 99.4848 31.8589 97.849C31.9351 93.5436 32.1301 89.2381 32.164 84.9412C32.1979 79.8475 31.9267 74.7539 32.1216 69.6688C32.342 63.9564 33.1047 58.2695 33.3081 52.5656C33.5709 45.2091 33.5031 37.8441 33.5793 30.4875C33.5963 29.0976 33.5793 27.7076 33.5793 26.1312C32.3674 26.0634 31.4436 26.0211 30.5282 25.9702C29.9858 25.9363 29.4265 25.9533 28.8925 25.8516C27.2144 25.5295 26.9008 25.0803 27.189 23.4446C27.2822 22.9191 27.4687 22.4021 27.6805 21.6394C28.6298 21.6394 29.5536 21.5377 30.452 21.6563C34.2913 22.1818 38.0882 21.8173 41.9275 21.5292C46.6058 21.1732 51.3266 21.08 56.0134 21.2495C58.717 21.3428 61.107 20.9359 63.4123 19.5968C70.4552 15.5033 77.4897 11.4012 84.575 7.38396C87.3634 5.80756 90.2789 4.46848 93.1096 2.95141C93.7622 2.60392 94.3555 2.07 94.8301 1.49369C97.1354 -1.30315 101.898 -0.998067 103.899 2.05303C104.255 2.59545 104.856 3.17176 105.45 3.31584C109.958 4.40067 113.696 7.0619 117.696 9.18919C121.154 11.0283 124.604 12.8759 128.011 14.8083C130.596 16.2745 133.028 18.0204 135.664 19.385C139.393 21.3173 143.114 22.97 147.64 22.6225C153.793 22.1479 160.005 22.3937 166.183 22.3428C167.878 22.3344 169.574 22.3852 171.209 22.4106L171.235 22.4191ZM117.9 132.75C117.832 133.284 117.62 133.852 117.722 134.36C118.552 138.53 119.773 142.573 122.265 146.09C122.815 146.87 123.697 147.429 124.341 148.014C124.833 147.794 125.061 147.726 125.256 147.607C131.443 143.938 137.656 140.319 143.792 136.556C146.614 134.827 148.733 132.386 149.216 128.962C150.004 123.419 148.724 118.224 146.029 113.41C145.258 112.02 143.987 110.825 142.732 109.816C140.834 108.291 138.622 108.502 136.723 110.036C135.071 111.376 133.952 113.096 133.588 115.139C133.206 117.274 133.104 119.469 133.054 121.648C132.96 125.428 131.613 128.326 127.858 129.708C125.214 130.674 122.587 131.665 119.925 132.572C119.281 132.793 118.552 132.733 117.857 132.801C119.061 132.293 120.264 131.784 121.468 131.275C123.909 130.241 126.4 129.301 128.774 128.123C130.443 127.301 131.613 125.945 131.664 123.894C131.698 122.648 131.892 121.41 131.943 120.164C132.096 116.596 132.511 113.121 135.105 110.333C135.283 110.138 135.325 109.825 135.359 109.74C129.138 108.977 122.976 108.452 116.908 107.401C110.831 106.358 104.975 104.417 99.339 101.265C99.2627 101.943 99.1949 102.307 99.1864 102.671C98.9661 111.435 98.6779 120.207 98.5762 128.97C98.5169 134.521 98.5762 140.09 98.8982 145.633C99.1525 150.074 99.6949 154.515 100.483 158.888C100.949 161.456 101.695 164.193 103.102 166.329C106.162 170.957 110.264 174.559 115.73 176.296C121.578 178.161 127.528 179.5 133.698 179.322C139.486 179.161 145.266 178.856 151.047 178.601C152.996 178.517 154.988 178.652 156.878 178.279C163.539 176.949 169.158 173.694 173.608 168.533C174.26 167.77 174.947 166.922 175.252 165.99C176.549 162.058 177.913 158.134 178.888 154.116C180.566 147.167 180.752 140.039 180.888 132.92C180.93 130.411 180.761 127.894 180.973 125.402C181.617 117.732 180.761 110.062 180.956 102.4C180.956 102.121 180.829 101.841 180.719 101.366C180.176 101.612 179.752 101.773 179.362 101.993C175.438 104.197 171.175 105.502 166.845 106.595C159.903 108.341 152.826 109.011 145.699 109.316C145.292 109.333 144.894 109.494 144.419 109.604C149.021 115.757 150.792 121.41 150.496 128.318C150.411 130.208 149.809 131.843 148.597 133.25C147.775 134.191 146.961 135.2 145.953 135.903C143.393 137.683 140.766 139.369 138.096 140.971C134.011 143.429 129.875 145.802 125.748 148.192C125.282 148.463 124.587 148.938 124.29 148.777C123.087 148.124 121.993 148.76 120.866 148.853C118.713 149.04 116.629 148.735 114.679 147.845C112.137 146.692 109.865 145.192 108.704 142.488C108.204 141.319 107.848 140.107 108.441 138.861C109.391 136.878 110.789 135.335 112.984 134.733C113.883 134.488 114.883 134.522 115.739 134.182C116.535 133.869 117.205 133.233 117.925 132.742L117.9 132.75ZM139.435 48.1585C139.435 47.2008 139.385 46.4296 139.444 45.6668C139.605 43.5649 139.571 41.4122 140.037 39.3781C141.919 31.2079 147.368 26.5381 155.25 24.4532C157.225 23.9277 159.217 24.1226 160.573 25.9363C162.005 27.8517 161.768 29.9028 160.708 31.9199C160.42 32.4708 160.09 33.0216 159.691 33.4963C156.928 36.7847 153.513 39.0052 149.233 39.7425C144.834 40.4968 142.326 43.6412 142.58 48.1585C145.266 48.6077 148.012 48.8535 150.64 49.5484C153.276 50.2434 155.869 51.2096 158.344 52.3537C160.776 53.4809 163.022 54.9896 165.658 56.4982C165.658 47.4889 165.675 38.8188 165.641 30.1486C165.641 28.3518 165.438 26.555 165.31 24.7583C165.277 24.3091 165.183 23.8599 165.132 23.487C164.853 23.3514 164.717 23.2242 164.582 23.2327C158.166 23.3514 151.75 23.4616 145.334 23.6311C143.86 23.6735 142.385 24.0972 140.919 24.0802C137.562 24.0548 134.206 23.8514 130.85 23.7752C129.519 23.7412 128.189 23.8429 126.867 23.9107C125.155 23.9955 123.434 24.1481 121.722 24.1904C118.747 24.2667 115.773 24.2837 112.798 24.343C111.704 24.3599 110.611 24.4786 109.518 24.4701C105.916 24.4447 102.314 24.3854 98.7118 24.3176C97.1439 24.2837 95.5844 24.2328 94.0249 24.1057C90.9823 23.8684 87.9482 23.4701 84.9056 23.3175C78.1762 22.9785 71.4468 22.7751 64.7175 22.4615C55.0811 22.0208 45.4617 21.8936 35.8592 23.0717C35.3422 23.1395 34.8252 23.2242 34.4523 23.2836C34.4523 25.5719 34.3591 27.6738 34.4692 29.7587C34.9693 39.5561 34.6303 49.345 33.8844 59.1086C33.2657 67.1685 33.2064 75.22 33.3081 83.2885C33.3675 88.2211 33.1641 93.1537 33.0708 98.0778C33.0454 99.3322 32.9861 100.587 33.02 101.832C33.1047 105.35 33.2319 108.867 33.3336 112.384C33.359 113.206 33.3336 114.037 33.3336 114.859C34.054 114.969 34.4353 115.054 34.8167 115.079C39.3425 115.35 43.8768 115.8 48.4026 115.834C55.2167 115.876 62.0224 115.672 68.8365 115.494C73.6843 115.367 78.5322 115.02 83.3885 114.961C86.5921 114.918 89.8043 115.223 93.0079 115.325C94.6267 115.376 96.237 115.333 97.8049 115.333C97.9405 114.816 98.0507 114.588 98.0422 114.376C97.7371 108.536 98.5084 102.705 97.6778 96.8235C96.1607 86.043 98.9576 76.1184 105.034 67.177C112.645 55.9642 123.053 49.3281 136.8 48.4128C137.639 48.3534 138.469 48.2433 139.427 48.1415L139.435 48.1585ZM114.001 105.595C114.62 105.79 114.976 105.951 115.349 106.011C120.527 106.799 125.689 107.714 130.892 108.307C135.774 108.858 140.707 107.799 145.605 108.519C145.834 108.553 146.072 108.494 146.309 108.477C153.25 107.918 160.183 107.282 166.955 105.536C171.514 104.366 175.921 102.799 180.066 100.536C180.829 100.12 181.21 99.6034 181.286 98.722C181.981 91.2213 181.363 83.8648 178.828 76.7286C178.625 76.1693 178.312 75.6438 178.057 75.1353C175.794 75.7285 173.709 76.4235 171.565 76.7964C165.87 77.7796 160.158 78.7034 154.437 79.4916C150.648 80.017 146.817 80.4154 142.995 80.5933C135.774 80.9154 128.629 79.9492 121.502 78.9491C119.451 78.661 117.383 78.4576 115.162 78.1949C114.145 87.5261 113.323 96.5184 114.001 105.595ZM177.701 74.0843C177.311 73.1351 177.066 72.4232 176.735 71.7452C174.354 66.9058 171.124 62.719 167.124 59.1001C166.09 58.1678 165.124 57.9136 163.734 58.2271C157.547 59.6171 151.275 60.5578 144.927 60.846C135.257 61.2867 125.697 60.3459 116.264 58.1932C114.95 57.8966 114.044 58.1932 113.086 59.0492C108.882 62.8122 105.543 67.2024 103.144 72.3046C102.899 72.83 102.771 73.4148 102.56 74.042C103.11 74.2284 103.458 74.3895 103.831 74.4657C110.043 75.7201 116.239 77.0592 122.476 78.1949C134.147 80.3222 145.851 80.3137 157.53 78.2203C162.378 77.3473 167.209 76.3557 172.04 75.3896C173.854 75.0251 175.65 74.559 177.693 74.0928L177.701 74.0843ZM62.5139 20.9105C62.5648 21.0546 62.6156 21.1987 62.658 21.3428C63.175 21.3936 63.6835 21.4699 64.2005 21.4868C70.4552 21.7411 76.71 21.9275 82.9647 22.2411C91.2366 22.6479 99.483 23.5802 107.789 23.3938C113.806 23.2581 119.824 23.2497 125.85 23.1734C126.163 23.1734 126.468 23.0717 126.782 23.0548C128.418 22.987 130.053 22.8937 131.689 22.8768C134.562 22.8513 137.427 22.8768 140.639 22.8768C140.003 22.5717 139.639 22.3259 139.241 22.2072C137.113 21.5716 135.223 20.5037 133.477 19.1392C132.808 18.6137 132.053 18.173 131.299 17.7577C124.375 13.9523 117.451 10.1554 110.518 6.35848C108.662 5.34145 106.704 4.65491 104.619 4.35828C103.433 8.02807 102.085 9.4604 99.5169 9.45192C96.0251 9.43497 94.0843 7.50262 93.669 3.68875C82.7274 8.90952 73.3538 16.2322 62.5139 20.9105ZM102.093 75.2709C102.093 75.2709 101.941 75.3387 101.89 75.4743C98.7796 83.0427 98.0761 90.9162 98.9915 98.9762C99.0508 99.5356 99.6441 100.197 100.17 100.519C103.746 102.68 107.721 103.9 111.662 105.18C111.925 105.265 112.238 105.189 112.416 105.189C112.95 96.0523 113.484 87.0261 114.018 77.8728C110.094 77.0168 106.145 76.1523 102.093 75.2709ZM115.883 56.9134C132.172 61.5325 148.114 61.4901 164.149 56.9643C160.768 53.9132 154.818 51.0147 149.292 50.1417C146.072 49.6332 142.758 49.7688 139.495 49.5061C135.206 49.1586 131.062 49.7942 127.002 51.0824C123.036 52.3453 119.349 54.1674 115.883 56.9134ZM165.302 179.517C164.115 180.042 163.183 180.415 162.285 180.856C159.352 182.28 156.216 182.915 152.996 183.127C151.284 183.237 149.546 183.051 147.843 183.22C143.122 183.703 137.876 186.246 138.571 193.755C141.181 193.577 143.86 193.662 146.428 193.17C152.301 192.035 157.666 189.34 163.149 187.077C165.209 186.229 166.183 184.89 165.717 182.644C165.531 181.737 165.472 180.796 165.302 179.517ZM140.173 44.2683C140.173 45.3362 140.088 46.1245 140.207 46.8872C140.275 47.3364 140.597 48.0229 140.927 48.1077C141.698 48.3026 141.664 47.5737 141.741 47.0313C142.495 41.7597 144.165 40.0392 149.326 39.0222C153.403 38.217 156.717 36.0897 159.208 32.7929C159.937 31.8267 160.488 30.6062 160.717 29.4281C161.225 26.8008 159.649 24.9702 156.979 25.0126C155.674 25.0295 154.267 25.1651 153.089 25.6651C147.063 28.2586 142.47 32.2335 141.02 38.9883C140.63 40.8105 140.419 42.675 140.164 44.2599L140.173 44.2683ZM101.424 179.754C103.865 181.347 105.755 183.161 108.238 184.254C113.01 186.356 118.171 186.873 123.138 188.195C124.934 188.678 126.434 187.89 127.519 186.619C128.401 185.585 128.926 184.246 129.621 183.017C127.655 182.237 125.799 181.771 124.239 180.813C121.129 178.915 117.696 177.906 114.298 176.83C109.67 175.355 105.373 175.923 101.432 179.762L101.424 179.754ZM116.73 134.801C115.315 135.123 114.069 135.31 112.891 135.683C109.221 136.852 108.052 140.429 110.331 143.48C112.154 145.912 114.654 147.353 117.595 147.802C118.925 148.006 120.459 148.429 121.875 147.421C118.756 143.743 117.586 139.386 116.722 134.801H116.73ZM99.0847 0.502041C96.6862 0.46814 94.9403 2.01068 94.881 4.24815C94.8132 6.6975 96.576 8.51964 99.0847 8.59591C101.415 8.67219 103.339 6.73139 103.365 4.29051C103.39 1.81573 101.958 0.552901 99.0847 0.510525V0.502041ZM151.08 182.102C155.844 182.441 159.818 180.89 163.675 178.923C164.031 178.745 164.2 178.22 164.454 177.847C164.336 177.61 164.226 177.364 164.107 177.127C159.835 179.517 155.089 179.161 150.318 179.856C150.623 180.754 150.835 181.39 151.08 182.102ZM33.0115 25.021C33.3336 23.631 33.1301 22.8768 31.7995 22.8174C31.0198 22.7835 30.2486 22.5971 29.4688 22.5293C28.6976 22.4615 28.0789 22.6479 28.0111 23.6141C27.9518 24.504 28.384 24.9702 29.2061 25.0126C30.4435 25.0719 31.6893 25.0295 33.0115 25.0295V25.021ZM166.073 23.4276C166.158 24.1396 166.217 24.7074 166.277 25.2329C169.904 25.5888 170.285 25.4193 170.379 23.4276H166.073ZM123.79 179.449C125.367 180.695 127.155 181.356 129.07 181.669C129.935 181.813 130.409 181.5 130.231 180.424C128.087 180.102 125.943 179.779 123.79 179.449Z" fill="black"/>
<path d="M139.435 48.15C138.478 48.2517 137.647 48.3619 136.808 48.4212C123.061 49.3366 112.662 55.9727 105.043 67.1855C98.966 76.1353 96.1691 86.0514 97.6862 96.832C98.5083 102.714 97.7455 108.536 98.0507 114.384C98.0591 114.605 97.9489 114.825 97.8133 115.342C96.2539 115.342 94.6351 115.384 93.0164 115.333C89.8042 115.232 86.6006 114.927 83.3969 114.969C78.5491 115.037 73.7012 115.384 68.8449 115.503C62.0392 115.681 55.2251 115.893 48.411 115.842C43.8767 115.808 39.351 115.359 34.8252 115.088C34.4438 115.062 34.0624 114.978 33.342 114.867C33.342 114.045 33.3589 113.215 33.342 112.393C33.2403 108.875 33.1132 105.358 33.0284 101.841C32.9945 100.587 33.0623 99.3406 33.0793 98.0863C33.164 93.1537 33.3759 88.2211 33.3166 83.2969C33.2149 75.2285 33.2827 67.177 33.8929 59.117C34.6387 49.3535 34.9777 39.5646 34.4777 29.7672C34.3675 27.6823 34.4607 25.5804 34.4607 23.292C34.8336 23.2327 35.3506 23.1395 35.8676 23.0802C45.4616 21.9021 55.0895 22.0208 64.7259 22.47C71.4553 22.7751 78.1846 22.9869 84.914 23.3259C87.9566 23.4785 90.9908 23.8769 94.0334 24.1142C95.5928 24.2413 97.1608 24.2922 98.7202 24.3261C102.322 24.3939 105.924 24.4532 109.526 24.4786C110.619 24.4871 111.713 24.3769 112.806 24.3515C115.781 24.2921 118.756 24.2837 121.731 24.1989C123.451 24.1565 125.163 24.004 126.875 23.9192C128.206 23.8514 129.536 23.7497 130.858 23.7836C134.215 23.8599 137.571 24.0633 140.927 24.0887C142.402 24.0972 143.868 23.6734 145.343 23.6395C151.758 23.4615 158.174 23.3599 164.59 23.2412C164.726 23.2412 164.861 23.3683 165.141 23.4954C165.192 23.8599 165.285 24.3091 165.319 24.7667C165.446 26.5635 165.641 28.3602 165.649 30.157C165.683 38.8272 165.666 47.4889 165.666 56.5066C163.039 54.998 160.785 53.4894 158.352 52.3622C155.877 51.2181 153.284 50.2519 150.648 49.5569C148.021 48.8619 145.275 48.6161 142.588 48.1669C142.334 43.6496 144.843 40.5053 149.241 39.751C153.521 39.0137 156.937 36.7931 159.7 33.5047C160.098 33.0301 160.429 32.4792 160.717 31.9284C161.776 29.9197 162.014 27.8687 160.581 25.9448C159.225 24.1311 157.233 23.9362 155.259 24.4616C147.377 26.5466 141.927 31.2249 140.046 39.3866C139.579 41.4206 139.613 43.5733 139.452 45.6752C139.393 46.438 139.444 47.2177 139.444 48.1669L139.435 48.15Z" fill="white"/>
<path d="M117.9 132.742C117.179 133.233 116.51 133.869 115.713 134.182C114.857 134.521 113.857 134.488 112.959 134.733C110.764 135.335 109.374 136.878 108.416 138.861C107.823 140.107 108.179 141.319 108.679 142.488C109.831 145.192 112.111 146.692 114.654 147.845C116.611 148.726 118.688 149.031 120.841 148.853C121.968 148.76 123.061 148.124 124.265 148.777C124.561 148.938 125.256 148.463 125.722 148.192C129.85 145.802 133.986 143.429 138.071 140.971C140.741 139.361 143.368 137.674 145.927 135.903C146.936 135.199 147.75 134.191 148.572 133.25C149.784 131.852 150.385 130.208 150.47 128.318C150.775 121.41 148.995 115.757 144.393 109.604C144.876 109.494 145.275 109.333 145.673 109.316C152.801 109.002 159.878 108.341 166.819 106.595C171.15 105.502 175.413 104.197 179.337 101.993C179.727 101.773 180.151 101.62 180.693 101.366C180.803 101.841 180.939 102.121 180.93 102.4C180.735 110.07 181.6 117.732 180.947 125.402C180.735 127.894 180.905 130.411 180.862 132.92C180.735 140.039 180.54 147.167 178.862 154.116C177.896 158.134 176.532 162.058 175.226 165.99C174.921 166.922 174.235 167.77 173.582 168.533C169.133 173.694 163.514 176.949 156.852 178.279C154.962 178.661 152.97 178.517 151.021 178.601C145.241 178.847 139.452 179.161 133.672 179.322C127.494 179.491 121.553 178.152 115.705 176.296C110.238 174.559 106.136 170.957 103.076 166.329C101.661 164.193 100.915 161.456 100.458 158.888C99.6694 154.515 99.1354 150.065 98.8727 145.633C98.5506 140.09 98.4913 134.521 98.5507 128.97C98.6524 120.198 98.9405 111.435 99.1609 102.671C99.1694 102.307 99.2372 101.951 99.3134 101.265C104.949 104.417 110.806 106.358 116.883 107.401C122.951 108.443 129.112 108.969 135.333 109.74C135.299 109.825 135.257 110.138 135.079 110.333C132.486 113.121 132.07 116.588 131.918 120.164C131.867 121.41 131.672 122.648 131.638 123.893C131.587 125.945 130.418 127.301 128.748 128.123C126.375 129.301 123.883 130.241 121.442 131.275C120.239 131.784 119.035 132.292 117.832 132.801L117.883 132.75L117.9 132.742Z" fill="white"/>
<path d="M114.001 105.587C113.323 96.5183 114.145 87.5261 115.162 78.1864C117.383 78.4491 119.451 78.6525 121.502 78.9406C128.629 79.9407 135.774 80.9069 142.995 80.5848C146.817 80.4153 150.64 80.0085 154.437 79.4831C160.166 78.6949 165.87 77.7711 171.565 76.7879C173.709 76.415 175.794 75.72 178.057 75.1268C178.303 75.6353 178.625 76.1523 178.828 76.7201C181.363 83.8563 181.981 91.2044 181.286 98.7135C181.202 99.5949 180.829 100.112 180.066 100.527C175.921 102.799 171.514 104.358 166.955 105.528C160.183 107.274 153.25 107.909 146.309 108.468C146.072 108.485 145.834 108.545 145.605 108.511C140.707 107.79 135.774 108.858 130.892 108.299C125.689 107.706 120.527 106.79 115.349 106.002C114.976 105.943 114.62 105.782 114.001 105.587V105.587ZM160.446 97.2388C160.174 95.6285 160.107 93.9504 159.581 92.4333C158.666 89.789 157.564 87.1956 156.344 84.6784C155.649 83.2461 154.665 83.3054 153.64 84.5767C153.394 84.8818 153.14 85.2039 153.004 85.5599C151.945 88.3228 150.741 91.0518 149.919 93.891C149.292 96.0522 149.106 98.3236 150.106 100.544C151.496 103.629 155.479 104.722 158.191 102.705C160.056 101.324 160.403 99.4084 160.446 97.2472V97.2388Z" fill="white"/>
<path d="M177.701 74.0758C175.659 74.5505 173.862 75.0081 172.048 75.3726C167.217 76.3472 162.386 77.3388 157.539 78.2033C145.86 80.2967 134.164 80.3052 122.485 78.1779C116.247 77.0422 110.052 75.7116 103.839 74.4488C103.466 74.3725 103.11 74.2115 102.568 74.025C102.771 73.3978 102.907 72.813 103.153 72.2876C105.551 67.1855 108.891 62.7868 113.094 59.0322C114.052 58.1762 114.959 57.8711 116.272 58.1762C125.705 60.3289 135.266 61.2697 144.936 60.829C151.275 60.5408 157.547 59.6001 163.742 58.2102C165.124 57.8966 166.099 58.1508 167.133 59.0831C171.133 62.702 174.362 66.8889 176.744 71.7282C177.074 72.4063 177.32 73.1266 177.71 74.0674L177.701 74.0758Z" fill="white"/>
<path d="M117.849 132.793C118.535 132.725 119.273 132.776 119.917 132.564C122.578 131.657 125.214 130.665 127.85 129.699C131.604 128.318 132.952 125.419 133.045 121.639C133.104 119.461 133.206 117.266 133.579 115.13C133.943 113.096 135.062 111.367 136.715 110.028C138.605 108.494 140.825 108.282 142.724 109.808C143.987 110.816 145.249 112.011 146.021 113.401C148.716 118.215 149.996 123.41 149.207 128.953C148.724 132.377 146.606 134.81 143.783 136.547C137.656 140.31 131.435 143.929 125.248 147.599C125.053 147.717 124.824 147.794 124.332 148.006C123.688 147.421 122.807 146.861 122.256 146.082C119.764 142.565 118.552 138.522 117.713 134.352C117.612 133.852 117.823 133.284 117.891 132.742L117.84 132.793H117.849Z" fill="white"/>
<path d="M102.093 75.2624C106.145 76.1438 110.094 77.0083 114.018 77.8643C113.484 87.0176 112.95 96.0438 112.416 105.18C112.238 105.18 111.925 105.256 111.662 105.172C107.721 103.883 103.746 102.663 100.17 100.51C99.6441 100.197 99.0593 99.5271 98.9915 98.9677C98.0762 90.9077 98.7796 83.0342 101.89 75.4658C101.941 75.3387 102.11 75.2539 102.093 75.2624V75.2624Z" fill="#C8E2E2"/>
<path d="M115.883 56.9134C119.349 54.1674 123.036 52.3452 127.002 51.0824C131.062 49.7942 135.215 49.1585 139.495 49.506C142.758 49.7688 146.072 49.6332 149.292 50.1417C154.818 51.0146 160.768 53.9132 164.149 56.9643C148.114 61.4816 132.172 61.5324 115.883 56.9134V56.9134Z" fill="white"/>
<path d="M165.302 179.517C165.463 180.796 165.522 181.729 165.717 182.644C166.183 184.899 165.209 186.229 163.149 187.077C157.657 189.34 152.301 192.026 146.428 193.17C143.86 193.67 141.19 193.577 138.571 193.755C137.876 186.238 143.122 183.703 147.843 183.22C149.546 183.042 151.284 183.237 152.996 183.127C156.217 182.915 159.352 182.288 162.285 180.856C163.192 180.415 164.124 180.042 165.302 179.517V179.517Z" fill="white"/>
<path d="M140.173 44.2598C140.427 42.675 140.639 40.8104 141.029 38.9883C142.478 32.2419 147.072 28.2585 153.098 25.6651C154.276 25.1566 155.683 25.0295 156.988 25.0125C159.658 24.9702 161.234 26.8008 160.725 29.4281C160.497 30.6062 159.937 31.8266 159.217 32.7928C156.725 36.0897 153.42 38.217 149.335 39.0221C144.173 40.0392 142.504 41.7597 141.749 47.0313C141.673 47.5737 141.698 48.3026 140.936 48.1076C140.605 48.0229 140.283 47.3449 140.215 46.8872C140.097 46.1244 140.181 45.3362 140.181 44.2683L140.173 44.2598Z" fill="white"/>
<path d="M101.432 179.745C105.382 175.906 109.67 175.338 114.298 176.813C117.696 177.898 121.129 178.898 124.239 180.796C125.799 181.754 127.655 182.212 129.621 183C128.926 184.229 128.401 185.568 127.519 186.602C126.426 187.873 124.934 188.661 123.137 188.178C118.179 186.856 113.01 186.339 108.238 184.237C105.763 183.144 103.865 181.33 101.424 179.737L101.432 179.745Z" fill="white"/>
<path d="M116.739 134.793C117.603 139.378 118.773 143.743 121.892 147.412C120.476 148.421 118.942 147.997 117.612 147.794C114.671 147.345 112.162 145.904 110.348 143.471C108.068 140.42 109.238 136.844 112.908 135.674C114.086 135.301 115.323 135.106 116.747 134.793H116.739Z" fill="white"/>
<path d="M99.0846 0.493516C101.958 0.535892 103.39 1.8072 103.365 4.2735C103.339 6.71438 101.415 8.65523 99.0846 8.57896C96.5675 8.50268 94.8046 6.68049 94.8809 4.23114C94.9487 2.00214 96.6861 0.451183 99.0846 0.485084V0.493516Z" fill="white"/>
<path d="M151.081 182.085C150.835 181.364 150.623 180.737 150.318 179.839C155.089 179.152 159.835 179.508 164.107 177.11C164.226 177.347 164.336 177.593 164.455 177.83C164.2 178.195 164.022 178.728 163.675 178.906C159.819 180.873 155.844 182.424 151.081 182.085V182.085Z" fill="white"/>
<path d="M33.02 25.004C31.6978 25.004 30.452 25.0464 29.2146 24.9871C28.3925 24.9532 27.9602 24.487 28.0196 23.5886C28.0874 22.6225 28.7061 22.4445 29.4773 22.5038C30.257 22.5716 31.0283 22.7496 31.808 22.792C33.1386 22.8598 33.342 23.6056 33.02 24.9956V25.004Z" fill="white"/>
<path d="M166.082 23.4107H170.387C170.294 25.4024 169.904 25.5719 166.285 25.2159C166.226 24.6905 166.158 24.1226 166.082 23.4107Z" fill="white"/>
<path d="M123.799 179.432C125.943 179.754 128.087 180.076 130.24 180.407C130.426 181.491 129.952 181.797 129.079 181.652C127.163 181.339 125.375 180.678 123.799 179.432Z" fill="white"/>
<path d="M160.446 97.2472C160.412 99.4169 160.064 101.324 158.191 102.705C155.479 104.722 151.496 103.638 150.106 100.544C149.106 98.3236 149.292 96.0522 149.919 93.891C150.741 91.0518 151.936 88.3228 153.004 85.5599C153.14 85.2039 153.394 84.8818 153.64 84.5767C154.665 83.3054 155.649 83.2461 156.344 84.6784C157.573 87.1955 158.666 89.789 159.581 92.4333C160.107 93.9504 160.174 95.6284 160.446 97.2387V97.2472ZM154.903 84.5937C154.606 84.9157 154.31 85.0937 154.216 85.348C153.081 88.5855 151.894 91.8146 150.894 95.0945C150.411 96.6709 150.445 98.3405 151.131 99.9339C151.919 101.773 154.182 103.027 156.106 102.646C157.912 102.282 159.157 100.62 159.284 98.5355C159.429 96.1539 159.149 93.8402 158.284 91.6196C157.361 89.2381 156.581 86.7803 154.903 84.5937V84.5937Z" fill="black"/>
<path d="M154.903 84.5852C156.572 86.7633 157.352 89.2296 158.284 91.6112C159.149 93.8317 159.429 96.1455 159.284 98.527C159.157 100.62 157.911 102.282 156.106 102.638C154.182 103.019 151.928 101.765 151.131 99.9254C150.445 98.3321 150.411 96.6625 150.894 95.0861C151.894 91.8061 153.081 88.5771 154.216 85.3395C154.301 85.0853 154.598 84.9073 154.903 84.5852V84.5852ZM155.403 101.231C154.784 100.502 154.428 100.103 154.106 99.6797C153.801 99.2813 153.53 98.8575 153.14 98.2812C152.725 100.358 153.047 100.815 155.403 101.231V101.231Z" fill="white"/>
<path d="M155.403 101.239C153.047 100.824 152.725 100.366 153.14 98.2897C153.53 98.866 153.801 99.2898 154.106 99.6881C154.428 100.112 154.784 100.502 155.403 101.239V101.239Z" fill="black"/>
<path d="M106.053 133.789C106.053 133.789 107.632 138.789 108.34 138.914C109.047 139.04 108.987 134.803 115.38 134.353L114.874 129.307L106.053 133.789Z" fill="#7EDDDD" stroke="black" stroke-width="0.4"/>
<path d="M107.053 134.789C107.053 134.789 107.632 138.789 108.34 138.914C109.047 139.04 108.987 134.803 115.38 134.353L115.874 130.307L107.053 134.789Z" fill="#F9E6A6" stroke="black" stroke-width="0.4"/>
</g>
<defs>
<clipPath id="clip0_8_72">
<rect width="210" height="200" fill="white"/>
</clipPath>
</defs>
</svg>
