<svg viewBox="0 0 210 197" fill="none" xmlns="http://www.w3.org/2000/svg">
<rect width="210" height="197" fill="white"/>
<path d="M11.7727 185.874C15.0263 184.5 15.9445 184.649 20.3026 183.518C29.6116 181.102 30.5103 181.623 41.8592 180.47C67.2667 177.889 94.8738 177.591 121.082 178.953C138.273 179.847 154.41 181.603 170.471 183.704C178.025 184.693 186.937 186.093 197.768 187.542" stroke="black" stroke-linecap="round"/>
<path d="M133.583 130.96C132.961 131.32 132.503 131.667 131.991 131.875C130.106 132.637 128.928 134.04 128.105 135.858C127.385 137.45 126.525 138.975 125.726 140.525C125.25 141.452 124.597 141.684 123.682 141.244C122.652 140.75 122.115 139.347 122.554 138.28C122.761 137.786 122.993 137.298 123.353 136.505C121.218 137.407 119.364 138.17 117.54 138.987C117.29 139.097 117.149 139.494 117.003 139.78C116.93 139.921 116.954 140.11 116.942 140.281C116.57 145.106 116.112 149.925 115.862 154.756C115.734 157.239 114.782 159.294 113.508 161.326C111.476 164.565 108.798 167.06 105.388 168.768C104.638 169.146 103.815 169.39 103.064 169.768C102.778 169.908 102.589 170.25 102.338 170.506C103.754 171.025 105.041 171.372 106.206 171.958C107.603 172.659 107.542 172.903 107.151 174.38C106.499 176.856 104.687 178.253 102.625 179.351C98.5016 181.535 94.1096 182.218 89.5102 181.267C88.583 181.071 87.6009 180.833 86.8201 180.333C86.1674 179.918 85.6306 179.156 85.3134 178.424C85.0389 177.79 85.0267 176.978 85.0999 176.265C85.2646 174.624 84.5936 173.123 84.5143 171.305C82.6721 171.208 80.897 171.116 79.0609 171.019C79.7807 171.824 80.4212 172.562 81.08 173.269C81.9889 174.245 82.0316 174.862 80.9885 175.648C78.2679 177.704 75.2789 178.955 71.7652 178.784C68.9714 178.65 66.5375 177.692 64.1646 176.271C61.2183 174.508 60.4436 170.836 62.7982 167.816C63.1703 167.334 63.5424 166.852 63.9511 166.328C63.6949 166.029 63.5363 165.797 63.335 165.626C59.1443 162.009 57.5095 157.214 56.9178 151.901C56.4298 147.515 56.5579 143.123 56.5701 138.725C56.5823 134.723 56.5091 130.722 56.4847 126.714C56.4725 124.915 56.503 123.121 56.5091 121.322C56.5091 119.297 56.6006 117.29 56.2468 115.258C55.2525 109.543 56.0699 103.986 58.4062 98.7212C62.4444 89.6566 68.9531 83.2394 78.7193 80.5188C79.8539 80.2016 81.0251 80.0247 82.4281 79.7319C80.9824 78.7742 79.5855 78.2679 78.0483 78.0422C76.8283 77.8653 75.5595 77.7555 74.4249 77.3285C73.5221 76.9869 72.5826 76.3647 72.0092 75.6022C70.0511 72.9792 71.0577 69.9536 74.1565 68.8312C76.261 68.0687 78.4082 68.1114 80.4456 68.941C84.5936 70.6246 87.1739 73.7173 88.2109 78.0849C88.3268 78.5668 88.4427 79.0487 88.5586 79.5367C89.9189 79.7136 91.2121 79.8234 92.4748 80.0613C100.228 81.5009 106.334 85.5879 110.964 91.8648C115.832 98.4712 118.113 105.864 117.259 114.112C117.216 114.502 117.235 114.923 117.094 115.283C116.143 117.656 116.558 120.035 117.04 122.554C117.442 122.462 117.857 122.401 118.26 122.279C121.932 121.169 125.531 119.876 128.971 118.15C129.813 117.729 130.447 117.277 130.704 116.265C130.874 115.588 131.271 114.837 131.802 114.41C133.272 113.233 133.601 111.489 134.473 109.835C133.839 109.494 133.259 109.189 132.686 108.866C124.347 104.205 119.955 97.1047 120.364 87.546C120.809 77.1089 128.459 68.2578 138.676 65.7934C146.588 63.8841 153.945 65.2139 160.398 70.2586C171.567 78.9877 171.915 95.5736 161.149 105.053C155 110.47 147.814 112.611 139.658 111.245C139.274 111.177 138.878 111.171 138.329 111.116C137.444 112.617 136.547 114.142 135.626 115.71C136.236 116.07 136.743 116.308 137.176 116.643C139.591 118.552 140.189 121.297 138.896 124.396C138.475 125.409 137.871 126.275 136.913 126.854C136.334 127.202 135.779 127.629 135.15 127.843C133.674 128.355 133.076 129.288 133.564 130.948L133.583 130.96ZM116.137 117.814C115.679 117.973 115.301 118.046 114.984 118.229C112.208 119.791 109.189 120.706 106.145 121.517C101.552 122.743 96.8363 123.121 92.1149 123.445C90.9986 123.524 89.8762 123.414 88.7538 123.42C86.4602 123.432 84.1666 123.536 81.8791 123.469C80.1406 123.42 78.4082 123.158 76.6697 123.024C70.1549 122.511 63.8657 121.151 58.0402 118.04C57.8572 117.942 57.6254 117.942 57.2838 117.863C57.2838 118.967 57.296 119.974 57.2838 120.974C57.235 124.463 57.1435 127.952 57.1252 131.448C57.1191 133.363 57.235 135.279 57.2838 137.194C57.4119 142.202 57.3875 147.222 57.7169 152.218C57.9548 155.842 58.9918 159.325 61.322 162.253C64.2927 165.992 68.1236 168.457 72.7474 169.652C73.7234 169.902 74.7299 170.085 75.7303 170.14C79.1036 170.323 82.483 170.433 85.8563 170.567C86.3626 170.585 86.8689 170.604 87.3691 170.579C90.4618 170.427 93.5606 170.146 96.6533 170.14C98.6175 170.14 100.49 169.86 102.259 169.14C109.707 166.114 115.008 161.399 115.234 152.615C115.313 149.528 115.777 146.454 116.033 143.367C116.137 142.147 116.155 140.927 116.216 139.5C115.508 139.719 114.99 139.902 114.453 140.037C111.617 140.75 108.798 141.549 105.931 142.117C103.827 142.538 101.667 142.519 99.5508 141.995C96.4581 141.226 95.1283 139.164 95.8725 136.072C96.1592 134.882 96.7936 133.778 97.2023 132.613C97.5805 131.545 98.2515 130.722 99.2214 130.209C101.009 129.264 102.802 128.312 104.663 127.525C108.341 125.964 112.068 124.518 115.771 123.018C115.868 122.981 115.935 122.871 116.125 122.688V117.79L116.137 117.814ZM59.37 98.9408C59.2297 99.1421 59.1016 99.2642 59.0406 99.4106C56.9483 104.779 56.4664 110.354 57.0642 116.039C57.1069 116.442 57.5217 116.948 57.8999 117.155C59.1321 117.833 60.407 118.449 61.7063 118.979C67.8857 121.523 74.4432 122.31 81.0129 122.841C86.753 123.304 92.4992 123.042 98.2149 122.231C101.222 121.804 104.229 121.395 107.103 120.443C107.786 116.192 107.048 103.217 105.913 100.631C90.3398 104.266 74.8702 102.894 59.3639 98.9469L59.37 98.9408ZM103.15 85.0938C102.009 87.5826 101.308 88.2658 98.7334 89.3638C97.9587 89.6932 97.1535 89.9738 96.3483 90.2117C91.1267 91.755 85.7953 91.8709 80.4273 91.3707C78.0056 91.145 75.6327 90.657 73.3757 89.7298C71.5823 88.9917 69.9109 88.0706 69.2155 85.8624C64.7441 89.0222 61.749 93.1092 59.5713 98.0136C60.0898 98.221 60.4314 98.4223 60.7974 98.4894C66.1045 99.5142 71.3932 100.631 76.7246 101.515C81.629 102.326 86.5944 102.595 91.5476 102.04C95.8542 101.558 100.142 100.899 104.419 100.191C107.109 99.7461 109.671 98.9103 111.617 96.7875C112.562 95.7566 112.66 95.5858 111.989 94.4634C110.293 91.6391 108.219 89.1259 105.706 86.9848C104.913 86.3077 104.028 85.7343 103.162 85.0938H103.15ZM130.148 118.272C126.787 120.236 123.414 121.615 119.9 122.664C113.843 124.475 108.085 127.05 102.259 129.465C101.692 129.703 101.161 130.033 100.606 130.313C97.855 131.71 96.8241 134.205 96.3971 137.029C96.1409 138.756 96.9278 140.189 98.5443 140.854C99.5142 141.251 100.594 141.482 101.643 141.562C104.138 141.763 106.59 141.336 109.006 140.738C117.058 138.749 124.482 135.26 131.68 131.228C132.662 130.679 132.814 129.929 132.717 128.983C132.351 125.378 131.478 121.901 130.142 118.272H130.148ZM143.837 110.842C146.74 110.909 149.296 110.519 151.791 109.732C160.899 106.859 167.523 98.6724 168.261 89.6017C169.262 77.2553 159.727 66.0862 146.002 65.5189C141.019 65.3115 136.407 66.7084 132.174 69.2826C123.902 74.309 119.62 83.3675 121.31 92.6273C122.835 100.954 128.074 106.352 135.675 109.482C138.298 110.561 141.208 111.007 143.837 110.836V110.842ZM87.3996 84.7461C86.3992 84.6058 85.8929 84.1239 85.5818 83.2943C85.3134 82.5623 84.8925 81.8852 84.5021 81.202C84.1239 80.5493 83.5383 80.3358 82.7819 80.4273C78.5241 80.9336 74.5408 82.2329 70.9357 84.5814C70.0451 85.1609 69.8499 86.0332 70.5209 86.8628C71.0028 87.4606 71.625 88.0279 72.3082 88.3634C73.4611 88.9368 74.675 89.4248 75.9194 89.7603C80.5493 91.0169 85.2707 91.1023 90.0104 90.6753C92.9262 90.413 95.842 89.9555 98.5321 88.7111C99.685 88.1804 100.801 87.4423 101.71 86.5639C102.741 85.5635 102.485 84.5875 101.216 83.8555C98.4101 82.2329 95.4028 81.1593 92.1881 80.6835C91.0413 80.5127 89.8884 80.1772 88.6745 80.5493C88.3817 81.9828 88.6379 83.5505 87.4118 84.74L87.3996 84.7461ZM107.926 120.205C110.488 119.473 112.77 118.601 114.966 117.454C115.868 116.985 116.308 116.423 116.387 115.411C116.863 109.421 116.131 103.62 113.807 98.0564C113.624 97.6171 113.343 97.2146 113.197 96.9523C111.098 98.2821 109.122 99.5386 107.048 100.856C108.335 107.164 107.865 113.624 107.926 120.193V120.205ZM86.9177 83.9775C87.912 81.8913 88.0096 78.6034 87.2532 76.8283C86.3565 74.7177 85.0572 72.8816 83.3431 71.3871C80.8055 69.185 77.8836 68.1846 74.5834 69.3192C71.6188 70.344 70.1731 73.1561 73.2537 75.9499C73.8332 76.4745 74.7238 76.7246 75.5168 76.9259C76.383 77.1455 77.3102 77.1028 78.1947 77.2614C81.7815 77.9202 84.8742 79.2744 86.2223 83.0564C86.3382 83.3797 86.6493 83.6298 86.9116 83.9775H86.9177ZM86.0576 174.392C86.0576 175.197 86.1064 176.088 86.0454 176.966C85.9478 178.393 86.5761 179.345 87.8449 179.894C88.5647 180.199 89.2906 180.528 90.047 180.681C94.4329 181.553 98.5565 180.711 102.406 178.54C104.504 177.356 106.218 175.783 106.651 173.129C105.663 172.354 104.583 171.824 103.308 171.72C102.473 171.653 101.716 171.708 101.442 172.696C101.283 173.251 100.899 173.489 100.338 173.574C98.1722 173.904 96.025 174.435 93.8473 174.55C91.3402 174.685 88.8209 174.465 86.0515 174.398L86.0576 174.392ZM81.3423 174.807C80.2687 173.245 79.2439 172.306 77.9751 171.683C77.5969 171.5 76.8222 171.47 76.6209 171.702C75.8523 172.611 74.8519 172.562 73.8515 172.653C71.9422 172.824 70.1548 172.391 68.4468 171.586C66.6229 170.726 64.8173 169.841 63.0056 168.969C61.6575 170.994 61.7063 172.989 63.2252 174.672C63.7071 175.203 64.3598 175.581 64.9759 175.978C70.1426 179.29 75.9682 178.625 80.2931 175.368C80.6042 175.136 80.9885 174.996 81.3362 174.813L81.3423 174.807ZM133.522 127.684C138.676 126.574 139.103 122.554 138.371 119.101C138.286 118.711 137.944 118.15 137.621 118.07C136.596 117.826 135.523 117.747 134.467 117.65C133.546 117.564 133.4 118.54 132.826 118.931C132.771 118.967 132.637 118.906 132.509 118.888C132.656 117.442 134.083 116.1 132.985 114.502C131.527 115.313 130.874 116.503 131.198 117.948C131.637 119.913 132.186 121.852 132.662 123.811C132.967 125.061 133.223 126.318 133.522 127.684V127.684ZM85.6611 171.439C85.533 172.983 85.5208 173.013 86.6737 173.41C87.2471 173.611 87.8571 173.745 88.461 173.812C91.9502 174.178 95.4089 173.91 98.8371 173.215C100.704 172.836 100.881 172.617 101.143 170.598C95.9762 170.878 90.8095 171.159 85.6611 171.439ZM76.2427 170.854C71.7164 170.604 67.9772 169.262 64.5734 166.694C64.183 167.243 63.8474 167.706 63.4631 168.243C65.8849 169.817 68.3248 170.909 70.8868 171.738C72.4362 172.239 73.9857 171.995 75.5229 171.647C75.7181 171.604 75.8523 171.299 76.2427 170.848V170.854ZM128.355 134.437C126 134.87 124.262 135.87 123.377 138.06C122.786 139.53 123.011 140.177 124.872 140.775C126.019 138.682 127.19 136.56 128.355 134.437V134.437ZM134.199 116.997C135.382 114.917 136.474 112.989 137.658 110.903C136.743 110.604 135.98 110.348 135.144 110.073C134.632 111.123 134.15 112.007 133.772 112.934C133.619 113.306 133.613 113.782 133.668 114.197C133.784 115.057 133.985 115.905 134.199 117.003V116.997ZM135.23 116.985C135.669 117.064 136.108 117.143 136.736 117.253C136.242 116.472 135.785 116.491 135.23 116.985Z" fill="black"/>
<path d="M116.137 117.814V122.713C115.948 122.889 115.875 122.999 115.783 123.042C112.08 124.543 108.353 125.994 104.675 127.55C102.814 128.337 101.021 129.288 99.2337 130.234C98.2638 130.746 97.5928 131.564 97.2146 132.637C96.8059 133.802 96.1715 134.906 95.8848 136.096C95.1406 139.195 96.4704 141.257 99.5631 142.019C101.68 142.544 103.839 142.562 105.944 142.141C108.811 141.574 111.629 140.769 114.465 140.061C114.996 139.927 115.521 139.744 116.228 139.524C116.161 140.952 116.143 142.178 116.045 143.392C115.789 146.472 115.319 149.553 115.246 152.639C115.027 161.417 109.726 166.138 102.272 169.164C100.503 169.884 98.6298 170.164 96.6656 170.164C93.5729 170.164 90.4741 170.451 87.3814 170.604C86.8812 170.628 86.3749 170.61 85.8686 170.591C82.4953 170.457 79.1159 170.347 75.7426 170.164C74.7422 170.11 73.7296 169.927 72.7597 169.676C68.1359 168.481 64.3051 166.016 61.3344 162.277C59.0042 159.349 57.9672 155.866 57.7293 152.243C57.3999 147.247 57.4243 142.226 57.2962 137.218C57.2474 135.303 57.1254 133.388 57.1376 131.472C57.1559 127.983 57.2413 124.494 57.2962 120.998C57.3084 119.992 57.2962 118.992 57.2962 117.887C57.6378 117.961 57.8696 117.967 58.0526 118.064C63.872 121.181 70.1611 122.536 76.682 123.048C78.4205 123.188 80.1529 123.445 81.8914 123.493C84.1789 123.554 86.4786 123.457 88.7661 123.445C89.8885 123.438 91.0109 123.542 92.1272 123.469C96.8486 123.146 101.564 122.761 106.157 121.541C109.207 120.73 112.227 119.815 114.996 118.253C115.313 118.077 115.692 118.003 116.149 117.839L116.137 117.814Z" fill="white"/>
<path d="M59.3763 98.9408C74.8825 102.888 90.3521 104.26 105.925 100.624C107.06 103.211 107.798 116.192 107.115 120.437C104.242 121.389 101.228 121.798 98.2273 122.225C92.5116 123.042 86.7653 123.298 81.0252 122.835C74.4555 122.304 67.898 121.517 61.7187 118.973C60.4194 118.436 59.1445 117.82 57.9123 117.149C57.5341 116.942 57.1193 116.442 57.0766 116.033C56.4788 110.348 56.9607 104.779 59.053 99.4044C59.1079 99.258 59.236 99.136 59.3824 98.9347L59.3763 98.9408ZM93.9268 110.708C95.647 110.872 96.135 111.842 96.2631 113.142C96.2875 113.386 96.4583 113.611 96.6535 114.044C97.0805 112.446 96.9158 111.238 96.1899 110.683C95.6043 110.232 94.9333 109.939 93.9207 110.708H93.9268ZM93.8719 108.664C96.1167 109.116 97.3977 107.7 96.867 105.352C96.2204 106.739 95.222 107.843 93.8719 108.664ZM100.692 108.487C98.3676 109.006 98.331 107.231 97.965 105.608C97.4282 107.176 97.6051 108.262 98.3859 108.805C99.1728 109.347 99.9109 109.177 100.686 108.487H100.692ZM99.5266 109.823C97.8491 110.214 97.3306 111.129 97.8186 112.91C98.3859 111.885 98.9532 110.854 99.5266 109.823Z" fill="white"/>
<path d="M103.156 85.0938C104.022 85.7343 104.907 86.3077 105.7 86.9848C108.213 89.1198 110.287 91.633 111.983 94.4634C112.66 95.5919 112.556 95.7566 111.61 96.7875C109.665 98.9103 107.103 99.746 104.412 100.191C100.136 100.899 95.848 101.552 91.5414 102.04C86.5882 102.595 81.6228 102.326 76.7184 101.515C71.387 100.631 66.0983 99.5203 60.7913 98.4894C60.4253 98.4162 60.0837 98.221 59.5652 98.0136C61.7429 93.1092 64.738 89.0283 69.2093 85.8624C69.9108 88.0706 71.5761 88.9856 73.3695 89.7298C75.6265 90.657 77.9994 91.1511 80.4211 91.3707C85.7891 91.8709 91.1205 91.7489 96.3421 90.2117C97.1534 89.9738 97.9525 89.6932 98.7272 89.3638C101.308 88.2719 102.003 87.5887 103.144 85.0938H103.156Z" fill="white"/>
<path d="M130.155 118.272C131.484 121.901 132.363 125.384 132.729 128.983C132.826 129.929 132.674 130.673 131.692 131.228C124.494 135.266 117.07 138.756 109.018 140.738C106.603 141.336 104.15 141.757 101.655 141.562C100.606 141.476 99.5265 141.25 98.5566 140.854C96.9401 140.189 96.1532 138.756 96.4094 137.029C96.8303 134.199 97.8673 131.71 100.618 130.313C101.167 130.033 101.698 129.703 102.272 129.465C108.091 127.05 113.855 124.475 119.913 122.664C123.426 121.615 126.8 120.236 130.161 118.272H130.155Z" fill="white"/>
<path d="M143.849 110.842C141.22 111.007 138.304 110.561 135.687 109.488C128.087 106.358 122.841 100.96 121.322 92.6334C119.632 83.3736 123.914 74.3151 132.186 69.2887C136.425 66.7145 141.031 65.3176 146.015 65.525C159.74 66.0923 169.274 77.2614 168.273 89.6078C167.535 98.6786 160.911 106.865 151.803 109.738C149.309 110.525 146.759 110.915 143.849 110.848V110.842ZM128.745 75.2484C127.495 76.1512 126.677 77.3346 126.348 78.8474C126.128 79.1707 125.909 79.494 125.689 79.8173C125.457 80.4517 125.226 81.0922 124.988 81.7266L125.012 81.6717C124.817 82.0621 124.555 82.4342 124.433 82.849C123.139 87.3447 123.359 91.7611 125.189 96.0739C129.496 106.236 141.342 111.037 151.962 106.932C161.893 103.089 167.456 92.6944 164.998 82.6721C163.204 75.3643 156.415 68.1175 146.344 67.5868C144.49 67.4892 142.653 67.5441 140.878 68.1724L140.933 68.1541C139.329 68.2334 137.792 68.5201 136.48 69.5327L136.529 69.5022C136.212 69.5693 135.864 69.5815 135.577 69.7157C133.125 70.8625 130.984 72.4424 129.16 74.4432C128.953 74.675 128.855 75.0044 128.703 75.2911L128.739 75.2484H128.745Z" fill="white"/>
<path d="M87.4056 84.7461C88.6317 83.5566 88.3755 81.9828 88.6683 80.5554C89.8883 80.1833 91.0351 80.5188 92.1819 80.6896C95.3905 81.1654 98.404 82.239 101.21 83.8616C102.479 84.5936 102.735 85.5696 101.704 86.57C100.795 87.4484 99.6788 88.1865 98.5259 88.7172C95.8419 89.9616 92.9261 90.413 90.0042 90.6814C85.2706 91.1084 80.5431 91.023 75.9132 89.7664C74.6749 89.4309 73.4549 88.9429 72.302 88.3695C71.6249 88.0279 71.0027 87.4667 70.5147 86.8689C69.8437 86.0393 70.0328 85.167 70.9295 84.5875C74.5346 82.239 78.5179 80.9397 82.7757 80.4334C83.5321 80.3419 84.1177 80.5554 84.4959 81.2081C84.8924 81.8852 85.3072 82.5684 85.5756 83.3004C85.8806 84.1361 86.393 84.6119 87.3934 84.7522L87.4056 84.7461Z" fill="white"/>
<path d="M107.932 120.199C107.871 113.624 108.335 107.164 107.054 100.862C109.134 99.5447 111.11 98.2881 113.203 96.9583C113.349 97.2206 113.623 97.6171 113.813 98.0624C116.137 103.626 116.875 109.427 116.393 115.417C116.314 116.43 115.874 116.985 114.972 117.46C112.776 118.607 110.494 119.48 107.932 120.212V120.199Z" fill="#C8E2E2"/>
<path d="M86.9299 83.9714C86.6615 83.6298 86.3504 83.3736 86.2406 83.0503C84.8925 79.2622 81.7998 77.9141 78.213 77.2553C77.3285 77.0906 76.4013 77.1333 75.5351 76.9198C74.7421 76.7185 73.8515 76.4684 73.272 75.9438C70.1915 73.1561 71.6311 70.3379 74.6018 69.3131C77.8958 68.1785 80.8238 69.1789 83.3614 71.381C85.0816 72.8755 86.3748 74.7116 87.2715 76.8222C88.0279 78.5973 87.9303 81.8852 86.936 83.9714H86.9299Z" fill="white"/>
<path d="M86.0696 174.386C88.839 174.459 91.3645 174.679 93.8655 174.538C96.0371 174.422 98.1903 173.886 100.356 173.562C100.917 173.477 101.301 173.239 101.46 172.684C101.734 171.696 102.491 171.635 103.327 171.708C104.601 171.812 105.675 172.342 106.669 173.117C106.242 175.77 104.528 177.344 102.424 178.528C98.5747 180.699 94.451 181.541 90.0651 180.669C89.3087 180.516 88.5767 180.193 87.863 179.882C86.5881 179.339 85.9598 178.387 86.0635 176.954C86.1245 176.069 86.0758 175.185 86.0758 174.38L86.0696 174.386Z" fill="white"/>
<path d="M81.3546 174.807C81.0008 174.99 80.6226 175.13 80.3115 175.362C75.9927 178.619 70.1672 179.284 64.9944 175.972C64.3844 175.581 63.7256 175.197 63.2437 174.666C61.7187 172.983 61.676 170.994 63.0241 168.963C64.8358 169.835 66.6414 170.726 68.4653 171.58C70.1733 172.385 71.9606 172.818 73.8699 172.647C74.8703 172.556 75.8707 172.605 76.6393 171.696C76.8406 171.464 77.6153 171.488 77.9935 171.677C79.2623 172.3 80.2871 173.239 81.3607 174.801L81.3546 174.807Z" fill="white"/>
<path d="M133.534 127.684C133.235 126.318 132.973 125.061 132.674 123.811C132.198 121.852 131.649 119.913 131.21 117.948C130.886 116.497 131.539 115.307 132.997 114.502C134.101 116.1 132.674 117.442 132.521 118.888C132.649 118.906 132.777 118.973 132.838 118.931C133.412 118.54 133.552 117.564 134.479 117.65C135.535 117.747 136.608 117.826 137.633 118.07C137.956 118.15 138.304 118.711 138.383 119.101C139.115 122.56 138.688 126.58 133.534 127.684V127.684Z" fill="white"/>
<path d="M85.6732 171.439C90.8216 171.159 95.9883 170.878 101.155 170.598C100.893 172.617 100.716 172.836 98.8492 173.215C95.421 173.91 91.9623 174.178 88.4731 173.812C87.8692 173.751 87.2592 173.611 86.6858 173.41C85.5329 173.007 85.5451 172.977 85.6732 171.439Z" fill="white"/>
<path d="M76.2549 170.854C75.8584 171.305 75.7242 171.61 75.5351 171.653C73.9978 172.001 72.4485 172.245 70.8991 171.744C68.3371 170.915 65.8909 169.823 63.4753 168.249C63.8596 167.712 64.1951 167.249 64.5855 166.7C67.9894 169.268 71.7348 170.61 76.2549 170.86V170.854Z" fill="white"/>
<path d="M128.367 134.437C127.202 136.56 126.031 138.682 124.884 140.775C123.024 140.177 122.804 139.524 123.39 138.06C124.268 135.87 126.013 134.87 128.367 134.437V134.437Z" fill="white"/>
<path d="M134.211 116.997C133.997 115.899 133.796 115.051 133.68 114.191C133.625 113.782 133.631 113.306 133.784 112.928C134.162 112.001 134.644 111.116 135.156 110.067C135.992 110.342 136.755 110.592 137.67 110.897C136.486 112.983 135.394 114.911 134.211 116.991V116.997Z" fill="white"/>
<path d="M135.242 116.985C135.797 116.491 136.255 116.472 136.749 117.253C136.12 117.137 135.681 117.064 135.242 116.985Z" fill="white"/>
<path d="M93.9268 110.708C94.9394 109.933 95.6104 110.232 96.196 110.683C96.9219 111.245 97.0865 112.446 96.6595 114.044C96.4704 113.617 96.2936 113.386 96.2692 113.142C96.1411 111.842 95.653 110.866 93.9328 110.708H93.9268Z" fill="black"/>
<path d="M93.8657 108.658C95.2199 107.837 96.2183 106.733 96.8608 105.346C97.3915 107.694 96.1105 109.11 93.8657 108.658Z" fill="black"/>
<path d="M100.685 108.481C99.9105 109.177 99.1724 109.341 98.3855 108.798C97.5986 108.256 97.4217 107.17 97.9646 105.602C98.3306 107.225 98.3672 108.994 100.691 108.481H100.685Z" fill="black"/>
<path d="M99.5203 109.817C98.9469 110.848 98.3796 111.879 97.8123 112.904C97.3243 111.123 97.8428 110.201 99.5203 109.817Z" fill="black"/>
<path d="M125.683 79.8112C125.903 79.4879 126.122 79.1646 126.342 78.8413C127.141 77.6396 127.94 76.444 128.739 75.2423L128.703 75.285C128.928 75.1386 129.191 75.0288 129.374 74.8397C131.259 72.8267 133.448 71.2224 135.919 70.0085C136.151 69.8926 136.328 69.673 136.529 69.5022L136.48 69.5327C137.963 69.0752 139.451 68.6116 140.933 68.1541L140.878 68.1724C141.214 68.1724 141.555 68.1785 141.891 68.1602C143.349 68.0809 144.819 67.8735 146.271 67.9467C148.534 68.0687 150.693 68.7641 152.798 69.5998C161.246 72.9426 166.315 82.0133 164.705 90.901C162.119 105.218 145.563 112.556 133.302 104.699C126.47 100.326 123.451 93.9327 124.286 85.8197C124.433 84.4289 124.768 83.0564 125.012 81.6778L124.988 81.7327C125.22 81.0983 125.451 80.4578 125.689 79.8234L125.683 79.8112ZM152.779 99.6423C152.993 99.6606 153.2 99.6789 153.414 99.6972C159.892 97.2206 161.868 89.4126 160.374 84.7278C159.916 83.2882 159.215 81.8425 157.501 81.0129C157.598 81.4582 157.647 81.7205 157.708 81.9828C158.269 84.4411 158.385 86.9177 157.476 89.2906C156.677 91.3829 155.707 93.4142 154.683 95.4089C153.847 97.0315 152.822 98.5504 151.883 100.112C151.925 100.149 151.968 100.185 152.011 100.222C152.267 100.027 152.517 99.8314 152.773 99.6362L152.779 99.6423Z" fill="white"/>
<path d="M125.012 81.6717C124.762 83.0503 124.427 84.4228 124.286 85.8136C123.451 93.9327 126.47 100.319 133.302 104.693C145.563 112.55 162.119 105.212 164.705 90.8949C166.309 82.0072 161.24 72.9365 152.798 69.5937C150.693 68.7641 148.54 68.0626 146.271 67.9406C144.819 67.8613 143.355 68.0748 141.891 68.1541C141.555 68.1724 141.214 68.1602 140.878 68.1663C142.653 67.538 144.49 67.4831 146.344 67.5807C156.415 68.1114 163.204 75.3582 164.998 82.666C167.456 92.6883 161.893 103.083 151.962 106.926C141.342 111.031 129.496 106.236 125.189 96.0677C123.359 91.755 123.14 87.3325 124.433 82.8429C124.549 82.4281 124.811 82.056 125.012 81.6656V81.6717Z" fill="black"/>
<path d="M136.535 69.5022C136.334 69.673 136.157 69.8987 135.925 70.0085C133.448 71.2224 131.265 72.8267 129.38 74.8397C129.203 75.0288 128.934 75.1386 128.709 75.285C128.861 74.9983 128.953 74.6689 129.166 74.4371C130.99 72.4363 133.131 70.8503 135.583 69.7096C135.87 69.5754 136.218 69.5632 136.535 69.4961V69.5022Z" fill="black"/>
<path d="M128.745 75.2484C127.946 76.4501 127.147 77.6457 126.348 78.8474C126.678 77.3346 127.501 76.1512 128.745 75.2484Z" fill="black"/>
<path d="M140.933 68.148C139.451 68.6055 137.963 69.0691 136.48 69.5266C137.792 68.514 139.329 68.2273 140.933 68.148Z" fill="black"/>
<path d="M125.683 79.8113C125.451 80.4457 125.219 81.0862 124.981 81.7206C125.213 81.0862 125.445 80.4457 125.683 79.8113Z" fill="black"/>
<path d="M153.414 99.6972C153.2 99.6789 152.993 99.6606 152.779 99.6423C153.164 99.0262 153.542 98.404 153.926 97.7879C155.957 94.5244 157.8 91.1755 158.312 87.2837C158.489 85.9295 158.513 84.5631 158.611 83.1967C159.209 83.7518 159.593 84.3618 159.77 85.0267C161.112 90.0104 159.343 95.0795 155.213 98.2271C154.597 98.6968 154.012 99.2092 153.408 99.6972H153.414Z" fill="#EEEFFC"/>
<path d="M153.414 99.6973C154.012 99.2032 154.603 98.6969 155.22 98.2272C159.349 95.0796 161.118 90.0105 159.776 85.0268C159.599 84.3619 159.215 83.7519 158.617 83.1968C158.526 84.5571 158.495 85.9296 158.318 87.2838C157.806 91.1756 155.964 94.5245 153.932 97.788C153.548 98.4041 153.164 99.0263 152.786 99.6424C152.529 99.8376 152.279 100.033 152.023 100.228C151.98 100.191 151.938 100.155 151.895 100.118C152.834 98.5505 153.865 97.0316 154.695 95.4151C155.72 93.4204 156.684 91.383 157.489 89.2968C158.398 86.9239 158.282 84.4473 157.721 81.989C157.66 81.7267 157.605 81.4644 157.513 81.0191C159.227 81.8487 159.923 83.2944 160.386 84.734C161.881 89.4127 159.904 97.2268 153.426 99.7034L153.414 99.6973Z" fill="black"/>
<g clip-path="url(#clip0_11_940)">
<path d="M100.79 38.1C100.51 37.6 100.19 37.11 99.9801 36.58C99.6401 35.73 99.4201 34.83 99.0801 33.98C98.3801 32.22 97.3101 30.96 95.1601 31.2C94.8301 31.24 94.4801 31.04 93.8201 30.87C94.3001 30.34 94.5601 29.82 94.9601 29.67C97.8401 28.59 99.6901 26.84 99.3901 23.5C99.3801 23.34 99.5201 23.16 99.6001 23.01C99.6401 22.94 99.7301 22.89 100.09 22.56C100.45 23.13 100.98 23.63 101.1 24.21C101.68 26.89 103.44 28.24 105.96 28.9C106.81 29.12 107.61 29.51 108.45 30.36C107.55 30.6 106.66 30.86 105.76 31.09C102.6 31.91 101.8 32.85 101.58 36.02C101.53 36.69 101.4 37.35 101.3 38.02C101.13 38.05 100.97 38.07 100.8 38.1H100.79ZM100.33 33.13C101.86 31.93 103.28 30.8 104.51 29.84C103.14 28.8 101.72 27.73 100.35 26.68C99.4001 27.76 98.4001 28.87 97.5301 29.86C98.5601 31.05 99.4901 32.14 100.34 33.13H100.33Z" fill="black"/>
<path d="M117 53.22C114.553 55.1133 112.977 57.59 112.27 60.65C110.64 59.73 111.1 57.82 110.21 56.65C109.3 55.45 108.37 54.32 106.4 53.99C107.46 53.03 108.87 52.25 109.48 51.06C110.08 49.89 109.87 48.31 110.25 46.79C112 49.39 113.56 52.08 117 53.22V53.22ZM109.09 53.59C110.09 54.71 110.93 55.66 111.79 56.61C112.68 55.58 113.55 54.58 114.54 53.44C113.44 52.56 112.38 51.73 111.25 50.82C110.51 51.78 109.85 52.62 109.09 53.59V53.59Z" fill="black"/>
<path d="M89.4099 48.94C86.4299 46.4334 84.1699 45.03 82.6299 44.73C83.6399 43.7 84.7299 42.9 85.3999 41.83C86.0599 40.78 86.2899 39.46 86.8199 37.96C88.4899 40.28 89.8699 42.6 92.8699 43.31C90.2499 44.34 89.8499 46.62 89.4199 48.93L89.4099 48.94ZM90.0499 43.56C89.8399 43.77 89.6299 43.97 89.4199 44.18C88.6699 43.08 87.9099 41.99 87.1199 40.84C86.5399 41.91 86.0199 42.86 85.4799 43.85C86.5499 44.65 87.5499 45.39 88.5499 46.14C89.0499 45.28 89.5399 44.42 90.0399 43.56H90.0499Z" fill="black"/>
<path d="M120.3 12.02C121.41 11.97 122.67 13.17 122.64 14.25C122.62 15.09 121.32 16.19 120.3 16.24C119.22 16.29 118.25 15.3 118.25 14.14C118.25 12.96 119.1 12.08 120.3 12.03V12.02ZM120.08 15.59C120.65 15.09 121.29 14.79 121.35 14.41C121.41 14.03 120.87 13.57 120.6 13.15C120.21 13.45 119.59 13.69 119.49 14.07C119.39 14.43 119.81 14.95 120.09 15.6L120.08 15.59Z" fill="black"/>
<path d="M135.85 47.1C135.82 48.77 134.9 49.59 133.64 49.54C132.4 49.5 131.75 48.81 131.84 47.62C131.92 46.51 133.02 45.49 134.13 45.8C134.86 46 135.43 46.77 135.84 47.1H135.85ZM133.74 46.55C133.39 47.09 133 47.49 133.07 47.61C133.26 47.93 133.64 48.16 133.99 48.33C134.06 48.37 134.51 47.95 134.47 47.84C134.35 47.47 134.09 47.14 133.73 46.55H133.74Z" fill="black"/>
<path d="M76.62 11.37C76.56 12.63 75.5 13.65 74.3 13.59C73.11 13.53 72.35 12.74 72.46 11.67C72.57 10.52 73.58 9.53998 74.6 9.57998C75.8 9.62998 76.67 10.4 76.63 11.37H76.62ZM74.46 10.4C74.05 10.97 73.66 11.33 73.56 11.76C73.52 11.94 74.26 12.53 74.38 12.47C74.78 12.24 75.15 11.84 75.34 11.42C75.4 11.28 74.88 10.88 74.46 10.4Z" fill="black"/>
<path d="M100.33 33.13C99.48 32.14 98.54 31.05 97.52 29.86C98.4 28.87 99.39 27.76 100.34 26.68C101.72 27.72 103.13 28.8 104.5 29.84C103.28 30.8 101.85 31.93 100.32 33.13H100.33Z" fill="#F0C3BA"/>
<path d="M109.1 53.59C109.85 52.62 110.51 51.78 111.26 50.82C112.4 51.72 113.45 52.56 114.55 53.44C113.56 54.58 112.69 55.59 111.8 56.61C110.95 55.66 110.1 54.71 109.1 53.59V53.59Z" fill="#EEEFFC"/>
<path d="M90.05 43.56C89.55 44.42 89.05 45.28 88.56 46.14C87.55 45.39 86.55 44.64 85.49 43.85C86.03 42.86 86.55 41.91 87.13 40.84C87.92 41.99 88.67 43.08 89.43 44.18C89.64 43.97 89.85 43.77 90.06 43.56H90.05Z" fill="white"/>
<path d="M120.08 15.6C119.8 14.95 119.38 14.44 119.48 14.07C119.59 13.69 120.2 13.45 120.59 13.15C120.87 13.57 121.4 14.04 121.34 14.41C121.28 14.79 120.65 15.09 120.07 15.59L120.08 15.6Z" fill="white"/>
<path d="M133.74 46.55C134.09 47.14 134.35 47.46 134.48 47.84C134.52 47.95 134.07 48.37 134 48.33C133.65 48.16 133.28 47.92 133.08 47.61C133.01 47.49 133.4 47.09 133.75 46.55H133.74Z" fill="white"/>
<path d="M74.4599 10.39C74.8799 10.86 75.3999 11.26 75.3399 11.41C75.1599 11.83 74.7799 12.23 74.3799 12.46C74.2599 12.53 73.5199 11.93 73.5599 11.75C73.6599 11.33 74.0499 10.97 74.4599 10.39Z" fill="white"/>
</g>
<defs>
<clipPath id="clip0_11_940">
<rect width="63.4006" height="51.0712" fill="white" transform="translate(72.4495 9.5788)"/>
</clipPath>
</defs>
</svg>
