<svg width="210" height="200" viewBox="0 0 210 200" fill="none" xmlns="http://www.w3.org/2000/svg">
<rect width="210" height="200" fill="white"/>
<ellipse opacity="0.1" cx="113.196" cy="98.5413" rx="90.6724" ry="85.8823" fill="url(#paint0_linear_810_386)"/>
<ellipse opacity="0.45" cx="113.196" cy="87.3113" rx="68.533" ry="59.682" fill="#EFDBBB" fill-opacity="0.72"/>
<g clip-path="url(#clip0_810_386)">
<path d="M66.4563 148.919C66.4563 148.919 98.3692 157.486 122.756 146.761C125.643 145.489 127.632 142.877 126.541 139.921L124.171 133.467L64.8164 142.671L66.4501 148.919H66.4563Z" fill="white" stroke="#231F20" stroke-width="1.24708" stroke-miterlimit="10"/>
<path d="M60.4205 98.8297C60.4205 98.8297 59.0051 87.5436 59.3542 76.1951C59.7284 64.273 66.6621 54.0719 75.9404 48.2979C83.5289 43.5714 93.4744 40.2355 109.587 45.2924C109.587 45.2924 117.362 47.0882 124.171 54.0906C128.973 59.029 131.61 66.0875 131.554 73.4079C131.492 81.4828 131.548 93.991 132.371 98.8234" fill="white"/>
<path d="M59.7966 98.9045C58.3438 91.3098 57.5145 83.6901 57.3898 75.9333C57.1217 59.2161 70.2534 44.1701 86.3034 40.2854C94.397 38.3088 102.902 39.4125 110.678 41.8006L110.403 41.7258C110.765 41.7944 111.282 41.9752 111.638 42.075C122.668 45.6167 132.24 54.5146 134.117 66.2684C135.139 71.1507 134.166 77.8974 133.936 82.8608C133.742 85.4049 133.275 92.2888 133.125 94.7705C133.05 96.0924 132.982 97.4143 132.982 98.7175L131.753 98.9232C129.571 91.0729 131.036 83.0749 130.5 75C130.4 70.2611 129.919 64.578 127.5 60.5C123.983 54.5514 118.198 48.9339 111.638 46.9074C104.704 44.6751 93.0813 43.0659 86.3034 44.5C72.5855 47.387 60.9751 60.7521 59.8091 75C59.223 82.4576 60.7756 91.1539 61.0437 98.7362L59.8091 98.8921L59.7966 98.9045Z" fill="#231F20"/>
<path d="M114.375 97.1586C114.375 97.1586 120.792 92.0394 128.393 91.3098C128.393 91.3098 148.489 94.097 167.408 112.735C167.408 112.735 168.312 130.026 142.335 145.477C142.335 145.477 133.082 137.888 129.864 121.29L131.398 139.528C131.398 139.528 114.35 149.748 109.917 153.24C109.917 153.24 85.6239 143.444 82.1133 140.27C82.1133 140.27 71.2013 147.902 66.9924 151.65C66.9924 151.65 62.5404 147.173 61.0439 112.492C61.0439 112.492 48.8599 114.312 29.8044 112.741C29.8044 112.741 25.4583 110.883 27.2853 102.446C27.2853 102.446 31.0578 81.0588 42.824 74.0003C42.824 74.0003 51.3416 77.0557 58.8739 88.1048C58.8739 88.1048 58.6993 92.083 64.7477 95.9053C64.7477 95.9053 70.7462 91.3846 73.7205 95.2693C73.7205 95.2693 77.9107 98.5803 82.3565 99.0542C82.3565 99.0542 87.0331 95.1571 90.924 98.3932C90.924 98.3932 97.7517 98.4494 105.147 94.7019L106.232 92.9061L113.546 92.7564L114.369 97.1586H114.375Z" fill="#E3F1F4" stroke="#231F20" stroke-width="0.623541" stroke-miterlimit="10"/>
<path d="M88.5 106.5L90 110.5C89.6 112.5 86.8333 113.667 85.5 114L83.5 111.5C83.5 110.7 84.1667 107.5 84.5 106C83.7 104.8 82.5 100.833 82 99C86.4 95.8 90.1667 97.6666 91.5 99C91.5 100.6 89.5 104.667 88.5 106.5Z" fill="#F9E6A6" stroke="black"/>
<path d="M28.9377 111.257C27.94 110.559 28.1645 108.713 28.1396 107.665C28.1022 106.368 28.1271 105.071 28.2082 103.774C28.389 101.099 28.8504 98.4556 29.5301 95.8679C30.9019 90.6426 33.2776 85.7042 36.5075 81.3768C38.3282 78.9325 40.4608 76.7564 42.7242 74.7236C43.5909 73.9504 42.3438 72.7719 41.4709 73.4703C32.4545 80.7034 27.0234 92.4571 26.4872 103.899C26.4124 105.514 26.4124 107.148 26.5683 108.763C26.7054 110.166 26.9361 111.668 28.2331 112.46C29.0063 112.934 29.6548 111.768 28.9315 111.263L28.9377 111.257Z" fill="#231F20"/>
<path d="M42.8174 73.994C43.0543 73.8818 43.3349 73.9878 43.5719 74.1C49.932 77.0681 55.3506 82.0253 58.8673 88.1048" fill="white"/>
<path d="M42.674 74.5178C43.5096 74.6488 44.4075 75.4033 45.1245 75.846C45.8416 76.2887 46.5275 76.7189 47.2134 77.1741C48.6912 78.1593 50.0879 79.263 51.3911 80.4727C53.9788 82.8733 56.1051 85.6293 57.9633 88.6223C58.6741 89.7634 60.4138 88.7533 59.7653 87.5686C57.9071 84.1702 55.282 81.1461 52.3389 78.6457C50.8923 77.4173 49.3522 76.2949 47.7247 75.3097C46.8767 74.7922 45.9913 74.3432 45.0871 73.9379C44.3326 73.6012 43.3163 73.04 42.5368 73.5139C42.1752 73.7384 42.1814 74.4368 42.6678 74.5116L42.674 74.5178Z" fill="#231F20"/>
<path d="M28.5571 112.111C29.9476 113.078 31.7434 113.177 33.4332 113.227C42.4559 113.508 51.491 113.308 60.4887 112.622" fill="white"/>
<path d="M28.2831 112.573C30.3096 113.982 32.916 113.87 35.273 113.938C38.0415 114.019 40.81 114.057 43.5785 114.05C49.2216 114.032 54.8584 113.82 60.4828 113.433C61.5116 113.365 61.5116 111.743 60.4828 111.824C55.0642 112.267 49.6269 112.535 44.1958 112.629C41.5271 112.672 38.8646 112.679 36.1958 112.641C33.8388 112.61 30.9144 112.934 28.8256 111.65C28.227 111.282 27.7219 112.186 28.2831 112.579V112.573Z" fill="#231F20"/>
<path d="M166.304 111.831C166.217 114.58 165.992 117.218 165.169 119.862C164.346 122.506 163.111 124.956 161.627 127.251C158.566 131.971 154.307 135.8 149.836 139.148C147.255 141.081 144.53 142.827 141.98 144.797C141.138 145.446 142.217 146.768 143.102 146.25C145.683 144.729 148.153 142.964 150.553 141.168C152.954 139.372 155.28 137.489 157.431 135.4C161.578 131.372 165.063 126.534 166.797 120.972C167.713 118.01 168.243 114.724 167.682 111.644C167.539 110.852 166.341 111.076 166.323 111.831H166.304Z" fill="#231F20"/>
<path d="M125.474 116.476C123.523 114.443 121.658 112.41 120.417 109.854L119.102 110.87C120.081 111.774 121.041 112.697 122.039 113.576C122.88 114.312 123.953 114.93 125.1 114.537C126.248 114.144 126.541 112.809 126.915 111.756C127.133 111.145 127.351 110.534 127.563 109.916C127.713 109.498 127.825 108.856 128.243 108.607L127.039 107.915C127.195 111.799 127.532 115.665 128.056 119.519C128.174 120.398 129.733 120.198 129.615 119.307C129.135 115.528 128.798 111.725 128.629 107.915C128.605 107.322 127.969 106.905 127.426 107.223C126.559 107.74 126.304 108.694 125.986 109.586C125.63 110.608 125.356 111.725 124.888 112.697C124.421 113.67 123.311 112.554 122.887 112.155C122.014 111.332 121.141 110.502 120.274 109.673C119.557 108.993 118.559 109.848 118.958 110.689C120.205 113.34 122.394 115.453 124.458 117.467C125.113 118.11 126.098 117.124 125.462 116.463L125.474 116.476Z" fill="#231F20"/>
<path d="M128.324 116.002L131.392 139.522L128.324 116.002Z" fill="white"/>
<path d="M127.825 116.002C128.767 123.909 129.565 131.84 130.669 139.722C130.787 140.551 132.24 140.364 132.14 139.522C131.186 131.622 129.92 123.746 128.804 115.865C128.723 115.316 127.757 115.441 127.825 115.996V116.002Z" fill="#231F20"/>
<path d="M131.199 139.796C123.722 143.843 116.521 148.395 109.662 153.421L131.199 139.796Z" fill="white"/>
<path d="M130.943 139.354C123.423 143.326 116.171 147.79 109.293 152.785C108.539 153.333 109.275 154.605 110.029 154.044C116.876 149 124.015 144.354 131.454 140.227C132.028 139.909 131.517 139.042 130.943 139.347V139.354Z" fill="#231F20"/>
<path d="M109.543 153.234C100.165 149.436 91.0051 145.103 82.1196 140.264L109.543 153.234Z" fill="white"/>
<path d="M109.905 152.61C100.714 148.407 91.6164 144.024 82.6997 139.266C81.3903 138.568 80.2305 140.538 81.5337 141.262C90.4441 146.206 99.7536 150.521 109.35 153.932C110.111 154.2 110.653 152.953 109.905 152.616V152.61Z" fill="#231F20"/>
<path d="M85.9546 124.351C85.8611 128.267 85.9671 132.195 86.2851 136.099L85.9546 124.351Z" fill="white"/>
<path d="M85.4178 124.351C85.318 128.273 85.4178 132.189 85.7171 136.099C85.7732 136.816 86.9018 136.822 86.8457 136.099C86.5277 132.189 86.4092 128.267 86.4903 124.351C86.5027 123.659 85.4365 123.659 85.4178 124.351Z" fill="#231F20"/>
<path d="M86.4347 135.98C80.0746 141.262 73.5897 146.406 66.9927 151.394L86.4347 135.98Z" fill="white"/>
<path d="M86.079 135.376C82.6433 137.733 79.3946 140.339 76.0836 142.87C72.7726 145.402 69.3993 147.921 66.1506 150.553C65.1093 151.394 66.4873 153.209 67.5972 152.423C71.008 150.01 74.3003 147.385 77.524 144.729C80.7477 142.072 83.9777 139.429 86.9332 136.479C87.482 135.93 86.7586 134.914 86.079 135.376Z" fill="#231F20"/>
<path d="M65.418 104.259L64.958 95.651L71.1348 94.3369L72.7775 94.9939L79.3485 106.625L88.745 118.255L97.4187 125.68H94.5275L80.597 116.941L74.9459 112.933L69.6234 114.97L68.4407 113.721L65.418 104.259Z" fill="white"/>
<path d="M64.28 96.5538C63.9807 100.164 64.2925 103.781 65.0782 107.31C65.4336 108.906 65.8513 110.509 66.4749 112.024C67.0298 113.371 67.8654 115.017 69.1623 115.796C69.8732 116.22 70.5716 116.077 71.2824 115.74C72.199 115.31 73.1031 114.842 74.0135 114.393C74.6059 114.1 75.2543 113.583 75.8342 114.094C76.4515 114.63 76.9816 115.266 77.5864 115.815C79.9933 117.966 82.5934 119.918 85.337 121.62C88.4235 123.534 91.7782 125.262 95.2638 126.334C96.4485 126.702 97.3028 124.8 96.1243 124.289C93.2934 123.054 90.4875 121.82 87.8062 120.267C85.125 118.714 82.6184 116.969 80.2739 114.986C79.164 114.05 78.1351 112.909 76.9317 112.105C75.3728 111.057 73.814 112.036 72.3674 112.785C72.0057 112.972 71.644 113.152 71.2824 113.339C71.0766 113.445 70.4281 113.926 70.1974 113.894C69.7173 113.826 69.1312 112.741 68.9067 112.354C68.1335 111.032 67.697 109.536 67.298 108.064C66.2691 104.311 65.8077 100.432 65.6955 96.5538C65.6705 95.6247 64.3486 95.6496 64.2738 96.5538H64.28Z" fill="#231F20"/>
<path d="M65.0655 96.3667C66.5496 95.6434 68.1957 95.1945 69.8481 95.0947C70.4405 95.0573 71.6127 94.8827 72.1178 95.2631C72.6229 95.6434 72.891 96.7533 73.1529 97.327C74.4436 100.139 76.0149 102.839 77.6486 105.464C80.9222 110.727 84.7071 115.672 88.9347 120.205C91.1608 122.587 93.605 125.499 96.8412 126.44C97.9449 126.764 98.7555 125 97.6456 124.532C94.7399 123.304 92.5824 120.934 90.4437 118.69C88.3049 116.445 86.1038 113.888 84.1334 111.319C82.163 108.75 80.3797 106.156 78.7086 103.438C77.0375 100.719 75.5535 97.8009 74.0071 94.9638C73.078 93.2677 71.3072 93.3737 69.6049 93.5982C67.7842 93.8414 66.0819 94.4837 64.5293 95.4564C63.9494 95.818 64.4545 96.6598 65.0593 96.3667H65.0655Z" fill="#231F20"/>
<path d="M85.9854 113.72C86.5528 113.77 87.0828 113.452 87.5567 113.14C95.3011 108.046 101.773 101.037 106.232 92.906C108.402 92.8 110.578 92.694 112.748 92.588C113.028 92.5756 113.334 92.5693 113.546 92.7564C113.752 92.9372 113.789 93.2365 113.814 93.5109C114.307 99.2973 114.475 105.109 114.313 110.908C112.81 109.841 111.239 108.869 109.618 108.002C109.455 107.915 109.281 107.827 109.094 107.821C108.763 107.821 108.495 108.071 108.258 108.308C103.058 113.564 95.8311 116.775 88.4421 117.112" fill="white"/>
<path d="M85.9854 114.237C87.1576 114.337 88.2613 113.533 89.2028 112.922C90.2566 112.236 91.2979 111.519 92.2894 110.746C94.3096 109.187 96.2114 107.472 97.9948 105.651C101.568 102.004 104.635 97.8882 107.13 93.4299L106.226 93.9474C108.296 93.8664 110.366 93.7853 112.436 93.7042C112.573 93.698 112.717 93.6918 112.854 93.6918C113.084 93.7105 113.028 93.6169 112.673 93.3925C112.673 93.3925 112.717 93.7915 112.717 93.8102C112.76 94.3153 112.791 94.8266 112.823 95.3317C112.891 96.3979 112.954 97.4642 113.003 98.5304C113.097 100.563 113.147 102.602 113.159 104.635C113.159 105.651 113.159 106.674 113.147 107.69C113.134 108.769 112.997 109.823 112.947 110.895L114.999 109.717C113.826 108.85 112.617 108.039 111.357 107.316C110.098 106.593 108.819 105.926 107.529 107.004C106.587 107.79 105.745 108.688 104.785 109.455C103.9 110.166 102.958 110.808 101.992 111.4C97.9075 113.907 93.2309 115.385 88.4421 115.615C86.5341 115.709 86.5216 118.69 88.4421 118.59C92.5076 118.384 96.4484 117.399 100.146 115.715C101.904 114.917 103.588 113.944 105.159 112.822C106.014 112.211 106.843 111.569 107.635 110.877C108.015 110.546 108.383 110.203 108.745 109.854C108.938 109.667 109.281 109.224 109.474 109.199H108.707C109.549 109.374 110.434 110.072 111.17 110.509C112.006 111.001 112.823 111.519 113.627 112.068C114.506 112.666 115.672 111.868 115.678 110.889C115.685 109.91 115.591 108.856 115.591 107.834C115.591 106.761 115.579 105.695 115.56 104.629C115.516 102.54 115.435 100.451 115.311 98.3683C115.254 97.4018 115.186 96.4353 115.111 95.4689C115.036 94.5647 115.105 93.4423 114.756 92.5943C114.406 91.7463 113.639 91.447 112.76 91.4595C111.725 91.4782 110.69 91.578 109.655 91.6341C108.62 91.6902 107.585 91.7463 106.55 91.8211C106.038 91.8585 105.658 91.9022 105.34 92.3574C105.078 92.7315 104.885 93.1867 104.654 93.5858C103.787 95.0947 102.852 96.5663 101.848 97.9942C99.8903 100.775 97.683 103.388 95.2637 105.782C93.8732 107.16 92.4016 108.439 90.8989 109.692C90.1631 110.303 89.4273 110.895 88.6604 111.469C87.8934 112.043 86.9269 113.109 85.9916 113.184C85.3244 113.234 85.3244 114.163 85.9916 114.219L85.9854 114.237Z" fill="#231F20"/>
<path d="M61.0439 112.485C61.3807 117.904 61.7236 123.322 62.0977 128.735C62.6464 136.579 63.3386 144.654 66.9364 151.644" fill="white"/>
<path d="M60.439 112.485C60.5325 118.091 60.8318 123.69 61.1997 129.284C61.5302 134.303 61.9355 139.36 63.1389 144.261C63.8123 147.005 64.7663 149.642 66.0758 152.149C66.6681 153.284 68.3455 152.286 67.7843 151.151C63.2885 142.104 63.3072 131.684 62.4966 121.845C62.241 118.721 61.9791 115.609 61.6362 112.492C61.5551 111.743 60.4202 111.7 60.4327 112.492L60.439 112.485Z" fill="#231F20"/>
<path d="M86.1165 120.554C85.3059 125.673 85.4867 130.948 86.6403 136.005L86.1165 120.554Z" fill="white"/>
<path d="M85.5492 120.398C84.695 122.873 84.5952 125.711 84.6388 128.305C84.6638 129.62 84.7448 130.942 84.8945 132.252C85.0441 133.561 85.1751 135.014 85.624 136.286C85.9919 137.327 87.8251 137.265 87.6942 136.005C87.5632 134.746 87.239 133.505 87.0395 132.258C86.8399 131.011 86.709 129.626 86.6404 128.305C86.5095 125.717 86.7713 123.142 86.7028 120.554C86.684 119.874 85.755 119.768 85.543 120.398H85.5492Z" fill="#231F20"/>
<path d="M84.215 111.369C84.4395 110.34 84.7138 109.324 84.982 108.308C85.1191 107.796 85.2625 107.291 85.4184 106.786C85.4434 106.711 85.5681 106.468 85.5431 106.393C85.4933 106.537 85.3748 106.612 85.1877 106.612C84.8261 106.68 84.7575 106.743 84.982 106.792C85.1877 106.93 85.5431 106.998 85.7738 107.067C86.2727 107.216 86.7653 107.366 87.2641 107.516C87.3951 107.553 87.526 107.591 87.6507 107.64C87.4886 107.578 87.738 107.69 87.7629 107.709C87.6195 107.622 87.8128 107.759 87.8502 107.796C87.7131 107.647 87.9188 107.927 87.9438 107.977C88.0498 108.164 87.9126 107.852 87.9874 108.077C88.0186 108.17 88.056 108.27 88.0872 108.364C88.1682 108.619 88.2493 108.875 88.3179 109.131C88.4551 109.642 88.5112 110.184 88.6733 110.69C88.8354 111.195 89.2906 111.506 89.8206 111.438C90.3195 111.369 90.7435 110.933 90.7248 110.409C90.7061 109.885 90.5564 109.349 90.4192 108.844C90.2945 108.382 90.1573 107.921 89.9828 107.478C89.7957 107.011 89.5775 106.537 89.1846 106.2C88.7668 105.845 88.2805 105.664 87.7567 105.514C87.2766 105.377 86.7965 105.24 86.3226 105.103C85.7364 104.934 85.0007 104.672 84.427 104.959C83.9095 105.221 83.7785 105.776 83.6663 106.294C83.5603 106.774 83.4667 107.254 83.3795 107.734C83.1737 108.881 83.0677 110.035 83.0053 111.195C82.9679 111.887 84.0716 112.043 84.2212 111.357L84.215 111.369Z" fill="#231F20"/>
<path d="M85.5304 105.626C84.8258 104.304 84.1961 102.945 83.772 101.505C83.5912 100.881 83.3356 100.114 83.3605 99.4719C83.3605 99.528 83.4603 99.3534 83.3917 99.4158C83.373 99.4345 83.5787 99.2911 83.6349 99.2599C83.9404 99.0916 84.2646 98.9544 84.5951 98.8297C85.9544 98.3371 87.6629 98.069 89.0036 98.362C89.2841 98.4244 89.4962 98.4805 89.7082 98.6177C89.8453 98.705 89.9326 98.7486 89.9888 98.9669C90.1509 99.5842 89.7082 100.463 89.5024 101.031C88.8913 102.733 88.062 104.348 87.083 105.869C86.765 106.362 86.9833 107.067 87.4696 107.347C87.9934 107.653 88.6294 107.453 88.9474 106.961C90.0449 105.265 90.9365 103.438 91.6162 101.53C91.9529 100.576 92.3021 99.5592 92.1026 98.5304C91.903 97.5015 91.1236 96.8281 90.207 96.4664C88.4735 95.7805 86.2288 96.0549 84.4954 96.5849C83.6162 96.853 82.5374 97.2085 81.8702 97.8819C81.0596 98.705 81.2218 99.7525 81.4712 100.775C81.9887 102.87 82.9801 104.884 84.5639 106.381C85.0815 106.867 85.8671 106.256 85.5367 105.633L85.5304 105.626Z" fill="#231F20"/>
<path d="M90.4126 97.9131C90.8865 98.1376 91.4414 98.0877 91.9652 98.0316C96.4859 97.5265 100.932 96.4041 105.153 94.7018" fill="white"/>
<path d="M90.132 98.387C91.1733 98.9731 92.4453 98.7736 93.5864 98.6613C94.927 98.5304 96.2676 98.281 97.5833 98.0066C100.258 97.4579 102.865 96.6348 105.402 95.6309C106.556 95.1757 106.045 93.2927 104.885 93.7603C102.559 94.7019 100.183 95.4563 97.7516 96.0736C96.5607 96.3792 95.3635 96.6411 94.16 96.8593C93.5365 96.9715 92.913 97.0963 92.2894 97.2147C91.7282 97.3207 91.1109 97.4953 90.5497 97.3769C89.9574 97.2459 89.5521 98.069 90.1195 98.3932L90.132 98.387Z" fill="#231F20"/>
<path d="M82.5937 99.048C79.3762 98.5741 76.2897 97.2584 73.7207 95.2631L82.5937 99.048Z" fill="white"/>
<path d="M82.7429 98.5179C81.2526 98.0253 79.7686 97.5015 78.3531 96.8344C77.6423 96.4976 76.9502 96.1173 76.2892 95.6995C75.6282 95.2817 74.9798 94.6956 74.2689 94.334C73.1715 93.7728 72.1239 95.1009 72.9595 96.03C73.5207 96.6598 74.3936 97.1274 75.1294 97.5265C75.9213 97.9567 76.7444 98.3309 77.5799 98.6613C79.1762 99.2849 80.8847 99.6341 82.5994 99.6029C83.2354 99.5904 83.3352 98.7112 82.7491 98.5117L82.7429 98.5179Z" fill="#231F20"/>
<path d="M83.9587 104.816C82.6181 105.763 80.8909 106.144 79.2759 105.838L83.9587 104.816Z" fill="white"/>
<path d="M83.6972 104.36C83.0424 104.784 82.3316 105.071 81.5647 105.209C81.2342 105.271 80.8725 105.296 80.5046 105.29C80.2989 105.29 80.0931 105.271 79.8936 105.246C79.9434 105.252 79.931 105.246 79.8437 105.24C79.7938 105.233 79.7439 105.221 79.694 105.215C79.5569 105.196 79.4197 105.184 79.2825 105.171C78.9583 105.14 78.6652 105.445 78.6278 105.751C78.5904 106.075 78.7774 106.387 79.1017 106.481C79.9622 106.724 80.991 106.605 81.8453 106.393C82.6995 106.181 83.5226 105.801 84.2272 105.271C84.4517 105.103 84.5701 104.816 84.4142 104.548C84.2771 104.311 83.9341 104.205 83.6909 104.36H83.6972Z" fill="#231F20"/>
<path d="M90.3188 103.338C90.6867 103.824 91.3227 104.005 91.9151 104.13C93.8419 104.529 95.8247 104.616 97.7764 104.385" fill="white"/>
<path d="M89.8267 103.475C89.939 104.092 90.6872 104.429 91.2172 104.616C91.8595 104.847 92.5454 104.972 93.2126 105.065C94.7278 105.277 96.2492 105.315 97.7769 105.171C98.1947 105.134 98.5563 104.841 98.5563 104.392C98.5563 104.011 98.2009 103.562 97.7769 103.612C96.4176 103.781 95.052 103.812 93.6865 103.687C93.0629 103.631 92.4332 103.562 91.8221 103.444C91.5914 103.4 91.3544 103.35 91.1424 103.251C90.893 103.138 90.7059 102.951 90.4503 102.845C90.0575 102.683 89.7644 103.138 89.8267 103.469V103.475Z" fill="#231F20"/>
<path d="M127.301 112.386C128.81 122.131 130.712 132.114 136.299 140.457C137.752 142.627 139.435 144.673 141.418 146.381C142.659 147.447 144.449 145.72 143.233 144.567C140.028 141.511 137.44 137.988 135.451 134.029C133.287 129.72 131.853 125.068 130.662 120.404C129.951 117.617 129.265 114.824 128.598 112.03C128.392 111.17 127.164 111.55 127.295 112.392L127.301 112.386Z" fill="#231F20"/>
<path d="M168.567 113.127C168.131 111.787 166.728 110.708 165.73 109.767C164.608 108.7 163.423 107.684 162.245 106.674C159.881 104.654 157.425 102.746 154.868 100.975C149.842 97.4953 144.399 94.5771 138.594 92.6255C135.358 91.5343 132.034 90.7798 128.636 90.4368C128.006 90.3745 127.47 91.0167 127.47 91.6028C127.47 92.3012 128.006 92.6816 128.636 92.7689C140.489 94.3464 150.803 100.37 159.994 107.734C161.316 108.794 162.613 109.891 163.903 110.995C164.514 111.519 165.138 112.018 165.755 112.535C166.372 113.053 167.021 113.645 167.844 113.851C168.262 113.957 168.717 113.564 168.574 113.121L168.567 113.127Z" fill="#231F20"/>
<path d="M130.388 91.1228C129.241 89.963 127.033 90.6551 125.655 90.9232C123.76 91.2911 121.908 91.8648 120.112 92.5632C117.331 93.6419 112.96 95.3005 112.736 98.8298C112.673 99.8399 114.294 100.339 114.719 99.366C115.199 98.2623 115.828 97.3956 116.826 96.7159C118.023 95.8991 119.376 95.2756 120.698 94.6832C122.12 94.041 123.591 93.5359 125.069 93.0558C125.786 92.8251 126.51 92.6068 127.239 92.4197C127.651 92.3137 128.062 92.2202 128.468 92.1142C128.748 92.0394 129.222 91.8212 129.484 92.0269C130.114 92.5195 130.98 91.7276 130.388 91.1228Z" fill="#231F20"/>
<path d="M58.9625 87.8663C58.869 89.8492 60.2578 91.5031 61.3739 93.0682C62.49 94.6333 63.3222 96.0311 65.2988 96.2618C65.6979 96.3055 66.0658 95.9127 66.1094 95.551C66.1593 95.127 65.9161 94.7903 65.517 94.6469C63.9894 94.1044 63.5002 93.355 62.5087 92.1079C61.5173 90.8608 60.1535 89.5374 60.1285 87.8725C60.1223 87.1181 58.9999 87.1243 58.9625 87.8725V87.8663Z" fill="#231F20"/>
<path d="M82.3503 126.203C83.8592 126.203 83.8655 123.852 82.3503 123.852C80.8351 123.852 80.8351 126.203 82.3503 126.203Z" fill="#231F20"/>
<path d="M82.7053 133.424C84.2142 133.424 84.2205 131.073 82.7053 131.073C81.19 131.073 81.19 133.424 82.7053 133.424Z" fill="#231F20"/>
<path d="M58.9051 72.0362C61.8981 69.0556 65.5333 66.8982 69.3244 65.1398C79.1764 60.6066 90.3128 59.5217 101.013 60.3572C109.175 61.1616 117.823 62.3151 124.894 66.7672C126.322 67.6464 127.682 68.6192 128.966 69.7041C130.263 70.8888 131.816 72.1609 132.009 74.0689L130.762 74.125C130.712 73.6013 130.269 72.9465 129.764 72.3978C128.143 70.6893 126.11 69.3362 124.071 68.1515C121.297 66.5739 118.31 65.358 115.217 64.5474C112.093 63.7368 108.863 63.3939 105.683 62.8576C94.5342 61.5045 82.8927 62.0844 72.2863 65.9192C69.6986 66.8857 67.0547 68.1141 64.6603 69.4796C62.9892 70.4898 61.2122 71.6371 59.7905 72.9091L58.8926 72.0424L58.9051 72.0362Z" fill="#231F20"/>
<path d="M73.7207 95.2693C73.7207 95.2693 84.1089 91.8149 106.232 92.9123L73.7207 95.2693Z" fill="white"/>
<path d="M73.7207 95.2693C73.7207 95.2693 84.1089 91.8149 106.232 92.9123" stroke="#231F20" stroke-width="1.24708" stroke-miterlimit="10"/>
<path d="M66.9923 67.2474C66.9923 67.2474 66.4373 82.5241 70.2347 93.698L66.9923 67.2474Z" fill="white"/>
<path d="M66.9923 67.2474C66.9923 67.2474 66.4373 82.5241 70.2347 93.698" stroke="#231F20" stroke-width="1.24708" stroke-miterlimit="10"/>
<path d="M111.788 62.708C111.788 62.708 109.661 83.9458 111.201 92.6941L111.788 62.708Z" fill="white"/>
<path d="M111.788 62.708C111.788 62.708 109.661 83.9458 111.201 92.6941" stroke="#231F20" stroke-width="1.24708" stroke-miterlimit="10"/>
<path d="M71.3226 50.1407C70.2933 50.6699 91.4438 41.7325 121.2 51.2916" stroke="#231F20" stroke-width="1.24708" stroke-miterlimit="10"/>
<path d="M95.5693 42.7671C95.5693 42.7671 111.894 12.6999 146.513 21.7038C150.404 22.714 154.07 24.5035 157.206 27.0164C162.176 30.9946 167.102 37.2674 155.972 41.3454C148.477 44.089 140.134 43.559 132.994 39.9861C126.466 36.7187 116.87 33.4763 109.543 37.573L100.184 43.1038L95.5756 42.7608L95.5693 42.7671Z" fill="white"/>
<path d="M95.0266 43.0664C94.8458 42.6549 95.1389 42.2621 95.3072 41.9253C101.493 30.8512 112.037 22.1528 124.52 19.1661C133.792 17.0024 144.835 17.813 153.484 21.9221C165.113 27.7897 171.554 39.0945 155.248 44.1514C148.346 46.2777 140.72 45.8225 134.141 42.9729C128.804 40.354 123.186 37.5107 117.169 37.361C114.176 37.2924 111.575 37.8848 108.894 39.4125C106.051 40.884 103.189 42.3431 100.296 43.7461C98.5309 43.6401 96.679 43.3595 95.0204 43.0727L95.0266 43.0664ZM96.1241 42.4678C97.5894 42.4179 98.8739 42.3681 100.233 42.4865L99.8716 42.5738C102.441 40.7593 105.047 38.9947 107.66 37.2488C108.882 36.3821 110.497 35.4779 112.099 34.9105C115.335 33.8255 118.821 33.757 122.157 34.2308C126.989 34.9043 131.454 36.8747 135.862 38.8201C142.572 41.4452 150.285 41.333 156.813 38.3961C158.416 37.5855 159.862 36.8248 160.286 35.3407C160.467 33.8006 159.407 32.5036 158.229 31.1443C157.306 30.1404 156.184 29.1739 155.049 28.3072C151.563 25.5948 147.454 24.0671 143.133 23.1755C137.272 21.9471 131.205 21.6228 125.318 22.8263C113.515 25.0648 103.214 32.8341 96.4296 42.5988L96.2737 42.8357L96.1989 42.9542C96.1989 42.9542 96.1553 43.0602 96.2176 42.8731C96.255 42.7359 96.2051 42.5551 96.1241 42.4678Z" fill="#231F20"/>
<path d="M168.666 125.255C168.666 125.255 176.978 132.994 171.26 139.522C165.542 146.05 161.14 145.62 155.909 142.116" fill="white"/>
<path d="M169.091 124.8C173.543 127.563 176.249 134.353 173.044 139.061C170.051 143.251 164.639 147.192 159.351 144.835C157.948 144.273 156.707 143.494 155.554 142.634L156.246 141.598C157.431 142.291 158.646 142.92 159.894 143.313C163.822 144.716 167.432 142.203 169.914 139.298C170.799 138.35 171.479 137.396 171.822 136.186C172.913 132.339 170.076 128.903 168.243 125.704L169.091 124.794V124.8Z" fill="#231F20"/>
<path d="M167.065 117.118L167.632 117.505C169.384 118.696 170.145 120.884 169.515 122.911C168.106 127.438 164.228 135.637 153.646 143.993C151.42 145.751 148.128 145.246 146.619 142.839C146.6 142.814 146.588 142.789 146.569 142.758C146.569 142.758 164.016 132.8 167.065 117.118Z" stroke="#231F20" stroke-width="1.24708" stroke-miterlimit="10"/>
<path d="M33.4275 76.9559C33.4275 76.9559 26.5685 66.9232 17.4149 77.7042C8.26135 88.4852 19.1609 97.115 23.245 94.7082" fill="white"/>
<path d="M32.9096 77.305C29.3804 72.7594 24.23 72.1546 20.0023 76.2138C16.3609 79.45 13.2307 84.7127 15.438 89.5639C16.629 92.1703 19.8652 95.2817 22.9268 94.1656L23.5628 95.2381C21.7296 96.3231 19.41 95.6309 17.7451 94.5834C14.3967 92.5319 12.4762 88.4041 13.1247 84.5194C13.7357 80.6909 16.1301 77.5233 18.9111 74.9917C21.6797 72.3728 26.0881 70.9262 29.6485 72.8717C31.3882 73.7633 32.7974 75.0353 33.9323 76.6067L32.9034 77.3113L32.9096 77.305Z" fill="#231F20"/>
<path d="M39.806 76.1827C37.7608 74.8982 35.1107 75.2287 33.4272 76.9559C29.5612 80.9279 23.3445 88.6099 22.9579 97.2584C22.8457 99.8087 24.7163 102.029 27.2416 102.434H27.2791C27.2791 102.434 28.4576 87.5249 39.806 76.1827Z" fill="white" stroke="#231F20" stroke-width="1.24708" stroke-miterlimit="10"/>
<path d="M79.0517 164.775C79.0517 164.775 64.2675 167.182 53.5176 178.768C50.8489 181.642 53.0001 185.571 57.6891 186.5C63.5941 187.666 73.764 188.289 91.0798 186.419C94.1039 186.094 96.8288 184.716 98.4189 182.621C100.869 179.385 101.805 173.125 95.0891 164.707" fill="white"/>
<path d="M79.1512 165.393C71.6375 167.407 64.498 171.017 58.512 175.987C57.1901 177.147 55.8245 178.444 54.6149 179.716C52.9063 181.424 54.2407 183.638 56.2111 184.498C57.8635 185.265 60.0833 185.433 61.9602 185.695C64.0241 185.932 66.113 186.057 68.2081 186.144C72.3983 186.294 76.6196 186.2 80.8348 185.97C82.9423 185.87 85.0561 185.726 87.1637 185.564C89.184 185.352 91.2853 185.377 93.2245 184.791C99.7717 182.908 100.489 175.862 97.8013 170.419C96.9471 168.554 95.8434 166.783 94.6026 165.1L95.5753 164.32C98.3688 167.687 100.801 171.61 101.156 176.124C101.667 181.056 98.6743 185.527 93.9354 186.986C91.8091 187.703 89.5831 187.753 87.3944 188.034C85.2682 188.258 83.1356 188.458 81.0031 188.62C74.5806 189.056 68.0771 189.243 61.6422 188.557C59.3413 188.239 57.1901 188.14 54.9578 187.123C51.2415 185.502 49.3646 181 52.501 177.751C56.4668 173.599 61.2867 170.207 66.4996 167.868C70.4715 166.079 74.6118 164.763 78.9454 164.164L79.145 165.393H79.1512Z" fill="#231F20"/>
<path d="M102.927 164.701C102.927 164.701 92.77 177.683 98.4442 183.931C102.098 187.952 120.405 187.497 132.97 186.662C139.847 186.207 143.489 179.865 139.467 175.344C136.056 171.516 130.108 166.615 121.453 162.992" fill="white"/>
<path d="M103.42 165.087C100.402 169.521 94.902 178.693 99.3915 183.388C103.775 186.662 118.216 185.951 124.053 185.851C126.017 185.776 127.981 185.677 129.945 185.558L132.888 185.365C135.37 185.19 138.007 183.956 139.211 181.786C140.221 180.027 139.934 177.845 138.637 176.336C135.202 172.314 130.899 169.084 126.378 166.347C124.707 165.349 122.974 164.445 121.222 163.584L121.702 162.431C128.318 164.844 134.541 168.535 139.51 173.567C143.457 177.134 143.432 182.316 139.279 185.701C137.496 187.111 135.283 187.815 133.057 187.984L130.082 188.152C128.099 188.258 126.117 188.339 124.127 188.401C118.154 188.545 112.13 188.613 106.176 187.784C101.886 187.098 96.9472 186.288 95.9433 181.187C95.1514 176.872 97.0595 172.919 99.0299 169.315C100.04 167.563 101.162 165.917 102.428 164.326L103.413 165.093L103.42 165.087Z" fill="#231F20"/>
<path d="M73.7207 150.428L78.1603 165.206H95.5758L94.0482 152.155C94.0482 152.155 85.038 152.236 73.7207 150.428Z" fill="white" stroke="#231F20" stroke-width="1.24708" stroke-miterlimit="10"/>
<path d="M96.5732 152.161L102.441 165.206L121.864 163.491L120.43 146.749L110.64 153.234L103.488 151.644L96.5732 152.161Z" fill="white" stroke="#231F20" stroke-width="1.24708" stroke-miterlimit="10"/>
<path d="M174.703 158.297C180.289 158.297 184.817 153.769 184.817 148.183C184.817 142.597 180.289 138.069 174.703 138.069C169.117 138.069 164.589 142.597 164.589 148.183C164.589 153.769 169.117 158.297 174.703 158.297Z" stroke="#231F20" stroke-width="3.74125" stroke-miterlimit="10"/>
<path d="M190.302 135.4L159.304 161.318C157.798 162.577 157.598 164.818 158.857 166.324L170.901 180.728C172.16 182.234 174.401 182.434 175.907 181.175L206.905 155.256C208.411 153.997 208.611 151.756 207.352 150.25L195.308 135.847C194.049 134.341 191.808 134.141 190.302 135.4Z" fill="#FFFCE1"/>
<path d="M190.847 136.061C180.602 144.111 170.376 152.922 160.555 161.521L160.144 161.882C159.171 162.605 158.766 164.008 159.352 165.093C159.558 165.561 160.936 166.97 161.279 167.407C164.072 170.587 168.986 176.199 171.779 179.397C171.854 179.472 172.054 179.728 172.122 179.778C172.808 180.545 174.117 180.601 174.841 179.903C179.274 176.062 183.726 172.258 188.216 168.479C193.765 163.778 199.514 159.076 205.207 154.531L205.637 154.188L205.856 154.019L205.974 153.92C206.691 153.315 206.835 152.192 206.342 151.394C203.193 147.335 199.764 143.001 196.565 138.998C196.128 138.462 194.95 136.959 194.52 136.442C193.659 135.363 191.951 135.17 190.853 136.068L190.847 136.061ZM189.756 134.758C191.471 133.187 194.439 133.361 195.985 135.145C196.44 135.662 197.706 137.096 198.18 137.639C200.107 139.846 202.046 142.047 203.998 144.236L206.916 147.528C207.252 147.927 208.518 149.293 208.818 149.723C209.89 151.238 210.033 153.315 209.173 154.967C208.842 155.647 208.312 156.227 207.745 156.713C202.127 161.639 196.347 166.577 190.591 171.323C186.083 175.064 181.544 178.78 176.979 182.459C174.903 184.211 171.524 183.931 169.803 181.823C168.375 180.065 163.717 174.21 162.227 172.351C161.335 171.223 158.99 168.28 158.124 167.189C156.44 165.312 156.677 162.125 158.697 160.579C158.809 160.485 159.221 160.167 159.34 160.068C169.547 151.924 180.016 143.425 189.762 134.764L189.756 134.758Z" fill="#231F20"/>
<path d="M70.5805 93.8144C67.8935 86.5209 67.2217 73.5013 67.2217 67.9032C79.5055 59.458 102.41 60.8655 112.326 62.6249C110.023 71.0701 110.727 85.9771 111.367 92.3749L106.089 93.3346C93.4208 91.7991 79.0577 93.9744 73.4596 95.2539L70.5805 93.8144Z" fill="#5BC3C8" stroke="black" stroke-width="0.959676"/>
<path d="M86.7824 81.288L87.0216 74.3697C87.0355 73.9659 87.4788 73.7261 87.8244 73.9355L94.2734 77.842C94.6379 78.0628 94.6051 78.602 94.2165 78.777L87.5284 81.7887C87.1711 81.9496 86.7689 81.6797 86.7824 81.288Z" fill="white" stroke="black" stroke-width="0.529072"/>
</g>
<defs>
<linearGradient id="paint0_linear_810_386" x1="113.196" y1="12.659" x2="113.196" y2="184.424" gradientUnits="userSpaceOnUse">
<stop stop-color="#009490"/>
<stop offset="1" stop-color="#009490" stop-opacity="0"/>
</linearGradient>
<clipPath id="clip0_810_386">
<rect width="196.734" height="171" fill="white" transform="translate(13 18)"/>
</clipPath>
</defs>
</svg>
