<svg viewBox="0 0 250 100" fill="none" xmlns="http://www.w3.org/2000/svg">
<rect width="250" height="100" rx="13.1579" fill="#3EAAAF" fill-opacity="0.08"/>
<rect opacity="0.6" x="86.8421" y="29.579" width="138.158" height="14.4737" rx="6.57895" fill="#3EAAAF" fill-opacity="0.5"/>
<rect opacity="0.3" x="86.8421" y="55.8948" width="46.0526" height="14.4737" rx="6.57895" fill="#3EAAAF" fill-opacity="0.5"/>
<g clip-path="url(#clip0_1_2)">
<path d="M51.9737 76.9474C59.1276 76.9474 65.9884 74.1055 71.047 69.047C76.1055 63.9884 78.9474 57.1276 78.9474 49.9737C78.9474 42.8198 76.1055 35.959 71.047 30.9004C65.9884 25.8419 59.1276 23 51.9737 23C44.8198 23 37.959 25.8419 32.9004 30.9004C27.8419 35.959 25 42.8198 25 49.9737C25 57.1276 27.8419 63.9884 32.9004 69.047C37.959 74.1055 44.8198 76.9474 51.9737 76.9474V76.9474ZM48.602 44.9161C48.602 47.7079 47.0914 49.9737 45.2303 49.9737C43.3691 49.9737 41.8586 47.7079 41.8586 44.9161C41.8586 42.1243 43.3691 39.8586 45.2303 39.8586C47.0914 39.8586 48.602 42.1243 48.602 44.9161ZM39.4478 64.9205C39.0606 64.6969 38.7781 64.3287 38.6623 63.8968C38.5466 63.465 38.6072 63.0048 38.8308 62.6176C40.1622 60.3102 42.0779 58.3941 44.3851 57.0624C46.6923 55.7306 49.3097 55.03 51.9737 55.0313C54.6376 55.0307 57.2546 55.7316 59.5617 57.0633C61.8688 58.395 63.7847 60.3106 65.1166 62.6176C65.3366 63.0046 65.3947 63.4629 65.278 63.8926C65.1614 64.3222 64.8796 64.6882 64.494 64.9108C64.1085 65.1334 63.6506 65.1945 63.2202 65.0807C62.7898 64.9669 62.4219 64.6875 62.1967 64.3035C61.1612 62.5086 59.6711 61.0182 57.8764 59.9823C56.0818 58.9465 54.0458 58.4017 51.9737 58.403C49.9015 58.4017 47.8656 58.9465 46.0709 59.9823C44.2762 61.0182 42.7861 62.5086 41.7507 64.3035C41.5271 64.6906 41.1589 64.9732 40.727 65.0889C40.2951 65.2046 39.835 65.144 39.4478 64.9205ZM58.7171 49.9737C56.8559 49.9737 55.3454 47.7079 55.3454 44.9161C55.3454 42.1243 56.8559 39.8586 58.7171 39.8586C60.5783 39.8586 62.0888 42.1243 62.0888 44.9161C62.0888 47.7079 60.5783 49.9737 58.7171 49.9737Z" fill="#3EAAAF" fill-opacity="0.5"/>
</g>
<defs>
<clipPath id="clip0_1_2">
<rect width="53.9474" height="53.9474" fill="white" transform="translate(25 23)"/>
</clipPath>
</defs>
</svg>
