<svg width="480" height="201" viewBox="0 0 480 201" fill="none" xmlns="http://www.w3.org/2000/svg">
<g clip-path="url(#clip0_2300_19027)">
<path d="M0 7.1117C0 3.24571 3.13401 0.111694 7 0.111694H473C476.866 0.111694 480 3.2457 480 7.11169V193.112C480 196.978 476.866 200.112 473 200.112H7.00001C3.13401 200.112 0 196.978 0 193.112V7.1117Z" fill="#EAE4FF" fill-opacity="0.2"/>
<path d="M14 20.1117C14 16.2457 17.134 13.1117 21 13.1117H137C140.866 13.1117 144 16.2457 144 20.1117V106.112C144 109.978 140.866 113.112 137 113.112H21C17.134 113.112 14 109.978 14 106.112V20.1117Z" fill="white"/>
<path d="M32 97.1117V66.5276C32 65.9753 31.5523 65.5276 31 65.5276C30.4477 65.5276 30 65.9753 30 66.5276V97.1117C30 97.664 30.4477 98.1117 31 98.1117C31.5523 98.1117 32 97.664 32 97.1117Z" fill="#E0DFFF"/>
<path d="M44 97.1117V66.5276C44 65.9753 43.5523 65.5276 43 65.5276C42.4477 65.5276 42 65.9753 42 66.5276V97.1117C42 97.664 42.4477 98.1117 43 98.1117C43.5523 98.1117 44 97.664 44 97.1117Z" fill="#E0DFFF"/>
<path d="M56 97.1117V31.1505C56 30.5982 55.5523 30.1505 55 30.1505C54.4477 30.1505 54 30.5982 54 31.1505V97.1117C54 97.664 54.4477 98.1117 55 98.1117C55.5523 98.1117 56 97.664 56 97.1117Z" fill="#E0DFFF"/>
<path d="M68 97.1117V66.5276C68 65.9753 67.5523 65.5276 67 65.5276C66.4477 65.5276 66 65.9753 66 66.5276V97.1117C66 97.664 66.4477 98.1117 67 98.1117C67.5523 98.1117 68 97.664 68 97.1117Z" fill="#E0DFFF"/>
<path d="M80 97.1117V40.0703C80 39.518 79.5523 39.0703 79 39.0703C78.4477 39.0703 78 39.518 78 40.0703V97.1117C78 97.664 78.4477 98.1117 79 98.1117C79.5523 98.1117 80 97.664 80 97.1117Z" fill="#E0DFFF"/>
<path d="M92 97.1117V57.6631C92 57.1108 91.5523 56.6631 91 56.6631C90.4477 56.6631 90 57.1108 90 57.6631V97.1117C90 97.664 90.4477 98.1117 91 98.1117C91.5523 98.1117 92 97.664 92 97.1117Z" fill="#E0DFFF"/>
<path d="M104 97.1117V73.9753C104 73.4231 103.552 72.9753 103 72.9753C102.448 72.9753 102 73.4231 102 73.9753V97.1117C102 97.6639 102.448 98.1117 103 98.1117C103.552 98.1117 104 97.6639 104 97.1117Z" fill="#E0DFFF"/>
<path d="M116 97.1117V73.9753C116 73.4231 115.552 72.9753 115 72.9753C114.448 72.9753 114 73.4231 114 73.9753V97.1117C114 97.6639 114.448 98.1117 115 98.1117C115.552 98.1117 116 97.6639 116 97.1117Z" fill="#E0DFFF"/>
<path d="M128 97.1117V73.9753C128 73.4231 127.552 72.9753 127 72.9753C126.448 72.9753 126 73.4231 126 73.9753V97.1117C126 97.6639 126.448 98.1117 127 98.1117C127.552 98.1117 128 97.6639 128 97.1117Z" fill="#E0DFFF"/>
<g clip-path="url(#clip1_2300_19027)">
<path d="M14 135.112C14 131.246 17.134 128.112 21 128.112H452C455.866 128.112 459 131.246 459 135.112V221.112C459 224.978 455.866 228.112 452 228.112H21C17.134 228.112 14 224.978 14 221.112V135.112Z" fill="white"/>
<path opacity="0.4" d="M26.4255 197.101C52.6755 197.101 52.6755 174.29 78.9255 174.29C105.176 174.29 105.176 201.904 131.426 201.904C157.676 201.904 157.676 170.088 183.926 170.088C210.176 170.088 210.176 188.097 236.426 188.097C262.676 188.097 262.676 182.094 288.926 182.094C315.176 182.094 315.176 158.082 341.426 158.082C367.676 158.082 367.676 170.088 393.926 170.088C420.176 170.088 420.176 194.1 446.426 194.1" stroke="#E0DFFF" stroke-width="2" stroke-dasharray="4 4"/>
<path d="M26.4255 170.088C52.6755 170.088 52.6755 188.097 78.9255 188.097C105.176 188.097 105.176 182.094 131.426 182.094C157.676 182.094 157.676 158.082 183.926 158.082C210.176 158.082 210.176 170.088 236.426 170.088C262.676 170.088 262.676 191.098 288.926 191.098C315.176 191.098 315.176 174.29 341.426 174.29C367.676 174.29 387.676 191.904 413.926 191.904C440.176 191.904 440.176 208.112 466.426 208.112" stroke="#E0DFFF" stroke-width="2"/>
</g>
<path d="M171.5 20.1117C171.5 16.2457 174.634 13.1117 178.5 13.1117H294.5C298.366 13.1117 301.5 16.2457 301.5 20.1117V106.112C301.5 109.978 298.366 113.112 294.5 113.112H178.5C174.634 113.112 171.5 109.978 171.5 106.112V20.1117Z" fill="white"/>
<path d="M193.995 73.7602C197.687 63.0849 207.611 47.2704 219.167 48.1466C230.722 49.0228 242.278 77.5007 253.833 78.3769C262.685 79.0481 274.927 66.4797 282.768 58.6905C285.082 56.3924 288.5 57.9545 288.5 61.2153V92.1208C288.5 94.3299 286.709 96.1208 284.5 96.1208H190.544C187.678 96.1208 185.742 93.1953 186.862 90.5574L193.995 73.7602Z" fill="#CDCCFF" fill-opacity="0.1" stroke="#E0DFFF" stroke-width="2"/>
<path d="M329 20.1117C329 16.2457 332.134 13.1117 336 13.1117H452C455.866 13.1117 459 16.2457 459 20.1117V106.112C459 109.978 455.866 113.112 452 113.112H336C332.134 113.112 329 109.978 329 106.112V20.1117Z" fill="white"/>
<path d="M393.538 63.4202L427.562 51.6571C429.164 56.2918 429.803 61.205 429.438 66.0953C429.074 70.9856 427.714 75.7499 425.442 80.096C423.171 84.442 420.035 88.2781 416.228 91.369C412.421 94.4599 408.023 96.7404 403.303 98.0705L393.538 63.4202Z" fill="#E0DFFF" fill-opacity="0.1" stroke="#E0DFFF" stroke-width="2"/>
<path d="M393.538 63.4201L403.303 98.0705C398.379 99.4581 393.216 99.7803 388.158 99.0158C383.1 98.2513 378.262 96.4176 373.969 93.6368C369.675 90.856 366.023 87.1921 363.256 82.8891C360.49 78.5861 358.672 73.7429 357.924 68.6823C357.177 63.6216 357.516 58.4597 358.92 53.5405C360.324 48.6213 362.76 44.0578 366.066 40.1541C369.372 36.2504 373.472 33.0961 378.093 30.9014C382.714 28.7067 387.75 27.5221 392.864 27.4264L393.538 63.4201Z" stroke="#E0DFFF" stroke-width="2"/>
<path d="M393.538 63.4201L392.864 27.4264C400.465 27.2842 407.916 29.552 414.149 33.9048C420.383 38.2576 425.078 44.4719 427.562 51.657L393.538 63.4201Z" fill="#E0DFFF" fill-opacity="0.3" stroke="#E0DFFF" stroke-width="2"/>
<path d="M399.419 80.4321C408.815 77.1839 413.798 66.9341 410.55 57.5386C407.301 48.1432 397.052 43.1599 387.656 46.4082C378.261 49.6565 373.277 59.9063 376.526 69.3017C379.774 78.6972 390.024 83.6804 399.419 80.4321Z" fill="white" stroke="#E0DFFF" stroke-width="2"/>
</g>
<defs>
<clipPath id="clip0_2300_19027">
<path d="M0 7.1117C0 3.24571 3.13401 0.111694 7 0.111694H473C476.866 0.111694 480 3.2457 480 7.11169V193.112C480 196.978 476.866 200.112 473 200.112H7.00001C3.13401 200.112 0 196.978 0 193.112V7.1117Z" fill="white"/>
</clipPath>
<clipPath id="clip1_2300_19027">
<path d="M14 135.112C14 131.246 17.134 128.112 21 128.112H452C455.866 128.112 459 131.246 459 135.112V221.112C459 224.978 455.866 228.112 452 228.112H21C17.134 228.112 14 224.978 14 221.112V135.112Z" fill="white"/>
</clipPath>
</defs>
</svg>
