<svg xmlns="http://www.w3.org/2000/svg" fill="none" viewBox="1.5 1.61 170 109">
<path d="M166.5 1.61169H6.5C3.73858 1.61169 1.5 3.85027 1.5 6.61169V105.612C1.5 108.373 3.73858 110.612 6.5 110.612H166.5C169.261 110.612 171.5 108.373 171.5 105.612V6.61169C171.5 3.85027 169.261 1.61169 166.5 1.61169Z" fill="#E2E4F6"/>
<path d="M158.5 10.6117H127.5C126.119 10.6117 125 11.731 125 13.1117V27.1117C125 28.4924 126.119 29.6117 127.5 29.6117H158.5C159.881 29.6117 161 28.4924 161 27.1117V13.1117C161 11.731 159.881 10.6117 158.5 10.6117Z" fill="white"/>
<path d="M143 21.5191C144.597 21.5191 145.892 20.2243 145.892 18.6271C145.892 17.0299 144.597 15.7352 143 15.7352C141.403 15.7352 140.108 17.0299 140.108 18.6271C140.108 20.2243 141.403 21.5191 143 21.5191Z" stroke="#A6ADED" stroke-width="1.15678" stroke-linecap="round" stroke-linejoin="round"/>
<path d="M147.627 26.1462C147.627 24.919 147.14 23.7421 146.272 22.8744C145.404 22.0066 144.227 21.5191 143 21.5191C141.773 21.5191 140.596 22.0066 139.728 22.8744C138.86 23.7421 138.373 24.919 138.373 26.1462" stroke="#A6ADED" stroke-width="1.15678" stroke-linecap="round" stroke-linejoin="round"/>
<path d="M158.5 34.6117H127.5C126.119 34.6117 125 35.731 125 37.1117V51.1117C125 52.4924 126.119 53.6117 127.5 53.6117H158.5C159.881 53.6117 161 52.4924 161 51.1117V37.1117C161 35.731 159.881 34.6117 158.5 34.6117Z" fill="#E3F7E8"/>
<path d="M148.854 39.7577C148.901 39.8042 148.938 39.8593 148.963 39.9201C148.988 39.9808 149.001 40.046 149.001 40.1117C149.001 40.1775 148.988 40.2426 148.963 40.3034C148.938 40.3641 148.901 40.4193 148.854 40.4657L141.854 47.4657C141.808 47.5123 141.753 47.5492 141.692 47.5744C141.631 47.5996 141.566 47.6126 141.5 47.6126C141.434 47.6126 141.369 47.5996 141.309 47.5744C141.248 47.5492 141.193 47.5123 141.146 47.4657L137.646 43.9657C137.552 43.8718 137.5 43.7445 137.5 43.6117C137.5 43.4789 137.552 43.3516 137.646 43.2577C137.74 43.1638 137.867 43.1111 138 43.1111C138.133 43.1111 138.26 43.1638 138.354 43.2577L141.5 46.4047L148.146 39.7577C148.193 39.7112 148.248 39.6742 148.309 39.649C148.369 39.6238 148.434 39.6108 148.5 39.6108C148.566 39.6108 148.631 39.6238 148.692 39.649C148.753 39.6742 148.808 39.7112 148.854 39.7577Z" fill="#42AE5E"/>
<path d="M158.5 58.6117H127.5C126.119 58.6117 125 59.731 125 61.1117V75.1117C125 76.4924 126.119 77.6117 127.5 77.6117H158.5C159.881 77.6117 161 76.4924 161 75.1117V61.1117C161 59.731 159.881 58.6117 158.5 58.6117Z" fill="#E3F7E8"/>
<path d="M148.854 63.7577C148.901 63.8042 148.938 63.8593 148.963 63.9201C148.988 63.9808 149.001 64.046 149.001 64.1117C149.001 64.1775 148.988 64.2426 148.963 64.3034C148.938 64.3641 148.901 64.4193 148.854 64.4657L141.854 71.4657C141.808 71.5123 141.753 71.5492 141.692 71.5744C141.631 71.5996 141.566 71.6126 141.5 71.6126C141.434 71.6126 141.369 71.5996 141.309 71.5744C141.248 71.5492 141.193 71.5123 141.146 71.4657L137.646 67.9657C137.552 67.8718 137.5 67.7445 137.5 67.6117C137.5 67.4789 137.552 67.3516 137.646 67.2577C137.74 67.1638 137.867 67.1111 138 67.1111C138.133 67.1111 138.26 67.1638 138.354 67.2577L141.5 70.4047L148.146 63.7577C148.193 63.7112 148.248 63.6742 148.309 63.649C148.369 63.6238 148.434 63.6108 148.5 63.6108C148.566 63.6108 148.631 63.6238 148.692 63.649C148.753 63.6742 148.808 63.7112 148.854 63.7577Z" fill="#42AE5E"/>
<path d="M158.5 82.6117H127.5C126.119 82.6117 125 83.731 125 85.1117V99.1117C125 100.492 126.119 101.612 127.5 101.612H158.5C159.881 101.612 161 100.492 161 99.1117V85.1117C161 83.731 159.881 82.6117 158.5 82.6117Z" fill="#FCECEC"/>
<path d="M139.646 88.7577C139.692 88.7112 139.748 88.6742 139.808 88.649C139.869 88.6238 139.934 88.6108 140 88.6108C140.066 88.6108 140.131 88.6238 140.192 88.649C140.252 88.6742 140.307 88.7112 140.354 88.7577L143 91.4047L145.646 88.7577C145.692 88.7112 145.748 88.6744 145.808 88.6492C145.869 88.624 145.934 88.6111 146 88.6111C146.066 88.6111 146.131 88.624 146.192 88.6492C146.252 88.6744 146.307 88.7112 146.354 88.7577C146.4 88.8042 146.437 88.8594 146.462 88.9201C146.488 88.9809 146.501 89.046 146.501 89.1117C146.501 89.1775 146.488 89.2426 146.462 89.3033C146.437 89.364 146.4 89.4192 146.354 89.4657L143.707 92.1117L146.354 94.7577C146.4 94.8042 146.437 94.8594 146.462 94.9201C146.488 94.9809 146.501 95.046 146.501 95.1117C146.501 95.1775 146.488 95.2426 146.462 95.3033C146.437 95.364 146.4 95.4192 146.354 95.4657C146.307 95.5122 146.252 95.5491 146.192 95.5742C146.131 95.5994 146.066 95.6123 146 95.6123C145.934 95.6123 145.869 95.5994 145.808 95.5742C145.748 95.5491 145.692 95.5122 145.646 95.4657L143 92.8187L140.354 95.4657C140.307 95.5122 140.252 95.5491 140.192 95.5742C140.131 95.5994 140.066 95.6123 140 95.6123C139.934 95.6123 139.869 95.5994 139.808 95.5742C139.748 95.5491 139.692 95.5122 139.646 95.4657C139.599 95.4192 139.563 95.364 139.537 95.3033C139.512 95.2426 139.499 95.1775 139.499 95.1117C139.499 95.046 139.512 94.9809 139.537 94.9201C139.563 94.8594 139.599 94.8042 139.646 94.7577L142.293 92.1117L139.646 89.4657C139.599 89.4193 139.562 89.3641 139.537 89.3034C139.512 89.2426 139.499 89.1775 139.499 89.1117C139.499 89.046 139.512 88.9808 139.537 88.9201C139.562 88.8593 139.599 88.8042 139.646 88.7577Z" fill="#CC0000"/>
<path opacity="0.6" d="M112.5 10.6117H16.5C14.2909 10.6117 12.5 12.4026 12.5 14.6117V64.6117C12.5 66.8208 14.2909 68.6117 16.5 68.6117H112.5C114.709 68.6117 116.5 66.8208 116.5 64.6117V14.6117C116.5 12.4026 114.709 10.6117 112.5 10.6117Z" fill="white"/>
<g opacity="0.56">
<path opacity="0.7" d="M112.5 71.6117H16.5C14.2909 71.6117 12.5 73.4026 12.5 75.6117V98.6117C12.5 100.821 14.2909 102.612 16.5 102.612H112.5C114.709 102.612 116.5 100.821 116.5 98.6117V75.6117C116.5 73.4026 114.709 71.6117 112.5 71.6117Z" fill="white"/>
</g>
</svg>