<svg xmlns="http://www.w3.org/2000/svg" viewBox="0 0 144 85">
  <g fill="none" fill-rule="evenodd" transform="translate(.4)">
    <path fill="#84C6BF" fill-rule="nonzero" d="M97.1493724,30.1131571 L86.1374977,19.0736837 C84.9562477,17.8894732 83.3549978,17.2184206 81.6881228,17.2184206 L54.8999985,17.2184206 C51.4218736,17.2315785 48.5999987,20.0605258 48.5999987,23.5473678 L48.5999987,78.2842085 C48.5999987,81.7710505 51.4218736,84.5999978 54.8999985,84.5999978 L92.6999975,84.5999978 C96.1781225,84.5999978 98.9999974,81.7710505 98.9999974,78.2842085 L98.9999974,34.5868412 C98.9999974,32.9157886 98.3306224,31.2973676 97.1493724,30.1131571 Z M94.1831225,33.0999991 C94.4587475,33.3763149 94.6424975,33.7052623 94.7343725,34.0736833 L82.1999978,34.0736833 L82.1999978,21.5078942 C82.5674978,21.5999994 82.8956228,21.7842099 83.1712478,22.0605257 L94.1831225,33.0999991 Z M92.6999975,80.3894716 L54.8999985,80.3894716 C53.7449986,80.3894716 52.7999986,79.4421047 52.7999986,78.2842085 L52.7999986,23.5473678 C52.7999986,22.3894731 53.7449986,21.4421047 54.8999985,21.4421047 L77.9999979,21.4421047 L77.9999979,35.1263149 C77.9999979,36.8763148 79.4043729,38.2842095 81.1499979,38.2842095 L94.7999986,38.2842095 L94.7999986,78.2842085 C94.7999986,79.4421047 93.8549975,80.3894716 92.6999975,80.3894716 Z M64.7999983,53.0999986 C66.2911671,53.0999986 67.4999982,51.8911674 67.4999982,50.3999987 C67.4999982,48.9088299 66.2911671,47.6999987 64.7999983,47.6999987 C63.3088295,47.6999987 62.0999984,48.9088299 62.0999984,50.3999987 C62.0999984,51.8911674 63.3088295,53.0999986 64.7999983,53.0999986 Z M80.9999979,53.0999986 C82.4911666,53.0999986 83.6999978,51.8911674 83.6999978,50.3999987 C83.6999978,48.9088299 82.4911666,47.6999987 80.9999979,47.6999987 C79.5088291,47.6999987 78.2999979,48.9088299 78.2999979,50.3999987 C78.2999979,51.8911674 79.5088291,53.0999986 80.9999979,53.0999986 Z M66.7655982,65.7575983 L68.6951982,65.7575983 C68.8679982,64.6055983 69.6455982,63.8855983 70.6535981,63.8855983 C72.3527981,63.8855983 73.3319981,65.7863983 75.491998,65.7863983 C77.6231979,65.7863983 79.0919979,64.4903983 79.5815979,61.5815984 L77.6231979,61.5815984 C77.4503979,62.7623983 76.672798,63.4535983 75.693598,63.4535983 C74.051998,63.4535983 73.0151981,61.5527984 70.8263981,61.5527984 C68.7239982,61.5527984 67.2839982,62.8775983 66.7655982,65.7575983 Z"/>
    <path fill="#84C6BF" d="M132.867258,12.9182731 C134.01558,13.5446164 134.946526,14.4494487 135.590636,15.5653091 C136.235633,16.6827045 136.593005,18.011709 136.593005,19.4845827 C136.593005,20.9574565 136.235633,22.2864609 135.590636,23.4038564 C134.945639,24.5212518 134.013018,25.4270382 132.862518,26.0534757 C131.712018,26.6799132 130.343639,27.0270018 128.827129,27.0270018 L102.940877,27.0270018 C101.424367,27.0270018 100.055989,26.6799132 98.9054888,26.0534757 C97.7549887,25.4270382 96.8223669,24.5212518 96.1773702,23.4038564 C95.5323734,22.2864609 95.1750017,20.9574565 95.1750017,19.4845827 C95.1750017,18.011709 95.5323734,16.6827045 96.1773702,15.5653091 C96.8223669,14.4479137 97.7549887,13.5421273 98.9054888,12.9156898 C99.2683615,12.7181087 99.6529088,12.5483171 100.056942,12.4084406 C100.003429,12.051015 99.9757248,11.6854641 99.9757248,11.3136287 C99.9757248,7.14806562 103.452626,3.77120956 107.7416,3.77120956 C109.970528,3.77120956 111.980134,4.68321502 113.396398,6.14396674 C114.967839,2.53351891 118.64829,-1.95399252e-14 122.938007,-1.95399252e-14 C128.65664,-1.95399252e-14 133.292508,4.50247475 133.292508,10.0565588 C133.292508,11.050757 133.143965,12.0112594 132.867258,12.9182731 L132.867258,12.9182731 Z" opacity=".294"/>
    <path fill="#84C6BF" d="M141.781706,20.0642526 C142.346135,20.3733571 142.803719,20.8198977 143.120316,21.370582 C143.437348,21.9220239 143.613005,22.5778963 143.613005,23.304769 C143.613005,24.0316418 143.437348,24.6875141 143.120316,25.238956 C142.803283,25.7903979 142.344876,26.2374094 141.779376,26.5465604 C141.213876,26.8557113 140.541283,27.0270018 139.79588,27.0270018 L127.072129,27.0270018 C126.326726,27.0270018 125.654133,26.8557113 125.088633,26.5465604 C124.523133,26.2374094 124.064726,25.7903979 123.747693,25.238956 C123.430661,24.6875141 123.255004,24.0316418 123.255004,23.304769 C123.255004,22.5778963 123.430661,21.9220239 123.747693,21.370582 C124.064726,20.8191401 124.523133,20.3721287 125.088633,20.0629777 C125.266994,19.9654701 125.456009,19.8816769 125.654602,19.812647 C125.628298,19.6362551 125.614681,19.4558533 125.614681,19.2723502 C125.614681,17.2166177 127.323666,15.5501173 129.431806,15.5501173 C130.527381,15.5501173 131.515153,16.000198 132.211283,16.7210884 C132.983686,14.939309 134.792722,13.6890009 136.901227,13.6890009 C139.71208,13.6890009 141.990727,15.9110015 141.990727,18.651978 C141.990727,19.1426213 141.917714,19.6166354 141.781706,20.0642526 L141.781706,20.0642526 Z" opacity=".294"/>
    <path fill="#42AE5E" d="M37.6922562,49.8182721 C38.8405778,50.4446154 39.7715238,51.3494477 40.4156344,52.4653081 C41.0606312,53.5827035 41.4180029,54.911708 41.4180029,56.3845817 C41.4180029,57.8574555 41.0606312,59.18646 40.4156344,60.3038554 C39.7706377,61.4212508 38.8380159,62.3270372 37.6875159,62.9534747 C36.5370158,63.5799122 35.1686374,63.9270009 33.6521274,63.9270009 L7.76587555,63.9270009 C6.24936553,63.9270009 4.88098713,63.5799122 3.73048705,62.9534747 C2.57998697,62.3270372 1.64736521,61.4212508 1.00236846,60.3038554 C0.357371722,59.18646 -1.17239551e-13,57.8574555 -1.17239551e-13,56.3845817 C-1.17239551e-13,54.911708 0.357371722,53.5827035 1.00236846,52.4653081 C1.64736521,51.3479127 2.57998697,50.4421263 3.73048705,49.8156888 C4.09335979,49.6181077 4.47790705,49.4483162 4.88194042,49.3084397 C4.82842732,48.9510141 4.80072306,48.5854631 4.80072306,48.2136277 C4.80072306,44.0480646 8.27762398,40.6712086 12.5665986,40.6712086 C14.795526,40.6712086 16.8051323,41.583214 18.2213963,43.0439658 C19.7928372,39.4335179 23.473288,36.899999 27.7630051,36.899999 C33.4816379,36.899999 38.1175058,41.4024738 38.1175058,46.9565578 C38.1175058,47.950756 37.9689628,48.9112584 37.6922562,49.8182721 L37.6922562,49.8182721 Z" opacity=".294"/>
  </g>
</svg>
