<?xml version="1.0" encoding="UTF-8"?>
<svg viewBox="0 0 179 30" version="1.1" xmlns="http://www.w3.org/2000/svg" xmlns:xlink="http://www.w3.org/1999/xlink">
    <title>Open Replay</title>
    <g id="logos" stroke="none" stroke-width="1" fill="none" fill-rule="evenodd">
        <g id="Open-Replay" fill-rule="nonzero">
            <g id="Group-Copy" transform="translate(0.000000, 0.000000)">
                <path d="M22.4262619,15 L3.29604084,3.77288564 L3.29604084,26.2271144 L22.4262619,15 Z M25.0367262,12.6792184 C25.8592781,13.1556443 26.3667376,14.0411275 26.3667376,15 C26.3667376,15.9588725 25.8592781,16.8443557 25.0367262,17.3207816 L4.06401836,29.6315942 C2.35007712,30.6386 0,29.4882126 0,27.3108127 L0,2.68918734 C0,0.511787376 2.35007712,-0.638600048 4.06401836,0.368405755 L25.0367262,12.6792184 Z" id="Combined-Shape" fill="#394EFF"></path>
                <path d="M13.7524069,14.3811249 C13.9742492,14.5081718 14.1111111,14.7443007 14.1111111,15 C14.1111111,15.2556993 13.9742492,15.4918282 13.7524069,15.6188751 L8.09606605,18.9017585 C7.63381597,19.1702933 7,18.8635234 7,18.2828834 L7,11.7171166 C7,11.1364766 7.63381597,10.8297067 8.09606605,11.0982415 L13.7524069,14.3811249 Z" id="Path-Copy" fill="#3EAAAF"></path>
                <path d="M60.0272706,8.76855581 C61.1027831,8.76855581 62.0909102,9.01047676 62.9916519,9.49431864 C63.8923936,9.97816052 64.6116426,10.7532035 65.1493989,11.8194477 C65.6871551,12.8856918 65.9560332,14.2968973 65.9560332,16.0530642 C65.9560332,17.7733908 65.6625079,19.2181965 65.0754574,20.387481 C64.4884068,21.5567656 63.6167936,22.439329 62.4606176,23.0351713 C61.3044417,23.6310136 59.8749063,23.9289348 58.1720116,23.9289348 C57.8403952,23.9289348 57.5065382,23.9154947 57.1704406,23.8886146 C56.8343429,23.8617345 56.5228924,23.8303744 56.2360891,23.7945343 L56.2360891,23.7945343 L56.2360891,29.5737568 L52.7003418,29.5737568 L52.7003418,8.9970367 L55.6848889,8.9970367 L55.8999914,10.5829629 L56.0747622,10.5829629 L56.2416557,10.3830421 C56.6440626,9.92832033 57.137391,9.55591888 57.7216407,9.26583775 C58.3893547,8.93431646 59.157898,8.76855581 60.0272706,8.76855581 Z M137.230204,8.76575595 C138.305716,8.76575595 139.293844,9.00767689 140.194585,9.49151877 C141.095327,9.97536066 141.814576,10.7504037 142.352332,11.8166478 C142.890088,12.882892 143.158967,14.2940975 143.158967,16.0502643 C143.158967,17.770591 142.865441,19.2153966 142.278391,20.3846812 C141.69134,21.5539657 140.819727,22.4365291 139.663551,23.0323715 C138.507375,23.6282138 137.07784,23.9261349 135.374945,23.9261349 C135.043329,23.9261349 134.709472,23.9126949 134.373374,23.8858148 C134.037276,23.8589347 133.725826,23.8275745 133.439022,23.7917344 L133.439022,23.7917344 L133.439022,29.5709569 L129.903275,29.5709569 L129.903275,8.99423684 L132.887822,8.99423684 L133.102925,10.580163 L133.277696,10.580163 L133.444589,10.3802422 C133.846996,9.92552046 134.340324,9.55311901 134.924574,9.26303788 C135.592288,8.93151659 136.360831,8.76575595 137.230204,8.76575595 Z M166.871915,8.99423684 L170.744603,20.5983309 L174.709713,8.99423684 L178.205128,8.99423684 L170.770648,29.5709569 L167.288676,29.5709569 L169.439701,23.6573339 L168.458296,23.6573339 L163.174841,8.99423684 L166.871915,8.99423684 Z M73.8289804,8.76855581 C75.1464832,8.76855581 76.2600867,9.05303692 77.169791,9.62199914 C78.0794954,10.1909613 78.7673752,11.0444047 79.2334306,12.1823291 C79.699486,13.3202535 79.9325138,14.735939 79.9325138,16.4293856 L79.9325138,16.4293856 L79.9325138,17.3836293 L70.8684595,17.3836406 L70.8703874,17.4241362 C70.9120884,18.2460949 71.0580419,18.9202753 71.308248,19.4466774 C71.6084952,20.0783598 72.0947165,20.5308416 72.7669118,20.8041226 C73.4391071,21.0774037 74.3398488,21.2140442 75.4691369,21.2140442 C76.033781,21.2140442 76.6253128,21.1692441 77.2437325,21.0796437 C77.8621522,20.9900434 78.4984971,20.8646029 79.1527672,20.7033222 L79.1527672,20.7033222 L79.1527672,23.4047728 L78.7056229,23.511218 C78.115525,23.6445433 77.5498055,23.7434621 77.0084642,23.8079743 C76.3317876,23.8886146 75.6573516,23.9289348 74.9851563,23.9289348 C73.2553737,23.9289348 71.8235977,23.6668538 70.6898283,23.1426917 C69.5560589,22.6185297 68.7113334,21.7964465 68.155652,20.6764421 C67.5999705,19.5564378 67.3221298,18.1049121 67.3221298,16.3218652 C67.3221298,14.6642588 67.5798046,13.2754533 68.0951544,12.155449 C68.6105041,11.0354446 69.3521596,10.1909613 70.3201209,9.62199914 C71.2880821,9.05303692 72.4577019,8.76855581 73.8289804,8.76855581 Z M122.084104,8.76575595 C123.401606,8.76575595 124.51521,9.05023706 125.424914,9.61919927 C126.334619,10.1881615 127.022498,11.0416048 127.488554,12.1795292 C127.954609,13.3174537 128.187637,14.7331392 128.187637,16.4265858 L128.187637,16.4265858 L128.187637,17.3808295 L119.123573,17.3808407 L119.125511,17.4213363 C119.167212,18.243295 119.313165,18.9174754 119.563371,19.4438775 C119.863618,20.0755599 120.34984,20.5280417 121.022035,20.8013228 C121.69423,21.0746038 122.594972,21.2112444 123.72426,21.2112444 C124.288904,21.2112444 124.880436,21.1664442 125.498856,21.0768438 C126.117275,20.9872435 126.75362,20.861803 127.40789,20.7005224 L127.40789,20.7005224 L127.40789,23.4019729 L126.960746,23.5084181 C126.370648,23.6417434 125.804929,23.7406622 125.263587,23.8051745 C124.586911,23.8858148 123.912475,23.9261349 123.24028,23.9261349 C121.510497,23.9261349 120.078721,23.6640539 118.944952,23.1398919 C117.811182,22.6157298 116.966457,21.7936466 116.410775,20.6736423 C115.855094,19.5536379 115.577253,18.1021123 115.577253,16.3190653 C115.577253,14.6614589 115.834928,13.2726535 116.350278,12.1526491 C116.865627,11.0326448 117.607283,10.1881615 118.575244,9.61919927 C119.543205,9.05023706 120.712825,8.76575595 122.084104,8.76575595 Z M41.6411889,3.51349537 C43.4516349,3.51349537 45.0290532,3.87637678 46.3734438,4.60213961 C47.7178345,5.32790243 48.7619778,6.44566678 49.505874,7.95543265 C50.2497701,9.46519853 50.6217182,11.384886 50.6217182,13.7144951 C50.6217182,16.0441041 50.2497701,17.9637916 49.505874,19.4735575 C48.7619778,20.9833233 47.7155938,22.1010877 46.3667219,22.8268505 C45.01785,23.5526133 43.4426723,23.9154947 41.6411889,23.9154947 C39.8397054,23.9154947 38.2667684,23.5526133 36.9223778,22.8268505 C35.5779872,22.1010877 34.5316032,20.9855633 33.7832257,19.4802775 C33.0348483,17.9749916 32.6606596,16.0530642 32.6606596,13.7144951 C32.6606596,11.375926 33.0348483,9.45399848 33.7832257,7.94871263 C34.5316032,6.44342677 35.5779872,5.32790243 36.9223778,4.60213961 C38.2667684,3.87637678 39.8397054,3.51349537 41.6411889,3.51349537 Z M156.054753,8.76575595 C157.497732,8.76575595 158.687518,8.94719666 159.62411,9.31007807 C160.560702,9.67295948 161.257544,10.2822418 161.714637,11.1379252 C162.17173,11.9936085 162.400276,13.156173 162.400276,14.6256187 L162.400276,14.6256187 L162.400276,23.6573339 L159.482949,23.6573339 L159.227515,22.138608 L159.052744,22.138608 L158.898637,22.332991 C158.475071,22.8360803 157.950592,23.2170477 157.325202,23.4758932 C156.621637,23.7670943 155.862057,23.9126949 155.04646,23.9126949 C153.585555,23.9126949 152.445064,23.5341334 151.624986,22.7770105 C150.804907,22.0198875 150.394868,21.0141236 150.394868,19.7597187 C150.394868,18.4157135 150.854202,17.3651494 151.772869,16.6080265 L151.772869,16.6080265 L151.80477,16.5820386 C152.725657,15.8404901 154.196094,15.3944309 156.21608,15.2438612 L156.21608,15.2438612 L158.94512,14.9840332 L158.945193,14.4105779 L158.940794,14.168574 C158.917337,13.538938 158.800048,13.0349637 158.588929,12.6566511 C158.35142,12.2310494 157.974991,11.9308883 157.459641,11.7561676 C156.944291,11.5814469 156.274337,11.4940866 155.449777,11.4940866 C154.894096,11.4940866 154.262232,11.5433668 153.554186,11.6419271 C152.84614,11.7404875 152.15602,11.8928081 151.483825,12.0988889 L151.483825,12.0988889 L151.483825,9.39743841 L151.905694,9.27970355 C152.478584,9.13060857 153.09306,9.01305291 153.749123,8.92703658 C154.569201,8.81951616 155.337744,8.76575595 156.054753,8.76575595 Z M89.4052857,8.76855581 C90.3553217,8.76855581 91.2000472,8.95223653 91.939462,9.31959796 C92.6788769,9.68695939 93.2592055,10.2760817 93.6804479,11.0869648 C94.1016903,11.897848 94.3123115,12.9797722 94.3123115,14.3327375 L94.3123115,14.3327375 L94.3123115,23.6601337 L90.7765641,23.6601337 L90.7765641,14.5343382 L90.7727458,14.3061755 C90.7421987,13.4154738 90.528369,12.7881653 90.1312566,12.42425 C89.7010516,12.0300085 89.1095198,11.8328877 88.356661,11.8328877 C87.9981569,11.8328877 87.6262088,11.8821679 87.2408168,11.9807283 C86.8554248,12.0792887 86.4834768,12.2360893 86.1249726,12.4511301 C85.7664684,12.666171 85.4527773,12.9484121 85.1838992,13.2978534 L85.1838992,13.2978534 L85.1838992,23.6601337 L81.6481519,23.6601337 L81.6481519,8.9970367 L84.5789234,8.9970367 L84.8209137,10.5426427 L84.9956845,10.5426427 L85.2118373,10.3339019 C85.7264868,9.86154007 86.3131873,9.49207863 86.9719387,9.22551759 C87.7247974,8.92087641 88.5359131,8.76855581 89.4052857,8.76855581 Z M105.92971,3.53757561 C108.708118,3.53757561 110.789682,4.04157757 112.174405,5.04958149 C113.559127,6.05758541 114.251488,7.62783152 114.251488,9.76031982 C114.251488,11.1401652 113.922113,12.2960097 113.263361,13.2278533 C112.60461,14.1596969 111.654574,14.8608197 110.413253,15.3312215 L110.413253,15.3312215 L110.347682,15.3557623 C110.216065,15.4044096 110.081593,15.4504508 109.944266,15.4938858 L109.944266,15.4938858 L109.942568,15.4944823 L115.864757,23.6573339 L111.885361,23.6573339 L106.429325,16.0299683 L106.3726,16.0313949 C106.222471,16.0350144 106.07036,16.0368242 105.916266,16.0368242 C105.459174,16.0368242 105.051375,16.0278642 104.692871,16.0099441 C104.334367,15.9920241 103.962419,15.974104 103.577027,15.9561839 L103.577027,15.9561839 L103.577027,23.6573339 L100.041279,23.6573339 L100.041279,4.16925807 L100.471484,4.08357773 C100.908411,3.99957741 101.365504,3.9206171 101.842763,3.84669681 C102.479108,3.74813643 103.1401,3.67197613 103.825739,3.61821592 C104.511378,3.56445571 105.212702,3.53757561 105.92971,3.53757561 Z M148.571679,1.93820939 L148.571679,23.6573339 L145.035932,23.6573339 L145.035932,1.93820939 L148.571679,1.93820939 Z M158.94512,17.0575269 L156.552177,17.273309 L156.302076,17.3010778 C155.490257,17.4047476 154.896947,17.6194922 154.522147,17.9453117 C154.109868,18.3037131 153.903728,18.796515 153.903728,19.4237174 C153.903728,20.0598799 154.091942,20.5482018 154.468372,20.8886831 C154.844801,21.2291644 155.400483,21.3994051 156.135416,21.3994051 C156.619397,21.3994051 157.107859,21.3053247 157.600802,21.117164 L157.600802,21.117164 L157.649947,21.0979298 C158.123571,20.9079571 158.555319,20.6007673 158.945193,20.1763603 L158.945193,20.1763603 L158.94512,17.0575269 Z M59.0458655,11.6850472 C58.5260344,11.6850472 58.015166,11.7858476 57.5132602,11.9874483 C57.0113543,12.1890491 56.5856306,12.5138504 56.2360891,12.9618521 L56.2360891,12.9618521 L56.2360891,20.9990034 L56.4453099,21.0380635 C56.6620929,21.0758637 56.9015624,21.1098838 57.1637186,21.1401239 C57.5132602,21.1804441 57.8538391,21.2006042 58.1854555,21.2006042 C59.5836217,21.2006042 60.634487,20.8242827 61.3380515,20.0716398 C62.0416159,19.3189969 62.3933981,18.073552 62.3933981,16.3353053 C62.3933981,15.1257005 62.2499964,14.1848969 61.9631931,13.5128943 C61.6763898,12.8408917 61.2820352,12.3682498 60.7801294,12.0949688 C60.2782235,11.8216877 59.7001356,11.6850472 59.0458655,11.6850472 Z M136.248799,11.6822473 C135.728968,11.6822473 135.218099,11.7830477 134.716194,11.9846485 C134.214288,12.1862493 133.788564,12.5110505 133.439022,12.9590523 L133.439022,12.9590523 L133.439022,20.9962035 L133.648243,21.0352637 C133.865026,21.0730638 134.104496,21.107084 134.366652,21.1373241 C134.716194,21.1776442 135.056772,21.1978043 135.388389,21.1978043 C136.786555,21.1978043 137.83742,20.8214829 138.540985,20.0688399 C139.244549,19.316197 139.596331,18.0707522 139.596331,16.3325054 C139.596331,15.1229007 139.45293,14.182097 139.166126,13.5100944 C138.879323,12.8380918 138.484969,12.36545 137.983063,12.0921689 C137.481157,11.8188878 136.903069,11.6822473 136.248799,11.6822473 Z M41.6411889,6.45686682 C40.5656764,6.45686682 39.6313249,6.69206774 38.8381344,7.16246957 C38.044944,7.6328714 37.4332462,8.39447436 37.0030412,9.44727846 C36.5728362,10.5000826 36.3577338,11.895608 36.3577338,13.6338547 C36.3577338,15.4258617 36.5728362,16.8594673 37.0030412,17.9346715 C37.4332462,19.0098757 38.0427033,19.7849187 38.8314125,20.2598005 C39.6201216,20.7346824 40.5567138,20.9721233 41.6411889,20.9721233 C42.7346266,20.9721233 43.6757,20.7346824 44.4644092,20.2598005 C45.2531183,19.7849187 45.8603348,19.0210757 46.2860584,17.9682716 C46.7117821,16.9154675 46.924644,15.5244221 46.924644,13.7951354 C46.924644,12.0120884 46.7095415,10.5829629 46.2793365,9.50775869 C45.8491315,8.43255451 45.2396744,7.65527148 44.4509653,7.17590962 C43.6622561,6.69654775 42.725664,6.45686682 41.6411889,6.45686682 Z M73.7886486,11.0802448 C73.170229,11.0802448 72.6414353,11.2191253 72.2022677,11.4968864 C71.7631001,11.7746475 71.4292431,12.2405693 71.2006967,12.8946519 L71.2006967,12.8946519 L71.1862638,12.9367121 C70.9911355,13.5157762 70.8829665,14.2687091 70.8617569,15.1955109 L70.8617569,15.1955109 L70.8604326,15.2601532 L76.6225914,15.2601532 L76.6216613,15.208951 C76.6012124,14.2595442 76.4948783,13.4925912 76.3026591,12.9080919 C76.0875566,12.2540094 75.7693841,11.7858476 75.3481418,11.5036065 C74.9268994,11.2213654 74.4070683,11.0802448 73.7886486,11.0802448 Z M122.043772,11.0774449 C121.425352,11.0774449 120.896559,11.2163255 120.457391,11.4940866 C120.018223,11.7718476 119.684366,12.2377695 119.45582,12.891852 L119.45582,12.891852 L119.441387,12.9339122 C119.246259,13.5129763 119.13809,14.2659092 119.11688,15.1927111 L119.11688,15.1927111 L119.115547,15.2573534 L124.877705,15.2573534 L124.876785,15.2061511 C124.856336,14.2567444 124.750002,13.4897913 124.557782,12.9052921 C124.34268,12.2512095 124.024507,11.7830477 123.603265,11.5008066 C123.182023,11.2185655 122.662192,11.0774449 122.043772,11.0774449 Z M106.279252,6.22558607 C105.741496,6.22558607 105.259756,6.24798615 104.834032,6.29278633 C104.408308,6.3375865 103.989307,6.39582673 103.577027,6.46750701 L103.577027,6.46750701 L103.577027,13.2009732 L103.857108,13.22636 C104.039348,13.2422889 104.212625,13.2562268 104.376939,13.2681735 C104.623411,13.2860935 104.874364,13.2995336 105.129798,13.3084936 C105.385232,13.3174537 105.665313,13.3219337 105.970042,13.3219337 C107.655012,13.3219337 108.891851,13.0374526 109.68056,12.4684904 C110.469269,11.8995281 110.863624,10.9968046 110.863624,9.76031982 C110.863624,8.93599661 110.700056,8.263994 110.372921,7.74431198 C110.045786,7.22462995 109.54388,6.84158846 108.867204,6.59518751 C108.190527,6.34878655 107.327877,6.22558607 106.279252,6.22558607 Z" id="Combined-Shape" fill="#000000"></path>
            </g>
        </g>
    </g>
</svg>