<svg width="720" height="499" viewBox="0 0 720 499" fill="none" xmlns="http://www.w3.org/2000/svg">
<g clip-path="url(#clip0_424_3)">
<path d="M427.832 238.816C427.838 238.646 427.848 238.477 427.854 238.302C432.847 239.959 437.861 241.921 442.823 243.147C445.659 243.848 448.973 244.674 451.077 243.117C455.34 239.982 458.051 233.795 458.222 225.856C458.548 210.854 458.122 195.501 458.013 180.299C457.92 167.691 457.749 155.05 457.787 142.5C457.808 134.816 458.334 127.345 458.309 119.646C458.281 109.56 454.762 101.894 448.105 97.676C442.752 94.2753 437.336 91.2847 431.927 88.6991C423.912 84.8571 415.881 81.4063 407.854 78.0382C401.907 75.5412 395.956 73.5363 390.006 71.1338C382.411 68.074 374.816 64.8897 367.221 61.6527C356.109 56.9209 344.998 51.7963 333.893 47.4264C328.468 45.2894 326.174 47.5295 325.539 53.9446C325.12 58.1827 324.918 62.5972 324.936 67.0648C324.998 82.8845 325.272 98.7917 325.306 114.605C325.319 121.149 324.924 127.524 324.712 133.975C324.252 147.883 323.565 161.687 323.41 175.725C323.31 184.599 325.704 189.83 331.527 193.722C336.057 196.744 340.736 198.533 345.352 200.824C346.294 201.291 347.249 201.466 348.194 201.881C355.873 205.254 363.549 208.586 371.225 212.048C378.553 215.357 385.88 218.732 393.205 222.207C404.748 227.688 416.289 233.272 427.832 238.816ZM348.903 50.7934C360.798 56.2473 372.686 61.9765 384.581 67.0855C401.751 74.466 418.922 81.2477 436.092 88.6283C440.538 90.5416 445.015 93.4163 449.405 96.4227C455.175 100.379 459.033 108.032 459.459 116.908C459.804 124.15 459.329 131.139 459.273 138.268C459.186 149.015 459.055 159.744 459.111 170.546C459.179 183.676 459.447 196.883 459.587 210.038C459.649 215.937 459.96 222.006 459.528 227.628C458.94 235.265 456.409 241.134 452.476 244.76C450.819 246.287 448.233 246.547 445.957 246.026C434.554 243.42 423.091 239.036 411.613 233.228C407.31 231.048 403.004 228.79 398.695 226.886C378.596 217.995 358.494 209.438 338.404 200.212C334.406 198.374 330.318 194.592 326.537 190.808C323.668 187.933 321.911 183.454 322.088 178.273C322.632 162.096 323.214 145.934 323.472 129.624C323.761 111.383 323.702 92.9869 323.808 74.6643C323.854 67.1196 323.621 59.4159 324.103 52.1137C324.52 45.8001 327.52 43.4691 331.863 44.8178C337.534 46.5823 343.21 48.5122 348.887 50.375C348.894 50.5165 348.9 50.6532 348.903 50.7934Z" fill="black"/>
<path d="M407.85 180.991C407.859 180.55 407.869 180.108 407.878 179.671C407.688 179.353 407.499 178.834 407.309 178.755C402.835 176.811 398.293 174.135 393.91 173.22C388.988 172.187 384.2 170.736 379.313 167.327C378.331 166.642 377.271 166.409 376.251 166.106C372.355 164.967 368.615 165.483 364.515 162.4C361.766 160.337 358.754 159.822 355.863 158.782C355.437 158.63 355.036 159.426 354.094 160.239C372.564 167.367 390.207 174.182 407.85 180.991ZM389.414 207.755L389.436 206.753C393.913 208.608 398.396 210.647 402.866 212.264C406.805 213.689 410.726 214.657 414.282 213.146C416.745 212.096 418.448 208.395 417.929 204.922C417.183 199.933 414.425 195.135 411.329 193.905C397.625 188.449 383.924 183.033 370.223 177.784C367.095 176.584 364.648 178.254 363.019 181.402C360.862 185.567 363.184 193.264 367.844 196.109C374.989 200.477 382.22 203.922 389.414 207.755ZM428.692 131.239C428.698 131.089 428.705 130.943 428.708 130.791C432.398 131.95 436.11 133.387 439.76 134.137C441.184 134.425 443.341 133.935 443.662 132.501C444.687 127.877 445.25 122.773 445.536 117.613C445.745 113.838 444.212 110.396 441.473 108.84C439.343 107.632 437.173 106.762 435.034 106.063C428.328 103.86 421.632 102.226 414.923 99.6101C401.909 94.5453 388.885 88.9785 375.865 83.5853C363.455 78.4446 351.041 73.2259 338.63 68.1331C335.48 66.8382 334.756 67.9513 334.877 72.7345C334.977 76.6272 335.002 80.4889 335.023 84.3494C335.055 89.5168 335.723 91.0104 339.196 92.6069C351.781 98.3946 364.369 104.346 376.957 109.747C394.202 117.144 411.447 124.096 428.692 131.239ZM419.306 167.519C419.306 167.5 419.306 167.476 419.306 167.452C426.553 170.454 433.797 173.492 441.044 176.442C445.533 178.272 447.094 176.006 446.391 169.176C446.024 165.614 445.717 162.042 445.633 158.563C445.455 151.347 443.761 147.857 438.976 146.076C430.613 142.957 422.263 140.284 413.9 137.102C396.12 130.341 378.34 123.532 360.557 116.42C352.89 113.35 345.221 109.546 337.554 105.934C335.412 104.927 334.013 105.31 333.715 108.507C333.556 110.213 333.441 111.972 333.478 113.764C333.568 118.276 333.994 122.941 333.842 127.328C333.687 131.934 334.119 133.464 337.333 134.93C339.469 135.901 341.614 136.152 343.76 136.979C354.109 140.969 364.462 144.917 374.815 149.123C389.644 155.146 404.474 161.375 419.306 167.519ZM335.745 146.487C335.35 150.434 334.856 154.33 334.644 158.376C334.604 159.136 335.614 161.011 336.261 161.465C338.191 162.821 340.184 163.948 342.152 164.768C349.483 167.823 349.461 168.327 349.722 156.493C349.822 152.002 348.846 149.955 345.886 148.437C343.138 147.03 340.371 145.889 337.619 144.883C337.082 144.684 336.569 145.645 336.046 146.076C335.947 146.212 335.844 146.347 335.745 146.487ZM427.831 238.815C416.291 233.273 404.747 227.687 393.204 222.206C385.879 218.731 378.551 215.356 371.224 212.048C363.548 208.586 355.872 205.253 348.196 201.882C347.248 201.465 346.296 201.291 345.351 200.823C340.738 198.534 336.059 196.744 331.529 193.723C325.703 189.83 323.312 184.6 323.409 175.725C323.567 161.688 324.251 147.882 324.711 133.975C324.926 127.525 325.317 121.148 325.305 114.604C325.271 98.7959 324.997 82.8838 324.935 67.0641C324.919 62.5978 325.118 58.1821 325.538 53.944C326.172 47.5288 328.467 45.2888 333.892 47.4258C344.997 51.7957 356.111 56.9216 367.219 61.6569C374.815 64.8939 382.41 68.0734 390.005 71.1331C395.955 73.5356 401.906 75.5405 407.856 78.0388C415.88 81.4056 423.911 84.8612 431.928 88.6997C437.335 91.2888 442.754 94.2807 448.104 97.6754C454.76 101.898 458.28 109.56 458.311 119.647C458.333 127.344 457.807 134.815 457.785 142.5C457.748 155.049 457.922 167.692 458.012 180.299C458.121 195.501 458.547 210.853 458.224 225.857C458.05 233.794 455.339 239.982 451.079 243.123C448.972 244.674 445.657 243.847 442.822 243.147C437.86 241.92 432.846 239.958 427.853 238.302C427.846 238.477 427.84 238.646 427.831 238.815Z" fill="#D2DAFF"/>
<path d="M335.403 131.592C337.891 132.623 340.288 133.654 342.681 134.602C357.349 140.419 372.014 146.11 386.682 152.061C402.376 158.428 418.073 165.064 433.767 171.517C436.692 172.719 439.618 173.562 442.546 174.645C444.324 175.305 445.018 174.184 444.906 171.666C444.732 167.766 444.418 163.814 444.349 159.958C444.206 151.87 442.876 149.302 437.538 147.431C431.167 145.195 424.804 143.253 418.43 140.805C397.722 132.859 377.013 124.823 356.302 116.627C350.447 114.308 344.584 111.247 338.724 108.671C335.372 107.196 334.803 107.55 334.797 112.299C334.788 118.533 335.176 124.936 335.403 131.592ZM419.307 167.52C404.474 161.376 389.645 155.143 374.812 149.123C364.462 144.918 354.11 140.97 343.76 136.98C341.615 136.153 339.47 135.902 337.334 134.931C334.119 133.465 333.684 131.934 333.843 127.324C333.992 122.941 333.569 118.277 333.476 113.764C333.442 111.968 333.554 110.213 333.715 108.508C334.014 105.307 335.41 104.927 337.555 105.935C345.221 109.547 352.891 113.351 360.558 116.417C378.341 123.533 396.121 130.338 413.901 137.104C422.26 140.279 430.614 142.958 438.974 146.076C443.762 147.858 445.453 151.347 445.633 158.564C445.717 162.038 446.025 165.615 446.392 169.177C447.091 176.006 445.534 178.269 441.044 176.443C433.798 173.494 426.554 170.455 419.307 167.453C419.307 167.477 419.307 167.496 419.307 167.52Z" fill="black"/>
<path d="M347.81 74.5043C347.807 74.2779 347.804 74.0562 347.801 73.8298C344.782 72.5794 341.76 71.3756 338.741 70.0581C337.044 69.3167 336.158 69.8646 336.232 72.6213C336.332 76.3798 336.254 80.0793 336.369 83.8443C336.524 89.0776 336.81 89.6368 340.33 91.2143C356.101 98.3027 371.876 105.426 387.651 112.324C393.25 114.778 398.855 116.616 404.461 118.774C415.643 123.081 426.832 127.538 438.015 131.672C442.57 133.357 442.293 132.242 443.661 127.012C444.298 124.579 444.289 121.471 444.329 118.565C444.407 113.323 442.483 110.692 438.988 109.517C431.259 106.924 423.543 104.815 415.811 101.9C408.574 99.1753 401.321 95.4284 394.08 92.5394C378.653 86.3843 363.233 80.5 347.81 74.5043ZM428.695 131.241C411.449 124.098 394.201 117.145 376.959 109.749C364.368 104.347 351.783 98.3967 339.195 92.6077C335.722 91.0112 335.057 89.514 335.026 84.3515C335.001 80.4897 334.976 76.6231 334.877 72.7352C334.755 67.9521 335.483 66.8403 338.632 68.1304C351.043 73.228 363.454 78.4454 375.865 83.5861C388.885 88.9792 401.908 94.5461 414.925 99.6122C421.631 102.222 428.328 103.861 435.034 106.064C437.173 106.763 439.346 107.634 441.472 108.841C444.211 110.397 445.747 113.835 445.536 117.614C445.25 122.774 444.69 127.879 443.661 132.502C443.344 133.937 441.186 134.427 439.759 134.133C436.109 133.383 432.397 131.951 428.71 130.793C428.704 130.939 428.701 131.091 428.695 131.241Z" fill="black"/>
<path d="M385.377 185.048C385.377 185.336 385.377 185.618 385.38 185.907C380.891 184.047 376.401 182.289 371.912 180.29C369.223 179.095 367.044 179.701 365.144 181.515C362.952 183.611 363.046 188.253 365.663 191.465C367.557 193.787 369.857 195.784 372.005 196.789C381.656 201.303 391.321 205.795 400.968 209.485C405.081 211.059 409.216 210.956 413.245 211.044C415.537 211.093 416.681 208.592 416.429 204.876C416.189 201.342 414.787 198.591 412.496 196.995C411.153 196.056 409.776 195.198 408.414 194.619C400.735 191.376 393.056 188.229 385.377 185.048ZM389.412 207.754C382.221 203.923 374.99 200.477 367.846 196.11C363.185 193.265 360.863 185.567 363.021 181.402C364.65 178.254 367.096 176.585 370.224 177.785C383.925 183.034 397.626 188.45 411.327 193.905C414.424 195.135 417.184 199.933 417.93 204.923C418.45 208.395 416.746 212.097 414.284 213.141C410.727 214.658 406.807 213.69 402.865 212.263C398.394 210.646 393.914 208.608 389.437 206.754L389.412 207.754Z" fill="black"/>
<path d="M407.85 180.992C390.207 174.182 372.564 167.367 354.094 160.239C355.036 159.427 355.437 158.63 355.863 158.782C358.754 159.822 361.767 160.337 364.515 162.4C368.616 165.483 372.356 164.967 376.251 166.107C377.271 166.409 378.331 166.642 379.313 167.327C384.201 170.736 388.988 172.187 393.91 173.22C398.293 174.135 402.835 176.812 407.309 178.756C407.499 178.834 407.688 179.354 407.878 179.672C407.869 180.108 407.859 180.55 407.85 180.992Z" fill="black"/>
<path d="M336.046 146.073C336.571 145.649 337.081 144.687 337.619 144.881C340.373 145.887 343.14 147.029 345.885 148.439C348.845 149.957 349.821 152 349.722 156.495C349.461 168.324 349.486 167.822 342.152 164.765C340.184 163.945 338.191 162.818 336.263 161.464C335.614 161.008 334.606 159.134 334.644 158.374C334.858 154.333 335.349 150.436 335.744 146.485C335.999 147.414 336.478 148.441 336.465 149.251C336.425 151.907 336.111 154.445 336.114 157.119C336.114 157.958 336.767 159.771 337.146 159.952C340.697 161.604 344.25 163.005 347.726 164.444C347.981 162.188 348.167 160.503 348.357 158.823C348.963 153.498 348.099 151.425 344.312 149.603C341.561 148.281 338.803 147.239 336.046 146.073Z" fill="black"/>
<path d="M365.883 130.778C366.878 129.552 367.758 128.47 368.638 127.388C368.504 127.074 368.37 126.755 368.237 126.441C367.459 126.603 366.682 126.76 365.827 126.937C365.672 125.666 365.529 124.495 365.383 123.328C365.165 123.19 364.944 123.055 364.727 122.917C364.397 124.309 364.064 125.704 363.806 126.79C362.843 126.539 361.941 126.31 361.043 126.081C361.702 127.432 362.358 128.782 363.07 130.245C362.177 131.524 361.273 132.816 360.368 134.108L360.9 135.109C361.758 134.617 362.613 134.123 363.545 133.59C363.847 135.065 364.092 136.269 364.338 137.473L364.857 137.707C365.09 136.491 365.327 135.281 365.569 134.026C366.468 135.088 367.211 135.97 367.957 136.849C368.106 136.624 368.255 136.403 368.404 136.177C367.618 134.496 366.834 132.816 365.883 130.778ZM404.925 150.351C406.228 151.585 407.232 152.538 408.233 153.489C408.348 153.177 408.463 152.866 408.575 152.553C407.297 150.692 406.019 148.836 404.658 146.858C405.466 145.545 406.153 144.436 406.837 143.321C406.678 143.025 406.517 142.733 406.355 142.441C405.575 142.707 404.794 142.977 404.048 143.234C403.523 141.584 403.038 140.061 402.55 138.536C402.348 138.572 402.146 138.604 401.943 138.64C402.009 139.955 402.071 141.27 402.136 142.595C401.241 141.841 400.451 141.169 399.658 140.5C399.565 140.74 399.472 140.984 399.379 141.223C400.271 142.852 401.16 144.48 402.108 146.219C401.104 147.83 400.171 149.326 399.239 150.827C399.447 151.177 399.658 151.528 399.867 151.873C400.806 151.141 401.741 150.403 402.683 149.662C403.193 150.947 403.582 151.927 404.201 153.491C404.53 152.061 404.723 151.221 404.925 150.351ZM382.109 133.217C381.938 133.409 381.77 133.598 381.602 133.792C382.283 135.708 382.967 137.625 383.623 139.468C382.18 140.853 380.915 142.068 379.649 143.283C379.811 143.68 379.97 144.077 380.131 144.469C381.219 143.976 382.308 143.483 383.486 142.946C383.7 144.377 383.893 145.678 384.195 147.705C384.838 146.529 385.18 145.9 385.51 145.303C386.402 146.439 387.167 147.412 388.507 149.122C386.237 141.351 386.237 141.351 388.441 138.024C387.493 136.606 386.545 135.188 385.423 133.512C385.112 134.48 384.767 135.554 384.418 136.631C383.647 135.492 382.88 134.355 382.109 133.217ZM350.553 132.318C350.808 132.223 351.066 132.128 351.321 132.033C350.419 129.71 348.716 126.954 348.821 125.177C348.949 123.026 350.603 121.699 352.064 119.224C350.879 119.424 350.255 119.39 349.732 119.653C349.145 119.946 348.65 120.503 347.842 121.174V117.097C347.659 116.945 347.472 116.795 347.286 116.642C346.872 117.61 346.459 118.579 346.275 119.011C345.016 118.609 344.015 118.29 343.017 117.973C343.033 118.353 343.048 118.733 343.064 119.118C345.862 121.805 345.862 121.805 344.024 127.971C344.83 127.983 345.492 127.994 346.082 128.004C346.4 129.046 346.667 129.923 347.167 131.563C347.572 129.977 347.792 129.11 348.066 128.031C349.036 129.702 349.794 131.008 350.553 132.318ZM335.403 131.59C335.176 124.933 334.788 118.531 334.797 112.297C334.803 107.548 335.372 107.199 338.724 108.674C344.584 111.249 350.447 114.311 356.301 116.625C377.013 124.821 397.722 132.857 418.43 140.808C424.803 143.251 431.167 145.193 437.537 147.429C442.875 149.3 444.206 151.872 444.349 159.956C444.418 163.816 444.732 167.764 444.906 171.669C445.018 174.182 444.324 175.308 442.546 174.648C439.617 173.56 436.692 172.717 433.766 171.515C418.073 165.067 402.376 158.426 386.682 152.059C372.014 146.108 357.349 140.422 342.681 134.6C340.287 133.652 337.89 132.621 335.403 131.59Z" fill="white"/>
<path d="M345.846 83.5267C345.234 84.5521 344.684 85.4739 344.273 86.1614C345.389 87.5626 346.247 88.6413 347.233 89.8783C347.466 89.1509 347.743 88.2931 347.939 87.6892C348.874 87.9954 349.621 88.2326 351.004 88.6811C349.816 86.8718 349.235 85.9843 347.724 83.6818C349.017 83.3361 349.994 83.0746 351.11 82.7752C349.428 81.2402 348.318 80.2296 347.628 79.5988C346.185 79.739 345.038 79.853 343.686 79.9875C344.509 81.3395 345.15 82.3856 345.846 83.5267ZM382.146 98.8021C381.499 99.8037 380.915 100.711 380.315 101.641C381.419 102.879 382.258 103.816 383.113 104.774C383.495 103.984 383.862 103.226 384.217 102.5C385.115 103.577 385.839 104.442 386.567 105.314C386.694 105.084 386.825 104.855 386.952 104.625C386.29 103.125 385.631 101.625 384.907 99.984C385.818 98.9146 386.648 97.941 387.478 96.9675C387.36 96.6407 387.242 96.314 387.123 95.9872C386.157 96.1999 385.193 96.4138 384.108 96.6542C384.018 95.0935 383.94 93.7631 383.862 92.4327C383.663 92.2928 383.467 92.159 383.268 92.0191C382.976 93.0765 382.687 94.1352 382.395 95.1926C381.708 94.6445 381.021 94.0964 380.334 93.5484C380.215 93.7246 380.1 93.9021 379.982 94.0783C380.694 95.6331 381.406 97.1878 382.146 98.8021ZM364.323 98.0158C364.761 96.3483 365.031 95.3202 365.311 94.2576C366.256 95.0084 367.021 95.6126 367.789 96.2229C367.885 96.0568 367.979 95.8943 368.075 95.7282C367.469 94.4328 366.863 93.1374 366.207 91.7399C366.937 90.6629 367.587 89.7057 368.237 88.7485C368.143 88.4847 368.047 88.2244 367.954 87.9654C367.164 87.9976 366.375 88.0346 365.582 88.0703C365.479 86.6673 365.383 85.358 365.286 84.0534C365.044 83.9194 364.801 83.7854 364.562 83.6527C364.276 85.0815 363.993 86.5069 363.751 87.7238C362.569 86.8991 361.559 86.198 360.548 85.492C360.514 85.8563 360.48 86.2206 360.449 86.5861C361.425 87.9534 362.404 89.3219 363.499 90.853C362.411 92.1891 361.459 93.3615 360.508 94.5339C360.642 94.824 360.775 95.1141 360.909 95.4042C361.643 95.2818 362.38 95.1654 363.116 95.0443C363.437 95.8332 363.757 96.6221 364.323 98.0158ZM347.808 74.5046C363.231 80.5004 378.655 86.3859 394.078 92.5398C401.322 95.4253 408.572 99.1708 415.809 101.9C423.541 104.816 431.258 106.92 438.986 109.517C442.484 110.693 444.405 113.324 444.331 118.562C444.287 121.471 444.296 124.579 443.659 127.012C442.291 132.242 442.568 133.358 438.013 131.672C426.831 127.539 415.645 123.078 404.459 118.775C398.857 116.617 393.251 114.774 387.652 112.326C371.874 105.422 356.103 98.2996 340.328 91.2146C336.809 89.6371 336.526 89.0792 336.367 83.8447C336.255 80.081 336.33 76.3801 336.23 72.6216C336.156 69.8649 337.042 69.317 338.742 70.0597C341.761 71.3772 344.78 72.5797 347.799 73.8301C347.802 74.0518 347.805 74.2782 347.808 74.5046Z" fill="white"/>
<path d="M385.376 185.048C393.055 188.229 400.734 191.376 408.414 194.619C409.775 195.197 411.152 196.055 412.496 196.995C414.787 198.59 416.189 201.341 416.428 204.875C416.68 208.591 415.536 211.092 413.245 211.044C409.216 210.956 405.081 211.059 400.968 209.484C391.321 205.795 381.655 201.303 372.005 196.788C369.857 195.783 367.556 193.786 365.663 191.464C363.045 188.253 362.952 183.611 365.144 181.515C367.043 179.701 369.222 179.094 371.912 180.29C376.401 182.288 380.89 184.047 385.38 185.907C385.376 185.618 385.376 185.335 385.376 185.048Z" fill="#FFEAD1"/>
<path d="M339.385 153.781C339.22 154.067 339.059 154.355 338.894 154.636C339.525 155.535 340.113 156.779 340.803 157.262C342.429 158.4 346.225 156.341 347.254 153.73C344.35 152.939 342.566 157.728 339.385 153.781ZM336.046 146.075C338.801 147.24 341.561 148.283 344.313 149.604C348.099 151.422 348.964 153.5 348.358 158.82C348.168 160.504 347.981 162.19 347.726 164.441C344.251 163.001 340.697 161.606 337.147 159.948C336.764 159.771 336.115 157.959 336.115 157.121C336.111 154.447 336.425 151.908 336.463 149.246C336.475 148.442 336 147.416 335.745 146.486C335.844 146.35 335.947 146.211 336.046 146.075Z" fill="white"/>
<path d="M350.553 132.317C349.795 131.011 349.036 129.701 348.066 128.03C347.792 129.109 347.572 129.976 347.167 131.562C346.667 129.922 346.4 129.045 346.082 128.003C345.495 127.995 344.83 127.982 344.024 127.97C345.862 121.804 345.862 121.804 343.064 119.117C343.048 118.737 343.033 118.352 343.017 117.972C344.015 118.289 345.016 118.608 346.275 119.015C346.459 118.578 346.872 117.609 347.286 116.641C347.472 116.794 347.659 116.948 347.842 117.096V121.173C348.65 120.502 349.145 119.945 349.735 119.653C350.255 119.389 350.88 119.423 352.064 119.228C350.603 121.703 348.949 123.025 348.821 125.181C348.716 126.953 350.419 129.709 351.321 132.032C351.066 132.127 350.808 132.222 350.553 132.317Z" fill="black"/>
<path d="M382.108 133.217C382.879 134.355 383.65 135.494 384.421 136.628C384.769 135.555 385.114 134.481 385.425 133.513C386.544 135.189 387.492 136.607 388.44 138.02C386.236 141.351 386.236 141.351 388.506 149.122C387.166 147.413 386.404 146.441 385.509 145.303C385.182 145.901 384.837 146.529 384.197 147.706C383.895 145.679 383.699 144.377 383.488 142.948C382.307 143.484 381.218 143.977 380.133 144.471C379.972 144.073 379.81 143.676 379.648 143.283C380.914 142.068 382.179 140.854 383.625 139.469C382.966 137.62 382.285 135.709 381.601 133.793C381.772 133.6 381.94 133.411 382.108 133.217Z" fill="black"/>
<path d="M404.924 150.35C404.722 151.224 404.529 152.064 404.203 153.49C403.584 151.931 403.192 150.945 402.686 149.667C401.744 150.407 400.805 151.139 399.869 151.877C399.657 151.526 399.449 151.176 399.238 150.825C400.17 149.329 401.106 147.829 402.11 146.219C401.162 144.485 400.27 142.855 399.378 141.221C399.471 140.982 399.564 140.743 399.657 140.504C400.45 141.172 401.243 141.841 402.135 142.598C402.073 141.269 402.008 139.958 401.946 138.644C402.148 138.608 402.35 138.572 402.552 138.536C403.037 140.059 403.522 141.582 404.047 143.232C404.793 142.976 405.574 142.71 406.354 142.439C406.516 142.731 406.677 143.028 406.839 143.32C406.152 144.434 405.465 145.549 404.657 146.857C406.018 148.834 407.296 150.695 408.577 152.553C408.462 152.864 408.347 153.181 408.235 153.494C407.231 152.541 406.23 151.59 404.924 150.35Z" fill="black"/>
<path d="M365.883 130.779C366.835 132.816 367.618 134.496 368.405 136.178C368.255 136.403 368.106 136.624 367.957 136.85C367.211 135.971 366.468 135.088 365.569 134.026C365.327 135.281 365.091 136.491 364.857 137.707L364.338 137.473C364.093 136.269 363.847 135.066 363.545 133.59C362.613 134.123 361.758 134.617 360.9 135.11L360.368 134.109C361.273 132.816 362.178 131.524 363.07 130.246C362.358 128.782 361.702 127.432 361.043 126.082C361.941 126.31 362.843 126.54 363.807 126.79C364.065 125.704 364.397 124.309 364.727 122.918C364.944 123.056 365.165 123.19 365.383 123.328C365.529 124.495 365.672 125.666 365.827 126.938C366.682 126.76 367.46 126.603 368.237 126.441C368.371 126.755 368.504 127.074 368.638 127.388C367.758 128.47 366.878 129.553 365.883 130.779Z" fill="black"/>
<path d="M364.324 98.0155C363.758 96.6219 363.438 95.8329 363.117 95.044C362.377 95.1639 361.644 95.2815 360.907 95.4027C360.776 95.1138 360.643 94.8237 360.509 94.5336C361.46 93.3612 362.412 92.1888 363.497 90.8514C362.402 89.3203 361.426 87.9531 360.447 86.5846C360.481 86.2203 360.515 85.856 360.546 85.4904C361.56 86.1977 362.57 86.8988 363.748 87.7222C363.991 86.5053 364.277 85.0813 364.56 83.6559C364.802 83.7851 365.045 83.9191 365.287 84.0531C365.384 85.3577 365.477 86.6658 365.58 88.0687C366.375 88.0343 367.165 87.9973 367.955 87.9652C368.048 88.2241 368.141 88.4831 368.238 88.7482C367.585 89.7041 366.935 90.6613 366.208 91.7396C366.864 93.1371 367.47 94.4325 368.076 95.7279C367.98 95.894 367.883 96.0553 367.79 96.2226C367.022 95.6123 366.257 95.0081 365.312 94.2574C365.032 95.3199 364.762 96.348 364.324 98.0155Z" fill="black"/>
<path d="M382.146 98.8006C381.406 97.1864 380.694 95.6316 379.982 94.0768C380.1 93.9006 380.218 93.7244 380.336 93.5482C381.023 94.0962 381.71 94.6443 382.398 95.1924C382.687 94.1337 382.979 93.0763 383.268 92.0176C383.467 92.1575 383.666 92.2926 383.862 92.4313C383.94 93.7617 384.017 95.092 384.111 96.654C385.192 96.4171 386.159 96.1997 387.123 95.9857C387.241 96.3125 387.359 96.6393 387.478 96.966C386.647 97.9396 385.817 98.9179 384.906 99.9873C385.631 101.624 386.293 103.124 386.952 104.624C386.825 104.854 386.697 105.083 386.567 105.312C385.842 104.447 385.115 103.575 384.216 102.499C383.865 103.23 383.498 103.984 383.116 104.774C382.261 103.816 381.421 102.879 380.318 101.641C380.918 100.711 381.499 99.8022 382.146 98.8006Z" fill="black"/>
<path d="M345.846 83.5266C345.15 82.3854 344.509 81.3393 343.686 79.9873C345.038 79.8529 346.185 79.7388 347.628 79.5986C348.318 80.2294 349.428 81.24 351.11 82.775C349.994 83.0744 349.017 83.3359 347.724 83.6816C349.235 85.9841 349.816 86.8716 351.004 88.6809C349.62 88.2324 348.874 87.9952 347.939 87.689C347.743 88.2929 347.466 89.1508 347.233 89.8781C346.247 88.6412 345.389 87.5624 344.273 86.1612C344.684 85.4737 345.234 84.5519 345.846 83.5266Z" fill="black"/>
<path d="M339.386 153.781C342.566 157.728 344.351 152.939 347.254 153.73C346.225 156.341 342.429 158.4 340.803 157.262C340.113 156.779 339.526 155.535 338.895 154.636C339.059 154.355 339.221 154.067 339.386 153.781Z" fill="black"/>
<path d="M478.42 297.709C381.077 253.462 184.544 267.29 105.729 279.734V499.227H226.766C226.766 499.227 715.933 529.719 718.707 499.227L718.753 498.724C721.492 468.618 722.446 458.139 678.914 482.993C569.886 545.239 600.099 353.018 478.42 297.709Z" fill="#67B7C5" stroke="black"/>
<path d="M517.781 131.771L517.815 131.423L518.143 131.793L518.153 131.787L518.837 131.336L518.455 131.13C518.542 130.903 518.627 130.678 518.712 130.454C519.04 129.582 519.359 128.737 519.746 127.939C520.59 126.216 521.814 125.333 523.3 125.075C524.793 124.816 526.579 125.183 528.561 126.025L528.561 126.025C530.415 126.812 532.065 127.927 533.442 129.385C534.816 130.839 535.946 132.662 536.741 134.906C536.975 135.573 537.135 136.254 537.287 137.009C537.337 137.26 537.387 137.523 537.44 137.796C537.541 138.326 537.65 138.894 537.781 139.485L537.94 140.2L538.464 140.077C539.728 139.78 540.971 139.712 542.151 140.081C543.308 140.443 544.425 141.228 545.48 142.707C547.037 144.893 548.525 147.212 548.96 149.964C535.565 145.098 522.446 140.332 509.251 135.533C508.878 132.656 509.782 130.933 511.323 129.745L511.324 129.745C512.16 129.097 513.114 129.24 514.189 129.726C514.738 129.973 515.312 130.307 515.918 130.673C516.031 130.742 516.146 130.812 516.262 130.882C516.756 131.183 517.271 131.496 517.781 131.771Z" fill="#EEEFFC" stroke="black"/>
<path d="M451.996 31.888L451.996 31.888L451.998 31.8879C454.176 31.7984 456.257 33.6373 458.228 36.4272C458.433 36.7187 458.613 37.1434 458.813 37.7242C458.874 37.9024 458.939 38.0989 459.007 38.3052C459.142 38.7179 459.29 39.1699 459.453 39.594L459.7 40.234L460.139 40.0648C460.878 39.7803 461.532 39.849 462.094 40.1905C462.651 40.5289 463.236 41.207 463.796 42.4068L463.796 42.4081C464.354 43.5985 464.715 44.8092 464.221 45.7995C461.202 45.1489 458.156 43.8998 455.068 42.5594C454.647 42.3767 454.225 42.1923 453.802 42.0075C451.226 40.881 448.618 39.7408 446.015 38.911C446.01 38.4451 446.023 38.0766 446.06 37.7839C446.11 37.3896 446.2 37.1682 446.325 37.0353C446.447 36.9045 446.633 36.8265 446.953 36.8133C447.28 36.7999 447.717 36.8549 448.317 36.9643L448.215 36.433L448.674 36.6295C448.672 34.9317 449.019 33.7704 449.597 33.0239C450.174 32.2784 450.998 31.9231 451.996 31.888Z" fill="#EEEFFC" stroke="black"/>
<path d="M391.933 15.3432C391.653 14.8432 391.333 14.3532 391.123 13.8232C390.783 12.9732 390.563 12.0732 390.223 11.2232C389.523 9.46322 388.453 8.20322 386.303 8.44322C385.973 8.48322 385.623 8.28322 384.963 8.11322C385.443 7.58322 385.703 7.06322 386.103 6.91322C388.983 5.83322 390.833 4.08322 390.533 0.743221C390.523 0.583221 390.663 0.40322 390.743 0.25322C390.783 0.18322 390.873 0.133223 391.233 -0.196777C391.593 0.373223 392.123 0.87322 392.243 1.45322C392.823 4.13322 394.583 5.48322 397.103 6.14322C397.953 6.36322 398.753 6.75322 399.593 7.60322C398.693 7.84322 397.803 8.10322 396.903 8.33322C393.743 9.15322 392.943 10.0932 392.723 13.2632C392.673 13.9332 392.543 14.5932 392.443 15.2632C392.273 15.2932 392.113 15.3132 391.943 15.3432H391.933ZM391.473 10.3732C393.003 9.17322 394.423 8.04322 395.653 7.08322C394.283 6.04322 392.863 4.97322 391.493 3.92322C390.543 5.00322 389.543 6.11322 388.673 7.10322C389.703 8.29322 390.633 9.38322 391.483 10.3732H391.473Z" fill="black"/>
<path d="M488.143 90.4632C485.696 92.3565 484.12 94.8332 483.413 97.8932C481.783 96.9732 482.243 95.0632 481.353 93.8932C480.443 92.6932 479.513 91.5632 477.543 91.2332C478.603 90.2732 480.013 89.4932 480.623 88.3032C481.223 87.1332 481.013 85.5532 481.393 84.0332C483.143 86.6332 484.703 89.3232 488.143 90.4632V90.4632ZM480.233 90.8332C481.233 91.9532 482.073 92.9032 482.933 93.8532C483.823 92.8232 484.693 91.8232 485.683 90.6832C484.583 89.8032 483.523 88.9732 482.393 88.0632C481.653 89.0232 480.993 89.8632 480.233 90.8332V90.8332Z" fill="black"/>
<path d="M501.443 199.263C502.553 199.213 503.813 200.413 503.783 201.493C503.763 202.333 502.463 203.433 501.443 203.483C500.363 203.533 499.393 202.543 499.393 201.383C499.393 200.203 500.243 199.323 501.443 199.273V199.263ZM501.223 202.833C501.793 202.333 502.433 202.033 502.493 201.653C502.553 201.273 502.013 200.813 501.743 200.393C501.353 200.693 500.733 200.933 500.633 201.313C500.533 201.673 500.953 202.193 501.233 202.843L501.223 202.833Z" fill="black"/>
<path d="M426.993 24.3431C426.963 26.0131 426.043 26.8331 424.783 26.7831C423.543 26.7431 422.893 26.0532 422.983 24.8632C423.063 23.7532 424.163 22.7332 425.273 23.0432C426.003 23.2432 426.573 24.0131 426.983 24.3431H426.993ZM424.883 23.7932C424.533 24.3332 424.143 24.7331 424.213 24.8531C424.403 25.1731 424.783 25.4031 425.133 25.5731C425.203 25.6131 425.653 25.1931 425.613 25.0831C425.493 24.7131 425.233 24.3832 424.873 23.7932H424.883Z" fill="black"/>
<path d="M337.763 8.61296C337.703 9.87296 336.643 10.893 335.443 10.833C334.253 10.773 333.493 9.98296 333.603 8.91296C333.713 7.76296 334.723 6.78296 335.743 6.82296C336.943 6.87296 337.813 7.64296 337.773 8.61296H337.763ZM335.603 7.64296C335.193 8.21296 334.803 8.57296 334.703 9.00296C334.663 9.18296 335.403 9.77296 335.523 9.71296C335.923 9.48296 336.293 9.08296 336.483 8.66296C336.543 8.52296 336.023 8.12296 335.603 7.64296Z" fill="black"/>
<path d="M391.473 10.3731C390.623 9.3831 389.683 8.2931 388.663 7.1031C389.543 6.1131 390.533 5.0031 391.483 3.9231C392.863 4.9631 394.273 6.0431 395.643 7.0831C394.423 8.0431 392.993 9.1731 391.463 10.3731H391.473Z" fill="#F0C3BA"/>
<path d="M480.243 90.8332C480.993 89.8632 481.653 89.0232 482.403 88.0632C483.543 88.9632 484.593 89.8032 485.693 90.6832C484.703 91.8232 483.833 92.8332 482.943 93.8532C482.093 92.9032 481.243 91.9532 480.243 90.8332V90.8332Z" fill="#EEEFFC"/>
<path d="M290.553 66.1831C287.573 63.6765 285.313 62.2731 283.773 61.9731C284.783 60.9431 285.873 60.1431 286.543 59.0731C287.203 58.0231 287.433 56.7031 287.963 55.2031C289.633 57.5231 291.013 59.8431 294.013 60.5531C291.393 61.5831 290.993 63.8631 290.563 66.1731L290.553 66.1831ZM291.193 60.8031C290.983 61.0131 290.773 61.2131 290.563 61.4231C289.813 60.3231 289.053 59.2331 288.263 58.0831C287.683 59.1531 287.163 60.1031 286.623 61.0931C287.693 61.8931 288.693 62.6331 289.693 63.3831C290.193 62.5231 290.683 61.6631 291.183 60.8031H291.193Z" fill="black"/>
<path d="M291.193 60.8031C290.693 61.6631 290.193 62.5231 289.703 63.3831C288.693 62.6331 287.693 61.8831 286.633 61.0931C287.173 60.1031 287.693 59.1531 288.273 58.0831C289.063 59.2331 289.813 60.3231 290.573 61.4231C290.783 61.2131 290.993 61.0131 291.203 60.8031H291.193Z" fill="white"/>
<path d="M501.223 202.843C500.943 202.193 500.523 201.683 500.623 201.313C500.733 200.933 501.343 200.693 501.733 200.393C502.013 200.813 502.543 201.283 502.483 201.653C502.423 202.033 501.793 202.333 501.213 202.833L501.223 202.843Z" fill="white"/>
<path d="M424.883 23.7932C425.233 24.3832 425.493 24.7032 425.623 25.0832C425.663 25.1932 425.213 25.6132 425.143 25.5732C424.793 25.4032 424.423 25.1632 424.223 24.8532C424.153 24.7332 424.543 24.3332 424.893 23.7932H424.883Z" fill="white"/>
<path d="M335.603 7.63318C336.023 8.10318 336.543 8.50318 336.483 8.65318C336.303 9.07318 335.923 9.47318 335.523 9.70318C335.403 9.77318 334.663 9.17318 334.703 8.99318C334.803 8.57318 335.193 8.21318 335.603 7.63318Z" fill="white"/>
<path d="M258.798 283.522C260.386 285.829 260.927 286.467 262.654 286.867C265.365 287.495 268.038 288.405 270.903 288.221C272.136 288.142 273.385 288.364 274.627 288.368C276.88 288.375 279.173 288.711 281.575 287.707C281.461 286.808 281.349 285.94 281.222 284.95C273.59 284.464 266.203 283.994 258.798 283.522ZM311.984 283.326C310.194 283.524 308.481 283.792 306.759 283.89C301.18 284.203 295.599 284.471 290.017 284.717C288.468 284.784 286.913 284.698 285.361 284.705C284.507 284.709 283.672 284.812 283.371 285.812C283.071 286.81 283.525 287.866 284.667 288.275C286.016 288.759 287.435 289.256 288.845 289.329C295.158 289.652 301.458 289.635 307.683 288.213C311.088 287.434 311.314 287.294 311.984 283.326ZM270.235 111.835C270.162 112.35 270.019 112.746 270.065 113.119C270.43 116.022 271.567 118.468 274.102 120.164C274.985 120.755 276.119 121.201 276.57 122.572C274.101 123.302 271.809 122.453 269.124 122.422C269.771 123.399 270.114 124.155 270.664 124.705C272.012 126.052 273.647 126.934 275.554 127.241C278.032 127.641 279.884 128.994 281.564 130.818C282.945 132.319 283.724 134.082 284.562 135.862C284.831 136.429 285.333 136.886 286.012 137.758C286.314 136.693 286.542 136.132 286.628 135.551C287.338 130.651 286.447 125.974 284.001 121.747C282.252 118.724 280.255 115.72 276.732 114.34C274.623 113.512 272.503 112.709 270.235 111.835ZM367.836 201.996C369.044 206.944 370.235 211.846 371.447 216.743C371.565 217.22 371.811 217.665 371.989 218.101C377.702 216.953 380.543 213.89 380.958 208.44C381.068 207 381.111 205.524 380.917 204.101C380.726 202.692 380.196 201.33 379.797 199.886C380.113 199.457 380.454 199.067 380.711 198.628C380.993 198.146 381.199 197.619 381.589 196.788C380.428 196.788 379.58 196.597 378.859 196.821C374.998 198.016 371.29 199.567 367.836 201.996ZM259.556 287.582C259.033 291.088 259.884 294.239 262.521 296.364C265.609 298.853 269.187 300.603 273.409 300.296C275.791 300.123 278.184 300.093 280.564 299.898C281.324 299.835 282.057 299.447 282.609 299.271C282.44 296.055 282.291 293.191 282.143 290.342C278.217 290.172 274.488 290.238 270.821 289.791C267.137 289.341 263.516 288.382 259.556 287.582ZM312.004 288.574C302.892 291.308 293.776 291.563 284.458 290.219C284.033 292.775 284.207 295.047 284.506 297.285C284.603 298.019 285.163 298.927 285.784 299.313C287.352 300.283 288.994 301.36 290.751 301.761C299.008 303.643 306.852 302.186 314.177 298.091C318.053 295.924 321.289 293.073 322.078 288.08C319.498 286.33 316.823 284.982 313.462 285.953C312.937 286.897 312.441 287.79 312.004 288.574ZM333.913 161.575C330.658 164.683 326.799 166.513 323.135 168.624C323.135 169.168 323.064 169.59 323.146 169.981C324.383 175.918 324.683 181.935 324.695 187.974C324.704 192.549 324.658 197.127 324.663 201.702C324.665 202.489 324.804 203.275 324.895 204.228C330.31 202.867 335.159 200.899 339.519 198.07C341.824 186.896 338.791 169.081 333.913 161.575ZM255.294 139.63C254.634 141.567 255.178 142.877 256.373 143.88C257.399 144.74 258.478 145.657 259.695 146.144C262.289 147.179 264.941 148.146 267.653 148.793C275.523 150.671 283.535 150.673 291.53 149.967C296.914 149.492 302.269 148.582 307.254 146.337C309.03 145.537 310.787 144.513 312.254 143.245C314.948 140.919 314.637 139.014 311.526 137.26C305.172 133.679 298.313 131.783 291.074 131.187C290.487 131.14 289.883 131.311 289.21 131.391C288.359 134.032 289.205 137.194 286.661 139.118C284.893 139.014 283.932 138.166 283.313 136.644C282.732 135.214 281.943 133.858 281.146 132.529C280.571 131.569 279.665 131.198 278.487 131.307C270.033 132.09 262.305 134.844 255.294 139.63ZM365.551 201.281C364.511 201.755 363.928 201.965 363.398 202.268C357.681 205.551 351.48 207.621 345.248 209.646C340.708 211.121 336.198 212.705 331.733 214.396C327.364 216.052 323.067 217.897 318.744 219.675C315.283 221.099 311.828 222.545 308.805 224.81C308.062 225.365 307.212 225.913 306.743 226.67C305.094 229.331 303.738 232.133 303.462 235.333C303.122 239.277 304.604 241.789 308.325 242.997C309.976 243.533 311.772 243.769 313.517 243.849C319.727 244.139 325.708 242.75 331.593 240.986C344.296 237.178 356.236 231.606 367.741 225.064C368.54 224.609 369.271 224.036 370.217 223.395C370.108 215.795 368.104 208.672 365.551 201.281ZM235.483 163.592C236.532 163.947 237.276 164.29 238.055 164.448C245.988 166.056 253.904 167.762 261.87 169.179C269.027 170.453 276.247 171.286 283.545 171.335C289.893 171.378 296.202 171.015 302.49 170.148C309.383 169.198 316.253 168.096 322.98 166.299C327.122 165.192 330.387 162.746 332.969 159.043C328.751 151.273 323.186 144.887 315.84 140.029C313.129 144.997 311.511 146.373 305.915 148.416C304.552 148.914 303.164 149.369 301.756 149.719C290.171 152.594 278.526 152.723 266.859 150.298C263.807 149.664 260.833 148.693 258.101 147.126C256.373 146.134 254.786 144.981 253.84 143.137C253.577 142.623 253.23 142.151 252.781 141.434C244.967 147.349 239.358 154.606 235.483 163.592ZM322.873 204.931C324.128 198.431 322.84 174.008 321.009 169.086C320.53 169.086 320.013 169.031 319.51 169.094C310.646 170.185 301.8 171.459 292.914 172.323C288.284 172.773 283.574 172.726 278.919 172.498C274.364 172.273 269.839 171.491 265.294 171.026C256.503 170.126 247.851 168.452 239.242 166.516C237.843 166.201 236.465 165.79 234.831 165.357C230.41 175.997 229.771 186.906 230.91 197.991C237.058 201.801 243.584 203.826 250.193 205.683C257.643 207.776 265.394 207.905 272.944 209.318C273.248 209.374 273.567 209.354 273.878 209.36C278.451 209.437 283.023 209.577 287.595 209.568C291.127 209.561 294.673 209.538 298.186 209.216C302.525 208.819 306.836 208.112 311.156 207.523C315.167 206.977 319.102 206.103 322.873 204.931ZM339.354 209.314C339.774 204.981 339.656 201.837 338.958 200.323C338.041 200.784 337.138 201.265 336.213 201.699C334.71 202.405 333.229 203.178 331.675 203.752C324.739 206.315 317.662 208.348 310.282 209.168C306.979 209.535 303.685 209.976 300.378 210.283C297.59 210.542 294.789 210.686 291.992 210.82C291.067 210.864 290.134 210.666 289.204 210.671C285.058 210.697 280.905 210.908 276.765 210.758C273.143 210.627 269.538 210.057 265.918 209.762C254.316 208.812 243.151 206.262 232.761 200.816C232.416 200.635 232.017 200.554 231.483 200.374C231.363 200.91 231.219 201.283 231.208 201.66C231.03 207.268 230.842 212.877 230.722 218.486C230.678 220.563 230.785 222.643 230.863 224.721C230.947 226.899 231.148 229.076 231.178 231.256C231.246 236.35 231.272 241.445 231.259 246.541C231.242 253.046 232.82 259.111 236.286 264.619C241.929 273.587 250.031 279.217 260.25 281.784C262.236 282.283 264.345 282.366 266.405 282.482C270.036 282.685 273.674 282.778 277.309 282.893C281.241 283.02 285.149 283.481 289.113 283.159C294.081 282.756 299.077 282.602 304.062 282.548C306.375 282.523 308.634 282.36 310.835 281.716C325.593 277.388 335.484 268.258 338.648 252.838C339.435 249.005 339.373 244.998 339.678 241.07C339.689 240.92 339.46 240.752 339.25 240.468C338.321 240.765 337.341 241.074 336.362 241.388C330.117 243.389 323.808 245.096 317.221 245.526C313.974 245.737 310.762 245.525 307.678 244.468C303.206 242.934 301.052 239.343 302.082 234.698C302.635 232.194 303.845 229.84 304.691 227.396C305.335 225.536 306.582 224.227 308.144 223.115C311.137 220.984 314.48 219.556 317.854 218.195C324.789 215.399 331.738 212.638 338.676 209.853C338.861 209.779 339 209.601 339.354 209.314ZM276.507 129.644C275.515 129.274 274.564 128.948 273.636 128.568C271.251 127.59 269.373 126.015 268.156 123.721C267.435 122.363 267.417 121.8 267.874 119.736C269.513 120.186 270.785 121.872 272.96 121.238C272.535 120.754 272.207 120.326 271.827 119.952C269.787 117.947 269.016 115.383 268.654 112.662C268.514 111.62 268.659 110.586 269.603 109.627C270.088 109.837 270.629 110.054 271.156 110.299C272.096 110.737 272.987 111.341 273.972 111.615C281.843 113.803 285.701 119.693 288.181 126.88C288.45 127.657 288.644 128.46 288.908 129.373C291.597 129.786 294.257 130.124 296.891 130.611C305.335 132.173 312.949 135.642 319.555 141.106C332.283 151.638 339.919 165.036 341.867 181.56C342.569 187.518 342.295 193.386 340.662 199.177C340.467 199.868 340.3 200.626 340.377 201.325C340.647 203.772 341.03 206.207 341.397 208.836C349.975 206.599 357.967 203.478 365.62 199.469C366.255 199.808 366.789 200.092 367.356 200.395C367.625 200.301 367.928 200.227 368.2 200.094C371.09 198.681 373.93 197.159 376.878 195.885C378.071 195.37 379.506 195.153 380.81 195.219C382.834 195.323 383.516 196.667 382.674 198.473C382.414 199.031 382.017 199.526 381.603 200.173C381.828 200.894 382.078 201.674 382.311 202.457C383.366 206.009 382.876 209.451 381.537 212.821C380.646 215.063 378.915 216.534 376.885 217.684C375.263 218.602 373.6 219.451 371.816 220.406C371.753 221.761 371.693 223.09 371.618 224.699C368.014 226.704 364.372 228.915 360.568 230.799C355.076 233.52 349.51 236.105 343.884 238.535C341.968 239.363 341.055 240.428 341.154 242.474C341.209 243.614 341.113 244.761 341.108 245.905C341.081 251.501 339.823 256.755 337.343 261.818C335.544 265.491 333.474 268.933 330.767 271.957C326.743 276.448 321.828 279.693 316.203 281.871C315.672 282.075 315.212 282.488 314.763 282.857C314.663 282.94 314.748 283.248 314.748 283.609C318 284.194 321.192 285.035 323.744 287.756C323.28 290.596 322.618 293.421 320.437 295.54C318.425 297.495 316.167 299.133 313.593 300.374C306.097 303.987 298.282 304.865 290.195 303.215C287.989 302.763 285.894 301.761 283.319 300.861C280.231 301.535 276.621 301.787 272.982 301.848C268.322 301.927 264.406 299.964 261.109 297.044C258.461 294.698 257.252 291.416 257.959 287.716C258.056 287.214 258.229 286.726 258.377 286.193C257.064 283.857 255.363 282.262 252.808 281.102C239.062 274.868 231.496 263.937 229.681 249.083C229.232 245.403 229.821 241.607 229.774 237.866C229.674 229.863 229.395 221.861 229.34 213.858C229.311 209.599 229.614 205.338 229.725 201.077C229.753 200.048 229.736 198.988 229.534 197.984C227.185 186.276 228.641 174.993 233.455 164.147C237.752 154.465 244.036 146.278 252.587 139.941C258.855 135.296 265.809 132.128 273.485 130.61C274.401 130.429 275.316 130.244 276.229 130.05C276.286 130.037 276.32 129.923 276.507 129.644Z" fill="black"/>
<path d="M339.354 209.314C339 209.601 338.86 209.78 338.676 209.853C331.737 212.637 324.788 215.399 317.854 218.195C314.48 219.556 311.137 220.983 308.144 223.115C306.581 224.227 305.335 225.535 304.691 227.396C303.844 229.84 302.635 232.194 302.082 234.698C301.053 239.343 303.206 242.934 307.678 244.468C310.762 245.525 313.975 245.737 317.221 245.526C323.807 245.096 330.117 243.389 336.363 241.387C337.341 241.074 338.321 240.765 339.25 240.468C339.459 240.752 339.689 240.92 339.678 241.07C339.373 244.998 339.434 249.005 338.648 252.837C335.485 268.258 325.593 277.388 310.834 281.716C308.634 282.361 306.375 282.523 304.062 282.548C299.076 282.602 294.081 282.756 289.113 283.159C285.149 283.481 281.241 283.02 277.309 282.895C273.674 282.777 270.036 282.685 266.405 282.482C264.345 282.366 262.236 282.283 260.251 281.784C250.032 279.218 241.93 273.587 236.287 264.619C232.821 259.111 231.241 253.045 231.259 246.541C231.272 241.445 231.246 236.35 231.178 231.256C231.148 229.077 230.947 226.899 230.864 224.721C230.785 222.643 230.678 220.563 230.722 218.487C230.841 212.877 231.03 207.268 231.207 201.66C231.22 201.283 231.364 200.91 231.482 200.374C232.017 200.554 232.416 200.635 232.761 200.816C243.151 206.262 254.315 208.812 265.918 209.762C269.538 210.057 273.143 210.627 276.765 210.759C280.905 210.909 285.058 210.697 289.204 210.671C290.134 210.665 291.067 210.864 291.992 210.82C294.789 210.686 297.59 210.542 300.378 210.282C303.685 209.976 306.979 209.535 310.282 209.169C317.663 208.348 324.738 206.315 331.675 203.752C333.229 203.178 334.71 202.405 336.213 201.699C337.137 201.265 338.041 200.784 338.958 200.323C339.656 201.836 339.774 204.981 339.354 209.314Z" fill="white"/>
<path d="M322.873 204.932C319.102 206.104 315.168 206.978 311.157 207.524C306.836 208.111 302.525 208.818 298.185 209.216C294.673 209.539 291.127 209.561 287.596 209.568C283.023 209.576 278.451 209.438 273.878 209.36C273.567 209.355 273.249 209.374 272.945 209.317C265.394 207.905 257.643 207.777 250.193 205.683C243.584 203.825 237.057 201.802 230.911 197.991C229.772 186.906 230.411 175.998 234.831 165.357C236.465 165.789 237.843 166.201 239.242 166.515C247.85 168.451 256.503 170.126 265.294 171.025C269.839 171.491 274.364 172.273 278.919 172.497C283.573 172.727 288.283 172.772 292.914 172.323C301.8 171.46 310.646 170.184 319.51 169.093C320.012 169.032 320.529 169.085 321.009 169.085C322.84 174.009 324.128 198.432 322.873 204.932Z" fill="white"/>
<path d="M235.483 163.592C239.358 154.605 244.966 147.348 252.78 141.434C253.23 142.15 253.576 142.623 253.84 143.137C254.786 144.982 256.373 146.133 258.101 147.126C260.832 148.694 263.806 149.664 266.858 150.298C278.525 152.724 290.17 152.593 301.755 149.719C303.164 149.37 304.551 148.914 305.915 148.416C311.511 146.373 313.129 144.996 315.84 140.028C323.185 144.887 328.749 151.274 332.967 159.043C330.387 162.745 327.121 165.192 322.979 166.298C316.251 168.095 309.383 169.199 302.488 170.149C296.201 171.015 289.892 171.378 283.544 171.334C276.247 171.286 269.027 170.454 261.87 169.179C253.903 167.761 245.988 166.056 238.055 164.449C237.274 164.291 236.532 163.948 235.483 163.592Z" fill="white"/>
<path d="M365.55 201.281C368.103 208.672 370.107 215.795 370.216 223.394C369.27 224.036 368.54 224.609 367.741 225.064C356.236 231.606 344.295 237.178 331.592 240.986C325.707 242.75 319.726 244.139 313.516 243.849C311.773 243.769 309.977 243.533 308.325 242.997C304.603 241.789 303.121 239.277 303.461 235.333C303.737 232.133 305.093 229.331 306.743 226.67C307.212 225.913 308.063 225.365 308.804 224.81C311.828 222.545 315.282 221.099 318.743 219.675C323.066 217.897 327.364 216.052 331.733 214.396C336.197 212.705 340.707 211.121 345.247 209.646C351.479 207.621 357.681 205.551 363.399 202.268C363.927 201.965 364.51 201.755 365.55 201.281Z" fill="white"/>
<path d="M255.293 139.63C262.304 134.844 270.033 132.09 278.487 131.308C279.664 131.199 280.571 131.569 281.146 132.53C281.942 133.858 282.732 135.214 283.313 136.644C283.932 138.166 284.894 139.014 286.66 139.119C289.205 137.195 288.358 134.032 289.21 131.391C289.882 131.312 290.487 131.139 291.073 131.187C298.312 131.783 305.173 133.68 311.526 137.261C314.636 139.014 314.948 140.92 312.253 143.246C310.786 144.513 309.03 145.537 307.254 146.337C302.27 148.583 296.913 149.492 291.529 149.967C283.534 150.673 275.522 150.671 267.653 148.793C264.941 148.146 262.289 147.179 259.695 146.144C258.477 145.658 257.398 144.74 256.373 143.879C255.177 142.877 254.634 141.567 255.293 139.63Z" fill="white"/>
<path d="M333.913 161.576C338.791 169.081 341.824 186.897 339.519 198.069C335.159 200.899 330.309 202.867 324.895 204.227C324.804 203.276 324.664 202.488 324.663 201.702C324.658 197.126 324.704 192.55 324.695 187.974C324.683 181.934 324.383 175.918 323.146 169.982C323.064 169.591 323.135 169.168 323.135 168.625C326.799 166.513 330.658 164.682 333.913 161.576Z" fill="#CAE4E4"/>
<path d="M312.004 288.575C312.441 287.79 312.937 286.897 313.462 285.953C316.823 284.983 319.498 286.33 322.077 288.079C321.289 293.073 318.053 295.925 314.177 298.091C306.852 302.187 299.007 303.644 290.75 301.76C288.994 301.36 287.351 300.284 285.784 299.313C285.161 298.927 284.603 298.02 284.504 297.284C284.207 295.046 284.033 292.776 284.458 290.218C293.774 291.563 302.891 291.307 312.004 288.575Z" fill="white"/>
<path d="M259.555 287.582C263.516 288.381 267.138 289.341 270.82 289.792C274.487 290.238 278.216 290.172 282.143 290.341C282.291 293.191 282.441 296.055 282.608 299.27C282.056 299.447 281.323 299.836 280.563 299.898C278.184 300.094 275.79 300.123 273.408 300.296C269.187 300.603 265.608 298.854 262.52 296.364C259.884 294.239 259.033 291.088 259.555 287.582Z" fill="white"/>
<path d="M367.835 201.996C371.29 199.567 374.998 198.017 378.859 196.821C379.58 196.597 380.428 196.788 381.589 196.788C381.198 197.619 380.993 198.146 380.711 198.628C380.454 199.067 380.113 199.457 379.797 199.886C380.195 201.33 380.724 202.692 380.916 204.101C381.11 205.524 381.066 207 380.957 208.44C380.543 213.89 377.701 216.953 371.987 218.101C371.811 217.665 371.565 217.22 371.446 216.743C370.235 211.847 369.044 206.944 367.835 201.996Z" fill="white"/>
<path d="M270.235 111.835C272.502 112.708 274.622 113.513 276.733 114.34C280.254 115.72 282.251 118.724 284 121.747C286.447 125.973 287.338 130.651 286.627 135.55C286.542 136.132 286.314 136.692 286.012 137.758C285.332 136.887 284.83 136.43 284.562 135.863C283.723 134.083 282.945 132.32 281.563 130.818C279.884 128.993 278.032 127.642 275.554 127.242C273.646 126.935 272.012 126.053 270.664 124.705C270.114 124.156 269.77 123.4 269.123 122.421C271.808 122.453 274.1 123.302 276.57 122.572C276.119 121.202 274.986 120.755 274.101 120.163C271.567 118.467 270.429 116.022 270.065 113.119C270.018 112.747 270.161 112.35 270.235 111.835Z" fill="white"/>
<path d="M311.984 283.326C311.314 287.294 311.089 287.435 307.683 288.213C301.458 289.634 295.158 289.651 288.846 289.329C287.435 289.257 286.017 288.759 284.666 288.276C283.525 287.867 283.072 286.81 283.372 285.812C283.673 284.812 284.507 284.71 285.361 284.705C286.913 284.698 288.468 284.785 290.018 284.716C295.599 284.472 301.18 284.203 306.758 283.89C308.481 283.793 310.194 283.524 311.984 283.326Z" fill="white"/>
<path d="M258.798 283.522C266.203 283.994 273.589 284.464 281.222 284.95C281.349 285.94 281.46 286.808 281.575 287.707C279.172 288.711 276.88 288.375 274.627 288.368C273.385 288.364 272.136 288.142 270.903 288.221C268.037 288.405 265.365 287.496 262.653 286.867C260.927 286.467 260.386 285.829 258.798 283.522Z" fill="white"/>
<path d="M221.908 245.253C122.036 183.082 89.1337 169.67 0.0472646 166.896L0.0472644 401.958L0.0472604 504.747L559.194 504.748C516.33 472.079 523.684 471.993 411.57 466.079C271.428 458.687 346.749 322.968 221.908 245.253Z" fill="#3DA3B4" stroke="black"/>
</g>
<defs>
<clipPath id="clip0_424_3">
<rect width="720" height="499" fill="white"/>
</clipPath>
</defs>
</svg>
