<svg viewBox="0 0 85 85" fill="none" xmlns="http://www.w3.org/2000/svg">
<g opacity="0.5" clip-path="url(#clip0_306_268)">
<path fill-rule="evenodd" clip-rule="evenodd" d="M3.13437 8.44688C1.13906 10.4303 0.0118617 13.1241 0 15.9375L0 58.4375C0.0118617 61.2509 1.13906 63.9447 3.13437 65.9281C5.1178 67.9234 7.81162 69.0506 10.625 69.0625H39.8438C40.5482 69.0625 41.2239 68.7827 41.722 68.2845C42.2201 67.7864 42.5 67.1107 42.5 66.4063C42.5 65.7018 42.2201 65.0261 41.722 64.528C41.2239 64.0299 40.5482 63.75 39.8438 63.75H10.625C9.92584 63.754 9.23276 63.62 8.5855 63.3557C7.93823 63.0913 7.34952 62.7018 6.85312 62.2094C6.36075 61.713 5.97121 61.1243 5.70684 60.477C5.44247 59.8297 5.30846 59.1367 5.3125 58.4375V31.875H74.375V37.1875C74.375 37.892 74.6549 38.5676 75.153 39.0658C75.6511 39.5639 76.3268 39.8438 77.0312 39.8438C77.7357 39.8438 78.4114 39.5639 78.9095 39.0658C79.4076 38.5676 79.6875 37.892 79.6875 37.1875V15.9375C79.6875 13.1196 78.5681 10.4171 76.5755 8.42449C74.5829 6.43192 71.8804 5.3125 69.0625 5.3125H10.625C7.81162 5.32436 5.1178 6.45156 3.13437 8.44688ZM74.375 26.5625H5.3125V15.9375C5.30846 15.2383 5.44247 14.5453 5.70684 13.898C5.97121 13.2507 6.36075 12.662 6.85312 12.1656C7.34952 11.6733 7.93823 11.2837 8.5855 11.0193C9.23276 10.755 9.92584 10.621 10.625 10.625H69.0625C70.4715 10.625 71.8227 11.1847 72.819 12.181C73.8153 13.1773 74.375 14.5285 74.375 15.9375V26.5625ZM15.1406 20.4531C14.9021 20.7072 14.6141 20.9098 14.2943 21.0482C13.9745 21.1866 13.6297 21.2581 13.2812 21.2581C12.9328 21.2581 12.588 21.1866 12.2682 21.0482C11.9484 20.9098 11.6604 20.7072 11.4219 20.4531C11.1678 20.2146 10.9653 19.9266 10.8268 19.6068C10.6884 19.287 10.6169 18.9422 10.6169 18.5938C10.6169 18.2453 10.6884 17.9005 10.8268 17.5807C10.9653 17.2609 11.1678 16.9729 11.4219 16.7344C11.6604 16.4803 11.9484 16.2778 12.2682 16.1393C12.588 16.0009 12.9328 15.9294 13.2812 15.9294C13.6297 15.9294 13.9745 16.0009 14.2943 16.1393C14.6141 16.2778 14.9021 16.4803 15.1406 16.7344C15.3947 16.9729 15.5972 17.2609 15.7357 17.5807C15.8741 17.9005 15.9456 18.2453 15.9456 18.5938C15.9456 18.9422 15.8741 19.287 15.7357 19.6068C15.5972 19.9266 15.3947 20.2146 15.1406 20.4531ZM23.1094 20.4531C22.881 20.7576 22.5899 21.0094 22.2558 21.1916C21.9217 21.3737 21.5523 21.482 21.1727 21.5089C20.7931 21.5359 20.4121 21.481 20.0555 21.3479C19.699 21.2149 19.3752 21.0067 19.1061 20.7376C18.837 20.4685 18.6289 20.1447 18.4958 19.7882C18.3627 19.4317 18.3078 19.0507 18.3348 18.6711C18.3618 18.2915 18.47 17.9221 18.6522 17.5879C18.8343 17.2538 19.0862 16.9627 19.3906 16.7344C19.619 16.4299 19.9101 16.1781 20.2442 15.9959C20.5783 15.8138 20.9477 15.7055 21.3273 15.6786C21.7069 15.6516 22.0879 15.7065 22.4445 15.8396C22.801 15.9726 23.1248 16.1808 23.3939 16.4499C23.663 16.719 23.8711 17.0428 24.0042 17.3993C24.1373 17.7558 24.1922 18.1368 24.1652 18.5164C24.1382 18.896 24.03 19.2654 23.8478 19.5996C23.6657 19.9337 23.4138 20.2248 23.1094 20.4531ZM31.0781 20.4531C31.3826 20.2248 31.6344 19.9337 31.8166 19.5996C31.9987 19.2654 32.107 18.896 32.1339 18.5164C32.1609 18.1368 32.106 17.7558 31.9729 17.3993C31.8399 17.0428 31.6317 16.719 31.3626 16.4499C31.0935 16.1808 30.7697 15.9726 30.4132 15.8396C30.0567 15.7065 29.6757 15.6516 29.2961 15.6786C28.9165 15.7055 28.5471 15.8138 28.2129 15.9959C27.8788 16.1781 27.5877 16.4299 27.3594 16.7344C27.0549 16.9627 26.8031 17.2538 26.6209 17.5879C26.4388 17.9221 26.3305 18.2915 26.3036 18.6711C26.2766 19.0507 26.3315 19.4317 26.4646 19.7882C26.5976 20.1447 26.8058 20.4685 27.0749 20.7376C27.344 21.0067 27.6678 21.2149 28.0243 21.3479C28.3808 21.481 28.7618 21.5359 29.1414 21.5089C29.521 21.482 29.8904 21.3737 30.2246 21.1916C30.5587 21.0094 30.8498 20.7576 31.0781 20.4531ZM79.6875 74.375C82.7352 71.3745 84.6484 67.4102 85.1011 63.1573C85.5537 58.9045 84.5179 54.6262 82.17 51.0515C79.8221 47.4767 76.3074 44.8265 72.2247 43.5525C68.142 42.2784 63.7439 42.4593 59.7796 44.0643C55.8153 45.6692 52.5301 48.599 50.4837 52.3545C48.4372 56.11 47.7562 60.4589 48.5565 64.6602C49.3568 68.8615 51.589 72.6554 54.8728 75.3955C58.1566 78.1356 62.2889 79.6524 66.5656 79.6875C68.9954 79.7133 71.4062 79.257 73.6585 78.3452C75.9108 77.4333 77.96 76.0839 79.6875 74.375ZM57.375 50.6813C57.7032 50.5756 58.0562 50.5756 58.3844 50.6813L76.075 57.8C76.3912 57.9144 76.6678 58.1172 76.8719 58.3844C77.0617 58.677 77.1627 59.0184 77.1627 59.3672C77.1627 59.716 77.0617 60.0574 76.8719 60.35C76.711 60.6271 76.4703 60.8493 76.1813 60.9875L71.2937 63.4313L76.6062 68.7438C76.9405 69.0848 77.1307 69.5413 77.1375 70.0188C77.1226 70.4789 76.9326 70.9159 76.6062 71.2406C76.2847 71.5716 75.8457 71.7625 75.3844 71.7719C74.9069 71.7651 74.4504 71.5749 74.1094 71.2406L68.7969 65.9281L66.3531 70.8156C66.2149 71.1047 65.9927 71.3454 65.7156 71.5063C65.423 71.6961 65.0816 71.7971 64.7328 71.7971C64.384 71.7971 64.0427 71.6961 63.75 71.5063C63.4828 71.3022 63.28 71.0256 63.1656 70.7094L55.8875 53.125C55.7819 52.7968 55.7819 52.4438 55.8875 52.1156C55.9547 51.7743 56.122 51.4608 56.3679 51.2148C56.6139 50.9688 56.9275 50.8016 57.2687 50.7344L57.375 50.6813Z" fill="#3EAAAF"/>
</g>
<defs>
<clipPath id="clip0_306_268">
<rect width="85" height="85" fill="white"/>
</clipPath>
</defs>
</svg>
