<svg viewBox="0 0 33 34" xmlns="http://www.w3.org/2000/svg">
    <g>
        <rect width="32" height="32" fill="transparent" transform="translate(1 1.5)"/>

        <g>
            <rect width="27.6335" height="27.6335" fill="transparent" transform="translate(0.640625 5.68311)"/>
            <path d="M12.2974 7.4102C12.641 7.4102 12.9704 7.54667 13.2133 7.78959C13.4563 8.03251 13.5927 8.36198 13.5927 8.70552V19.4999C13.5927 19.7289 13.6837 19.9486 13.8457 20.1105C14.0076 20.2724 14.2273 20.3634 14.4563 20.3634C14.6853 20.3634 14.905 20.2724 15.0669 20.1105C15.2289 19.9486 15.3198 19.7289 15.3198 19.4999V15.1251L15.4684 15.1182C16.0159 15.0975 16.5685 15.1044 16.8777 15.1649C17.1091 15.2115 17.3854 15.3307 17.6514 15.4792C17.7844 15.5517 17.9105 15.7331 17.9105 16.0215V19.4999C17.9105 19.7289 18.0015 19.9486 18.1634 20.1105C18.3254 20.2724 18.545 20.3634 18.774 20.3634C19.0031 20.3634 19.2227 20.2724 19.3846 20.1105C19.5466 19.9486 19.6376 19.7289 19.6376 19.4999V16.797C19.6985 16.7906 19.7596 16.7848 19.8206 16.7797C20.3664 16.7383 20.8293 16.7624 21.0434 16.8488C21.2472 16.9282 21.5616 17.2063 21.8828 17.5914C22.0227 17.7572 22.1419 17.9196 22.2282 18.0388V20.3634C22.2282 20.5925 22.3192 20.8121 22.4811 20.974C22.6431 21.136 22.8627 21.227 23.0918 21.227C23.3208 21.227 23.5404 21.136 23.7024 20.974C23.8643 20.8121 23.9553 20.5925 23.9553 20.3634V18.6363H24.546C24.7874 18.6363 25.0261 18.6869 25.2467 18.7848C25.4673 18.8828 25.6649 19.0258 25.8268 19.2048C25.9888 19.3839 26.1114 19.5948 26.1867 19.8241C26.2621 20.0534 26.2886 20.296 26.2644 20.5361L25.7964 25.2252C25.736 25.8278 25.5494 26.4109 25.2489 26.9368L22.8396 31.1543C22.7641 31.2865 22.655 31.3964 22.5234 31.4728C22.3918 31.5492 22.2423 31.5895 22.0901 31.5896H11.0625C10.9203 31.5895 10.7803 31.5543 10.655 31.4871C10.5297 31.4199 10.4229 31.3228 10.3441 31.2044L7.86914 27.4912C7.63935 27.1468 7.49543 26.7523 7.44946 26.3409L6.85361 20.9783C6.82952 20.7634 6.88696 20.5472 7.01456 20.3726C7.14216 20.198 7.33064 20.0776 7.54272 20.0353L9.275 19.6899V21.227C9.275 21.456 9.36598 21.6756 9.52792 21.8376C9.68987 21.9995 9.90952 22.0905 10.1385 22.0905C10.3676 22.0905 10.5872 21.9995 10.7492 21.8376C10.9111 21.6756 11.0021 21.456 11.0021 21.227V8.70552C11.0021 8.36198 11.1386 8.03251 11.3815 7.78959C11.6244 7.54667 11.9539 7.4102 12.2974 7.4102V7.4102ZM15.3198 13.3963V8.70552C15.3198 7.90393 15.0014 7.13516 14.4346 6.56835C13.8678 6.00154 13.099 5.68311 12.2974 5.68311C11.4958 5.68311 10.7271 6.00154 10.1602 6.56835C9.59343 7.13516 9.275 7.90393 9.275 8.70552V17.9282L7.20248 18.3427C6.56722 18.4701 6.00273 18.8309 5.62036 19.3539C5.23799 19.877 5.06549 20.5243 5.13687 21.1683L5.73272 26.5326C5.80935 27.2184 6.04921 27.8757 6.4322 28.4497L8.90713 32.1629C9.14368 32.5178 9.46418 32.8088 9.84018 33.01C10.2162 33.2113 10.6361 33.3166 11.0625 33.3167H22.0901C22.5467 33.3165 22.9952 33.1957 23.3901 32.9664C23.785 32.7371 24.1122 32.4075 24.3387 32.011L26.748 27.7951C27.1692 27.0582 27.4305 26.2408 27.5149 25.3962L27.9829 20.7071C28.0309 20.2269 27.9778 19.742 27.8269 19.2836C27.6761 18.8252 27.4308 18.4035 27.107 18.0457C26.7832 17.6879 26.388 17.4019 25.9469 17.2061C25.5058 17.0104 25.0286 16.9093 24.546 16.9092H23.5425C23.4347 16.763 23.3224 16.6202 23.2058 16.4809C22.8759 16.0854 22.3249 15.4999 21.6859 15.2443C21.0572 14.9922 20.2248 15.0163 19.6859 15.0578L19.458 15.0785C19.2741 14.6078 18.9321 14.2158 18.4908 13.9697C18.0934 13.7406 17.6637 13.5729 17.2162 13.4723C16.6808 13.3652 15.9399 13.3721 15.4027 13.3929L15.3198 13.3963Z" fill-opacity="0.54"/>
        </g>
        <g >
            <rect width="14" height="14" fill="transparent" transform="translate(15 0.683105)"/>
            <path d="M23.7172 6.89409L23.7171 6.89407L23.7138 6.89751L23.19 7.4329C23.1898 7.4331 23.1896 7.43331 23.1894 7.43351C22.9725 7.65353 22.7581 7.89061 22.6072 8.21025C22.5038 8.42919 22.4371 8.67099 22.4047 8.95345H22.0954C22.1311 8.49095 22.3346 8.07169 22.6463 7.75567L22.6467 7.75533L23.367 7.02342C23.6645 6.73202 23.8398 6.32907 23.8398 5.89095C23.8398 5.00766 23.119 4.28678 22.2357 4.28678C21.5039 4.28678 20.8837 4.78151 20.6924 5.45345H20.3905C20.5879 4.61704 21.3387 3.99512 22.2357 3.99512C23.2832 3.99512 24.1315 4.84341 24.1315 5.89095C24.1315 6.2836 23.971 6.64029 23.7172 6.89409ZM22.2357 1.37012C18.7741 1.37012 15.9648 4.17933 15.9648 7.64095C15.9648 11.1026 18.7741 13.9118 22.2357 13.9118C25.6973 13.9118 28.5065 11.1026 28.5065 7.64095C28.5065 4.17933 25.6973 1.37012 22.2357 1.37012ZM22.0898 11.2868V10.9951H22.3815V11.2868H22.0898Z" fill-opacity="0.87" stroke="white" stroke-width="0.875"/>
        </g>
    </g>

</svg>
