<svg xmlns="http://www.w3.org/2000/svg" viewBox="0 0 525 558">
  <path d="M475,293.62871 L475,251.979282 C475,203.911926 465.289107,162.624183 446.005966,127.949598 C425.291483,90.997764 398.103195,62.9028227 364.237456,43.3628318 C330.312773,23.7888317 291.91935,14 248.735107,14 C221.048282,14 195.27379,18.008137 171.388428,25.9969257 C147.513408,33.982255 126.894562,44.8264186 109.461203,58.5127019 C91.7695014,72.4017998 76.1811241,88.7917147 62.6636216,107.737211 C49.0554843,126.809737 38.3054961,147.102302 30.3846077,168.690207 C28.8000383,173.008758 27.3132141,177.362001 25.9241789,181.750446 C27.4861073,180.156988 29.0651016,178.57555 30.6610705,177.006191 C46.476762,161.454661 64.5652382,147.001953 84.8586459,133.680493 C105.479052,120.144377 128.646503,109.300678 154.393544,101.105219 C180.106695,92.9205463 206.971728,88.3150033 234.90692,87.2718341 L235.560967,87.2474104 L242.632219,87.6445752 C247.818541,87.8872253 253.999493,88.8342326 261.481134,90.4651653 C268.441478,91.9824601 276.191699,94.108055 284.876088,96.8507638 C294.427065,99.8548356 303.680937,104.562548 312.588326,110.897477 C321.382685,117.114497 329.286047,124.581455 336.252681,133.21173 C343.738143,142.484729 349.217624,154.333538 352.823871,168.57998 C356.432423,182.686858 357.322055,198.156245 355.567898,214.94342 L354.257023,227.488428 L137.201506,227.488428 L139.971276,211.148653 C142.685176,195.138474 146.409531,180.967402 151.181,168.649208 C133.068722,182.357661 117.998615,198.221599 105.927698,216.244216 C85.0970829,247.345596 74.8988259,285.215747 75.4608109,330.274759 C75.8286195,366.102664 87.2096337,400.149479 109.791295,432.593316 C132.389113,465.060366 160.882456,487.85281 195.457255,501.220323 C221.610753,511.241704 251.037178,516.183811 283.871735,515.994779 C317.17586,515.803043 346.82109,512.186123 372.762985,505.21218 C395.347384,499.140831 414.527543,491.835519 430.28339,483.356367 L430.28339,404.510965 C420.197868,409.656813 409.232294,414.201897 397.383945,418.16102 C376.602117,425.105261 355.1839,429.906053 333.087176,432.562484 C310.624946,435.262855 288.374384,434.946998 266.303505,431.610964 C244.140124,428.260948 224.070737,422.223888 206.182548,413.487657 C187.303265,404.267395 171.898059,390.432665 160.172783,372.212475 C148.335859,353.818793 142.346907,332.224847 142.12497,307.755686 L141.996837,293.62871 L475,293.62871 Z M218.464618,116.430396 L201.389387,137.820923 C192.641987,148.778988 185.558238,160.195066 180.103557,172.088817 C176.508748,179.927179 173.435536,189.067374 170.90986,199.488428 L328.435583,199.488428 C328.490875,190.825585 327.5682,182.832777 325.68867,175.485025 C323.005503,164.885335 319.208624,156.674977 314.465426,150.799098 C309.100972,144.153605 303.082843,138.467783 296.392807,133.738308 C289.776079,129.032548 283.14248,125.657844 276.45934,123.555784 C268.518527,121.047921 261.568205,119.141708 255.51743,117.822692 C249.411168,116.491579 244.661735,115.765802 241.280534,115.611991 L241.131646,115.604424 L235.305265,115.277179 C229.638324,115.501144 224.02472,115.885528 218.464618,116.430396 Z M100.22418,157.087765 C81.4262233,169.427547 64.7687087,182.736915 50.2927767,196.971062 C35.7929437,211.229144 22.8381904,226.53915 11.495856,242.857615 L-21.1448858,289.818566 L-13.8867979,233.090539 C-10.6056,207.445233 -4.60765491,182.77202 4.09820168,159.045267 C12.8869754,135.091993 24.8150441,112.575586 39.870555,91.4744892 C54.926848,70.3722966 72.3637307,52.0388281 92.1710712,36.4888205 C112.205663,20.7604065 135.674548,8.41730876 162.507038,-0.557187485 C189.321995,-9.52581925 218.093401,-14 248.735107,-14 C296.721157,-14 339.946296,-2.97926818 378.230794,19.1102753 C416.548784,41.2191436 447.298484,72.9942604 470.453294,114.299475 C492.189577,153.385065 503,199.347674 503,251.979282 L503,321.62871 L171.095753,321.62871 C172.878182,334.998139 177.095433,346.768199 183.71855,357.060021 C192.701853,371.019393 204.232341,381.374412 218.470093,388.327843 C233.71168,395.771526 251.05187,400.987619 270.488199,403.925438 C290.057448,406.883349 309.776319,407.163267 329.745127,404.762651 C349.965813,402.331754 369.530406,397.946443 388.510058,391.604398 C407.167952,385.369869 423.059039,377.633468 436.25958,368.401082 L458.28339,352.99775 L458.28339,499.437118 L451.477551,503.513857 C432.14701,515.092968 408.328279,524.645307 380.032121,532.252145 C351.645217,539.883377 319.630634,543.789375 284.032932,543.994315 C247.839191,544.202686 214.970405,538.682441 185.399402,527.351489 C145.494764,511.9234 112.549522,485.569786 86.8099466,448.588867 C61.0885231,411.634027 47.8892019,372.147664 47.4626374,330.593083 C46.8331759,280.126968 58.528355,236.698155 82.6636106,200.662745 C102.319844,171.314788 128.799113,147.108177 161.914542,128.097284 C138.932635,135.498061 118.401809,145.155192 100.22418,157.087765 Z" transform="translate(22 14)"/>
</svg>
