<svg xmlns="http://www.w3.org/2000/svg" viewBox="0 0 512 512">
  <path d="M511.998,221.04 C500.066,235.142 481.998,241.04 481.998,241.04 C505.862,179.209 477.285,78.486 459.93,62.958 C462.998,86.04 459.337,98.108 454.998,110.04 C421.371,65.565 359.744,17.396 298.998,0.04 C365.167,34.752 430.422,166.871 424.998,233.04 C424.998,233.04 413.998,211.04 380.998,202.04 C418.998,279.04 378.574,372.04 280.947,372.04 C210.549,372.04 191.727,342.955 181.998,329.04 L181.998,328.04 C188.005,329.511 196.476,330.163 201.529,330.163 C220.451,330.163 233.547,321.032 247.321,311.621 C252.295,308.237 256.783,307.019 260.897,307.019 C271.457,307.019 279.553,315.041 287.111,315.041 C293.838474,315.041 306.317765,302.83365 300.47854,289.796025 C299.426975,287.448128 297.781322,285.073304 295.401,282.738 C289.01,276.468 290.795,277.042 273.609,277.041 C273.603,277.041 263.599,267.041 263.593,267.041 C259.406,267.042 256.845,267.403 252.148,268.57 C238.062,272.119 211.365,302.041 194.789,302.041 C185.017,302.041 157,278.346 157,236.041 C157,221.939 173.709,211.187 174,211.041 C174.923,210.81 175.894,210.704 176.898,210.704 C188.958,210.704 206,226.041 206,226.041 C206,226.041 199.831,200.953 187,190.041 C188.309,183.788 232.54,167.269 235.303,165.233 C239.084,162.47 243.528,158.341 246,153.251 C247.745,150.052 250.3,144.73 250.009,138.041 C249.739,133.586 245.147,130.994 212.969,130.994 C210.481,130.994 207.828,131.01 205,131.041 C204.93,131.042 204.859,131.042 204.789,131.042 C194.061,131.042 180.605,120.076 180,112.041 C184.654,95.026 198.438,72.203 214,62.041 C214,62.041 213.621,62.027 212.913,62.027 C206.156,62.027 166.448,63.295 144,90.041 C134.094,87.888 127.237,87.041 118.086,87.041 C118.057,87.041 118.029,87.041 118,87.041 C105.939,87.048 65.106,98.577 57,101.041 C51.748,97.74 58,62.651 58,42.041 C58,42.041 33,64.73 33,128.041 C33,129.495 33,130.877 33,132.041 C26.747,140.621 0,183.366 0,270.146 C0,387.54 79.228,511.958 248.407,511.958 C420.881,511.958 496.302,394.276 506,368.041 C488,381.041 458,381.041 458,381.041 C474.998,361.039 511.998,304.565 511.998,221.04 Z M425.998,421.039 L430.084,421.039 C410.849,435.587 369.411,467.205 346.302,475.596 C316.407,486.452 283.469,491.956 248.405,491.956 C213.432,491.956 171.701,475.903 144.094,463.967 C119.463,453.317 98.09,437.987 80.571,418.404 C64.151,400.05 45.405,368.377 36.687,343.989 C28.386,320.768 23.998,295.233 23.998,270.144 C23.998,191.254 48.29,157.018 49.324,155.599 L56.998,145.069 L81.167,124.619 L98.632,119.309 C100.379,118.778 106.94,117.045 117.997,117.038 L118.083,127.038 C125.259,127.038 132.129,117.74 138.5,119.125 L143.734,120.263 C148.738,132.525 158.282,152.858 169.583,160.054 C165.842,163.976 162.811,168.269 160.64,173.146 L160.036,173.297 L156.108,175.261 C145.963,180.336 126.998,212.039 126.998,248.039 C126.998,318.039 145.963,381.041 280.947,402.039 C336.498884,410.680605 403.075902,360.825845 422.329,313.054 C481.998,165 380.998,62.958 380.998,62.958 C552.5,202.04 391.5,421.039 391.5,421.039 L425.998,421.039 Z"/>
</svg>
