<svg xmlns="http://www.w3.org/2000/svg" viewBox="0 0 559 541">
  <path d="M545.5,271.182557 C545.5,281.487428 545.034628,290.992531 544.028532,300.04432 L542.792652,311.163463 L203.919577,311.163463 C205.38035,322.459709 208.872166,333.325681 214.183105,343.273972 C230.423603,373.209489 261.794555,392.288879 296.457864,392.288879 C331.120546,392.288879 362.489712,373.210087 378.73168,343.273691 L382.27939,336.734725 L537.544249,336.734725 L531.871266,353.287367 C497.012865,454.997292 401.294014,524.573795 292.07025,524.573795 C253.75192,524.573795 216.637117,516.059357 182.845056,499.901115 C107.776893,535.305472 44.9546032,537.726483 8.40783763,501.217066 C-18.19229,474.633728 -18.9868826,416.258414 3.49671783,347.529143 C16.4138668,308.043198 36.1503756,267.547668 61.5914464,228.731837 L31.850509,266.77788 L46.1526701,209.638131 C74.1390681,97.8273535 175.120752,17.9544588 292.073537,17.9544588 C297.493214,17.9544588 302.901378,18.1262886 308.297714,18.4678896 C392.601534,-18.1946661 469.490169,-23.2970122 501.495538,8.54257015 C532.386549,39.6179357 535.660315,89.4653804 514.327769,149.475866 C534.662102,186.462033 545.5,228.059722 545.5,271.182557 Z M296.457864,417.288879 C252.532433,417.288879 212.778418,393.111023 192.168949,355.121754 C183.025226,337.994763 178.141197,318.814947 178.141197,299.057627 L178.141197,286.163463 L520.10164,286.163463 C520.370401,281.390715 520.5,276.414963 520.5,271.182557 C520.5,230.486145 509.807458,191.345112 489.795474,156.874988 L486.816999,151.744642 L488.907949,146.193094 C509.357302,91.8993345 507.332024,49.8748825 483.814631,26.2168641 C473.468739,15.9246512 452.140158,10.8886722 423.130186,12.9572907 C391.990054,15.1778048 354.479784,25.3609761 315.559571,42.5818385 L312.689328,43.8518231 L309.5596,43.6152602 C303.744711,43.1757372 297.916263,42.9544588 292.073537,42.9544588 C210.762102,42.9544588 138.007374,85.794244 97.4132701,151.620754 C121.041698,130.233389 146.363715,113.2462 175.307303,99.3358729 L248.736946,64.0454874 L189.265237,119.727079 C185.804868,122.966919 163.247517,145.290111 154.183083,154.353742 C94.2668491,214.201879 49.7249981,286.622462 27.2576285,355.302117 C7.41737231,415.951048 8.09260978,465.557854 26.0781964,483.532089 C54.0159043,511.441246 108.401909,508.545495 177.422641,474.770933 L183.026,472.028989 L188.58583,474.858155 C220.365299,491.029404 255.58809,499.573795 292.07025,499.573795 C384.481645,499.573795 466.159796,444.327754 501.823162,361.734725 L396.884187,361.734725 C375.448862,395.869323 337.801827,417.288879 296.457864,417.288879 Z M379.080519,222.646098 C370.618239,182.287096 334.665961,152.070048 292.07025,152.070048 C249.473603,152.070048 213.521233,182.287045 205.058091,222.646098 L379.080519,222.646098 Z M178.35487,234.444329 C181.729343,174.432651 231.661339,127.070048 292.07025,127.070048 C352.47813,127.070048 402.410279,174.432778 405.783453,234.444599 L406.525489,247.646098 L177.612531,247.646098 L178.35487,234.444329 Z M413.729561,49.0192442 C442.673237,64.8836893 468.287761,86.2880731 489.074722,111.936026 C495.851833,84.151161 493.390381,63.8362508 482.591774,52.9073852 C470.471578,40.8250734 446.390565,39.2273914 413.729561,49.0192442 Z M500.285671,35.2459013 L500.331751,35.2921866 C522.517272,57.6934026 523.029715,95.8215437 505.376094,143.682325 L496.79954,166.934244 L483.198898,146.216341 C457.50749,107.080534 420.305994,76.5731488 376.803726,59.1895357 L348.762681,47.9842655 L376.5194,36.0921335 C431.537252,12.5201991 475.689875,10.6691526 500.285671,35.2459013 Z M141.266742,474.867836 C108.764792,450.781845 82.3981024,419.221053 64.5331167,382.929612 C46.3135401,427.055289 45.0718861,460.114188 60.0533936,475.091181 C73.685101,488.697055 102.413323,488.97217 141.266742,474.867836 Z M42.3878515,492.780971 C14.4619613,464.870376 20.5885668,411.777587 53.9052026,346.414735 L67.0740386,320.579213 L76.815487,347.892152 C94.5202416,397.532499 129.073283,439.634316 174.143771,466.840248 L194.47769,479.114427 L172.847444,488.925452 C114.73397,515.284503 67.9915242,518.342471 42.3878515,492.780971 Z" transform="translate(13 13)"/>
</svg>
