<svg xmlns="http://www.w3.org/2000/svg" viewBox="0 0 494 558">
  <path d="M233.364588,516 C263.442756,516 291.247731,510.123082 316.883156,498.361016 C342.488224,486.587374 365.627553,469.070412 386.52999,445.63051 C409.193372,420.569885 425.75573,393.652073 436.227486,364.821005 C446.740226,336.04812 452,302.878467 452,265.340967 C452,227.809185 446.742823,194.66054 436.220093,165.835347 C425.74097,137.016697 409.161982,110.083293 386.512153,85.083943 L386.430689,84.9932372 C365.484951,61.4661954 342.158348,43.7295974 316.512559,31.8074489 C290.90989,19.9447371 263.170603,14 233.364588,14 C203.564679,14 175.848851,19.9402102 150.201183,31.8040903 C124.577306,43.7037182 101.291113,61.4143117 80.2319029,85.0082998 L80.1575177,85.090975 C57.3097566,110.283077 40.5635732,137.404243 29.9457577,166.395485 C19.3122511,195.371036 14,228.314694 14,265.342733 C14,302.37802 19.314341,335.346419 29.9499048,364.324264 C40.5571957,393.305491 57.2925343,420.402823 80.1581755,445.618184 L80.2418487,445.711288 C100.9877,469.004205 124.190814,486.555558 149.809197,498.359654 C175.415881,510.117439 203.268473,516 233.364588,516 Z M462.528369,156.250239 C474.231053,188.307675 480,224.683239 480,265.340967 C480,306.00585 474.228197,342.40451 462.536167,374.404979 C450.8039,406.7066 432.330705,436.729982 407.362653,464.338545 C384.026851,490.507784 357.790212,510.369476 328.570205,523.805323 C299.200392,537.28081 267.410445,544 233.364588,544 C199.300712,544 167.460608,537.275264 138.108533,523.797699 C108.899414,510.339127 82.6118992,490.459827 59.3743903,464.380855 C34.16212,436.567046 15.5302771,406.391627 3.66008038,373.959873 C-8.16207365,341.749042 -14,305.532495 -14,265.342733 C-14,225.160005 -8.16399841,188.968335 3.6567578,156.757622 C15.5387969,124.314492 34.1822384,94.1141227 59.3797088,66.3217054 C82.8996471,39.9807575 109.231642,19.9581849 138.426831,6.40007087 C167.826953,-7.19960744 199.55622,-14 233.364588,-14 C267.182008,-14 298.940481,-7.19392142 328.299953,6.40947617 C357.510202,19.9886474 383.889979,40.0417692 407.303074,66.3291835 C432.310667,93.9413594 450.790589,123.970121 462.528369,156.250239 Z M233.364588,509.776133 C192.630736,509.776133 164.190976,493.506902 148.466855,461.198514 C132.931066,429.264445 125.260268,364.016971 125.260268,265.340967 C125.260268,166.694405 132.93087,101.468729 148.464798,69.5424155 C164.183232,37.2053036 192.620113,20.9287667 233.364588,20.9287667 C273.890993,20.9287667 302.133105,37.0704579 317.695366,69.1564514 C333.117704,100.924412 340.766215,166.382501 340.766215,265.340967 C340.766215,364.352135 333.119502,429.784551 317.702207,461.484871 C302.14505,493.622121 273.905758,509.776133 233.364588,509.776133 Z M233.364588,481.776133 C263.579147,481.776133 281.823433,471.339667 292.511039,449.261761 C305.472221,422.611541 312.766215,360.197319 312.766215,265.340967 C312.766215,170.528215 305.470345,108.088123 292.504472,81.3801509 C281.824927,59.361256 263.57185,48.9287667 233.364588,48.9287667 C202.940508,48.9287667 184.481676,59.4941256 173.645049,81.7880237 C160.57343,108.653646 153.260268,170.839889 153.260268,265.340967 C153.260268,359.87156 160.573857,422.080625 173.644391,448.947323 C184.480697,471.212705 202.946311,481.776133 233.364588,481.776133 Z" transform="translate(14 14)"/>
</svg>
