<svg xmlns="http://www.w3.org/2000/svg" fill="none" viewBox="0 0 32 32">
<rect width="32" height="32" rx="10" fill="#FFEEEE"/>
<path d="M10 23V20" stroke="black" stroke-width="1.5" stroke-linecap="round" stroke-linejoin="round"/>
<path d="M14 23V20" stroke="black" stroke-width="1.5" stroke-linecap="round" stroke-linejoin="round"/>
<path d="M18 23V20" stroke="black" stroke-width="1.5" stroke-linecap="round" stroke-linejoin="round"/>
<path d="M22 23V20" stroke="black" stroke-width="1.5" stroke-linecap="round" stroke-linejoin="round"/>
<path d="M12 15V13" stroke="black" stroke-width="1.5" stroke-linecap="round" stroke-linejoin="round"/>
<path d="M20 15V13" stroke="black" stroke-width="1.5" stroke-linecap="round" stroke-linejoin="round"/>
<path d="M16 15V13" stroke="black" stroke-width="1.5" stroke-linecap="round" stroke-linejoin="round"/>
<path d="M6 19H26" stroke="black" stroke-width="1.5" stroke-linecap="round" stroke-linejoin="round"/>
<path d="M6 11C6 10.4696 6.21071 9.96086 6.58579 9.58579C6.96086 9.21071 7.46957 9 8 9H24C24.5304 9 25.0391 9.21071 25.4142 9.58579C25.7893 9.96086 26 10.4696 26 11V12.1C25.5858 12.222 25.2222 12.4748 24.9635 12.8206C24.7049 13.1664 24.5651 13.5867 24.5651 14.0185C24.5651 14.4503 24.7049 14.8706 24.9635 15.2164C25.2222 15.5622 25.5858 15.815 26 15.937V21C26 21.5304 25.7893 22.0391 25.4142 22.4142C25.0391 22.7893 24.5304 23 24 23H8C7.46957 23 6.96086 22.7893 6.58579 22.4142C6.21071 22.0391 6 21.5304 6 21V15.9C6.41423 15.778 6.77784 15.5252 7.03648 15.1794C7.29512 14.8336 7.43488 14.4133 7.43488 13.9815C7.43488 13.5497 7.29512 13.1294 7.03648 12.7836C6.77784 12.4378 6.41423 12.185 6 12.063V11Z" stroke="black" stroke-width="1.5" stroke-linecap="round" stroke-linejoin="round"/>
</svg>