<svg width="58" height="80" viewBox="0 0 58 80" fill="none" xmlns="http://www.w3.org/2000/svg">
<path d="M28.9431 55.1235C30.7258 55.1235 32.1709 53.6784 32.1709 51.8957C32.1709 50.113 30.7258 48.6678 28.9431 48.6678C27.1604 48.6678 25.7153 50.113 25.7153 51.8957C25.7153 53.6784 27.1604 55.1235 28.9431 55.1235Z" fill="#303F9F"/>
<path d="M28.9431 78.9612C21.7674 78.9532 14.8878 76.0991 9.81374 71.0251C4.7397 65.9511 1.8856 59.0715 1.87762 51.8957V38.4743C1.87762 37.9402 2.08961 37.428 2.46701 37.0502C2.8444 36.6724 3.35635 36.4598 3.89038 36.4592H13.4904L13.4579 5.38672L5.90313 10.036V27.7287C5.90313 28.2626 5.69107 28.7745 5.31361 29.152C4.93615 29.5294 4.42419 29.7415 3.89038 29.7415C3.35656 29.7415 2.84461 29.5294 2.46715 29.152C2.08968 28.7745 1.87762 28.2626 1.87762 27.7287V9.80643C1.87915 9.18865 2.03815 8.58147 2.33962 8.04224C2.64108 7.50301 3.07505 7.04955 3.60052 6.72469L11.9692 1.57455C12.5174 1.23696 13.1458 1.05179 13.7895 1.03816C14.4331 1.02454 15.0688 1.18295 15.6308 1.49703C16.1928 1.81112 16.6608 2.26951 16.9865 2.82488C17.3121 3.38025 17.4837 4.01247 17.4834 4.65629L17.5182 36.4592H28.9431C31.9963 36.4587 34.981 37.3637 37.5198 39.0596C40.0587 40.7555 42.0376 43.1662 43.2063 45.9868C44.375 48.8074 44.681 51.9113 44.0856 54.9058C43.4903 57.9003 42.0203 60.6511 39.8615 62.8102C37.7028 64.9692 34.9523 66.4396 31.9578 67.0355C28.9634 67.6313 25.8595 67.3257 23.0387 66.1574C20.2179 64.9891 17.8069 63.0106 16.1106 60.472C14.4143 57.9334 13.5089 54.9489 13.5089 51.8957L13.495 40.487H5.90313V51.8957C5.90313 56.4526 7.2544 60.9071 9.78607 64.696C12.3177 68.485 15.9161 71.4381 20.1261 73.1819C24.3361 74.9257 28.9687 75.382 33.438 74.493C37.9073 73.604 42.0127 71.4097 45.2349 68.1874C48.4571 64.9652 50.6514 60.8599 51.5404 56.3906C52.4294 51.9213 51.9732 47.2887 50.2293 43.0787C48.4855 38.8687 45.5324 35.2703 41.7435 32.7386C37.9546 30.207 33.5 28.8557 28.9431 28.8557H25.451C24.9171 28.8557 24.4052 28.6436 24.0277 28.2662C23.6503 27.8887 23.4382 27.3768 23.4382 26.843C23.4382 26.3091 23.6503 25.7972 24.0277 25.4197C24.4052 25.0423 24.9171 24.8302 25.451 24.8302H28.9431C36.1214 24.8302 43.0056 27.6817 48.0813 32.7575C53.1571 37.8333 56.0086 44.7175 56.0086 51.8957C56.0086 59.0739 53.1571 65.9581 48.0813 71.0339C43.0056 76.1097 36.1214 78.9612 28.9431 78.9612V78.9612ZM17.5228 40.487V51.8934C17.5224 54.1499 18.1911 56.3559 19.4444 58.2324C20.6978 60.1088 22.4794 61.5715 24.564 62.4353C26.6486 63.2992 28.9426 63.5254 31.1558 63.0855C33.3691 62.6455 35.4021 61.5591 36.9979 59.9637C38.5937 58.3683 39.6805 56.3354 40.1208 54.1223C40.5612 51.9092 40.3354 49.6151 39.472 47.5303C38.6086 45.4455 37.1463 43.6636 35.2701 42.4099C33.3939 41.1562 31.1881 40.487 28.9315 40.487H17.5228Z" fill="#303F9F"/>
</svg>
