<svg xmlns="http://www.w3.org/2000/svg" viewBox="3.62 8.78 120 60"><path d="M47.558 39.07L63.6 50.4l16.07-11.346L63.63 36.7z" fill="#b7ca9d"/><path d="M50.765 38.795l2.724.8 6.38-9.777-6.38-9.794-2.724 1.052z" fill="#4c622c"/><path d="M53.5 20.035l9.604 2.173V37.95l-9.604 1.7z" fill="#759c3f"/><path d="M58.818 41.244l-3.76-1.138V15.93l3.76-1.88 11.087 14.312z" fill="#4c622c"/><path d="M58.818 14.05l12.83 5v19.2l-12.83 3z" fill="#759c3f"/><path d="M47.558 42.364L63.6 50.4v-5.64l-16.053-5.7z" fill="#4c622c"/><path d="M63.6 44.76l16.07-5.707v3.3L63.6 50.4z" fill="#759c3f"/><path d="M60.18 34.346l3.43 8.328 11.553-9.087h-3.897z" fill="#b7ca9d"/><path d="M63.6 34.7l-3.43-.362v7.294l3.43 1.035z" fill="#4c622c"/><path d="M63.6 42.675l11.553-3.466v-5.62L63.6 34.7z" fill="#759c3f"/><path d="M19.35 56.302l2.643 7.06H20.4l-.543-1.557h-2.643l-.543 1.557h-1.593l2.68-7.06zm.072 4.3l-.905-2.57h-.036l-.905 2.57zm4.383-2.355v.688c.18-.253.398-.47.652-.616s.543-.217.905-.217a2.19 2.19 0 0 1 .869.181c.253.1.47.362.616.652a1.9 1.9 0 0 1 .616-.58c.254-.145.58-.253.905-.253a3.1 3.1 0 0 1 .76.1c.253.064.435.18.58.326.18.145.3.326.398.58s.145.507.145.833v3.404h-1.376v-2.897c0-.18 0-.326-.036-.47s-.036-.3-.1-.398-.145-.217-.253-.253c-.1-.072-.253-.1-.47-.1s-.362.036-.47.1a1.1 1.1 0 0 0-.29.29c-.072.1-.1.253-.145.398s-.036.326-.036.47V63.3H25.65v-3.295c0-.145-.036-.3-.072-.398s-.145-.217-.253-.3-.3-.1-.507-.1c-.072 0-.145 0-.253.036s-.217.072-.326.18c-.1.072-.18.217-.253.362s-.1.362-.1.616v2.97h-1.412v-5.106h1.34zm7.75.735a1.46 1.46 0 0 1 .543-.507c.217-.145.47-.217.76-.3s.543-.072.833-.072l.797.036c.253.036.507.1.724.217s.398.253.543.435.217.435.217.76v2.643c0 .217 0 .435.036.652s.072.362.145.47H34.74c-.036-.072-.036-.145-.072-.253 0-.072-.036-.18-.036-.253-.217.217-.47.398-.797.47s-.616.145-.942.145c-.253 0-.47-.036-.688-.072-.217-.072-.398-.145-.543-.3-.145-.1-.3-.3-.362-.47a1.93 1.93 0 0 1-.145-.688c0-.3.036-.543.145-.724s.217-.326.398-.435c.145-.1.362-.18.543-.253s.398-.1.616-.145l.616-.072.543-.072a.85.85 0 0 0 .362-.181c.1-.072.145-.18.145-.326a.91.91 0 0 0-.072-.362c-.036-.072-.1-.145-.18-.217a2.3 2.3 0 0 0-.3-.11c-.1 0-.217-.036-.362-.036-.3 0-.507.072-.652.18s-.253.326-.3.58h-1.412c.072-.253.145-.543.3-.76zm2.788 1.992a.69.69 0 0 1-.3.072c-.1.036-.217.036-.326.036s-.217.036-.326.036c-.1.036-.217.036-.326.072s-.18.072-.253.145-.145.1-.18.217a.72.72 0 0 0-.072.326c0 .1.036.217.072.326.036.072.1.145.18.217a2.3 2.3 0 0 0 .3.11c.12.038.217.036.326.036.3 0 .507-.036.652-.145s.253-.217.326-.326c.072-.145.1-.253.145-.398 0-.145.036-.253.036-.326v-.507a1.52 1.52 0 0 0-.253.11zm5.034-1.666h-2.462v-1.05h4.3v1.05l-2.643 3.006h2.825v1.05h-4.67v-1.05zm2.823.398a1.96 1.96 0 0 1 .543-.833c.217-.217.507-.398.833-.543s.688-.18 1.086-.18a3.43 3.43 0 0 1 1.086.18c.326.145.616.326.833.543s.398.507.543.833a3.47 3.47 0 0 1 .181 1.123c0 .398-.072.76-.18 1.123a1.96 1.96 0 0 1-.543.833c-.217.217-.507.398-.833.543-.326.1-.688.18-1.086.18a3.43 3.43 0 0 1-1.086-.18 1.94 1.94 0 0 1-.833-.543c-.217-.243-.398-.507-.543-.833a3.47 3.47 0 0 1-.181-1.123 2.23 2.23 0 0 1 .181-1.123zm1.267 1.702a1.27 1.27 0 0 0 .217.507c.1.145.217.3.362.362.145.1.362.145.58.145.253 0 .435-.036.58-.145s.3-.217.398-.362.145-.326.217-.507a3.17 3.17 0 0 0 .072-.579c0-.217-.036-.398-.072-.616a1.27 1.27 0 0 0-.217-.507c-.1-.145-.217-.3-.398-.362-.145-.1-.362-.145-.58-.145-.253 0-.435.036-.58.145s-.3.217-.362.362c-.1.145-.145.326-.217.507s-.072.398-.072.616c0 .18.036.362.072.58zm6.048-3.15v.724h.036c.18-.3.398-.507.688-.652a1.93 1.93 0 0 1 .87-.217c.362 0 .688.036.905.145a1.44 1.44 0 0 1 .579.435c.145.18.217.398.3.652s.072.543.072.87v3.15h-1.412v-2.897c0-.435-.072-.724-.18-.942-.145-.217-.362-.326-.688-.326-.398 0-.652.1-.833.326s-.253.616-.253 1.123v2.68h-1.412v-5.1h1.34zm11.95-.073c-.1-.145-.217-.3-.362-.398a1.95 1.95 0 0 0-.471-.253 1.46 1.46 0 0 0-.543-.11 1.76 1.76 0 0 0-.905.217c-.253.145-.435.326-.58.543s-.253.47-.326.76a3.65 3.65 0 0 0-.109.905 3.57 3.57 0 0 0 .109.869c.072.3.18.543.326.76s.362.398.58.543a1.76 1.76 0 0 0 .905.217c.47 0 .833-.145 1.123-.435a1.98 1.98 0 0 0 .471-1.159h1.485a4.13 4.13 0 0 1-.29 1.195 3.37 3.37 0 0 1-.652.905c-.254.253-.58.435-.942.58s-.76.18-1.195.18a3.69 3.69 0 0 1-1.448-.29 2.93 2.93 0 0 1-1.086-.76c-.3-.325-.507-.724-.688-1.16-.145-.435-.253-.905-.253-1.448s.072-1.014.253-1.448.398-.833.688-1.195c.3-.326.652-.616 1.086-.797a3.69 3.69 0 0 1 1.448-.29 3.43 3.43 0 0 1 1.086.18c.362.1.652.3.942.47a2.44 2.44 0 0 1 .688.797 2.58 2.58 0 0 1 .326 1.086h-1.485c-.036-.145-.1-.326-.18-.47zm4.055-1.883v7.06h-1.4v-7.06zm1.16 3.404a1.96 1.96 0 0 1 .543-.833c.217-.217.507-.398.833-.543s.688-.18 1.086-.18a3.43 3.43 0 0 1 1.086.18c.326.145.616.326.833.543s.398.507.543.833.18.688.18 1.123c0 .398-.072.76-.18 1.123a1.96 1.96 0 0 1-.543.833c-.243.217-.507.398-.833.543-.326.1-.688.18-1.086.18a3.43 3.43 0 0 1-1.086-.18 1.94 1.94 0 0 1-.833-.543c-.217-.243-.398-.507-.543-.833a3.47 3.47 0 0 1-.181-1.123c0-.435.036-.797.18-1.123zm1.267 1.702a1.27 1.27 0 0 0 .217.507c.1.145.217.3.362.362.145.1.362.145.58.145.253 0 .435-.036.58-.145s.3-.217.398-.362.145-.326.217-.507a3.17 3.17 0 0 0 .072-.579c0-.217-.036-.398-.072-.616a1.27 1.27 0 0 0-.217-.507c-.1-.145-.217-.3-.398-.362-.145-.1-.362-.145-.58-.145-.253 0-.435.036-.58.145s-.3.217-.362.362c-.1.145-.145.326-.217.507s-.072.398-.072.616c0 .18.036.362.072.58zm8.183 1.955v-.724h-.036c-.18.3-.398.507-.688.652s-.58.18-.87.18c-.362 0-.688-.036-.905-.145s-.435-.253-.58-.435-.217-.398-.3-.652-.072-.543-.072-.87v-3.15h1.412v2.897c0 .435.072.724.18.942s.362.326.688.326c.398 0 .652-.1.833-.326s.253-.616.253-1.123v-2.68h1.412v5.106zm6.013-.65c-.18.3-.362.47-.652.58-.253.1-.58.18-.905.18-.398 0-.724-.072-1.014-.217a1.99 1.99 0 0 1-.724-.616c-.18-.254-.326-.543-.435-.87s-.145-.688-.145-1.014.036-.688.145-.978c.1-.326.253-.616.435-.833a2.66 2.66 0 0 1 .688-.579c.3-.145.616-.217.978-.217.3 0 .58.072.87.18.3.145.47.326.652.58h.036v-2.57h1.412v7.06h-1.34zm-.072-2.535a1.27 1.27 0 0 0-.217-.507 1.75 1.75 0 0 0-.362-.362c-.145-.1-.326-.145-.58-.145s-.435.036-.58.145-.3.217-.362.362a1.27 1.27 0 0 0-.217.507 3.19 3.19 0 0 0-.072.616 3.17 3.17 0 0 0 .072.579 1.75 1.75 0 0 0 .217.543c.107.18.217.3.398.362.145.1.326.145.543.145s.435-.036.58-.145.3-.217.362-.362c.1-.145.145-.326.18-.543a3.19 3.19 0 0 0 .072-.616c.036-.18 0-.398-.036-.58zm6.88 3.186l-.905-3.44H88l-.87 3.44H85.7l-1.63-5.106h1.485l.942 3.476h.036l.833-3.476h1.376l.87 3.44h.036l.942-3.44h1.448l-1.593 5.106zm3.802-4.382a1.46 1.46 0 0 1 .543-.507c.217-.145.47-.217.76-.3s.543-.072.833-.072l.797.036a1.89 1.89 0 0 1 .724.217c.217.117.398.253.543.435s.217.435.217.76v2.643c0 .217 0 .435.036.652s.072.362.145.47h-1.4c-.036-.072-.036-.145-.072-.253 0-.072-.036-.18-.036-.253-.217.217-.47.398-.797.47-.3.1-.616.145-.942.145-.253 0-.47-.036-.688-.072-.217-.072-.398-.145-.543-.3-.145-.1-.3-.3-.362-.47a1.93 1.93 0 0 1-.145-.688c0-.3.036-.543.145-.724s.217-.326.398-.435c.145-.1.362-.18.543-.253s.398-.1.616-.145l.616-.072.543-.072a.85.85 0 0 0 .362-.181c.1-.072.145-.18.145-.326a.91.91 0 0 0-.072-.362c-.036-.072-.1-.145-.18-.217a2.3 2.3 0 0 0-.3-.11c-.1 0-.217-.036-.362-.036-.3 0-.507.072-.652.18s-.253.326-.3.58h-1.412c.072-.253.145-.543.3-.76zm2.788 1.992a.69.69 0 0 1-.3.072c-.1.036-.217.036-.326.036s-.217.036-.326.036c-.1.036-.217.036-.326.072s-.18.072-.253.145-.145.1-.18.217a.72.72 0 0 0-.072.326c0 .1.036.217.072.326a.96.96 0 0 0 .181.217 2.3 2.3 0 0 0 .3.11c.12.038.217.036.326.036.3 0 .507-.036.652-.145s.253-.217.326-.326c.072-.145.1-.253.145-.398 0-.145.036-.253.036-.326v-.507a1.52 1.52 0 0 0-.253.11zm5.504-2.717v.942h-1.014v2.535c0 .253.036.398.1.47s.253.1.47.1h.217c.072 0 .145 0 .217-.036v1.086c-.1.036-.253.036-.398.036h-.435c-.217 0-.435 0-.616-.036s-.362-.072-.507-.18c-.145-.072-.253-.217-.362-.362a1.4 1.4 0 0 1-.145-.616V59.2h-.833v-.942h.833v-1.52h1.412v1.52zm3.115.906c-.217 0-.398.036-.58.145-.145.1-.3.217-.362.398-.1.145-.145.326-.217.543a3.17 3.17 0 0 0-.072.579c0 .18.036.362.072.58.036.18.1.362.18.507s.217.3.362.362c.145.1.326.145.543.145.326 0 .58-.1.76-.3s.3-.435.326-.76h1.34c-.1.688-.362 1.195-.797 1.557s-.978.543-1.666.543a3.19 3.19 0 0 1-1.05-.181c-.326-.145-.58-.3-.797-.543a2.15 2.15 0 0 1-.507-.833 3.19 3.19 0 0 1-.181-1.05 3.43 3.43 0 0 1 .18-1.086c.108-.326.3-.616.507-.87s.507-.435.833-.58.688-.217 1.123-.217a3.57 3.57 0 0 1 .869.109c.3.072.543.18.76.362.217.145.398.362.543.616s.217.507.253.87H105.2c-.1-.616-.47-.905-1.05-.905zm4.635-2.86v2.643h.036c.18-.3.398-.507.688-.652s.543-.217.797-.217c.362 0 .688.036.905.145a1.44 1.44 0 0 1 .579.435c.145.18.217.398.3.652s.072.543.072.87v3.15h-1.412v-2.9c0-.435-.072-.724-.18-.942s-.362-.326-.688-.326c-.398 0-.652.1-.833.326s-.253.616-.253 1.123v2.68h-1.412v-7.06h1.412z" fill="#779d3f"/></svg>