<svg id="CMYK_-_logo" data-name="CMYK - logo" xmlns="http://www.w3.org/2000/svg" viewBox="0 0 737.94 132.03"><defs><style>.cls-1{fill:#008c99;}.cls-2{fill:#70ccd3;}</style></defs><title>NewRelic-logo-bug</title><g id="outlines"><path d="M264.86,111.25,244.67,68.93c-4.82-10-9.77-21.36-11.46-26.7l-.39.39c.65,7.55.78,17.06.91,25l.52,43.63H219.54V21.13h16.93l21.88,44a164.12,164.12,0,0,1,9.25,23.18l.39-.39c-.39-4.56-1.3-17.45-1.3-25.66l-.26-41.15h14.2v90.12Z" transform="translate(-6.9 -7.27)"/><path d="M307.44,82.21v1c0,9.12,3.39,18.75,16.28,18.75,6.12,0,11.46-2.21,16.41-6.51l5.6,8.73a35.6,35.6,0,0,1-23.7,8.73c-18.62,0-30.34-13.41-30.34-34.51,0-11.59,2.47-19.28,8.21-25.79,5.34-6.12,11.85-8.86,20.19-8.86a25.45,25.45,0,0,1,18.1,6.77c5.73,5.21,8.6,13.28,8.6,28.65v3ZM320.07,54.6c-8.07,0-12.5,6.38-12.5,17.06h24.35C331.92,61,327.24,54.6,320.07,54.6Z" transform="translate(-6.9 -7.27)"/><path d="M423,111.51H409.54l-8.07-30.34c-2.08-7.81-4.3-18-4.3-18h-.26s-1,6.51-4.3,18.62l-7.94,29.69H371.25l-18-65.25,14.2-2,7.16,31.91c1.82,8.2,3.39,17.32,3.39,17.32h.39a178.91,178.91,0,0,1,3.78-17.71l8.47-30.47h14.07L412.14,75c2.74,10.68,4.17,18.75,4.17,18.75h.39s1.56-10,3.26-17.71l6.77-30.74h14.85Z" transform="translate(-6.9 -7.27)"/><path d="M525.05,111.25l-7.81-13.94C511,86.25,506.82,80,501.87,75A7.64,7.64,0,0,0,496,72.31v38.94H481.29V21.13h27.48c20.19,0,29.3,11.72,29.3,25.79,0,12.89-8.33,24.75-22.4,24.75,3.26,1.69,9.25,10.42,13.93,18l13.28,21.62Zm-20.84-78H496V61.77h7.68c7.81,0,12-1,14.72-3.78,2.47-2.47,4-6.25,4-10.94C522.45,37.93,517.5,33.24,504.21,33.24Z" transform="translate(-6.9 -7.27)"/><path d="M562.55,82.21v1c0,9.12,3.39,18.75,16.28,18.75,6.12,0,11.46-2.21,16.41-6.51l5.6,8.73a35.6,35.6,0,0,1-23.7,8.73c-18.62,0-30.34-13.41-30.34-34.51,0-11.59,2.47-19.28,8.21-25.79,5.34-6.12,11.85-8.86,20.19-8.86a25.45,25.45,0,0,1,18.1,6.77c5.73,5.21,8.6,13.28,8.6,28.65v3ZM575.19,54.6c-8.07,0-12.5,6.38-12.5,17.06H587C587,61,582.35,54.6,575.19,54.6Z" transform="translate(-6.9 -7.27)"/><path d="M628.71,112.69c-14.46,0-14.46-13-14.46-18.62V37.93A106.73,106.73,0,0,0,613,18.66l14.72-3.26c1,4,1.17,9.51,1.17,18.1V89.37c0,8.86.39,10.29,1.43,11.85a4,4,0,0,0,4.69,1l2.34,8.86A22.44,22.44,0,0,1,628.71,112.69Z" transform="translate(-6.9 -7.27)"/><path d="M653.58,35.59a9.34,9.34,0,0,1-9.25-9.51,9.44,9.44,0,1,1,9.25,9.51Zm-7.16,75.67V46.4l14.46-2.61v67.46Z" transform="translate(-6.9 -7.27)"/><path d="M701.9,112.95c-18,0-28-12.63-28-33.86,0-24,14.33-35.42,29-35.42,7.16,0,12.37,1.69,18.23,7.16L714,60.33c-3.91-3.52-7.29-5.08-11.07-5.08a11.2,11.2,0,0,0-10.42,6.64c-2,4-2.73,10.16-2.73,18.36,0,9,1.43,14.72,4.43,18a11.58,11.58,0,0,0,8.73,3.78c4.56,0,9-2.21,13.28-6.51l6.77,8.73C717,110.21,710.75,112.95,701.9,112.95Z" transform="translate(-6.9 -7.27)"/><path d="M735.21,112.7a9.67,9.67,0,1,1,9.62-9.67A9.63,9.63,0,0,1,735.21,112.7Zm0-17.42a7.78,7.78,0,1,0,7.44,7.75A7.55,7.55,0,0,0,735.21,95.27Zm1.9,13.11c-.42-.73-.6-1-1-1.8-1.07-1.95-1.4-2.5-1.79-2.65a.74.74,0,0,0-.34-.08v4.53h-2.13V97.54h4a3,3,0,0,1,3.2,3.17,2.78,2.78,0,0,1-2.42,3,2.49,2.49,0,0,1,.44.47c.62.78,2.6,4.21,2.6,4.21ZM736,99.44a4.35,4.35,0,0,0-1.22-.16H734v2.94h.73c.94,0,1.35-.11,1.64-.37a1.53,1.53,0,0,0,.42-1.09A1.28,1.28,0,0,0,736,99.44Z" transform="translate(-6.9 -7.27)"/><path class="cls-1" d="M168.72,55.82C161.07,20.67,118.92,0,74.56,9.64S.45,55.6,8.09,90.74s49.8,55.83,94.15,46.18S176.36,91,168.72,55.82ZM88.41,105.68a32.4,32.4,0,1,1,32.4-32.4A32.4,32.4,0,0,1,88.41,105.68Z" transform="translate(-6.9 -7.27)"/><path class="cls-2" d="M95.57,27.92A46.52,46.52,0,1,0,142.1,74.44,46.52,46.52,0,0,0,95.57,27.92Zm-7.17,73.66a28.3,28.3,0,1,1,28.3-28.3A28.3,28.3,0,0,1,88.41,101.58Z" transform="translate(-6.9 -7.27)"/></g></svg>