<svg width="88" height="71" viewBox="0 0 88 71" fill="none" xmlns="http://www.w3.org/2000/svg">
<g clip-path="url(#clip0_27_2051)">
<path fill-rule="evenodd" clip-rule="evenodd" d="M84.9393 2.09491C84.9382 1.95919 84.9245 1.82386 84.8988 1.69059C84.8988 1.65016 84.8785 1.61377 84.8664 1.57333C84.8543 1.5329 84.8138 1.39139 84.7815 1.30244L84.721 1.17306C84.6834 1.09588 84.64 1.02156 84.5916 0.950679C84.5632 0.906204 84.5351 0.86173 84.5027 0.817255L84.4459 0.740435C84.4136 0.704046 84.3773 0.675744 84.345 0.643397L84.264 0.546361L84.1993 0.501886C84.1401 0.451215 84.0781 0.403969 84.0134 0.360372L83.8556 0.259293C83.7862 0.222856 83.7146 0.190456 83.6415 0.162255L83.4717 0.0935209C83.3949 0.0692618 83.3139 0.0571321 83.2371 0.0409594L83.0633 0.00457045C82.9676 -0.00152348 82.8718 -0.00152348 82.7761 0.00457045H82.6144C81.531 0.101607 67.214 1.46821 51.122 8.64491C41.4586 12.9428 33.9786 19.5414 29.2724 27.5509L28.0596 28.0766C10.8314 35.7666 0.537354 50.7145 0.537354 68.0637V68.3549C0.537763 68.7543 0.652111 69.1453 0.866967 69.4819C1.08183 69.8185 1.38827 70.0867 1.75031 70.2553C2.02817 70.3826 2.33014 70.4488 2.63578 70.4493H59.8268C59.9381 70.4499 60.049 70.4404 60.1584 70.4209L60.3041 70.3847C60.3727 70.3644 60.4416 70.3523 60.5103 70.3281C60.5789 70.3039 60.6112 70.2795 60.6638 70.2553C60.7164 70.2311 60.7851 70.2069 60.8419 70.1746C60.9486 70.1114 61.0499 70.0397 61.1451 69.9602L84.1914 50.5286C84.427 50.3306 84.6158 50.0829 84.7444 49.8031C84.873 49.5235 84.9382 49.219 84.9353 48.9111V2.09491H84.9393ZM64.1005 61.9788L61.889 63.8427V22.501L80.7466 6.60713V47.9489L64.1005 61.9788ZM26.4503 51.0177H57.696V66.2567H8.36905L26.4503 51.0177ZM52.8241 12.4779C60.1892 9.23502 67.8935 6.82515 75.7937 5.29308L58.9375 19.505C51.1569 20.4543 43.5042 22.2563 36.1176 24.8784C40.2903 19.7839 45.9182 15.5588 52.8241 12.4779ZM32.1108 30.9068C40.3192 27.528 48.9123 25.1719 57.696 23.8918V46.825H27.825C28.0404 41.2644 29.5051 35.8237 32.1108 30.9068ZM26.3573 33.5835C24.5907 38.1675 23.6516 43.0286 23.5836 47.9408L4.98487 63.6365C6.39191 50.8844 13.9648 40.2183 26.3573 33.5835Z" fill="#3569F3"/>
</g>
<defs>
<clipPath id="clip0_27_2051">
<rect width="86.7778" height="71" fill="white" transform="translate(0.537354)"/>
</clipPath>
</defs>
</svg>
