<?xml version="1.0" encoding="utf-8"?>
<!-- Generator: Adobe Illustrator 22.1.0, SVG Export Plug-In . SVG Version: 6.00 Build 0)  -->
<svg version="1.1" id="Layer_1" xmlns="http://www.w3.org/2000/svg" xmlns:xlink="http://www.w3.org/1999/xlink" x="0px" y="0px"
	 viewBox="0 0 577 107.3" style="enable-background:new 0 0 577 107.3;" xml:space="preserve">
<style type="text/css">
	.st0{fill:#000099;}
</style>
<title>Asset 1</title>
<g id="Layer_2_1_">
	<g id="Layer_1-2">
		<path class="st0" d="M118.3,23.8v60.4h-14.1v-6.4C101,83,95.1,86,86.5,86c-14.3,0-21.4-7.4-21.4-19.2V23.8h15.4v38.9
			c0,6.3,3.4,10,10,10c7.7,0,12.4-4.4,12.4-12.5V23.8H118.3z M218.3,42v42.2h-15.4V46.6c0-7.2-2.9-11.6-9.6-11.6s-10.6,5-10.6,12
			v37.2h-15.4V46.6c0-7.7-3.2-11.6-9.6-11.6c-6.8,0-10.6,5-10.6,12v37.2h-15.4V23.8h14.3v6.7c3.5-5.8,9.3-8.7,17.2-8.7
			c7.7,0,13.5,3.2,16.8,8.9c4.1-5.9,10.2-8.9,18.1-8.9C211,21.8,218.3,29.5,218.3,42L218.3,42z M341.9,84.2h-15.4V0.2h15.4V84.2z
			 M508.9,84.2h-15.4V23.8h15.4L508.9,84.2z M493.2,14.7h15.9V0h-15.9V14.7z M566.6,63.6c-6.3,6.7-10.6,9.3-16.4,9.3
			c-6.9,0-11.8-4-14-10.2V45.1c2.3-6.3,7.2-10.3,14.2-10.3c5.1,0,9.2,1.8,15.7,7.9l9.6-9.5c-7.7-8.4-15.2-11.5-25.3-11.5
			c-14.1,0-25,7.4-29.3,19.8v24.8C525.3,78.7,536,86,550,86c10.9,0,18.4-3.6,26.8-14L566.6,63.6z M31.7,47c-4.2-0.9-7.2-1.7-8.9-2.1
			c-2.1-0.6-3.7-1.4-4.5-2.5v-4.6c1.4-2.2,4.8-3.6,9.5-3.6c6.5,0,11,1.5,18.1,7.1l8.3-10c-8.4-7-15.6-9.5-26-9.5
			c-12,0-20.3,4.9-23.6,11.9v15.2c2.6,5.1,8.6,8,20.6,10.6c4.3,1,7.2,1.7,8.9,2c2.2,0.7,4.2,1.6,5.3,3.2v5.3
			c-1.5,2.4-5.1,3.7-9.8,3.7c-3.4,0.1-6.7-0.6-9.8-1.9c-3-1.2-6.5-3.5-10.9-7.1L0,74.6C9.6,83.1,17.7,86,29.2,86
			c12.3,0,21-4.7,24.3-12.2V58.5C50.7,52.8,44,49.8,31.7,47z M258.7,21.7c-13.9,0-24.8,7.5-29.3,19.5v25.4
			c4.4,12,15.4,19.5,29.3,19.5c13.9,0,24.7-7.5,29.1-19.4V41.1C283.3,29.2,272.4,21.7,258.7,21.7L258.7,21.7z M272.9,62.8
			c-2.4,6.4-7.5,10.2-14.3,10.2c-6.7,0-12-3.8-14.4-10.2V45c2.4-6.4,7.5-10.3,14.4-10.3c6.8,0,11.8,3.9,14.2,10.3L272.9,62.8z
			 M383.1,21.7c-13.9,0-24.8,7.5-29.3,19.5v25.4c4.5,12,15.4,19.5,29.3,19.5s24.7-7.5,29.1-19.4V41.1
			C407.8,29.2,396.9,21.7,383.1,21.7z M397.3,62.8c-2.4,6.4-7.5,10.2-14.2,10.2s-12-3.8-14.4-10.2V45c2.4-6.4,7.5-10.3,14.4-10.3
			s11.8,3.9,14.2,10.3V62.8z M465.8,23.8v6.7c-3.9-5.8-10-8.7-18.4-8.7c-11.4,0-20.6,7-24.6,18.1v24.9c3.9,11.1,13.1,18,24.6,18
			c7.7,0,13.5-2.6,17.6-7.7v4.8c0,10-5.8,14.7-14.8,14.7c-6.7,0-12.2-2-21-7.2l-7.5,11.1c8.5,5.7,18.5,8.8,28.7,8.9
			c17,0,29.5-9.1,29.5-26.1V23.8H465.8z M463.9,60.5c-2.3,5.7-7.1,9.3-13.1,9.3s-10.8-3.5-13.1-9.3V44c2.3-5.7,7-9.2,13.1-9.2
			s10.8,3.5,13.1,9.2V60.5z"/>
	</g>
</g>
</svg>
