<svg width="16" height="16" viewBox="0 0 16 16" fill="none" xmlns="http://www.w3.org/2000/svg">
<g clip-path="url(#clip0_1518_7855)">
<rect width="16" height="16" fill="white" fill-opacity="0.01"/>
<path d="M10.5 11C11.0523 11 11.5 10.5523 11.5 10C11.5 9.44772 11.0523 9 10.5 9C9.94772 9 9.5 9.44772 9.5 10C9.5 10.5523 9.94772 11 10.5 11Z" fill="currentColor"/>
<path d="M7 7C7.55228 7 8 6.55228 8 6C8 5.44772 7.55228 5 7 5C6.44772 5 6 5.44772 6 6C6 6.55228 6.44772 7 7 7Z" fill="currentColor"/>
<path d="M14.5 10C14.7761 10 15 9.77614 15 9.5C15 9.22386 14.7761 9 14.5 9C14.2239 9 14 9.22386 14 9.5C14 9.77614 14.2239 10 14.5 10Z" fill="currentColor"/>
<path d="M13.25 15C12.9039 15 12.5655 14.8974 12.2778 14.7051C11.99 14.5128 11.7657 14.2395 11.6332 13.9197C11.5008 13.5999 11.4661 13.2481 11.5336 12.9086C11.6012 12.5691 11.7678 12.2573 12.0126 12.0126C12.2573 11.7678 12.5691 11.6012 12.9086 11.5336C13.2481 11.4661 13.5999 11.5008 13.9197 11.6332C14.2395 11.7657 14.5128 11.99 14.7051 12.2778C14.8974 12.5655 15 12.9039 15 13.25C14.9995 13.714 14.8149 14.1588 14.4869 14.4869C14.1588 14.8149 13.714 14.9995 13.25 15ZM13.25 12.5C13.1017 12.5 12.9567 12.544 12.8333 12.6264C12.71 12.7088 12.6139 12.826 12.5571 12.963C12.5003 13.1 12.4855 13.2508 12.5144 13.3963C12.5434 13.5418 12.6148 13.6754 12.7197 13.7803C12.8246 13.8852 12.9582 13.9567 13.1037 13.9856C13.2492 14.0145 13.4 13.9997 13.537 13.9429C13.6741 13.8862 13.7912 13.79 13.8736 13.6667C13.956 13.5433 14 13.3983 14 13.25C14 13.0511 13.921 12.8603 13.7803 12.7197C13.6397 12.579 13.4489 12.5 13.25 12.5ZM7 15C6.62335 14.9997 6.25459 14.892 5.937 14.6895C5.25729 14.9955 4.49761 15.0765 3.76867 14.9206C3.03973 14.7647 2.37963 14.3801 1.88456 13.8228C1.3895 13.2655 1.08536 12.5647 1.01645 11.8224C0.947545 11.0802 1.11748 10.3354 1.5015 9.69645C1.88551 9.05755 2.46353 8.55799 3.15131 8.27056C3.8391 7.98314 4.6007 7.92288 5.32513 8.09856C6.04956 8.27425 6.69895 8.6767 7.17866 9.24726C7.65837 9.81782 7.94332 10.5267 7.992 11.2705C8.37453 11.4888 8.6741 11.8276 8.84403 12.2339C9.01396 12.6403 9.04471 13.0914 8.93149 13.5171C8.81828 13.9427 8.56745 14.319 8.21808 14.5872C7.86872 14.8554 7.44045 15.0006 7 15ZM6.058 13.486L6.3275 13.7335C6.43615 13.8344 6.56597 13.9098 6.70748 13.9542C6.84899 13.9986 6.99862 14.0108 7.14545 13.9899C7.29228 13.9691 7.43259 13.9157 7.55616 13.8337C7.67972 13.7517 7.78341 13.6431 7.85966 13.5159C7.93591 13.3887 7.98279 13.2461 7.99689 13.0985C8.01098 12.9508 7.99193 12.8019 7.94113 12.6626C7.89032 12.5233 7.80904 12.397 7.70323 12.2931C7.59741 12.1892 7.46973 12.1103 7.3295 12.062L6.984 11.9405L6.999 11.517C7.00376 10.9651 6.82608 10.4271 6.49355 9.98653C6.16103 9.546 5.6923 9.22766 5.16021 9.08097C4.62812 8.93428 4.06248 8.96747 3.5512 9.17537C3.03991 9.38328 2.61163 9.75425 2.3329 10.2306C2.05418 10.707 1.94063 11.2622 2.0099 11.8097C2.07917 12.3573 2.32738 12.8667 2.71596 13.2586C3.10454 13.6506 3.61172 13.9032 4.15867 13.9773C4.70562 14.0513 5.2617 13.9426 5.7405 13.668L6.058 13.486ZM12 8.00001C11.2046 7.99908 10.4421 7.68271 9.8797 7.12031C9.3173 6.5579 9.00093 5.79537 9 5.00001C8.99975 4.911 9.00426 4.82204 9.0135 4.73351C8.70535 4.56117 8.4489 4.30956 8.2707 4.00477C8.0925 3.69997 7.99904 3.35307 8 3.00001C8.00066 2.46978 8.21159 1.96145 8.58652 1.58652C8.96145 1.2116 9.46977 1.00067 10 1.00001C10.3531 0.999043 10.7 1.0925 11.0048 1.2707C11.3096 1.4489 11.5612 1.70536 11.7335 2.01351C11.8238 2.00451 11.9127 2.00001 12 2.00001C12.7957 2.00001 13.5587 2.31608 14.1213 2.87869C14.6839 3.4413 15 4.20436 15 5.00001C15 5.79566 14.6839 6.55872 14.1213 7.12133C13.5587 7.68394 12.7957 8.00001 12 8.00001ZM10 2.00001C9.73478 2.00001 9.48043 2.10536 9.29289 2.2929C9.10536 2.48044 9 2.73479 9 3.00001C9.00001 3.2146 9.06974 3.42338 9.1987 3.5949C9.32766 3.76642 9.50885 3.8914 9.715 3.95101L10.166 4.08601L10.0585 4.54451C9.96456 4.9483 9.99862 5.37133 10.156 5.75489C10.3133 6.13846 10.5861 6.46354 10.9366 6.68505C11.287 6.90657 11.6977 7.01352 12.1117 6.99108C12.5256 6.96863 12.9224 6.81791 13.2468 6.55981C13.5712 6.30171 13.8073 5.94904 13.9223 5.55071C14.0372 5.15239 14.0253 4.72816 13.8883 4.33688C13.7513 3.94561 13.4958 3.60669 13.1575 3.36713C12.8191 3.12758 12.4146 2.99927 12 3.00001C11.8463 3.00175 11.6933 3.02121 11.544 3.05801L11.086 3.16501L10.951 2.71501C10.8914 2.50886 10.7664 2.32766 10.5949 2.19871C10.4234 2.06975 10.2146 2.00002 10 2.00001ZM3.25 5.50001C2.80499 5.50001 2.36998 5.36805 1.99997 5.12081C1.62996 4.87358 1.34157 4.52218 1.17127 4.11105C1.00097 3.69991 0.956417 3.24751 1.04323 2.81105C1.13005 2.3746 1.34434 1.97369 1.65901 1.65902C1.97368 1.34435 2.37459 1.13006 2.81105 1.04324C3.2475 0.956424 3.6999 1.00098 4.11104 1.17128C4.52217 1.34158 4.87357 1.62996 5.12081 1.99997C5.36804 2.36999 5.5 2.805 5.5 3.25001C5.49934 3.84654 5.26207 4.41845 4.84026 4.84027C4.41845 5.26208 3.84653 5.49935 3.25 5.50001ZM3.25 2.00001C3.00277 2.00001 2.7611 2.07332 2.55554 2.21067C2.34998 2.34802 2.18976 2.54325 2.09515 2.77165C2.00054 3.00006 1.97579 3.25139 2.02402 3.49387C2.07225 3.73635 2.1913 3.95908 2.36612 4.13389C2.54093 4.30871 2.76366 4.42776 3.00614 4.47599C3.24861 4.52422 3.49995 4.49947 3.72836 4.40486C3.95676 4.31025 4.15199 4.15003 4.28934 3.94447C4.42669 3.73891 4.5 3.49723 4.5 3.25001C4.4996 2.91861 4.36778 2.6009 4.13345 2.36656C3.89911 2.13223 3.5814 2.0004 3.25 2.00001Z" fill="currentColor"/>
</g>
<defs>
<clipPath id="clip0_1518_7855">
<rect width="16" height="16" fill="white"/>
</clipPath>
</defs>
</svg>
