<svg width="16" height="16" viewBox="0 0 16 16" fill="none" xmlns="http://www.w3.org/2000/svg">
<g clip-path="url(#clip0_1518_7840)">
<rect width="16" height="16" fill="white" fill-opacity="0.01"/>
<path d="M14 2.66663C13.6319 2.66663 13.3334 2.9651 13.3334 3.33329V3.99996H2.66671V3.33329C2.66671 2.9651 2.36823 2.66663 2.00004 2.66663C1.63185 2.66663 1.33337 2.9651 1.33337 3.33329V7.33329C1.33337 7.70148 1.63185 7.99996 2.00004 7.99996C2.36823 7.99996 2.66671 7.70148 2.66671 7.33329V6.66663C5.44004 6.66663 6.61337 8.07329 7.84671 9.55996C9.08004 11.0466 10.4334 12.6666 13.3334 12.6666V13.3333C13.3334 13.7015 13.6319 14 14 14C14.3682 14 14.6667 13.7015 14.6667 13.3333V10.6666C14.6667 10.2984 14.3682 9.99996 14 9.99996C13.6319 9.99996 13.3334 10.2984 13.3334 10.6666V11.3333C11.06 11.3333 10.0467 10.1133 8.87337 8.70663C7.56004 7.12663 6.06671 5.33329 2.66671 5.33329H13.3334V5.99996C13.3334 6.36815 13.6319 6.66663 14 6.66663C14.3682 6.66663 14.6667 6.36815 14.6667 5.99996V3.33329C14.6667 2.9651 14.3682 2.66663 14 2.66663Z" fill="currentColor"/>
</g>
<defs>
<clipPath id="clip0_1518_7840">
<rect width="16" height="16" fill="white"/>
</clipPath>
</defs>
</svg>
