<svg viewBox="0 0 24 25" fill="none" xmlns="http://www.w3.org/2000/svg">
<g clip-path="url(#clip0_475_20156)">
<rect y="0.800049" width="24" height="24" rx="12" fill="#FFF7E6"/>
<path fill-rule="evenodd" clip-rule="evenodd" d="M-4 0.800049V24.8H28V0.800049H-4Z" fill="#F7FCFF"/>
<mask id="mask0_475_20156" maskUnits="userSpaceOnUse" x="-4" y="0" width="32" height="25">
<path fill-rule="evenodd" clip-rule="evenodd" d="M-4 0.800049V24.8H28V0.800049H-4Z" fill="white"/>
</mask>
<g mask="url(#mask0_475_20156)">
<path fill-rule="evenodd" clip-rule="evenodd" d="M-4 0.800049V8.80005H28V0.800049H-4Z" fill="#FF8C1A"/>
<path fill-rule="evenodd" clip-rule="evenodd" d="M-4 16.8V24.8H28V16.8H-4Z" fill="#5EAA22"/>
<path fill-rule="evenodd" clip-rule="evenodd" d="M8 12.8C8 15.0092 9.79086 16.8 12 16.8C14.2091 16.8 16 15.0092 16 12.8C16 10.5909 14.2091 8.80005 12 8.80005C9.79086 8.80005 8 10.5909 8 12.8ZM15 12.8C15 14.4569 13.6569 15.8 12 15.8C10.3431 15.8 9 14.4569 9 12.8C9 11.1432 10.3431 9.80005 12 9.80005C13.6569 9.80005 15 11.1432 15 12.8Z" fill="#3D58DB"/>
<path fill-rule="evenodd" clip-rule="evenodd" d="M11.9944 13.6608L11.4236 16.7813L11.7551 13.6263L10.3282 16.4597L11.5351 13.5259L9.36777 15.8424L11.3523 13.3675L8.62014 14.9796L11.2216 13.1641L8.14587 13.9411L11.1534 12.932L7.9834 12.8111L11.1534 12.6902L8.14587 11.6811L11.2216 12.4581L8.62014 10.6426L11.3523 12.2547L9.36777 9.77975L11.5351 12.0963L10.3282 9.16252L11.7551 11.9959L11.4236 8.84088L11.9944 11.9614L12.5653 8.84088L12.2338 11.9959L13.6607 9.16252L12.4538 12.0963L14.6211 9.77975L12.6366 12.2547L15.3688 10.6426L12.7673 12.4581L15.843 11.6811L12.8355 12.6902L16.0055 12.8111L12.8355 12.932L15.843 13.9411L12.7673 13.1641L15.3688 14.9796L12.6366 13.3675L14.6211 15.8424L12.4538 13.5259L13.6607 16.4597L12.2338 13.6263L12.5653 16.7813L11.9944 13.6608Z" fill="#3D58DB"/>
</g>
</g>
<defs>
<clipPath id="clip0_475_20156">
<rect y="0.800049" width="24" height="24" rx="12" fill="white"/>
</clipPath>
</defs>
</svg>
