<svg xmlns="http://www.w3.org/2000/svg" viewBox="0 0 120 120"><defs><style>.cls-1{fill:#fff;}.cls-2{fill:#d7e2e2;}.cls-3{fill:#9da0a0;}.cls-4{fill:#fab29a;}.cls-5{fill:#222;}</style></defs><g id="Layer_2" data-name="Layer 2"><g id="Layer_1-2" data-name="Layer 1"><path class="cls-1" d="M114,0H6A6,6,0,0,0,0,6V114a6,6,0,0,0,6,6H114a6,6,0,0,0,6-6V6A6,6,0,0,0,114,0Z"/><path class="cls-2" d="M28,108.75H91a8,8,0,0,0,8-8v-64a8,8,0,0,0-8-8H55.67L35,12V28.81H28a8,8,0,0,0-8,8v64a8,8,0,0,0,8,8Z"/><path class="cls-3" d="M54.11,79.63H64.89A13.25,13.25,0,0,1,78.15,92.88v7.2H40.85v-7.2A13.25,13.25,0,0,1,54.11,79.63Z"/><path class="cls-4" d="M46.18,53.82H72.82V66.3a13.32,13.32,0,1,1-26.64,0Z"/><path class="cls-5" d="M76.15,55v6.93a65,65,0,0,1-22.58-4.94,14.93,14.93,0,0,1-10.72,5V55a16.67,16.67,0,0,1,33.33,0Z"/><path d="M59.67,41.83A13.55,13.55,0,0,0,46.11,55.39V58.1h2.71a2.72,2.72,0,0,1,1.92.8,2.75,2.75,0,0,1,.79,1.91V69a2.75,2.75,0,0,1-.79,1.92,2.71,2.71,0,0,1-1.92.79H46.11A2.71,2.71,0,0,1,43.39,69V55.39a16.23,16.23,0,0,1,4.77-11.5,16.26,16.26,0,0,1,23,0,16.23,16.23,0,0,1,4.77,11.5V71.66a6.78,6.78,0,0,1-6.78,6.78H63.37A2.68,2.68,0,0,1,61,79.8H58.31a2.72,2.72,0,0,1-1.92-.8,2.67,2.67,0,0,1-.79-1.91,2.71,2.71,0,0,1,2.71-2.72H61a2.7,2.7,0,0,1,1.36.37,2.76,2.76,0,0,1,1,1h5.79a4.08,4.08,0,0,0,4.07-4.07H70.51a2.67,2.67,0,0,1-1.91-.79A2.72,2.72,0,0,1,67.8,69V60.81a2.71,2.71,0,0,1,.8-1.91,2.68,2.68,0,0,1,1.91-.8h2.72V55.39a13.61,13.61,0,0,0-4-9.59,13.44,13.44,0,0,0-4.39-2.94,13.61,13.61,0,0,0-5.19-1Z"/></g></g></svg>