<svg width="111" height="66" viewBox="0 0 111 66" fill="none" xmlns="http://www.w3.org/2000/svg">
<path d="M31.3319 24.0791C31.3319 25.4209 31.477 26.5088 31.7308 27.3066C32.0209 28.1044 32.3835 28.9747 32.8912 29.9176C33.0726 30.2077 33.1451 30.4978 33.1451 30.7517C33.1451 31.1143 32.9275 31.4769 32.4561 31.8396L30.1715 33.3627C29.8451 33.5802 29.5187 33.689 29.2286 33.689C28.866 33.689 28.5033 33.5077 28.1407 33.1813C27.633 32.6374 27.1978 32.0572 26.8352 31.4769C26.4726 30.8605 26.1099 30.1715 25.711 29.3374C22.8825 32.6737 19.3286 34.3418 15.0495 34.3418C12.0033 34.3418 9.57366 33.4715 7.79674 31.7308C6.01981 29.9901 5.11322 27.6693 5.11322 24.7682C5.11322 21.6857 6.20113 19.1835 8.41322 17.2978C10.6253 15.4121 13.5627 14.4693 17.2978 14.4693C18.5308 14.4693 19.8 14.578 21.1418 14.7594C22.4835 14.9407 23.8616 15.2308 25.3121 15.5572V12.9099C25.3121 10.1539 24.7319 8.23189 23.6077 7.10772C22.4473 5.98354 20.489 5.43958 17.6967 5.43958C16.4275 5.43958 15.122 5.58464 13.7803 5.91101C12.4385 6.23739 11.133 6.63629 9.86377 7.14398C9.28355 7.39783 8.84838 7.54288 8.59454 7.61541C8.34069 7.68794 8.15937 7.7242 8.01432 7.7242C7.50663 7.7242 7.25278 7.36156 7.25278 6.60002V4.8231C7.25278 4.24288 7.32531 3.80772 7.50663 3.55387C7.68795 3.30002 8.01432 3.04618 8.52201 2.79233C9.79124 2.13959 11.3143 1.59563 13.0912 1.16046C14.8682 0.689036 16.7539 0.471453 18.7484 0.471453C23.0638 0.471453 26.2187 1.45057 28.2495 3.40882C30.244 5.36706 31.2594 8.34068 31.2594 12.3297V24.0791H31.3319ZM16.6088 29.5912C17.8055 29.5912 19.0385 29.3737 20.344 28.9385C21.6495 28.5033 22.8099 27.7055 23.789 26.6176C24.3693 25.9286 24.8044 25.1671 25.022 24.2967C25.2396 23.4264 25.3846 22.3747 25.3846 21.1418V19.6187C24.333 19.3649 23.2088 19.1473 22.0484 19.0022C20.8879 18.8572 19.7638 18.7846 18.6396 18.7846C16.2099 18.7846 14.433 19.2561 13.2363 20.2352C12.0396 21.2143 11.4594 22.5923 11.4594 24.4055C11.4594 26.1099 11.8945 27.3791 12.8011 28.2495C13.6715 29.1561 14.9407 29.5912 16.6088 29.5912ZM45.7286 33.5077C45.0759 33.5077 44.6407 33.3989 44.3506 33.1451C44.0605 32.9275 43.8066 32.4198 43.589 31.7308L35.0671 3.69893C34.8495 2.97365 34.7407 2.50222 34.7407 2.24838C34.7407 1.66816 35.0308 1.34178 35.611 1.34178H39.1649C39.8539 1.34178 40.3253 1.45057 40.5792 1.70442C40.8693 1.922 41.0868 2.4297 41.3044 3.11871L47.3967 27.1253L53.0539 3.11871C53.2352 2.39343 53.4528 1.922 53.7429 1.70442C54.033 1.48684 54.5407 1.34178 55.1934 1.34178H58.0945C58.7835 1.34178 59.255 1.45057 59.5451 1.70442C59.8352 1.922 60.089 2.4297 60.2341 3.11871L65.9638 27.4154L72.2374 3.11871C72.455 2.39343 72.7088 1.922 72.9627 1.70442C73.2528 1.48684 73.7242 1.34178 74.377 1.34178H77.7495C78.3297 1.34178 78.6561 1.63189 78.6561 2.24838C78.6561 2.42969 78.6198 2.61101 78.5835 2.8286C78.5473 3.04618 78.4748 3.33629 78.3297 3.73519L69.5901 31.7671C69.3726 32.4923 69.1187 32.9638 68.8286 33.1813C68.5385 33.3989 68.0671 33.544 67.4506 33.544H64.3319C63.6429 33.544 63.1715 33.4352 62.8813 33.1813C62.5912 32.9275 62.3374 32.4561 62.1923 31.7308L56.5715 8.34068L50.9868 31.6945C50.8055 32.4198 50.5879 32.8912 50.2978 33.1451C50.0077 33.3989 49.5 33.5077 48.8473 33.5077H45.7286ZM92.3275 34.4868C90.4418 34.4868 88.5561 34.2693 86.7429 33.8341C84.9297 33.3989 83.5154 32.9275 82.5726 32.3835C81.9923 32.0572 81.5934 31.6945 81.4484 31.3682C81.3033 31.0418 81.2308 30.6791 81.2308 30.3528V28.5033C81.2308 27.7418 81.5209 27.3791 82.0649 27.3791C82.2824 27.3791 82.5 27.4154 82.7176 27.4879C82.9352 27.5605 83.2616 27.7055 83.6242 27.8506C84.8572 28.3945 86.1989 28.8297 87.6132 29.1198C89.0638 29.4099 90.478 29.555 91.9286 29.555C94.2132 29.555 95.9901 29.1561 97.2231 28.3583C98.4561 27.5605 99.1088 26.4 99.1088 24.9132C99.1088 23.8978 98.7824 23.0638 98.1297 22.3747C97.477 21.6857 96.244 21.0693 94.4671 20.489L89.2088 18.8572C86.5616 18.0231 84.6033 16.7901 83.4066 15.1583C82.2099 13.5627 81.5934 11.7857 81.5934 9.90002C81.5934 8.37695 81.9198 7.03519 82.5726 5.87475C83.2253 4.71431 84.0956 3.69893 85.1835 2.90112C86.2715 2.06706 87.5044 1.45057 88.955 1.01541C90.4055 0.580244 91.9286 0.398926 93.5242 0.398926C94.322 0.398926 95.1561 0.43519 95.9539 0.543981C96.7879 0.652772 97.5495 0.797827 98.311 0.942882C99.0363 1.1242 99.7253 1.30552 100.378 1.5231C101.031 1.74068 101.538 1.95827 101.901 2.17585C102.409 2.46596 102.771 2.75607 102.989 3.08244C103.207 3.37255 103.315 3.77145 103.315 4.27915V5.98354C103.315 6.74508 103.025 7.14398 102.481 7.14398C102.191 7.14398 101.72 6.99893 101.103 6.70882C99.0363 5.76596 96.7154 5.29453 94.1407 5.29453C92.0737 5.29453 90.4418 5.6209 89.3176 6.30991C88.1934 6.99893 87.6132 8.05057 87.6132 9.53739C87.6132 10.5528 87.9759 11.4231 88.7011 12.1121C89.4264 12.8011 90.7682 13.4901 92.6901 14.1066L97.8396 15.7385C100.451 16.5726 102.336 17.733 103.46 19.2198C104.585 20.7066 105.129 22.411 105.129 24.2967C105.129 25.8561 104.802 27.2704 104.186 28.5033C103.533 29.7363 102.663 30.8242 101.538 31.6945C100.414 32.6011 99.0726 33.2539 97.5132 33.7253C95.8813 34.233 94.177 34.4868 92.3275 34.4868Z" fill="#252F3E"/>
<path fill-rule="evenodd" clip-rule="evenodd" d="M99.1813 52.1111C87.2505 60.9232 69.9165 65.6012 55.0121 65.6012C34.1242 65.6012 15.3033 57.877 1.0879 45.0397C-0.0362783 44.0243 0.979106 42.6463 2.32086 43.4441C17.6967 52.365 36.6626 57.7683 56.2813 57.7683C69.5176 57.7683 84.0593 55.0122 97.4407 49.3551C99.4352 48.4485 101.14 50.6606 99.1813 52.1111Z" fill="#FF9900"/>
<path fill-rule="evenodd" clip-rule="evenodd" d="M104.149 46.454C102.626 44.4957 94.0681 45.5111 90.1879 45.9825C89.0274 46.1276 88.8461 45.1122 89.8978 44.3507C96.7154 39.5639 107.921 40.9419 109.226 42.5375C110.532 44.1693 108.864 55.3748 102.481 60.7419C101.502 61.5759 100.559 61.1408 100.994 60.0529C102.445 56.4628 105.673 48.3759 104.149 46.454Z" fill="#FF9900"/>
</svg>
