<svg viewBox="0 0 74 76" fill="none" xmlns="http://www.w3.org/2000/svg">
<g clip-path="url(#clip0_27_2021)">
<path d="M72.4 35.76L39.8 3.16L36.64 0L12.1 24.54L0.879985 35.76C-0.289829 36.9313 -0.289829 38.8287 0.879985 40L23.3 62.42L36.64 75.76L61.18 51.22L61.56 50.84L72.4 40C73.5698 38.8287 73.5698 36.9313 72.4 35.76ZM36.64 49.08L25.44 37.88L36.64 26.68L47.84 37.88L36.64 49.08Z" fill="#394EFF"/>
<path d="M36.64 26.68C29.3071 19.3462 29.2713 7.46775 36.56 0.0899658L12.05 24.59L25.39 37.93L36.64 26.68Z" fill="url(#paint0_linear_27_2021)"/>
<path d="M47.87 37.85L36.64 49.08C40.1794 52.6172 42.1679 57.416 42.1679 62.42C42.1679 67.4239 40.1794 72.2227 36.64 75.76L61.21 51.19L47.87 37.85Z" fill="url(#paint1_linear_27_2021)"/>
</g>
<defs>
<linearGradient id="paint0_linear_27_2021" x1="28.6925" y1="15.35" x2="17.5702" y2="26.4723" gradientUnits="userSpaceOnUse">
<stop offset="0.18" stop-color="#3F51B5"/>
<stop offset="1" stop-color="#3F51B5"/>
</linearGradient>
<linearGradient id="paint1_linear_27_2021" x1="44.6636" y1="60.28" x2="55.7471" y2="49.1965" gradientUnits="userSpaceOnUse">
<stop offset="0.18" stop-color="#3F51B5"/>
<stop offset="1" stop-color="#3F51B5" stop-opacity="0.5"/>
</linearGradient>
<clipPath id="clip0_27_2021">
<rect width="74" height="76" fill="white"/>
</clipPath>
</defs>
</svg>
