<svg width="87" height="37" viewBox="0 0 87 37" fill="none" xmlns="http://www.w3.org/2000/svg">
<g clip-path="url(#clip0_30_3036)">
<rect y="0.5" width="87" height="36" rx="4" fill="white"/>
<path fill-rule="evenodd" clip-rule="evenodd" d="M12.306 22.0354C15.0481 23.6316 18.4302 24.5985 21.929 24.5985C24.2894 24.5985 26.8827 24.1053 29.269 23.0931C29.6247 22.9309 29.9286 23.3267 29.5794 23.5862C27.4517 25.163 24.3605 26 21.7026 26C17.9776 26 14.6212 24.6179 12.0862 22.3209C11.8856 22.1392 12.0668 21.8927 12.306 22.0354ZM31.3708 21.8732C31.6036 22.1652 31.3061 24.1702 30.1679 25.1305C29.9933 25.2798 29.8252 25.2019 29.9027 25.0072C30.1614 24.3649 30.737 22.9179 30.4654 22.574C30.1937 22.2236 28.6676 22.4053 27.9756 22.4896C27.7686 22.5156 27.7363 22.3339 27.9239 22.1976C29.1397 21.3411 31.1379 21.5877 31.3708 21.8732ZM28.5706 14.3333C28.7128 14.3333 28.8616 14.3398 29.0038 14.3593C29.1526 14.3788 29.2884 14.4047 29.4242 14.4307C29.5535 14.4631 29.6764 14.4956 29.7928 14.5345C29.9092 14.5734 29.9998 14.6124 30.0645 14.6513C30.155 14.7032 30.2197 14.7551 30.2585 14.8135C30.2973 14.8654 30.3167 14.9368 30.3167 15.0276V15.3326C30.3167 15.4689 30.2649 15.5402 30.1679 15.5402C30.1162 15.5402 30.0321 15.5143 29.9222 15.4624C29.5536 15.2937 29.1397 15.2093 28.6805 15.2093C28.3119 15.2093 28.0209 15.2677 27.8204 15.391C27.6199 15.5143 27.5165 15.7025 27.5165 15.9685C27.5165 16.1502 27.5811 16.3059 27.7105 16.4292C27.8398 16.5525 28.0791 16.6758 28.4218 16.7861L29.3402 17.0781C29.8058 17.2273 30.1421 17.4349 30.3425 17.701C30.543 17.967 30.64 18.272 30.64 18.6094C30.64 18.8884 30.5818 19.1415 30.4719 19.3621C30.3555 19.5827 30.2003 19.7774 29.9998 19.9331C29.7993 20.0953 29.56 20.2121 29.2819 20.2965C28.9909 20.3873 28.687 20.4327 28.3572 20.4327C28.0209 20.4327 27.6846 20.3938 27.3612 20.3159C27.0379 20.2381 26.7857 20.1537 26.6175 20.0564C26.5141 19.998 26.4429 19.9331 26.4171 19.8747C26.3912 19.8163 26.3783 19.7514 26.3783 19.693V19.3621C26.3783 19.2258 26.43 19.1609 26.527 19.1609C26.5658 19.1609 26.6045 19.1674 26.6433 19.1804C26.6822 19.1934 26.7403 19.2193 26.8051 19.2453C27.0249 19.3426 27.2642 19.4205 27.5164 19.4724C27.7751 19.5243 28.0273 19.5503 28.286 19.5503C28.6935 19.5503 29.0103 19.4789 29.2301 19.3361C29.4501 19.1934 29.5665 18.9857 29.5665 18.7197C29.5665 18.538 29.5083 18.3888 29.3918 18.2655C29.2755 18.1422 29.0556 18.0319 28.7387 17.9281L27.801 17.6361C27.3289 17.4868 26.9797 17.2662 26.7663 16.9742C26.5529 16.6887 26.4429 16.3708 26.4429 16.0334C26.4429 15.7609 26.5011 15.5208 26.6175 15.3131C26.7339 15.1055 26.8892 14.9238 27.0832 14.7811C27.2772 14.6318 27.4971 14.5215 27.7557 14.4437C28.0144 14.3658 28.286 14.3333 28.5706 14.3333ZM15.2356 14.3463C16.0052 14.3463 16.5678 14.5215 16.93 14.8719C17.2856 15.2223 17.4667 15.7544 17.4667 16.4681V18.5705H17.4797C17.4797 18.8105 17.5055 19.0052 17.5508 19.148C17.6025 19.2907 17.6672 19.4464 17.7577 19.6151C17.7901 19.667 17.803 19.719 17.803 19.7644C17.803 19.8293 17.7642 19.8942 17.6801 19.959L17.2727 20.2316C17.2145 20.2705 17.1562 20.29 17.1046 20.29C17.0399 20.29 16.9752 20.2575 16.9106 20.1991C16.82 20.1018 16.7424 19.998 16.6777 19.8942C16.6131 19.7838 16.5484 19.6606 16.4773 19.5113C15.9728 20.1083 15.3391 20.4068 14.576 20.4068C14.0327 20.4068 13.5995 20.251 13.2826 19.9396C12.9657 19.6281 12.804 19.2128 12.804 18.6937C12.804 18.1422 12.998 17.6945 13.3925 17.3571C13.787 17.0197 14.3108 16.851 14.9769 16.851C15.1967 16.851 15.4231 16.8704 15.6624 16.9029C15.9017 16.9353 16.1475 16.9872 16.4061 17.0456V16.5719C16.4061 16.0788 16.3027 15.7349 16.1022 15.5338C15.8952 15.3326 15.546 15.2353 15.0481 15.2353C14.8217 15.2353 14.5889 15.2612 14.3496 15.3196C14.1103 15.378 13.8775 15.4494 13.6512 15.5402C13.5477 15.5857 13.4701 15.6116 13.4248 15.6246C13.3796 15.6376 13.3472 15.6441 13.3213 15.6441C13.2308 15.6441 13.1856 15.5792 13.1856 15.4429V15.125C13.1856 15.0211 13.1985 14.9433 13.2308 14.8979C13.2632 14.8524 13.3213 14.807 13.4119 14.7616C13.6382 14.6448 13.9099 14.5475 14.2268 14.4696C14.5436 14.3853 14.8799 14.3463 15.2356 14.3463ZM18.8765 14.502C18.9993 14.502 19.0835 14.5215 19.1287 14.5669C19.1805 14.6059 19.2193 14.6967 19.2581 14.82L20.3445 19.1155L21.3533 14.82C21.3857 14.6902 21.4245 14.6059 21.4763 14.5669C21.528 14.528 21.6185 14.502 21.7349 14.502H22.2523C22.3751 14.502 22.4593 14.5215 22.511 14.5669C22.5627 14.6059 22.608 14.6967 22.6339 14.82L23.6556 19.1674L24.7744 14.82C24.8132 14.6902 24.8585 14.6059 24.9038 14.5669C24.9555 14.528 25.0396 14.502 25.156 14.502H25.7574C25.8609 14.502 25.9191 14.554 25.9191 14.6643C25.9191 14.6967 25.9126 14.7292 25.9062 14.7681C25.8996 14.807 25.8868 14.8589 25.8609 14.9303L24.3024 19.9461C24.2635 20.0758 24.2182 20.1602 24.1665 20.1991C24.1148 20.2381 24.0307 20.264 23.9208 20.264H23.3646C23.2418 20.264 23.1577 20.2445 23.1059 20.1991C23.0542 20.1537 23.0089 20.0693 22.9831 19.9396L21.9807 15.7544L20.9848 19.9331C20.9524 20.0629 20.9136 20.1472 20.8619 20.1926C20.8102 20.2381 20.7196 20.2575 20.6032 20.2575H20.0471C19.9307 20.2575 19.853 20.2381 19.8013 20.1926C19.7496 20.1537 19.7043 20.0629 19.6655 19.9396L18.1458 14.9238C18.1069 14.794 18.0876 14.7097 18.0876 14.6643C18.0876 14.5604 18.1392 14.502 18.2428 14.502H18.8765ZM15.2162 17.6231C14.7829 17.6231 14.466 17.7075 14.2526 17.8827C14.0392 18.0579 13.9357 18.3044 13.9357 18.6289C13.9357 18.9338 14.0133 19.1609 14.175 19.3167C14.3302 19.4789 14.5566 19.5567 14.8541 19.5567C15.0675 19.5567 15.2873 19.5178 15.5202 19.4399C15.753 19.3621 15.9599 19.2193 16.1345 19.0247C16.238 18.9014 16.3155 18.7651 16.3544 18.6094C16.3932 18.4537 16.4191 18.2655 16.4191 18.0449V17.7723C16.2315 17.7269 16.031 17.688 15.8241 17.662C15.6172 17.6361 15.4167 17.6231 15.2162 17.6231Z" fill="#394EFF"/>
<path d="M44.8877 14.873L41.9141 23.5H40.1162L43.8623 13.5469H45.0107L44.8877 14.873ZM47.376 23.5L44.3955 14.873L44.2656 13.5469H45.4209L49.1807 23.5H47.376ZM47.2324 19.8086V21.1689H41.8184V19.8086H47.2324ZM52.7936 21.2646L54.776 13.5469H55.815L55.6988 15.5361L53.5797 23.5H52.4996L52.7936 21.2646ZM51.3102 13.5469L52.9166 21.2031L53.0602 23.5H51.9117L49.608 13.5469H51.3102ZM58.0641 21.1826L59.65 13.5469H61.359L59.0553 23.5H57.9068L58.0641 21.1826ZM56.2184 13.5469L58.1803 21.2852L58.4674 23.5H57.3873L55.3023 15.5361L55.193 13.5469H56.2184ZM68.2668 20.9365C68.2668 20.7314 68.2349 20.5492 68.1711 20.3896C68.1118 20.2301 68.0048 20.0843 67.8498 19.9521C67.6949 19.82 67.4761 19.6924 67.1936 19.5693C66.9156 19.4417 66.5601 19.3118 66.1271 19.1797C65.6532 19.0339 65.2157 18.8721 64.8146 18.6943C64.4182 18.512 64.0718 18.3024 63.7756 18.0654C63.4794 17.8239 63.2492 17.5482 63.0852 17.2383C62.9211 16.9238 62.8391 16.5615 62.8391 16.1514C62.8391 15.7458 62.9234 15.3766 63.092 15.0439C63.2652 14.7113 63.509 14.4242 63.8234 14.1826C64.1424 13.9365 64.5184 13.7474 64.9514 13.6152C65.3843 13.4785 65.8628 13.4102 66.3869 13.4102C67.1252 13.4102 67.7609 13.5469 68.2941 13.8203C68.8319 14.0938 69.2443 14.4606 69.5314 14.9209C69.8231 15.3812 69.9689 15.8893 69.9689 16.4453H68.2668C68.2668 16.1172 68.1962 15.8278 68.0549 15.5771C67.9182 15.3219 67.7085 15.1214 67.426 14.9756C67.148 14.8298 66.7948 14.7568 66.3664 14.7568C65.9608 14.7568 65.6236 14.8184 65.3547 14.9414C65.0858 15.0645 64.8853 15.2308 64.7531 15.4404C64.621 15.6501 64.5549 15.887 64.5549 16.1514C64.5549 16.3382 64.5982 16.5091 64.6848 16.6641C64.7714 16.8145 64.9035 16.9557 65.0812 17.0879C65.259 17.2155 65.4823 17.3363 65.7512 17.4502C66.0201 17.5641 66.3368 17.6735 66.7014 17.7783C67.2528 17.9424 67.7336 18.1247 68.1437 18.3252C68.5539 18.5212 68.8957 18.7445 69.1691 18.9951C69.4426 19.2458 69.6477 19.5306 69.7844 19.8496C69.9211 20.1641 69.9895 20.5218 69.9895 20.9229C69.9895 21.3421 69.9051 21.7204 69.7365 22.0576C69.5679 22.3903 69.3264 22.6751 69.0119 22.9121C68.702 23.1445 68.3283 23.3245 67.8908 23.4521C67.4579 23.5752 66.9748 23.6367 66.4416 23.6367C65.9631 23.6367 65.4914 23.5729 65.0266 23.4453C64.5663 23.3177 64.147 23.124 63.7687 22.8643C63.3905 22.5999 63.0897 22.2718 62.8664 21.8799C62.6431 21.4834 62.5314 21.0208 62.5314 20.4922H64.2473C64.2473 20.8158 64.302 21.0915 64.4113 21.3193C64.5253 21.5472 64.6825 21.734 64.883 21.8799C65.0835 22.0212 65.3159 22.126 65.5803 22.1943C65.8492 22.2627 66.1363 22.2969 66.4416 22.2969C66.8426 22.2969 67.1776 22.2399 67.4465 22.126C67.7199 22.012 67.925 21.8525 68.0617 21.6475C68.1984 21.4424 68.2668 21.2054 68.2668 20.9365Z" fill="#394EFF"/>
</g>
<rect x="0.5" y="1" width="86" height="35" rx="3.5" stroke="#3F51B5" stroke-opacity="0.5"/>
<defs>
<clipPath id="clip0_30_3036">
<rect y="0.5" width="87" height="36" rx="4" fill="white"/>
</clipPath>
</defs>
</svg>
