<svg width="145" height="37" viewBox="0 0 145 37" fill="none" xmlns="http://www.w3.org/2000/svg">
<g clip-path="url(#clip0_30_3022)">
<rect y="0.5" width="145" height="36" rx="4" fill="white"/>
<path d="M24.3906 11.3719C26.6405 12.0773 28.4302 13.8623 29.1272 16.1062C30.735 21.2577 26.9162 26 22.0009 26V23.0924C25.0796 23.0924 27.4693 20.0455 26.2871 16.8027C25.8475 15.5982 24.8982 14.6493 23.6935 14.2101C20.4536 13.0373 17.4006 15.4171 17.4006 18.4944H14.5C14.5 13.59 19.2456 9.76547 24.3906 11.3719ZM19.3552 23.0773V25.3478H17.0658V23.0773H19.3552ZM22.3261 20.1304V23.0773H19.3552V20.1304H22.3261ZM17.0658 21.1796V23.0773H15.1522V21.1796H17.0658Z" fill="#394EFF"/>
<path d="M43.9033 23.5H41.7773L41.791 22.1396H43.9033C44.5186 22.1396 45.0335 22.0052 45.4482 21.7363C45.8675 21.4674 46.182 21.0824 46.3916 20.5811C46.6058 20.0798 46.7129 19.4827 46.7129 18.79V18.25C46.7129 17.7122 46.6514 17.236 46.5283 16.8213C46.4098 16.4066 46.2321 16.0579 45.9951 15.7754C45.7627 15.4928 45.4756 15.2786 45.1338 15.1328C44.7965 14.987 44.4069 14.9141 43.9648 14.9141H41.7363V13.5469H43.9648C44.6257 13.5469 45.2295 13.6585 45.7764 13.8818C46.3232 14.1006 46.7949 14.4173 47.1914 14.832C47.5924 15.2467 47.9001 15.7435 48.1143 16.3223C48.3285 16.901 48.4355 17.5482 48.4355 18.2637V18.79C48.4355 19.5055 48.3285 20.1527 48.1143 20.7314C47.9001 21.3102 47.5924 21.807 47.1914 22.2217C46.7904 22.6318 46.3118 22.9486 45.7559 23.1719C45.2044 23.3906 44.5869 23.5 43.9033 23.5ZM42.7275 13.5469V23.5H41.0117V13.5469H42.7275ZM52.1578 16.1035V23.5H50.5035V16.1035H52.1578ZM50.3941 14.1621C50.3941 13.9115 50.4762 13.7041 50.6402 13.54C50.8089 13.3714 51.0413 13.2871 51.3375 13.2871C51.6292 13.2871 51.8593 13.3714 52.0279 13.54C52.1965 13.7041 52.2809 13.9115 52.2809 14.1621C52.2809 14.4082 52.1965 14.6133 52.0279 14.7773C51.8593 14.9414 51.6292 15.0234 51.3375 15.0234C51.0413 15.0234 50.8089 14.9414 50.6402 14.7773C50.4762 14.6133 50.3941 14.4082 50.3941 14.1621ZM59.0998 16.1035H60.5969V23.2949C60.5969 23.9603 60.4556 24.5254 60.173 24.9902C59.8905 25.4551 59.4963 25.8083 58.9904 26.0498C58.4846 26.2959 57.899 26.4189 57.2336 26.4189C56.951 26.4189 56.6366 26.3779 56.2902 26.2959C55.9484 26.2139 55.6158 26.0817 55.2922 25.8994C54.9732 25.7217 54.7066 25.487 54.4924 25.1953L55.2648 24.2246C55.5292 24.5391 55.8208 24.7692 56.1398 24.915C56.4589 25.0609 56.7938 25.1338 57.1447 25.1338C57.523 25.1338 57.8443 25.0632 58.1086 24.9219C58.3775 24.7852 58.5848 24.5824 58.7307 24.3135C58.8765 24.0446 58.9494 23.7165 58.9494 23.3291V17.7783L59.0998 16.1035ZM54.0754 19.8838V19.7402C54.0754 19.1797 54.1438 18.6693 54.2805 18.209C54.4172 17.7441 54.6132 17.3454 54.8684 17.0127C55.1236 16.6755 55.4335 16.418 55.798 16.2402C56.1626 16.0579 56.5751 15.9668 57.0354 15.9668C57.5139 15.9668 57.9217 16.0534 58.259 16.2266C58.6008 16.3997 58.8856 16.6481 59.1135 16.9717C59.3413 17.2907 59.5191 17.6735 59.6467 18.1201C59.7788 18.5622 59.8768 19.0544 59.9406 19.5967V20.0547C59.8814 20.5833 59.7811 21.0664 59.6398 21.5039C59.4986 21.9414 59.3117 22.3197 59.0793 22.6387C58.8469 22.9577 58.5598 23.2038 58.218 23.377C57.8807 23.5501 57.482 23.6367 57.0217 23.6367C56.5705 23.6367 56.1626 23.5433 55.798 23.3564C55.438 23.1696 55.1281 22.9076 54.8684 22.5703C54.6132 22.2331 54.4172 21.8366 54.2805 21.3809C54.1438 20.9206 54.0754 20.4215 54.0754 19.8838ZM55.7229 19.7402V19.8838C55.7229 20.221 55.7548 20.5355 55.8186 20.8271C55.8869 21.1188 55.9895 21.3763 56.1262 21.5996C56.2674 21.8184 56.4452 21.9915 56.6594 22.1191C56.8781 22.2422 57.1356 22.3037 57.4318 22.3037C57.8192 22.3037 58.1359 22.2217 58.382 22.0576C58.6327 21.8936 58.8241 21.6725 58.9563 21.3945C59.093 21.112 59.1887 20.7975 59.2434 20.4512V19.2139C59.216 18.945 59.159 18.6943 59.0725 18.4619C58.9904 18.2295 58.8788 18.0267 58.7375 17.8535C58.5962 17.6758 58.4185 17.5391 58.2043 17.4434C57.9901 17.3431 57.7372 17.293 57.4455 17.293C57.1493 17.293 56.8918 17.3568 56.673 17.4844C56.4543 17.612 56.2743 17.7874 56.133 18.0107C55.9963 18.234 55.8938 18.4938 55.8254 18.79C55.757 19.0863 55.7229 19.403 55.7229 19.7402ZM64.4695 16.1035V23.5H62.8152V16.1035H64.4695ZM62.7059 14.1621C62.7059 13.9115 62.7879 13.7041 62.952 13.54C63.1206 13.3714 63.353 13.2871 63.6492 13.2871C63.9409 13.2871 64.171 13.3714 64.3396 13.54C64.5083 13.7041 64.5926 13.9115 64.5926 14.1621C64.5926 14.4082 64.5083 14.6133 64.3396 14.7773C64.171 14.9414 63.9409 15.0234 63.6492 15.0234C63.353 15.0234 63.1206 14.9414 62.952 14.7773C62.7879 14.6133 62.7059 14.4082 62.7059 14.1621ZM70.0648 16.1035V17.3066H65.8949V16.1035H70.0648ZM67.098 14.292H68.7455V21.4561C68.7455 21.6839 68.7774 21.8594 68.8412 21.9824C68.9096 22.1009 69.003 22.1807 69.1215 22.2217C69.24 22.2627 69.379 22.2832 69.5385 22.2832C69.6524 22.2832 69.7618 22.2764 69.8666 22.2627C69.9714 22.249 70.0557 22.2354 70.1195 22.2217L70.1264 23.4795C69.9896 23.5205 69.8301 23.557 69.6479 23.5889C69.4701 23.6208 69.265 23.6367 69.0326 23.6367C68.6544 23.6367 68.3194 23.5706 68.0277 23.4385C67.7361 23.3018 67.5082 23.0807 67.3441 22.7754C67.1801 22.4701 67.098 22.0645 67.098 21.5586V14.292ZM75.9062 22.0166V18.4893C75.9062 18.2249 75.8584 17.9971 75.7627 17.8057C75.667 17.6143 75.5212 17.4661 75.3252 17.3613C75.1338 17.2565 74.8923 17.2041 74.6006 17.2041C74.3317 17.2041 74.0993 17.2497 73.9033 17.3408C73.7074 17.432 73.5547 17.555 73.4453 17.71C73.3359 17.8649 73.2812 18.0404 73.2812 18.2363H71.6406C71.6406 17.9447 71.7113 17.6621 71.8525 17.3887C71.9938 17.1152 72.1989 16.8714 72.4678 16.6572C72.7367 16.443 73.0579 16.2744 73.4316 16.1514C73.8053 16.0283 74.2246 15.9668 74.6895 15.9668C75.2454 15.9668 75.7376 16.0602 76.166 16.2471C76.599 16.4339 76.9385 16.7165 77.1846 17.0947C77.4352 17.4684 77.5605 17.9378 77.5605 18.5029V21.791C77.5605 22.1283 77.5833 22.4313 77.6289 22.7002C77.679 22.9645 77.7497 23.1947 77.8408 23.3906V23.5H76.1523C76.0749 23.3223 76.0133 23.0967 75.9678 22.8232C75.9268 22.5452 75.9062 22.2764 75.9062 22.0166ZM76.1455 19.002L76.1592 20.0205H74.9766C74.6712 20.0205 74.4023 20.0501 74.1699 20.1094C73.9375 20.1641 73.7438 20.2461 73.5889 20.3555C73.4339 20.4648 73.3177 20.597 73.2402 20.752C73.1628 20.9069 73.124 21.0824 73.124 21.2783C73.124 21.4743 73.1696 21.6543 73.2607 21.8184C73.3519 21.9779 73.484 22.1032 73.6572 22.1943C73.835 22.2855 74.0492 22.3311 74.2998 22.3311C74.637 22.3311 74.931 22.2627 75.1816 22.126C75.4368 21.9847 75.6374 21.8138 75.7832 21.6133C75.929 21.4082 76.0065 21.2145 76.0156 21.0322L76.5488 21.7637C76.4941 21.9505 76.4007 22.151 76.2686 22.3652C76.1364 22.5794 75.9632 22.7845 75.749 22.9805C75.5394 23.1719 75.2865 23.3291 74.9902 23.4521C74.6986 23.5752 74.3613 23.6367 73.9785 23.6367C73.4954 23.6367 73.0648 23.541 72.6865 23.3496C72.3083 23.1536 72.012 22.8916 71.7979 22.5635C71.5837 22.2308 71.4766 21.8548 71.4766 21.4355C71.4766 21.0436 71.5495 20.6973 71.6953 20.3965C71.8457 20.0911 72.0645 19.8359 72.3516 19.6309C72.6432 19.4258 72.9987 19.2708 73.418 19.166C73.8372 19.0566 74.3158 19.002 74.8535 19.002H76.1455ZM81.4469 13V23.5H79.7926V13H81.4469ZM95.6385 18.25V18.7969C95.6385 19.5488 95.5405 20.2233 95.3445 20.8203C95.1486 21.4173 94.8683 21.9255 94.5037 22.3447C94.1437 22.764 93.7107 23.0853 93.2049 23.3086C92.699 23.5273 92.1385 23.6367 91.5232 23.6367C90.9126 23.6367 90.3543 23.5273 89.8484 23.3086C89.3471 23.0853 88.9119 22.764 88.5428 22.3447C88.1736 21.9255 87.8865 21.4173 87.6814 20.8203C87.4809 20.2233 87.3807 19.5488 87.3807 18.7969V18.25C87.3807 17.498 87.4809 16.8258 87.6814 16.2334C87.882 15.6364 88.1645 15.1283 88.5291 14.709C88.8982 14.2852 89.3335 13.9639 89.8348 13.7451C90.3406 13.5218 90.8989 13.4102 91.5096 13.4102C92.1248 13.4102 92.6854 13.5218 93.1912 13.7451C93.6971 13.9639 94.1323 14.2852 94.4969 14.709C94.8615 15.1283 95.1417 15.6364 95.3377 16.2334C95.5382 16.8258 95.6385 17.498 95.6385 18.25ZM93.9227 18.7969V18.2363C93.9227 17.6803 93.868 17.1904 93.7586 16.7666C93.6538 16.3382 93.4966 15.9805 93.2869 15.6934C93.0818 15.4017 92.8289 15.1829 92.5281 15.0371C92.2273 14.8867 91.8878 14.8115 91.5096 14.8115C91.1313 14.8115 90.7941 14.8867 90.4979 15.0371C90.2016 15.1829 89.9487 15.4017 89.7391 15.6934C89.534 15.9805 89.3768 16.3382 89.2674 16.7666C89.158 17.1904 89.1033 17.6803 89.1033 18.2363V18.7969C89.1033 19.3529 89.158 19.8451 89.2674 20.2734C89.3768 20.7018 89.5363 21.0641 89.7459 21.3604C89.9601 21.652 90.2153 21.873 90.5115 22.0234C90.8077 22.1693 91.145 22.2422 91.5232 22.2422C91.9061 22.2422 92.2456 22.1693 92.5418 22.0234C92.838 21.873 93.0887 21.652 93.2938 21.3604C93.4988 21.0641 93.6538 20.7018 93.7586 20.2734C93.868 19.8451 93.9227 19.3529 93.9227 18.7969ZM100.612 22.3242C100.881 22.3242 101.122 22.2718 101.336 22.167C101.555 22.0576 101.731 21.9072 101.863 21.7158C101.999 21.5244 102.075 21.3034 102.088 21.0527H103.64C103.631 21.5312 103.49 21.9665 103.216 22.3584C102.943 22.7503 102.58 23.0625 102.129 23.2949C101.678 23.5228 101.179 23.6367 100.632 23.6367C100.067 23.6367 99.5749 23.541 99.1557 23.3496C98.7364 23.1536 98.3878 22.8848 98.1098 22.543C97.8318 22.2012 97.6221 21.807 97.4809 21.3604C97.3441 20.9137 97.2758 20.4352 97.2758 19.9248V19.6855C97.2758 19.1751 97.3441 18.6966 97.4809 18.25C97.6221 17.7988 97.8318 17.4023 98.1098 17.0605C98.3878 16.7188 98.7364 16.4521 99.1557 16.2607C99.5749 16.0648 100.065 15.9668 100.625 15.9668C101.218 15.9668 101.737 16.0853 102.184 16.3223C102.631 16.5547 102.982 16.8805 103.237 17.2998C103.496 17.7145 103.631 18.1976 103.64 18.749H102.088C102.075 18.4756 102.006 18.2295 101.883 18.0107C101.765 17.7874 101.596 17.6097 101.377 17.4775C101.163 17.3454 100.906 17.2793 100.605 17.2793C100.272 17.2793 99.9965 17.3477 99.7777 17.4844C99.559 17.6165 99.3881 17.7988 99.265 18.0312C99.142 18.2591 99.0531 18.5166 98.9984 18.8037C98.9483 19.0863 98.9232 19.3802 98.9232 19.6855V19.9248C98.9232 20.2301 98.9483 20.5264 98.9984 20.8135C99.0486 21.1006 99.1352 21.3581 99.2582 21.5859C99.3858 21.8092 99.559 21.9893 99.7777 22.126C99.9965 22.2581 100.274 22.3242 100.612 22.3242ZM108.565 23.6367C108.019 23.6367 107.524 23.5479 107.082 23.3701C106.645 23.1878 106.271 22.9349 105.961 22.6113C105.656 22.2878 105.421 21.9072 105.257 21.4697C105.093 21.0322 105.011 20.5605 105.011 20.0547V19.7812C105.011 19.2025 105.095 18.6784 105.264 18.209C105.432 17.7396 105.667 17.3385 105.968 17.0059C106.269 16.6686 106.624 16.4111 107.034 16.2334C107.444 16.0557 107.889 15.9668 108.367 15.9668C108.896 15.9668 109.358 16.0557 109.755 16.2334C110.151 16.4111 110.479 16.6618 110.739 16.9854C111.004 17.3044 111.2 17.6849 111.327 18.127C111.459 18.569 111.525 19.0566 111.525 19.5898V20.2939H105.811V19.1113H109.898V18.9814C109.889 18.6852 109.83 18.4072 109.721 18.1475C109.616 17.8877 109.454 17.6781 109.235 17.5186C109.017 17.359 108.725 17.2793 108.36 17.2793C108.087 17.2793 107.843 17.3385 107.629 17.457C107.419 17.571 107.244 17.7373 107.103 17.9561C106.961 18.1748 106.852 18.4391 106.774 18.749C106.701 19.0544 106.665 19.3984 106.665 19.7812V20.0547C106.665 20.3783 106.708 20.679 106.795 20.957C106.886 21.2305 107.018 21.4697 107.191 21.6748C107.365 21.8799 107.574 22.0417 107.82 22.1602C108.066 22.2741 108.347 22.3311 108.661 22.3311C109.058 22.3311 109.411 22.2513 109.721 22.0918C110.031 21.9323 110.299 21.7067 110.527 21.415L111.396 22.2559C111.236 22.4883 111.029 22.7116 110.773 22.9258C110.518 23.1354 110.206 23.3063 109.837 23.4385C109.472 23.5706 109.049 23.6367 108.565 23.6367ZM117.38 22.0166V18.4893C117.38 18.2249 117.333 17.9971 117.237 17.8057C117.141 17.6143 116.995 17.4661 116.799 17.3613C116.608 17.2565 116.366 17.2041 116.075 17.2041C115.806 17.2041 115.574 17.2497 115.378 17.3408C115.182 17.432 115.029 17.555 114.92 17.71C114.81 17.8649 114.755 18.0404 114.755 18.2363H113.115C113.115 17.9447 113.185 17.6621 113.327 17.3887C113.468 17.1152 113.673 16.8714 113.942 16.6572C114.211 16.443 114.532 16.2744 114.906 16.1514C115.28 16.0283 115.699 15.9668 116.164 15.9668C116.72 15.9668 117.212 16.0602 117.64 16.2471C118.073 16.4339 118.413 16.7165 118.659 17.0947C118.909 17.4684 119.035 17.9378 119.035 18.5029V21.791C119.035 22.1283 119.058 22.4313 119.103 22.7002C119.153 22.9645 119.224 23.1947 119.315 23.3906V23.5H117.627C117.549 23.3223 117.488 23.0967 117.442 22.8232C117.401 22.5452 117.38 22.2764 117.38 22.0166ZM117.62 19.002L117.633 20.0205H116.451C116.145 20.0205 115.877 20.0501 115.644 20.1094C115.412 20.1641 115.218 20.2461 115.063 20.3555C114.908 20.4648 114.792 20.597 114.714 20.752C114.637 20.9069 114.598 21.0824 114.598 21.2783C114.598 21.4743 114.644 21.6543 114.735 21.8184C114.826 21.9779 114.958 22.1032 115.131 22.1943C115.309 22.2855 115.523 22.3311 115.774 22.3311C116.111 22.3311 116.405 22.2627 116.656 22.126C116.911 21.9847 117.112 21.8138 117.257 21.6133C117.403 21.4082 117.481 21.2145 117.49 21.0322L118.023 21.7637C117.968 21.9505 117.875 22.151 117.743 22.3652C117.611 22.5794 117.437 22.7845 117.223 22.9805C117.014 23.1719 116.761 23.3291 116.464 23.4521C116.173 23.5752 115.836 23.6367 115.453 23.6367C114.97 23.6367 114.539 23.541 114.161 23.3496C113.782 23.1536 113.486 22.8916 113.272 22.5635C113.058 22.2308 112.951 21.8548 112.951 21.4355C112.951 21.0436 113.024 20.6973 113.17 20.3965C113.32 20.0911 113.539 19.8359 113.826 19.6309C114.117 19.4258 114.473 19.2708 114.892 19.166C115.311 19.0566 115.79 19.002 116.328 19.002H117.62ZM122.791 17.6826V23.5H121.144V16.1035H122.696L122.791 17.6826ZM122.497 19.5283L121.964 19.5215C121.969 18.9974 122.042 18.5166 122.183 18.0791C122.329 17.6416 122.529 17.2656 122.784 16.9512C123.044 16.6367 123.354 16.3952 123.714 16.2266C124.074 16.0534 124.475 15.9668 124.917 15.9668C125.273 15.9668 125.594 16.0169 125.881 16.1172C126.173 16.2129 126.421 16.3701 126.626 16.5889C126.836 16.8076 126.995 17.0924 127.105 17.4434C127.214 17.7897 127.269 18.2158 127.269 18.7217V23.5H125.614V18.7148C125.614 18.3594 125.562 18.0791 125.457 17.874C125.357 17.6644 125.209 17.5163 125.013 17.4297C124.821 17.3385 124.582 17.293 124.295 17.293C124.013 17.293 123.76 17.3522 123.536 17.4707C123.313 17.5892 123.124 17.751 122.969 17.9561C122.819 18.1611 122.702 18.3981 122.62 18.667C122.538 18.9359 122.497 19.223 122.497 19.5283Z" fill="#394EFF"/>
</g>
<rect x="0.5" y="1" width="144" height="35" rx="3.5" stroke="#3F51B5" stroke-opacity="0.5"/>
<defs>
<clipPath id="clip0_30_3022">
<rect y="0.5" width="145" height="36" rx="4" fill="white"/>
</clipPath>
</defs>
</svg>
