<svg width="145" height="37" viewBox="0 0 145 37" fill="none" xmlns="http://www.w3.org/2000/svg">
<g clip-path="url(#clip0_30_3015)">
<rect y="0.5" width="145" height="36" rx="4" fill="white"/>
<path d="M26.0934 13.5953C27.0192 14.4346 27.5582 15.402 27.8825 16.6224C29.1537 17.5009 29.9103 18.971 29.8984 20.5391C29.8787 23.1261 27.8103 25.1867 25.2785 25.1665H21.7486V22.2831H25.2785C26.2518 22.2831 27.041 21.497 27.041 20.5024C27.041 19.5078 26.2518 18.7015 25.2785 18.7015L25.2787 18.1782C25.2627 17.1475 24.9075 16.2821 24.1131 15.6188L26.0934 13.5953ZM17.6277 22.186C17.8561 22.2927 17.9725 22.283 18.2237 22.2831H21.5584V25.1666H18.2237C17.2252 25.171 16.3798 24.9548 15.583 24.3401L17.6277 22.186ZM18.2237 15.813C19.6556 15.8078 21.0074 16.4872 21.8774 17.6493L19.8326 19.7386C19.6561 19.3392 19.343 19.0193 18.9521 18.8388C18.0651 18.4294 17.0211 18.8322 16.6204 19.7386C16.2196 20.645 16.6138 21.7117 17.5009 22.1212L15.4562 24.2105C14.3355 23.3298 13.6752 21.9699 13.6667 20.5252C13.6517 17.9382 15.6918 15.8284 18.2237 15.813ZM16.9904 14.0309C19.3082 11.3477 23.3954 11.0768 25.9666 13.4657L23.9863 15.4893C22.537 14.2907 20.4146 14.3507 19.1594 15.7593C18.3024 15.6366 17.6465 15.6366 17.1915 15.7593C16.8559 15.8499 16.3302 16.0869 15.6143 16.4704C15.869 15.511 16.3466 14.7762 16.9904 14.0309Z" fill="#394EFF"/>
<path d="M48.6543 18.4141V22.2148C48.513 22.4017 48.292 22.6068 47.9912 22.8301C47.695 23.0488 47.3008 23.238 46.8086 23.3975C46.3164 23.557 45.7035 23.6367 44.9697 23.6367C44.3454 23.6367 43.7734 23.5319 43.2539 23.3223C42.7344 23.1081 42.2855 22.7959 41.9072 22.3857C41.5335 21.9756 41.2441 21.4766 41.0391 20.8887C40.834 20.2962 40.7314 19.6217 40.7314 18.8652V18.1748C40.7314 17.4229 40.8249 16.7529 41.0117 16.165C41.2031 15.5726 41.4766 15.0713 41.832 14.6611C42.1875 14.251 42.6159 13.9411 43.1172 13.7314C43.623 13.5173 44.195 13.4102 44.833 13.4102C45.6488 13.4102 46.3232 13.5469 46.8564 13.8203C47.3942 14.0892 47.8089 14.4629 48.1006 14.9414C48.3923 15.4199 48.5768 15.9668 48.6543 16.582H46.9727C46.918 16.2357 46.8109 15.9258 46.6514 15.6523C46.4964 15.3789 46.2731 15.1647 45.9814 15.0098C45.6943 14.8503 45.3206 14.7705 44.8604 14.7705C44.4639 14.7705 44.1152 14.8457 43.8145 14.9961C43.5137 15.1465 43.263 15.3675 43.0625 15.6592C42.8665 15.9508 42.7184 16.3063 42.6182 16.7256C42.5179 17.1449 42.4678 17.6234 42.4678 18.1611V18.8652C42.4678 19.4121 42.5247 19.8975 42.6387 20.3213C42.7572 20.7451 42.9258 21.1029 43.1445 21.3945C43.3678 21.6862 43.639 21.9072 43.958 22.0576C44.277 22.2035 44.637 22.2764 45.0381 22.2764C45.43 22.2764 45.7513 22.2445 46.002 22.1807C46.2526 22.1123 46.4508 22.0326 46.5967 21.9414C46.7471 21.8457 46.8633 21.7546 46.9453 21.668V19.6924H44.874V18.4141H48.6543ZM50.4762 19.8838V19.7266C50.4762 19.1934 50.5536 18.6989 50.7086 18.2432C50.8635 17.7829 51.0868 17.3841 51.3785 17.0469C51.6747 16.7051 52.0348 16.4408 52.4586 16.2539C52.887 16.0625 53.3701 15.9668 53.9078 15.9668C54.4501 15.9668 54.9332 16.0625 55.357 16.2539C55.7854 16.4408 56.1477 16.7051 56.4439 17.0469C56.7402 17.3841 56.9658 17.7829 57.1207 18.2432C57.2757 18.6989 57.3531 19.1934 57.3531 19.7266V19.8838C57.3531 20.417 57.2757 20.9115 57.1207 21.3672C56.9658 21.8229 56.7402 22.2217 56.4439 22.5635C56.1477 22.9007 55.7877 23.165 55.3639 23.3564C54.94 23.5433 54.4592 23.6367 53.9215 23.6367C53.3792 23.6367 52.8938 23.5433 52.4654 23.3564C52.0416 23.165 51.6816 22.9007 51.3854 22.5635C51.0891 22.2217 50.8635 21.8229 50.7086 21.3672C50.5536 20.9115 50.4762 20.417 50.4762 19.8838ZM52.1236 19.7266V19.8838C52.1236 20.2165 52.1578 20.5309 52.2262 20.8271C52.2945 21.1234 52.4016 21.3831 52.5475 21.6064C52.6933 21.8298 52.8801 22.0052 53.108 22.1328C53.3359 22.2604 53.607 22.3242 53.9215 22.3242C54.2268 22.3242 54.4911 22.2604 54.7145 22.1328C54.9423 22.0052 55.1292 21.8298 55.275 21.6064C55.4208 21.3831 55.5279 21.1234 55.5963 20.8271C55.6692 20.5309 55.7057 20.2165 55.7057 19.8838V19.7266C55.7057 19.3984 55.6692 19.0885 55.5963 18.7969C55.5279 18.5007 55.4186 18.2386 55.2682 18.0107C55.1223 17.7829 54.9355 17.6051 54.7076 17.4775C54.4843 17.3454 54.2177 17.2793 53.9078 17.2793C53.5979 17.2793 53.329 17.3454 53.1012 17.4775C52.8779 17.6051 52.6933 17.7829 52.5475 18.0107C52.4016 18.2386 52.2945 18.5007 52.2262 18.7969C52.1578 19.0885 52.1236 19.3984 52.1236 19.7266ZM58.8195 19.8838V19.7266C58.8195 19.1934 58.897 18.6989 59.052 18.2432C59.2069 17.7829 59.4302 17.3841 59.7219 17.0469C60.0181 16.7051 60.3781 16.4408 60.802 16.2539C61.2303 16.0625 61.7134 15.9668 62.2512 15.9668C62.7935 15.9668 63.2766 16.0625 63.7004 16.2539C64.1288 16.4408 64.4911 16.7051 64.7873 17.0469C65.0835 17.3841 65.3091 17.7829 65.4641 18.2432C65.619 18.6989 65.6965 19.1934 65.6965 19.7266V19.8838C65.6965 20.417 65.619 20.9115 65.4641 21.3672C65.3091 21.8229 65.0835 22.2217 64.7873 22.5635C64.4911 22.9007 64.1311 23.165 63.7072 23.3564C63.2834 23.5433 62.8026 23.6367 62.2648 23.6367C61.7225 23.6367 61.2372 23.5433 60.8088 23.3564C60.385 23.165 60.0249 22.9007 59.7287 22.5635C59.4325 22.2217 59.2069 21.8229 59.052 21.3672C58.897 20.9115 58.8195 20.417 58.8195 19.8838ZM60.467 19.7266V19.8838C60.467 20.2165 60.5012 20.5309 60.5695 20.8271C60.6379 21.1234 60.745 21.3831 60.8908 21.6064C61.0367 21.8298 61.2235 22.0052 61.4514 22.1328C61.6792 22.2604 61.9504 22.3242 62.2648 22.3242C62.5702 22.3242 62.8345 22.2604 63.0578 22.1328C63.2857 22.0052 63.4725 21.8298 63.6184 21.6064C63.7642 21.3831 63.8713 21.1234 63.9396 20.8271C64.0126 20.5309 64.049 20.2165 64.049 19.8838V19.7266C64.049 19.3984 64.0126 19.0885 63.9396 18.7969C63.8713 18.5007 63.7619 18.2386 63.6115 18.0107C63.4657 17.7829 63.2788 17.6051 63.051 17.4775C62.8277 17.3454 62.5611 17.2793 62.2512 17.2793C61.9413 17.2793 61.6724 17.3454 61.4445 17.4775C61.2212 17.6051 61.0367 17.7829 60.8908 18.0107C60.745 18.2386 60.6379 18.5007 60.5695 18.7969C60.5012 19.0885 60.467 19.3984 60.467 19.7266ZM72.2146 16.1035H73.7117V23.2949C73.7117 23.9603 73.5704 24.5254 73.2879 24.9902C73.0053 25.4551 72.6111 25.8083 72.1053 26.0498C71.5994 26.2959 71.0138 26.4189 70.3484 26.4189C70.0659 26.4189 69.7514 26.3779 69.4051 26.2959C69.0633 26.2139 68.7306 26.0817 68.407 25.8994C68.088 25.7217 67.8214 25.487 67.6072 25.1953L68.3797 24.2246C68.644 24.5391 68.9357 24.7692 69.2547 24.915C69.5737 25.0609 69.9087 25.1338 70.2596 25.1338C70.6378 25.1338 70.9591 25.0632 71.2234 24.9219C71.4923 24.7852 71.6997 24.5824 71.8455 24.3135C71.9913 24.0446 72.0643 23.7165 72.0643 23.3291V17.7783L72.2146 16.1035ZM67.1902 19.8838V19.7402C67.1902 19.1797 67.2586 18.6693 67.3953 18.209C67.532 17.7441 67.728 17.3454 67.9832 17.0127C68.2384 16.6755 68.5483 16.418 68.9129 16.2402C69.2775 16.0579 69.6899 15.9668 70.1502 15.9668C70.6287 15.9668 71.0366 16.0534 71.3738 16.2266C71.7156 16.3997 72.0005 16.6481 72.2283 16.9717C72.4562 17.2907 72.6339 17.6735 72.7615 18.1201C72.8937 18.5622 72.9917 19.0544 73.0555 19.5967V20.0547C72.9962 20.5833 72.896 21.0664 72.7547 21.5039C72.6134 21.9414 72.4266 22.3197 72.1941 22.6387C71.9617 22.9577 71.6746 23.2038 71.3328 23.377C70.9956 23.5501 70.5968 23.6367 70.1365 23.6367C69.6854 23.6367 69.2775 23.5433 68.9129 23.3564C68.5529 23.1696 68.243 22.9076 67.9832 22.5703C67.728 22.2331 67.532 21.8366 67.3953 21.3809C67.2586 20.9206 67.1902 20.4215 67.1902 19.8838ZM68.8377 19.7402V19.8838C68.8377 20.221 68.8696 20.5355 68.9334 20.8271C69.0018 21.1188 69.1043 21.3763 69.241 21.5996C69.3823 21.8184 69.56 21.9915 69.7742 22.1191C69.993 22.2422 70.2505 22.3037 70.5467 22.3037C70.9341 22.3037 71.2508 22.2217 71.4969 22.0576C71.7475 21.8936 71.9389 21.6725 72.0711 21.3945C72.2078 21.112 72.3035 20.7975 72.3582 20.4512V19.2139C72.3309 18.945 72.2739 18.6943 72.1873 18.4619C72.1053 18.2295 71.9936 18.0267 71.8523 17.8535C71.7111 17.6758 71.5333 17.5391 71.3191 17.4434C71.1049 17.3431 70.852 17.293 70.5604 17.293C70.2641 17.293 70.0066 17.3568 69.7879 17.4844C69.5691 17.612 69.3891 17.7874 69.2479 18.0107C69.1111 18.234 69.0086 18.4938 68.9402 18.79C68.8719 19.0863 68.8377 19.403 68.8377 19.7402ZM77.5844 13V23.5H75.9301V13H77.5844ZM83.0498 23.6367C82.5029 23.6367 82.0085 23.5479 81.5664 23.3701C81.1289 23.1878 80.7552 22.9349 80.4453 22.6113C80.14 22.2878 79.9053 21.9072 79.7412 21.4697C79.5771 21.0322 79.4951 20.5605 79.4951 20.0547V19.7812C79.4951 19.2025 79.5794 18.6784 79.748 18.209C79.9167 17.7396 80.1514 17.3385 80.4521 17.0059C80.7529 16.6686 81.1084 16.4111 81.5186 16.2334C81.9287 16.0557 82.373 15.9668 82.8516 15.9668C83.3802 15.9668 83.8428 16.0557 84.2393 16.2334C84.6357 16.4111 84.9639 16.6618 85.2236 16.9854C85.488 17.3044 85.6839 17.6849 85.8115 18.127C85.9437 18.569 86.0098 19.0566 86.0098 19.5898V20.2939H80.2949V19.1113H84.3828V18.9814C84.3737 18.6852 84.3145 18.4072 84.2051 18.1475C84.1003 17.8877 83.9385 17.6781 83.7197 17.5186C83.501 17.359 83.2093 17.2793 82.8447 17.2793C82.5713 17.2793 82.3275 17.3385 82.1133 17.457C81.9036 17.571 81.7282 17.7373 81.5869 17.9561C81.4456 18.1748 81.3363 18.4391 81.2588 18.749C81.1859 19.0544 81.1494 19.3984 81.1494 19.7812V20.0547C81.1494 20.3783 81.1927 20.679 81.2793 20.957C81.3704 21.2305 81.5026 21.4697 81.6758 21.6748C81.849 21.8799 82.0586 22.0417 82.3047 22.1602C82.5508 22.2741 82.8311 22.3311 83.1455 22.3311C83.542 22.3311 83.8952 22.2513 84.2051 22.0918C84.515 21.9323 84.7839 21.7067 85.0117 21.415L85.8799 22.2559C85.7204 22.4883 85.513 22.7116 85.2578 22.9258C85.0026 23.1354 84.6904 23.3063 84.3213 23.4385C83.9567 23.5706 83.5329 23.6367 83.0498 23.6367ZM97.6242 20.2598H99.3332C99.2785 20.9115 99.0962 21.4925 98.7863 22.0029C98.4764 22.5088 98.0412 22.9076 97.4807 23.1992C96.9201 23.4909 96.2388 23.6367 95.4367 23.6367C94.8215 23.6367 94.2678 23.5273 93.7756 23.3086C93.2834 23.0853 92.8618 22.7708 92.5109 22.3652C92.16 21.9551 91.8911 21.4606 91.7043 20.8818C91.522 20.3031 91.4309 19.6559 91.4309 18.9404V18.1133C91.4309 17.3978 91.5243 16.7507 91.7111 16.1719C91.9025 15.5931 92.176 15.0986 92.5314 14.6885C92.8869 14.2738 93.313 13.957 93.8098 13.7383C94.3111 13.5195 94.8739 13.4102 95.4982 13.4102C96.2912 13.4102 96.9611 13.556 97.508 13.8477C98.0549 14.1393 98.4787 14.5426 98.7795 15.0576C99.0848 15.5726 99.2717 16.1628 99.34 16.8281H97.6311C97.5855 16.3997 97.4852 16.0329 97.3303 15.7275C97.1799 15.4222 96.9566 15.1898 96.6604 15.0303C96.3641 14.8662 95.9768 14.7842 95.4982 14.7842C95.1063 14.7842 94.7645 14.8571 94.4729 15.0029C94.1812 15.1488 93.9374 15.363 93.7414 15.6455C93.5454 15.9281 93.3973 16.2767 93.2971 16.6914C93.2014 17.1016 93.1535 17.571 93.1535 18.0996V18.9404C93.1535 19.4417 93.1968 19.8975 93.2834 20.3076C93.3745 20.7132 93.5113 21.0618 93.6936 21.3535C93.8804 21.6452 94.1174 21.8708 94.4045 22.0303C94.6916 22.1898 95.0357 22.2695 95.4367 22.2695C95.9243 22.2695 96.3186 22.1921 96.6193 22.0371C96.9247 21.8822 97.1548 21.6566 97.3098 21.3604C97.4693 21.0596 97.5741 20.6927 97.6242 20.2598ZM102.891 13V23.5H101.237V13H102.891ZM104.782 19.8838V19.7266C104.782 19.1934 104.859 18.6989 105.014 18.2432C105.169 17.7829 105.392 17.3841 105.684 17.0469C105.98 16.7051 106.34 16.4408 106.764 16.2539C107.192 16.0625 107.676 15.9668 108.213 15.9668C108.756 15.9668 109.239 16.0625 109.662 16.2539C110.091 16.4408 110.453 16.7051 110.749 17.0469C111.046 17.3841 111.271 17.7829 111.426 18.2432C111.581 18.6989 111.659 19.1934 111.659 19.7266V19.8838C111.659 20.417 111.581 20.9115 111.426 21.3672C111.271 21.8229 111.046 22.2217 110.749 22.5635C110.453 22.9007 110.093 23.165 109.669 23.3564C109.246 23.5433 108.765 23.6367 108.227 23.6367C107.685 23.6367 107.199 23.5433 106.771 23.3564C106.347 23.165 105.987 22.9007 105.691 22.5635C105.395 22.2217 105.169 21.8229 105.014 21.3672C104.859 20.9115 104.782 20.417 104.782 19.8838ZM106.429 19.7266V19.8838C106.429 20.2165 106.463 20.5309 106.532 20.8271C106.6 21.1234 106.707 21.3831 106.853 21.6064C106.999 21.8298 107.186 22.0052 107.413 22.1328C107.641 22.2604 107.912 22.3242 108.227 22.3242C108.532 22.3242 108.797 22.2604 109.02 22.1328C109.248 22.0052 109.435 21.8298 109.58 21.6064C109.726 21.3831 109.833 21.1234 109.902 20.8271C109.975 20.5309 110.011 20.2165 110.011 19.8838V19.7266C110.011 19.3984 109.975 19.0885 109.902 18.7969C109.833 18.5007 109.724 18.2386 109.574 18.0107C109.428 17.7829 109.241 17.6051 109.013 17.4775C108.79 17.3454 108.523 17.2793 108.213 17.2793C107.903 17.2793 107.635 17.3454 107.407 17.4775C107.183 17.6051 106.999 17.7829 106.853 18.0107C106.707 18.2386 106.6 18.5007 106.532 18.7969C106.463 19.0885 106.429 19.3984 106.429 19.7266ZM117.89 21.7568V16.1035H119.544V23.5H117.985L117.89 21.7568ZM118.122 20.2188L118.676 20.2051C118.676 20.7018 118.621 21.1598 118.512 21.5791C118.402 21.9938 118.234 22.3561 118.006 22.666C117.778 22.9714 117.486 23.2106 117.131 23.3838C116.775 23.5524 116.349 23.6367 115.853 23.6367C115.493 23.6367 115.162 23.5843 114.861 23.4795C114.561 23.3747 114.301 23.2129 114.082 22.9941C113.868 22.7754 113.701 22.4906 113.583 22.1396C113.465 21.7887 113.405 21.3695 113.405 20.8818V16.1035H115.053V20.8955C115.053 21.1644 115.085 21.39 115.148 21.5723C115.212 21.75 115.299 21.8936 115.408 22.0029C115.518 22.1123 115.645 22.1898 115.791 22.2354C115.937 22.2809 116.092 22.3037 116.256 22.3037C116.725 22.3037 117.094 22.2126 117.363 22.0303C117.637 21.8434 117.83 21.5928 117.944 21.2783C118.063 20.9639 118.122 20.6107 118.122 20.2188ZM126.144 21.9688V13H127.798V23.5H126.301L126.144 21.9688ZM121.332 19.8838V19.7402C121.332 19.1797 121.398 18.6693 121.53 18.209C121.662 17.7441 121.853 17.3454 122.104 17.0127C122.355 16.6755 122.66 16.418 123.02 16.2402C123.38 16.0579 123.786 15.9668 124.237 15.9668C124.684 15.9668 125.075 16.0534 125.413 16.2266C125.75 16.3997 126.037 16.6481 126.274 16.9717C126.511 17.2907 126.7 17.6735 126.841 18.1201C126.983 18.5622 127.083 19.0544 127.142 19.5967V20.0547C127.083 20.5833 126.983 21.0664 126.841 21.5039C126.7 21.9414 126.511 22.3197 126.274 22.6387C126.037 22.9577 125.748 23.2038 125.406 23.377C125.069 23.5501 124.674 23.6367 124.223 23.6367C123.777 23.6367 123.373 23.5433 123.013 23.3564C122.658 23.1696 122.355 22.9076 122.104 22.5703C121.853 22.2331 121.662 21.8366 121.53 21.3809C121.398 20.9206 121.332 20.4215 121.332 19.8838ZM122.979 19.7402V19.8838C122.979 20.221 123.009 20.5355 123.068 20.8271C123.132 21.1188 123.23 21.3763 123.362 21.5996C123.494 21.8184 123.665 21.9915 123.875 22.1191C124.089 22.2422 124.344 22.3037 124.64 22.3037C125.014 22.3037 125.322 22.2217 125.563 22.0576C125.805 21.8936 125.994 21.6725 126.13 21.3945C126.272 21.112 126.367 20.7975 126.418 20.4512V19.2139C126.39 18.945 126.333 18.6943 126.247 18.4619C126.165 18.2295 126.053 18.0267 125.912 17.8535C125.77 17.6758 125.595 17.5391 125.385 17.4434C125.18 17.3431 124.936 17.293 124.654 17.293C124.353 17.293 124.098 17.3568 123.888 17.4844C123.679 17.612 123.505 17.7874 123.369 18.0107C123.237 18.234 123.139 18.4938 123.075 18.79C123.011 19.0863 122.979 19.403 122.979 19.7402Z" fill="#394EFF"/>
</g>
<rect x="0.5" y="1" width="144" height="35" rx="3.5" stroke="#3F51B5" stroke-opacity="0.5"/>
<defs>
<clipPath id="clip0_30_3015">
<rect y="0.5" width="145" height="36" rx="4" fill="white"/>
</clipPath>
</defs>
</svg>
