<svg width="95" height="37" viewBox="0 0 95 37" fill="none" xmlns="http://www.w3.org/2000/svg">
<g clip-path="url(#clip0_30_3029)">
<rect y="0.5" width="95" height="36" rx="4" fill="white"/>
<path d="M21.6202 23.6483L25.4442 22.9591L25.4796 22.9507L23.5133 20.5637C22.8542 19.7675 22.1988 18.9682 21.5469 18.1658C21.5469 18.154 23.5775 12.4488 23.5891 12.4286C23.5924 12.4219 24.9747 14.8559 26.9385 18.3289L30.3078 24.288L30.3333 24.3333L24.0833 24.3325L17.8333 24.3317L21.6202 23.6492V23.6483ZM13.6667 23.1397C13.6667 23.1364 14.5936 21.5087 15.7266 19.5226L17.7865 15.9113L20.1868 13.8736C21.5068 12.7535 22.5903 11.835 22.5952 11.8333C22.5864 11.8676 22.5734 11.9007 22.5565 11.9317L19.9495 17.5865L17.3894 23.1397L15.528 23.1422C14.5046 23.1439 13.6667 23.1422 13.6667 23.1389V23.1397Z" fill="#394EFF"/>
<path d="M44.8877 14.873L41.9141 23.5H40.1162L43.8623 13.5469H45.0107L44.8877 14.873ZM47.376 23.5L44.3955 14.873L44.2656 13.5469H45.4209L49.1807 23.5H47.376ZM47.2324 19.8086V21.1689H41.8184V19.8086H47.2324ZM56.3346 22.1875V23.5H50.8248V22.1875H56.3346ZM56.1842 17.1289L51.3854 23.5H50.3189V22.4404L55.0904 16.1035H56.1842V17.1289ZM55.5484 16.1035V17.416H50.401V16.1035H55.5484ZM62.5041 21.7568V16.1035H64.1584V23.5H62.5998L62.5041 21.7568ZM62.7365 20.2188L63.2902 20.2051C63.2902 20.7018 63.2355 21.1598 63.1262 21.5791C63.0168 21.9938 62.8482 22.3561 62.6203 22.666C62.3924 22.9714 62.1008 23.2106 61.7453 23.3838C61.3898 23.5524 60.9637 23.6367 60.467 23.6367C60.107 23.6367 59.7766 23.5843 59.4758 23.4795C59.175 23.3747 58.9152 23.2129 58.6965 22.9941C58.4823 22.7754 58.3159 22.4906 58.1975 22.1396C58.079 21.7887 58.0197 21.3695 58.0197 20.8818V16.1035H59.6672V20.8955C59.6672 21.1644 59.6991 21.39 59.7629 21.5723C59.8267 21.75 59.9133 21.8936 60.0227 22.0029C60.132 22.1123 60.2596 22.1898 60.4055 22.2354C60.5513 22.2809 60.7062 22.3037 60.8703 22.3037C61.3397 22.3037 61.7089 22.2126 61.9777 22.0303C62.2512 21.8434 62.4449 21.5928 62.5588 21.2783C62.6773 20.9639 62.7365 20.6107 62.7365 20.2188ZM67.9012 17.5117V23.5H66.2537V16.1035H67.826L67.9012 17.5117ZM70.1639 16.0557L70.1502 17.5869C70.0499 17.5687 69.9406 17.555 69.8221 17.5459C69.7081 17.5368 69.5942 17.5322 69.4803 17.5322C69.1977 17.5322 68.9493 17.5732 68.7352 17.6553C68.521 17.7327 68.341 17.8467 68.1951 17.9971C68.0538 18.1429 67.9445 18.3206 67.867 18.5303C67.7895 18.7399 67.7439 18.9746 67.7303 19.2344L67.3543 19.2617C67.3543 18.7969 67.3999 18.3662 67.491 17.9697C67.5822 17.5732 67.7189 17.2246 67.9012 16.9238C68.088 16.623 68.3204 16.3883 68.5984 16.2197C68.881 16.0511 69.2068 15.9668 69.576 15.9668C69.6762 15.9668 69.7833 15.9759 69.8973 15.9941C70.0158 16.0124 70.1046 16.0329 70.1639 16.0557ZM74.7201 23.6367C74.1732 23.6367 73.6788 23.5479 73.2367 23.3701C72.7992 23.1878 72.4255 22.9349 72.1156 22.6113C71.8103 22.2878 71.5756 21.9072 71.4115 21.4697C71.2475 21.0322 71.1654 20.5605 71.1654 20.0547V19.7812C71.1654 19.2025 71.2497 18.6784 71.4184 18.209C71.587 17.7396 71.8217 17.3385 72.1225 17.0059C72.4232 16.6686 72.7787 16.4111 73.1889 16.2334C73.599 16.0557 74.0434 15.9668 74.5219 15.9668C75.0505 15.9668 75.5131 16.0557 75.9096 16.2334C76.3061 16.4111 76.6342 16.6618 76.8939 16.9854C77.1583 17.3044 77.3542 17.6849 77.4818 18.127C77.614 18.569 77.6801 19.0566 77.6801 19.5898V20.2939H71.9652V19.1113H76.0531V18.9814C76.044 18.6852 75.9848 18.4072 75.8754 18.1475C75.7706 17.8877 75.6088 17.6781 75.39 17.5186C75.1713 17.359 74.8796 17.2793 74.515 17.2793C74.2416 17.2793 73.9978 17.3385 73.7836 17.457C73.574 17.571 73.3985 17.7373 73.2572 17.9561C73.116 18.1748 73.0066 18.4391 72.9291 18.749C72.8562 19.0544 72.8197 19.3984 72.8197 19.7812V20.0547C72.8197 20.3783 72.863 20.679 72.9496 20.957C73.0408 21.2305 73.1729 21.4697 73.3461 21.6748C73.5193 21.8799 73.7289 22.0417 73.975 22.1602C74.2211 22.2741 74.5014 22.3311 74.8158 22.3311C75.2123 22.3311 75.5655 22.2513 75.8754 22.0918C76.1853 21.9323 76.4542 21.7067 76.682 21.415L77.5502 22.2559C77.3907 22.4883 77.1833 22.7116 76.9281 22.9258C76.6729 23.1354 76.3607 23.3063 75.9916 23.4385C75.627 23.5706 75.2032 23.6367 74.7201 23.6367Z" fill="#394EFF"/>
</g>
<rect x="0.5" y="1" width="94" height="35" rx="3.5" stroke="#3F51B5" stroke-opacity="0.5"/>
<defs>
<clipPath id="clip0_30_3029">
<rect y="0.5" width="95" height="36" rx="4" fill="white"/>
</clipPath>
</defs>
</svg>
