<?xml version="1.0" encoding="UTF-8"?>

<svg viewBox="0 0 28 21" version="1.1" xmlns="http://www.w3.org/2000/svg" xmlns:xlink="http://www.w3.org/1999/xlink">
    <g stroke="none" stroke-width="1" fill="none" fill-rule="evenodd">
        <g transform="translate(-887.000000, -3442.000000)" fill="#394EFF" fill-rule="nonzero">
            <g transform="translate(120.000000, 3124.000000)">
                <g transform="translate(640.000000, 312.000000)">
                    <g transform="translate(117.000000, 0.000000)">
                        <path d="M23.3620008,25.8491965 L29.7862792,24.6913328 L29.8457888,24.6772125 L26.5423092,20.6670506 C25.4350951,19.3293914 24.3339236,17.9865377 23.2388296,16.6385323 C23.2388296,16.6187639 26.650257,7.03391204 26.6696323,7 C26.6751681,6.98872711 28.9974298,11.0779627 32.2967576,16.9124659 L37.9570977,26.9237504 L38,27 L27.5,26.998588 L17,26.9971759 L23.3620008,25.8506085 L23.3620008,25.8491965 Z M10,24.9947009 C10,24.9891002 11.557309,22.254569 13.4606866,18.9179648 L16.9213732,12.8510299 L20.9537652,9.4276152 C23.1713732,7.54578725 24.9916944,6.00280034 25,6 C24.985177,6.05759132 24.9633219,6.11309162 24.9349391,6.16522001 L20.5550941,15.6653708 L16.2541528,24.9947009 L13.1270764,24.9989014 C11.4078073,25.0017018 10,24.9989014 10,24.9933007 L10,24.9947009 Z"></path>
                    </g>
                </g>
            </g>
        </g>
    </g>
</svg> 
