<?xml version="1.0" encoding="UTF-8"?>

<svg viewBox="0 0 23 23" version="1.1" xmlns="http://www.w3.org/2000/svg" xmlns:xlink="http://www.w3.org/1999/xlink">
    <g stroke="none" stroke-width="1" fill="none" fill-rule="evenodd">
        <g transform="translate(-943.000000, -3497.000000)" fill="#394EFF" fill-rule="nonzero">
            <g transform="translate(120.000000, 3124.000000)">
                <g transform="translate(640.000000, 312.000000)">
                    <g transform="translate(173.000000, 54.000000)">
                        <g transform="translate(10.000000, 7.000000)">
                            <path d="M15.1655145,0.570186628 C18.6154893,1.65189487 21.3596568,4.38886828 22.4284303,7.82949111 C24.8937248,15.7284769 19.0381112,23 11.5013537,23 L11.5013537,18.5416371 C16.2220693,18.5416371 19.88623,13.8698074 18.0735558,8.89754324 C17.3994452,7.05055836 15.9439739,5.59561675 14.096741,4.9221756 C9.12877721,3.12388057 4.44759258,6.77293888 4.44759258,11.4914868 L0,11.4914868 C0,3.97127859 7.27657196,-1.8929457 15.1655145,0.570186628 Z M7.44460857,18.5185525 L7.44460857,22 L3.93426883,22 L3.93426883,18.5185525 L7.44460857,18.5185525 Z M12,14 L12,18.5185525 L7.44460857,18.5185525 L7.44460857,14 L12,14 Z M3.93426883,15.6087952 L3.93426883,18.5185525 L1,18.5185525 L1,15.6087952 L3.93426883,15.6087952 Z"></path>
                        </g>
                    </g>
                </g>
            </g>
        </g>
    </g>
</svg>
