<?xml version="1.0" encoding="UTF-8"?>

<svg viewBox="0 0 30 18" version="1.1" xmlns="http://www.w3.org/2000/svg" xmlns:xlink="http://www.w3.org/1999/xlink">
                            <g stroke="none" stroke-width="1" fill="none" fill-rule="evenodd">
                                <g transform="translate(-767.000000, -3446.000000)" fill="#394EFF">
                                    <g transform="translate(120.000000, 3124.000000)">
                                        <g transform="translate(640.000000, 312.000000)">
                                            <g transform="translate(7.000000, 10.000000)">
                                                <path d="M0.472189087,11.8832036 C4.70272131,14.3459399 9.92094311,15.8375973 15.3189625,15.8375973 C18.9608122,15.8375973 22.961858,15.0767519 26.6436184,13.5150167 C27.1923902,13.2647386 27.6613407,13.8754171 27.1224468,14.2758621 C23.8397932,16.7085651 19.0704668,18 14.9697441,18 C9.22260597,18 4.04419506,15.8676307 0.132948295,12.323693 C-0.176459262,12.0433815 0.103015284,11.6629588 0.472189087,11.8832036 Z M29.8863612,11.6329255 C30.2455574,12.083426 29.7865845,15.1768632 28.0304148,16.6585095 C27.7611174,16.8887653 27.501698,16.7686318 27.6213303,16.4682981 C28.0204371,15.4771969 28.9085495,13.2447164 28.4894874,12.7141268 C28.0703254,12.1735261 25.715695,12.4538376 24.6480843,12.5839822 C24.3286991,12.6240267 24.2788107,12.3437152 24.5682629,12.1334816 C26.444065,10.8120133 29.5270653,11.192436 29.8863612,11.6329255 Z M25.56603,4.36983782e-13 C25.7854389,4.36983782e-13 26.0150251,0.0100111235 26.2344341,0.0400444939 C26.4640203,0.0700778643 26.6734516,0.110122358 26.8829827,0.150166852 C27.0825361,0.200222469 27.2721118,0.250278087 27.4518097,0.310344828 C27.6313079,0.370411568 27.7710951,0.430478309 27.8708718,0.49054505 C28.0105592,0.570634038 28.1103359,0.650723026 28.1702019,0.740823137 C28.2300679,0.820912125 28.260001,0.931034483 28.260001,1.07119021 L28.260001,1.54171301 C28.260001,1.75194661 28.1801796,1.86206897 28.0305145,1.86206897 C27.9506932,1.86206897 27.8209835,1.82202447 27.6513631,1.74193548 C27.0826359,1.48164627 26.444065,1.35150167 25.7356504,1.35150167 C25.1669232,1.35150167 24.717928,1.44160178 24.4086202,1.63181313 C24.0993124,1.82202447 23.9396697,2.11234705 23.9396697,2.52280311 C23.9396697,2.80311457 24.0394464,3.04338154 24.2389998,3.23359288 C24.4385532,3.42380423 24.807727,3.61401557 25.3365436,3.78420467 L26.7533727,4.23470523 C27.471765,4.46496107 27.9906039,4.78531702 28.2999116,5.19577308 C28.6092194,5.60622914 28.7588845,6.07675195 28.7588845,6.59733037 C28.7588845,7.02780868 28.6690854,7.41824249 28.499465,7.75862069 C28.319867,8.09899889 28.0804029,8.39933259 27.7710951,8.63959956 C27.4617873,8.88987764 27.0926135,9.07007786 26.6635737,9.20022247 C26.2145785,9.3403782 25.745628,9.41045606 25.2367668,9.41045606 C24.717928,9.41045606 24.1990891,9.35038932 23.7002056,9.23025584 C23.2013221,9.11012236 22.812193,8.97997775 22.5527735,8.8298109 C22.3931308,8.73971079 22.2832767,8.63959956 22.2434657,8.54949944 C22.2035551,8.45939933 22.1835997,8.3592881 22.1835997,8.26918799 L22.1835997,7.75862069 C22.1835997,7.5483871 22.2634211,7.44827586 22.4130861,7.44827586 C22.4729522,7.44827586 22.5327184,7.45828699 22.5925844,7.47830923 C22.6525502,7.49833148 22.7422495,7.53837597 22.842126,7.57842047 C23.181267,7.72858732 23.5505406,7.8487208 23.9395699,7.92880979 C24.3387765,8.00889878 24.7278059,8.04894327 25.1270125,8.04894327 C25.7556057,8.04894327 26.2445116,7.93882091 26.5836526,7.7185762 C26.9229931,7.49833148 27.1025912,7.17797553 27.1025912,6.76751947 C27.1025912,6.48720801 27.0127922,6.25695217 26.8330943,6.06674082 C26.653596,5.87652948 26.3143552,5.70634038 25.8253496,5.5461624 L24.3786872,5.09566185 C23.6503173,4.86540601 23.1115231,4.52502781 22.7822599,4.07452725 C22.4529968,3.63403782 22.2832767,3.14349277 22.2832767,2.62291435 C22.2832767,2.20244716 22.3731755,1.8320356 22.5527735,1.51167964 C22.7322718,1.19132369 22.9718357,0.911012236 23.2711658,0.690767519 C23.5704959,0.46051168 23.9097367,0.290322581 24.3088435,0.170189099 C24.7079503,0.0500556174 25.1270125,4.36983782e-13 25.56603,4.36983782e-13 Z M4.99207375,0.0200222469 C6.17941652,0.0200222469 7.04747383,0.290322581 7.60622337,0.830923248 C8.15499524,1.37152392 8.43437001,2.19243604 8.43437001,3.29365962 L8.43437001,6.53726363 L8.45432535,6.53726363 C8.45432535,6.90767519 8.49423603,7.2080089 8.56407972,7.42825362 C8.64390109,7.64849833 8.74367779,7.88876529 8.88336518,8.14905451 C8.93325353,8.22914349 8.95320887,8.30923248 8.95320887,8.37931034 C8.95320887,8.47942158 8.89334285,8.57953281 8.76363313,8.67964405 L8.1350399,9.10011123 C8.04524087,9.16017798 7.95534206,9.19021135 7.87562047,9.19021135 C7.77584377,9.19021135 7.67606707,9.14015573 7.57629036,9.05005562 C7.43660298,8.89988877 7.31687093,8.73971079 7.21709423,8.57953281 C7.11731753,8.40934372 7.01754082,8.21913237 6.90778645,7.98887653 C6.12942839,8.90989989 5.15171647,9.37041157 3.97435137,9.37041157 C3.13622706,9.37041157 2.46772315,9.13014461 1.97881731,8.64961068 C1.48991146,8.16907675 1.2404697,7.52836485 1.2404697,6.72747497 C1.2404697,5.87652948 1.53970004,5.18576196 2.1484377,4.66518354 C2.75707559,4.14460512 3.56526689,3.88431591 4.59296693,3.88431591 C4.93210795,3.88431591 5.28142619,3.91434928 5.65059999,3.96440489 C6.01977379,4.01446051 6.39892526,4.0945495 6.79803208,4.18464961 L6.79803208,3.4538376 C6.79803208,2.69299221 6.63838935,2.16240267 6.32908157,1.85205784 C6.00979612,1.54171301 5.47100192,1.39154616 4.70272131,1.39154616 C4.35350285,1.39154616 3.99430671,1.43159066 3.62513291,1.52169077 C3.25595911,1.61179088 2.89676298,1.72191324 2.54754452,1.86206897 C2.38790179,1.93214683 2.26816975,1.97219132 2.19832605,1.99221357 C2.12848236,2.01223582 2.07859401,2.02224694 2.03858355,2.02224694 C1.89899594,2.02224694 1.82915225,1.92213571 1.82915225,1.71190211 L1.82915225,1.22135706 C1.82915225,1.06117909 1.84910759,0.941045606 1.89899594,0.870967742 C1.9488843,0.800889878 2.03858355,0.730812013 2.17837071,0.660734149 C2.5274894,0.480533927 2.94665133,0.330367075 3.43555717,0.210233593 C3.92446302,0.0800889878 4.44330188,0.0200222469 4.99207375,0.0200222469 Z M10.6095021,0.26028921 C10.7989781,0.26028921 10.9287876,0.290322581 10.9986313,0.360400445 C11.0784526,0.420467186 11.1383187,0.560622914 11.1981847,0.75083426 L12.8744333,7.378198 L14.4308501,0.75083426 C14.4808382,0.550611791 14.5406045,0.420467186 14.6205256,0.360400445 C14.700347,0.300333704 14.8399346,0.26028921 15.0196324,0.26028921 L15.8178461,0.26028921 C16.007322,0.26028921 16.1371315,0.290322581 16.2169529,0.360400445 C16.2967742,0.420467186 16.3666179,0.560622914 16.4065286,0.75083426 L17.9829007,7.45828699 L19.7091375,0.75083426 C19.7690035,0.550611791 19.8388472,0.420467186 19.9086909,0.360400445 C19.9885123,0.300333704 20.118222,0.26028921 20.29782,0.26028921 L21.2257434,0.26028921 C21.3853861,0.26028921 21.4751851,0.340378198 21.4751851,0.510567297 C21.4751851,0.560622914 21.4652075,0.610678532 21.4552298,0.670745273 C21.4451523,0.730812013 21.4252968,0.810901001 21.3853861,0.921023359 L18.9807675,8.6596218 C18.9208018,8.85984427 18.8509581,8.98998888 18.7711367,9.05005562 C18.6914151,9.11012236 18.5617054,9.15016685 18.392085,9.15016685 L17.5339056,9.15016685 C17.3444296,9.15016685 17.2147199,9.12013348 17.1347988,9.05005562 C17.0549774,8.97997775 16.9851337,8.84983315 16.9453228,8.64961068 L15.3987839,2.19243604 L13.8622227,8.63959956 C13.8122345,8.83982202 13.7524683,8.96996663 13.6726469,9.04004449 C13.5928256,9.11012236 13.4531382,9.14015573 13.2735401,9.14015573 L12.4154605,9.14015573 C12.2358624,9.14015573 12.1161304,9.11012236 12.036309,9.04004449 C11.9564876,8.97997775 11.8866439,8.83982202 11.8267779,8.64961068 L9.48202539,0.911012236 C9.4220596,0.710789766 9.39222636,0.580645161 9.39222636,0.510567297 C9.39222636,0.350389321 9.47194795,0.26028921 9.63169045,0.26028921 L10.6095021,0.26028921 Z M4.96214074,5.0756396 C4.29363682,5.0756396 3.80473098,5.2057842 3.47546786,5.47608454 C3.14620474,5.74638487 2.98656201,6.12680756 2.98656201,6.62736374 C2.98656201,7.09788654 3.10629405,7.44827586 3.35573581,7.68854283 C3.5951999,7.93882091 3.94441836,8.05895439 4.4033912,8.05895439 C4.73265432,8.05895439 5.07179533,7.99888765 5.43109124,7.87875417 C5.79028737,7.75862069 6.10957282,7.53837597 6.37896992,7.23804227 C6.53861265,7.04783092 6.65824491,6.83759733 6.71821071,6.59733037 C6.77807674,6.3570634 6.81798742,6.06674082 6.81798742,5.72636263 L6.81798742,5.30589544 C6.52863498,5.23581758 6.2193272,5.17575083 5.90004175,5.13570634 C5.5807563,5.09566185 5.27144852,5.0756396 4.96214074,5.0756396 Z"></path>
                                            </g>
                                        </g>
                                    </g>
                                </g>
                            </g>
                        </svg>
