<?xml version="1.0" encoding="UTF-8"?>

<svg viewBox="0 0 28 23" version="1.1" xmlns="http://www.w3.org/2000/svg" xmlns:xlink="http://www.w3.org/1999/xlink">
    <g stroke="none" stroke-width="1" fill="none" fill-rule="evenodd">
        <g transform="translate(-769.000000, -3496.000000)" fill="#394EFF" fill-rule="nonzero">
            <g transform="translate(120.000000, 3124.000000)">
                <g transform="translate(640.000000, 312.000000)">
                    <g transform="translate(0.000000, 54.000000)">
                        <g  transform="translate(9.000000, 6.000000)">
                            <path d="M21.4361643,3.03945118 C23.0331493,4.48708367 23.9629465,6.15600176 24.5223999,8.26112069 C26.7151507,9.77659175 28.0203231,12.3124353 27.9997606,15.0173723 C27.965745,19.4799652 24.3977123,23.0345047 20.0303669,22.9997473 L20.0303669,22.9997473 L13.9413489,22.9997473 L13.9413489,18.0258506 L20.0303669,18.0258506 C21.7093832,18.0258506 23.0706649,16.6698616 23.0706649,14.9541159 C23.0706649,13.238482 21.7093832,11.8476238 20.0303669,11.8476238 L20.0303669,11.8476238 L20.030838,10.9449328 C20.0031885,9.16696614 19.3904791,7.67406565 18.020163,6.52995206 L18.020163,6.52995206 Z M6.83280239,17.8583776 C7.22677129,18.0423352 7.42758387,18.0256829 7.86081841,18.0257947 L7.86081841,18.0257947 L13.61318,18.0257947 L13.61318,22.9998031 L7.86081841,22.9998031 C6.13848962,23.0074028 4.68019218,22.6345701 3.30567602,21.5740757 L3.30567602,21.5740757 Z M7.86081841,6.86482799 C10.330835,6.85587892 12.6627109,8.02791026 14.1634459,10.0325566 L14.1634459,10.0325566 L10.6363195,13.6364943 C10.33171,12.9476032 9.79172541,12.3957303 9.11742827,12.0844776 C7.5873808,11.3781518 5.78641135,12.0729663 5.09516109,13.6364943 C4.40380144,15.2000223 5.08378608,17.0401573 6.6140523,17.7465948 L6.6140523,17.7465948 L3.08692593,21.3505325 C1.15372206,19.8313734 0.0146903654,17.4855225 0.000143484755,14.9934891 C-0.0258877753,10.5308962 3.49336359,6.89153049 7.86081841,6.86482799 Z M5.73350665,3.79086107 C9.73171132,-0.837807751 16.7821359,-1.30507799 21.2174033,2.81586332 L21.2174033,2.81586332 L17.801402,6.30647596 C15.3013072,4.23902028 11.6401964,4.34239865 9.47489872,6.77229332 C7.99671509,6.56054325 6.86521062,6.56054325 6.08038532,6.77229332 C5.50150682,6.92847784 4.59458862,7.3373719 3.35963073,7.99897549 C3.79899027,6.3439157 4.62291247,5.07644098 5.73350665,3.79086107 Z"></path>
                        </g>
                    </g>
                </g>
            </g>
        </g>
    </g>
</svg>
