<svg width="268" height="46" viewBox="0 0 268 46" fill="none" xmlns="http://www.w3.org/2000/svg">
<path d="M33.9856 23L5.29022 6.15933V39.8407L33.9856 23ZM37.9012 19.5188C39.1351 20.2335 39.8963 21.5617 39.8963 23C39.8963 24.4383 39.1351 25.7665 37.9012 26.4812L6.44219 44.9474C3.87128 46.4579 0.346161 44.7323 0.346161 41.4662V4.53378C0.346161 1.26768 3.87128 -0.4579 6.44219 1.05261L37.9012 19.5188Z" fill="#394EFF"/>
<path d="M20.9748 22.0717C21.3075 22.2623 21.5128 22.6165 21.5128 23C21.5128 23.3835 21.3075 23.7377 20.9748 23.9283L12.4903 28.8526C11.7969 29.2554 10.8462 28.7953 10.8462 27.9243V18.0757C10.8462 17.2047 11.7969 16.7446 12.4903 17.1474L20.9748 22.0717Z" fill="#3EAAAF"/>
<path d="M90.3871 13.6528C92.0003 13.6528 93.4825 14.0157 94.8336 14.7415C96.1848 15.4672 97.2636 16.6298 98.0703 18.2292C98.8769 19.8285 99.2802 21.9454 99.2802 24.5796C99.2802 27.1601 98.8399 29.3273 97.9593 31.0812C97.0788 32.8352 95.7714 34.159 94.0371 35.0528C92.3028 35.9465 90.1585 36.3934 87.6042 36.3934C87.1068 36.3934 86.606 36.3732 86.1018 36.3329C85.5977 36.2926 85.1305 36.2456 84.7003 36.1918V44.8606H79.3967V13.9956H83.8735L84.1961 16.3744H84.4583L84.7086 16.0746C85.3123 15.3925 86.0522 14.8339 86.9286 14.3988C87.9302 13.9015 89.083 13.6528 90.3871 13.6528ZM206.191 13.6486C207.805 13.6486 209.287 14.0115 210.638 14.7373C211.989 15.463 213.068 16.6256 213.875 18.225C214.681 19.8243 215.085 21.9412 215.085 24.5754C215.085 27.1559 214.644 29.3231 213.764 31.077C212.883 32.831 211.576 34.1548 209.841 35.0486C208.107 35.9423 205.963 36.3892 203.409 36.3892C202.911 36.3892 202.41 36.369 201.906 36.3287C201.402 36.2884 200.935 36.2414 200.505 36.1876V44.8564H195.201V13.9914H199.678L200.001 16.3702H200.263L200.513 16.0704C201.117 15.3883 201.857 14.8297 202.733 14.3946C203.735 13.8973 204.887 13.6486 206.191 13.6486ZM250.654 13.9914L256.463 31.3975L262.411 13.9914H267.654L256.502 44.8564H251.279L254.506 35.986H253.034L245.108 13.9914H250.654ZM111.09 13.6528C113.066 13.6528 114.736 14.0796 116.101 14.933C117.465 15.7864 118.497 17.0666 119.196 18.7735C119.895 20.4804 120.245 22.6039 120.245 25.1441V26.5754L106.649 26.5755L106.652 26.6362C106.714 27.8692 106.933 28.8804 107.309 29.67C107.759 30.6175 108.488 31.2963 109.497 31.7062C110.505 32.1161 111.856 32.3211 113.55 32.3211C114.397 32.3211 115.284 32.2539 116.212 32.1195C117.139 31.9851 118.094 31.7969 119.075 31.555V35.6072L118.405 35.7668C117.519 35.9668 116.671 36.1152 115.859 36.212C114.844 36.3329 113.832 36.3934 112.824 36.3934C110.229 36.3934 108.082 36.0003 106.381 35.214C104.68 34.4278 103.413 33.1947 102.58 31.5147C101.746 29.8347 101.329 27.6574 101.329 24.9828C101.329 22.4964 101.716 20.4132 102.489 18.7332C103.262 17.0532 104.374 15.7864 105.826 14.933C107.278 14.0796 109.033 13.6528 111.09 13.6528ZM183.472 13.6486C185.449 13.6486 187.119 14.0754 188.484 14.9288C189.848 15.7822 190.88 17.0624 191.579 18.7693C192.278 20.4762 192.628 22.5997 192.628 25.1399V26.5712L179.032 26.5713L179.034 26.632C179.097 27.865 179.316 28.8762 179.691 29.6658C180.142 30.6133 180.871 31.2921 181.879 31.702C182.888 32.1119 184.239 32.3169 185.933 32.3169C186.78 32.3169 187.667 32.2497 188.594 32.1153C189.522 31.9809 190.477 31.7927 191.458 31.5508V35.603L190.787 35.7626C189.902 35.9626 189.054 36.111 188.242 36.2078C187.227 36.3287 186.215 36.3892 185.207 36.3892C182.612 36.3892 180.464 35.9961 178.764 35.2098C177.063 34.4236 175.796 33.1905 174.962 31.5105C174.129 29.8305 173.712 27.6532 173.712 24.9786C173.712 22.4922 174.099 20.409 174.872 18.729C175.645 17.049 176.757 15.7822 178.209 14.9288C179.661 14.0754 181.415 13.6486 183.472 13.6486ZM62.8079 5.77025C65.5236 5.77025 67.8897 6.31457 69.9063 7.40321C71.9229 8.49186 73.4891 10.1685 74.605 12.4332C75.7208 14.6978 76.2787 17.5773 76.2787 21.0717C76.2787 24.5662 75.7208 27.4457 74.605 29.7103C73.4891 31.975 71.9196 33.6516 69.8962 34.7403C67.8729 35.8289 65.5102 36.3732 62.8079 36.3732C60.1057 36.3732 57.7463 35.8289 55.7297 34.7403C53.7131 33.6516 52.1436 31.9784 51.021 29.7204C49.8984 27.4625 49.3372 24.5796 49.3372 21.0717C49.3372 17.5639 49.8984 14.681 51.021 12.4231C52.1436 10.1651 53.7131 8.49186 55.7297 7.40321C57.7463 6.31457 60.1057 5.77025 62.8079 5.77025ZM234.428 13.6486C236.593 13.6486 238.377 13.9208 239.782 14.4651C241.187 15.0094 242.232 15.9234 242.918 17.2069C243.604 18.4904 243.947 20.2343 243.947 22.4384V35.986H239.571L239.187 33.7079H238.925L238.694 33.9995C238.059 34.7541 237.272 35.3256 236.334 35.7138C235.279 36.1506 234.139 36.369 232.916 36.369C230.724 36.369 229.014 35.8012 227.784 34.6655C226.554 33.5298 225.938 32.0212 225.938 30.1396C225.938 28.1236 226.627 26.5477 228.005 25.412L228.053 25.3731C229.435 24.2607 231.64 23.5917 234.67 23.3658L238.764 22.9761L238.764 22.1159L238.757 21.7529C238.722 20.8084 238.546 20.0525 238.23 19.485C237.873 18.8466 237.309 18.3963 236.536 18.1343C235.763 17.8722 234.758 17.7411 233.521 17.7411C232.687 17.7411 231.74 17.8151 230.677 17.9629C229.615 18.1107 228.58 18.3392 227.572 18.6483V14.5962L228.205 14.4196C229.064 14.1959 229.986 14.0196 230.97 13.8906C232.2 13.7293 233.353 13.6486 234.428 13.6486ZM134.454 13.6528C135.879 13.6528 137.146 13.9284 138.255 14.4794C139.364 15.0304 140.235 15.9141 140.867 17.1305C141.499 18.3468 141.815 19.9697 141.815 21.9991V35.9902H136.511V22.3015L136.505 21.9593C136.459 20.6232 136.139 19.6823 135.543 19.1364C134.898 18.545 134.01 18.2493 132.881 18.2493C132.343 18.2493 131.785 18.3233 131.207 18.4711C130.629 18.6189 130.071 18.8541 129.534 19.1767C128.996 19.4993 128.525 19.9226 128.122 20.4468V35.9902H122.818V13.9956H127.215L127.578 16.314H127.84L128.164 16.0009C128.936 15.2923 129.816 14.7381 130.804 14.3383C131.933 13.8813 133.15 13.6528 134.454 13.6528ZM159.241 5.80637C163.408 5.80637 166.531 6.56237 168.608 8.07438C170.685 9.58638 171.723 11.9418 171.723 15.1405C171.723 17.2103 171.229 18.944 170.241 20.3418C169.253 21.7396 167.828 22.7912 165.966 23.4968L165.868 23.5336C165.67 23.6066 165.469 23.6757 165.263 23.7408L165.26 23.7417L174.143 35.986H168.174L159.99 24.545L159.905 24.5471C159.68 24.5525 159.452 24.5552 159.221 24.5552C158.535 24.5552 157.923 24.5418 157.385 24.5149C156.848 24.488 156.29 24.4612 155.712 24.4343V35.986H150.408V6.75389L151.053 6.62537C151.709 6.49937 152.394 6.38093 153.11 6.27005C154.065 6.12221 155.056 6.00797 156.085 5.92733C157.113 5.84669 158.165 5.80637 159.241 5.80637ZM223.204 3.40732V35.986H217.9V3.40732H223.204ZM238.764 26.0863L235.174 26.41L234.799 26.4516C233.582 26.6071 232.692 26.9292 232.129 27.418C231.511 27.9556 231.202 28.6948 231.202 29.6356C231.202 30.5898 231.484 31.3223 232.049 31.833C232.613 32.3438 233.447 32.5991 234.549 32.5991C235.275 32.5991 236.008 32.458 236.747 32.1758L236.821 32.1469C237.532 31.8619 238.179 31.4012 238.764 30.7645L238.764 26.0863ZM88.915 18.0276C88.1352 18.0276 87.3689 18.1788 86.6161 18.4812C85.8632 18.7836 85.2246 19.2708 84.7003 19.9428V31.9985L85.0141 32.0571C85.3393 32.1138 85.6985 32.1648 86.0917 32.2102C86.6161 32.2707 87.1269 32.3009 87.6243 32.3009C89.7216 32.3009 91.2979 31.7364 92.3532 30.6075C93.4086 29.4785 93.9363 27.6103 93.9363 25.003C93.9363 23.1886 93.7212 21.7774 93.2909 20.7693C92.8607 19.7613 92.2692 19.0524 91.5164 18.6425C90.7635 18.2325 89.8964 18.0276 88.915 18.0276ZM204.719 18.0234C203.94 18.0234 203.173 18.1746 202.42 18.477C201.668 18.7794 201.029 19.2666 200.505 19.9386V31.9943L200.819 32.0529C201.144 32.1096 201.503 32.1606 201.896 32.206C202.42 32.2665 202.931 32.2967 203.429 32.2967C205.526 32.2967 207.102 31.7322 208.158 30.6033C209.213 29.4743 209.741 27.6061 209.741 24.9988C209.741 23.1844 209.526 21.7732 209.095 20.7651C208.665 19.7571 208.074 19.0482 207.321 18.6383C206.568 18.2283 205.701 18.0234 204.719 18.0234ZM62.8079 10.1853C61.1947 10.1853 59.7931 10.5381 58.6034 11.2437C57.4136 11.9493 56.496 13.0917 55.8507 14.6709C55.2054 16.2501 54.8828 18.3434 54.8828 20.9508C54.8828 23.6388 55.2054 25.7892 55.8507 27.402C56.496 29.0148 57.4102 30.1774 58.5933 30.8897C59.7763 31.602 61.1812 31.9582 62.8079 31.9582C64.4481 31.9582 65.8597 31.602 67.0428 30.8897C68.2258 30.1774 69.1367 29.0316 69.7752 27.4524C70.4138 25.8732 70.7331 23.7866 70.7331 21.1927C70.7331 18.5181 70.4105 16.3744 69.7652 14.7616C69.1199 13.1488 68.2057 11.9829 67.0226 11.2639C65.8395 10.5448 64.4347 10.1853 62.8079 10.1853ZM111.029 17.1204C110.102 17.1204 109.308 17.3287 108.65 17.7453C107.991 18.162 107.49 18.8609 107.147 19.842L107.126 19.9051C106.833 20.7737 106.671 21.9031 106.639 23.2933L106.637 23.3902H115.28L115.279 23.3134C115.248 21.8893 115.088 20.7389 114.8 19.8621C114.477 18.881 114 18.1788 113.368 17.7554C112.737 17.3321 111.957 17.1204 111.029 17.1204ZM183.412 17.1162C182.484 17.1162 181.691 17.3245 181.032 17.7411C180.373 18.1578 179.873 18.8567 179.53 19.8378L179.508 19.9009C179.216 20.7695 179.053 21.8989 179.021 23.2891L179.019 23.386H187.663L187.661 23.3092C187.631 21.8851 187.471 20.7347 187.183 19.8579C186.86 18.8768 186.383 18.1746 185.751 17.7512C185.119 17.3279 184.339 17.1162 183.412 17.1162ZM159.765 9.83838C158.958 9.83838 158.236 9.87198 157.597 9.93918C156.959 10.0064 156.33 10.0937 155.712 10.2013V20.3015L156.132 20.3395C156.405 20.3634 156.665 20.3843 156.912 20.4023C157.281 20.4291 157.658 20.4493 158.041 20.4627C158.424 20.4762 158.844 20.4829 159.301 20.4829C161.829 20.4829 163.684 20.0562 164.867 19.2027C166.05 18.3493 166.642 16.9952 166.642 15.1405C166.642 13.904 166.396 12.896 165.906 12.1165C165.415 11.3369 164.662 10.7624 163.647 10.3928C162.632 10.0232 161.338 9.83838 159.765 9.83838Z" fill="black"/>
</svg>
