<?xml version="1.0" encoding="utf-8"?>
<!-- Generator: Adobe Illustrator 23.1.1, SVG Export Plug-In . SVG Version: 6.00 Build 0)  -->
<svg version="1.1" id="Layer_1" xmlns="http://www.w3.org/2000/svg" xmlns:xlink="http://www.w3.org/1999/xlink" x="0px" y="0px"
	 viewBox="0 0 100 100" style="enable-background:new 0 0 100 100;" xml:space="preserve">
<path d="M91,56.4c2.4-2.3,3.9-5.5,3.9-8.9c0-1.6-1.3-2.8-2.8-2.8c-1.6,0-2.8,1.3-2.8,2.8c0,1.7-0.7,3.4-1.8,4.6L85,49.2
	c-0.3-5.2-2.4-10.1-6.1-13.7c3.7-0.9,6.4-3,8.5-6.2c0.9-1.3,0.5-3-0.8-3.9c-1.3-0.9-3-0.5-3.9,0.8l-0.3,0.4c-2.2,3.2-6.4,4.5-10,2.9
	c-5.7-4.3-5.4-4.1-5.6-4.2c-3.2-2.1-6.9-3.2-10.8-3.2h-23C17.6,22.2,5,34.8,5,50.2c0,1.7,3.2,10.6,0.1,23.2
	c-0.4,1.8,0.9,3.5,2.7,3.5h9.8c1.3,0,2.5-0.9,2.7-2.2L23,63.1c0.1-0.1,0.2-0.2,0.3-0.2v11.2c0,1.6,1.3,2.8,2.8,2.8H33
	c1.5,0,2.7-1.2,2.8-2.7l0.5-8.7c1.8,0.3,3.5,0.4,5.3,0.3v8.3c0,1.6,1.3,2.8,2.8,2.8c4.6,0,4.3,0,4.4,0c1.3,0.1,2.7-0.8,2.9-2.3
	l0.6-3.6l2.2,4.3c0.5,1,1.4,1.6,2.5,1.6c7.8,0,7.4,0.1,8.2-0.2c0,0,0.6-0.2,1.1-0.8c0.6-0.7,0.7-1.6,0.5-2.5
	c-0.1-0.3,0.1,0.2-4.8-10.8c1-0.7,1.9-1.6,2.7-2.5l9.4,4.7c1.5,7,10.3,8.7,15.2,3.8c3.2-3.2,2.8-6.7,2.8-9.8
	C92,57.5,91.4,57,91,56.4L91,56.4z"/>
</svg>
