<?xml version="1.0" encoding="utf-8"?>
<!-- Generator: Adobe Illustrator 23.1.1, SVG Export Plug-In . SVG Version: 6.00 Build 0)  -->
<svg version="1.1" id="Layer_1" xmlns="http://www.w3.org/2000/svg" xmlns:xlink="http://www.w3.org/1999/xlink" x="0px" y="0px"
	 viewBox="0 0 100 100" style="enable-background:new 0 0 100 100;" xml:space="preserve">
<path d="M88.7,18.3c-1.2-0.2-2.4-0.9-3.1-2c-1.6-2.2-4.1-3.7-6.7-4.1l-2.4-5.5c-0.6-1.3-2.1-2-3.5-1.6c-3.7,1.2-6.1,4.6-6.1,8.5
	c0,0.8,1-1.6-8.9,19.5l-26.4,1.3c-3.5,0-7,1.4-8.8,2.8C13,37.6,5,45.7,5,55.6v5.6c0,1.6,1.3,2.8,2.8,2.8s2.8-1.3,2.8-2.8v-5.6
	c0-4.8,2.7-9,6.6-11.1c-2.7,7.2,1.6,13-4.4,19c-0.5,0.5-0.8,1.2-0.8,2c0,0.5,0,5.2,0.3,7.1c0.6,4.6,1.9,9.1,3.9,13.2V88
	c0,1.6,1.3,2.8,2.8,2.8s2.8-1.3,2.8-2.8c0-2.9,0.1-3.3-0.3-4.1c-1.6-3.2-2.8-6.7-3.4-10.3l4.4-2.5c0.3,0,0.5,0,0.8-0.1
	c8.3,8.3,3.7,4,16.7,15.4V88c0,1.6,1.3,2.8,2.8,2.8s2.8-1.3,2.8-2.8v-2.8c0-0.8-0.3-1.6-1-2.1l-10.3-9v-8.6h28.1
	c1.4,3.4,2.5,6.4,2.9,7.5v15c0,1.6,1.3,2.8,2.8,2.8c1.6,0,2.8-1.3,2.8-2.8V73.1l3.6-8.4l11.8-5.9c-0.3,3.5-1.7,6.8-4,9.5h-3
	c-1.6,0-2.8,1.3-2.8,2.8c0,1.6,1.3,2.8,2.8,2.8h4.2c0.7,0,1.5-0.3,2-0.8c4.2-4.2,6.4-9.7,6.4-15.6c0-2.9,0.4-4.8-1.5-5.8
	c-0.8-0.4-0.5-0.3-10.1-0.3c2-7.2,1.8-12.2,1.8-16.9h4.8c4.3,0,7.8-3.5,7.8-7.8V26C95,22.3,92.3,19,88.7,18.3z M20.4,65.9
	c0.1,0,0.2-0.1,0.2-0.1C20.6,65.8,20.5,65.8,20.4,65.9z"/>
</svg>
