<svg xmlns="http://www.w3.org/2000/svg"  viewBox="0 0 24 24" fill="#27A2A8" baseProfile="basic"><path d="M19,13c1.1,0,2,0.9,2,2s-0.9,2-2,2h-0.08c-0.46,3.41-3.38,6.02-6.92,6.02c-3.53,0-6.44-2.6-6.92-6H5	c-1.1,0-2-0.9-2-2s0.9-2,2-2C5.22,13.02,19,13,19,13z" opacity=".35"/><rect width="14" height="4" x="5" y="9" opacity=".35"/><polygon points="5,9 2.75,7.75 4.875,5.875 3.875,3.5 7.25,3.875 10.17,1.02 12,2.875 15.787,1.02 16.5,4.375 20,3 19,5.5 22,7 19,9" opacity=".35"/><path d="M22.447,6.105L20.27,5.017l0.659-1.646c0.148-0.37,0.062-0.793-0.219-1.076c-0.282-0.283-0.705-0.373-1.075-0.226	l-2.401,0.943l-0.468-2.2c-0.064-0.301-0.263-0.557-0.541-0.691c-0.277-0.135-0.601-0.134-0.877,0.001L12.207,1.66l-1.324-1.342	C10.495-0.074,9.865-0.08,9.471,0.306L6.89,2.829L3.985,2.506c-0.356-0.033-0.7,0.112-0.912,0.396	c-0.212,0.284-0.258,0.66-0.121,0.986l0.721,1.713L2.088,7C1.845,7.215,1.721,7.535,1.756,7.857C1.791,8.181,1.98,8.467,2.264,8.624	L4,9.588v2.615c-1.161,0.414-2,1.514-2,2.816c0,1.372,0.926,2.533,2.232,2.888C5.085,21.44,8.299,24.02,12,24.02	c3.717,0,6.929-2.581,7.769-6.119C21.052,17.56,22,16.389,22,15c0-1.302-0.839-2.402-2-2.816V9.535l2.555-1.703	c0.296-0.197,0.465-0.538,0.443-0.895C22.976,6.582,22.766,6.265,22.447,6.105z M13,10v2h-2v-2H13z M18,10v2h-3v-2H18z M9,12H6v-2h3	V12z M18.92,16c-0.5,0-0.924,0.37-0.991,0.866c-0.103,0.765-0.358,1.477-0.723,2.118l-1.758-0.879	c-0.495-0.245-1.095-0.046-1.342,0.447c-0.247,0.494-0.047,1.095,0.447,1.342l1.349,0.674C14.846,21.474,13.477,22.02,12,22.02	c-1.472,0-2.84-0.546-3.897-1.453l1.344-0.672c0.494-0.247,0.694-0.848,0.447-1.342c-0.247-0.493-0.847-0.692-1.342-0.447	l-1.755,0.878c-0.364-0.637-0.62-1.344-0.727-2.103C6,16.387,5.498,16.02,5,16.02c-0.551,0-1-0.448-1-1s0.449-1,1-1	c0.219,0,13.904-0.02,14.001-0.02C19.552,14.001,20,14.449,20,15C20,15.552,19.551,16,18.92,16z M18.697,8H5.259L4.473,7.563	l1.063-0.938c0.322-0.284,0.427-0.742,0.26-1.138L5.458,4.682L7.14,4.869c0.296,0.03,0.595-0.07,0.81-0.279l2.208-2.158l1.13,1.146	c0.303,0.307,0.766,0.386,1.152,0.196l2.636-1.291l0.446,2.101c0.061,0.287,0.246,0.533,0.504,0.673	c0.259,0.139,0.565,0.157,0.839,0.05l1.347-0.529l-0.141,0.353c-0.193,0.482,0.016,1.033,0.481,1.266l1.459,0.729L18.697,8z"/></svg>