<svg xmlns="http://www.w3.org/2000/svg" fill="none" viewBox="-14.42 0.52 100.88 83.05">
<g clip-path="url(#clip0_1260_47)">
<rect y="0.522217" width="76" height="76" rx="36.8957" fill="#FAFBFB"/>
<path d="M54.571 62.6227C52.2044 60.029 54.0299 55.8509 57.5753 55.7279C67.3982 55.3965 82.201 55.5952 84.5383 59.656C84.5383 59.656 88.4099 65.1671 83.7908 73.4282C82.1333 76.3873 78.6998 78.0592 75.5344 77.4234C73.0499 76.9236 70.0719 75.5343 65.9713 72.6744C61.8708 69.8145 57.9899 66.3764 54.5701 62.6273L54.5682 62.6246L54.571 62.6227Z" fill="white"/>
<path d="M54.1908 62.8228C53.0564 61.5895 52.7538 59.6908 53.4251 58.1324C54.0666 56.5177 55.7128 55.3313 57.455 55.2702C60.5991 55.1404 63.7091 55.1059 66.8395 55.1621C71.3908 55.3539 82.3744 55.5305 84.8919 59.4096C87.7026 64.1725 86.4528 70.3144 83.3815 74.7013C81.9977 76.4225 79.9436 77.6226 77.7396 77.8543C74.4969 78.1472 71.4169 76.4125 68.7274 74.8929C63.419 71.6856 58.0591 67.1339 54.188 62.8247L54.1908 62.8228ZM54.9488 62.4243C58.3768 66.2281 63.9694 71.2582 69.0967 74.2941C73.6813 77.0407 78.6586 79.1324 82.7942 74.249C85.3698 70.4979 86.5315 65.4688 84.8412 61.2089C84.1208 59.1093 82.5848 58.3237 80.5366 57.6945C76.1061 56.4322 71.4126 56.2841 66.7976 56.1433C63.7018 56.0717 60.5759 56.1009 57.4899 56.2076C56.0845 56.2466 54.7834 57.1682 54.2503 58.4645C53.6516 59.8211 53.9815 61.3477 54.9469 62.4215L54.9488 62.4243Z" fill="#221F1F"/>
<mask id="mask0_1260_47" style="mask-type:luminance" maskUnits="userSpaceOnUse" x="-15" y="45" width="41" height="38">
<path d="M14.044 45.3484L-14.4189 64.4011L-2.52677 82.8152L25.9362 63.7625L14.044 45.3484Z" fill="white"/>
</mask>
<g mask="url(#mask0_1260_47)">
<path d="M22.7477 62.0556C24.3294 58.8642 21.5181 55.2909 18.1151 56.1527C8.69321 58.5549 -5.32431 62.8605 -6.49962 67.4757C-6.49962 67.4757 -8.75905 73.9329 -2.23989 80.7221C0.0968586 83.1533 3.79015 83.8315 6.63558 82.3328C8.86693 81.1518 11.3408 78.968 14.5 75.037C17.6592 71.1059 20.4641 66.6708 22.7443 62.0554L22.7477 62.0556Z" fill="white"/>
<path d="M22.1598 61.9296C22.7674 60.647 22.7183 59.1569 21.8155 58.0333C21.0122 56.9861 19.6329 56.4863 18.3637 56.8209C15.4197 57.5843 12.436 58.4069 9.50842 59.3036C5.16002 60.6901 0.752034 62.1311 -3.14244 64.5431C-4.92575 65.7101 -6.1636 66.8512 -6.32676 69.0841C-6.87146 73.7051 -4.50108 78.3082 -1.08958 81.2539C0.895012 82.7566 3.6501 83.2467 5.96406 82.2738C8.28349 81.1959 10.1909 79.3765 11.9258 77.4734C15.9231 73.1548 20.1313 66.1981 22.1629 61.9332L22.1598 61.9296ZM23.3284 62.1808C20.4257 68.1697 12.7785 79.8782 6.21804 82.9085C3.67329 83.9543 0.673417 83.4854 -1.52454 81.8494C-3.99373 79.7814 -5.85742 76.9843 -6.81616 73.8608C-7.33773 72.02 -7.5153 70.0478 -7.176 68.1501C-7.02837 67.0472 -6.44935 65.9295 -5.6341 65.1468C-0.859477 60.5154 11.4884 57.1178 18.0546 55.4497C21.815 54.5216 25.0741 58.6617 23.3217 62.1804L23.3284 62.1808Z" fill="#221F1F"/>
</g>
<path d="M19.2274 70.0905L17.9751 39.8198C17.9655 39.619 17.9526 39.4179 17.9364 39.2167C17.7698 37.099 17.1613 20.2801 39.5304 19.2457C39.5304 19.2457 60.3702 18.6682 60.8024 38.0998L60.4999 68.9346C60.5352 70.3697 60.2837 71.7354 59.7972 73.0006C58.9749 75.1346 57.4939 76.9049 55.6762 78.3486C54.743 79.0878 53.7356 79.7145 52.6858 80.2575C49.3958 81.9607 45.7317 82.836 42.0244 82.9382L38.8152 83.0256C36.3014 83.0949 33.7898 82.8009 31.375 82.1214C29.7433 81.6627 28.2294 81.1831 26.8106 80.4808C23.8036 78.9961 21.3919 76.9142 20.143 74.105C19.5932 72.8707 19.2698 71.5191 19.2343 70.0875L19.2276 70.0871L19.2274 70.0905Z" fill="white"/>
<path d="M19.0518 70.3771C18.388 60.5073 17.601 48.9057 17.1314 39.0901C16.6936 28.9841 22.7312 21.7697 32.2357 19.4464C34.5576 18.8339 36.9708 18.5828 39.3485 18.4351C42.7488 18.395 46.096 19.0518 49.2896 20.2236C57.3305 23.2443 61.6197 29.907 61.5683 38.5747C61.4943 46.7794 61.2953 58.9204 61.1929 67.1575C61.1786 69.096 61.2295 71.1941 60.4826 73.0332C58.2962 78.73 52.3763 81.7666 46.8127 82.964C44.1166 83.5841 41.0566 83.4993 38.309 83.57C32.1358 83.5266 24.0666 81.2414 20.5638 75.6928C19.5223 74.0288 18.9333 72.0724 18.9059 70.1012L19.3708 70.404C19.2883 70.4506 19.132 70.4391 19.0547 70.3841L19.0518 70.3771ZM19.4056 69.8013C19.3352 69.7432 19.1822 69.7319 19.1032 69.7753L19.5681 70.078C19.8907 78.1675 28.7128 81.6976 35.5463 82.3935C37.1395 82.6328 39.4733 82.4319 41.0965 82.4146C47.8448 82.3759 56.6212 79.4849 59.2614 72.5756C59.934 70.8786 59.8398 68.9719 59.8437 67.1687C59.88 58.9179 59.9642 46.8049 60.0288 38.5861C60.0558 30.5794 56.176 24.5154 48.7232 21.7393C45.7653 20.6579 42.5529 20.0387 39.403 20.0782C37.1386 20.2285 34.809 20.4772 32.6256 21.0595C23.8113 23.2048 18.2479 29.9685 18.7376 39.3335C19.1089 48.7942 19.2453 60.2633 19.4023 69.8011L19.4056 69.8013Z" fill="#221F1F"/>
<path d="M26.2991 23.0051C26.2991 23.0051 39.0529 24.8826 51.4011 22.3102L26.2991 23.0051Z" fill="white"/>
<path d="M25.5464 23.0983C25.5464 23.0983 39.6036 25.0097 51.9518 22.4374" stroke="#221F1F" stroke-width="0.691986" stroke-miterlimit="10"/>
<path d="M17.9117 36.6108C17.9117 36.6108 39.4727 30.9733 60.4905 35.5604L17.9117 36.6108Z" fill="white"/>
<path d="M17.8293 36.2807C20.387 35.3069 23.0605 34.9301 25.725 34.4679C30.1442 33.7712 34.6747 33.3112 39.1398 33.1432C43.5653 32.9664 48.2123 33.151 52.6208 33.622C53.4691 33.7409 55.8092 34.0599 56.6374 34.1812C57.9652 34.4508 59.284 34.7675 60.5618 35.2281L60.4205 35.8898C58.6494 35.862 56.8701 35.4805 55.118 35.2805C46.3377 34.0857 37.3377 34.2855 28.5479 35.3215C27.0219 35.5238 24.7727 35.831 23.2664 36.1023C21.5146 36.4083 19.7649 36.7382 17.9952 36.9414L17.8292 36.2841L17.8293 36.2807Z" fill="#221F1F"/>
<path d="M18.8329 57.4229C22.6906 56.2282 37.4893 52.7546 61.6034 55.7066L18.8329 57.4229Z" fill="white"/>
<path d="M18.7363 57.0987C25.4764 54.9777 32.575 54.3018 39.5971 54.0703C43.1129 53.9921 46.6319 54.0431 50.1395 54.2498C53.6441 54.4495 57.1655 54.6467 60.5996 55.4948L60.5177 56.1697C57.0059 56.2345 53.5588 55.7016 50.0655 55.5398C43.114 55.123 36.1191 55.1523 29.1904 55.8982C25.7322 56.2816 22.2788 56.8283 18.9293 57.7506L18.7361 57.1021L18.7363 57.0987Z" fill="#221F1F"/>
<path d="M52.129 55.1991C52.8376 47.6898 52.8931 34.5903 52.8931 34.5903C52.8931 34.5903 35.2012 32.2856 25.6862 35.6408C25.6862 35.6408 25.9078 48.7411 27.4212 55.9519" stroke="#221F1F" stroke-width="0.691986" stroke-miterlimit="10"/>
<path d="M25.8196 35.4712C25.4596 37.8943 26.7194 52.0812 27.4294 55.4294C33.8487 54.1476 46.3591 54.1614 52.0155 54.514C52.6038 50.4014 52.5718 39.8751 52.5569 34.9125L52.5547 34.6984C42.1259 32.7249 30.4702 34.4979 25.8196 35.4712Z" fill="#5BC2C7"/>
<path d="M38.8303 45.9069L38.9044 42.1173C38.9108 41.9954 39.0382 41.9205 39.1419 41.9803L42.6452 44.0614C42.7554 44.1249 42.7467 44.2908 42.6304 44.3459L39.053 46.0544C38.947 46.1032 38.8275 46.0257 38.827 45.9068L38.8303 45.9069Z" fill="white" stroke="black" stroke-width="0.166077"/>
<g clip-path="url(#clip1_1260_47)">
<path d="M32.5917 10.8791C32.5917 10.8791 39.1314 14.0868 46.651 10.1444C46.651 10.1444 52.7836 5.30646 55.4748 14.2007C58.166 23.095 58.6942 24.6808 58.6942 24.6808C58.6942 24.6808 64.3158 21.4829 67.4915 22.6077C70.6673 23.7324 75.7807 36.3722 41.2271 39.7912C41.2271 39.7912 6.20109 40.8149 10.7286 26.1386C10.7286 26.1386 12.5368 22.7367 19.69 25.6703L24.6152 11.6186C24.6152 11.6186 27.0779 7.6178 32.5917 10.8791Z" fill="#FACCCC"/>
<path d="M33.3586 10.1453C37.7245 12.0597 42.3521 11.3984 45.9952 9.70755C48.1297 8.11816 51.4897 7.57149 53.5016 9.43145C55.1096 10.8898 55.6527 12.6749 56.1501 14.4397C56.1501 14.4397 58.9139 24.637 58.914 24.6402L58.5624 24.5586C60.3446 23.5555 62.2483 22.6622 64.4385 22.2251C67.3205 21.6486 68.9943 22.5775 69.8517 24.4978C70.5836 26.0633 70.506 27.8162 69.7655 29.4102C65.9777 37.0232 51.0471 39.491 41.3379 40.5599C31.7807 40.7044 17.3769 39.7888 11.3917 33.8998C9.09336 31.6708 8.78589 28.5989 9.79982 25.9322C10.7741 24.297 13.5664 23.6219 15.7189 24.0805C17.2233 24.3246 18.5709 24.8898 19.8019 25.5257C19.8064 25.5255 19.4736 25.6332 19.4736 25.6332L20.4321 22.0757C21.4387 18.5866 22.4491 14.7456 23.5602 11.2962C24.9509 9.02288 28.1607 7.98714 31.1889 9.10024C31.8914 9.33458 32.7483 9.79962 33.3542 10.1455L33.3586 10.1453ZM31.8278 11.6128C29.929 10.5536 27.5711 9.91206 25.9045 11.6771C25.8156 11.7656 25.7151 11.887 25.6733 11.9408L25.7418 11.8017C24.3807 15.1545 22.8476 18.8776 21.4157 22.2372L19.9094 25.7073L19.818 25.9185C19.818 25.9185 19.581 25.8148 19.5766 25.815C18.2977 25.4559 16.8666 25.0822 15.4827 25.0157C14.6025 24.9585 13.5651 25.045 12.861 25.3754C12.3305 25.6193 11.8631 25.9632 11.6399 26.3782L11.6835 26.2759C10.2989 31.7337 14.5284 35.0427 21.1459 36.8427C27.4196 38.5412 34.4686 39.0538 41.2264 39.0233C44.9432 38.6581 49.8041 38.0297 53.741 37.1044C58.7026 35.932 63.8826 34.2544 67.0482 31.0946C68.8772 29.2824 69.7136 26.8831 68.8452 24.7505C68.5933 24.1054 68.1273 23.3682 67.412 22.9732C64.9293 21.9897 60.9956 23.7441 58.8338 24.809L58.5478 24.9595L58.4866 24.7271L55.0212 14.6504C54.1276 11.7801 51.8311 7.20194 47.1725 10.6786C42.7212 13.1796 36.5714 13.6817 31.8369 11.6155L31.8278 11.6128Z" fill="black"/>
<path d="M22.7362 25.3274L21.2632 28.4117C21.2632 28.4117 43.1922 37.5914 57.7171 26.5068L56.7477 23.5501C56.7477 23.5501 42.5438 32.256 22.7362 25.3274Z" fill="white"/>
<path d="M22.8193 25.4749C22.3825 26.4883 21.9486 27.4726 21.4747 28.4589L21.3802 28.2702C27.1484 30.1791 33.5242 31.4432 39.9535 31.4331C46.428 31.4336 52.6988 29.6668 57.5551 26.396L57.4963 26.5475L56.5269 23.5908C56.5269 23.5908 56.8872 23.6688 56.8828 23.669C50.9157 27.2431 42.922 28.7611 35.4333 28.2683C31.0406 27.9719 26.6021 27.0519 22.8147 25.4719L22.8193 25.4749ZM22.657 25.1801C24.7789 25.7371 26.8692 26.37 29.0586 26.7687C32.5763 27.4496 36.2842 27.7657 39.9533 27.5933C45.9137 27.3012 51.9801 25.8838 56.8839 23.2656L56.9635 23.5099L57.9329 26.4666L57.9634 26.5392L57.874 26.6181C53.5659 30.4959 46.6178 32.595 39.9125 32.5227C33.2543 32.4995 26.729 31.0142 21.1456 28.5535L20.991 28.4906C21.5119 27.3825 22.0858 26.265 22.6481 25.1805L22.657 25.1801Z" fill="black"/>
<path d="M25.3369 28.3862L25.6205 28.3896" stroke="black" stroke-width="1.61118" stroke-linecap="round"/>
<path d="M30.0039 29.3164C30.1944 29.3187 30.2743 29.3695 30.4279 29.4308" stroke="black" stroke-width="1.61118" stroke-linecap="round"/>
<path d="M35.3838 30.0366L35.8091 30.0417" stroke="black" stroke-width="1.61118" stroke-linecap="round"/>
<path d="M40.2041 30.0938L40.7712 30.1005" stroke="black" stroke-width="1.61118" stroke-linecap="round"/>
<path d="M45.0322 29.4946L45.5993 29.5013" stroke="black" stroke-width="1.61118" stroke-linecap="round"/>
<path d="M49.1504 28.9966L49.4339 28.9999" stroke="black" stroke-width="1.61118" stroke-linecap="round"/>
<path d="M53.4893 27.7356L53.7019 27.7381" stroke="black" stroke-width="1.61118" stroke-linecap="round"/>
</g>
<path d="M18.082 45.9832C18.082 45.9832 23.1102 61.1897 39.3646 60.7137C39.3646 60.7137 55.6512 61.3073 60.5532 45.2544" stroke="black" stroke-width="0.966706" stroke-miterlimit="10"/>
<path d="M43.9742 62.3367C41.585 61.5734 39.6833 60.321 38.5016 58.7527L37.5289 59.659C37.8448 59.694 38.2879 60.0809 38.5389 60.2615C38.909 60.5227 39.2437 60.8008 39.5611 61.0954C39.9104 61.4211 40.8567 61.5022 41.1227 61.0512C41.3722 60.6287 41.6769 60.2247 42.0368 59.835C42.1854 59.675 42.3397 59.5109 42.5193 59.366C42.5887 59.3081 42.6756 59.2377 42.7518 59.1956C42.8107 59.166 42.9059 59.1393 42.9119 59.1391L42.0805 58.2599C41.3615 59.167 40.2964 59.9242 39.2864 60.6958C38.1779 61.546 37.0574 62.3966 35.9364 63.2392C35.1639 63.8203 36.4868 64.6297 37.2592 64.0486C38.4151 63.1811 39.5585 62.3058 40.7019 61.4306C41.7755 60.6053 42.8977 59.7867 43.6679 58.8182C43.9795 58.4299 43.5351 57.9032 42.8365 57.9389C41.8371 57.9952 41.2461 58.4673 40.7177 58.9815C40.2294 59.4547 39.8334 59.9613 39.5171 60.4895L41.0787 60.4453C40.6472 60.0501 40.1802 59.6678 39.6725 59.3147C39.196 58.9807 38.6552 58.5726 37.9382 58.489C37.1179 58.3924 36.6151 58.9339 36.9655 59.3953C38.2706 61.128 40.4712 62.5516 43.106 63.3918C43.542 63.5313 44.0925 63.4358 44.3306 63.1415C44.5575 62.8634 44.404 62.4723 43.9619 62.333L43.9742 62.3367Z" fill="black"/>
</g>
<defs>
<clipPath id="clip0_1260_47">
<rect y="0.522217" width="76" height="76" rx="36.8957" fill="white"/>
</clipPath>
<clipPath id="clip1_1260_47">
<rect width="61.1521" height="44.7166" fill="white" transform="translate(8.24023 9.70898) rotate(-2.9914)"/>
</clipPath>
</defs>
</svg>