<svg xmlns="http://www.w3.org/2000/svg"  viewBox="0 0 24 24" fill="#27A2A8"><path d="M11 3A8 8 0 1 0 11 19A8 8 0 1 0 11 3Z" opacity=".3"/><path d="M18.3,20.8L16,18.5c-1,0.8-2.4,1.4-5,1.5c-2.3,0.1-4.6-0.8-6.3-2.5C3,15.8,2,13.4,2,11c0-5,4-9,9-9c4.3,0,8.1,3.1,8.9,7.2 l-2,0.4C17.3,6.4,14.3,4,11,4c-3.9,0-7,3.1-7,7c0,1.9,0.8,3.7,2.1,5.1c1.3,1.3,3,2,4.8,1.9c2.7-0.1,3.6-0.8,4.3-1.6l0.7-0.8l3.8,3.7 L18.3,20.8z"/><path d="M19 12.6H21V15.399999999999999H19z" transform="rotate(-45.001 20 14)"/><path d="M20 3.1A3.1 1.9 0 1 0 20 6.9A3.1 1.9 0 1 0 20 3.1Z" transform="rotate(-74.342 19.993 5.006)"/><path d="M6 8A1 1.5 0 1 0 6 11 1 1.5 0 1 0 6 8zM9 6A1 1.5 0 1 0 9 9 1 1.5 0 1 0 9 6zM9 15c-1.7 0-3-.7-3-1.5S7.3 12 9 12V15zM11 11h3c0 3.1-1.3 5-3 5V11zM13.9 3.6c-.5-.2-.9-.3-1.4-.4C12 3.1 11.5 3 11 3 9.9 3 8.8 3.2 7.9 3.6 8.2 5 9.4 6 10.9 6c.4 0 .7-.1 1.1-.2.1 2.3 1.7 4.2 3.6 4.2 1.2 0 2.2-.7 2.9-1.8C17.7 6.1 16 4.4 13.9 3.6zM3.3 13c-1.3 5.5 2 9 4.2 9 1.6 0 3.1-1.1 3.6-2.8C7.9 19.3 4.5 15.6 3.3 13z"/><path d="M18,14l-0.5,0C16,13.7,15,12.5,15,11c0-1.7,1.3-3,3-3l0.5,0C20,8.3,21,9.5,21,11C21,12.7,19.7,14,18,14z M17.8,12H18 c0.6,0,1-0.4,1-1c0-0.5-0.3-0.9-0.8-1H18c-0.6,0-1,0.4-1,1C17,11.5,17.3,11.9,17.8,12z"/></svg>