<?xml version="1.0" encoding="utf-8"?>
<!-- Generator: Adobe Illustrator 23.1.1, SVG Export Plug-In . SVG Version: 6.00 Build 0)  -->
<svg version="1.1" id="Layer_1" xmlns="http://www.w3.org/2000/svg" xmlns:xlink="http://www.w3.org/1999/xlink" x="0px" y="0px"
	 viewBox="0 0 100 100" style="enable-background:new 0 0 100 100;" xml:space="preserve">
<path d="M92,79.7C85.8,74.9,91.4,63,91.4,63c11.2-28.7-8.2-43.1-11.5-45c-6.8-3.8-22.9-7.6-31,2.7c-2.3,2.9-1.5,6.5-0.5,9.1
	c2.7,6.5,10,12.4,16.3,13.1c1.8,0.2,3.1-0.2,4-1.2c2.8-3.3,1.3-11.8,0.5-14.9c-0.2-0.8,0.3-1.7,1.1-1.9c0.2-0.1,0.5-0.1,0.7,0
	c0.6,0.1,1,0.5,1.2,1.1c0.3,1.3,3.2,12.6-1.2,17.7c-1,1.1-2.7,2.4-5.5,2.4c-0.4,0-0.7,0-1.2-0.1c-7.4-0.8-15.7-7.4-18.8-14.9
	c-0.8-1.9-1.2-3.7-1.2-5.5c-17.7,0-38,9.9-39.3,27.7c0,0.6,0.3,1.1,0.9,1.3c0.5,0.2,1.1,0,1.4-0.5c1.1-1.7,2.4-3.6,3.8-4.7
	c0.2,2.8,1,5.5,2.5,7.9c2.9,4.9,4.5,10.5,4.5,16.2l0,10.5c0.1,1.3,3.2,2.3,7,2.3c3.8,0,6.8-1,7-2.3l0-6.8c0-1.8,0.7-3.5,2.1-4.7
	c1.3-1.2,3.1-1.7,4.9-1.7c1.1,0,3.4,0,3.5,0c1.7,0,3.4,0.8,4.6,2c1.2,1.2,1.9,2.9,1.9,4.6l0,6.7c0.1,1.3,3.2,2.3,7,2.3
	c3.8,0,6.8-1,7-2.3l0-5.9c0-17.5,12.9-25.4,14.4-26.3c7.6-4.6,4.2,9.3,4.2,9.3c-5,15.7,6.6,22.9,6.6,22.9l0.1-0.1c0,0,0,0.1,0.1,0.1
	c0.7,0.6,2.1,0,3-1.2C92.3,81.7,92.5,80.4,92,79.7L92,79.7z"/>
</svg>
