<svg xmlns="http://www.w3.org/2000/svg"  viewBox="0 0 24 24" fill="#27A2A8"><path d="M21,13c0-1.6-1.2-3.3-3-4c0-2.8-2.1-6-6-6S6,6.2,6,9c-1.8,0.7-3,2.4-3,4 c0,2.7,2.6,4.4,5.2,4.9c0.5,1.2,2,2.1,3.8,2.1s3.3-0.9,3.8-2.1C18.4,17.4,21,15.7,21,13z" opacity=".3"/><path d="M12,21c-2.8,0-5-1.8-5-4h2c0,1.1,1.3,2,3,2c1.7,0,3-0.9,3-2h2C17,19.2,14.8,21,12,21z"/><path d="M15.1,19l-0.1-2c2.1-0.1,5.1-1.5,5.1-4c0-1.2-1-2.5-2.4-3.1L17,9.7V9c0-2.1-1.6-5-5-5C8.6,4,7,6.9,7,9v0.7L6.4,9.9 C5,10.5,4,11.8,4,13c0,2.5,3,3.9,5.1,4l-0.1,2C5.6,18.8,2,16.6,2,13c0-1.9,1.2-3.7,3-4.7C5.3,5.1,7.9,2,12,2c4.1,0,6.7,3.1,7,6.3 c1.8,1,3,2.8,3,4.7C22,16.6,18.4,18.8,15.1,19z"/><path d="M17 13h-2c0-1.1-1.4-2-3-2s-3 .9-3 2H7c0-2.2 2.2-4 5-4S17 10.8 17 13zM10 17v-2c2.5 0 3.9-.8 4-1.1l2 .1C16 16.1 12.9 17 10 17z"/><path d="M19,7H5l-2,4h18L19,7z M9,10c-1.1,0-2-0.4-2-1s0.9-1,2-1s2,0.4,2,1S10.1,10,9,10z M15,10c-1.1,0-2-0.4-2-1s0.9-1,2-1 s2,0.4,2,1S16.1,10,15,10z"/><path d="M21.2,4l-0.8,0.5c-1.4,0.8-1.9,2.5-1.1,3.9L19.8,9l0.7-0.4c1.4-0.8,1.9-2.5,1.1-3.9L21.2,4z"/></svg>