<?xml version="1.0" encoding="utf-8"?>
<!-- Generator: Adobe Illustrator 23.1.1, SVG Export Plug-In . SVG Version: 6.00 Build 0)  -->
<svg version="1.1" id="Layer_1" xmlns="http://www.w3.org/2000/svg" xmlns:xlink="http://www.w3.org/1999/xlink" x="0px" y="0px"
	 viewBox="0 0 100 100" style="enable-background:new 0 0 100 100;" xml:space="preserve">
<path d="M62.4,24.5c-9.5-8.1-26.5-8.4-26.5-8.4s2.9,6,3.2,14.6c-5.1,3-10.3,7.2-15.6,12.7c0,0-7.8-9.5-18.3-8.4
	c0,0-1.3,7.8,4.6,15.4C3.9,58,5.1,65.8,5.1,65.8c10.5,1.1,18.3-8.4,18.3-8.4c7.4,7.8,14.7,12.9,21.7,15.8c-0.4,3.1-0.5,6.6,0,10.9
	c0,0,8-0.9,14.4-7.7c17,0.4,30.4-11.7,35.5-26C90.2,37,78,25.5,62.4,24.5z M74.4,45.2c-1.7,0-3.1-1.4-3.1-3.1c0-1.7,1.4-3.1,3.1-3.1
	c1.7,0,3.1,1.4,3.1,3.1C77.6,43.8,76.2,45.2,74.4,45.2z"/>
</svg>
