<svg xmlns="http://www.w3.org/2000/svg" fill="none" viewBox="-13.41 0.52 97.47 88.13">
<g clip-path="url(#clip0_1260_202)">
<rect y="0.522217" width="76" height="76" rx="38" fill="#FAFBFB"/>
<path d="M53.8053 59.5143C52.1573 56.3785 54.9034 52.7234 58.3291 53.4804C67.8183 55.5872 81.9514 59.4483 83.2211 64.019C83.2211 64.019 85.6144 70.3954 79.2175 77.3725C76.9233 79.8709 73.2349 80.6643 70.3544 79.2554C68.0936 78.1488 65.5724 76.0455 62.3269 72.2187C59.0814 68.3919 56.1843 64.051 53.8032 59.5186L53.8021 59.5154L53.8053 59.5143Z" fill="white"/>
<path d="M53.3937 59.6168C52.6014 58.1235 52.7647 56.182 53.7798 54.8164C54.7798 53.388 56.6399 52.6294 58.3235 53.0008C61.3663 53.6517 64.3539 54.3879 67.3392 55.2184C71.6533 56.5341 82.1329 59.4276 83.6186 63.8642C85.1742 69.2423 82.5109 74.9705 78.5215 78.5224C76.785 79.8716 74.5308 80.5427 72.3642 80.2247C69.1879 79.7096 66.6515 77.2416 64.4378 75.0818C60.1183 70.6144 56.0702 64.8126 53.3905 59.618L53.3937 59.6168ZM54.2149 59.4127C56.5908 64.0009 60.7475 70.3305 64.9346 74.5846C68.6707 78.4199 72.9395 81.7086 78.0669 77.9323C81.4296 74.8826 83.7429 70.2266 83.1405 65.6204C82.9516 63.3781 81.6677 62.2255 79.8558 61.0997C75.913 58.7617 71.4521 57.4538 67.0648 56.1726C64.1163 55.3356 61.1148 54.5902 58.1332 53.9309C56.7776 53.6212 55.3112 54.205 54.4911 55.3472C53.5937 56.5325 53.5453 58.1148 54.2138 59.4095L54.2149 59.4127Z" fill="#221F1F"/>
<mask id="mask0_1260_202" style="mask-type:luminance" maskUnits="userSpaceOnUse" x="-14" y="48" width="40" height="41">
<path d="M10.3914 48.441L-13.4053 73.3752L2.06283 88.6512L25.8595 63.717L10.3914 48.441Z" fill="white"/>
</mask>
<g mask="url(#mask0_1260_202)">
<path d="M22.4839 62.8073C23.3677 59.355 19.8612 56.5177 16.7026 58.1176C7.96109 62.5631 -4.89109 69.8869 -5.07799 74.6298C-5.07799 74.6298 -5.94296 81.4036 1.87492 86.5301C4.6767 88.3654 8.44246 88.195 10.9205 86.102C12.8626 84.4552 14.8327 81.7807 17.1094 77.2566C19.3861 72.7326 21.2096 67.7988 22.4806 62.8078L22.4839 62.8073Z" fill="white"/>
<path d="M21.8802 62.8163C22.2079 61.4352 21.8477 60 20.7267 59.112C19.7192 58.276 18.2613 58.1003 17.086 58.7098C14.3573 60.1113 11.6019 61.579 8.91724 63.1062C4.94097 65.4274 0.917661 67.8151 -2.39852 71.0298C-3.90393 72.5625 -4.87956 73.9477 -4.57214 76.1515C-4.13911 80.7585 -0.849596 84.6942 3.11444 86.7877C5.37629 87.8009 8.18212 87.6583 10.2488 86.1949C12.2989 84.6284 13.7896 82.4346 15.0933 80.1983C18.1111 75.1101 20.7836 67.4142 21.8841 62.8191L21.8802 62.8163ZM23.0794 62.7979C21.4853 69.2616 16.4335 82.341 10.6309 86.754C8.35303 88.3399 5.31146 88.5579 2.81233 87.4632C-0.0433459 86.0102 -2.45759 83.7136 -4.05225 80.8972C-4.9494 79.2277 -5.53655 77.3534 -5.60097 75.4355C-5.68702 74.332 -5.35291 73.1173 -4.71688 72.1747C-1.00179 66.6085 10.4023 60.5406 16.4957 57.4483C19.9909 55.7039 24.0555 58.9908 23.0728 62.799L23.0794 62.7979Z" fill="#221F1F"/>
</g>
<path d="M19.988 73.8454L17.1611 43.681C17.1411 43.4809 17.1178 43.2808 17.0911 43.0807C16.8144 40.9746 15.331 24.2101 37.6159 22.0124C37.6159 22.0124 58.3974 20.3506 59.8408 39.7332L61.1442 70.5421C61.2542 71.9733 61.0742 73.3503 60.6542 74.639C59.9442 76.813 58.5574 78.658 56.8173 80.1944C55.9239 80.9812 54.9505 81.6595 53.9304 82.2565C50.7335 84.1286 47.1199 85.1935 43.423 85.4886L40.2228 85.743C37.7159 85.9431 35.1924 85.7803 32.7456 85.2274C31.0921 84.8544 29.5553 84.4542 28.1019 83.8267C25.0217 82.5006 22.5048 80.5471 21.1114 77.8067C20.498 76.6027 20.1047 75.2699 19.9946 73.842H19.988V73.8454Z" fill="white"/>
<path d="M19.8271 74.1404C18.6503 64.3185 17.2602 52.7736 16.2802 42.9958C15.3168 32.9263 20.9705 25.4072 30.3412 22.5923C32.628 21.8597 35.0248 21.4832 37.3917 21.2119C40.7852 20.9948 44.1622 21.4764 47.4124 22.4803C55.5996 25.0783 60.23 31.5086 60.63 40.1673C60.9834 48.3646 61.4167 60.4996 61.7434 68.7309C61.8301 70.6674 61.9901 72.76 61.3401 74.6355C59.4533 80.4385 53.6995 83.7791 48.2058 85.2646C45.5456 86.0243 42.4854 86.099 39.7452 86.3126C33.5781 86.5907 25.4008 84.7288 21.6139 79.3701C20.4871 77.7625 19.7971 75.8395 19.6671 73.8724L20.1471 74.1505C20.0671 74.2014 19.9104 74.198 19.8304 74.1472L19.8271 74.1404ZM20.1504 73.5468C20.0771 73.4926 19.9238 73.4892 19.8471 73.5367L20.3271 73.8148C21.0705 81.8765 30.0645 84.9424 36.925 85.2816C38.5284 85.4376 40.8486 85.1154 42.4687 85.0137C49.2059 84.6236 57.8198 81.2796 60.0966 74.2421C60.68 72.5124 60.4867 70.6132 60.3967 68.8123C60.0033 60.5708 59.4566 48.4698 59.0932 40.2588C58.7032 32.2616 54.5129 26.4078 46.9257 24.0235C43.9155 23.0976 40.6752 22.6465 37.5317 22.85C35.2782 23.118 32.9647 23.4876 30.8145 24.1829C22.1239 26.7842 16.9202 33.8285 17.897 43.1552C18.7603 52.5837 19.4937 64.0302 20.1471 73.5468H20.1504Z" fill="#221F1F"/>
<path d="M37.1234 20.9672C37.6063 20.9275 37.86 20.3691 37.5795 19.9721C34.9113 16.188 24.0383 2.32199 14.1288 11.9746C4.03143 21.8084 23.2896 15.3791 29.8846 15.6818C31.9162 15.7761 33.8552 16.6396 35.2235 18.1706C35.8113 18.8307 36.2966 19.6049 36.4722 20.4734C36.5356 20.7835 36.8161 20.9945 37.1259 20.9721V20.9672H37.1234Z" fill="white"/>
<path d="M36.8796 20.9771C36.8918 20.9225 36.9479 20.801 37.0503 20.7513C37.1406 20.7042 37.1796 20.7166 37.2503 20.6769C37.4698 20.5553 37.5113 20.2575 37.3406 20.0714L37.2674 19.9697C35.9967 18.2129 34.5918 16.5479 33.0626 15.0193C28.4676 10.3419 21.8019 6.41881 15.7995 10.9995C14.3069 12.1682 12.7801 13.6297 11.8435 15.2923C11.6435 15.7166 11.4606 16.193 11.763 16.5603C11.9996 16.7985 12.3216 16.9027 12.6874 16.9846C13.6313 17.1707 14.6069 17.1285 15.5727 17.0665C19.5239 16.7612 23.4555 15.8555 27.4212 15.4684C28.7676 15.3444 30.1578 15.2675 31.487 15.6099C33.7919 16.198 36.0503 17.8878 36.6894 20.3047L36.7162 20.4312C36.7503 20.6099 36.9259 20.7389 37.104 20.7265C37.104 20.7215 36.8698 20.9895 36.8771 20.9697L37.1186 21.2178C37.0796 21.2178 37.0064 21.2054 36.9503 21.1459C36.8918 21.0888 36.8771 21.0168 36.8771 20.9796L36.8796 20.9771ZM37.3674 20.9573C37.3674 20.9201 37.3528 20.8481 37.2967 20.791C37.2381 20.734 37.1674 20.7191 37.1308 20.7191C37.1308 20.724 37.3796 20.9647 37.3723 20.9722V21.2104L37.1454 21.2203C36.7942 21.2501 36.4357 21.0416 36.2918 20.7116C35.7455 18.3717 33.5699 16.7464 31.3504 16.2005C30.1066 15.8878 28.7968 15.9697 27.4847 16.0962C23.5091 16.5081 19.6336 17.4287 15.6264 17.7588C13.7557 17.9225 9.7582 18.0094 11.2362 14.9796C11.5655 14.327 11.9996 13.7861 12.4435 13.2625C13.3508 12.2302 14.3118 11.2674 15.4142 10.456C18.9287 7.77117 23.1896 7.7265 27.0359 9.70417C31.4017 11.9548 34.8187 15.7017 37.6796 19.6694L37.7527 19.7737L37.7893 19.8258C38.1479 20.3121 37.8625 21.0789 37.2747 21.1955C37.2625 21.2005 37.3064 21.1856 37.3259 21.1657C37.3845 21.1211 37.4015 21.0069 37.3723 20.9573H37.3674Z" fill="#221F1F"/>
<path d="M24.5977 26.4551C24.5977 26.4551 37.4319 27.6659 49.6294 24.4541L24.5977 26.4551Z" fill="white"/>
<path d="M23.8506 26.5874C23.8506 26.5874 37.9883 27.7643 50.1858 24.5525" stroke="#221F1F" stroke-width="0.676267" stroke-miterlimit="10"/>
<path d="M16.9307 40.4791C16.9307 40.4791 38.1688 33.7266 59.397 37.2131L16.9307 40.4791Z" fill="white"/>
<path d="M16.8301 40.1536C19.3336 39.048 21.9838 38.5325 24.6206 37.9322C28.9976 37.0063 33.4979 36.311 37.9483 35.9108C42.3586 35.5038 47.0089 35.4462 51.4359 35.687C52.2893 35.7616 54.6428 35.9583 55.4762 36.0363C56.8163 36.2364 58.1497 36.484 59.4498 36.8774L59.3431 37.5455C57.573 37.61 55.7762 37.3217 54.0161 37.2132C45.1854 36.4772 36.2081 37.1453 27.4842 38.6376C25.9707 38.9191 23.7406 39.3431 22.2505 39.6924C20.517 40.0892 18.7869 40.5097 17.0301 40.8048L16.8301 40.157V40.1536Z" fill="#221F1F"/>
<path d="M18.9336 61.2151C22.7239 59.8212 37.3216 55.5818 61.5566 57.2741L18.9336 61.2151Z" fill="white"/>
<path d="M18.8213 60.8963C25.4418 58.4272 32.4956 57.3826 39.4961 56.7857C43.003 56.5246 46.5199 56.3923 50.0335 56.4161C53.5438 56.433 57.0707 56.4466 60.5443 57.1147L60.4976 57.793C56.994 58.0406 53.5238 57.6879 50.0268 57.7082C43.063 57.654 36.0792 58.0474 29.1987 59.153C25.7651 59.716 22.3449 60.4418 19.048 61.5373L18.8213 60.8997V60.8963Z" fill="#221F1F"/>
<path d="M52.0698 57.2606C52.3865 49.7245 51.7598 36.64 51.7598 36.64C51.7598 36.64 33.9719 35.2596 24.6445 39.1056C24.6445 39.1056 25.5479 52.1766 27.4347 59.2989" stroke="#221F1F" stroke-width="0.676267" stroke-miterlimit="10"/>
<path d="M24.7678 38.9293C24.5345 41.3678 26.5313 55.4699 27.4147 58.7766C33.7585 57.1623 46.2527 56.5247 51.9198 56.5823C52.2931 52.4446 51.7131 41.9342 51.4397 36.9792L51.4264 36.7655C40.909 35.3377 29.3615 37.7151 24.7678 38.9293Z" fill="#5BC2C7"/>
<path d="M38.305 48.6732L38.1816 44.8849C38.1816 44.7628 38.305 44.6814 38.4117 44.7356L42.0186 46.6315C42.1319 46.6892 42.1319 46.8554 42.0186 46.9164L38.535 48.8089C38.4317 48.8632 38.3083 48.7919 38.3016 48.6732H38.305Z" fill="white" stroke="black" stroke-width="0.162304"/>
<path d="M37.1733 20.5812C37.1733 20.5812 20.4833 20.5187 17.18 39.9856L9.58593 40.4484C9.58593 40.4484 10.2162 15.6628 36.8313 14.6006C63.4464 13.5384 66.6493 36.9708 66.6493 36.9708L59.4914 37.407C59.4914 37.407 56.198 19.4145 37.1693 20.5814L37.1733 20.5812Z" fill="#FACCCC"/>
<path d="M37.1918 21.7569C30.195 22.0634 24.0233 26.1256 20.7729 31.7039C19.2071 34.304 18.1665 37.1011 17.3731 40.0067L17.3454 40.1538L17.1853 40.1636L9.59517 40.6262L9.38353 40.6463L9.38393 40.4427C9.54431 33.8387 11.9034 27.0679 16.7306 21.9606C24.16 14.052 36.9965 12.3027 47.4979 14.9344C58.3685 17.6344 65.4708 27.1076 66.8444 36.9444L66.8718 37.1427L66.6553 37.1486L59.5013 37.5846L59.3252 37.5953C58.6284 35.2385 57.4955 32.981 56.1491 30.922C52.0126 24.5143 45.4703 21.1833 37.1916 21.7533L37.1918 21.7569ZM37.1496 19.4039C46.2177 18.8076 53.7213 22.8689 57.4578 30.286C58.5907 32.5435 59.4008 34.9152 59.6899 37.3732L59.4808 37.226L66.6348 36.79L66.4459 36.9978C64.1893 26.6731 56.3945 17.5185 44.4871 15.7868C36.8088 14.637 28.3218 15.5651 21.7853 19.7077C15.2011 23.9296 11.5344 31.0055 10.15 38.0404C9.99885 38.8385 9.85237 39.6472 9.7817 40.4476L9.57046 40.2641L17.1646 39.8013L16.9768 39.9582C17.1552 37.25 17.8053 34.5057 18.8819 31.9173C21.829 24.8962 28.7611 19.8061 37.1496 19.4039Z" fill="black"/>
<path d="M9.21266 41.242C9.21266 41.242 4.07333 39.9728 4.6869 46.8433C4.92362 49.4772 5.82315 52.016 7.26231 54.2375C8.27276 55.7946 9.55193 57.2066 10.6152 56.5827L12.9108 45.5497L9.20934 41.2413L9.21266 41.242Z" fill="#FACCCC"/>
<path d="M9.12392 41.386C9.17284 41.4168 9.14838 41.4014 9.13706 41.406L9.09921 41.4051L9.01951 41.406C7.50699 41.3647 5.993 42.1446 5.66196 43.7023C4.83477 47.2292 7.0498 53.614 9.55563 56.1753C9.84279 56.4069 10.1525 56.5464 10.5345 56.4384L10.4527 56.5494L12.7484 45.5163L12.7838 45.6616L9.12324 41.3893L9.12392 41.386ZM9.30139 41.098L13.0412 45.4383L13.0938 45.5009L10.7651 56.6929C9.85429 57.4482 8.64637 56.7238 7.92871 56.0691C5.21568 53.5066 3.80634 49.7794 3.78546 46.0749C3.76299 44.1891 4.40986 41.7781 6.41423 41.0506C7.36255 40.6965 8.37698 40.7391 9.29877 41.094L9.30139 41.098Z" fill="black"/>
<path d="M16.6377 40.64C16.4747 38.5937 14.6802 37.07 12.6295 37.2368C10.5788 37.4036 9.04846 39.1977 9.21144 41.244L10.3435 55.4584C10.5065 57.5047 12.3011 59.0284 14.3518 58.8616C16.4025 58.6948 17.9328 56.9008 17.7698 54.8545L16.6377 40.64Z" fill="#FACCCC"/>
<path d="M12.7121 38.2638C11.2949 38.4457 10.1023 39.7575 10.1852 41.2035C10.1942 41.3262 10.2062 41.6842 10.2112 41.8095C10.3909 46.1299 10.4821 50.4597 10.6545 54.7821C10.6495 55.8028 10.8464 56.8338 11.5852 57.5861C13.0159 59.1673 15.7262 58.9679 16.95 57.2069C17.5895 56.3268 17.6716 55.284 17.5261 54.2221C17.313 52.0728 17.0793 49.9228 16.7998 47.7771C16.5309 45.6302 16.2301 43.4871 15.9439 41.3401L15.8891 40.9388C15.812 39.349 14.2786 38.0125 12.7055 38.2624L12.7121 38.2638ZM12.5488 36.2076C14.9779 36.0471 17.2448 37.9622 17.3988 40.3789C17.5015 42.8265 17.5158 45.2664 17.6078 47.7152C17.6727 49.8789 17.7835 52.0383 17.9122 54.1944C18.3305 56.5204 16.8023 58.8472 14.3702 59.0554C11.8873 59.2911 9.96385 57.2705 9.93279 54.8445C9.67452 52.6963 9.3983 50.5513 9.11876 48.4057C8.81544 45.9755 8.47621 43.5518 8.22538 41.1187C8.0034 38.6466 10.0439 36.2835 12.5481 36.2109L12.5488 36.2076Z" fill="black"/>
<path d="M67.7105 37.4474C67.7105 37.4474 72.6326 35.6024 72.728 42.5189C72.7631 45.1706 72.1371 47.8022 70.9484 50.1787C70.1136 51.8445 68.9999 53.3962 67.8915 52.8944L64.5137 42.1579L67.7137 37.4464L67.7105 37.4474Z" fill="#FACCCC"/>
<path d="M67.6078 37.3157C68.4705 36.9029 69.4626 36.7781 70.4037 37.0399C72.3738 37.5735 73.1835 39.8341 73.3325 41.6729C73.6595 45.3194 72.6923 49.1372 70.3965 52.0211C69.798 52.7591 68.7184 53.6239 67.7544 53.0212C67.7097 52.9684 64.3944 42.2731 64.3529 42.2085L64.3276 42.128L64.373 42.0597L67.6067 37.3125L67.6078 37.3157ZM67.8114 37.5827L64.6486 42.2532L64.6686 42.1043L68.0458 52.8397L67.9541 52.7384C68.336 52.8221 68.646 52.6665 68.9215 52.412C71.3006 49.625 72.8902 42.8961 71.5937 39.4238C71.0327 37.842 69.3795 37.2748 67.8356 37.5924L67.7995 37.6008C67.7858 37.6018 67.7623 37.6167 67.8114 37.5827Z" fill="black"/>
<path d="M60.3378 37.6626L60.6725 51.9495C60.7207 54.0063 62.4191 55.6207 64.466 55.5555C66.5129 55.4902 68.1331 53.77 68.085 51.7133L67.7503 37.4263C67.7021 35.3696 66.0037 33.7551 63.9568 33.8204C61.9099 33.8856 60.2896 35.6058 60.3378 37.6626Z" fill="#FACCCC"/>
<path d="M63.9462 33.0949C66.2406 32.9243 68.3679 34.8746 68.4095 37.2112C68.4314 39.6644 68.4112 42.1067 68.3941 44.5586C68.3756 46.7265 68.3571 48.8945 68.3597 51.0625C68.4224 52.1903 68.198 53.4128 67.4345 54.2871C65.9885 56.1582 62.9854 56.2356 61.4898 54.4358C60.7217 53.5942 60.4712 52.4289 60.5069 51.3113C60.4575 49.6885 60.3143 46.4361 60.2205 44.8173C60.1127 42.371 59.9243 39.9372 59.8197 37.4899C59.7656 35.2143 61.6901 33.1853 63.9452 33.0917L63.9462 33.0949ZM63.979 34.5419C62.4146 34.5036 60.9677 35.902 60.9295 37.504C60.9078 37.6925 60.9225 38.0859 60.9133 38.2916C60.8916 40.4606 60.8519 42.6284 60.8514 44.7975C60.8331 46.4178 60.8427 49.6822 60.8668 51.3028C60.8371 52.3721 61.0173 53.4149 61.7459 54.2091C63.1254 55.8303 65.8072 55.7273 67.0724 53.9977C67.7243 53.1603 67.8341 52.1107 67.732 51.0813C67.6319 48.9169 67.5139 46.7514 67.3969 44.5891C67.2725 42.4257 67.1756 40.2603 67.0723 38.097C67.056 37.8997 67.0553 37.4946 67.0271 37.3154C66.9025 35.7779 65.5051 34.5253 63.9832 34.544L63.979 34.5419Z" fill="black"/>
</g>
<defs>
<clipPath id="clip0_1260_202">
<rect y="0.522217" width="76" height="76" rx="38" fill="white"/>
</clipPath>
</defs>
</svg>