<?xml version="1.0" encoding="utf-8"?>
<!-- Generator: Adobe Illustrator 23.1.1, SVG Export Plug-In . SVG Version: 6.00 Build 0)  -->
<svg version="1.1" id="Layer_1" xmlns="http://www.w3.org/2000/svg" xmlns:xlink="http://www.w3.org/1999/xlink" x="0px" y="0px"
	 viewBox="0 0 100 100" style="enable-background:new 0 0 100 100;" xml:space="preserve">
<path d="M94.8,54.8c-0.9-7.2-6-13.2-12.9-15.3l-13.7-6.1C51.4,25.9,33,37.5,30.6,55.2c-4.2-1.4-9.3-3.2-17.1-3.2
	C8.8,52,5,55.8,5,60.4c0,4.7,3.8,8.4,8.4,8.4h50.6c1.6,0,2.8-1.3,2.8-2.8c0-1.6-1.3-2.8-2.8-2.8h-4.2c1.1-1.2,1.8-2.7,2.3-4.2h1.9
	c0,0.8,0.4,1.6,1,2.2l8.4,7c1.2,1,3,0.8,4-0.4c1-1.2,0.8-3-0.4-4L71.3,59h1.5c3.1,2.7,7.1,4.2,11.3,4.2h5.3c0.9,0,1.8-0.5,2.3-1.3
	C95.3,56.6,95.2,57.4,94.8,54.8z"/>
</svg>
