<?xml version="1.0" encoding="utf-8"?>
<!-- Generator: Adobe Illustrator 23.1.1, SVG Export Plug-In . SVG Version: 6.00 Build 0)  -->
<svg version="1.1" id="Layer_1" xmlns="http://www.w3.org/2000/svg" xmlns:xlink="http://www.w3.org/1999/xlink" x="0px" y="0px"
	 viewBox="0 0 100 100" style="enable-background:new 0 0 100 100;" xml:space="preserve">
<path d="M92.3,26.6l-3.1-3.1v-5.9c0-0.7-0.3-1.5-0.8-2l-6.8-6.8c-5.1-5.1-13.3-5.1-18.3,0l-6.8,6.8C49.3,22.7,36.7,27.5,25,27.5
	c-11,0-20,9-20,20C5,60,4.9,58.3,5.2,59.5c2.7,10.6,4,21.6,4,32.5c0,1.6,1.3,2.8,2.8,2.8h16.8V92c0-1.6-0.9-3.1-2.2-4
	c-2.9-1.8-4.8-5-4.8-8.4v-7.3c0-0.7,0.3-1.5,0.8-2C26,67,28.5,63,29.8,58.5c-0.2,1,0.2,2.1,1,2.7c1,0.8,2.1,1.5,3.1,2.2
	c-1.6,3.7-3.7,7.1-6.5,10.1v6.1c0,1.5,0.8,2.9,2,3.6c3.2,1.9,5,5.5,5,8.6c0,0.2,0-0.1,0,3c12.2,0,11.4,0,11.8-0.1
	c2.1-0.4,3.1-3.1,1.4-4.8l-6.1-6.1l1.1-16.8c6.1,1.6,12.7,1.4,18.9-0.7c0.8,3.6,1.5,6.2,2.4,9.2v6.5L62.6,83
	c-5.3,3.5-2.8,11.8,3.6,11.8h4.6c3,0,5.7-2.2,6.3-5.1c5.5-26,5.1-24,5-24.7c-1-7.8-1-15.1-0.4-22.6l6.3-1.4
	C94.8,39.5,97,31.3,92.3,26.6L92.3,26.6z"/>
</svg>
