<?xml version="1.0" encoding="utf-8"?>
<!-- Generator: Adobe Illustrator 23.1.1, SVG Export Plug-In . SVG Version: 6.00 Build 0)  -->
<svg version="1.1" id="Layer_1" xmlns="http://www.w3.org/2000/svg" xmlns:xlink="http://www.w3.org/1999/xlink" x="0px" y="0px"
	 viewBox="0 0 100 100" style="enable-background:new 0 0 100 100;" xml:space="preserve">
<path d="M77.4,4.1c-1.5,1-2.7,2.3-3.9,3.7c-1.1,1.3-1.5,2.8-1.8,4.4c-0.1,0.8-0.4,1-1.3,0.9c-0.6,0-0.8-0.3-0.9-1
	c-0.3-1.8-1.1-3.2-2.6-4.3c-1.5-1-2.9-2.1-4.2-3.4c-0.1-0.2-0.4-0.3-0.5-0.4c-0.7,0.7-0.5,1.5-0.5,2.2c0,1.6,0.4,3.1,1.1,4.5
	c0.6,1.1,1.3,2.3,2.5,2.8c0.9,0.4,1.1,0.9,0.9,1.7c0,0.2-0.1,0.5-0.2,0.7c-0.2,0.9-0.4,1.7-0.5,2.6c-0.1,0.9,0.2,1.7-0.1,2.6
	c-0.1,0.4-0.2,0.9-0.3,1.3c-0.2,1.2-0.7,2.2-1.5,3.1c-1.1,1.1-2.5,1.6-3.9,2.1c-1.9,0.7-3.6,1.7-5.1,3c-1.2,1-2.3,2.1-3.7,2.9
	c-1.9,1.2-3.9,2.1-5.8,3.2c-2.8,1.5-5.2,3.6-7.2,6.1c-1.5,1.8-2.5,3.9-3.5,6c-0.9,1.9-1.5,3.9-1.8,6c-0.3,1.8-0.3,3.7-0.2,5.5
	c0.2,2.1,0.1,4.2,0,6.3c-0.1,1.9-0.6,3.7-1.4,5.5c-1.1,2.7-2.6,5.1-4.4,7.2c-2.1,2.4-4.5,4.3-7.3,5.8c-2.4,1.3-5.1,1.6-7.8,2.1
	c-1.8,0.3-3.5,0.6-5.3,0.9c-1.2,0.2,5.1,3.7,11,3.3c1.4-0.1,2.9-0.2,4.3-0.5c1.6-0.3,3.2-0.9,4.6-1.7c3.5-1.9,6.2-4.6,8.5-7.7
	c1.6-2.1,3-4.3,4.5-6.5c0.3-0.4,0.5-0.3,0.8,0c0.2,0.2,0.3,0.5,0.5,0.7c0.5,0.8,1.3,1.6,1.5,2.6c0.2,1.1,0.4,2.2,0.6,3.4
	c0.1,1,0.2,2.1,0.1,3.1c-0.3,2.2-0.8,4.4-0.6,6.6c0,0.5,0.2,1.1,0.7,1.2c0.7,0.2,1.4,0.2,2.1,0.2c1.4-0.1,2.7-0.5,4.1-0.2
	c0.7,0.2,1.4,0.3,2.1,0.6c0.8,0.2,1.7,0.2,2.5,0.6c0.6,0.3,1.4,0.1,2,0c0.3,0,0.8-0.2,1-0.4c0.4-0.5,0.9-0.8,1.6-0.5
	c0.1,0,0.1,0,0.2,0c1.1,0,2.1,0.1,3.2,0.1c0.2,0,0.4,0,0.8,0c-0.7-1.4-1.7-2.3-3.1-2.7c-1.7-0.5-3.5-1-5.4-1.2
	c-1.8-0.2-3.5-0.5-5.3-0.8c-0.7-0.1-1.2-0.8-1.1-1.5c0.3-1.6,0.8-3.1,1.7-4.4c0.4-0.6,0.8-1.2,1-1.9c0.9-1.9,1.7-3.8,2.9-5.5
	c0.3-0.4,0.5-0.4,0.7-0.1c0.6,1,1.3,1.9,1.7,3c0.6,1.6,1.1,3.3,1.5,5c0.2,0.8,0,1.7-0.1,2.6c-0.1,0.8-0.4,1.7-0.5,2.5
	c0,0.2,0.2,0.6,0.4,0.7c0.4,0.2,0.8,0.3,1.2,0.4c1.2,0.3,2.3,0.5,3.5,0.7c0.3,0.1,0.7,0,0.9,0.2c2.1,0.8,4.2,1,6.4,0.9
	c0.5,0,1.1-0.1,1.5-0.6c0.1-0.1,0.3-0.2,0.5-0.1c1.4,0.1,2.8,0.3,4.1,0.4c0.2,0,0.3,0,0.6,0.1c0-0.7-0.4-1.1-0.9-1.4
	c-0.4-0.3-0.9-0.4-1.2-0.8c-1-1.2-2.3-1.4-3.7-1.4c-0.7,0-1.4-0.1-2.1-0.1c-1.9-0.2-3.9-0.3-5.8-0.5c-0.6,0-1-0.3-1.2-0.9
	c-0.6-1.9-0.1-3.7,0.7-5.4c0.8-1.6,1.4-3.3,1.6-5.1c0.3-1.9,0.6-3.9,0.9-5.8c0.2-1.2,0.4-2.3,0.4-3.5c0-1.2-0.1-2.5-0.2-3.7
	c-0.1-0.9-0.1-1.8-0.3-2.8c-0.3-1.4-0.6-2.8-0.9-4.2c-0.1-0.3,0-0.8,0.2-1.1c0.6-0.9,1.2-1.8,1.9-2.6c0.1-0.1,0.6-0.2,0.7-0.1
	c1.5,1.1,2.2,2.2,1.3,4.3c-0.2,0.6-0.3,1,0,1.5c0.3,0.4,0.7,0.8,1,1.2c0,0,0.1,0.1,0.2,0.1c0.7-0.1,1.4-0.2,2.1-0.4
	c0.2,0,0.3-0.3,0.4-0.5c0.4-1.3,0.3-2.6-0.4-3.7c-1-1.6-2-3.2-3-4.8c-0.1-0.2-0.2-0.5-0.1-0.7c0.3-0.6,0.6-1.1,0.9-1.6
	c0.2-0.4,0.4-0.3,0.6,0c0.5,0.8,1.1,1.6,1.7,2.3c0.5,0.5,1,1,1.6,1.4c1.2,1.1,1.2,3,0.2,4.2c-0.3,0.4-0.5,0.9-0.5,1.3
	c0.1,0.8,0.5,1.6,1.2,2.2c0.2,0.1,0.6,0.2,0.8,0.1c0.7-0.5,1.3-1.1,1.3-2c0-1.5-0.1-3-0.1-4.5c0-0.5,0-1.1-0.3-1.5
	c-0.5-0.9-1.1-1.7-1.7-2.5c-0.6-0.8-1.2-1.5-1.3-2.5c-0.1-1.1-0.1-2.1-0.2-3.2c0-0.8,0-1.7,0.7-2.3c0.2-0.1,0.2-0.4,0.3-0.6
	c0.7-1.6,1.1-3.2,1.3-4.9c0.2-1.9,0-3.7-0.5-5.5c0-0.2,0.1-0.4,0.1-0.6c0.1,0,0.1,0,0.2,0c0.8,1,1.8,0.9,2.8,0.8
	c1-0.1,1.8-1.2,1.6-2.2c-0.1-0.4-0.2-0.7-0.3-1.1c-0.1-0.8-0.2-1.5-0.3-2.3c-0.1-1.4-0.2-2.8-0.2-4.2c0-0.7,0.1-1.3-0.2-2
	c-0.1-0.2-0.2-0.5-0.2-0.7c0-1.2-0.7-2-1.6-2.6c-0.5-0.3-0.5-0.6-0.1-1c1-1,1.7-2,2-3.4c0.2-1.1,0.5-2.1,0.8-3.1
	c0.2-0.6,0.3-1.1,0.3-1.7C78.2,4.1,77.7,3.8,77.4,4.1z"/>
</svg>
