<?xml version="1.0" encoding="utf-8"?>
<!-- Generator: Adobe Illustrator 23.1.1, SVG Export Plug-In . SVG Version: 6.00 Build 0)  -->
<svg version="1.1" id="Layer_1" xmlns="http://www.w3.org/2000/svg" xmlns:xlink="http://www.w3.org/1999/xlink" x="0px" y="0px"
	 viewBox="0 0 100 100" style="enable-background:new 0 0 100 100;" xml:space="preserve">
<path d="M81.6,35.4c1.9,0.6,3.1,0.5,5.7,0.5c6.9,0,10.4-8.4,5.5-13.3l-1.9-1.9V18c0-4.9-3.9-8.9-8.9-8.9c-3.1,0-7.1-0.4-11.3,3
	c-3.2,2.6-5.1,6.3-5.1,11.1c0,2.6-1.3,5.1-3.4,6.6L45.6,41.3c-7.3,5.1-12.8,13.4-13.7,22.4c-6.5-1.5-10.9-8.2-9-15.1
	c2.5-8.9,4.6-15.2,4.6-25.4c0-6.2-5-11.2-11.2-11.2S5,17,5,23.2v4.2c0,1.6,1.3,2.8,2.8,2.8s2.8-1.3,2.8-2.8v-4.2
	c0-3.1,2.5-5.6,5.6-5.6s5.6,2.5,5.6,5.6c0,9.4-2,15.1-4.4,23.9c-2.9,10.5,4.2,21,14.7,22.4c1.5,5.3,6.1,8.6,11.2,8.6
	c3.6,0,5.7-1.5,7.9-2.8L50.3,78c-1.9,5.7,2.3,10.8,4.8,11.3c0.4,0.1-0.8,0,14.6,0c1.6,0,2.8-1.3,2.8-2.8c0-1.6-1.3-2.8-2.8-2.8h-9.5
	c6.4-12.9,4-7.5,9-19.9c0.6-1.6,0.8-3.2,0.6-4.8c4.8-8,3.4-5.4,5.1-9.2c0.1,0.5,0.3,1.1,0.4,1.6c4.7,15.4,7,21,7,30.9
	c0,0.8-0.6,1.4-1.4,1.4h-1.4c0-1.6-1.3-2.8-2.8-2.8c-1.6,0-2.8,1.3-2.8,2.8c0,3.1,2.5,5.6,5.6,5.6h1.4c3.9,0,7-3.2,7-7
	c0-10.9-2.5-17.1-7.2-32.6C79.2,44.8,79.7,39.4,81.6,35.4z"/>
</svg>
