<svg xmlns="http://www.w3.org/2000/svg" fill="none" viewBox="-13.41 0.48 97.48 88.13">
<g clip-path="url(#clip0_1260_575)">
<rect y="0.479248" width="76" height="76" rx="38" fill="#FAFBFB"/>
<path d="M53.8033 59.4708C52.1553 56.3351 54.9014 52.6799 58.3271 53.437C67.8163 55.5437 81.9494 59.4048 83.2192 63.9756C83.2192 63.9756 85.6125 70.3519 79.2155 77.329C76.9213 79.8275 73.233 80.6208 70.3525 79.2119C68.0916 78.1053 65.5704 76.002 62.325 72.1752C59.0795 68.3484 56.1824 64.0075 53.8013 59.4752L53.8002 59.472L53.8033 59.4708Z" fill="white"/>
<path d="M53.3908 59.5736C52.5985 58.0802 52.7618 56.1388 53.7769 54.7732C54.7769 53.3448 56.637 52.5862 58.3206 52.9576C61.3634 53.6085 64.3509 54.3447 67.3363 55.1752C71.6504 56.4908 82.13 59.3844 83.6157 63.821C85.1713 69.1991 82.5079 74.9273 78.5185 78.4791C76.7821 79.8284 74.5279 80.4995 72.3612 80.1815C69.185 79.6664 66.6486 77.1984 64.4349 75.0386C60.1153 70.5712 56.0673 64.7694 53.3876 59.5747L53.3908 59.5736ZM54.212 59.3695C56.5879 63.9577 60.7446 70.2873 64.9316 74.5414C68.6678 78.3767 72.9366 81.6654 78.0639 77.889C81.4267 74.8394 83.7399 70.1834 83.1376 65.5772C82.9487 63.3349 81.6648 62.1823 79.8529 61.0565C75.9101 58.7185 71.4492 57.4106 67.0619 56.1294C64.1134 55.2924 61.1119 54.547 58.1303 53.8877C56.7746 53.578 55.3082 54.1617 54.4882 55.304C53.5908 56.4893 53.5424 58.0716 54.2109 59.3663L54.212 59.3695Z" fill="#221F1F"/>
<mask id="mask0_1260_575" style="mask-type:luminance" maskUnits="userSpaceOnUse" x="-14" y="48" width="40" height="41">
<path d="M10.3875 48.3978L-13.4092 73.332L2.05892 88.608L25.8556 63.6737L10.3875 48.3978Z" fill="white"/>
</mask>
<g mask="url(#mask0_1260_575)">
<path d="M22.48 62.7643C23.3638 59.312 19.8573 56.4748 16.6987 58.0747C7.95718 62.5201 -4.895 69.8439 -5.0819 74.5868C-5.0819 74.5868 -5.94687 81.3607 1.87101 86.4872C4.67279 88.3225 8.43856 88.1521 10.9166 86.059C12.8587 84.4122 14.8288 81.7377 17.1055 77.2137C19.3822 72.6896 21.2057 67.7558 22.4767 62.7649L22.48 62.7643Z" fill="white"/>
<path d="M21.8763 62.7734C22.204 61.3922 21.8438 59.957 20.7228 59.069C19.7153 58.233 18.2574 58.0573 17.0821 58.6668C14.3534 60.0683 11.598 61.5361 8.91333 63.0632C4.93706 65.3845 0.913755 67.7721 -2.40242 70.9868C-3.90783 72.5195 -4.88347 73.9047 -4.57605 76.1085C-4.14302 80.7155 -0.853502 84.6512 3.11053 86.7447C5.37239 87.7579 8.17822 87.6154 10.2449 86.1519C12.295 84.5854 13.7856 82.3916 15.0894 80.1554C18.1072 75.0671 20.7797 67.3712 21.8802 62.7761L21.8763 62.7734ZM23.0755 62.7549C21.4814 69.2186 16.4296 82.298 10.627 86.711C8.34912 88.2969 5.30755 88.5149 2.80842 87.4202C-0.0472522 85.9672 -2.4615 83.6706 -4.05615 80.8542C-4.9533 79.1848 -5.54045 77.3105 -5.60487 75.3925C-5.69092 74.289 -5.35681 73.0743 -4.72079 72.1317C-1.0057 66.5656 10.3984 60.4976 16.4918 57.4054C19.987 55.661 24.0516 58.9478 23.0689 62.7561L23.0755 62.7549Z" fill="#221F1F"/>
</g>
<path d="M19.9851 73.8022L17.1582 43.6378C17.1382 43.4377 17.1148 43.2376 17.0882 43.0375C16.8115 40.9313 15.3281 24.1669 37.613 21.9692C37.613 21.9692 58.3945 20.3073 59.8379 39.69L61.1413 70.4988C61.2513 71.9301 61.0713 73.307 60.6513 74.5958C59.9412 76.7698 58.5545 78.6148 56.8143 80.1512C55.9209 80.938 54.9475 81.6163 53.9275 82.2132C50.7306 84.0854 47.117 85.1503 43.4201 85.4454L40.2198 85.6998C37.713 85.8999 35.1895 85.7371 32.7426 85.1842C31.0892 84.8112 29.5524 84.411 28.099 83.7835C25.0187 82.4574 22.5019 80.5039 21.1085 77.7635C20.4951 76.5595 20.1017 75.2267 19.9917 73.7988H19.9851V73.8022Z" fill="white"/>
<path d="M19.8251 74.0972C18.6484 64.2752 17.2583 52.7304 16.2782 42.9526C15.3148 32.8831 20.9686 25.364 30.3392 22.549C32.6261 21.8165 35.0229 21.44 37.3897 21.1687C40.7833 20.9516 44.1602 21.4332 47.4104 22.4371C55.5977 25.0351 60.228 31.4654 60.628 40.124C60.9814 48.3214 61.4148 60.4564 61.7415 68.6876C61.8281 70.6242 61.9881 72.7168 61.3381 74.5923C59.4513 80.3953 53.6976 83.7359 48.2038 85.2214C45.5436 85.9811 42.4834 86.0557 39.7432 86.2694C33.5761 86.5475 25.3989 84.6856 21.6119 79.3269C20.4852 77.7193 19.7951 75.7963 19.6651 73.8292L20.1452 74.1073C20.0652 74.1582 19.9085 74.1548 19.8285 74.1039L19.8251 74.0972ZM20.1485 73.5036C20.0752 73.4494 19.9218 73.446 19.8451 73.4935L20.3252 73.7716C21.0686 81.8333 30.0625 84.8992 36.923 85.2384C38.5265 85.3944 40.8466 85.0722 42.4668 84.9705C49.2039 84.5804 57.8178 81.2364 60.0947 74.1989C60.678 72.4692 60.4847 70.57 60.3947 68.769C60.0013 60.5276 59.4546 48.4265 59.0913 40.2156C58.7012 32.2183 54.5109 26.3645 46.9237 23.9803C43.9135 23.0544 40.6733 22.6033 37.5297 22.8068C35.2762 23.0747 32.9627 23.4444 30.8126 24.1397C22.122 26.741 16.9183 33.7852 17.895 43.112C18.7584 52.5405 19.4918 63.987 20.1452 73.5036H20.1485Z" fill="#221F1F"/>
<path d="M37.8187 22.079C38.3017 22.0393 38.5553 21.481 38.2748 21.0839C35.6066 17.2998 24.7336 3.4338 14.8241 13.0864C4.72674 22.9202 23.9849 16.4909 30.5799 16.7936C32.6115 16.8879 34.5505 17.7514 35.9188 19.2824C36.5066 19.9425 36.9919 20.7167 37.1675 21.5852C37.231 21.8954 37.5114 22.1063 37.8212 22.0839V22.079H37.8187Z" fill="white"/>
<path d="M37.5759 22.089C37.5881 22.0344 37.6442 21.9128 37.7466 21.8631C37.8369 21.816 37.8759 21.8284 37.9466 21.7887C38.1661 21.6671 38.2076 21.3693 38.0368 21.1832L37.9637 21.0815C36.693 19.3247 35.2881 17.6597 33.7589 16.1311C29.1639 11.4537 22.4981 7.53063 16.4958 12.1113C15.0032 13.28 13.4764 14.7416 12.5398 16.4041C12.3398 16.8284 12.1569 17.3048 12.4593 17.6721C12.6959 17.9103 13.0178 18.0145 13.3837 18.0964C14.3276 18.2825 15.3032 18.2403 16.269 18.1783C20.2201 17.8731 24.1518 16.9674 28.1175 16.5803C29.4639 16.4562 30.8541 16.3793 32.1833 16.7217C34.4881 17.3098 36.7466 18.9996 37.3856 21.4165L37.4125 21.543C37.4466 21.7217 37.6222 21.8507 37.8003 21.8383C37.8003 21.8334 37.5661 22.1014 37.5734 22.0815L37.8149 22.3296C37.7759 22.3296 37.7027 22.3172 37.6466 22.2577C37.5881 22.2006 37.5734 22.1287 37.5734 22.0914L37.5759 22.089ZM38.0637 22.0691C38.0637 22.0319 38.049 21.9599 37.9929 21.9028C37.9344 21.8458 37.8637 21.8309 37.8271 21.8309C37.8271 21.8358 38.0759 22.0765 38.0686 22.084V22.3222L37.8417 22.3321C37.4905 22.3619 37.132 22.1535 36.9881 21.8234C36.4418 19.4835 34.2662 17.8582 32.0467 17.3123C30.8029 16.9996 29.4931 17.0815 28.181 17.2081C24.2054 17.62 20.3299 18.5406 16.3227 18.8706C14.452 19.0344 10.4545 19.1212 11.9325 16.0914C12.2618 15.4388 12.6959 14.8979 13.1398 14.3743C14.0471 13.342 15.0081 12.3793 16.1105 11.5679C19.625 8.88299 23.8859 8.83832 27.7322 10.816C32.0979 13.0666 35.5149 16.8135 38.3759 20.7813L38.449 20.8855L38.4856 20.9376C38.8441 21.4239 38.5588 22.1907 37.971 22.3073C37.9588 22.3123 38.0027 22.2974 38.0222 22.2775C38.0807 22.2329 38.0978 22.1187 38.0686 22.0691H38.0637Z" fill="#221F1F"/>
<path d="M24.5957 26.4119C24.5957 26.4119 37.43 27.6227 49.6275 24.4109L24.5957 26.4119Z" fill="white"/>
<path d="M23.8486 26.5442C23.8486 26.5442 37.9863 27.7211 50.1838 24.5093" stroke="#221F1F" stroke-width="0.676267" stroke-miterlimit="10"/>
<path d="M16.9277 40.4359C16.9277 40.4359 38.1659 33.6834 59.3941 37.1699L16.9277 40.4359Z" fill="white"/>
<path d="M16.8281 40.1104C19.3316 39.0048 21.9818 38.4893 24.6187 37.889C28.9957 36.9631 33.496 36.2678 37.9463 35.8676C42.3566 35.4606 47.0069 35.403 51.4339 35.6438C52.2873 35.7184 54.6408 35.9151 55.4742 35.9931C56.8143 36.1932 58.1477 36.4408 59.4478 36.8342L59.3412 37.5023C57.571 37.5668 55.7742 37.2785 54.0141 37.1699C45.1835 36.434 36.2062 37.1021 27.4822 38.5944C25.9688 38.8759 23.7386 39.2998 22.2485 39.6492C20.5151 40.046 18.7849 40.4665 17.0281 40.7616L16.8281 40.1138V40.1104Z" fill="#221F1F"/>
<path d="M18.9316 61.1719C22.7219 59.778 37.3196 55.5385 61.5547 57.2309L18.9316 61.1719Z" fill="white"/>
<path d="M18.8193 60.8531C25.4398 58.384 32.4936 57.3394 39.4941 56.7425C43.0011 56.4814 46.518 56.3491 50.0316 56.3728C53.5418 56.3898 57.0687 56.4034 60.5423 57.0715L60.4956 57.7498C56.9921 57.9974 53.5218 57.6447 50.0249 57.665C43.0611 57.6108 36.0772 58.0042 29.1967 59.1098C25.7632 59.6728 22.3429 60.3986 19.046 61.4941L18.8193 60.8565V60.8531Z" fill="#221F1F"/>
<path d="M52.0679 57.2173C52.3845 49.6813 51.7578 36.5967 51.7578 36.5967C51.7578 36.5967 33.9699 35.2164 24.6426 39.0624C24.6426 39.0624 25.546 52.1334 27.4328 59.2557" stroke="#221F1F" stroke-width="0.676267" stroke-miterlimit="10"/>
<path d="M24.7659 38.8861C24.5325 41.3246 26.5294 55.4267 27.4127 58.7334C33.7565 57.1191 46.2508 56.4814 51.9178 56.5391C52.2912 52.4014 51.7111 41.891 51.4378 36.936L51.4245 36.7223C40.907 35.2945 29.3596 37.6719 24.7659 38.8861Z" fill="#5BC2C7"/>
<path d="M38.303 48.63L38.1797 44.8417C38.1797 44.7196 38.303 44.6382 38.4097 44.6924L42.0166 46.5883C42.13 46.646 42.13 46.8121 42.0166 46.8732L38.533 48.7657C38.4297 48.8199 38.3064 48.7487 38.2997 48.63H38.303Z" fill="white" stroke="black" stroke-width="0.162304"/>
<g clip-path="url(#clip1_1260_575)">
<path d="M40.6239 40.3703C41.2696 39.8486 41.9882 39.427 42.7342 39.0616C45.6581 37.6324 51.9596 34.8286 55.4254 35.3762C55.4254 35.3762 62.3196 35.7805 62.4013 43.3425C62.4013 43.3425 62.3888 48.6158 58.7145 54.0396C58.7145 54.0396 57.7238 52.2464 57.0278 52.0457C57.0278 52.0457 56.8429 58.7016 50.6917 59.6423C50.6917 59.6423 49.235 55.6031 45.7506 52.4291C43.8047 50.6567 41.2311 49.7309 38.5979 49.7521C35.5155 49.7779 32.5718 51.114 30.5895 53.4742C27.8227 56.77 26.8398 60.4097 26.8398 60.4097C20.6322 59.9771 19.9016 53.3588 19.9016 53.3588C19.2244 53.6159 18.3842 55.4845 18.3842 55.4845C14.2748 50.3806 13.8296 45.1261 13.8296 45.1261C13.2902 37.583 20.1279 36.6141 20.1279 36.6141C23.7256 35.7395 30.7759 38.3222 33.5473 39.4324C34.151 39.6735 34.7249 39.9709 35.2756 40.3174C36.311 40.9671 38.5825 42.0177 40.6217 40.3727L40.6239 40.3703Z" fill="#F0D9FF"/>
<path d="M39.8641 39.4319C40.7148 38.7114 41.6399 38.1828 42.6125 37.6958C44.1127 36.9349 45.6508 36.2068 47.2203 35.5714C49.3357 34.7211 51.562 34.0014 53.8531 33.8568C54.9382 33.819 55.5149 33.9054 56.4137 34.0747C60.8915 35.0346 63.5942 38.6557 63.3979 43.1938C63.0824 47.1729 61.335 51.064 58.8074 54.1024L58.6962 54.2399C58.4584 53.8095 58.1957 53.3871 57.8998 52.9934C57.6578 52.6824 57.3597 52.2912 56.9941 52.1526L57.141 52.0457C57.0138 53.8575 56.4341 55.6511 55.3293 57.1042C54.2296 58.573 52.5068 59.4921 50.7087 59.754L50.6245 59.7689L50.5841 59.6789C49.4556 57.1554 47.8305 54.8196 45.8136 52.9355C41.8527 49.0475 34.9064 49.2712 31.1508 53.3297C29.2971 55.3615 27.8675 57.8388 26.9473 60.4374L26.919 60.528C25.9833 60.4656 25.0511 60.2632 24.1936 59.8697C21.6612 58.7198 20.1868 56.0363 19.786 53.3682L19.9412 53.4627C19.7768 53.5337 19.618 53.6869 19.4848 53.8483C19.0398 54.4008 18.7042 55.0473 18.4144 55.6942L18.294 55.5525C15.4677 52.2161 12.5484 46.4512 13.5529 41.9991C14.171 38.8536 16.9375 36.4978 20.0261 35.8985C23.403 35.1751 27.5249 36.3995 30.9628 37.4388C32.516 37.9687 34.0909 38.4129 35.5433 39.2244C36.8763 40.0843 38.6014 40.559 39.8664 39.4318L39.8641 39.4319ZM41.3786 41.3068C39.2384 43.0041 36.5181 42.5245 34.4546 41.0687C33.1893 40.2932 31.7207 39.8125 30.3319 39.2667C28.6745 38.6562 26.9923 38.111 25.2931 37.7109C23.6503 37.3428 21.8555 37.0131 20.227 37.3277C17.6002 37.7291 15.1895 39.5957 14.5394 42.2382C13.4105 46.3974 15.9673 52.1016 18.4693 55.4123L18.2754 55.4363C18.5644 54.8261 18.8792 54.2308 19.3046 53.7044C19.4534 53.5309 19.6136 53.357 19.8545 53.2508L19.9874 53.1926L20.0097 53.3453C20.5557 56.9794 22.9759 60.0849 26.8429 60.295L26.7249 60.3801L26.7247 60.3755C27.2658 58.3129 28.1922 56.3674 29.364 54.5907C32.2222 50.0601 37.6205 48.2059 42.6437 50.1085C46.4737 51.5375 49.4512 55.8763 50.7966 59.6037L50.672 59.5285C51.5443 59.3895 52.3999 59.1228 53.1684 58.69C55.5688 57.3534 56.7829 54.5433 56.919 51.8875C57.204 51.9606 57.4639 52.1471 57.6438 52.3414C58.1132 52.8311 58.4736 53.3986 58.8117 53.983L58.6165 53.975C59.9272 51.4498 60.87 48.7333 61.238 45.9167C61.8085 42.5622 61.0171 38.8144 57.607 37.3934C56.0756 36.725 54.3595 36.6374 52.7292 36.9658C49.9546 37.5063 47.2356 38.5098 44.6127 39.6172C43.5273 40.0951 42.3073 40.5877 41.3787 41.3091L41.3786 41.3068Z" fill="black"/>
<path d="M43.8264 45.1725C43.923 44.5679 44.9903 42.7588 54.3528 42.7544C54.3528 42.7544 55.5035 48.4384 46.8066 48.7959C46.8066 48.7959 43.0802 49.1601 43.7199 45.8165C43.7615 45.6016 43.7916 45.3871 43.8263 45.1702L43.8264 45.1725Z" fill="white"/>
<path d="M43.6823 45.1509C44.0647 43.5213 47.3067 43.0281 48.7198 42.7728C50.5589 42.5046 52.4891 42.3909 54.3503 42.3281L54.6959 42.3139L54.7702 42.6708C54.9771 44.1914 54.4259 45.7844 53.3348 46.8472C51.7479 48.3957 49.4479 48.8272 47.3229 48.9444C45.9527 49.0741 44.0812 48.8301 43.6395 47.287C43.4227 46.5875 43.587 45.8426 43.6822 45.1486L43.6823 45.1509ZM43.9685 45.1965C43.8474 45.8755 43.6438 46.5555 43.8479 47.2257C44.2844 48.6429 46.0537 48.7421 47.2944 48.5856C49.2865 48.4143 51.5025 47.8922 52.8813 46.4096C53.7641 45.4678 54.1549 44.0991 53.9312 42.8405L54.3511 43.1832C52.5176 43.1394 50.6107 43.1513 48.7908 43.3293C47.5047 43.4968 44.4319 43.8111 43.9684 45.1942L43.9685 45.1965Z" fill="black"/>
<path d="M33.0386 45.5519C32.8927 44.9573 31.6805 43.2419 22.3492 44.0061C22.3492 44.0061 21.669 49.7653 30.3659 49.4078C30.3659 49.4078 34.1096 49.4648 33.1976 46.185C33.1385 45.9742 33.0908 45.763 33.0385 45.5497L33.0386 45.5519Z" fill="white"/>
<path d="M32.8808 45.5903C32.2884 44.285 29.2134 44.267 27.9329 44.2348C26.1106 44.2433 24.2155 44.4289 22.4025 44.6617L23 44.0846C22.8506 45.3012 23.3109 46.5707 24.2101 47.4209C25.6393 48.7812 27.8901 49.1609 29.8606 49.1923C31.1015 49.2627 32.8648 49.0481 33.1906 47.6042C33.3365 46.915 33.0688 46.2589 32.8809 45.5926L32.8808 45.5903ZM33.1963 45.5132C33.3323 46.1999 33.5503 46.9292 33.3917 47.6441C33.0853 49.2248 31.2502 49.6464 29.8633 49.6484C27.7096 49.7346 25.3579 49.5218 23.6012 48.1131C22.3686 47.1275 21.6376 45.5184 21.6985 43.9318L21.776 43.3646L22.2983 43.3546C24.1693 43.3052 26.1085 43.2988 27.9694 43.4516C29.4162 43.6237 32.6917 43.8902 33.1964 45.5155L33.1963 45.5132Z" fill="black"/>
</g>
</g>
<defs>
<clipPath id="clip0_1260_575">
<rect y="0.479248" width="76" height="76" rx="38" fill="white"/>
</clipPath>
<clipPath id="clip1_1260_575">
<rect width="50.0791" height="25.7577" fill="white" transform="translate(13 35.5364) rotate(-2.35419)"/>
</clipPath>
</defs>
</svg>