<?xml version="1.0" encoding="utf-8"?>
<!-- Generator: Adobe Illustrator 23.1.1, SVG Export Plug-In . SVG Version: 6.00 Build 0)  -->
<svg version="1.1" id="Layer_1" xmlns="http://www.w3.org/2000/svg" xmlns:xlink="http://www.w3.org/1999/xlink" x="0px" y="0px"
	 viewBox="0 0 100 100" style="enable-background:new 0 0 100 100;" xml:space="preserve">
<path d="M78.6,23.7c5.5-3,6.4-3.6,6.4-4.1c0-0.1-0.1-0.3-0.3-0.4c-0.5-0.2-1.1-0.4-1.6-0.5c-1-0.3-1.9-0.5-2.8-1.6
	c-0.4-0.5-0.8-1.4-1.4-2.4c-1.6-3.2-4.1-8.1-9.4-9.3C68.7,5.1,67.8,5,66.9,5c-3.3,0-6.2,1.4-8.6,4.1c-2.6,3-4.3,7.4-5.1,13
	c-0.9,7-11.2,20.4-17.3,28.3c-2.1,2.7-3.7,4.8-4.4,5.9c-2.4,3.9-6.8,9.1-10.4,13.2c-4.1,4.8-6.3,7.3-6.2,8.3c0,0.2,0.1,0.3,0.2,0.4
	c0.1,0.1,0.2,0.1,0.4,0.1c1.3,0,5.7-3.2,9.8-6.4c-2.8,2.9-6.3,6.8-9.7,10.7c-1.1,1.2-2.1,2.4-3.1,3.5c-3.1,3.5-4.8,6.4-4.3,7.5
	C8.3,93.8,8.5,94,8.8,94c0.9,0,2.2-1.1,3.2-2c1.8-1.6,2.8-2.2,3.2-2.3c0,0.1-0.1,0.5-0.6,1.2c-1.1,1.5-1.5,2.8-1.1,3.5
	c0.1,0.3,0.4,0.4,0.7,0.4c0.7,0,1.6-0.6,2.6-1.8c2.8-3.1,12.4-12,17-16.3c1.3-1.2,2.1-2,2.3-2.2c0.1,0,0.3-0.1,1-0.1
	c0.6,0,1.3,0,2.2,0c1.3,0,3,0.1,4.9,0.1c0,0,0,0,0,0c0.9,0,1.8,0,2.6,0c0,0.8,0,1.8-0.3,2c0,0-0.1,0-0.1,0.1c-0.3,0.2-1.1,0.7-2.3,2
	c-0.5,0.5-1,1.3-0.8,1.7c0.1,0.2,0.2,0.3,0.4,0.3l0,0c0.2,0,0.5-0.1,0.8-0.4c1.9-1.8,4.4-2.9,6.9-2.9c0.4,0,0.7,0,1.1,0.1
	c1.6,0.2,1.9,0.3,2.4,0.6c0.2,0.1,0.5,0.2,1,0.4c0.2,0.1,0.4,0,0.5-0.2c0.1-0.5-0.9-1.8-1.7-2.2c-0.8-0.3-1.6-0.4-2.5-0.4
	c-1,0-1.8,0.2-2.4,0.3c-0.3,0.1-0.5,0.1-0.7,0.1c0-0.3,0-1,0-1.5c3.6-0.2,6.7-0.6,9.6-1.2c2,1.2,3.8,2.3,4,2.5
	c0.1,0.1-0.1,0.7-0.2,1.1c-0.1,0.5-0.3,1.1-0.3,1.7c0,0.8,0.2,1.5,0.5,1.8c0.1,0.1,0.3,0.2,0.4,0.2c0.1,0,0.4,0,0.4-0.6
	c0-0.8,1.1-3.2,2-4c1.4-1.3,2.6-1.4,4.4-1.3c1.5,0.1,2.6,0.4,3.1,0.6c0.2,0.1,0.3,0.1,0.4,0.1l0,0c0.1,0,0.2-0.1,0.3-0.1l0.1-0.2
	l-0.1-0.1c-0.2-0.3-1.2-1.6-2.8-2c-0.9-0.3-1.8-0.4-2.6-0.4c-1.5,0-2.4,0.5-3.1,0.8c-0.4,0.2-0.6,0.3-0.8,0.3
	c-0.3-0.1-1.3-0.6-2.5-1.3c3.6-1.2,6.5-2.8,8.7-4.9c11.1-10.6,10.6-23.6,8.2-32.7c-0.7-2.5-1.5-4.3-2.1-5.6
	C75.4,26.5,75.1,25.6,78.6,23.7z"/>
</svg>
