<?xml version="1.0" encoding="utf-8"?>
<!-- Generator: Adobe Illustrator 23.1.1, SVG Export Plug-In . SVG Version: 6.00 Build 0)  -->
<svg version="1.1" id="Layer_1" xmlns="http://www.w3.org/2000/svg" xmlns:xlink="http://www.w3.org/1999/xlink" x="0px" y="0px"
	 viewBox="0 0 100 100" style="enable-background:new 0 0 100 100;" xml:space="preserve">
<path d="M93.7,38.5l-3.5-2.3L87.8,30c-0.4-0.9-1.2-1.6-2.1-1.7l-7-1.2l-2.2-4.3c-0.6-1.3-2.1-1.9-3.4-1.4c-1.8,0.6-4.7,2.6-5.7,6.4
	c-14.1-2.4-24.4-3.4-41.4-0.9C13.9,28.7,5,39,5,51.1v23.5c0,1.6,1.3,2.8,2.8,2.8h9.8c1.6,0,2.8-1.3,2.8-2.8V66l1.4-1.3h2l2.3,10.5
	c0.3,1.3,1.4,2.2,2.7,2.2c7.4,0,7.4,0.1,8-0.2c1-0.3,1.8-1.3,1.8-2.4c0-0.3,0.1,0.6-0.5-11c2.1-0.4,4.1-1,6.1-1.7
	c-1.8,3.9-2.7,8.1-2.7,12.4c0,1.6,1.3,2.8,2.8,2.8c7.2,0,8,0.3,9.1-0.9c0.4-0.4,0.2-0.1,3.3-5.9l0.3,3.5c0.1,1.7,1.6,3.2,3.5,3.2
	c9.8,0,9.9,0.2,11-0.6c1.1-1,1.3-2.4,0.7-3.5c-0.2-0.3,0-0.1-3.9-4.8V54l4.8-1.9h9.2c6.3,0,11.7-4.5,12.7-10.8
	C95.1,40.2,94.7,39.1,93.7,38.5L93.7,38.5z"/>
</svg>
