<?xml version="1.0" encoding="utf-8"?>
<!-- Generator: Adobe Illustrator 23.1.1, SVG Export Plug-In . SVG Version: 6.00 Build 0)  -->
<svg version="1.1" id="Layer_1" xmlns="http://www.w3.org/2000/svg" xmlns:xlink="http://www.w3.org/1999/xlink" x="0px" y="0px"
	 viewBox="0 0 100 100" style="enable-background:new 0 0 100 100;" xml:space="preserve">
<path d="M93.5,27.9c-13.7-8.2-14-8.4-14-8.4c5.2-1.5,8.8-4.8,10.9-9c0.7-1.4,0.1-3.1-1.3-3.8C87.7,6,86,6.6,85.3,8
	c-1.3,2.5-3.4,4.5-6,5.6c1-1.7,1.5-3.7,1.5-5.7C80.8,6.3,79.6,5,78,5c-1.6,0-2.8,1.3-2.8,2.8c0,1.8-0.8,3.5-2.2,4.6l-1.4,1.1
	l0.8-5.3c0.2-1.5-0.8-3-2.4-3.2c-1.5-0.2-3,0.8-3.2,2.4l-0.5,3.4C65.1,10,64,9.4,64,7.8C64,6.3,62.7,5,61.2,5
	c-1.6,0-2.8,1.3-2.8,2.8c0,1.8,0.6,3.4,1.6,4.8l-5.7-1.8c-2.5-0.8-4.7-2.4-6.1-4.6c-0.9-1.3-2.6-1.6-3.9-0.8
	c-1.3,0.9-1.6,2.6-0.8,3.9c2.2,3.2,5.4,5.7,9.1,6.8l11.6,3.6c-2,0.6-4.1,0.4-6-0.5c-4.3-2.1-9.4-1.9-13.5,0.6
	c-3.2,2-4.8,3.3-7.7,3.3H20.5C11.9,23.3,5,30.2,5,38.7c0,6-0.3,8.5,1.2,12.2c0.9,2.2,1.1,4.7,0.4,7C5,64.1,4.9,64.1,5,64.8
	c0.1,0.9,2.7,20.8,2.8,21.9c0.2,1.3,0.8,1.6,3.6,4.4c1,1,2,0.8,3.4,0.8c1.6,0,2.8-1.3,2.8-2.8c0-1.4-1.1-2.8-3-2.8l-1.3-1.3L11.5,71
	l6-3.1l3.1,17.6c0.1,0.8,0.2,0.7,3.2,5.3c0.5,0.8,1.4,1.2,2.3,1.2h2.8c1.6,0,2.8-1.3,2.8-2.8c0-1.6-1.3-2.8-2.8-2.8h-1.3l-1.6-2.5
	l-3.8-21.6c1.6-2.6,2.7-5.4,3.3-8.3c3.4,1.4,6.8,2.5,10.4,3.2V85c0,1.1,0.4,1.4,3.3,5.8c0.5,0.8,1.4,1.2,2.3,1.2h2.8
	c1.6,0,2.8-1.3,2.8-2.8c0-1.6-1.3-2.8-2.8-2.8H43l-1.5-2.3V72.3l4.4-8.5c0.8,3.9,1.7,6.5,2.6,9.1V85c0,1.1,0.4,1.4,3.3,5.8
	c0.5,0.8,1.4,1.2,2.3,1.2H57c1.6,0,2.8-1.3,2.8-2.8c0-1.6-1.3-2.8-2.8-2.8h-1.3l-1.5-2.3V73.8c4.9-3.7,5-3.6,5.4-4.5
	c6.6-14.7,5.5-12.2,6.1-14.6c0.3-1.1,1.3-1.9,2.4-1.9c3.8,0,7.1-2.6,7.9-6.4l0.7-3c0.3-1.5,1.5-2.7,2.9-3.1
	c5.5,5.5,15.2,2.4,15.2-5.4v-4.6C94.8,29.3,94.3,28.4,93.5,27.9L93.5,27.9z"/>
</svg>
