<svg xmlns="http://www.w3.org/2000/svg" fill="none" viewBox="-13 0.52 102.72 85.4">
<g clip-path="url(#clip0_1260_1208)">
<rect y="0.522217" width="76" height="76" rx="38" fill="#FAFBFB"/>
<path d="M63.2076 62.7145C59.734 63.2266 57.2905 59.3772 59.1707 56.3689C64.3877 48.0393 72.8283 35.8772 77.502 36.2096C77.502 36.2096 84.2358 36.0807 88.5028 44.529C90.0295 47.5577 89.4962 51.3392 87.1993 53.6082C85.3959 55.3887 82.579 57.0811 77.9153 58.882C73.2517 60.6829 68.2313 61.9785 63.211 62.7179H63.2076V62.7145Z" fill="white"/>
<path d="M63.1608 63.1421C61.504 63.3931 59.7606 62.5825 58.8438 61.1547C57.8637 59.72 57.8004 57.6919 58.7238 56.2132C60.3739 53.5339 62.0841 50.9359 63.8808 48.3719C66.5844 44.7057 72.8715 35.6977 77.4952 35.7791C83.0155 36.1115 87.4092 40.5815 89.3293 45.5807C89.9827 47.6902 89.8294 50.0643 88.7893 52.0212C87.2192 54.8735 84.059 56.4574 81.2954 57.8377C75.6684 60.4458 68.8979 62.3451 63.1608 63.1455V63.1421ZM63.2541 62.2908C68.3245 61.5752 75.6217 59.7506 81.0054 57.1967C85.8457 54.9312 90.3627 51.9737 88.6259 45.8147C86.9558 41.582 83.4356 37.8073 78.9586 36.8271C76.8151 36.2505 75.305 37.0849 73.6382 38.4313C70.1146 41.3989 67.3678 45.2076 64.6709 48.9553C62.8808 51.482 61.1573 54.0901 59.5205 56.7083C58.7671 57.8954 58.8038 59.4894 59.5805 60.6561C60.3706 61.911 61.8207 62.4909 63.2508 62.2908H63.2541Z" fill="#221F1F"/>
<mask id="mask0_1260_1208" style="mask-type:luminance" maskUnits="userSpaceOnUse" x="-13" y="47" width="41" height="39">
<path d="M14.4322 47.6397L-13 68.1487L-0.165138 85.9186L27.2671 65.4097L14.4322 47.6397Z" fill="white"/>
</mask>
<g mask="url(#mask0_1260_1208)">
<path d="M23.9929 63.8712C25.4063 60.6017 22.4127 57.1796 19.0592 58.2175C9.77517 61.1071 -3.99914 66.1367 -4.93254 70.8069C-4.93254 70.8069 -6.85268 77.3729 0.0111456 83.8134C2.47132 86.1197 6.19492 86.6047 8.95845 84.9598C11.1253 83.6642 13.4821 81.3546 16.4323 77.2644C19.3825 73.1742 21.9527 68.599 23.9895 63.8712H23.9929Z" fill="white"/>
<path d="M23.3993 63.7762C23.9394 62.4637 23.8127 60.9782 22.8526 59.9031C21.9959 58.8992 20.5925 58.4718 19.3424 58.872C16.4422 59.7877 13.5053 60.7645 10.6284 61.8125C6.35813 63.4235 2.03116 65.0921 -1.73244 67.7036C-3.45257 68.9619 -4.62932 70.1659 -4.67599 72.4043C-4.97934 77.0473 -2.37249 81.5208 1.18776 84.2849C3.24791 85.6822 6.02477 86.0281 8.28493 84.9361C10.5451 83.7388 12.3552 81.8226 13.9887 79.8318C17.7556 75.3108 21.5959 68.1445 23.4027 63.7796L23.3993 63.7762ZM24.5794 63.9661C21.9926 70.098 14.9654 82.1889 8.57162 85.5567C6.08478 86.7336 3.06456 86.4216 0.784401 84.9021C-1.78911 82.9656 -3.79592 80.2693 -4.916 77.1999C-5.53271 75.3888 -5.81273 73.4285 -5.57272 71.5157C-5.48271 70.4067 -4.96267 69.2603 -4.18929 68.4362C0.337703 63.5625 12.4919 59.5266 18.9624 57.5188C22.6693 56.3962 26.1395 60.3609 24.5728 63.9661H24.5794Z" fill="#221F1F"/>
</g>
<path d="M20.8952 72.0786L18.0683 41.9142C18.0483 41.7141 18.025 41.514 17.9983 41.3139C17.7216 39.2077 16.2382 22.4433 38.5231 20.2456C38.5231 20.2456 59.3046 18.5837 60.748 37.9664L62.0515 68.7752C62.1615 70.2064 61.9815 71.5834 61.5614 72.8722C60.8514 75.0462 59.4646 76.8912 57.7245 78.4275C56.8311 79.2144 55.8577 79.8927 54.8376 80.4896C51.6407 82.3617 48.0271 83.4267 44.3302 83.7217L41.13 83.9761C38.6231 84.1762 36.0996 84.0134 33.6528 83.4606C31.9993 83.0875 30.4626 82.6873 29.0091 82.0599C25.9289 80.7338 23.4121 78.7803 22.0186 76.0399C21.4052 74.8359 21.0119 73.503 20.9019 72.0752H20.8952V72.0786Z" fill="white"/>
<path d="M20.7343 72.3738C19.5576 62.5519 18.1675 51.007 17.1874 41.2292C16.224 31.1597 21.8777 23.6406 31.2484 20.8257C33.5352 20.0931 35.9321 19.7166 38.2989 19.4453C41.6925 19.2282 45.0694 19.7098 48.3196 20.7137C56.5069 23.3117 61.1372 29.742 61.5372 38.4007C61.8906 46.598 62.3239 58.733 62.6506 66.9643C62.7373 68.9008 62.8973 70.9934 62.2473 72.8689C60.3605 78.6719 54.6067 82.0125 49.113 83.498C46.4528 84.2577 43.3926 84.3324 40.6524 84.546C34.4853 84.8241 26.308 82.9622 22.5211 77.6035C21.3944 75.9959 20.7043 74.0729 20.5743 72.1058L21.0543 72.3839C20.9743 72.4348 20.8177 72.4314 20.7377 72.3806L20.7343 72.3738ZM21.0577 71.7802C20.9843 71.726 20.831 71.7226 20.7543 71.7701L21.2344 72.0482C21.9777 80.1099 30.9717 83.1758 37.8322 83.515C39.4356 83.671 41.7558 83.3488 43.3759 83.2471C50.1131 82.857 58.727 79.513 61.0038 72.4755C61.5872 70.7458 61.3939 68.8466 61.3039 67.0457C60.9105 58.8042 60.3638 46.7032 60.0004 38.4922C59.6104 30.495 55.4201 24.6411 47.8329 22.2569C44.8227 21.331 41.5825 20.8799 38.4389 21.0834C36.1854 21.3514 33.8719 21.721 31.7218 22.4163C23.0311 25.0176 17.8274 32.0619 18.8042 41.3886C19.6676 50.8171 20.401 62.2636 21.0543 71.7802H21.0577Z" fill="#221F1F"/>
<path d="M25.5059 24.6885C25.5059 24.6885 38.3401 25.8993 50.5376 22.6875L25.5059 24.6885Z" fill="white"/>
<path d="M24.7588 24.8211C24.7588 24.8211 38.8965 25.9979 51.094 22.7861" stroke="#221F1F" stroke-width="0.683735" stroke-miterlimit="10"/>
<path d="M17.8379 38.7128C17.8379 38.7128 39.0761 31.9602 60.3042 35.4467L17.8379 38.7128Z" fill="white"/>
<path d="M17.7393 38.3868C20.2428 37.2811 22.893 36.7656 25.5298 36.1653C29.9068 35.2394 34.4071 34.5442 38.8574 34.144C43.2677 33.737 47.9181 33.6793 52.3451 33.9201C53.1985 33.9947 55.552 34.1914 56.3853 34.2694C57.7254 34.4696 59.0589 34.7171 60.359 35.1106L60.2523 35.7787C58.4822 35.8431 56.6854 35.5548 54.9252 35.4463C46.0946 34.7104 37.1173 35.3785 28.3934 36.8708C26.8799 37.1523 24.6498 37.5762 23.1596 37.9255C21.4262 38.3223 19.6961 38.7429 17.9393 39.038L17.7393 38.3902V38.3868Z" fill="#221F1F"/>
<path d="M19.8408 59.4488C23.6311 58.0548 38.2288 53.8154 62.4639 55.5078L19.8408 59.4488Z" fill="white"/>
<path d="M19.7275 59.1297C26.348 56.6606 33.4018 55.616 40.4023 55.0191C43.9093 54.758 47.4262 54.6257 50.9398 54.6495C54.45 54.6664 57.9769 54.68 61.4505 55.3481L61.4038 56.0264C57.9003 56.274 54.43 55.9213 50.9331 55.9416C43.9693 55.8874 36.9854 56.2808 30.1049 57.3864C26.6714 57.9494 23.2511 58.6752 19.9542 59.7707L19.7275 59.1331V59.1297Z" fill="#221F1F"/>
<path d="M52.9761 55.4942C53.2928 47.9582 52.666 34.8736 52.666 34.8736C52.666 34.8736 34.8781 33.4932 25.5508 37.3392C25.5508 37.3392 26.4542 50.4103 28.341 57.5325" stroke="#221F1F" stroke-width="0.683735" stroke-miterlimit="10"/>
<path d="M25.676 37.1627C25.4427 39.6012 27.4395 53.7033 28.3229 57.01C34.6667 55.3957 47.1609 54.7581 52.828 54.8157C53.2013 50.678 52.6213 40.1676 52.3479 35.2126L52.3346 34.9989C41.8172 33.5711 30.2697 35.9485 25.676 37.1627Z" fill="#5BC2C7"/>
<path d="M39.2142 46.9069L39.0908 43.1185C39.0908 42.9964 39.2142 42.915 39.3208 42.9693L42.9278 44.8652C43.0411 44.9228 43.0411 45.089 42.9278 45.15L39.4442 47.0425C39.3408 47.0968 39.2175 47.0256 39.2108 46.9069H39.2142Z" fill="white" stroke="black" stroke-width="0.164096"/>
<g clip-path="url(#clip1_1260_1208)">
<path d="M23.1405 24.897L14.151 21.8998C14.151 21.8998 10.2658 19.7073 9.78091 23.6759L8.10415 22.2246L9.28393 24.7085L7.21443 25.2577L8.75221 25.4185L8.76431 28.3545L9.4924 26.6442C9.4924 26.6442 10.2447 30.806 14.5695 34.2566C14.5695 34.2566 13.4366 35.0313 13.3097 36.6768C13.3097 36.6768 14.0031 34.644 15.2402 34.8371C15.2402 34.8371 14.8475 36.8376 15.4835 37.0955C15.4835 37.0955 15.4541 35.4113 16.3013 35.5126C16.3013 35.5126 25.0923 41.6088 43.6605 38.9564C43.6605 38.9564 43.2895 39.9167 43.296 40.5981C43.296 40.5981 43.7647 39.9243 44.6318 39.5045C44.6318 39.5045 45.4415 41.3755 45.8116 41.9884C45.8116 41.9884 46.1348 39.3426 46.366 38.665L47.4762 40.5036L48.1001 37.8255C48.1001 37.8255 57.6848 36.4669 61.996 28.4962C61.996 28.4962 62.48 30.1673 62.2614 30.9611C62.2614 30.9611 63.5685 28.9796 63.0942 27.3989C63.0942 27.3989 65.0368 28.4951 67.2332 26.3004C67.2332 26.3004 64.8631 26.882 64.4582 25.9465L65.0661 24.3341C65.0661 24.3341 65.8223 24.4941 66.493 25.0746C66.493 25.0746 67.4296 25.3001 65.6486 22.881C65.6486 22.881 67.6256 21.4736 66.2488 17.1605C66.2488 17.1605 65.1727 12.815 52.6409 20.6919C40.109 28.5688 23.1405 24.897 23.1405 24.897Z" fill="#FFE8C2"/>
<path d="M23.0888 25.1244C20.1428 24.1428 16.942 23.4203 13.9582 22.5961C13.5645 22.4133 13.0889 22.2328 12.6522 22.159C11.2562 21.846 10.818 22.634 9.93218 23.6987C9.93218 23.6987 10.0029 24.0729 9.99989 24.0733C9.49756 23.6443 8.46328 22.7375 8.01125 22.3521L8.23933 22.1545L9.41912 24.6384L9.5054 24.8184L9.32215 24.8675L7.25265 25.4168L7.22727 25.0964L8.76505 25.2571L8.90345 25.2716L8.9044 25.4216L8.9165 28.3576L8.62617 28.2877C8.78682 27.944 9.39817 26.4487 9.53894 26.1464C10.0092 28.5924 11.3446 30.8278 12.9936 32.5856C13.5528 33.2042 14.1936 33.7324 14.823 34.2684C14.0512 34.7823 13.5341 35.7127 13.4633 36.6929L13.1696 36.6201C13.5291 35.6381 14.2824 34.4441 15.4229 34.6999C15.3125 35.3123 15.21 35.9695 15.3248 36.5838C15.3646 36.7557 15.4384 36.9044 15.5368 36.9428L15.3342 37.0951C15.3238 36.4337 15.5278 35.1651 16.3837 35.3764C18.3848 36.6197 20.6455 37.3945 22.8749 38.0193C25.6726 38.782 28.6118 39.1638 31.4864 39.3699C32.0819 39.3939 33.528 39.4373 34.0988 39.4574C34.9032 39.4719 36.3318 39.4094 37.1438 39.4101C37.9225 39.3556 39.3867 39.2567 40.1838 39.2035L43.6403 38.7986L43.8928 38.7714C43.6816 39.3522 43.4557 39.9934 43.4486 40.6045L43.1765 40.5065C43.5836 39.9666 44.1156 39.5698 44.7063 39.2941C45.0955 40.1693 45.4795 41.0809 45.9394 41.906L45.6633 41.9684C45.8406 40.7352 45.9401 39.4843 46.3231 38.2975C46.4564 38.5182 47.4523 40.17 47.604 40.4213L47.3292 40.4672L47.9531 37.7891L47.9754 37.6855L48.0769 37.6681C49.4536 37.4349 50.8207 37.0266 52.1375 36.5193C54.7674 35.4984 57.2641 34.0024 59.2782 31.922C60.3776 30.8082 61.2888 29.4992 62.0409 28.0964C62.2857 29.0426 62.5989 30.0304 62.4068 31.0139L62.1389 30.8698C62.8011 29.79 63.329 28.395 62.8559 27.1079C64.303 27.9801 66.0156 27.3355 67.1293 26.1842L67.2687 26.4629C66.776 26.5748 66.2844 26.6408 65.7772 26.6464C65.2458 26.6253 64.5553 26.5953 64.2917 25.9546L64.3181 25.8897L64.926 24.2773L64.9733 24.1515C65.5646 24.2771 66.114 24.5508 66.5862 24.9536L66.5219 24.9213C66.5343 24.9233 66.5767 24.922 66.576 24.9155C66.575 24.9058 66.5801 24.9249 66.5829 24.8952C66.5931 24.8484 66.573 24.7461 66.5385 24.6519C66.2836 24.0071 65.8531 23.4268 65.4415 22.8804C65.7963 22.5322 66.0456 22.0517 66.1889 21.5467C66.5677 20.1515 66.223 18.6449 65.7944 17.2909C65.6539 17.0026 65.3594 16.8091 65.0444 16.6798C63.8949 16.2847 62.6328 16.5936 61.4928 16.8795C57.7572 17.9966 54.5039 20.204 51.0522 22.0933C42.4678 26.4153 32.4009 26.7129 23.0868 25.1344L23.0888 25.1244ZM23.1918 24.6695C30.5793 26.0344 38.3647 25.8422 45.5192 23.5475C47.745 22.8117 49.9044 21.8547 51.9179 20.6163C54.783 18.8424 57.6777 17.0326 60.8904 16.0012C62.5353 15.4912 65.2007 14.8843 66.4539 16.5248C66.5494 16.6777 66.6311 16.7864 66.704 17.0396L66.6941 17.0048C67.2187 18.7694 67.4522 20.9374 66.3153 22.4665C66.1528 22.6798 65.9717 22.8625 65.7361 23.0184L65.7686 22.7832C66.1605 23.3448 66.5804 23.8837 66.8248 24.5428C66.8617 24.6596 66.9056 24.7854 66.8789 24.9612C66.8756 25.0432 66.8029 25.1587 66.7165 25.2039C66.6128 25.2575 66.5296 25.2469 66.4303 25.2282C66.1248 24.9608 65.7707 24.7509 65.3995 24.6082C65.282 24.5621 65.1529 24.5205 65.0405 24.4934L65.2065 24.3972L64.5986 26.0097L64.5938 25.8796C64.6707 26.0574 64.8626 26.1738 65.0817 26.2318C65.7688 26.3993 66.5135 26.2832 67.1976 26.141L67.7911 26.0053C67.3504 26.4019 66.9061 26.8512 66.4202 27.1679C65.4238 27.8268 64.14 28.076 63.0271 27.5399L63.2408 27.3504C63.5824 28.6582 63.0314 29.9806 62.3869 31.0552L61.8541 31.8959C61.9414 31.5209 62.2173 30.7504 62.1675 30.3445C62.1449 29.7399 62.0121 29.1276 61.855 28.544L62.1295 28.5797C60.6958 31.221 58.551 33.358 56.1009 34.8914C53.6482 36.4284 50.9425 37.4802 48.1263 37.9858L48.2505 37.868L47.6266 40.5461L47.5435 40.9043C47.4477 40.7482 46.3703 38.9615 46.2441 38.7499L46.5117 38.7211C46.4345 38.9644 46.3825 39.2441 46.3329 39.5171C46.1604 40.4854 46.0328 41.4749 45.9106 42.4574C45.3521 41.5352 44.933 40.5523 44.4989 39.571L44.6994 39.6538C44.4539 39.7749 44.2176 39.9244 44.0025 40.1009C43.6774 40.3579 43.3856 40.7255 43.1464 41.0743C43.1072 40.3149 43.2596 39.5837 43.523 38.8961L43.684 39.1202L40.2125 39.5267C39.6389 39.5657 38.154 39.6701 37.5955 39.7074C37.378 39.721 36.94 39.7486 36.7208 39.7461C35.717 39.7433 34.218 39.8296 33.2219 39.7574L31.473 39.6977L29.7271 39.5529C25.0917 39.0632 20.3581 38.1141 16.2218 35.6517L16.2884 35.6771C16.1657 35.6675 16.0599 35.7017 15.9721 35.7895C15.6877 36.1139 15.6489 36.6566 15.6356 37.0986L15.6348 37.3728L15.4331 37.2509C15.3176 37.1948 15.2133 37.1016 15.149 36.9846C14.8351 36.3004 14.9905 35.5134 15.0905 34.8042L15.218 34.9993C14.3054 34.9116 13.758 35.9562 13.4498 36.7367L13.0282 37.9048L13.1561 36.6639C13.2361 35.6566 13.7117 34.7079 14.4849 34.122L14.477 34.3873C12.0975 32.4536 10.0944 29.8071 9.34029 26.6736L9.6275 26.7145L8.8994 28.4247L8.61279 29.0953C8.60576 28.6065 8.60389 25.9631 8.59662 25.4156L8.73597 25.5801L7.19819 25.4194L6.31865 25.328L7.17316 25.1022L9.24266 24.553L9.1457 24.7821L7.96592 22.2982L7.64738 21.6276L8.194 22.1007L9.87076 23.5519C9.87076 23.5519 9.62659 23.6565 9.62624 23.6533C8.75994 21.3413 11.0552 20.0367 12.9279 20.6248C13.4822 20.774 13.9431 20.9593 14.4586 21.2563L14.3405 21.2037C15.0745 21.4968 15.8111 21.7862 16.5405 22.0928C18.6641 22.977 21.0282 23.9495 23.1858 24.6701L23.1918 24.6695Z" fill="black"/>
<path d="M23.6876 28.6887L23.6548 19.913L22.0814 20.8331C22.0814 20.8331 22.3881 19.7851 23.466 19.0358C23.466 19.0358 22.104 18.2197 21.5375 18.6071C21.5375 18.6071 22.2983 17.2001 23.4209 17.7417C23.4209 17.7417 22.8994 16.0616 23.0623 15.2869C23.0623 15.2869 23.7568 16.6253 24.549 16.9218C24.549 16.9218 22.1039 12.12 35.937 10.9044C35.937 10.9044 47.8824 8.96189 50.2046 12.4813C50.2883 12.6094 50.3604 12.742 50.4185 12.8858C52.0726 16.9504 51.8964 16.444 51.8964 16.444L52.7659 14.9176L52.4578 17.3365L53.6512 17.208L52.5439 18.5315L53.7002 25.4565C53.7002 25.4565 40.1943 36.5714 23.6846 28.689L23.6876 28.6887Z" fill="#FFE8C2"/>
<path d="M23.5595 28.774L23.5016 19.9063L23.7271 20.0518L22.1536 20.9719L21.8046 21.1759C21.9631 20.6432 22.1809 20.1236 22.5223 19.7083C22.768 19.3914 23.0579 19.1186 23.3804 18.8946L23.3919 19.1708C22.8619 18.908 22.1879 18.4943 21.6181 18.7384L21.0527 19.1355C21.5396 18.179 22.325 17.0566 23.4803 17.5914L23.2766 17.7896C23.0097 16.836 22.7276 15.8253 22.9955 14.8402L23.1962 15.2069C23.5341 15.8037 23.9891 16.4988 24.5987 16.766L24.4165 16.9945C23.0249 13.7013 27.6758 11.7937 29.939 11.2073C31.9479 10.632 34.0385 10.4199 36.0984 10.2046C39.559 9.75353 43.037 9.51931 46.5469 10.1465C47.2465 10.2898 47.9457 10.4854 48.6256 10.7842C49.4551 11.1453 50.3808 11.806 50.7297 12.7867L50.9193 13.3048C51.0999 13.8239 51.4854 14.8626 51.666 15.3817C51.7623 15.6552 51.9229 16.1014 52.0249 16.3711C52.0059 16.4482 52.1271 16.2752 51.7943 16.3469C51.7278 16.4357 51.7534 16.4754 51.7561 16.5012L51.7354 16.4218L51.7686 16.3628L52.6381 14.8364L53.0167 14.1723L52.9176 14.9466L52.6095 17.3655L52.4436 17.181L54.0308 17.0101L53.7695 17.3222L52.6652 18.6454L52.6994 18.5112L53.8554 25.4329L53.8741 25.5223L53.7996 25.5923C45.5626 32.8011 33.0909 34.4314 23.5635 28.7833L23.5595 28.774ZM23.8114 28.6C31.5178 31.458 38.9003 31.6191 46.5659 28.7897C49.0079 27.8871 51.3903 26.7428 53.6097 25.3256L53.5535 25.4817C53.5535 25.4817 52.3945 18.5603 52.3972 18.5568L52.3828 18.48L52.4314 18.4226L53.5357 17.0993L53.6651 17.3693L52.2763 17.5189L52.3028 17.3137L52.611 14.8948L52.8905 15.005L52.0209 16.5314L52.033 16.3898L52.0341 16.3994L52.0418 16.4149C52.0426 16.4507 52.0749 16.4962 52.0021 16.5824C51.6685 16.6477 51.7841 16.4786 51.7603 16.5399L51.7529 16.5276L51.7337 16.4905C51.4646 15.968 51.0704 15.1031 50.8142 14.5596C50.6621 14.2202 50.2714 13.3876 50.1293 13.057C48.9813 10.8112 44.4922 10.9748 42.367 10.9785C39.987 11.0162 37.5978 11.3649 35.2415 11.6513C32.8978 11.9134 30.5434 12.2453 28.2932 12.9805C26.6892 13.5318 24.1741 14.6023 24.6772 16.8457L24.8018 17.2402L24.4954 17.0774C24.1105 16.9198 23.8242 16.634 23.5734 16.338C23.3249 16.0351 23.114 15.7151 22.9245 15.3667L23.203 15.327C23.0988 16.2226 23.409 17.1553 23.6501 18.0105L23.3516 17.8925C22.6818 17.5469 21.9957 18.094 21.6587 18.6916L21.4436 18.4733C21.6335 18.3451 21.8397 18.3393 22.0232 18.3489C22.644 18.4093 23.2086 18.7108 23.7502 19.0245C23.2277 19.368 22.753 19.8172 22.4406 20.3894C22.3514 20.5491 22.2669 20.7247 22.2144 20.887L21.9961 20.6951C22.1614 20.5924 23.6959 19.7059 23.7955 19.643L23.795 19.9204L23.8031 28.6074L23.8114 28.6Z" fill="black"/>
<path d="M23.7334 28.6953L23.7334 25.6705C28.573 29.2365 36.1507 28.5361 39.3347 27.7401C47.2308 26.9759 51.8581 23.8132 53.1848 22.3274L53.6624 25.5113C50.9879 27.8038 44.6943 30.2872 41.8818 31.2424C35.1319 33.0254 26.9704 30.2872 23.7334 28.6953Z" fill="white" stroke="black" stroke-width="0.318393"/>
<path d="M23.5938 25.5432C23.5938 25.5432 27.4943 29.7412 38.5249 27.832C38.5249 27.832 49.6933 26.4105 53.0172 22.3744" fill="#FFE8C2"/>
<path d="M23.5938 25.5432C23.5938 25.5432 27.4943 29.7412 38.5249 27.832C38.5249 27.832 49.6933 26.4105 53.0172 22.3744" stroke="black" stroke-width="0.362558" stroke-miterlimit="10"/>
<path d="M13.6618 27.0112C13.6618 27.0112 13.9609 31.2282 18.5132 34.0799" stroke="black" stroke-width="0.362558" stroke-miterlimit="10"/>
<path d="M14.4473 26.5283C14.4473 26.5283 15.72 32.0211 19.2719 33.3487" stroke="black" stroke-width="0.362558" stroke-miterlimit="10"/>
<path d="M16.1445 26.7437C16.1445 26.7437 18.2059 32.0764 21.7019 33.0837" stroke="black" stroke-width="0.362558" stroke-miterlimit="10"/>
<path d="M11.7324 27.219C11.7324 27.219 15.3474 29.8388 18.3343 28.0941" stroke="black" stroke-width="0.362558" stroke-miterlimit="10"/>
<path d="M12.4023 29.1179C12.4023 29.1179 16.2732 31.1488 18.9018 29.7202" stroke="black" stroke-width="0.362558" stroke-miterlimit="10"/>
<path d="M58.3133 23.7882C58.3133 23.7882 57.3654 28.5116 54.5397 30.1997" stroke="black" stroke-width="0.362558" stroke-miterlimit="10"/>
<path d="M58.9538 25.4035C58.9538 25.4035 58.1065 29.7343 54.7348 31.9707" stroke="black" stroke-width="0.362558" stroke-miterlimit="10"/>
<path d="M56.4648 25.1755C56.4648 25.1755 58.1021 28.7165 58.8116 28.4149" stroke="black" stroke-width="0.362558" stroke-miterlimit="10"/>
<path d="M55.2339 27.1227C55.2339 27.1227 55.591 31.1443 57.227 30.8049" stroke="black" stroke-width="0.362558" stroke-miterlimit="10"/>
</g>
</g>
<defs>
<clipPath id="clip0_1260_1208">
<rect y="0.522217" width="76" height="76" rx="38" fill="white"/>
</clipPath>
<clipPath id="clip1_1260_1208">
<rect width="61.101" height="32.5982" fill="white" transform="translate(5.1084 14.0647) rotate(-6.14681)"/>
</clipPath>
</defs>
</svg>