<svg xmlns="http://www.w3.org/2000/svg"  viewBox="0 0 24 24" fill="#27A2A8"><path d="M4,10c0-4.4,3.6-8,8-8s8,3.6,8,8h2v4h-1.1c-0.5,4.5-4.3,8-8.9,8 s-8.4-3.5-8.9-8H2v-4H4z" opacity=".3"/><path d="M5 11H8V13H5zM16 11H19V13H16zM14 13H17V17H14zM10 11H14V14H10zM7 13H10V17H7zM11 8c0 1.1-.9 2-2 2S7 9.1 7 8H11zM17 8c0 1.1-.9 2-2 2s-2-.9-2-2H17z"/><path d="M12,23c-4.8,0-8.9-3.4-9.8-8H1V9h2.1C3.6,4.5,7.4,1,12,1c4.6,0,8.4,3.5,8.9,8H23v6h-1.2C20.9,19.6,16.8,23,12,23z M3,13h1 L4,13.9c0.4,4.1,3.9,7.1,8,7.1s7.5-3.1,8-7.1L20,13h1v-2h-2v-1c0-3.9-3.1-7-7-7c-3.9,0-7,3.1-7,7v1H3V13z"/></svg>