<svg xmlns="http://www.w3.org/2000/svg" fill="none" viewBox="-14.16 0.44 98.44 85.5">
<g clip-path="url(#clip0_1260_1031)">
<rect y="0.436279" width="76" height="76" rx="38" fill="#FAFBFB"/>
<path d="M52.5549 62.2561C50.0115 59.8018 51.476 55.4644 54.9635 55.0988C64.6269 54.0954 79.2454 53.2872 81.8781 57.2228C81.8781 57.2228 86.141 62.5164 82.2495 71.1614C80.8526 74.2583 77.6001 76.1782 74.4264 75.7527C71.9352 75.418 68.8856 74.2199 64.6103 71.6154C60.335 69.0109 56.2297 65.8084 52.5544 62.2608L52.5523 62.2582L52.5549 62.2561Z" fill="white"/>
<path d="M52.1958 62.4837C50.9774 61.3173 50.526 59.4233 51.0628 57.8061C51.5657 56.1342 53.094 54.8257 54.8078 54.6454C57.8989 54.3003 60.9641 54.0536 64.0567 53.897C68.5618 53.7804 79.411 53.2102 82.2067 56.9502C85.3629 61.5615 84.6245 67.8401 81.9478 72.4731C80.7214 74.3029 78.7916 75.6531 76.6361 76.0369C73.4609 76.5531 70.2829 75.0137 67.5074 73.6647C62.0126 70.7921 56.3588 66.5674 52.1931 62.4858L52.1958 62.4837ZM52.9114 62.0302C56.5993 65.6324 62.5212 70.3236 67.8235 73.0357C72.5672 75.4929 77.6456 77.263 81.3321 72.0569C83.5709 68.0989 84.3119 62.9485 82.3015 58.768C81.4219 56.7 79.8434 56.0124 77.7723 55.5175C73.3001 54.5464 68.6582 54.7169 64.0943 54.8893C61.0346 55.028 57.9533 55.2704 54.9177 55.5883C53.5345 55.7234 52.3251 56.7413 51.9036 58.0848C51.4222 59.4936 51.8705 61.0105 52.9093 62.0275L52.9114 62.0302Z" fill="#221F1F"/>
<mask id="mask0_1260_1031" style="mask-type:luminance" maskUnits="userSpaceOnUse" x="-15" y="38" width="40" height="33">
<path d="M24.6845 48.8944L-7.88184 38.9685L-14.1567 60.1317L18.4096 70.0576L24.6845 48.8944Z" fill="white"/>
</mask>
<g mask="url(#mask0_1260_1031)">
<path d="M19.3114 62.2933C20.9663 59.1368 18.2428 55.4931 14.8239 56.2744C5.35763 58.4538 -8.74313 62.4284 -10.0257 67.0198C-10.0257 67.0198 -12.4343 73.4288 -6.08359 80.3798C-3.80717 82.869 -0.134653 83.6361 2.7424 82.2039C4.99867 81.0752 7.52081 78.9485 10.7685 75.0894C14.0162 71.2303 16.922 66.8581 19.308 62.2931L19.3114 62.2933Z" fill="white"/>
<path d="M18.727 62.1537C19.3641 60.8844 19.3501 59.3918 18.475 58.2456C17.6974 57.1783 16.3317 56.6451 15.0562 56.9496C12.0981 57.6434 9.09886 58.3954 6.15399 59.2231C1.77858 60.5069 -2.65764 61.844 -6.60388 64.1651C-8.41237 65.2906 -9.6755 66.4031 -9.89106 68.6342C-10.5439 73.2463 -8.2851 77.9102 -4.94745 80.94C-3.00085 82.4915 -0.260891 83.0478 2.07299 82.1293C4.4148 81.1058 6.36265 79.3304 8.14013 77.467C12.2339 73.2399 16.6006 66.3775 18.7301 62.1573L18.727 62.1537ZM19.8882 62.4329C16.8482 68.3579 8.93503 79.8943 2.31168 82.7707C-0.254403 83.7566 -3.23933 83.2157 -5.39587 81.5256C-7.81312 79.3968 -9.60848 76.5527 -10.4924 73.4034C-10.9699 71.5486 -11.1008 69.5703 -10.7172 67.679C-10.5438 66.5787 -9.93916 65.4738 -9.10652 64.7098C-4.22898 60.1883 8.18289 57.0826 14.7799 55.5698C18.5572 54.7307 21.7145 58.9523 19.8815 62.4324L19.8882 62.4329Z" fill="#221F1F"/>
</g>
<path d="M17.1064 72.8027L15.2178 42.5803C15.204 42.3797 15.1869 42.1791 15.1664 41.9783C14.9552 39.8654 13.9932 23.0718 36.3669 21.6441C36.3669 21.6441 57.2191 20.6998 58.0593 40.1069L58.403 70.9204C58.4685 72.3536 58.2454 73.7226 57.7848 74.9952C57.0063 77.1419 55.5607 78.9368 53.7711 80.4112C52.8523 81.1663 51.8569 81.8102 50.8173 82.3712C47.5591 84.1309 43.909 85.07 40.1995 85.2374L36.9885 85.3813C34.4731 85.4949 31.9524 85.2454 29.5206 84.6091C27.8773 84.1796 26.3516 83.727 24.9164 83.0503C21.8747 81.6199 19.4165 79.5823 18.1073 76.7975C17.5309 75.574 17.1788 74.2293 17.1132 72.7995L17.1065 72.7993L17.1064 72.8027Z" fill="white"/>
<path d="M16.9378 73.0919C16.0663 63.2423 15.035 51.6648 14.359 41.8661C13.7088 31.7766 19.6021 24.4621 29.0689 21.9734C31.3806 21.3205 33.7913 21.027 36.1688 20.8375C39.5721 20.7376 42.937 21.3348 46.1588 22.4493C54.2724 25.3256 58.7063 31.9069 58.8366 40.568C58.9346 48.7667 58.9899 60.9007 59.0602 69.1324C59.0865 71.0694 59.1814 73.1648 58.4723 75.0155C56.4028 80.7458 50.5398 83.8841 44.9948 85.1785C42.3086 85.8456 39.2433 85.8148 36.494 85.9338C30.3127 85.9993 22.1862 83.8583 18.5631 78.3763C17.4854 76.732 16.8548 74.7878 16.786 72.8188L17.2578 73.1131C17.1761 73.1611 17.0194 73.1523 16.9409 73.0988L16.9378 73.0919ZM17.2799 72.5103C17.2082 72.4536 17.0548 72.4449 16.9766 72.4897L17.4484 72.7839C17.941 80.8607 26.8474 84.2322 33.7034 84.8071C35.3034 85.0181 37.6357 84.7762 39.2604 84.7303C46.0158 84.5728 54.7417 81.5296 57.24 74.5798C57.8779 72.8724 57.7436 70.969 57.7097 69.1674C57.573 60.9232 57.4032 48.8192 57.2956 40.6065C57.1546 32.6063 53.1432 26.6159 45.6236 23.9736C42.6396 22.9453 39.4105 22.3833 36.2578 22.4783C33.9939 22.6683 31.6669 22.9579 29.4931 23.5782C20.7136 25.8769 15.2856 32.7328 15.9723 42.0809C16.5424 51.5268 16.9194 62.9835 17.2766 72.5102L17.2799 72.5103Z" fill="#221F1F"/>
<path d="M23.2472 25.6187C23.2472 25.6187 36.0369 27.2561 48.3301 24.4727L23.2472 25.6187Z" fill="white"/>
<path d="M22.4971 25.7256C22.4971 25.7256 36.5906 27.373 48.8838 24.59" stroke="#221F1F" stroke-width="0.681177" stroke-miterlimit="10"/>
<path d="M15.1336 39.3708C15.1336 39.3708 36.5752 33.3678 57.6828 37.5539L15.1336 39.3708Z" fill="white"/>
<path d="M15.0436 39.0433C17.5809 38.0269 20.2462 37.6031 22.9008 37.0944C27.305 36.3202 31.8252 35.7799 36.2861 35.5317C40.7072 35.2753 45.3572 35.375 49.7745 35.7643C50.6251 35.8674 52.9713 36.1428 53.8018 36.2486C55.135 36.4931 56.4599 36.7847 57.747 37.2203L57.6192 37.8821C55.8479 37.8864 54.061 37.5387 52.3052 37.3712C43.502 36.3401 34.5077 36.7022 25.7407 37.8935C24.219 38.1227 21.9765 38.4696 20.476 38.7671C18.7308 39.1037 16.9882 39.464 15.2229 39.6985L15.0435 39.0467L15.0436 39.0433Z" fill="#221F1F"/>
<path d="M16.4674 60.1623C20.2999 58.903 35.0247 55.1767 59.1946 57.6789L16.4674 60.1623Z" fill="white"/>
<path d="M16.365 59.8419C23.0605 57.6069 30.1441 56.8049 37.1601 56.447C40.6737 56.3054 44.1931 56.2925 47.7043 56.4348C51.2124 56.5702 54.7372 56.7028 58.188 57.4854L58.1199 58.1593C54.6101 58.2875 51.1527 57.8191 47.6568 57.7212C40.6979 57.432 33.7049 57.5879 26.7927 58.4565C23.3429 58.9011 19.9013 59.5083 16.5713 60.4878L16.3649 59.8453L16.365 59.8419Z" fill="#221F1F"/>
<path d="M49.7242 57.3336C50.2795 49.8174 50.067 36.7274 50.067 36.7274C50.067 36.7274 32.3244 34.7461 22.8762 38.2715C22.8762 38.2715 23.3658 51.3574 25.0269 58.5349" stroke="#221F1F" stroke-width="0.681177" stroke-miterlimit="10"/>
<path d="M23.0056 38.0994C22.6951 40.5271 24.2453 54.6796 25.024 58.0123C31.4182 56.6148 43.9314 56.4012 49.5961 56.6507C50.1004 52.5307 49.8531 42.0134 49.7366 37.0552L49.7301 36.8413C39.2589 35.0589 27.6373 37.0423 23.0056 38.0994Z" fill="#5BC2C7"/>
<path d="M36.2325 48.2889L36.2291 44.5004C36.233 44.3784 36.3589 44.3013 36.4639 44.3591L40.0108 46.3752C40.1223 46.4366 40.1171 46.6026 40.0018 46.6598L36.4582 48.4322C36.3532 48.4829 36.2321 48.4076 36.2292 48.2888L36.2325 48.2889Z" fill="white" stroke="black" stroke-width="0.163482"/>
<path d="M35.4724 23.8714C34.9813 23.9122 34.6353 23.381 34.8519 22.9253C36.9106 18.5832 45.5539 2.4876 57.0787 10.7391C68.8217 19.1452 48.4419 15.7878 41.8726 17.2134C39.849 17.6536 38.0443 18.8692 36.9217 20.6747C36.4397 21.4528 36.0793 22.3309 36.0452 23.2536C36.0323 23.5833 35.7853 23.8476 35.4708 23.877L35.47 23.8719L35.4724 23.8714Z" fill="white"/>
<path d="M35.7174 23.841C35.6962 23.787 35.62 23.6714 35.5091 23.6377C35.4108 23.6044 35.3737 23.6238 35.2962 23.5949C35.056 23.507 34.9657 23.2078 35.1066 22.9875L35.1634 22.8705C36.1512 20.8491 37.2887 18.8995 38.5734 17.0692C42.4197 11.4826 48.4678 6.32189 55.2415 10.0183C56.9308 10.968 58.7023 12.213 59.9143 13.7645C60.1845 14.167 60.446 14.6261 60.2026 15.0548C60.0041 15.3398 59.698 15.5014 59.3443 15.6474C58.4274 15.9983 57.4414 16.1197 56.4619 16.2191C52.4464 16.5729 48.3523 16.3058 44.3087 16.5778C42.9372 16.6777 41.5294 16.8335 40.2513 17.4103C38.0344 18.4045 36.0442 20.5239 35.7983 23.1174L35.7921 23.252C35.7871 23.4415 35.6319 23.6039 35.4512 23.6212C35.4504 23.6161 35.7292 23.8522 35.7186 23.833L35.5169 24.129C35.5561 24.1224 35.6275 24.0972 35.674 24.0265C35.7234 23.9579 35.7264 23.8815 35.7203 23.8432L35.7174 23.841ZM35.2246 23.9031C35.2185 23.8648 35.2214 23.7883 35.2684 23.7201C35.3178 23.6516 35.3863 23.6243 35.4231 23.6181C35.4239 23.6232 35.2136 23.9128 35.2221 23.9192L35.2611 24.1642L35.4904 24.136C35.8478 24.1073 36.1735 23.8324 36.2639 23.4687C36.4293 20.97 38.3468 18.931 40.4851 17.9946C41.6823 17.4628 43.0102 17.3257 44.3478 17.2342C48.4052 16.986 52.4455 17.2779 56.5213 16.9402C58.4256 16.7925 62.4518 16.2063 60.4727 13.3403C60.0354 12.7248 59.5112 12.2419 58.98 11.7785C57.9005 10.8702 56.7785 10.0425 55.5393 9.39434C51.5726 7.22715 47.2889 7.90118 43.7523 10.5849C39.7389 13.6371 36.9226 18.0677 34.7005 22.6314L34.6442 22.751L34.616 22.8107C34.3357 23.3715 34.7476 24.1118 35.3566 24.1324C35.3696 24.1354 35.3231 24.1275 35.3003 24.1104C35.2343 24.0744 35.1984 23.9599 35.2197 23.9039L35.2246 23.9031Z" fill="#221F1F"/>
<g clip-path="url(#clip1_1260_1031)">
<path d="M38.759 38.6654C38.759 38.6654 41.5348 36.181 54.2915 34.2739C54.2915 34.2739 60.878 32.0235 61.0638 29.4514C61.0638 29.4514 62.7047 51.7389 54.3037 54.2807C54.3037 54.2807 47.4392 56.6903 41.6267 55.3539C41.6267 55.3539 38.7489 58.0464 37.2028 57.8323" fill="#FFE6C0"/>
<path d="M38.6745 38.5701C41.845 35.8772 48.1391 34.8464 52.2144 34.1566L54.2318 33.8674L54.1604 33.8848C56.0818 33.1875 60.5102 31.6151 60.938 29.442L61.1337 28.438L61.1947 29.4426C61.5248 35.9254 61.5296 48.9553 56.2557 53.3797C54.9301 54.4585 53.1849 54.7504 51.5713 55.1619C48.3129 55.8755 44.8923 56.1982 41.6022 55.4803L41.7194 55.4488C41.0734 56.0365 40.3926 56.5763 39.6639 57.0559C38.9116 57.513 38.1248 58.0276 37.1911 57.9583L37.2252 57.7032C38.0431 57.7629 38.8379 57.2609 39.5245 56.839C40.238 56.3701 40.9137 55.833 41.5448 55.2585L41.5949 55.2135L41.6594 55.2271C44.903 55.9335 48.2955 55.6142 51.5155 54.9068C53.0907 54.5014 54.8005 54.2259 56.0935 53.1763C61.2764 48.8031 61.2641 35.871 60.9384 29.4573C60.9384 29.4573 61.1977 29.4553 61.1952 29.458C61.0276 31.4828 58.0705 32.9736 56.4452 33.7987C55.7635 34.1178 55.0791 34.4345 54.3568 34.6777C53.1794 34.8949 51.5337 35.1662 50.3801 35.4085C47.447 36.0001 44.4479 36.7142 41.6086 37.637C40.675 37.9451 39.6986 38.2852 38.8491 38.7578L38.677 38.5675L38.6745 38.5701Z" fill="black"/>
<path d="M32.9609 38.8889C32.9609 38.8889 30.0526 36.5612 17.2102 35.3595C17.2102 35.3595 10.5098 33.4751 10.1826 30.9171C10.1826 30.9171 9.77151 53.2612 18.2997 55.3365C18.2997 55.3365 25.2865 57.3644 31.0166 55.71C31.0166 55.71 34.0383 58.2399 35.5703 57.941" fill="#FFE6C0"/>
<path d="M32.8813 38.9889C30.4997 37.7993 27.7797 37.3685 25.1827 36.8394C22.6001 36.3664 19.7536 36.0007 17.135 35.7135C15.0259 35.0015 10.4227 33.3956 10.0545 30.9338C10.0544 30.9312 10.3108 30.919 10.3108 30.919C10.3385 37.328 11.0386 50.2514 16.4545 54.3352C17.8034 55.3119 19.5257 55.4929 21.1209 55.8109C24.375 56.3399 27.7799 56.472 30.9796 55.5881L31.0433 55.5709L31.0958 55.6131C31.7576 56.1519 32.4618 56.651 33.2001 57.0799C33.909 57.4659 34.7275 57.9208 35.5435 57.8162L35.5915 58.069C34.0407 58.2427 32.1145 56.7171 30.9319 55.8127L31.0507 55.8377C27.805 56.7331 24.3719 56.6018 21.0792 56.0688C19.448 55.7466 17.6868 55.5539 16.3037 54.5472C10.7968 50.4198 10.0817 37.4172 10.054 30.9158L10.059 29.8863L10.3103 30.901C10.6793 32.2745 12.1556 32.9372 13.3225 33.5519C14.4884 34.1281 16.2323 34.7193 17.2437 34.9994C19.9224 35.2337 22.6982 35.5448 25.3307 36.0627C27.4967 36.5061 29.6856 37.0413 31.6961 37.9922C32.1722 38.2204 32.6174 38.4468 33.0427 38.7893L32.8813 38.9889Z" fill="black"/>
<path d="M36.4125 59.0297C36.8819 59.0168 37.2672 58.6545 37.3082 58.1862L39.1295 37.0867C39.176 36.5361 38.7344 36.0682 38.1829 36.0834L33.0349 36.2253C32.4783 36.2406 32.0608 36.7424 32.1479 37.2919L35.4746 58.2495C35.5462 58.707 35.9481 59.0399 36.4124 59.0271L36.4125 59.0297Z" fill="#FFC793"/>
<path d="M36.4089 58.9014C36.8498 58.8815 37.1702 58.4902 37.1481 58.0596L37.1603 57.8513L37.2556 56.1853C37.5993 50.4001 37.8901 43.6255 38.3271 37.8712L38.3863 37.0404C38.3873 36.9839 38.3846 36.9788 38.3735 36.9483C38.3243 36.8393 38.2188 36.8294 38.1087 36.8401L37.2751 36.8656L35.6081 36.9193L33.9406 36.9575L33.1069 36.9779C33.0168 36.9701 32.9101 37.009 32.8897 37.1071C32.878 37.1485 32.8787 37.1742 32.8877 37.2201L33.008 38.046C33.8556 43.747 34.6295 50.4999 35.3831 56.2369L35.5981 57.8918C35.6361 58.1526 35.63 58.3966 35.7974 58.6025C35.9411 58.7859 36.1702 58.9028 36.4115 58.9039L36.4089 58.9014ZM36.4159 59.1579C35.6928 59.1855 35.3021 58.6084 35.2479 57.9451C35.0582 56.9312 34.5203 54.0839 34.3218 53.0292C33.3807 48.1265 32.1978 42.1806 31.4011 37.3022C31.2891 36.4068 32.0223 35.5344 32.9244 35.4787C32.9831 35.4668 33.8169 35.4516 33.9014 35.4441L35.5685 35.3905L37.236 35.3522C37.3255 35.3395 38.1315 35.3378 38.1801 35.3313C38.8803 35.312 39.5503 35.7762 39.7815 36.4372C39.9731 36.8683 39.8123 37.553 39.786 37.9952C39.5152 40.7468 39.2021 43.5432 38.8797 46.2833C38.5041 49.3253 37.8563 54.8827 37.5127 57.8776L37.4876 58.0836C37.48 58.646 36.9911 59.1651 36.4184 59.1553L36.4159 59.1579Z" fill="black"/>
<path d="M39.5312 51.5274C39.5312 51.5274 40.165 42.8541 49.1247 42.6098C49.1247 42.6098 55.7663 42.1752 56.7075 39.0689C56.7075 39.0689 55.934 48.0746 50.8085 48.4726C50.8085 48.4726 41.2154 49.8612 39.5312 51.5274Z" fill="white"/>
<path d="M39.4787 51.6445C39.4448 51.6275 39.3967 51.5569 39.403 51.5054L39.402 51.4695L39.4007 51.4233C39.4022 48.4019 40.7861 45.3399 43.2836 43.564C44.776 42.4807 46.5991 41.9402 48.4127 41.8029C49.5641 41.7609 50.7433 41.6104 51.8824 41.3993C53.6122 41.0153 55.5917 40.6553 56.5841 39.0339L56.9379 38.0846L56.8345 39.0835C56.4142 42.5553 55.06 48.0963 50.9177 48.5903C48.9697 48.8802 47.0208 49.2342 45.0972 49.6645C43.3278 50.106 41.4688 50.4576 39.8931 51.4072C39.7773 51.4899 39.6138 51.6125 39.4763 51.6497L39.4787 51.6445ZM39.5852 51.4105C39.6262 51.3144 39.5821 51.2977 39.6679 51.2465C40.0027 51.0037 40.3777 50.8265 40.7557 50.6647C44.0073 49.425 47.4656 48.8882 50.8875 48.3319C54.8713 47.8602 56.1762 42.395 56.5796 39.0571L56.8299 39.1041C56.7722 39.6191 56.5294 40.1212 56.2047 40.5435C54.4652 42.6244 51.1373 43.3322 48.5491 43.4934C46.0993 43.6456 43.7266 44.6428 42.1266 46.571C40.9451 47.9436 40.1436 49.6907 39.6787 51.4516L39.6671 51.4955C39.6671 51.4955 39.6627 51.5213 39.6623 51.5059C39.6664 51.4699 39.6187 51.4147 39.5827 51.4132L39.5852 51.4105Z" fill="black"/>
<path d="M32.3549 51.8021C32.3549 51.8021 31.2445 43.1768 22.2849 43.4263C22.2849 43.4263 15.6294 43.3581 14.5186 40.3083C14.5186 40.3083 15.7868 49.2578 20.9265 49.3729C20.9265 49.3729 30.5815 50.2312 32.3549 51.8021Z" fill="white"/>
<path d="M32.2924 51.6884C32.2565 51.6894 32.2119 51.7497 32.218 51.7854C32.2185 51.8034 32.2153 51.7778 32.2126 51.7753L32.2012 51.732L32.1757 51.6454C31.6482 49.9247 30.7729 48.2495 29.5559 46.9353C27.8666 45.0643 25.3951 44.1493 22.9093 44.1151C20.3593 44.0801 17.0137 43.5819 15.1418 41.7005C14.7873 41.3176 14.5049 40.8505 14.3935 40.3478L14.6408 40.2871C15.2247 43.5901 16.834 48.9852 20.8351 49.2343C24.2824 49.6014 27.765 49.947 31.0799 51.0056C31.4637 51.1465 31.8505 51.3027 32.1981 51.5267C32.2866 51.5731 32.2462 51.5947 32.2897 51.6859L32.2924 51.6884ZM32.4116 51.9162C32.2722 51.8866 32.1023 51.7758 31.982 51.697C30.3566 50.8382 28.4783 50.587 26.6899 50.2436C24.7455 49.9198 22.7801 49.6736 20.819 49.4915C16.6531 49.2212 15.0013 43.7734 14.3877 40.3249L14.2295 39.3333L14.635 40.2616C15.9145 42.5392 20.5766 42.7419 22.9432 42.7357C25.2614 42.7437 27.6159 43.5105 29.3486 45.0928C31.1632 46.7627 32.261 49.1505 32.4695 51.5937L32.4746 51.686L32.4758 51.7321C32.4904 51.7933 32.4595 51.884 32.4115 51.911L32.4116 51.9162Z" fill="black"/>
</g>
</g>
<defs>
<clipPath id="clip0_1260_1031">
<rect y="0.436279" width="76" height="76" rx="38" fill="white"/>
</clipPath>
<clipPath id="clip1_1260_1031">
<rect width="51.2098" height="30.03" fill="white" transform="translate(10 29.8469) rotate(-1.57837)"/>
</clipPath>
</defs>
</svg>