<?xml version="1.0" encoding="utf-8"?>
<!-- Generator: Adobe Illustrator 23.1.1, SVG Export Plug-In . SVG Version: 6.00 Build 0)  -->
<svg version="1.1" id="Layer_1" xmlns="http://www.w3.org/2000/svg" xmlns:xlink="http://www.w3.org/1999/xlink" x="0px" y="0px"
	 viewBox="0 0 100 100" style="enable-background:new 0 0 100 100;" xml:space="preserve">
<path d="M92.9,29l-7.2-2.4c-1.5-2.9-4.6-4.7-7.9-4.7h-2c-2-0.9-3.3-1.4-5.1-2.8h1c5,0,9.1-4.1,9.1-9.1c0-1.6-1.3-2.8-2.8-2.8
	c-1.6,0-2.8,1.3-2.8,2.8c0,1.9-1.6,3.5-3.5,3.5h-5.2c-0.7-1.7-1.1-3.6-1.1-5.6c0-1.6-1.3-2.8-2.8-2.8s-2.8,1.3-2.8,2.8
	c0,1.9,0.3,3.8,0.8,5.6h-3.3c-3.1,0-5.6-2.5-5.6-5.6c0-1.6-1.3-2.8-2.8-2.8c-1.6,0-2.8,1.3-2.8,2.8c0,6.2,5,11.2,11.2,11.2h5.9
	c1.3,2,3,3.7,5,5.2c-1.2,1.1-0.2-0.2-10,14.5H27.5c-7.6,0-14.1,5.1-16.2,12.1l-5.2,3.9c-2.2,1.6-1,5.1,1.7,5.1
	c1.2,0,1.7-0.5,3.5-1.9l0.9,2.5c1.3,3.5,0.5,7.4-2.2,10.1c-0.8,0.8-1,1.9-0.7,2.9c2.5,7.1,0.9,2.6,7,19.6c0.4,1.1,1.5,1.9,2.6,1.9
	h4.2c1.6,0,2.8-1.3,2.8-2.8c0-1.6-1.3-2.8-2.8-2.8H21l-3.5-9.8c5.2-2.2,4-1.5,5.9-3.2L29,92.9c0.4,1.1,1.5,1.9,2.7,1.9h2.8
	c1.6,0,2.8-1.3,2.8-2.8c0-1.6-1.3-2.8-2.8-2.8h-0.8l-5.8-17.5c1-1.2,1.8-2.5,2.6-3.8c0.8,0.4,0.5,0.3,11.8,0.3c0.7,0,1.4,0,2.1-0.1
	V92c0,1.6,1.3,2.8,2.8,2.8s2.8-1.3,2.8-2.8V76.8l3-5.9l1.2,5.9V92c0,1.6,1.3,2.8,2.8,2.8h2.8c1.6,0,2.8-1.3,2.8-2.8
	c0-1.6-1.3-2.8-2.8-2.8v-12l5-10c5.6-4,9.9-9.7,12.1-16.2l3.2-9.5c0.4,0,0.3,0,4.7,0c4.7,0,8.8-3.4,9.8-8l0.3-1.3
	C95,30.8,94.2,29.5,92.9,29z"/>
</svg>
