<?xml version="1.0" encoding="utf-8"?>
<!-- Generator: Adobe Illustrator 23.1.1, SVG Export Plug-In . SVG Version: 6.00 Build 0)  -->
<svg version="1.1" id="Layer_1" xmlns="http://www.w3.org/2000/svg" xmlns:xlink="http://www.w3.org/1999/xlink" x="0px" y="0px"
	 viewBox="0 0 100 100" style="enable-background:new 0 0 100 100;" xml:space="preserve">
<path d="M92.2,29.2c-2.6,0-5-1-6.6-2.9c-1.6-1.8-3.9-3.1-6.8-3.8c-2.1-4.2-6.7-7.1-10.2-7.4c-0.9-0.1-1.8,0.3-2.4,1
	C64.6,18,64.5,21,65,23.7c-6.1,2.2-11.9,6.1-13.5,7.2c-33.2,10.4-23.1,7.3-26.3,8.3c-0.2,0.1-4.7,1.4-9.4,4.8
	C9.4,48.5,5.7,54.5,5,61.3c-0.2,1.6,1.1,3.1,2.8,3.1c1.4,0,2.7-1.1,2.8-2.5c0.3-3,1.4-5.8,3.3-8.3c-0.6,2.6-0.4,3.7-0.4,11.7
	c-4.2,9.8-4.1,9.4-4.1,9.6c-0.2,0.5-0.1-0.3-0.1,13.4c0,1.5,1.2,2.8,2.9,2.8l4.1-0.1c1.6,0,2.8-1.3,2.8-2.9c0-1.6-1.3-2.8-2.9-2.8
	l-1.3,0v-7.7l7.8-2.2c1.9-0.5,5.5-4,6.9-5.4l-0.6,6.6c-0.1,0.6,0.1,1.2,0.4,1.7l7,11.2c0.5,0.8,1.4,1.3,2.4,1.3h2.8
	c1.6,0,2.8-1.3,2.8-2.8c0-1.6-1.3-2.8-2.8-2.8h-1.3l-5.7-9.1l1.1-11.9c2.6,0,7.3-0.1,12-0.1c2.8,13.8,2,8.5,3.7,24.2
	c0.1,0.9,0.6,1.7,1.4,2.2c0.8,0.5,1.2,0.4,5.6,0.4c1.6,0,2.8-1.3,2.8-2.8c0-1.6-1.3-2.8-2.8-2.8h-1.7l-1-9.1l3.5-4.9l3.7,6.7
	l4.2,11.1c0.4,1,1.4,1.8,2.7,1.8l4.1-0.1c1.6,0,2.8-1.3,2.8-2.9c0-1.6-1.3-2.8-2.9-2.8l-2.1,0c-3.9-10.3-3.6-9.5-3.7-9.7
	c-2.6-4.8-2.6-4.8-2.6-4.8l4.1-12.3c2.5-3.9,6.6-10,8.6-12.4c2.3-0.1,7.4-0.5,10.9-1.7C93.4,43,95,36.8,95,32
	C95,30.5,93.7,29.2,92.2,29.2z"/>
</svg>
