<svg xmlns="http://www.w3.org/2000/svg" fill="none" viewBox="-8.74 0.37 96.05 85.82">
<g clip-path="url(#clip0_1260_312)">
<rect y="0.365967" width="76" height="76" rx="38" fill="#FAFBFB"/>
<path d="M23.027 65.5856C26.0017 63.7067 25.4112 59.1647 22.0614 58.0885C12.7788 55.1229 -1.40319 51.3343 -4.75332 54.6432C-4.75332 54.6432 -9.96678 58.9454 -7.83706 68.2018C-7.07249 71.5177 -4.25664 74.0611 -1.06046 74.2976C1.44882 74.4782 4.67505 73.933 9.37524 72.263C14.0754 70.593 18.7286 68.3047 23.0242 65.5837L23.027 65.5856Z" fill="white"/>
<path d="M22.5882 65.165C23.7597 64.395 24.4746 63.0986 24.2729 61.6603C24.1174 60.3402 23.1911 59.1802 21.935 58.7901C19.0281 57.8744 16.057 56.9878 13.0964 56.1945C8.67117 55.0626 4.1672 53.9455 -0.390544 53.9293C-2.50933 53.9752 -4.14821 54.2892 -5.42211 56.1059C-8.23553 59.7552 -8.54545 64.9405 -7.12258 69.2669C-6.18768 71.6039 -4.07908 73.4877 -1.6048 73.8896C0.927493 74.2049 3.4839 73.669 5.93518 72.9698C11.5494 71.4153 18.6842 67.7243 22.5891 65.1697L22.5882 65.165ZM23.4607 66.0009C17.9346 69.5617 5.44325 75.4735 -1.7099 74.5658C-4.41869 74.1032 -6.74752 72.1073 -7.79723 69.543C-8.85966 66.4663 -9.03357 63.0902 -8.2673 59.9174C-7.77857 58.0707 -6.92866 56.2949 -5.67433 54.8577C-4.98778 53.9962 -3.92454 53.3515 -2.82931 53.118C3.60895 51.7106 15.901 55.3848 22.3671 57.4567C26.0563 58.6665 26.7421 63.93 23.4551 65.9971L23.4607 66.0009Z" fill="#221F1F"/>
<path d="M55.5912 61.4067C52.5882 59.5494 53.1029 55.0003 56.4328 53.9018C65.6616 50.8676 79.7725 46.971 83.1755 50.2568C83.1755 50.2568 88.4579 54.5227 86.4817 63.7964C85.7709 67.1191 82.9988 69.6862 79.8084 69.945C77.304 70.1475 74.0717 69.625 69.345 67.989C64.6183 66.353 59.9314 64.0965 55.5917 61.4115L55.5891 61.4093L55.5912 61.4067Z" fill="white"/>
<path d="M55.288 61.7057C53.8515 60.825 53.0105 59.0704 53.1934 57.3763C53.3317 55.6359 54.5485 54.0325 56.1847 53.4921C59.1316 52.498 62.0741 51.6054 65.0624 50.7952C69.439 49.7237 79.9179 46.8606 83.4389 49.9207C87.4961 53.7553 88.1006 60.0468 86.4639 65.1423C85.6521 67.1908 84.052 68.9202 82.0272 69.7533C79.0341 70.9326 75.6043 70.1039 72.6079 69.3757C66.6332 67.7369 60.2175 64.8109 55.2859 61.7083L55.288 61.7057ZM55.8914 61.1105C60.255 63.8462 67.031 67.1711 72.7839 68.694C77.9371 70.0866 83.2723 70.7367 85.7745 64.8666C87.1259 60.5236 86.7623 55.3339 83.9154 51.6766C82.6194 49.843 80.9321 49.5067 78.8041 49.4633C74.23 49.465 69.731 50.6182 65.3086 51.7567C62.3488 52.5425 59.3897 53.4342 56.4912 54.39C55.1683 54.816 54.2018 56.0676 54.0737 57.4698C53.9009 58.9486 54.6592 60.3354 55.8888 61.1083L55.8914 61.1105Z" fill="#221F1F"/>
<path d="M19.1692 73.0561L17.37 42.813C17.3568 42.6123 17.3403 42.4115 17.3205 42.2106C17.1156 40.0963 16.2032 23.2911 38.55 21.8527C38.55 21.8527 59.376 20.8987 60.1593 40.3192L60.414 71.1545C60.4753 72.5887 60.2485 73.9587 59.7849 75.2325C59.0013 77.3811 57.5526 79.1778 55.7612 80.6541C54.8416 81.4101 53.8457 82.0549 52.8059 82.6168C49.5471 84.3791 45.8994 85.3205 42.1946 85.4897L38.9876 85.635C36.4754 85.7497 33.9589 85.5012 31.5322 84.8655C29.8924 84.4364 28.3702 83.9841 26.9389 83.3076C23.9056 81.8775 21.4566 79.8395 20.1572 77.0533C19.5852 75.8292 19.2374 74.4837 19.176 73.0529L19.1693 73.0527L19.1692 73.0561Z" fill="white"/>
<path d="M18.9994 73.3456C18.1575 63.4893 17.1609 51.9039 16.514 42.0984C15.8936 32.0019 21.7998 24.6795 31.2608 22.1849C33.5713 21.5305 35.9795 21.2358 38.3542 21.0452C41.7532 20.9437 45.1118 21.5398 48.326 22.6537C56.4201 25.5286 60.8291 32.1128 60.9343 40.78C61.0087 48.9846 61.029 61.1273 61.0755 69.3649C61.0963 71.3033 61.185 73.4002 60.4715 75.2525C58.3885 80.9879 52.5244 84.1309 46.9833 85.4287C44.2988 86.0975 41.2379 86.0679 38.492 86.1883C32.319 86.2564 24.2098 84.1174 20.6073 78.6331C19.5359 76.9881 18.9117 75.0427 18.8486 73.0723L19.3189 73.3666C19.2372 73.4147 19.0808 73.406 19.0026 73.3524L18.9994 73.3456ZM19.3428 72.7634C19.2714 72.7066 19.1182 72.698 19.04 72.7429L19.5103 73.0372C19.979 81.1195 28.8635 84.4896 35.7085 85.0619C37.3057 85.2724 39.6355 85.0293 41.2581 84.9827C48.0046 84.8221 56.7273 81.7729 59.2422 74.817C59.8841 73.1082 59.7555 71.2034 59.7268 69.4005C59.614 61.1504 59.4792 49.0378 59.3953 40.8192C59.2776 32.8133 55.2888 26.8204 47.7871 24.1794C44.8101 23.1517 41.5871 22.5906 38.4384 22.6871C36.1771 22.8782 33.8524 23.169 31.6798 23.7907C22.9058 26.0949 17.4655 32.9581 18.1244 42.3127C18.6666 51.7651 19.0102 63.2299 19.3395 72.7633L19.3428 72.7634Z" fill="#221F1F"/>
<path d="M38.0967 22.792C38.5807 22.7688 38.8532 22.2194 38.5863 21.8131C36.0484 17.9404 25.6534 3.71254 15.4212 13.0225C4.99521 22.5071 24.4609 16.7366 31.0418 17.2635C33.0691 17.4268 34.9775 18.3558 36.2929 19.9325C36.8579 20.6121 37.3167 21.4024 37.4626 22.2763C37.5155 22.5885 37.7886 22.8088 38.0989 22.7971L38.0991 22.7921L38.0967 22.792Z" fill="white"/>
<path d="M37.852 22.7934C37.866 22.7393 37.9262 22.6197 38.0303 22.5735C38.1221 22.5295 38.1607 22.5432 38.2327 22.506C38.4562 22.3919 38.5078 22.0957 38.3435 21.9039L38.2738 21.7997C37.0636 20.0007 35.7162 18.2889 34.2398 16.7092C29.8066 11.8782 23.2782 7.73065 17.1235 12.1045C15.592 13.2218 14.0163 14.6305 13.0238 16.2602C12.8094 16.6775 12.6104 17.1474 12.9002 17.5248C13.1285 17.7709 13.4467 17.886 13.8096 17.9803C14.7466 18.1984 15.7231 18.1894 16.6904 18.1603C20.6497 17.9896 24.6098 17.2182 28.5865 16.9662C29.9362 16.888 31.3283 16.8584 32.6451 17.2458C34.9286 17.912 37.1283 19.6777 37.6847 22.1149L37.7072 22.2423C37.7353 22.422 37.9064 22.5569 38.0847 22.5506C38.0849 22.5456 37.8418 22.8055 37.8498 22.7859L38.0827 23.0421C38.0437 23.0408 37.971 23.0259 37.9169 22.9645C37.8604 22.9054 37.8482 22.833 37.8494 22.7958L37.852 22.7934ZM38.3402 22.7902C38.3414 22.753 38.3292 22.6806 38.2751 22.6216C38.2186 22.5626 38.1484 22.5453 38.1118 22.544C38.1116 22.549 38.3521 22.798 38.3445 22.8052L38.3364 23.0433L38.1094 23.0455C37.7574 23.0633 37.4061 22.8428 37.2735 22.5081C36.8071 20.1509 34.6881 18.4525 32.4885 17.8314C31.256 17.4766 29.9442 17.5139 28.6285 17.5958C24.6413 17.8722 20.7367 18.6605 16.7205 18.854C14.8453 18.954 10.8472 18.9049 12.4274 15.9271C12.7787 15.2861 13.231 14.7602 13.6924 14.252C14.6343 13.2512 15.6275 12.3217 16.7568 11.5483C20.3607 8.9845 24.6206 9.08479 28.3974 11.1921C32.6841 13.59 35.9717 17.4509 38.696 21.5137L38.7656 21.6203L38.8003 21.6737C39.1421 22.1719 38.8308 22.9285 38.2394 23.0251C38.2271 23.0296 38.2715 23.0163 38.2916 22.9971C38.3516 22.9544 38.3726 22.8409 38.345 22.7903L38.3402 22.7902Z" fill="#221F1F"/>
<path d="M25.389 25.8504C25.389 25.8504 38.1746 27.4971 50.4743 24.702L25.389 25.8504Z" fill="white"/>
<path d="M24.6388 25.9571C24.6388 25.9571 38.7283 27.6142 51.028 24.8191" stroke="#221F1F" stroke-width="0.676267" stroke-miterlimit="10"/>
<path d="M17.2494 39.6056C17.2494 39.6056 38.705 33.5793 59.8023 37.7859L17.2494 39.6056Z" fill="white"/>
<path d="M17.1606 39.2767C19.7003 38.2568 22.3665 37.8318 25.0222 37.3215C29.4281 36.545 33.9495 36.0033 38.4109 35.7547C42.8325 35.4979 47.4821 35.5985 51.8983 35.9897C52.7487 36.0933 55.0941 36.37 55.9244 36.4763C57.2569 36.7218 58.5811 37.0146 59.8671 37.4521L59.7377 38.1162C57.9665 38.1204 56.1805 37.7711 54.4251 37.6028C45.6246 36.5669 36.6298 36.9293 27.8601 38.1239C26.338 38.3538 24.0947 38.7016 22.5935 39.0001C20.8476 39.3377 19.1042 39.6992 17.3384 39.9343L17.1605 39.2801L17.1606 39.2767Z" fill="#221F1F"/>
<path d="M18.5469 60.3974C22.3824 59.1332 37.1159 55.3928 61.2793 57.9085L18.5469 60.3974Z" fill="white"/>
<path d="M18.4452 60.0751C25.1458 57.8327 32.2311 57.0286 39.2478 56.6702C42.7616 56.5284 46.281 56.5159 49.7917 56.6591C53.2994 56.7955 56.8238 56.929 60.2726 57.7149L60.2029 58.3912C56.6929 58.5195 53.2367 58.0489 49.7411 57.9503C42.7832 57.6592 35.79 57.8149 28.8759 58.6858C25.4251 59.1317 21.9822 59.7407 18.6499 60.7234L18.4451 60.0785L18.4452 60.0751Z" fill="#221F1F"/>
<path d="M51.7984 57.5725C52.3713 50.0516 52.19 36.9532 52.19 36.9532C52.19 36.9532 34.4593 34.9686 25.0066 38.4952C25.0066 38.4952 25.4648 51.5893 27.1083 58.7716" stroke="#221F1F" stroke-width="0.676267" stroke-miterlimit="10"/>
<path d="M25.1352 38.323C24.8191 40.7522 26.335 54.914 27.1054 58.2489C33.5005 56.8512 46.0092 56.6389 51.671 56.8893C52.1849 52.7667 51.9627 42.2427 51.858 37.2812L51.852 37.0672C41.3892 35.2825 29.7675 37.2658 25.1352 38.323Z" fill="#5BC2C7"/>
<path d="M38.3325 48.5218L38.3381 44.7315C38.3422 44.6094 38.4683 44.5323 38.5731 44.5901L42.1134 46.6076C42.2247 46.6691 42.2191 46.8352 42.1037 46.8923L38.5578 48.6652C38.4526 48.7159 38.3318 48.6406 38.3292 48.5217L38.3325 48.5218Z" fill="white" stroke="black" stroke-width="0.162304"/>
<g clip-path="url(#clip1_1260_312)">
<path d="M18.1932 28.9513C18.3214 30.8295 18.8855 35.1158 21.3599 36.5987C21.3599 36.5987 21.5735 34.4619 22.6419 33.3936C22.6419 33.3936 23.7637 41.2524 33.364 41.7353C35.0947 41.8229 36.7955 41.1136 37.8853 39.7653C38.334 39.2097 38.6652 38.5666 38.6652 37.8807C38.6652 37.8807 38.8318 39.9896 40.5797 41.2354C41.0775 41.59 41.6566 41.8123 42.2591 41.9255C44.4877 42.3486 51.415 42.8315 54.2632 33.3936C54.2632 33.3936 54.9042 35.744 54.2632 36.9192C54.2632 36.9192 57.1264 37.0752 58.9191 29.4962C58.9704 29.2804 59.2781 29.2847 59.3251 29.5005C60.1883 33.4897 62.8998 50.3506 51.6992 67.1538C51.6992 67.1538 52.7675 61.812 51.9128 60.3163C51.9128 60.3163 50.6308 58.1795 44.4343 55.8292C44.4343 55.8292 41.4728 54.0877 40.2698 51.389C39.9557 50.6882 39.319 50.1754 38.5583 50.0579C38.5455 50.0579 38.5348 50.0536 38.522 50.0515C37.5541 49.9104 36.6096 50.419 36.1695 51.2908C35.5626 52.4959 34.1246 54.8035 31.4003 56.468C31.4003 56.468 24.5628 57.5364 24.9902 61.8098C24.9902 61.8098 24.7637 65.6559 25.1974 67.1516C25.1974 67.1516 12.0523 53.7907 17.9368 28.9278C17.971 28.7847 18.1804 28.8018 18.189 28.9471L18.1932 28.9513Z" fill="#FACCCC"/>
<path d="M18.6635 28.9194C18.8814 31.4472 19.3194 34.8317 21.407 36.524L21.2724 36.5924C21.4262 35.9984 21.3878 35.4022 21.4668 34.7911C21.5395 34.1245 21.6848 33.445 22.1378 32.8916L22.9048 31.9386L23.3514 33.2954C24.4604 37.7868 27.8492 40.6415 32.3897 41.3231C33.2551 41.462 34.1504 41.5538 35.0179 41.3509C36.6397 40.9919 38.4538 39.6607 38.5606 37.883L38.7785 37.8744C38.973 39.6415 40.2358 41.3637 42.0413 41.7034C43.8127 42.0346 45.693 41.8743 47.334 41.2162C49.8339 40.2333 51.6117 38.0881 52.6736 35.6864C53.336 34.3189 53.8446 32.3446 54.3146 30.8873L54.9343 33.2121C55.2826 34.477 54.9343 35.8296 54.3638 36.9727L54.2719 36.8082C56.4364 36.5432 57.5368 33.4386 58.0646 31.6181C58.2377 31.0839 58.509 29.9301 58.65 29.3916C58.7782 28.9151 59.5411 28.9258 59.6201 29.4685C60.6094 34.3296 60.7355 39.3487 60.2184 44.276C59.3594 52.5921 56.2997 60.6262 51.5625 67.4958C51.8339 66.0962 52.0518 64.6774 52.1416 63.2544C52.1736 62.3035 52.2612 61.2672 51.866 60.3869C51.7057 60.1262 51.4664 59.889 51.2335 59.669C49.2784 57.9147 46.8148 56.8549 44.3981 55.8976C42.7742 54.8635 41.2956 53.5109 40.3854 51.7951L40.129 51.2802C39.7016 50.4469 38.7123 49.9554 37.7914 50.152C37.0414 50.2888 36.4431 50.8358 36.1397 51.5238C35.7786 52.2075 35.3534 52.855 34.879 53.4639C33.9239 54.684 32.7573 55.7417 31.4304 56.5493C29.9432 56.8228 28.4582 57.31 27.1719 58.1156C25.8898 58.8955 24.877 60.263 25.0736 61.8206C25.0181 63.5834 24.8941 65.4018 25.2787 67.1347L25.3535 67.4359C24.0736 66.1496 22.9967 64.686 22.0288 63.1582C16.4968 54.4297 15.0268 43.603 16.5823 33.5005C16.8131 32.0027 17.1314 30.4151 17.4605 28.9344C17.5438 28.1929 18.5801 28.1673 18.6613 28.9194L18.6635 28.9194ZM17.7254 28.9835C17.7532 29.3596 18.2874 29.4151 18.3942 29.0562C18.4006 29.0327 18.3964 29.0433 18.3942 29.0519L18.39 29.0711L18.3729 29.148L18.3387 29.3019C18.266 29.6758 18.0139 30.7591 17.9348 31.1523C15.7618 41.8337 16.7575 53.4447 22.3472 62.9638C23.2061 64.4125 24.1484 65.8334 25.2617 67.0962L25.1228 67.1774C24.8963 66.2949 24.8813 65.389 24.8578 64.4873C24.845 63.5941 24.8664 62.701 24.9134 61.8078C24.892 61.4766 24.892 61.0279 24.9796 60.6561C25.4518 58.6946 27.4091 57.622 29.1676 56.9831C29.8919 56.7267 30.6334 56.5258 31.3919 56.3912C32.5543 55.6712 33.8555 54.5472 34.7572 53.3635C35.2273 52.7631 35.6461 52.1199 36.0051 51.4469C36.3213 50.7246 36.9752 50.137 37.7636 49.996C38.7508 49.7866 39.8084 50.3123 40.2657 51.2054L40.5221 51.7225C41.4003 53.3977 42.9281 54.778 44.4644 55.7588C46.8959 56.7203 49.3681 57.7929 51.3361 59.56C51.5754 59.7886 51.8125 60.0172 51.9963 60.3142C52.4151 61.2373 52.3211 62.28 52.289 63.2608C52.2057 64.5749 52.0155 65.8761 51.7719 67.1688L51.6416 67.1154L51.6459 67.109C58.8359 56.231 61.5709 42.1649 59.0817 29.6181C59.1329 29.6523 59.1906 29.6138 59.2056 29.569C58.8338 31.0625 58.3124 32.5476 57.5838 33.9065C56.8531 35.1501 55.8296 36.821 54.2591 37.0325L54.0817 37.0475C54.4172 36.4791 54.3104 35.7868 54.0967 35.1885C53.9129 34.6629 53.7142 34.1074 53.5988 33.5775L54.93 33.5946C53.8681 37.2483 51.4044 40.8509 47.584 41.9384C45.7507 42.4833 43.8062 42.4876 41.9601 42.0367C41.0349 41.7974 40.2037 41.2355 39.6204 40.4812C39.0435 39.7269 38.6824 38.8338 38.5606 37.8894L38.7785 37.8808C38.6909 39.7761 36.8341 41.2611 35.1269 41.7718C34.4495 41.9812 33.7231 42.0538 33.0137 42.0132C31.8406 41.9897 30.6804 41.8444 29.5351 41.5389C26.7574 40.8487 24.1912 38.915 22.8749 36.3103C22.4326 35.4215 22.0245 34.4984 21.9348 33.4963L23.1484 33.9001C22.3237 34.5198 21.4818 35.5133 21.4497 36.6073L21.4497 36.7355L21.3151 36.6757C18.6912 35.3552 17.9562 31.6566 17.7254 28.9835Z" fill="black"/>
<path d="M41.5586 49.855C41.5586 49.855 44.6526 45.5731 50.208 43.4363C50.208 43.4363 56.6182 40.6586 56.6182 37.8809C56.6182 37.8809 58.1139 47.4961 51.4901 51.3422C51.4901 51.3422 46.5863 49.2204 41.5586 49.855Z" fill="white"/>
<path d="M41.4669 49.9105C41.4498 49.8165 41.5075 49.7375 41.5673 49.6691C42.5588 48.4127 43.7297 47.3059 44.9818 46.3123C46.2874 45.3038 47.6976 44.4234 49.204 43.7461C49.9668 43.432 50.7125 43.1136 51.439 42.7269C53.1462 41.7953 56.3876 40.0197 56.5116 37.8872L56.7231 37.8701C57.5607 43.0175 56.4368 49.355 51.5095 52.1092C49.0095 50.887 46.2382 50.137 43.4562 49.9554C42.8301 49.9276 42.0802 49.9469 41.4669 49.9127L41.4669 49.9105ZM41.6507 49.8016C41.9648 49.7375 42.2019 49.652 42.4947 49.6093C42.687 49.59 43.2511 49.5452 43.4541 49.5259C45.8216 49.4063 48.2019 49.714 50.4903 50.3336C50.9134 50.449 51.3172 50.5686 51.7574 50.7246L51.1484 50.761C55.6718 48.3742 56.8983 42.6414 56.5116 37.9L56.7231 37.8829C56.6099 40.1308 53.3129 41.9427 51.5351 42.9128C50.8108 43.2995 50.0458 43.6286 49.2895 43.9384C47.8002 44.6093 46.4049 45.4811 45.1122 46.479C43.875 47.464 42.7148 48.5559 41.7361 49.7994L41.6891 49.8593C41.687 49.8635 41.6785 49.8721 41.6806 49.8699C41.6955 49.8464 41.6742 49.8101 41.6507 49.8016Z" fill="black"/>
<path d="M35.3294 49.4725C35.3294 49.4725 32.2354 45.1905 26.6799 43.0538C26.6799 43.0538 20.2698 40.276 20.2698 37.4983C20.2698 37.4983 18.7741 47.1135 25.3979 50.9596C25.3979 50.9596 30.3017 48.8379 35.3294 49.4725Z" fill="white"/>
<path d="M35.2381 49.4169C35.2125 49.4255 35.1954 49.4639 35.2082 49.4853C35.2082 49.4874 35.2018 49.4767 35.1997 49.4746L35.1527 49.4148C34.1719 48.1712 33.0117 47.0793 31.7766 46.0943C30.4839 45.0965 29.0886 44.2247 27.5994 43.5538C26.843 43.2439 26.078 42.9149 25.3537 42.5281C23.5738 41.5581 20.2768 39.7419 20.1657 37.4983L20.3772 37.5154C20.014 42.2397 21.2576 47.9575 25.7767 50.3122L25.1015 50.2716C25.546 50.1156 25.9519 50.0002 26.3771 49.887C28.6741 49.2823 31.063 48.9896 33.4326 49.1285C33.6228 49.1434 34.204 49.2011 34.392 49.2182C34.6847 49.2652 34.9219 49.3528 35.236 49.4191L35.2381 49.4169ZM35.4219 49.5259C34.8108 49.5622 34.0587 49.5494 33.4326 49.5814C30.6463 49.7844 27.875 50.5579 25.3836 51.8058C20.4157 49.0473 19.2982 42.6542 20.1678 37.4812L20.3794 37.4983C20.5012 39.6265 23.7511 41.4106 25.4519 42.338C26.1784 42.7247 26.922 43.0452 27.687 43.3572C29.1933 44.0345 30.6036 44.9149 31.9091 45.9234C33.1591 46.9191 34.3322 48.0238 35.3236 49.2802L35.3706 49.3421L35.3856 49.3614C35.4176 49.3998 35.4326 49.481 35.424 49.5216L35.4219 49.5259Z" fill="black"/>
</g>
</g>
<defs>
<clipPath id="clip0_1260_312">
<rect y="0.365967" width="76" height="76" rx="38" fill="white"/>
</clipPath>
<clipPath id="clip1_1260_312">
<rect width="44.5186" height="39.1298" fill="white" transform="translate(16 28.366)"/>
</clipPath>
</defs>
</svg>