<?xml version="1.0" encoding="utf-8"?>
<!-- Generator: Adobe Illustrator 23.1.1, SVG Export Plug-In . SVG Version: 6.00 Build 0)  -->
<svg version="1.1" id="Layer_1" xmlns="http://www.w3.org/2000/svg" xmlns:xlink="http://www.w3.org/1999/xlink" x="0px" y="0px"
	 viewBox="0 0 100 100" style="enable-background:new 0 0 100 100;" xml:space="preserve">
<path d="M87,36.6h-2.7c-1.3-11.9-11.8-21.1-24-21.1h-9.7C47.6,9.2,41.2,5,34,5c-1.5,0-2.6,1.2-2.6,2.7v8.8
	C16.2,20.1,5.3,33.7,5,49.4v12.2C5.3,79,14.3,89.7,28.7,89.7c0,0,0.1,0,0.1,0C31.3,93,35.1,95,39.2,95h5.3c1.5,0,2.7-1.2,2.7-2.7
	c0-3.3-1.2-6.5-3.5-9c-0.8-0.9-0.8-2.3,0-3.2c2.2-2.5,3.5-5.5,3.5-8.8c0-1.5-1.2-2.7-2.7-2.7h-4.7c-4.4,0-8.3,1.9-10.9,5.2
	c-0.1,0-0.1,0-0.2,0c-0.5,0-1.5-0.1-1.9-0.4c-0.8-0.8-0.8-3.5-0.8-6v-6.7c0-3.4,2.2-6.3,5.3-7.4c0.8-0.3,1.7-0.5,2.6-0.5h7.8h0.1V61
	c0.2,1.3,1.3,2.4,2.6,2.4c7.3,0,13.7-4.3,16.6-10.5h26.4c4.1-0.3,7.4-4,7.4-8.1C95,40.3,91.4,36.6,87,36.6z M71.3,36.6
	c-1.5,0-2.6-1.2-2.6-2.6c0-1.5,1.2-2.6,2.6-2.6c1.5,0,2.6,1.2,2.6,2.6C73.9,35.5,72.7,36.6,71.3,36.6z"/>
</svg>
