<svg xmlns="http://www.w3.org/2000/svg"  viewBox="0 0 24 24" fill="#27A2A8"><path d="M22,13.68C22,16.6,14.31,20,12,20S2,16.6,2,13.68c0-1.05,0.99-2.46,2.37-3.84 c0.18,0.41,0.45,0.8,0.79,1.16c4.22-0.88,5.26-4.28,5.26-4.28s-0.38-0.37-0.95-0.77C10.51,5.36,11.42,5,12,5s1.49,0.36,2.53,0.95 c-0.57,0.4-0.95,0.77-0.95,0.77s1.04,3.4,5.26,4.28c0.34-0.36,0.61-0.75,0.79-1.16C21.01,11.22,22,12.63,22,13.68z" opacity=".3"/><path d="M12,21c-2.464,0-11-3.544-11-7.315c0-1.248,0.896-2.779,2.661-4.551l1.416,1.411C3.546,12.083,3,13.175,3,13.685 C3,15.645,9.639,19,12,19s9-3.355,9-5.315c0-0.51-0.546-1.602-2.077-3.14l1.416-1.411C22.104,10.906,23,12.437,23,13.685 C23,17.456,14.464,21,12,21z"/><path d="M14.045,6.817C12.655,6.04,12.098,6,12,6s-0.655,0.04-2.045,0.817L8.979,5.072C10.249,4.361,11.266,4,12,4 s1.751,0.361,3.021,1.072L14.045,6.817z"/><path d="M5.157,12c-0.27,0-0.532-0.109-0.723-0.309c-1.082-1.131-1.59-2.587-1.393-3.994c0.189-1.352,1.004-2.511,2.294-3.264 c2.599-1.52,5.658,1.45,5.788,1.578c0.265,0.261,0.362,0.648,0.253,1.004c-0.05,0.162-1.268,3.971-6.015,4.964 C5.294,11.993,5.226,12,5.157,12z M6.97,6.002c-0.225,0-0.437,0.047-0.625,0.158C5.584,6.604,5.127,7.231,5.022,7.975 c-0.09,0.637,0.093,1.309,0.505,1.903C7.729,9.235,8.778,7.8,9.209,6.999C8.614,6.541,7.725,6.002,6.97,6.002z"/><path d="M18.843,12c-0.068,0-0.137-0.007-0.205-0.021c-4.747-0.993-5.965-4.802-6.015-4.964c-0.109-0.356-0.012-0.743,0.253-1.004 c0.13-0.127,3.186-3.098,5.789-1.578c1.289,0.753,2.104,1.912,2.293,3.264c0.197,1.407-0.311,2.863-1.393,3.994 C19.375,11.891,19.112,12,18.843,12z M14.791,6.999c0.432,0.806,1.48,2.237,3.682,2.879c0.412-0.594,0.595-1.266,0.505-1.903 c-0.104-0.744-0.562-1.371-1.321-1.815C16.829,5.679,15.563,6.405,14.791,6.999z M13.579,6.722h0.01H13.579z"/><path d="M12,17c-3.685,0-6.49-2.116-6.607-2.206l1.215-1.588C6.63,13.223,9.011,15,12,15s5.37-1.777,5.395-1.796l1.213,1.59 C18.49,14.884,15.685,17,12,17z"/><circle cx="7" cy="8" r="1"/><circle cx="17" cy="8" r="1"/></svg>