<svg xmlns="http://www.w3.org/2000/svg"  viewBox="0 0 24 24" fill="#27A2A8" baseProfile="basic"><path d="M19.003,11.01c-0.112,0-0.223-0.005-0.333-0.013c-0.607-0.049-1.323-0.388-1.898-1.024C16.682,9.982,16.593,10,16.5,10 c-0.405,0-0.781-0.106-1.12-0.277c-0.347,0.175-0.675,0.261-1.092,0.261l-0.078-0.001c-0.654-0.016-1.209-0.268-1.606-0.728 c-0.726-0.842-0.66-2.111-0.597-2.622c0.052-0.441,0.15-0.789,0.265-1.098C11.872,5.513,11.503,5.5,11.25,5.5 c-1.361,0-2.371,0.276-3.5,0.75C7.047,5.891,5.132,4.777,3.875,5C3.597,5.049,2.25,7.5,3.787,9.956 c-0.495,0.931-0.776,1.962-0.776,3.048c0,4.01,3.388,5.997,8.797,5.997C18.125,19,20,17.01,20,13c0-0.729-0.149-1.409-0.405-2.053 C19.403,10.979,19.21,11.01,19.003,11.01z" opacity=".3"/><ellipse cx="7" cy="12.992" rx="1" ry=".992"/><circle cx="16" cy="13" r="1"/><ellipse cx="11.51" cy="15.011" rx="1.51" ry=".989"/><path d="M14.879,4.033c0.679,0.179,1.173,0.546,1.535,0.976C16.444,5.008,16.471,5,16.5,5c0.241,0,0.471,0.038,0.691,0.103 c0.065-0.007,0.128-0.027,0.194-0.024c0.018,0.028,0.04,0.069,0.064,0.119c0.155,0.065,0.306,0.14,0.444,0.233 c0.438-0.207,0.963-0.365,1.621-0.411c-0.411-1.463-1.209-1.798-1.553-1.873C16.678,2.865,15.654,3.435,14.879,4.033 C14.879,4.033,14.879,4.033,14.879,4.033z"/><path d="M23,13.992v-2c-0.776,0-1.511,0.002-2.061,0.004c-0.068-0.458-0.2-0.914-0.381-1.37c-0.44,0.244-0.965,0.384-1.555,0.384 c-0.112,0-0.223-0.005-0.333-0.013c-0.05-0.004-0.105-0.022-0.156-0.03c0.341,0.681,0.511,1.335,0.488,1.997 C18.907,15.58,17.971,18,11.808,18c-3.557,0-7.797-0.867-7.797-4.997c0-0.881,0.22-1.742,0.65-2.559 c0.332-0.528,0.796-0.88,0.805-0.886c0.444-0.324,0.543-0.946,0.221-1.393C5.361,7.716,4.736,7.614,4.29,7.939 C4.267,7.956,4.201,8.007,4.121,8.073c-0.156-0.926,0.077-1.712,0.26-2.098C5.222,6.047,6.503,6.724,7.026,7l0.683,0.353 l0.429-0.181C9.097,6.769,9.993,6.5,11.25,6.5c0.201,0,0.477,0.009,0.778,0.024c0.134-0.974,0.452-1.578,0.821-1.955 C12.214,4.524,11.596,4.5,11.25,4.5c-1.216,0-2.243,0.191-3.444,0.65C6.8,4.621,5.09,3.768,3.699,4.016 C3.402,4.068,2.96,4.251,2.53,5.22C2.269,5.808,1.56,7.792,2.655,9.981c-0.041,0.094-0.086,0.186-0.12,0.286 c-0.007,0.021-0.003,0.042-0.008,0.063c-0.212,0.544-0.359,1.1-0.438,1.667c-0.553-0.002-1.3-0.004-2.089-0.004v2 c0.786,0,1.531,0.002,2.082,0.004c0.091,0.694,0.277,1.336,0.56,1.919l-1.703,1.609l1.373,1.453l1.521-1.436 C5.478,19.134,8.191,20,11.808,20c3.486,0,5.955-0.77,7.454-2.325l1.282,1.282l1.414-1.414l-1.569-1.569 c0.256-0.593,0.432-1.251,0.528-1.978C21.467,13.994,22.213,13.992,23,13.992z"/><path d="M19.875,6c-1.051,0-1.664,0.334-2.149,0.673c-0.169-0.249-0.394-0.458-0.678-0.57C16.879,6.037,16.694,6,16.5,6	c-0.193,0-0.375,0.04-0.544,0.106C15.687,5.618,15.284,5.173,14.625,5C14.142,4.873,13.222,4.876,13,6.75	c-0.015,0.125-0.301,2.196,1.234,2.233c0.416,0.01,0.674-0.098,1.183-0.449c0.074,0.078,0.155,0.149,0.244,0.21	C15.901,8.906,16.189,9,16.5,9c0.245,0,0.472-0.064,0.676-0.168c0.435,0.76,1.092,1.129,1.574,1.168	c0.706,0.057,1.49-0.112,1.87-0.756C21.5,7.75,20.512,6,19.875,6z"/></svg>