<?xml version="1.0" encoding="utf-8"?>
<!-- Generator: Adobe Illustrator 23.1.1, SVG Export Plug-In . SVG Version: 6.00 Build 0)  -->
<svg version="1.1" id="Layer_1" xmlns="http://www.w3.org/2000/svg" xmlns:xlink="http://www.w3.org/1999/xlink" x="0px" y="0px"
	 viewBox="0 0 100 100" style="enable-background:new 0 0 100 100;" xml:space="preserve">
<path d="M68.8,25.2c-2-0.5-4.2-0.8-6-1.7c-1.7-0.9-3.3-2.2-4.5-3.7c-1.7-2-2.8-4.5-5.3-5.9c-0.9-0.5-1.4-2-1.7-3.2
	c-0.3-1.2-0.7-1.7-1.9-1.5c-0.7,0.1-1.5,0.1-2.2,0.1c-3.7-0.1-4.7-0.7-6-3.9c-0.2-0.5-0.6-0.6-0.9-0.2c-0.3,0.3-0.7,0.7-1,1
	c-0.3,0.4-1,0.8-1.4,1.1c-0.6,0.5-0.9,1.2-0.6,2.2c0,0.1,0,0.1,0.1,0.2c0,0.1-0.2,0.4-0.6,0.8c-0.2,0.2-0.3,0.3-0.5,0.5
	c-0.3,0.4-0.8,1-1.2,1.3c-0.5,0.4-1,0.8-1.5,1c-1.7,0.5-1.9,1.3-1.5,2.4c0.2,0.5-0.1,1-0.5,1.1c-0.4,0.1-0.7,0.2-0.9,0.4
	c-0.3,0.2-0.6,0.5-0.8,0.9c-0.3,0.4-0.2,0.8,0.3,0.9c0.4,0.1,0.8,0.1,1.2,0.2c0.1,0,0.2-0.2,0.4-0.2c0.2,0,0.5,0.1,0.7,0.1
	c0.4,0.1,0.6,0.4,0.3,0.8c-0.1,0.2-0.3,0.4-0.5,0.6c-1.3,0.8-2.6,1.5-3.9,2.3c-0.4,0.2-0.5,0.8-0.2,1.1c1.6,2,1.6,2.4,0.6,4.4
	c-0.2,0.4,0,0.9,0.4,1.1c1.9,0.9,1.9,2.3,0.8,3.9c-0.3,0.4-0.2,0.9,0.3,1.1c1.5,0.8,1.7,1.3,1.7,4.1c0,0.5,0.4,0.9,0.9,1
	c2,0.3,2.6,1.4,1.5,3.7c-0.1,0.2,0.5,1.2,0.8,1.2c2.5,0.2,2.5,1.5,1.7,3.4c-0.1,0.1-0.1,0.2-0.1,0.4c0,0.2,0.3,0.6,0.8,0.8
	c0.8,0.4,1.7,0.8,1.9,1.4c0.1,0.2,0.1,0.5,0.2,0.7c0.1,0.4-0.2,0.7-0.7,0.6c-0.4-0.1-0.8-0.1-1.2-0.2c-1.4-0.4-2.9-0.7-4.5-1
	c-0.5-0.1-0.8,0.2-0.7,0.7c0.9,4.3,2.3,8.2,5.3,11.8c0.3,0.4,0.7,1.1,0.8,1.5c0,0.1,0.1,0.2,0.1,0.4c0.2,0.5,0,1.1-0.3,1.4
	s-0.5,0.8-0.5,1.3c0.1,1.8-1.7,3.2-1.5,5.1c0,0.5,0.2,1.2,0,1.5c-2,2.2-0.3,4.6-0.2,6.7c0.1,2.3,0.9,4.7,2,6.8
	c3.5,6.9,13.3,9.6,19.5,5.4c0.4-0.3,0.7-0.5,0.7-0.5c0,0,0,0,0.1-0.1c0,0,0.1,0,0.1-0.1c0.2-0.1,0.4-0.3,0.6-0.4
	c0.1-0.1,0.2-0.1,0.2-0.2c0.1-0.1,0.3-0.2,0.3-0.3c0.1-0.1,0.4-0.3,0.6-0.6c0.1-0.2,0.3-0.4,0.4-0.6c3.5-5.6,1.3-12.9-4.5-14.8
	c-2.5-0.8-4.8-0.3-6.7,1.3c-1.7,1.5-2.6,3.6-2,6c0.5,2,2,3,3.8,3.3c1.9,0.4,3.8-0.2,4.9-1.9c0.5-0.7,0.4-2.1,0.1-2.9
	c-0.3-0.6-1.4-1-2.2-1.1c-0.4,0-0.7,0.3-1.1,0.7c-0.3,0.4,0,0.8,0.4,0.9c0.2,0,0.4,0,0.6,0.1c0.5,0,0.9,0.3,1,0.5
	c0.1,0.2-0.3,0.6-0.7,0.8c-0.6,0.3-1.1,0.5-1.7,0.5c-0.6,0-1.6-0.9-1.5-1.3c0.1-0.9,0.6-2.2,1.3-2.5c0.9-0.5,2.6-0.7,3.2-0.2
	c1.1,1,2.2,2.6,2.3,4c0.2,3.3-2.2,5.3-5.6,5.7c-5.4,0.7-9.1-3.6-8.4-9.3c0.4-3.2,2.1-5.8,4.4-7.8c0.2-0.2,0.4-0.4,0.6-0.6
	c0.3-0.3,0.8-0.6,1.1-0.6c0.2,0,0.3-0.1,0.5-0.1c0.2-0.1,0.5-0.2,0.7-0.2c0.4-0.1,1.1-0.4,1.6-0.5c1.3-0.3,2.5-0.5,3.4-1.2
	c0.4-0.3,0.4-1,0.4-1.8c0-0.5,0.2-1.3,0.3-1.7c0.1-0.6,0.2-1.1,0.2-1.7c0-0.5,0.2-1.2,0.5-1.6c1.3-2,2.2-4.3,2.3-6.9
	c0.2-2.6-0.6-5.3-0.9-7.9c-0.1-0.9-0.2-1.9-0.4-2.8c-0.1-0.5-0.3-1-0.5-1.6c-0.4-0.9-0.7-1.9-1.2-2.8c-0.4-0.8-0.7-1.9-1.3-2.1
	c-1.4-0.5-2.2-1.2-1.8-2.8c0.3-1.5-0.5-1.9-1.8-1.8c-1.6,0.1-2.3-0.6-2.4-2.2c0-0.2-0.1-0.4-0.3-0.6c-0.2-0.3-0.4-0.9-0.5-1.3
	c0-0.3-0.1-0.5-0.3-0.8c0-0.1-0.1-0.2-0.1-0.3c-0.1-0.1,0.1-0.3,0.4-0.5c0.2-0.1,0.4-0.2,0.5-0.3c1.5-0.8,2.7-0.8,4.2-0.2
	c2.5,0.9,5.3,1.3,7.8,2.1c1.4,0.4,2.6,1.1,3.7,1.6c0.4,0.2,1.1,0.1,1.5-0.2c1.2-1,2.4-1.9,3.5-2.9C71,26.6,70.5,25.6,68.8,25.2z"/>
</svg>
