<svg xmlns="http://www.w3.org/2000/svg"  viewBox="0 0 24 24" fill="#27A2A8"><path d="M18,10v11h-0.13c-0.44-1.73-2.01-3-3.87-3h-4c-1.86,0-3.43,1.27-3.87,3H6V10c0-3.31,2.69-6,6-6 c1.66,0,3.16,0.67,4.24,1.76C17.33,6.84,18,8.34,18,10z" opacity=".3"/><rect width="2" height="7.765" x="17" y="14.235"/><path d="M16.996,9.8C16.89,7.108,14.695,5,12,5S7.11,7.108,7.004,9.799L5.006,9.721C5.154,5.952,8.227,3,12,3 s6.846,2.952,6.994,6.722L16.996,9.8z"/><rect width="2" height="7.766" x="5" y="14.234"/><path d="M16,16H8c-2.206,0-4-1.794-4-4s1.794-4,4-4h8c2.206,0,4,1.794,4,4S18.206,16,16,16z M8,10c-1.103,0-2,0.897-2,2 s0.897,2,2,2h8c1.103,0,2-0.897,2-2s-0.897-2-2-2H8z"/><rect width="2" height="2" x="8" y="11"/><rect width="2" height="2" x="14" y="11"/><rect width="2" height="4" x="11"/><path d="M14,5h-4V4c0-1.105,0.895-2,2-2h0c1.105,0,2,0.895,2,2V5z"/><path d="M19,22h-2c0-1.654-1.346-3-3-3h-4c-1.654,0-3,1.346-3,3H5c0-2.757,2.243-5,5-5h4C16.757,17,19,19.243,19,22z"/></svg>