<svg xmlns="http://www.w3.org/2000/svg" fill="none" viewBox="-13.35 0.52 97.48 91.18">
<g clip-path="url(#clip0_1260_750)">
<rect y="0.522217" width="76" height="76" rx="38" fill="#FAFBFB"/>
<path d="M48.4147 27.8514C52.8822 25.121 56.2925 20.7321 57.6697 15.4739L50.7512 17.2403L46.0693 12.2968C45.1077 18.0053 41.6077 24.6771 38.5389 27.9381C38.1693 27.9347 37.8008 27.949 37.4323 27.9653C40.6047 24.8473 44.5571 17.2687 45.2716 11.3316L45.3859 10.3666L51.1591 16.4618L58.8482 14.498L58.7256 15.0197C57.4934 20.2929 54.2643 24.769 49.9427 27.7263C49.4337 27.7569 48.9254 27.7992 48.4119 27.8516L48.4147 27.8514ZM26.3589 13.4807L22.2812 18.9502L15.2093 18.0242C17.1852 23.083 21.0794 27.0331 25.8343 29.2077C25.3183 29.2171 24.8058 29.2361 24.2968 29.2667C19.6603 26.8474 15.9388 22.7888 14.1054 17.6998L13.9232 17.1963L21.7861 18.226L26.8143 11.4821L27.0394 12.4267C28.4326 18.2352 33.2309 25.2843 36.7448 28.0026C36.3769 28.0286 36.0096 28.0644 35.6429 28.11C32.2153 25.2373 27.971 19.0326 26.356 13.4809L26.3589 13.4807Z" fill="black" stroke="black" stroke-width="0.191377" stroke-miterlimit="10"/>
<path d="M14.5971 17.308C15.9222 22.2583 22.0492 27.3394 24.9484 29.2611L30.1197 28.9505L35.2332 27.6453C32.8517 26.3512 28.2063 17.4886 26.1797 13.2191L22.3084 18.5414L14.5971 17.308Z" fill="#A2ABCB" stroke="black" stroke-width="0.191377" stroke-linecap="round"/>
<path d="M58.2381 14.962C57.4897 20.025 51.9871 25.7963 49.3279 28.0492L44.1561 28.3648L38.9276 27.6884C41.1445 26.1195 44.742 16.7811 46.2651 12.3078L50.7206 17.1131L58.2381 14.962Z" fill="#A2ABCB"/>
<path d="M58.1511 15.0445C57.9506 15.6222 57.8455 16.1542 57.6535 16.7294C57.0479 18.4906 56.058 20.1877 54.8886 21.822C54.1032 22.9112 53.2327 23.9738 52.2883 25.0051C51.3411 26.0365 50.3288 27.04 49.2212 27.9896L49.3257 27.9514C49.3655 27.943 43.9987 28.2765 44.1915 28.2687L38.963 27.5923L39.0301 27.7574C39.4553 27.5304 39.7701 27.2364 40.0475 26.9447C40.8739 26.068 41.4323 25.0941 41.9246 24.1243C42.5833 22.8357 43.1634 21.536 43.697 20.2292C44.499 18.2708 45.208 16.3002 45.8211 14.3156C46.0283 13.6539 46.2298 12.9925 46.4052 12.3287L46.1421 12.3667L50.5976 17.1719L50.6591 17.2379C53.1642 16.5255 55.6364 15.7913 58.1482 15.0447L58.1511 15.0445ZM58.3292 14.8823C55.7944 15.5805 53.2172 16.2933 50.6728 17.024L50.8449 17.0593L46.3894 12.254L46.208 12.058C46.2099 12.1415 45.3709 14.1081 45.324 14.2444C43.7202 18.0635 42.0737 22.0923 39.9884 25.8114C39.6016 26.4582 39.3017 27.2132 38.6611 27.758L38.8963 27.7875C38.9166 27.7902 44.1248 28.4639 44.1451 28.4667C44.1601 28.4757 49.3193 28.1429 49.337 28.1498L49.4002 28.146C53.3793 24.6717 57.8881 19.2676 58.3292 14.8823Z" fill="black"/>
<path d="M53.8601 62.5623C52.2119 59.4268 54.9576 55.7716 58.3832 56.5283C67.8722 58.6343 82.0049 62.4941 83.275 67.0646C83.275 67.0646 85.6687 73.4406 79.2725 80.418C76.9786 82.9166 73.2905 83.7101 70.41 82.3015C68.1492 81.1951 65.628 79.0921 62.3823 75.2657C59.1367 71.4393 56.2394 67.0987 53.8581 62.5667L53.8569 62.5635L53.8601 62.5623Z" fill="white"/>
<path d="M53.4486 62.6649C52.6562 61.1717 52.8194 59.2303 53.8343 57.8646C54.8341 56.4362 56.6941 55.6774 58.3777 56.0487C61.4204 56.6994 64.4079 57.4353 67.3932 58.2656C71.7071 59.5808 82.1865 62.4734 83.6725 66.9098C85.2285 72.2876 82.5656 78.0158 78.5767 81.5679C76.8405 82.9172 74.5864 83.5885 72.4198 83.2707C69.2437 82.7558 66.7072 80.2881 64.4934 78.1286C60.1737 73.6616 56.1254 67.8604 53.4454 62.6661L53.4486 62.6649ZM54.2698 62.4608C56.6459 67.0486 60.8029 73.3777 64.9901 77.6314C68.7264 81.4662 72.9952 84.7545 78.1221 80.9778C81.4844 77.928 83.7972 73.2719 83.1945 68.6659C83.0055 66.4237 81.7216 65.2712 79.9097 64.1457C75.9668 61.808 71.5061 60.5005 67.1188 59.2197C64.1704 58.3829 61.169 57.6378 58.1874 56.9788C56.8319 56.6692 55.3656 57.2531 54.5456 58.3953C53.6483 59.5807 53.6001 61.163 54.2686 62.4576L54.2698 62.4608Z" fill="#221F1F"/>
<mask id="mask0_1260_750" style="mask-type:luminance" maskUnits="userSpaceOnUse" x="-14" y="51" width="40" height="41">
<path d="M10.4369 51.4878L-13.3545 76.4275L2.11893 91.698L25.9103 66.7583L10.4369 51.4878Z" fill="white"/>
</mask>
<g mask="url(#mask0_1260_750)">
<path d="M22.5322 65.8529C23.4149 62.4011 19.9082 59.5655 16.7507 61.166C8.01205 65.613 -4.83564 72.9389 -5.02115 77.6808C-5.02115 77.6808 -5.88403 84.4534 1.93383 89.5765C4.73561 91.4105 8.50062 91.2391 10.9776 89.1458C12.9189 87.4988 14.8879 84.8243 17.1628 80.3006C19.4378 75.7769 21.2596 70.8437 22.5289 65.8534L22.5322 65.8529Z" fill="white"/>
<path d="M21.9277 65.8621C22.255 64.4811 21.8944 63.0464 20.7733 62.1589C19.7659 61.3233 18.3081 61.1481 17.1332 61.7578C14.4054 63.1598 11.651 64.628 8.96725 66.1556C4.99239 68.4775 0.970521 70.8658 -2.34412 74.0807C-3.84881 75.6136 -4.82387 76.9987 -4.51588 79.2019C-4.08162 83.8078 -0.791605 87.7416 3.17228 89.8335C5.434 90.8458 8.23926 90.7025 10.3052 89.2388C12.3544 87.672 13.8442 85.4783 15.1471 83.2422C18.1628 78.1542 20.8327 70.4592 21.9316 65.8648L21.9277 65.8621ZM23.1267 65.8432C21.5347 72.306 16.4875 85.3839 10.6873 89.7976C8.41033 91.3839 5.36939 91.6027 2.87042 90.509C0.0148674 89.0571 -2.39957 86.7617 -3.99474 83.9465C-4.89219 82.2776 -5.47976 80.4039 -5.54472 78.4864C-5.63106 77.3832 -5.29736 76.1687 -4.66173 75.2261C-0.948916 69.6601 10.4513 63.5902 16.5427 60.4968C20.0368 58.7518 24.1015 62.0367 23.1201 65.8444L23.1267 65.8432Z" fill="#221F1F"/>
</g>
<path d="M20.0427 76.8923L17.2158 46.7279C17.1958 46.5278 17.1725 46.3277 17.1458 46.1276C16.8691 44.0214 15.3857 27.257 37.6706 25.0593C37.6706 25.0593 58.4521 23.3974 59.8955 42.7801L61.1989 73.5889C61.3089 75.0201 61.1289 76.3971 60.7089 77.6859C59.9988 79.8599 58.6121 81.7049 56.872 83.2413C55.9786 84.0281 55.0052 84.7064 53.9851 85.3033C50.7882 87.1755 47.1746 88.2404 43.4777 88.5355L40.2774 88.7898C37.7706 88.9899 35.2471 88.8271 32.8002 88.2743C31.1468 87.9012 29.61 87.501 28.1566 86.8736C25.0764 85.5475 22.5595 83.594 21.1661 80.8536C20.5527 79.6496 20.1593 78.3167 20.0493 76.8889H20.0427V76.8923Z" fill="white"/>
<path d="M19.8828 77.1872C18.706 67.3653 17.3159 55.8205 16.3358 46.0427C15.3724 35.9732 21.0262 28.4541 30.3968 25.6391C32.6837 24.9066 35.0805 24.5301 37.4473 24.2588C40.8409 24.0417 44.2178 24.5233 47.4681 25.5272C55.6553 28.1251 60.2856 34.5555 60.6857 43.2141C61.039 51.4115 61.4724 63.5465 61.7991 71.7777C61.8858 73.7143 62.0458 75.8069 61.3957 77.6824C59.5089 83.4854 53.7552 86.826 48.2614 88.3115C45.6013 89.0712 42.541 89.1458 39.8008 89.3595C33.6337 89.6376 25.4565 87.7757 21.6696 82.417C20.5428 80.8094 19.8528 78.8864 19.7227 76.9193L20.2028 77.1974C20.1228 77.2483 19.9661 77.2449 19.8861 77.194L19.8828 77.1872ZM20.2061 76.5937C20.1328 76.5395 19.9794 76.5361 19.9028 76.5836L20.3828 76.8617C21.1262 84.9234 30.1202 87.9893 36.9806 88.3285C38.5841 88.4845 40.9043 88.1623 42.5244 88.0605C49.2615 87.6705 57.8755 84.3265 60.1523 77.289C60.7357 75.5593 60.5423 73.66 60.4523 71.8591C60.059 63.6177 59.5122 51.5166 59.1489 43.3057C58.7589 35.3084 54.5686 29.4546 46.9814 27.0704C43.9711 26.1445 40.7309 25.6934 37.5874 25.8969C35.3339 26.1648 33.0204 26.5345 30.8702 27.2298C22.1796 29.8311 16.9759 36.8753 17.9526 46.2021C18.816 55.6306 19.5494 67.077 20.2028 76.5937H20.2061Z" fill="#221F1F"/>
<path d="M37.1238 24.4364C37.6396 24.394 37.9106 23.7977 37.611 23.3736C34.7609 19.3315 23.1468 4.52041 12.5618 14.8309C1.77625 25.335 22.347 18.4675 29.3915 18.7908C31.5617 18.8915 33.6328 19.8139 35.0943 21.4493C35.7222 22.1543 36.2406 22.9813 36.4282 23.909C36.4959 24.2403 36.7955 24.4656 37.1264 24.4417V24.4364H37.1238Z" fill="white"/>
<path d="M36.8632 24.4471C36.8762 24.3888 36.9361 24.2589 37.0456 24.2059C37.142 24.1555 37.1836 24.1688 37.2592 24.1264C37.4937 23.9965 37.538 23.6784 37.3556 23.4797L37.2774 23.371C35.9201 21.4944 34.4195 19.7159 32.786 18.0832C27.8778 13.087 20.7578 8.89648 14.3463 13.7893C12.7519 15.0377 11.1211 16.5989 10.1207 18.3747C9.90705 18.828 9.71165 19.3369 10.0347 19.7292C10.2874 19.9836 10.6313 20.0949 11.0221 20.1824C12.0303 20.3812 13.0724 20.3361 14.104 20.2699C18.3245 19.9439 22.5241 18.9764 26.7602 18.5629C28.1983 18.4304 29.6832 18.3482 31.1031 18.714C33.565 19.3422 35.9774 21.1472 36.66 23.7288L36.6887 23.864C36.7251 24.0548 36.9127 24.1926 37.1029 24.1794C37.1029 24.1741 36.8528 24.4603 36.8606 24.4391L37.1185 24.7042C37.0768 24.7042 36.9987 24.6909 36.9387 24.6273C36.8762 24.5664 36.8606 24.4895 36.8606 24.4497L36.8632 24.4471ZM37.3842 24.4259C37.3842 24.3861 37.3686 24.3093 37.3087 24.2483C37.2462 24.1873 37.1706 24.1714 37.1315 24.1714C37.1315 24.1767 37.3973 24.4338 37.3895 24.4418V24.6962L37.1472 24.7068C36.772 24.7387 36.389 24.516 36.2353 24.1635C35.6518 21.664 33.3279 19.928 30.9572 19.3448C29.6285 19.0109 28.2295 19.0983 26.8279 19.2335C22.5814 19.6735 18.4417 20.6568 14.1614 21.0094C12.1632 21.1843 7.89321 21.2771 9.47197 18.0408C9.82368 17.3437 10.2874 16.7659 10.7616 16.2066C11.7307 15.104 12.7572 14.0756 13.9347 13.2089C17.6888 10.341 22.2401 10.2933 26.3486 12.4058C31.0119 14.8098 34.6618 18.8121 37.7177 23.0503L37.7959 23.1616L37.8349 23.2173C38.2179 23.7368 37.9131 24.5558 37.2852 24.6803C37.2722 24.6856 37.3191 24.6697 37.34 24.6485C37.4025 24.6008 37.4207 24.4789 37.3895 24.4259H37.3842Z" fill="#221F1F"/>
<path d="M24.6523 29.502C24.6523 29.502 37.4866 30.7128 49.6841 27.501L24.6523 29.502Z" fill="white"/>
<path d="M23.9062 29.6343C23.9062 29.6343 38.0439 30.8112 50.2415 27.5994" stroke="#221F1F" stroke-width="0.652302" stroke-miterlimit="10"/>
<path d="M16.9854 43.526C16.9854 43.526 38.2235 36.7734 59.4517 40.26L16.9854 43.526Z" fill="white"/>
<path d="M16.8848 43.2005C19.3883 42.0949 22.0385 41.5793 24.6753 40.979C29.0523 40.0532 33.5526 39.3579 38.0029 38.9577C42.4133 38.5507 47.0636 38.493 51.4906 38.7338C52.344 38.8085 54.6975 39.0052 55.5308 39.0832C56.8709 39.2833 58.2044 39.5309 59.5045 39.9243L59.3978 40.5924C57.6277 40.6568 55.8309 40.3686 54.0707 40.26C45.2401 39.5241 36.2628 40.1922 27.5389 41.6845C26.0254 41.966 23.7953 42.3899 22.3052 42.7393C20.5717 43.1361 18.8416 43.5566 17.0848 43.8517L16.8848 43.2039V43.2005Z" fill="#221F1F"/>
<path d="M18.9883 64.262C22.7786 62.8681 37.3763 58.6286 61.6113 60.321L18.9883 64.262Z" fill="white"/>
<path d="M18.875 63.9432C25.4955 61.4741 32.5493 60.4295 39.5498 59.8326C43.0567 59.5715 46.5736 59.4392 50.0872 59.4629C53.5975 59.4799 57.1244 59.4934 60.598 60.1616L60.5513 60.8399C57.0477 61.0875 53.5775 60.7348 50.0806 60.7551C43.1167 60.7008 36.1329 61.0943 29.2524 62.1999C25.8188 62.7629 22.3986 63.4887 19.1017 64.5842L18.875 63.9466V63.9432Z" fill="#221F1F"/>
<path d="M52.1245 60.3077C52.4412 52.7717 51.8145 39.6871 51.8145 39.6871C51.8145 39.6871 34.0266 38.3067 24.6992 42.1527C24.6992 42.1527 25.6026 55.2237 27.4894 62.346" stroke="#221F1F" stroke-width="0.652302" stroke-miterlimit="10"/>
<path d="M24.8225 41.9762C24.5892 44.4147 26.586 58.5168 27.4694 61.8235C33.8132 60.2091 46.3074 59.5715 51.9745 59.6292C52.3478 55.4915 51.7678 44.9811 51.4944 40.0261L51.4811 39.8124C40.9637 38.3845 29.4162 40.762 24.8225 41.9762Z" fill="#5BC2C7"/>
<path d="M38.3597 51.7201L38.2363 47.9317C38.2363 47.8096 38.3597 47.7282 38.4663 47.7825L42.0733 49.6784C42.1866 49.736 42.1866 49.9022 42.0733 49.9633L38.5897 51.8558C38.4863 51.91 38.363 51.8388 38.3563 51.7201H38.3597Z" fill="white" stroke="black" stroke-width="0.156553"/>
<g clip-path="url(#clip1_1260_750)">
<path d="M48.1968 9.04721C48.025 8.83305 47.6959 8.58408 47.1075 8.61882C44.7844 8.75597 39.6877 13.5122 37.3558 16.5198C37.5518 16.6252 37.7136 16.769 37.8352 16.9439C40.034 14.1167 45.0276 9.3685 47.1444 9.24354C47.494 9.2229 47.6335 9.34503 47.7204 9.45301C47.8126 9.55492 47.8657 9.67448 47.8872 9.81124C47.9892 9.78604 48.0917 9.76849 48.1968 9.76229C48.3095 9.75563 48.4135 9.76292 48.5138 9.77425C48.4883 9.50353 48.3774 9.24934 48.1949 9.04732L48.1968 9.04721Z" fill="black" stroke="black" stroke-width="0.191377" stroke-miterlimit="10"/>
<path d="M48.1143 9.02114C48.0522 8.97688 47.9762 8.95644 47.9 8.96477C47.8238 8.9731 47.755 9.00784 47.7027 9.06461C47.6505 9.12137 47.6222 9.19397 47.6208 9.26882C47.6196 9.34558 47.645 9.41884 47.6926 9.47738C47.8118 9.61412 47.8008 9.84867 47.661 10.1771C46.7729 12.2789 41.2861 16.4351 37.9134 17.4336C38.0459 17.5984 38.1433 17.7882 38.2015 17.9937C41.7889 16.8655 47.2951 12.6487 48.2372 10.421C48.2928 10.2912 48.3316 10.1701 48.3577 10.0593C51.0475 12.7895 52.6774 19.6467 52.3328 22.2206C51.5517 23.7659 48.4479 25.0323 44.9136 25.2409C43.2534 25.3389 41.69 25.1916 40.2844 24.8298C40.2765 24.8897 40.2567 24.9446 40.2429 25.0029C40.2826 25.1558 40.3033 25.3118 40.3012 25.4711C41.725 25.8183 43.2922 25.9635 44.9505 25.8656C48.7905 25.6389 52.0663 24.2339 52.9175 22.4487C52.9313 22.4211 52.939 22.3899 52.9448 22.3589C53.3726 19.4407 51.4061 11.4264 48.1143 9.02114ZM23.2087 11.8066C23.0335 11.4374 23.0313 11.1403 23.2137 10.8842C23.2767 10.7827 23.4009 10.645 23.7524 10.6242C25.8634 10.4996 31.3607 14.6074 33.8886 17.1594C33.9707 16.959 34.0923 16.7774 34.2562 16.6316C31.5615 13.9169 26.0195 9.86351 23.7155 9.99953C23.1271 10.0343 22.8296 10.3202 22.6947 10.5372C22.4805 10.8374 22.2978 11.3466 22.6436 12.0739C23.784 14.4719 29.8883 17.6256 33.5914 18.5879C33.5733 18.3781 33.5935 18.168 33.6506 17.9671C29.9864 17.014 24.1982 13.8896 23.2087 11.8066Z" fill="black" stroke="black" stroke-width="0.191377" stroke-miterlimit="10"/>
<path d="M32.3208 25.3325C30.9836 25.8351 29.4744 26.1524 27.8486 26.2483C24.3142 26.457 21.0811 25.5647 20.1255 24.1219C19.4804 21.6045 20.2921 14.6033 22.6421 11.5774C22.6721 11.6638 22.7198 11.7568 22.7695 11.8517C22.6949 11.3672 22.818 10.8538 23.1475 10.4931C23.0895 10.4525 23.0194 10.4336 22.9487 10.4378C22.878 10.4419 22.8107 10.4708 22.7598 10.5179C19.7757 13.2918 18.7659 21.4838 19.534 24.3313C19.5416 24.3616 19.5547 24.3895 19.5717 24.4173C20.6252 26.0901 24.0435 27.0999 27.8854 26.8731C29.5514 26.7747 31.1102 26.4546 32.4909 25.9417C32.3973 25.7517 32.3409 25.5441 32.3208 25.3325Z" fill="#37474F" stroke="black" stroke-width="0.191377" stroke-miterlimit="10"/>
<path d="M36.4275 26.8807C35.0577 26.9616 33.6514 26.7494 32.2495 26.2532L32.0321 26.1759L32.0415 25.9453C32.1493 23.3547 32.7082 20.3847 33.7977 16.5954L33.8389 16.4492L33.9794 16.393C35.1341 15.9165 36.4141 15.8409 37.6169 16.1782L37.763 16.2175L37.8211 16.3579C39.3488 19.9907 40.2534 22.8762 40.6653 25.4362L40.7017 25.6641L40.495 25.7664C39.1632 26.4259 37.7915 26.8002 36.4217 26.8811L36.4275 26.8807ZM32.6774 25.741C35.1765 26.5712 37.6333 26.4261 40.0174 25.3076C39.6023 22.8878 38.7393 20.1552 37.311 16.7446C36.3323 16.5014 35.3026 16.5622 34.3574 16.919C33.3423 20.4738 32.8049 23.2891 32.6774 25.741Z" fill="black" stroke="black" stroke-width="0.191377" stroke-miterlimit="10"/>
<path d="M23.0319 11.0562C22.574 13.6904 29.701 16.8604 33.3219 18.1171C33.0528 21.3537 32.5478 24.4892 32.3289 25.6524C25.4741 27.7442 21.2394 25.6035 19.978 24.2728C19.118 17.4986 21.6549 12.6385 23.0319 11.0562Z" fill="#E0E5F3"/>
<path d="M23.0721 10.9692C23.11 11.1242 23.1046 11.1955 23.1103 11.3562C23.1139 11.4173 23.12 11.4879 23.1273 11.5469C23.1541 11.6431 23.1653 11.7363 23.2032 11.8261C23.8514 13.4212 25.9544 14.5892 27.4069 15.4217C29.3319 16.4641 31.3575 17.328 33.4227 18.0515C33.3148 19.3404 33.1741 20.6275 33.0044 21.9085C32.8344 23.1858 32.6451 24.4603 32.4113 25.7279C30.314 26.3463 28.1229 26.7383 25.9267 26.59C23.7834 26.427 21.5017 25.8697 19.9083 24.338L19.8983 24.331L19.8821 24.284C18.5847 20.3308 19.2644 15.6724 21.7125 12.2937C21.8899 12.0513 22.0853 11.8212 22.2909 11.602L22.6094 11.2822C22.7244 11.1527 22.9384 11.0423 23.0721 10.9692ZM22.9903 11.1428C22.9155 11.2718 22.9457 11.3927 22.9064 11.5062C22.7293 11.8848 22.535 12.295 22.3852 12.6796C20.8413 16.3711 20.3785 20.2882 20.0723 24.2593C22.2797 26.2532 26.0946 26.7373 29.1528 26.2577C30.2205 26.1256 31.2643 25.8493 32.2996 25.5581L32.233 25.6311C32.6803 23.1412 33.0073 20.6258 33.2246 18.1054L33.2879 18.2033C32.2602 17.8441 31.2475 17.4457 30.2498 17.01C28.2096 16.0933 23.2541 13.8572 22.927 11.4667L22.9188 11.3598L22.9156 11.3063C22.9173 11.2372 22.9564 11.2176 22.9901 11.139L22.9903 11.1428Z" fill="black"/>
<path d="M47.6834 9.43944C48.5047 11.9848 41.8893 16.1175 38.4785 17.8679C39.1965 21.0348 40.1349 24.0697 40.5136 25.1919C47.5923 26.3077 51.4888 23.5969 52.5508 22.1021C52.4584 15.275 49.2658 10.8164 47.6835 9.44135L47.6834 9.43944Z" fill="#E0E5F3"/>
<path d="M47.7367 9.51886C47.7813 9.591 47.8225 9.60774 47.8341 9.67415C47.8361 9.70854 47.8415 9.80024 47.8437 9.83654C47.85 12.2498 43.2668 15.1487 41.3649 16.348C40.4379 16.9165 39.49 17.4537 38.5225 17.9517L38.5718 17.8453C38.8536 19.0786 39.1657 20.3063 39.5061 21.5247C39.8464 22.743 40.2057 23.9583 40.6043 25.1579L40.5277 25.0934C42.6511 25.4052 44.8352 25.4794 46.9447 25.0367C48.9901 24.6437 51.2617 23.5702 52.4556 22.1002C51.9661 19.8823 51.436 17.6571 50.5873 15.5562C49.857 13.7398 48.9315 12.0268 48.0371 10.2871C47.9665 10.1629 47.8995 10.0345 47.8322 9.9024C47.8141 9.79036 47.84 9.64504 47.7366 9.51695L47.7367 9.51886ZM47.6314 9.35829C47.9527 9.41026 48.2874 9.62438 48.563 9.81133C49.3205 10.3341 49.9496 11.0216 50.4804 11.7648C52.4737 14.7432 53.2409 18.582 52.6491 22.0984L52.6404 22.1468L52.6313 22.155C51.2673 23.8919 49.0853 24.7627 46.9864 25.224C44.8334 25.677 42.6086 25.5956 40.4444 25.2747C40.0348 24.0509 39.6705 22.8167 39.325 21.5756C38.9792 20.3288 38.6599 19.0766 38.3726 17.8149C40.3167 16.8106 42.2031 15.6736 43.9628 14.3715C45.2862 13.3425 47.2005 11.899 47.6232 10.2253C47.6482 10.1299 47.6445 10.0343 47.6579 9.93761C47.6579 9.90502 47.6542 9.87456 47.6523 9.84209L47.6467 9.74656L47.6438 9.6988C47.6183 9.59104 47.6215 9.4509 47.6295 9.35841L47.6314 9.35829Z" fill="black"/>
<path d="M34.3997 16.9028C35.0514 16.2509 36.7728 16.5078 37.5519 16.7167C38.5189 18.8068 39.7023 23.3629 40.1723 25.3807C37.1922 26.8603 33.8997 26.2936 32.626 25.8262C32.3874 24.3833 33.7097 19.2767 34.3997 16.9028Z" fill="#A2ABCB" stroke="black" stroke-width="0.191377" stroke-linecap="round"/>
<path d="M37.9229 16.5033L38.4513 17.3348C46.5823 13.4807 47.7823 10.329 47.367 9.23589C45.335 8.58901 40.2237 13.812 37.9229 16.5033Z" fill="#A2ABCB" stroke="black" stroke-width="0.191377" stroke-linecap="round"/>
<path d="M33.5866 16.9337L33.1598 17.8216C24.6317 14.951 23.0693 11.9644 23.3531 10.828C25.2948 9.94656 30.9852 14.5318 33.5866 16.9337Z" fill="#A2ABCB" stroke="black" stroke-width="0.191377" stroke-linecap="round"/>
</g>
</g>
<defs>
<clipPath id="clip0_1260_750">
<rect y="0.522217" width="76" height="76" rx="38" fill="white"/>
</clipPath>
<clipPath id="clip1_1260_750">
<rect width="33.9197" height="34.3561" fill="white" transform="translate(18.4746 10.2131) rotate(-3.37862)"/>
</clipPath>
</defs>
</svg>