<?xml version="1.0" encoding="utf-8"?>
<!-- Generator: Adobe Illustrator 23.1.1, SVG Export Plug-In . SVG Version: 6.00 Build 0)  -->
<svg version="1.1" id="Layer_1" xmlns="http://www.w3.org/2000/svg" xmlns:xlink="http://www.w3.org/1999/xlink" x="0px" y="0px"
	 viewBox="0 0 100 100" style="enable-background:new 0 0 100 100;" xml:space="preserve">
<path d="M94.4,55.9c0.5-0.6,0.7-1.4,0.6-2.2c-0.2-0.9-1.5-8.9-3.1-12c-2.4-4.8-10.4-0.2-15.1,2.6C74.4,38,67.9,25,55.2,20.6
	C48,18,34.6,19.4,28.5,20.4c-10.9,1.9-18.4,9.7-21.7,22.6C4.4,52.4,5.1,61,5.1,61.4C5.2,62.5,6,63.4,7,63.8c0.2,0.1,1.7,0.6,4.4,1.2
	L6.6,82.9c-0.5,1.8,0.9,3.5,2.7,3.5h5.6c1,0,2-0.6,2.5-1.4l5.7-10.3c0.7,0.3,1.5,0.6,2.3,0.9l-1.9,7.3c-0.5,1.8,0.9,3.5,2.7,3.5
	c6.1,0,5.7,0,5.9,0c0.9-0.1,1.7-0.6,2.2-1.6c0.1-0.2-0.2,0.5,2.7-7c7.4,0.4,15-1,22.2-3.2l2.1,9.6c0.3,1.3,1.4,2.2,2.7,2.2h8.4
	c1.6,0,2.8-1.3,2.8-2.8V71.2c0.7-0.3,1.4-0.6,2.1-0.9L79.6,84c0.2,1.4,1.4,2.4,2.8,2.4c9.2,0,8.5,0,8.7,0c2,0.2,3.6-1.7,3-3.7
	l-6.6-19.7C91.5,59.4,94.2,56,94.4,55.9L94.4,55.9z"/>
</svg>
