<svg xmlns="http://www.w3.org/2000/svg" fill="none" viewBox="-14.48 0.52 98.44 83.64">
<g clip-path="url(#clip0_1260_1251)">
<rect y="0.522217" width="76" height="76" rx="38" fill="#FAFBFB"/>
<path d="M52.2317 60.4848C49.6883 58.0306 51.1527 53.6931 54.6402 53.3275C64.3037 52.3241 78.9222 51.516 81.5549 55.4516C81.5549 55.4516 85.8178 60.7451 81.9262 69.3902C80.5294 72.4871 77.2768 74.407 74.1031 73.9815C71.6119 73.6468 68.5623 72.4487 64.287 69.8442C60.0117 67.2397 55.9065 64.0371 52.2311 60.4896L52.2291 60.4869L52.2317 60.4848Z" fill="white"/>
<path d="M51.8725 60.7125C50.6542 59.5461 50.2028 57.6521 50.7396 56.0349C51.2424 54.363 52.7708 53.0545 54.4846 52.8742C57.5756 52.5291 60.6408 52.2823 63.7334 52.1258C68.2385 52.0092 79.0878 51.4389 81.8835 55.179C85.0397 59.7903 84.3012 66.0689 81.6246 70.7018C80.3981 72.5317 78.4684 73.8818 76.3129 74.2657C73.1376 74.7819 69.9596 73.2425 67.1842 71.8934C61.6894 69.0208 56.0355 64.7962 51.8699 60.7146L51.8725 60.7125ZM52.5882 60.2589C56.2761 63.8611 62.1979 68.5524 67.5003 71.2644C72.2439 73.7217 77.3224 75.4918 81.0088 70.2857C83.2476 66.3277 83.9887 61.1773 81.9783 56.9968C81.0987 54.9287 79.5202 54.2412 77.449 53.7463C72.9769 52.7752 68.3349 52.9456 63.771 53.1181C60.7114 53.2568 57.6301 53.4992 54.5945 53.8171C53.2112 53.9521 52.0019 54.9701 51.5804 56.3136C51.099 57.7223 51.5473 59.2392 52.5861 60.2563L52.5882 60.2589Z" fill="#221F1F"/>
<mask id="mask0_1260_1251" style="mask-type:luminance" maskUnits="userSpaceOnUse" x="-15" y="37" width="40" height="32">
<path d="M24.3612 47.1231L-8.20508 37.1973L-14.4799 58.3605L18.0864 68.2863L24.3612 47.1231Z" fill="white"/>
</mask>
<g mask="url(#mask0_1260_1251)">
<path d="M18.9881 60.5221C20.643 57.3656 17.9196 53.7219 14.5006 54.5032C5.03439 56.6825 -9.06637 60.6572 -10.3489 65.2485C-10.3489 65.2485 -12.7575 71.6575 -6.40684 78.6086C-4.13041 81.0978 -0.457895 81.8648 2.41915 80.4327C4.67542 79.3039 7.19757 77.1773 10.4453 73.3181C13.693 69.459 16.5988 65.0869 18.9848 60.5218L18.9881 60.5221Z" fill="white"/>
<path d="M18.4038 60.3824C19.0408 59.1131 19.0269 57.6205 18.1517 56.4743C17.3742 55.407 16.0084 54.8738 14.733 55.1784C11.7749 55.8722 8.77561 56.6242 5.83075 57.4518C1.45534 58.7357 -2.98088 60.0727 -6.92713 62.3939C-8.73561 63.5193 -9.99874 64.6319 -10.2143 66.8629C-10.8672 71.475 -8.60835 76.1389 -5.27069 79.1688C-3.32409 80.7202 -0.584133 81.2766 1.74974 80.358C4.09156 79.3346 6.0394 77.5591 7.81689 75.6958C11.9107 71.4687 16.2773 64.6063 18.4068 60.3861L18.4038 60.3824ZM19.5649 60.6617C16.5249 66.5866 8.61179 78.1231 1.98844 80.9994C-0.577645 81.9854 -3.56257 81.4444 -5.71911 79.7544C-8.13637 77.6256 -9.93173 74.7814 -10.8156 71.6322C-11.2931 69.7773 -11.424 67.7991 -11.0404 65.9077C-10.867 64.8074 -10.2624 63.7025 -9.42976 62.9386C-4.55222 58.4171 7.85964 55.3114 14.4566 53.7986C18.234 52.9595 21.3913 57.1811 19.5583 60.6612L19.5649 60.6617Z" fill="#221F1F"/>
</g>
<path d="M16.7832 71.0314L14.8945 40.809C14.8807 40.6085 14.8636 40.4079 14.8432 40.2071C14.6319 38.0942 13.67 21.3005 36.0437 19.8728C36.0437 19.8728 56.8959 18.9285 57.7361 38.3357L58.0798 69.1492C58.1453 70.5823 57.9221 71.9513 57.4615 73.224C56.683 75.3707 55.2375 77.1655 53.4479 78.64C52.5291 79.3951 51.5337 80.039 50.494 80.6C47.2359 82.3596 43.5858 83.2988 39.8763 83.4662L36.6652 83.6101C34.1499 83.7236 31.6291 83.4742 29.1973 82.8378C27.554 82.4083 26.0283 81.9557 24.5931 81.2791C21.5515 79.8487 19.0933 77.8111 17.784 75.0263C17.2077 73.8027 16.8555 72.4581 16.7899 71.0283L16.7833 71.0281L16.7832 71.0314Z" fill="white"/>
<path d="M16.6145 71.3206C15.7431 61.4711 14.7118 49.8936 14.0358 40.0948C13.3856 30.0054 19.2789 22.6908 28.7457 20.2021C31.0574 19.5492 33.4681 19.2558 35.8455 19.0663C39.2489 18.9663 42.6138 19.5635 45.8356 20.678C53.9491 23.5544 58.383 30.1357 58.5134 38.7967C58.6114 46.9955 58.6667 59.1295 58.7369 67.3612C58.7633 69.2982 58.8582 71.3935 58.149 73.2442C56.0796 78.9746 50.2165 82.1128 44.6716 83.4072C41.9853 84.0744 38.92 84.0435 36.1707 84.1626C29.9895 84.228 21.863 82.087 18.2398 76.6051C17.1622 74.9608 16.5315 73.0166 16.4627 71.0476L16.9345 71.3418C16.8529 71.3899 16.6961 71.3811 16.6177 71.3275L16.6145 71.3206ZM16.9567 70.739C16.885 70.6823 16.7316 70.6737 16.6534 70.7184L17.1252 71.0127C17.6178 79.0894 26.5242 82.461 33.3802 83.0358C34.9802 83.2469 37.3125 83.0049 38.9372 82.9591C45.6925 82.8015 54.4184 79.7584 56.9168 72.8085C57.5546 71.1012 57.4203 69.1978 57.3864 67.3961C57.2497 59.1519 57.08 47.0479 56.9724 38.8353C56.8314 30.8351 52.8199 24.8447 45.3003 22.2024C42.3163 21.1741 39.0873 20.6121 35.9346 20.7071C33.6707 20.8971 31.3436 21.1866 29.1699 21.807C20.3904 24.1057 14.9623 30.9616 15.649 40.3097C16.2191 49.7555 16.5962 61.2122 16.9533 70.7389L16.9567 70.739Z" fill="#221F1F"/>
<path d="M22.924 23.8474C22.924 23.8474 35.7137 25.4848 48.0069 22.7014L22.924 23.8474Z" fill="white"/>
<path d="M22.1739 23.9543C22.1739 23.9543 36.2674 25.6018 48.5606 22.8188" stroke="#221F1F" stroke-width="0.681177" stroke-miterlimit="10"/>
<path d="M14.8103 37.5995C14.8103 37.5995 36.252 31.5966 57.3596 35.7826L14.8103 37.5995Z" fill="white"/>
<path d="M14.7204 37.2721C17.2577 36.2557 19.9229 35.8318 22.5776 35.3231C26.9818 34.549 31.502 34.0086 35.9629 33.7604C40.384 33.5041 45.034 33.6038 49.4513 33.993C50.3019 34.0962 52.6481 34.3715 53.4786 34.4774C54.8117 34.7219 56.1367 35.0134 57.4237 35.4491L57.296 36.1108C55.5246 36.1152 53.7378 35.7674 51.9819 35.5999C43.1787 34.5688 34.1845 34.931 25.4174 36.1223C23.8958 36.3515 21.6533 36.6983 20.1528 36.9959C18.4076 37.3324 16.665 37.6928 14.8997 37.9273L14.7203 37.2755L14.7204 37.2721Z" fill="#221F1F"/>
<path d="M16.1441 58.391C19.9767 57.1317 34.7015 53.4054 58.8714 55.9077L16.1441 58.391Z" fill="white"/>
<path d="M16.0417 58.0706C22.7372 55.8356 29.8208 55.0337 36.8369 54.6758C40.3504 54.5341 43.8699 54.5212 47.3811 54.6635C50.8891 54.799 54.414 54.9316 57.8648 55.7142L57.7967 56.388C54.2869 56.5163 50.8294 56.0478 47.3335 55.95C40.3747 55.6608 33.3817 55.8167 26.4694 56.6852C23.0197 57.1299 19.578 57.7371 16.248 58.7166L16.0416 58.074L16.0417 58.0706Z" fill="#221F1F"/>
<path d="M49.401 55.5624C49.9562 48.0462 49.7438 34.9562 49.7438 34.9562C49.7438 34.9562 32.0012 32.9749 22.553 36.5003C22.553 36.5003 23.0425 49.5861 24.7037 56.7637" stroke="#221F1F" stroke-width="0.681177" stroke-miterlimit="10"/>
<path d="M22.6824 36.3282C22.3719 38.7558 23.9221 52.9084 24.7007 56.241C31.095 54.8435 43.6082 54.6299 49.2728 54.8795C49.7771 50.7595 49.5299 40.2422 49.4134 35.2839L49.4068 35.0701C38.9357 33.2877 27.314 35.2711 22.6824 36.3282Z" fill="#5BC2C7"/>
<path d="M35.9093 46.5176L35.9059 42.7292C35.9097 42.6072 36.0357 42.5301 36.1406 42.5879L39.6876 44.6039C39.7991 44.6654 39.7938 44.8314 39.6786 44.8885L36.135 46.6609C36.0299 46.7117 35.9088 46.6363 35.9059 46.5175L35.9093 46.5176Z" fill="white" stroke="black" stroke-width="0.163482"/>
<path d="M35.1492 22.1002C34.658 22.141 34.3121 21.6097 34.5286 21.1541C36.5873 16.812 45.2307 0.716355 56.7555 8.9679C68.4984 17.374 48.1187 14.0166 41.5494 15.4421C39.5258 15.8824 37.7211 17.098 36.5984 18.9035C36.1165 19.6815 35.7561 20.5597 35.7219 21.4824C35.7091 21.8121 35.4621 22.0764 35.1475 22.1057L35.1467 22.1006L35.1492 22.1002Z" fill="white"/>
<path d="M35.3942 22.0698C35.373 22.0157 35.2968 21.9002 35.1859 21.8664C35.0876 21.8332 35.0505 21.8526 34.973 21.8237C34.7328 21.7357 34.6424 21.4365 34.7833 21.2163L34.8401 21.0993C35.828 19.0779 36.9655 17.1283 38.2502 15.298C42.0965 9.71137 48.1445 4.55065 54.9182 8.24706C56.6075 9.19675 58.379 10.4418 59.5911 11.9932C59.8612 12.3958 60.1228 12.8548 59.8793 13.2836C59.6809 13.5686 59.3748 13.7301 59.021 13.8762C58.1042 14.227 57.1181 14.3485 56.1386 14.4479C52.1232 14.8017 48.029 14.5346 43.9855 14.8066C42.614 14.9065 41.2061 15.0623 39.9281 15.6391C37.7111 16.6333 35.7209 18.7527 35.4751 21.3461L35.4688 21.4808C35.4638 21.6703 35.3087 21.8327 35.128 21.85C35.1271 21.8449 35.406 22.0809 35.3954 22.0617L35.1937 22.3577C35.2328 22.3511 35.3042 22.326 35.3508 22.2553C35.4002 22.1867 35.4031 22.1102 35.397 22.0719L35.3942 22.0698ZM34.9014 22.1318C34.8953 22.0935 34.8982 22.0171 34.9451 21.9489C34.9945 21.8803 35.0631 21.8531 35.0998 21.8469C35.1006 21.852 34.8903 22.1415 34.8989 22.148L34.9379 22.3929L35.1671 22.3648C35.5245 22.3361 35.8502 22.0612 35.9407 21.6974C36.1061 19.1988 38.0236 17.1597 40.1618 16.2233C41.359 15.6916 42.6869 15.5545 44.0246 15.4629C48.082 15.2148 52.1222 15.5066 56.1981 15.1689C58.1024 15.0212 62.1286 14.4351 60.1494 11.5691C59.7122 10.9536 59.1879 10.4707 58.6568 10.0072C57.5772 9.09899 56.4552 8.27126 55.216 7.6231C51.2494 5.45591 46.9657 6.12994 43.429 8.81364C39.4157 11.8658 36.5994 16.2964 34.3773 20.8602L34.3209 20.9797L34.2927 21.0395C34.0125 21.6002 34.4243 22.3405 35.0334 22.3611C35.0464 22.3642 34.9999 22.3563 34.9771 22.3392C34.911 22.3031 34.8752 22.1886 34.8965 22.1326L34.9014 22.1318Z" fill="#221F1F"/>
<g clip-path="url(#clip1_1260_1251)">
<path d="M37.7935 52.504C38.1172 51.6895 39.1736 51.1062 40.4255 50.626C41.4961 50.217 42.6947 50.3059 43.6871 50.8786C44.3059 51.2378 45.0137 51.75 45.6148 52.4578C46.063 52.9842 46.6498 53.3861 47.3292 53.5141C48.3073 53.6991 49.4526 53.4039 49.2463 50.8892C49.2463 50.8892 52.7924 62.2353 38.9957 58.3762C38.4729 58.2304 38.0461 57.8462 37.8469 57.3412C37.324 55.9505 37.228 53.9125 37.7935 52.5004V52.504Z" fill="#828282"/>
<path d="M37.2999 52.3048C37.7801 51.2555 38.8329 50.7789 39.8145 50.3735C41.0878 49.8008 42.6208 49.8008 43.823 50.5335C44.3921 50.8785 44.9149 51.284 45.3808 51.7571C45.9926 52.4399 46.551 53.1833 47.5007 53.3149C49.2648 53.6741 49.247 51.4725 49.119 50.2668L49.336 50.8643C51.4878 57.5474 47.6038 60.7201 41.0878 59.525C40.5935 59.4254 40.0955 59.3436 39.6153 59.2156C39.1032 59.084 38.4167 58.9701 38.0041 58.6002C36.5139 57.4123 36.6135 53.9445 37.3035 52.3048H37.2999ZM38.2922 52.6996C37.869 53.9196 37.9366 55.4063 38.3065 56.6618C38.431 57.0602 38.5021 57.3305 38.808 57.5546C38.9289 57.6541 39.0889 57.7111 39.2383 57.7502C39.9106 57.9316 40.6432 58.1236 41.319 58.2552C47.3335 59.5677 50.3425 57.142 49.1617 50.9141L49.336 50.8785V50.8856C49.5422 52.2621 49.2008 53.98 47.4402 53.7524C46.3981 53.6848 45.6191 52.8881 44.954 52.1981C44.5059 51.7962 43.9973 51.4476 43.4673 51.1666C42.4394 50.6082 41.191 50.69 40.1738 51.22C39.4909 51.5259 38.5234 52.0523 38.2922 52.696V52.6996Z" fill="#221F1F"/>
<path d="M37.798 52.7459C37.4744 51.9314 36.418 51.3481 35.166 50.868C34.0955 50.4589 32.8968 50.5479 31.9045 51.1205C31.2856 51.4797 30.5778 51.9919 29.9767 52.6997C29.5286 53.2261 28.9417 53.628 28.2624 53.7561C27.2843 53.941 26.139 53.6458 26.3453 51.1312C26.3453 51.1312 22.7992 62.4772 36.5959 58.6181C37.1187 58.4723 37.5455 58.0882 37.7447 57.5831C38.2675 56.1924 38.3636 54.1544 37.798 52.7424V52.7459Z" fill="#828282"/>
<path d="M37.3888 52.9095C36.9655 51.967 35.5962 51.4122 34.6216 51.0743C33.142 50.6297 31.6731 51.4193 30.6061 52.4116C29.7453 53.379 28.5183 54.4069 27.124 53.8379C26.1423 53.3364 26.1708 52.0773 26.2562 51.1383C26.2419 51.1205 26.4304 51.1703 26.4304 51.1667C26.6438 55.2037 26.3984 58.5399 31.4846 58.7106C33.0994 58.764 34.7888 58.4474 36.3751 58.0704C36.5707 58.0277 36.6952 57.9708 36.8375 57.8712C37.1612 57.6436 37.2608 57.3448 37.3852 56.9393C37.7587 55.6589 37.8227 54.1615 37.3852 52.9131L37.3888 52.9095ZM38.2068 52.5823C38.7973 54.0904 38.7866 55.6838 38.4274 57.2203C38.2815 58.0882 37.5986 59.0094 36.6917 59.2086C33.985 59.9768 31.0542 60.6668 28.3084 59.5358C26.1993 58.6715 25.086 56.1924 25.2745 54.0335C25.3563 52.9878 25.6551 51.9741 26.2597 51.1098L26.434 51.1454C26.4055 51.9919 26.4091 53.1265 27.2592 53.5284C28.0879 53.8165 29.0269 53.3684 29.6066 52.7531C30.8301 51.2343 32.7437 49.8614 34.7924 50.3771C36.0835 50.7755 37.5631 51.277 38.2104 52.5859L38.2068 52.5823Z" fill="#221F1F"/>
</g>
</g>
<defs>
<clipPath id="clip0_1260_1251">
<rect y="0.522217" width="76" height="76" rx="38" fill="white"/>
</clipPath>
<clipPath id="clip1_1260_1251">
<rect width="24.6767" height="10.1759" fill="white" transform="translate(25.2539 49.9609)"/>
</clipPath>
</defs>
</svg>