<?xml version="1.0" encoding="utf-8"?>
<!-- Generator: Adobe Illustrator 23.1.1, SVG Export Plug-In . SVG Version: 6.00 Build 0)  -->
<svg version="1.1" id="Layer_1" xmlns="http://www.w3.org/2000/svg" xmlns:xlink="http://www.w3.org/1999/xlink" x="0px" y="0px"
	 viewBox="0 0 100 100" style="enable-background:new 0 0 100 100;" xml:space="preserve">
<path d="M82.1,27.9c0,2.9-0.1,3.2,0.3,4.1c0.5,1.3,1.6,2.2,2.9,2.5c1.4,1.1,2.3,2.8,2.3,4.7v0.4c-2.1,1.3-8.2-0.3-10.2-5.7
	c-0.3-0.8-0.2-0.7-0.3-0.6c-0.2-0.5-0.3-1-0.3-1.5c0-8.6,0-8.2-0.1-8.7c-0.3-1.2-1.4-2-2.6-2c-1.5,0-2.7,1.2-2.7,2.7v1.6l-1-1
	c-6.1-6.1-16.1-6.1-22.2,0c-2.2,2.2-5.2,3.5-8.4,3.5H27.3c-4.6,0-8.7,2.3-11.2,5.8l-8.5,8.5c-1.7,1.7-0.5,4.6,1.9,4.6
	c0.7,0,1.4-0.3,1.9-0.8l2-2c-0.5,5.3-2.6,10.4-6,14.6c-0.5,0.6-0.7,1.5-0.6,2.3c5.6,24.2,1.2,5.4,4,17.5c0.3,1.2,1.4,2.1,2.6,2.1h4
	c1.5,0,2.7-1.2,2.7-2.7S19.1,75,17.6,75h-1.9l-2-8.5l4.3-1c2-0.3,3.9-0.8,5.7-1.6l3.3,14.4c0.3,1.2,1.4,2.1,2.6,2.1h4
	c1.5,0,2.7-1.2,2.7-2.7c0-1.5-1.2-2.7-2.7-2.7h-1.9l-3.3-14.2c0.2-0.2,0.5-0.4,0.7-0.6c6.1,2.2,13,3,19.3,2.7v14.9
	c0,1.5,1.2,2.7,2.7,2.7h4c1.5,0,2.7-1.2,2.7-2.7S56.8,75,55.3,75h-1.3v-7.7l4.8-3.1c0.6,0,1.3-0.1,1.9-0.1v13.6
	c0,1.5,1.2,2.7,2.7,2.7h4c1.5,0,2.7-1.2,2.7-2.7S68.9,75,67.4,75h-1.3V62.7c1.5-0.6,3-1.4,4.4-2.3c1,3,3.8,5.2,7.1,5.2
	c3.6,0,5.3-2.2,7.2-4.1c4.6-0.6,8.2-4.6,8.2-9.4V39.2C93,33.1,88.2,28.1,82.1,27.9z"/>
</svg>
