<?xml version="1.0" encoding="utf-8"?>
<!-- Generator: Adobe Illustrator 23.1.1, SVG Export Plug-In . SVG Version: 6.00 Build 0)  -->
<svg version="1.1" id="Layer_1" xmlns="http://www.w3.org/2000/svg" xmlns:xlink="http://www.w3.org/1999/xlink" x="0px" y="0px"
	 viewBox="0 0 100 100" style="enable-background:new 0 0 100 100;" xml:space="preserve">
<path d="M89.8,37.7c-0.3-1.5-1.4-5.1-4.7-7.4c-1-0.7-2-1.3-2.9-1.8c0.1-0.4,0.2-0.7,0.2-1.1c0-2.4-2-4.4-4.6-4.4
	c-2.3,0-4.2,1.6-4.5,3.7h-9.4l-11.7-4.6l-11.5,3l-5.9-0.3c-0.6,0-1.2-0.1-1.8-0.3c-3.7-0.9-12.9-2.6-20,2.4c-4.6,3.3-7.3,8.6-8,16
	L5,43l0,0.1c0,0.4,0.2,8.8,3.4,17.8c2.7,7.4,3.7,12.6,4,13.7v10.6h20.8v-9.4l-4.9-2.1l1-6.7c4,0.4,11.8,1,17.8-0.4l1.5,5.5v13.1
	h19.2v-9.5l-5.2-2.5c0.2-1.7,0.4-4.3,0.8-7.1c1.2-7.9,2.3-9.7,2.5-9.9c2.4-1.6,3-1.5,4.8-1.2c2.4,0.3,8.9-1.4,12.8-2.6l7.4,0.1
	l4-7.2L89.8,37.7z"/>
</svg>
