<svg xmlns="http://www.w3.org/2000/svg" fill="none" viewBox="-8.74 0.52 96.38 85.82">
<g clip-path="url(#clip0_1260_240)">
<rect y="0.522217" width="76" height="76" rx="38" fill="#FAFBFB"/>
<path d="M23.027 65.7418C26.0017 63.863 25.4112 59.321 22.0614 58.2448C12.7788 55.2791 -1.40319 51.4906 -4.75332 54.7994C-4.75332 54.7994 -9.96678 59.1016 -7.83706 68.358C-7.07249 71.674 -4.25664 74.2174 -1.06046 74.4538C1.44882 74.6344 4.67505 74.0892 9.37524 72.4192C14.0754 70.7492 18.7286 68.461 23.0242 65.7399L23.027 65.7418Z" fill="white"/>
<path d="M22.5882 65.3213C23.7597 64.5512 24.4746 63.2548 24.2729 61.8166C24.1174 60.4965 23.1911 59.3365 21.935 58.9463C19.0281 58.0306 16.057 57.1441 13.0964 56.3508C8.67117 55.2188 4.1672 54.1017 -0.390544 54.0855C-2.50933 54.1314 -4.14821 54.4455 -5.42211 56.2621C-8.23553 59.9114 -8.54545 65.0967 -7.12258 69.4231C-6.18768 71.7602 -4.07908 73.6439 -1.6048 74.0459C0.927493 74.3612 3.4839 73.8252 5.93518 73.1261C11.5494 71.5716 18.6842 67.8806 22.5891 65.326L22.5882 65.3213ZM23.4607 66.1572C17.9346 69.7179 5.44325 75.6298 -1.7099 74.7221C-4.41869 74.2595 -6.74752 72.2635 -7.79723 69.6993C-8.85966 66.6225 -9.03357 63.2464 -8.2673 60.0736C-7.77857 58.2269 -6.92866 56.4512 -5.67433 55.014C-4.98778 54.1524 -3.92454 53.5077 -2.82931 53.2743C3.60895 51.8669 15.901 55.541 22.3671 57.613C26.0563 58.8228 26.7421 64.0862 23.4551 66.1533L23.4607 66.1572Z" fill="#221F1F"/>
<path d="M55.9895 60.9636C52.925 59.2095 53.2847 54.6455 56.5754 53.4344C65.6956 50.0881 79.6657 45.7137 83.1786 48.8818C83.1786 48.8818 88.603 52.9656 86.9433 62.3012C86.3461 65.6461 83.6629 68.306 80.4831 68.6732C77.987 68.9607 74.7388 68.5485 69.9592 67.0742C65.1796 65.5999 60.4187 63.5041 55.9901 60.9684L55.9874 60.9663L55.9895 60.9636Z" fill="white"/>
<path d="M55.6962 61.2727C54.2305 60.4414 53.3303 58.7164 53.4555 57.017C53.5345 55.2729 54.6961 53.6291 56.313 53.0334C59.2244 51.9396 62.1348 50.9474 65.0937 50.036C69.4314 48.8163 79.8068 45.5985 83.4299 48.5369C87.6152 52.2314 88.4333 58.4986 86.9709 63.6469C86.2293 65.7218 84.6889 67.5046 82.6936 68.4061C79.7424 69.6865 76.2863 68.975 73.2669 68.3492C67.2399 66.9145 60.7284 64.2084 55.6941 61.2754L55.6962 61.2727ZM56.279 60.6573C60.7331 63.243 67.6183 66.3355 73.4196 67.6618C78.6172 68.8784 83.9715 69.3466 86.2725 63.3948C87.4754 59.0083 86.9355 53.834 83.9659 50.2757C82.6082 48.4872 80.9104 48.2085 78.7822 48.2375C74.2108 48.3948 69.7536 49.7003 65.3726 50.9886C62.4412 51.8746 59.5141 52.8665 56.6498 53.9203C55.3422 54.391 54.4188 55.6748 54.3385 57.0806C54.216 58.5644 55.0211 59.9246 56.2763 60.6552L56.279 60.6573Z" fill="#221F1F"/>
<path d="M19.9851 73.8449L17.1582 43.6805C17.1382 43.4804 17.1148 43.2803 17.0882 43.0802C16.8115 40.9741 15.3281 24.2096 37.613 22.0119C37.613 22.0119 58.3945 20.3501 59.8379 39.7328L61.1413 70.5416C61.2513 71.9728 61.0713 73.3498 60.6513 74.6385C59.9412 76.8125 58.5545 78.6575 56.8143 80.1939C55.9209 80.9807 54.9475 81.6591 53.9275 82.256C50.7306 84.1281 47.117 85.193 43.4201 85.4881L40.2198 85.7425C37.713 85.9426 35.1895 85.7798 32.7426 85.227C31.0892 84.8539 29.5524 84.4537 28.099 83.8262C25.0187 82.5002 22.5019 80.5466 21.1085 77.8063C20.4951 76.6023 20.1017 75.2694 19.9917 73.8415H19.9851V73.8449Z" fill="white"/>
<path d="M19.8251 74.1401C18.6484 64.3182 17.2583 52.7734 16.2782 42.9956C15.3148 32.9261 20.9686 25.407 30.3392 22.592C32.6261 21.8594 35.0229 21.483 37.3897 21.2117C40.7833 20.9946 44.1602 21.4762 47.4104 22.4801C55.5977 25.078 60.228 31.5084 60.628 40.167C60.9814 48.3644 61.4148 60.4993 61.7415 68.7306C61.8281 70.6672 61.9881 72.7598 61.3381 74.6353C59.4513 80.4382 53.6976 83.7789 48.2038 85.2644C45.5436 86.0241 42.4834 86.0987 39.7432 86.3124C33.5761 86.5905 25.3989 84.7285 21.6119 79.3699C20.4852 77.7623 19.7951 75.8393 19.6651 73.8722L20.1452 74.1503C20.0652 74.2012 19.9085 74.1978 19.8285 74.1469L19.8251 74.1401ZM20.1485 73.5466C20.0752 73.4923 19.9218 73.4889 19.8451 73.5364L20.3252 73.8145C21.0686 81.8762 30.0625 84.9422 36.923 85.2814C38.5265 85.4374 40.8466 85.1152 42.4668 85.0134C49.2039 84.6234 57.8178 81.2793 60.0947 74.2419C60.678 72.5122 60.4847 70.6129 60.3947 68.812C60.0013 60.5706 59.4546 48.4695 59.0913 40.2586C58.7012 32.2613 54.5109 26.4075 46.9237 24.0233C43.9135 23.0974 40.6733 22.6463 37.5297 22.8498C35.2762 23.1177 32.9627 23.4874 30.8126 24.1827C22.122 26.784 16.9183 33.8282 17.895 43.155C18.7584 52.5835 19.4918 64.0299 20.1452 73.5466H20.1485Z" fill="#221F1F"/>
<path d="M37.1225 20.9674C37.6054 20.9277 37.859 20.3694 37.5785 19.9724C34.9103 16.1882 24.0374 2.32223 14.1278 11.9748C4.03045 21.8086 23.2886 15.3793 29.8836 15.682C31.9152 15.7763 33.8542 16.6399 35.2225 18.1709C35.8103 18.8309 36.2956 19.6051 36.4713 20.4736C36.5347 20.7838 36.8151 20.9947 37.1249 20.9724V20.9674H37.1225Z" fill="white"/>
<path d="M36.8786 20.9771C36.8908 20.9225 36.9469 20.801 37.0493 20.7513C37.1396 20.7042 37.1786 20.7166 37.2493 20.6769C37.4688 20.5553 37.5103 20.2575 37.3396 20.0714L37.2664 19.9697C35.9957 18.2129 34.5909 16.5479 33.0616 15.0193C28.4666 10.3419 21.8009 6.41881 15.7986 10.9995C14.3059 12.1682 12.7791 13.6297 11.8425 15.2923C11.6425 15.7166 11.4596 16.193 11.7621 16.5603C11.9986 16.7985 12.3206 16.9027 12.6864 16.9846C13.6303 17.1707 14.6059 17.1285 15.5717 17.0665C19.5229 16.7612 23.4545 15.8555 27.4203 15.4684C28.7666 15.3444 30.1568 15.2675 31.486 15.6099C33.7909 16.198 36.0494 17.8878 36.6884 20.3047L36.7152 20.4312C36.7493 20.6099 36.925 20.7389 37.103 20.7265C37.103 20.7215 36.8689 20.9895 36.8762 20.9697L37.1176 21.2178C37.0786 21.2178 37.0054 21.2054 36.9493 21.1459C36.8908 21.0888 36.8762 21.0168 36.8762 20.9796L36.8786 20.9771ZM37.3664 20.9573C37.3664 20.9201 37.3518 20.8481 37.2957 20.791C37.2371 20.734 37.1664 20.7191 37.1298 20.7191C37.1298 20.724 37.3786 20.9647 37.3713 20.9722V21.2104L37.1445 21.2203C36.7933 21.2501 36.4347 21.0416 36.2908 20.7116C35.7445 18.3717 33.5689 16.7464 31.3495 16.2005C30.1056 15.8878 28.7959 15.9697 27.4837 16.0962C23.5082 16.5081 19.6326 17.4287 15.6254 17.7588C13.7547 17.9225 9.75722 18.0094 11.2352 14.9796C11.5645 14.327 11.9986 13.7861 12.4425 13.2625C13.3498 12.2302 14.3108 11.2674 15.4132 10.456C18.9278 7.77117 23.1887 7.7265 27.0349 9.70417C31.4007 11.9548 34.8177 15.7017 37.6786 19.6694L37.7518 19.7737L37.7884 19.8258C38.1469 20.3121 37.8615 21.0789 37.2737 21.1955C37.2615 21.2005 37.3054 21.1856 37.3249 21.1657C37.3835 21.1211 37.4006 21.0069 37.3713 20.9573H37.3664Z" fill="#221F1F"/>
<path d="M24.5947 26.4551C24.5947 26.4551 37.429 27.6659 49.6265 24.4541L24.5947 26.4551Z" fill="white"/>
<path d="M23.8477 26.5872C23.8477 26.5872 37.9853 27.764 50.1829 24.5522" stroke="#221F1F" stroke-width="0.676267" stroke-miterlimit="10"/>
<path d="M16.9268 40.4791C16.9268 40.4791 38.1649 33.7266 59.3931 37.2131L16.9268 40.4791Z" fill="white"/>
<path d="M16.8271 40.1536C19.3307 39.048 21.9808 38.5325 24.6177 37.9322C28.9947 37.0063 33.495 36.311 37.9453 35.9108C42.3556 35.5038 47.006 35.4462 51.4329 35.687C52.2863 35.7616 54.6398 35.9583 55.4732 36.0363C56.8133 36.2364 58.1468 36.484 59.4469 36.8774L59.3402 37.5455C57.5701 37.61 55.7733 37.3217 54.0131 37.2132C45.1825 36.4772 36.2052 37.1453 27.4812 38.6376C25.9678 38.9191 23.7376 39.3431 22.2475 39.6924C20.5141 40.0892 18.784 40.5097 17.0272 40.8048L16.8271 40.157V40.1536Z" fill="#221F1F"/>
<path d="M18.9316 61.2149C22.7219 59.8209 37.3196 55.5815 61.5547 57.2739L18.9316 61.2149Z" fill="white"/>
<path d="M18.8184 60.896C25.4388 58.427 32.4927 57.3824 39.4932 56.7855C43.0001 56.5243 46.517 56.3921 50.0306 56.4158C53.5408 56.4328 57.0677 56.4463 60.5413 57.1145L60.4947 57.7928C56.9911 58.0404 53.5208 57.6876 50.0239 57.708C43.0601 57.6537 36.0763 58.0471 29.1958 59.1528C25.7622 59.7158 22.3419 60.4416 19.045 61.537L18.8184 60.8994V60.896Z" fill="#221F1F"/>
<path d="M52.0679 57.2606C52.3845 49.7245 51.7578 36.64 51.7578 36.64C51.7578 36.64 33.9699 35.2596 24.6426 39.1056C24.6426 39.1056 25.546 52.1766 27.4328 59.2989" stroke="#221F1F" stroke-width="0.676267" stroke-miterlimit="10"/>
<path d="M24.7649 38.9291C24.5316 41.3676 26.5284 55.4696 27.4118 58.7764C33.7556 57.162 46.2498 56.5244 51.9168 56.5821C52.2902 52.4444 51.7102 41.934 51.4368 36.9789L51.4235 36.7653C40.9061 35.3374 29.3586 37.7149 24.7649 38.9291Z" fill="#5BC2C7"/>
<path d="M38.3021 48.673L38.1787 44.8846C38.1787 44.7625 38.3021 44.6811 38.4087 44.7354L42.0156 46.6313C42.129 46.6889 42.129 46.8551 42.0156 46.9162L38.5321 48.8086C38.4287 48.8629 38.3054 48.7917 38.2987 48.673H38.3021Z" fill="white" stroke="black" stroke-width="0.162304"/>
<g clip-path="url(#clip1_1260_240)">
<path d="M32.3581 20.6557C32.3581 20.6557 28.4778 16.0035 32.0476 14.25C35.6175 12.4965 36.2807 18.9027 36.2807 18.9027C36.2807 18.9027 36.3224 13.2102 40.2326 13.2395C44.1429 13.2687 40.539 19.9981 40.539 19.9981C40.539 19.9981 45.1869 16.8306 46.6009 17.9087C48.0149 18.9867 47.289 21.1139 43.7148 23.5802C43.7148 23.5802 46.9296 23.4154 48.6634 24.8415C49.9855 25.9321 49.469 28.0469 47.8171 28.4901C46.7191 28.7829 45.062 28.7774 42.6197 27.842C42.6197 27.842 45.7258 29.9425 46.5398 32.2032C46.9317 33.2882 45.9148 34.3494 44.8144 33.9975C43.6125 33.616 41.7819 32.7228 39.398 30.6653C39.398 30.6653 41.4749 38.5058 38.2783 37.7717C38.2783 37.7717 35.0857 36.6811 36.1931 30.997C36.1931 30.997 31.7384 37.3775 30.3959 35.7608C30.3959 35.7608 27.9918 33.7828 32.6445 29.5497C32.6445 29.5497 31.0367 30.4997 26.6153 30.2619C26.0756 30.2332 25.6058 29.8797 25.4296 29.3699C25.0172 28.1793 25.196 26.0773 31.0786 25.4771C31.0786 25.4771 25.0873 23.8141 25.3503 20.9661C25.3503 20.9661 25.2609 17.7611 32.351 20.6561L32.3581 20.6557Z" fill="white"/>
<path d="M32.2879 20.6065C32.2672 20.6184 32.2559 20.669 32.2716 20.693C31.8045 20.2645 31.4049 19.7715 31.0497 19.2473C30.3197 18.1075 29.7277 16.7102 30.2721 15.3098C30.771 14.2258 31.7755 13.6178 32.8912 13.445C34.0449 13.2522 35.1725 14.1868 35.5838 15.1174C36.1812 16.3042 36.3855 17.5926 36.3768 18.8936C36.3839 18.8932 36.1993 18.9041 36.1993 18.9041C36.1706 17.5733 36.3608 16.2081 36.9967 14.9699C37.3169 14.3595 37.7782 13.7836 38.408 13.4079C40.1792 12.3877 42.5897 12.9045 42.3557 15.3376C42.228 17.0375 41.4662 18.6181 40.6277 20.0465L40.4997 19.9293C41.477 19.2837 42.4899 18.6966 43.5625 18.2164C44.3692 17.8802 45.2384 17.5154 46.1392 17.6261C46.7583 17.732 47.2158 18.3 47.3471 18.8944C47.546 20.935 45.2309 22.5788 43.7766 23.6551L43.7208 23.4945C45.5667 23.4995 47.7479 23.6914 49.0692 25.1312C49.9373 26.1952 49.4445 27.9274 48.1998 28.4498C47.5913 28.7031 46.9457 28.7519 46.3078 28.7503C45.0269 28.7191 43.7845 28.3755 42.6035 27.9251C42.5931 27.9293 42.6798 27.7674 42.6798 27.7674C44.1704 28.6948 47.1847 31.1107 46.8616 33.0609C46.5131 34.3392 45.2345 34.5892 44.1575 34.0293C42.343 33.2884 40.7569 32.0709 39.3526 30.7358C39.3347 30.7333 39.4969 30.6453 39.4932 30.642C40.0727 32.432 41.2687 36.6369 39.4985 37.9742C39.0768 38.2556 38.5733 38.2354 38.1762 38.1484C37.7856 37.9898 37.5103 37.7923 37.236 37.5519C35.4073 35.9069 35.4873 33.1587 36.1176 30.9802L36.2785 31.0491C35.9762 31.6619 35.6219 32.2387 35.2527 32.8056C34.325 34.111 32.5465 36.7563 30.734 36.5925C30.1897 36.4857 30.0054 36.2009 29.7888 35.9714C28.8654 34.8751 29.1798 33.1997 29.8784 32.1181C30.5662 31.0336 31.5272 30.1716 32.6018 29.4847L32.7065 29.6281C31.2893 30.5491 29.5281 30.7101 27.8808 30.7503C27.1596 30.7252 26.3616 30.8471 25.7311 30.4283C24.685 29.7276 24.6427 28.1054 25.4009 27.1877C26.8471 25.613 29.1297 25.4711 31.0846 25.3913C31.0911 25.3803 31.0736 25.5666 31.0736 25.5666C29.7725 25.3156 28.5251 24.8869 27.3514 24.2578C26.1547 23.6016 24.7837 22.4676 24.9066 20.9283C24.8956 20.1985 25.5686 19.3464 26.4604 19.1228C27.5767 18.8395 28.597 19.0429 29.6303 19.3454L30.1201 19.4946L30.5909 19.6841C31.3213 19.9261 31.6111 20.2474 32.295 20.6061L32.2879 20.6065ZM32.4331 20.712C31.1636 20.5126 29.7846 20.088 28.498 19.9609C27.5094 19.8732 26.0436 19.7887 25.8204 20.9563C25.762 21.4763 25.953 21.9959 26.3439 22.461C27.1221 23.3913 28.2683 24.0362 29.3561 24.5991C30.0133 24.9273 30.6976 25.2325 31.3837 25.5091C30.0289 25.7957 28.6304 26.0671 27.4246 26.6442C26.6419 27.0253 25.8807 27.5299 25.7495 28.3856C25.6891 28.9308 25.887 29.6887 26.5098 29.798C27.9122 29.8933 29.3299 29.888 30.7313 29.7875C31.451 29.7272 32.1758 29.631 32.861 29.4088C31.8308 30.9696 29.9477 32.8088 30.4788 34.8048C30.5325 34.9904 30.6725 35.1888 30.7795 35.3108L30.5622 35.1918L30.8591 35.3916C30.8998 35.4177 30.8935 35.4323 30.9259 35.4375C30.9616 35.439 31.037 35.4488 31.1452 35.4103C31.9574 35.1058 32.6542 34.4162 33.3273 33.8064C34.3897 32.7924 35.4208 31.6698 36.4728 30.5994L36.2841 31.0238C36.2637 31.3421 36.2469 31.6602 36.2192 31.9754C36.1677 33.457 36.2798 35.1143 37.1577 36.3451C37.7489 37.1867 39.0198 38.1343 39.5018 36.702C40.0252 34.7044 39.5376 32.4814 39.2753 30.4517C40.8307 31.6924 42.4903 32.8272 44.3366 33.5627C44.8878 33.7867 45.4184 33.962 45.9054 33.5805C46.8967 32.87 45.9981 31.5299 45.2869 30.5885C44.3888 29.4373 43.2515 28.4604 42.1112 27.5515C43.444 28.0999 44.8638 28.5505 46.3051 28.583C46.9217 28.5858 47.5635 28.5337 48.1232 28.2976C49.2634 27.8169 49.7215 26.2222 48.9229 25.2468C47.6368 23.8619 45.5173 23.6877 43.7246 23.6796L43.4293 23.6863L43.6688 23.519C45.0751 22.4739 47.3363 20.8832 47.1679 18.9371C47.0482 18.4168 46.651 17.9058 46.1038 17.8099C45.2497 17.7071 44.4121 18.063 43.6295 18.3871C42.4701 18.9045 41.3687 19.5609 40.3166 20.2679C40.9187 18.9996 41.3902 17.6321 41.6618 16.2586C41.7859 15.4033 41.9248 14.3761 41.2081 13.8234C40.481 13.396 39.4317 13.547 38.7141 13.9457C37.0704 14.9513 36.6032 17.1166 36.3745 18.9151L36.2801 19.7901L36.197 18.9256C35.725 17.4499 34.9516 14.3067 33.0211 14.4991C32.3194 14.6225 31.5035 15.1053 31.2202 15.7384C30.5912 17.2756 31.6587 19.1223 32.3712 20.509L32.3992 20.5608L32.4149 20.5848C32.4454 20.6186 32.4531 20.6894 32.4335 20.7191L32.4331 20.712Z" fill="black"/>
<path d="M36.9324 27.7963C38.4031 27.7095 39.525 26.4469 39.4381 24.9762C39.3513 23.5055 38.0887 22.3837 36.618 22.4705C35.1473 22.5573 34.0255 23.8199 34.1123 25.2906C34.1991 26.7613 35.4617 27.8832 36.9324 27.7963Z" fill="#FFE8C2"/>
<path d="M39.1745 25.1523C39.1187 23.1212 36.5558 22.0148 35.074 23.4099C34.0635 24.2783 33.9895 25.9822 34.9474 26.9375C36.4876 28.5853 39.2663 27.3702 39.1745 25.1523ZM39.7092 25.1564C39.645 27.6293 36.5148 28.8046 34.8025 27.0779C32.9927 25.332 34.2594 22.1646 36.7956 22.1538C38.4119 22.0727 39.8252 23.5605 39.7092 25.1564Z" fill="black"/>
<path d="M20.1033 24.6431C20.1033 24.6431 18.7915 21.0721 20.5737 21.0844C22.3559 21.0968 22.9967 21.9925 23.554 23.4061C23.554 23.4061 24.112 21.0893 26.198 21.7821C28.2841 22.4748 25.9864 25.5 25.9864 25.5C25.9864 25.5 29.4444 25.8945 28.8407 27.3767C28.8407 27.3767 28.2331 29.1548 24.9719 28.8343C24.9719 28.8343 27.1792 31.5223 25.2425 32.6948C25.2425 32.6948 22.5669 33.0594 22.145 29.8955C22.145 29.8955 20.7905 32.6619 19.3083 32.0582C19.3083 32.0582 16.9443 30.7013 19.7078 27.9016C19.7078 27.9016 17.8682 28.2453 16.747 26.9362C16.4142 26.5497 16.3245 25.9956 16.565 25.5432C16.8923 24.9324 17.7692 24.2749 20.1064 24.6358L20.1033 24.6431Z" fill="white"/>
<path d="M20.0367 24.5864C19.9925 24.621 20.0328 24.7006 20.0046 24.6453C19.5169 23.6871 19.1253 22.6057 19.4596 21.51C19.7765 20.6005 20.8945 20.7091 21.6454 20.9356C22.7598 21.2225 23.4045 22.3674 23.6385 23.3725C23.6495 23.379 23.468 23.3826 23.4718 23.3859C23.635 21.6839 25.2862 20.7456 26.7931 21.6471C28.2215 22.6673 27.0394 24.6718 26.0619 25.5561L26.0001 25.4136C27.0049 25.5966 28.1959 25.7329 28.8738 26.5943C29.0923 26.9164 29.0045 27.3598 28.7978 27.6606C27.962 28.8928 26.3214 29.0467 24.9672 28.92L25.0442 28.7765C25.5034 29.3729 25.8841 30.0274 26.0595 30.7652C26.2825 31.5252 25.9807 32.3875 25.2735 32.782C24.859 32.8207 24.4538 32.7769 24.0653 32.6538C22.8546 32.3048 22.2021 31.0892 22.0611 29.9075L22.2301 29.9331C21.6463 30.9688 20.6832 32.5791 19.2748 32.1385C18.0478 31.3914 18.075 29.8613 18.8601 28.796C19.0599 28.4991 19.4036 28.1047 19.6483 27.8444C19.6475 27.8302 19.7319 27.9927 19.7319 27.9927C18.6497 28.3702 17.2728 28.1023 16.4683 27.2091C15.7902 26.5259 15.9487 25.2873 16.7512 24.759C17.5919 24.1535 18.6457 24.1982 19.5914 24.406C19.771 24.431 19.8655 24.5217 20.0403 24.5862L20.0367 24.5864ZM20.1752 24.6993C19.2022 24.8138 18.0127 24.7023 17.2211 25.3547C16.7827 25.7155 16.7045 26.2617 17.0545 26.6971C17.6919 27.4754 18.6704 27.7561 19.6932 27.8204L19.8969 27.8298L19.7697 27.9691C19.2368 28.5386 18.6808 29.1985 18.5128 29.9744C18.3089 30.7454 18.6856 31.5747 19.3512 31.9843C20.6054 32.3485 21.5237 30.8228 22.0617 29.8576L22.1801 29.6297C22.2119 29.8059 22.3034 30.2708 22.339 30.4504C22.6248 31.7911 23.8439 32.7666 25.2278 32.6101C25.3635 32.4952 25.7786 32.1642 25.8596 31.8459C25.9828 31.518 25.9576 31.1525 25.8803 30.8079C25.7032 30.0416 25.263 29.3443 24.7743 28.7319L24.9784 28.7483C26.2684 28.8717 27.8561 28.7281 28.6428 27.57C29.1168 26.9078 28.5715 26.3628 27.9472 26.1075C27.2813 25.8119 26.5423 25.6667 25.8205 25.5703L25.9203 25.4504C26.1837 24.8434 26.4549 24.2467 26.6054 23.657C26.874 22.7148 26.6055 22.1499 25.615 22.0302C24.5929 21.8554 23.9276 22.7783 23.5312 23.6675L23.4752 23.4428C22.8686 22.1603 22.0382 21.3114 20.5576 21.3988C19.6543 21.4272 19.9996 22.9924 20.0432 23.6097C20.0823 23.8497 20.1348 24.2563 20.1737 24.4928C20.1792 24.5245 20.1857 24.574 20.1911 24.6058C20.1898 24.5845 20.213 24.6757 20.1794 24.7098L20.1752 24.6993Z" fill="black"/>
<path d="M22.6633 27.6272C23.1536 27.5982 23.5275 27.1774 23.4986 26.6871C23.4696 26.1969 23.0488 25.823 22.5585 25.8519C22.0683 25.8808 21.6944 26.3017 21.7233 26.7919C21.7522 27.2822 22.1731 27.6561 22.6633 27.6272Z" fill="#FFE8C2"/>
<path d="M23.3128 26.7443C23.2399 25.8115 21.9017 25.7765 21.8228 26.7325C21.8245 27.787 23.3301 27.7623 23.3128 26.7443ZM23.6906 26.7469C23.6046 28.0667 21.672 28.0419 21.616 26.7305C21.6088 25.3413 23.7095 25.3171 23.6906 26.7469Z" fill="black"/>
<path d="M48.3893 17.6427C48.3893 17.6427 51.2495 16.9644 51.09 18.3063C50.9305 19.6483 50.185 20.0557 49.0515 20.3507C49.0515 20.3507 50.7877 20.9715 50.079 22.4848C49.3702 23.9981 47.2323 22.0044 47.2323 22.0044C47.2323 22.0044 46.6359 24.5764 45.5468 23.9923C45.5468 23.9923 44.2281 23.3825 44.7508 20.9502C44.7508 20.9502 42.4944 22.3803 41.7539 20.8207C41.7539 20.8207 41.7006 18.7716 44.1708 18.7291C44.1708 18.7291 42.1546 17.4692 42.7438 16.4048C42.7438 16.4048 43.9886 14.7386 45.9075 17.066C45.9075 17.066 45.799 15.6508 46.8993 14.916C47.2249 14.6972 47.6585 14.6788 47.985 14.8982C48.4266 15.1964 48.861 15.9154 48.3822 17.6432L48.3893 17.6427Z" fill="#D6F9FB"/>
<path d="M48.454 17.582C48.4263 17.5338 48.339 17.5639 48.3949 17.5463C48.6313 17.4469 48.8939 17.3672 49.1472 17.3131C49.9404 17.1095 51.4661 17.1227 51.3784 18.293C51.2948 19.5913 50.2886 20.3526 49.0785 20.4347C49.072 20.4458 49.0827 20.2634 49.0829 20.267C49.8077 20.5342 50.5204 21.2617 50.299 22.0978C49.9091 23.9415 48.0627 22.9032 47.1726 22.0686L47.3196 22.0243C47.1824 22.9588 46.5063 24.9049 45.2615 24.0377C44.347 23.2722 44.3588 21.9639 44.665 20.934L44.7989 21.0294C44.0713 21.4999 43.138 21.9861 42.2275 21.6515C41.8771 21.5083 41.6245 21.2133 41.4454 20.896L41.4485 20.8282C41.4978 19.6103 42.5229 18.6875 43.7033 18.6463C43.7069 18.6461 44.1624 18.6371 44.166 18.6368L44.1186 18.8C43.1321 18.4449 41.8605 17.3656 42.4871 16.2098C43.6096 14.8858 45.2537 15.7579 45.972 17.0017L45.8154 17.0644C45.5451 15.926 46.3806 14.2056 47.7458 14.4564C49.0612 14.8312 49.0531 16.6239 48.4463 17.5718L48.454 17.582ZM48.326 17.7072C48.3104 16.9599 48.5245 16.0601 48.0835 15.4091C47.6454 14.7474 46.9126 15.1291 46.5476 15.6459C46.2198 16.0679 46.0449 16.6661 45.9788 17.2365C45.9788 17.2365 45.8474 17.1231 45.8436 17.1198C45.246 16.5921 44.4496 15.898 43.6034 16.1689C43.3793 16.2355 43.1408 16.4206 43.0011 16.5892L43.0239 16.5523C42.859 16.8969 43.0727 17.2584 43.2871 17.57C43.5127 17.8916 43.9495 18.3503 44.2203 18.6515L44.4031 18.8509C44.4031 18.8509 44.1729 18.8146 44.1731 18.8181L43.7418 18.8757C42.7951 19.0135 41.9849 19.8345 42.064 20.8132L42.0354 20.6902C42.2199 21.1603 42.646 21.3774 43.1534 21.3403C43.7327 21.3168 44.3386 21.078 44.8705 20.7936C44.7862 21.3579 44.7394 21.9522 44.8391 22.495C44.9246 22.978 45.1342 23.4502 45.5035 23.7313C46.3458 24.4191 46.9208 22.5716 47.1498 21.9844L47.1984 21.8426C47.9449 22.5967 49.7927 23.7809 50.1261 22.0653C50.346 21.2043 49.5257 20.5865 48.788 20.3414L49.0294 20.2666C50.0273 19.9084 50.7571 19.3558 50.8095 18.2518C50.8445 17.6369 49.6352 17.7332 49.1922 17.713C49.0038 17.7206 48.6905 17.7248 48.5092 17.732C48.4844 17.7334 48.4489 17.7355 48.424 17.737C48.4453 17.7358 48.3572 17.7516 48.3265 17.7143L48.326 17.7072Z" fill="black"/>
<path d="M47.2532 19.4338C47.2974 19.0632 47.0266 18.7262 46.6482 18.681C46.2698 18.6358 45.9271 18.8996 45.8829 19.2702C45.8386 19.6407 46.1095 19.9778 46.4879 20.023C46.8663 20.0682 47.2089 19.8044 47.2532 19.4338Z" fill="#FFE8C2"/>
<path d="M46.5023 19.8883C47.2795 20.017 47.4232 18.8897 46.6316 18.8189C45.9603 18.7944 45.8494 19.7522 46.5023 19.8883ZM46.4686 20.1611C45.3184 20.0508 45.5269 18.3924 46.6618 18.5463C47.6815 18.7391 47.4974 20.2072 46.4686 20.1611Z" fill="black"/>
<path d="M16.1389 33.7843C16.1389 33.7843 14.1005 35.2871 13.7767 34.1482C13.4528 33.0058 13.9069 32.4303 14.704 31.8096C14.704 31.8096 13.1194 31.8854 13.1719 30.4215C13.2247 28.9611 15.5866 29.862 15.5866 29.862C15.5866 29.862 15.1952 27.5764 16.2528 27.6885C16.2528 27.6885 17.5033 27.7465 17.9044 29.8927C17.9044 29.8927 19.2095 27.9807 20.3244 29.0016C20.3244 29.0016 21.0556 30.6437 19.1111 31.5031C19.1111 31.5031 21.1342 31.854 21.022 32.9117C21.022 32.9117 20.5953 34.6756 18.2913 33.4292C18.2913 33.4292 18.8521 34.5398 18.2284 35.503C18.0422 35.7883 17.7062 35.9507 17.3743 35.8812C16.9233 35.7867 16.338 35.3474 16.1355 33.7881L16.1389 33.7843Z" fill="#D6F9FB"/>
<path d="M16.105 33.8648C16.105 33.8648 16.1384 33.8878 16.1595 33.883C16.1839 33.8744 16.1666 33.8826 16.167 33.8897C16.0351 34.0685 15.8707 34.2421 15.6974 34.3841C15.0833 34.9655 13.7228 35.3986 13.379 34.2823C13.0175 33.1671 13.6035 32.1099 14.6502 31.7346C14.65 31.731 14.7096 31.895 14.7094 31.8914C13.5388 32.2206 12.5419 31.207 12.8932 30.0354C13.3169 28.8845 14.8475 29.2823 15.6212 29.7746L15.5024 29.8743C14.27 26.2594 18.0434 26.8062 17.996 29.866C18.0073 29.876 17.8339 29.8364 17.8339 29.8364C18.1083 29.414 18.4306 29.0209 18.8765 28.7273C19.1 28.5894 19.3671 28.4668 19.6772 28.4699C20.0087 28.4717 20.3068 28.6322 20.5568 28.8241C21.0193 30.0189 20.3154 31.1935 19.1515 31.5757C19.1486 31.5866 19.1273 31.4061 19.1275 31.4097C19.9149 31.5912 21.1312 31.9149 21.112 32.9172C20.964 33.4889 20.4382 33.9368 19.8478 33.9538C19.2836 33.9943 18.7422 33.7555 18.2537 33.5064C18.243 33.507 18.3748 33.3852 18.3712 33.3854C19.1899 34.3383 18.785 36.5926 17.1984 36.2124C16.3312 35.9465 16.0102 34.9749 16.0196 34.1692C16.0087 34.0451 16.0806 33.9945 16.0979 33.8652L16.105 33.8648ZM16.1737 33.7004C16.4912 34.2518 16.6478 35.0335 17.1935 35.4039C17.6992 35.7624 18.0848 35.2337 18.2038 34.7742C18.3415 34.3314 18.2905 33.7679 18.1792 33.2721L18.3407 33.3516C18.9914 33.6909 19.8919 34.0368 20.5344 33.5143C21.703 32.4868 20.0524 31.747 19.1025 31.5893L18.8717 31.5423L19.0818 31.4195C19.0818 31.4195 19.4052 31.2258 19.4088 31.2256C20.1209 30.7952 20.4614 29.863 20.0786 29.1124L20.1446 29.2047C19.8482 28.8909 19.4505 28.8538 19.0595 29.0514C18.6089 29.2633 18.2117 29.6573 17.8864 30.0613C17.5623 29.2788 17.1665 28.3081 16.3421 28.0432C16.2155 28.0115 16.133 28.0021 16.0411 28.0753C15.7154 28.5327 15.7579 29.2535 15.6789 29.846L15.6676 29.9572L15.5563 29.9424C14.9418 29.9145 13.514 29.5677 13.5246 30.472C13.5213 30.7181 13.5615 30.9758 13.7151 31.1627C13.9294 31.4743 14.4787 31.6663 14.9165 31.7794C14.9165 31.7794 14.7547 31.8745 14.7549 31.878C14.1657 32.5791 13.8456 33.2536 14.2088 34.0944C14.2201 34.1044 14.2272 34.104 14.228 34.1182C14.2353 34.1213 14.2458 34.1171 14.2504 34.1347C14.2683 34.1372 14.2898 34.1394 14.3082 34.1491C14.7374 34.1772 15.3078 33.9404 15.7453 33.8077C15.8255 33.778 15.959 33.7452 16.0396 33.7226C16.0502 33.722 16.0396 33.7226 16.0813 33.7059C16.1127 33.6934 16.1484 33.6948 16.1701 33.7007L16.1737 33.7004Z" fill="black"/>
<path d="M17.0467 32.384C17.3742 32.3647 17.624 32.0836 17.6047 31.7561C17.5854 31.4286 17.3042 31.1788 16.9767 31.1981C16.6493 31.2175 16.3995 31.4986 16.4188 31.8261C16.4381 32.1536 16.7193 32.4034 17.0467 32.384Z" fill="#FFE8C2" stroke="black" stroke-width="0.177838" stroke-miterlimit="10"/>
<path d="M49.0456 24.7334C49.0456 24.7334 47.0825 22.3802 48.89 21.4932C50.6975 20.6062 51.0313 23.8466 51.0313 23.8466C51.0313 23.8466 51.0501 20.9666 53.032 20.9814C55.0138 20.9962 53.1875 24.3998 53.1875 24.3998C53.1875 24.3998 55.537 22.7967 56.2533 23.3423C56.9696 23.8879 56.602 24.9642 54.7944 26.2111C54.7944 26.2111 56.4212 26.1257 57.2975 26.8472C57.9678 27.399 57.7068 28.4691 56.8685 28.6932C56.3144 28.8434 55.4731 28.8361 54.2409 28.3637C54.2409 28.3637 55.811 29.429 56.2239 30.5697C56.4237 31.1173 55.9067 31.6537 55.3511 31.4763C54.7447 31.2841 53.8167 30.8329 52.6113 29.7889C52.6113 29.7889 53.6615 33.7566 52.0469 33.3852C52.0469 33.3852 50.4323 32.832 50.9931 29.9593C50.9931 29.9593 48.7394 33.1849 48.0606 32.3699C48.0606 32.3699 46.8436 31.3693 49.197 29.228C49.197 29.228 48.3844 29.7071 46.1471 29.5898C45.8753 29.5737 45.6368 29.3954 45.5467 29.1371C45.34 28.5329 45.4306 27.4729 48.4054 27.1655C48.4054 27.1655 45.3734 26.3219 45.5057 24.8818C45.5057 24.8818 45.4598 23.2598 49.0488 24.7261L49.0456 24.7334Z" fill="white"/>
<path d="M48.9751 24.6806C48.9507 24.6892 48.9392 24.7362 48.9509 24.7533C48.9319 24.733 48.8581 24.6305 48.8312 24.5965C48.344 23.8877 47.8131 22.982 48.1494 22.0999C48.4489 21.5014 49.1882 21.1086 49.8458 21.3228C50.7767 21.7631 50.9668 22.9312 51.1201 23.8378C51.1201 23.8378 50.9391 23.8485 50.9426 23.8483C50.9006 22.8353 51.1161 21.597 52.0602 20.9925C53.4394 20.2733 54.539 21.035 54.1139 22.5851C53.9405 23.2687 53.6344 23.8782 53.2655 24.4487C53.2655 24.4487 53.1339 24.3318 53.1374 24.3315C53.9071 23.6091 54.9519 22.7779 56.0795 22.8681C56.5396 22.9371 56.8837 23.3337 56.9707 23.781C57.0877 25.039 55.8212 25.8548 54.8457 26.2901L54.7897 26.1259C55.4411 26.116 56.09 26.1846 56.706 26.419C57.8609 26.789 58.2089 28.0975 57.0768 28.7166C56.1318 29.0645 55.1066 28.7794 54.2072 28.4513L54.2905 28.2932C54.8823 28.6003 55.4225 28.9995 55.8835 29.5067C56.2289 29.9246 56.6615 30.4335 56.5443 31.0425C56.3705 31.7796 55.5488 31.9849 54.9587 31.6456C54.0303 31.248 53.2296 30.6004 52.5592 29.8669C52.5341 29.8648 52.6997 29.7731 52.6995 29.7695C53.0314 30.744 53.6471 32.7848 52.6943 33.543C52.0682 33.922 51.4373 33.3749 51.1281 32.905C50.563 32.0227 50.6431 30.9064 50.9069 29.943L51.0678 30.0119C50.4109 31.0163 49.7298 32.1539 48.5923 32.6806C48.3764 32.7646 48.0491 32.7127 47.898 32.5078L47.9281 32.5346C47.1048 31.6853 47.7716 30.488 48.4401 29.8001C48.6616 29.5697 48.8986 29.3597 49.1434 29.16L49.248 29.3034C48.3442 29.8057 47.2899 29.811 46.2903 29.7773C45.9001 29.8075 45.4604 29.5413 45.3693 29.1441C44.9572 27.476 47.2287 27.1459 48.4004 27.0768L48.3858 27.2522C47.3697 27.1198 46.3235 26.7789 45.5831 26.0067C44.9012 25.3202 45.0213 24.0945 46.0371 23.86C46.8074 23.6898 47.4833 23.9136 48.1692 24.1866C48.5473 24.3139 48.6455 24.4685 48.982 24.6766L48.9751 24.6806ZM49.1203 24.786C48.4613 24.7287 47.7453 24.4895 47.0838 24.4502C46.6692 24.4284 46.2331 24.4042 45.9535 24.6773C45.5932 25.2116 46.3166 25.8174 46.7663 26.1329C47.3792 26.5563 48.117 26.9225 48.8044 27.2809L48.4113 27.2614C48.4078 27.2616 48.4007 27.262 48.3971 27.2622C47.4491 27.4393 45.3625 27.7015 45.702 29.046C45.7379 29.1722 45.8112 29.2676 45.9148 29.3328C46.0258 29.401 46.1154 29.41 46.2973 29.4135C47.2428 29.4361 48.2585 29.4402 49.1503 29.156L49.4821 29.0438L49.2549 29.2995C48.6172 30.0248 47.4023 31.2936 48.2206 32.2394C48.7986 32.5544 50.4797 30.3709 50.9159 29.914L51.0926 29.7076C51.0746 29.9474 51.0628 30.2296 51.0376 30.4662C51.0135 31.2052 51.0694 32.032 51.5151 32.6399C51.813 33.0392 52.3703 33.4873 52.5987 32.8289C52.8483 31.8059 52.6066 30.6693 52.4944 29.6142C53.4503 30.2347 54.4469 30.9419 55.5428 31.2192C56.957 30.9718 54.2989 28.5563 53.8684 28.1435C54.5827 28.4149 55.3364 28.6875 56.0995 28.6994C56.4061 28.7027 56.7286 28.673 56.9999 28.5608C57.5492 28.3288 57.7741 27.5531 57.3866 27.0843C56.7549 26.4018 55.6805 26.3085 54.7932 26.3074L54.5163 26.3843C55.1093 25.6866 55.9194 25.0438 56.1754 24.1914C56.3054 23.4355 55.616 23.5866 54.8583 23.8487C54.3278 24.0368 53.7855 24.2648 53.2318 24.4827L52.9775 24.7008C53.305 23.7302 53.8426 22.6367 53.6475 21.6257C53.5727 21.3842 53.4026 21.2803 53.1196 21.2542C51.742 21.1538 51.2715 22.7208 51.1139 23.8524L50.9363 23.8629C50.7904 23.02 50.6105 21.9047 49.774 21.4945C49.2319 21.3056 48.5446 21.6739 48.3035 22.1763C48.0221 22.9019 48.4465 23.6928 48.8355 24.3076C48.8823 24.3761 48.9912 24.53 49.0375 24.5914C49.0873 24.649 49.1412 24.7171 49.1134 24.79L49.1203 24.786Z" fill="black"/>
<path d="M51.8196 27.9937C52.4314 27.9575 52.8981 27.4323 52.862 26.8205C52.8259 26.2087 52.3006 25.742 51.6888 25.7781C51.077 25.8142 50.6103 26.3395 50.6465 26.9513C50.6826 27.5631 51.2078 28.0298 51.8196 27.9937Z" fill="#FFE8C2"/>
<path d="M52.7164 26.8934C52.6393 25.7079 50.8876 25.6688 50.788 26.8789C50.7565 28.2169 52.7355 28.2426 52.7164 26.8934ZM53.0086 26.8939C52.9018 28.4644 50.5828 28.473 50.4956 26.8748C50.504 25.1463 53.0305 25.1539 53.0086 26.8939Z" fill="black"/>
<path d="M59.0678 28.3283C59.0678 28.3283 56.9595 29.0086 57.0053 27.9726C57.0546 26.9365 57.5894 26.5807 58.4237 26.2891C58.4237 26.2891 57.0867 25.912 57.5397 24.7131C57.9891 23.5143 59.7004 24.9204 59.7004 24.9204C59.7004 24.9204 60.0095 22.914 60.859 23.3021C60.859 23.3021 61.8798 23.6944 61.621 25.5873C61.621 25.5873 63.2375 24.3624 63.8758 25.5183C63.8758 25.5183 64.0288 27.0841 62.1757 27.2577C62.1757 27.2577 63.7579 28.1084 63.3699 28.9579C63.3699 28.9579 62.5266 30.3046 60.9598 28.6299C60.9598 28.6299 61.1196 29.7072 60.3298 30.331C60.0948 30.5159 59.773 30.5563 59.5148 30.4076C59.1679 30.2036 58.8018 29.6765 59.0676 28.3248L59.0678 28.3283Z" fill="white"/>
<path d="M59.008 28.3961C59.008 28.3961 59.0381 28.4229 59.0561 28.4254C59.0596 28.4252 59.0809 28.4239 59.0561 28.4254C58.6776 28.5332 58.2909 28.6202 57.8928 28.6366C57.5377 28.6575 57.0272 28.5808 56.9311 28.1589C56.8859 27.6948 57.0021 27.1891 57.3262 26.8244C57.6172 26.5044 58.014 26.3456 58.3908 26.2093C58.3904 26.2022 58.3973 26.3799 58.4009 26.3797C57.9322 26.4074 57.4735 26.1815 57.2307 25.7505C56.9821 25.2806 57.0951 24.7217 57.3804 24.3022C58.0788 23.4593 59.2354 24.2212 59.7575 24.8566L59.6147 24.9114C59.6461 21.5817 62.5861 23.1006 61.7111 25.6C61.7189 25.6102 61.5674 25.5194 61.5674 25.5194C62.2254 25.0174 63.4937 24.5327 63.9649 25.5132C64.0344 26.3892 63.3777 27.1548 62.531 27.2974L62.185 27.3499L62.2179 27.1841C62.8243 27.558 63.7549 28.1729 63.4479 29.0069C63.16 29.4408 62.5996 29.6663 62.1025 29.5139C61.6213 29.3891 61.2373 29.0412 60.8999 28.6977C60.8857 28.6986 61.0522 28.6211 61.0486 28.6213C61.3584 29.7645 60.1514 31.5282 59.0796 30.2731C58.7372 29.7839 58.7757 29.1688 58.8968 28.6236C58.9145 28.5014 58.9571 28.4989 59.0116 28.3959L59.008 28.3961ZM59.125 28.2645C59.175 28.6891 59.0838 29.1363 59.19 29.5469C59.3756 30.4588 60.1265 30.5641 60.5892 29.7707C60.8266 29.3862 60.8893 28.8801 60.8656 28.4183C61.0697 28.6165 61.3127 28.8693 61.5397 29.0341C62.0935 29.4824 62.8862 29.5104 63.286 28.9203C63.5381 28.1216 62.4818 27.5497 61.9059 27.2096L62.1636 27.1695C62.5849 27.1232 63.0368 26.9932 63.3467 26.6899C63.6702 26.4356 63.7968 25.8046 63.7966 25.5588C63.5966 25.1894 63.196 25.042 62.7954 25.1369C62.3443 25.2206 61.9208 25.47 61.5522 25.7448C61.476 24.9975 61.4537 24.076 60.8314 23.6139C60.7531 23.5544 60.7025 23.5431 60.6236 23.5335C60.4793 23.5634 60.3805 23.7011 60.2663 23.8789C60.0654 24.2185 59.9051 24.6413 59.7504 25.0388C59.3801 24.8611 58.9878 24.6741 58.6189 24.5818C58.3622 24.5186 58.0746 24.475 57.9345 24.697C57.5635 25.3531 58.0572 25.8691 58.594 26.3327L58.4575 26.3728C57.676 26.5935 57.0773 27.1348 57.0992 27.9886C57.1127 28.6399 58.0421 28.4496 58.4729 28.385C58.6103 28.359 58.7649 28.3214 58.9052 28.2846C58.9792 28.2696 59.0581 28.2186 59.1318 28.2606L59.125 28.2645Z" fill="black"/>
<path d="M60.3745 27.4354C60.6608 27.4185 60.8792 27.1727 60.8623 26.8864C60.8454 26.6001 60.5996 26.3817 60.3133 26.3986C60.027 26.4155 59.8086 26.6613 59.8255 26.9476C59.8424 27.2339 60.0882 27.4523 60.3745 27.4354Z" fill="#FFE8C2"/>
<path d="M60.3624 26.4883C59.8131 26.478 59.7928 27.2809 60.3254 27.31C60.8576 27.332 60.9099 26.5273 60.3624 26.4883ZM60.3697 26.3097C61.1887 26.3612 61.1463 27.5751 60.3119 27.5637C59.4817 27.5023 59.5489 26.2869 60.3697 26.3097Z" fill="black"/>
<path d="M43.7252 13.6001C43.7252 13.6001 44.1707 8.83512 45.9001 8.07387C47.6295 7.31263 45.4585 12.7852 43.7252 13.6001Z" fill="#D5F4C6"/>
<path d="M43.6732 13.6744C43.6208 13.6312 43.6373 13.5482 43.641 13.491C43.7064 12.4254 43.8789 11.3641 44.178 10.3346C44.4725 9.40867 44.8749 8.31959 45.8201 7.85405C46.0517 7.73349 46.5066 7.71376 46.6615 8.0431C47.2231 9.3496 45.0594 13.3752 43.6768 13.6742L43.6732 13.6744ZM43.7751 13.5294C43.8177 13.4663 43.8021 13.4423 43.8505 13.4181C44.6367 12.7945 45.124 11.875 45.5599 10.9905C45.8808 10.2697 46.2035 9.52025 46.293 8.74181C46.3128 8.59456 46.3142 8.31657 46.2212 8.2508C45.8048 8.25757 45.4525 8.6881 45.2268 9.02922C44.4223 10.3701 44.1188 11.9877 43.8313 13.5154L43.8236 13.5657L43.818 13.591C43.818 13.591 43.8188 13.6052 43.8184 13.5981C43.8207 13.5766 43.8008 13.5421 43.7791 13.5363L43.7751 13.5294Z" fill="black"/>
<path d="M16.3948 21.3275C16.3948 21.3275 13.1295 20.3944 11.8141 22.2536C10.4987 24.1127 15.7159 21.7774 16.3948 21.3275Z" fill="#D5F4C6"/>
<path d="M16.3063 21.3398C16.29 21.3657 16.3318 21.4096 16.3314 21.4025C16.3097 21.3966 16.2341 21.3833 16.2123 21.3775C14.7024 21.0889 12.5413 21.0562 11.777 22.6547C11.7624 22.709 11.7501 22.7418 11.7838 22.7684C12.4682 22.8954 13.2434 22.5076 13.9084 22.3044C14.5122 22.0907 15.1652 21.8063 15.7556 21.5469C15.8492 21.5022 16.1127 21.3798 16.2025 21.3317L16.2681 21.2958C16.2681 21.2958 16.2702 21.3313 16.3028 21.34L16.3063 21.3398ZM16.4828 21.3116C16.4621 21.3841 16.3702 21.4572 16.2976 21.4936C15.1699 22.1266 13.9791 22.6566 12.7276 23.0048C12.3175 23.1181 11.282 23.3217 11.4725 22.5658C11.8844 21.6365 12.81 21.1401 13.7187 21.0223C14.1744 20.9562 14.6337 20.9505 15.085 20.9915C15.5078 21.0307 15.9291 21.1056 16.3382 21.2168C16.3886 21.2245 16.4617 21.2558 16.4863 21.3114L16.4828 21.3116Z" fill="black"/>
<path d="M53.9413 20.2475C53.9413 20.2475 61.414 19.9666 60.1699 18.3869C58.9258 16.8071 53.9413 20.2475 53.9413 20.2475Z" fill="#D5F4C6"/>
<path d="M54.0252 20.2176C54.0262 20.1748 53.9753 20.1564 53.9644 20.1535C54.0106 20.1508 54.1064 20.1451 54.1562 20.1422C54.5465 20.1156 55.2827 20.0329 55.6793 19.9917C57.0751 19.7953 58.5918 19.7164 59.8501 19.0614C60.0351 18.9364 60.1948 18.8059 60.0749 18.5849C59.2284 17.4021 56.5152 18.9412 55.5009 19.4428C55.0136 19.6996 54.5037 19.9934 54.0365 20.2882L54.0125 20.3039C54.0125 20.3039 53.992 20.3193 54.0156 20.2966C54.0359 20.2776 54.0367 20.2312 54.0217 20.2178L54.0252 20.2176ZM53.8575 20.2738C53.8385 20.193 53.9283 20.145 53.9832 20.1096C54.4245 19.7986 54.9048 19.4852 55.3694 19.2083C56.5742 18.5529 59.3475 16.8856 60.4063 18.405C60.4974 18.56 60.5407 18.8104 60.4307 18.9986C59.6663 20.1732 55.5535 20.2735 54.1673 20.3304C54.0351 20.3239 53.9093 20.367 53.8575 20.2738Z" fill="black"/>
</g>
</g>
<defs>
<clipPath id="clip0_1260_240">
<rect y="0.522217" width="76" height="76" rx="38" fill="white"/>
</clipPath>
<clipPath id="clip1_1260_240">
<rect width="52.2594" height="29.9443" fill="white" transform="translate(10.6865 9.86743) rotate(-3.37862)"/>
</clipPath>
</defs>
</svg>