<svg xmlns="http://www.w3.org/2000/svg" fill="none" viewBox="-13.41 0.52 97.48 88.13">
<g clip-path="url(#clip0_1260_433)">
<rect y="0.522217" width="76" height="76" rx="38" fill="#FAFBFB"/>
<path d="M53.8023 59.514C52.1543 56.3783 54.9005 52.7231 58.3262 53.4802C67.8153 55.587 81.9484 59.448 83.2182 64.0188C83.2182 64.0188 85.6115 70.3951 79.2145 77.3722C76.9203 79.8707 73.232 80.664 70.3515 79.2551C68.0907 78.1485 65.5695 76.0453 62.324 72.2184C59.0785 68.3916 56.1814 64.0508 53.8003 59.5184L53.7992 59.5152L53.8023 59.514Z" fill="white"/>
<path d="M53.3908 59.6165C52.5985 58.1232 52.7618 56.1818 53.7769 54.8161C54.7769 53.3878 56.637 52.6291 58.3206 53.0005C61.3634 53.6515 64.3509 54.3877 67.3363 55.2182C71.6504 56.5338 82.13 59.4274 83.6157 63.864C85.1713 69.2421 82.5079 74.9702 78.5185 78.5221C76.7821 79.8714 74.5279 80.5425 72.3612 80.2245C69.185 79.7093 66.6486 77.2414 64.4349 75.0816C60.1153 70.6141 56.0673 64.8124 53.3876 59.6177L53.3908 59.6165ZM54.212 59.4125C56.5879 64.0006 60.7446 70.3303 64.9316 74.5844C68.6678 78.4196 72.9366 81.7084 78.0639 77.932C81.4267 74.8824 83.7399 70.2263 83.1376 65.6202C82.9487 63.3779 81.6648 62.2252 79.8529 61.0995C75.9101 58.7615 71.4492 57.4536 67.0619 56.1723C64.1134 55.3353 61.1119 54.5899 58.1303 53.9307C56.7746 53.621 55.3082 54.2047 54.4882 55.347C53.5908 56.5323 53.5424 58.1146 54.2109 59.4093L54.212 59.4125Z" fill="#221F1F"/>
<mask id="mask0_1260_433" style="mask-type:luminance" maskUnits="userSpaceOnUse" x="-14" y="48" width="40" height="41">
<path d="M10.3875 48.4408L-13.4092 73.375L2.05892 88.6509L25.8556 63.7167L10.3875 48.4408Z" fill="white"/>
</mask>
<g mask="url(#mask0_1260_433)">
<path d="M22.481 62.8073C23.3648 59.355 19.8583 56.5177 16.6997 58.1176C7.95816 62.5631 -4.89402 69.8869 -5.08092 74.6298C-5.08092 74.6298 -5.94589 81.4036 1.87199 86.5301C4.67377 88.3654 8.43953 88.195 10.9176 86.102C12.8597 84.4552 14.8298 81.7807 17.1065 77.2566C19.3831 72.7326 21.2067 67.7988 22.4777 62.8078L22.481 62.8073Z" fill="white"/>
<path d="M21.8773 62.8163C22.205 61.4352 21.8448 60 20.7237 59.112C19.7163 58.276 18.2584 58.1003 17.0831 58.7098C14.3544 60.1113 11.599 61.579 8.91431 63.1062C4.93804 65.4274 0.914732 67.8151 -2.40145 71.0298C-3.90686 72.5625 -4.88249 73.9477 -4.57507 76.1515C-4.14204 80.7585 -0.852526 84.6942 3.11151 86.7877C5.37336 87.8009 8.17919 87.6583 10.2459 86.1949C12.296 84.6284 13.7866 82.4346 15.0904 80.1983C18.1082 75.1101 20.7807 67.4142 21.8812 62.8191L21.8773 62.8163ZM23.0765 62.7979C21.4824 69.2616 16.4305 82.341 10.628 86.754C8.3501 88.3399 5.30853 88.5579 2.8094 87.4632C-0.0462756 86.0102 -2.46052 83.7136 -4.05518 80.8972C-4.95233 79.2277 -5.53947 77.3534 -5.6039 75.4355C-5.68995 74.332 -5.35584 73.1173 -4.71981 72.1747C-1.00472 66.6085 10.3994 60.5406 16.4927 57.4483C19.988 55.7039 24.0526 58.9908 23.0699 62.799L23.0765 62.7979Z" fill="#221F1F"/>
</g>
<path d="M19.9851 73.8452L17.1582 43.6808C17.1382 43.4807 17.1148 43.2806 17.0882 43.0805C16.8115 40.9743 15.3281 24.2099 37.613 22.0122C37.613 22.0122 58.3945 20.3503 59.8379 39.733L61.1413 70.5418C61.2513 71.973 61.0713 73.35 60.6513 74.6388C59.9412 76.8128 58.5545 78.6578 56.8143 80.1941C55.9209 80.981 54.9475 81.6593 53.9275 82.2562C50.7306 84.1283 47.117 85.1933 43.4201 85.4884L40.2198 85.7427C37.713 85.9428 35.1895 85.78 32.7426 85.2272C31.0892 84.8541 29.5524 84.4539 28.099 83.8265C25.0187 82.5004 22.5019 80.5469 21.1085 77.8065C20.4951 76.6025 20.1017 75.2696 19.9917 73.8418H19.9851V73.8452Z" fill="white"/>
<path d="M19.8251 74.1401C18.6484 64.3182 17.2583 52.7734 16.2782 42.9956C15.3148 32.9261 20.9686 25.407 30.3392 22.592C32.6261 21.8594 35.0229 21.483 37.3897 21.2117C40.7833 20.9946 44.1602 21.4762 47.4104 22.4801C55.5977 25.078 60.228 31.5084 60.628 40.167C60.9814 48.3644 61.4148 60.4993 61.7415 68.7306C61.8281 70.6672 61.9881 72.7598 61.3381 74.6353C59.4513 80.4382 53.6976 83.7789 48.2038 85.2644C45.5436 86.0241 42.4834 86.0987 39.7432 86.3124C33.5761 86.5905 25.3989 84.7285 21.6119 79.3699C20.4852 77.7623 19.7951 75.8393 19.6651 73.8722L20.1452 74.1503C20.0652 74.2012 19.9085 74.1978 19.8285 74.1469L19.8251 74.1401ZM20.1485 73.5466C20.0752 73.4923 19.9218 73.4889 19.8451 73.5364L20.3252 73.8145C21.0686 81.8762 30.0625 84.9422 36.923 85.2814C38.5265 85.4374 40.8466 85.1152 42.4668 85.0134C49.2039 84.6234 57.8178 81.2793 60.0947 74.2419C60.678 72.5122 60.4847 70.6129 60.3947 68.812C60.0013 60.5706 59.4546 48.4695 59.0913 40.2586C58.7012 32.2613 54.5109 26.4075 46.9237 24.0233C43.9135 23.0974 40.6733 22.6463 37.5297 22.8498C35.2762 23.1177 32.9627 23.4874 30.8126 24.1827C22.122 26.784 16.9183 33.8282 17.895 43.155C18.7584 52.5835 19.4918 64.0299 20.1452 73.5466H20.1485Z" fill="#221F1F"/>
<path d="M37.8187 22.1219C38.3017 22.0822 38.5553 21.5239 38.2748 21.1269C35.6066 17.3428 24.7336 3.47677 14.8241 13.1294C4.72674 22.9631 23.9849 16.5339 30.5799 16.8366C32.6115 16.9309 34.5505 17.7944 35.9188 19.3254C36.5066 19.9855 36.9919 20.7597 37.1675 21.6281C37.231 21.9383 37.5114 22.1492 37.8212 22.1269V22.1219H37.8187Z" fill="white"/>
<path d="M37.5749 22.1319C37.5871 22.0773 37.6432 21.9557 37.7456 21.9061C37.8359 21.859 37.8749 21.8714 37.9456 21.8317C38.1651 21.7101 38.2066 21.4123 38.0359 21.2262L37.9627 21.1245C36.692 19.3676 35.2871 17.7026 33.7579 16.1741C29.1629 11.4967 22.4972 7.5736 16.4949 12.1542C15.0022 13.323 13.4754 14.7845 12.5388 16.4471C12.3388 16.8714 12.1559 17.3478 12.4583 17.715C12.6949 17.9533 13.0169 18.0575 13.3827 18.1394C14.3266 18.3255 15.3022 18.2833 16.268 18.2212C20.2192 17.916 24.1508 17.0103 28.1166 16.6232C29.4629 16.4992 30.8531 16.4222 32.1823 16.7647C34.4872 17.3528 36.7457 19.0426 37.3847 21.4595L37.4115 21.586C37.4456 21.7647 37.6212 21.8937 37.7993 21.8813C37.7993 21.8763 37.5651 22.1443 37.5725 22.1245L37.8139 22.3726C37.7749 22.3726 37.7017 22.3602 37.6456 22.3007C37.5871 22.2436 37.5725 22.1716 37.5725 22.1344L37.5749 22.1319ZM38.0627 22.1121C38.0627 22.0748 38.0481 22.0029 37.992 21.9458C37.9334 21.8887 37.8627 21.8739 37.8261 21.8739C37.8261 21.8788 38.0749 22.1195 38.0676 22.127V22.3652L37.8408 22.3751C37.4895 22.4049 37.131 22.1964 36.9871 21.8664C36.4408 19.5265 34.2652 17.9011 32.0457 17.3552C30.8019 17.0426 29.4921 17.1245 28.18 17.251C24.2044 17.6629 20.3289 18.5835 16.3217 18.9136C14.451 19.0773 10.4535 19.1642 11.9315 16.1344C12.2608 15.4818 12.6949 14.9408 13.1388 14.4173C14.0461 13.385 15.0071 12.4222 16.1095 11.6108C19.6241 8.92595 23.8849 8.88129 27.7312 10.859C32.097 13.1096 35.514 16.8565 38.3749 20.8242L38.4481 20.9284L38.4846 20.9806C38.8432 21.4669 38.5578 22.2337 37.97 22.3503C37.9578 22.3552 38.0017 22.3404 38.0212 22.3205C38.0798 22.2758 38.0968 22.1617 38.0676 22.1121H38.0627Z" fill="#221F1F"/>
<path d="M24.5967 26.4549C24.5967 26.4549 37.4309 27.6657 49.6285 24.4539L24.5967 26.4549Z" fill="white"/>
<path d="M23.8486 26.5872C23.8486 26.5872 37.9863 27.764 50.1838 24.5522" stroke="#221F1F" stroke-width="0.676267" stroke-miterlimit="10"/>
<path d="M16.9287 40.4791C16.9287 40.4791 38.1669 33.7266 59.3951 37.2131L16.9287 40.4791Z" fill="white"/>
<path d="M16.8281 40.1534C19.3316 39.0477 21.9818 38.5322 24.6187 37.9319C28.9957 37.006 33.496 36.3108 37.9463 35.9106C42.3566 35.5036 47.0069 35.4459 51.4339 35.6867C52.2873 35.7613 54.6408 35.958 55.4742 36.0361C56.8143 36.2362 58.1477 36.4837 59.4478 36.8772L59.3412 37.5453C57.571 37.6097 55.7742 37.3214 54.0141 37.2129C45.1835 36.477 36.2062 37.1451 27.4822 38.6374C25.9688 38.9189 23.7386 39.3428 22.2485 39.6921C20.5151 40.0889 18.7849 40.5095 17.0281 40.8046L16.8281 40.1568V40.1534Z" fill="#221F1F"/>
<path d="M18.9316 61.2149C22.7219 59.8209 37.3196 55.5815 61.5547 57.2739L18.9316 61.2149Z" fill="white"/>
<path d="M18.8193 60.8963C25.4398 58.4272 32.4936 57.3826 39.4941 56.7857C43.0011 56.5246 46.518 56.3923 50.0316 56.4161C53.5418 56.433 57.0687 56.4466 60.5423 57.1147L60.4956 57.793C56.9921 58.0406 53.5218 57.6879 50.0249 57.7082C43.0611 57.654 36.0772 58.0474 29.1967 59.153C25.7632 59.716 22.3429 60.4418 19.046 61.5373L18.8193 60.8997V60.8963Z" fill="#221F1F"/>
<path d="M52.0679 57.2603C52.3845 49.7243 51.7578 36.6397 51.7578 36.6397C51.7578 36.6397 33.9699 35.2593 24.6426 39.1054C24.6426 39.1054 25.546 52.1764 27.4328 59.2986" stroke="#221F1F" stroke-width="0.676267" stroke-miterlimit="10"/>
<path d="M24.7659 38.9291C24.5325 41.3676 26.5294 55.4696 27.4127 58.7764C33.7565 57.162 46.2508 56.5244 51.9178 56.5821C52.2912 52.4444 51.7111 41.934 51.4378 36.9789L51.4245 36.7653C40.907 35.3374 29.3596 37.7149 24.7659 38.9291Z" fill="#5BC2C7"/>
<path d="M38.304 48.673L38.1807 44.8846C38.1807 44.7625 38.304 44.6811 38.4107 44.7354L42.0176 46.6313C42.1309 46.6889 42.1309 46.8551 42.0176 46.9162L38.534 48.8086C38.4307 48.8629 38.3073 48.7917 38.3007 48.673H38.304Z" fill="white" stroke="black" stroke-width="0.162304"/>
<path d="M37.1723 20.5812C37.1723 20.5812 20.4823 20.5187 17.179 39.9856L9.58495 40.4484C9.58495 40.4484 10.2152 15.6628 36.8303 14.6006C63.4454 13.5384 66.6483 36.9708 66.6483 36.9708L59.4904 37.407C59.4904 37.407 56.197 19.4145 37.1683 20.5814L37.1723 20.5812Z" fill="white"/>
<path d="M37.1899 21.7569C30.1931 22.0634 24.0213 26.1256 20.7709 31.7039C19.2051 34.304 18.1646 37.1011 17.3711 40.0067L17.3434 40.1538L17.1834 40.1636L9.59322 40.6262L9.38157 40.6463L9.38198 40.4427C9.54236 33.8387 11.9015 27.0679 16.7287 21.9606C24.158 14.052 36.9946 12.3027 47.4959 14.9344C58.3666 17.6344 65.4689 27.1076 66.8424 36.9444L66.8698 37.1427L66.6534 37.1486L59.4993 37.5846L59.3233 37.5953C58.6264 35.2385 57.4935 32.981 56.1472 30.922C52.0106 24.5143 45.4683 21.1833 37.1897 21.7533L37.1899 21.7569ZM37.1477 19.4039C46.2158 18.8076 53.7193 22.8689 57.4559 30.286C58.5887 32.5435 59.3989 34.9152 59.688 37.3732L59.4788 37.226L66.6328 36.79L66.444 36.9978C64.1873 26.6731 56.3925 17.5185 44.4852 15.7868C36.8068 14.637 28.3199 15.5651 21.7833 19.7077C15.1991 23.9296 11.5324 31.0055 10.148 38.0404C9.99689 38.8385 9.85041 39.6472 9.77975 40.4476L9.5685 40.2641L17.1627 39.8013L16.9749 39.9582C17.1533 37.25 17.8034 34.5057 18.88 31.9173C21.827 24.8962 28.7591 19.8061 37.1477 19.4039Z" fill="black"/>
<path d="M9.21071 41.2418C9.21071 41.2418 4.07137 39.9725 4.68495 46.8431C4.92166 49.477 5.8212 52.0157 7.26036 54.2372C8.27081 55.7943 9.54998 57.2064 10.6132 56.5825L12.9089 45.5494L9.20739 41.2411L9.21071 41.2418Z" fill="#828282"/>
<path d="M9.12197 41.3858C9.17089 41.4165 9.14643 41.4012 9.13511 41.4057L9.09726 41.4049L9.01756 41.4058C7.50504 41.3644 5.99105 42.1443 5.66001 43.7021C4.83282 47.229 7.04784 53.6137 9.55368 56.1751C9.84084 56.4066 10.1506 56.5462 10.5326 56.4382L10.4507 56.5491L12.7464 45.5161L12.7819 45.6614L9.12128 41.3891L9.12197 41.3858ZM9.29944 41.0978L13.0392 45.4381L13.0919 45.5007L10.7631 56.6926C9.85234 57.4479 8.64442 56.7236 7.92675 56.0688C5.21373 53.5064 3.80438 49.7791 3.78351 46.0747C3.76103 44.1889 4.4079 41.7778 6.41228 41.0503C7.3606 40.6962 8.37503 40.7388 9.29682 41.0938L9.29944 41.0978Z" fill="black"/>
<path d="M16.6358 40.6398C16.4728 38.5935 14.6782 37.0698 12.6275 37.2366C10.5768 37.4033 9.04651 39.1974 9.20948 41.2437L10.3416 55.4582C10.5046 57.5045 12.2991 59.0282 14.3498 58.8614C16.4005 58.6946 17.9309 56.9005 17.7679 54.8542L16.6358 40.6398Z" fill="white"/>
<path d="M12.7101 38.2636C11.2929 38.4454 10.1004 39.7573 10.1832 41.2033C10.1923 41.326 10.2042 41.6839 10.2093 41.8092C10.3889 46.1296 10.4802 50.4595 10.6525 54.7819C10.6476 55.8025 10.8444 56.8336 11.5833 57.5859C13.0139 59.1671 15.7243 58.9677 16.9481 57.2066C17.5875 56.3266 17.6697 55.2838 17.5242 54.2219C17.3111 52.0726 17.0774 49.9226 16.7979 47.7769C16.529 45.63 16.2281 43.4869 15.942 41.3398L15.8872 40.9386C15.81 39.3488 14.2766 38.0122 12.7035 38.2622L12.7101 38.2636ZM12.5468 36.2073C14.976 36.0468 17.2429 37.962 17.3969 40.3787C17.4995 42.8263 17.5139 45.2661 17.6059 47.715C17.6708 49.8787 17.7815 52.038 17.9102 54.1941C18.3285 56.5202 16.8004 58.8469 14.3682 59.0551C11.8854 59.2909 9.9619 57.2702 9.93083 54.8442C9.67257 52.696 9.39634 50.5511 9.11681 48.4054C8.81349 45.9753 8.47426 43.5516 8.22343 41.1185C8.00145 38.6463 10.0419 36.2833 12.5461 36.2106L12.5468 36.2073Z" fill="black"/>
<path d="M67.7076 37.4472C67.7076 37.4472 72.6297 35.6022 72.7251 42.5187C72.7602 45.1703 72.1341 47.802 70.9455 50.1784C70.1107 51.8443 68.997 53.3959 67.8886 52.8941L64.5108 42.1576L67.7108 37.4461L67.7076 37.4472Z" fill="#828282"/>
<path d="M67.6048 37.3154C68.4676 36.9027 69.4596 36.7779 70.4008 37.0396C72.3709 37.5733 73.1806 39.8339 73.3296 41.6726C73.6566 45.3192 72.6894 49.1369 70.3936 52.0209C69.795 52.7588 68.7155 53.6236 67.7515 53.0209C67.7068 52.9682 64.3914 42.2728 64.35 42.2083L64.3247 42.1278L64.3701 42.0594L67.6038 37.3122L67.6048 37.3154ZM67.8085 37.5824L64.6456 42.2529L64.6657 42.1041L68.0429 52.8394L67.9512 52.7382C68.333 52.8219 68.6431 52.6662 68.9185 52.4117C71.2976 49.6248 72.8872 42.8959 71.5908 39.4236C71.0298 37.8417 69.3765 37.2746 67.8327 37.5922L67.7966 37.6006C67.7828 37.6016 67.7593 37.6164 67.8085 37.5824Z" fill="black"/>
<path d="M60.3368 37.6628L60.6715 51.9497C60.7197 54.0065 62.4181 55.6209 64.465 55.5557C66.5119 55.4905 68.1322 53.7703 68.084 51.7135L67.7493 37.4266C67.7011 35.3698 66.0027 33.7554 63.9558 33.8206C61.9089 33.8859 60.2887 35.6061 60.3368 37.6628Z" fill="white"/>
<path d="M63.9453 33.0951C66.2396 32.9245 68.3669 34.8749 68.4085 37.2114C68.4305 39.6646 68.4103 42.1069 68.3931 44.5589C68.3746 46.7268 68.3561 48.8947 68.3588 51.0628C68.4214 52.1906 68.197 53.4131 67.4336 54.2873C65.9875 56.1584 62.9844 56.2358 61.4889 54.4361C60.7207 53.5945 60.4703 52.4291 60.5059 51.3116C60.4565 49.6887 60.3134 46.4364 60.2195 44.8175C60.1117 42.3713 59.9233 39.9374 59.8187 37.4901C59.7646 35.2146 61.6891 33.1856 63.9443 33.0919L63.9453 33.0951ZM63.9781 34.5421C62.4136 34.5038 60.9667 35.9023 60.9285 37.5042C60.9069 37.6927 60.9215 38.0861 60.9123 38.2918C60.8906 40.4608 60.8509 42.6286 60.8504 44.7977C60.8321 46.418 60.8418 49.6825 60.8658 51.303C60.8361 52.3724 61.0163 53.4151 61.7449 54.2093C63.1244 55.8305 65.8062 55.7276 67.0715 53.9979C67.7233 53.1606 67.8331 52.1109 67.731 51.0815C67.631 48.9172 67.5129 46.7516 67.3959 44.5893C67.2715 42.4259 67.1746 40.2605 67.0714 38.0972C67.0551 37.8999 67.0543 37.4948 67.0261 37.3157C66.9015 35.7781 65.5042 34.5255 63.9823 34.5443L63.9781 34.5421Z" fill="black"/>
</g>
<defs>
<clipPath id="clip0_1260_433">
<rect y="0.522217" width="76" height="76" rx="38" fill="white"/>
</clipPath>
</defs>
</svg>