<?xml version="1.0" encoding="utf-8"?>
<!-- Generator: Adobe Illustrator 23.1.1, SVG Export Plug-In . SVG Version: 6.00 Build 0)  -->
<svg version="1.1" id="Layer_1" xmlns="http://www.w3.org/2000/svg" xmlns:xlink="http://www.w3.org/1999/xlink" x="0px" y="0px"
	 viewBox="0 0 100 100" style="enable-background:new 0 0 100 100;" xml:space="preserve">
<path d="M94,62.4c-0.4-0.5-3.3-4.4-10.7-21.6c-4.7-10.9-12.3-16.5-17.8-19.3c-6-3-11-3.4-11.2-3.4c-1.5-0.1-2.9,1-3,2.6
	c-0.1,1.5,1,2.9,2.6,3c0.1,0,12.4,1.1,20.7,12.8c-5.1-3.3-10.2-4.2-10.5-4.3c-12.6-10-28.1-13-43.9-11.3c-1.5,0.2-2.7,1.5-2.5,3.1
	c0.2,1.5,1.5,2.7,3.1,2.5c11.9-1.3,22.5,0.4,31.5,4.9c-2.8,0.2-4.6,0.6-5.5,0.8c-6.7-3.5-13.9-5-21.3-3.6c-1.5,0.3-2.5,1.8-2.2,3.3
	c0.3,1.5,1.8,2.5,3.3,2.2c4-0.7,8.1-0.5,12.3,0.8c-1.6,0.8-3.1,1.7-4.5,2.7c-0.1,0.1-4.2-1-9,0.3c-1.5,0.4-2.4,2-2,3.4
	c0.4,1.5,2,2.4,3.4,2c0.7-0.2,1.5-0.3,2.3-0.4c-0.9,1.2-1.5,2.5-2,3.9c-4.2-0.5-8.5-0.8-12.5-0.4c-1.5,0.2-2.7,1.5-2.5,3.1
	c0.2,1.5,1.5,2.7,3.1,2.5c3.4-0.3,7.2-0.1,11,0.3c0.1,2.1,0.3,3.8,1.3,6.2c-2.7-0.1-15.6-0.9-17.5-2.8c-1.1-1.1-2.8-1.2-4-0.2
	c-1.1,1.1-1.2,2.8-0.2,4c1.6,1.7,5.4,3.8,21.1,4.5c1.6,0.1,3.1,0.1,4.6,0.2c0.1,0.1,1.6,1.7,4.3,3.5c0,0-4.8,1-10.1,1H13.4
	c-1.6,0-2.8,1.3-2.8,2.8s1.3,2.8,2.8,2.8c12.4,0,17.3,0.3,25.3-1.5v7.1c0,1.6,1.3,2.8,2.8,2.8h4.2c1.6,0,2.8-1.3,2.8-2.8
	c0-1.6-1.3-2.8-2.8-2.8h-1.4v-5.5c3.1,0.9,5.9,1.2,5.9,1.2c0.2,0.5,0.6,0.9,1.1,1.2v6c0,1.6,1.3,2.8,2.8,2.8h4.2
	c1.6,0,2.8-1.3,2.8-2.8c0-1.6-1.3-2.8-2.8-2.8h-1.4v-2.8h10.6l2.2,6.5c0.4,1.1,1.5,1.9,2.7,1.9h2.8c1.6,0,2.8-1.3,2.8-2.8
	c0-1.6-1.3-2.8-2.8-2.8h-0.8l-1.2-3.5c4.4-0.9,3.1-0.7,5.1-0.7l2.6,7.9c0.4,1.1,1.5,1.9,2.7,1.9h2.8c1.6,0,2.8-1.3,2.8-2.8
	S88,77,86.4,77h-0.8l-1.4-4.2h0.6c4.7,0,8.8-3.2,9.9-7.7C95,64,94.8,63.1,94,62.4L94,62.4z"/>
</svg>
