<svg xmlns="http://www.w3.org/2000/svg" fill="none" viewBox="-13.41 0.52 97.48 88.13">
<g clip-path="url(#clip0_1260_655)">
<rect y="0.522217" width="76" height="76" rx="38" fill="#FAFBFB"/>
<path d="M37.8197 22.1219C38.3026 22.0822 38.5563 21.5239 38.2758 21.1269C35.6076 17.3428 24.7346 3.47677 14.8251 13.1294C4.72772 22.9631 23.9859 16.5339 30.5808 16.8366C32.6125 16.9309 34.5515 17.7944 35.9198 19.3254C36.5076 19.9855 36.9929 20.7597 37.1685 21.6281C37.2319 21.9383 37.5124 22.1492 37.8222 22.1269V22.1219H37.8197Z" fill="white"/>
<path d="M37.5759 22.1319C37.5881 22.0773 37.6442 21.9557 37.7466 21.9061C37.8369 21.859 37.8759 21.8714 37.9466 21.8317C38.1661 21.7101 38.2076 21.4123 38.0368 21.2262L37.9637 21.1245C36.693 19.3676 35.2881 17.7026 33.7589 16.1741C29.1639 11.4967 22.4981 7.5736 16.4958 12.1542C15.0032 13.323 13.4764 14.7845 12.5398 16.4471C12.3398 16.8714 12.1569 17.3478 12.4593 17.715C12.6959 17.9533 13.0178 18.0575 13.3837 18.1394C14.3276 18.3255 15.3032 18.2833 16.269 18.2212C20.2201 17.916 24.1518 17.0103 28.1175 16.6232C29.4639 16.4992 30.8541 16.4222 32.1833 16.7647C34.4881 17.3528 36.7466 19.0426 37.3856 21.4595L37.4125 21.586C37.4466 21.7647 37.6222 21.8937 37.8003 21.8813C37.8003 21.8763 37.5661 22.1443 37.5734 22.1245L37.8149 22.3726C37.7759 22.3726 37.7027 22.3602 37.6466 22.3007C37.5881 22.2436 37.5734 22.1716 37.5734 22.1344L37.5759 22.1319ZM38.0637 22.1121C38.0637 22.0748 38.049 22.0029 37.9929 21.9458C37.9344 21.8887 37.8637 21.8739 37.8271 21.8739C37.8271 21.8788 38.0759 22.1195 38.0686 22.127V22.3652L37.8417 22.3751C37.4905 22.4049 37.132 22.1964 36.9881 21.8664C36.4418 19.5265 34.2662 17.9011 32.0467 17.3552C30.8029 17.0426 29.4931 17.1245 28.181 17.251C24.2054 17.6629 20.3299 18.5835 16.3227 18.9136C14.452 19.0773 10.4545 19.1642 11.9325 16.1344C12.2618 15.4818 12.6959 14.9408 13.1398 14.4173C14.0471 13.385 15.0081 12.4222 16.1105 11.6108C19.625 8.92595 23.8859 8.88129 27.7322 10.859C32.0979 13.1096 35.5149 16.8565 38.3759 20.8242L38.449 20.9284L38.4856 20.9806C38.8441 21.4669 38.5588 22.2337 37.971 22.3503C37.9588 22.3552 38.0027 22.3404 38.0222 22.3205C38.0807 22.2758 38.0978 22.1617 38.0686 22.1121H38.0637Z" fill="#221F1F"/>
<path d="M53.8023 59.5138C52.1543 56.378 54.9005 52.7229 58.3262 53.4799C67.8153 55.5867 81.9484 59.4478 83.2182 64.0185C83.2182 64.0185 85.6115 70.3949 79.2145 77.372C76.9203 79.8704 73.232 80.6638 70.3515 79.2549C68.0907 78.1483 65.5695 76.045 62.324 72.2182C59.0785 68.3914 56.1814 64.0505 53.8003 59.5181L53.7992 59.5149L53.8023 59.5138Z" fill="white"/>
<path d="M53.3908 59.6163C52.5985 58.123 52.7618 56.1815 53.7769 54.8159C54.7769 53.3875 56.637 52.6289 58.3206 53.0003C61.3634 53.6512 64.3509 54.3874 67.3363 55.218C71.6504 56.5336 82.13 59.4271 83.6157 63.8638C85.1713 69.2418 82.5079 74.97 78.5185 78.5219C76.7821 79.8711 74.5279 80.5422 72.3612 80.2242C69.185 79.7091 66.6486 77.2411 64.4349 75.0813C60.1153 70.6139 56.0673 64.8121 53.3876 59.6175L53.3908 59.6163ZM54.212 59.4122C56.5879 64.0004 60.7446 70.33 64.9316 74.5841C68.6678 78.4194 72.9366 81.7081 78.0639 77.9318C81.4267 74.8822 83.7399 70.2261 83.1376 65.6199C82.9487 63.3776 81.6648 62.225 79.8529 61.0993C75.9101 58.7612 71.4492 57.4533 67.0619 56.1721C64.1134 55.3351 61.1119 54.5897 58.1303 53.9304C56.7746 53.6207 55.3082 54.2045 54.4882 55.3467C53.5908 56.532 53.5424 58.1144 54.2109 59.409L54.212 59.4122Z" fill="#221F1F"/>
<mask id="mask0_1260_655" style="mask-type:luminance" maskUnits="userSpaceOnUse" x="-14" y="48" width="40" height="41">
<path d="M10.3855 48.4405L-13.4111 73.3748L2.05697 88.6507L25.8536 63.7165L10.3855 48.4405Z" fill="white"/>
</mask>
<g mask="url(#mask0_1260_655)">
<path d="M22.48 62.8073C23.3638 59.355 19.8573 56.5177 16.6987 58.1176C7.95718 62.5631 -4.895 69.8869 -5.0819 74.6298C-5.0819 74.6298 -5.94687 81.4036 1.87101 86.5301C4.67279 88.3654 8.43856 88.195 10.9166 86.102C12.8587 84.4552 14.8288 81.7807 17.1055 77.2566C19.3822 72.7326 21.2057 67.7988 22.4767 62.8078L22.48 62.8073Z" fill="white"/>
<path d="M21.8763 62.8161C22.204 61.4349 21.8438 59.9998 20.7228 59.1118C19.7153 58.2757 18.2574 58.1001 17.0821 58.7096C14.3534 60.111 11.598 61.5788 8.91333 63.106C4.93706 65.4272 0.913755 67.8148 -2.40242 71.0295C-3.90783 72.5623 -4.88347 73.9475 -4.57605 76.1512C-4.14302 80.7583 -0.853502 84.6939 3.11053 86.7875C5.37239 87.8006 8.17822 87.6581 10.2449 86.1947C12.295 84.6281 13.7856 82.4344 15.0894 80.1981C18.1072 75.1098 20.7797 67.4139 21.8802 62.8188L21.8763 62.8161ZM23.0755 62.7976C21.4814 69.2613 16.4296 82.3407 10.627 86.7537C8.34912 88.3396 5.30755 88.5577 2.80842 87.4629C-0.0472522 86.0099 -2.4615 83.7133 -4.05615 80.897C-4.9533 79.2275 -5.54045 77.3532 -5.60487 75.4352C-5.69092 74.3318 -5.35681 73.1171 -4.72079 72.1744C-1.0057 66.6083 10.3984 60.5404 16.4918 57.4481C19.987 55.7037 24.0516 58.9905 23.0689 62.7988L23.0755 62.7976Z" fill="#221F1F"/>
</g>
<path d="M19.9851 73.8449L17.1582 43.6805C17.1382 43.4804 17.1148 43.2803 17.0882 43.0802C16.8115 40.9741 15.3281 24.2096 37.613 22.0119C37.613 22.0119 58.3945 20.3501 59.8379 39.7328L61.1413 70.5416C61.2513 71.9728 61.0713 73.3498 60.6513 74.6385C59.9412 76.8125 58.5545 78.6575 56.8143 80.1939C55.9209 80.9807 54.9475 81.6591 53.9275 82.256C50.7306 84.1281 47.117 85.193 43.4201 85.4881L40.2198 85.7425C37.713 85.9426 35.1895 85.7798 32.7426 85.227C31.0892 84.8539 29.5524 84.4537 28.099 83.8262C25.0187 82.5002 22.5019 80.5466 21.1085 77.8063C20.4951 76.6023 20.1017 75.2694 19.9917 73.8415H19.9851V73.8449Z" fill="white"/>
<path d="M19.8251 74.1399C18.6484 64.318 17.2583 52.7731 16.2782 42.9953C15.3148 32.9258 20.9686 25.4068 30.3392 22.5918C32.6261 21.8592 35.0229 21.4827 37.3897 21.2114C40.7833 20.9944 44.1602 21.476 47.4104 22.4799C55.5977 25.0778 60.228 31.5081 60.628 40.1668C60.9814 48.3641 61.4148 60.4991 61.7415 68.7304C61.8281 70.6669 61.9881 72.7595 61.3381 74.635C59.4513 80.438 53.6976 83.7787 48.2038 85.2642C45.5436 86.0239 42.4834 86.0985 39.7432 86.3121C33.5761 86.5902 25.3989 84.7283 21.6119 79.3696C20.4852 77.7621 19.7951 75.8391 19.6651 73.872L20.1452 74.1501C20.0652 74.2009 19.9085 74.1975 19.8285 74.1467L19.8251 74.1399ZM20.1485 73.5464C20.0752 73.4921 19.9218 73.4887 19.8451 73.5362L20.3252 73.8143C21.0686 81.876 30.0625 84.942 36.923 85.2811C38.5265 85.4371 40.8466 85.1149 42.4668 85.0132C49.2039 84.6231 57.8178 81.2791 60.0947 74.2416C60.678 72.5119 60.4847 70.6127 60.3947 68.8118C60.0013 60.5703 59.4546 48.4693 59.0913 40.2583C58.7012 32.2611 54.5109 26.4073 46.9237 24.023C43.9135 23.0971 40.6733 22.646 37.5297 22.8495C35.2762 23.1175 32.9627 23.4871 30.8126 24.1824C22.122 26.7837 16.9183 33.828 17.895 43.1547C18.7584 52.5832 19.4918 64.0297 20.1452 73.5464H20.1485Z" fill="#221F1F"/>
<path d="M24.5947 26.4549C24.5947 26.4549 37.429 27.6657 49.6265 24.4539L24.5947 26.4549Z" fill="white"/>
<path d="M23.8496 26.5869C23.8496 26.5869 37.9873 27.7638 50.1848 24.552" stroke="#221F1F" stroke-width="0.676267" stroke-miterlimit="10"/>
<path d="M16.9287 40.4789C16.9287 40.4789 38.1669 33.7263 59.3951 37.2128L16.9287 40.4789Z" fill="white"/>
<path d="M16.8281 40.1534C19.3316 39.0477 21.9818 38.5322 24.6187 37.9319C28.9957 37.006 33.496 36.3108 37.9463 35.9106C42.3566 35.5036 47.0069 35.4459 51.4339 35.6867C52.2873 35.7613 54.6408 35.958 55.4742 36.0361C56.8143 36.2362 58.1477 36.4837 59.4478 36.8772L59.3412 37.5453C57.571 37.6097 55.7742 37.3214 54.0141 37.2129C45.1835 36.477 36.2062 37.1451 27.4822 38.6374C25.9688 38.9189 23.7386 39.3428 22.2485 39.6921C20.5151 40.0889 18.7849 40.5095 17.0281 40.8046L16.8281 40.1568V40.1534Z" fill="#221F1F"/>
<path d="M18.9316 61.2149C22.7219 59.8209 37.3196 55.5815 61.5547 57.2739L18.9316 61.2149Z" fill="white"/>
<path d="M18.8184 60.8958C25.4388 58.4267 32.4927 57.3822 39.4932 56.7852C43.0001 56.5241 46.517 56.3918 50.0306 56.4156C53.5408 56.4325 57.0677 56.4461 60.5413 57.1142L60.4947 57.7925C56.9911 58.0401 53.5208 57.6874 50.0239 57.7077C43.0601 57.6535 36.0763 58.0469 29.1958 59.1525C25.7622 59.7155 22.3419 60.4413 19.045 61.5368L18.8184 60.8992V60.8958Z" fill="#221F1F"/>
<path d="M52.0669 57.2603C52.3836 49.7243 51.7569 36.6397 51.7569 36.6397C51.7569 36.6397 33.9689 35.2593 24.6416 39.1054C24.6416 39.1054 25.545 52.1764 27.4318 59.2986" stroke="#221F1F" stroke-width="0.676267" stroke-miterlimit="10"/>
<path d="M24.7659 38.9288C24.5325 41.3674 26.5294 55.4694 27.4127 58.7762C33.7565 57.1618 46.2508 56.5242 51.9178 56.5818C52.2912 52.4441 51.7111 41.9337 51.4378 36.9787L51.4245 36.765C40.907 35.3372 29.3596 37.7147 24.7659 38.9288Z" fill="#5BC2C7"/>
<path d="M38.303 48.673L38.1797 44.8846C38.1797 44.7625 38.303 44.6811 38.4097 44.7354L42.0166 46.6313C42.13 46.6889 42.13 46.8551 42.0166 46.9162L38.533 48.8086C38.4297 48.8629 38.3064 48.7917 38.2997 48.673H38.303Z" fill="white" stroke="black" stroke-width="0.162304"/>
<g clip-path="url(#clip1_1260_655)">
<path d="M15.2479 37.2705C12.6744 37.4224 10.7147 39.6072 10.875 42.143L11.2497 48.069C11.3967 50.378 13.2635 52.2143 15.6054 52.3526L17.7442 52.4785" fill="#BCBCBC"/>
<path d="M15.2471 37.2706C15.2677 37.6195 15.2529 37.3683 15.2539 37.4452C15.2468 37.4456 15.226 37.4539 15.2189 37.4543C13.5783 37.8242 12.064 38.9499 11.5229 40.5538C11.2183 41.3525 11.3008 42.2684 11.3324 43.1033L11.4299 45.8388C11.4752 46.6063 11.4538 47.8084 11.5541 48.5447C11.6864 49.4016 12.0932 50.2144 12.6995 50.8578C13.3156 51.4866 14.1243 51.9465 15.0079 52.1114C15.7736 52.2657 16.9584 52.2378 17.7542 52.2993L17.7321 52.6473C16.8911 52.5429 15.7738 52.5703 14.9439 52.4127C12.3896 51.9264 10.9277 49.7265 10.9164 47.2485C10.8338 46.3921 10.6209 44.0485 10.5398 43.1571C10.5087 42.7493 10.4387 42.1652 10.4431 41.7589C10.3972 39.2969 12.5678 36.8931 15.1441 37.0911L15.1904 37.0919L15.2116 37.0906L15.2222 37.09L15.2293 37.0896C15.2338 37.1663 15.2226 36.9149 15.2467 37.2636L15.2471 37.2706Z" fill="black"/>
<path d="M61.4292 33.3221L62.4203 33.2636C64.8947 33.1175 67.0503 34.9123 67.3144 37.3404L67.9681 43.299C68.2217 45.6087 66.6816 47.7407 64.3858 48.2648L61.9885 48.8125" fill="#BCBCBC"/>
<path d="M61.4198 33.1477C64.131 32.2594 66.935 33.7253 67.6545 36.4661C67.9077 37.4455 67.962 39.8089 68.0727 40.8422C68.1206 41.7146 68.2346 42.8632 68.258 43.7406C68.2399 44.7569 67.89 45.7508 67.2836 46.5499C66.4022 47.8062 64.9087 48.381 63.4496 48.6352C62.977 48.7542 62.5039 48.8626 62.0316 48.985L61.951 48.6432C62.8983 48.4437 63.8748 48.2565 64.7834 48.0033C66.5853 47.4173 67.835 45.6 67.7362 43.7469C67.5571 42.1575 67.1377 39.686 66.9251 38.0706L66.8229 37.3625C66.6171 35.8622 65.5537 34.5771 64.1445 33.9916C63.2937 33.6007 62.3915 33.6014 61.4404 33.4965L61.4198 33.1477Z" fill="black"/>
<path d="M63.7372 33.1231L62.9648 20.04" stroke="black" stroke-width="0.355675"/>
<path d="M19.9957 56.3113L16.6277 61.3907L16.6235 61.1093C23.266 68.4836 32.7317 72.5837 42.0388 71.7479C45.8332 71.4316 49.5818 70.2683 53.1053 68.7351C57.1303 66.9138 60.9835 64.2899 63.3025 60.0666L63.3296 60.3143L58.6798 54.0137L58.9987 53.7225L63.6485 60.0231L63.7341 60.1381C62.0325 65.0498 58.0383 68.4485 53.882 70.647C47.53 74.0279 40.5148 75.3102 33.5304 73.6724C27.8596 72.2849 22.4893 69.102 18.4994 64.3508C17.6657 63.3703 16.9003 62.3535 16.2006 61.2543L16.2958 61.1102L19.6638 56.0308L19.9995 56.3065L19.9957 56.3113Z" fill="black"/>
<path d="M15.3135 40.2183C16.6193 21.7712 31.2609 16.6649 38.4185 16.4176L39.0991 27.9463C21.7058 27.4307 18.1687 41.043 18.5743 47.9136C20.1815 59.598 34.2747 62.2951 41.1204 62.1831L41.77 73.1877C31.3948 74.9221 21.3839 67.8324 16.5575 61.2904L19.6629 56.7308C16.4652 53.2737 15.5575 44.3523 15.3135 40.2183Z" fill="#D9D9D9"/>
<path d="M61.8617 37.4402C58.517 19.2924 44.1319 15.9055 37.3574 16.4805L38.0371 27.9936C54.3715 25.4889 59.2652 38.5854 59.6703 45.4468C59.4944 57.2204 46.5206 61.5107 40.0556 62.1841L40.7044 73.1739C50.6819 73.7052 60.4241 65.236 63.7415 60.2555L59.3208 54.5699C61.9385 50.7744 62.1055 41.5686 61.8617 37.4402Z" fill="#D9D9D9"/>
<path d="M15.6223 40.6828C15.8905 50.6413 20.8071 60.3954 30.7526 63.8134C33.8369 64.9126 37.1268 65.4641 40.4441 65.5764C40.8114 65.5407 42.1062 65.3907 42.8045 65.2445C52.3244 63.4396 59.8107 57.6341 61.6257 47.9448C62.2823 44.6851 62.313 41.2943 62.0014 37.9413L62.3537 37.8925C63.1187 42.066 63.1771 46.4843 62.1198 50.6569C59.5839 60.5918 50.389 66.2776 40.4605 67.2384C29.2475 66.8991 19.9068 61.6319 16.5216 50.6811C15.5309 47.4381 15.0573 44.0491 15.2731 40.6649L15.6258 40.6826L15.6223 40.6828Z" fill="black"/>
<path d="M61.8376 37.9336C60.8649 21.939 43.4173 11.9654 28.811 18.951C20.5718 22.7738 15.198 31.6895 15.7769 40.6528C16.6014 56.8453 34.1456 67.0127 48.9278 59.8767C57.2051 55.9781 62.5291 46.9393 61.8376 37.9336ZM62.5066 37.8941C63.4502 54.3595 46.831 66.6594 31.0545 61.2855C22.1728 58.3754 15.6062 49.916 15.1149 40.6919C14.0011 24.051 30.6898 11.544 46.6546 17.0398C55.5865 20.017 62.1218 28.6077 62.5066 37.8941Z" fill="black"/>
<path d="M20.0994 53.4632C16.7943 46.0366 17.5881 36.9187 24.4671 31.7163C30.8674 26.7696 39.8465 25.3713 47.463 28.1495C52.4169 29.8702 56.9607 33.3095 58.8174 38.2833C60.4086 42.373 60.1377 46.9893 59.062 51.1525L58.7164 51.0748C59.3574 48.0332 59.6016 44.8889 59.0535 41.8614C58.0198 35.4245 53.1773 31.1381 47.136 29.0476C38.4662 25.9989 27.5353 28.3317 21.8178 35.6993C18.0544 40.7248 18.2373 47.674 20.4212 53.3181L20.0994 53.4632Z" fill="black"/>
<path d="M29.2529 18.249L29.8943 29.1132" stroke="black" stroke-width="0.355675" stroke-miterlimit="10"/>
<path d="M45.8262 17.2705L46.4781 28.3126" stroke="black" stroke-width="0.355675" stroke-miterlimit="10"/>
<path d="M28.272 40.864C29.2411 39.4694 31.2303 37.0028 33.8103 35.8177C34.6611 35.4279 35.058 34.4487 34.7298 33.5823L34.3592 32.5994C33.9806 31.6029 32.8103 31.1539 31.8439 31.6311C29.7733 32.6601 26.3746 34.7792 23.8095 38.5017C23.0896 39.5455 23.6463 40.9725 24.8921 41.2561L26.3719 41.5923C27.0991 41.756 27.8493 41.4666 28.2717 40.8605L28.272 40.864Z" fill="#FACCCC"/>
<path d="M28.1243 40.7676C29.4854 38.8528 31.1525 37.0669 33.2521 35.9276L33.7112 35.701C34.4318 35.3923 34.8442 34.5558 34.6365 33.8048C34.4082 33.2476 34.2633 32.5385 33.8282 32.088C33.2658 31.5261 32.354 31.4854 31.7083 31.9191C30.1044 32.791 28.6632 33.9509 27.3209 35.161C26.35 36.0445 25.4211 36.9781 24.5714 37.9875C24.1919 38.4791 23.7025 38.9141 23.7089 39.5649C23.6973 40.1502 24.0526 40.7524 24.6175 40.9957C25.1844 41.2108 25.9335 41.3241 26.5314 41.4638C27.1406 41.5539 27.781 41.271 28.1208 40.7678L28.1243 40.7676ZM28.4165 40.9639C27.9976 41.5698 27.2143 41.8997 26.4862 41.7816C25.7798 41.6097 25.1783 41.5297 24.4824 41.2942C23.7978 41.009 23.3235 40.3158 23.2761 39.5729C23.2005 38.8352 23.688 38.1867 24.0731 37.6108C25.5913 35.3471 27.7581 33.5422 30.1732 32.2723C30.7731 31.9638 31.3951 31.6085 32.0236 31.3648C32.7309 31.1305 33.5526 31.3306 34.0701 31.8532C34.5666 32.3805 34.6853 33.0667 34.9374 33.7275C35.1848 34.6092 34.7003 35.6076 33.8478 35.9695L33.4027 36.1918C31.3556 37.3174 29.7403 39.0793 28.42 40.9637L28.4165 40.9639Z" fill="black"/>
<path d="M11.6943 49.2961L16.8321 50.0396" stroke="black" stroke-width="0.355675" stroke-miterlimit="10"/>
<path d="M68.1384 44.8437L62.314 46.3078" stroke="black" stroke-width="0.355675" stroke-miterlimit="10"/>
<ellipse cx="63.1532" cy="20.2039" rx="1.77301" ry="1.74745" transform="rotate(-3.37862 63.1532 20.2039)" fill="black"/>
</g>
</g>
<defs>
<clipPath id="clip0_1260_655">
<rect y="0.522217" width="76" height="76" rx="38" fill="white"/>
</clipPath>
<clipPath id="clip1_1260_655">
<rect width="57.6194" height="58.6864" fill="white" transform="translate(8.99609 17.4492) rotate(-3.37862)"/>
</clipPath>
</defs>
</svg>