<svg xmlns="http://www.w3.org/2000/svg" fill="none" viewBox="-13.33 0.52 102.72 84.45">
<g clip-path="url(#clip0_1260_88)">
<rect y="0.522217" width="76" height="76" rx="38" fill="#FAFBFB"/>
<path d="M62.8756 61.764C59.402 62.2762 56.9585 58.4268 58.8386 55.4185C64.0557 47.0888 72.4963 34.9267 77.1699 35.2591C77.1699 35.2591 83.9038 35.1302 88.1707 43.5786C89.6975 46.6072 89.1641 50.3888 86.8673 52.6577C85.0638 54.4383 82.247 56.1307 77.5833 57.9316C72.9196 59.7325 67.8993 61.0281 62.8789 61.7674H62.8756V61.764Z" fill="white"/>
<path d="M62.8288 62.1917C61.172 62.4426 59.4285 61.6321 58.5118 60.2042C57.5317 58.7696 57.4684 56.7415 58.3918 55.2627C60.0419 52.5834 61.752 49.9855 63.5488 47.4215C66.2523 43.7552 72.5395 34.7473 77.1631 34.8287C82.6835 35.161 87.0772 39.6311 88.9973 44.6302C89.6507 46.7398 89.4973 49.1139 88.4573 51.0708C86.8871 53.9231 83.7269 55.5069 80.9634 56.8873C75.3363 59.4954 68.5658 61.3947 62.8288 62.1951V62.1917ZM62.9221 61.3404C67.9925 60.6248 75.2897 58.8001 80.6734 56.2463C85.5137 53.9807 90.0307 51.0233 88.2939 44.8643C86.6238 40.6316 83.1035 36.8568 78.6266 35.8767C76.4831 35.3001 74.973 36.1344 73.3062 37.4809C69.7826 40.4485 67.0357 44.2572 64.3389 48.0048C62.5487 50.5315 60.8253 53.1396 59.1885 55.7579C58.4351 56.9449 58.4718 58.539 59.2485 59.7057C60.0386 60.9605 61.4887 61.5405 62.9188 61.3404H62.9221Z" fill="#221F1F"/>
<mask id="mask0_1260_88" style="mask-type:luminance" maskUnits="userSpaceOnUse" x="-14" y="46" width="41" height="39">
<path d="M14.0992 46.6896L-13.333 67.1985L-0.498145 84.9684L26.9341 64.4595L14.0992 46.6896Z" fill="white"/>
</mask>
<g mask="url(#mask0_1260_88)">
<path d="M23.6598 62.9207C25.0733 59.6513 22.0797 56.2292 18.7262 57.267C9.44217 60.1566 -4.33215 65.1863 -5.26555 69.8564C-5.26555 69.8564 -7.18568 76.4225 -0.321862 82.863C2.13831 85.1693 5.86191 85.6543 8.62544 84.0094C10.7923 82.7138 13.1491 80.4041 16.0993 76.3139C19.0495 72.2237 21.6197 67.6485 23.6565 62.9207H23.6598Z" fill="white"/>
<path d="M23.0663 62.8258C23.6064 61.5132 23.4797 60.0277 22.5196 58.9526C21.6629 57.9487 20.2595 57.5214 19.0094 57.9216C16.1092 58.8373 13.1723 59.8141 10.2954 60.8621C6.02512 62.473 1.69815 64.1417 -2.06545 66.7532C-3.78557 68.0114 -4.96232 69.2154 -5.00899 71.4538C-5.31235 76.0969 -2.7055 80.5703 0.854756 83.3344C2.9149 84.7318 5.69177 85.0777 7.95193 83.9856C10.2121 82.7884 12.0222 80.8722 13.6557 78.8813C17.4226 74.3604 21.2629 67.1941 23.0697 62.8292L23.0663 62.8258ZM24.2464 63.0157C21.6596 69.1476 14.6324 81.2385 8.23862 84.6063C5.75177 85.7831 2.73156 85.4711 0.451395 83.9517C-2.12212 82.0151 -4.12893 79.3188 -5.24901 76.2495C-5.86572 74.4384 -6.14574 72.4781 -5.90572 70.5653C-5.81572 69.4562 -5.29568 68.3099 -4.52229 67.4857C0.00469637 62.6121 12.1589 58.5762 18.6294 56.5684C22.3363 55.4458 25.8065 59.4105 24.2398 63.0157H24.2464Z" fill="#221F1F"/>
</g>
<path d="M20.5622 71.1284L17.7353 40.964C17.7153 40.7639 17.692 40.5638 17.6653 40.3637C17.3886 38.2575 15.9052 21.4931 38.1901 19.2954C38.1901 19.2954 58.9716 17.6335 60.415 37.0162L61.7185 67.825C61.8285 69.2562 61.6485 70.6332 61.2284 71.922C60.5184 74.096 59.1316 75.941 57.3915 77.4774C56.4981 78.2642 55.5247 78.9425 54.5046 79.5394C51.3077 81.4115 47.6941 82.4765 43.9972 82.7716L40.797 83.0259C38.2901 83.226 35.7666 83.0632 33.3198 82.5104C31.6663 82.1373 30.1295 81.7371 28.6761 81.1097C25.5959 79.7836 23.079 77.8301 21.6856 75.0897C21.0722 73.8857 20.6789 72.5528 20.5689 71.125H20.5622V71.1284Z" fill="white"/>
<path d="M20.4023 71.4233C19.2255 61.6014 17.8354 50.0566 16.8554 40.2788C15.892 30.2093 21.5457 22.6902 30.9164 19.8752C33.2032 19.1426 35.6 18.7662 37.9669 18.4949C41.3604 18.2778 44.7374 18.7594 47.9876 19.7633C56.1748 22.3612 60.8052 28.7916 61.2052 37.4502C61.5585 45.6476 61.9919 57.7825 62.3186 66.0138C62.4053 67.9504 62.5653 70.043 61.9152 71.9185C60.0284 77.7214 54.2747 81.0621 48.781 82.5476C46.1208 83.3073 43.0606 83.3819 40.3204 83.5956C34.1533 83.8737 25.976 82.0117 22.1891 76.6531C21.0623 75.0455 20.3723 73.1225 20.2423 71.1554L20.7223 71.4335C20.6423 71.4844 20.4856 71.481 20.4056 71.4301L20.4023 71.4233ZM20.7256 70.8298C20.6523 70.7755 20.499 70.7721 20.4223 70.8196L20.9023 71.0977C21.6457 79.1594 30.6397 82.2254 37.5002 82.5645C39.1036 82.7206 41.4238 82.3984 43.0439 82.2966C49.781 81.9066 58.395 78.5625 60.6718 71.5251C61.2552 69.7954 61.0618 67.8961 60.9718 66.0952C60.5785 57.8537 60.0318 45.7527 59.6684 37.5418C59.2784 29.5445 55.0881 23.6907 47.5009 21.3065C44.4907 20.3806 41.2504 19.9295 38.1069 20.133C35.8534 20.4009 33.5399 20.7706 31.3897 21.4659C22.6991 24.0672 17.4954 31.1114 18.4721 40.4382C19.3355 49.8667 20.0689 61.3131 20.7223 70.8298H20.7256Z" fill="#221F1F"/>
<path d="M25.1729 23.7383C25.1729 23.7383 38.0071 24.9491 50.2046 21.7373L25.1729 23.7383Z" fill="white"/>
<path d="M24.4258 23.8704C24.4258 23.8704 38.5635 25.0472 50.761 21.8354" stroke="#221F1F" stroke-width="0.697405" stroke-miterlimit="10"/>
<path d="M17.5049 37.7623C17.5049 37.7623 38.7431 31.0098 59.9712 34.4963L17.5049 37.7623Z" fill="white"/>
<path d="M17.4053 37.4366C19.9088 36.3309 22.559 35.8154 25.1958 35.2151C29.5728 34.2892 34.0731 33.594 38.5234 33.1938C42.9338 32.7868 47.5841 32.7291 52.0111 32.9699C52.8645 33.0445 55.218 33.2412 56.0514 33.3193C57.3915 33.5194 58.7249 33.7669 60.025 34.1604L59.9183 34.8285C58.1482 34.8929 56.3514 34.6047 54.5913 34.4961C45.7606 33.7602 36.7833 34.4283 28.0594 35.9206C26.5459 36.2021 24.3158 36.626 22.8257 36.9753C21.0922 37.3722 19.3621 37.7927 17.6053 38.0878L17.4053 37.44V37.4366Z" fill="#221F1F"/>
<path d="M19.5088 58.4981C23.2991 57.1041 37.8968 52.8647 62.1318 54.5571L19.5088 58.4981Z" fill="white"/>
<path d="M19.3955 58.1795C26.016 55.7104 33.0698 54.6658 40.0703 54.0689C43.5772 53.8078 47.0941 53.6755 50.6077 53.6993C54.118 53.7162 57.6449 53.7298 61.1185 54.3979L61.0718 55.0762C57.5682 55.3238 54.098 54.9711 50.6011 54.9914C43.6372 54.9372 36.6534 55.3306 29.7729 56.4362C26.3393 56.9992 22.9191 57.725 19.6222 58.8205L19.3955 58.1829V58.1795Z" fill="#221F1F"/>
<path d="M52.645 54.5435C52.9617 47.0075 52.335 33.9229 52.335 33.9229C52.335 33.9229 34.5471 32.5426 25.2197 36.3886C25.2197 36.3886 26.1231 49.4596 28.0099 56.5818" stroke="#221F1F" stroke-width="0.697405" stroke-miterlimit="10"/>
<path d="M25.3421 36.2123C25.1087 38.6508 27.1055 52.7528 27.9889 56.0596C34.3327 54.4452 46.8269 53.8076 52.494 53.8653C52.8674 49.7276 52.2873 39.2172 52.014 34.2621L52.0006 34.0485C41.4832 32.6206 29.9357 34.9981 25.3421 36.2123Z" fill="#5BC2C7"/>
<path d="M38.8802 45.9564L38.7568 42.1681C38.7568 42.046 38.8802 41.9646 38.9869 42.0188L42.5938 43.9147C42.7071 43.9724 42.7071 44.1386 42.5938 44.1996L39.1102 46.0921C39.0069 46.1464 38.8835 46.0751 38.8768 45.9564H38.8802Z" fill="white" stroke="black" stroke-width="0.167377"/>
<g clip-path="url(#clip1_1260_88)">
<path d="M10.9267 40.129C10.4583 39.5021 10.2294 38.7309 10.2224 37.9491C10.1836 34.424 11.6874 22.1969 32.8276 11.4771C32.8276 11.4771 43.7798 5.87426 53.7882 9.08245C59.1869 10.8116 63.3248 15.3051 64.5855 20.8341C65.2264 23.6408 65.0363 26.6553 62.2824 28.4231C60.511 29.5606 58.2924 29.7649 56.2956 29.0958C51.4464 27.4653 38.1593 23.993 27.0909 30.2826C25.9252 30.9446 24.8617 31.7687 23.8827 32.6878C21.4 35.0156 15.7936 40.1677 14.1631 40.71C14.1631 40.71 12.3353 42.0166 10.9267 40.129Z" fill="#777777"/>
<path d="M10.779 40.238C9.60978 38.692 10.0324 36.6107 10.2965 34.8394C11.0501 30.8881 13.0257 27.2362 15.5226 24.1161C16.7974 22.4503 18.4913 20.7952 20.0267 19.3548C20.8226 18.6681 21.7347 17.9356 22.5447 17.256C23.1292 16.8158 24.5837 15.7734 25.1929 15.3261C26.2107 14.6112 27.8095 13.6534 28.866 12.9666L32.6939 10.8537C39.3287 7.76875 47.1079 6.15233 54.2462 8.44489C60.0357 10.3254 64.5328 15.5339 65.5048 21.5559C65.9133 23.7991 65.5435 26.5988 63.7158 28.2575C61.955 29.9302 59.3455 30.55 57.0107 30.0394C56.2923 29.8915 55.5774 29.6027 54.8766 29.395C48.7807 27.5567 42.2516 26.6833 35.9373 27.7328C31.7995 28.4829 27.6263 29.9514 24.4146 32.744C22.277 34.6739 20.1112 36.6143 17.8644 38.4244C16.6988 39.3118 15.586 40.2943 14.2196 40.8754C13.2159 41.5692 11.6558 41.4952 10.779 40.238ZM11.0748 40.0161C11.8108 41.0656 13.0539 41.2487 14.1069 40.5409C15.35 39.9387 16.4523 38.9068 17.5228 38.0123C19.7098 36.1283 21.7875 34.1491 23.8723 32.1453C24.9464 31.1487 26.1437 30.2225 27.4608 29.564C30.0351 28.1413 32.8559 27.1799 35.7401 26.6375C42.7798 25.3381 50.0731 26.2995 56.8311 28.504C58.8454 29.0815 61.1556 28.6167 62.6699 27.1658C64.1102 25.7888 64.3145 23.7569 63.9905 21.8024C63.0819 16.372 58.9933 11.6214 53.7673 9.88171C47.2171 7.69831 39.4202 9.20556 33.2363 11.9665L29.447 13.9668L27.6052 15.069C26.1649 15.8861 24.4921 17.0764 23.1328 18.0237C22.5904 18.4463 21.1712 19.5838 20.6148 20.024C19.0759 21.3974 17.3785 22.9715 16.0966 24.5774C13.5892 27.5778 11.596 31.0924 10.779 34.9345C10.5043 36.5931 10.0359 38.5441 11.0853 40.0197L11.0748 40.0161Z" fill="black"/>
<path d="M53.5 33.0222C56.7 32.6222 57.8333 30.8556 58 30.0222C57.6 28.4222 46.1667 26.6889 40.5 26.0222C30.9 26.4222 24.8333 31.5222 23 34.0222C30.6 28.4222 42.5 30.0222 47.5 31.5222L53.5 33.0222Z" fill="#4B4A4A" stroke="black" stroke-width="0.5"/>
<path d="M21.0713 35.0332C27.1989 30.4199 35.3373 29.1451 42.782 30.4199C46.1135 30.9658 50.5613 31.9272 53.8821 32.4942C55.7134 32.7231 58.1856 31.6173 58.0236 29.4867L58.3722 29.4409C58.7772 31.3567 56.872 32.8252 55.1464 33.0541C54.2836 33.2055 53.3856 33.0189 52.558 32.8463C51.005 32.5435 46.7685 31.7124 45.1591 31.3954C43.518 31.082 41.8875 30.7474 40.2253 30.6101C34.4499 30.0396 28.4561 31.082 23.3744 33.9415C22.649 34.343 21.9446 34.8043 21.3002 35.3009L21.0748 35.0332H21.0713Z" fill="black"/>
<path d="M32.7385 13.4178L31.8828 13.9883C30.9637 14.6011 29.7381 14.4673 28.981 13.6679C28.2661 12.9142 27.5442 12.0162 27.5442 11.481C27.5442 11.481 27.1181 9.24473 28.421 7.96286C29.1958 7.19867 30.5234 7.24093 31.3158 7.98399C31.7314 8.37489 32.1363 8.92778 32.3406 9.69197C32.5449 10.4562 32.7773 11.2133 33.1259 11.9247C33.1294 11.9352 33.1365 11.9423 33.14 11.9528C33.3936 12.4705 33.221 13.1009 32.7385 13.4214V13.4178Z" fill="#777777"/>
<path d="M32.8933 13.6501L32.1432 14.0692C31.3684 14.5411 30.3577 14.7031 29.4914 14.3227C28.9244 14.0727 28.5124 13.6078 28.0793 13.1817C27.625 12.6781 27.1073 12.2203 27.0157 11.4737C26.6988 10.5828 26.741 8.49094 27.7482 7.45559C28.7589 6.23711 30.7733 6.21598 31.8826 7.31472C32.7102 8.07539 33.0342 9.19174 33.1539 10.2729C33.249 10.7941 33.3546 11.2765 33.5448 11.7907C33.8124 12.5056 33.492 13.3156 32.8933 13.6431V13.6501ZM32.5799 13.1782C32.9039 12.9141 32.9637 12.4351 32.756 12.1534C32.4672 11.6956 32.1855 11.1603 31.9636 10.6462C30.8437 7.14217 28.0053 7.67745 28.0581 11.3787C28.0405 11.8506 28.3645 12.326 28.6286 12.7345C28.9421 13.1571 29.2343 13.6501 29.6992 13.9213C30.3789 14.3509 31.3051 14.2734 31.9073 13.71L32.5834 13.1782H32.5799Z" fill="black"/>
</g>
<path d="M41.0171 52.6604C41.0171 52.6604 41.7622 49.9945 47.6611 54.1007C47.6611 54.1007 49.5239 55.3642 49.5239 53.469C49.5239 53.469 49.5239 52.8373 48.2821 52.5214C48.2821 52.5214 51.0297 52.414 50.4212 54.5493C50.1107 55.6422 49.1824 56.4381 48.0896 56.6624C46.559 56.9751 44.0659 57.0604 41.9609 55.1715C41.9609 55.1715 40.2689 54.0628 41.0171 52.6604Z" fill="black"/>
<path d="M40.6533 52.5121C41.861 50.023 45.5959 52.2467 47.1141 53.3175C47.6543 53.6618 49.129 54.9758 49.2718 53.6555L49.2905 53.4881C49.2811 53.2765 49.0856 53.0933 48.8775 52.9574C48.5298 52.7237 47.7692 52.5342 47.3718 52.3794L48.2783 52.3668C49.4705 52.2973 51.0136 52.8974 50.6627 54.3978C50.1598 57.0511 47.0241 57.3891 44.8508 56.9816C43.7083 56.7605 42.6216 56.214 41.7306 55.4433C40.9265 54.9158 40.0385 53.7345 40.6533 52.5152V52.5121ZM41.3798 52.8121C40.8954 53.6239 41.5536 54.4452 42.1932 54.9063C43.7735 56.4036 46.0833 56.8363 48.1635 56.3814C49.3526 56.1287 50.5416 54.8779 50.2467 53.5892C49.9549 52.8469 49.0079 52.7048 48.2877 52.6826L48.3187 52.3731C48.5702 52.4268 48.8186 52.4994 49.0607 52.6226C49.3619 52.7774 49.7313 53.0743 49.7531 53.4944C49.7531 53.706 49.7406 53.9208 49.6817 54.1325C49.0545 55.6392 47.288 54.243 46.428 53.7218C45.36 53.1185 42.1621 51.3276 41.3767 52.8121H41.3798Z" fill="black"/>
<path d="M40.7332 52.7395C40.7332 52.7395 39.9881 50.0736 34.0892 54.1798C34.0892 54.1798 32.2264 55.4433 32.2264 53.5481C32.2264 53.5481 32.2264 52.9164 33.4683 52.6005C33.4683 52.6005 30.7207 52.4931 31.3292 54.6284C31.6397 55.7213 32.5679 56.5172 33.6608 56.7415C35.1914 57.0542 37.6844 57.1395 39.7894 55.2506C39.7894 55.2506 41.4815 54.1419 40.7332 52.7395Z" fill="black"/>
<path d="M40.3888 52.8815C39.5164 51.3306 36.4086 53.0774 35.2785 53.7312C34.5147 54.1671 33.751 54.8999 32.8072 54.8115C32.3166 54.7546 32.0403 54.2334 32.0403 53.7754C31.9317 52.9636 32.8103 52.5909 33.4312 52.4488L33.4623 52.7583C32.9407 52.7615 32.3787 52.8594 31.9534 53.1247C31.5032 53.3869 31.3542 53.8923 31.4846 54.3914C31.6926 55.4242 32.5836 56.2423 33.5833 56.4634C35.6666 56.9214 37.9827 56.4919 39.5691 54.9915C40.2149 54.5272 40.8762 53.6965 40.3919 52.8784L40.3888 52.8815ZM41.078 52.5972C41.6927 53.7817 40.8048 54.9883 40.01 55.5064C38.2403 57.092 35.7162 57.5153 33.4685 56.953C32.3104 56.6593 31.3076 55.6959 31.0934 54.4766C30.9319 53.8702 31.1989 53.1089 31.7671 52.8215C32.5681 52.3414 33.5709 52.4583 34.4495 52.4614C34.4495 52.4614 33.5057 52.7583 33.5057 52.7615C33.0586 52.9005 32.3228 53.1753 32.4408 53.7438C32.5805 55.1242 34.108 53.8512 34.6793 53.469C36.1602 52.4551 39.92 50.1619 41.078 52.6036V52.5972Z" fill="black"/>
</g>
<defs>
<clipPath id="clip0_1260_88">
<rect y="0.522217" width="76" height="76" rx="38" fill="white"/>
</clipPath>
<clipPath id="clip1_1260_88">
<rect width="55.6555" height="34.79" fill="white" transform="translate(10 6.52222)"/>
</clipPath>
</defs>
</svg>