<?xml version="1.0" encoding="utf-8"?>
<!-- Generator: Adobe Illustrator 23.1.1, SVG Export Plug-In . SVG Version: 6.00 Build 0)  -->
<svg version="1.1" id="Layer_1" xmlns="http://www.w3.org/2000/svg" xmlns:xlink="http://www.w3.org/1999/xlink" x="0px" y="0px"
	 viewBox="0 0 100 100" style="enable-background:new 0 0 100 100;" xml:space="preserve">
<path d="M84.7,5c0.1,0.7,0,1.2-0.4,1.8c2.2,1.8,4.5,1.2,6.9,0.5c0.1,0.1-0.9,1.4-1.6,2.1c-0.5,0.6-1.8,1.6-1.7,2.2
	c0.7,2.4,0.6,4.8,0.6,7.2c0,2.9,0.7,5.7,0.9,8.5c0.1,1.7-1.3,3.1-2.8,3.1c-2.6,0.1-3.5-0.8-4-2.8c-0.4-1.5-1.5-2.9-2.5-4.7
	c-0.5,0.8-0.9,1.2-0.9,1.6c-0.5,2.9-0.6,5.9,1,8.4c1.6,2.4,2.2,4.9,1.8,7.6c-0.2,1.1,0.2,1.6,1.1,2.3c2.5,1.7,4.8,3.6,7.2,5.5
	c1.3,1,1.7,2.5,1.1,3.7c-1.4,3.1,0,5.9,0.5,8.8c0.1,1,0.1,2.1-0.2,3c-0.9,2.2-1.8,4.4-2.9,6.4c-0.8,1.6-2,1.5-3,0
	c-1.3-1.8-1.1-3.8,0.5-5.4c1.6-1.6,1.6-1.6,0.8-5.3c-0.2,0.3-0.4,0.6-0.5,1c-0.6,3.4-3.5,3.6-5.9,4.2c-1.4,0.4-3,0.2-4.4,0.3
	c-0.3-1.9,0.5-4.9,1.8-5.3c0.9-0.3,2,0.2,3.1,0.3c0,0.2,0,0.3,0,0.5c0.3-0.3,0.6-0.8,0.9-0.8c2.5-0.1,3-2.2,3.9-3.8
	c0.9-1.6,0.2-2.8-1.7-2.9c-3.4-0.2-6.9-0.4-10.3-0.6c-0.2,0-0.4,0-0.6-0.1c-2.4-1.7-4.5-0.1-6.5,0.9c-5.7,2.7-11.7,4.4-18,5.2
	c-1.3,0.2-1.7,0.8-2,2c-0.3,1.7-0.8,3.5-1.6,5.1c-1.1,2.4-1.2,3.5,0.7,5.4c1.8,1.9,3.9,3.6,5.7,5.5c0.7,0.7,1,1.8,1.3,2.7
	c0.2,0.6,0,1.3,0.2,1.9c1.2,2.7-0.2,4.8-1.4,7c-2.5-1.6-3.6-4.1-3-7c0.1-0.4,0-0.9-0.2-1.2c-2.4-2.9-4.9-5.6-8.5-7.2
	c-0.9-0.4-1.6-1.1-2.5-1.7c-1.8,1.1-3,3.2-2.4,5.3c1.1,4,2.9,7.5,5.9,10.5c1.8,1.8,2.9,4.4,4.5,6.9c-2.2,1.1-4,0.6-5.7-0.1
	c-1.4-0.6-2.3-1.7-2.2-3.4c0-0.5-0.1-1.2-0.3-1.3c-2.3-1-2.7-3.3-3.8-5.2c-1.9-3.3-3.6-6.7-5.5-10c-0.7-1.2-0.9-2.3,0-3.4
	c0.2-0.2,0.2-0.4,0.4-0.6c2-2.6,2.5-5,0-7.7c-1-1.1-1.4-2.8-2.3-4.6c-0.3,3.5-0.5,6.5-1,9.5c-0.5,2.8-1.2,5.6-3.4,7.6
	c-0.5,0.4-1.2,0.6-1.8,0.9c-0.9,0.5-1.7,1-2.5,1.5c-0.4,0.3-0.7,0.7-1,1.1c-1.9,2.4-3.2,5.3-7.1,5.9c-0.9-0.6-0.9-1.8-0.4-3.1
	c1.1-2.7,2.3-5.5,3.4-8.2c-0.9,0.4-1.9,0.9-3.3,1.5c1.1-1.3,2.1-2.2,2.7-3.3c1.1-2.2,2.4-4.5,2.9-6.8c1.8-7.3,5.5-13,11.5-17.5
	c2.5-1.8,4.6-4.2,7-6.2c2.5-2,5.3-2.9,8.6-3.2c2.8-0.3,5.4-1.7,8.1-2.8c0.5-0.2,0.8-0.9,1.5-1.7c-0.9,0.1-1.3,0.2-1.7,0.1
	c-0.8-0.1-1.9,0.6-2.1-1c0-0.3-0.9-0.4-1.8-0.8c1-1,1.9-2,2.9-3c-0.3-0.2-0.6-0.4-1.4-0.9c0.5-0.3,0.9-0.5,1.2-0.6
	c-0.7-1-1.4-2-1.9-2.8c1.6-0.9,3-1.8,4.7-2.7c-0.5-0.2-0.8-0.3-1.2-0.5c0.3-0.2,0.5-0.3,0.7-0.4c0.4-0.3,0.7-0.6,1.1-0.8
	c-0.3-0.3-0.5-0.6-0.8-0.9c-0.4-0.4-0.9-0.8-1.6-1.5c1.1-0.2,1.7-0.3,2.5-0.4c-0.3-0.4-0.6-0.7-0.9-1.2c4.5,1,7.2-2.4,10.8-4
	c-0.2-0.4-0.4-0.9-0.5-1c2.2-1,4.3-2.2,6.5-3c3.9-1.5,8-2.2,12.1-1.4C81.6,5.9,83.3,7,84.7,5z"/>
</svg>
