<svg xmlns="http://www.w3.org/2000/svg"  viewBox="0 0 24 24" fill="#27A2A8"><path d="M12.155,9.988c-3.715,0-7.423-0.692-10.559-2.073l0.807-1.83c5.68,2.502,13.401,2.554,19.212,0.134l0.77,1.846 C19.305,9.349,15.727,9.988,12.155,9.988z"/><path d="M19,8h-2V5H7v3H5V4c0-0.553,0.447-1,1-1h12c0.553,0,1,0.447,1,1V8z"/><path d="M8.333,13H8.011C7.452,13,7,12.491,7,11.863v-0.726C7,10.509,7.452,10,8.011,10h1.979C10.548,10,11,10.509,11,11.137l0,0 C11,12.166,9.667,13,8.333,13z"/><path d="M15.583,13h0.313c0.541,0,0.979-0.509,0.979-1.137v-0.726c0-0.628-0.438-1.137-0.979-1.137h-1.917 C13.438,10,13,10.509,13,11.137l0,0C13,12.166,14.292,13,15.583,13z"/><path d="M13,22h-2c-1.458,0-3.177-1.295-3.868-2.504L5.152,15.54C4.453,14.649,2.6,12.03,3.44,10.281C3.722,9.697,4.394,9,6,9v2 c-0.56,0-0.746,0.125-0.757,0.148c-0.198,0.411,0.563,2.01,1.538,3.227l0.113,0.178l2,4C9.268,19.203,10.403,20,11,20h2 c0.597,0,1.732-0.797,2.132-1.496l2.087-4.128c0.973-1.221,1.735-2.819,1.538-3.228C18.746,11.125,18.56,11,18,11V9 c1.606,0,2.278,0.697,2.56,1.281c0.841,1.749-1.013,4.368-1.712,5.259l-1.953,3.907C16.177,20.705,14.458,22,13,22z"/><path d="M15,21H9c-0.553,0-1-0.447-1-1v-2c0-1.227,1.425-3,4-3s4,1.773,4,3v2C16,20.553,15.553,21,15,21z M9.999,19H14v-1 c-0.037-0.2-0.612-1-2-1s-1.963,0.8-2.002,1.025L9.999,19z"/><polygon points="6,4 6,8 12,9 18,8 18,4" opacity=".3"/></svg>