<?xml version="1.0" encoding="utf-8"?>
<!-- Generator: Adobe Illustrator 23.1.1, SVG Export Plug-In . SVG Version: 6.00 Build 0)  -->
<svg version="1.1" id="Layer_1" xmlns="http://www.w3.org/2000/svg" xmlns:xlink="http://www.w3.org/1999/xlink" x="0px" y="0px"
	 viewBox="0 0 100 100" style="enable-background:new 0 0 100 100;" xml:space="preserve">
<path d="M94.5,52.6l-3.6-3.6c-1.3-4.6-5.5-8.3-11.4-8.3c-5.2-3.7-12.5,0.4-12.1,6.8c-10.4-2.1-19.9-4-29.8-4
	c-4.1,0-7.9,1.5-10.9,4.2c-2.2-0.1-4-1.9-4-4.2c0-12.3,10-22.3,22.3-22.3h3.8c9,0,17.6-4.3,22.9-11.6c1.4-1.8,0-4.4-2.2-4.4H47.2
	C24.4,5,6,23.4,6,46.2c0,8.9,6.6,16.8,15.8,18c0.5,2.4,1.4,4.7,2.7,6.8c1.6,2.5,2.4,5.4,2.4,8.4v7.2c0,0.7,0.3,1.4,0.8,2l5.6,5.6
	c1,1,2,0.8,3.4,0.8c1.5,0,2.8-1.2,2.8-2.8c0-1.4-1.1-2.8-3-2.8l-3.1-3.1l7.6-5v5.3c0,0.7,0.3,1.4,0.8,2l5.6,5.6c1,1,2,0.8,3.4,0.8
	c1.5,0,2.8-1.2,2.8-2.8s-1.2-2.8-2.8-2.8c-0.3,0,0.3,0.6-4.2-3.9c0-6.5,0-6.8-0.1-8.3c0.1-0.1,0.2-0.2,0.3-0.3
	c4.2-1.5,8.8-1.7,13-0.9c1,6.8,2.7,11.9,5.2,17.4c0.4,1,1.4,1.7,2.5,1.7h1.4c1.5,0,2.8-1.2,2.8-2.8c0-1.4-1-2.5-2.4-2.8
	c-0.7-1.7-1.4-3.4-1.9-5.1l3.6-8.1c1,6.6,2.7,11.7,5.1,17.1c0.4,1,1.4,1.7,2.5,1.7h1.4c1.5,0,2.8-1.2,2.8-2.8c0-1.4-1-2.5-2.4-2.8
	c-3.1-7.1-4.6-14.6-4.6-22.3c3-3.3,5.9-4.3,9-5.7h3.6C94.1,61.5,96.8,54.9,94.5,52.6L94.5,52.6z"/>
</svg>
