<?xml version="1.0" encoding="utf-8"?>
<!-- Generator: Adobe Illustrator 23.1.1, SVG Export Plug-In . SVG Version: 6.00 Build 0)  -->
<svg version="1.1" id="Layer_1" xmlns="http://www.w3.org/2000/svg" xmlns:xlink="http://www.w3.org/1999/xlink" x="0px" y="0px"
	 viewBox="0 0 100 100" style="enable-background:new 0 0 100 100;" xml:space="preserve">
<path d="M82,42.7c7.1,0,12.9-5.8,12.9-12.9c0-1.6,0.1-2.1-0.9-3.2c-5.2-6.1-12.6-9.8-20.6-10.5C72.2,12,68.4,9,64,9h-6.3
	c-1.6,0-2.8,1.3-2.8,2.8c0,5.7,2.1,11,6.6,15.4l-9,9c-6.3-14.4-20.8-24.4-37.5-24.4H7.8c-2.5,0-3.8,3-2,4.8c4,4,6.2,9.3,6.2,15V55
	c0,14,11.4,25.6,25.6,25.6h4c4.9,6.1,12.3,9.8,20.4,9.8l18.7,0c1.6,0,2.8-1.3,2.8-2.8c0-6.6-5.4-11.9-11.9-11.9h-2
	c1.8-2.3,2.8-3.4,3.5-5.6C74,67.7,74,65,73,62.5l1-4.5c3.2,1.9,6.8,3,10.6,3c0.9,0,1.6,0.5,2,1.3c0.5,1,1.5,1.6,2.5,1.6
	c2.1,0,3.4-2.2,2.5-4.1c-1.3-2.7-4-4.4-7.1-4.4c-3.4,0-6.7-1.2-9.3-3.3l0.5-2.3c3.1,1.8,6.6,2.7,10.2,2.7c0.9,0,1.7,0.5,2,1.3
	c0.7,1.4,2.4,1.9,3.8,1.3c1.4-0.7,1.9-2.4,1.3-3.8c-1.3-2.7-4-4.4-7.1-4.4c-3.2,0-6.4-1-8.9-3l0.3-1.2H82z"/>
</svg>
