<svg xmlns="http://www.w3.org/2000/svg" fill="none" viewBox="-2.93 0.52 87.02 87.51">
<g clip-path="url(#clip0_1260_947)">
<rect y="0.522217" width="76" height="76" rx="38" fill="#FAFBFB"/>
<path d="M55.2781 55.6659C54.1391 52.3001 57.4137 49.1317 60.6744 50.4341C69.7049 54.0513 83.0428 60.1535 83.5863 64.8765C83.5863 64.8765 84.9578 71.5657 77.5682 77.4267C74.9186 79.5249 71.1586 79.7124 68.5366 77.854C66.4787 76.3945 64.3187 73.908 61.7116 69.6007C59.1045 65.2935 56.9207 60.5346 55.2754 55.6698L55.2748 55.6665L55.2781 55.6659Z" fill="white"/>
<path d="M54.8554 55.7006C54.3057 54.0966 54.7677 52.2042 55.9803 51.0186C57.1879 49.7686 59.1397 49.3198 60.7423 49.9591C63.6419 51.0947 66.4738 52.3056 69.2888 53.6094C73.3389 55.6075 83.2242 60.1626 84.0014 64.7878C84.7017 70.3549 81.1873 75.5855 76.7028 78.4507C74.7813 79.5033 72.4544 79.802 70.3672 79.1372C67.315 78.1143 65.1965 75.2648 63.3484 72.7721C59.7815 67.6579 56.6892 61.2689 54.8521 55.7013L54.8554 55.7006ZM55.6969 55.6318C57.3284 60.5509 60.446 67.4791 63.9153 72.361C67.0049 76.7559 70.7045 80.6969 76.346 77.7939C80.1347 75.3238 83.1376 71.0962 83.2577 66.4462C83.4191 64.1995 82.3318 62.8526 80.7196 61.4469C77.1941 58.4983 72.998 56.484 68.8703 54.508C66.0926 53.2038 63.2484 51.9816 60.4104 50.8477C59.1217 50.3223 57.5852 50.662 56.5994 51.6583C55.5308 52.6847 55.2377 54.2407 55.6962 55.6285L55.6969 55.6318Z" fill="#221F1F"/>
<mask id="mask0_1260_947" style="mask-type:luminance" maskUnits="userSpaceOnUse" x="-3" y="47" width="33" height="42">
<path d="M9.16202 47.8456L-2.92969 80.3191L17.2734 88.0341L29.3651 55.5606L9.16202 47.8456Z" fill="white"/>
</mask>
<g mask="url(#mask0_1260_947)">
<path d="M25.8527 56.1393C25.2981 52.6195 20.9566 51.4267 18.69 54.1619C12.4241 61.7479 3.52345 73.6235 5.22838 78.0467C5.22838 78.0467 7.11435 84.604 16.3194 86.164C19.6175 86.7213 23.0071 85.0527 24.4539 82.1387C25.5851 79.849 26.3355 76.606 26.6356 71.5442C26.9357 66.4825 26.6577 61.2271 25.8499 56.1412L25.8527 56.1393Z" fill="white"/>
<path d="M25.302 56.3899C25.0564 54.9921 24.1579 53.8211 22.7775 53.4572C21.5219 53.0953 20.114 53.5198 19.2762 54.5506C17.3258 56.9313 15.377 59.3834 13.5167 61.8616C10.7849 65.5865 8.03615 69.3911 6.26378 73.67C5.48823 75.6797 5.14064 77.3414 6.29476 79.2382C8.51499 83.2878 13.0919 85.5747 17.5591 85.902C20.0363 85.9224 22.5557 84.6649 23.8739 82.4934C25.1361 80.2339 25.6366 77.6241 25.9487 75.0504C26.7059 69.1738 26.1144 61.0453 25.3066 56.3908L25.302 56.3899ZM26.3956 55.8913C27.4895 62.4571 28.0266 76.4765 24.4459 82.8524C22.9822 85.2211 20.2763 86.6425 17.549 86.6426C14.3527 86.4574 11.2278 85.3216 8.64962 83.3801C7.16552 82.2099 5.88498 80.7274 5.06702 78.995C4.55144 78.018 4.37757 76.7702 4.5885 75.6507C5.79675 69.0559 13.8649 58.9132 18.2352 53.6312C20.7537 50.6283 25.7853 52.0092 26.39 55.895L26.3956 55.8913Z" fill="#221F1F"/>
</g>
<path d="M20.7165 68.6235L17.8896 38.4591C17.8696 38.259 17.8463 38.0589 17.8196 37.8588C17.5429 35.7526 16.0595 18.9882 38.3444 16.7905C38.3444 16.7905 59.1259 15.1286 60.5693 34.5113L61.8728 65.3201C61.9828 66.7514 61.8028 68.1283 61.3827 69.4171C60.6727 71.5911 59.2859 73.4361 57.5458 74.9725C56.6524 75.7593 55.679 76.4376 54.6589 77.0345C51.462 78.9067 47.8484 79.9716 44.1515 80.2667L40.9513 80.521C38.4444 80.7211 35.9209 80.5583 33.4741 80.0055C31.8206 79.6324 30.2838 79.2322 28.8304 78.6048C25.7502 77.2787 23.2333 75.3252 21.8399 72.5848C21.2265 71.3808 20.8332 70.0479 20.7232 68.6201H20.7165V68.6235Z" fill="white"/>
<path d="M20.5566 68.9187C19.3798 59.0968 17.9897 47.552 17.0097 37.7741C16.0463 27.7046 21.7 20.1856 31.0707 17.3706C33.3575 16.638 35.7543 16.2615 38.1212 15.9902C41.5147 15.7732 44.8917 16.2548 48.1419 17.2587C56.3291 19.8566 60.9595 26.287 61.3595 34.9456C61.7129 43.1429 62.1462 55.2779 62.4729 63.5092C62.5596 65.4458 62.7196 67.5383 62.0695 69.4139C60.1827 75.2168 54.429 78.5575 48.9353 80.043C46.2751 80.8027 43.2149 80.8773 40.4747 81.091C34.3076 81.3691 26.1303 79.5071 22.3434 74.1485C21.2166 72.5409 20.5266 70.6179 20.3966 68.6508L20.8766 68.9289C20.7966 68.9797 20.6399 68.9764 20.5599 68.9255L20.5566 68.9187ZM20.8799 68.3252C20.8066 68.2709 20.6533 68.2675 20.5766 68.315L21.0566 68.5931C21.8 76.6548 30.794 79.7208 37.6545 80.0599C39.2579 80.2159 41.5781 79.8937 43.1982 79.792C49.9353 79.402 58.5493 76.0579 60.8261 69.0204C61.4095 67.2908 61.2161 65.3915 61.1261 63.5906C60.7328 55.3491 60.1861 43.2481 59.8227 35.0371C59.4327 27.0399 55.2424 21.1861 47.6552 18.8018C44.645 17.8759 41.4047 17.4248 38.2612 17.6283C36.0077 17.8963 33.6942 18.2659 31.544 18.9612C22.8534 21.5625 17.6497 28.6068 18.6264 37.9335C19.4898 47.362 20.2232 58.8085 20.8766 68.3252H20.8799Z" fill="#221F1F"/>
<path d="M38.7514 18.0738C39.1567 18.042 39.3696 17.595 39.1342 17.2771C36.8947 14.2473 27.7688 3.14524 19.4515 10.8738C10.9766 18.7473 27.1403 13.5996 32.6757 13.842C34.3809 13.9175 36.0083 14.6089 37.1567 15.8347C37.6501 16.3632 38.0574 16.9831 38.2048 17.6784C38.2581 17.9268 38.4935 18.0957 38.7534 18.0778V18.0738H38.7514Z" fill="white"/>
<path d="M38.5465 18.0818C38.5567 18.0381 38.6038 17.9408 38.6898 17.901C38.7655 17.8633 38.7983 17.8732 38.8577 17.8414C39.0419 17.7441 39.0767 17.5057 38.9334 17.3567L38.872 17.2752C37.8055 15.8686 36.6263 14.5355 35.3428 13.3116C31.4861 9.56656 25.8914 6.42548 20.8536 10.0931C19.6008 11.0288 18.3193 12.199 17.5332 13.5302C17.3653 13.8699 17.2118 14.2514 17.4656 14.5454C17.6642 14.7361 17.9344 14.8196 18.2415 14.8851C19.0337 15.0341 19.8525 15.0004 20.6632 14.9507C23.9795 14.7063 27.2794 13.9812 30.6079 13.6712C31.7379 13.5719 32.9047 13.5103 34.0204 13.7845C35.9549 14.2553 37.8505 15.6083 38.3868 17.5434L38.4094 17.6448C38.438 17.7878 38.5854 17.8911 38.7348 17.8812C38.7348 17.8772 38.5383 18.0918 38.5445 18.0759L38.7471 18.2746C38.7144 18.2746 38.653 18.2646 38.6059 18.2169C38.5567 18.1712 38.5445 18.1136 38.5445 18.0838L38.5465 18.0818ZM38.9559 18.0659C38.9559 18.0361 38.9436 17.9785 38.8966 17.9328C38.8474 17.8871 38.7881 17.8752 38.7574 17.8752C38.7574 17.8792 38.9662 18.0719 38.96 18.0779V18.2686L38.7696 18.2765C38.4749 18.3004 38.1739 18.1335 38.0532 17.8693C37.5946 15.9957 35.7686 14.6944 33.9058 14.2573C32.8618 14.007 31.7625 14.0725 30.6611 14.1739C27.3244 14.5037 24.0716 15.2408 20.7082 15.505C19.1381 15.6361 15.7829 15.7057 17.0235 13.2798C17.2998 12.7573 17.6642 12.3242 18.0368 11.905C18.7983 11.0785 19.6048 10.3076 20.5301 9.65795C23.48 7.50827 27.0562 7.47251 30.2845 9.05596C33.9488 10.858 36.8167 13.858 39.218 17.0348L39.2794 17.1183L39.3101 17.16C39.611 17.5494 39.3715 18.1633 38.8781 18.2567C38.8679 18.2607 38.9047 18.2487 38.9211 18.2328C38.9703 18.1971 38.9846 18.1057 38.96 18.0659H38.9559Z" fill="#221F1F"/>
<path d="M25.3271 21.2337C25.3271 21.2337 38.1614 22.4445 50.3589 19.2327L25.3271 21.2337Z" fill="white"/>
<path d="M24.5811 21.366C24.5811 21.366 38.7187 22.5428 50.9163 19.3311" stroke="#221F1F" stroke-width="0.696928" stroke-miterlimit="10"/>
<path d="M17.6611 35.2577C17.6611 35.2577 38.8993 28.5051 60.1275 31.9916L17.6611 35.2577Z" fill="white"/>
<path d="M17.5605 34.932C20.0641 33.8263 22.7142 33.3108 25.3511 32.7105C29.7281 31.7846 34.2284 31.0893 38.6787 30.6891C43.089 30.2821 47.7394 30.2245 52.1663 30.4653C53.0197 30.5399 55.3732 30.7366 56.2066 30.8146C57.5467 31.0147 58.8802 31.2623 60.1802 31.6557L60.0736 32.3239C58.3034 32.3883 56.5067 32.1 54.7465 31.9915C45.9159 31.2555 36.9386 31.9237 28.2146 33.4159C26.7012 33.6974 24.471 34.1214 22.9809 34.4707C21.2475 34.8675 19.5174 35.2881 17.7606 35.5831L17.5605 34.9353V34.932Z" fill="#221F1F"/>
<path d="M19.6641 55.9934C23.4543 54.5995 38.052 50.3601 62.2871 52.0525L19.6641 55.9934Z" fill="white"/>
<path d="M19.5518 55.6746C26.1722 53.2056 33.2261 52.161 40.2266 51.564C43.7335 51.3029 47.2504 51.1706 50.764 51.1944C54.2742 51.2113 57.8011 51.2249 61.2747 51.893L61.2281 52.5713C57.7245 52.8189 54.2542 52.4662 50.7573 52.4866C43.7935 52.4323 36.8097 52.8257 29.9292 53.9313C26.4956 54.4943 23.0753 55.2201 19.7784 56.3156L19.5518 55.678V55.6746Z" fill="#221F1F"/>
<path d="M52.7993 52.0391C53.116 44.5031 52.4893 31.4185 52.4893 31.4185C52.4893 31.4185 34.7014 30.0382 25.374 33.8842C25.374 33.8842 26.2774 46.9552 28.1642 54.0774" stroke="#221F1F" stroke-width="0.696928" stroke-miterlimit="10"/>
<path d="M25.4973 33.7076C25.264 36.1462 27.2608 50.2482 28.1442 53.555C34.488 51.9406 46.9822 51.303 52.6493 51.3606C53.0226 47.2229 52.4426 36.7125 52.1692 31.7575L52.1559 31.5438C41.6385 30.116 30.091 32.4935 25.4973 33.7076Z" fill="#5BC2C7"/>
<path d="M39.0354 43.4515L38.9121 39.6632C38.9121 39.5411 39.0355 39.4597 39.1421 39.514L42.749 41.4098C42.8624 41.4675 42.8624 41.6337 42.749 41.6947L39.2655 43.5872C39.1621 43.6415 39.0388 43.5702 39.0321 43.4515H39.0354Z" fill="white" stroke="black" stroke-width="0.167263"/>
<g clip-path="url(#clip1_1260_947)">
<path d="M41.2781 57.2543L39.937 71.3168C39.9182 71.5126 39.9779 71.7072 40.1012 71.8607L42.8144 75.2003C43.134 75.594 43.7464 75.5632 44.023 75.1361L46.3985 71.4871C46.5083 71.3199 46.5445 71.116 46.5026 70.9203L43.5508 57.2166" fill="#FFEAEA"/>
<path d="M41.3677 57.2616C41.1231 61.7687 40.7155 66.2676 40.2717 70.7579L40.2127 71.3614C40.2059 71.4582 40.2314 71.5567 40.2826 71.6376C40.9824 72.5123 42.271 74.1058 42.9645 74.963C43.1516 75.2591 43.574 75.3056 43.787 75.0127C43.8612 74.9083 44.0033 74.6838 44.0772 74.5741L44.7521 73.545L46.1056 71.4884C46.2197 71.3335 46.3197 71.1526 46.2652 70.954C46.0532 69.9345 45.6364 67.9252 45.4215 66.8862C44.8364 64.0833 44.0321 60.0792 43.4643 57.2361L43.6389 57.199C44.2874 60.0481 45.213 63.9897 45.8271 66.7997C46.0065 67.6016 46.4583 69.6284 46.6327 70.4038C46.6639 70.6002 46.7518 70.8485 46.7601 71.0498C46.7753 71.3078 46.663 71.5537 46.5179 71.7569L45.1866 73.8265C44.9951 74.1217 44.4306 74.9943 44.2457 75.2802C43.8636 75.8867 42.9548 75.8885 42.5523 75.3016C42.3579 75.0631 41.6881 74.2438 41.4821 73.9899C41.3065 73.7377 39.7557 71.9687 39.7191 71.7423C39.5897 71.4856 39.7043 70.9771 39.715 70.705C40.1284 66.213 40.579 61.7169 41.1917 57.2452L41.3695 57.2615L41.3677 57.2616Z" fill="black"/>
<path d="M40.5663 57.2622L39.0664 54.9044C38.968 54.7495 38.9937 54.5498 39.1274 54.4241C39.8719 53.7266 42.3799 51.7768 45.1644 54.0873C45.2883 54.1907 45.3377 54.361 45.2823 54.5125L44.3605 57.0454C44.2959 57.2224 44.111 57.3262 43.9265 57.287C43.3208 57.1585 41.9765 56.9522 41.0408 57.4056C40.8724 57.487 40.6685 57.4205 40.5663 57.2622Z" fill="#FFE8C2"/>
<path d="M40.3843 57.3768C39.9866 56.7806 39.6233 56.1628 39.2481 55.5529L38.9674 55.0944C38.8184 54.8997 38.7693 54.6115 38.9194 54.4009C39.1734 54.1073 39.4954 53.9044 39.8112 53.6893C41.1989 52.7557 43.0603 52.5868 44.4934 53.5111C44.6387 53.5829 44.8162 53.7171 44.947 53.8147C45.0804 53.9264 45.3118 54.036 45.3671 54.2166C45.4562 54.3953 45.3415 54.6289 45.2818 54.7984C45.0069 55.5557 44.7503 56.3208 44.4864 57.0828C44.4161 57.3137 44.1579 57.4772 43.916 57.4325L43.6508 57.3875C43.3031 57.3348 42.9531 57.3037 42.6048 57.3028C42.2585 57.3054 41.9119 57.3312 41.5885 57.42C41.4231 57.4601 41.275 57.5224 41.1237 57.592C40.8619 57.7236 40.534 57.6143 40.3844 57.3785L40.3843 57.3768ZM40.7474 57.1464C40.7873 57.2173 40.8823 57.2527 40.9501 57.2219C41.8186 56.8403 42.8018 56.9198 43.7048 57.0915L43.9671 57.1492C44.0828 57.1727 44.2003 57.1068 44.2417 56.9919C44.5294 56.2392 44.8243 55.4879 45.1012 54.7323C45.1353 54.6142 45.2572 54.4106 45.1943 54.284C45.1587 54.1647 44.9671 54.0653 44.8432 53.9619C44.5699 53.7494 44.2553 53.5627 43.9368 53.4297C42.3056 52.6582 40.3987 53.3564 39.2164 54.5923C39.1494 54.698 39.2184 54.8082 39.2824 54.8937C39.7693 55.6399 40.2829 56.3864 40.7473 57.1446L40.7474 57.1464Z" fill="black"/>
<path d="M44.2784 60.5967C44.2784 60.5967 40.7219 62.6619 40.5663 64.7156" stroke="black" stroke-width="0.178253" stroke-miterlimit="10"/>
<path d="M44.6934 62.5221C44.6934 62.5221 41.498 64.5946 40.2752 67.7756" stroke="black" stroke-width="0.178253" stroke-miterlimit="10"/>
<path d="M45.3135 65.4051C45.3135 65.4051 44.1086 64.9584 40.0266 70.3706L45.3135 65.4051Z" fill="#FFEAEA"/>
<path d="M45.3135 65.4051C45.3135 65.4051 44.1086 64.9584 40.0266 70.3706" stroke="black" stroke-width="0.178253" stroke-miterlimit="10"/>
<path d="M45.7541 67.4521C45.7541 67.4521 43.4555 67.5342 40.5472 72.4129L45.7541 67.4521Z" fill="#FFEAEA"/>
<path d="M45.7541 67.4521C45.7541 67.4521 43.4555 67.5342 40.5472 72.4129" stroke="black" stroke-width="0.178253" stroke-miterlimit="10"/>
<path d="M43.2812 68.873C43.2812 68.873 45.4315 70.7246 45.7333 72.5085L43.2812 68.873Z" fill="#FFEAEA"/>
<path d="M43.2812 68.873C43.2812 68.873 45.4315 70.7246 45.7333 72.5085" stroke="black" stroke-width="0.178253" stroke-miterlimit="10"/>
<path d="M43.7734 58.2496C43.7734 58.2496 41.5661 59.4549 40.9416 60.7935L43.7734 58.2496Z" fill="#FFEAEA"/>
<path d="M43.7734 58.2496C43.7734 58.2496 41.5661 59.4549 40.9416 60.7935" stroke="black" stroke-width="0.178253" stroke-miterlimit="10"/>
<path d="M40.9818 60.6323C41.4996 59.7467 43.0073 58.7313 43.6965 58.3343L44.1983 60.7987C42.7948 61.1666 41.3652 63.1038 40.8259 64.0263L40.9818 60.6323Z" fill="#FFE8C2" stroke="black" stroke-width="0.355675"/>
<path d="M40.1267 70.3026C41.9557 67.4868 44.2507 65.7242 45.1696 65.1949L44.6573 62.553C42.0511 64.2745 40.8917 66.1601 40.6377 66.8877L40.1267 70.3026Z" fill="#FFE8C2" stroke="black" stroke-width="0.355675"/>
</g>
</g>
<defs>
<clipPath id="clip0_1260_947">
<rect y="0.522217" width="76" height="76" rx="38" fill="white"/>
</clipPath>
<clipPath id="clip1_1260_947">
<rect width="7.11409" height="22.8699" fill="white" transform="translate(38.5742 53.114) rotate(-3.37862)"/>
</clipPath>
</defs>
</svg>