<?xml version="1.0" encoding="utf-8"?>
<!-- Generator: Adobe Illustrator 23.1.1, SVG Export Plug-In . SVG Version: 6.00 Build 0)  -->
<svg version="1.1" id="Layer_1" xmlns="http://www.w3.org/2000/svg" xmlns:xlink="http://www.w3.org/1999/xlink" x="0px" y="0px"
	 viewBox="0 0 100 100" style="enable-background:new 0 0 100 100;" xml:space="preserve">
<path d="M97.8,37.9c-2.7-2.3-5.5-4.5-8.4-6.8C88,30,86.5,29,85,28c0.4-1.1,0.8-2.2,1.3-3.3c-0.1-0.1-0.2-0.1-0.3-0.2
	c-1.1,0.6-2.3,1.2-3.4,1.8c-1.6,0.8-2.2,0.4-2.1-1.4c0-0.7,0-1.4,0-2.2c0-0.3-0.2-0.7-0.4-0.8c-0.2-0.1-0.6,0.1-0.8,0.3
	c-1,1.1-2,2.3-3.1,3.5c-8.8-0.1-17.8-0.1-26.8-0.4c-4.4-0.2-8.9-0.8-13.3-1.3c-4.4-0.5-8.9-1.2-13.3-0.1
	c-7.5,1.9-14.2,5.1-19.6,10.9c-2.4,2.6-3.8,5.6-2.8,9.3c0.1,0.4,0.3,0.7,0.4,1.2c0.4-0.2,0.6-0.4,1-0.6c1.9,3.4,5.3,5.4,8,8
	c2.5,2.4,2.6,3.4,0.6,6.9c-0.2,0.3-0.3,0.6-0.6,0.7c-2.5,1.8-2.4,4.4-1.9,7c0.6,3,0.9,6,0.5,9c-0.1,0.9,0.2,1.5,1.1,1.9
	c0.4,0.1,0.8,0.4,1.1,0.7c1.3,1.1,2.5,1.6,4,1.7c0,0,0.3,0,0.4,0c0.2,0,0.5,0,0.7,0c0.2,0,0.4-0.1,0.5-0.2c0.2-0.3,1,0.2,2.4-0.8
	c0.4-0.3-0.8-1.6-0.5-2.1c-0.7-1.1-1.7-2-3.3-2.3c-0.9-0.2-1.4-0.6-1.3-1.6c0-0.5-0.1-1-0.2-1.5c-0.4-3.4,1.1-5.8,3.8-7.7
	c0.5-0.4,1.1-0.7,1.7-1.2c0.1,0,0.2,0.1,0.4,0.1c0.9,4.3,2.8,8.3,2.9,12.7c0,0.9,0.4,1.5,1.2,1.9c1.5,0.7,3,1.5,4.5,2.2
	c0.4,0.2,0.8,0.1,1.2,0.2c0-0.4-0.1-0.8-0.1-1.2c0-0.2-0.1-0.4-0.1-0.6c1-0.3,1.9-0.6,2.9-0.9c0-0.2,0.1-0.4,0.1-0.6
	c-0.5-0.3-0.9-0.6-1.4-0.9c-0.1-0.1-0.3-0.3-0.6-0.3c-0.3-0.2-0.6-0.3-0.9-0.4c-1.4-0.6-1.8-1-1.9-2.5c0-1.2,0.1-2.3-0.1-3.5
	c-0.5-4,0.7-7.5,2.4-11c0.5-0.9,0.9-1.3,2.1-1.1c2.6,0.6,5.2,1,7.9,1.4c0.7,0.1,1.4,0.3,2.3,0.5c-0.2,2-0.4,3.9-0.6,5.8
	c-0.3,3.6-0.5,7.2-0.8,10.8c-0.1,1.6,2.3,4.4,3.9,4.4c0.3,0,0.6-0.4,0.8-0.6c1.3-0.1,2.5-0.1,3.7-0.3c1-0.2,1.1-0.8,0.4-1.5
	c-0.9-0.8-1.9-1.6-2.7-2.5c-0.3-0.3-0.5-0.9-0.5-1.4c0-0.7,0.2-1.4,0.5-2c1.3-2.8,2.7-5.6,4.2-8.6c1.3,2.6,2.5,4.9,3.7,7.2
	c0.8,1.4,1.7,2.8,2.6,4.1c0.8,1.2,1.7,2.2,1.7,3.8c0,1,0.4,1.1,1.3,0.7c0.6-0.2,1.3-0.2,1.9-0.1c1,0.2,2,0.6,2.9,1
	c0.7,0.2,1.2,0.2,1.4-0.6c0.2-0.9,1-0.8,1.7-0.9c0.3,0,0.6-0.2,0.9-0.4c-0.2-0.3-0.4-0.6-0.6-0.9c0,0-0.1,0-0.1,0
	c0-0.1-0.1-0.2-0.1-0.2l0,0c0,0,0,0,0,0c-0.1-0.1-0.2-0.1-0.3-0.2c-1.2-0.7-2.5-1.4-3.7-2.2c-0.4-0.3-0.7-0.8-0.8-1.3
	c-0.4-2.1-0.8-4.2-1.1-6.3c-0.4-2.2-0.6-4.4-1-6.6c-0.1-0.7,0.1-1,0.7-1.3c2.6-1.2,4.7-2.9,6.1-5.5c1.6-2.9,4.4-4.7,7.2-6.4
	c0.3-0.2,0.6-0.3,0.8-0.5c1.2-1.2,2.6-1.4,4.2-0.9c3.1,1,6.2,0.6,9.3,0.5c2.2-0.1,4.3,0.1,6.5-0.9c0.3,0.5,0.6,1,0.7,1.5
	c0.2,0.5,0.3,1.1,1,1c0.8-0.2,1.9,0.2,2.3-1c0.2-0.5,0.3-1.1,0.3-1.6c0-1.4-0.2-2.9-0.2-4.3C99.6,39.8,98.8,38.8,97.8,37.9z
	 M58.8,78.8c0-0.1,0.1-0.2,0.1-0.3c0.1,0.1,0.1,0.1,0.2,0.1C59,78.6,58.9,78.7,58.8,78.8z M64.9,76c0,0-0.1,0-0.1,0
	c-0.1-0.1-0.2-0.2-0.3-0.3C64.7,75.7,64.8,75.8,64.9,76z"/>
</svg>
