<svg xmlns="http://www.w3.org/2000/svg"  viewBox="0 0 24 24" fill="#27A2A8"><path d="M21,13.695V8c0-3.314-2.686-6-6-6H9C5.686,2,3,4.686,3,8v5.977c-0.546,0.314-0.852,0.918-0.852,1.613	c0,0.544,0.227,1.033,0.588,1.37L3.777,18l0.521,0.005c-0.388,0.279-0.519,0.84-0.254,1.275l0.514,0.844	C5.437,21.664,6.327,22,7.735,22H9c1.105,0,2-0.895,2-2h2c0,1.105,0.895,2,2,2h1.047c1.457,0,2.378-0.348,3.288-1.943l0.535-0.876	c0.234-0.384,0.17-0.868-0.103-1.181l0.285,0.003l1.221-1.219c0.374-0.349,0.609-0.855,0.609-1.419	C21.882,14.646,21.565,14.02,21,13.695z" opacity=".3"/><path d="M7.267,12.807L11,10H5l0.778,2.341C5.986,12.965,6.742,13.201,7.267,12.807z"/><path d="M22.946,14.885c0-0.912-0.345-1.729-0.946-2.287V7.632c0-0.26-0.032-0.431-0.081-0.636C21.43,3.612,18.518,1,15,1H9 C5.482,1,2.57,3.612,2.08,6.996C2.032,7.14,2,7.428,2,7.588V12v0.598c-0.601,0.558-0.946,1.375-0.946,2.287 c0,0.855,0.354,1.677,0.945,2.229l1.027,1.026c-0.061,0.472,0.029,0.954,0.278,1.361l0.556,0.911C5.085,22.56,6.503,23,8.255,23H9 c1.304,0,2.416-0.836,2.829-2h0.343c0.413,1.164,1.525,2,2.829,2h0.743c1.751,0,3.169-0.44,4.379-2.563l0.574-0.939 c0.248-0.407,0.337-0.888,0.277-1.359l1.003-1.002C22.592,16.562,22.946,15.74,22.946,14.885z M9,3h6c2.045,0,3.802,1.237,4.576,3 H4.424C5.198,4.237,6.955,3,9,3z M4,8h16v5.095c0,0.357,0.191,0.688,0.501,0.866c0.283,0.163,0.445,0.5,0.445,0.924 c0,0.304-0.122,0.592-0.359,0.814l-0.816,0.816l-5.992-3.082c-1.102-0.565-2.454-0.566-3.559,0l-5.99,3.082l-0.84-0.839 c-0.213-0.199-0.335-0.487-0.335-0.791c0-0.424,0.162-0.761,0.445-0.924C3.809,13.783,4,13.452,4,13.095V8z M18.4,19.422 C17.625,20.78,16.982,21,15.743,21H15c-0.551,0-1-0.448-1-1c0-0.553-0.448-1-1-1h-2c-0.552,0-1,0.447-1,1c0,0.552-0.449,1-1,1 H8.255c-1.239,0-1.882-0.22-2.672-1.604L5.012,18.46c-0.022-0.037-0.008-0.089-0.009-0.093l6.132-3.155 c0.539-0.278,1.191-0.277,1.729,0l6.125,3.245L18.4,19.422z"/><path d="M18.222,12.341L19,10h-6l3.733,2.807C17.258,13.201,18.014,12.965,18.222,12.341z"/></svg>