<svg xmlns="http://www.w3.org/2000/svg" fill="none" viewBox="-15.39 0.52 100.43 83.81">
<g clip-path="url(#clip0_1260_1074)">
<rect y="0.522217" width="76" height="76" rx="38" fill="#FAFBFB"/>
<path d="M56.1552 66.1901C52.6396 66.0215 50.9206 61.7844 53.3127 59.2037C59.9471 52.0603 70.4453 41.789 74.9925 43.0152C74.9925 43.0152 81.6529 44.1874 84.3454 53.2753C85.3078 56.5327 84.1047 60.1295 81.4343 61.9065C79.3378 63.3008 76.2581 64.4134 71.3387 65.2762C66.4192 66.139 61.2387 66.4386 56.1578 66.1941L56.1546 66.1934L56.1552 66.1901Z" fill="white"/>
<path d="M56.032 66.5995C54.354 66.5256 52.7806 65.3964 52.1328 63.8228C51.4237 62.2302 51.7246 60.2338 52.8997 58.9651C55.0061 56.6619 57.1571 54.4499 59.3875 52.2878C62.7091 49.2221 70.5198 41.6213 75.0627 42.5924C80.4446 43.9818 83.9746 49.2022 84.9718 54.4633C85.2379 56.6532 84.6615 58.9463 83.2858 60.6604C81.2272 63.1482 77.8285 64.0885 74.8573 64.9062C68.8435 66.373 61.8297 66.9258 56.0314 66.6028L56.032 66.5995ZM56.2765 65.7846C61.4025 66.062 68.9221 65.6837 74.6862 64.2231C79.8631 62.9398 84.8452 60.9172 84.2366 54.5567C83.3485 50.0936 80.5548 45.7219 76.3175 43.8998C74.308 42.9225 72.67 43.4476 70.7859 44.4435C66.7812 46.6676 63.3914 49.8643 60.0618 53.0109C57.8447 55.1377 55.6787 57.3571 53.5963 59.6032C52.6411 60.6193 52.3917 62.1859 52.9483 63.477C53.5023 64.8571 54.8277 65.704 56.2732 65.784L56.2765 65.7846Z" fill="#221F1F"/>
<mask id="mask0_1260_1074" style="mask-type:luminance" maskUnits="userSpaceOnUse" x="-16" y="33" width="41" height="34">
<path d="M24.2184 46.2806L-7.43066 33.6489L-15.3939 54.2118L16.2551 66.8434L24.2184 46.2806Z" fill="white"/>
</mask>
<g mask="url(#mask0_1260_1074)">
<path d="M15.8128 63.1763C19.2876 62.6431 20.5449 58.2409 17.8964 55.9137C10.5506 49.48 -0.9665 40.3314 -5.35247 42.026C-5.35247 42.026 -11.8423 43.8862 -13.5544 53.2281C-14.1661 56.5754 -12.589 60.0347 -9.74883 61.5302C-7.51705 62.6998 -4.33964 63.4904 0.636336 63.8391C5.61231 64.1878 10.79 63.9506 15.811 63.1734L15.8128 63.1763Z" fill="white"/>
<path d="M15.576 62.6159C16.9564 62.3783 18.1261 61.4752 18.5107 60.0754C18.891 58.8024 18.5002 57.3679 17.5018 56.5075C15.1962 54.5046 12.8202 52.5029 10.4169 50.5908C6.80333 47.7822 3.11161 44.9557 -1.06561 43.1175C-3.02866 42.3119 -4.65743 41.9443 -6.54644 43.1009C-10.5746 45.3225 -12.9132 49.9544 -13.3211 54.4918C-13.3887 57.0093 -12.1995 59.5807 -10.0875 60.9392C-7.88799 62.2415 -5.32909 62.7726 -2.80206 63.1121C2.96714 63.9324 10.9785 63.4014 15.5749 62.6206L15.576 62.6159ZM16.0456 63.7316C9.56261 64.7867 -4.24545 65.2116 -10.4519 61.5174C-12.755 60.0094 -14.102 57.247 -14.0497 54.4751C-13.8061 51.2281 -12.6283 48.062 -10.668 45.4585C-9.48783 43.9603 -8.00423 42.6716 -6.2835 41.8552C-5.312 41.3396 -4.08064 41.1737 -2.98281 41.3977C3.4845 42.6826 13.312 50.9702 18.4266 55.4574C21.3337 58.043 19.8781 63.1449 16.0421 63.7259L16.0456 63.7316Z" fill="#221F1F"/>
</g>
<path d="M14.7151 69.3964L15.2209 39.1603C15.2231 38.9596 15.2218 38.7585 15.2173 38.5569C15.1735 36.4362 15.5421 19.6425 38.0124 20.1453C38.0124 20.1453 58.924 20.9984 58.2269 40.3822L56.1305 71.0737C56.0824 72.5055 55.751 73.8485 55.19 75.0753C54.2421 77.1445 52.6555 78.8063 50.7504 80.1196C49.7725 80.792 48.7268 81.3472 47.6436 81.816C44.2484 83.2869 40.5267 83.9076 36.8066 83.7553L33.5865 83.6224C31.064 83.5192 28.5649 83.0542 26.1853 82.212C24.5772 81.6433 23.0884 81.0618 21.7079 80.2651C18.7817 78.5802 16.4867 76.3413 15.3989 73.4576C14.9198 72.1906 14.6744 70.8222 14.7221 69.3938L14.7155 69.393L14.7151 69.3964Z" fill="white"/>
<path d="M14.5239 69.6692C14.433 59.7933 14.3192 48.1843 14.4196 38.3758C14.5688 28.2802 21.0368 21.5084 30.6935 19.8459C33.0551 19.3949 35.4873 19.3102 37.8779 19.326C41.2866 19.5191 44.6016 20.4027 47.7328 21.7886C55.6124 25.3483 59.5218 32.2784 58.9663 40.9078C58.415 49.0746 57.5095 61.1534 56.9279 69.3505C56.8008 71.2803 56.7297 73.3734 55.8746 75.154C53.353 80.6782 47.2459 83.2969 41.6026 84.1082C38.8656 84.5411 35.8051 84.2469 33.0484 84.129C26.8667 83.6627 18.9159 80.8337 15.7295 75.0673C14.7829 73.3385 14.3067 71.3496 14.3939 69.3844L14.842 69.7178C14.7566 69.7586 14.6007 69.7364 14.5265 69.6763L14.5239 69.6692ZM14.9119 69.1199C14.8447 69.0573 14.6921 69.0355 14.6104 69.0733L15.0585 69.4067C14.9113 77.4859 23.5439 81.6065 30.3492 82.7679C31.9313 83.1154 34.281 83.0752 35.9081 83.1693C42.6708 83.5932 51.631 81.3153 54.6778 74.6145C55.4503 72.9705 55.4669 71.0649 55.5756 69.2692C56.0918 61.054 56.8806 48.9951 57.4234 40.8137C57.916 32.8409 54.3819 26.5352 47.0772 23.2595C44.1769 21.9797 40.9948 21.1428 37.8369 20.9663C35.5597 20.9608 33.2115 21.0488 30.9903 21.4792C22.0354 23.0119 16.0686 29.3672 16.0146 38.7283C15.8364 48.1765 15.306 59.6091 14.9085 69.1195L14.9119 69.1199Z" fill="#221F1F"/>
<path d="M24.6739 22.9489C24.6739 22.9489 37.2904 25.6531 49.7662 23.9312L24.6739 22.9489Z" fill="white"/>
<path d="M23.9182 22.9924C23.9182 22.9924 37.8334 25.8165 50.3091 24.0948" stroke="#221F1F" stroke-width="0.681177" stroke-miterlimit="10"/>
<path d="M15.4728 35.9631C15.4728 35.9631 37.325 31.8213 58.0284 37.7571L15.4728 35.9631Z" fill="white"/>
<path d="M15.4092 35.6289C18.0197 34.8351 20.7102 34.6401 23.3969 34.36C27.8488 33.9645 32.3976 33.8108 36.8639 33.9419C41.2912 34.0615 45.9181 34.5537 50.29 35.3136C51.1296 35.4878 53.4461 35.9594 54.2655 36.1347C55.5747 36.49 56.8721 36.8913 58.1201 37.4324L57.9398 38.0781C56.1738 37.9326 54.4206 37.4365 52.6839 37.1217C43.9917 35.3542 34.9976 34.9527 26.1636 35.393C24.6286 35.4917 22.3656 35.6461 20.8462 35.8143C19.0797 36.0006 17.3139 36.2107 15.5355 36.294L15.4088 35.6322L15.4092 35.6289Z" fill="#221F1F"/>
<path d="M15.1186 56.7954C19.0394 55.8703 34.0145 53.4189 57.905 57.9435L15.1186 56.7954Z" fill="white"/>
<path d="M15.0405 56.4675C21.8931 54.8166 29.0179 54.6202 36.0399 54.8585C39.5534 55.0152 43.0624 55.3001 46.5508 55.7383C50.0367 56.1693 53.5395 56.599 56.9165 57.6673L56.7947 58.3301C53.286 58.1604 49.8773 57.4032 46.4005 57.0105C39.4874 56.135 32.5046 55.6981 25.5452 55.9751C22.071 56.1245 18.592 56.4357 15.1944 57.1258L15.0401 56.4709L15.0405 56.4675Z" fill="#221F1F"/>
<path d="M48.5178 56.7885C49.672 49.3559 50.5057 36.311 50.5057 36.311C50.5057 36.311 32.9642 32.8298 23.2572 35.5344C23.2572 35.5344 22.7003 48.5986 23.7841 55.8828" stroke="#221F1F" stroke-width="0.681177" stroke-miterlimit="10"/>
<path d="M23.3994 35.3736C22.8957 37.7631 23.3117 51.9789 23.8222 55.3616C30.3126 54.5149 42.8125 55.3669 48.4435 56.0972C49.2757 52.0401 49.8691 41.5527 50.149 36.6086L50.1595 36.3952C39.8561 33.7306 28.1042 34.7157 23.3994 35.3736Z" fill="#5BC2C7"/>
<path d="M35.7789 46.6363L36.0781 42.8649C36.0917 42.7438 36.2236 42.6778 36.3237 42.7443L39.7018 45.0529C39.8081 45.1236 39.7896 45.2884 39.67 45.3354L35.9927 46.7982C35.8838 46.8397 35.769 46.7544 35.7756 46.6359L35.7789 46.6363Z" fill="white" stroke="black" stroke-width="0.163482"/>
<g clip-path="url(#clip1_1260_1074)">
<path d="M36.8098 8.75548C36.8098 8.75548 30.3481 7.50232 34.1762 5.26027C38.0043 3.01821 42.4427 5.93049 42.4427 5.93049C42.4427 5.93049 46.2577 9.15685 36.8098 8.75548Z" fill="#FFEAEA"/>
<path d="M36.7875 8.93606C34.9998 8.67809 30.8 7.725 33.1106 5.26511C34.6786 3.78056 36.9936 3.29004 39.0753 3.69947C40.4588 3.9502 41.7144 4.47497 42.8878 5.24832C43.4863 5.7818 43.959 6.47282 43.9153 7.32617C43.5571 9.9006 38.6098 9.03641 36.7839 8.93577L36.7875 8.93606ZM36.8316 8.57136C38.2097 8.52994 39.6679 8.44397 40.9972 8.10326C41.4886 7.97901 42.2339 7.73679 42.4793 7.36289C42.5024 7.30277 42.493 7.28378 42.4845 7.25392C42.4164 7.01503 42.1286 6.69635 41.9182 6.54802L41.9974 6.60549C40.5019 5.80238 38.7667 5.25695 37.0639 5.25745C36.5261 5.27948 35.9379 5.33754 35.4177 5.5032C34.7783 5.69931 33.8464 6.03944 33.499 6.59104C33.4693 6.64332 33.4663 6.67955 33.4855 6.75768C33.737 7.34325 34.4491 7.64528 35.0797 7.96259C35.6398 8.20491 36.2561 8.42989 36.8316 8.57136Z" fill="#221F1F"/>
<path d="M15.1865 28.417L10.9108 37.394C10.6074 38.0331 10.5541 38.7799 10.8369 39.43C11.2125 40.2845 12.1616 41.036 14.5591 40.0235C15.3898 39.6715 16.1544 39.1902 16.8534 38.6197C20.3587 35.7717 37.7122 23.3956 57.2561 39.456C58.2954 40.3096 59.6124 40.7956 60.9538 40.7111C62.4126 40.6179 63.8051 39.9031 63.041 37.2741L61.5696 31.3171C60.9656 28.8725 59.354 26.7582 57.0979 25.4413C50.2458 21.4473 34.6015 14.7204 18.7244 24.4924C17.1737 25.4496 15.9438 26.8121 15.1829 28.4168L15.1865 28.417Z" fill="#FFEAEA"/>
<path d="M15.4326 28.5318L12.086 36.0344L11.6743 36.9746C11.2797 37.7485 10.985 38.6398 11.4807 39.3619C12.1882 40.3053 13.4699 39.6982 14.3959 39.2956C15.5931 38.74 16.5363 37.7663 17.5779 36.972C22.0607 33.536 27.366 31.0636 32.9997 30.2515C41.6399 28.8772 50.3288 31.9846 57.0587 37.3507C57.9171 38.0073 58.8493 38.9216 59.94 39.1413C60.4805 39.2653 61.2188 39.2887 61.6731 39.0375C61.7237 38.9978 61.7349 38.9951 61.7712 38.9069C61.8623 38.5934 61.7937 38.0445 61.6812 37.6781C61.3929 36.4222 60.6203 32.9539 60.3252 31.6465C59.4177 27.5036 55.9761 25.9229 52.5172 24.1511C45.3038 20.5653 36.9383 18.8661 28.972 20.5648C25.9887 21.2017 23.0682 22.2338 20.3847 23.7154C18.2955 24.7931 16.3727 26.3364 15.4323 28.5355L15.4326 28.5318ZM14.941 28.2987C15.572 27.0372 16.4859 25.9299 17.5874 25.0712C18.6986 24.2278 19.9296 23.6166 21.1457 22.964C32.411 16.8254 46.0514 18.2704 57.1005 24.1981C59.8231 25.5164 62.0692 28.0358 62.8298 31.0218L63.8954 34.9697C64.0807 35.7869 64.6158 37.3727 64.672 38.2086C64.9125 39.9637 63.786 41.67 62.017 42.0371C59.8541 42.5837 57.6045 41.8179 55.966 40.3943L55.1802 39.7873C54.7566 39.4357 54.045 38.9477 53.5786 38.6291C53.1756 38.3376 52.3549 37.8007 51.9264 37.5544C41.1386 30.6524 28.1054 31.5684 17.7821 38.9502C16.3009 40.0845 14.6953 41.0446 12.7566 41.1645C10.7477 41.297 9.59448 39.2855 10.2811 37.518C10.8816 36.2723 14.2502 29.6684 14.941 28.2987Z" fill="#221F1F"/>
<path d="M18.7191 27.3073C18.7191 27.3073 15.6543 16.0432 26.7314 9.84195C30.6884 7.62858 35.1949 6.82348 39.6111 7.35655C43.6228 7.84225 48.9704 9.30043 53.947 13.2664C56.033 14.9268 57.5938 17.263 58.2132 19.9678C58.9325 23.1036 58.525 27.0049 53.1634 28.8674C43.4198 32.2488 18.7191 27.3073 18.7191 27.3073Z" fill="#FFEAEA"/>
<path d="M18.5953 27.4392C18.5017 27.2894 18.5292 27.2661 18.4912 27.15C18.0033 25.0721 17.9565 22.9061 18.2841 20.7995C18.9237 16.3737 21.7079 12.4353 25.4666 10.06C34.0011 4.36726 45.5873 6.36771 53.5352 12.1826C59.2383 16.0032 62.0716 25.7608 54.3293 29.0127C46.3725 32.2583 30.457 29.6406 21.8756 28.1317C21.3843 28.0299 19.9621 27.7615 19.482 27.6569L19.084 27.5736L18.8832 27.5318C18.7866 27.5094 18.7171 27.511 18.595 27.4428L18.5953 27.4392ZM18.8428 27.1748C18.8521 27.1501 18.7987 27.1348 18.8524 27.1464L18.953 27.1655L19.1544 27.2001C21.1148 27.5304 23.2039 27.8493 25.169 28.1216C31.5759 28.9729 38.0678 29.6743 44.5256 29.5379C46.6735 29.4896 48.8139 29.3094 50.8892 28.8979C55.2592 28.0672 58.6634 25.6121 57.7648 20.7297C57.2532 17.6399 55.3753 14.9425 52.8064 13.1663C49.4062 10.6263 45.3975 8.93392 41.2219 8.17605C34.0459 6.73736 25.7715 9.0419 21.3526 15.1084C18.8937 18.4971 18.1009 22.9688 18.8556 27.0628L18.8769 27.1594C18.8712 27.1844 18.9272 27.2582 18.8471 27.1679L18.8428 27.1748Z" fill="#221F1F"/>
<path d="M15.2073 27.489L10.9352 36.4663C10.6318 37.1053 10.5786 37.8521 10.8613 38.5022C11.2275 39.3378 12.1449 40.0758 14.4252 39.1595C15.3184 38.8016 16.14 38.2921 16.8856 37.6853C20.4141 34.8209 37.7536 22.4838 57.2769 38.528C58.3162 39.3816 59.6332 39.8676 60.9746 39.7831C62.4334 39.6899 63.8259 38.9751 63.0618 36.3461L61.5904 30.3891C60.9864 27.9445 59.3748 25.8302 57.1187 24.5133C50.2666 20.5192 34.6223 13.7923 18.7452 23.5644C17.1945 24.5216 15.9646 25.884 15.2037 27.4887L15.2073 27.489Z" fill="#FFE6C0" stroke="#221F1F" stroke-width="0.36344" stroke-miterlimit="10"/>
</g>
</g>
<defs>
<clipPath id="clip0_1260_1074">
<rect y="0.522217" width="76" height="76" rx="38" fill="white"/>
</clipPath>
<clipPath id="clip1_1260_1074">
<rect width="54.4723" height="39.5495" fill="white" transform="translate(13.0742 1.54395) rotate(4.6352)"/>
</clipPath>
</defs>
</svg>