<svg xmlns="http://www.w3.org/2000/svg"  viewBox="0 0 24 24" fill="#27A2A8"><path d="M20,21h-2v-6c0-0.737,0.604-1.083,1.091-1.361C19.588,13.354,20,13.094,20,12.8C20,4.635,13.877,4,12,4s-8,0.635-8,8.8 c0,0.294,0.412,0.554,0.909,0.839C5.396,13.917,6,14.263,6,15v6H4v-5.578c-0.027-0.016-0.056-0.031-0.084-0.048 C3.246,14.991,2,14.277,2,12.8C2,4.828,7.387,2,12,2s10,2.828,10,10.8c0,1.478-1.246,2.191-1.916,2.574 c-0.028,0.017-0.057,0.032-0.084,0.048V21z"/><circle cx="8.5" cy="10.5" r="2.5"/><circle cx="15.5" cy="10.5" r="2.5"/><path d="M15,18c-0.553,0-1-0.447-1-1v-2c0-1.103-0.897-2-2-2s-2,0.897-2,2v2c0,0.553-0.447,1-1,1s-1-0.447-1-1v-2 c0-2.206,1.794-4,4-4s4,1.794,4,4v2C16,17.553,15.553,18,15,18z"/><circle cx="12" cy="14" r="1"/><path d="M12,3c-4.557,0-9,2.8-9,9.8c0,1.4,2,1.762,2,2.2c0,2.8,0,4.762,0,6h14c0-1.238,0-3.2,0-6 c0-0.438,2-0.8,2-2.2C21,5.8,16.557,3,12,3z" opacity=".3"/></svg>