<svg xmlns="http://www.w3.org/2000/svg" fill="none" viewBox="-15.4 0.52 100.43 83.81">
<g clip-path="url(#clip0_1260_1110)">
<rect y="0.522217" width="76" height="76" rx="38" fill="#FAFBFB"/>
<path d="M14.8236 40.829C14.1156 34.196 15.0938 30.3061 15.6714 29.1902L37.7464 23.4134L59.327 32.2746C60.1699 36.6503 58.9988 42.7974 58.3079 45.3241L14.8236 40.829Z" fill="black" stroke="black" stroke-width="0.356083"/>
<path d="M56.1491 66.1914C52.6336 66.0228 50.9147 61.7857 53.3067 59.2051C59.9411 52.0618 70.4394 41.7906 74.9865 43.0168C74.9865 43.0168 81.6469 44.189 84.3394 53.2769C85.3017 56.5342 84.0986 60.131 81.4282 61.908C79.3317 63.3023 76.252 64.4149 71.3326 65.2776C66.4131 66.1404 61.2327 66.44 56.1518 66.1954L56.1485 66.1947L56.1491 66.1914Z" fill="white"/>
<path d="M56.0259 66.6003C54.3479 66.5264 52.7746 65.3973 52.1268 63.8236C51.4178 62.2311 51.7186 60.2346 52.8937 58.966C55.0002 56.6628 57.1512 54.4508 59.3816 52.2887C62.7031 49.2231 70.5139 41.6224 75.0568 42.5934C80.4386 43.9829 83.9686 49.2033 84.9657 54.4644C85.2319 56.6542 84.6554 58.9474 83.2797 60.6614C81.2211 63.1492 77.8224 64.0895 74.8512 64.9071C68.8374 66.3739 61.8237 66.9267 56.0253 66.6036L56.0259 66.6003ZM56.2704 65.7855C61.3964 66.0629 68.916 65.6847 74.6801 64.2241C79.857 62.9408 84.8391 60.9183 84.2305 54.5577C83.3425 50.0947 80.5488 45.723 76.3115 43.9009C74.302 42.9235 72.6641 43.4486 70.78 44.4446C66.7752 46.6686 63.3854 49.8652 60.0558 53.0118C57.8387 55.1386 55.6727 57.358 53.5903 59.604C52.6351 60.6201 52.3857 62.1867 52.9423 63.4779C53.4962 64.8579 54.8217 65.7049 56.2672 65.7848L56.2704 65.7855Z" fill="#221F1F"/>
<mask id="mask0_1260_1110" style="mask-type:luminance" maskUnits="userSpaceOnUse" x="-16" y="33" width="41" height="34">
<path d="M24.2134 46.2814L-7.43555 33.6497L-15.3989 54.2124L16.2501 66.8442L24.2134 46.2814Z" fill="white"/>
</mask>
<g mask="url(#mask0_1260_1110)">
<path d="M15.8108 63.1763C19.2856 62.6431 20.5429 58.241 17.8944 55.9138C10.5486 49.48 -0.968474 40.3314 -5.35445 42.026C-5.35445 42.026 -11.8443 43.8861 -13.5564 53.2281C-14.1682 56.5753 -12.591 60.0346 -9.75088 61.5302C-7.5191 62.6997 -4.34169 63.4904 0.634288 63.8391C5.61027 64.1878 10.788 63.9506 15.809 63.1735L15.8108 63.1763Z" fill="white"/>
<path d="M15.5739 62.6162C16.9543 62.3786 18.1241 61.4756 18.5087 60.0757C18.8889 58.8027 18.4982 57.3682 17.4998 56.5078C15.1942 54.5049 12.8182 52.5032 10.4149 50.5911C6.80134 47.7825 3.10962 44.956 -1.0676 43.1177C-3.03064 42.3121 -4.65941 41.9445 -6.54843 43.1011C-10.5766 45.3227 -12.9153 49.9546 -13.3231 54.492C-13.3908 57.0095 -12.2015 59.5809 -10.0896 60.9394C-7.89004 62.2417 -5.33114 62.7729 -2.80411 63.1123C2.96509 63.9326 10.9764 63.4017 15.5729 62.6209L15.5739 62.6162ZM16.0436 63.7319C9.56055 64.787 -4.24751 65.2119 -10.4539 61.5176C-12.7571 60.0096 -14.1041 57.2472 -14.0518 54.4753C-13.8081 51.2284 -12.6303 48.0622 -10.67 45.4587C-9.48982 43.9605 -8.00622 42.6718 -6.28549 41.8554C-5.31398 41.3399 -4.08262 41.1739 -2.98479 41.398C3.48252 42.6829 13.31 50.9705 18.4246 55.4577C21.3317 58.0433 19.8761 63.1452 16.04 63.7262L16.0436 63.7319Z" fill="#221F1F"/>
</g>
<path d="M14.7089 69.3967L15.215 39.1607C15.2171 38.96 15.2159 38.7589 15.2113 38.5573C15.1676 36.4366 15.5362 19.643 38.0064 20.1459C38.0064 20.1459 58.9179 20.9991 58.2206 40.3829L56.124 71.0743C56.076 72.506 55.7446 73.8491 55.1835 75.0758C54.2356 77.145 52.649 78.8068 50.744 80.1201C49.7661 80.7925 48.7204 81.3476 47.6371 81.8165C44.242 83.2873 40.5203 83.9081 36.8003 83.7557L33.5802 83.6228C31.0577 83.5195 28.5586 83.0546 26.179 82.2123C24.5709 81.6436 23.0822 81.0621 21.7016 80.2653C18.7755 78.5805 16.4805 76.3415 15.3927 73.4579C14.9137 72.1908 14.6683 70.8225 14.716 69.3941L14.7093 69.3933L14.7089 69.3967Z" fill="white"/>
<path d="M14.5207 69.6697C14.4298 59.7939 14.3161 48.1849 14.4166 38.3764C14.5658 28.2809 21.0338 21.5092 30.6904 19.8467C33.0521 19.3958 35.4842 19.311 37.8748 19.3269C41.2835 19.52 44.5985 20.4036 47.7296 21.7895C55.6091 25.3493 59.5185 32.2793 58.9629 40.9088C58.4116 49.0755 57.506 61.1542 56.9244 69.3513C56.7973 71.2811 56.7262 73.3742 55.8711 75.1548C53.3494 80.6789 47.2424 83.2976 41.5992 84.1089C38.8621 84.5417 35.8016 84.2475 33.045 84.1296C26.8633 83.6633 18.9126 80.8342 15.7263 75.0678C14.7797 73.339 14.3034 71.3501 14.3906 69.3849L14.8388 69.7183C14.7534 69.7591 14.5975 69.7369 14.5233 69.6768L14.5207 69.6697ZM14.9086 69.1204C14.8415 69.0578 14.6889 69.036 14.6072 69.0738L15.0553 69.4072C14.908 77.4864 23.5406 81.607 30.3458 82.7685C31.9279 83.116 34.2776 83.0758 35.9047 83.1699C42.6673 83.5939 51.6275 81.316 54.6743 74.6153C55.4468 72.9712 55.4634 71.0657 55.5721 69.27C56.0884 61.0548 56.8772 48.996 57.42 40.8146C57.9127 32.8418 54.3787 26.5361 47.074 23.2604C44.1737 21.9806 40.9917 21.1437 37.8338 20.9672C35.5567 20.9616 33.2084 21.0497 30.9872 21.4801C22.0324 23.0126 16.0656 29.3679 16.0116 38.7289C15.8333 48.1771 15.3028 59.6097 14.9053 69.12L14.9086 69.1204Z" fill="#221F1F"/>
<path d="M24.6691 22.9504C24.6691 22.9504 37.2855 25.6546 49.7613 23.9327L24.6691 22.9504Z" fill="white"/>
<path d="M23.9143 22.9934C23.9143 22.9934 37.8295 25.8174 50.3052 24.0958" stroke="#221F1F" stroke-width="0.681957" stroke-miterlimit="10"/>
<path d="M15.4679 35.9641C15.4679 35.9641 37.3201 31.8223 58.0235 37.758L15.4679 35.9641Z" fill="white"/>
<path d="M15.4034 35.6298C18.0138 34.8361 20.7043 34.6411 23.391 34.3609C27.8429 33.9655 32.3917 33.8118 36.858 33.9428C41.2854 34.0625 45.9123 34.5547 50.2841 35.3146C51.1237 35.4888 53.4402 35.9604 54.2596 36.1357C55.5689 36.491 56.8662 36.8923 58.1142 37.4334L57.9339 38.0791C56.168 37.9336 54.4148 37.4375 52.678 37.1227C43.9858 35.3552 34.9918 34.9537 26.1578 35.394C24.6227 35.4926 22.3597 35.647 20.8403 35.8153C19.0738 36.0016 17.308 36.2116 15.5297 36.2949L15.403 35.6331L15.4034 35.6298Z" fill="#221F1F"/>
<path d="M15.1137 56.7959C19.0346 55.8708 34.0096 53.4194 57.9001 57.9441L15.1137 56.7959Z" fill="white"/>
<path d="M15.0365 56.4682C21.8892 54.8173 29.014 54.6209 36.036 54.8593C39.5494 55.016 43.0585 55.3008 46.5469 55.739C50.0328 56.1701 53.5356 56.5998 56.9126 57.6681L56.7908 58.3308C53.2821 58.1611 49.8733 57.404 46.3966 57.0112C39.4834 56.1357 32.5006 55.6989 25.5413 55.9759C22.0671 56.1252 18.5881 56.4364 15.1905 57.1265L15.0362 56.4716L15.0365 56.4682Z" fill="#221F1F"/>
<path d="M48.5138 56.7894C49.668 49.3569 50.5017 36.3121 50.5017 36.3121C50.5017 36.3121 32.9603 32.8308 23.2533 35.5353C23.2533 35.5353 22.6963 48.5995 23.7801 55.8837" stroke="#221F1F" stroke-width="0.681957" stroke-miterlimit="10"/>
<path d="M23.3954 35.3746C22.8918 37.764 23.3077 51.9798 23.8182 55.3626C30.3086 54.5158 42.8085 55.3679 48.4395 56.0982C49.2717 52.0411 49.8652 41.5538 50.145 36.6096L50.1556 36.3962C39.8522 33.7316 28.1003 34.7167 23.3954 35.3746Z" fill="#5BC2C7"/>
<path d="M35.773 46.6373L36.0723 42.8659C36.0859 42.7448 36.2177 42.6788 36.3178 42.7452L39.6959 45.0539C39.8023 45.1246 39.7838 45.2894 39.6642 45.3364L35.9868 46.7992C35.8779 46.8407 35.7631 46.7554 35.7697 46.6369L35.773 46.6373Z" fill="white" stroke="black" stroke-width="0.16367"/>
<path d="M37.9093 21.8154C37.5464 21.9243 37.1902 21.5515 37.2717 21.1522C38.0441 17.3479 41.6704 3.08896 51.8399 7.92583C62.2016 12.8529 46.2353 13.3168 41.5389 15.4793C40.0924 16.1463 38.9502 17.4017 38.428 19.0249C38.2044 19.7241 38.0903 20.4848 38.2302 21.2307C38.2797 21.4974 38.1409 21.7478 37.9091 21.8201L37.9076 21.8161L37.9093 21.8154Z" fill="white"/>
<path d="M38.0899 21.7526C38.0642 21.7125 37.986 21.6316 37.8963 21.6217C37.8163 21.6102 37.7918 21.6315 37.7282 21.6204C37.5313 21.587 37.4095 21.3608 37.4762 21.1622L37.498 21.0595C37.8798 19.284 38.3873 17.5428 39.0272 15.8746C40.924 10.7945 44.5569 5.71487 50.3269 7.63184C51.7709 8.13225 53.3299 8.85698 54.5221 9.91437C54.798 10.1956 55.0776 10.5235 54.9711 10.9054C54.8726 11.1649 54.6709 11.342 54.4304 11.514C53.8022 11.9378 53.0807 12.1881 52.3601 12.4197C49.3965 13.326 46.2621 13.7462 43.2627 14.5913C42.2467 14.8841 41.2133 15.2273 40.3534 15.8883C38.8606 17.03 37.7407 19.0395 38.0209 21.1592L38.0404 21.2683C38.0707 21.4212 37.9829 21.5755 37.8497 21.6174C37.8482 21.6135 38.1008 21.7597 38.0894 21.746L37.9904 22.0148C38.0188 22.0034 38.0681 21.9722 38.0905 21.9082C38.1154 21.8455 38.1039 21.7837 38.0924 21.7539L38.0899 21.7526ZM37.7295 21.8788C37.718 21.849 37.7065 21.7872 37.7297 21.7252C37.7546 21.6625 37.8014 21.63 37.828 21.6193C37.8295 21.6233 37.7229 21.8883 37.7305 21.8921L37.8039 22.0827L37.9717 22.0246C38.2359 21.9461 38.4321 21.675 38.435 21.369C38.1112 19.3379 39.1907 17.4041 40.6345 16.3211C41.4416 15.7087 42.418 15.3929 43.41 15.112C46.4242 14.284 49.5224 13.892 52.5343 12.9892C53.9434 12.5755 56.8734 11.481 54.8669 9.4874C54.4268 9.06116 53.9449 8.75479 53.4612 8.46516C52.4844 7.90349 51.49 7.41303 50.4394 7.08487C47.06 5.96023 43.9517 7.16519 41.7673 9.86739C39.2897 12.9392 37.962 16.9319 37.1061 20.9393L37.0851 21.044L37.0746 21.0964C36.964 21.5899 37.4074 22.1202 37.8702 22.0424C37.8806 22.0428 37.8441 22.0437 37.8238 22.0335C37.7675 22.0148 37.72 21.9284 37.7259 21.8802L37.7295 21.8788Z" fill="#221F1F"/>
<g clip-path="url(#clip1_1260_1110)">
<path d="M16.2688 29.5422C16.2688 29.5422 13.1029 17.886 15.2817 9.6982C15.2817 9.6982 25.9495 11.7614 33.6681 24.1697C33.6681 24.1697 23.4529 26.883 16.2688 29.5422Z" fill="white"/>
<path d="M16.2218 29.6351C16.144 29.5301 16.1227 29.3809 16.0911 29.2643L16.0159 28.9597C14.9177 24.281 14.2615 19.4643 14.4592 14.6465C14.559 12.9726 14.7742 11.3021 15.1827 9.67109L15.1881 9.58815L15.301 9.59545C20.2694 10.0121 25.1715 13.0501 28.6021 16.5843C30.128 18.1216 31.4292 19.8818 32.5489 21.7364C32.9973 22.5545 33.4193 23.3959 33.8209 24.2359C27.8962 25.8209 22.0179 27.615 16.224 29.6331L16.2218 29.6351ZM16.3163 29.4496C19.1146 28.3394 22.0144 27.4773 24.8855 26.58C27.7927 25.6997 30.7096 24.8595 33.6439 24.0704L33.5822 24.2267C32.889 23.4969 32.2865 22.7022 31.6122 21.9653C30.0977 20.283 28.6296 18.7765 26.9496 17.2625C23.4391 14.1999 19.5553 11.6484 15.2631 9.79913C15.2631 9.79913 15.3835 9.72362 15.3814 9.72349C14.9762 11.336 14.764 12.9921 14.6648 14.6556C14.5903 16.3206 14.6331 17.9891 14.7483 19.6539C14.9946 22.7701 15.4894 25.8712 16.2171 28.9102L16.2924 29.2128L16.3301 29.3631C16.3458 29.4078 16.3316 29.4048 16.3185 29.4477L16.3163 29.4496Z" fill="black"/>
<path d="M15.2852 9.698C15.2852 9.698 28.4065 21.0977 28.5067 25.6141L15.2852 9.698Z" fill="white"/>
<path d="M15.2852 9.698C15.2852 9.698 28.4065 21.0977 28.5067 25.6141" stroke="black" stroke-width="0.20717" stroke-miterlimit="10"/>
<path d="M16.8652 13.9651C16.8652 13.9651 17.1289 25.8503 19.3346 26.8256C21.5403 27.8009 26.2865 24.5678 26.2865 24.5678C26.2865 24.5678 21.8252 20.3236 20.6088 19.9327C20.6088 19.9327 21.9856 19.0847 23.0098 20.0878L19.9123 17.5287L21.6807 17.6429C21.6807 17.6429 19.1111 14.3184 16.8652 13.9651Z" fill="#FFEAEA"/>
<path d="M16.9358 14.0424C16.959 14.0335 16.975 13.9783 16.9713 13.9718C16.9709 13.9781 16.9738 13.997 16.9734 14.0032L16.977 14.043C17.0393 14.7383 17.1484 15.8593 17.2183 16.5655C17.4891 18.7588 17.9672 24.9278 19.3832 26.3477C20.8852 27.265 24.7253 25.2248 26.2315 24.4809L26.219 24.6425C24.7679 23.287 23.3044 21.9328 21.7216 20.7333C21.3091 20.4151 20.8652 20.1345 20.3867 19.9433C21.0141 19.5528 21.8139 19.3359 22.5185 19.6354C22.7361 19.7161 22.9163 19.863 23.086 20.0135L22.9481 20.1691L19.8506 17.61L19.6019 17.4044C19.7743 17.4177 21.471 17.5252 21.6887 17.5392L21.6016 17.7064C21.285 17.307 20.9427 16.9226 20.5891 16.5541C19.5556 15.4713 18.3734 14.4871 16.9337 14.0423L16.9358 14.0424ZM16.7994 13.8858C18.6503 14.0636 20.6166 16.1915 21.7646 17.5774L21.9096 17.7596L19.9091 17.6304L19.9808 17.4456L23.0783 20.0047L22.9404 20.1603C22.3388 19.5447 21.3631 19.6107 20.6643 20.0195L20.6413 19.8327C20.9409 19.952 21.2068 20.1149 21.4652 20.2961C23.2138 21.548 24.7824 23.0318 26.3587 24.4912L26.454 24.5806L26.3462 24.6528C24.6833 26.0029 21.4146 28.0425 19.2324 27.2457C16.7721 26.2207 16.7044 16.8259 16.7565 14.2953L16.7609 14.1311L16.7642 14.048L16.7669 14.0065L16.7682 13.9858L16.7689 13.9754C16.7689 13.9754 16.7683 13.9525 16.7736 13.9341C16.7791 13.9136 16.7926 13.8957 16.8037 13.884L16.7994 13.8858Z" fill="black"/>
<path d="M60.5257 32.4697C60.5257 32.4697 65.1647 21.3175 64.0572 12.9175C64.0572 12.9175 53.2126 13.5913 43.962 24.9036C43.962 24.9036 53.7434 28.9084 60.5257 32.4697Z" fill="white"/>
<path d="M60.4897 32.3713C60.4823 32.327 60.4679 32.3261 60.489 32.2858L60.5458 32.1417L60.6594 31.8513C61.7699 28.931 62.6594 25.9214 63.3065 22.8629C63.6348 21.2288 63.8899 19.5775 64.0323 17.9168C64.1479 16.2544 64.1505 14.5847 63.9561 12.9335L64.0637 13.0238C59.5714 14.3056 55.3895 16.3363 51.5144 18.9198C49.6537 20.203 48.0018 21.5101 46.2855 22.9837C45.52 23.6277 44.8203 24.3383 44.041 24.973L43.9999 24.81C46.8063 25.9698 49.593 27.1784 52.3627 28.4254C55.0945 29.6866 57.8593 30.9146 60.4916 32.3735L60.4897 32.3713ZM60.5596 32.5673C55.0735 29.8206 49.4747 27.2853 43.8031 24.9514C44.3094 24.1699 44.8362 23.3899 45.3861 22.6362C46.7351 20.9411 48.2518 19.3629 49.9628 18.0346C53.8133 14.9707 59.0741 12.5849 64.0505 12.8126L64.1635 12.8199L64.1581 12.9029C64.5546 16.2474 64.1697 19.6206 63.5062 22.9008C62.8582 25.9717 61.9661 28.9915 60.8507 31.924C60.7735 32.096 60.6864 32.4235 60.5596 32.5673Z" fill="black"/>
<path d="M64.0565 12.9167C64.0565 12.9167 49.5798 22.534 48.8975 26.9998L64.0565 12.9167Z" fill="white"/>
<path d="M64.0565 12.9167C64.0565 12.9167 49.5798 22.534 48.8975 26.9998" stroke="black" stroke-width="0.20717" stroke-miterlimit="10"/>
<path d="M61.94 16.9449C61.94 16.9449 60.1498 28.6975 57.8369 29.3809C55.5241 30.0644 51.2332 26.2477 51.2332 26.2477C51.2332 26.2477 56.2033 22.6126 57.4599 22.3814C57.4599 22.3814 56.2036 21.3633 55.0589 22.2264L58.4599 20.087L56.6915 19.9727C56.6915 19.9727 59.6674 17.0063 61.94 16.9449Z" fill="#FFEAEA"/>
<path d="M62.0162 16.8744C62.0583 16.925 62.0358 16.986 62.0323 17.0399C62.0295 17.0834 62.0113 17.2363 62.0081 17.2861C61.7352 19.7879 60.4563 29.1144 57.8869 29.8105C55.6183 30.3198 52.6413 27.8747 51.1637 26.3239L51.0661 26.2384L51.1721 26.162C52.9231 24.9175 54.6695 23.6478 56.5645 22.6313C56.8442 22.4848 57.1288 22.3575 57.4412 22.2777L57.3944 22.46C56.7539 21.9668 55.7949 21.7737 55.1191 22.3068L55.0023 22.1347L58.4033 19.9953L58.4507 20.1879L56.4502 20.0587L56.6174 19.8967C57.9319 18.6719 60.1578 16.8126 62.0162 16.8744ZM61.8608 17.0122C59.8723 17.3689 58.2134 18.688 56.7625 20.0455L56.6976 19.8685L58.7843 20.0033L58.5113 20.1751L55.1103 22.3145L54.9936 22.1425C55.3597 21.8705 55.8309 21.7281 56.2848 21.7887C56.8048 21.8493 57.276 22.09 57.6795 22.4201C57.0297 22.5822 56.4325 22.9184 55.8577 23.2602C54.2851 24.2018 52.7793 25.2601 51.2912 26.33C51.2912 26.33 51.2977 26.1659 51.2996 26.1681C52.6977 27.0975 56.2373 29.6144 57.8488 28.9002C59.4355 27.6764 60.701 21.6221 61.254 19.4778C61.4142 18.7864 61.6663 17.6929 61.8178 17.0073L61.8265 16.9683L61.8299 16.9477L61.8306 16.9373C61.8313 16.927 61.8295 16.9539 61.8327 16.9687C61.8357 16.9856 61.847 17.0029 61.8567 17.0119L61.8608 17.0122Z" fill="black"/>
</g>
</g>
<defs>
<clipPath id="clip0_1260_1110">
<rect y="0.522217" width="76" height="76" rx="38" fill="white"/>
</clipPath>
<clipPath id="clip1_1260_1110">
<rect width="49.8796" height="20.0072" fill="white" transform="translate(14.7881 9.5625) rotate(3.69533)"/>
</clipPath>
</defs>
</svg>