<?xml version="1.0" encoding="utf-8"?>
<!-- Generator: Adobe Illustrator 23.1.1, SVG Export Plug-In . SVG Version: 6.00 Build 0)  -->
<svg version="1.1" id="Layer_1" xmlns="http://www.w3.org/2000/svg" xmlns:xlink="http://www.w3.org/1999/xlink" x="0px" y="0px"
	 viewBox="0 0 100 100" style="enable-background:new 0 0 100 100;" xml:space="preserve">
<path d="M92.7,20.1l-6.2-1.2l-5-5c-0.5-0.5-1.2-0.8-2-0.8h-9.8c-4.5,0-8.6,2.4-10.8,6.4l-1.2,2.1c-1.3,2.3-1,5,0.3,6.8L56.8,30
	l-26.7,2.6c-5.3,0.5-10.1,3.1-13.4,7c-3.4-0.5-6.1-3.4-6.1-7v-0.6c0-2.2,1.1-4.3,3-5.5c1.3-0.9,1.6-2.6,0.8-3.9
	c-0.9-1.3-2.6-1.6-3.9-0.8C7,24.2,5,28,5,32.1v0.6c0,5.6,3.6,10.3,8.6,12c-1,2.6-1.6,5-1.6,7.8c0,3-0.9,5.9-2.7,8.3l-3.8,5.4
	c-0.4,0.6-0.6,1.3-0.5,2.1c0.1,0.3-0.4-2.6,2.8,18.3c0.2,1.4,1.4,2.4,2.8,2.4h7c1.6,0,2.8-1.3,2.8-2.8c0-1.6-1.3-2.8-2.8-2.8H13
	l-1.7-11.2c5,0,6.8,0.2,9.7-0.6l2.3,15.1c0.2,1.4,1.4,2.4,2.8,2.4h7c1.6,0,2.8-1.3,2.8-2.8c0-1.6-1.3-2.8-2.8-2.8h-4.6l-2.2-14.2
	c2.5-1.7,4.7-3.9,6.1-6.7c5.9,2.4,12.7,3.1,18.9,2.3c0,0.8-0.3-1,4.3,20.6c0.3,1.3,1.4,2.2,2.8,2.2h5.6c1.6,0,2.8-1.3,2.8-2.8
	c0-1.6-1.3-2.8-2.8-2.8h-3.4l-2.2-10.3c6.3-4.6,5.9-4.3,6.2-4.6c2.5-2.5,2.2-2.6,2.2-1.9c0,0.4-0.3-1.3,4.3,20.3
	c0.3,1.3,1.4,2.2,2.8,2.2h5.6c1.6,0,2.8-1.3,2.8-2.8c0-1.6-1.3-2.8-2.8-2.8h-3.4l-3.7-17.2v-8c3.3-5.6,5.4-11.9,6.3-18.4
	c0.1-0.6-0.3-0.1,3-0.1h0.9C89.5,38.3,95,32.8,95,26v-3.2C95,21.5,94.1,20.3,92.7,20.1z"/>
</svg>
