<?xml version="1.0" encoding="utf-8"?>
<!-- Generator: Adobe Illustrator 23.1.1, SVG Export Plug-In . SVG Version: 6.00 Build 0)  -->
<svg version="1.1" id="Layer_1" xmlns="http://www.w3.org/2000/svg" xmlns:xlink="http://www.w3.org/1999/xlink" x="0px" y="0px"
	 viewBox="0 0 100 100" style="enable-background:new 0 0 100 100;" xml:space="preserve">
<path d="M61.6,49.4h16.5c9.3,0,16.9-7.6,16.9-16.9c0-0.8-0.4-1.6-1-2.1L79.1,17.5c-3.6-3.1-8.7-2.8-11.8,0.1
	C54,6.7,33.4,7,20.3,22.2l-2.4,3C9.6,35.6,5,48.7,5,62.1c0,14.5,11.8,26.7,27.1,26.3l3.4-0.1c5.1-0.2,10-2.2,13.6-5.9
	c5.4-5.4,5.4-14.1,0.1-19.5c-5.5-5.6-15-1.6-15,6.1c0,2.3,0.9,4.5,2.6,6.2c1.1,1.1,2.9,1.1,4,0s1.1-2.9,0-4
	c-0.6-0.6-0.9-1.4-0.9-2.2c0-2.8,3.4-4.2,5.4-2.2c3.2,3.2,3.1,8.4,0,11.5c-2.6,2.6-6.1,4.1-9.8,4.2c-3.3,0.1-4.4,0.2-6.1,0
	c-5.3-1.1-9.4-5.4-10.2-10.8c0-4.6-0.1-3.3,0.5-5.9l1.6-6.4c1.7-6.6,7.5-11.3,14.3-11.5l0.4,7.2c0.1,1.5,1.3,2.6,2.8,2.6h8.4
	c1.6,0,2.8-1.3,2.8-2.8c0-1.6-1.3-2.8-2.8-2.8h-5.8L41.2,48h14.9c-1.7,4.8,1.9,9.8,6.9,9.8h15.1c1.6,0,2.8-1.3,2.8-2.8
	c0-1.6-1.3-2.8-2.8-2.8H63c-1.3,0-2.1-1.4-1.6-2.5L61.6,49.4z"/>
</svg>
