<svg xmlns="http://www.w3.org/2000/svg" fill="none" viewBox="-13.41 0.52 97.48 88.13">
<g clip-path="url(#clip0_1260_709)">
<rect y="0.522217" width="76" height="76" rx="38" fill="#FAFBFB"/>
<path d="M53.8043 59.5143C52.1563 56.3785 54.9024 52.7234 58.3281 53.4804C67.8173 55.5872 81.9504 59.4483 83.2201 64.019C83.2201 64.019 85.6134 70.3954 79.2165 77.3725C76.9223 79.8709 73.2339 80.6643 70.3534 79.2554C68.0926 78.1488 65.5714 76.0455 62.3259 72.2187C59.0805 68.3919 56.1834 64.051 53.8023 59.5186L53.8011 59.5154L53.8043 59.5143Z" fill="white"/>
<path d="M53.3927 59.6168C52.6005 58.1235 52.7637 56.182 53.7788 54.8164C54.7788 53.388 56.639 52.6294 58.3226 53.0008C61.3654 53.6517 64.3529 54.3879 67.3382 55.2184C71.6523 56.5341 82.1319 59.4276 83.6176 63.8642C85.1732 69.2423 82.5099 74.9705 78.5205 78.5224C76.7841 79.8716 74.5298 80.5427 72.3632 80.2247C69.1869 79.7096 66.6505 77.2416 64.4368 75.0818C60.1173 70.6144 56.0692 64.8126 53.3896 59.618L53.3927 59.6168ZM54.214 59.4127C56.5899 64.0009 60.7465 70.3305 64.9336 74.5846C68.6697 78.4199 72.9385 81.7086 78.0659 77.9323C81.4286 74.8826 83.7419 70.2266 83.1395 65.6204C82.9506 63.3781 81.6667 62.2255 79.8548 61.0997C75.912 58.7617 71.4512 57.4538 67.0638 56.1726C64.1154 55.3356 61.1139 54.5902 58.1322 53.9309C56.7766 53.6212 55.3102 54.205 54.4901 55.3472C53.5927 56.5325 53.5443 58.1148 54.2128 59.4095L54.214 59.4127Z" fill="#221F1F"/>
<mask id="mask0_1260_709" style="mask-type:luminance" maskUnits="userSpaceOnUse" x="-14" y="48" width="40" height="41">
<path d="M10.3895 48.441L-13.4072 73.3752L2.06087 88.6512L25.8576 63.717L10.3895 48.441Z" fill="white"/>
</mask>
<g mask="url(#mask0_1260_709)">
<path d="M22.4839 62.8075C23.3677 59.3552 19.8612 56.518 16.7026 58.1179C7.96109 62.5633 -4.89109 69.8871 -5.07799 74.6301C-5.07799 74.6301 -5.94296 81.4039 1.87492 86.5304C4.6767 88.3657 8.44246 88.1953 10.9205 86.1023C12.8626 84.4554 14.8327 81.7809 17.1094 77.2569C19.3861 72.7329 21.2096 67.799 22.4806 62.8081L22.4839 62.8075Z" fill="white"/>
<path d="M21.8802 62.8166C22.2079 61.4354 21.8477 60.0003 20.7267 59.1123C19.7192 58.2762 18.2613 58.1006 17.086 58.71C14.3573 60.1115 11.6019 61.5793 8.91724 63.1065C4.94097 65.4277 0.917661 67.8153 -2.39852 71.03C-3.90393 72.5627 -4.87956 73.948 -4.57214 76.1517C-4.13911 80.7587 -0.849596 84.6944 3.11444 86.7879C5.37629 87.8011 8.18212 87.6586 10.2488 86.1952C12.2989 84.6286 13.7896 82.4349 15.0933 80.1986C18.1111 75.1103 20.7836 67.4144 21.8841 62.8193L21.8802 62.8166ZM23.0794 62.7981C21.4853 69.2618 16.4335 82.3412 10.6309 86.7542C8.35303 88.3401 5.31146 88.5582 2.81233 87.4634C-0.0433459 86.0104 -2.45759 83.7138 -4.05225 80.8975C-4.9494 79.228 -5.53655 77.3537 -5.60097 75.4357C-5.68702 74.3322 -5.35291 73.1175 -4.71688 72.1749C-1.00179 66.6088 10.4023 60.5408 16.4957 57.4486C19.9909 55.7042 24.0555 58.991 23.0728 62.7993L23.0794 62.7981Z" fill="#221F1F"/>
</g>
<path d="M19.988 73.8452L17.1611 43.6808C17.1411 43.4807 17.1178 43.2806 17.0911 43.0805C16.8144 40.9743 15.331 24.2099 37.6159 22.0122C37.6159 22.0122 58.3974 20.3503 59.8408 39.733L61.1442 70.5418C61.2542 71.973 61.0742 73.35 60.6542 74.6388C59.9442 76.8128 58.5574 78.6578 56.8173 80.1941C55.9239 80.981 54.9505 81.6593 53.9304 82.2562C50.7335 84.1283 47.1199 85.1933 43.423 85.4884L40.2228 85.7427C37.7159 85.9428 35.1924 85.78 32.7456 85.2272C31.0921 84.8541 29.5553 84.4539 28.1019 83.8265C25.0217 82.5004 22.5048 80.5469 21.1114 77.8065C20.498 76.6025 20.1047 75.2696 19.9946 73.8418H19.988V73.8452Z" fill="white"/>
<path d="M19.8281 74.1401C18.6513 64.3182 17.2612 52.7734 16.2811 42.9956C15.3177 32.9261 20.9715 25.407 30.3422 22.592C32.629 21.8594 35.0258 21.483 37.3927 21.2117C40.7862 20.9946 44.1631 21.4762 47.4134 22.4801C55.6006 25.078 60.2309 31.5084 60.631 40.167C60.9843 48.3644 61.4177 60.4993 61.7444 68.7306C61.8311 70.6672 61.9911 72.7598 61.341 74.6353C59.4542 80.4382 53.7005 83.7789 48.2068 85.2644C45.5466 86.0241 42.4864 86.0987 39.7462 86.3124C33.5791 86.5905 25.4018 84.7285 21.6149 79.3699C20.4881 77.7623 19.7981 75.8393 19.6681 73.8722L20.1481 74.1503C20.0681 74.2012 19.9114 74.1978 19.8314 74.1469L19.8281 74.1401ZM20.1514 73.5466C20.0781 73.4923 19.9247 73.4889 19.8481 73.5364L20.3281 73.8145C21.0715 81.8762 30.0655 84.9422 36.926 85.2814C38.5294 85.4374 40.8496 85.1152 42.4697 85.0134C49.2068 84.6234 57.8208 81.2793 60.0976 74.2419C60.681 72.5122 60.4876 70.6129 60.3976 68.812C60.0043 60.5706 59.4576 48.4695 59.0942 40.2586C58.7042 32.2613 54.5139 26.4075 46.9267 24.0233C43.9165 23.0974 40.6762 22.6463 37.5327 22.8498C35.2792 23.1177 32.9657 23.4874 30.8155 24.1827C22.1249 26.784 16.9212 33.8282 17.8979 43.155C18.7613 52.5835 19.4947 64.0299 20.1481 73.5466H20.1514Z" fill="#221F1F"/>
<path d="M24.5977 26.4551C24.5977 26.4551 37.4319 27.6659 49.6294 24.4541L24.5977 26.4551Z" fill="white"/>
<path d="M23.8506 26.5874C23.8506 26.5874 37.9883 27.7643 50.1858 24.5525" stroke="#221F1F" stroke-width="0.676267" stroke-miterlimit="10"/>
<path d="M16.9297 40.4791C16.9297 40.4791 38.1679 33.7266 59.396 37.2131L16.9297 40.4791Z" fill="white"/>
<path d="M16.8301 40.1534C19.3336 39.0477 21.9838 38.5322 24.6206 37.9319C28.9976 37.006 33.4979 36.3108 37.9483 35.9106C42.3586 35.5036 47.0089 35.4459 51.4359 35.6867C52.2893 35.7613 54.6428 35.958 55.4762 36.0361C56.8163 36.2362 58.1497 36.4837 59.4498 36.8772L59.3431 37.5453C57.573 37.6097 55.7762 37.3214 54.0161 37.2129C45.1854 36.477 36.2081 37.1451 27.4842 38.6374C25.9707 38.9189 23.7406 39.3428 22.2505 39.6921C20.517 40.0889 18.7869 40.5095 17.0301 40.8046L16.8301 40.1568V40.1534Z" fill="#221F1F"/>
<path d="M18.9336 61.2151C22.7239 59.8212 37.3216 55.5818 61.5566 57.2741L18.9336 61.2151Z" fill="white"/>
<path d="M18.8203 60.8963C25.4408 58.4272 32.4946 57.3826 39.4951 56.7857C43.002 56.5246 46.519 56.3923 50.0325 56.4161C53.5428 56.433 57.0697 56.4466 60.5433 57.1147L60.4966 57.793C56.993 58.0406 53.5228 57.6879 50.0259 57.7082C43.062 57.654 36.0782 58.0474 29.1977 59.153C25.7641 59.716 22.3439 60.4418 19.047 61.5373L18.8203 60.8997V60.8963Z" fill="#221F1F"/>
<path d="M52.0688 57.2603C52.3855 49.7243 51.7588 36.6397 51.7588 36.6397C51.7588 36.6397 33.9709 35.2593 24.6436 39.1054C24.6436 39.1054 25.547 52.1764 27.4338 59.2986" stroke="#221F1F" stroke-width="0.676267" stroke-miterlimit="10"/>
<path d="M24.7669 38.9291C24.5335 41.3676 26.5303 55.4696 27.4137 58.7764C33.7575 57.162 46.2517 56.5244 51.9188 56.5821C52.2922 52.4444 51.7121 41.934 51.4388 36.9789L51.4254 36.7653C40.908 35.3374 29.3605 37.7149 24.7669 38.9291Z" fill="#5BC2C7"/>
<path d="M38.305 48.673L38.1816 44.8846C38.1816 44.7625 38.305 44.6811 38.4117 44.7354L42.0186 46.6313C42.1319 46.6889 42.1319 46.8551 42.0186 46.9162L38.535 48.8086C38.4317 48.8629 38.3083 48.7917 38.3016 48.673H38.305Z" fill="white" stroke="black" stroke-width="0.162304"/>
<g clip-path="url(#clip1_1260_709)">
<path d="M31.5584 34.7434C31.5584 34.7434 37.6666 32.5951 46.0447 33.3525C54.4229 34.1099 47.1548 24.743 47.1548 24.743L24.8274 27.5917L31.5618 34.7432L31.5584 34.7434Z" fill="#FFE6C0"/>
<path d="M31.6004 34.5941C31.5985 34.5605 31.5418 34.5669 31.5976 34.5453L31.6952 34.4936C33.7208 33.4862 36.0174 33.0323 38.288 32.8186C40.6342 32.5791 43.0038 32.5647 45.3456 32.7632C45.8139 32.7907 46.5611 32.8782 47.0241 32.8723C52.1638 33.0311 48.3112 26.8636 47.0161 24.8308C47.0125 24.8279 47.1741 24.8919 47.1741 24.8919L24.8467 27.7406L24.9528 27.4895L31.6004 34.5941ZM31.5172 34.8898L24.6994 27.6912L24.4989 27.4795L24.8055 27.44C24.943 27.438 47.1156 24.5831 47.2329 24.5792C49.4597 27.1509 53.489 33.6386 47.0279 33.9037C46.5026 33.9347 45.7725 33.8523 45.241 33.8347C41.823 33.6079 38.4091 33.9044 35.0314 34.416C33.9916 34.5478 32.5482 34.78 31.5172 34.8898Z" fill="black"/>
<path d="M35.9128 29.3772C35.9128 29.3772 45.4869 30.6579 52.3484 38.8244C52.3484 38.8244 60.2316 47.2367 60.9624 53.9283C60.9624 53.9283 69.1935 45.4831 69.0778 37.8367C69.0778 37.8367 73.3129 29.9519 68.439 27.0161C68.439 27.0161 65.288 16.9224 63.1149 15.3731C63.1149 15.3731 57.8903 7.57837 52.3426 7.4467C46.7949 7.31502 33.6786 24.008 33.6786 24.008L35.9128 29.3772Z" fill="#FFC793"/>
<path d="M36.0194 29.2576C36.0522 29.2434 36.0249 29.2359 36.0929 29.2502C36.2422 29.2781 36.3981 29.3026 36.5443 29.3338C39.5216 29.9447 42.3606 31.0567 44.9419 32.5238C46.125 33.1703 47.3124 34.0032 48.3868 34.8C48.673 35.0403 49.4388 35.6716 49.7355 35.9204C54.3949 40.3413 60.2869 47.7263 61.1289 53.9124L60.8386 53.8285C61.9066 52.6971 62.8962 51.4876 63.8167 50.2455C66.5251 46.5284 68.8842 42.2993 68.9292 37.772C70.0394 34.3973 72.0065 29.726 68.3489 27.1469C68.2899 27.1137 68.3001 27.1162 68.2801 27.0622C66.9777 23.5972 65.6911 20.0609 63.671 16.8954C63.3431 16.4035 62.985 16.0236 62.605 15.7308C61.7404 14.4502 60.7233 13.203 59.6217 12.0589C57.7118 10.1359 55.1045 7.88671 52.1066 7.89226C51.9443 7.87429 51.7234 7.94243 51.5639 7.97022C50.0216 8.34903 48.629 9.3282 47.3701 10.2413C42.2219 14.2616 37.916 19.1843 33.8144 24.0979L33.8361 23.9527L36.0194 29.2576ZM35.8086 29.4966L33.5236 24.063L33.4922 23.9853C36.4927 20.1561 39.6639 16.43 43.1697 12.9689C44.3411 11.8253 45.5513 10.713 46.86 9.67753C48.3031 8.58518 49.7986 7.47137 51.6955 7.07162C53.4014 6.84846 55.1144 7.4851 56.534 8.27069C59.4964 9.99379 61.7286 12.4304 63.667 15.065C64.7344 15.8561 65.9955 19.0174 66.6574 20.8457C67.3913 22.8687 68.029 24.9127 68.6072 26.9725L68.5384 26.8878C71.6221 28.5609 71.434 32.371 70.5509 35.1569C70.2588 36.1231 69.8643 37.0617 69.2358 37.9039C69.3056 39.0294 68.964 40.9782 68.5022 42.3126C66.9854 46.7614 64.1494 50.7616 60.8459 54.2934C60.1805 48.0846 54.1698 40.5659 49.5101 36.1388C45.7362 32.8412 40.9648 30.4473 35.8153 29.4962L35.8086 29.4966Z" fill="black"/>
<path d="M52.3418 7.44676C52.3418 7.44676 34.3584 32.6925 25.7928 41.1575C25.7928 41.1575 17.5221 52.9694 17.6285 55.5682C17.6285 55.5682 3.5478 39.7156 9.76373 25.5729C9.76373 25.5729 20.8752 -2.3284 49.539 5.46933C49.539 5.46933 51.6366 6.87613 52.3418 7.44676Z" fill="#FFE6C0"/>
<path d="M52.5087 7.42475C52.446 7.61519 52.2245 7.90072 52.111 8.08191C51.8884 8.4073 51.2216 9.39566 50.9832 9.73729C46.4525 16.311 41.6564 22.8269 36.6801 29.133C33.3744 33.2527 29.7704 37.7788 26.1302 41.3519C23.7335 44.7751 21.3766 48.2449 19.3297 51.8495C18.6509 53.1477 17.7982 54.5144 17.7626 55.9584L17.4968 55.6649C10.4529 47.5367 4.79013 36.2994 8.79093 25.811C11.5021 19.0141 16.8281 12.0904 23.3749 7.93244C31.1371 2.91902 40.9658 1.74488 49.5879 5.32572C50.083 5.63629 51.2949 6.48619 51.761 6.81684C51.9833 6.99964 52.337 7.18998 52.5055 7.428L52.5087 7.42475ZM52.1755 7.46891C52.1179 7.46006 52.1119 7.47266 52.0659 7.43252L51.8972 7.30472C51.2827 6.84814 50.0863 6.03406 49.4391 5.59165C48.8205 5.57919 47.6407 5.38557 46.8454 5.27946L45.5292 5.16431C39.9941 4.62168 34.1592 4.97227 29.0135 7.10057C19.9287 10.7533 12.2887 19.9963 9.571 28.5599C7.16779 38.0142 11.9325 47.8596 17.7574 55.4719L17.458 55.5753C17.5417 54.15 18.2787 52.9279 18.8818 51.6555C20.8091 47.96 23.1065 44.4478 25.4559 40.9631C27.9619 38.3692 30.301 35.6199 32.5703 32.8257C39.0005 24.8725 45.2008 16.5502 51.3894 8.42758L51.7944 7.89549L51.9938 7.6327C52.0406 7.57177 52.0983 7.52551 52.172 7.46606L52.1755 7.46891Z" fill="black"/>
<path d="M49.4062 11.5139C49.4062 11.5139 59.4812 23.553 68.2202 26.3279" stroke="black" stroke-width="0.305212" stroke-miterlimit="10"/>
<path d="M47.1943 14.5374C47.1943 14.5374 57.3415 32.4069 69.0778 37.8366" stroke="black" stroke-width="0.305212" stroke-miterlimit="10"/>
<path d="M45.2911 17.2152C49.6297 22.6286 53.7038 28.2259 58.1708 33.5398C58.833 34.3487 59.7 35.1577 60.3138 36.1133C62.9719 40.1902 63.3946 46.1561 62.1297 50.7217C61.8499 51.5555 61.5299 52.3918 60.9719 53.1197L60.6841 52.9652C61.373 51.4398 61.5087 49.7573 61.5458 48.1112C61.5313 44.2824 60.968 40.2564 58.8805 36.9174C58.343 36.0583 57.5717 35.3354 56.8691 34.4677C54.618 31.7689 52.6211 28.9388 50.6329 26.0867C48.678 23.2297 46.7784 20.3418 45.009 17.385L45.2948 17.2211L45.2911 17.2152Z" fill="black"/>
<path d="M43.251 19.8428C43.251 19.8428 43.0188 22.7341 51.2735 37.6664" stroke="black" stroke-width="0.305212" stroke-miterlimit="10"/>
<path d="M50.7353 9.68145C50.936 9.21347 56.846 8.71456 61.3532 13.1169" stroke="black" stroke-width="0.305212" stroke-miterlimit="10"/>
<path d="M49.5397 5.46932C49.5397 5.46932 15.7337 14.9867 8.90786 39.1022" stroke="black" stroke-width="0.305212" stroke-miterlimit="10"/>
</g>
</g>
<defs>
<clipPath id="clip0_1260_709">
<rect y="0.522217" width="76" height="76" rx="38" fill="white"/>
</clipPath>
<clipPath id="clip1_1260_709">
<rect width="63.6659" height="52.2843" fill="white" transform="translate(5.77734 5.16919) rotate(-3.37862)"/>
</clipPath>
</defs>
</svg>