<?xml version="1.0" encoding="utf-8"?>
<!-- Generator: Adobe Illustrator 23.1.1, SVG Export Plug-In . SVG Version: 6.00 Build 0)  -->
<svg version="1.1" id="Layer_1" xmlns="http://www.w3.org/2000/svg" xmlns:xlink="http://www.w3.org/1999/xlink" x="0px" y="0px"
	 viewBox="0 0 100 100" style="enable-background:new 0 0 100 100;" xml:space="preserve">
<path d="M86,34.9c1-0.2,3.8,1.3,6.4-0.1c4.1-2.1,1.9-3,0.2-3.7c-1.6-0.7-5.9-2.2-6.2-6c-0.4-3.8-3.6-4.9-3.6-4.9s1.5-7.6,0.1-8
	c-1.4-0.4-6.4,4.7-7.7,5.9c-4.6,0-9.4,6-9.5,13c-0.1,7-3.8,12.2-7.5,13.7c-21.3,6.9-22.6,19.8-22.5,29.4c0,2.6,0.3,4.7,0.7,6.5
	C34,78.5,30.8,72,33,60.3c2.8-14.8-5.3-29.4-28-25.5c8.4,4,10.9,14.8,9.3,20.9C10.8,68.7,9.8,87.9,35,87.9c3,0,5.4,0,7.3,0
	c1.2,0,4.4,0,7.6,0c4.9,0,10.2,0,10.2,0c2,0,4.6,0,4.6-1.8c0-2.1-7.3-2.7-7.9-3.2c0,0,12.2-0.9,13.1-12.7c0,0,10.1,17.7,13.3,17.7
	c3.2,0,5.4,0,7.5,0c1.8,0,2.4-1,2.4-2.4c0-1.4-2-2-3.2-2c-1.1,0-3.4,0.3-4.8-1.6c-7-8.9-6.7-15.7-6.7-19.3c0-1.7,0.5-3,1.3-4.2
	c5-9,5.7-10.4,5.7-13.7c0-3.3-2.5-6.6-2.9-7.3C82.1,36.5,83.7,35.3,86,34.9z"/>
</svg>
