<?xml version="1.0" encoding="utf-8"?>
<!-- Generator: Adobe Illustrator 23.1.1, SVG Export Plug-In . SVG Version: 6.00 Build 0)  -->
<svg version="1.1" id="Layer_1" xmlns="http://www.w3.org/2000/svg" xmlns:xlink="http://www.w3.org/1999/xlink" x="0px" y="0px"
	 viewBox="0 0 100 100" style="enable-background:new 0 0 100 100;" xml:space="preserve">
<path d="M83.1,23.1c-0.1-1.7-1.5-2.3-1.5-2.3c-0.1,0,0.6,0.3-11.2-5.6C69.4,9.4,64.5,5,58.5,5c-6.6,0-12,5.4-12,12v2.7L36.1,35.3
	c-6,9.1-9.2,19.6-9.2,30.5v9.4c0,6-3.2,11.6-8.4,14.5c-2.5,1.4-1.5,5.3,1.4,5.3h15.4c5.5,0,10.8-1.3,15.6-3.8v1
	c0,1.6,1.3,2.8,2.8,2.8h7c1.6,0,2.8-1.3,2.8-2.8c0-1.6-1.3-2.8-2.8-2.8h-4.2v-2.2C65.2,76.7,65,77,65,76.9c0.4-0.5,1.9-3.8,2.8-7.3
	l4.3-16.9c2.3-8.9,2-18-0.6-26.6c9.5,0,8.8,0,9.1,0C82.1,25.9,83.2,24.5,83.1,23.1z M41.3,44.6c1.5-0.5,3.1,0.2,3.6,1.6
	c2.2,5.8,4.6,11,3.4,19.3c-0.1,0.8,1,1.3,1.5,0.6l2.8-4.2c2.2-3.3,2.7-7.4,1.5-11.1c-1.4-4.1-1.2-8.6,0.4-12.7l2.9-7.3l-3.3-4.4
	c-0.9-1.2-0.7-3,0.6-3.9s3-0.7,3.9,0.6l4.2,5.6c0.6,0.8,0.7,1.8,0.4,2.7l-3.5,8.8c-1.1,2.8-1.2,5.9-0.3,8.8c1.8,5.4,1,11.3-2.1,16
	l-2.8,4.2c-1.5,2.3-4.3,3.3-6.9,2.7c-3.2-0.8-5.3-3.9-4.8-7.1c1-6.8-1.1-11.2-3.1-16.5C39.1,46.7,39.9,45.1,41.3,44.6L41.3,44.6z"/>
</svg>
