<?xml version="1.0" encoding="utf-8"?>
<!-- Generator: Adobe Illustrator 23.1.1, SVG Export Plug-In . SVG Version: 6.00 Build 0)  -->
<svg version="1.1" id="Layer_1" xmlns="http://www.w3.org/2000/svg" xmlns:xlink="http://www.w3.org/1999/xlink" x="0px" y="0px"
	 viewBox="0 0 100 100" style="enable-background:new 0 0 100 100;" xml:space="preserve">
<path d="M39.8,63.5c1.4,0.5,2.1,2,1.7,3.3L36,83.4c12.4-3.3,21.5-14.6,21.5-28v-3.5c0-6-2.7-11.4-7-15.1c-0.9-0.8-1.8-1.5-2.8-2.1
	c0,0-0.1,0-0.1-0.1c-1-0.6-2-1.1-3-1.5c-0.3-0.1-0.7-0.2-1-0.3c-0.8-0.3-1.6-0.5-2.4-0.7c-1.2-0.2-2.5-0.4-3.8-0.4
	c-1.2,0-2.4,0.1-3.5,0.3c-8,1.4-14.4,7.4-16.2,15.5l-7.5,33.7c-0.2,0.8,0,1.6,0.5,2.2c0.5,0.6,1.3,1,2.1,1h6.9L26,65.2
	c0.5-1.4,1.9-2.1,3.3-1.7c1.4,0.5,2.1,2,1.7,3.3l-5.9,17.6h3.4c0.6,0,1.1-0.1,1.6-0.1l6.4-19.2C37,63.8,38.4,63,39.8,63.5z
	 M75.9,10.3h-4.1C70,7.1,66.6,5,62.7,5c-5.8,0-10.5,4.7-10.5,10.5v15.8c6.4,4.6,10.5,12.1,10.5,20.5v3.5C65.9,53,68,49.2,68,44.9
	V26.1h15.8v2.6c0,1.5,1.2,2.6,2.6,2.6c1.5,0,2.6-1.2,2.6-2.6v-5.3C89.1,16.2,83.2,10.3,75.9,10.3z M41.6,92.4c0,1.5,1.2,2.6,2.6,2.6
	c1.5,0,2.6-1.2,2.6-2.6v-2.6h-5.3V92.4z M31.1,92.4c0,1.5,1.2,2.6,2.6,2.6s2.6-1.2,2.6-2.6v-2.6h-5.3V92.4z M47.1,84.2
	C58.8,82.7,68,72.8,68,60.7v-2.9c-1.7,1.7-3.7,3.1-5.9,4.1C60.3,71.2,54.8,79.2,47.1,84.2L47.1,84.2z"/>
</svg>
