<?xml version="1.0" encoding="utf-8"?>
<!-- Generator: Adobe Illustrator 23.1.1, SVG Export Plug-In . SVG Version: 6.00 Build 0)  -->
<svg version="1.1" id="Layer_1" xmlns="http://www.w3.org/2000/svg" xmlns:xlink="http://www.w3.org/1999/xlink" x="0px" y="0px"
	 viewBox="0 0 100 100" style="enable-background:new 0 0 100 100;" xml:space="preserve">
<path d="M80.1,41.8c0.2-1.3,1.3-2.2,2.6-2l4.8,0.5c4,0.4,7.4-2.7,7.4-6.7v-3c0-3.7-3-6.7-6.7-6.7c0,0,0.5,0-10.1,0
	c-2.3-2.7-5.4-4.3-8.7-4.7c-0.8-3-3.5-5.2-6.8-5.2c-3.6,0-6.6,2.8-7,6.3c-1.8,0.5-3.5,1.1-5.2,1.9c-8,3.6-6.5,3.1-21.3,4.4
	C12,26.7-0.4,44.1,7.3,62.1c2.4,5.5,1.9,8.8,1.9,20.6c0,1.6,1.3,2.8,2.8,2.8h7.8c1.5,0,2.7-1.2,2.8-2.7L23.2,72
	c0.8-0.4,1.5-0.8,2.2-1.3c0.2,0.1,0.4,0.2,0.6,0.3l-1.3,11.5c-0.2,1.7,1.1,3.1,2.8,3.1c5.4,0,5.4,0,5.8-0.1c0.6-0.1,1.2-0.5,1.6-1.1
	c0.6-0.8,0.4-0.4,1.8-10.3c3.8,0.4,7.8,0.3,11.4-0.5l-1,8.9c-0.2,1.7,1.1,3.1,2.8,3.1c3,0,2.9,0,3,0c1.1,0.1,2.1-0.5,2.6-1.4
	l2.7-4.7v3.3c0,1.6,1.3,2.8,2.8,2.8h4.2c1.6,0,2.8-1.3,2.8-2.8V68.7c2.9-2.6,4.9-6.2,5.4-10.1c1.9,0.5,2.5,0.4,11.4,0.4
	c5.4,0,9.8-4.4,9.8-9.8c0-0.5-0.1-1-0.4-1.4c0.9-1.7,0.1-3.3-1.2-3.9c-1.4-0.7-3.1-0.1-3.8,1.3c-0.4,0.8-0.3,0.7-0.3,0.7
	c-1.9-0.3-1.3-0.2-1.4-0.3c0.3-1.2-0.3-2.5-1.5-3.1c-1.4-0.7-3.1-0.1-3.8,1.3c-0.5,0.9-0.4,0.8-0.4,0.8l-0.3,0
	C80.8,44.2,79.9,43.2,80.1,41.8z"/>
</svg>
