<svg xmlns="http://www.w3.org/2000/svg"  viewBox="0 0 24 24" fill="#27A2A8"><path d="M16.8 10.8L15.6 12 14 12 14 12.9 13.7 15.6 13.5 16.5 13.1 20 10.9 20 10.5 16.5 10.3 15.7 10 12.9 10 12 8.4 12 7.2 10.8 7.4 10.4 11 11 12 10 13 11 16.6 10.4zM16 7H8c0-2.1 2.1-3 4-3S16 4.9 16 7z" opacity=".3"/><path d="M11 11H13V13H11z"/><path d="M18.6,10.1L19,10V7h-1c0-2.9-2.5-5-6-5S6,4.1,6,7H5v3l0.4,0.1l-0.6,1.1L7.6,14h0.5l1,8h5.8l1-8h0.5l2.8-2.8L18.6,10.1z M12,4c1.9,0,4,0.9,4,3H8C8,4.9,10.1,4,12,4z M15.6,12H14v0.9l-0.3,2.7l-0.2,0.9L13.1,20h-2.2l-0.4-3.5l-0.2-0.8L10,12.9V12H8.4l-1.2-1.2l0.2-0.4L11,11l1-1l1,1l3.6-0.6l0.2,0.4L15.6,12z"/><path d="M9 15H15V17H9z"/></svg>