<svg xmlns="http://www.w3.org/2000/svg" fill="none" viewBox="0 0.52 76 81.17">
<g clip-path="url(#clip0_1260_1413)">
<rect y="0.522217" width="76" height="76" rx="38" fill="#FAFBFB"/>
<path d="M19.0503 69.1994L16.1742 39.035C16.1539 38.8349 16.1302 38.6348 16.103 38.4347C15.8215 36.3286 14.3123 19.5641 36.9848 17.3664C36.9848 17.3664 58.1277 15.7046 59.5962 35.0872L60.9223 65.896C61.0342 67.3273 60.8511 68.7042 60.4237 69.993C59.7013 72.167 58.2905 74.012 56.5201 75.5484C55.6111 76.3352 54.6208 77.0135 53.583 77.6104C50.3305 79.4826 46.6541 80.5475 42.8928 80.8426L39.637 81.097C37.0865 81.2971 34.5191 81.1343 32.0297 80.5814C30.3475 80.2084 28.784 79.8082 27.3053 79.1807C24.1715 77.8546 21.6109 75.9011 20.1932 73.1607C19.5692 71.9567 19.169 70.6239 19.0571 69.196H19.0503V69.1994Z" fill="white"/>
<path d="M18.8857 69.4944C17.6885 59.6725 16.2743 48.1276 15.2771 38.3498C14.297 28.2803 20.049 20.7612 29.5827 17.9463C31.9093 17.2137 34.3478 16.8372 36.7558 16.5659C40.2084 16.3488 43.644 16.8304 46.9508 17.8343C55.2804 20.4323 59.9913 26.8626 60.3983 35.5213C60.7578 43.7186 61.1987 55.8536 61.531 64.0849C61.6192 66.0214 61.782 68.114 61.1207 69.9896C59.2011 75.7925 53.3472 79.1332 47.758 80.6187C45.0515 81.3784 41.9381 81.453 39.1502 81.6666C32.8759 81.9447 24.5564 80.0828 20.7036 74.7241C19.5573 73.1166 18.8552 71.1936 18.723 69.2265L19.2113 69.5046C19.1299 69.5554 18.9705 69.552 18.8891 69.5012L18.8857 69.4944ZM19.2147 68.9009C19.1401 68.8466 18.9841 68.8432 18.9061 68.8907L19.3945 69.1688C20.1508 77.2305 29.3012 80.2965 36.281 80.6356C37.9123 80.7916 40.2728 80.4694 41.9211 80.3677C48.7754 79.9777 57.5392 76.6336 59.8556 69.5961C60.4491 67.8664 60.2524 65.9672 60.1609 64.1663C59.7607 55.9248 59.2044 43.8238 58.8348 35.6128C58.438 27.6156 54.1748 21.7618 46.4556 19.3775C43.3931 18.4516 40.0965 18.0005 36.8982 18.204C34.6056 18.472 32.2518 18.8416 30.0643 19.5369C21.2225 22.1382 15.9283 29.1825 16.922 38.5092C17.8004 47.9377 18.5466 59.3842 19.2113 68.9009H19.2147Z" fill="#221F1F"/>
<path d="M37.3975 18.6492C37.8099 18.6175 38.0265 18.1704 37.787 17.8526C35.5085 14.8227 26.2239 3.72068 17.762 11.4492C9.13967 19.3228 25.5845 14.175 31.2161 14.4174C32.951 14.4929 34.6067 15.1843 35.7751 16.4102C36.277 16.9386 36.6915 17.5585 36.8414 18.2539C36.8956 18.5022 37.1351 18.6711 37.3996 18.6532V18.6492H37.3975Z" fill="white"/>
<path d="M37.1892 18.6573C37.1996 18.6136 37.2475 18.5162 37.335 18.4765C37.412 18.4387 37.4454 18.4487 37.5058 18.4169C37.6932 18.3195 37.7286 18.0811 37.5828 17.9321L37.5203 17.8507C36.4352 16.444 35.2356 15.1109 33.9298 13.8871C30.006 10.142 24.314 7.00092 19.1885 10.6685C17.9139 11.6043 16.6102 12.7745 15.8104 14.1056C15.6396 14.4453 15.4834 14.8268 15.7417 15.1208C15.9437 15.3116 16.2186 15.395 16.531 15.4606C17.337 15.6096 18.1701 15.5758 18.9949 15.5261C22.3688 15.2818 25.7261 14.5566 29.1125 14.2467C30.2622 14.1473 31.4493 14.0857 32.5844 14.3599C34.5525 14.8308 36.4811 16.1838 37.0267 18.1189L37.0496 18.2202C37.0788 18.3632 37.2288 18.4666 37.3808 18.4566C37.3808 18.4526 37.1808 18.6672 37.1871 18.6513L37.3933 18.85C37.36 18.85 37.2975 18.8401 37.2496 18.7924C37.1996 18.7467 37.1871 18.6891 37.1871 18.6593L37.1892 18.6573ZM37.6057 18.6414C37.6057 18.6116 37.5932 18.554 37.5453 18.5083C37.4953 18.4626 37.4349 18.4507 37.4037 18.4507C37.4037 18.4546 37.6161 18.6474 37.6099 18.6533V18.844L37.4162 18.852C37.1163 18.8758 36.8101 18.7089 36.6873 18.4447C36.2207 16.5712 34.363 15.2698 32.4677 14.8328C31.4056 14.5824 30.2872 14.648 29.1667 14.7493C25.7719 15.0791 22.4625 15.8162 19.0407 16.0804C17.4433 16.2116 14.0297 16.2811 15.2918 13.8553C15.573 13.3327 15.9437 12.8996 16.3228 12.4804C17.0975 11.6539 17.9181 10.8831 18.8595 10.2334C21.8606 8.08371 25.4991 8.04795 28.7835 9.6314C32.5115 11.4334 35.4293 14.4334 37.8723 17.6103L37.9348 17.6937L37.966 17.7354C38.2722 18.1248 38.0285 18.7387 37.5266 18.8321C37.5162 18.8361 37.5537 18.8242 37.5703 18.8083C37.6203 18.7725 37.6349 18.6811 37.6099 18.6414H37.6057Z" fill="#221F1F"/>
<path d="M23.7393 21.8089C23.7393 21.8089 36.7967 23.0197 49.2064 19.8079L23.7393 21.8089Z" fill="white"/>
<path d="M22.9805 21.9414C22.9805 21.9414 37.364 23.1183 49.7737 19.9065" stroke="#221F1F" stroke-width="0.678309" stroke-miterlimit="10"/>
<path d="M15.9404 35.8331C15.9404 35.8331 37.548 29.0806 59.1453 32.5671L15.9404 35.8331Z" fill="white"/>
<path d="M15.8389 35.5079C18.3859 34.4022 21.0822 33.8867 23.7649 33.2864C28.218 32.3605 32.7966 31.6653 37.3243 31.2651C41.8113 30.8581 46.5425 30.8004 51.0465 31.0412C51.9147 31.1158 54.3092 31.3125 55.1571 31.3905C56.5205 31.5906 57.8771 31.8382 59.1998 32.2316L59.0913 32.8998C57.2903 32.9642 55.4623 32.6759 53.6716 32.5674C44.6874 31.8314 35.5539 32.4996 26.6782 33.9919C25.1385 34.2734 22.8695 34.6973 21.3535 35.0466C19.5899 35.4434 17.8297 35.864 16.0424 36.1591L15.8389 35.5113V35.5079Z" fill="#221F1F"/>
<path d="M17.9775 56.5696C21.8337 55.1757 36.6853 50.9362 61.3418 52.6286L17.9775 56.5696Z" fill="white"/>
<path d="M17.8623 56.2505C24.5979 53.7815 31.7744 52.7369 38.8967 52.14C42.4646 51.8788 46.0427 51.7466 49.6174 51.7703C53.1887 51.7873 56.7769 51.8008 60.3109 52.469L60.2634 53.1473C56.6989 53.3948 53.1683 53.0421 49.6106 53.0625C42.5256 53.0082 35.4203 53.4016 28.4202 54.5073C24.9269 55.0703 21.4472 55.7961 18.0929 56.8915L17.8623 56.2539V56.2505Z" fill="#221F1F"/>
<path d="M51.6894 52.6143C52.0116 45.0783 51.3739 31.9937 51.3739 31.9937C51.3739 31.9937 33.2767 30.6134 23.7871 34.4594C23.7871 34.4594 24.7062 47.5304 26.6258 54.6526" stroke="#221F1F" stroke-width="0.678309" stroke-miterlimit="10"/>
<path d="M23.9137 34.2836C23.6763 36.7221 25.7078 50.8241 26.6066 54.1309C33.0607 52.5165 45.7722 51.8789 51.5378 51.9366C51.9177 47.7989 51.3275 37.2885 51.0494 32.3334L51.0359 32.1198C40.3355 30.6919 28.5872 33.0694 23.9137 34.2836Z" fill="#5BC2C7"/>
<path d="M37.687 44.0275L37.5615 40.2391C37.5615 40.117 37.687 40.0356 37.7955 40.0899L41.4652 41.9858C41.5805 42.0434 41.5805 42.2096 41.4652 42.2707L37.921 44.1631C37.8159 44.2174 37.6904 44.1462 37.6836 44.0275H37.687Z" fill="white" stroke="black" stroke-width="0.162794"/>
<g clip-path="url(#clip1_1260_1413)">
<path d="M16.7501 47.6705L17.9761 54.707C16.6652 55.9981 17.404 56.7636 17.7835 57.3192C17.9468 60.0838 24.2626 63.2942 27.4002 64.5539C31.442 67.2282 37.6292 67.4756 40.2176 67.265L40.8194 77.4593C41.2836 77.4897 40.5329 77.8924 33.8168 79.2599C25.4217 80.9692 11.7997 70.5032 11.7079 68.9481C11.6345 67.704 15.4778 64.2752 17.4086 62.7163L14.3278 57.5232C11.2042 51.6044 14.4905 48.5552 16.7501 47.6705Z" fill="#F0D9FF"/>
<path d="M16.7501 47.6705L17.9761 54.707C16.6652 55.9981 17.404 56.7636 17.7835 57.3192C17.9468 60.0838 24.2626 63.2942 27.4002 64.5539C31.442 67.2282 37.6292 67.4756 40.2176 67.265L40.8194 77.4593C41.2836 77.4897 40.5329 77.8924 33.8168 79.2599C25.4217 80.9692 11.7997 70.5032 11.7079 68.9481C11.6345 67.704 15.4778 64.2752 17.4086 62.7163L14.3278 57.5232C11.2042 51.6044 14.4905 48.5552 16.7501 47.6705Z" fill="#F0D9FF"/>
<path d="M16.7501 47.6705L17.9761 54.707C16.6652 55.9981 17.404 56.7636 17.7835 57.3192C17.9468 60.0838 24.2626 63.2942 27.4002 64.5539C31.442 67.2282 37.6292 67.4756 40.2176 67.265L40.8194 77.4593C41.2836 77.4897 40.5329 77.8924 33.8168 79.2599C25.4217 80.9692 11.7997 70.5032 11.7079 68.9481C11.6345 67.704 15.4778 64.2752 17.4086 62.7163L14.3278 57.5232C11.2042 51.6044 14.4905 48.5552 16.7501 47.6705Z" stroke="black" stroke-width="0.346173"/>
<path d="M60.7457 44.8997L60.6456 52.0145C61.8411 53.4698 61.3001 55.2703 60.8802 55.9886C58.9944 59.2903 52.0324 63.7355 48.787 65.5453L40.4123 67.6002L40.9836 77.2762L43.4848 81.4633L64.0457 77.3018C65.3931 72.7142 67.9701 63.3032 67.4983 62.36C67.0265 61.4169 64.8011 60.7276 63.7474 60.5008C65.2004 58.6812 67.0495 54.7575 66.9576 53.2024C68.672 46.9979 63.5307 45.0821 60.7457 44.8997Z" fill="#F0D9FF" stroke="black" stroke-width="0.346173"/>
<path d="M60.1075 52.3936C60.074 52.3956 60.0813 52.3917 60.1075 52.3936C60.1336 52.392 60.1152 52.3966 60.1701 52.3795C60.1966 52.3849 60.2915 52.2857 60.2843 52.2272C60.2796 52.1478 60.2726 52.1552 60.2557 52.1215L60.2476 52.1116C60.2551 52.1112 60.2825 52.1338 60.3059 52.1497C62.3119 53.3167 62.1601 54.5439 61.0933 56.3253C60.1079 58.095 58.5592 59.4268 56.9896 60.7216C55.4447 61.9908 53.7767 63.1356 52.0018 64.1135C50.2112 65.0784 48.331 65.917 46.2855 66.2941L46.2096 65.9556C48.0811 65.3497 49.8417 64.383 51.4945 63.3604C53.5676 62.06 55.5062 60.5667 57.3107 58.9531C59.4355 57.1369 62.7357 55.0586 60.1661 52.5633C60.1066 52.5045 59.9881 52.3937 59.9359 52.331C59.9113 52.2943 59.8999 52.2915 59.8948 52.2052C59.8875 52.1433 59.9824 52.0441 60.0161 52.0456C60.1074 52.0125 60.1425 52.0381 60.207 52.0551L60.0997 52.3871L60.1075 52.3936Z" fill="black"/>
<path d="M17.3753 47.4554C14.9608 47.9687 13.4721 50.1908 13.2278 52.374C12.8955 55.9761 15.7324 59.6474 18.0837 62.301L18.6174 62.8689C16.2997 64.641 13.7355 66.7915 12.5736 69.365C12.2018 70.2739 12.1614 71.1701 12.833 71.8615C13.9288 72.7842 15.462 73.3381 16.8554 73.8656C22.3006 75.7546 28.1631 76.7458 33.9789 77.137C42.7455 77.69 51.7058 76.7834 59.9286 73.7515C62.4576 72.9023 65.8975 71.109 67.6313 70.1301C69.0915 68.6268 70.1663 66.2213 68.9619 64.3453C67.6133 62.2387 64.7944 61.2757 62.3502 60.5261C63.5659 58.8641 64.6887 57.0828 65.492 55.1992C66.1799 53.5752 66.7066 51.8118 66.5034 50.0777C65.9874 46.3941 63.3567 45.2952 59.8594 44.6009L59.9176 44.2579C65.1957 45.0238 68.4806 47.1511 67.2436 52.816C66.6833 55.5896 65.3867 58.1572 63.7731 60.5391L63.4698 59.7013C65.9902 60.4775 68.6293 61.4928 70.1088 63.7302C71.6683 66.1222 70.5244 69.2525 68.5497 71.1464C58.4182 77.5027 45.832 79.6455 33.8368 78.9019C27.8038 78.4994 21.8132 77.5503 16.1441 75.536C12.8083 74.2882 9.15076 72.7753 10.8734 68.762C12.1567 66.0324 14.5459 64.017 17.0067 62.2018L16.8868 63.269C16.3226 62.6267 15.8336 61.9939 15.3539 61.3293C13.0417 58.0739 10.8242 53.7043 13.1533 49.9116C14.0037 48.4479 15.5576 47.3306 17.3326 47.1115L17.3753 47.4554Z" fill="black"/>
<path d="M18.1473 54.6643C14.3999 57.3835 20.8743 60.504 23.2273 62.1112C26.487 64.2193 30.0715 66.1384 34.0049 66.8867L33.9693 67.2318C32.9159 67.1554 31.9204 66.9196 30.9302 66.649C27.1323 65.7298 14.1129 59.3337 17.3634 54.7105C17.6962 54.2786 17.47 54.5726 17.9797 54.3554L18.1435 54.6645L18.1473 54.6643Z" fill="black"/>
<path d="M19.0677 59.7764C16.0985 56.9643 17.0472 55.2426 17.9771 54.707C17.1392 56.9072 18.0919 58.7238 19.0677 59.7764C19.3111 60.0069 19.5808 60.2448 19.879 60.4899C19.6353 60.3224 19.3506 60.0815 19.0677 59.7764Z" fill="black"/>
<path d="M17.9771 54.707C16.971 55.2865 15.9428 57.2545 19.879 60.4899C18.7947 59.7447 16.8963 57.545 17.9771 54.707Z" stroke="black" stroke-width="0.346173"/>
<circle cx="34.0498" cy="71.4435" r="1.38469" transform="rotate(-3.37862 34.0498 71.4435)" fill="black"/>
<path d="M44.5808 70.6489C44.5583 70.2672 44.2306 69.976 43.8488 69.9986C43.4671 70.0211 43.176 70.3488 43.1985 70.7305L44.5808 70.6489ZM43.1985 70.7305L43.4535 75.0501L44.8358 74.9685L44.5808 70.6489L43.1985 70.7305Z" fill="black"/>
<path d="M17.1539 55.4489C16.4309 58.8481 20.9794 65.4982 40.3011 66.5663C48.4768 65.2174 63.914 60.5273 60.2568 52.5575" stroke="black" stroke-width="2.07704" stroke-linecap="round"/>
</g>
</g>
<defs>
<clipPath id="clip0_1260_1413">
<rect y="0.522217" width="76" height="76" rx="38" fill="white"/>
</clipPath>
<clipPath id="clip1_1260_1413">
<rect width="60.5803" height="34.2711" fill="white" transform="translate(9 46.5676) rotate(-3.37862)"/>
</clipPath>
</defs>
</svg>