<svg xmlns="http://www.w3.org/2000/svg"  viewBox="0 0 24 24" fill="#27A2A8"><path d="M12,22h-0.2C5.6,20.6,3,14.6,3,12.4V4.2l0.5-0.3C3.6,3.8,6.5,2,12,2s8.4,1.8,8.5,1.9L21,4.2v8.3c0,2.2-2.6,8.2-8.8,9.5H12z M5,5.3v7.1c0,1.4,2.1,6.3,7,7.5c4.9-1.2,7-6.1,7-7.5V5.3C18,4.9,15.7,4,12,4S6,4.9,5,5.3z"/><path d="M12,3c5.3,0,8,1.7,8,1.7v7.7c0,1.9-2.5,7.3-8,8.6c-5.5-1.2-8-6.7-8-8.6V4.7C4,4.7,6.8,3,12,3" opacity=".3"/><path d="M7 13c.5.2.9.4 1.4.7.5.3.7.4 1.1.4.2 0 .3 0 .5 0 .2 0 .2-.1.3-.1.2-.1.5-.4.6-.6l.3-.4.5 0c.2 0 .4 0 .6 0l.5 0 .3.4c.1.2.4.5.6.6.1.1.2.1.3.1.2 0 .3 0 .5 0 .4-.1.6-.1 1.1-.4.4-.2.9-.5 1.4-.7-.2.5-.4.9-.7 1.4-.2.4-.7 1-1.2 1.2-.3.1-.6.2-.9.3-.3 0-.8 0-1.1-.1-.7-.2-1.2-.6-1.6-1.2l.8.4c-.2 0-.4 0-.6 0l.8-.4c-.2.3-.4.5-.7.7-.3.2-.6.4-.9.5-.3.1-.8.2-1.1.1-.3 0-.6-.1-.9-.3-.6-.3-1-.8-1.2-1.2C7.4 13.9 7.2 13.5 7 13zM15 9c-.8 0-1.5.4-2 1 .5.6 1.2 1 2 1s1.5-.4 2-1C16.5 9.4 15.8 9 15 9zM9 9c-.8 0-1.5.4-2 1 .5.6 1.2 1 2 1s1.5-.4 2-1C10.5 9.4 9.8 9 9 9zM11 18H13V20.8H11zM14 6A1 1 0 1 0 14 8 1 1 0 1 0 14 6z"/><path d="M13.3 6.3c.4-.3.8-.5 1.3-.6C15 5.5 15.5 5.4 16 5.5c.5.1.9.3 1.2.6C17.5 6.4 17.8 6.7 18 7c-.3-.2-.7-.4-1-.5-.3-.1-.7-.1-1 0-.3.1-.5.3-.7.5-.2.2-.5.5-.6.7L13.3 6.3zM10 6A1 1 0 1 0 10 8 1 1 0 1 0 10 6z"/><path d="M9.3,7.7C9.2,7.5,8.9,7.2,8.7,7C8.5,6.8,8.3,6.6,8,6.5c-0.3-0.1-0.6-0.1-1,0C6.7,6.6,6.3,6.8,6,7c0.2-0.3,0.5-0.6,0.8-0.9 C7.1,5.8,7.5,5.6,8,5.5c0.5-0.1,1,0,1.4,0.2c0.4,0.2,0.8,0.3,1.3,0.6L9.3,7.7z"/></svg>