<?xml version="1.0" encoding="utf-8"?>
<!-- Generator: Adobe Illustrator 23.1.1, SVG Export Plug-In . SVG Version: 6.00 Build 0)  -->
<svg version="1.1" id="Layer_1" xmlns="http://www.w3.org/2000/svg" xmlns:xlink="http://www.w3.org/1999/xlink" x="0px" y="0px"
	 viewBox="0 0 100 100" style="enable-background:new 0 0 100 100;" xml:space="preserve">
<path d="M92.9,46.6c-1.5-0.5-3.1,0.3-3.6,1.8c-0.5,1.6-1.5,2.6-3.1,3.1l-1.4-1.9l-0.8-7.4c-0.4-3.8-2.9-7.1-6.3-8.6l-2.4-1.1
	c-1.2-2.7-3.1-7.1-5.9-8.2c-2.7-1.1-4.9,0.8-6.3,3.4c-4.8-1.1-9.8-0.9-14.6,0.7c-4.2,1.4-5.9,1.1-17.9,1.1c-6.2,0-11.9,3.4-15,8.7
	c-6.7,4-10.1,9.4-10.2,9.6c-1.2,1.9,0.2,4.3,2.4,4.3c0.9,0,1.8-0.5,2.4-1.3c0,0,1.1-1.7,3.2-3.8c0,2.2,0.4,3.5,1.2,6.8l-5.9,5.9
	c-0.5,0.5-0.8,1.2-0.8,2v11.2c0,1.6,1.3,2.8,2.8,2.8h2.8c1.6,0,2.8-1.3,2.8-2.8s-1.3-2.8-2.8-2.8v-1.5C24.9,65.6,26,65.2,27.9,64
	c0,0-0.1-0.2,3.4,5.1l-0.7,1.4c-0.7,1.4-0.1,3.1,1.3,3.8c1.4,0.7,3.1,0.1,3.8-1.3l1.4-2.8c0.5-0.9,0.4-2-0.2-2.8L32,60.1
	c0.2-0.2,0.3-0.5,0.5-0.7c4.9,4,11,6.6,17.3,5.9c0,0,0,0-1,2.6c-0.3,0.7-0.2,0.7-0.2,5.3c0,1.6,1.3,2.8,2.8,2.8h2.8
	c1.6,0,2.8-1.3,2.8-2.8s-1.3-2.8-2.8-2.8v-0.9l2-5c0.2,0.1-0.8-0.6,2.6,2l2.5,7.6c0.4,1.1,1.5,1.9,2.7,1.9h1.4
	c1.6,0,2.8-1.3,2.8-2.8c0-1.3-0.9-2.4-2.2-2.7l-2-6.1v-1.6c0.8,0.6,1.6,1.1,2.5,1.6c3.3,1.6,4.5,2.4,6.7,2.9
	c2.7,0.6,3.6,0.3,5.4,0.6c8,1.3,7.5,1.3,7.8,1.3c1,0,2-0.6,2.5-1.6l2.8-5.6c0.2-0.4,0.4-1.2,0.2-2c-0.2-0.6-0.2-0.6-2.3-3.5
	c2-1,4-2.9,5.1-6C95.2,48.7,94.4,47.1,92.9,46.6L92.9,46.6z"/>
</svg>
