<?xml version="1.0" encoding="utf-8"?>
<!-- Generator: Adobe Illustrator 23.1.1, SVG Export Plug-In . SVG Version: 6.00 Build 0)  -->
<svg version="1.1" id="Layer_1" xmlns="http://www.w3.org/2000/svg" xmlns:xlink="http://www.w3.org/1999/xlink" x="0px" y="0px"
	 viewBox="0 0 100 100" style="enable-background:new 0 0 100 100;" xml:space="preserve">
<path d="M88,18h-9.5v-6.9h-1.6c-3.5,0-6.4,2.9-6.4,6.4V32V32c0,4.2-3.4,7.6-7.6,7.6h-2.8c0-4.2-3.4-7.7-7.7-7.7h-5.1v-0.9
	c0-5.9-4.8-10.7-10.7-10.7S26,25.1,26,31.1V32c-4.9,0-9.2,2.9-11.2,7h-1.5C8.7,39,5,42.7,5,47.2v10.2h5.3V47.2c0-1.6,1.3-3,3-3h0.3
	c0,0.2,0,0.3,0,0.5l1.2,41.4h8.4L24.4,59c1,1.1,2.5,1.9,4.2,1.9h15.1l0.9,25.2H53l0.9-25.3C69,60.1,81.1,47.6,81.1,32.3V32h7
	c3.8,0,7-3.1,7-7C95,21.1,91.9,18,88,18z"/>
</svg>
