<svg xmlns="http://www.w3.org/2000/svg"  viewBox="0 0 24 24" fill="#27A2A8"><path d="M20,15c0,0.55-0.22,1.05-0.59,1.41C19.05,16.78,18.55,17,18,17v5h-7c1.66,0,3-1.34,3-3v-1 c0-1.66-1.34-3-3-3v-0.04c0.16,0.03,0.33,0.04,0.5,0.04c1.93,0,3.5-1.57,3.5-3.5S13.43,8,11.5,8c-0.74,0-1.44,0.23-2,0.64 C8.94,8.23,8.24,8,7.5,8C6.96,8,6.45,8.12,6,8.35V8c0-3.31,2.69-6,6-6c1.66,0,3.16,0.67,4.24,1.76C17.33,4.84,18,6.34,18,8v5 c0.55,0,1.05,0.22,1.41,0.59C19.78,13.95,20,14.45,20,15z" opacity=".3"/><path d="M19,23h-8v-2h6v-5h1c0.267,0,0.514-0.103,0.693-0.287C18.897,15.514,19,15.267,19,15s-0.103-0.514-0.287-0.693 C18.514,14.103,18.267,14,18,14h-1V8c0-1.341-0.52-2.595-1.464-3.53C14.595,3.52,13.341,3,12,3C9.243,3,7,5.243,7,8H5 c0-3.859,3.141-7,7-7c1.879,0,3.637,0.73,4.95,2.056C18.27,4.363,19,6.121,19,8v4.17c0.422,0.148,0.807,0.394,1.127,0.723 C20.684,13.434,21,14.188,21,15s-0.316,1.566-0.893,2.127c-0.309,0.317-0.688,0.558-1.107,0.704V23z"/><path d="M9,16H5c-0.553,0-1-0.447-1-1s0.447-1,1-1h4c0.553,0,1,0.447,1,1S9.553,16,9,16z"/><path d="M11,23H9.5c-2.206,0-4-1.794-4-4H6H4v-1c0-2.289,2.376-4,4.5-4H11c2.206,0,4,1.794,4,4v1C15,21.206,13.206,23,11,23z M6,19 h1.5c0,1.103,0.897,2,2,2H11c1.103,0,2-0.897,2-2v-1c0-1.103-0.897-2-2-2H8.5C7.375,16,6,16.923,6,18V19z"/><path d="M11.5,9c1.38,0,2.5,1.12,2.5,2.5S12.88,14,11.5,14c-0.82,0-1.54-0.39-2-1c-0.46,0.61-1.18,1-2,1C6.12,14,5,12.88,5,11.5 S6.12,9,7.5,9c0.82,0,1.55,0.4,2,1.01C9.95,9.4,10.68,9,11.5,9 M11.5,7c-0.701,0-1.386,0.167-2,0.473C8.886,7.167,8.201,7,7.5,7 C5.019,7,3,9.019,3,11.5S5.019,16,7.5,16c0.709,0,1.389-0.162,2-0.465c0.611,0.303,1.291,0.465,2,0.465c2.481,0,4.5-2.019,4.5-4.5 S13.981,7,11.5,7L11.5,7z"/><path d="M11.5,9c1.381,0,2.5,1.119,2.5,2.5S12.881,14,11.5,14S9,12.881,9,11.5S10.119,9,11.5,9 M11.5,8C9.57,8,8,9.57,8,11.5 S9.57,15,11.5,15s3.5-1.57,3.5-3.5S13.43,8,11.5,8L11.5,8z"/><circle cx="11" cy="11" r="1"/><circle cx="6" cy="11" r="1"/><rect width="7" height="1" x="4" y="19"/></svg>