<?xml version="1.0" encoding="utf-8"?>
<!-- Generator: Adobe Illustrator 23.1.1, SVG Export Plug-In . SVG Version: 6.00 Build 0)  -->
<svg version="1.1" id="Layer_1" xmlns="http://www.w3.org/2000/svg" xmlns:xlink="http://www.w3.org/1999/xlink" x="0px" y="0px"
	 viewBox="0 0 100 100" style="enable-background:new 0 0 100 100;" xml:space="preserve">
<path d="M88.5,15c-0.3-0.3-0.7-0.5-1-0.7c-0.1-0.1-0.3-0.2-0.4-0.3c-0.4-0.2-0.8-0.3-1.2-0.5c-0.3-0.2-0.7-0.3-1-0.6
	c-0.4-0.4-0.9-0.6-1.3-0.9c-0.4-0.3-0.8-0.6-1.2-0.8c-0.2-0.1-0.4-0.3-0.6-0.4c-0.6-0.3-1.2-0.3-1.8-0.3c-0.2,0-0.5,0-0.7,0
	c0.2-0.2,0.4-0.4,0.6-0.6c1.1-0.6,2.4-0.9,3.7-0.8c1.2,0.1,2.4,0.4,3.6,0c0.8-0.3,1.4-0.9,1.5-1.7c0.1-0.9-0.6-1.7-1.4-2
	c-1-0.4-2.2-0.2-3.2,0.1c-0.2,0.1-0.4,0.1-0.6,0.2c-0.9,0.3-1.8,0.8-2.6,1.4c-0.7,0.5-1.4,1.1-1.9,1.7C79,8.8,78.9,8.9,78.8,9
	c-0.2,0.2-0.4,0.4-0.6,0.6c0,0,0,0,0,0.1c0,0-0.1-0.1-0.1-0.1c-0.3-0.3-1.2-0.4-1.6-0.2c-0.3,0.1-0.7,0.2-1,0.3
	c-0.5,0.2-1,0.4-1.1,1c0,0.3-0.4,0.5-0.6,0.7c-0.5,0.4-1,0.8-1.4,1.2c-0.6,0.5-1.1,1.1-1.6,1.7c-0.4,0.4-0.8,0.9-1.2,1.4
	c-0.4,0.6-0.8,1.2-1.2,1.8c-0.2,0.3-0.2,0.6-0.3,0.9c-0.1,0.4-0.3,0.7-0.4,1.1c0,0,0,0.1-0.1,0.1c-0.1,0.5-0.2,1-0.3,1.4
	c-0.1,0.6-0.3,1.2-0.5,1.8c0,0.1,0,0.1,0,0.2c-0.1,1.1-0.2,2.2-0.3,3.2c-0.1,0.4-0.3,0.8-0.4,1.2c0,0.1,0,0.1-0.1,0.2
	c-0.2,0.4-0.3,0.7-0.5,1.1c-0.2,0.4-0.4,0.9-0.6,1.3c-0.1,0.2-0.2,0.5-0.3,0.7c-0.1,0.3-0.3,0.6-0.5,0.9c-0.2,0.3-0.3,0.6-0.5,0.9
	c-0.2,0.4-0.5,0.8-0.8,1.1c-0.5,0.7-1.1,1.3-1.6,1.9c-0.4,0.4-0.8,0.7-1.2,1.1c-0.5,0.4-0.9,0.7-1.4,1c-0.3,0.2-0.6,0.4-0.9,0.5
	c-0.3,0.2-0.5,0.3-0.8,0.5c-0.4,0.2-0.8,0.5-1.3,0.7c-0.2,0.1-0.4,0.2-0.6,0.3c-0.3,0.1-0.6,0.2-0.9,0.3c-0.3,0.1-0.6,0.3-0.9,0.4
	c-0.2,0.1-0.4,0.2-0.6,0.3c-0.6,0.3-1.2,0.7-1.9,1c-0.4,0.2-0.9,0.4-1.3,0.6c-0.3,0.2-0.6,0.5-0.9,0.7c-0.3,0.2-0.7,0.4-1.1,0.6
	c-0.4,0.3-0.8,0.5-1.2,0.8c-0.5,0.3-0.9,0.6-1.4,1c-0.3,0.3-0.6,0.6-1,0.9c-0.8,0.7-1.6,1.3-2.4,2c-0.4,0.4-0.8,0.8-1.1,1.2
	c-0.4,0.4-0.7,0.8-1.1,1.3c-0.4,0.5-0.8,0.9-1.2,1.4c-0.4,0.5-0.7,1-1,1.5c-0.5,0.7-1,1.3-1.5,2c-0.4,0.6-0.7,1.2-1.1,1.8
	c-0.2,0.4-0.5,0.8-0.8,1.1c-0.3,0.5-0.7,1-1,1.4c-0.4,0.5-0.7,0.9-1.1,1.4c-0.3,0.4-0.6,0.9-0.9,1.4c-0.3,0.5-0.7,0.9-1.1,1.4
	c-0.2,0.3-0.5,0.6-0.7,0.9c-0.4,0.5-0.8,1-1.2,1.5c-0.4,0.5-0.7,1.1-1.1,1.6c-0.3,0.4-0.7,0.8-1,1.3c-0.3,0.4-0.5,0.9-0.8,1.3
	c-0.3,0.4-0.6,0.8-0.9,1.2c-0.3,0.4-0.6,0.9-0.9,1.4c-0.2,0.2-0.3,0.4-0.5,0.6c-0.4,0.5-0.8,0.9-1.2,1.4c-0.6,0.6-1.2,1.3-1.9,1.8
	c-0.4,0.3-0.8,0.7-1.1,1c-0.4,0.4-0.9,0.8-1.3,1.2c-0.6,0.5-1.2,1.1-1.7,1.6c-0.6,0.5-1.1,1.1-1.7,1.7c-0.4,0.5-0.9,0.9-1.2,1.4
	c-0.3,0.6-0.5,1.1-0.8,1.7c-0.7,1.6-0.5,3.3-0.4,5c0,0.3,0.4,0.6,0.6,0.8c0.6,0.3,1.2,0.6,1.8,0.8c0.5,0.2,1,0.5,1.5,0.7
	c0.4,0.2,0.9,0.2,1.4,0.3c1,0.3,2,0.3,2.9,0.3c0.5,0,1-0.2,1.5-0.5c0.2-0.1,0.5-0.2,0.8-0.3c0.3-0.1,0.5-0.3,0.8-0.4
	c0.2-0.1,0.4-0.2,0.6-0.3c0.5-0.3,1-0.5,1.5-0.8c0.5-0.3,1-0.7,1.6-1c0.5-0.3,0.9-0.5,1.4-0.8c0.7-0.5,1.3-1,2-1.5
	c0.4-0.3,0.9-0.6,1.4-0.9c0.2-0.1,0.4-0.3,0.6-0.5c0.6-0.6,1.3-1.1,1.9-1.7c0.3-0.3,0.6-0.6,1-0.8c0.2-0.1,0.4-0.2,0.7-0.3
	c0.5-0.1,1-0.2,1.5-0.3c0.3-0.1,0.6-0.2,0.8-0.2c0.1,0,0.2,0.1,0.4,0.1c0.2,0,0.5,0.1,0.7,0c0.2,0,0.3-0.1,0.5-0.2
	c0.4-0.2,0.8-0.3,1.2-0.5c0.3-0.1,0.6-0.2,1-0.3c0.4-0.1,0.7-0.3,1.1-0.5c0,0,0.1,0,0.1,0c1.1-0.3,2.2-0.4,3.2-0.2
	c0.5,0.1,1,0.1,1.5,0.2c0.6,0.1,1.2,0.2,1.8,0.3c0.2,0.6-0.1,1-0.6,1.4c-0.5,0.4-0.5,0.6-0.3,1.3c0.1-0.1,0.3-0.2,0.4-0.2
	c0.1-0.1,0.3-0.1,0.4-0.2c0.3,0.3,0.6,0.6,0.9,0.9c0.1,0.1,0.2,0.1,0.3,0.1c0.3,0,0.5,0,0.8,0c0.6,0,1.1,0.2,1.5,0.5c0,0,0,0,0,0
	c0.4,0.1,0.9,0.2,1.3,0.3c0.7,0,1.4,0,2.2,0c-0.1,0.6,0.3,0.8,0.4,1.2c0.2,0.5,0.5,1,0.3,1.6c0,0.2,0,0.4,0,0.6c0.1,0,0.1,0,0.2,0
	c0.1-0.2,0.1-0.3,0.2-0.5c0.1,0.2,0.2,0.4,0.3,0.5c-0.1,0.2-0.1,0.4-0.2,0.6c0,0.3,0,0.6,0,0.9c0,0.4-0.1,0.7-0.4,1
	C56,92.6,55.9,93.7,56,94c0.1,0.2,0.3,0.2,0.5,0.1c0.1-0.1,0.2-0.1,0.3-0.1c0.6-0.1,1-0.3,1.4-0.7c0.3,0.1,0.6,0.3,0.9,0.4
	c0.4,0.2,0.8,0.4,1.2,0.5c0.4,0.1,0.8,0.2,1.2,0.3c0.5,0.1,1.1,0.3,1.6,0.5c0.1,0,0.1,0,0.2,0c1.7,0,3.4,0,5,0
	c0.3-0.6-0.5-0.9-0.5-1.5h2.4c-0.3-0.3-0.4-0.6-0.7-0.8c-0.5-0.4-1-0.7-1.6-1c-0.2-0.1-0.6-0.2-0.8-0.3c0,0-0.1-0.1-0.2-0.2
	c0.3,0,0.5-0.1,0.8-0.1c0,0,0-0.1,0-0.1c-0.2-0.1-0.4-0.3-0.7-0.4c-0.9-0.7-2-0.5-3-0.5c-0.3,0-0.6,0.2-0.9,0.2
	c-0.6,0-1.2-0.1-1.8-0.2c-0.8-0.2-1.4-0.9-1.4-1.7c0-0.5-0.2-0.9-0.2-1.3c0-0.2-0.1-0.4,0.2-0.5c0,0,0-0.2,0-0.3c0-0.5,0-0.9,0-1.4
	c0.2,0,0.3-0.1,0.5-0.1c0-0.3,0-0.5,0-0.8c0-0.4,0.1-0.7,0.6-0.8c0.1,0,0.3-0.3,0.4-0.4c0.1,0,0.2,0,0.3,0c0.1,0,0.2,0.1,0.2,0.1
	c0.1,0,0.2-0.1,0.2-0.2c0.3-0.5,0.6-0.9,0.9-1.4c0.1,0,0.1,0,0.2,0v1.5c0.1,0,0.1,0,0.2,0c0.2-0.3,0.4-0.6,0.6-0.9
	c0.2-0.4,0.5-0.8,0.7-1.2c0.1-0.2,0.2-0.5,0.3-0.8c0.1-0.2,0.2-0.4,0.3-0.6c0,0,0.1,0,0.1,0.1c0,0.2,0,0.5,0.1,0.7
	c0,0.1,0.1,0.2,0.2,0.3c0.1-0.1,0.2-0.2,0.3-0.3c0.3-0.5,0.6-1,0.9-1.5c0.1-0.3,0.3-0.5,0.4-0.8c0.1-0.2,0.2-0.3,0.4-0.5
	c0.1,0.2,0.1,0.4,0.2,0.6c0.4-0.6,0.8-1.1,1.2-1.5c0.4-0.5,0.8-0.9,1.6-1.2v1.3c0,0,0.1,0,0.1,0c0-0.1,0.1-0.1,0.1-0.2
	c0.1-0.5,0.2-0.9,0.3-1.4c0.2-0.6,0.6-1.1,1.1-1.5c0.7-0.6,1.3-1.3,2-1.9c0.4-0.4,0.7-0.7,1.1-1.1c0.2-0.3,0.5-0.6,0.7-0.9
	c0.2-0.3,0.4-0.6,0.6-1c0.2-0.4,0.4-0.7,0.7-1.1c0.3-0.4,0.6-0.8,0.9-1.2c0.2-0.3,0.4-0.7,0.7-1c0.2-0.3,0.4-0.5,0.6-0.8
	c0.3-0.5,0.7-1.1,1-1.6c0.2-0.3,0.5-0.6,0.7-1c0.1-0.2,0.2-0.4,0.3-0.6c0.3-0.5,0.5-1,0.7-1.5c0.1-0.3,0.2-0.6,0.3-0.9
	c0.1-0.3,0.3-0.5,0.4-0.8c0,0,0-0.1,0.1-0.2c0.2-0.5,0.4-0.9,0.5-1.4c0.1-0.4,0.2-0.8,0.3-1.1c0.1-0.4,0.3-0.8,0.4-1.2
	c0-0.1,0.1-0.1,0.1-0.2c0.1-0.4,0.2-0.8,0.3-1.2c0.1-1,0.3-2,0.3-3c0-2.3,0-4.6,0-6.9c0-0.9-0.1-1.8-0.3-2.6c-0.1-0.5-0.1-1-0.2-1.4
	c-0.1-0.5-0.3-1-0.4-1.5c0-0.1,0-0.2,0-0.3c-0.1-0.4-0.3-0.8-0.4-1.2c-0.1-0.3-0.2-0.5-0.3-0.8c-0.3-0.6-0.6-1.2-0.9-1.7
	c-0.2-0.4-0.4-0.9-0.6-1.3c-0.1-0.3-0.3-0.5-0.4-0.7c-0.1-0.3-0.2-0.6-0.4-0.9c-0.2-0.4-0.3-0.7-0.5-1.1c0,0,0-0.1,0-0.1
	c-0.1-0.6-0.2-1.1-0.3-1.7c0-0.5,0-1.1,0-1.6c0-0.6,0.2-1,0.5-1.5c0.1-0.3,0.2-0.6,0.3-0.8c0.2-0.3,0.4-0.7,0.6-1
	c0.4-0.4,0.8-0.8,1.1-1.3c0.4-0.5,0.7-1.1,1.1-1.6c0.3-0.4,0.7-0.8,1.1-1.1c0.4-0.4,0.8-0.8,1.2-1.1c0.2-0.2,0.5-0.3,0.7-0.4
	c0.4-0.2,0.7-0.4,1.1-0.4c0.4-0.1,0.8,0,1.2,0c0.1,0,0.3,0.1,0.5,0.2c0.1-0.6,0-1-0.4-1.4C88.9,15.5,88.7,15.2,88.5,15z M88.5,7.4
	c0-0.3,0-0.6-0.1-0.8C88.6,6.8,88.6,7.1,88.5,7.4z M80.4,9.3c0,0,0.1,0,0.1,0c0,0,0,0,0,0C80.4,9.3,80.3,9.4,80.4,9.3
	C80.3,9.4,80.3,9.4,80.4,9.3z M54.7,84.8c-0.6-0.2-1.2-0.4-1.7-0.6c0-0.5,0-0.9,0-1.3c0-0.5,0.1-0.6,0.6-0.7c0.2,0,0.4,0,0.6-0.1
	c0.3-0.1,0.5-0.2,0.8-0.3c0,0,0.1,0.1,0.1,0.1C54.9,82.9,54.8,83.8,54.7,84.8z"/>
</svg>
