<?xml version="1.0" encoding="utf-8"?>
<!-- Generator: Adobe Illustrator 23.1.1, SVG Export Plug-In . SVG Version: 6.00 Build 0)  -->
<svg version="1.1" id="Layer_1" xmlns="http://www.w3.org/2000/svg" xmlns:xlink="http://www.w3.org/1999/xlink" x="0px" y="0px"
	 viewBox="0 0 100 100" style="enable-background:new 0 0 100 100;" xml:space="preserve">
<path d="M94.1,29.4c-0.7-1.3-1.5-2.5-2.3-3.8c-0.1-0.1-0.1-0.3-0.1-0.5c0-0.1-0.1-0.3-0.1-0.4c-0.2-0.7-0.7-1.3-0.8-2
	c0-0.3-0.3-0.7-0.5-0.9c-0.3-0.3-0.7-0.6-1.1-0.9c-0.3-0.2-0.6-0.4-0.9-0.7c0.7-0.9,1.3-2.2-0.3-3c-2.5-1.2-1.5-1.6-4.5,0
	c-2.4,1.3-3.4-0.7-4.7,0.2c-0.8-0.6-1.7-1.1-2.5-1.7c-0.7-0.5-1.5-0.6-2.3-0.5c-0.2,0-0.4,0.1-0.4,0.2c-0.1,0.3-0.2,0.7-0.3,1
	c-0.1,0.9,0.3,1.7,0.6,2.5c0.1,0.3,0.3,0.6,0.5,0.9c0.2,0.4,0.3,0.8,0.5,1.2c0,0,0,0.1,0,0.1c-0.9,0.3-1.7,0.6-1.6,1.8
	c0.1,2.6-4.6,1.7-4.2,4.5c0.4,2.8-2.3-0.4-3.7,2.5c-1.4,2.9-2.9-2-7.4,1.3c0,0-2.6-2.4-5,0.7c0,0-3.7-3.4-6.4-0.8
	c-2.6,2.6-3.4-2.9-6.6-0.3c0,0-2.9-3-5.4-0.4c-2.5,2.6-8.6-3.8-10.7,1.5c0,0-2.8-0.7-3.2,1.2c0,0-4.1-1-4.1,3.4c0,0-6.1,5.8,0,8.9
	c0,0-1.5,1.3,0.7,1.7c1.6,0.3-2,4.3-0.7,6.2c-0.1,0.1-0.2,0.1-0.2,0.2c0,0.6-0.4,0.7-0.8,1c-0.6,0.3-1.2,0.6-1.6,1
	c-0.6,0.6-1,1.3-1.5,2c-0.3,0.4-0.4,0.9-0.7,1.3c-0.5,0.7-1,1.4-0.9,2.4c0,0.1-0.1,0.3-0.2,0.4c-0.1,0.3-0.2,0.6-0.3,0.9
	c-0.1,0.4-0.2,0.9-0.3,1.3c-0.1,0.4-0.2,0.8-0.4,1.2c-0.1,0.2-0.2,0.4-0.3,0.6c-0.1,0.2-0.2,0.2,0,0.4c0.1,0.1,0.2,0.4,0.1,0.5
	c-0.1,0.4-0.3,0.7-0.4,1.1c-0.1,0.6-0.1,1.2-0.1,1.8c0,0.6,0.1,1.3-0.2,1.9c-0.3,0.6-0.6,1.2-0.8,1.9c-0.1,0.2,0,0.5,0.1,0.8
	c0,0.2,0.1,0.4,0,0.5c-0.3,0.5-0.7,1-0.6,1.7c0,0.5-0.3,1-0.5,1.5c-0.3,0.6-0.5,1.3-0.6,2c-1,1-1.3,2.5-0.8,3.8
	c0.3,0.7,0.8,1.3,1.4,1.7c0.4,0.2,0.7,0.4,1.2,0.4L9,85.6c0.5,0,0.9-0.4,0.9-0.9c0-0.1,0-0.2-0.1-0.3c0,0,0,0,0,0
	c0.2,0.3,0.4,0.5,0.8,0.4c0.2,0,0.5-0.1,0.7-0.1c0.7-0.1,1.1-0.7,0.8-1.3l-1.7-3c0.1-0.2,0.2-0.4,0.2-0.6c0.4-1.2,1-2.3,2.1-2.9
	c0.1-0.1,0.2-0.3,0.3-0.5c0.4-0.8,0.7-1.6,1.2-2.2c0.5-0.7,0.8-1.5,1-2.2c0.3-0.9,0.4-1.8,0.6-2.7c0.3-1.5,0.5-3,0.7-4.5
	c0.1-0.6,0.2-1.3,0.9-1.6c1.3-0.6,2.4-1.4,3.4-2.4c0,0,0.1,0,0.2,0c0,0.2,0.1,0.5,0.1,0.7c0,1.1,0.1,2.1,0.1,3.2
	c0,0.1,0,0.2,0.1,0.3c0,0.1,0.1,0.3,0.1,0.4c0,0.7,0.1,1.4,0.7,1.8c0.4,0.3,0.4,0.8,0.1,1.2c-0.1,0.1-0.1,0.4-0.1,0.5
	c0.1,0.4,0.4,0.8,0.5,1.2c0.2,0.9,0.7,1.7,1.2,2.4c0.6,0.9,1,1.8,1.1,2.9c0.1,0.8,0.4,1.3,0.9,1.8c0.9,0.8,1.4,1.8,1.7,3
	c0.1,0.4,0.2,0.8,0.4,1.2c-0.3,0.3-0.3,0.9,0,1.2c0.5,0.5,1.1,0.9,1.6,1.4c0.4,0.3,0.9,0.4,1.2,0c0.1-0.1,0.1-0.2,0.2-0.3h0.2
	c0.1,0.3,0.3,0.5,0.6,0.5c0.5,0.1,0.9-0.2,1.1-0.6c0-0.1,0.1-0.2,0.1-0.3c0.1-0.2,0.1-0.3,0.1-0.5c0.1-0.6,0.1-1.3,0-1.9
	c-0.1-0.8-0.1-1.6-0.2-2.5c0-0.6-0.1-1.1-0.2-1.6c-0.2-0.6-0.4-1.1-0.7-1.7c-0.1-0.2-0.1-0.4-0.2-0.5c-0.4-0.4-0.5-0.9-0.6-1.5
	c-0.1-0.5-0.1-0.9-0.2-1.4c-0.2-0.8-0.4-1.6-0.6-2.4c-0.1-0.5-0.1-0.9-0.1-1.4c0-0.4,0-0.8,0.3-1.1c0.1-0.1,0.2-0.3,0.2-0.5
	c0-0.3,0.2-0.6,0.5-0.7c0.5-0.2,0.7-0.5,0.7-1c0-0.1,0.1-0.3,0.2-0.4c0.1,0.1,0.2,0.1,0.4,0.2c0.1-0.3,0.3-0.5,0.2-0.7
	c-0.1-0.3,0-0.4,0.2-0.5c0.3-0.2,0.7-0.3,0.5-0.8c0-0.1,0.1-0.3,0.2-0.3c0.3-0.2,0.3-0.5,0.3-0.7c0-0.2,0-0.4,0-0.5
	c0.1-0.4,0.2-0.8,0.5-1.1c1.3,0.9,3,1.3,4.8-0.7c0.2,0,0.3,0,0.5,0.1c0.3,0,0.5,0.1,0.8,0.1c0.9,1.8,3.1,4.5,7.9,0.4
	c0.4-1.5,4.6,5.2,9.4,3.4c0.7-0.3,1.1-0.9,1.7-1.1c0,1.2-0.1,2.3-0.1,3.5c0,0.2,0,0.6,0.2,0.7c0.2,0.3,0.2,0.5-0.1,0.6
	c-0.3,0.2-0.4,0.4-0.1,0.8c0.2,0.3,0.2,0.5-0.2,0.6c0.1,0.1,0.2,0.1,0.2,0.2c0.4,0.5,0.4,0.9,0,1.3c-0.1,0.2-0.2,0.5-0.2,0.7
	c-0.1,0.4-0.1,0.8-0.2,1.2c-0.1,0.7-0.2,1.3-0.1,2c0.1,0.4-0.1,0.9-0.2,1.3c-0.1,0.4-0.3,0.8-0.4,1.3c-0.2,0.8-0.3,1.6,0.1,2.4
	c0.2,2.2,1.7,4.3,3.9,4.9c0.5,0.1,0.8-0.1,1-0.4c0.3,0,0.6,0,0.9,0.1c0,0,0.1,0,0.1,0c0,0,0,0,0,0c0.6,1,2.1,0.1,1.5-0.9l-0.8-1.3
	c0-0.1-0.1-0.3-0.2-0.4c0,0-0.1-0.1-0.1-0.1c-0.3-0.6-0.7-1.2-1-1.8c-0.1-0.1-0.1-0.2-0.2-0.3c0-0.1-0.1-0.3-0.1-0.4
	c0.5-0.4,0.4-0.9,0.3-1.4c0-0.2,0-0.4,0-0.6c0.1-0.8,0.4-1.5,0.4-2.3c-0.1-0.8,0.8-1.4,0.5-2.2c0,0,0.1,0,0.1-0.1
	c0.2-0.8,0.4-1.5,0.2-2.3c-0.1-0.2,0-0.4,0.2-0.5c0.2-0.2,0.4-0.5,0.4-0.8c0-0.9,0.4-1.6,0.8-2.3c0.2-0.4,0.4-0.8,0.5-1.2
	c0.1-1,0.2-2,0.3-2.9c0-0.2,0.1-0.4,0.3-0.5c0.3-0.2,0.9,0,1.1,0.3c0.3,0.4,1,0.7,1.3,0.5c0.3,0.1,0.6,0.3,0.9,0.4
	c0.7,0.4,1.5,0.7,2.2,1.1c0.3,0.2,0.4,0.8,1,0.6c0,0,0.1,0.1,0.2,0.1c0.2,0.2,0.5,0.3,0.7,0.5c0.4,0.3,0.9,0.7,1.2,1.1
	c0.2,0.3,0.1,0.8,0.1,1.2c0,0.9,0.1,1.8,0.1,2.8c0,0.6,0.1,1.2,0.1,1.8c0,0.2,0,0.3,0,0.5c0.1,0.9,0.4,1.8,0.4,2.7
	c0,1.3-0.1,2.7-0.2,4c0,0.1,0,0.2,0,0.3c-0.1,0-0.2,0.1-0.2,0.2c-0.3,0.3-0.4,0.9,0,1.2c1.6,1.3,3.5,1.8,5.5,1.4
	c0.4-0.1,0.7-0.5,0.6-0.9c0-0.2,0-0.4-0.1-0.6c-0.5-0.6-0.9-1.2-1.4-1.8c-0.2-0.7-0.2-1.3-0.1-2c0.1-1,0.1-2,0.3-3
	c0.1-1.1,0.4-2.1,0.3-3.2c-0.1-0.7,0-1.4-0.1-2.2c-0.1-0.5,0.1-1.1-0.3-1.5c0,0,0-0.2,0-0.3c0.4-0.4,0.1-0.8,0-1.1
	c-0.2-0.4-0.4-0.8-0.4-1.2c0.1-1.9-0.3-3.7-0.9-5.5c-0.1-0.3-0.3-0.6-0.3-1c-0.2-0.8-0.3-1.6-0.5-2.4c-0.2-1,0-1.9,0.9-2.6
	c0.2-0.2,0.4-0.5,0.5-0.8c0.1-0.3,0.1-0.5,0.1-0.8c1-0.4,1.8-1.4,1.2-3.4c0.2-0.6,0.4-1.2,0.6-1.8c1.6,0.3,3.5-0.1,1.4-5.4
	c0.6-1.5,2-2.4,3.1-3.4c0,0,0.1,0,0.1-0.1c0.7-0.3,1.4-0.6,2.1-0.8c0.3-0.1,0.6-0.1,0.8,0c1,0.4,2,0.4,3-0.2
	c0.3-0.2,0.5-0.4,0.7-0.7c0.2-0.3,0.4-0.6,0.6-0.9c0.6-0.7,0.8-1.1,0.4-1.9c0.3-0.1,0.6-0.3,0.5-0.7C94.6,30.9,94.5,30.1,94.1,29.4z
	"/>
</svg>
