<svg xmlns="http://www.w3.org/2000/svg" fill="none" viewBox="-13.41 0.52 97.48 88.13">
<g clip-path="url(#clip0_1260_471)">
<rect y="0.522217" width="76" height="76" rx="38" fill="#FAFBFB"/>
<path d="M53.8033 59.5138C52.1553 56.378 54.9014 52.7229 58.3271 53.4799C67.8163 55.5867 81.9494 59.4478 83.2192 64.0185C83.2192 64.0185 85.6125 70.3949 79.2155 77.372C76.9213 79.8704 73.233 80.6638 70.3525 79.2549C68.0916 78.1483 65.5704 76.045 62.325 72.2182C59.0795 68.3914 56.1824 64.0505 53.8013 59.5181L53.8002 59.5149L53.8033 59.5138Z" fill="white"/>
<path d="M53.3908 59.6165C52.5985 58.1232 52.7618 56.1818 53.7769 54.8161C54.7769 53.3878 56.637 52.6291 58.3206 53.0005C61.3634 53.6515 64.3509 54.3877 67.3363 55.2182C71.6504 56.5338 82.13 59.4274 83.6157 63.864C85.1713 69.2421 82.5079 74.9702 78.5185 78.5221C76.7821 79.8714 74.5279 80.5425 72.3612 80.2245C69.185 79.7093 66.6486 77.2414 64.4349 75.0816C60.1153 70.6141 56.0673 64.8124 53.3876 59.6177L53.3908 59.6165ZM54.212 59.4125C56.5879 64.0006 60.7446 70.3303 64.9316 74.5844C68.6678 78.4196 72.9366 81.7084 78.0639 77.932C81.4267 74.8824 83.7399 70.2263 83.1376 65.6202C82.9487 63.3779 81.6648 62.2252 79.8529 61.0995C75.9101 58.7615 71.4492 57.4536 67.0619 56.1723C64.1134 55.3353 61.1119 54.5899 58.1303 53.9307C56.7746 53.621 55.3082 54.2047 54.4882 55.347C53.5908 56.5323 53.5424 58.1146 54.2109 59.4093L54.212 59.4125Z" fill="#221F1F"/>
<mask id="mask0_1260_471" style="mask-type:luminance" maskUnits="userSpaceOnUse" x="-14" y="48" width="40" height="41">
<path d="M10.3875 48.4408L-13.4092 73.375L2.05892 88.6509L25.8556 63.7167L10.3875 48.4408Z" fill="white"/>
</mask>
<g mask="url(#mask0_1260_471)">
<path d="M22.48 62.8073C23.3638 59.355 19.8573 56.5177 16.6987 58.1176C7.95718 62.5631 -4.895 69.8869 -5.0819 74.6298C-5.0819 74.6298 -5.94687 81.4036 1.87101 86.5301C4.67279 88.3654 8.43856 88.195 10.9166 86.102C12.8587 84.4552 14.8288 81.7807 17.1055 77.2566C19.3822 72.7326 21.2057 67.7988 22.4767 62.8078L22.48 62.8073Z" fill="white"/>
<path d="M21.8763 62.8163C22.204 61.4352 21.8438 60 20.7228 59.112C19.7153 58.276 18.2574 58.1003 17.0821 58.7098C14.3534 60.1113 11.598 61.579 8.91333 63.1062C4.93706 65.4274 0.913755 67.8151 -2.40242 71.0298C-3.90783 72.5625 -4.88347 73.9477 -4.57605 76.1515C-4.14302 80.7585 -0.853502 84.6942 3.11053 86.7877C5.37239 87.8009 8.17822 87.6583 10.2449 86.1949C12.295 84.6284 13.7856 82.4346 15.0894 80.1983C18.1072 75.1101 20.7797 67.4142 21.8802 62.8191L21.8763 62.8163ZM23.0755 62.7979C21.4814 69.2616 16.4296 82.341 10.627 86.754C8.34912 88.3399 5.30755 88.5579 2.80842 87.4632C-0.0472522 86.0102 -2.4615 83.7136 -4.05615 80.8972C-4.9533 79.2277 -5.54045 77.3534 -5.60487 75.4355C-5.69092 74.332 -5.35681 73.1173 -4.72079 72.1747C-1.0057 66.6085 10.3984 60.5406 16.4918 57.4483C19.987 55.7039 24.0516 58.9908 23.0689 62.799L23.0755 62.7979Z" fill="#221F1F"/>
</g>
<path d="M19.9851 73.8452L17.1582 43.6808C17.1382 43.4807 17.1148 43.2806 17.0882 43.0805C16.8115 40.9743 15.3281 24.2099 37.613 22.0122C37.613 22.0122 58.3945 20.3503 59.8379 39.733L61.1413 70.5418C61.2513 71.973 61.0713 73.35 60.6513 74.6388C59.9412 76.8128 58.5545 78.6578 56.8143 80.1941C55.9209 80.981 54.9475 81.6593 53.9275 82.2562C50.7306 84.1283 47.117 85.1933 43.4201 85.4884L40.2198 85.7427C37.713 85.9428 35.1895 85.78 32.7426 85.2272C31.0892 84.8541 29.5524 84.4539 28.099 83.8265C25.0187 82.5004 22.5019 80.5469 21.1085 77.8065C20.4951 76.6025 20.1017 75.2696 19.9917 73.8418H19.9851V73.8452Z" fill="white"/>
<path d="M19.8251 74.1401C18.6484 64.3182 17.2583 52.7734 16.2782 42.9956C15.3148 32.9261 20.9686 25.407 30.3392 22.592C32.6261 21.8594 35.0229 21.483 37.3897 21.2117C40.7833 20.9946 44.1602 21.4762 47.4104 22.4801C55.5977 25.078 60.228 31.5084 60.628 40.167C60.9814 48.3644 61.4148 60.4993 61.7415 68.7306C61.8281 70.6672 61.9881 72.7598 61.3381 74.6353C59.4513 80.4382 53.6976 83.7789 48.2038 85.2644C45.5436 86.0241 42.4834 86.0987 39.7432 86.3124C33.5761 86.5905 25.3989 84.7285 21.6119 79.3699C20.4852 77.7623 19.7951 75.8393 19.6651 73.8722L20.1452 74.1503C20.0652 74.2012 19.9085 74.1978 19.8285 74.1469L19.8251 74.1401ZM20.1485 73.5466C20.0752 73.4923 19.9218 73.4889 19.8451 73.5364L20.3252 73.8145C21.0686 81.8762 30.0625 84.9422 36.923 85.2814C38.5265 85.4374 40.8466 85.1152 42.4668 85.0134C49.2039 84.6234 57.8178 81.2793 60.0947 74.2419C60.678 72.5122 60.4847 70.6129 60.3947 68.812C60.0013 60.5706 59.4546 48.4695 59.0913 40.2586C58.7012 32.2613 54.5109 26.4075 46.9237 24.0233C43.9135 23.0974 40.6733 22.6463 37.5297 22.8498C35.2762 23.1177 32.9627 23.4874 30.8126 24.1827C22.122 26.784 16.9183 33.8282 17.895 43.155C18.7584 52.5835 19.4918 64.0299 20.1452 73.5466H20.1485Z" fill="#221F1F"/>
<path d="M37.8187 22.1219C38.3017 22.0822 38.5553 21.5239 38.2748 21.1269C35.6066 17.3428 24.7336 3.47677 14.8241 13.1294C4.72674 22.9631 23.9849 16.5339 30.5799 16.8366C32.6115 16.9309 34.5505 17.7944 35.9188 19.3254C36.5066 19.9855 36.9919 20.7597 37.1675 21.6281C37.231 21.9383 37.5114 22.1492 37.8212 22.1269V22.1219H37.8187Z" fill="white"/>
<path d="M37.5759 22.1319C37.5881 22.0773 37.6442 21.9557 37.7466 21.9061C37.8369 21.859 37.8759 21.8714 37.9466 21.8317C38.1661 21.7101 38.2076 21.4123 38.0368 21.2262L37.9637 21.1245C36.693 19.3676 35.2881 17.7026 33.7589 16.1741C29.1639 11.4967 22.4981 7.5736 16.4958 12.1542C15.0032 13.323 13.4764 14.7845 12.5398 16.4471C12.3398 16.8714 12.1569 17.3478 12.4593 17.715C12.6959 17.9533 13.0178 18.0575 13.3837 18.1394C14.3276 18.3255 15.3032 18.2833 16.269 18.2212C20.2201 17.916 24.1518 17.0103 28.1175 16.6232C29.4639 16.4992 30.8541 16.4222 32.1833 16.7647C34.4881 17.3528 36.7466 19.0426 37.3856 21.4595L37.4125 21.586C37.4466 21.7647 37.6222 21.8937 37.8003 21.8813C37.8003 21.8763 37.5661 22.1443 37.5734 22.1245L37.8149 22.3726C37.7759 22.3726 37.7027 22.3602 37.6466 22.3007C37.5881 22.2436 37.5734 22.1716 37.5734 22.1344L37.5759 22.1319ZM38.0637 22.1121C38.0637 22.0748 38.049 22.0029 37.9929 21.9458C37.9344 21.8887 37.8637 21.8739 37.8271 21.8739C37.8271 21.8788 38.0759 22.1195 38.0686 22.127V22.3652L37.8417 22.3751C37.4905 22.4049 37.132 22.1964 36.9881 21.8664C36.4418 19.5265 34.2662 17.9011 32.0467 17.3552C30.8029 17.0426 29.4931 17.1245 28.181 17.251C24.2054 17.6629 20.3299 18.5835 16.3227 18.9136C14.452 19.0773 10.4545 19.1642 11.9325 16.1344C12.2618 15.4818 12.6959 14.9408 13.1398 14.4173C14.0471 13.385 15.0081 12.4222 16.1105 11.6108C19.625 8.92595 23.8859 8.88129 27.7322 10.859C32.0979 13.1096 35.5149 16.8565 38.3759 20.8242L38.449 20.9284L38.4856 20.9806C38.8441 21.4669 38.5588 22.2337 37.971 22.3503C37.9588 22.3552 38.0027 22.3404 38.0222 22.3205C38.0807 22.2758 38.0978 22.1617 38.0686 22.1121H38.0637Z" fill="#221F1F"/>
<path d="M24.5957 26.4549C24.5957 26.4549 37.43 27.6657 49.6275 24.4539L24.5957 26.4549Z" fill="white"/>
<path d="M23.8486 26.5872C23.8486 26.5872 37.9863 27.764 50.1838 24.5522" stroke="#221F1F" stroke-width="0.676267" stroke-miterlimit="10"/>
<path d="M16.9277 40.4789C16.9277 40.4789 38.1659 33.7263 59.3941 37.2128L16.9277 40.4789Z" fill="white"/>
<path d="M16.8281 40.1534C19.3316 39.0477 21.9818 38.5322 24.6187 37.9319C28.9957 37.006 33.496 36.3108 37.9463 35.9106C42.3566 35.5036 47.0069 35.4459 51.4339 35.6867C52.2873 35.7613 54.6408 35.958 55.4742 36.0361C56.8143 36.2362 58.1477 36.4837 59.4478 36.8772L59.3412 37.5453C57.571 37.6097 55.7742 37.3214 54.0141 37.2129C45.1835 36.477 36.2062 37.1451 27.4822 38.6374C25.9688 38.9189 23.7386 39.3428 22.2485 39.6921C20.5151 40.0889 18.7849 40.5095 17.0281 40.8046L16.8281 40.1568V40.1534Z" fill="#221F1F"/>
<path d="M18.9316 61.2149C22.7219 59.8209 37.3196 55.5815 61.5547 57.2739L18.9316 61.2149Z" fill="white"/>
<path d="M18.8193 60.896C25.4398 58.427 32.4936 57.3824 39.4941 56.7855C43.0011 56.5243 46.518 56.3921 50.0316 56.4158C53.5418 56.4328 57.0687 56.4463 60.5423 57.1145L60.4956 57.7928C56.9921 58.0404 53.5218 57.6876 50.0249 57.708C43.0611 57.6537 36.0772 58.0471 29.1967 59.1528C25.7632 59.7158 22.3429 60.4416 19.046 61.537L18.8193 60.8994V60.896Z" fill="#221F1F"/>
<path d="M52.0679 57.2603C52.3845 49.7243 51.7578 36.6397 51.7578 36.6397C51.7578 36.6397 33.9699 35.2593 24.6426 39.1054C24.6426 39.1054 25.546 52.1764 27.4328 59.2986" stroke="#221F1F" stroke-width="0.676267" stroke-miterlimit="10"/>
<path d="M24.7659 38.9291C24.5325 41.3676 26.5294 55.4696 27.4127 58.7764C33.7565 57.162 46.2508 56.5244 51.9178 56.5821C52.2912 52.4444 51.7111 41.934 51.4378 36.9789L51.4245 36.7653C40.907 35.3374 29.3596 37.7149 24.7659 38.9291Z" fill="#5BC2C7"/>
<path d="M38.303 48.673L38.1797 44.8846C38.1797 44.7625 38.303 44.6811 38.4097 44.7354L42.0166 46.6313C42.13 46.6889 42.13 46.8551 42.0166 46.9162L38.533 48.8086C38.4297 48.8629 38.3064 48.7917 38.2997 48.673H38.303Z" fill="white" stroke="black" stroke-width="0.162304"/>
<g clip-path="url(#clip1_1260_471)">
<path d="M42.4508 45.3747L44.6908 47.1059C44.6908 47.1059 64.5949 46.2871 68.6238 36.073C68.6238 36.073 56.8331 29.4793 42.4508 45.3747Z" fill="white"/>
<path d="M42.8059 45.343C43.3182 45.9933 44.1264 46.5263 44.9101 46.8257L44.6776 46.7503C51.2283 46.1213 58.4633 44.6502 63.8569 40.7154C65.6178 39.4001 67.0314 37.6955 67.7745 35.7383L68.1799 36.8723C61.54 33.6978 53.7036 36.4478 48.1676 40.6868C47.3035 41.3186 46.1543 42.3128 45.3416 43.0306C44.6231 43.7143 43.5997 44.7261 42.8061 45.3465L42.8059 45.343ZM42.0971 45.4062C43.5676 43.399 45.6431 41.4985 47.5584 39.9033C53.3593 35.0822 61.7955 31.9903 69.0689 35.2735L69.7965 35.6474L69.4741 36.404C67.9845 39.8981 64.9483 42.183 61.6771 43.7443C56.3594 46.1889 50.5101 47.172 44.7051 47.4577L44.4881 47.4028C43.8419 46.536 43.0546 45.934 42.0968 45.4027L42.0971 45.4062Z" fill="#221F1F"/>
<path d="M44.963 45.6646L43.8655 45.1807C43.8655 45.1807 55.9881 33.256 65.1161 36.9926C65.1161 36.9926 65.1383 43.4046 44.963 45.6646Z" fill="#D6F9FB"/>
<path d="M44.9424 45.794C44.5775 45.4664 44.2111 45.235 43.7134 45.3143L43.7748 45.0862C45.2024 43.6801 46.7371 42.3959 48.3446 41.2C53.2065 37.6743 59.584 34.1695 65.6786 36.6173C65.6811 36.7811 65.6653 37.1169 65.6344 37.2577C65.59 37.5917 65.4186 37.9474 65.2869 38.2509C64.7422 39.2842 63.8852 40.0973 62.9712 40.789C58.9458 43.5777 54.0023 44.5145 49.2657 45.2751C48.2891 45.4503 45.9506 45.6703 44.946 45.7938L44.9424 45.794ZM44.9839 45.5315C45.9862 45.369 48.2448 45.061 49.1948 44.8589C53.3414 44.0618 57.6311 43.0354 61.264 40.8399C62.6105 39.9303 64.0713 38.8428 64.5275 37.2162C64.5517 37.1435 64.5483 37.0867 64.5623 37.0217C64.5646 37.0002 64.5613 37.0039 64.5642 36.9931C64.5642 36.9931 64.9077 37.5001 64.9039 37.4968C61.3041 35.967 57.1795 37.0157 53.736 38.6157C50.1692 40.3013 46.8825 42.626 43.9569 45.275L43.9155 45.0565C44.1669 45.3909 44.5882 45.5263 44.9802 45.5281L44.9839 45.5315Z" fill="#221F1F"/>
<path d="M37.7297 46.1592L36.0284 48.4224C36.0284 48.4224 16.6265 52.9205 10.0264 44.1427C10.0264 44.1427 19.6419 34.6535 37.7295 46.1557L37.7297 46.1592Z" fill="white"/>
<path d="M38.0825 46.0956C37.3279 46.9525 36.6267 47.5675 36.3157 48.6369C36.3157 48.6369 36.1133 48.77 36.1098 48.7702C30.4376 50.0386 24.5375 50.6434 18.7634 49.7016C15.1951 49.0679 11.66 47.6697 9.29678 44.6952L8.78472 44.0485L9.38612 43.4928C15.5268 38.3915 24.478 39.1351 31.356 42.2385C33.6257 43.266 36.1315 44.5504 38.0823 46.092L38.0825 46.0956ZM37.381 46.2225C36.4603 45.835 35.1999 45.1256 34.3244 44.6607C33.3379 44.1845 31.9847 43.5339 30.9752 43.1517C24.5145 40.5367 16.2255 39.9679 10.6671 44.7924L10.7567 43.5936C11.9929 45.2807 13.8102 46.5523 15.8562 47.3507C22.1097 49.7143 29.4587 49.2092 35.9511 48.0741L35.7488 48.2072C36.4951 47.814 37.0288 46.8953 37.3845 46.2223L37.381 46.2225Z" fill="#221F1F"/>
<path d="M35.3888 47.1062L36.3204 46.3493C36.3204 46.3493 21.4622 38.0697 13.6555 44.0995C13.6555 44.0995 15.339 50.2852 35.3888 47.1062Z" fill="#D6F9FB"/>
<path d="M35.3348 46.9848C35.6974 46.8494 36.0996 46.6617 36.2355 46.2475L36.2556 46.4672C34.502 45.5518 32.6641 44.7767 30.7969 44.1102C25.4667 42.2978 18.764 40.7766 13.8942 44.4097L14.0303 43.9991C14.0769 44.1246 14.1893 44.3388 14.3094 44.5028C16.806 47.6226 23.0697 47.8051 26.8108 47.7445C29.6158 47.7001 32.5489 47.3523 35.3313 46.985L35.3348 46.9848ZM35.4453 47.2277C34.4243 47.3735 32.124 47.7587 31.1386 47.8453C26.3788 48.333 21.3811 48.7136 16.7841 47.0716C15.3153 46.4529 13.7142 45.5854 13.194 43.9558C19.6647 39.0132 29.9667 42.8409 36.3844 46.2352L36.4826 46.4503C35.974 46.4661 35.7224 46.8515 35.4453 47.2277Z" fill="#221F1F"/>
<path d="M37.0891 47.0129C37.0891 47.0129 41.9115 46.379 42.9772 45.7816L37.0891 47.0129Z" fill="white"/>
<path d="M37.0891 47.0129C37.0891 47.0129 41.9115 46.379 42.9772 45.7816" stroke="#221F1F" stroke-width="0.177838" stroke-miterlimit="10"/>
<path d="M36.6633 47.5796C36.6633 47.5796 42.5998 46.8657 43.5078 46.1921L36.6633 47.5796Z" fill="white"/>
<path d="M36.6633 47.5796C36.6633 47.5796 42.5998 46.8657 43.5078 46.1921" stroke="#221F1F" stroke-width="0.177838" stroke-miterlimit="10"/>
<path d="M36.7811 47.5191L37.2823 46.9551C39.2706 46.8377 41.8631 46.0908 42.9108 45.7321L43.4748 46.2332C42.9235 46.5508 38.7826 47.2228 36.7811 47.5191Z" fill="black" stroke="black" stroke-width="0.355675"/>
<path d="M18.301 61.8424C19.2994 61.7835 20.0625 60.9535 20.0056 59.9887C19.9486 59.0238 19.0931 58.2894 18.0948 58.3484C17.0964 58.4073 16.3333 59.2372 16.3902 60.2021C16.4472 61.167 17.3027 61.9013 18.301 61.8424Z" fill="white"/>
<path d="M19.8866 59.9956C19.6079 58.1793 16.8833 58.3975 16.8432 60.1753C16.9044 62.218 20.0936 62.0489 19.8866 59.9956ZM20.12 59.9819C20.1083 61.6273 18.1666 62.7045 16.7562 61.6626C15.7798 60.9903 15.6444 59.4779 16.4847 58.6282C17.7612 57.2333 20.1583 58.1723 20.12 59.9819Z" fill="#221F1F"/>
<path d="M20.385 63.632C21.3834 63.573 22.1465 62.7431 22.0895 61.7782C22.0326 60.8134 21.1771 60.079 20.1788 60.1379C19.1804 60.1968 18.4173 61.0268 18.4742 61.9916C18.5312 62.9565 19.3867 63.6909 20.385 63.632Z" fill="white"/>
<path d="M21.9749 61.7848C21.9111 59.6976 18.7044 59.9061 18.8625 61.9686C19.1095 63.8059 21.9222 63.6845 21.9749 61.7848ZM22.2017 61.7715C22.4276 63.5304 20.1979 64.7011 18.8007 63.4927C17.8939 62.7685 17.8467 61.2986 18.7016 60.5278C19.9466 59.3259 22.0199 60.1438 22.2017 61.7715Z" fill="#221F1F"/>
<path d="M22.1214 65.1229C23.1197 65.064 23.8828 64.234 23.8259 63.2692C23.7689 62.3043 22.9134 61.5699 21.9151 61.6289C20.9167 61.6878 20.1536 62.5178 20.2106 63.4826C20.2675 64.4475 21.123 65.1819 22.1214 65.1229Z" fill="white"/>
<path d="M23.6777 63.278C23.6455 61.1124 20.3482 61.3485 20.5488 63.4627C20.8142 65.2767 23.6328 65.1421 23.6777 63.278ZM23.9702 63.2607C24.1943 65.0452 21.9422 66.2269 20.5488 64.9704C19.6713 64.2413 19.6496 62.8114 20.4859 62.0608C21.6734 60.891 23.7877 61.6778 23.9701 63.2575L23.9702 63.2607Z" fill="#221F1F"/>
<path d="M23.8596 66.6141C24.858 66.5552 25.6211 65.7252 25.5642 64.7604C25.5072 63.7955 24.6517 63.0612 23.6534 63.1201C22.655 63.179 21.8919 64.009 21.9488 64.9738C22.0058 65.9387 22.8613 66.6731 23.8596 66.6141Z" fill="white"/>
<path d="M25.3638 64.7722C25.3889 62.5713 22.0565 62.8286 22.3236 64.9516C22.6109 66.6336 25.2947 66.507 25.3638 64.7722ZM25.7648 64.7485C26.027 66.62 23.6891 67.8577 22.2412 66.5152C21.3583 65.7513 21.3685 64.3036 22.228 63.5548C23.4077 62.4205 25.5569 63.183 25.7648 64.7485Z" fill="#221F1F"/>
<path d="M26.2532 68.0665C27.2515 68.0076 28.0147 67.1776 27.9577 66.2128C27.9008 65.2479 27.0453 64.5135 26.0469 64.5725C25.0486 64.6314 24.2854 65.4614 24.3424 66.4262C24.3994 67.3911 25.2548 68.1255 26.2532 68.0665Z" fill="white"/>
<path d="M27.797 66.2222C27.5419 64.191 24.4741 64.3498 24.4709 66.4186C24.6206 68.6187 27.914 68.4274 27.797 66.2222ZM28.1158 66.2034C28.1205 68.6288 24.4889 68.8464 24.2113 66.4339C24.0833 63.8756 27.9506 63.6281 28.1158 66.2034Z" fill="#221F1F"/>
<path d="M28.9407 68.8639C29.939 68.8049 30.7022 67.975 30.6452 67.0101C30.5883 66.0453 29.7328 65.3109 28.7344 65.3698C27.7361 65.4288 26.9729 66.2587 27.0299 67.2236C27.0869 68.1884 27.9423 68.9228 28.9407 68.8639Z" fill="white"/>
<path d="M30.3456 67.028C30.0181 65.2241 27.2766 65.3222 27.197 67.2138C27.2834 69.4049 30.5314 69.2259 30.3456 67.028ZM30.9437 66.9927C30.9892 68.657 28.8192 69.5533 27.5664 68.4989C26.1966 67.4195 26.9245 65.1676 28.7132 65.0206C29.8848 64.8654 30.9829 65.8684 30.9437 66.9927Z" fill="#221F1F"/>
<path d="M31.9534 69.6425C32.9517 69.5835 33.7149 68.7536 33.6579 67.7887C33.6009 66.8239 32.7455 66.0895 31.7471 66.1484C30.7488 66.2073 29.9856 67.0373 30.0426 68.0021C30.0996 68.967 30.955 69.7014 31.9534 69.6425Z" fill="white"/>
<path d="M33.5659 67.7942C33.2874 65.8695 30.4372 66.0823 30.437 67.9789C30.5801 70.0104 33.6655 69.8155 33.5659 67.7942ZM33.75 67.7833C33.8099 69.4691 31.8275 70.5265 30.4216 69.4492C29.4874 68.7649 29.3812 67.3017 30.2068 66.4816C31.435 65.1628 33.7723 66.0384 33.7533 67.7831L33.75 67.7833Z" fill="#221F1F"/>
<path d="M34.9495 70.1031C35.9478 70.0442 36.711 69.2143 36.654 68.2494C36.597 67.2846 35.7415 66.5502 34.7432 66.6091C33.7449 66.668 32.9817 67.498 33.0387 68.4628C33.0956 69.4277 33.9511 70.1621 34.9495 70.1031Z" fill="white"/>
<path d="M36.4556 68.2612C36.2266 66.2252 33.1928 66.4011 33.192 68.4539C33.323 70.6168 36.6534 70.4935 36.4556 68.2612ZM36.8467 68.2381C36.7672 70.6334 33.1933 70.9336 32.8798 68.4723C32.7671 65.8939 36.6485 65.6616 36.8467 68.2381Z" fill="#221F1F"/>
<path d="M38.2932 70.8622C39.2916 70.8032 40.0547 69.9733 39.9978 69.0084C39.9408 68.0436 39.0853 67.3092 38.087 67.3681C37.0886 67.4271 36.3255 68.257 36.3824 69.2219C36.4394 70.1867 37.2949 70.9211 38.2932 70.8622Z" fill="white"/>
<path d="M39.7971 69.0201C39.5488 67.049 36.5906 67.2204 36.5663 69.2108C36.6847 71.3841 39.9746 71.2441 39.7971 69.0201ZM40.1981 68.9964C40.2621 70.5832 38.123 71.5574 36.9007 70.5171C35.5249 69.4476 36.2993 67.2026 38.072 67.117C39.1744 67.0201 40.1919 67.9418 40.1981 68.9964Z" fill="#221F1F"/>
<path d="M41.5784 70.6681C42.5767 70.6091 43.3399 69.7792 43.2829 68.8143C43.2259 67.8495 42.3705 67.1151 41.3721 67.174C40.3738 67.233 39.6106 68.0629 39.6676 69.0278C39.7246 69.9926 40.58 70.727 41.5784 70.6681Z" fill="white"/>
<path d="M43.113 68.8244C42.8549 66.9112 39.9234 67.0875 39.8888 69.0148C39.9813 71.1959 43.2928 71.0323 43.113 68.8244ZM43.4548 68.8042C43.5153 70.388 41.4128 71.3664 40.1746 70.3366C38.759 69.2631 39.5396 66.954 41.3557 66.8786C42.4689 66.797 43.4652 67.7517 43.4548 68.8042Z" fill="#221F1F"/>
<path d="M44.1712 69.8773C45.1695 69.8184 45.9326 68.9884 45.8757 68.0236C45.8187 67.0587 44.9632 66.3243 43.9649 66.3833C42.9665 66.4422 42.2034 67.2722 42.2604 68.237C42.3173 69.2019 43.1728 69.9363 44.1712 69.8773Z" fill="white"/>
<path d="M45.6648 68.036C45.411 66.0843 42.4793 66.2574 42.4438 68.2262C42.5561 70.4061 45.8422 70.26 45.6648 68.036ZM46.0822 68.0114C46.1498 69.6043 44.0004 70.5695 42.778 69.5292C41.3991 68.4631 42.1661 66.2026 43.9455 66.1198C45.0543 66.0193 46.0789 66.9501 46.0822 68.0114Z" fill="#221F1F"/>
<path d="M62.0217 58.5184C63.0201 58.4595 63.7832 57.6295 63.7263 56.6647C63.6693 55.6998 62.8138 54.9654 61.8155 55.0244C60.8171 55.0833 60.054 55.9133 60.111 56.8781C60.1679 57.843 61.0234 58.5774 62.0217 58.5184Z" fill="white"/>
<path d="M59.9959 56.9869C59.6888 55.2487 61.8274 53.9877 63.2731 55.1232C64.1833 55.793 64.3062 57.2042 63.5253 57.9994C62.3889 59.2522 60.2639 58.5648 59.999 56.9835L59.9959 56.9869ZM60.2417 56.9597C60.4207 59.0974 63.6886 58.6973 63.3935 56.6046C63.0398 54.7481 60.1617 55.0455 60.2417 56.9597Z" fill="#221F1F"/>
<path d="M60.2815 60.6359C61.2799 60.5769 62.043 59.747 61.986 58.7821C61.9291 57.8173 61.0736 57.0829 60.0752 57.1418C59.0769 57.2008 58.3138 58.0307 58.3707 58.9956C58.4277 59.9604 59.2832 60.6948 60.2815 60.6359Z" fill="white"/>
<path d="M58.2513 59.1077C57.9299 57.3513 60.0933 56.0633 61.5565 57.2168C62.4807 57.8986 62.6016 59.3322 61.8014 60.1349C60.6545 61.3787 58.533 60.6944 58.2513 59.1077ZM58.5102 59.0797C58.6724 61.2121 61.9335 60.8092 61.6228 58.7302C61.265 56.9153 58.4421 57.1999 58.5102 59.0797Z" fill="#221F1F"/>
<path d="M58.8313 62.401C59.8297 62.3421 60.5928 61.5121 60.5358 60.5473C60.4789 59.5824 59.6234 58.848 58.625 58.907C57.6267 58.9659 56.8636 59.7958 56.9205 60.7607C56.9775 61.7255 57.833 62.4599 58.8313 62.401Z" fill="white"/>
<path d="M56.8021 60.8698C56.467 59.1046 58.6459 57.7998 60.1256 58.9524C61.0698 59.6393 61.1926 61.1047 60.3765 61.9179C59.2037 63.1696 57.0942 62.4654 56.8021 60.8698ZM57.0544 60.8422C57.2085 62.9496 60.4434 62.5482 60.1342 60.4946C59.7748 58.7085 57.0006 58.9807 57.0544 60.8422Z" fill="#221F1F"/>
<path d="M57.3801 64.1666C58.3785 64.1077 59.1416 63.2777 59.0847 62.3129C59.0277 61.348 58.1722 60.6136 57.1739 60.6726C56.1755 60.7315 55.4124 61.5615 55.4693 62.5263C55.5263 63.4912 56.3818 64.2256 57.3801 64.1666Z" fill="white"/>
<path d="M55.3599 62.6349C55.0693 60.9531 57.1974 59.7374 58.5719 60.842C59.4478 61.4883 59.5666 62.8296 58.8344 63.6123C57.7409 64.8658 55.5952 64.2179 55.3632 62.6347L55.3599 62.6349ZM55.5925 62.6084C55.8157 64.7691 59.1037 64.3742 58.836 62.2416C58.4894 60.2826 55.4842 60.6067 55.5925 62.6084Z" fill="#221F1F"/>
<path d="M55.2717 66.0057C56.2701 65.9468 57.0332 65.1168 56.9763 64.152C56.9193 63.1871 56.0638 62.4528 55.0655 62.5117C54.0671 62.5706 53.304 63.4006 53.361 64.3654C53.4179 65.3303 54.2734 66.0647 55.2717 66.0057Z" fill="white"/>
<path d="M53.121 64.4881C52.8306 62.698 55.0487 61.4992 56.461 62.6845C57.292 63.3526 57.3881 64.6442 56.6747 65.4099C55.6491 66.6402 53.3373 66.085 53.1208 64.485L53.121 64.4881ZM53.6224 64.433C53.8329 66.6582 57.0639 66.2475 56.7873 64.0773C56.4057 62.1937 53.558 62.5052 53.6224 64.433Z" fill="#221F1F"/>
<path d="M52.7649 67.2472C53.7633 67.1882 54.5264 66.3583 54.4694 65.3934C54.4125 64.4286 53.557 63.6942 52.5586 63.7531C51.5603 63.8121 50.7972 64.642 50.8541 65.6069C50.9111 66.5717 51.7666 67.3061 52.7649 67.2472Z" fill="white"/>
<path d="M50.667 65.7264C50.4227 63.1526 54.2791 62.7209 54.6084 65.2833C54.7528 67.7292 51.1098 68.0877 50.667 65.7264ZM51.0633 65.6807C51.3002 67.9043 54.5567 67.4794 54.32 65.3131C53.9502 63.295 50.9391 63.6321 51.0633 65.6807Z" fill="#221F1F"/>
<path d="M49.9309 68.527C50.9293 68.468 51.6924 67.6381 51.6354 66.6732C51.5785 65.7084 50.723 64.974 49.7247 65.0329C48.7263 65.0919 47.9632 65.9218 48.0201 66.8867C48.0771 67.8515 48.9326 68.5859 49.9309 68.527Z" fill="white"/>
<path d="M47.806 67.0076C47.52 65.2363 49.7113 64.0296 51.1292 65.1986C51.9797 65.8624 52.074 67.1796 51.3509 67.949C50.3149 69.1704 48.0374 68.5813 47.806 67.0076ZM48.2514 66.9558C48.4326 69.1859 51.7017 68.7507 51.4164 66.6C51.0443 64.7095 48.1643 65.0326 48.2514 66.9558Z" fill="#221F1F"/>
<path d="M47.0637 69.4933C48.0621 69.4343 48.8252 68.6044 48.7683 67.6395C48.7113 66.6747 47.8558 65.9403 46.8575 65.9992C45.8591 66.0582 45.096 66.8881 45.1529 67.853C45.2099 68.8178 46.0654 69.5522 47.0637 69.4933Z" fill="white"/>
<path d="M45.0239 67.9626C44.755 66.2572 46.8523 65.0784 48.2372 66.1919C49.0866 66.8366 49.1968 68.1434 48.4836 68.9122C47.4355 70.1535 45.2356 69.5375 45.0239 67.9626ZM45.299 67.9304C45.534 70.1223 48.8283 69.7238 48.5688 67.5621C48.2117 65.591 45.1906 65.9255 45.299 67.9304Z" fill="#221F1F"/>
<circle cx="12.0095" cy="47.3782" r="1.4227" transform="rotate(-3.37862 12.0095 47.3782)" fill="#D9D9D9" stroke="black" stroke-width="0.355675"/>
<circle cx="67.2097" cy="40.9129" r="1.4227" transform="rotate(-3.37862 67.2097 40.9129)" fill="#D9D9D9" stroke="black" stroke-width="0.355675"/>
</g>
</g>
<defs>
<clipPath id="clip0_1260_471">
<rect y="0.522217" width="76" height="76" rx="38" fill="white"/>
</clipPath>
<clipPath id="clip1_1260_471">
<rect width="61.4002" height="37.3139" fill="white" transform="translate(8.37402 37.0823) rotate(-3.37862)"/>
</clipPath>
</defs>
</svg>