<svg xmlns="http://www.w3.org/2000/svg" fill="none" viewBox="-14.48 0.52 98.44 83.6">
<g clip-path="url(#clip0_1260_1480)">
<rect y="0.522217" width="76" height="76" rx="38" fill="#FAFBFB"/>
<path d="M52.2283 60.473C49.6861 58.0171 51.1535 53.6804 54.6417 53.3171C64.307 52.32 78.928 51.5215 81.5585 55.4589C81.5585 55.4589 85.8186 60.7554 81.921 69.3981C80.522 72.4941 77.2678 74.412 74.094 73.9844C71.6027 73.648 68.5534 72.4479 64.2792 69.8405C60.005 67.2331 55.9013 64.0278 52.2277 60.4778L52.2256 60.4751L52.2283 60.473Z" fill="white"/>
<path d="M51.8685 60.7004C50.6508 59.5332 50.2005 57.6388 50.7384 56.022C51.2424 54.3504 52.7718 53.0429 54.4859 52.8637C57.5776 52.5206 60.6433 52.2759 63.7364 52.1214C68.2422 52.0077 79.0932 51.4445 81.8869 55.1865C85.0405 59.8 84.298 66.0783 81.6181 70.7096C80.3903 72.5387 78.4594 73.8876 76.3034 74.27C73.1274 74.7842 69.95 73.2427 67.175 71.8917C61.6814 69.0155 56.0295 64.787 51.8659 60.7025L51.8685 60.7004ZM52.5845 60.2474C56.2706 63.8521 62.1903 68.5473 67.4916 71.2629C72.2343 73.7234 77.3122 75.4969 81.0025 70.2931C83.2441 66.3364 83.9885 61.1864 81.9805 57.0045C81.1021 54.9358 79.5239 54.2472 77.4528 53.7509C72.9807 52.7768 68.338 52.9442 63.7734 53.1137C60.7133 53.2504 57.6314 53.4908 54.5952 53.8066C53.2117 53.9408 52.0016 54.958 51.5791 56.3012C51.0968 57.7097 51.5442 59.2269 52.5825 60.2447L52.5845 60.2474Z" fill="#221F1F"/>
<mask id="mask0_1260_1480" style="mask-type:luminance" maskUnits="userSpaceOnUse" x="-15" y="37" width="40" height="32">
<path d="M24.3589 47.1291L-8.20215 37.1968L-14.4823 58.3535L18.0787 68.2859L24.3589 47.1291Z" fill="white"/>
</mask>
<g mask="url(#mask0_1260_1480)">
<path d="M18.987 60.5121C20.6412 57.3535 17.9154 53.7096 14.4956 54.4927C5.0272 56.6772 -9.07657 60.6598 -10.3577 65.2535C-10.3577 65.2535 -12.7645 71.6662 -6.40894 78.6172C-4.13077 81.1064 -0.456748 81.8722 2.42067 80.4381C4.67722 79.3079 7.19933 77.1793 10.4465 73.3171C13.6938 69.455 16.5987 65.0798 18.9837 60.5118L18.987 60.5121Z" fill="white"/>
<path d="M18.4029 60.3727C19.0397 59.1027 19.0251 57.6095 18.1492 56.4632C17.3709 55.3958 16.0046 54.863 14.7288 55.1682C11.77 55.8636 8.77006 56.6173 5.82457 57.4466C1.44825 58.7329 -2.98888 60.0725 -6.93549 62.3963C-8.74411 63.523 -10.0072 64.6366 -10.2219 66.8686C-10.8732 71.4829 -8.61173 76.1477 -5.27177 79.1773C-3.3239 80.7285 -0.582825 81.2838 1.75144 80.3639C4.09362 79.3389 6.04138 77.5619 7.8187 75.697C11.9121 71.4664 16.2775 64.5993 18.4059 60.3764L18.4029 60.3727ZM19.5645 60.6516C16.5259 66.5803 8.61484 78.1249 1.99048 81.0054C-0.576051 81.9929 -3.56217 81.4531 -5.7201 79.7633C-8.139 77.6347 -9.93609 74.7902 -10.8215 71.6401C-11.3 69.7847 -11.4317 67.8057 -11.0487 65.9134C-10.8757 64.8126 -10.2713 63.707 -9.43873 62.9423C-4.56141 58.4169 7.85327 55.3044 14.4518 53.788C18.2301 52.9469 21.3901 57.1688 19.5579 60.6511L19.5645 60.6516Z" fill="#221F1F"/>
</g>
<path d="M16.7965 70.9699L14.9646 40.7811C14.9512 40.5808 14.9345 40.3804 14.9144 40.1799C14.7073 38.0691 13.7767 21.2944 36.1007 19.911C36.1007 19.911 56.906 19.0076 57.7107 38.3924L58.0003 69.1686C58.0631 70.6001 57.8381 71.967 57.3764 73.2372C56.596 75.3798 55.1507 77.1697 53.3627 78.6389C52.4448 79.3913 51.4505 80.0325 50.4124 80.5909C47.1587 82.3421 43.5155 83.2732 39.8144 83.4333L36.6105 83.5709C34.1008 83.6795 31.5864 83.4256 29.1614 82.7854C27.5226 82.3533 26.0013 81.8983 24.5706 81.2198C21.5385 79.7854 19.0895 77.7456 17.7882 74.9617C17.2153 73.7386 16.8663 72.3949 16.8033 70.9668L16.7967 70.9665L16.7965 70.9699Z" fill="white"/>
<path d="M16.6256 71.2581C15.7731 61.4192 14.7643 49.8541 14.1068 40.0663C13.4755 29.9882 19.3679 22.694 28.8172 20.2264C31.1247 19.5787 33.5304 19.2902 35.9027 19.1055C39.2984 19.0122 42.6545 19.615 45.867 20.7343C53.9568 23.6225 58.3691 30.204 58.4842 38.8545C58.5678 47.0433 58.6019 59.1622 58.6578 67.3838C58.6807 69.3184 58.7718 71.4113 58.0611 73.2584C55.9865 78.9776 50.1315 82.1008 44.5971 83.383C41.9158 84.0442 38.8577 84.0076 36.1145 84.1213C29.9474 84.1749 21.8433 82.021 18.238 76.539C17.1657 74.8947 16.5398 72.9517 16.4746 70.985L16.9448 71.2798C16.8632 71.3277 16.7069 71.3186 16.6287 71.265L16.6256 71.2581ZM16.9679 70.6778C16.8965 70.6211 16.7435 70.6121 16.6654 70.6567L17.1356 70.9515C17.6131 79.0191 26.4931 82.4034 33.3323 82.9906C34.9283 83.2044 37.2556 82.9672 38.8767 82.9245C45.6167 82.78 54.3278 79.7573 56.8324 72.8209C57.4718 71.1169 57.3411 69.2156 57.3103 67.4161C57.1883 59.1819 57.0398 47.0927 56.9467 38.8901C56.8199 30.8996 52.828 24.909 45.3303 22.2557C42.3549 21.223 39.1343 20.6555 35.9887 20.7444C33.7297 20.9299 31.4075 21.2146 29.2376 21.83C20.4744 24.1092 15.047 30.9462 15.716 40.284C16.2684 49.7191 16.6248 61.1622 16.9646 70.6777L16.9679 70.6778Z" fill="#221F1F"/>
<path d="M22.9221 23.8386C22.9221 23.8386 35.7107 25.4757 48.0049 22.7102L22.9221 23.8386Z" fill="white"/>
<path d="M22.172 23.9453C22.172 23.9453 36.2644 25.5928 48.5586 22.8278" stroke="#221F1F" stroke-width="0.778175" stroke-miterlimit="10"/>
<path d="M14.8083 37.5824C14.8083 37.5824 36.2521 31.6142 57.357 35.7949L14.8083 37.5824Z" fill="white"/>
<path d="M14.718 37.2555C17.2557 36.244 19.9211 35.8231 22.5759 35.3176C26.9803 34.5486 31.5006 34.0127 35.9614 33.7678C40.3824 33.5148 45.0321 33.6167 49.449 34.007C50.2996 34.1103 52.6455 34.3859 53.4759 34.4919C54.8089 34.7363 56.1336 35.0275 57.4204 35.4624L57.2923 36.1217C55.521 36.1251 53.7345 35.7776 51.9788 35.6097C43.1765 34.5773 34.1825 34.9332 25.4152 36.1156C23.8935 36.3431 21.6509 36.6875 20.1504 36.9832C18.4051 37.3176 16.6623 37.6757 14.897 37.9084L14.7179 37.2588L14.718 37.2555Z" fill="#221F1F"/>
<path d="M16.142 58.3737C19.9751 57.1213 34.7012 53.4173 58.8691 55.9225L16.142 58.3737Z" fill="white"/>
<path d="M16.0404 58.0541C22.7368 55.8307 29.8204 55.0355 36.8364 54.6826C40.3499 54.5435 43.8692 54.5325 47.3801 54.6762C50.8879 54.8131 54.4126 54.9472 57.8628 55.729L57.7944 56.4004C54.2847 56.5263 50.8276 56.0576 47.3319 55.9582C40.3735 55.6661 33.3808 55.8176 26.4684 56.6794C23.0185 57.1205 19.5768 57.7237 16.2464 58.6979L16.0403 58.0575L16.0404 58.0541Z" fill="#221F1F"/>
<path d="M49.3871 55.5636C49.9467 48.0534 49.7426 34.973 49.7426 34.973C49.7426 34.973 32.0099 32.9815 22.564 36.498C22.564 36.498 23.0451 49.5744 24.701 56.7477" stroke="#221F1F" stroke-width="0.778175" stroke-miterlimit="10"/>
<path d="M22.6915 36.3259C22.3797 38.7515 23.9203 52.8944 24.6964 56.2251C31.0885 54.8329 43.5958 54.6277 49.2576 54.8809C49.7642 50.7643 49.5237 40.2548 49.4104 35.3002L49.4039 35.0865C38.9389 33.2985 27.3216 35.2727 22.6915 36.3259Z" fill="#5BC2C7"/>
<path d="M35.1708 22.0998C34.68 22.1415 34.3332 21.6125 34.5488 21.1578C36.598 16.8243 45.2056 0.75849 56.7399 8.96156C68.4925 17.3182 48.1176 14.0132 41.5547 15.4482C39.533 15.8913 37.7317 17.1071 36.6131 18.9096C36.1329 19.6863 35.7744 20.5626 35.742 21.4827C35.7298 21.8114 35.4835 22.0754 35.1692 22.1053L35.1683 22.1002L35.1708 22.0998Z" fill="white"/>
<path d="M35.4161 22.0689C35.3948 22.015 35.3185 21.9 35.2075 21.8666C35.1092 21.8337 35.0722 21.853 34.9947 21.8244C34.7544 21.7372 34.6636 21.4391 34.804 21.2192L34.8605 21.1024C35.8439 19.0849 36.977 17.1386 38.2574 15.3109C42.0908 9.73269 48.1254 4.57446 54.9023 8.24589C56.5925 9.18926 58.3654 10.4269 59.5797 11.9713C59.8505 12.3721 60.1127 12.8293 59.8703 13.2573C59.6725 13.5418 59.3669 13.7036 59.0136 13.8499C58.0979 14.2017 57.1127 14.3249 56.134 14.426C52.1215 14.7871 48.0292 14.5294 43.9885 14.8091C42.618 14.9115 41.2112 15.0698 39.935 15.6475C37.7212 16.6435 35.7363 18.7608 35.4956 21.3472L35.4896 21.4815C35.4849 21.6704 35.3302 21.8327 35.1496 21.8503C35.1488 21.8452 35.4279 22.08 35.4173 22.0609L35.2163 22.3564C35.2554 22.3498 35.3267 22.3246 35.3731 22.2539C35.4224 22.1855 35.4251 22.1092 35.419 22.071L35.4161 22.0689ZM34.9237 22.1318C34.9175 22.0936 34.9203 22.0174 34.9671 21.9493C35.0163 21.8808 35.0848 21.8535 35.1215 21.8473C35.1223 21.8523 34.9127 22.1415 34.9213 22.1479L34.9607 22.392L35.1898 22.3635C35.5469 22.3341 35.8719 22.0593 35.9616 21.6965C36.1221 19.2048 38.0346 17.1677 40.1697 16.2296C41.3653 15.6969 42.6921 15.5575 44.0288 15.4634C48.0834 15.2075 52.1219 15.49 56.1947 15.1448C58.0977 14.9936 62.1205 14.4007 60.1369 11.5473C59.6987 10.9345 59.1739 10.4541 58.6421 9.9931C57.5614 9.08977 56.4385 8.26681 55.1988 7.62314C51.2302 5.47058 46.9502 6.15159 43.4208 8.83481C39.4156 11.8864 36.6095 16.3099 34.3975 20.865L34.3414 20.9843L34.3133 21.0439C34.0343 21.6036 34.4474 22.3409 35.0561 22.3601C35.0691 22.3632 35.0226 22.3554 34.9998 22.3384C34.9337 22.3026 34.8977 22.1885 34.9188 22.1326L34.9237 22.1318Z" fill="#221F1F"/>
<g clip-path="url(#clip1_1260_1480)">
<path d="M23.2441 46.5723C21.3278 42.7995 24.9979 38.6646 29.4313 39.5619C32.832 40.2498 37.462 41.5704 38.2999 43.7601C39.056 45.7316 36.5354 48.4733 34.1569 50.5129C32.0186 52.3474 28.6797 52.3584 26.5476 50.5172C25.2751 49.4174 23.9987 48.0604 23.2424 46.5735L23.2441 46.5723Z" fill="black" stroke="black" stroke-width="0.646741" stroke-miterlimit="10" stroke-linecap="round"/>
<path d="M28.7828 47.0309L29.5836 43.3304C29.6133 43.2121 29.7526 43.1635 29.8428 43.2422L32.8788 45.9641C32.9747 46.0478 32.9343 46.2088 32.8096 46.2401L28.9728 47.2188C28.8595 47.246 28.7572 47.1468 28.7796 47.0301L28.7828 47.0309Z" fill="white" stroke="black" stroke-width="0.186762"/>
</g>
<path d="M26.5 39.8266C22.9 39.4613 18.6667 34.8048 17 32.5222L15 35.2613C15 37.8179 20.6667 41.1961 23.5 42.5657C24.7 40.7396 26 39.9787 26.5 39.8266Z" fill="black"/>
<path d="M57 49.87C49.8 49.5048 41.1667 47.4353 38 46.5222L35.5 49.87C37.9 51.3309 50.8333 52.9135 57 53.5222V49.87Z" fill="black"/>
<path d="M26.5 39.8266C22.9 39.4613 18.6667 34.8048 17 32.5222L15 35.2613C15 37.8179 20.6667 41.1961 23.5 42.5657C24.7 40.7396 26 39.9787 26.5 39.8266Z" stroke="black" stroke-width="0.5"/>
<path d="M57 49.87C49.8 49.5048 41.1667 47.4353 38 46.5222L35.5 49.87C37.9 51.3309 50.8333 52.9135 57 53.5222V49.87Z" stroke="black" stroke-width="0.5"/>
</g>
<defs>
<clipPath id="clip0_1260_1480">
<rect y="0.522217" width="76" height="76" rx="38" fill="white"/>
</clipPath>
<clipPath id="clip1_1260_1480">
<rect width="14.2182" height="14.422" fill="white" transform="matrix(0.638224 0.769851 -0.820667 0.571407 31.8359 35.2715)"/>
</clipPath>
</defs>
</svg>