<?xml version="1.0" encoding="utf-8"?>
<!-- Generator: Adobe Illustrator 23.1.1, SVG Export Plug-In . SVG Version: 6.00 Build 0)  -->
<svg version="1.1" id="Layer_1" xmlns="http://www.w3.org/2000/svg" xmlns:xlink="http://www.w3.org/1999/xlink" x="0px" y="0px"
	 viewBox="0 0 100 100" style="enable-background:new 0 0 100 100;" xml:space="preserve">
<path d="M86.4,41.4c-1-2.3-1.8-4.7-2.9-7c-0.9-2-2.5-3.2-4.2-4.2c-1-0.6-2.1-1-3.2-1.4c-0.3-0.1-0.5-0.5-0.5-0.9
	c0.2-0.9,0.4-1.8,0.5-2.7c0.1-0.6-0.1-1.2-0.1-1.7c0-0.8,0-1.6,0-2.4c0.1-1.4-0.3-2.6-0.6-4c-0.2-0.8-0.1-1.8-0.3-2.6
	c-0.3-0.9,0-1.9-0.8-2.6c0,0,0-0.1,0-0.1c0.1-1.3-0.8-2.2-1.3-3.4c-0.5-1.1-1.2-2.2-2.5-2.7c-0.4-0.2-0.9-0.5-1.3-0.8
	C69,4.9,68.7,5,68.6,5.3c-0.4,1.1-0.8,2.2-1,3.2c-0.2,1.1-0.8,2-0.6,3.2c0.1,0.9-0.4,1.8-0.6,2.7c-0.1,0.5-0.1,1-0.2,1.5
	c0,0.3-0.3,0.4-0.5,0.1c-0.5-0.7-1-1.3-1.6-1.7c-1.1-0.7-1.9-1.7-2.9-2.3c-1.6-1-3.3-2-5.1-2.6c-1.8-0.6-3.7-0.8-5.6-1.1
	c-0.5-0.1-1,0.1-1.6,0.3c-0.3,0.1-0.5,0.4-0.3,0.7c0.6,1.1,1.1,2.1,1.6,3c0.9,1.6,1.9,3.2,2.9,4.7c0.6,0.9,1.3,1.7,1.9,2.5
	c0.6,0.9,1.2,1.8,1.9,2.6c0.5,0.6,1,1.1,1.5,1.6c0.6,0.6,1.1,1.2,1.6,1.9c1.4,1.8,1.9,3.9,2.2,6.1c0,0.1,0,0.2,0.1,0.2
	c0.7,1.4,0,2.3-1,3.1c-0.1,0.1-0.1,0.4-0.2,0.6c-0.1,0.3-0.2,0.7-0.4,1c-0.6,0.8-0.8,1.8-0.8,2.8c0,0.6-0.2,1.2-0.3,1.8
	c0,0.1,0,0.2,0,0.3c0,0.2-0.1,0.5-0.2,0.9c-0.5,1.2-0.9,2.5-2,3.3C56.9,46,56.8,46.1,57,46s0.4,0,0.4,0c0,0-0.3,0.1-0.6,0.3
	c0,0-0.1,0-0.1,0.1c-0.3,0.1-0.4,0.3-0.3,0.3c0.2,0.1,0.1,0.2-0.3,0.3c-0.3,0.1-0.6,0.2-0.9,0.3c-0.3,0.1-0.5,0.3-0.3,0.3
	c0.2,0.1,0,0.2-0.3,0.3s-0.5,0.2-0.5,0.3c0,0.1-0.2,0.2-0.5,0.3c-0.6,0.1-1.2,0.3-1.8,0.3c-0.2,0-0.4,0-0.6-0.1
	c-0.3-0.1-0.9-0.3-1.2-0.2c-2,0-5.5,0.7-6.9,0.9c-0.3,0.1-0.9,0.2-1.2,0.2c-0.5,0-1,0.1-1.5,0.2c-0.3,0-0.6,0.1-0.5,0.2
	c0.1,0.1-0.2,0.2-0.5,0.3c-1.5,0.5-3.1,1-4.6,1.5c-0.3,0.1-0.5,0.2-0.4,0.3c0.1,0.1-0.1,0.2-0.4,0.3c-0.9,0.3-1.8,0.6-2.4,1.1
	c-0.7,0.6-1.6,1-2.3,1.6c-0.8,0.7-2,0.9-3,1.4c-0.1,0-0.2,0.1-0.3,0.1c-0.2,0.1-0.2,0.2,0,0.3s0.1,0.3-0.2,0.5
	c-0.6,0.5-1.2,0.9-1.8,1.3c-0.3,0.2-0.4,0.4-0.3,0.5c0.1,0.1-0.1,0.2-0.4,0.4c-0.2,0.1-0.4,0.2-0.6,0.3c-0.3,0.2-0.5,0.3-0.5,0.4
	c0,0,0.2,0,0.5,0c0.2,0,0.2,0.1,0,0.4c-1.1,1.1-2.2,2.1-3.3,3.1c-0.1,0.1-0.2,0.2-0.4,0.3c-0.2,0.2-0.2,0.3,0.1,0.2
	c0.3-0.1,0.4,0.1,0.2,0.4c-0.5,0.8-1.1,1.6-1.6,2.4c-0.4,0.5-0.8,0.9-1.2,1.4c0,0,0,0,0,0.1c0,0,0.1,0.1,0.3,0s0.1,0.2-0.1,0.5
	c-0.3,0.5-0.7,0.9-1,1.4c-0.2,0.3-0.1,0.4,0.1,0.2c0.3-0.1,0.4,0,0.2,0.3c-0.5,1.2-1.1,2.2-1.2,3.4c0,0.6-0.4,1.2-0.7,1.8
	c-0.1,0.3-0.1,0.5,0,0.4c0.2-0.1,0.2,0.1,0.2,0.4c-0.3,1.6-0.6,3.2-0.8,4.7c-0.1,0.3,0,0.6,0.1,0.5s0.1,0.2,0,0.5
	c-0.1,0.3-0.2,0.5-0.2,0.8c-0.1,0.3-0.1,0.6,0,0.5c0.1,0,0.1,0.2,0.1,0.5c-0.2,0.9-0.1,1.8-0.7,2.6c-0.2,0.3-0.3,0.4-0.2,0.4
	s0.1,0.2-0.1,0.5c-0.1,0.1-0.1,0.2-0.2,0.2c-0.2,0.3-0.3,0.5-0.1,0.4c0.1,0,0.3-0.1,0.3,0c0,0,0,0,0,0c0,0.1,0,0.2,0,0.2
	c-0.2,1.5,0.3,2.7,1.7,3.3c1,0.5,1.8,1.5,3.2,1.4c0.4,0,0.9,0.4,1.4,0.6c0,0,0,0,0.1,0c0,0,0-0.1,0-0.2c0-0.1,0.2-0.1,0.6,0
	c0.2,0.1,0.5,0.1,0.7,0.2c0.3,0.1,0.6,0,0.5-0.1c-0.1-0.1,0.2-0.1,0.5,0c2.8,0.9,5.8,0.5,8.6,0.6c0.3,0,0.6,0,0.5-0.1
	c0-0.1,0.2-0.1,0.5-0.1c1,0,2,0,3,0c0.5,0,0.9,0,1.4-0.1c1-0.1,2-0.3,3.1-0.5c1.1-0.2,2.2,0.2,3.4-0.4c0.7-0.4,1.3-0.7,1.5-1.2
	c0.1-0.3,0.4-0.7,0.7-0.8c0.6-0.1,1.2-0.3,1.8-0.5c0.8-0.3,1.5-0.5,1.7-1.6c0.1-0.8,0.1-1.5-0.6-1.9c-0.1,0-0.1-0.1-0.1-0.2
	c0-0.1-0.3-0.3-0.7-0.3c-0.1,0-0.2,0-0.2,0c-0.3,0-0.5-0.3-0.3-0.6c0.1-0.2,0.2-0.3,0.3-0.5c0.2-0.3,0.4-0.5,0.4-0.5
	c0.1,0,0.1,0.3,0.1,0.5c0,0.3,0.2,0.2,0.3-0.1c0.1-0.2,0.1-0.3,0.2-0.4c0.2-0.3,0.3-0.6,0.4-0.5c0,0,0.1,0.2,0.1,0.5
	c0,0.2,0.1,0.2,0.3-0.1c0-0.1,0.1-0.2,0.1-0.3c0.1-0.3,0.3-0.4,0.3-0.1c0,0.3,0.1,0.2,0.3-0.1c0.3-0.6,0.7-1.1,1.4-1.4
	c1-0.4,1.9-0.9,2.9-1.3c0.2-0.1,0.5,0,0.6,0.2c0.5,0.6,0.9,1.2,1.3,1.8c0.5,0.6,1,1.2,1.5,1.8c0.7,0.8,1.3,1.5,2,2.2
	c0,0,0.1,0.1,0.1,0.1c0.1,0.1,0.1,0.1,0.2,0s0.2,0.1,0.4,0.4c0,0.1,0.1,0.2,0.2,0.3c0.1,0.3,0.3,0.4,0.3,0.2c0-0.2,0.2-0.2,0.4,0.1
	c0.5,0.8,1,1.5,1.5,2.2c0.2,0.3,0.4,0.3,0.4,0.1c0-0.2,0.2-0.2,0.4,0.1c0.3,0.4,0.6,0.8,0.9,1.3c0.2,0.3,0.3,0.3,0.3,0
	c0-0.3,0-0.5,0-0.6c0.1,0,0.3,0.2,0.5,0.4c0.1,0.2,0.2,0.3,0.3,0.5c0.2,0.3,0.4,0.4,0.5,0.3c0.1-0.1,0.1-0.1,0.1-0.2
	c0,0,0-0.1,0-0.1c0,0,0,0,0,0c0,0,0.3,0.1,0.6,0.3c0.2,0.1,0.4,0.3,0.6,0.4c0.3,0.2,0.5,0.2,0.5,0.1c0-0.2,0.2-0.2,0.5,0
	c0.3,0.1,0.5,0.2,0.8,0.3c0.7,0.1,1.5,0,2.1,0.2c1.3,0.4,2.4-0.2,3.3-0.9c0.6-0.4,1.1-0.6,1.7-0.6c0.3,0,0.8-0.2,1.1-0.5
	c0.3-0.3,0.7-0.7,1-1c0.3-0.2,0.3-0.7,0.2-1c-0.4-0.8-0.8-1.5-1.7-1.7c-0.3-0.1-0.5-0.2-0.3-0.3c0.2-0.1,0-0.2-0.3-0.2
	c-0.1,0-0.2,0-0.3,0c-0.3,0-0.6,0-0.6,0c0,0,0.1-0.1,0.3-0.1c0.2,0,0.1-0.2-0.3-0.3c-0.1,0-0.2-0.1-0.3-0.1
	c-0.3-0.1-0.4-0.3-0.3-0.3c0.2,0,0-0.2-0.3-0.4c-0.6-0.3-1.2-0.6-1.7-0.9c-0.1-0.1-0.3-0.1-0.4-0.2c-0.2-0.1-0.3-0.2-0.1-0.2
	c0.2-0.1,0.2-0.2,0-0.3c-0.2-0.1-0.2-0.2,0.1-0.2c0.2,0,0.2-0.2-0.2-0.3c-0.3-0.1-0.5-0.2-0.8-0.3c-0.3-0.1-0.5-0.4-0.3-0.6
	c0.1-0.2,0.2-0.3,0.2-0.4c-0.1-0.2-0.2-0.4-0.3-0.6c-0.2-0.3-0.3-0.5-0.1-0.5c0.1,0,0.2-0.1,0.1-0.3c0-0.1-0.1-0.2-0.1-0.3
	c-0.1-0.7-0.1-1.4-0.4-2c-0.4-0.8-0.3-1.5,0.1-2c0.2-0.3,0.5-0.4,0.6-0.3c0.1,0.1,0.2,0,0.3-0.3c0.1-0.3,0.3-0.4,0.3-0.3
	c0,0.1,0.3,0,0.5-0.3c0.2-0.2,0.4-0.4,0.6-0.7c0.2-0.3,0.4-0.4,0.5-0.2c0,0.1,0.2,0,0.3-0.3c0.8-1.6,2.1-2.8,2.4-4.6c0,0,0,0,0,0
	c0,0,0.1,0.1,0.2,0.1c0.1,0.1,0.2-0.1,0.3-0.4c0.5-1.9,1.1-3.7,1.6-5.5c0.1-0.3,0.4-0.8,0.6-1.1c1-1.4,1.3-2.3,1.3-2.9
	c0-0.3-0.3-0.8-0.5-1.1c-0.4-0.6-0.3-1.2-0.3-1.8c-0.1-0.8,0-1.6,0.1-2.4c0-0.3,0.1-0.6,0.2-0.6c0.1,0,0.1-0.2,0.1-0.6
	c0-1.5,1.3-1.9,2.5-2.3c0.3-0.1,0.8-0.3,1.1-0.4c0.2-0.1,0.4-0.1,0.5-0.3c0.4-0.3,0.7-0.8,1-1.2c0.3-0.4,0.7-0.7,1.1-1
	c0.7-0.5,1.2-1.3,1.8-1.9c0.5-0.5,1-1,1.6-1.4c0.7-0.5,0.9-1.5,0.4-2.3C87.2,43.1,86.7,42.3,86.4,41.4z"/>
</svg>
