<svg xmlns="http://www.w3.org/2000/svg" fill="none" viewBox="-13.41 0.52 97.47 88.13">
<g clip-path="url(#clip0_1260_1336)">
<rect y="0.522217" width="76" height="76" rx="36.4107" fill="#FAFBFB"/>
<path d="M53.8042 59.5153C52.1561 56.3798 54.9018 52.7245 58.3274 53.4813C67.8164 55.5874 81.9492 59.4473 83.2192 64.0178C83.2192 64.0178 85.6128 70.3938 79.2166 77.3712C76.9227 79.8698 73.2345 80.6633 70.3541 79.2547C68.0933 78.1483 65.572 76.0453 62.3264 72.2188C59.0808 68.3923 56.1835 64.0518 53.8022 59.5197L53.8011 59.5165L53.8042 59.5153Z" fill="white"/>
<path d="M53.3927 59.6181C52.6004 58.1249 52.7635 56.1835 53.7785 54.8178C54.7783 53.3894 56.6383 52.6307 58.3219 53.0019C61.3646 53.6526 64.3521 54.3886 67.3374 55.2189C71.6514 56.5341 82.1308 59.4269 83.6167 63.8633C85.1726 69.2411 82.5098 74.9693 78.5208 78.5214C76.7845 79.8707 74.5304 80.5419 72.3639 80.2241C69.1877 79.7092 66.6512 77.2415 64.4375 75.0819C60.1178 70.6149 56.0695 64.8136 53.3895 59.6193L53.3927 59.6181ZM54.2139 59.414C56.59 64.0019 60.747 70.331 64.9342 74.5847C68.6704 78.4196 72.9393 81.7079 78.0662 77.9313C81.4285 74.8815 83.7414 70.2254 83.1387 65.6194C82.9497 63.3772 81.6658 62.2247 79.8539 61.0991C75.9111 58.7614 71.4503 57.4539 67.063 56.173C64.1146 55.3363 61.1132 54.5911 58.1316 53.932C56.776 53.6225 55.3097 54.2063 54.4898 55.3486C53.5925 56.5339 53.5442 58.1162 54.2128 59.4108L54.2139 59.414Z" fill="#221F1F"/>
<mask id="mask0_1260_1336" style="mask-type:luminance" maskUnits="userSpaceOnUse" x="-14" y="48" width="40" height="41">
<path d="M10.3847 48.4407L-13.4072 73.3799L2.06567 88.6509L25.8576 63.7118L10.3847 48.4407Z" fill="white"/>
</mask>
<g mask="url(#mask0_1260_1336)">
<path d="M22.4781 62.8066C23.3608 59.3548 19.8542 56.519 16.6966 58.1194C7.95764 62.5663 -4.8905 69.892 -5.07616 74.634C-5.07616 74.634 -5.93925 81.4067 1.87862 86.5301C4.6804 88.3643 8.44548 88.1929 10.9226 86.0997C12.8639 84.4527 14.833 81.7782 17.1082 77.2545C19.3833 72.7307 21.2053 67.7975 22.4748 62.8072L22.4781 62.8066Z" fill="white"/>
<path d="M21.8746 62.8158C22.2018 61.4348 21.8413 60 20.7202 59.1125C19.7128 58.2769 18.255 58.1017 17.0801 58.7113C14.3522 60.1133 11.5976 61.5814 8.91382 63.109C4.93881 65.4308 0.916797 67.819 -2.398 71.034C-3.90276 72.5668 -4.87788 73.952 -4.56995 76.1552C-4.13581 80.7612 -0.845846 84.6952 3.11805 86.7873C5.37978 87.7996 8.1851 87.6564 10.2511 86.1927C12.3004 84.6259 13.7903 82.4322 15.0933 80.1961C18.1092 75.108 20.7793 67.413 21.8784 62.8185L21.8746 62.8158ZM23.0735 62.797C21.4813 69.2598 16.4337 82.3379 10.6333 86.7515C8.35615 88.3377 5.31515 88.5565 2.81617 87.4627C-0.039396 86.0107 -2.45382 83.7152 -4.04893 80.8998C-4.94635 79.2309 -5.53388 77.3572 -5.59878 75.4396C-5.6851 74.3364 -5.35136 73.1219 -4.71568 72.1793C-1.00264 66.6133 10.398 60.5435 16.4895 57.4503C19.9838 55.7053 24.0485 58.9904 23.0669 62.7982L23.0735 62.797Z" fill="#221F1F"/>
</g>
<path d="M19.988 73.8454L17.1611 43.681C17.1411 43.4809 17.1178 43.2808 17.0911 43.0807C16.8144 40.9745 15.331 24.2101 37.6159 22.0124C37.6159 22.0124 58.3974 20.3506 59.8408 39.7332L61.1442 70.542C61.2542 71.9733 61.0742 73.3502 60.6542 74.639C59.9442 76.813 58.5574 78.658 56.8173 80.1944C55.9239 80.9812 54.9505 81.6595 53.9304 82.2565C50.7335 84.1286 47.1199 85.1935 43.423 85.4886L40.2228 85.743C37.7159 85.9431 35.1924 85.7803 32.7456 85.2274C31.0921 84.8544 29.5553 84.4542 28.1019 83.8267C25.0217 82.5006 22.5048 80.5471 21.1114 77.8067C20.498 76.6027 20.1047 75.2699 19.9946 73.842H19.988V73.8454Z" fill="white"/>
<path d="M19.8271 74.1404C18.6503 64.3184 17.2602 52.7736 16.2802 42.9958C15.3168 32.9263 20.9705 25.4072 30.3412 22.5923C32.628 21.8597 35.0248 21.4832 37.3917 21.2119C40.7853 20.9948 44.1622 21.4764 47.4124 22.4803C55.5996 25.0783 60.23 31.5086 60.63 40.1672C60.9834 48.3646 61.4167 60.4996 61.7434 68.7308C61.8301 70.6674 61.9901 72.76 61.3401 74.6355C59.4533 80.4385 53.6995 83.7791 48.2058 85.2646C45.5456 86.0243 42.4854 86.099 39.7452 86.3126C33.5781 86.5907 25.4008 84.7288 21.6139 79.3701C20.4871 77.7625 19.7971 75.8395 19.6671 73.8724L20.1471 74.1505C20.0671 74.2014 19.9104 74.198 19.8304 74.1471L19.8271 74.1404ZM20.1504 73.5468C20.0771 73.4926 19.9238 73.4892 19.8471 73.5367L20.3271 73.8148C21.0705 81.8765 30.0645 84.9424 36.925 85.2816C38.5284 85.4376 40.8486 85.1154 42.4687 85.0137C49.2059 84.6236 57.8198 81.2796 60.0966 74.2421C60.68 72.5124 60.4867 70.6132 60.3967 68.8122C60.0033 60.5708 59.4566 48.4698 59.0932 40.2588C58.7032 32.2616 54.5129 26.4078 46.9257 24.0235C43.9155 23.0976 40.6752 22.6465 37.5317 22.85C35.2782 23.118 32.9647 23.4876 30.8145 24.1829C22.1239 26.7842 16.9202 33.8285 17.897 43.1552C18.7603 52.5837 19.4937 64.0302 20.1471 73.5468H20.1504Z" fill="#221F1F"/>
<path d="M37.8207 22.1222C38.3036 22.0825 38.5573 21.5242 38.2768 21.1272C35.6085 17.343 24.7356 3.47702 14.826 13.1296C4.7287 22.9634 23.9868 16.5341 30.5818 16.8368C32.6135 16.9311 34.5525 17.7946 35.9207 19.3257C36.5085 19.9857 36.9939 20.7599 37.1695 21.6284C37.2329 21.9386 37.5134 22.1495 37.8231 22.1272V22.1222H37.8207Z" fill="white"/>
<path d="M37.5759 22.1322C37.5881 22.0776 37.6442 21.956 37.7466 21.9064C37.8369 21.8592 37.8759 21.8716 37.9466 21.8319C38.1661 21.7103 38.2076 21.4126 38.0368 21.2265L37.9637 21.1247C36.693 19.3679 35.2881 17.7029 33.7589 16.1743C29.1639 11.4969 22.4981 7.57384 16.4958 12.1545C15.0032 13.3232 13.4764 14.7848 12.5398 16.4473C12.3398 16.8716 12.1569 17.348 12.4593 17.7153C12.6959 17.9535 13.0178 18.0577 13.3837 18.1396C14.3276 18.3257 15.3032 18.2835 16.269 18.2215C20.2201 17.9163 24.1518 17.0106 28.1175 16.6235C29.4639 16.4994 30.8541 16.4225 32.1833 16.7649C34.4881 17.353 36.7466 19.0428 37.3856 21.4597L37.4125 21.5863C37.4466 21.7649 37.6222 21.8939 37.8003 21.8815C37.8003 21.8766 37.5661 22.1446 37.5734 22.1247L37.8149 22.3729C37.7759 22.3729 37.7027 22.3605 37.6466 22.3009C37.5881 22.2438 37.5734 22.1719 37.5734 22.1346L37.5759 22.1322ZM38.0637 22.1123C38.0637 22.0751 38.049 22.0031 37.9929 21.9461C37.9344 21.889 37.8637 21.8741 37.8271 21.8741C37.8271 21.8791 38.0759 22.1198 38.0686 22.1272V22.3654L37.8417 22.3753C37.4905 22.4051 37.132 22.1967 36.9881 21.8667C36.4418 19.5267 34.2662 17.9014 32.0467 17.3555C30.8029 17.0428 29.4931 17.1247 28.181 17.2513C24.2054 17.6632 20.3299 18.5838 16.3227 18.9138C14.452 19.0776 10.4545 19.1644 11.9325 16.1346C12.2618 15.482 12.6959 14.9411 13.1398 14.4175C14.0471 13.3853 15.0081 12.4225 16.1105 11.6111C19.625 8.9262 23.8859 8.88153 27.7322 10.8592C32.0979 13.1098 35.5149 16.8567 38.3759 20.8245L38.449 20.9287L38.4856 20.9808C38.8441 21.4672 38.5588 22.2339 37.971 22.3505C37.9588 22.3555 38.0027 22.3406 38.0222 22.3207C38.0808 22.2761 38.0978 22.1619 38.0686 22.1123H38.0637Z" fill="#221F1F"/>
<path d="M24.5967 26.4551C24.5967 26.4551 37.4309 27.6659 49.6285 24.4541L24.5967 26.4551Z" fill="white"/>
<path d="M23.8496 26.5874C23.8496 26.5874 37.9873 27.7643 50.1848 24.5525" stroke="#221F1F" stroke-width="0.692299" stroke-miterlimit="10"/>
<path d="M16.9297 40.4791C16.9297 40.4791 38.1679 33.7266 59.396 37.2131L16.9297 40.4791Z" fill="white"/>
<path d="M16.8301 40.1536C19.3336 39.048 21.9838 38.5325 24.6206 37.9322C28.9976 37.0063 33.4979 36.311 37.9483 35.9108C42.3586 35.5038 47.0089 35.4462 51.4359 35.687C52.2893 35.7616 54.6428 35.9583 55.4762 36.0363C56.8163 36.2364 58.1497 36.484 59.4498 36.8774L59.3431 37.5455C57.573 37.61 55.7762 37.3217 54.0161 37.2132C45.1854 36.4772 36.2081 37.1453 27.4842 38.6376C25.9707 38.9191 23.7406 39.3431 22.2505 39.6924C20.517 40.0892 18.7869 40.5097 17.0301 40.8048L16.8301 40.157V40.1536Z" fill="#221F1F"/>
<path d="M18.9326 61.2151C22.7229 59.8212 37.3206 55.5818 61.5557 57.2741L18.9326 61.2151Z" fill="white"/>
<path d="M18.8203 60.8963C25.4408 58.4272 32.4946 57.3826 39.4951 56.7857C43.002 56.5246 46.519 56.3923 50.0325 56.4161C53.5428 56.433 57.0697 56.4466 60.5433 57.1147L60.4966 57.793C56.993 58.0406 53.5228 57.6879 50.0259 57.7082C43.062 57.654 36.0782 58.0474 29.1977 59.153C25.7641 59.716 22.3439 60.4418 19.047 61.5373L18.8203 60.8997V60.8963Z" fill="#221F1F"/>
<path d="M52.0688 57.2608C52.3855 49.7248 51.7588 36.6402 51.7588 36.6402C51.7588 36.6402 33.9709 35.2598 24.6436 39.1059C24.6436 39.1059 25.547 52.1769 27.4338 59.2991" stroke="#221F1F" stroke-width="0.692299" stroke-miterlimit="10"/>
<path d="M24.7669 38.9293C24.5335 41.3678 26.5303 55.4699 27.4137 58.7766C33.7575 57.1623 46.2517 56.5247 51.9188 56.5823C52.2922 52.4446 51.7121 41.9342 51.4388 36.9792L51.4254 36.7655C40.908 35.3377 29.3605 37.7151 24.7669 38.9293Z" fill="#5BC2C7"/>
<path d="M38.305 48.6732L38.1816 44.8849C38.1816 44.7628 38.305 44.6814 38.4117 44.7356L42.0186 46.6315C42.1319 46.6892 42.1319 46.8554 42.0186 46.9164L38.535 48.8089C38.4317 48.8631 38.3083 48.7919 38.3016 48.6732H38.305Z" fill="white" stroke="black" stroke-width="0.166152"/>
<g clip-path="url(#clip1_1260_1336)">
<path d="M35.5766 4.97441C35.5766 4.97441 23.0098 3.57745 16.8227 23.1684C16.8227 23.1684 12.1673 23.9239 13.0638 29.158C13.0638 29.158 7.12072 34.7215 13.5563 38.3453C13.5563 38.3453 8.63723 53.6918 22.6782 57.6693C22.6782 57.6693 17.6045 41.3867 27.4258 33.5972C27.4258 33.5972 35.3253 28.0841 37.6247 27.2274C37.6247 27.2274 51.7747 28.0743 59.2285 39.8907C59.2285 39.8907 64.176 49.06 60.1006 54.6622C60.1006 54.6622 69.4822 53.3561 68.8713 45.9951C68.8713 45.9951 65.8632 40.7679 66.0268 37.1197C66.0268 37.1197 64.839 30.1869 66.5563 27.0815C66.5563 27.0815 69.4685 19.3394 60.5976 13.3745C60.5976 13.3745 42.9519 3.07064 35.5736 4.97219L35.5766 4.97441Z" fill="white"/>
<path d="M35.6518 5.95517C29.2466 5.58351 24.2858 10.1205 21.3449 14.3916C19.4559 17.1754 18.0745 20.1481 16.9649 23.196L16.9371 23.2721L16.8469 23.287C14.0333 25.1859 13.6552 26.3954 13.1881 29.2299C12.2029 30.7036 11.3538 32.3422 11.3126 33.9836C11.2704 35.7068 12.3941 37.0271 13.7255 38.3328C12.7065 43.5623 12.9658 50.1942 17.4398 54.2271C18.8713 55.5869 20.7093 56.6175 22.7299 57.5556C22.7299 57.5556 22.5359 57.704 22.5358 57.7017C20.3955 50.3564 19.689 40.2806 26.0729 34.0231C26.4643 33.6875 26.9025 33.2483 27.3464 32.9553C30.3484 30.8628 33.3073 28.6886 36.6035 26.9031C36.857 26.7679 37.1815 26.643 37.4559 26.5139C37.4559 26.5139 37.7093 26.5278 37.7123 26.5276C47.3109 27.6047 55.8488 32.9549 59.8051 40.1112C61.7408 44.4886 63.3352 50.3977 60.2271 54.7219L60.0814 54.543C62.272 53.6855 64.3975 52.7189 66.0188 51.2726C66.7969 50.5706 67.4021 49.7755 67.8407 48.894C68.2771 48.0776 68.536 46.8391 68.7419 46.0483C67.2115 43.3124 65.7217 40.0695 65.7175 37.1619C65.2977 34.6297 65.0469 32.073 65.3654 29.5068C65.4838 28.726 65.7288 27.5508 66.0821 26.9676C66.5234 25.4876 66.5586 23.8946 66.2999 22.3982C65.6555 18.5983 62.7937 15.2033 58.8661 13.2098C53.7503 10.5439 41.6294 4.46075 35.6518 5.95517ZM35.5005 3.99106C42.239 2.59591 54.3115 9.05439 59.7908 12.105C63.9485 14.3637 66.9293 18.1314 67.4694 22.2547C67.6845 23.9074 67.5917 25.5711 67.0384 27.1947C66.632 27.9228 66.4106 28.7506 66.2659 29.5834C65.8635 32.0729 66.026 34.6251 66.3457 37.1056C66.2612 39.4056 67.0702 41.665 67.9751 43.8081C68.2888 44.5442 68.6547 45.2676 69.0173 45.9864C69.7739 48.0541 69.1068 50.5376 67.2623 52.1845C65.4482 53.8465 62.7796 54.8187 60.1191 54.7835L59.8135 54.8328L59.9735 54.6071C61.8993 51.7994 61.6534 48.4302 60.9143 45.4145C60.4485 43.5964 59.7648 41.8175 58.8745 40.1205C54.9131 33.8729 47.4262 29.2585 38.8902 28.0706C38.4402 28.0107 37.955 27.9528 37.5395 27.9293L37.9617 27.8659C36.3937 28.5232 34.9934 29.435 33.5665 30.2931C32.1098 31.1937 30.6695 32.1223 29.2446 33.0644C20.5609 38.2801 20.8746 49.9628 22.8199 57.6368C22.8199 57.6368 22.9279 57.8251 22.928 57.8275L22.6289 57.7851C14.7874 56.6691 11.7463 49.9875 12.1893 44.0566C12.3097 42.1149 12.6832 40.1823 13.4134 38.32L13.4708 38.4464C12.4133 38.1483 11.4569 37.5727 10.7669 36.7819C8.68352 34.3311 10.3181 30.8701 12.9532 29.0827L12.9179 29.181C12.4683 28.2823 12.2705 27.2702 12.4742 26.2921C12.7295 24.5971 14.546 22.774 16.7979 23.0544L16.6829 23.1453C17.8469 18.9791 19.4832 14.8019 22.3165 11.1451C25.2455 7.22079 30.374 3.88036 35.5005 3.99106Z" fill="black"/>
<path d="M20.9964 29.1704C20.9964 29.1704 14.1751 34.7856 13.5569 38.3452L20.9964 29.1704Z" fill="white"/>
<path d="M20.9963 29.1704C18.3669 31.503 14.3806 35.2326 13.7015 38.3584L13.4119 38.3298C14.1766 35.1605 18.2721 31.4893 20.9963 29.1704Z" fill="black"/>
<path d="M43.1406 16.3276C43.1406 16.3276 65.4804 18.8683 66.1046 28.1968L43.1406 16.3276Z" fill="white"/>
<path d="M43.1408 16.3276C50.3366 17.0563 62.0648 19.5242 65.5015 25.1947C66.0324 26.1271 66.3198 27.1627 66.2509 28.1857L65.9582 28.203C64.4053 20.7077 51.0379 17.6902 43.1406 16.3252L43.1408 16.3276Z" fill="black"/>
<path d="M60.4694 21.2936C60.4694 21.2936 59.2926 17.7799 56.5664 15.5376L60.4694 21.2936Z" fill="white"/>
<path d="M60.3275 21.3284C59.5829 19.2143 58.4007 17.1524 56.5664 15.5376C58.0132 16.7091 59.0715 18.1654 59.8901 19.6912C60.1612 20.2039 60.4062 20.7205 60.6114 21.2612L60.3277 21.3308L60.3275 21.3284Z" fill="black"/>
</g>
<g clip-path="url(#clip2_1260_1336)">
<path d="M31.5737 56.5692C36.0741 56.3036 39.507 52.4399 39.2413 47.9395C38.9757 43.4391 35.112 40.0062 30.6116 40.2719C26.1112 40.5375 22.6783 44.4012 22.944 48.9016C23.2096 53.402 27.0733 56.8349 31.5737 56.5692Z" fill="#DDFFF1"/>
<path d="M39.0387 47.9514C38.447 41.1176 30.0099 38.385 25.4916 43.4407C21.0116 48.5189 24.7741 56.48 31.5571 56.2832C35.8887 56.1664 39.4573 52.3238 39.0387 47.9514ZM39.4477 47.9273C39.6589 55.3729 31.1489 59.6646 25.3639 54.8684C20.6048 50.8788 21.604 43.1333 27.2493 40.495C32.7382 37.8721 39.2626 41.8656 39.4477 47.9273Z" fill="black"/>
<path d="M30.5816 44.2511C30.8558 45.0803 30.9962 45.9422 30.9953 46.8155C30.9948 46.9637 31.2254 46.9501 31.2259 46.8019C31.2257 45.9102 31.0808 45.0239 30.7994 44.1765C30.7539 44.0341 30.5331 44.1089 30.5816 44.2511Z" fill="black"/>
<path d="M33.4453 47.8992C33.4556 47.7073 33.1249 47.7515 33.1673 47.9465C33.1879 48.0348 33.2798 48.0756 33.3629 48.0707C33.4951 48.0629 33.6349 48.0269 33.7664 48.0068C34.3136 47.9189 34.8638 47.8309 35.4109 47.7431C35.5576 47.719 35.544 47.4884 35.3973 47.5124C35.0459 47.5702 34.6943 47.6249 34.3428 47.6827C34.1748 47.7111 34.0066 47.7365 33.8355 47.7651C33.7499 47.7794 33.6674 47.7935 33.5817 47.8048C33.5328 47.8138 33.4838 47.8198 33.435 47.8289C33.4135 47.8301 33.3921 47.8345 33.3708 47.8388C33.2999 47.8399 33.2878 47.8962 33.3281 48.0049L33.2431 47.976L33.2496 47.9818L33.2109 47.9007L33.2116 47.913C33.2019 48.0617 33.4325 48.0481 33.4422 47.8994L33.4453 47.8992Z" fill="black"/>
<path d="M31.281 51.964C31.3194 52.4585 31.3577 52.9499 31.3962 53.4445C31.4049 53.5921 31.6386 53.5783 31.6268 53.4309C31.5883 52.9363 31.5501 52.4449 31.5116 51.9504C31.5029 51.8028 31.2692 51.8166 31.281 51.964Z" fill="black"/>
<path d="M26.2921 50.7683C26.9479 50.5877 27.5926 50.3737 28.2258 50.1234C28.3645 50.069 28.2899 49.8512 28.1512 49.9057C27.518 50.156 26.8734 50.3699 26.2175 50.5506C26.0748 50.5899 26.1494 50.8076 26.2921 50.7683Z" fill="black"/>
<path d="M26.7245 46.3795C27.138 46.642 27.5545 46.9013 27.968 47.1639C28.0194 47.1979 28.0977 47.1655 28.1225 47.1146C28.1529 47.0542 28.1246 46.9942 28.0733 46.9602C27.6597 46.6976 27.2433 46.4383 26.8297 46.1758C26.7783 46.1418 26.7 46.1742 26.6752 46.225C26.6449 46.2854 26.6731 46.3455 26.7245 46.3795Z" fill="black"/>
<path d="M33.4056 50.8235C33.603 51.2408 33.9593 51.5777 34.3974 51.7339C34.4573 51.755 34.5215 51.7451 34.5519 51.6846C34.5766 51.6338 34.5594 51.5515 34.5026 51.5302C34.1211 51.3922 33.7958 51.1091 33.6264 50.7488C33.5984 50.6918 33.5438 50.6549 33.4803 50.6772C33.4258 50.6958 33.3806 50.7664 33.4087 50.8233L33.4056 50.8235Z" fill="black"/>
<path d="M27.8733 53.4025C28.0358 52.9146 28.3369 52.4741 28.7308 52.1422C28.7778 52.1024 28.7988 52.0395 28.7615 51.9831C28.7309 51.9355 28.6491 51.9095 28.6023 51.9523C28.1583 52.3242 27.8319 52.8063 27.6484 53.3571C27.6273 53.417 27.6805 53.4817 27.7367 53.4938C27.8024 53.5085 27.8554 53.4652 27.8735 53.4055L27.8733 53.4025Z" fill="black"/>
<path d="M34.8523 43.7583C34.7051 43.9829 34.5579 44.2076 34.4138 44.4321C34.3798 44.4835 34.4124 44.5649 34.463 44.5866C34.5263 44.6137 34.5835 44.5887 34.6175 44.5374C34.7647 44.3127 34.9119 44.088 35.056 43.8635C35.09 43.8121 35.0574 43.7307 35.0068 43.709C34.9434 43.6819 34.8863 43.7069 34.8523 43.7583Z" fill="black"/>
<path d="M27.5714 43.8366L27.5797 43.978C27.5815 44.0088 27.5956 44.0388 27.6184 44.0591C27.6284 44.0708 27.641 44.0762 27.6568 44.0815C27.6694 44.0869 27.685 44.0891 27.7004 44.0882C27.7311 44.0863 27.7611 44.0722 27.7814 44.0494C27.8017 44.0266 27.8123 43.9982 27.8103 43.9644L27.802 43.823C27.8002 43.7922 27.786 43.7622 27.7632 43.7419C27.7533 43.7302 27.7406 43.7248 27.7249 43.7195C27.7122 43.7141 27.6967 43.7119 27.6813 43.7128C27.6506 43.7146 27.6205 43.7288 27.6003 43.7516C27.58 43.7743 27.5694 43.8028 27.5714 43.8366Z" fill="black"/>
<path d="M24.5686 48.9971L25.0689 49.1095C25.1282 49.1214 25.1968 49.0804 25.2056 49.0212C25.2145 48.9621 25.1799 48.8993 25.1173 48.8845L24.617 48.7721C24.5577 48.7602 24.4891 48.8012 24.4803 48.8604C24.4714 48.9195 24.506 48.9823 24.5686 48.9971Z" fill="black"/>
<path d="M36.3191 50.056L36.6892 50.315C36.7149 50.332 36.7404 50.3459 36.7742 50.3439C36.8019 50.3423 36.835 50.328 36.8553 50.3052C36.8755 50.2824 36.886 50.2509 36.8842 50.2202C36.8825 50.1925 36.8713 50.1592 36.8455 50.1391L36.4753 49.8802C36.4496 49.8632 36.4241 49.8493 36.3903 49.8513C36.3626 49.8529 36.3295 49.8672 36.3093 49.89C36.289 49.9128 36.2785 49.9443 36.2803 49.975C36.282 50.0027 36.2932 50.036 36.3191 50.056Z" fill="black"/>
<path d="M34.0034 53.3278L33.9494 53.6149C33.945 53.646 33.9499 53.6765 33.9669 53.7033C33.9837 53.727 34.0096 53.7471 34.0377 53.7516C34.0968 53.7604 34.1626 53.7257 34.1744 53.6633L34.2284 53.3762C34.2327 53.3451 34.2278 53.3145 34.2108 53.2878C34.194 53.2641 34.1681 53.244 34.1401 53.2395C34.081 53.2306 34.0151 53.2654 34.0034 53.3278Z" fill="black"/>
<path d="M30.7767 49.4204C30.9243 49.4117 30.9106 49.181 30.763 49.1898C30.6154 49.1985 30.6291 49.4291 30.7767 49.4204Z" fill="black"/>
<path d="M47.084 42.6103L47.0924 42.7517C47.0942 42.7825 47.1083 42.8125 47.1311 42.8327C47.1411 42.8445 47.1537 42.8499 47.1695 42.8552C47.1821 42.8606 47.1977 42.8627 47.2131 42.8618C47.2438 42.86 47.2738 42.8459 47.2941 42.8231C47.3144 42.8003 47.325 42.7719 47.323 42.7381L47.3147 42.5966C47.3129 42.5659 47.2987 42.5359 47.2759 42.5156C47.266 42.5039 47.2533 42.4984 47.2376 42.4932C47.2249 42.4878 47.2094 42.4856 47.194 42.4865C47.1632 42.4883 47.1332 42.5024 47.113 42.5252C47.0927 42.548 47.082 42.5764 47.084 42.6103Z" fill="black"/>
<path d="M44.0813 47.771L44.5816 47.8834C44.6409 47.8954 44.7095 47.8543 44.7183 47.7951C44.7272 47.736 44.6926 47.6732 44.63 47.6584L44.1297 47.546C44.0703 47.5341 44.0018 47.5752 43.993 47.6343C43.9841 47.6935 44.0187 47.7562 44.0813 47.771Z" fill="black"/>
<path d="M51.1743 54.9384C55.6747 54.6727 59.1076 50.809 58.8419 46.3086C58.5762 41.8082 54.7126 38.3753 50.2122 38.641C45.7118 38.9067 42.2789 42.7704 42.5445 47.2708C42.8102 51.7712 46.6739 55.2041 51.1743 54.9384Z" fill="#DDFFF1"/>
<path d="M58.6393 46.3206C58.0476 39.4867 49.6105 36.7541 45.0922 41.8099C40.6122 46.888 44.3746 54.8492 51.1577 54.6524C55.4893 54.5355 59.0579 50.693 58.6393 46.3206ZM59.0483 46.2964C59.2595 53.7421 50.7495 58.0337 44.9645 53.2376C40.2054 49.2479 41.2045 41.5025 46.8499 38.8642C52.3388 36.2413 58.8632 40.2347 59.0483 46.2964Z" fill="black"/>
<path d="M50.1822 42.6202C50.4564 43.4495 50.5968 44.3114 50.5959 45.1847C50.5954 45.3328 50.826 45.3192 50.8265 45.1711C50.8263 44.2793 50.6814 43.393 50.4 42.5456C50.3545 42.4033 50.1337 42.478 50.1822 42.6202Z" fill="black"/>
<path d="M53.0449 46.2684C53.0552 46.0764 52.7245 46.1207 52.7669 46.3156C52.7876 46.4039 52.8795 46.4448 52.9625 46.4399C53.0947 46.4321 53.2345 46.396 53.366 46.3759C53.9132 46.2881 54.4634 46.2001 55.0105 46.1122C55.1572 46.0881 55.1436 45.8575 54.9969 45.8816C54.6455 45.9394 54.2939 45.9941 53.9424 46.0518C53.7744 46.0803 53.6062 46.1056 53.4351 46.1342C53.3495 46.1486 53.267 46.1627 53.1813 46.1739C53.1325 46.183 53.0834 46.189 53.0346 46.198C53.0131 46.1993 52.9917 46.2036 52.9704 46.208C52.8995 46.2091 52.8874 46.2653 52.9277 46.374L52.8427 46.3451L52.8492 46.3509L52.8105 46.2699L52.8112 46.2822C52.8015 46.4309 53.0321 46.4172 53.0418 46.2685L53.0449 46.2684Z" fill="black"/>
<path d="M50.8816 50.3336C50.92 50.8281 50.9583 51.3196 50.9967 51.8141C51.0055 51.9617 51.2392 51.9479 51.2274 51.8005C51.1889 51.306 51.1506 50.8145 51.1122 50.32C51.1035 50.1724 50.8698 50.1862 50.8816 50.3336Z" fill="black"/>
<path d="M45.8917 49.1375C46.5475 48.9568 47.1922 48.7429 47.8254 48.4926C47.9641 48.4381 47.8895 48.2203 47.7508 48.2748C47.1176 48.5251 46.473 48.7391 45.8171 48.9197C45.6744 48.959 45.749 49.1768 45.8917 49.1375Z" fill="black"/>
<path d="M46.3241 44.7488C46.7376 45.0114 47.1541 45.2707 47.5676 45.5333C47.619 45.5672 47.6973 45.5349 47.7221 45.484C47.7525 45.4236 47.7243 45.3635 47.6729 45.3296C47.2593 45.067 46.8429 44.8077 46.4293 44.5451C46.3779 44.5112 46.2996 44.5435 46.2749 44.5944C46.2445 44.6548 46.2727 44.7148 46.3241 44.7488Z" fill="black"/>
<path d="M53.0042 49.1929C53.2017 49.6102 53.5579 49.9471 53.996 50.1033C54.0559 50.1244 54.1201 50.1145 54.1505 50.054C54.1753 50.0032 54.1581 49.9209 54.1013 49.8996C53.7198 49.7616 53.3945 49.4784 53.2251 49.1182C53.197 49.0612 53.1424 49.0243 53.0789 49.0466C53.0245 49.0652 52.9793 49.1358 53.0073 49.1927L53.0042 49.1929Z" fill="black"/>
<path d="M47.4729 51.7718C47.6354 51.284 47.9365 50.8435 48.3304 50.5116C48.3774 50.4718 48.3984 50.4089 48.3611 50.3524C48.3305 50.3049 48.2488 50.2788 48.2019 50.3217C47.7579 50.6935 47.4315 51.1757 47.2481 51.7265C47.2269 51.7864 47.2801 51.8511 47.3364 51.8632C47.402 51.8779 47.455 51.8346 47.4731 51.7749L47.4729 51.7718Z" fill="black"/>
<path d="M54.4509 42.1274C54.3037 42.3521 54.1565 42.5768 54.0124 42.8013C53.9784 42.8527 54.011 42.934 54.0617 42.9557C54.125 42.9829 54.1821 42.9579 54.2161 42.9065C54.3633 42.6818 54.5105 42.4571 54.6546 42.2326C54.6886 42.1812 54.656 42.0999 54.6054 42.0782C54.5421 42.051 54.4849 42.076 54.4509 42.1274Z" fill="black"/>
<path d="M47.17 42.2057L47.1783 42.3472C47.1802 42.3779 47.1943 42.4079 47.2171 42.4282C47.227 42.4399 47.2397 42.4454 47.2554 42.4506C47.2681 42.456 47.2836 42.4582 47.299 42.4573C47.3298 42.4555 47.3598 42.4414 47.38 42.4186C47.4003 42.3958 47.411 42.3674 47.409 42.3335L47.4006 42.1921C47.3988 42.1614 47.3847 42.1313 47.3619 42.1111C47.3519 42.0993 47.3393 42.0939 47.3235 42.0887C47.3109 42.0832 47.2953 42.0811 47.2799 42.082C47.2492 42.0838 47.2192 42.0979 47.1989 42.1207C47.1787 42.1435 47.168 42.1719 47.17 42.2057Z" fill="black"/>
<path d="M44.1672 47.3665L44.6675 47.4789C44.7269 47.4908 44.7954 47.4498 44.8043 47.3906C44.8131 47.3315 44.7786 47.2687 44.716 47.2539L44.2156 47.1415C44.1563 47.1295 44.0877 47.1706 44.0789 47.2298C44.07 47.2889 44.1046 47.3517 44.1672 47.3665Z" fill="black"/>
<path d="M55.9187 48.4252L56.2888 48.6841C56.3145 48.7011 56.34 48.715 56.3738 48.713C56.4015 48.7114 56.4346 48.6971 56.4549 48.6743C56.4751 48.6515 56.4856 48.62 56.4838 48.5893C56.4822 48.5616 56.4709 48.5283 56.4451 48.5083L56.0749 48.2493C56.0492 48.2323 56.0237 48.2184 55.9899 48.2204C55.9622 48.222 55.9291 48.2363 55.9089 48.2591C55.8886 48.2819 55.8781 48.3134 55.8799 48.3441C55.8816 48.3718 55.8928 48.4051 55.9187 48.4252Z" fill="black"/>
<path d="M53.603 51.6972L53.549 51.9842C53.5446 52.0154 53.5495 52.0459 53.5665 52.0727C53.5834 52.0964 53.6092 52.1165 53.6373 52.121C53.6964 52.1298 53.7622 52.0951 53.774 52.0327L53.828 51.7456C53.8323 51.7145 53.8275 51.6839 53.8105 51.6571C53.7936 51.6335 53.7678 51.6134 53.7397 51.6089C53.6806 51.6 53.6147 51.6348 53.603 51.6972Z" fill="black"/>
<path d="M50.3763 47.7898C50.5239 47.781 50.5103 47.5504 50.3627 47.5591C50.2151 47.5679 50.2287 47.7985 50.3763 47.7898Z" fill="black"/>
</g>
</g>
<defs>
<clipPath id="clip0_1260_1336">
<rect y="0.522217" width="76" height="76" rx="36.4107" fill="white"/>
</clipPath>
<clipPath id="clip1_1260_1336">
<rect width="58.6213" height="53.0955" fill="white" transform="translate(8.11621 5.51416) rotate(-3.37862)"/>
</clipPath>
<clipPath id="clip2_1260_1336">
<rect width="37.503" height="17.6903" fill="white" transform="translate(21.8076 39.7209) rotate(-3.37862)"/>
</clipPath>
</defs>
</svg>