<?xml version="1.0" encoding="utf-8"?>
<!-- Generator: Adobe Illustrator 23.1.1, SVG Export Plug-In . SVG Version: 6.00 Build 0)  -->
<svg version="1.1" id="Layer_1" xmlns="http://www.w3.org/2000/svg" xmlns:xlink="http://www.w3.org/1999/xlink" x="0px" y="0px"
	 viewBox="0 0 100 100" style="enable-background:new 0 0 100 100;" xml:space="preserve">
<path d="M77.1,57.5c-1-5-4.8-8.9-9.7-10.1c0-6.5,0.6-12.7-4-20c5.3-0.2,9.6-4.6,9.6-9.9c0-1.2,0.2-2.5-1.2-3.5l-9.6-6.8
	C54.9,1.9,44.4,6.8,44,16.1l-0.3,7.8c-1.8,3.9-2.8,8.2-2.8,12.5v24.2c0,10.2-4,19.8-11.2,27c-1.5,1.5-3.1,1.8-4.9,1.8
	c-3.5,0-6.3-2.8-6.3-6.3c0-1.5-1.2-2.8-2.8-2.8c-1.5,0-2.8,1.2-2.8,2.8C13,89.7,18.3,95,24.9,95c3.7,0,6.5-1.2,8.8-3.5
	c1.4-1.4,2.6-2.8,3.8-4.3l12.4-4.9c0.8,4,0.8,6.6,0.8,9.3c0,1.5,1.2,2.8,2.8,2.8h7c1.5,0,2.8-1.2,2.8-2.8s-1.2-2.8-2.8-2.8h-4.2
	c-0.1-2.9-0.4-5.8-1.1-8.6c3.9-1.6,3.8-1.5,4.3-1.9c5-4.1,7.9-10.1,7.9-16.6v-8.4c2.1,1,3.8,3,4.2,5.4c0.3,1.5,1.8,2.5,3.3,2.2
	C76.5,60.5,77.4,59,77.1,57.5L77.1,57.5z"/>
</svg>
