<svg xmlns="http://www.w3.org/2000/svg"  viewBox="0 0 24 24" fill="#27A2A8"><polygon points="12,21 10,21 7,19 6,14 5,11 6,9 6,5 9,2 15,2 18,5 18,9 19,11 18,14 17,19 14,21 12,21" opacity=".3"/><path d="M14,22h-4c-0.197,0-0.391-0.059-0.555-0.168l-3-2c-0.221-0.147-0.374-0.376-0.426-0.636l-0.988-4.939l-0.979-2.94 c-0.084-0.252-0.064-0.526,0.054-0.764L5,8.764V5c0-0.266,0.105-0.52,0.293-0.707l3-3C8.48,1.105,8.734,1,9,1h6 c0.266,0,0.52,0.105,0.707,0.293l3,3C18.895,4.48,19,4.734,19,5v3.764l0.895,1.789c0.118,0.237,0.138,0.512,0.054,0.764 l-0.979,2.94l-0.988,4.939c-0.052,0.26-0.205,0.488-0.426,0.636l-3,2C14.391,21.941,14.197,22,14,22z M10.303,20h3.395l2.403-1.603 l0.919-4.594c0.008-0.04,0.019-0.081,0.032-0.12l0.868-2.606l-0.814-1.63C17.036,9.309,17,9.155,17,9V5.414L14.586,3H9.414L7,5.414 V9c0,0.155-0.036,0.309-0.105,0.447l-0.814,1.63l0.868,2.606c0.014,0.039,0.024,0.08,0.032,0.12l0.919,4.594L10.303,20z"/><path d="M13,8h-2c-0.409,0-0.776-0.249-0.929-0.629l-2-5l1.857-0.742L11.677,6h0.646l1.748-4.371l1.857,0.742l-2,5 C13.776,7.751,13.409,8,13,8z"/><rect width="1.999" height="4.123" x="8" y="9.438" transform="rotate(-75.965 9 11.5)"/><rect width="4.123" height="1.999" x="12.938" y="10.5" transform="rotate(-14.023 15 11.5)"/><path d="M14.772,21.559L12.67,20h-1.34l-2.103,1.559l-1.191-1.607l2.368-1.755C10.577,18.069,10.785,18,11,18h2 c0.215,0,0.423,0.069,0.596,0.196l2.368,1.755L14.772,21.559z"/></svg>