<svg xmlns="http://www.w3.org/2000/svg" viewBox="0 0 576 512"><path d="M80 352H16c-8.84 0-16 7.16-16 16v128c0 8.84 7.16 16 16 16h64c8.84 0 16-7.16 16-16V368c0-8.84-7.16-16-16-16zM64 480H32v-96h32v96zm496-288h-64c-8.84 0-16 7.16-16 16v288c0 8.84 7.16 16 16 16h64c8.84 0 16-7.16 16-16V208c0-8.84-7.16-16-16-16zm-16 288h-32V224h32v256zM502.77 88.68C510.12 93.24 518.71 96 528 96c26.51 0 48-21.49 48-48S554.51 0 528 0s-48 21.49-48 48c0 5.51 1.12 10.71 2.83 15.64l-89.6 71.68c-7.35-4.57-15.94-7.33-25.23-7.33s-17.88 2.76-25.23 7.33l-89.6-71.68C254.88 58.72 256 53.51 256 48c0-26.51-21.49-48-48-48s-48 21.49-48 48c0 7.4 1.81 14.32 4.8 20.58L68.58 164.8C62.32 161.81 55.4 160 48 160c-26.51 0-48 21.49-48 48s21.49 48 48 48 48-21.49 48-48c0-7.4-1.81-14.32-4.8-20.58l96.22-96.22C193.68 94.19 200.6 96 208 96c9.29 0 17.88-2.76 25.23-7.33l89.6 71.68c-1.71 4.93-2.83 10.14-2.83 15.65 0 26.51 21.49 48 48 48s48-21.49 48-48c0-5.51-1.12-10.72-2.83-15.65l89.6-71.67zM528 32c8.82 0 16 7.18 16 16s-7.18 16-16 16-16-7.18-16-16 7.18-16 16-16zM48 224c-8.82 0-16-7.18-16-16s7.18-16 16-16 16 7.18 16 16-7.18 16-16 16zM208 64c-8.82 0-16-7.18-16-16s7.18-16 16-16 16 7.18 16 16-7.18 16-16 16zm160 128c-8.82 0-16-7.18-16-16s7.18-16 16-16 16 7.18 16 16-7.18 16-16 16zm-128 0h-64c-8.84 0-16 7.16-16 16v288c0 8.84 7.16 16 16 16h64c8.84 0 16-7.16 16-16V208c0-8.84-7.16-16-16-16zm-16 288h-32V224h32v256zm176-160h-64c-8.84 0-16 7.16-16 16v160c0 8.84 7.16 16 16 16h64c8.84 0 16-7.16 16-16V336c0-8.84-7.16-16-16-16zm-16 160h-32V352h32v128z"/></svg>