<svg viewBox="0 0 59 66" xmlns="http://www.w3.org/2000/svg">
<g clip-path="url(#clip0_1102_8386)">
<path d="M40.2709 15.7361C40.2709 14.7839 40.6491 13.8707 41.3225 13.1974C41.9958 12.5241 42.909 12.1458 43.8612 12.1458H51.0417C51.9939 12.1458 52.9071 12.5241 53.5804 13.1974C54.2537 13.8707 54.632 14.7839 54.632 15.7361V58.8194H56.4271C56.9032 58.8194 57.3598 59.0086 57.6965 59.3452C58.0331 59.6819 58.2223 60.1385 58.2223 60.6146C58.2223 61.0907 58.0331 61.5473 57.6965 61.8839C57.3598 62.2206 56.9032 62.4097 56.4271 62.4097H2.57297C2.09687 62.4097 1.64027 62.2206 1.30362 61.8839C0.966962 61.5473 0.777832 61.0907 0.777832 60.6146C0.777832 60.1385 0.966962 59.6819 1.30362 59.3452C1.64027 59.0086 2.09687 58.8194 2.57297 58.8194H4.36811V48.0486C4.36811 47.0964 4.74637 46.1832 5.41968 45.5099C6.09299 44.8366 7.00619 44.4583 7.95839 44.4583H15.1389C16.0911 44.4583 17.0043 44.8366 17.6777 45.5099C18.351 46.1832 18.7292 47.0964 18.7292 48.0486V58.8194H22.3195V33.6875C22.3195 32.7353 22.6978 31.8221 23.3711 31.1488C24.0444 30.4755 24.9576 30.0972 25.9098 30.0972H33.0903C34.0425 30.0972 34.9557 30.4755 35.629 31.1488C36.3023 31.8221 36.6806 32.7353 36.6806 33.6875V58.8194H40.2709V15.7361ZM43.8612 58.8194H51.0417V15.7361H43.8612V58.8194ZM33.0903 58.8194V33.6875H25.9098V58.8194H33.0903ZM15.1389 58.8194V48.0486H7.95839V58.8194H15.1389Z" />
</g>
<g clip-path="url(#clip1_1102_8386)">
<path d="M28.6125 0.334511C28.7189 0.227803 28.8453 0.143142 28.9845 0.0853777C29.1238 0.0276129 29.273 -0.00212097 29.4237 -0.00212097C29.5744 -0.00212097 29.7237 0.0276129 29.8629 0.0853777C30.0021 0.143142 30.1285 0.227803 30.235 0.334511L37.11 7.20951C37.2167 7.31595 37.3013 7.44239 37.3591 7.5816C37.4169 7.72081 37.4466 7.87004 37.4466 8.02076C37.4466 8.17148 37.4169 8.32071 37.3591 8.45992C37.3013 8.59913 37.2167 8.72557 37.11 8.83201L14.1933 31.7487C14.0833 31.8579 13.9524 31.9436 13.8083 32.0008L2.34996 36.5841C2.14173 36.6674 1.91362 36.6878 1.6939 36.6428C1.47418 36.5977 1.27253 36.4891 1.11393 36.3305C0.955329 36.1719 0.846765 35.9703 0.801694 35.7506C0.756623 35.5308 0.777026 35.3027 0.860376 35.0945L5.44371 23.6362C5.50084 23.4921 5.58659 23.3611 5.69579 23.2512L28.6125 0.334511ZM26.4606 5.72909L31.7154 10.9839L34.6785 8.02076L29.4237 2.76597L26.4606 5.72909ZM30.0952 12.6041L24.8404 7.3493L9.94454 22.2451V22.9166H11.0904C11.3943 22.9166 11.6857 23.0373 11.9006 23.2522C12.1155 23.4671 12.2362 23.7585 12.2362 24.0624V25.2083H13.382C13.6859 25.2083 13.9774 25.329 14.1923 25.5439C14.4072 25.7587 14.5279 26.0502 14.5279 26.3541V27.4999H15.1993L30.0952 12.6041ZM7.72621 24.4635L7.48329 24.7064L3.98163 33.4628L12.7381 29.9612L12.981 29.7183C12.7624 29.6366 12.574 29.4901 12.4409 29.2985C12.3078 29.1068 12.2364 28.8791 12.2362 28.6458V27.4999H11.0904C10.7865 27.4999 10.495 27.3792 10.2801 27.1643C10.0653 26.9494 9.94454 26.658 9.94454 26.3541V25.2083H8.79871C8.56537 25.2081 8.33765 25.1367 8.14599 25.0036C7.95433 24.8705 7.80788 24.682 7.72621 24.4635Z" />
</g>
<defs>
<clipPath id="clip0_1102_8386">
<rect width="57.4444" height="57.4444" fill="white" transform="translate(0.777832 8.55556)"/>
</clipPath>
<clipPath id="clip1_1102_8386">
<rect width="36.6667" height="36.6667" fill="white" transform="translate(0.777832)"/>
</clipPath>
</defs>
</svg>
