<svg xmlns="http://www.w3.org/2000/svg" viewBox="0 0 448 512"><path d="M224 480a32 32 0 0 1-32-32h-32a64 64 0 1 0 128 0h-32a32 32 0 0 1-32 32zm209.37-145.19c-28-26.62-49.34-54.48-49.34-148.9 0-79.6-63.37-144.5-144-152.36V16a16 16 0 0 0-32 0v17.56C127.35 41.41 64 106.31 64 185.91c0 94.4-21.41 122.28-49.35 148.9a46.47 46.47 0 0 0-11.27 51.24A47.68 47.68 0 0 0 48 416h352a47.67 47.67 0 0 0 44.62-30 46.47 46.47 0 0 0-11.25-51.19zM400 384H48c-14.22 0-21.35-16.47-11.32-26C71.54 324.8 96 287.66 96 185.91 96 118.53 153.22 64 224 64s128 54.52 128 121.91c0 101.34 24.22 138.68 59.28 172.07C421.37 367.56 414.16 384 400 384zM296 224h-56v-56a8 8 0 0 0-8-8h-16a8 8 0 0 0-8 8v56h-56a8 8 0 0 0-8 8v16a8 8 0 0 0 8 8h56v56a8 8 0 0 0 8 8h16a8 8 0 0 0 8-8v-56h56a8 8 0 0 0 8-8v-16a8 8 0 0 0-8-8z"/></svg>