<svg viewBox="0 0 31 30" fill="none" xmlns="http://www.w3.org/2000/svg">
<g>
    <rect width="27.9992" height="28" fill="transparent" transform="matrix(1 0 -2.76372e-05 1 1.75 1)"/>

<path d="M6.7336 24.0156C9.12456 26.4067 12.3674 27.75 15.7489 27.75C19.1303 27.75 22.3733 26.4067 24.7644 24.0156C27.1554 21.6245 28.4988 18.3815 28.4989 15C28.499 11.6185 27.1558 8.37548 24.7649 5.98439C22.3739 3.5933 19.131 2.25 15.7496 2.25C12.3682 2.25 9.12519 3.5933 6.7341 5.98439C4.34301 8.37548 2.99966 11.6185 2.99956 15C2.99947 18.3815 4.34264 21.6245 6.7336 24.0156ZM25.2946 24.5459C22.7629 27.0777 19.3292 28.5 15.7489 28.5C12.1685 28.5 8.7349 27.0777 6.2033 24.5459C3.6717 22.0142 2.24951 18.5804 2.24961 15C2.24971 11.4196 3.67209 7.98579 6.20383 5.45405C8.73557 2.92231 12.1693 1.5 15.7496 1.5C19.3299 1.5 22.7636 2.92231 25.2952 5.45405C27.8268 7.98579 29.2489 11.4196 29.2488 15C29.2487 18.5804 27.8264 22.0142 25.2946 24.5459Z" stroke="black"/>
<path d="M9.24618 22.7574C9.44714 22.8734 9.68596 22.9048 9.9101 22.8448C10.1343 22.7847 10.3254 22.6381 10.4414 22.4371C10.9789 21.5055 11.7523 20.732 12.6837 20.1943C13.6152 19.6567 14.6719 19.374 15.7473 19.3746C18.0135 19.3746 19.9927 20.6049 21.0531 22.4371C21.17 22.6364 21.3609 22.7815 21.5843 22.8405C21.8077 22.8996 22.0453 22.8679 22.2454 22.7524C22.4455 22.6368 22.5918 22.4468 22.6523 22.2238C22.7129 22.0009 22.6828 21.763 22.5686 21.5621C21.8776 20.3645 20.8834 19.37 19.6859 18.6788C18.4884 17.9876 17.13 17.624 15.7474 17.6246C14.3648 17.6243 13.0065 17.9881 11.8091 18.6793C10.6117 19.3705 9.61729 20.3647 8.92597 21.5621C8.80994 21.7631 8.77849 22.0019 8.83854 22.2261C8.89859 22.4502 9.04522 22.6413 9.24618 22.7574ZM21.4805 8.09237C21.5833 8.03984 21.6955 8.00818 21.8107 7.99922C21.9258 7.99026 22.0416 8.00418 22.1513 8.04017C22.261 8.07617 22.3625 8.13353 22.45 8.20894C22.5374 8.28435 22.6091 8.37633 22.6608 8.47957C22.7125 8.58281 22.7433 8.69527 22.7514 8.81046C22.7594 8.92566 22.7446 9.04131 22.7078 9.15075C22.6709 9.26019 22.6128 9.36126 22.5367 9.44813C22.4606 9.53499 22.3681 9.60593 22.2644 9.65687L20.4987 10.5389C20.8067 11.0114 20.9974 11.6589 20.9974 12.3746C20.9973 13.8236 20.2133 14.9996 19.2474 14.9996C18.2814 14.9996 17.4974 13.8236 17.4975 12.3746C17.4975 11.9424 17.5675 11.5346 17.69 11.1741C17.6086 11.0721 17.551 10.9531 17.5213 10.826C17.4917 10.6989 17.4907 10.5667 17.5186 10.4392C17.5464 10.3116 17.6023 10.1919 17.6822 10.0886C17.7621 9.98539 17.864 9.90127 17.9805 9.84237L21.4805 8.09237V8.09237ZM10.0148 8.09237C9.8076 7.99053 9.56854 7.97472 9.34972 8.04838C9.1309 8.12205 8.95006 8.27922 8.84662 8.48564C8.74317 8.69207 8.72551 8.93101 8.79747 9.15039C8.86943 9.36978 9.02518 9.55183 9.23079 9.65687L10.9965 10.5389C10.6587 11.0908 10.4856 11.7277 10.4977 12.3746C10.4976 13.8236 11.2816 14.9996 12.2476 14.9996C13.2135 14.9996 13.9975 13.8236 13.9976 12.3746C13.9976 11.9424 13.9276 11.5346 13.8051 11.1741C13.8865 11.0721 13.9441 10.9531 13.9738 10.826C14.0035 10.6989 14.0044 10.5667 13.9766 10.4392C13.9488 10.3116 13.8929 10.1919 13.813 10.0886C13.7331 9.98539 13.6312 9.90127 13.5147 9.84237L10.0148 8.09237V8.09237Z" fill="black"/>
</g>

</svg>
