<svg width="20" viewBox="0 0 18 18" xmlns="http://www.w3.org/2000/svg">
<g clip-path="url(#clip0_2633_13471)">
<path d="M17.4795 9.00002C17.4795 11.2489 16.5862 13.4057 14.9959 14.9959C13.4057 16.5862 11.2489 17.4795 9.00002 17.4795C6.75112 17.4795 4.59432 16.5862 3.0041 14.9959C1.41388 13.4057 0.520508 11.2489 0.520508 9.00002C0.520508 6.75112 1.41388 4.59432 3.0041 3.0041C4.59432 1.41388 6.75112 0.520508 9.00002 0.520508C11.2489 0.520508 13.4057 1.41388 14.9959 3.0041C16.5862 4.59432 17.4795 6.75112 17.4795 9.00002ZM9.00002 4.76027C8.86605 4.76034 8.73359 4.78848 8.61115 4.84286C8.48872 4.89725 8.37904 4.97668 8.28917 5.07603C8.1993 5.17539 8.13124 5.29247 8.08937 5.41972C8.0475 5.54698 8.03276 5.6816 8.04608 5.81491L8.41706 9.53211C8.42952 9.67814 8.49634 9.81418 8.60429 9.91331C8.71224 10.0124 8.85346 10.0674 9.00002 10.0674C9.14658 10.0674 9.28781 10.0124 9.39576 9.91331C9.50371 9.81418 9.57053 9.67814 9.58299 9.53211L9.95397 5.81491C9.96729 5.6816 9.95254 5.54698 9.91068 5.41972C9.86881 5.29247 9.80075 5.17539 9.71088 5.07603C9.62101 4.97668 9.51133 4.89725 9.38889 4.84286C9.26646 4.78848 9.13399 4.76034 9.00002 4.76027ZM9.00214 11.1199C8.72103 11.1199 8.45143 11.2316 8.25265 11.4304C8.05388 11.6291 7.9422 11.8987 7.9422 12.1798C7.9422 12.461 8.05388 12.7306 8.25265 12.9293C8.45143 13.1281 8.72103 13.2398 9.00214 13.2398C9.28326 13.2398 9.55286 13.1281 9.75163 12.9293C9.95041 12.7306 10.0621 12.461 10.0621 12.1798C10.0621 11.8987 9.95041 11.6291 9.75163 11.4304C9.55286 11.2316 9.28326 11.1199 9.00214 11.1199Z" fill="#CC0000"/>
</g>
<defs>
<clipPath id="clip0_2633_13471">
<rect width="16.959" height="16.959" fill="white" transform="translate(0.520508 0.520508)"/>
</clipPath>
</defs>
</svg>
