<svg viewBox="0 0 44 44" xmlns="http://www.w3.org/2000/svg">
<rect width="44" height="44" rx="22" fill="#3EAAAF" fill-opacity="0.08"/>
<g>
<path d="M22 32.5C24.7848 32.5 27.4555 31.3938 29.4246 29.4246C31.3938 27.4555 32.5 24.7848 32.5 22C32.5 19.2152 31.3938 16.5445 29.4246 14.5754C27.4555 12.6062 24.7848 11.5 22 11.5V32.5ZM22 34C18.8174 34 15.7652 32.7357 13.5147 30.4853C11.2643 28.2348 10 25.1826 10 22C10 18.8174 11.2643 15.7652 13.5147 13.5147C15.7652 11.2643 18.8174 10 22 10C25.1826 10 28.2348 11.2643 30.4853 13.5147C32.7357 15.7652 34 18.8174 34 22C34 25.1826 32.7357 28.2348 30.4853 30.4853C28.2348 32.7357 25.1826 34 22 34Z" fill="#24959A"/>
</g>
</svg>
