<svg viewBox="0 0 22 14" xmlns="http://www.w3.org/2000/svg">
<path fill-rule="evenodd" clip-rule="evenodd" d="M2 0C0.895431 0 0 0.89543 0 2V12C0 13.1046 0.89543 14 2 14H20C21.1046 14 22 13.1046 22 12V2C22 0.895431 21.1046 0 20 0H2ZM11.0757 10V3.60156H9.98145V8.19385L7.10303 3.60156H6V10H7.10303V5.4165L9.97266 10H11.0757ZM15.0396 3.60156H15.3032L17.7202 10H16.5601L16.0423 8.50146H13.5654L13.0488 10H11.8931L14.3013 3.60156H14.5605H15.0396ZM13.8668 7.62695H15.7402L14.8024 4.91255L13.8668 7.62695Z" fill="#C4C4C4"/>
</svg>
