<svg xmlns="http://www.w3.org/2000/svg" viewBox="0 0 512 512"><path d="M20 24h10c6.627 0 12 5.373 12 12v94.625C85.196 57.047 165.239 7.715 256.793 8.001 393.18 8.428 504.213 120.009 504 256.396 503.786 393.181 392.834 504 256 504c-63.926 0-122.202-24.187-166.178-63.908-5.113-4.618-5.354-12.561-.482-17.433l7.069-7.069c4.503-4.503 11.749-4.714 16.482-.454C150.782 449.238 200.935 470 256 470c117.744 0 214-95.331 214-214 0-117.744-95.331-214-214-214-82.862 0-154.737 47.077-190.289 116H164c6.627 0 12 5.373 12 12v10c0 6.627-5.373 12-12 12H20c-6.627 0-12-5.373-12-12V36c0-6.627 5.373-12 12-12zm321.647 315.235l4.706-6.47c3.898-5.36 2.713-12.865-2.647-16.763L272 263.853V116c0-6.627-5.373-12-12-12h-8c-6.627 0-12 5.373-12 12v164.147l84.884 61.734c5.36 3.899 12.865 2.714 16.763-2.646z"/></svg>