<svg viewBox="0 0 36 36" xmlns="http://www.w3.org/2000/svg">
<path d="M17.7501 35.4999C22.4576 35.4999 26.9724 33.6298 30.3012 30.301C33.6299 26.9723 35.5 22.4575 35.5 17.7499C35.5 13.0424 33.6299 8.5276 30.3012 5.19884C26.9724 1.87008 22.4576 0 17.7501 0C13.0425 0 8.52772 1.87008 5.19896 5.19884C1.8702 8.5276 0.00012207 13.0424 0.00012207 17.7499C0.00012207 22.4575 1.8702 26.9723 5.19896 30.301C8.52772 33.6298 13.0425 35.4999 17.7501 35.4999ZM19.8135 14.6171L17.5947 25.0563C17.4394 25.8106 17.6591 26.2388 18.2692 26.2388C18.6997 26.2388 19.3498 26.0835 19.7913 25.693L19.5961 26.616C18.9593 27.3837 17.5548 27.9428 16.3456 27.9428C14.7858 27.9428 14.1224 27.0065 14.5529 25.0163L16.1903 17.3217C16.3323 16.6716 16.2036 16.4364 15.5535 16.2789L14.5529 16.0992L14.7348 15.2539L19.8157 14.6171H19.8135ZM17.7501 12.2031C17.1616 12.2031 16.5973 11.9693 16.1812 11.5532C15.7651 11.1371 15.5313 10.5728 15.5313 9.98434C15.5313 9.39589 15.7651 8.83155 16.1812 8.41545C16.5973 7.99936 17.1616 7.7656 17.7501 7.7656C18.3385 7.7656 18.9029 7.99936 19.3189 8.41545C19.735 8.83155 19.9688 9.39589 19.9688 9.98434C19.9688 10.5728 19.735 11.1371 19.3189 11.5532C18.9029 11.9693 18.3385 12.2031 17.7501 12.2031Z" />
</svg>
