<svg viewBox="0 0 32 32" xmlns="http://www.w3.org/2000/svg">
<g>
    <rect width="32" height="32" fill="transparent"/>

<g >
    <rect width="32.155" height="32.155" fill="transparent" transform="translate(-0.339844 -0.647461)"/>

<path d="M27.7958 9.40104C28.3288 9.40104 28.8399 9.61278 29.2168 9.98967C29.5937 10.3666 29.8054 10.8777 29.8054 11.4107V21.4592C29.8054 21.9922 29.5937 22.5033 29.2168 22.8802C28.8399 23.2571 28.3288 23.4688 27.7958 23.4688H3.67953C3.14653 23.4688 2.63535 23.2571 2.25846 22.8802C1.88158 22.5033 1.66984 21.9922 1.66984 21.4592V11.4107C1.66984 10.8777 1.88158 10.3666 2.25846 9.98967C2.63535 9.61278 3.14653 9.40104 3.67953 9.40104H27.7958ZM3.67953 7.39136C2.61352 7.39136 1.59118 7.81483 0.837403 8.5686C0.0836245 9.32238 -0.339844 10.3447 -0.339844 11.4107L-0.339844 21.4592C-0.339844 22.5252 0.0836245 23.5475 0.837403 24.3013C1.59118 25.0551 2.61352 25.4785 3.67953 25.4785H27.7958C28.8618 25.4785 29.8841 25.0551 30.6379 24.3013C31.3917 23.5475 31.8151 22.5252 31.8151 21.4592V11.4107C31.8151 10.3447 31.3917 9.32238 30.6379 8.5686C29.8841 7.81483 28.8618 7.39136 27.7958 7.39136H3.67953Z" fill-opacity="0.54"/>
<path d="M25.7862 19.9518C25.7862 19.8186 25.8392 19.6908 25.9334 19.5965C26.0276 19.5023 26.1554 19.4494 26.2887 19.4494H27.2935C27.4267 19.4494 27.5545 19.5023 27.6488 19.5965C27.743 19.6908 27.7959 19.8186 27.7959 19.9518V20.9567C27.7959 21.0899 27.743 21.2177 27.6488 21.3119C27.5545 21.4061 27.4267 21.4591 27.2935 21.4591H26.2887C26.1554 21.4591 26.0276 21.4061 25.9334 21.3119C25.8392 21.2177 25.7862 21.0899 25.7862 20.9567V19.9518ZM25.7862 15.9324C25.7862 15.7992 25.8392 15.6714 25.9334 15.5772C26.0276 15.4829 26.1554 15.43 26.2887 15.43H27.2935C27.4267 15.43 27.5545 15.4829 27.6488 15.5772C27.743 15.6714 27.7959 15.7992 27.7959 15.9324V16.9373C27.7959 17.0705 27.743 17.1983 27.6488 17.2925C27.5545 17.3868 27.4267 17.4397 27.2935 17.4397H26.2887C26.1554 17.4397 26.0276 17.3868 25.9334 17.2925C25.8392 17.1983 25.7862 17.0705 25.7862 16.9373V15.9324ZM15.7378 15.9324C15.7378 15.7992 15.7907 15.6714 15.885 15.5772C15.9792 15.4829 16.107 15.43 16.2402 15.43H17.2451C17.3783 15.43 17.5061 15.4829 17.6003 15.5772C17.6946 15.6714 17.7475 15.7992 17.7475 15.9324V16.9373C17.7475 17.0705 17.6946 17.1983 17.6003 17.2925C17.5061 17.3868 17.3783 17.4397 17.2451 17.4397H16.2402C16.107 17.4397 15.9792 17.3868 15.885 17.2925C15.7907 17.1983 15.7378 17.0705 15.7378 16.9373V15.9324ZM19.7572 15.9324C19.7572 15.7992 19.8101 15.6714 19.9043 15.5772C19.9986 15.4829 20.1263 15.43 20.2596 15.43H23.2741C23.4074 15.43 23.5352 15.4829 23.6294 15.5772C23.7236 15.6714 23.7765 15.7992 23.7765 15.9324V16.9373C23.7765 17.0705 23.7236 17.1983 23.6294 17.2925C23.5352 17.3868 23.4074 17.4397 23.2741 17.4397H20.2596C20.1263 17.4397 19.9986 17.3868 19.9043 17.2925C19.8101 17.1983 19.7572 17.0705 19.7572 16.9373V15.9324ZM21.7669 19.9518C21.7669 19.8186 21.8198 19.6908 21.914 19.5965C22.0082 19.5023 22.136 19.4494 22.2693 19.4494H23.2741C23.4074 19.4494 23.5352 19.5023 23.6294 19.5965C23.7236 19.6908 23.7765 19.8186 23.7765 19.9518V20.9567C23.7765 21.0899 23.7236 21.2177 23.6294 21.3119C23.5352 21.4061 23.4074 21.4591 23.2741 21.4591H22.2693C22.136 21.4591 22.0082 21.4061 21.914 21.3119C21.8198 21.2177 21.7669 21.0899 21.7669 20.9567V19.9518ZM11.7184 15.9324C11.7184 15.7992 11.7714 15.6714 11.8656 15.5772C11.9598 15.4829 12.0876 15.43 12.2209 15.43H13.2257C13.3589 15.43 13.4867 15.4829 13.581 15.5772C13.6752 15.6714 13.7281 15.7992 13.7281 15.9324V16.9373C13.7281 17.0705 13.6752 17.1983 13.581 17.2925C13.4867 17.3868 13.3589 17.4397 13.2257 17.4397H12.2209C12.0876 17.4397 11.9598 17.3868 11.8656 17.2925C11.7714 17.1983 11.7184 17.0705 11.7184 16.9373V15.9324ZM7.69906 15.9324C7.69906 15.7992 7.75199 15.6714 7.84621 15.5772C7.94044 15.4829 8.06823 15.43 8.20148 15.43H9.20632C9.33957 15.43 9.46737 15.4829 9.56159 15.5772C9.65581 15.6714 9.70875 15.7992 9.70875 15.9324V16.9373C9.70875 17.0705 9.65581 17.1983 9.56159 17.2925C9.46737 17.3868 9.33957 17.4397 9.20632 17.4397H8.20148C8.06823 17.4397 7.94044 17.3868 7.84621 17.2925C7.75199 17.1983 7.69906 17.0705 7.69906 16.9373V15.9324ZM3.67969 15.9324C3.67969 15.7992 3.73262 15.6714 3.82684 15.5772C3.92107 15.4829 4.04886 15.43 4.18211 15.43H5.18695C5.3202 15.43 5.448 15.4829 5.54222 15.5772C5.63644 15.6714 5.68937 15.7992 5.68937 15.9324V16.9373C5.68937 17.0705 5.63644 17.1983 5.54222 17.2925C5.448 17.3868 5.3202 17.4397 5.18695 17.4397H4.18211C4.04886 17.4397 3.92107 17.3868 3.82684 17.2925C3.73262 17.1983 3.67969 17.0705 3.67969 16.9373V15.9324ZM25.7862 11.9131C25.7862 11.7798 25.8392 11.652 25.9334 11.5578C26.0276 11.4636 26.1554 11.4106 26.2887 11.4106H27.2935C27.4267 11.4106 27.5545 11.4636 27.6488 11.5578C27.743 11.652 27.7959 11.7798 27.7959 11.9131V12.9179C27.7959 13.0512 27.743 13.179 27.6488 13.2732C27.5545 13.3674 27.4267 13.4203 27.2935 13.4203H26.2887C26.1554 13.4203 26.0276 13.3674 25.9334 13.2732C25.8392 13.179 25.7862 13.0512 25.7862 12.9179V11.9131ZM21.7669 11.9131C21.7669 11.7798 21.8198 11.652 21.914 11.5578C22.0082 11.4636 22.136 11.4106 22.2693 11.4106H23.2741C23.4074 11.4106 23.5352 11.4636 23.6294 11.5578C23.7236 11.652 23.7765 11.7798 23.7765 11.9131V12.9179C23.7765 13.0512 23.7236 13.179 23.6294 13.2732C23.5352 13.3674 23.4074 13.4203 23.2741 13.4203H22.2693C22.136 13.4203 22.0082 13.3674 21.914 13.2732C21.8198 13.179 21.7669 13.0512 21.7669 12.9179V11.9131ZM17.7475 11.9131C17.7475 11.7798 17.8004 11.652 17.8946 11.5578C17.9889 11.4636 18.1167 11.4106 18.2499 11.4106H19.2548C19.388 11.4106 19.5158 11.4636 19.61 11.5578C19.7042 11.652 19.7572 11.7798 19.7572 11.9131V12.9179C19.7572 13.0512 19.7042 13.179 19.61 13.2732C19.5158 13.3674 19.388 13.4203 19.2548 13.4203H18.2499C18.1167 13.4203 17.9889 13.3674 17.8946 13.2732C17.8004 13.179 17.7475 13.0512 17.7475 12.9179V11.9131ZM13.7281 11.9131C13.7281 11.7798 13.781 11.652 13.8753 11.5578C13.9695 11.4636 14.0973 11.4106 14.2305 11.4106H15.2354C15.3686 11.4106 15.4964 11.4636 15.5906 11.5578C15.6849 11.652 15.7378 11.7798 15.7378 11.9131V12.9179C15.7378 13.0512 15.6849 13.179 15.5906 13.2732C15.4964 13.3674 15.3686 13.4203 15.2354 13.4203H14.2305C14.0973 13.4203 13.9695 13.3674 13.8753 13.2732C13.781 13.179 13.7281 13.0512 13.7281 12.9179V11.9131ZM9.70875 11.9131C9.70875 11.7798 9.76168 11.652 9.8559 11.5578C9.95012 11.4636 10.0779 11.4106 10.2112 11.4106H11.216C11.3493 11.4106 11.4771 11.4636 11.5713 11.5578C11.6655 11.652 11.7184 11.7798 11.7184 11.9131V12.9179C11.7184 13.0512 11.6655 13.179 11.5713 13.2732C11.4771 13.3674 11.3493 13.4203 11.216 13.4203H10.2112C10.0779 13.4203 9.95012 13.3674 9.8559 13.2732C9.76168 13.179 9.70875 13.0512 9.70875 12.9179V11.9131ZM3.67969 11.9131C3.67969 11.7798 3.73262 11.652 3.82684 11.5578C3.92107 11.4636 4.04886 11.4106 4.18211 11.4106H7.19664C7.32989 11.4106 7.45768 11.4636 7.5519 11.5578C7.64613 11.652 7.69906 11.7798 7.69906 11.9131V12.9179C7.69906 13.0512 7.64613 13.179 7.5519 13.2732C7.45768 13.3674 7.32989 13.4203 7.19664 13.4203H4.18211C4.04886 13.4203 3.92107 13.3674 3.82684 13.2732C3.73262 13.179 3.67969 13.0512 3.67969 12.9179V11.9131ZM3.67969 19.9518C3.67969 19.8186 3.73262 19.6908 3.82684 19.5965C3.92107 19.5023 4.04886 19.4494 4.18211 19.4494H5.18695C5.3202 19.4494 5.448 19.5023 5.54222 19.5965C5.63644 19.6908 5.68937 19.8186 5.68937 19.9518V20.9567C5.68937 21.0899 5.63644 21.2177 5.54222 21.3119C5.448 21.4061 5.3202 21.4591 5.18695 21.4591H4.18211C4.04886 21.4591 3.92107 21.4061 3.82684 21.3119C3.73262 21.2177 3.67969 21.0899 3.67969 20.9567V19.9518ZM7.69906 19.9518C7.69906 19.8186 7.75199 19.6908 7.84621 19.5965C7.94044 19.5023 8.06823 19.4494 8.20148 19.4494H19.2548C19.388 19.4494 19.5158 19.5023 19.61 19.5965C19.7042 19.6908 19.7572 19.8186 19.7572 19.9518V20.9567C19.7572 21.0899 19.7042 21.2177 19.61 21.3119C19.5158 21.4061 19.388 21.4591 19.2548 21.4591H8.20148C8.06823 21.4591 7.94044 21.4061 7.84621 21.3119C7.75199 21.2177 7.69906 21.0899 7.69906 20.9567V19.9518Z" />
</g>
<g >
    <rect width="16" height="16" fill="transparent" transform="translate(7.73828 0.0632324)"/>

<path d="M17.432 7.20984L17.432 7.20982L17.4282 7.21375L16.8296 7.82562C16.8294 7.82587 16.8291 7.82612 16.8289 7.82637C16.5809 8.0778 16.336 8.34875 16.1635 8.71403C16.0453 8.96424 15.9691 9.24058 15.9321 9.56339H15.5787C15.6194 9.03482 15.852 8.55566 16.2082 8.1945L16.2086 8.19411L17.0318 7.35766C17.3719 7.02462 17.5723 6.5641 17.5723 6.0634C17.5723 5.05392 16.7484 4.23006 15.7389 4.23006C14.9027 4.23006 14.1938 4.79546 13.9751 5.5634H13.6302C13.8557 4.6075 14.7138 3.89673 15.7389 3.89673C16.9361 3.89673 17.9056 4.8662 17.9056 6.0634C17.9056 6.51214 17.7221 6.91978 17.432 7.20984ZM15.7389 0.896729C11.7828 0.896729 8.57227 4.10725 8.57227 8.06339C8.57227 12.0195 11.7828 15.2301 15.7389 15.2301C19.6951 15.2301 22.9056 12.0195 22.9056 8.06339C22.9056 4.10725 19.6951 0.896729 15.7389 0.896729ZM15.5723 12.2301V11.8967H15.9056V12.2301H15.5723Z" fill-opacity="0.87" stroke="white"/>
</g>
</g>
</svg>
