<svg viewBox="0 0 13 14" xmlns="http://www.w3.org/2000/svg">
<g clip-path="url(#clip0_2199_12097)">
<path d="M3.64902 4.87542C3.75408 4.87542 3.85483 4.83368 3.92912 4.7594C4.0034 4.68511 4.04514 4.58436 4.04514 4.4793C4.04514 4.37425 4.0034 4.2735 3.92912 4.19921C3.85483 4.12492 3.75408 4.08319 3.64902 4.08319C3.54397 4.08319 3.44322 4.12492 3.36893 4.19921C3.29464 4.2735 3.25291 4.37425 3.25291 4.4793C3.25291 4.58436 3.29464 4.68511 3.36893 4.7594C3.44322 4.83368 3.54397 4.87542 3.64902 4.87542ZM2.46068 4.4793C2.46068 4.58436 2.41895 4.68511 2.34467 4.7594C2.27038 4.83368 2.16963 4.87542 2.06457 4.87542C1.95951 4.87542 1.85876 4.83368 1.78448 4.7594C1.71019 4.68511 1.66846 4.58436 1.66846 4.4793C1.66846 4.37425 1.71019 4.2735 1.78448 4.19921C1.85876 4.12492 1.95951 4.08319 2.06457 4.08319C2.16963 4.08319 2.27038 4.12492 2.34467 4.19921C2.41895 4.2735 2.46068 4.37425 2.46068 4.4793Z" fill-opacity="0.6"/>
<path d="M0.0839844 4.08317C0.0839844 3.66295 0.250917 3.25994 0.54806 2.96279C0.845203 2.66565 1.24822 2.49872 1.66844 2.49872H11.1752C11.5954 2.49872 11.9984 2.66565 12.2955 2.96279C12.5927 3.25994 12.7596 3.66295 12.7596 4.08317V4.8754C12.7596 5.29562 12.5927 5.69864 12.2955 5.99578C11.9984 6.29292 11.5954 6.45985 11.1752 6.45985H6.81791V8.83653C7.13308 8.83653 7.43534 8.96173 7.6582 9.18459C7.88106 9.40745 8.00626 9.70971 8.00626 10.0249H12.3635C12.4686 10.0249 12.5693 10.0666 12.6436 10.1409C12.7179 10.2152 12.7596 10.3159 12.7596 10.421C12.7596 10.526 12.7179 10.6268 12.6436 10.7011C12.5693 10.7754 12.4686 10.8171 12.3635 10.8171H8.00626C8.00626 11.1323 7.88106 11.4345 7.6582 11.6574C7.43534 11.8802 7.13308 12.0054 6.81791 12.0054H6.02569C5.71052 12.0054 5.40826 11.8802 5.1854 11.6574C4.96255 11.4345 4.83735 11.1323 4.83735 10.8171H0.480098C0.375042 10.8171 0.274289 10.7754 0.200003 10.7011C0.125718 10.6268 0.0839844 10.526 0.0839844 10.421C0.0839844 10.3159 0.125718 10.2152 0.200003 10.1409C0.274289 10.0666 0.375042 10.0249 0.480098 10.0249H4.83735C4.83735 9.70971 4.96255 9.40745 5.1854 9.18459C5.40826 8.96173 5.71052 8.83653 6.02569 8.83653V6.45985H1.66844C1.24822 6.45985 0.845203 6.29292 0.54806 5.99578C0.250917 5.69864 0.0839844 5.29562 0.0839844 4.8754V4.08317ZM0.876211 4.08317V4.8754C0.876211 5.08551 0.959678 5.28702 1.10825 5.43559C1.25682 5.58416 1.45833 5.66763 1.66844 5.66763H11.1752C11.3853 5.66763 11.5868 5.58416 11.7354 5.43559C11.8839 5.28702 11.9674 5.08551 11.9674 4.8754V4.08317C11.9674 3.87306 11.8839 3.67155 11.7354 3.52298C11.5868 3.37441 11.3853 3.29095 11.1752 3.29095H1.66844C1.45833 3.29095 1.25682 3.37441 1.10825 3.52298C0.959678 3.67155 0.876211 3.87306 0.876211 4.08317ZM5.62957 10.0249V10.8171C5.62957 10.9222 5.67131 11.0229 5.74559 11.0972C5.81988 11.1715 5.92063 11.2132 6.02569 11.2132H6.81791C6.92297 11.2132 7.02372 11.1715 7.09801 11.0972C7.1723 11.0229 7.21403 10.9222 7.21403 10.8171V10.0249C7.21403 9.91982 7.1723 9.81907 7.09801 9.74478C7.02372 9.6705 6.92297 9.62876 6.81791 9.62876H6.02569C5.92063 9.62876 5.81988 9.6705 5.74559 9.74478C5.67131 9.81907 5.62957 9.91982 5.62957 10.0249Z" />
</g>
<defs>
<clipPath id="clip0_2199_12097">
<rect width="12.6756" height="12.6756" transform="translate(0.0839844 0.914276)"/>
</clipPath>
</defs>
</svg>
