<svg viewBox="0 0 100 100" xmlns="http://www.w3.org/2000/svg">
<rect width="100" height="100" rx="13.1579"  fill-opacity="0.08"/>
<g clip-path="url(#clip0_14_12)">
<path d="M36.875 65C36.3777 65 35.9008 64.8025 35.5492 64.4508C35.1975 64.0992 35 63.6223 35 63.125V55.625C35 55.1277 35.1975 54.6508 35.5492 54.2992C35.9008 53.9475 36.3777 53.75 36.875 53.75H40.625C41.1223 53.75 41.5992 53.9475 41.9508 54.2992C42.3025 54.6508 42.5 55.1277 42.5 55.625V63.125C42.5 63.6223 42.3025 64.0992 41.9508 64.4508C41.5992 64.8025 41.1223 65 40.625 65H36.875ZM48.125 65C47.6277 65 47.1508 64.8025 46.7992 64.4508C46.4475 64.0992 46.25 63.6223 46.25 63.125V48.125C46.25 47.6277 46.4475 47.1508 46.7992 46.7992C47.1508 46.4475 47.6277 46.25 48.125 46.25H51.875C52.3723 46.25 52.8492 46.4475 53.2008 46.7992C53.5525 47.1508 53.75 47.6277 53.75 48.125V63.125C53.75 63.6223 53.5525 64.0992 53.2008 64.4508C52.8492 64.8025 52.3723 65 51.875 65H48.125ZM59.375 65C58.8777 65 58.4008 64.8025 58.0492 64.4508C57.6975 64.0992 57.5 63.6223 57.5 63.125V40.625C57.5 40.1277 57.6975 39.6508 58.0492 39.2992C58.4008 38.9475 58.8777 38.75 59.375 38.75H63.125C63.6223 38.75 64.0992 38.9475 64.4508 39.2992C64.8025 39.6508 65 40.1277 65 40.625V63.125C65 63.6223 64.8025 64.0992 64.4508 64.4508C64.0992 64.8025 63.6223 65 63.125 65H59.375Z"  fill-opacity="0.5"/>
<path d="M35 20C33.0109 20 31.1032 20.7902 29.6967 22.1967C28.2902 23.6032 27.5 25.5109 27.5 27.5V72.5C27.5 74.4891 28.2902 76.3968 29.6967 77.8033C31.1032 79.2098 33.0109 80 35 80H65C66.9891 80 68.8968 79.2098 70.3033 77.8033C71.7098 76.3968 72.5 74.4891 72.5 72.5V27.5C72.5 25.5109 71.7098 23.6032 70.3033 22.1967C68.8968 20.7902 66.9891 20 65 20H35ZM35 23.75H65C65.9946 23.75 66.9484 24.1451 67.6516 24.8483C68.3549 25.5516 68.75 26.5054 68.75 27.5V72.5C68.75 73.4946 68.3549 74.4484 67.6516 75.1516C66.9484 75.8549 65.9946 76.25 65 76.25H35C34.0054 76.25 33.0516 75.8549 32.3483 75.1516C31.6451 74.4484 31.25 73.4946 31.25 72.5V27.5C31.25 26.5054 31.6451 25.5516 32.3483 24.8483C33.0516 24.1451 34.0054 23.75 35 23.75V23.75Z"  fill-opacity="0.5"/>
</g>
<defs>
<clipPath id="clip0_14_12">
<rect width="60" height="60" fill="white" transform="translate(20 20)"/>
</clipPath>
</defs>
</svg>
