<svg viewBox="0 0 26 20" xmlns="http://www.w3.org/2000/svg">
<path fill-rule="evenodd" clip-rule="evenodd" d="M1.11657 0.397539C0.979908 0.301587 0.817004 0.250071 0.650024 0.25C0.483045 0.250071 0.320141 0.301587 0.183482 0.397539C0.0468245 0.493491 -0.0569525 0.629218 -0.113726 0.78625L-3.16873 9.1875H-8.28748C-8.50296 9.1875 -8.70963 9.2731 -8.862 9.42548C-9.01437 9.57785 -9.09998 9.78451 -9.09998 10C-9.09998 10.2155 -9.01437 10.4222 -8.862 10.5745C-8.70963 10.7269 -8.50296 10.8125 -8.28748 10.8125H-2.59998C-2.43319 10.8125 -2.27043 10.7613 -2.13379 10.6656C-1.99716 10.57 -1.89327 10.4346 -1.83623 10.2779L0.650024 3.4415L6.38627 19.2137C6.4432 19.3706 6.54705 19.5061 6.68369 19.6019C6.82034 19.6977 6.98316 19.749 7.15002 19.749C7.31689 19.749 7.47971 19.6977 7.61635 19.6019C7.753 19.5061 7.85684 19.3706 7.91377 19.2137L10.9688 10.8125H12.5125H16.0875H18.2C18.3668 10.8125 18.5296 10.7613 18.6662 10.6656C18.8028 10.57 18.9067 10.4346 18.9638 10.2779L21.45 3.4415L27.1863 19.2137C27.2432 19.3706 27.347 19.5061 27.4837 19.6019C27.6203 19.6977 27.7832 19.749 27.95 19.749C28.1169 19.749 28.2797 19.6977 28.4164 19.6019C28.553 19.5061 28.6568 19.3706 28.7138 19.2137L31.7688 10.8125H36.8875C36.9425 10.8125 36.9969 10.8069 37.05 10.7961C37.1031 10.8069 37.1575 10.8125 37.2125 10.8125H42.9C43.0668 10.8125 43.2296 10.7613 43.3662 10.6656C43.5028 10.57 43.6067 10.4346 43.6638 10.2779L46.15 3.4415L51.8863 19.2137C51.9432 19.3706 52.0471 19.5061 52.1837 19.6019C52.3203 19.6977 52.4832 19.749 52.65 19.749C52.8169 19.749 52.9797 19.6977 53.1164 19.6019C53.253 19.5061 53.3568 19.3706 53.4138 19.2137L56.4688 10.8125H61.5875C61.803 10.8125 62.0097 10.7269 62.162 10.5745C62.3144 10.4222 62.4 10.2155 62.4 10C62.4 9.78451 62.3144 9.57785 62.162 9.42548C62.0097 9.2731 61.803 9.1875 61.5875 9.1875H55.9C55.7334 9.18733 55.5708 9.23837 55.4342 9.33371C55.2976 9.42905 55.1936 9.56407 55.1363 9.7205L52.65 16.5585L46.9138 0.78625C46.857 0.629218 46.7532 0.493491 46.6166 0.397539C46.4799 0.301587 46.317 0.250071 46.15 0.25C45.983 0.250071 45.8201 0.301587 45.6835 0.397539C45.5468 0.493491 45.443 0.629218 45.3863 0.78625L42.3313 9.1875H37.2125C37.1575 9.1875 37.1031 9.19308 37.05 9.20391C36.9969 9.19308 36.9425 9.1875 36.8875 9.1875H31.2C31.0334 9.18733 30.8708 9.23837 30.7342 9.33371C30.5976 9.42905 30.4936 9.56407 30.4363 9.7205L27.95 16.5585L22.2138 0.78625C22.157 0.629218 22.0532 0.493491 21.9166 0.397539C21.7799 0.301587 21.617 0.250071 21.45 0.25C21.283 0.250071 21.1201 0.301587 20.9835 0.397539C20.8468 0.493491 20.743 0.629218 20.6863 0.78625L17.6313 9.1875H16.0875H12.5125H10.4C10.2334 9.18733 10.0708 9.23837 9.9342 9.33371C9.79759 9.42905 9.69358 9.56407 9.63627 9.7205L7.15002 16.5585L1.41377 0.78625C1.357 0.629218 1.25322 0.493491 1.11657 0.397539Z" fill="#42AE5E"/>
</svg>
