<svg viewBox="0 0 16 16" xmlns="http://www.w3.org/2000/svg">
<path fill-rule="evenodd" clip-rule="evenodd" d="M5.91227 11.9011C5.39211 11.9011 4.95864 11.485 4.9413 10.9648C4.92397 10.7741 4.97598 10.5834 5.06267 10.462C4.09171 8.78017 3.57155 6.64752 4.36913 4.42818C4.9413 2.76367 6.38041 1.63666 7.94089 1.63666C9.60539 1.63666 11.3393 3.0931 11.5473 5.90196C11.2872 5.81527 10.9058 5.6939 10.6804 5.64188C10.6284 4.72293 9.84813 2.43423 8.01024 2.46891C7.35137 2.48625 6.38041 2.79835 5.87759 3.43987C5.27074 4.18544 4.92397 5.08704 4.85461 6.12736C4.75058 7.51445 5.04534 8.79751 5.75622 9.97653C5.7909 9.9592 5.84291 9.9592 5.87759 9.9592H5.91227C6.43243 9.9592 6.86589 10.3753 6.88323 10.8955C6.90057 11.433 6.48444 11.8838 5.94694 11.9011H5.91227ZM13.7562 8.52019C12.4385 6.97705 10.4966 6.12746 8.27721 6.12746H7.99979C7.84374 5.81536 7.51431 5.6073 7.1502 5.6073H7.11552C6.57802 5.62464 6.16189 6.07544 6.17923 6.61294C6.19657 7.1331 6.63004 7.54923 7.1502 7.54923H7.18487C7.56632 7.53189 7.89576 7.28915 8.03447 6.95971H8.34656C9.6643 6.95971 10.9127 7.34116 12.0397 8.08672C12.9066 8.6589 13.5308 9.40446 13.8776 10.3061C14.1723 11.0343 14.155 11.7452 13.8429 12.352C13.3574 13.271 12.5425 13.7738 11.4675 13.7738C10.774 13.7738 10.1151 13.5657 9.76833 13.4097C9.5776 13.5831 9.23083 13.8605 8.98809 14.0339C9.73365 14.3806 10.4966 14.5714 11.2248 14.5714C12.8893 14.5714 14.1203 13.6524 14.5885 12.7335C15.0913 11.7278 15.0566 9.99397 13.7562 8.52019ZM10.7045 10.6702C11.2073 10.6182 11.5888 10.1847 11.5714 9.66454C11.5541 9.14438 11.1206 8.72825 10.6005 8.72825H10.5658C10.0283 8.74559 9.61215 9.1964 9.62949 9.73389C9.64683 9.99397 9.75086 10.2194 9.90691 10.3754C9.3174 11.5371 8.41579 12.3867 7.06338 13.0976C6.14443 13.5831 5.1908 13.7565 4.23718 13.6351C3.45694 13.5311 2.85009 13.1843 2.46864 12.6121C1.91381 11.7625 1.86179 10.8436 2.32993 9.92462C2.65937 9.26575 3.17952 8.78027 3.50896 8.53753C3.4396 8.31213 3.33557 7.93068 3.28356 7.65326C0.769456 9.47381 1.02954 11.9359 1.79243 13.0976C2.36461 13.9645 3.5263 14.502 4.80936 14.502C5.15613 14.502 5.5029 14.4673 5.84967 14.3806C8.06902 13.9472 9.75086 12.6294 10.7045 10.6702Z" fill="black"/>
</svg>
