<svg viewBox="0 0 7 7" xmlns="http://www.w3.org/2000/svg">
<path d="M0.743484 5.68096C0.713974 5.52234 0.699219 5.35081 0.699219 5.16638C0.699219 5.05202 0.704752 4.94505 0.715818 4.84545C0.726884 4.74586 0.74164 4.64626 0.760083 4.54666L2.30383 2.14528H0.865213C0.854147 2.08257 0.844925 2.01433 0.837547 1.94055C0.833859 1.86678 0.832014 1.79116 0.832014 1.71369C0.832014 1.6141 0.835703 1.51634 0.843081 1.42044C0.850458 1.32084 0.861524 1.23231 0.876279 1.15485H3.34406C3.35144 1.22124 3.35697 1.28949 3.36066 1.35957C3.36804 1.42966 3.37173 1.50528 3.37173 1.58643C3.37173 1.64914 3.36988 1.72107 3.36619 1.80222C3.36251 1.87969 3.35513 1.98297 3.34406 2.11208L1.80031 4.5024H3.37726C3.39202 4.58724 3.40124 4.6813 3.40493 4.78459C3.4123 4.88419 3.41599 4.98747 3.41599 5.09445C3.41599 5.20511 3.4123 5.31208 3.40493 5.41537C3.40124 5.51496 3.39202 5.60349 3.37726 5.68096H0.743484Z" fill="#D6742D"/>
<path d="M3.60176 5.68096C3.57225 5.52234 3.5575 5.35081 3.5575 5.16638C3.5575 5.05202 3.56303 4.94505 3.5741 4.84545C3.58516 4.74586 3.59992 4.64626 3.61836 4.54666L5.16211 2.14528H3.72349C3.71242 2.08257 3.7032 2.01433 3.69582 1.94055C3.69214 1.86678 3.69029 1.79116 3.69029 1.71369C3.69029 1.6141 3.69398 1.51634 3.70136 1.42044C3.70873 1.32084 3.7198 1.23231 3.73456 1.15485H6.20234C6.20972 1.22124 6.21525 1.28949 6.21894 1.35957C6.22632 1.42966 6.23 1.50528 6.23 1.58643C6.23 1.64914 6.22816 1.72107 6.22447 1.80222C6.22078 1.87969 6.21341 1.98297 6.20234 2.11208L4.65859 4.5024H6.23554C6.25029 4.58724 6.25951 4.6813 6.2632 4.78459C6.27058 4.88419 6.27427 4.98747 6.27427 5.09445C6.27427 5.20511 6.27058 5.31208 6.2632 5.41537C6.25951 5.51496 6.25029 5.60349 6.23554 5.68096H3.60176Z" fill="#D6742D"/>
<path fill-rule="evenodd" clip-rule="evenodd" d="M0.327927 6.18096L0.251919 5.77241C0.216068 5.57971 0.199219 5.37723 0.199219 5.16638C0.199219 5.03609 0.205513 4.91051 0.218876 4.79024C0.231291 4.67851 0.247823 4.56696 0.268442 4.45562L0.286341 4.35897L1.388 2.64528H0.445723L0.372821 2.23217C0.359265 2.15535 0.348454 2.07456 0.340029 1.9903L0.338792 1.97794L0.338171 1.96552C0.334047 1.88304 0.332014 1.79908 0.332014 1.71369C0.332014 1.60199 0.336143 1.49167 0.344499 1.38279C0.352935 1.2692 0.366039 1.16141 0.38511 1.06129L0.462528 0.654846H6.64986L6.69928 1.09963C6.70733 1.17205 6.7134 1.24573 6.71756 1.32065C6.72607 1.40635 6.73 1.49512 6.73 1.58643C6.73 1.65854 6.72789 1.73828 6.72396 1.82493L6.72391 1.82601C6.71978 1.91256 6.71181 2.02294 6.70051 2.15478L6.68988 2.27879L5.57672 4.0024H6.65609L6.72814 4.41673C6.74697 4.52495 6.75795 4.63885 6.76253 4.75708C6.77041 4.86682 6.77427 4.97931 6.77427 5.09445C6.77427 5.21325 6.77041 5.32933 6.76253 5.44259C6.75791 5.55803 6.74672 5.66946 6.72671 5.77451L6.64929 6.18096H0.327927ZM3.37726 5.68096C3.39202 5.60349 3.40124 5.51496 3.40493 5.41537C3.41069 5.33462 3.41421 5.25163 3.41547 5.16638C3.41582 5.14257 3.41599 5.1186 3.41599 5.09445C3.41599 5.00257 3.41327 4.91341 3.40783 4.82698C3.40694 4.81278 3.40597 4.79865 3.40493 4.78459C3.40124 4.6813 3.39202 4.58724 3.37726 4.5024H1.80031L3.34406 2.11208C3.34832 2.06244 3.35203 2.01662 3.35519 1.97462C3.35562 1.96885 3.35605 1.96315 3.35646 1.95752C3.36088 1.89758 3.36412 1.84581 3.36619 1.80222C3.3676 1.77138 3.36873 1.74187 3.3696 1.71369C3.37102 1.66773 3.37173 1.62531 3.37173 1.58643C3.37173 1.51895 3.36918 1.45529 3.36407 1.39545C3.36405 1.39513 3.3641 1.39578 3.36407 1.39545C3.36306 1.38367 3.36187 1.37106 3.36066 1.35957C3.35697 1.28949 3.35144 1.22124 3.34406 1.15485H0.876279C0.861524 1.23231 0.850458 1.32084 0.843081 1.42044C0.835703 1.51634 0.832014 1.6141 0.832014 1.71369C0.832014 1.79116 0.833859 1.86678 0.837547 1.94055C0.844925 2.01433 0.854147 2.08257 0.865213 2.14528H2.30383L0.760083 4.54666C0.74164 4.64626 0.726884 4.74586 0.715818 4.84545C0.704752 4.94505 0.699219 5.05202 0.699219 5.16638C0.699219 5.35081 0.713974 5.52234 0.743484 5.68096H3.37726ZM3.71015 1.32278C3.70949 1.3289 3.70885 1.33507 3.70823 1.34128C3.70566 1.36684 3.70337 1.39323 3.70136 1.42044C3.69715 1.47517 3.69414 1.5305 3.69233 1.58643C3.69097 1.62851 3.69029 1.67093 3.69029 1.71369C3.69029 1.7485 3.69066 1.78294 3.69141 1.81701C3.69141 1.81724 3.6914 1.81677 3.69141 1.81701C3.69232 1.85851 3.6938 1.90016 3.69582 1.94055C3.70317 2.01406 3.71236 2.08207 3.72337 2.14459C3.72341 2.14482 3.72333 2.14436 3.72337 2.14459L5.16211 2.14528L3.61836 4.54666C3.60449 4.62158 3.5927 4.69649 3.583 4.7714C3.58271 4.77369 3.58241 4.77597 3.58212 4.77826C3.57926 4.80066 3.57658 4.82306 3.5741 4.84545C3.56538 4.92388 3.5601 5.00687 3.55825 5.09445C3.55775 5.11809 3.5575 5.14207 3.5575 5.16638C3.5575 5.25432 3.56085 5.33932 3.56756 5.42139C3.56771 5.42327 3.56787 5.42514 3.56802 5.42702C3.5754 5.51505 3.58664 5.5997 3.60176 5.68096H6.23554C6.25029 5.60349 6.25951 5.51496 6.2632 5.41537C6.27058 5.31208 6.27427 5.20511 6.27427 5.09445C6.27427 4.98747 6.27058 4.88419 6.2632 4.78459C6.25951 4.6813 6.25029 4.58724 6.23554 4.5024H4.65859L6.20234 2.11208C6.21341 1.98297 6.22078 1.87969 6.22447 1.80222C6.22816 1.72107 6.23 1.64914 6.23 1.58643C6.23 1.50528 6.22632 1.42966 6.21894 1.35957C6.21525 1.28949 6.20972 1.22124 6.20234 1.15485H3.73456C3.72481 1.206 3.71668 1.26198 3.71015 1.32278ZM3.37384 4.0024L4.24627 2.64528H3.59491L2.71844 4.0024H3.37384Z" fill="white"/>
</svg>
