<svg xmlns="http://www.w3.org/2000/svg" viewBox="0 0 512 512"><defs><style>.fa-secondary{opacity:.4}</style></defs><path d="M8 454.06V320a24 24 0 0 1 24-24h134.06c21.38 0 32.09 25.85 17 41l-41.75 41.75A166.82 166.82 0 0 0 256.16 424c77.41-.07 144.31-53.14 162.78-126.85a12 12 0 0 1 11.65-9.15h57.31a12 12 0 0 1 11.81 14.18C478.07 417.08 377.19 504 256 504a247.14 247.14 0 0 1-171.31-68.69L49 471c-15.15 15.15-41 4.44-41-16.94z" class="fa-secondary"/><path d="M12.3 209.82C33.93 94.92 134.81 8 256 8a247.14 247.14 0 0 1 171.31 68.69L463 41c15.12-15.12 41-4.41 41 17v134a24 24 0 0 1-24 24H345.94c-21.38 0-32.09-25.85-17-41l41.75-41.75A166.8 166.8 0 0 0 255.85 88c-77.46.07-144.33 53.18-162.79 126.85A12 12 0 0 1 81.41 224H24.1a12 12 0 0 1-11.8-14.18z" class="fa-primary"/></svg>