<svg xmlns="http://www.w3.org/2000/svg" viewBox="0 0 448 512"><path d="M331.328 240C355.031 213.566 368 179.781 368 144 368 64.417 303.596 0 224 0 144.417 0 80 64.404 80 144c0 35.781 12.969 69.566 36.672 96C44.863 240 0 293.844 0 352v116c0 24.262 19.738 44 44 44h360c24.262 0 44-19.738 44-44V352c0-58.421-45.117-112-116.672-112zM224 32c61.856 0 112 50.144 112 112s-50.144 112-112 112-112-50.144-112-112S162.144 32 224 32zm192 436c0 6.627-5.373 12-12 12H44c-6.627 0-12-5.373-12-12V352c0-44.183 35.817-80 80-80h45.898c41.196 21.333 90.958 21.359 132.204 0H336c44.183 0 80 35.817 80 80v116z"/></svg>