<svg width="15" height="14" viewBox="0 0 15 14" fill="none" xmlns="http://www.w3.org/2000/svg">
<g id="UserSwitch">
<path id="Vector" d="M11.5259 4.23058C11.5259 2.08995 9.79154 0.355577 7.65092 0.355577C5.51029 0.355577 3.77592 2.08995 3.77592 4.23058C3.77592 5.52433 4.41029 6.6712 5.38529 7.37433C5.37904 7.37745 5.37436 7.37901 5.37123 7.38058C4.67279 7.67589 4.04623 8.09933 3.50717 8.63995C2.97122 9.17493 2.54453 9.80912 2.25092 10.5071C1.96203 11.1907 1.80612 11.923 1.79154 12.665C1.79113 12.6816 1.79405 12.6982 1.80015 12.7137C1.80624 12.7293 1.81538 12.7434 1.82703 12.7554C1.83868 12.7673 1.8526 12.7768 1.86797 12.7833C1.88335 12.7897 1.89986 12.7931 1.91654 12.7931H2.85248C2.91967 12.7931 2.97592 12.7384 2.97748 12.6712C3.00873 11.465 3.49154 10.3353 4.34623 9.47902C5.22904 8.59308 6.40092 8.10558 7.65092 8.10558C9.79154 8.10558 11.5259 6.3712 11.5259 4.23058ZM7.65092 6.91808C6.16654 6.91808 4.96342 5.71495 4.96342 4.23058C4.96342 2.7462 6.16654 1.54308 7.65092 1.54308C9.13529 1.54308 10.3384 2.7462 10.3384 4.23058C10.3384 5.71495 9.13529 6.91808 7.65092 6.91808ZM9.29154 10.3712H13.4165C13.4853 10.3712 13.5415 10.315 13.5415 10.2462V9.3712C13.5415 9.30245 13.4853 9.2462 13.4165 9.2462H10.6587L11.3962 8.30714C11.4132 8.28522 11.4226 8.25832 11.4228 8.23058C11.4228 8.16183 11.3665 8.10558 11.2978 8.10558H10.1634C10.0869 8.10558 10.015 8.14151 9.96654 8.20089L8.89623 9.56183C8.82748 9.64933 8.78998 9.7587 8.78998 9.8712C8.79154 10.1478 9.01498 10.3712 9.29154 10.3712ZM13.0415 11.3712H8.91654C8.84779 11.3712 8.79154 11.4275 8.79154 11.4962V12.3712C8.79154 12.44 8.84779 12.4962 8.91654 12.4962H11.6744L10.9369 13.4353C10.9198 13.4572 10.9105 13.4841 10.9103 13.5118C10.9103 13.5806 10.9665 13.6368 11.0353 13.6368H12.1697C12.2462 13.6368 12.3181 13.6009 12.3665 13.5415L13.4369 12.1806C13.5056 12.0931 13.5431 11.9837 13.5431 11.8712C13.5415 11.5946 13.3181 11.3712 13.0415 11.3712Z" fill="black" fill-opacity="0.85"/>
</g>
</svg>
