<svg xmlns="http://www.w3.org/2000/svg" fill="none" viewBox="0 0 32 32">
<rect width="32" height="32" rx="10" fill="#FFEEEE"/>
<path d="M22 12V10C22 9.46957 21.7893 8.96086 21.4142 8.58579C21.0391 8.21071 20.5304 8 20 8H8C7.46957 8 6.96086 8.21071 6.58579 8.58579C6.21071 8.96086 6 9.46957 6 10V17C6 17.5304 6.21071 18.0391 6.58579 18.4142C6.96086 18.7893 7.46957 19 8 19H16" stroke="black" stroke-width="2" stroke-linecap="round" stroke-linejoin="round"/>
<path d="M14 23V19.04V22.19" stroke="black" stroke-width="2" stroke-linecap="round" stroke-linejoin="round"/>
<path d="M11 23H16" stroke="black" stroke-width="2" stroke-linecap="round" stroke-linejoin="round"/>
<path d="M24 16H22C20.8954 16 20 16.8954 20 18V24C20 25.1046 20.8954 26 22 26H24C25.1046 26 26 25.1046 26 24V18C26 16.8954 25.1046 16 24 16Z" stroke="black" stroke-width="2" stroke-linecap="round" stroke-linejoin="round"/>
</svg>