<svg xmlns="http://www.w3.org/2000/svg"  viewBox="0 0 24 24" fill="#27A2A8"><circle cx="5" cy="8" r="2" opacity=".35"/><circle cx="19" cy="8" r="2" opacity=".35"/><rect width="4" height="4" x="10" y="3" opacity=".35"/><path d="M17.986,12.27C17.99,12.18,18,12.091,18,12c0-2.612-1.67-5.176-4-6h-4c-2.33,0.824-4,3.388-4,6 c0,0.091,0.01,0.18,0.014,0.27C5.411,12.614,5,13.256,5,14c0,2,2,2.71,2,2.71v1.79c0,1.381,2.239,2.5,5,2.5s5-1.119,5-2.5v-1.793 c0,0,2-0.707,2-2.707C19,13.256,18.589,12.614,17.986,12.27z" opacity=".35"/><path d="M12,22c-3.421,0-6-1.505-6-3.5v-1.173C5.209,16.858,4,15.84,4,14c0-0.855,0.373-1.665,1.004-2.229 C5.098,8.788,7.03,5.989,9.667,5.057L9.828,5h4.344l0.161,0.057c2.637,0.933,4.569,3.731,4.663,6.715 C19.627,12.335,20,13.145,20,14c0,1.84-1.209,2.857-2,3.325V18.5C18,20.495,15.421,22,12,22z M10.182,7C8.357,7.73,7,9.848,7,12 l0.039,0.835l-0.528,0.303C6.19,13.32,6,13.643,6,14c0,1.253,1.288,1.75,1.343,1.771l0.648,0.243L8,18.5c0,0.529,1.519,1.5,4,1.5 s4-0.971,4-1.5V16l0.667-0.235C16.714,15.747,18,15.252,18,14c0-0.357-0.19-0.68-0.511-0.862l-0.528-0.303L17,12 c0-2.152-1.357-4.27-3.182-5H10.182z"/><circle cx="5" cy="8" r="2" fill="none" stroke="#27A2A8" stroke-miterlimit="10" stroke-width="2"/><circle cx="19" cy="8" r="2" fill="none" stroke="#27A2A8" stroke-miterlimit="10" stroke-width="2"/><rect width="8" height="2" x="8" y="5"/><polygon points="15,7 13,7 13,4 11,4 11,7 9,7 9,2 15,2"/><ellipse cx="12" cy="13" rx="2" ry="1"/><path d="M9.807,11.122c0.114,0.091,0.192,0.225,0.192,0.382C9.999,11.778,9.777,12,9.504,12s-0.496-0.222-0.496-0.496	c0-0.156,0.076-0.289,0.189-0.38c-0.69,0.051-1.15,0.246-1.185,0.262C8.008,11.425,8,11.461,8,11.5C8,12.328,8.672,13,9.5,13	s1.5-0.672,1.5-1.5c0-0.038-0.008-0.074-0.011-0.112C10.571,11.226,10.172,11.149,9.807,11.122z"/><path d="M14.193,11.122c-0.114,0.091-0.192,0.225-0.192,0.382c0,0.274,0.222,0.496,0.496,0.496s0.496-0.222,0.496-0.496	c0-0.156-0.076-0.289-0.189-0.38c0.69,0.051,1.15,0.246,1.185,0.262C15.992,11.425,16,11.461,16,11.5c0,0.828-0.672,1.5-1.5,1.5	S13,12.328,13,11.5c0-0.038,0.008-0.074,0.011-0.112C13.429,11.226,13.828,11.149,14.193,11.122z"/><path d="M8,9v1h3C11,10,10,9,8,9z"/><path d="M16,9v1h-3C13,10,14,9,16,9z"/><path d="M8,16c0,0,0.016,1.234,1,1.759V17h1v1c0.111,0,0.503,0,1,0v-1h2v1c0.507,0,0.903,0,1,0v-1h1v0.759	C15.984,17.234,16,16,16,16H8z"/></svg>