<svg xmlns="http://www.w3.org/2000/svg"  viewBox="0 0 24 24" fill="#27A2A8"><path d="M18.92,9C18.434,5.609,15.526,3,12,3S5.566,5.609,5.08,9H18.92z" opacity=".3"/><path d="M17,8H7c-1.654,0-3,1.346-3,3v1h2v-1c0-0.551,0.449-1,1-1h10c0.551,0,1,0.449,1,1v1h2v-1C20,9.346,18.654,8,17,8z"/><path d="M20,11.767V10c0-4.411-3.589-8-8-8s-8,3.589-8,8v1.767C3.372,12.329,3,13.14,3,14c0,1.276,0.823,2.397,1.992,2.816C6.396,20.028,9.043,22,12,22s5.604-1.972,7.008-5.184C20.177,16.397,21,15.276,21,14C21,13.14,20.628,12.329,20,11.767z M18.137,14.981l-0.585,0.081l-0.211,0.551C16.302,18.319,14.256,20,12,20s-4.302-1.681-5.34-4.386l-0.211-0.551l-0.585-0.081C5.371,14.914,5,14.492,5,14c0-0.36,0.186-0.682,0.498-0.861L6,12.851V10c0-3.309,2.691-6,6-6s6,2.691,6,6v2.851l0.502,0.288C18.814,13.318,19,13.64,19,14C19,14.492,18.629,14.914,18.137,14.981z"/></svg>