<svg xmlns="http://www.w3.org/2000/svg"  viewBox="0 0 24 24" fill="#27A2A8"><path d="M20,19c0,0,2.568-1.202,2-4c-0.719-3.54-4.405-10-10-10S2.718,11.46,2,15c-0.568,2.798,2,4,2,4 s1.006-4,8-4S20,19,20,19z" opacity=".3"/><path d="M20,20H4c-0.553,0-1-0.447-1-1s0.447-1,1-1h16c0.553,0,1,0.447,1,1S20.553,20,20,20z"/><path d="M20,20c-0.146,0-0.293-0.032-0.429-0.097c-0.267-0.126-0.463-0.363-0.538-0.647C18.986,19.095,18.009,16,12,16 c-6.038,0-6.996,3.125-7.034,3.258c-0.08,0.282-0.282,0.522-0.549,0.645c-0.266,0.121-0.575,0.129-0.841,0.003 c-1.135-0.53-3.13-2.281-2.556-5.104C1.783,11.035,5.788,4,12,4c6.21,0,10.215,7.035,10.98,10.801 c0.573,2.823-1.422,4.574-2.557,5.104C20.29,19.969,20.145,20,20,20z M12,6c-4.994,0-8.39,6.092-9.02,9.198 c-0.222,1.09,0.201,1.84,0.646,2.303C4.551,16.09,6.798,14,12,14c5.2,0,7.447,2.088,8.372,3.499c0.447-0.466,0.868-1.215,0.648-2.3 C20.389,12.092,16.992,6,12,6z"/><path d="M15.03,13.242l-0.572-2.286l-1.751,1.751c-0.391,0.391-1.023,0.391-1.414,0l-1.751-1.751L8.97,13.242L7.03,12.758l1-4 c0.087-0.35,0.355-0.625,0.703-0.722c0.346-0.097,0.718,0.002,0.974,0.257L12,10.586l2.293-2.293 c0.255-0.255,0.627-0.354,0.974-0.257c0.348,0.097,0.616,0.372,0.703,0.722l1,4L15.03,13.242z"/></svg>