<svg xmlns="http://www.w3.org/2000/svg"  viewBox="0 0 24 24" fill="#27A2A8" fill-rule="evenodd" clip-rule="evenodd"><path fill="none" stroke="#27A2A8" stroke-linecap="round" stroke-linejoin="round" stroke-miterlimit="10" stroke-width="2" d="M11.833,8.999c0.079,0.004,0.643,0.051,0.721,0.057c3.2,0.255,5.847,2.005,6.56,4.665c0.974,3.634-2.029,7.601-6.701,8.853	c-4.672,1.252-9.256-0.682-10.23-4.317C1.675,16.361,2.169,14.465,3.5,12.82"/><path fill="none" stroke="#27A2A8" stroke-linecap="round" stroke-linejoin="round" stroke-miterlimit="10" stroke-width="2" d="M10.138,14c4.063-1.089,7.879-0.043,8.516,2.333c0.636,2.376-2.145,5.189-6.208,6.278c-4.063,1.089-7.879,0.043-8.516-2.333	C3.294,17.902,6.075,15.089,10.138,14z"/><path fill="none" stroke="#27A2A8" stroke-linecap="round" stroke-linejoin="round" stroke-miterlimit="10" stroke-width="2" d="M6,8	c0,0,1.307,2.685,4.191,2C12.959,9.342,12,5.612,10.949,4.245C10.188,3.257,8.635,2,7.138,2C6.401,2,5.265,2,4.281,3.294	c-2.218,2.919-0.817,9.434-0.817,9.434"/><path fill="none" stroke="#27A2A8" stroke-linecap="round" stroke-linejoin="round" stroke-miterlimit="10" stroke-width="2" d="M13,8.999c1.244-0.019,5.449,0.207,7.5-0.256C22.618,8.265,23,6.889,23,5.694C23,4.738,22.353,3,20,3	c-4.238,0-7.955,2.48-8.053,2.53"/><ellipse cx="8" cy="19.5" fill-rule="evenodd" clip-rule="evenodd" rx="1" ry="1.5"/><ellipse cx="15" cy="17.5" fill-rule="evenodd" clip-rule="evenodd" rx="1" ry="1.5"/><path fill-rule="evenodd" d="M11.886,19.318c0.551-0.096,1.05,0.123,1.114,0.49	c0.064,0.367-0.33,0.743-0.881,0.84c-0.55,0.096-1.049-0.123-1.114-0.49C10.941,19.791,11.336,19.414,11.886,19.318z" clip-rule="evenodd"/><path fill-rule="evenodd" d="M4.5,21.287c0,0-1.5-2.388,1-4.787	c1.988-1.908,4.242-2.772,5-2.931c4-0.841,7.503,0.163,7.691,3.163C19.103,16.058,19.5,15.5,19.5,15.5l-3.782-6	c0,0,5.834-0.166,6.558-2S23,4.479,22.5,3.74C22,3,18.625,2.5,17.812,3C17,3.5,11.947,5.5,11.947,5.5S10,1.5,8.5,2S4.5,2.5,4,3.5	s-0.5,9-0.5,9s-2.025,2.588-1.513,4.692C2.5,19.295,4.5,21.287,4.5,21.287z" clip-rule="evenodd" opacity=".3"/></svg>