<svg xmlns="http://www.w3.org/2000/svg"  viewBox="0 0 24 24" fill="#27A2A8"><path d="M17,14c-1.486,1.33-1.872,8-5,8s-2.966-5.888-5-8c-1.173-1.017-3-1.966-3-4c0-0.939,0.905-2.531,2-3 c0,0,0.916-5,6-5s6,5,6,5c1.017,0.391,2,2.061,2,3C20,12.112,18.095,12.983,17,14z" opacity=".3"/><path d="M12,23c-2.616,0-3.472-2.656-4.226-5c-0.417-1.296-0.849-2.636-1.495-3.307c-0.14-0.116-0.368-0.292-0.602-0.473 C4.548,13.344,3,12.144,3,10c0-1.176,0.882-2.854,2.126-3.661C5.691,4.257,7.671,1,12,1c4.325,0,6.306,3.251,6.872,5.333 C20.063,7.111,21,8.848,21,10c0,2.135-1.486,3.283-2.572,4.122c-0.267,0.207-0.525,0.405-0.747,0.61l-0.014,0.013 c-0.346,0.31-0.763,1.575-1.098,2.592C15.739,19.86,14.705,23,12,23z M12,3C7.798,3,7.015,7.01,6.983,7.181L6.887,7.708 L6.395,7.919C5.676,8.228,5,9.442,5,10c0,1.085,0.719,1.722,1.903,2.64c0.264,0.204,0.52,0.403,0.752,0.604 c1.032,1.066,1.536,2.631,2.022,4.143C10.381,19.569,10.922,21,12,21c1.258,0,2.041-2.378,2.67-4.288 c0.491-1.492,0.916-2.782,1.655-3.45c0.262-0.242,0.565-0.479,0.88-0.722C18.322,11.677,19,11.075,19,10 c0-0.573-0.772-1.841-1.358-2.066l-0.524-0.201l-0.101-0.552C16.984,7.014,16.166,3,12,3z"/><path d="M12.899,12.129c0.469,0-0.626-2.112-0.939-2.112c-0.235,0-1.33,2.112-0.939,2.112c0.469,0,0.704-0.469,0.939-0.469 S12.587,12.129,12.899,12.129z"/><path d="M8.001,11c-0.367,0-0.72-0.202-0.896-0.553C6.859,9.955,7.058,9.356,7.548,9.108C7.582,9.09,9,8.333,9,7 c0-0.553,0.447-1,1-1s1,0.447,1,1c0,2.588-2.448,3.843-2.553,3.895C8.304,10.966,8.151,11,8.001,11z"/><path d="M15.997,11c-0.149,0-0.301-0.034-0.444-0.105C15.448,10.843,13,9.588,13,7c0-0.553,0.447-1,1-1s1,0.447,1,1 c0,1.342,1.438,2.101,1.453,2.108c0.488,0.252,0.685,0.854,0.436,1.343C16.712,10.799,16.361,11,15.997,11z"/><path d="M12,20c-0.553,0-1-0.447-1-1v-5c0-0.553,0.447-1,1-1s1,0.447,1,1v5C13,19.553,12.553,20,12,20z"/></svg>