<svg width="210" height="200" viewBox="0 0 210 200" fill="none" xmlns="http://www.w3.org/2000/svg">
<rect width="210" height="200" fill="white"/>
<ellipse opacity="0.1" cx="113.196" cy="98.5413" rx="90.6724" ry="85.8823" fill="url(#paint0_linear_810_966)"/>
<ellipse opacity="0.45" cx="113.196" cy="87.3113" rx="68.533" ry="59.682" fill="#F2F0F3"/>
<g clip-path="url(#clip0_810_966)">
<path d="M127.268 52.9322C119.773 48.5171 109.172 54.0873 104.808 57.4244C103.062 56.1923 105.535 52.2904 106.99 50.4935C120.338 36.632 133.258 37.616 138.05 39.8407C152.425 43.6398 154.992 51.6915 154.478 55.2424C154.786 64.3808 143.654 62.3871 138.05 60.248C136.51 56.7569 130.221 53.9162 127.268 52.9322Z" fill="white"/>
<path d="M73.5425 78.7746C73.4415 86.9914 72.9794 112.017 73.0371 119.83C73.0371 120.906 73.1093 122.631 72.8349 123.678C71.7735 136.198 102.612 135.679 111.038 135.267C112.879 135.188 116.612 134.978 118.453 134.848C120.526 134.783 122.432 133.57 123.407 131.751C123.919 130.841 124.121 129.787 124.172 128.747C124.699 122.068 125.695 109.505 126.237 102.696C126.475 99.9593 127.58 86.5366 127.804 84.0961C127.847 83.1935 128.093 81.5834 128.049 80.6808C128.064 80.2404 127.854 79.5833 127.797 79.1429C124.013 62.3049 111.363 55.987 94.9871 59.0774C89.7884 60.0377 84.6042 61.9006 80.503 65.3158C77.0228 68.3123 74.2429 72.4279 73.5714 77.0273C73.4703 77.5616 73.5281 78.1898 73.5425 78.7602V78.7746ZM71.0804 78.7746C70.8205 76.0959 71.6147 73.4243 72.6905 71.0055C74.8494 66.1606 78.799 62.2688 83.3478 59.6334C87.8028 57.0701 93.0304 55.6477 98.0991 54.8895C105.912 53.7704 114.475 54.7957 120.923 59.7417C127.443 64.7671 131.19 72.5001 132.187 80.4714C132.252 81.6484 131.992 83.309 131.891 84.4932C131.645 86.847 130.237 100.4 129.956 103.057C129.205 109.873 127.847 122.321 127.111 129.029C127.031 129.7 126.937 130.458 126.742 131.115C125.753 134.689 122.324 137.426 118.605 137.426C116.728 137.505 112.98 137.592 111.103 137.614C101.485 137.599 70.0695 137.744 71.4197 123.418C71.6941 122.429 71.5642 120.862 71.593 119.83C71.6508 112.176 71.1815 86.8398 71.0876 78.7746H71.0804Z" fill="#231F20"/>
<path d="M78.25 132.234L82.9721 148.56H95.153V136.069" stroke="#231F20" stroke-width="1.44408" stroke-miterlimit="10"/>
<path d="M101.096 136.415L108.908 147.304H121.038L118.807 136.126" stroke="#231F20" stroke-width="1.44408" stroke-miterlimit="10"/>
<path d="M82.9726 148.56C82.9726 148.56 63.788 159.535 63.1742 167.997C62.6905 174.676 86.5683 173.355 96.6697 172.495C100.554 172.163 103.428 168.575 102.923 164.596C102.453 160.914 100.475 155.694 95.1534 148.553" stroke="#231F20" stroke-width="1.44408" stroke-miterlimit="10"/>
<path d="M108.908 147.303C108.908 147.303 102.864 168.762 108.908 171.838C112.886 173.867 127.053 173.225 136.266 172.546C141.125 172.192 143.566 166.322 140.446 162.473C137.19 158.459 131.378 153.296 121.038 147.296" stroke="#231F20" stroke-width="1.44408" stroke-miterlimit="10"/>
<path d="M72.2715 78.0165C72.2715 78.0165 97.7234 60.6442 130.092 81.7133" stroke="#231F20" stroke-width="1.44408" stroke-miterlimit="10"/>
<path d="M127.804 105.988C102.287 91.3237 72.3081 100.277 72.3081 100.277" stroke="#231F20" stroke-width="1.44408" stroke-miterlimit="10"/>
<path d="M81.1387 73.9225L83.0737 98.2263" stroke="#231F20" stroke-width="1.44408" stroke-miterlimit="10"/>
<path d="M119.039 75.8142L115.334 100.624" stroke="#231F20" stroke-width="1.44408" stroke-miterlimit="10"/>
<path d="M102.352 56.0448C107.659 47.1421 116.085 39.4668 126.62 37.7194C134.519 36.362 142.541 39.0408 149.126 43.3225C154.678 46.3189 157.956 54.2108 154.158 59.7633C151.848 62.7381 147.84 63.2652 144.367 63.0703C141.559 63.0269 138.764 62.0089 136.634 60.1677C130.295 53.9004 121.999 50.7306 113.298 53.7704C110.944 54.4924 108.778 55.7343 106.634 56.9979L105.818 55.8065C106.829 55.1784 108.085 54.2542 109.125 53.7271L110.872 52.8317C120.027 48.3695 130.317 50.8317 137.523 57.72C139.371 59.5539 141.884 60.5865 144.476 60.5865C147.566 60.8031 151.819 60.1099 152.823 56.8824C154.187 52.8606 152.086 48.1385 148.577 45.8785C147.357 45.1131 145.877 44.1384 144.599 43.4958C134.295 37.7772 122.981 38.4415 113.63 45.7846C109.702 48.7811 106.258 52.6007 103.601 56.7524L102.345 56.0448H102.352Z" fill="#231F20"/>
<path d="M72.3079 101.779L47.8018 106.515C44.5165 107.151 42.1338 110.082 42.0905 113.526C42.0255 118.841 43.4335 125.859 51.1665 126.631C52.9644 126.812 54.7695 126.263 56.1919 125.101L72.0263 112.191L72.3079 101.779Z" stroke="#231F20" stroke-width="1.44408" stroke-miterlimit="10"/>
<path d="M42.4804 111.259C42.4804 111.259 33.4694 114.53 36.2853 122.675C37.2962 125.599 39.7006 127.859 42.6682 128.408C44.6321 128.769 46.8632 128.451 48.3651 125.974" stroke="#231F20" stroke-width="1.44408" stroke-miterlimit="10"/>
<path d="M38.378 126.933C31.725 120.455 36.2259 114.349 39.308 112.106L41.7701 128.793L38.378 126.933Z" fill="white" stroke="black" stroke-width="1.18451"/>
<path d="M72.5337 76.1099L72.0728 106.155C81.8786 117.73 95.6356 121.853 101.288 122.467C115.518 122.91 124.421 118.842 127.094 116.753L130.319 79.3356C130.393 74.9856 125.865 67.631 123.592 64.4975C115.702 55.2075 102.241 56.0185 96.4959 57.5853C80.3491 58.2489 73.7933 70.2116 72.5337 76.1099Z" fill="white"/>
<path d="M129.25 108.038L128.539 116.452V118.585L140.98 117.874L159.871 116.452L167.105 110.12L173.091 109.343L176.527 105.906L175.461 100.1L173.091 96.427L169.557 95.2841L163.549 96.427L161.219 95.2841L149.985 97.3749L135.411 104.01L129.25 108.038Z" fill="white"/>
<path d="M128.541 107.702C128.541 107.702 160.296 88.4384 165.17 98.3087C166.867 101.746 167.235 104.865 166.99 107.479C166.571 112.02 162.961 115.551 158.549 115.941L127.804 118.533" stroke="#231F20" stroke-width="1.44408" stroke-miterlimit="10"/>
<path d="M163.602 96.5181C163.602 96.5181 173.119 90.9367 176.014 101.284C178.909 111.63 165.985 110.092 165.985 110.092" stroke="#231F20" stroke-width="1.44408" stroke-miterlimit="10"/>
<path fill-rule="evenodd" clip-rule="evenodd" d="M38.5647 175.296L43.6118 23.1513C43.7444 19.1541 47.4802 16.0341 51.956 16.1826L162.389 19.846C166.865 19.9945 170.386 23.3552 170.253 27.3525L165.206 179.497C165.073 183.494 161.337 186.614 156.862 186.466L46.4286 182.802C41.9529 182.654 38.4321 179.293 38.5647 175.296ZM106.551 122.501C130.302 122.501 149.556 102.671 149.556 78.2093C149.556 53.7477 130.302 33.9176 106.551 33.9176C82.8003 33.9176 63.5463 53.7477 63.5463 78.2093C63.5463 102.671 82.8003 122.501 106.551 122.501Z" fill="#EEEEE4"/>
<path d="M124.978 38.5962L153.473 18.6606H168.279L165.318 125.713L133.929 112.683C152.881 96.574 151.301 72.8048 148.143 62.9339C144.614 54.8143 142.141 51.7598 139.232 48.9961C135.648 45.5915 131.69 39.3858 124.978 38.5962Z" fill="#FFFCE1" stroke="black" stroke-width="1.18451"/>
<path d="M138.723 31.1053L157.881 19.6606L46.2747 17.3303L42.7212 75.9636H60.4888C70.9125 30.9522 109.173 32.2061 125.559 38.5235C129.35 37.1021 129.996 36.0508 138.723 31.1053Z" fill="#E7EFF9" stroke="black" stroke-width="1.18451"/>
<path d="M162.216 20.5217C130.634 19.2311 88.4304 20.2279 57.0072 18.7639C56.1697 18.7896 51.4186 18.3658 50.5811 18.597C48.2489 18.9501 46.4221 20.8507 46.321 22.9502L46.256 24.0161C43.2451 73.4877 40.5952 123.364 38.7252 172.88C38.0609 177.041 40.8335 180.906 45.7867 181.093C64.8775 181.606 103.268 182.614 122.359 182.967C128.612 183.064 145.017 183.385 151.082 183.475L155.869 183.558C156.302 183.571 156.569 183.545 156.901 183.545C159.104 183.372 161.169 182.133 162.107 180.341C162.743 179.32 162.75 178.011 162.757 176.868C162.837 171.622 163.118 156.797 163.198 151.32C163.588 117.797 167.671 60.8389 168.299 27.8492L168.32 26.7834V26.5202C168.393 24.9728 163.934 20.6052 162.208 20.5153L162.216 20.5217ZM162.548 14.6932C169.862 14.8088 175.674 20.6067 175.082 27.0788C173.335 60.3188 169.92 117.707 167.92 151.467L166.938 168.476C166.793 169.49 166.533 178.248 166.223 179.327C165.414 183.629 160.62 186.852 155.761 186.435C136.266 185.593 103.817 184.348 84.0115 183.642L45.7362 182.415C41.3028 182.325 37.4183 178.974 37.2017 175.031C38.8335 127.614 40.0682 79.8057 40.6891 32.3694C40.7902 30.9954 40.6747 22.7576 40.9779 21.39C41.6061 17.5633 45.0647 14.2823 49.3175 13.4476C51.2165 12.9917 55.2382 13.2678 57.2166 13.2421L66.7909 13.3577C94.2789 13.6338 134.959 14.263 162.548 14.6932Z" fill="#231F20"/>
<path d="M83.143 98.6811L81.2178 74.1868C97.8009 68.0274 113.397 72.8049 119.122 75.9636L115.569 100.246C102.776 96.9294 96.8408 97.0008 83.143 98.6811Z" fill="#5BC3C8" stroke="black" stroke-width="1.18451"/>
<path d="M71.501 78.2429C78.83 72.7101 103.405 64.8779 130.35 80.8297" stroke="black" stroke-width="1.18451"/>
<path d="M71.5396 101.914C82.1023 97.6024 107.543 93.4941 128.619 106.827" stroke="black" stroke-width="1.18451"/>
<path d="M148.013 78.7529C147.832 55.857 128.395 37.1273 105.593 37.4811C83.3976 37.1561 63.7726 56.4707 63.787 78.7529C63.3249 95.4537 73.8234 111.707 89.2606 118.183C117.507 130.292 148.518 109.411 148.013 78.7529ZM150.648 78.7529C150.583 96.5078 138.944 113.144 122.612 119.823C93.2679 132.227 60.314 110.631 59.9313 78.7529C59.4042 60.5358 71.0146 42.9036 87.9104 36.0514C117.94 23.3796 151.255 46.391 150.648 78.7601V78.7529Z" fill="#231F20"/>
<path d="M61.0878 75.8142H41.8599" stroke="#231F20" stroke-width="0.72204" stroke-miterlimit="10"/>
<path d="M97.3365 88.0607L97.6745 81.4453C97.6989 80.9672 98.2286 80.6919 98.6338 80.9467L104.742 84.7861C105.17 85.0547 105.12 85.6926 104.657 85.8922L98.2103 88.6683C97.7839 88.8519 97.3129 88.5243 97.3365 88.0607Z" fill="white" stroke="black" stroke-width="0.626691"/>
<rect x="69.645" y="137.614" width="71.2817" height="6.76994" rx="3.38497" fill="black"/>
<rect x="82.9443" y="155.33" width="44.6823" height="4.63856" rx="2.31928" fill="black"/>
<path d="M127.268 52.9322C119.773 48.5171 109.172 54.0873 104.808 57.4244C103.062 56.1923 105.535 52.2904 106.99 50.4935C120.338 36.632 133.258 37.616 138.05 39.8407C152.425 43.6398 154.992 51.6915 154.478 55.2424C154.786 64.3808 143.654 62.3871 138.05 60.248C136.51 56.7569 130.221 53.9162 127.268 52.9322Z" fill="white"/>
<path d="M102.352 56.0448C107.659 47.1421 116.085 39.4668 126.62 37.7194C134.519 36.362 142.541 39.0408 149.126 43.3225C154.678 46.3189 157.956 54.2108 154.158 59.7633C151.848 62.7381 147.84 63.2652 144.367 63.0703C141.559 63.0269 138.764 62.0089 136.634 60.1677C130.295 53.9004 121.999 50.7306 113.298 53.7704C110.944 54.4924 108.778 55.7343 106.634 56.9979L105.818 55.8065C106.829 55.1784 108.085 54.2542 109.125 53.7271L110.872 52.8317C120.027 48.3695 130.317 50.8317 137.523 57.72C139.371 59.5539 141.884 60.5865 144.476 60.5865C147.566 60.8031 151.819 60.1099 152.823 56.8824C154.187 52.8606 152.086 48.1385 148.577 45.8785C147.357 45.1131 145.877 44.1384 144.599 43.4958C134.295 37.7772 122.981 38.4415 113.63 45.7846C109.702 48.7811 106.258 52.6007 103.601 56.7524L102.345 56.0448H102.352Z" fill="#231F20"/>
</g>
<defs>
<linearGradient id="paint0_linear_810_966" x1="113.196" y1="12.659" x2="113.196" y2="184.424" gradientUnits="userSpaceOnUse">
<stop stop-color="#009490"/>
<stop offset="1" stop-color="#009490" stop-opacity="0"/>
</linearGradient>
<clipPath id="clip0_810_966">
<rect width="143.326" height="175.307" fill="white" transform="translate(33.8369 12)"/>
</clipPath>
</defs>
</svg>
