<svg width="210" height="200" viewBox="0 0 210 200" fill="none" xmlns="http://www.w3.org/2000/svg">
<g clip-path="url(#clip0_705_316)">
<rect width="210" height="200" fill="white"/>
<ellipse opacity="0.1" cx="90.4725" cy="90.2572" rx="90.4725" ry="90.2572" transform="matrix(-0.116798 0.993156 -0.989547 0.14421 206.667 -5.49923)" fill="url(#paint0_linear_705_316)"/>
<ellipse opacity="0.05" cx="68.3819" cy="84.151" rx="68.3819" ry="84.151" transform="matrix(-0.116798 0.993156 -0.989547 0.14421 188.519 18.7078)" fill="#122AF5"/>
<g clip-path="url(#clip1_705_316)">
<path d="M180.235 126.963L176.297 126.363L178.523 121.228L179.721 109.843L180.235 106.762L183.231 104.451L185.456 103.509L183.915 94.2647V92.1248L189.394 90.4985L191.191 102.054L197.012 105.135L199.58 109.843L202.661 114.037L205.4 115.407V116.605L201.976 117.718L191.191 120.029L187.425 121.228L183.231 124.138L180.235 126.963Z" fill="#FCE6C0"/>
<path d="M179.488 69.5898C179.362 69.4768 179.261 69.3763 179.161 69.2507L179.337 69.6778C179.324 68.8864 178.582 68.2584 178.306 67.5424C178.054 66.8893 177.878 66.0603 177.953 65.4322C178.104 64.1385 178.997 62.9452 180.242 62.694C180.821 62.5809 181.45 62.694 181.991 62.9703C182.683 63.3095 183.261 63.7868 183.802 64.3394C184.343 64.8921 184.833 65.5327 185.261 66.1984C185.462 66.5125 185.689 66.839 185.689 67.2033C185.689 67.0903 185.588 67.354 185.663 67.2661C185.689 67.2661 185.714 67.2661 185.739 67.2661C185.6 67.3163 185.575 67.3163 185.663 67.2661C185.11 67.2661 184.619 67.6932 184.557 68.2458C184.494 68.7483 184.808 69.4014 185.362 69.4894C186.506 69.6652 187.5 69.0246 187.877 67.9193C188.254 66.8139 187.751 65.7714 187.173 64.8921C186.204 63.3974 184.972 61.9152 183.387 61.0485C181.802 60.1818 179.802 60.0311 178.218 61.0485C176.633 62.066 175.715 63.7617 175.727 65.5704C175.727 66.6129 176.042 67.6429 176.595 68.5222C176.872 68.9618 177.199 69.3763 177.576 69.7406C177.79 69.9541 178.004 70.1425 178.293 70.243C178.381 70.2681 178.545 70.2681 178.62 70.3058C178.431 70.2179 178.809 70.4817 178.809 70.4817C179.337 70.8585 179.966 70.0295 179.488 69.5898Z" fill="#231F20"/>
<path d="M186.304 102.926C184.128 102.386 182.078 104.295 180.946 105.953C179.688 107.775 179.135 109.985 178.808 112.146C178.129 116.617 178.594 122.094 175.299 125.661C174.896 126.101 175.009 126.691 175.475 127.018C177.424 128.412 179.94 127.859 181.801 126.565C184.103 124.97 185.889 122.973 188.505 121.805C191.121 120.637 193.825 120.071 196.554 119.506C199.875 118.828 203.208 118.162 206.541 117.484C207.686 117.245 207.208 115.499 206.063 115.738C200.592 116.856 194.806 117.584 189.536 119.494C187.348 120.285 185.31 121.353 183.524 122.847C181.638 124.43 178.996 127.42 176.343 125.535L176.519 126.892C179.424 123.727 179.738 119.381 180.128 115.311C180.33 113.188 180.506 111.028 181.197 108.993C181.55 107.95 182.053 106.946 182.77 106.104C183.751 104.936 184.908 104.458 186.304 103.931C186.744 103.768 186.832 103.077 186.304 102.951V102.926Z" fill="#231F20"/>
<path d="M190.329 102.336C190.253 102.424 191.989 103.202 192.14 103.278C192.567 103.491 192.982 103.717 193.372 103.969C194.202 104.484 194.957 105.087 195.687 105.752C197.196 107.146 198.29 108.792 199.196 110.626C200.101 112.46 200.931 114.206 202.516 115.437C203.963 116.554 205.862 117.107 207.585 116.291C208.453 115.889 207.836 114.432 206.931 114.746C204.327 115.638 202.466 113.364 201.346 111.329C200.152 109.144 199.108 107.008 197.309 105.225C195.712 103.642 193.599 102.26 191.423 101.645C190.718 101.444 189.599 101.57 189.7 102.549C189.763 103.215 190.63 103.705 191.108 103.114C191.561 102.574 190.819 101.796 190.316 102.323L190.329 102.336Z" fill="#231F20"/>
<path d="M178.091 126.276C177.311 128.588 181.877 128.512 183.097 128.55C186.09 128.65 189.096 128.223 191.964 127.369C197.712 125.648 202.881 122.194 206.604 117.497C207.409 116.492 205.988 115.374 205.195 116.404C202.189 120.335 198.102 123.413 193.511 125.259C191.322 126.138 189.021 126.754 186.681 127.068C186.002 127.156 178.732 127.646 179.059 126.54C179.248 125.912 178.292 125.661 178.091 126.276Z" fill="#231F20"/>
<path d="M190.454 122.835C190.718 122.445 190.555 121.93 190.165 121.704C190.09 121.667 190.002 121.642 189.926 121.604C189.851 121.579 189.976 121.629 189.976 121.629C189.838 121.591 189.788 121.541 189.624 121.529C189.423 121.529 189.222 121.566 189.046 121.667C188.53 121.968 188.455 122.659 188.756 123.136C189.008 123.551 189.486 123.802 189.951 123.903C191.662 124.304 193.486 123.815 194.869 122.747C195.699 122.106 196.353 121.29 196.73 120.298C196.894 119.883 196.592 119.381 196.202 119.23C195.812 119.079 195.259 119.192 195.07 119.607C194.932 119.908 194.768 120.197 194.58 120.473C194.529 120.549 194.479 120.624 194.429 120.7C194.504 120.599 194.404 120.725 194.379 120.762C194.265 120.888 194.165 121.014 194.039 121.127C193.913 121.24 193.8 121.353 193.674 121.453C193.624 121.491 193.624 121.491 193.674 121.453L193.599 121.503C193.523 121.554 193.448 121.604 193.372 121.654C193.234 121.742 193.096 121.83 192.945 121.905C192.882 121.943 192.806 121.968 192.743 122.006C192.504 122.131 192.882 121.956 192.618 122.056C192.316 122.169 192.001 122.27 191.674 122.332C191.486 122.37 191.549 122.358 191.372 122.37C191.196 122.383 191.02 122.395 190.844 122.383C190.769 122.383 190.693 122.383 190.618 122.383C190.58 122.383 190.417 122.358 190.53 122.383C190.404 122.37 190.19 122.307 190.14 122.295C190.215 122.307 190.014 122.27 190.115 122.295C189.939 122.257 190.152 122.244 190.127 122.332C190.165 122.521 190.115 122.684 189.976 122.785C189.876 122.873 189.863 122.885 189.939 122.847L189.976 122.822C189.549 122.998 189.348 122.785 189.373 122.182C188.995 122.91 190.014 123.488 190.467 122.822L190.454 122.835Z" fill="#231F20"/>
<path d="M181.537 84.1226C182.178 90.3527 183.285 96.5578 184.405 102.725C184.606 103.843 186.316 103.366 186.103 102.26C184.958 96.1684 183.813 90.0387 182.241 84.0347C182.141 83.6579 181.487 83.7207 181.537 84.1352V84.1226Z" fill="#231F20"/>
<path d="M188.329 81.4472C188.467 84.9014 188.706 88.3556 188.933 91.8098C189.046 93.5432 189.235 95.264 189.398 96.9974C189.562 98.7308 189.612 100.376 190.002 101.997C190.216 102.913 191.587 102.687 191.612 101.783C191.662 100.062 191.348 98.3163 191.146 96.5954C190.945 94.8746 190.794 93.2543 190.555 91.5963C190.077 88.1797 189.612 84.7632 189.033 81.3593C188.958 80.9447 188.291 81.0452 188.304 81.4597L188.329 81.4472Z" fill="#231F20"/>
<path d="M96.5139 162.225L91.5332 167.187C91.5332 167.187 76.1384 185.639 110.135 185.412C110.135 185.412 176.645 188.138 115.028 161.258" fill="white"/>
<path d="M96.9531 162.665L92.0354 167.689C91.0669 168.996 89.784 171.156 89.3061 172.977C86.1868 185.023 104.739 184.219 112.335 184.408C118.624 184.458 124.951 184.307 131.139 183.302C134.006 182.75 137.176 182.21 139.364 180.351C143.112 176.381 128.95 169.222 126.07 167.526C122.36 165.541 118.574 163.67 114.763 161.836L115.266 160.68C124.083 164.436 133.491 167.89 140.433 174.811C146.357 181.707 137.088 184.722 131.503 185.475C124.108 186.631 116.561 186.656 109.116 186.442C96.1985 186.618 79.5334 182.21 90.9914 166.697C90.9914 166.659 96.0476 161.811 96.0601 161.786L96.9531 162.678V162.665Z" fill="#231F20"/>
<path d="M65.8994 161.258C65.8994 161.258 42.3167 175.062 47.8633 182.235C52.3157 187.987 79.0806 186.405 89.4696 185.563C93.9094 185.199 97.3808 181.368 96.9783 176.934C96.6261 173.09 93.8968 168.066 85.4699 162.225" fill="white"/>
<path d="M66.227 161.798C62.8185 164.549 42.3801 178.492 50.807 182.348C56.4795 184.697 63.1581 184.583 69.3336 184.822C73.6351 184.885 77.9492 184.747 82.2633 184.596C85.307 184.32 88.5897 184.659 91.5077 183.729C96.589 181.72 96.7651 175.841 93.9855 171.721C91.8096 168.204 88.5143 165.34 85.1184 162.753L85.8353 161.723C89.4953 164.109 93.0547 166.873 95.6708 170.654C99.5447 175.841 98.9913 183.327 92.5265 186.154C89.3066 187.397 85.7975 187.121 82.4268 187.523C78.075 187.849 73.698 188 69.3085 188.025C64.919 188.025 60.5168 187.9 56.0644 187.221C53.0081 186.681 49.2097 186.066 46.82 183.604C42.0531 177.6 50.0776 171.018 54.3287 167.626C57.8756 164.938 61.6111 162.652 65.5856 160.731L66.227 161.811V161.798Z" fill="#231F20"/>
<path d="M69.1449 147.379L65.8999 161.258L85.4704 162.225L90.0612 148.873" fill="white"/>
<path d="M69.1449 147.379L65.8999 161.258L85.4704 162.225L90.0612 148.873" stroke="#231F20" stroke-width="1.25607" stroke-miterlimit="10"/>
<path d="M100.689 148.723L96.5132 162.225L115.04 161.258L118.461 141.689" fill="white"/>
<path d="M100.689 148.723L96.5132 162.225L115.04 161.258L118.461 141.689" stroke="#231F20" stroke-width="1.25607" stroke-miterlimit="10"/>
<path d="M121.392 47.395C123.87 50.5603 126.234 54.2532 128.448 58.5238C130.146 61.8022 131.089 65.4448 131.265 69.1502L133.605 118.25C133.718 120.662 133.278 123.048 132.297 125.259C127.932 135.207 112.047 159.274 63.8 145.407C56.6434 143.347 51.4615 137.003 50.7068 129.454C48.9837 112.095 45.8394 80.5805 44.4936 67.1782C44.4936 67.1782 42.7579 57.8581 51.7256 46.7167C69.5604 24.5596 103.872 24.9741 121.367 47.4076L121.392 47.395Z" fill="white"/>
<path d="M122.26 46.7167C126.763 52.9343 131.366 59.7422 132.07 67.6178C132.347 72.8179 133.404 99.9617 133.668 105.677L134.02 113.276C134.058 115.474 134.46 118.753 134.146 120.976C132.259 130.874 124.096 139.855 115.405 144.603C101.608 152.064 85.0685 151.348 70.2145 148.095C67.7116 147.466 65.259 146.964 62.7184 146.223C57.549 144.577 53.2475 140.571 51.0716 135.622C49.9522 133.223 49.4869 130.484 49.2605 127.872C47.1475 106.644 44.2421 84.6627 42.7705 63.8998C43.412 53.7005 49.9145 44.8703 57.5742 38.6402C64.4792 33.1385 73.0822 29.9104 81.8487 29.0689C82.9429 29.0186 85.7351 28.9433 86.7916 28.9056C87.8355 28.9684 90.6403 29.1945 91.722 29.2698C103.721 30.8399 114.902 37.1831 122.273 46.7418L122.26 46.7167ZM120.524 48.0733C113.368 39.13 102.727 33.327 91.3824 32.0458C90.3636 31.983 87.7349 31.8573 86.7539 31.7945C85.7728 31.8197 83.1441 31.983 82.1254 32.0332C80.6538 32.209 79.0313 32.5482 77.5472 32.7492C71.5226 34.0932 65.7998 36.6179 60.8695 40.3107C52.669 46.5157 45.3237 56.3006 46.179 67.0149C48.1034 87.2126 50.0529 107.41 51.8766 127.608C52.0652 132.368 53.8387 137.142 57.3981 140.42C60.9449 144.012 65.9759 144.766 70.6925 146.022C72.7552 146.637 75.9498 147.102 78.088 147.504C98.7779 151.272 121.392 146.436 131.253 126.038C132.724 123.274 133.24 120.26 132.951 117.132L132.762 113.339L132.397 105.74C132.07 100.025 130.674 72.9687 130.284 67.8062C129.492 60.3451 124.926 53.9517 120.55 48.0733H120.524Z" fill="#231F20"/>
<path d="M47.6621 52.0299C47.6621 52.0299 72.6409 26.72 105.959 34.7966" stroke="#231F20" stroke-width="1.25607" stroke-miterlimit="10"/>
<path d="M75.8489 30.6515C75.8489 30.6515 44.531 6.57256 10.597 36.2034C8.16957 38.3136 6.32068 41.0518 5.42768 44.1418C3.8555 49.5806 5.16355 56.3508 24.8221 51.6405C30.3059 50.3216 35.2488 47.1689 38.519 42.5717C42.9462 36.3415 52.2661 28.2524 69.0193 33.6661" fill="white"/>
<path d="M75.4715 31.1539C61.8375 22.3991 44.3045 20.2512 29.438 26.4939C22.2562 29.5336 15.2632 34.0052 9.93032 39.6827C8.23236 41.7929 6.84884 44.7824 6.92431 47.4201C7.18843 53.0473 17.5397 51.0502 21.2626 50.4473C25.8785 49.6559 30.2932 48.1989 33.8401 45.0964C36.3807 43.0238 37.9655 40.16 40.3552 37.8991C42.8707 35.4874 45.839 33.4902 49.1343 32.3095C55.6494 29.8853 62.8563 30.7269 69.1827 33.0883L68.7928 34.2816C59.6867 31.6313 49.1846 32.8622 42.6191 40.1474C40.3426 42.534 38.7201 45.6114 36.1669 47.7718C30.9221 52.5826 23.7907 54.2532 16.9234 54.9942C13.1879 55.2957 9.47753 55.4967 6.01873 53.3362C4.16984 52.0173 3.02529 49.8318 3.00014 47.5708C2.97498 41.818 6.38348 36.9068 10.7604 33.5782C15.9675 29.2698 21.8286 25.6649 28.1676 23.2407C44.0152 17.0357 62.7305 19.9372 76.2387 30.1616L75.4715 31.1539Z" fill="#231F20"/>
<path d="M132.321 93.1538C132.321 93.1538 116.109 86.6222 47.6499 107.812L132.321 93.1538Z" fill="white"/>
<path d="M132.095 93.7441C125.203 92.4378 117.87 93.3799 110.915 94.0456C93.0674 96.2061 75.5596 100.69 58.2404 105.451L47.8514 108.428L47.4741 107.222C61.0955 102.876 75.3206 98.7559 89.269 95.7162C99.897 93.5432 110.663 91.4455 121.568 91.3199C125.228 91.345 128.85 91.3827 132.561 92.5886L132.095 93.7567V93.7441Z" fill="#231F20"/>
<path d="M45.6633 78.5708C44.1918 79.9022 113.141 49.568 130.964 66.7888L45.6633 78.5708Z" fill="white"/>
<path d="M46.0783 79.0355C46.0783 79.0355 46.1537 78.9601 46.1789 78.9225C46.1034 78.9225 46.4179 78.9225 46.1411 78.2191C45.7512 77.905 45.9148 78.0683 45.7638 77.993C45.6758 77.9804 45.6129 77.993 45.6255 77.993C45.789 77.9302 46.4556 77.6915 46.682 77.5785C66.4034 69.5521 106.614 53.9266 126.675 62.9452C128.423 63.7868 130.071 64.9047 131.391 66.3366L130.511 67.241C114.449 54.115 64.4665 73.1822 45.9022 79.2114C45.877 79.2114 45.8141 79.2365 45.7261 79.2365C45.7261 79.2365 45.6632 79.2365 45.55 79.2365C45.3865 79.1611 45.5249 79.337 45.135 78.9978C44.8457 78.2819 45.1727 78.2693 45.0972 78.2567C45.135 78.2065 45.1727 78.1563 45.223 78.106L46.0657 79.0355H46.0783Z" fill="#231F20"/>
<path d="M78.9053 67.3289C78.9053 67.3289 83.9111 91.5837 82.754 98.3414L78.9053 67.3289Z" fill="white"/>
<path d="M78.9053 67.3289C78.9053 67.3289 83.9111 91.5837 82.754 98.3414" stroke="#231F20" stroke-width="1.25607" stroke-miterlimit="10"/>
<path d="M123.442 62.179C123.442 62.179 127.353 80.8443 124.876 92.061L123.442 62.179Z" fill="white"/>
<path d="M123.442 62.179C123.442 62.179 127.353 80.8443 124.876 92.061" stroke="#231F20" stroke-width="1.25607" stroke-miterlimit="10"/>
<path d="M29.4375 153.106C29.4375 153.106 20.5075 168.845 35.1979 169.222C35.1979 169.222 45.0712 168.569 43.1469 158.143" fill="white"/>
<path d="M29.9786 153.408C28.6705 157.503 26.1299 163.896 30.5823 166.722C31.6514 167.425 34.104 167.765 35.0976 167.815C38.091 167.601 41.2605 165.793 42.1535 162.778C42.5812 161.421 42.5938 159.701 42.5183 158.269L43.7509 158.043C44.4678 160.806 44.5181 163.846 42.8453 166.345C39.8393 170.742 33.8398 171.759 29.1484 169.31C24.9979 167.237 24.7212 161.622 26.2431 157.892C26.8971 156.058 27.7649 154.375 28.8969 152.805L29.9911 153.42L29.9786 153.408Z" fill="#231F20"/>
<path d="M57.5101 120.31C57.5101 120.31 58.3277 87.9411 40.4048 116.391C22.4819 144.841 23.7522 154.262 38.405 157.477C53.0577 160.693 57.3592 153.684 57.5227 120.323L57.5101 120.31Z" fill="white"/>
<path d="M56.8694 120.298C56.8065 116.517 56.4543 107.435 52.6811 105.79C46.7948 105.061 36.8586 125.962 34.167 131.062C31.6138 136.853 26.1929 147.014 31.488 152.265C34.9594 155.191 41.2985 156.548 45.8138 156.246C56.9951 155.405 56.2279 128.851 56.8694 120.298ZM58.1523 120.323C58.19 130.233 58.6679 140.432 56.0267 150.117C54.8444 154.676 51.3479 159.173 46.3546 159.776C43.1348 160.278 40.1162 159.851 37.2485 159.198C34.3809 158.52 31.312 157.565 28.7336 155.279C21.25 148.182 27.1362 136.551 30.7334 129.316C33.4627 124.267 36.4687 119.456 39.6634 114.746C42.1537 111.204 44.7447 107.536 48.3922 104.973C57.7875 99.1453 58.3032 114.495 58.1523 120.31V120.323Z" fill="#231F20"/>
<path d="M186.885 67.9412L184.987 69.7754L179.335 70.4793L177.863 69.6475L177.181 67.0027L176.583 65.1685L177.671 62.7583L180.401 61.8199L183.814 63.1636L186.245 65.1685L186.885 67.9412Z" fill="#FCE6C0"/>
<path d="M170.281 73.6469C170.281 73.6469 180.972 66.3492 189.109 72.1773C197.247 78.0055 192.958 94.2215 182.267 91.8726" fill="white"/>
<path d="M169.929 73.132C173.325 70.7454 177.261 69.0749 181.575 68.8739C191.688 68.2961 197.511 78.3698 193.134 87.2754C191.298 91.3074 186.43 93.9828 182.129 92.5007L182.393 91.2697C186.191 91.8977 189.625 89.7498 191.034 86.2705C194.254 78.822 190.015 70.959 181.601 71.0218C177.865 71.0218 174.004 72.3155 170.633 74.1745L169.929 73.132Z" fill="#231F20"/>
<path d="M132.322 86.6976L162.294 72.7175C162.294 72.7175 177.16 70.557 182.015 89.6117C186.87 108.666 132.925 103.717 132.925 103.717L132.334 86.6976H132.322Z" fill="white"/>
<path d="M131.793 86.371L161.766 71.587L161.929 71.5116C161.929 71.5116 162.118 71.4865 162.13 71.4865C169.891 70.7203 177.274 75.6567 180.519 82.4772C182.066 85.9062 183.65 89.3353 183.248 93.292C180.43 107.649 144.245 105.174 132.888 104.358L132.334 104.308C132.12 98.3288 131.957 92.3373 131.806 86.3835L131.793 86.371ZM132.863 87.0241C133.127 92.6011 133.353 98.1404 133.554 103.705L132.988 103.102C140.032 103.604 147.151 103.717 154.206 103.366C161.627 102.8 179.424 101.833 181.223 92.9654C181.512 89.8378 179.927 86.3333 178.556 83.482C175.613 77.5031 169.174 73.2827 162.482 73.961C164.218 73.3078 132.485 87.1623 132.863 87.0241Z" fill="#231F20"/>
<path d="M165.884 41.1516C157.088 42.2628 148.201 42.5076 139.359 41.8579C138.286 41.7825 137.221 41.6884 136.148 41.5848C135.229 41.4906 134.01 41.4435 133.292 40.7373C131.564 39.0422 136.539 37.2248 137.594 36.9423C138.486 36.7069 139.405 36.5656 140.323 36.5562C141.242 36.5468 142.206 36.7822 143.143 36.7257C144.717 36.6221 144.753 35.3697 145.199 34.1172C146.445 30.6424 150.793 28.825 154.013 30.407C154.241 30.52 154.605 30.4541 154.65 30.1339C154.932 28.1658 156.824 26.5084 158.798 26.9793C160.663 27.4219 161.745 29.5312 161.427 31.4052C161.345 31.876 161.991 32.0738 162.127 31.6029C162.8 29.2958 161.309 26.6497 159.025 26.1035C156.624 25.5291 154.15 27.4219 153.804 29.8985L154.441 29.6254C151.585 28.2223 148.11 29.051 145.936 31.3863C145.445 31.9137 145.017 32.5258 144.708 33.185C144.317 34.0042 144.289 35.7087 143.316 35.9912C142.434 36.2454 141.224 35.8028 140.314 35.8123C139.277 35.8123 138.231 35.9629 137.221 36.236C135.639 36.6598 133.174 37.5638 132.373 39.1741C131.7 40.5301 132.837 41.5754 133.992 41.9897C134.811 42.2816 135.684 42.3193 136.539 42.404C137.876 42.5359 139.214 42.6395 140.551 42.7242C143.098 42.8937 145.645 42.9785 148.192 42.9973C154.095 43.035 159.999 42.6771 165.866 41.9332C166.33 41.8767 166.339 41.1045 165.866 41.1704L165.884 41.1516Z" fill="#231F20"/>
<path d="M162.681 32.3871C163.478 32.2215 164.275 32.0375 165.082 31.8811C165.664 31.7614 166.489 31.605 166.987 32.0283C167.521 32.4791 167.306 33.3165 167.062 33.8594C166.771 34.4943 166.396 35.0739 166.236 35.7548C166.189 35.9665 166.302 36.1781 166.518 36.2425C168.422 36.767 170.664 36.5278 172.334 37.7147C173.019 38.2024 173.572 38.9753 173.403 39.8403C173.262 40.5212 172.681 41.3033 171.883 41.1929C171.358 41.1193 171.133 41.9014 171.668 41.975C173.863 42.2878 174.876 39.5918 173.788 38C172.231 35.7272 169.097 36.1045 166.743 35.4696L167.024 35.9573C167.343 34.5863 168.994 32.792 167.549 31.4762C167.005 30.9885 166.227 30.9517 165.533 31.0345C164.51 31.1633 163.488 31.4486 162.484 31.6694C162.005 31.7706 162.212 32.4975 162.69 32.3871H162.681Z" fill="#231F20"/>
<path d="M124.662 92C127.465 90 125.162 71.8333 123.66 63C114.448 58.6 90.1157 64.1667 79.1011 67.5C81.9048 77.1 82.9395 92.1667 83.1064 98.5C96.324 94.1 116.317 92.3333 124.662 92Z" fill="#5BC3C8" stroke="black"/>
<path d="M101.956 83.1987L101.227 76.9893C101.184 76.6268 101.547 76.3524 101.885 76.4922L108.174 79.1016C108.53 79.2491 108.574 79.7349 108.251 79.9441L102.69 83.5441C102.393 83.7365 101.997 83.5503 101.956 83.1987Z" fill="white" stroke="black" stroke-width="0.477838"/>
</g>
</g>
<defs>
<linearGradient id="paint0_linear_705_316" x1="90.4725" y1="0" x2="90.4725" y2="180.514" gradientUnits="userSpaceOnUse">
<stop stop-color="#009490"/>
<stop offset="1" stop-color="#009490" stop-opacity="0"/>
</linearGradient>
<clipPath id="clip0_705_316">
<rect width="210" height="200" fill="white"/>
</clipPath>
<clipPath id="clip1_705_316">
<rect width="206" height="170" fill="white" transform="translate(3 19)"/>
</clipPath>
</defs>
</svg>
