<svg width="100" height="100" viewBox="0 0 100 100" fill="none" xmlns="http://www.w3.org/2000/svg">
<rect width="100" height="100" rx="13.1579" fill="#3EAAAF" fill-opacity="0.08"/>
<path fill-rule="evenodd" clip-rule="evenodd" d="M38.8125 61.9688C38.8125 61.4963 39.0002 61.0433 39.3342 60.7092C39.6683 60.3752 40.1213 60.1875 40.5938 60.1875H72.6562C73.1287 60.1875 73.5817 60.3752 73.9158 60.7092C74.2498 61.0433 74.4375 61.4963 74.4375 61.9688C74.4375 62.4412 74.2498 62.8942 73.9158 63.2283C73.5817 63.5623 73.1287 63.75 72.6562 63.75H40.5938C40.1213 63.75 39.6683 63.5623 39.3342 63.2283C39.0002 62.8942 38.8125 62.4412 38.8125 61.9688ZM38.8125 47.7188C38.8125 47.2463 39.0002 46.7933 39.3342 46.4592C39.6683 46.1252 40.1213 45.9375 40.5938 45.9375H72.6562C73.1287 45.9375 73.5817 46.1252 73.9158 46.4592C74.2498 46.7933 74.4375 47.2463 74.4375 47.7188C74.4375 48.1912 74.2498 48.6442 73.9158 48.9783C73.5817 49.3123 73.1287 49.5 72.6562 49.5H40.5938C40.1213 49.5 39.6683 49.3123 39.3342 48.9783C39.0002 48.6442 38.8125 48.1912 38.8125 47.7188ZM38.8125 33.4688C38.8125 32.9963 39.0002 32.5433 39.3342 32.2092C39.6683 31.8752 40.1213 31.6875 40.5938 31.6875H72.6562C73.1287 31.6875 73.5817 31.8752 73.9158 32.2092C74.2498 32.5433 74.4375 32.9963 74.4375 33.4688C74.4375 33.9412 74.2498 34.3942 73.9158 34.7283C73.5817 35.0623 73.1287 35.25 72.6562 35.25H40.5938C40.1213 35.25 39.6683 35.0623 39.3342 34.7283C39.0002 34.3942 38.8125 33.9412 38.8125 33.4688ZM28.125 37.0312C29.0698 37.0312 29.976 36.6559 30.6441 35.9878C31.3122 35.3197 31.6875 34.4136 31.6875 33.4688C31.6875 32.5239 31.3122 31.6178 30.6441 30.9497C29.976 30.2816 29.0698 29.9063 28.125 29.9062C27.1802 29.9063 26.274 30.2816 25.6059 30.9497C24.9378 31.6178 24.5625 32.5239 24.5625 33.4688C24.5625 34.4136 24.9378 35.3197 25.6059 35.9878C26.274 36.6559 27.1802 37.0312 28.125 37.0312V37.0312ZM28.125 51.2812C29.0698 51.2812 29.976 50.9059 30.6441 50.2378C31.3122 49.5697 31.6875 48.6636 31.6875 47.7188C31.6875 46.7739 31.3122 45.8678 30.6441 45.1997C29.976 44.5316 29.0698 44.1562 28.125 44.1562C27.1802 44.1562 26.274 44.5316 25.6059 45.1997C24.9378 45.8678 24.5625 46.7739 24.5625 47.7188C24.5625 48.6636 24.9378 49.5697 25.6059 50.2378C26.274 50.9059 27.1802 51.2812 28.125 51.2812V51.2812ZM28.125 65.5312C29.0698 65.5312 29.976 65.1559 30.6441 64.4878C31.3122 63.8197 31.6875 62.9136 31.6875 61.9688C31.6875 61.0239 31.3122 60.1178 30.6441 59.4497C29.976 58.7816 29.0698 58.4062 28.125 58.4062C27.1802 58.4062 26.274 58.7816 25.6059 59.4497C24.9378 60.1178 24.5625 61.0239 24.5625 61.9688C24.5625 62.9136 24.9378 63.8197 25.6059 64.4878C26.274 65.1559 27.1802 65.5312 28.125 65.5312V65.5312Z" fill="#3EAAAF" fill-opacity="0.5"/>
</svg>
