<svg width="210" height="200" viewBox="0 0 210 200" fill="none" xmlns="http://www.w3.org/2000/svg">
<g clip-path="url(#clip0_731_325)">
<rect width="210" height="200" fill="white"/>
<ellipse opacity="0.1" cx="101.425" cy="84.4498" rx="101.425" ry="84.4498" transform="matrix(0.996373 0.0850987 0.177956 0.984038 -11.6528 -0.407822)" fill="url(#paint0_linear_731_325)"/>
<ellipse opacity="0.05" cx="76.6598" cy="76.4553" rx="76.6598" ry="76.4553" transform="matrix(0.996373 0.0850987 0.177956 0.984038 16.0796 18.6139)" fill="#122AF5"/>
<path d="M122.386 166.17L123.072 189.776H128.774V165.971" fill="white"/>
<path d="M122.939 166.047C123.792 168.253 123.504 170.754 123.648 172.977C123.659 173.749 123.648 174.52 123.615 175.292L123.061 175.079H128.774L128.221 175.296C128.032 174.52 127.9 173.744 127.8 172.969C127.745 170.637 126.837 168.279 128.221 165.982H129.328C130.424 167.52 129.959 169.076 129.97 170.641C129.881 172.197 129.704 173.749 129.328 175.3L129.272 175.517H122.541C122.231 173.909 122.009 172.301 121.854 170.689C121.777 169.328 121.378 167.408 121.821 166.064L122.928 166.051L122.939 166.047Z" fill="#231F20"/>
<path d="M122.386 166.159C144.259 166.159 161.991 159.625 161.991 151.566C161.991 143.506 144.259 136.973 122.386 136.973C100.512 136.973 82.7803 143.506 82.7803 151.566C82.7803 159.625 100.512 166.159 122.386 166.159Z" fill="white" stroke="#231F20" stroke-width="1.10722" stroke-miterlimit="10"/>
<path d="M82.3157 131.481C82.3157 131.481 70.7785 154.998 122.386 155.087C175.057 155.186 163.807 131.481 163.807 131.481" fill="white"/>
<path d="M82.8138 131.724C73.5574 159.051 135.318 156.172 150.1 150.99C158.836 148.466 167.073 141.512 163.32 131.713L164.316 131.237C167.494 138.512 163.674 145.963 157.02 149.529C146.667 155.186 134.399 155.663 122.94 155.829C109.93 155.629 83.1238 154.854 80.7212 138.324C80.4887 135.91 80.8319 133.496 81.8284 131.237L82.8249 131.724H82.8138Z" fill="#231F20"/>
<path d="M123.072 138.08C145.575 138.08 163.818 135.125 163.818 131.481C163.818 127.836 145.575 124.882 123.072 124.882C100.569 124.882 82.3262 127.836 82.3262 131.481C82.3262 135.125 100.569 138.08 123.072 138.08Z" fill="white" stroke="#231F20" stroke-width="1.10722" stroke-miterlimit="10"/>
<path d="M123.072 162.096L122.219 165.816C121.732 167.942 123.094 170.178 125.264 170.444C125.419 170.466 125.574 170.477 125.74 170.477C125.918 170.477 126.095 170.466 126.272 170.444C128.276 170.167 129.593 168.163 129.328 166.148L128.796 162.107H123.083L123.072 162.096Z" fill="white" stroke="#231F20" stroke-width="1.10722" stroke-miterlimit="10"/>
<path d="M122.386 168.141L94.6056 181.837C93.5538 182.358 93.9302 183.93 95.0928 183.93H96.2443C96.4325 183.93 96.6097 183.886 96.7758 183.797L123.061 169.259V182.834C123.061 183.443 123.559 183.941 124.168 183.941H127.612C128.243 183.941 128.741 183.41 128.719 182.778L128.088 169.58L155.757 180.055C155.879 180.099 156.012 180.121 156.145 180.121H157.274C158.514 180.121 158.813 178.383 157.64 177.973L129.35 168.13" fill="white"/>
<path d="M122.386 168.141L94.6056 181.837C93.5538 182.358 93.9302 183.93 95.0928 183.93H96.2443C96.4325 183.93 96.6097 183.886 96.7758 183.797L123.061 169.259V182.834C123.061 183.443 123.559 183.941 124.168 183.941H127.612C128.243 183.941 128.741 183.41 128.719 182.778L128.088 169.58L155.757 180.055C155.879 180.099 156.012 180.121 156.145 180.121H157.274C158.514 180.121 158.813 178.383 157.64 177.973L129.35 168.13" stroke="#231F20" stroke-width="1.10722" stroke-miterlimit="10"/>
<path d="M91.4606 191.802C94.2674 191.802 96.5427 189.527 96.5427 186.72C96.5427 183.913 94.2674 181.638 91.4606 181.638C88.6538 181.638 86.3784 183.913 86.3784 186.72C86.3784 189.527 88.6538 191.802 91.4606 191.802Z" fill="white"/>
<path d="M95.8788 186.72C95.7902 180.741 87.1539 180.774 87.0432 186.72C87.2868 192.444 95.602 192.433 95.8788 186.72ZM97.1964 186.72C97.0635 194.437 85.8917 194.404 85.7256 186.72C86.0245 179.246 96.8642 179.28 97.1964 186.72Z" fill="#231F20"/>
<path d="M126.216 194.559C129.023 194.559 131.298 192.284 131.298 189.477C131.298 186.67 129.023 184.395 126.216 184.395C123.409 184.395 121.134 186.67 121.134 189.477C121.134 192.284 123.409 194.559 126.216 194.559Z" fill="white"/>
<path d="M130.368 189.477C130.568 183.465 121.887 183.542 122.075 189.477C122.529 194.537 129.959 194.371 130.368 189.477ZM132.228 189.477C132.306 197.958 120.149 197.881 120.215 189.477C120.769 182.003 131.664 182.059 132.228 189.477Z" fill="#231F20"/>
<path d="M159.754 189.488C162.561 189.488 164.836 187.213 164.836 184.406C164.836 181.599 162.561 179.324 159.754 179.324C156.947 179.324 154.672 181.599 154.672 184.406C154.672 187.213 156.947 189.488 159.754 189.488Z" fill="white"/>
<path d="M164.084 184.406C164.05 178.438 155.381 178.449 155.336 184.406C155.624 190.009 163.773 189.964 164.084 184.406ZM165.578 184.406C165.501 192.256 154.107 192.212 154.008 184.406C154.384 176.943 165.191 176.954 165.578 184.406Z" fill="#231F20"/>
<path d="M8.74003 184.395C9.71439 188.647 18.5943 189.975 22.3699 190.717C35.7894 192.599 49.984 192.456 63.0382 188.658C65.1972 187.816 68.2642 186.82 68.8179 184.395H69.9251C70.0469 186.067 68.8954 187.517 67.6996 188.503C55.7748 197.316 26.9649 196.486 13.7004 190.651C11.1648 189.389 7.6771 187.683 7.63281 184.395H8.74003Z" fill="#231F20"/>
<path d="M69.6485 187.117V137.119L55.2547 140.222L8.19775 139.533V187.117C32.9995 195.943 59.499 190.795 69.6485 187.117Z" fill="#E6F5F4" stroke="black" stroke-width="1.10722"/>
<path d="M69.6485 143.919V137.119C61.25 131.541 55.8787 129.905 45.1823 129.502C21.122 128.395 14.3483 130.737 8.19775 137.534V140.769C23.2645 148.028 51.9047 149.029 69.6485 143.919Z" fill="#91A2A0"/>
<path d="M68.763 138.578C68.1097 133.983 59.1634 132.444 55.2992 131.68C44.4595 129.931 33.1437 130.307 22.4147 132.477C19.1041 133.275 10.8553 135.168 9.9917 138.589C10.9993 141.966 19.1484 143.66 22.4701 144.402C33.2212 146.428 44.4041 146.772 55.2438 145.166C59.0084 144.458 68.0101 142.885 68.7741 138.578H68.763ZM69.9809 138.578C69.5713 144.004 59.9495 146.085 55.6314 147.181C44.5149 149.518 33.033 149.883 21.7836 147.945C1.36645 144.413 1.12286 132.732 21.839 129.488C33.0551 127.705 44.4706 128.082 55.5649 130.274C59.7391 131.304 69.527 133.441 69.9809 138.567V138.578Z" fill="#231F20"/>
<path d="M8.18652 138.578V186.178" stroke="#231F20" stroke-width="1.10722" stroke-miterlimit="10"/>
<path d="M69.3721 138.578V186.178" stroke="#231F20" stroke-width="1.10722" stroke-miterlimit="10"/>
<path d="M25.6922 68.3914L24.0203 83.4939C24.0203 83.4939 23.7767 90.9566 38.9677 91.0784C41.4811 91.1005 43.6956 89.4065 44.2713 86.9595L47.8587 71.9788" fill="#F2F0F3"/>
<path d="M26.2456 68.4579C26.0352 73.5289 25.537 78.5668 25.0166 83.6046V83.5271C25.0498 84.0697 25.3266 84.8779 25.6367 85.3983C27.8179 88.8086 32.3132 89.5836 36.111 89.9933C37.6168 90.0265 39.333 90.3808 40.7391 89.8162C42.0678 89.2958 43.1086 88.1221 43.4518 86.7049L44.703 81.7445L47.305 71.846L48.379 72.1006C47.6593 75.4444 45.8434 83.8925 45.0905 87.1035C44.6809 89.03 43.2636 90.7351 41.4256 91.4991C39.643 92.2853 37.7829 91.942 35.9449 91.8867C32.3907 91.5434 28.7147 90.9123 25.8027 88.5871C24.3523 87.347 23.079 85.7194 23.0015 83.4275C23.3226 80.903 23.5772 78.3564 23.9537 75.843C24.2969 73.3296 24.6734 70.8273 25.1273 68.3361L26.2235 68.4579H26.2456Z" fill="#231F20"/>
<path d="M48.7174 71.3164C49.0495 69.3632 44.0554 66.8848 37.5627 65.7808C31.0701 64.6768 25.5375 65.3653 25.2054 67.3185C24.8732 69.2718 29.8674 71.7501 36.36 72.8541C42.8527 73.9581 48.3853 73.2696 48.7174 71.3164Z" fill="white" stroke="#231F20" stroke-width="1.10722" stroke-miterlimit="10"/>
<path d="M47.5264 73.4182C47.5264 73.4182 54.989 71.0155 55.2658 78.8214" stroke="#231F20" stroke-width="1.10722" stroke-miterlimit="10"/>
<path d="M47.8693 89.0079C47.8693 89.0079 46.596 90.9234 43.5068 88.7089" stroke="#231F20" stroke-width="1.10722" stroke-miterlimit="10"/>
<path d="M50.7265 147.237L70.4172 143.234C70.8156 140.36 70.7444 139.056 70.4173 141.026L49.8329 145.834L50.1087 147.202L50.7265 147.237Z" fill="white" stroke="#231F20" stroke-width="1.10722" stroke-miterlimit="10"/>
<path d="M69.6178 138.682L29.0403 135.807C28.1739 135.685 27.4454 136.492 27.646 137.362L49.3275 144.912C49.481 145.61 50.1567 146.033 50.8335 145.866L69.7296 141.191C71.0724 140.856 70.989 138.873 69.6178 138.682Z" fill="#D9D9D9" stroke="#231F20" stroke-width="1.10722" stroke-miterlimit="10"/>
<ellipse cx="36.6426" cy="69.3175" rx="6.58332" ry="2.54357" transform="rotate(7.67546 36.6426 69.3175)" fill="#E3D6BE"/>
<ellipse cx="3.04194" cy="1.1753" rx="3.04194" ry="1.1753" transform="matrix(0.99104 0.133562 0.133562 -0.99104 33.4707 70.0759)" fill="#F7F2E9"/>
<ellipse cx="2.08557" cy="0.805793" rx="2.08557" ry="0.805793" transform="matrix(0.99104 0.133562 0.133562 -0.99104 34.7817 69.6699)" fill="white"/>
<g clip-path="url(#clip1_731_325)">
<path d="M69.2945 81.6781C69.2945 81.6781 56.6944 72.8092 51.4793 80.5598C43.1641 92.9053 59.6839 98.0096 61.5329 94.5661" fill="white"/>
<path d="M68.9731 82.1209C64.511 80.0283 59.13 77.1938 54.4464 79.364C53.0292 80.139 52.1655 81.5673 51.4126 82.9846C48.5449 88.0113 51.3905 92.8388 56.5944 94.4554C57.8899 94.865 60.0932 95.319 61.0344 94.2893L62.0087 94.8097C60.7686 96.7695 58.0781 96.3709 56.1626 95.9944C52.2873 95.0976 48.5449 92.0859 48.091 87.8674C47.792 84.6786 49.0653 81.8441 50.8479 79.375C55.7308 73.1746 64.7768 77.1717 69.6043 81.2019L68.9621 82.1099L68.9731 82.1209Z" fill="#231F20"/>
<path d="M98.0378 84.7118L85.1498 79.7736C79.1708 77.4817 71.8631 78.7771 67.8993 82.896C62.9943 88.0003 58.5211 94.8318 64.1015 99.1057C73.9336 106.624 97.7832 101.686 97.7832 101.686" fill="white"/>
<path d="M97.8387 85.2322C94.4173 84.1471 91.0403 82.9846 87.6633 81.7777C84.5077 80.5708 81.1085 79.4636 77.6983 79.84C74.3766 80.1058 71.055 81.3237 68.763 83.6267C67.5562 84.8668 66.3936 86.1955 65.386 87.5795C62.1751 91.9198 60.8685 96.6255 66.5818 99.46C69.5602 101.043 73.0369 101.763 76.5136 102.139C83.5112 102.804 90.686 102.272 97.6726 101.143L97.894 102.228C88.0065 104.232 68.7741 106.712 61.5993 98.0317C58.1005 92.3295 63.3819 86.1069 67.1354 82.0545C69.9256 79.2311 73.7455 77.8138 77.5211 77.5702C81.2636 77.1938 84.9949 78.4339 88.3498 79.9618C91.6604 81.3237 94.9599 82.7188 98.2262 84.1914L97.8276 85.2211L97.8387 85.2322Z" fill="#231F20"/>
<path d="M146.778 41.032C146.778 41.032 177.304 8.67895 200.478 34.6101C201.917 36.2155 203.025 38.0867 203.833 40.0797C206.103 45.6934 209.103 56.7102 197.389 55.9905C192.041 55.6583 187.125 52.9457 183.737 48.7936C177.525 41.198 164.704 28.2325 155.414 37.1456L150.421 42.4824L146.778 41.0209V41.032Z" fill="white"/>
<path d="M146.235 41.1538C146.202 40.7441 146.545 40.4783 146.778 40.2237C150.941 35.8502 155.713 32.0745 160.917 28.9965C168.933 24.2243 179.208 21.3788 188.442 24.5565C195.96 27.236 203.08 33.0046 205.793 40.6666C209.768 50.698 207.376 59.6554 194.831 57.3192C191.532 56.677 188.42 55.2155 185.852 53.1228C183.327 51.152 181.6 48.4725 179.441 46.1695C175.499 41.8956 170.971 37.4888 165.39 35.6952C160.64 34.2668 157.23 36.0827 154.085 39.6258L150.797 42.8589L150.531 43.1246C149.059 42.571 147.553 41.8402 146.224 41.1427L146.235 41.1538ZM147.32 40.9102C148.516 41.2423 149.557 41.5302 150.62 41.9731C150.62 41.9731 149.989 42.1281 150.011 42.106L153.034 38.5961C155.049 36.0827 157.64 33.68 160.994 33.2039C169.365 32.1963 176.23 38.6846 181.666 44.1211C183.759 46.247 185.464 48.8157 187.856 50.6094C191.642 53.6543 198.861 55.9684 202.858 53.0785C204.464 51.7277 204.53 48.7161 203.955 45.9702C201.962 34.4108 190.524 25.6748 178.943 25.9184C167.317 26.2284 156.554 33.06 148.007 40.6334L147.586 41.0209L147.376 41.2202L147.276 41.3198C147.276 41.3198 147.342 41.2423 147.353 41.1759C147.376 41.0873 147.353 40.9877 147.32 40.9212V40.9102Z" fill="#231F20"/>
<path d="M168.944 94.1121L172.233 67.3395C172.642 64.0068 172.166 60.6298 170.849 57.5406C166.73 47.9078 144.541 32.1963 119.153 42.6042C119.153 42.6042 102.998 45.2726 98.7575 75.6658C98.0932 80.4158 97.9161 85.2211 98.06 90.0154L97.8164 120.353C98.0268 127.262 102.035 133.496 108.269 136.485C116.562 140.471 130.324 143.428 151.007 137.515C160.441 134.814 167.173 126.487 167.704 116.688L168.9 94.6768C168.9 94.4886 168.922 94.3004 168.944 94.1232V94.1121Z" fill="white"/>
<path d="M166.874 93.8575C167.759 85.9519 168.601 78.0353 169.564 70.1297C170.107 66.6087 170.461 62.7778 169.177 59.3786C166.641 52.7353 159.61 47.7971 153.188 44.7965C146.301 41.6298 138.429 40.268 130.867 41.1759C127.08 41.4859 123.271 42.6596 119.684 43.9107C102.356 48.8268 98.1927 75.5994 98.7242 91.0894C98.6356 95.1197 98.5249 105.749 98.4806 109.901C98.547 113.433 98.1374 118.925 98.5581 122.357C99.8314 131.248 106.685 136.253 114.967 138.279C126.947 141.545 139.835 139.741 151.472 136.032C160.031 133.164 165.932 124.749 165.977 115.924L166.099 112.791C166.331 106.889 166.586 99.7257 166.874 93.8464V93.8575ZM171.015 94.3668C170.716 98.4414 169.974 109.037 169.697 112.99L169.476 116.124C169.155 126.266 161.858 135.655 152.247 138.423C140.012 141.811 126.903 143.228 114.58 139.597C105.965 137.338 98.691 131.813 97.4398 122.523C97.0633 120.719 97.3402 118.028 97.2737 116.19L97.3069 109.923C97.3291 101.553 97.4398 93.2263 97.3069 84.8115C97.3844 80.604 97.7055 76.3634 98.4695 72.2113C100.208 61.8256 103.961 50.7423 112.764 44.1986C114.701 42.8589 116.506 41.7738 118.92 41.2091L118.61 41.2977C133.867 34.6101 152.524 36.9795 165.434 47.6753C173.163 53.9421 175.875 60.8623 174.148 70.6944C173.174 78.5889 172.066 86.4723 171.015 94.3668Z" fill="#231F20"/>
<path d="M99.9199 66.8413C100.008 66.5313 100.197 66.3098 100.352 66.0884C104.67 61.3384 111.103 58.9911 117.27 57.7842C135.074 54.6397 152.934 61.3273 167.759 70.7719L171.734 73.4514L171.136 74.3815L167.018 72.0231C157.44 66.7749 147.065 62.3903 136.27 60.6962C124.39 58.8139 111.424 60.198 101.271 66.9409L101.094 67.0959C101.016 67.1624 101.06 67.1181 101.005 67.1292L99.931 66.8413H99.9199Z" fill="#231F20"/>
<path d="M98.0371 92.861C98.0371 92.861 113.881 77.1938 168.811 96.1937Z" fill="white"/>
<path d="M97.6497 92.4734C103.208 88.0778 110.527 87.0148 117.38 86.3948C131.907 85.6308 146.423 88.7642 160.274 92.872L168.988 95.6844L168.623 96.7362L159.942 93.946C144.795 89.495 128.774 86.0073 112.929 87.967C107.903 88.8085 102.444 90.0265 98.4137 93.2706L97.6387 92.4845L97.6497 92.4734Z" fill="#231F20"/>
<path d="M91.6494 105.173C91.6494 105.173 108.667 104.775 110.649 137.438C110.671 137.869 110.705 138.312 110.716 138.766C110.716 138.766 111.779 149.351 108.014 149.396" fill="white"/>
<path d="M91.6494 105.173C91.6494 105.173 108.667 104.775 110.649 137.438C110.671 137.869 110.705 138.312 110.716 138.766C110.716 138.766 111.779 149.351 108.014 149.396" stroke="#231F20" stroke-width="1.10722" stroke-miterlimit="10"/>
<path d="M82.858 144.225C80.8207 142.808 79.6471 140.449 79.7689 137.98C80.2007 129.2 82.2269 105.483 91.6494 105.173C103.231 104.797 108.014 149.396 108.014 149.396C108.014 149.396 91.7047 150.392 82.858 144.225Z" fill="#E7E7E7"/>
<path d="M82.4146 144.845C80.1669 143.35 78.7718 140.626 78.8936 137.903L78.949 136.43C79.1926 131.547 79.6133 126.609 80.4769 121.782C81.6838 115.382 84.629 101.863 93.7414 104.354C104.083 108.761 107.471 138.822 108.556 149.318C108.556 149.318 108.611 149.894 108.611 149.905C99.6761 150.226 90.2426 149.728 82.4146 144.834V144.845ZM83.2893 143.594C90.4862 148.266 99.5986 148.942 107.98 148.831C107.98 148.831 107.46 149.462 107.46 149.44C106.895 145.609 106.264 141.767 105.522 137.958C104.249 130.772 96.5427 92.8831 86.013 111.363C84.3854 114.684 83.3889 118.427 82.6139 122.18C81.6617 126.853 81.0859 131.747 80.7205 136.53L80.6209 137.98C80.4659 140.15 81.4956 142.321 83.2893 143.594Z" fill="#231F20"/>
<path d="M105.6 63.2096C105.6 63.2096 102.4 85.8855 102.909 90.0154Z" fill="white"/>
<path d="M105.6 63.2096C105.6 63.2096 102.4 85.8855 102.909 90.0154" stroke="#231F20" stroke-width="1.10722" stroke-miterlimit="10"/>
<path d="M143.29 60.8069C143.29 60.8069 140.511 81.523 141.252 88.72Z" fill="white"/>
<path d="M143.29 60.8069C143.29 60.8069 140.511 81.523 141.252 88.72" stroke="#231F20" stroke-width="1.10722" stroke-miterlimit="10"/>
<path d="M123.116 41.0702C123.116 41.0702 147.486 35.2794 170.871 59.1622" stroke="#231F20" stroke-width="1.10722" stroke-miterlimit="10"/>
<path d="M137.178 109.281C137.178 109.281 152.812 103.966 158.669 138.999C158.913 140.449 158.669 141.966 157.95 143.217C156.964 144.967 155.104 147.292 151.771 148.72" fill="white"/>
<path d="M137.178 109.281C137.178 109.281 152.812 103.966 158.669 138.999C158.913 140.449 158.669 141.966 157.95 143.217C156.964 144.967 155.104 147.292 151.771 148.72" stroke="#231F20" stroke-width="1.10722" stroke-miterlimit="10"/>
<path d="M124.345 150.658C122.253 149.65 121.024 147.181 121.201 144.612C121.876 135.323 124.755 113.212 136.946 109.624C149.136 106.037 152.436 133.474 153.133 144.391C153.31 147.148 151.661 149.684 149.07 150.669C143.611 152.762 133.746 155.209 124.334 150.669L124.345 150.658Z" fill="#E7E7E7"/>
<path d="M123.991 151.4C118.278 148.377 120.747 141.357 121.09 136.286C122.685 126.399 125.165 113.544 135.241 108.816C137.876 107.609 141.463 107.698 143.822 109.569C152.07 116.024 153.122 135.101 153.731 145.044C153.632 148.798 150.487 151.167 147.099 151.953C139.647 154.389 131.266 154.854 123.98 151.411L123.991 151.4ZM124.7 149.927C132.495 153.791 142.415 153.293 150.166 149.473C153.632 147.181 152.336 142.763 152.048 139.309C151.129 131.802 149.789 124.096 146.59 117.231C145.017 114.164 143.013 110.842 139.448 110.632C136.027 110.643 132.949 112.935 130.856 115.648C126.339 121.704 124.512 129.222 123.172 136.618C122.74 139.132 122.419 141.656 122.186 144.203C121.843 146.462 122.696 148.875 124.711 149.938L124.7 149.927Z" fill="#231F20"/>
<path d="M171.424 138.534C171.424 138.534 172.321 146.628 178.433 146.949C182.297 147.159 185.807 144.325 186.328 140.483C186.626 138.29 185.962 135.688 182.751 133.275" fill="white"/>
<path d="M171.978 138.467C172.753 141.723 174.646 145.753 178.433 145.853C181.832 146.03 185.087 143.273 185.331 139.851C185.586 137.615 184.301 135.411 182.408 133.717L183.072 132.832C188.996 136.087 188.741 144.214 182.685 147.17C176.207 150.293 171.114 144.956 170.871 138.589L171.967 138.467H171.978Z" fill="#231F20"/>
<path d="M179.651 114.109C179.651 114.109 164.083 79.9065 162.046 103.269C160.894 116.467 162.345 126.742 163.818 133.197C165.002 138.357 171.325 139.508 176.351 137.814C182.718 135.666 187.745 131.492 179.651 114.12V114.109Z" fill="white"/>
<path d="M178.721 114.54C176.905 110.532 174.89 106.557 172.565 102.826C170.849 100.29 169.077 97.1681 166.276 95.9169C163.441 95.2083 163.01 101.032 162.711 102.981C161.847 111.794 162.068 120.741 163.685 129.455C164.139 131.47 164.261 133.817 165.645 135.423C169.675 139.829 179.142 137.648 181.976 132.843C182.962 131.127 183.039 128.967 182.807 126.875C182.22 122.645 180.515 118.549 178.732 114.529L178.721 114.54ZM180.592 113.677C182.541 117.729 184.135 122.047 184.7 126.676C185.143 130.13 184.168 134.326 181.035 136.419C176.329 139.575 168.878 140.914 164.648 136.264C163.087 134.382 162.998 131.946 162.511 129.676C160.972 120.829 160.762 111.806 161.47 102.87C161.814 99.8586 162.268 93.5696 166.685 94.5107C170.129 95.8394 172 99.1168 174.015 101.896C176.495 105.672 178.632 109.624 180.592 113.677Z" fill="#231F20"/>
<path d="M102.378 89.9296C101.891 82.8434 104.202 69.6306 105.419 63.9099C118.07 55.9379 138.873 60.1652 147.388 62.5641C145.442 70.5361 144.345 82.9172 144.345 88.8224C124.395 85.2793 108.055 88.0842 102.378 89.9296Z" fill="#5BC3C8" stroke="black" stroke-width="1.10722"/>
<path d="M117.469 77.3773L117.506 70.455C117.508 70.0509 117.944 69.7983 118.295 69.9974L124.856 73.7132C125.227 73.9232 125.21 74.4631 124.827 74.6494L118.23 77.8559C117.877 78.0273 117.467 77.7693 117.469 77.3773Z" fill="white" stroke="black" stroke-width="0.529072"/>
</g>
<path d="M5.05825 115.96L5.05379 115.939L5.04761 115.919C4.33982 113.605 6.24613 111.343 8.55308 111.667L8.56357 111.668L8.57412 111.669L39.9908 114.725C41.2978 114.908 42.3574 115.902 42.65 117.223L42.651 117.227L49.5409 147.131L10.1836 139.725L5.05825 115.96Z" fill="white" stroke="black"/>
<path d="M22.9047 133.471L21.671 125.581C21.599 125.121 21.9056 124.881 22.2262 125.147L28.2095 130.111C28.5477 130.392 28.6325 131.006 28.3565 131.176L23.6069 134.101C23.3531 134.258 22.9745 133.918 22.9047 133.471Z" fill="#F2F0F3" stroke="black" stroke-width="0.529072"/>
</g>
<defs>
<linearGradient id="paint0_linear_731_325" x1="101.425" y1="0" x2="101.425" y2="168.9" gradientUnits="userSpaceOnUse">
<stop stop-color="#FACF89"/>
<stop offset="1" stop-color="#FACF89"/>
</linearGradient>
<clipPath id="clip0_731_325">
<rect width="210" height="200" fill="white"/>
</clipPath>
<clipPath id="clip1_731_325">
<rect width="159.506" height="130.663" fill="white" transform="translate(48.0576 23.2057)"/>
</clipPath>
</defs>
</svg>
