<svg width="210" height="201" viewBox="0 0 210 201" fill="none" xmlns="http://www.w3.org/2000/svg">
<rect width="210" height="200" transform="translate(0 0.967789)" fill="white"/>
<ellipse opacity="0.1" cx="98.6733" cy="90.4708" rx="95.6128" ry="87.1733" fill="url(#paint0_linear_694_360)"/>
<ellipse opacity="0.05" cx="98.6734" cy="99.2353" rx="73.4879" ry="81.614" fill="#122AF5"/>
<g clip-path="url(#clip0_694_360)">
<path d="M129.388 106.226C138.999 106.226 142.844 96.0411 142.844 96.0411L128.656 94.0471L129.388 106.212V106.226Z" fill="white" stroke="#231F20" stroke-width="1.43452" stroke-miterlimit="10"/>
<path d="M111.226 162.833C111.226 162.833 137.536 171.052 140.175 181.912C142.815 192.771 92.4771 189.142 92.4771 189.142C92.4771 189.142 75.521 184.867 90.0814 162.833" fill="white"/>
<path d="M111.441 162.144C118.499 164.038 125.371 166.605 131.754 170.436C134.881 172.43 138.037 174.653 140.304 178.067C141.48 179.975 142.671 182.586 141.452 184.824C136.345 193.689 102.217 191.078 92.3622 190.49C86.4519 188.984 82.2918 183.174 83.1382 177.163C83.1382 175.987 83.6833 174.237 83.9128 173.089C85.1035 169.36 87.2553 165.644 89.4644 162.417L90.6551 163.206L88.7472 166.577C84.3145 174.811 82.9086 184.236 92.5487 187.75C101.73 187.994 132.859 189.716 138.382 183.246C138.999 177.192 125.744 170.278 120.794 167.839C117.595 166.247 114.296 164.812 110.982 163.478L111.413 162.115L111.441 162.144Z" fill="#231F20"/>
<path d="M60.2728 164.152C60.2728 164.152 40.1751 174.022 39.1852 184.221C38.1954 194.421 92.4778 189.156 92.4778 189.156C92.4778 189.156 105.302 179.287 82.6083 164.152" fill="white"/>
<path d="M60.5883 164.784C53.3727 168.872 42.3125 175.27 40.3615 183.82C39.4004 190.289 66.3551 188.955 71.046 188.869C78.1326 188.582 85.2621 188.052 92.3057 187.334L91.3732 187.707C95.7485 184.365 95.1891 178.067 91.8897 174.008C89.451 170.378 85.6925 167.394 82.221 164.755L83.0099 163.564C87.457 166.448 92.1048 169.761 95.0599 174.237C98.7897 179.201 98.388 186.832 93.2668 190.906C85.8933 191.58 78.5199 191.853 71.1321 191.982C62.1663 191.982 52.9423 192.154 44.12 189.845C35.2403 187.463 37.5929 181.539 42.2694 176.016C47.2616 170.622 53.4874 166.821 59.9715 163.521L60.6027 164.812L60.5883 164.784Z" fill="#231F20"/>
<path d="M60.2725 152.145V164.152H82.608L85.8931 152.145" fill="white"/>
<path d="M60.9899 152.145C60.9469 156.148 60.7891 160.15 60.9899 164.138L60.2727 163.421H82.6082L81.9197 163.952L85.2047 151.959L86.5819 152.332L83.2968 164.324L83.1534 164.855H59.498C59.7993 160.623 59.5841 156.377 59.5554 152.131H60.9899V152.145Z" fill="#231F20"/>
<path d="M92.1477 151.945L90.082 162.833H111.227L115.789 147.182" fill="white"/>
<path d="M92.1477 151.945L90.082 162.833H111.227L115.789 147.182" stroke="#231F20" stroke-width="1.43452" stroke-miterlimit="10"/>
<path d="M125.371 66.4469C125.371 66.4469 125.629 31.1002 84.0852 28.9627C70.7728 28.2742 57.4748 31.7744 46.7015 39.6499C37.3628 46.4783 28.4831 57.2516 30.2906 73.0313L37.5206 134.544C37.5206 134.544 43.4451 154.943 76.0089 153.293C108.573 151.643 121.397 145.073 121.397 145.073C121.397 145.073 132.242 141.272 128.627 101.98C125.012 62.6884 125.342 66.4612 125.342 66.4612L125.371 66.4469Z" fill="white"/>
<path d="M125.343 65.7296C125.228 65.7153 125.027 65.7296 124.855 65.8874C124.683 66.0452 124.64 66.2317 124.64 66.3321C124.64 66.3321 124.64 66.2747 124.64 66.2604V66.0739L124.597 65.6866C123.005 48.96 111.285 35.705 94.7159 32.5204C78.807 29.1205 61.4062 32.047 48.4237 41.6296C37.55 49.2613 30.8508 61.2395 33.1317 74.5089C33.3756 76.4312 33.9637 81.9254 34.2076 83.9481C33.8203 83.2451 40.4478 136.107 39.9027 133.855C43.0443 142.147 51.3358 147.483 59.7134 149.52C61.1623 149.965 63.558 150.295 65.0786 150.596C68.2202 151.098 72.9398 151.069 76.1674 151.041C91.1869 150.194 106.752 148.975 120.796 143.337C122.044 142.548 123.148 140.913 123.851 139.536C125.458 136.337 126.261 132.679 126.878 129.164C128.972 115.264 127.136 100.546 126.132 86.5446C125.687 80.8208 125.07 72.1276 124.626 66.4612C125.228 66.3895 123.249 66.5473 126.032 66.5329C126.075 66.3464 126.032 66.2604 126.06 66.3751C126.032 66.7051 126.304 66.0165 125.314 65.7296H125.343ZM125.4 67.1641C124.411 66.8772 124.683 66.16 124.654 66.4899V66.4612V66.4182C124.654 66.4182 124.64 66.3321 124.669 66.1743C127.452 66.1743 125.472 66.3464 126.089 66.2747V66.3178V66.4756C126.132 66.5903 126.189 67.2789 126.218 67.4223C126.806 72.5292 127.753 81.1221 128.312 86.315C129.733 100.56 132.014 115.278 130.249 129.623C129.575 133.97 128.642 138.474 126.419 142.333C125.271 144.184 124.181 145.79 122.044 146.78C116.019 149.578 106.952 151.701 99.5359 152.934C91.8755 154.225 84.1434 155.029 76.4113 155.488C71.7635 155.674 66.0827 155.646 61.5209 154.742C51.4649 153.063 41.4519 147.526 36.5315 138.302C35.9577 137.169 35.3839 136.136 35.097 134.816C34.6666 130.757 28.5699 80.9786 28.283 78.2387C25.127 60.7088 31.0947 47.7407 45.3682 37.3834C71.1753 18.4477 119.662 23.2964 125.558 59.9628C125.874 61.8133 126.06 63.7213 126.103 65.6005V66.0165V66.2173V66.3464C126.146 66.6764 125.716 67.1498 125.415 67.1498L125.4 67.1641Z" fill="#231F20"/>
<path d="M125.423 66.7995C125.423 66.7995 125.677 31.121 84.671 28.9635C71.5308 28.2685 58.4048 31.8016 47.7708 39.751C38.5529 46.6435 29.7881 57.5179 31.5722 73.4457L38.7086 135.535C38.7086 135.535 44.5566 156.126 76.6991 154.461C108.842 152.795 121.5 146.164 121.5 146.164C121.5 146.164 132.205 142.327 128.637 102.666C125.069 63.0057 125.394 66.8139 125.394 66.8139L125.423 66.7995Z" fill="white"/>
<path d="M122.732 55.5445C98.5743 52.5607 73.0541 56.7351 52.1531 69.5598C45.2243 73.849 38.8407 79.0133 33.0882 84.8518L32.041 83.8763C48.5237 64.8402 73.1115 53.737 98.1296 52.3742C106.464 51.9151 114.87 52.3025 123.033 54.153L122.732 55.5588V55.5445Z" fill="#231F20"/>
<path d="M79.7586 86.5343L73 59.9826C96.9448 53.0309 116.77 54.1895 123.69 55.6378L129 78.8102L79.7586 86.5343Z" fill="#5BC3C8"/>
<path d="M99.7728 30.6016C99.7728 30.6016 61.4204 25.8068 34.021 53.5361" stroke="#231F20" stroke-width="1.43452" stroke-miterlimit="10"/>
<path d="M66.541 30.5551C66.541 30.5551 46.7876 -1.17662 13.3202 24.5874C11.9143 25.6777 10.6519 26.9257 9.60475 28.3602C6.75004 32.2908 2.67599 40.1807 11.5557 44.7282C23.7205 50.997 39.8445 19.1076 58.2638 29.6226L61.5632 31.9896L66.5267 30.5551H66.541Z" fill="white"/>
<path d="M65.867 30.2969C65.7379 30.4403 65.8097 30.7703 65.867 30.8276L65.7953 30.7272L65.6375 30.5121C59.1248 21.9049 48.6671 15.3491 37.6356 16.0664C30.7355 16.4394 24.1654 19.3801 18.456 23.1673C15.0849 25.3908 11.7568 27.8151 9.8345 31.4445C6.92241 36.3075 7.45319 40.8263 12.7035 43.1646C17.3514 45.0725 22.5014 40.6541 26.4176 38.029C30.9937 34.6578 35.6416 30.9998 41.1071 28.432C46.5583 25.7064 53.6162 25.4051 58.7948 28.891L61.9795 31.4015C61.9938 31.4015 61.3626 31.301 61.3626 31.301C62.8258 30.8563 64.2604 30.5981 65.867 30.2969ZM67.2011 30.8133C65.3936 31.5162 63.3853 32.2335 61.4487 32.7643L61.1475 32.5634L57.7333 30.3543C53.2145 27.8151 47.0891 28.4033 42.3552 31.0141C37.4348 33.5532 33.1599 37.3404 28.5407 40.855C24.9687 43.5232 21.1099 46.5644 16.4046 47.3247C12.9905 47.9272 9.40414 46.1914 7.02283 43.7958C3.02051 40.0947 3.9386 33.7397 6.57813 29.5796C8.77295 25.4625 12.6175 22.5648 16.4763 20.1548C20.2348 17.7448 24.2945 15.6791 28.5981 14.4454C43.1442 9.6971 58.4075 16.8267 66.5413 29.221C66.7995 29.6944 67.3733 30.2395 67.2011 30.8133Z" fill="#231F20"/>
<path d="M79.7251 84.0772L74.0874 58.1697" stroke="#231F20" stroke-width="1.43452" stroke-miterlimit="10"/>
<path d="M92.4775 71.7833L84.1143 72.7014C84.1143 72.7014 79.2512 80.1466 85.8644 84.8518L93.7973 85.397" fill="white"/>
<path d="M92.5488 72.5006L84.1999 73.5765C84.1999 73.5765 84.8454 73.1891 84.8311 73.1891C82.5215 76.7181 82.4641 81.7389 86.2656 84.2637C86.2656 84.2637 85.8926 84.1346 85.907 84.1346L93.8399 84.6797L93.7395 86.1142L85.8066 85.5691H85.577C84.5729 84.7658 83.54 83.9624 82.8658 82.8148C80.6566 79.4867 81.546 75.0684 83.5974 71.8837L83.9991 71.8407L92.3767 71.0804L92.5345 72.5006H92.5488Z" fill="#231F20"/>
<path d="M110.494 65.9304L94.1264 67.9101C94.1264 67.9101 86.1648 76.6176 94.1264 87.893L110.494 89.4853" fill="white"/>
<path d="M110.581 66.6477L94.2126 68.613L94.6429 68.3978C90.0094 73.8203 90.5259 81.9828 94.7147 87.5057L94.1982 87.2045L110.566 88.7968L110.423 90.2313L94.0548 88.639L93.7105 88.6103C92.6633 86.9462 91.5731 85.2965 90.9419 83.4173C88.8761 78.1096 89.952 71.855 93.6101 67.4654L93.7822 67.2789L94.0404 67.2502L110.408 65.2419L110.581 66.6621V66.6477Z" fill="#231F20"/>
<path d="M111.829 64.3238L137.492 60.221C137.492 60.221 121.856 73.0313 137.492 94.5636L111.829 91.4937C111.829 91.4937 100.324 76.8902 111.829 64.3381V64.3238Z" fill="white"/>
<path d="M111.241 63.2335C112.23 63.0901 139.816 59.1882 139.888 59.1738C134.265 63.2479 130.937 70.2197 131.295 77.1915C131.611 83.3169 134.58 89.1984 138.066 94.1619L138.927 95.4817L137.406 95.2952L111.743 92.2253L111.441 92.1823L111.269 91.9527C104.713 83.4317 103.265 71.3816 111.241 63.2479V63.2335ZM112.417 65.4284C105.632 73.0744 106.837 83.0443 112.388 91.049L111.915 90.7764L137.578 93.8463L136.919 94.9796C133.246 89.7723 130.219 83.7042 129.875 77.2345C129.588 70.6787 132.142 64.1229 137.048 59.6616L137.621 60.924L112.431 65.414L112.417 65.4284Z" fill="#231F20"/>
<path d="M161.965 61.5121L175.234 60.2354C175.234 60.2354 158.723 74.8388 176.999 95.8546L161.951 94.5779" fill="white"/>
<path d="M161.908 60.7948C167.029 60.5797 172.165 60.1063 177.2 59.1595L175.723 60.7661C166.9 69.4307 167.589 81.9254 174.546 91.5224C175.249 92.4118 177.932 95.8546 178.606 96.701C178.391 96.7297 162.683 95.3095 161.923 95.2808L162.037 93.8463L177.085 95.123L176.483 96.3137L173.37 92.34C172.509 90.8912 171.52 89.514 170.774 87.9934C165.71 78.9129 167.101 66.9203 174.776 59.6759L175.321 60.9239C170.874 61.0531 166.456 61.5408 162.052 62.2007L161.908 60.7661V60.7948Z" fill="#231F20"/>
<path d="M137.493 60.2354L148.998 58.9443" stroke="#231F20" stroke-width="1.43452" stroke-miterlimit="10"/>
<path d="M153.272 96.4141C162.478 96.4141 169.941 87.75 169.941 77.0624C169.941 66.3747 162.478 57.7106 153.272 57.7106C144.066 57.7106 136.603 66.3747 136.603 77.0624C136.603 87.75 144.066 96.4141 153.272 96.4141Z" fill="white"/>
<path d="M170.659 77.0624C171.003 93.9324 152.312 105.136 140.276 90.8481C133.978 83.0587 133.993 71.0804 140.276 63.2909C152.312 49.0174 170.903 60.221 170.645 77.0624H170.659ZM169.21 77.0624C169.44 61.9568 152.613 51.4848 141.854 64.5246C136.259 71.5538 136.288 82.5422 141.854 89.5858C152.627 102.611 169.354 92.1392 169.21 77.0624Z" fill="#231F20"/>
<path opacity="0.15" d="M153.932 93.545C161.063 93.545 166.843 86.204 166.843 77.1484C166.843 68.0928 161.063 60.7518 153.932 60.7518C146.802 60.7518 141.021 68.0928 141.021 77.1484C141.021 86.204 146.802 93.545 153.932 93.545Z" fill="#DB7929"/>
<path d="M141.754 77.1484C141.424 89.6431 154.234 99.8139 163.487 87.9791C170.229 79.1998 166.513 61.4834 153.933 61.1104C146.028 61.4404 141.653 70.0188 141.739 77.1484H141.754ZM140.319 77.1484C139.917 67.2072 149.385 55.9318 159.542 62.129C169.311 68.6704 169.311 85.6265 159.542 92.1822C149.385 98.365 139.917 87.0897 140.319 77.1628V77.1484Z" fill="#231F20"/>
<path d="M188.376 96.4141C197.582 96.4141 205.045 87.75 205.045 77.0624C205.045 66.3747 197.582 57.7106 188.376 57.7106C179.17 57.7106 171.707 66.3747 171.707 77.0624C171.707 87.75 179.17 96.4141 188.376 96.4141Z" fill="white"/>
<path d="M205.804 77.0624C206.12 93.9324 187.442 105.122 175.421 90.8195C169.152 83.0443 169.238 71.0947 175.479 63.334C187.5 49.1178 205.905 60.3071 205.804 77.048V77.0624ZM204.284 77.0624C204.571 68.1253 197.843 58.4422 188.375 58.5426C173.485 58.9587 168.22 79.2141 176.942 89.6001C187.729 102.626 204.456 92.1392 204.284 77.0624Z" fill="#231F20"/>
<path opacity="0.1" d="M188.376 93.459C195.506 93.459 201.286 86.118 201.286 77.0624C201.286 68.0068 195.506 60.6657 188.376 60.6657C181.245 60.6657 175.465 68.0068 175.465 77.0624C175.465 86.118 181.245 93.459 188.376 93.459Z" fill="#3EAAAF"/>
<path d="M176.182 77.0624C175.852 89.5571 188.663 99.7278 197.915 87.893C204.658 79.1137 200.942 61.3973 188.361 61.0244C180.457 61.3543 176.082 69.9328 176.168 77.0624H176.182ZM174.748 77.0624C174.346 67.1211 183.814 55.8457 193.97 62.0429C203.739 68.5843 203.739 85.5404 193.97 92.0962C183.814 98.279 174.346 87.0036 174.748 77.0767V77.0624Z" fill="#231F20"/>
<path d="M175.249 60.2354L182.507 58.9443" stroke="#231F20" stroke-width="1.43452" stroke-miterlimit="10"/>
<path d="M177.013 95.8546L186.165 96.3998" stroke="#231F20" stroke-width="1.43452" stroke-miterlimit="10"/>
<path d="M137.493 94.5636L151.651 96.3998" stroke="#231F20" stroke-width="1.43452" stroke-miterlimit="10"/>
<path d="M94.8018 84.7944C94.8018 84.7944 102.347 77.0337 111.227 82.9152C120.107 88.7968 115.186 105.581 103.839 102.626" fill="white"/>
<path d="M94.8018 84.7944C94.8018 84.7944 102.347 77.0337 111.227 82.9152C120.107 88.7968 115.186 105.581 103.839 102.626" stroke="#231F20" stroke-width="1.43452" stroke-miterlimit="10"/>
<path d="M36.5498 115.78C36.5498 115.78 88.7665 58.227 102.036 95.4673C111.274 121.389 37.9126 127.73 37.9126 127.73L36.5498 115.78Z" fill="white"/>
<path d="M35.8608 115.565C36.076 115.149 36.0904 115.235 36.1191 115.178L36.2195 115.049C36.9941 114.03 38.4143 112.352 39.275 111.362C49.5175 99.943 61.2806 89.2988 75.6546 83.3456C82.2534 80.6773 90.7458 79.4723 96.8138 84.3497C102.308 88.9402 106.439 97.4756 103.814 104.447C96.3404 122.164 55.2986 126.998 37.9696 128.461L37.2667 128.519L37.1949 127.816L35.8608 115.565ZM37.2236 116.01L38.6151 127.658L37.8405 127.027C53.7781 124.746 93.7009 118.979 100.4 103.185C102.394 97.7338 98.607 90.7621 94.4899 87.3479C89.5121 83.4747 82.655 84.7657 77.0891 87.0179C62.6578 93.2725 50.7225 104.318 38.9451 114.59C38.5147 114.991 37.6253 115.751 37.1949 116.167C37.1519 116.167 37.0945 116.34 37.238 116.01H37.2236Z" fill="#231F20"/>
</g>
<defs>
<linearGradient id="paint0_linear_694_360" x1="98.6733" y1="3.29755" x2="98.6733" y2="177.644" gradientUnits="userSpaceOnUse">
<stop stop-color="#009490"/>
<stop offset="1" stop-color="#009490" stop-opacity="0"/>
</linearGradient>
<clipPath id="clip0_694_360">
<rect width="201.493" height="179" fill="white" transform="translate(4.31152 12.9678)"/>
</clipPath>
</defs>
</svg>
