<svg width="210" height="200" viewBox="0 0 210 200" fill="none" xmlns="http://www.w3.org/2000/svg">
<g clip-path="url(#clip0_739_373)">
<rect width="210" height="200" fill="white"/>
<ellipse opacity="0.1" cx="94.8863" cy="90.3937" rx="94.8863" ry="90.3937" transform="matrix(0.996522 0.0833268 0.181643 0.983364 0.242188 -0.217407)" fill="url(#paint0_linear_739_373)"/>
<ellipse opacity="0.05" cx="71.718" cy="84.2783" rx="71.718" ry="84.2783" transform="matrix(0.996522 0.0833268 0.181643 0.983364 26.1909 17.2076)" fill="#122AF5"/>
<g clip-path="url(#clip1_739_373)">
<path d="M50 18.7963H201.015V74.476" stroke="#231F20" stroke-width="1.54323" stroke-miterlimit="10"/>
<path d="M54.4385 171.422H201.015V115.752" stroke="#231F20" stroke-width="1.54323" stroke-miterlimit="10"/>
<path d="M148.708 33.3438H180.014V48.9921" stroke="#231F20" stroke-width="1.54323" stroke-miterlimit="10"/>
<path d="M148.708 154.281H180.014V138.623" stroke="#231F20" stroke-width="1.54323" stroke-miterlimit="10"/>
<path d="M96.9085 159.6C96.9085 159.6 87.2582 181.648 87.4743 185.815C87.6595 189.261 125.52 187.018 138.689 186.123C143.977 185.763 147.177 180.074 144.666 175.393C142.156 170.712 134.913 164.456 117.66 157.502" fill="white"/>
<path d="M97.3809 159.816C94.4899 167.162 91.496 174.539 89.2635 182.111C88.9652 183.263 88.6051 184.488 88.5639 185.671V185.763C88.5639 185.732 88.5639 185.66 88.5433 185.619C88.5228 185.475 88.3376 185.372 88.5433 185.486C91.7944 186.535 95.3953 186.298 98.8418 186.422C112.042 186.37 125.241 185.527 138.41 184.662C141.713 184.58 144.346 181.494 144.038 178.253C143.482 174.745 140.468 172.101 137.783 169.786C135.807 168.16 133.657 166.699 131.424 165.341C126.98 162.605 122.247 160.259 117.474 157.985L117.854 157.028C125.447 159.662 132.947 162.81 139.449 167.656C142.669 170.259 146.373 173.438 146.97 177.944C147.567 182.811 143.482 187.523 138.606 187.615C125.354 188.428 112.083 189.179 98.7904 188.86C95.0558 188.613 91.0742 188.86 87.4836 187.389C87.0001 187.152 86.3828 186.514 86.3828 185.856C86.4137 185.424 86.4343 184.92 86.5063 184.518C88.6565 175.845 92.8129 167.512 96.4241 159.384L97.3706 159.796L97.3809 159.816Z" fill="#231F20"/>
<path d="M64.51 159.6C64.51 159.6 52.1641 166.699 46.0221 183.253C45.3534 185.064 46.4131 187.07 48.3369 187.615C53.5325 189.076 65.9915 190.877 93.5227 188.274C94.963 188.14 96.177 187.173 96.568 185.846C97.5659 182.512 97.4836 174.92 87.7818 159.611" fill="white"/>
<path d="M64.7683 160.053C57.3608 165.629 51.6611 173.387 48.1323 181.915C48.0191 182.265 47.3298 183.767 47.3092 184.097C47.0417 186.432 49.9841 186.483 51.62 186.895C65.2312 189.21 79.2334 188.088 92.9579 187.173C98.5649 187.173 94.9229 175.527 93.6884 172.481C91.9908 168.129 89.7583 163.952 87.3611 159.878L88.2253 159.323C92.1657 165.3 95.9312 171.658 97.567 178.747C98.3901 182.317 98.7296 188.901 93.6163 189.395C93.3591 189.416 92.5566 189.508 92.2892 189.529C78.04 190.866 63.4617 192.101 49.2845 189.333C46.3524 188.911 43.9553 186.792 44.4388 183.613C44.5725 182.759 45.1898 181.555 45.4779 180.794C47.3504 176.288 49.9533 172.09 53.122 168.397C56.2908 164.714 59.9637 161.473 64.2641 159.148L64.7785 160.043L64.7683 160.053Z" fill="#231F20"/>
<path d="M66.856 141.73L64.5103 159.6H87.7821L91.5682 142.573" fill="white"/>
<path d="M67.3709 141.802L65.0252 159.672L64.5107 159.086C72.268 158.726 80.0253 158.839 87.7826 159.086L87.2785 159.487L91.0646 142.45L92.0728 142.676L88.2867 159.714L88.2044 160.105C84.192 160.259 80.1694 160.321 76.1467 160.331C72.0726 160.351 67.9984 160.321 63.9243 160.084L63.9963 159.528L66.342 141.658L67.3606 141.792L67.3709 141.802Z" fill="#231F20"/>
<path d="M99.0477 141.73L96.9077 159.6L117.669 157.512L121.579 133.304" fill="white"/>
<path d="M99.5626 141.792L97.4123 159.662L96.8465 159.086C103.719 157.913 110.622 156.946 117.608 156.998L117.155 157.43L121.065 133.211L122.083 133.376L118.174 157.594L118.122 157.934C114.583 158.757 110.982 159.179 107.382 159.508C103.709 159.837 100.026 160.084 96.3218 160.125L96.3938 159.539L98.544 141.668L99.5626 141.792Z" fill="#231F20"/>
<path d="M56.5376 135.043L42.9881 73.5706C42.1342 69.7023 42.1959 65.6796 43.2453 61.8627C45.5087 53.6321 51.9594 40.7102 70.3547 35.0208C70.3547 35.0208 103.575 25.9363 118.184 50.0621C119.841 52.7988 120.859 55.9264 121.281 59.1569L129.409 121.215C129.573 122.512 129.409 123.839 128.874 125.022C126.693 129.816 118.359 140.866 87.5668 142.903C87.5668 142.903 72.4226 144.302 60.797 140.043C58.6364 139.25 57.0418 137.357 56.5274 135.043H56.5376Z" fill="white"/>
<path d="M55.3857 135.3C52.0112 120.68 44.2642 87.5934 41.116 73.3237C38.5645 59.9388 46.7745 46.3275 57.7109 39.1052C61.394 36.6978 65.4887 34.9179 69.6554 33.5804C86.991 29.2388 108.977 32.4179 118.792 48.9921C121.724 53.2515 122.331 58.9717 122.866 63.982C124.831 80.6489 127.681 102.913 129.738 119.487C130.911 124.106 128.226 128.036 125.047 131.123C116.755 138.757 105.201 141.431 94.3574 142.985C84.1824 144.333 73.7193 144.611 63.6883 142.059C59.8302 141.236 56.3117 139.538 55.3857 135.3ZM57.6903 134.796C57.9783 136.185 58.7705 137.471 59.9022 138.304C61.0854 139.148 62.8138 139.559 64.2439 140.001C73.9353 142.687 84.2338 142.635 94.1722 141.534C104.831 140.228 116.189 137.841 124.306 130.361C127.269 127.429 129.852 123.983 128.668 119.621C126.436 103.098 123.37 80.8032 121.024 64.2187C120.592 61.41 120.201 57.0992 119.131 54.4655C112.475 38.0455 94.059 33.0866 77.7831 35.3089C64.892 36.5434 52.4845 44.5168 47.1552 56.4717C45.1284 60.8853 43.7909 65.5047 44.2951 70.3093C47.1655 85.7107 54.573 119.075 57.7006 134.806L57.6903 134.796Z" fill="#231F20"/>
<path d="M43.6455 76.544C43.6455 76.544 78.4916 41.7493 121.579 61.338L43.6455 76.544Z" fill="white"/>
<path d="M43.2754 76.1838C63.6254 55.6383 95.3748 46.8522 121.785 60.875L121.363 61.8112C119.861 61.3071 117.916 60.5252 116.435 60.0931C94.5414 52.7782 71.2284 58.0869 52.3701 70.7105C49.4483 72.5933 46.6499 74.692 44.0059 76.9246L43.2754 76.1941V76.1838Z" fill="#231F20"/>
<path d="M107.906 56.6671C108.698 61.9553 109.305 67.2537 109.861 72.5727C110.324 77.9122 111.157 83.2004 110.663 88.5708L109.635 88.6634C107.721 80.8341 107.814 72.7476 107.196 64.7639C107.032 62.0993 106.949 59.4244 106.888 56.7597L107.917 56.6671H107.906Z" fill="#231F20"/>
<path d="M58.8002 66.41C62.0512 76.5645 65.1171 86.8012 67.3496 97.2334L66.362 97.5112C64.5924 92.47 63.1109 87.3465 61.722 82.2024C60.3228 77.0583 58.9854 71.8936 57.8125 66.6878L58.8002 66.41Z" fill="#231F20"/>
<path d="M99.0484 35.3706C99.0484 35.3706 69.0583 31.5948 48.3276 50.7205" stroke="#231F20" stroke-width="1.02882" stroke-miterlimit="10"/>
<path d="M70.3546 35.0208C70.3546 35.0208 42.8234 -1.24504 12.3601 28.601C8.37854 32.5002 6.60897 38.385 8.10076 43.8481C9.76744 49.949 15.3334 55.2165 31.8459 48.5189C34.9221 47.274 37.4529 44.9386 39.2019 42.0374C42.237 37.027 49.7062 29.8253 66.085 36.564" fill="white"/>
<path d="M69.9532 35.3295C57.5354 21.5639 38.4817 12.3868 21.5165 23.9816C18.4814 26.029 15.467 28.4981 13.039 31.2245C10.0348 34.8151 8.98545 40.1649 10.7962 44.486C13.1316 50.4531 20.1481 49.7021 25.4568 48.3132C29.1812 47.2329 33.2244 46.1835 35.8685 43.1382C36.5887 42.3975 37.2677 41.4098 37.8438 40.5456C44.4797 30.5352 56.6815 31.0907 66.2598 36.1011L65.8688 37.0476C62.8647 36.132 59.8297 35.3912 56.7946 35.1854C50.8892 34.6505 44.9735 36.7698 41.6813 41.7596C39.9323 44.7226 37.9364 47.5724 34.8911 49.3728C32.3911 50.8852 29.4075 51.8111 26.6606 52.7268C19.0267 54.9696 9.82908 54.8667 6.4237 46.2658C4.36606 41.0806 5.07594 35.1649 7.95663 30.494C10.2612 26.852 13.7695 24.28 17.144 21.7388C23.2655 17.4075 30.7553 14.6502 38.3376 15.0309C51.7431 15.7511 63.0396 24.352 70.766 34.7122L69.9429 35.3295H69.9532Z" fill="#231F20"/>
<path d="M162.65 74.013C162.65 74.013 176.251 67.943 180.737 80.9164C185.222 93.8898 169.646 93.9104 169.646 93.9104" fill="white"/>
<path d="M162.434 73.5501C170.705 69.301 179.563 71.8114 182.269 81.2045C185.181 90.1963 177.876 95.0935 169.635 94.4351V93.4063C172.825 92.9124 176.467 91.9453 178.648 89.5585C182.547 85.2477 178.257 75.7209 172.825 74.2291C169.769 73.262 166.168 73.5604 162.855 74.4966L162.434 73.5603V73.5501Z" fill="#231F20"/>
<path d="M19.2116 139.456C19.2116 139.456 7.81225 155.228 27.154 159.477C27.154 159.477 31.8557 161.339 38.2344 150.732" fill="white"/>
<path d="M19.6231 139.755C17.4729 145.074 15.7651 152.306 21.7528 155.578C23.4298 156.668 25.9504 157.481 27.8022 157.975C30.899 158.119 33.3681 155.393 35.4155 153.273C36.2385 152.378 36.9999 151.421 37.7921 150.465L38.6768 151C36.5266 155.506 33.1007 161.236 27.4113 161.175C19.8495 160.187 11.4132 154.888 14.9111 145.166C15.7651 142.841 17.0614 140.824 18.7898 139.158L19.6231 139.765V139.755Z" fill="#231F20"/>
<path d="M125.324 89.9391C78.4615 82.6756 50.4262 107.285 50.4262 107.285C51.8563 121.051 48.3789 137.131 46.2081 145.423C45.2821 148.952 41.8562 151.257 38.245 150.742C26.5473 149.065 19.644 141.041 18.4403 138.016C17.0205 134.477 30.2305 116.987 30.2305 116.987C54.4489 81.9555 50.4262 107.285 50.4262 107.285" fill="white"/>
<path d="M125.241 90.4432C122.885 90.1963 118.976 89.8465 116.682 89.5996C112.998 89.5379 109.326 89.2292 105.653 89.4659C99.6547 89.5482 93.3069 90.4227 87.422 91.5132C86.7533 91.6778 82.2574 92.7375 81.4652 92.933C79.5207 93.4988 77.5454 94.1264 75.6112 94.7128C72.9877 95.6902 70.1688 96.6779 67.6276 97.8302C61.6707 100.464 55.8579 103.633 50.7549 107.655L50.9298 107.213C52.6891 120.207 50.7549 133.417 47.6994 146.071C46.4545 150.814 41.3207 153.5 36.6601 152.234C30.8164 151.226 25.2917 148.469 20.9501 144.364C19.1394 142.471 16.9685 140.444 16.4438 137.697C16.5262 133.88 18.9747 130.68 20.7237 127.542C23.3266 123.314 26.2691 119.384 29.2321 115.433C32.9872 110.32 36.7733 105.248 41.547 100.845C49.3043 93.7972 52.7509 98.4989 50.9298 107.347L49.9113 107.182C50.0142 105.423 50.3949 99.1059 47.7611 99.4557C46.0224 99.8672 44.6026 101.39 43.2651 102.645C41.3824 104.569 39.654 106.719 37.9976 108.921C35.4667 112.182 33.1827 115.762 30.765 119.137C28.3679 122.501 26.0427 125.979 23.8925 129.487C22.5036 131.812 20.59 135.001 20.2196 137.327C23.9439 143.942 31.7115 148.047 39.119 149.034C41.2692 149.148 43.3577 147.831 44.2837 145.907C45.0141 144.096 45.3845 142.08 45.9092 140.187C48.5224 129.353 50.508 118.232 49.8907 107.048C60.5596 98.2314 73.6976 92.8918 87.1031 89.9185C88.8727 89.5996 91.455 89.1572 93.2349 88.8383C95.0662 88.5502 98.8111 88.2827 100.663 88.0564C105.91 87.7169 111.558 87.8815 116.805 88.2416C119.182 88.5296 123.05 89.1058 125.416 89.4041L125.262 90.4227L125.241 90.4432Z" fill="#231F20"/>
<path d="M125.324 81.9555C125.324 81.9555 155.253 70.5356 160.685 72.6653C166.117 74.7949 172.948 92.0174 168 99.0956C163.051 106.174 126.086 95.752 126.086 95.752" fill="white"/>
<path d="M125.139 81.472C135.674 76.9349 146.446 72.3155 158.01 70.9163C159.07 70.8648 160.088 70.8751 161.148 71.2352C162.773 71.8731 164.07 73.2208 165.026 74.4451C169.666 80.5769 173.946 93.5297 168.761 100.248C162.362 106.873 134.44 98.7458 125.942 96.2458L126.219 95.2581C132.814 96.6779 164.862 104.61 167.424 97.3466C169.924 90.8857 166.601 81.6674 162.691 76.297C161.755 75.2065 160.942 74.1571 159.594 73.9616C156.981 73.7764 154.368 74.4348 151.693 75.0007C144.039 76.7291 133.164 80.2271 125.51 82.4391L125.139 81.4823V81.472Z" fill="#231F20"/>
<path d="M67 97L58 66.5C78.8 53.7 99.6667 54.8333 107.5 57L110 88.5C90.8 88.1 73.3333 94 67 97Z" fill="#5BC3C8" stroke="black"/>
<path d="M85.9838 77.4549L84.4594 71.3916C84.3704 71.0376 84.6951 70.7186 85.0474 70.8138L91.6216 72.5893C91.9932 72.6897 92.0997 73.1658 91.8063 73.4149L86.7565 77.7027C86.4867 77.9318 86.0701 77.7982 85.9838 77.4549Z" fill="white" stroke="black" stroke-width="0.477838"/>
</g>
</g>
<defs>
<linearGradient id="paint0_linear_739_373" x1="94.8863" y1="0" x2="94.8863" y2="180.787" gradientUnits="userSpaceOnUse">
<stop stop-color="#FACF89"/>
<stop offset="1" stop-color="#FACF89"/>
</linearGradient>
<clipPath id="clip0_739_373">
<rect width="210" height="200" fill="white"/>
</clipPath>
<clipPath id="clip1_739_373">
<rect width="213.521" height="176" fill="white" transform="translate(5.25049 15)"/>
</clipPath>
</defs>
</svg>
