<svg width="210" height="200" viewBox="0 0 210 200" fill="none" xmlns="http://www.w3.org/2000/svg">
<g clip-path="url(#clip0_752_386)">
<rect width="210" height="200" fill="white"/>
<line opacity="0.8" x1="19.7746" y1="0.947998" x2="19.7746" y2="167.251" stroke="url(#paint0_linear_752_386)" stroke-width="0.598042"/>
<path opacity="0.8" d="M-26.229 215.461L20.4736 167.052" stroke="url(#paint1_linear_752_386)" stroke-width="0.598042"/>
<line x1="306.009" y1="167.55" x2="19.5032" y2="167.55" stroke="url(#paint2_linear_752_386)" stroke-width="0.598042"/>
<ellipse opacity="0.1" cx="113.196" cy="98.5413" rx="90.6724" ry="85.8823" fill="url(#paint3_linear_752_386)"/>
<ellipse opacity="0.45" cx="113.196" cy="87.3113" rx="68.533" ry="59.682" fill="#EFDBBB" fill-opacity="0.72"/>
<g clip-path="url(#clip1_752_386)">
<path d="M49.9151 59.3679C49.9151 59.3679 37.2547 51.6886 32.0849 67.2547C27.2358 81.849 42.1509 82.0471 42.1509 82.0471" fill="white"/>
<path d="M49.7168 59.6886C44.9432 57.1603 38.6413 57.4434 35.5187 62.1698C32.896 66.2735 30.5092 72.3396 33.2262 76.8867C35.1413 79.7735 38.8205 81.0094 42.1602 81.6603L42.1507 82.4245C35.8394 83.0094 29.6885 78.8679 30.2356 72.0188C30.7356 64.4905 36.0658 55.3018 44.7451 57.0283C46.6696 57.3584 48.4715 58.0188 50.1224 59.0377L49.7262 59.6886H49.7168Z" fill="#231F20"/>
<path d="M95.8115 78.0755L62.4813 57.3396C58.3586 54.7736 53.1888 55.5755 49.9152 59.3679C46.3492 63.5094 42.5851 70 42.1605 79.1981C41.8775 85.4906 46.2266 90.8585 51.8681 91.3019L94.9624 94.6604L95.802 78.0755H95.8115Z" fill="white"/>
<path d="M95.4719 78.2547C84.4341 71.783 73.6889 65.4245 62.953 58.8962C61.7926 58.1792 60.7643 57.5566 59.4719 57.2641C53.8492 55.8113 50.0096 60.4811 47.5568 64.8774C45.019 69.2736 43.6794 74.3207 43.5002 79.3774C43.2549 84.8019 47.3398 90.0377 52.9436 90.0283C66.9907 91.1887 81.0096 92.5472 95.0002 94.2736L94.5851 94.6321L95.4719 78.2453V78.2547ZM96.1511 77.8962L95.3492 94.6698L95.3304 95.0472C83.9247 94.6887 72.5379 94.0472 61.1605 93.3019C57.2926 92.9151 53.0568 93.066 49.3115 92.1604C44.3115 90.6226 41.019 85.5283 40.8492 80.4528C40.8304 73.1132 43.3021 65.7736 47.8304 59.9811C50.453 56.0943 55.3964 53.6698 60.0379 55.066C61.5002 55.4245 62.9247 56.283 64.1228 57.0755C74.8775 63.934 85.7077 70.9906 96.1511 77.8868V77.8962Z" fill="#231F20"/>
<path d="M131.188 26.9811C131.188 26.9811 169.509 3.5849 201.019 37.6509C202.302 39.0472 203.405 40.6321 204.226 42.4057C207.075 48.6226 210.339 57.217 188.594 61.7736C180.528 63.4623 170.971 54.3396 170.226 45.3019C170.198 44.9245 170.17 44.5472 170.151 44.1604C169.792 36.6038 165.094 30.066 158.547 27.8207C152.547 25.7547 145.028 25 137.613 29.1038" fill="white"/>
<path d="M131.019 26.7075C151.811 14.1604 178.226 14.7641 196.764 31.1981C199.764 33.8585 202.83 36.5377 204.934 40.0283C208.349 46.0754 210.103 53 203.651 57.8019C199.264 61.0188 194.085 62.3207 188.915 63.4717C188.103 63.6037 187.207 63.7264 186.386 63.6981C177.858 63.1792 170.943 55.6981 169.094 47.6604C168.651 45.7264 168.802 43.7641 168.481 41.8773C167.641 36.5943 164.302 31.6604 159.424 29.3302C152.613 26.2453 144.537 25.9434 137.773 29.4056L137.462 28.8396C140.811 26.7924 144.688 25.6038 148.622 25.4434C156.839 25.1321 165.169 27.9528 169.179 35.5943C170.169 37.3962 170.849 39.3585 171.245 41.3868C171.641 43.2736 171.547 45.2075 172.009 47.0283C173.603 53.4434 179.688 60.0377 186.462 60.2924C187.047 60.3113 187.66 60.2358 188.236 60.132C191.169 59.5 194.141 58.7075 196.896 57.5849C201.651 55.7264 206.075 52.3207 204.066 46.7264C203.264 44.2641 202.151 41.6981 200.481 39.6792C193.764 32 185.122 25.7453 175.339 22.6887C160.915 18.1604 144.802 20.5377 131.377 27.3019L131.037 26.7547L131.019 26.7075Z" fill="#231F20"/>
<path d="M147.019 156.066C147.019 156.066 167.802 169.123 168.66 177.774C169.519 186.425 130.877 194.283 130.877 194.283L133.236 165.104L140.142 158.519" fill="white"/>
<path d="M147.217 155.755C154.339 159.274 171.962 170.226 170.443 179.33C167.509 188.726 140.009 193.632 130.962 194.642C130.962 194.642 130.481 194.736 130.481 194.745L130.519 194.255C130.575 194.076 132.849 165.085 132.887 164.934L132.99 164.84L139.896 158.255L140.405 158.783L133.5 165.368C133.83 164.094 131.17 194.594 131.255 194.311C131.255 194.311 130.802 193.915 130.821 193.925C137.179 191.642 165.905 183.972 166.736 177.906C165.358 170.83 152.519 161.33 146.83 156.377L147.217 155.755Z" fill="#231F20"/>
<path d="M140.141 158.528L147.019 156.066L142.236 141.538L135.538 143.632L140.141 158.528Z" fill="white" stroke="#231F20" stroke-width="1.88679" stroke-miterlimit="10"/>
<path d="M114.293 163.236C114.293 163.236 81.17 172.651 80.7926 188.387C80.4907 201.094 123.33 197.132 139.84 195.132C145.151 194.491 149.519 190.481 150.378 185.189C151.311 179.387 149.859 171.189 140.179 161.717" fill="white"/>
<path d="M114.396 163.594C105.774 166.774 97.17 170.491 89.9341 176.16C86.0756 179.226 82.2266 183.377 82.1134 188.528C82.5096 194.321 93.7737 195.17 98.3492 195.698C110.651 196.651 123.038 195.679 135.321 194.575C138.264 194.226 141.33 194.274 143.972 192.774C152.538 188 150.387 176.085 145.679 169.151C144.038 166.575 142.057 164.198 139.915 161.981L140.434 161.453C145.01 165.745 149.038 170.915 150.698 177.104C152.51 183.453 151.132 191.009 144.925 194.453C142.104 196.16 138.717 196.274 135.547 196.689C132.453 197.057 129.359 197.387 126.255 197.66C113.793 198.547 101.047 199.566 88.7266 196.764C84.7454 195.755 79.4907 193.481 79.4907 188.538C79.5851 182.5 83.9247 177.679 88.4907 174.274C93.6039 170.519 99.3492 167.821 105.245 165.632C108.189 164.575 111.161 163.604 114.208 162.868L114.415 163.585L114.396 163.594Z" fill="#231F20"/>
<path d="M101.528 144.953C103.802 149.264 109.83 160.151 114.302 163.236L140.179 161.717L135.538 143.623C135.538 143.623 117.359 147.585 102.51 143.708C101.783 143.519 101.179 144.283 101.528 144.943V144.953Z" fill="white" stroke="#231F20" stroke-width="1.88679" stroke-miterlimit="10"/>
<path d="M72.7921 115.509L77.962 54.6792C78.8204 45.5189 83.6035 37.1132 91.2167 31.9434C100.641 25.5472 115.868 20.8113 138.264 29.1132C138.264 29.1132 167.358 42.3679 164.283 66.8773L159.254 123.632C159.254 123.632 155.009 155.849 89.745 141.774C79.028 139.462 71.8299 126.972 72.7261 116.047C72.745 115.868 72.7544 115.689 72.7733 115.509H72.7921Z" fill="white"/>
<path d="M72.5002 115.481C74.1039 99.0377 75.2926 80.7264 76.4907 64.1509L77.1039 55.5943C77.5568 46.7924 81.6794 38.1226 88.5379 32.4906C102.717 20.8302 122.453 21.1887 138.934 27.3019C147.585 31.4339 155.33 37.2641 160.887 45.1887C165.095 51.1604 167.406 58.6509 166.679 65.9811L166.085 72.8585C165.321 81.9434 164.462 91.0189 163.642 100.104C163.028 106.368 161.972 117.821 161.33 123.991C158.859 135.17 148.302 142.132 137.849 144.745C126.396 147.594 114.736 146.896 103.33 145.198C98.7926 144.538 94.3115 143.585 89.8304 142.613C87.5285 142.075 85.3021 141.113 83.3492 139.792C75.6511 134.5 71.5473 124.689 72.5002 115.491V115.481ZM73.0662 115.528C72.4058 124.387 76.5851 133.755 84.1039 138.613C85.9719 139.783 88.0096 140.594 90.1605 141.038C94.6134 141.877 99.0851 142.679 103.595 143.151C114.661 144.415 126.33 144.594 136.972 141.557C145.887 139.066 155.189 132.906 157.17 123.387C157.632 117.311 158.585 105.792 159.085 99.5943C159.878 90.5094 160.613 81.4245 161.462 72.349L162.076 65.6038C162.727 59.2641 160.783 52.9056 157.227 47.6509C152.585 40.6038 144.576 34.4906 137.594 30.8962C122.34 24.7547 103.566 23.8207 89.9907 34.2924C83.3587 39.3962 79.2643 47.3868 78.6322 55.717L77.7926 64.2547C76.2266 80.8207 74.2077 99.0094 73.0662 115.519V115.528Z" fill="#231F20"/>
<path d="M78.1226 51.4812C78.1226 51.4812 120.132 41.9246 164.292 66.8774L78.1226 51.4812Z" fill="white"/>
<path d="M78.0469 51.1698C92.6035 47.4151 107.981 48.4623 122.651 51.0189C135.462 53.4057 148.085 57.6981 159.537 63.9151L164.443 66.5944L164.132 67.151C161.122 65.7359 157.151 63.5472 154.122 62.3208C153.122 61.9057 148.594 60.0189 147.717 59.651C146.905 59.3679 144.632 58.5755 143.783 58.283C138.811 56.4811 132.953 54.8585 127.773 53.7925C118.773 51.7547 109.519 50.7453 100.302 50.6415C92.9242 50.5755 85.5374 50.934 78.1884 51.783L78.0469 51.1604V51.1698Z" fill="#231F20"/>
<path d="M100 83.5C100 73.9 104 57.1666 106 50C95.6 48.8 83.8333 50.6667 79 51.5C78.2 55.5 76.5 74.1666 76 83.5C83.6 81.9 95.1667 83 100 83.5Z" fill="#5BC3C8"/>
<path d="M83.3342 68.1518L83.9602 63.898C84.0091 63.5663 84.3755 63.3867 84.6676 63.5513L86.3614 64.5058C86.6076 64.6446 86.6802 64.9657 86.5176 65.197L84.1978 68.4962C83.9082 68.9081 83.2609 68.6499 83.3342 68.1518Z" fill="white" stroke="black" stroke-width="0.477838"/>
<path d="M75.8115 84.0283C75.8115 84.0283 107.557 77.0944 161.613 98.3019L75.8115 84.0283Z" fill="white"/>
<path d="M75.6886 83.4812C82.9622 81.8302 90.3867 81.8774 97.7735 82.2547C116.132 83.3868 134.226 87.7642 151.519 93.8679L161.811 97.783L161.396 98.8396L151.075 95.1604C133.811 89.4812 115.849 85.1793 97.6603 84.1227C90.4339 83.783 83.0943 83.717 75.9245 84.5944L75.6792 83.4906L75.6886 83.4812Z" fill="#231F20"/>
<path d="M105.839 49.5C105.839 49.5 101.519 66.2925 100.038 83.6698L105.839 49.5Z" fill="white"/>
<path d="M105.839 49.5C105.839 49.5 101.519 66.2925 100.038 83.6698" stroke="#231F20" stroke-width="1.88679" stroke-miterlimit="10"/>
<path d="M106.528 25.7736C106.528 25.7736 138.434 25.2547 157.151 43.3962" stroke="#231F20" stroke-width="1.88679" stroke-miterlimit="10"/>
<path d="M165.368 140.038C165.368 140.038 165.519 140.255 165.736 140.651C170.642 149.387 163.17 159.896 153.264 158.387C149.576 157.821 146.349 155.915 146.434 150.943" fill="white"/>
<path d="M165.764 139.764C172.444 149.943 163.189 161.858 151.651 158.519C148.151 157.708 145.793 154.509 145.953 150.934L146.925 150.953C146.387 157.377 153.83 159.226 158.736 157.226C165.17 154.764 168.821 146.434 164.972 140.33L165.764 139.774V139.764Z" fill="#231F20"/>
<path d="M133.811 144.245L124.509 113.453C124.509 113.453 117.896 97.3207 131.189 94.783C142.585 92.6132 160.915 119.755 165.896 127.519C166.943 129.141 167.49 131.047 167.443 132.972C167.302 138.708 164.311 149.774 143.755 151.189C139.236 151.5 135.123 148.575 133.821 144.236L133.811 144.245Z" fill="white"/>
<path d="M133.283 144.406C130.443 134.066 127.434 123.774 124.132 113.566C122.359 108.849 121.047 102.736 124.16 98.0377C125.774 95.6886 128.481 94.3585 131.208 93.8018C136.868 92.9622 141.868 96.8962 145.953 100.236C154.51 107.745 161.434 116.868 167.651 126.33C170.576 130.66 169.83 136.491 167.566 140.953C166.274 143.538 164.208 145.774 161.84 147.396C157.226 150.547 151.736 151.698 146.34 152.066C140.547 152.962 134.934 150.311 133.283 144.415V144.406ZM134.34 144.085C135.491 147.557 138.764 150.16 142.415 150.245C146.019 150.104 149.962 149.17 153.368 147.962C157.802 146.292 161.906 143.434 163.887 139.132C165.16 136.198 165.934 132.67 164.632 129.641C164.434 129.16 164.104 128.66 163.83 128.217C159.321 121.226 154.547 114.349 149.198 107.981C145.113 103.377 140.764 98.3585 134.915 96.1415C131.576 94.9434 127.519 96.2264 125.368 98.9151C122.368 102.934 123.368 108.802 124.896 113.302C125.623 115.896 126.387 118.481 127.142 121.066C129.387 128.792 131.859 136.443 134.359 144.085H134.34Z" fill="#231F20"/>
<path d="M-13.519 51.6415L-2.59451 62.7075C-2.59451 62.7075 3.39605 106.349 9.16964 115.811C9.16964 115.811 2.6319 121.047 -8.51904 119.698L-13.519 51.6415Z" fill="white"/>
<path d="M9.16943 44.7028C14.0185 48.5141 18.7638 53.9481 21.6883 59.0141C24.0374 74.7217 26.2921 90.5613 30.7826 105.825C31.443 108.005 32.2638 110.127 33.3392 112.137C30.9053 114.08 27.9619 115.335 24.9525 116.127C21.6411 116.939 18.1411 117.259 14.7449 116.807V116.09C14.5562 92.6367 11.7072 68.1839 9.17887 44.7122H9.16943V44.7028ZM12.1223 51.2122C12.4996 66.7688 13.0751 83.4764 14.6317 99.0518C15.1317 104.722 15.7826 110.382 16.5468 115.948L15.7543 115.108C21.6977 116.099 28.16 115.391 33.3392 112.118C31.1789 108.108 30.0657 103.637 28.9053 99.2594C25.66 86.0047 23.4525 72.5235 21.4619 59.033C17.6883 56.7877 14.4525 54.8537 12.1317 51.2028L12.1223 51.2122Z" fill="#231F20"/>
<path d="M15.4458 115.939C15.4458 111.539 12.7791 69.4392 11.4458 48.9392L20.9458 57.4392C25.3458 90.6392 31.7791 106.939 34.4458 110.939C28.4458 115.739 19.2791 116.273 15.4458 115.939Z" fill="#F8F3DE" stroke="black"/>
</g>
</g>
<defs>
<linearGradient id="paint0_linear_752_386" x1="19.4756" y1="84.0997" x2="19.4756" y2="-3.35814" gradientUnits="userSpaceOnUse">
<stop/>
<stop offset="1" stop-opacity="0"/>
</linearGradient>
<linearGradient id="paint1_linear_752_386" x1="16.6039" y1="164.34" x2="-35.355" y2="206.611" gradientUnits="userSpaceOnUse">
<stop/>
<stop offset="1" stop-opacity="0"/>
</linearGradient>
<linearGradient id="paint2_linear_752_386" x1="199.382" y1="167.251" x2="306.009" y2="167.251" gradientUnits="userSpaceOnUse">
<stop/>
<stop offset="1" stop-opacity="0"/>
</linearGradient>
<linearGradient id="paint3_linear_752_386" x1="113.196" y1="12.659" x2="113.196" y2="184.424" gradientUnits="userSpaceOnUse">
<stop stop-color="#009490"/>
<stop offset="1" stop-color="#009490" stop-opacity="0"/>
</linearGradient>
<clipPath id="clip0_752_386">
<rect width="210" height="200" fill="white"/>
</clipPath>
<clipPath id="clip1_752_386">
<rect width="223" height="180.604" fill="white" transform="translate(-15 18)"/>
</clipPath>
</defs>
</svg>
