<svg width="392" height="359" viewBox="0 0 392 359" fill="none" xmlns="http://www.w3.org/2000/svg">
<path d="M0.5 0H387.5C389.709 0 391.5 1.79086 391.5 4V355C391.5 357.209 389.709 359 387.5 359H0.5V0Z" fill="#F6F6F6"/>
<g clip-path="url(#clip0_2633_13228)">
<rect x="116" y="108" width="1.722" height="2.64" transform="rotate(94 116 108)" fill="#480CA7"/>
<rect x="290" y="148" width="4.456" height="1.64" transform="rotate(-158 290 148)" fill="#40CCCE" fill-opacity="0.35"/>
<rect x="244" y="99" width="1.722" height="1.64" transform="rotate(-117 244 99)" fill="#9AF5FC" fill-opacity="0.45"/>
<rect x="236" y="124" width="4.456" height="2.64" transform="rotate(-142 236 124)" fill="#40CCCE"/>
<rect x="240" y="132" width="8.722" height="1.64" transform="rotate(172 240 132)" fill="#F54721" fill-opacity="0.75"/>
<rect x="115" y="81" width="5.456" height="2.64" transform="rotate(-157 115 81)" fill="#F4D47B" fill-opacity="0.85"/>
<rect x="268" y="84" width="4.722" height="2.64" transform="rotate(114 268 84)" fill="#DCBCFA" fill-opacity="0.6"/>
<rect x="260" y="39" width="2.456" height="3.64" transform="rotate(95 260 39)" fill="#F4D47B" fill-opacity="0.65"/>
<rect x="271" y="100" width="5.722" height="2.64" transform="rotate(-179 271 100)" fill="#BA3E03" fill-opacity="0.35"/>
<rect x="86" y="142" width="5.456" height="2.64" transform="rotate(2 86 142)" fill="#F4D47B" fill-opacity="0.6"/>
<rect x="226" y="47" width="7.722" height="2.64" transform="rotate(32 226 47)" fill="#FFED36" fill-opacity="0.35"/>
<rect x="86" y="84" width="2.456" height="2.64" transform="rotate(-169 86 84)" fill="#F27BF4" fill-opacity="0.9"/>
<rect x="180" y="126" width="5.722" height="2.64" transform="rotate(159 180 126)" fill="#C9FCBE" fill-opacity="0.6"/>
<rect x="268" y="140" width="3.456" height="3.64" transform="rotate(-152 268 140)" fill="#40CCCE"/>
<rect x="209" y="91" width="2.722" height="2.64" transform="rotate(-68 209 91)" fill="#03A3F5" fill-opacity="0.65"/>
<rect x="271" y="94" width="5.456" height="2.64" transform="rotate(-102 271 94)" fill="#2C5DF2" fill-opacity="0.75"/>
<rect x="130" y="160" width="9.722" height="1.64" transform="rotate(-162 130 160)" fill="#FFED36"/>
<rect x="225" y="134" width="3.456" height="1.64" transform="rotate(-81 225 134)" fill="#F4D47B" fill-opacity="0.75"/>
<circle cx="245.115" cy="169.115" r="1.115" fill="#9AF5FC" fill-opacity="0.9"/>
<rect x="175" y="116" width="8.456" height="2.64" transform="rotate(152 175 116)" fill="#40CCCE" fill-opacity="0.6"/>
<rect x="175" y="158" width="5.456" height="2.64" transform="rotate(-166 175 158)" fill="#40CCCE" fill-opacity="0.85"/>
<circle cx="200.115" cy="49.115" r="2.115" fill="#9AF5FC"/>
<circle cx="151.615" cy="98.615" r="1.615" fill="#FC9E1C" fill-opacity="0.9"/>
<rect x="291" y="164" width="4.456" height="1.64" transform="rotate(101 291 164)" fill="#F4D47B"/>
<circle cx="186.115" cy="112.115" r="2.115" fill="#9DED1A" fill-opacity="0.65"/>
<rect x="252" y="83" width="7.456" height="2.64" transform="rotate(-32 252 83)" fill="#40CCCE" fill-opacity="0.9"/>
<rect x="250" y="133" width="7.456" height="1.64" transform="rotate(100 250 133)" fill="#2C5DF2" fill-opacity="0.9"/>
<circle cx="201.615" cy="138.615" r="0.615" fill="#4BC8EF" fill-opacity="0.85"/>
<rect x="132" y="49" width="7.456" height="3.64" transform="rotate(-51 132 49)" fill="#40CCCE" fill-opacity="0.45"/>
<circle cx="272.115" cy="140.115" r="1.115" fill="#FC9E1C"/>
<rect x="93" y="118" width="4.456" height="3.64" transform="rotate(48 93 118)" fill="#F4D47B" fill-opacity="0.85"/>
<circle cx="256.115" cy="173.115" r="1.115" fill="#DCBCFA" fill-opacity="0.75"/>
<rect x="130" y="141" width="7.456" height="1.64" transform="rotate(14 130 141)" fill="#F27BF4" fill-opacity="0.9"/>
<rect x="131" y="75" width="1.456" height="1.64" transform="rotate(33 131 75)" fill="#F4D47B" fill-opacity="0.65"/>
<path d="M192.846 183.474L190.61 185.04L188.136 183.886L187.898 181.167L190.134 179.601L192.608 180.755L192.846 183.474Z" fill="#9DED1A" fill-opacity="0.85"/>
<rect x="193.827" y="115.112" width="8.456" height="3.64" transform="rotate(95 193.827 115.112)" fill="#2C5DF2" fill-opacity="0.75"/>
<path d="M276.774 136.044L278.171 135.67L278.958 136.883L278.048 138.006L276.698 137.488L276.774 136.044Z" fill="#DCBCFA" fill-opacity="0.85"/>
<rect x="109" y="143" width="6.456" height="3.64" transform="rotate(-122 109 143)" fill="#40CCCE" fill-opacity="0.65"/>
<path d="M106.314 115.611L105.018 113.536L107.093 112.24L108.389 114.314L106.314 115.611Z" fill="#4BC8EF" fill-opacity="0.35"/>
<rect x="277" y="159" width="6.456" height="2.64" transform="rotate(-68 277 159)" fill="#F4D47B" fill-opacity="0.6"/>
<path d="M109.579 131.844L110.949 130.212L111.677 132.214L109.579 131.844Z" fill="#480CA7" fill-opacity="0.75"/>
<rect x="148" y="99" width="4.456" height="2.64" transform="rotate(83 148 99)" fill="#2C5DF2"/>
<path d="M264.689 103.879L268.467 103.076L267.274 106.75L264.689 103.879Z" fill="#FF21FB" fill-opacity="0.6"/>
<circle cx="151.52" cy="37.52" r="0.52" fill="#2C5DF2" fill-opacity="0.6"/>
<path d="M188.498 166.865L189.131 169.228L186.768 169.861L186.135 167.498L188.498 166.865Z" fill="#4BC8EF" fill-opacity="0.9"/>
<circle cx="112.52" cy="155.52" r="1.52" fill="#F4D47B" fill-opacity="0.65"/>
<path d="M252.914 83.4225L252.84 81.2934L254.721 82.2936L252.914 83.4225Z" fill="#C9FCBE" fill-opacity="0.65"/>
<circle cx="167.52" cy="176.52" r="0.52" fill="#40CCCE" fill-opacity="0.9"/>
<path d="M241.031 115.047L237.755 113L241.166 111.187L241.031 115.047Z" fill="#480CA7" fill-opacity="0.75"/>
<circle cx="279.02" cy="76.02" r="1.02" fill="#40CCCE" fill-opacity="0.35"/>
<path d="M295.682 111.188L294.826 111.202L294.812 112.058L294.372 111.324L293.624 111.739L294.04 110.991L293.305 110.551L294.161 110.538L294.175 109.682L294.615 110.416L295.363 110L294.947 110.748L295.682 111.188Z" fill="#03A3F5" fill-opacity="0.75"/>
<circle cx="269.52" cy="85.52" r="1.52" fill="#F27BF4" fill-opacity="0.85"/>
<circle cx="180.52" cy="124.52" r="0.52" fill="#F27BF4"/>
<path d="M191.519 77.1322L190.67 77.0268L190.537 77.8725L190.204 77.0841L189.405 77.3919L189.921 76.7089L189.255 76.171L190.104 76.2764L190.237 75.4308L190.571 76.2192L191.37 75.9114L190.853 76.5944L191.519 77.1322Z" fill="#03A3F5" fill-opacity="0.75"/>
<circle cx="259.52" cy="46.52" r="0.52" fill="#F27BF4" fill-opacity="0.75"/>
<path d="M107.34 111.614L106.173 109.838L104.066 109.568L105.842 108.402L106.112 106.294L107.278 108.07L109.386 108.34L107.61 109.507L107.34 111.614Z" fill="#DCBCFA"/>
<circle cx="205.02" cy="124.02" r="1.02" fill="#F4D47B" fill-opacity="0.45"/>
<path d="M219.917 122.533L221.235 122.806L222.301 121.983L222.028 123.301L222.851 124.366L221.533 124.094L220.467 124.917L220.74 123.598L219.917 122.533Z" fill="#03A3F5"/>
<circle cx="209.02" cy="72.02" r="1.02" fill="#F4D47B" fill-opacity="0.45"/>
<path d="M295.553 36.3152L293.629 35.8353L292.578 37.5174L292.439 35.5388L290.515 35.0589L292.354 34.3159L292.215 32.3373L293.49 33.8567L295.329 33.1137L294.278 34.7958L295.553 36.3152Z" fill="#9AF5FC" fill-opacity="0.65"/>
<circle cx="282.02" cy="175.02" r="1.02" fill="#F4D47B"/>
<path d="M250.879 81.6891L249.803 80.3272L248.069 80.2574L249.431 79.1815L249.501 77.4474L250.577 78.8093L252.311 78.8791L250.949 79.955L250.879 81.6891Z" fill="#9AF5FC" fill-opacity="0.6"/>
<circle cx="207.02" cy="74.02" r="2.02" fill="#F4D47B" fill-opacity="0.9"/>
<path d="M100.325 74.112L99.8544 75.2774L100.817 76.0853L99.5634 75.9977L99.0926 77.1631L98.7885 75.9435L97.5346 75.8558L98.6006 75.1897L98.2965 73.9702L99.2593 74.7781L100.325 74.112Z" fill="#F62584" fill-opacity="0.75"/>
<circle cx="101.52" cy="72.52" r="0.52" fill="#2C5DF2" fill-opacity="0.65"/>
<path d="M105.448 68.6711L104.349 69.4492L104.224 70.7899L103.446 69.6911L102.106 69.5666L103.204 68.7884L103.329 67.4478L104.107 68.5465L105.448 68.6711Z" fill="#FC9E1C" fill-opacity="0.75"/>
<circle cx="223.02" cy="91.02" r="1.02" fill="#40CCCE" fill-opacity="0.35"/>
<circle cx="177.02" cy="120.02" r="1.02" fill="#F27BF4"/>
<circle cx="111.02" cy="177.02" r="1.02" fill="#F27BF4" fill-opacity="0.9"/>
<circle cx="153.02" cy="104.02" r="1.02" fill="#40CCCE" fill-opacity="0.65"/>
<circle cx="185.02" cy="163.02" r="1.02" fill="#F4D47B" fill-opacity="0.9"/>
<circle cx="222.52" cy="48.52" r="1.52" fill="#2C5DF2" fill-opacity="0.45"/>
<circle cx="284.52" cy="79.52" r="0.52" fill="#F27BF4" fill-opacity="0.85"/>
<circle cx="143.52" cy="38.52" r="0.52" fill="#F27BF4" fill-opacity="0.45"/>
<circle cx="218.52" cy="135.52" r="1.52" fill="#40CCCE"/>
<circle cx="279.52" cy="66.52" r="0.52" fill="#F4D47B" fill-opacity="0.9"/>
<path d="M92.7842 101.011L95.1645 101.303L95.6221 103.657L93.5246 104.82L91.7707 103.184L92.7842 101.011Z" fill="#F4D47B" fill-opacity="0.85"/>
<path d="M233.602 113.582L234.832 112.656L236.249 113.257L236.437 114.786L235.207 115.713L233.789 115.111L233.602 113.582Z" fill="#2C5DF2" fill-opacity="0.35"/>
<path d="M259.011 144.321L257.848 143.944L257.848 142.721L259.011 142.343L259.73 143.332L259.011 144.321Z" fill="#40CCCE"/>
<path d="M273.473 135.55L275.184 136.139L275.153 137.949L273.422 138.479L272.383 136.996L273.473 135.55Z" fill="#2C5DF2" fill-opacity="0.75"/>
<path d="M245.909 103.964L246.855 102.837L247.981 103.783L247.036 104.909L245.909 103.964Z" fill="#F27BF4" fill-opacity="0.35"/>
<path d="M91.1222 131.203L90.6916 127.696L93.9441 129.076L91.1222 131.203Z" fill="#40CCCE" fill-opacity="0.6"/>
<path d="M196.465 74.5241L197.971 74.8443L198.447 76.3089L197.416 77.4534L195.91 77.1332L195.434 75.6686L196.465 74.5241Z" fill="#40CCCE" fill-opacity="0.6"/>
<path d="M192.987 38.7661L192.185 37.8433L192.814 36.7954L194.006 37.0704L194.112 38.2883L192.987 38.7661Z" fill="#F27BF4"/>
<path d="M283.901 84.48L285.461 85.3807L283.901 86.2813L283.901 84.48Z" fill="#F27BF4" fill-opacity="0.45"/>
<path d="M274.265 157.265L274.073 156.057L275.163 155.502L276.027 156.367L275.472 157.456L274.265 157.265Z" fill="#F4D47B" fill-opacity="0.65"/>
<path d="M205.292 46.8387L205.94 48.5289L204.533 49.6682L203.015 48.6822L203.484 46.9335L205.292 46.8387Z" fill="#40CCCE" fill-opacity="0.65"/>
<path d="M189.404 51.9509L187.912 53.3421L185.961 52.7457L185.502 50.758L186.994 49.3667L188.945 49.9631L189.404 51.9509Z" fill="#F4D47B" fill-opacity="0.65"/>
<path d="M243.294 160.512L242.792 161.968L241.281 162.262L240.27 161.099L240.772 159.643L242.284 159.349L243.294 160.512Z" fill="#40CCCE" fill-opacity="0.45"/>
<path d="M194.269 165.905L192.258 167.211L190.394 165.701L191.253 163.463L193.648 163.588L194.269 165.905Z" fill="#2C5DF2" fill-opacity="0.85"/>
<path d="M131.627 83.9709L130.819 84.6254L129.848 84.2527L129.685 83.2255L130.494 82.571L131.465 82.9437L131.627 83.9709Z" fill="#2C5DF2"/>
<path d="M130.608 154.744L133.004 154.66L133.824 156.914L131.935 158.39L129.947 157.049L130.608 154.744Z" fill="#2C5DF2" fill-opacity="0.75"/>
<path d="M214.512 55.9183L212.712 55.9811L213.557 54.3906L214.512 55.9183Z" fill="#40CCCE" fill-opacity="0.9"/>
<path d="M105.473 51.5529L106.394 49.579L108.368 50.4995L107.447 52.4733L105.473 51.5529Z" fill="#F4D47B" fill-opacity="0.6"/>
<path d="M107.09 88.4958L106.574 87.3878L107.468 86.5539L108.537 87.1467L108.304 88.3468L107.09 88.4958Z" fill="#2C5DF2"/>
<path d="M248.562 123.961L247.742 126.215L245.345 126.131L244.684 123.826L246.673 122.485L248.562 123.961Z" fill="#F4D47B" fill-opacity="0.75"/>
<path d="M236.082 127.488L234.675 127.058L235.105 125.652L236.512 126.082L236.082 127.488Z" fill="#40CCCE"/>
<path d="M221.071 71.9612L222.152 70.2312L224.191 70.3024L225.149 72.1036L224.068 73.8337L222.029 73.7625L221.071 71.9612Z" fill="#40CCCE" fill-opacity="0.6"/>
<path d="M290.787 123.029L289.337 123.337L289.182 124.811L288.441 123.527L286.991 123.836L287.983 122.734L287.242 121.451L288.596 122.053L289.588 120.952L289.433 122.426L290.787 123.029Z" fill="#F27BF4" fill-opacity="0.65"/>
<path d="M258.095 107.754L258.752 106.849L258.095 105.944L259.159 106.289L259.817 105.384L259.817 106.503L260.881 106.849L259.817 107.195L259.817 108.314L259.159 107.408L258.095 107.754Z" fill="#2C5DF2" fill-opacity="0.35"/>
<path d="M159.468 122.161L158.937 121.087L157.776 120.79L158.85 120.259L159.146 119.098L159.678 120.172L160.839 120.468L159.765 121L159.468 122.161Z" fill="#2C5DF2" fill-opacity="0.75"/>
<path d="M244.354 68.991L245.766 68.8444L245.666 67.4283L246.499 68.5779L247.675 67.7825L247.095 69.0787L248.372 69.6995L246.96 69.8461L247.061 71.2622L246.228 70.1126L245.052 70.908L245.631 69.6117L244.354 68.991Z" fill="#40CCCE" fill-opacity="0.35"/>
<path d="M271.049 137.596L270.087 136.334L268.502 136.242L269.765 135.28L269.856 133.695L270.819 134.958L272.404 135.049L271.141 136.011L271.049 137.596Z" fill="#40CCCE" fill-opacity="0.6"/>
<path d="M89.5197 157.424L88.81 156.459L87.6148 156.369L88.5807 155.659L88.6707 154.464L89.3804 155.43L90.5755 155.52L89.6097 156.229L89.5197 157.424Z" fill="#2C5DF2"/>
<path d="M84.1778 121.032L82.8135 121.611L82.9427 123.088L81.9703 121.969L80.606 122.548L81.3693 121.278L80.3969 120.159L81.8411 120.493L82.6045 119.222L82.7336 120.699L84.1778 121.032Z" fill="#F4D47B" fill-opacity="0.35"/>
<path d="M182.099 116.48L182.256 115.741L181.602 115.363L182.354 115.284L182.511 114.545L182.818 115.235L183.569 115.156L183.008 115.662L183.315 116.352L182.661 115.974L182.099 116.48Z" fill="#F4D47B" fill-opacity="0.6"/>
<path d="M232.005 164.696L231.992 163.94L231.27 163.72L231.984 163.474L231.971 162.718L232.426 163.321L233.14 163.075L232.707 163.694L233.161 164.298L232.439 164.077L232.005 164.696Z" fill="#2C5DF2" fill-opacity="0.65"/>
<path d="M143.536 150.107L143.758 151.156L144.813 150.969L144.016 151.685L144.706 152.505L143.687 152.172L143.321 153.18L143.1 152.131L142.045 152.319L142.842 151.603L142.152 150.783L143.171 151.115L143.536 150.107Z" fill="#F4D47B" fill-opacity="0.75"/>
<path d="M164.64 121.82L164.214 122.405L164.785 122.849L164.065 122.773L163.965 123.49L163.672 122.828L163.001 123.1L163.427 122.515L162.856 122.07L163.576 122.147L163.676 121.43L163.97 122.092L164.64 121.82Z" fill="#F4D47B" fill-opacity="0.6"/>
<path d="M101.664 69.9289L100.5 70.7417L101.275 71.9314L99.989 71.3298L99.3461 72.5955L99.2241 71.1811L97.8064 71.2572L98.9704 70.4443L98.1957 69.2547L99.4816 69.8563L100.125 68.5905L100.247 70.0049L101.664 69.9289Z" fill="#F27BF4" fill-opacity="0.9"/>
<path d="M92.7233 86.8612L91.9032 86.1712L91.187 86.9686L91.3745 85.9134L90.3259 85.6919L91.3334 85.3266L91.001 84.3077L91.8211 84.9976L92.5372 84.2003L92.3498 85.2555L93.3984 85.477L92.3908 85.8423L92.7233 86.8612Z" fill="#F27BF4" fill-opacity="0.75"/>
<path d="M146.021 102.198L146.152 102.997L146.843 103.418L146.045 103.549L145.624 104.24L145.493 103.441L144.802 103.021L145.6 102.89L146.021 102.198Z" fill="#40CCCE"/>
<path d="M288.311 150.563L287.525 151.942L288.06 153.437L286.681 152.65L285.186 153.185L285.972 151.806L285.437 150.311L286.816 151.098L288.311 150.563Z" fill="#F4D47B" fill-opacity="0.35"/>
<path d="M108.095 164.246L107.088 163.878L106.688 164.872L106.503 163.817L105.442 163.967L106.264 163.279L105.603 162.436L106.61 162.803L107.01 161.809L107.195 162.865L108.256 162.714L107.434 163.402L108.095 164.246Z" fill="#2C5DF2" fill-opacity="0.35"/>
<path d="M174.082 153.488L173.58 152.967L173.042 153.452L173.243 152.756L172.554 152.534L173.257 152.359L173.105 151.652L173.607 152.173L174.145 151.688L173.944 152.383L174.633 152.606L173.93 152.78L174.082 153.488Z" fill="#2C5DF2" fill-opacity="0.75"/>
<path d="M171.418 57.8622L170.632 57.6706L169.975 58.1428L170.166 57.3564L169.694 56.6991L170.48 56.8907L171.138 56.4184L170.946 57.2048L171.418 57.8622Z" fill="#F27BF4" fill-opacity="0.6"/>
<path d="M177.731 39.9954L178.365 39.5839L178.169 38.854L178.756 39.3296L179.39 38.918L179.119 39.6235L179.706 40.099L178.952 40.0594L178.681 40.7648L178.485 40.035L177.731 39.9954Z" fill="#40CCCE" fill-opacity="0.75"/>
<path d="M108.583 141.467L107.251 140.818L106.221 141.884L106.427 140.416L105.095 139.766L106.555 139.509L106.761 138.041L107.457 139.35L108.917 139.093L107.887 140.159L108.583 141.467Z" fill="#F27BF4" fill-opacity="0.35"/>
<path d="M193.596 172.951L192.382 173.801L192.816 175.218L191.632 174.326L190.418 175.177L190.9 173.775L189.717 172.883L191.199 172.909L191.681 171.508L192.115 172.925L193.596 172.951Z" fill="#F27BF4" fill-opacity="0.75"/>
</g>
<g clip-path="url(#clip1_2633_13228)">
<path d="M34.0461 229.556C53.8914 222.225 74.3859 216.735 95.1507 212.723C117.017 208.497 139.178 205.935 161.41 204.718C184.081 203.478 206.837 203.697 229.481 205.323C251.943 206.936 274.314 209.941 296.38 214.443C317.567 218.763 338.498 224.483 358.833 231.848C361.23 232.717 363.62 233.609 365.999 234.525C366.871 234.86 367.247 233.46 366.385 233.129C346.265 225.311 325.514 219.226 304.445 214.568C282.568 209.731 260.357 206.429 238.037 204.495C215.311 202.528 192.461 201.987 169.671 202.9C147.399 203.792 125.164 206.118 103.213 210.012C82.1435 213.747 61.3077 218.949 41.0939 225.994C38.6499 226.845 36.2128 227.728 33.7892 228.633C33.2145 228.846 33.4613 229.776 34.0461 229.56V229.556Z" fill="black"/>
<path d="M76.1029 193.695C72.9221 188.949 69.7211 184.22 66.5031 179.502C63.2817 174.783 60.0434 170.081 56.7815 165.389C53.5196 160.697 50.2407 156.023 46.9416 151.361C43.6425 146.7 40.3501 142.096 37.0274 137.485C33.7046 132.875 30.3311 128.23 26.9407 123.633C26.5148 123.055 26.0889 122.477 25.663 121.902C25.4534 121.618 24.97 121.892 25.1796 122.183C28.5531 126.794 31.9164 131.408 35.2595 136.039C38.6025 140.669 41.9287 145.314 45.2312 149.975C48.5337 154.637 51.8227 159.305 55.088 163.993C58.3398 168.658 61.5679 173.333 64.7791 178.024C68.0073 182.737 71.2117 187.465 74.3993 192.205C74.7982 192.8 75.2004 193.394 75.5993 193.993C75.8089 194.304 76.3125 194.013 76.1029 193.699V193.695Z" fill="black"/>
<path d="M318.388 196.271C320.562 191.035 322.793 185.826 325.081 180.641C327.36 175.479 329.692 170.341 332.078 165.23C334.478 160.096 336.932 154.985 339.444 149.901C341.942 144.841 344.494 139.811 347.1 134.808C349.706 129.805 352.36 124.823 355.064 119.874C355.402 119.259 355.737 118.644 356.075 118.029C356.281 117.653 355.706 117.315 355.5 117.691C352.755 122.653 350.065 127.639 347.435 132.662C344.805 137.685 342.233 142.738 339.714 147.815C337.196 152.896 334.732 158 332.325 163.135C329.918 168.269 327.566 173.427 325.271 178.609C322.975 183.791 320.755 188.953 318.581 194.158C318.311 194.807 318.04 195.453 317.773 196.102C317.618 196.481 318.23 196.643 318.385 196.271H318.388Z" fill="black"/>
<path d="M190.332 128.431C190.2 120.883 190.068 113.335 189.936 105.79C189.805 98.2149 189.673 90.6398 189.541 83.0646C189.467 78.8123 189.392 74.56 189.311 70.3076C189.304 69.9054 188.676 69.902 188.682 70.3076C188.794 77.8557 188.926 85.4038 189.051 92.9485C189.176 100.493 189.301 108.099 189.429 115.674C189.5 119.926 189.571 124.179 189.642 128.431C189.649 128.877 190.342 128.877 190.335 128.431H190.332Z" fill="black"/>
<path d="M126.715 120.662C122.983 121.301 99.9201 127.426 104.125 156.415C104.189 156.868 104.277 157.317 104.372 157.763L111.328 190.22C111.328 190.22 114.033 202.051 132.962 198.671L155.694 194.449C156.167 194.361 156.647 194.294 157.124 194.24C159.713 193.932 171.318 191.133 167.102 165.545L162.597 139.716C162.046 136.562 160.781 133.571 158.844 131.022C154.541 125.367 145.029 116.805 127.946 120.425C127.537 120.513 127.128 120.591 126.719 120.662H126.715Z" fill="white"/>
<path d="M126.925 121.885C120.063 123.359 113.62 127.429 109.598 133.213C105.491 139.118 104.389 146.551 104.994 153.623C105.146 155.029 105.308 156.695 105.622 158.068C106.008 159.923 107.279 166.092 107.681 168.046L110.645 182.568L112.126 189.828C112.65 192.012 114.144 193.986 115.902 195.372C121.787 199.915 129.933 198.661 136.748 197.339C141.382 196.511 153.774 194.256 158.56 193.388C160.825 192.701 162.765 191.167 164.124 189.237C169.421 181.354 167.308 169.574 165.666 160.762C164.54 154.748 163.1 146.703 161.985 140.717C161.146 135.048 158.219 130.877 153.967 127.192C149.004 122.893 142.437 120.618 135.896 120.74L134.108 120.777L132.323 120.959C130.471 121.142 128.828 121.517 126.925 121.882V121.885ZM126.506 119.438C127.929 119.185 129.605 118.88 131.126 118.674C131.738 118.607 133.354 118.498 133.986 118.434C134.652 118.427 136.214 118.424 136.863 118.427C145.019 118.752 152.584 122.254 157.918 128.463C160.967 131.783 162.958 135.981 163.512 140.453C163.702 141.599 164.222 144.749 164.418 145.939C165.007 149.583 166.244 156.922 166.835 160.566C168.272 169.043 169.884 178.156 166.757 186.462C165.392 190.038 162.63 193.263 158.875 194.395C154.017 195.314 141.659 197.654 136.974 198.556C129.737 200.097 121.286 201.406 114.928 196.639C112.826 195.017 111.115 192.816 110.439 190.204L108.817 182.97C107.505 177.135 104.818 165.163 103.557 159.46C102.019 152.666 101.85 145.375 104.003 138.675C105.423 134.203 108.06 130.103 111.531 126.932C115.739 123.15 120.959 120.523 126.512 119.442L126.506 119.438Z" fill="black"/>
<path d="M118.927 166.647L112.505 144.168C125.35 135.109 143.321 135.661 150.701 137.069L152.391 160.562C138.194 160.427 124.166 164.562 118.927 166.647Z" fill="#5BC3C8"/>
<path d="M102.726 149.171C109.253 144.655 116.345 140.849 123.93 138.466C131.474 136.123 139.479 135.271 147.355 135.809C152.625 136.177 157.861 137.1 162.988 138.472L162.198 140.964C152.844 137.516 142.629 136.16 132.722 137.502C129.909 137.908 126.911 138.506 124.193 139.341C117.423 141.386 110.781 144.526 105.734 149.58C105.308 150.019 104.848 150.503 104.497 150.976L102.722 149.171H102.726Z" fill="black"/>
<path d="M166.406 161.573C127.516 157.266 107.61 172.883 107.61 172.883L166.406 161.573Z" fill="white"/>
<path d="M166.352 162.077C156.299 160.758 146.02 160.738 136.011 162.445C128.54 163.767 121.104 165.856 114.374 169.408C112.21 170.635 110.064 172.031 108.404 173.894L106.822 171.876C107.671 171.443 108.702 170.987 109.564 170.588C113.377 168.874 117.179 167.154 121.111 165.758C134.395 161.11 148.663 159.927 162.644 160.789L166.467 161.069L166.355 162.077H166.352Z" fill="black"/>
<path d="M113.789 143.411C114.212 147.427 115.175 151.31 116.182 155.201C117.196 159.071 118.265 162.925 119.552 166.718L118.576 166.991C117.703 163.084 116.612 159.237 115.466 155.404C114.3 151.561 113.103 147.741 111.376 144.09L113.792 143.414L113.789 143.411Z" fill="black"/>
<path d="M151.715 136.197C151.499 140.318 151.594 144.425 151.763 148.535C151.955 152.632 152.233 156.726 152.872 160.782L151.861 160.866C151.803 156.759 151.381 152.679 150.881 148.61C150.35 144.53 149.748 140.467 148.839 136.444L151.719 136.197H151.715Z" fill="black"/>
<path d="M92.7134 192.624C92.7134 192.624 85.9766 197.316 89.0188 201.71C92.061 206.104 102.127 211.408 101.827 199.121" fill="white"/>
<path d="M93.0007 193.04C90.8373 195.115 87.6734 198.678 90.3472 201.51C92.1218 203.528 96.168 206.469 98.862 205.171C99.7443 204.698 100.255 203.708 100.599 202.734C100.971 201.625 101.154 200.392 101.313 199.134L102.327 199.11C102.533 200.422 102.584 201.774 102.354 203.173C101.505 207.967 97.351 208.923 93.3793 206.942C90.4621 205.442 86.5275 202.268 87.2171 198.566C87.7681 195.717 90.0599 193.641 92.4159 192.211L92.9939 193.043L93.0007 193.04Z" fill="black"/>
<path d="M109.341 131.286C109.341 131.286 123.233 121.378 148.717 122.501L109.341 131.286Z" fill="white"/>
<path d="M109.341 131.286C109.341 131.286 123.233 121.378 148.717 122.501" stroke="black" stroke-width="1.01407" stroke-miterlimit="10"/>
<path d="M131.674 119.56C131.674 119.56 127.297 93.3697 108.063 105.728C106.018 107.043 104.433 108.956 103.547 111.221C101.745 115.831 100.91 122.734 115.821 116.822C115.821 116.822 124.166 111.799 125.519 114.841C126.871 117.883 127.939 120.425 127.939 120.425L131.671 119.56H131.674Z" fill="white"/>
<path d="M131.252 119.279C131.17 119.333 131.143 119.523 131.154 119.563L131.147 119.536L131.116 119.425L131.052 119.198C129.457 113.878 126.722 107.334 121.527 104.798C120.019 104.112 118.339 103.852 116.71 104.055C116.226 104.065 115.53 104.264 115.05 104.349C114.499 104.525 113.945 104.667 113.407 104.886C113.15 104.998 112.447 105.288 112.194 105.397C111.748 105.637 111.058 105.981 110.615 106.225C110.358 106.38 109.723 106.779 109.462 106.935C107.309 108.182 105.721 110.264 104.997 112.63C104.575 114.026 104.139 115.463 104.706 116.595C105.45 117.474 107.079 117.268 108.208 117.167C110.477 116.869 112.873 116.119 115.219 115.294L114.979 115.412C115.658 115.044 116.291 114.733 116.96 114.422C119.4 113.364 124.802 111.011 126.448 114.293C127.165 116.237 127.807 118.245 128.412 120.226L127.831 119.928C128.96 119.661 130.072 119.465 131.255 119.276L131.252 119.279ZM132.097 119.844C130.674 120.266 129.166 120.675 127.689 121.007C126.661 119.215 125.647 117.39 124.694 115.561L124.572 115.328C124.555 115.28 124.525 115.26 124.494 115.226C124.251 115.051 123.981 115.074 123.602 115.098C122.47 115.223 121.216 115.777 120.134 116.288C118.937 116.869 117.7 117.562 116.595 118.279L116.429 118.35C112.806 119.827 107.262 122.146 103.338 120.209C98.7505 117.701 101.13 110.825 103.52 107.55C104.615 106.076 106.025 104.842 107.62 103.95C108.151 103.676 108.861 103.186 109.408 102.959C121.077 97.0441 128.693 104.362 131.464 115.608C131.762 116.798 131.992 118.008 132.144 119.225C132.171 119.421 132.198 119.671 132.093 119.84L132.097 119.844Z" fill="black"/>
<path d="M247.876 193.459L249.915 199.276H263.517L263.899 194.29" fill="white"/>
<path d="M247.876 193.459L249.915 199.276H263.517L263.899 194.29" stroke="black" stroke-width="1.01407" stroke-miterlimit="10"/>
<path d="M179.575 147.633C179.575 147.633 182.648 137.151 187.38 140.193C192.113 143.235 188.979 158.314 185.139 156.354" fill="white"/>
<path d="M179.089 147.487C179.697 144.361 181.316 139.764 184.666 138.682C186.427 138.182 188.256 139.094 189.263 140.514C190.568 142.363 190.801 144.699 190.784 146.821C190.68 149.607 190.149 152.341 188.787 154.816C188.111 156.104 186.505 157.773 184.906 156.803L185.366 155.901C187.232 156.499 188.256 151.916 188.469 150.557C188.892 147.832 189.142 143.279 187.009 141.281C186.018 140.47 184.937 140.642 183.997 141.515C182.27 143.127 181.103 145.605 180.059 147.775L179.085 147.491L179.089 147.487Z" fill="black"/>
<path d="M225.915 190.558L228.869 199.134H239.101V192.86" fill="white"/>
<path d="M225.915 190.558L228.869 199.134H239.101V192.86" stroke="black" stroke-width="1.01407" stroke-miterlimit="10"/>
<path d="M107.198 170.963C107.198 170.963 92.0577 185.488 92.7338 191.573C93.1022 194.875 96.2763 197.096 99.1022 198.434C102.482 200.037 106.512 198.813 108.432 195.602C109.452 193.895 110.385 191.566 110.936 188.398L107.201 170.963H107.198Z" fill="white"/>
<path d="M107.049 171.447C107.164 171.524 107.431 171.467 107.505 171.376L107.495 171.386L107.478 171.406C107.36 171.531 107.113 171.822 106.995 171.954C104.26 175.08 101.495 178.258 99.0041 181.567C97.1011 184.146 95.1067 186.81 94.1332 189.822C92.9434 193.634 97.1383 196.342 100.13 197.681C102.161 198.458 104.561 198.1 106.272 196.727C107.076 196.119 107.671 195.281 108.165 194.405C109.219 192.549 109.926 190.464 110.433 188.321C109.463 184.43 107.972 176.162 107.049 171.453V171.447ZM107.347 170.476C108.56 175.821 110.453 183.19 111.433 188.483C111.092 191.312 110.321 194.273 108.719 196.727C107.624 198.276 105.978 199.442 104.132 199.905C101.664 200.615 99.0718 199.864 96.9354 198.556C94.238 197.055 91.5609 194.449 91.5338 191.133C91.6893 184.937 101.607 175.168 106.201 171.146L106.522 170.869L106.684 170.73L106.765 170.662C106.9 170.514 107.174 170.422 107.347 170.473V170.476Z" fill="black"/>
<path d="M165.808 158.139C165.808 158.139 170.712 152.274 174.907 148.826C176.577 147.45 178.926 147.241 180.799 148.322C183.885 150.107 187.482 153.842 183.101 160.677C182.638 161.4 181.992 161.995 181.232 162.394L167.653 169.56L165.808 158.139Z" fill="white"/>
<path d="M165.318 158.003C165.365 157.875 165.46 157.757 165.544 157.648C165.622 157.557 165.838 157.263 165.923 157.168C168.492 153.977 171.159 150.922 174.262 148.204C177.595 145.422 181.411 146.744 184.135 149.688C185.842 151.449 186.535 154.204 185.995 156.577L185.788 157.452C185.684 157.757 185.457 158.416 185.342 158.703C185.055 159.308 184.71 160.059 184.345 160.62C183.753 161.735 182.861 162.722 181.719 163.29C181.266 163.52 180.025 164.152 179.555 164.392C175.502 166.447 171.409 168.431 167.258 170.297C166.595 166.2 165.946 162.093 165.318 158V158.003ZM166.295 158.27C166.93 162.009 167.549 165.741 168.15 169.476C168.157 169.472 167.39 169.107 167.42 169.104C171.558 166.565 175.8 164.193 180.052 161.867C180.39 161.664 180.995 161.384 181.293 161.127C181.84 160.721 182.219 160.157 182.54 159.558C183.605 157.767 184.45 155.505 183.912 153.43C183.348 151.104 180.36 148.37 177.841 148.589C175.834 148.704 174.451 150.425 172.987 151.638C170.736 153.7 168.553 155.931 166.467 158.166L166.332 158.311L166.264 158.385L166.254 158.395C166.281 158.358 166.298 158.314 166.295 158.267V158.27Z" fill="black"/>
<path d="M264.112 116.193C264.112 116.193 221.859 102.334 219.155 145.939C219.155 145.939 214.422 186.84 223.211 190.22C229.312 192.566 250.878 193.773 263.899 194.294C269.787 194.527 276.987 191.001 276.794 185.109C276.125 164.686 288.879 125.962 264.112 116.196V116.193Z" fill="white"/>
<path d="M263.826 116.467C256.883 114.364 248.999 115.125 241.85 116.467C228.319 119.056 221.933 129.765 220.287 142.684C219.02 153.927 216.322 177.822 221.24 187.597C221.835 188.605 222.565 189.504 223.728 189.825L224.6 190.105C227.95 190.971 231.391 191.393 234.842 191.755C242.407 192.529 250.01 192.914 257.608 193.185C259.731 193.225 263.044 193.435 265.133 193.347C270.051 193.016 276.311 189.95 275.551 184.305C274.679 165.163 286.487 125.729 263.826 116.467ZM264.764 114.385C291.674 124.799 277.64 164.591 277.927 186.337C276.987 192.184 270.534 195.017 265.224 195.22C264.065 195.257 262.486 195.118 261.333 195.061C257.635 194.821 253.586 194.611 249.915 194.317C242.32 193.709 234.646 193.171 227.135 191.789C226.226 191.616 225.199 191.38 224.306 191.14C223.37 190.832 222.251 190.531 221.558 189.754C218.144 186.252 217.735 177.771 217.451 173.018C217.049 162.813 217.752 152.639 218.634 142.488C218.888 139.926 219.31 137.367 219.966 134.849C221.294 129.788 223.65 124.853 227.328 121.047C236.871 111.184 252.305 110.933 264.764 114.385Z" fill="black"/>
<path d="M145.803 196.285V202.159L157.719 199.668L159.872 193.459L145.803 196.285Z" fill="white" stroke="black" stroke-width="1.01407" stroke-miterlimit="10"/>
<path d="M123.852 199.134L122.48 204.417L135.811 203.552L137.596 197.809L123.852 199.134Z" fill="white" stroke="black" stroke-width="1.01407" stroke-miterlimit="10"/>
<path d="M122.48 204.417C122.48 204.417 110.183 213.483 115.824 215.88C121.466 218.276 134.699 215.88 134.699 215.88C134.699 215.88 141.71 212.158 135.815 203.555" fill="white"/>
<path d="M122.781 204.823C121.04 206.523 114.729 212.016 115.5 214.328C115.645 214.616 116.064 214.849 116.412 214.967C116.838 215.119 117.355 215.309 117.805 215.39C123.075 216.552 129.707 215.721 134.456 215.427C138.962 212.601 138.127 207.669 135.392 203.836L136.227 203.261C136.903 204.259 137.515 205.313 137.961 206.456C138.901 208.737 139.002 211.543 137.62 213.689C136.934 214.781 136.062 215.657 134.933 216.319L134.889 216.346L134.784 216.37C129.277 217.627 120.651 218.902 115.341 216.809C114.161 216.312 113.262 215.278 113.282 213.909C113.451 210.992 116.537 208.301 118.606 206.544C119.745 205.617 120.918 204.766 122.172 203.998L122.774 204.816L122.781 204.823Z" fill="black"/>
<path d="M145.803 202.159C145.803 202.159 140.395 213.206 143.775 214.558C147.155 215.91 162.593 214.558 162.593 214.558C162.593 214.558 173.349 212.838 157.715 199.672" fill="white"/>
<path d="M146.26 202.383C145.121 204.532 141.396 212.388 143.714 214.166C143.975 214.315 144.276 214.382 144.566 214.45C147.838 214.998 151.212 214.71 154.524 214.47C157.191 214.24 159.865 213.963 162.512 213.635L162.448 213.642C162.728 213.568 163.127 213.443 163.411 213.304C168.968 210.877 159.514 202.484 157.391 200.057L158.043 199.283C160.852 201.24 163.465 203.444 165.483 206.283C168.245 210.103 167.988 214.487 162.691 215.484C157.269 215.687 151.881 215.789 146.463 215.386C145.442 215.271 144.313 215.211 143.38 214.71C141.112 213.159 143.19 207.848 143.867 205.732C144.309 204.448 144.82 203.201 145.347 201.936L146.256 202.383H146.26Z" fill="black"/>
<path d="M277.934 187.783C277.934 187.783 277.393 192.326 280.722 192.624C280.722 192.624 290.545 194.476 293.047 187.783C293.047 187.783 296.244 178.957 288.629 178.674" fill="white"/>
<path d="M277.934 187.783C277.934 187.783 277.393 192.326 280.722 192.624C280.722 192.624 290.545 194.476 293.047 187.783C293.047 187.783 296.244 178.957 288.629 178.674" stroke="black" stroke-width="1.01407" stroke-miterlimit="10"/>
<path d="M199.526 143.198C199.526 143.198 196.25 135.704 192.829 139.638C189.408 143.573 188.435 153.775 189.767 155.434C191.099 157.094 200.536 157.983 200.225 156.418" fill="white"/>
<path d="M199.059 143.401C198.255 142.028 196.057 138.449 194.239 139.662C191.41 142.079 190.412 149.117 190.531 152.72C190.561 153.322 190.608 154.13 190.828 154.606C190.757 154.535 190.872 154.64 190.987 154.697C192.505 155.424 194.364 155.597 196.04 155.908C197.22 156.083 198.451 156.31 199.62 156.303C199.667 156.303 199.688 156.31 199.684 156.357C199.678 156.401 199.688 156.509 199.728 156.519L200.722 156.32C200.803 156.519 200.769 156.834 200.648 157.033C199.752 158.328 197.244 158.402 195.834 158.422C193.86 158.385 189.689 157.868 188.53 155.999C188.175 155.414 188.036 154.654 187.965 154.092C187.725 152.02 187.975 149.938 188.317 147.944C188.952 144.668 190.254 139.966 193.252 138.029C196.571 136.285 199.015 140.375 199.989 142.998L199.059 143.404V143.401Z" fill="black"/>
<path d="M220.507 136.475C220.507 136.475 232.321 116.582 279.323 138.841L220.507 136.475Z" fill="white"/>
<path d="M219.723 136.008C222.998 131.55 228.511 129.295 233.767 128.25C245.416 126.182 257.892 129.349 268.837 133.253C272.613 134.561 276.331 135.957 280.219 136.944L278.424 140.737C274.148 137.654 269.365 135.504 264.47 133.764C259.582 131.996 254.573 130.522 249.448 129.721C241.927 128.524 233.713 128.531 226.848 132.168C224.691 133.344 222.653 134.882 221.291 136.941L219.726 136.011L219.723 136.008Z" fill="black"/>
<path d="M218.479 155.404C219.077 157.182 228.934 140.129 279.323 160.474L218.479 155.404Z" fill="white"/>
<path d="M218.935 155.248C219.06 155.144 218.918 154.914 218.773 154.833C218.746 154.816 218.695 154.802 218.681 154.789C218.665 154.775 218.651 154.765 218.631 154.755C218.472 154.691 218.496 154.637 218.489 154.579C218.634 154.14 219.168 153.977 219.537 153.697C220.111 153.332 220.726 152.997 221.355 152.706C235.191 147.119 250.79 150.59 264.588 154.569C269.666 156.1 274.658 157.851 279.735 159.443L278.904 161.502C271.822 157.986 264.294 155.495 256.655 153.538C247.812 151.405 238.486 150.019 229.468 151.804C225.932 152.399 222.897 154.299 219.932 156.192C219.415 156.452 217.941 156.479 218.016 155.559L218.932 155.252L218.935 155.248Z" fill="black"/>
<path d="M257.517 131.306C257.676 135.008 257.352 138.675 257.081 142.356C256.794 146.031 256.463 149.698 256.02 153.355L255.009 153.274C255.08 151.432 255.181 149.593 255.3 147.754C255.546 144.08 255.837 140.406 256.209 136.742C256.415 134.91 256.659 133.084 257.034 131.266L257.521 131.303L257.517 131.306Z" fill="black"/>
<path d="M225.151 132.925C225.489 135.839 225.354 140.081 225.351 143.049C225.324 146.423 225.256 149.799 225.127 153.173H224.113C224.049 151.486 223.995 149.799 223.965 148.113C223.934 143.245 223.65 137.783 224.086 132.929H225.151V132.925Z" fill="black"/>
<path d="M218.746 150.073L206.675 142.491C203.707 140.629 199.722 141.755 198.292 144.952C197 147.839 196.51 151.594 199.34 155.431C205.296 163.513 217.884 162.394 217.884 162.394L218.746 150.07V150.073Z" fill="white"/>
<path d="M218.293 150.303C213.807 147.88 209.686 145.29 205.38 142.982C203.511 142.241 201.172 142.826 199.958 144.445C199.072 145.645 198.67 147.247 198.518 148.694C198.136 152.96 201.378 156.661 204.961 158.591C208.757 160.677 213.307 161.569 217.836 161.891L217.377 162.36C217.657 158.338 217.965 154.332 218.293 150.303ZM219.195 149.843C218.938 154.174 218.661 158.527 218.353 162.867C215.801 163.266 213.29 163.388 210.731 163.02C204.64 162.3 198.278 158.575 196.419 152.385C195.686 149.877 196.047 147.102 197.085 144.76C197.856 142.823 199.6 141.305 201.611 140.767C203.589 140.223 205.796 140.626 207.449 141.819C211.475 144.472 215.413 147.193 219.188 149.847L219.195 149.843Z" fill="black"/>
<path d="M271.423 159.42C271.423 159.42 263.172 153.068 260.262 160.826C257.956 166.974 266.312 179.843 269.882 184.92C270.947 186.438 272.6 187.442 274.442 187.658C278.268 188.104 284.762 187.699 288.074 180.813C289.143 178.592 288.663 175.932 286.885 174.225L271.423 159.416V159.42Z" fill="white"/>
<path d="M270.889 160.038C267.293 157.652 262.598 156.327 261.239 161.725C260.407 166.819 264.994 174.637 267.57 179.099C268.52 180.702 269.53 182.27 270.558 183.828C271.045 184.596 271.464 185.12 272.153 185.633C272.782 186.1 273.519 186.431 274.293 186.583C277.721 187.144 281.574 186.705 284.329 184.481C284.491 184.366 284.694 184.2 284.836 184.058C285.658 183.331 286.391 182.436 286.956 181.499L287.287 180.911C288.314 179.279 288.294 177.088 287.219 175.479C286.851 174.837 285.901 174.046 285.377 173.498L283.349 171.531C280.641 168.857 273.769 162.712 270.893 160.038H270.889ZM271.954 158.798C275.767 162.644 282.196 169.134 286.087 172.748C286.702 173.367 287.659 174.107 288.132 174.867C289.47 176.774 289.596 179.464 288.439 181.513L288.098 182.169C287.625 183.024 287.016 183.859 286.378 184.602C286.205 184.788 285.756 185.235 285.587 185.41C284.742 186.161 283.792 186.83 282.781 187.334C280.286 188.547 277.464 188.926 274.719 188.713C272.258 188.628 269.956 187.212 268.621 185.17C264.572 179.468 259.302 171.426 258.649 164.358C258.322 161.164 259.897 157.307 263.189 156.249C266.323 155.343 269.507 156.969 271.954 158.798Z" fill="black"/>
<path d="M228.869 199.134C228.869 199.134 215.288 206.953 216.545 210.248C217.478 212.696 231.506 212.391 238.669 212.074C241.322 211.955 243.357 209.64 243.083 206.997C242.81 204.353 241.856 201.463 239.098 199.134" fill="white"/>
<path d="M229.123 199.574C226.233 201.507 223.35 203.495 220.703 205.732C219.5 206.794 218.178 207.919 217.498 209.319C217.319 209.718 217.4 209.981 217.441 209.944C218.198 210.495 219.287 210.651 220.233 210.833C225.936 211.655 231.851 211.404 237.621 211.31C238.064 211.279 238.821 211.31 239.247 211.208C241.245 210.87 242.674 208.842 242.367 206.841C242.12 204.063 240.886 201.395 238.777 199.526L239.433 198.752C241.995 200.77 243.513 203.931 243.803 207.152C244.054 209.745 242.107 212.253 239.565 212.756C239.017 212.895 238.246 212.892 237.689 212.932C236.512 212.993 235.336 213.047 234.16 213.088C229.404 213.196 224.702 213.304 219.942 212.642C218.3 212.32 215.653 212.016 215.551 209.843C215.629 206.882 220.361 203.836 222.501 202.301C224.479 200.986 226.507 199.786 228.619 198.698L229.126 199.577L229.123 199.574Z" fill="black"/>
<path d="M249.915 199.276C249.915 199.276 244.817 207.629 245.845 210.248C246.579 212.114 258.078 212.354 264.626 212.341C267.252 212.334 269.088 209.745 268.226 207.264C267.465 205.083 266.072 202.328 263.517 199.276" fill="white"/>
<path d="M250.347 199.54C249.587 201.362 248.799 203.177 248.117 204.982C247.637 206.287 247.15 207.602 246.988 208.937C246.937 209.322 246.981 209.694 247.025 209.782C247.011 209.714 246.964 209.65 246.923 209.603C248.275 210.275 250.009 210.394 251.571 210.603C253.501 210.806 255.465 210.918 257.429 211.022C259.866 211.131 262.327 211.212 264.771 211.239C266.596 211.239 267.938 209.268 267.364 207.551C266.458 204.668 264.937 202.044 263.128 199.601L263.906 198.948C266.069 201.26 267.925 203.964 269.077 206.953C270.088 209.538 268.516 212.56 265.836 213.264C265.39 213.375 264.923 213.433 264.467 213.439C262.097 213.5 259.724 213.497 257.348 213.443C255.343 213.402 253.339 213.304 251.318 213.105C249.753 212.932 248.184 212.77 246.639 212.26C246.18 212.097 245.625 211.854 245.223 211.486C242.948 209.261 246.362 203.62 247.711 201.477C248.265 200.628 248.84 199.803 249.489 199.012L250.354 199.54H250.347Z" fill="black"/>
<path d="M231.861 118.948C235.594 115.584 263.862 107.565 274.252 124.174" stroke="black" stroke-width="1.01407" stroke-miterlimit="10"/>
<path d="M252.122 114.097C252.122 114.097 270.629 92.6328 286.222 106.867C287.483 108.016 288.243 109.622 288.25 111.326C288.26 114.446 286.476 118.607 275.828 115.862C274.908 115.625 274.06 115.155 273.36 114.517C271.123 112.475 264.903 108.148 257.078 114.097H252.126H252.122Z" fill="white"/>
<path d="M251.663 114.31C251.588 114.087 251.669 113.803 251.842 113.638L251.943 113.513L252.149 113.266C257.493 107.06 265.038 101.307 273.475 100.695C277.538 100.394 281.73 101.658 285.022 104.031C285.34 104.247 285.816 104.582 286.1 104.839C286.766 105.39 287.665 106.093 288.179 106.813C290.123 109.318 290.38 113.107 288.375 115.696C286.52 117.978 283.474 118.367 280.743 118.177C279.222 118.042 277.64 117.751 276.169 117.366C274.716 117.086 273.343 116.386 272.302 115.331C270.639 113.78 268.543 112.617 266.302 112.225C263.105 111.616 259.917 112.88 257.203 114.611C255.391 114.638 253.441 114.476 251.659 114.317L251.663 114.31ZM252.585 113.888C253.931 113.759 255.739 113.563 257.074 113.59C257.074 113.59 256.757 113.698 256.77 113.692C259.42 111.383 262.932 109.723 266.573 110.122C269.338 110.382 271.92 111.603 274.026 113.374C274.655 113.935 275.392 114.364 276.22 114.544C276.615 114.628 277.592 114.834 277.995 114.919C281.382 115.48 286.932 116.021 286.739 111.244C286.716 109.963 286.114 108.75 285.14 107.898C284.61 107.455 283.886 106.799 283.315 106.431C279.188 103.297 273.881 102.642 268.949 104.075C262.865 105.86 257.527 109.69 252.94 113.996L252.721 114.212L252.612 114.32C252.612 114.32 252.565 114.368 252.568 114.364C252.677 114.263 252.677 113.996 252.585 113.884V113.888Z" fill="black"/>
<path d="M224.56 152.619V132.844C233.078 125.949 250.08 128.506 257.517 130.647L255.489 152.619C240.616 148.562 228.672 150.928 224.56 152.619Z" fill="#DBDFFD" stroke="black" stroke-width="0.338024"/>
</g>
<path d="M176.562 245.873H178.516C178.453 246.618 178.245 247.282 177.891 247.865C177.536 248.443 177.039 248.899 176.398 249.232C175.758 249.566 174.979 249.732 174.062 249.732C173.359 249.732 172.727 249.607 172.164 249.357C171.602 249.102 171.12 248.743 170.719 248.279C170.318 247.81 170.01 247.245 169.797 246.584C169.589 245.922 169.484 245.183 169.484 244.365V243.42C169.484 242.602 169.591 241.862 169.805 241.201C170.023 240.539 170.336 239.974 170.742 239.506C171.148 239.032 171.635 238.67 172.203 238.42C172.776 238.17 173.419 238.045 174.133 238.045C175.039 238.045 175.805 238.211 176.43 238.545C177.055 238.878 177.539 239.339 177.883 239.928C178.232 240.516 178.445 241.191 178.523 241.951H176.57C176.518 241.461 176.404 241.042 176.227 240.693C176.055 240.344 175.799 240.079 175.461 239.896C175.122 239.709 174.68 239.615 174.133 239.615C173.685 239.615 173.294 239.698 172.961 239.865C172.628 240.032 172.349 240.276 172.125 240.599C171.901 240.922 171.732 241.321 171.617 241.795C171.508 242.263 171.453 242.8 171.453 243.404V244.365C171.453 244.938 171.503 245.459 171.602 245.928C171.706 246.391 171.862 246.789 172.07 247.123C172.284 247.456 172.555 247.714 172.883 247.896C173.211 248.079 173.604 248.17 174.062 248.17C174.62 248.17 175.07 248.081 175.414 247.904C175.763 247.727 176.026 247.469 176.203 247.131C176.385 246.787 176.505 246.368 176.562 245.873ZM181.969 237.576V249.576H180.094V237.576H181.969ZM181.641 245.037L181.031 245.029C181.036 244.446 181.117 243.907 181.273 243.412C181.435 242.917 181.659 242.487 181.945 242.123C182.237 241.753 182.586 241.469 182.992 241.271C183.398 241.068 183.849 240.967 184.344 240.967C184.76 240.967 185.135 241.024 185.469 241.138C185.807 241.253 186.099 241.438 186.344 241.693C186.589 241.943 186.773 242.271 186.898 242.678C187.029 243.079 187.094 243.568 187.094 244.146V249.576H185.203V244.131C185.203 243.724 185.143 243.401 185.023 243.162C184.909 242.922 184.74 242.75 184.516 242.646C184.292 242.537 184.018 242.482 183.695 242.482C183.357 242.482 183.057 242.55 182.797 242.685C182.542 242.821 182.328 243.006 182.156 243.24C181.984 243.474 181.854 243.745 181.766 244.053C181.682 244.36 181.641 244.688 181.641 245.037ZM192.727 249.732C192.102 249.732 191.536 249.631 191.031 249.428C190.531 249.219 190.104 248.93 189.75 248.56C189.401 248.191 189.133 247.756 188.945 247.256C188.758 246.756 188.664 246.217 188.664 245.638V245.326C188.664 244.664 188.76 244.066 188.953 243.529C189.146 242.993 189.414 242.534 189.758 242.154C190.102 241.769 190.508 241.474 190.977 241.271C191.445 241.068 191.953 240.967 192.5 240.967C193.104 240.967 193.633 241.068 194.086 241.271C194.539 241.474 194.914 241.761 195.211 242.131C195.513 242.495 195.737 242.93 195.883 243.435C196.034 243.941 196.109 244.498 196.109 245.107V245.912H189.578V244.56H194.25V244.412C194.24 244.073 194.172 243.756 194.047 243.459C193.927 243.162 193.742 242.922 193.492 242.74C193.242 242.558 192.909 242.467 192.492 242.467C192.18 242.467 191.901 242.534 191.656 242.67C191.417 242.8 191.216 242.99 191.055 243.24C190.893 243.49 190.768 243.792 190.68 244.146C190.596 244.495 190.555 244.888 190.555 245.326V245.638C190.555 246.008 190.604 246.352 190.703 246.67C190.807 246.982 190.958 247.256 191.156 247.49C191.354 247.724 191.594 247.909 191.875 248.045C192.156 248.175 192.477 248.24 192.836 248.24C193.289 248.24 193.693 248.149 194.047 247.967C194.401 247.784 194.708 247.526 194.969 247.193L195.961 248.154C195.779 248.42 195.542 248.675 195.25 248.92C194.958 249.159 194.602 249.355 194.18 249.506C193.763 249.657 193.279 249.732 192.727 249.732ZM201.305 249.732C200.68 249.732 200.115 249.631 199.609 249.428C199.109 249.219 198.682 248.93 198.328 248.56C197.979 248.191 197.711 247.756 197.523 247.256C197.336 246.756 197.242 246.217 197.242 245.638V245.326C197.242 244.664 197.339 244.066 197.531 243.529C197.724 242.993 197.992 242.534 198.336 242.154C198.68 241.769 199.086 241.474 199.555 241.271C200.023 241.068 200.531 240.967 201.078 240.967C201.682 240.967 202.211 241.068 202.664 241.271C203.117 241.474 203.492 241.761 203.789 242.131C204.091 242.495 204.315 242.93 204.461 243.435C204.612 243.941 204.688 244.498 204.688 245.107V245.912H198.156V244.56H202.828V244.412C202.818 244.073 202.75 243.756 202.625 243.459C202.505 243.162 202.32 242.922 202.07 242.74C201.82 242.558 201.487 242.467 201.07 242.467C200.758 242.467 200.479 242.534 200.234 242.67C199.995 242.8 199.794 242.99 199.633 243.24C199.471 243.49 199.346 243.792 199.258 244.146C199.174 244.495 199.133 244.888 199.133 245.326V245.638C199.133 246.008 199.182 246.352 199.281 246.67C199.385 246.982 199.536 247.256 199.734 247.49C199.932 247.724 200.172 247.909 200.453 248.045C200.734 248.175 201.055 248.24 201.414 248.24C201.867 248.24 202.271 248.149 202.625 247.967C202.979 247.784 203.286 247.526 203.547 247.193L204.539 248.154C204.357 248.42 204.12 248.675 203.828 248.92C203.536 249.159 203.18 249.355 202.758 249.506C202.341 249.657 201.857 249.732 201.305 249.732ZM208.047 242.732V249.576H206.164V241.123H207.961L208.047 242.732ZM210.633 241.068L210.617 242.818C210.503 242.797 210.378 242.782 210.242 242.771C210.112 242.761 209.982 242.756 209.852 242.756C209.529 242.756 209.245 242.803 209 242.896C208.755 242.985 208.549 243.115 208.383 243.287C208.221 243.454 208.096 243.657 208.008 243.896C207.919 244.136 207.867 244.404 207.852 244.701L207.422 244.732C207.422 244.201 207.474 243.709 207.578 243.256C207.682 242.803 207.839 242.404 208.047 242.06C208.26 241.717 208.526 241.448 208.844 241.256C209.167 241.063 209.539 240.967 209.961 240.967C210.076 240.967 210.198 240.977 210.328 240.998C210.464 241.019 210.565 241.042 210.633 241.068ZM216.555 247.287C216.555 247.099 216.508 246.93 216.414 246.779C216.32 246.623 216.141 246.482 215.875 246.357C215.615 246.232 215.229 246.118 214.719 246.013C214.271 245.914 213.859 245.797 213.484 245.662C213.115 245.521 212.797 245.352 212.531 245.154C212.266 244.956 212.06 244.722 211.914 244.451C211.768 244.18 211.695 243.868 211.695 243.513C211.695 243.17 211.771 242.844 211.922 242.537C212.073 242.23 212.289 241.959 212.57 241.724C212.852 241.49 213.193 241.305 213.594 241.17C214 241.034 214.453 240.967 214.953 240.967C215.661 240.967 216.268 241.086 216.773 241.326C217.284 241.56 217.674 241.881 217.945 242.287C218.216 242.688 218.352 243.141 218.352 243.646H216.469C216.469 243.422 216.411 243.214 216.297 243.021C216.188 242.823 216.021 242.664 215.797 242.545C215.573 242.42 215.292 242.357 214.953 242.357C214.63 242.357 214.362 242.409 214.148 242.513C213.94 242.612 213.784 242.743 213.68 242.904C213.581 243.066 213.531 243.243 213.531 243.435C213.531 243.576 213.557 243.704 213.609 243.818C213.667 243.928 213.76 244.029 213.891 244.123C214.021 244.211 214.198 244.295 214.422 244.373C214.651 244.451 214.938 244.526 215.281 244.599C215.927 244.735 216.482 244.909 216.945 245.123C217.414 245.331 217.773 245.602 218.023 245.935C218.273 246.263 218.398 246.68 218.398 247.185C218.398 247.56 218.318 247.904 218.156 248.217C218 248.524 217.771 248.792 217.469 249.021C217.167 249.245 216.805 249.42 216.383 249.545C215.966 249.67 215.497 249.732 214.977 249.732C214.211 249.732 213.562 249.597 213.031 249.326C212.5 249.05 212.096 248.698 211.82 248.271C211.549 247.839 211.414 247.391 211.414 246.928H213.234C213.255 247.276 213.352 247.555 213.523 247.763C213.701 247.967 213.919 248.115 214.18 248.209C214.445 248.297 214.719 248.342 215 248.342C215.339 248.342 215.622 248.297 215.852 248.209C216.081 248.115 216.255 247.99 216.375 247.834C216.495 247.672 216.555 247.49 216.555 247.287ZM222.219 238.201L222.031 246.224H220.422L220.227 238.201H222.219ZM220.172 248.685C220.172 248.399 220.266 248.159 220.453 247.967C220.646 247.769 220.911 247.67 221.25 247.67C221.583 247.67 221.846 247.769 222.039 247.967C222.232 248.159 222.328 248.399 222.328 248.685C222.328 248.961 222.232 249.198 222.039 249.396C221.846 249.589 221.583 249.685 221.25 249.685C220.911 249.685 220.646 249.589 220.453 249.396C220.266 249.198 220.172 248.961 220.172 248.685ZM92.5625 257.201L95.5156 262.912L98.4766 257.201H100.188L96.2656 264.326V268.576H94.7578V264.326L90.8359 257.201H92.5625ZM100.531 264.443V264.263C100.531 263.654 100.62 263.089 100.797 262.568C100.974 262.042 101.229 261.586 101.562 261.201C101.896 260.81 102.299 260.508 102.773 260.295C103.247 260.076 103.779 259.967 104.367 259.967C104.961 259.967 105.495 260.076 105.969 260.295C106.448 260.508 106.854 260.81 107.188 261.201C107.526 261.586 107.784 262.042 107.961 262.568C108.138 263.089 108.227 263.654 108.227 264.263V264.443C108.227 265.053 108.138 265.618 107.961 266.138C107.784 266.659 107.526 267.115 107.188 267.506C106.854 267.891 106.451 268.193 105.977 268.412C105.508 268.625 104.977 268.732 104.383 268.732C103.789 268.732 103.255 268.625 102.781 268.412C102.307 268.193 101.901 267.891 101.562 267.506C101.229 267.115 100.974 266.659 100.797 266.138C100.62 265.618 100.531 265.053 100.531 264.443ZM101.977 264.263V264.443C101.977 264.865 102.026 265.263 102.125 265.638C102.224 266.008 102.372 266.336 102.57 266.623C102.773 266.909 103.026 267.136 103.328 267.303C103.63 267.464 103.982 267.545 104.383 267.545C104.779 267.545 105.125 267.464 105.422 267.303C105.724 267.136 105.974 266.909 106.172 266.623C106.37 266.336 106.518 266.008 106.617 265.638C106.721 265.263 106.773 264.865 106.773 264.443V264.263C106.773 263.847 106.721 263.454 106.617 263.084C106.518 262.709 106.367 262.378 106.164 262.092C105.966 261.8 105.716 261.571 105.414 261.404C105.117 261.237 104.768 261.154 104.367 261.154C103.971 261.154 103.622 261.237 103.32 261.404C103.023 261.571 102.773 261.8 102.57 262.092C102.372 262.378 102.224 262.709 102.125 263.084C102.026 263.454 101.977 263.847 101.977 264.263ZM115.211 266.623V260.123H116.664V268.576H115.281L115.211 266.623ZM115.484 264.842L116.086 264.826C116.086 265.388 116.026 265.909 115.906 266.388C115.792 266.862 115.604 267.274 115.344 267.623C115.083 267.972 114.742 268.245 114.32 268.443C113.898 268.636 113.385 268.732 112.781 268.732C112.37 268.732 111.992 268.672 111.648 268.553C111.31 268.433 111.018 268.248 110.773 267.998C110.529 267.748 110.339 267.422 110.203 267.021C110.073 266.62 110.008 266.138 110.008 265.576V260.123H111.453V265.592C111.453 265.972 111.495 266.287 111.578 266.537C111.667 266.782 111.784 266.977 111.93 267.123C112.081 267.263 112.247 267.362 112.43 267.42C112.617 267.477 112.81 267.506 113.008 267.506C113.622 267.506 114.109 267.388 114.469 267.154C114.828 266.914 115.086 266.594 115.242 266.193C115.404 265.787 115.484 265.336 115.484 264.842ZM120.312 261.451V268.576H118.867V260.123H120.273L120.312 261.451ZM122.953 260.076L122.945 261.42C122.826 261.394 122.711 261.378 122.602 261.373C122.497 261.362 122.378 261.357 122.242 261.357C121.909 261.357 121.615 261.409 121.359 261.513C121.104 261.618 120.888 261.763 120.711 261.951C120.534 262.138 120.393 262.362 120.289 262.623C120.19 262.878 120.125 263.159 120.094 263.467L119.688 263.701C119.688 263.191 119.737 262.711 119.836 262.263C119.94 261.816 120.099 261.42 120.312 261.076C120.526 260.727 120.797 260.456 121.125 260.263C121.458 260.066 121.854 259.967 122.312 259.967C122.417 259.967 122.536 259.98 122.672 260.006C122.807 260.026 122.901 260.05 122.953 260.076ZM129.828 260.123V268.576H128.375V260.123H129.828ZM128.266 257.881C128.266 257.646 128.336 257.448 128.477 257.287C128.622 257.125 128.836 257.045 129.117 257.045C129.393 257.045 129.604 257.125 129.75 257.287C129.901 257.448 129.977 257.646 129.977 257.881C129.977 258.105 129.901 258.297 129.75 258.459C129.604 258.615 129.393 258.693 129.117 258.693C128.836 258.693 128.622 258.615 128.477 258.459C128.336 258.297 128.266 258.105 128.266 257.881ZM133.594 261.928V268.576H132.148V260.123H133.516L133.594 261.928ZM133.25 264.029L132.648 264.006C132.654 263.428 132.74 262.894 132.906 262.404C133.073 261.909 133.307 261.48 133.609 261.115C133.911 260.75 134.271 260.469 134.688 260.271C135.109 260.068 135.576 259.967 136.086 259.967C136.503 259.967 136.878 260.024 137.211 260.138C137.544 260.248 137.828 260.425 138.062 260.67C138.302 260.914 138.484 261.232 138.609 261.623C138.734 262.008 138.797 262.48 138.797 263.037V268.576H137.344V263.021C137.344 262.579 137.279 262.224 137.148 261.959C137.018 261.688 136.828 261.493 136.578 261.373C136.328 261.248 136.021 261.185 135.656 261.185C135.297 261.185 134.969 261.261 134.672 261.412C134.38 261.563 134.128 261.771 133.914 262.037C133.706 262.303 133.542 262.607 133.422 262.951C133.307 263.289 133.25 263.649 133.25 264.029ZM145.914 266.334C145.914 266.125 145.867 265.933 145.773 265.756C145.685 265.573 145.5 265.409 145.219 265.263C144.943 265.112 144.526 264.982 143.969 264.873C143.5 264.774 143.076 264.657 142.695 264.521C142.32 264.386 142 264.222 141.734 264.029C141.474 263.836 141.273 263.61 141.133 263.349C140.992 263.089 140.922 262.784 140.922 262.435C140.922 262.102 140.995 261.787 141.141 261.49C141.292 261.193 141.503 260.93 141.773 260.701C142.049 260.472 142.38 260.292 142.766 260.162C143.151 260.032 143.581 259.967 144.055 259.967C144.732 259.967 145.31 260.086 145.789 260.326C146.268 260.566 146.635 260.886 146.891 261.287C147.146 261.683 147.273 262.123 147.273 262.607H145.828C145.828 262.373 145.758 262.146 145.617 261.928C145.482 261.704 145.281 261.519 145.016 261.373C144.755 261.227 144.435 261.154 144.055 261.154C143.654 261.154 143.328 261.217 143.078 261.342C142.833 261.461 142.654 261.615 142.539 261.803C142.43 261.99 142.375 262.188 142.375 262.396C142.375 262.553 142.401 262.693 142.453 262.818C142.51 262.938 142.609 263.05 142.75 263.154C142.891 263.253 143.089 263.347 143.344 263.435C143.599 263.524 143.924 263.612 144.32 263.701C145.013 263.857 145.583 264.045 146.031 264.263C146.479 264.482 146.812 264.75 147.031 265.068C147.25 265.386 147.359 265.771 147.359 266.224C147.359 266.594 147.281 266.933 147.125 267.24C146.974 267.547 146.753 267.813 146.461 268.037C146.174 268.256 145.831 268.428 145.43 268.553C145.034 268.672 144.589 268.732 144.094 268.732C143.349 268.732 142.719 268.599 142.203 268.334C141.688 268.068 141.297 267.724 141.031 267.303C140.766 266.881 140.633 266.435 140.633 265.967H142.086C142.107 266.362 142.221 266.678 142.43 266.912C142.638 267.141 142.893 267.305 143.195 267.404C143.497 267.498 143.797 267.545 144.094 267.545C144.49 267.545 144.82 267.493 145.086 267.388C145.357 267.284 145.562 267.141 145.703 266.959C145.844 266.776 145.914 266.568 145.914 266.334ZM152.797 260.123V261.232H148.227V260.123H152.797ZM149.773 258.068H151.219V266.482C151.219 266.769 151.263 266.985 151.352 267.131C151.44 267.276 151.555 267.373 151.695 267.42C151.836 267.467 151.987 267.49 152.148 267.49C152.268 267.49 152.393 267.48 152.523 267.459C152.659 267.433 152.76 267.412 152.828 267.396L152.836 268.576C152.721 268.612 152.57 268.646 152.383 268.678C152.201 268.714 151.979 268.732 151.719 268.732C151.365 268.732 151.039 268.662 150.742 268.521C150.445 268.381 150.208 268.146 150.031 267.818C149.859 267.485 149.773 267.037 149.773 266.474V258.068ZM159.477 267.131V262.779C159.477 262.446 159.409 262.157 159.273 261.912C159.143 261.662 158.945 261.469 158.68 261.334C158.414 261.198 158.086 261.131 157.695 261.131C157.331 261.131 157.01 261.193 156.734 261.318C156.464 261.443 156.25 261.607 156.094 261.81C155.943 262.013 155.867 262.232 155.867 262.467H154.422C154.422 262.164 154.5 261.865 154.656 261.568C154.812 261.271 155.036 261.003 155.328 260.763C155.625 260.519 155.979 260.326 156.391 260.185C156.807 260.039 157.271 259.967 157.781 259.967C158.396 259.967 158.938 260.071 159.406 260.279C159.88 260.487 160.25 260.803 160.516 261.224C160.786 261.641 160.922 262.164 160.922 262.795V266.732C160.922 267.013 160.945 267.313 160.992 267.631C161.044 267.948 161.12 268.222 161.219 268.451V268.576H159.711C159.638 268.409 159.581 268.188 159.539 267.912C159.497 267.631 159.477 267.37 159.477 267.131ZM159.727 263.451L159.742 264.467H158.281C157.87 264.467 157.503 264.5 157.18 264.568C156.857 264.631 156.586 264.727 156.367 264.857C156.148 264.987 155.982 265.151 155.867 265.349C155.753 265.542 155.695 265.769 155.695 266.029C155.695 266.295 155.755 266.537 155.875 266.756C155.995 266.974 156.174 267.149 156.414 267.279C156.659 267.404 156.958 267.467 157.312 267.467C157.755 267.467 158.146 267.373 158.484 267.185C158.823 266.998 159.091 266.769 159.289 266.498C159.492 266.227 159.602 265.964 159.617 265.709L160.234 266.404C160.198 266.623 160.099 266.865 159.938 267.131C159.776 267.396 159.56 267.651 159.289 267.896C159.023 268.136 158.706 268.336 158.336 268.498C157.971 268.654 157.56 268.732 157.102 268.732C156.529 268.732 156.026 268.62 155.594 268.396C155.167 268.172 154.833 267.873 154.594 267.498C154.359 267.118 154.242 266.693 154.242 266.224C154.242 265.771 154.331 265.373 154.508 265.029C154.685 264.68 154.94 264.391 155.273 264.162C155.607 263.928 156.008 263.75 156.477 263.631C156.945 263.511 157.469 263.451 158.047 263.451H159.727ZM164.766 256.576V268.576H163.312V256.576H164.766ZM168.656 256.576V268.576H167.203V256.576H168.656ZM175.961 267.131V262.779C175.961 262.446 175.893 262.157 175.758 261.912C175.628 261.662 175.43 261.469 175.164 261.334C174.898 261.198 174.57 261.131 174.18 261.131C173.815 261.131 173.495 261.193 173.219 261.318C172.948 261.443 172.734 261.607 172.578 261.81C172.427 262.013 172.352 262.232 172.352 262.467H170.906C170.906 262.164 170.984 261.865 171.141 261.568C171.297 261.271 171.521 261.003 171.812 260.763C172.109 260.519 172.464 260.326 172.875 260.185C173.292 260.039 173.755 259.967 174.266 259.967C174.88 259.967 175.422 260.071 175.891 260.279C176.365 260.487 176.734 260.803 177 261.224C177.271 261.641 177.406 262.164 177.406 262.795V266.732C177.406 267.013 177.43 267.313 177.477 267.631C177.529 267.948 177.604 268.222 177.703 268.451V268.576H176.195C176.122 268.409 176.065 268.188 176.023 267.912C175.982 267.631 175.961 267.37 175.961 267.131ZM176.211 263.451L176.227 264.467H174.766C174.354 264.467 173.987 264.5 173.664 264.568C173.341 264.631 173.07 264.727 172.852 264.857C172.633 264.987 172.466 265.151 172.352 265.349C172.237 265.542 172.18 265.769 172.18 266.029C172.18 266.295 172.24 266.537 172.359 266.756C172.479 266.974 172.659 267.149 172.898 267.279C173.143 267.404 173.443 267.467 173.797 267.467C174.24 267.467 174.63 267.373 174.969 267.185C175.307 266.998 175.576 266.769 175.773 266.498C175.977 266.227 176.086 265.964 176.102 265.709L176.719 266.404C176.682 266.623 176.583 266.865 176.422 267.131C176.26 267.396 176.044 267.651 175.773 267.896C175.508 268.136 175.19 268.336 174.82 268.498C174.456 268.654 174.044 268.732 173.586 268.732C173.013 268.732 172.51 268.62 172.078 268.396C171.651 268.172 171.318 267.873 171.078 267.498C170.844 267.118 170.727 266.693 170.727 266.224C170.727 265.771 170.815 265.373 170.992 265.029C171.169 264.68 171.424 264.391 171.758 264.162C172.091 263.928 172.492 263.75 172.961 263.631C173.43 263.511 173.953 263.451 174.531 263.451H176.211ZM183.219 260.123V261.232H178.648V260.123H183.219ZM180.195 258.068H181.641V266.482C181.641 266.769 181.685 266.985 181.773 267.131C181.862 267.276 181.977 267.373 182.117 267.42C182.258 267.467 182.409 267.49 182.57 267.49C182.69 267.49 182.815 267.48 182.945 267.459C183.081 267.433 183.182 267.412 183.25 267.396L183.258 268.576C183.143 268.612 182.992 268.646 182.805 268.678C182.622 268.714 182.401 268.732 182.141 268.732C181.786 268.732 181.461 268.662 181.164 268.521C180.867 268.381 180.63 268.146 180.453 267.818C180.281 267.485 180.195 267.037 180.195 266.474V258.068ZM186.484 260.123V268.576H185.031V260.123H186.484ZM184.922 257.881C184.922 257.646 184.992 257.448 185.133 257.287C185.279 257.125 185.492 257.045 185.773 257.045C186.049 257.045 186.26 257.125 186.406 257.287C186.557 257.448 186.633 257.646 186.633 257.881C186.633 258.105 186.557 258.297 186.406 258.459C186.26 258.615 186.049 258.693 185.773 258.693C185.492 258.693 185.279 258.615 185.133 258.459C184.992 258.297 184.922 258.105 184.922 257.881ZM188.422 264.443V264.263C188.422 263.654 188.51 263.089 188.688 262.568C188.865 262.042 189.12 261.586 189.453 261.201C189.786 260.81 190.19 260.508 190.664 260.295C191.138 260.076 191.669 259.967 192.258 259.967C192.852 259.967 193.385 260.076 193.859 260.295C194.339 260.508 194.745 260.81 195.078 261.201C195.417 261.586 195.674 262.042 195.852 262.568C196.029 263.089 196.117 263.654 196.117 264.263V264.443C196.117 265.053 196.029 265.618 195.852 266.138C195.674 266.659 195.417 267.115 195.078 267.506C194.745 267.891 194.341 268.193 193.867 268.412C193.398 268.625 192.867 268.732 192.273 268.732C191.68 268.732 191.146 268.625 190.672 268.412C190.198 268.193 189.792 267.891 189.453 267.506C189.12 267.115 188.865 266.659 188.688 266.138C188.51 265.618 188.422 265.053 188.422 264.443ZM189.867 264.263V264.443C189.867 264.865 189.917 265.263 190.016 265.638C190.115 266.008 190.263 266.336 190.461 266.623C190.664 266.909 190.917 267.136 191.219 267.303C191.521 267.464 191.872 267.545 192.273 267.545C192.669 267.545 193.016 267.464 193.312 267.303C193.615 267.136 193.865 266.909 194.062 266.623C194.26 266.336 194.409 266.008 194.508 265.638C194.612 265.263 194.664 264.865 194.664 264.443V264.263C194.664 263.847 194.612 263.454 194.508 263.084C194.409 262.709 194.258 262.378 194.055 262.092C193.857 261.8 193.607 261.571 193.305 261.404C193.008 261.237 192.659 261.154 192.258 261.154C191.862 261.154 191.513 261.237 191.211 261.404C190.914 261.571 190.664 261.8 190.461 262.092C190.263 262.378 190.115 262.709 190.016 263.084C189.917 263.454 189.867 263.847 189.867 264.263ZM199.375 261.928V268.576H197.93V260.123H199.297L199.375 261.928ZM199.031 264.029L198.43 264.006C198.435 263.428 198.521 262.894 198.688 262.404C198.854 261.909 199.089 261.48 199.391 261.115C199.693 260.75 200.052 260.469 200.469 260.271C200.891 260.068 201.357 259.967 201.867 259.967C202.284 259.967 202.659 260.024 202.992 260.138C203.326 260.248 203.609 260.425 203.844 260.67C204.083 260.914 204.266 261.232 204.391 261.623C204.516 262.008 204.578 262.48 204.578 263.037V268.576H203.125V263.021C203.125 262.579 203.06 262.224 202.93 261.959C202.799 261.688 202.609 261.493 202.359 261.373C202.109 261.248 201.802 261.185 201.438 261.185C201.078 261.185 200.75 261.261 200.453 261.412C200.161 261.563 199.909 261.771 199.695 262.037C199.487 262.303 199.323 262.607 199.203 262.951C199.089 263.289 199.031 263.649 199.031 264.029ZM212.312 256.576V268.576H210.859V256.576H212.312ZM214.25 264.443V264.263C214.25 263.654 214.339 263.089 214.516 262.568C214.693 262.042 214.948 261.586 215.281 261.201C215.615 260.81 216.018 260.508 216.492 260.295C216.966 260.076 217.497 259.967 218.086 259.967C218.68 259.967 219.214 260.076 219.688 260.295C220.167 260.508 220.573 260.81 220.906 261.201C221.245 261.586 221.503 262.042 221.68 262.568C221.857 263.089 221.945 263.654 221.945 264.263V264.443C221.945 265.053 221.857 265.618 221.68 266.138C221.503 266.659 221.245 267.115 220.906 267.506C220.573 267.891 220.169 268.193 219.695 268.412C219.227 268.625 218.695 268.732 218.102 268.732C217.508 268.732 216.974 268.625 216.5 268.412C216.026 268.193 215.62 267.891 215.281 267.506C214.948 267.115 214.693 266.659 214.516 266.138C214.339 265.618 214.25 265.053 214.25 264.443ZM215.695 264.263V264.443C215.695 264.865 215.745 265.263 215.844 265.638C215.943 266.008 216.091 266.336 216.289 266.623C216.492 266.909 216.745 267.136 217.047 267.303C217.349 267.464 217.701 267.545 218.102 267.545C218.497 267.545 218.844 267.464 219.141 267.303C219.443 267.136 219.693 266.909 219.891 266.623C220.089 266.336 220.237 266.008 220.336 265.638C220.44 265.263 220.492 264.865 220.492 264.443V264.263C220.492 263.847 220.44 263.454 220.336 263.084C220.237 262.709 220.086 262.378 219.883 262.092C219.685 261.8 219.435 261.571 219.133 261.404C218.836 261.237 218.487 261.154 218.086 261.154C217.69 261.154 217.341 261.237 217.039 261.404C216.742 261.571 216.492 261.8 216.289 262.092C216.091 262.378 215.943 262.709 215.844 263.084C215.745 263.454 215.695 263.847 215.695 264.263ZM223.375 264.443V264.263C223.375 263.654 223.464 263.089 223.641 262.568C223.818 262.042 224.073 261.586 224.406 261.201C224.74 260.81 225.143 260.508 225.617 260.295C226.091 260.076 226.622 259.967 227.211 259.967C227.805 259.967 228.339 260.076 228.812 260.295C229.292 260.508 229.698 260.81 230.031 261.201C230.37 261.586 230.628 262.042 230.805 262.568C230.982 263.089 231.07 263.654 231.07 264.263V264.443C231.07 265.053 230.982 265.618 230.805 266.138C230.628 266.659 230.37 267.115 230.031 267.506C229.698 267.891 229.294 268.193 228.82 268.412C228.352 268.625 227.82 268.732 227.227 268.732C226.633 268.732 226.099 268.625 225.625 268.412C225.151 268.193 224.745 267.891 224.406 267.506C224.073 267.115 223.818 266.659 223.641 266.138C223.464 265.618 223.375 265.053 223.375 264.443ZM224.82 264.263V264.443C224.82 264.865 224.87 265.263 224.969 265.638C225.068 266.008 225.216 266.336 225.414 266.623C225.617 266.909 225.87 267.136 226.172 267.303C226.474 267.464 226.826 267.545 227.227 267.545C227.622 267.545 227.969 267.464 228.266 267.303C228.568 267.136 228.818 266.909 229.016 266.623C229.214 266.336 229.362 266.008 229.461 265.638C229.565 265.263 229.617 264.865 229.617 264.443V264.263C229.617 263.847 229.565 263.454 229.461 263.084C229.362 262.709 229.211 262.378 229.008 262.092C228.81 261.8 228.56 261.571 228.258 261.404C227.961 261.237 227.612 261.154 227.211 261.154C226.815 261.154 226.466 261.237 226.164 261.404C225.867 261.571 225.617 261.8 225.414 262.092C225.216 262.378 225.068 262.709 224.969 263.084C224.87 263.454 224.82 263.847 224.82 264.263ZM234.336 256.576V268.576H232.883V256.576H234.336ZM239.5 260.123L235.812 264.068L233.75 266.209L233.633 264.67L235.109 262.904L237.734 260.123H239.5ZM238.18 268.576L235.164 264.545L235.914 263.256L239.883 268.576H238.18ZM245.914 266.334C245.914 266.125 245.867 265.933 245.773 265.756C245.685 265.573 245.5 265.409 245.219 265.263C244.943 265.112 244.526 264.982 243.969 264.873C243.5 264.774 243.076 264.657 242.695 264.521C242.32 264.386 242 264.222 241.734 264.029C241.474 263.836 241.273 263.61 241.133 263.349C240.992 263.089 240.922 262.784 240.922 262.435C240.922 262.102 240.995 261.787 241.141 261.49C241.292 261.193 241.503 260.93 241.773 260.701C242.049 260.472 242.38 260.292 242.766 260.162C243.151 260.032 243.581 259.967 244.055 259.967C244.732 259.967 245.31 260.086 245.789 260.326C246.268 260.566 246.635 260.886 246.891 261.287C247.146 261.683 247.273 262.123 247.273 262.607H245.828C245.828 262.373 245.758 262.146 245.617 261.928C245.482 261.704 245.281 261.519 245.016 261.373C244.755 261.227 244.435 261.154 244.055 261.154C243.654 261.154 243.328 261.217 243.078 261.342C242.833 261.461 242.654 261.615 242.539 261.803C242.43 261.99 242.375 262.188 242.375 262.396C242.375 262.553 242.401 262.693 242.453 262.818C242.51 262.938 242.609 263.05 242.75 263.154C242.891 263.253 243.089 263.347 243.344 263.435C243.599 263.524 243.924 263.612 244.32 263.701C245.013 263.857 245.583 264.045 246.031 264.263C246.479 264.482 246.812 264.75 247.031 265.068C247.25 265.386 247.359 265.771 247.359 266.224C247.359 266.594 247.281 266.933 247.125 267.24C246.974 267.547 246.753 267.813 246.461 268.037C246.174 268.256 245.831 268.428 245.43 268.553C245.034 268.672 244.589 268.732 244.094 268.732C243.349 268.732 242.719 268.599 242.203 268.334C241.688 268.068 241.297 267.724 241.031 267.303C240.766 266.881 240.633 266.435 240.633 265.967H242.086C242.107 266.362 242.221 266.678 242.43 266.912C242.638 267.141 242.893 267.305 243.195 267.404C243.497 267.498 243.797 267.545 244.094 267.545C244.49 267.545 244.82 267.493 245.086 267.388C245.357 267.284 245.562 267.141 245.703 266.959C245.844 266.776 245.914 266.568 245.914 266.334ZM258.211 267.131V262.779C258.211 262.446 258.143 262.157 258.008 261.912C257.878 261.662 257.68 261.469 257.414 261.334C257.148 261.198 256.82 261.131 256.43 261.131C256.065 261.131 255.745 261.193 255.469 261.318C255.198 261.443 254.984 261.607 254.828 261.81C254.677 262.013 254.602 262.232 254.602 262.467H253.156C253.156 262.164 253.234 261.865 253.391 261.568C253.547 261.271 253.771 261.003 254.062 260.763C254.359 260.519 254.714 260.326 255.125 260.185C255.542 260.039 256.005 259.967 256.516 259.967C257.13 259.967 257.672 260.071 258.141 260.279C258.615 260.487 258.984 260.803 259.25 261.224C259.521 261.641 259.656 262.164 259.656 262.795V266.732C259.656 267.013 259.68 267.313 259.727 267.631C259.779 267.948 259.854 268.222 259.953 268.451V268.576H258.445C258.372 268.409 258.315 268.188 258.273 267.912C258.232 267.631 258.211 267.37 258.211 267.131ZM258.461 263.451L258.477 264.467H257.016C256.604 264.467 256.237 264.5 255.914 264.568C255.591 264.631 255.32 264.727 255.102 264.857C254.883 264.987 254.716 265.151 254.602 265.349C254.487 265.542 254.43 265.769 254.43 266.029C254.43 266.295 254.49 266.537 254.609 266.756C254.729 266.974 254.909 267.149 255.148 267.279C255.393 267.404 255.693 267.467 256.047 267.467C256.49 267.467 256.88 267.373 257.219 267.185C257.557 266.998 257.826 266.769 258.023 266.498C258.227 266.227 258.336 265.964 258.352 265.709L258.969 266.404C258.932 266.623 258.833 266.865 258.672 267.131C258.51 267.396 258.294 267.651 258.023 267.896C257.758 268.136 257.44 268.336 257.07 268.498C256.706 268.654 256.294 268.732 255.836 268.732C255.263 268.732 254.76 268.62 254.328 268.396C253.901 268.172 253.568 267.873 253.328 267.498C253.094 267.118 252.977 266.693 252.977 266.224C252.977 265.771 253.065 265.373 253.242 265.029C253.419 264.68 253.674 264.391 254.008 264.162C254.341 263.928 254.742 263.75 255.211 263.631C255.68 263.511 256.203 263.451 256.781 263.451H258.461ZM263.5 256.576V268.576H262.047V256.576H263.5ZM267.266 261.451V268.576H265.82V260.123H267.227L267.266 261.451ZM269.906 260.076L269.898 261.42C269.779 261.394 269.664 261.378 269.555 261.373C269.451 261.362 269.331 261.357 269.195 261.357C268.862 261.357 268.568 261.409 268.312 261.513C268.057 261.618 267.841 261.763 267.664 261.951C267.487 262.138 267.346 262.362 267.242 262.623C267.143 262.878 267.078 263.159 267.047 263.467L266.641 263.701C266.641 263.191 266.69 262.711 266.789 262.263C266.893 261.816 267.052 261.42 267.266 261.076C267.479 260.727 267.75 260.456 268.078 260.263C268.411 260.066 268.807 259.967 269.266 259.967C269.37 259.967 269.49 259.98 269.625 260.006C269.76 260.026 269.854 260.05 269.906 260.076ZM272.812 260.123V268.576H271.359V260.123H272.812ZM271.25 257.881C271.25 257.646 271.32 257.448 271.461 257.287C271.607 257.125 271.82 257.045 272.102 257.045C272.378 257.045 272.589 257.125 272.734 257.287C272.885 257.448 272.961 257.646 272.961 257.881C272.961 258.105 272.885 258.297 272.734 258.459C272.589 258.615 272.378 258.693 272.102 258.693C271.82 258.693 271.607 258.615 271.461 258.459C271.32 258.297 271.25 258.105 271.25 257.881ZM280.609 260.123H281.922V268.396C281.922 269.141 281.771 269.776 281.469 270.303C281.167 270.829 280.745 271.227 280.203 271.498C279.667 271.774 279.047 271.912 278.344 271.912C278.052 271.912 277.708 271.865 277.312 271.771C276.922 271.683 276.536 271.529 276.156 271.31C275.781 271.097 275.466 270.808 275.211 270.443L275.969 269.584C276.323 270.011 276.693 270.308 277.078 270.474C277.469 270.641 277.854 270.724 278.234 270.724C278.693 270.724 279.089 270.638 279.422 270.467C279.755 270.295 280.013 270.039 280.195 269.701C280.383 269.368 280.477 268.956 280.477 268.467V261.982L280.609 260.123ZM274.789 264.443V264.279C274.789 263.633 274.865 263.047 275.016 262.521C275.172 261.99 275.393 261.534 275.68 261.154C275.971 260.774 276.323 260.482 276.734 260.279C277.146 260.071 277.609 259.967 278.125 259.967C278.656 259.967 279.12 260.06 279.516 260.248C279.917 260.43 280.255 260.698 280.531 261.053C280.812 261.401 281.034 261.823 281.195 262.318C281.357 262.813 281.469 263.373 281.531 263.998V264.717C281.474 265.336 281.362 265.894 281.195 266.388C281.034 266.883 280.812 267.305 280.531 267.654C280.255 268.003 279.917 268.271 279.516 268.459C279.115 268.641 278.646 268.732 278.109 268.732C277.604 268.732 277.146 268.625 276.734 268.412C276.328 268.198 275.979 267.899 275.688 267.513C275.396 267.128 275.172 266.675 275.016 266.154C274.865 265.628 274.789 265.058 274.789 264.443ZM276.234 264.279V264.443C276.234 264.865 276.276 265.261 276.359 265.631C276.448 266 276.581 266.326 276.758 266.607C276.94 266.888 277.172 267.11 277.453 267.271C277.734 267.428 278.07 267.506 278.461 267.506C278.94 267.506 279.336 267.404 279.648 267.201C279.961 266.998 280.208 266.73 280.391 266.396C280.578 266.063 280.724 265.701 280.828 265.31V263.428C280.771 263.141 280.682 262.865 280.562 262.599C280.448 262.329 280.297 262.089 280.109 261.881C279.927 261.667 279.701 261.498 279.43 261.373C279.159 261.248 278.841 261.185 278.477 261.185C278.081 261.185 277.74 261.269 277.453 261.435C277.172 261.597 276.94 261.821 276.758 262.107C276.581 262.388 276.448 262.717 276.359 263.092C276.276 263.461 276.234 263.857 276.234 264.279ZM285.562 256.576V268.576H284.117V256.576H285.562ZM285.219 264.029L284.617 264.006C284.622 263.428 284.708 262.894 284.875 262.404C285.042 261.909 285.276 261.48 285.578 261.115C285.88 260.75 286.24 260.469 286.656 260.271C287.078 260.068 287.544 259.967 288.055 259.967C288.471 259.967 288.846 260.024 289.18 260.138C289.513 260.248 289.797 260.425 290.031 260.67C290.271 260.914 290.453 261.232 290.578 261.623C290.703 262.008 290.766 262.48 290.766 263.037V268.576H289.312V263.021C289.312 262.579 289.247 262.224 289.117 261.959C288.987 261.688 288.797 261.493 288.547 261.373C288.297 261.248 287.99 261.185 287.625 261.185C287.266 261.185 286.938 261.261 286.641 261.412C286.349 261.563 286.096 261.771 285.883 262.037C285.674 262.303 285.51 262.607 285.391 262.951C285.276 263.289 285.219 263.649 285.219 264.029ZM296.469 260.123V261.232H291.898V260.123H296.469ZM293.445 258.068H294.891V266.482C294.891 266.769 294.935 266.985 295.023 267.131C295.112 267.276 295.227 267.373 295.367 267.42C295.508 267.467 295.659 267.49 295.82 267.49C295.94 267.49 296.065 267.48 296.195 267.459C296.331 267.433 296.432 267.412 296.5 267.396L296.508 268.576C296.393 268.612 296.242 268.646 296.055 268.678C295.872 268.714 295.651 268.732 295.391 268.732C295.036 268.732 294.711 268.662 294.414 268.521C294.117 268.381 293.88 268.146 293.703 267.818C293.531 267.485 293.445 267.037 293.445 266.474V258.068ZM298.188 267.81C298.188 267.566 298.263 267.36 298.414 267.193C298.57 267.021 298.794 266.935 299.086 266.935C299.378 266.935 299.599 267.021 299.75 267.193C299.906 267.36 299.984 267.566 299.984 267.81C299.984 268.05 299.906 268.253 299.75 268.42C299.599 268.586 299.378 268.67 299.086 268.67C298.794 268.67 298.57 268.586 298.414 268.42C298.263 268.253 298.188 268.05 298.188 267.81Z" fill="black"/>
<defs>
<clipPath id="clip0_2633_13228">
<rect width="246" height="164" fill="white" transform="translate(73 38)"/>
</clipPath>
<clipPath id="clip1_2633_13228">
<rect width="341.749" height="174.576" fill="white" transform="translate(25.1255 60)"/>
</clipPath>
</defs>
</svg>
