<svg viewBox="0 0 720 517" fill="none" xmlns="http://www.w3.org/2000/svg">
<g clip-path="url(#clip0_317_4)">
<path d="M427.832 256.816C427.838 256.646 427.848 256.477 427.854 256.302C432.847 257.959 437.861 259.921 442.823 261.147C445.659 261.848 448.973 262.674 451.077 261.117C455.34 257.982 458.051 251.795 458.222 243.856C458.548 228.854 458.122 213.501 458.013 198.299C457.92 185.691 457.749 173.05 457.787 160.5C457.808 152.816 458.334 145.345 458.309 137.646C458.281 127.56 454.762 119.894 448.105 115.676C442.752 112.275 437.336 109.285 431.927 106.699C423.912 102.857 415.881 99.4063 407.854 96.0382C401.907 93.5412 395.956 91.5363 390.006 89.1338C382.411 86.074 374.816 82.8897 367.221 79.6527C356.109 74.9209 344.998 69.7963 333.893 65.4264C328.468 63.2894 326.174 65.5295 325.539 71.9446C325.12 76.1827 324.918 80.5972 324.936 85.0648C324.998 100.884 325.272 116.792 325.306 132.605C325.319 139.149 324.924 145.524 324.712 151.975C324.252 165.883 323.565 179.687 323.41 193.725C323.31 202.599 325.704 207.83 331.527 211.722C336.057 214.744 340.736 216.533 345.352 218.824C346.294 219.291 347.249 219.466 348.194 219.881C355.873 223.254 363.549 226.586 371.225 230.048C378.553 233.357 385.88 236.732 393.205 240.207C404.748 245.688 416.289 251.272 427.832 256.816ZM348.903 68.7934C360.798 74.2473 372.686 79.9765 384.581 85.0855C401.751 92.466 418.922 99.2477 436.092 106.628C440.538 108.542 445.015 111.416 449.405 114.423C455.175 118.379 459.033 126.032 459.459 134.908C459.804 142.15 459.329 149.139 459.273 156.268C459.186 167.015 459.055 177.744 459.111 188.546C459.179 201.676 459.447 214.883 459.587 228.038C459.649 233.937 459.96 240.006 459.528 245.628C458.94 253.265 456.409 259.134 452.476 262.76C450.819 264.287 448.233 264.547 445.957 264.026C434.554 261.42 423.091 257.036 411.613 251.228C407.31 249.048 403.004 246.79 398.695 244.886C378.596 235.995 358.494 227.438 338.404 218.212C334.406 216.374 330.318 212.592 326.537 208.808C323.668 205.933 321.911 201.454 322.088 196.273C322.632 180.096 323.214 163.934 323.472 147.624C323.761 129.383 323.702 110.987 323.808 92.6643C323.854 85.1196 323.621 77.4159 324.103 70.1137C324.52 63.8001 327.52 61.4691 331.863 62.8178C337.534 64.5823 343.21 66.5122 348.887 68.375C348.894 68.5165 348.9 68.6532 348.903 68.7934Z" fill="black"/>
<path d="M407.85 198.991C407.859 198.55 407.869 198.108 407.878 197.671C407.688 197.353 407.499 196.834 407.309 196.755C402.835 194.811 398.293 192.135 393.91 191.22C388.988 190.187 384.2 188.736 379.313 185.327C378.331 184.642 377.271 184.409 376.251 184.106C372.355 182.967 368.615 183.483 364.515 180.4C361.766 178.337 358.754 177.822 355.863 176.782C355.437 176.63 355.036 177.426 354.094 178.239C372.564 185.367 390.207 192.182 407.85 198.991ZM389.414 225.755L389.436 224.753C393.913 226.608 398.396 228.647 402.866 230.264C406.805 231.689 410.726 232.657 414.282 231.146C416.745 230.096 418.448 226.395 417.929 222.922C417.183 217.933 414.425 213.135 411.329 211.905C397.625 206.449 383.924 201.033 370.223 195.784C367.095 194.584 364.648 196.254 363.019 199.402C360.862 203.567 363.184 211.264 367.844 214.109C374.989 218.477 382.22 221.922 389.414 225.755ZM428.692 149.239C428.698 149.089 428.705 148.943 428.708 148.791C432.398 149.95 436.11 151.387 439.76 152.137C441.184 152.425 443.341 151.935 443.662 150.501C444.687 145.877 445.25 140.773 445.536 135.613C445.745 131.838 444.212 128.396 441.473 126.84C439.343 125.632 437.173 124.762 435.034 124.063C428.328 121.86 421.632 120.226 414.923 117.61C401.909 112.545 388.885 106.978 375.865 101.585C363.455 96.4446 351.041 91.2259 338.63 86.1331C335.48 84.8382 334.756 85.9513 334.877 90.7345C334.977 94.6272 335.002 98.4889 335.023 102.349C335.055 107.517 335.723 109.01 339.196 110.607C351.781 116.395 364.369 122.346 376.957 127.747C394.202 135.144 411.447 142.096 428.692 149.239ZM419.306 185.519C419.306 185.5 419.306 185.476 419.306 185.452C426.553 188.454 433.797 191.492 441.044 194.442C445.533 196.272 447.094 194.006 446.391 187.176C446.024 183.614 445.717 180.042 445.633 176.563C445.455 169.347 443.761 165.857 438.976 164.076C430.613 160.957 422.263 158.284 413.9 155.102C396.12 148.341 378.34 141.532 360.557 134.42C352.89 131.35 345.221 127.546 337.554 123.934C335.412 122.927 334.013 123.31 333.715 126.507C333.556 128.213 333.441 129.972 333.478 131.764C333.568 136.276 333.994 140.941 333.842 145.328C333.687 149.934 334.119 151.464 337.333 152.93C339.469 153.901 341.614 154.152 343.76 154.979C354.109 158.969 364.462 162.917 374.815 167.123C389.644 173.146 404.474 179.375 419.306 185.519ZM335.745 164.487C335.35 168.434 334.856 172.33 334.644 176.376C334.604 177.136 335.614 179.011 336.261 179.465C338.191 180.821 340.184 181.948 342.152 182.768C349.483 185.823 349.461 186.327 349.722 174.493C349.822 170.002 348.846 167.955 345.886 166.437C343.138 165.03 340.371 163.889 337.619 162.883C337.082 162.684 336.569 163.645 336.046 164.076C335.947 164.212 335.844 164.347 335.745 164.487ZM427.831 256.815C416.291 251.273 404.747 245.687 393.204 240.206C385.879 236.731 378.551 233.356 371.224 230.048C363.548 226.586 355.872 223.253 348.196 219.882C347.248 219.465 346.296 219.291 345.351 218.823C340.738 216.534 336.059 214.744 331.529 211.723C325.703 207.83 323.312 202.6 323.409 193.725C323.567 179.688 324.251 165.882 324.711 151.975C324.926 145.525 325.317 139.148 325.305 132.604C325.271 116.796 324.997 100.884 324.935 85.0641C324.919 80.5978 325.118 76.1821 325.538 71.944C326.172 65.5288 328.467 63.2888 333.892 65.4258C344.997 69.7957 356.111 74.9216 367.219 79.6569C374.815 82.8939 382.41 86.0734 390.005 89.1331C395.955 91.5356 401.906 93.5405 407.856 96.0388C415.88 99.4056 423.911 102.861 431.928 106.7C437.335 109.289 442.754 112.281 448.104 115.675C454.76 119.898 458.28 127.56 458.311 137.647C458.333 145.344 457.807 152.815 457.785 160.5C457.748 173.049 457.922 185.692 458.012 198.299C458.121 213.501 458.547 228.853 458.224 243.857C458.05 251.794 455.339 257.982 451.079 261.123C448.972 262.674 445.657 261.847 442.822 261.147C437.86 259.92 432.846 257.958 427.853 256.302C427.846 256.477 427.84 256.646 427.831 256.815Z" fill="#D2DAFF"/>
<path d="M335.403 149.592C337.891 150.623 340.288 151.654 342.681 152.602C357.349 158.419 372.014 164.11 386.682 170.061C402.376 176.428 418.073 183.064 433.767 189.517C436.692 190.719 439.618 191.562 442.546 192.645C444.324 193.305 445.018 192.184 444.906 189.666C444.732 185.766 444.418 181.814 444.349 177.958C444.206 169.87 442.876 167.302 437.538 165.431C431.167 163.195 424.804 161.253 418.43 158.805C397.722 150.859 377.013 142.823 356.302 134.627C350.447 132.308 344.584 129.247 338.724 126.671C335.372 125.196 334.803 125.55 334.797 130.299C334.788 136.533 335.176 142.936 335.403 149.592ZM419.307 185.52C404.474 179.376 389.645 173.143 374.812 167.123C364.462 162.918 354.11 158.97 343.76 154.98C341.615 154.153 339.47 153.902 337.334 152.931C334.119 151.465 333.684 149.934 333.843 145.324C333.992 140.941 333.569 136.277 333.476 131.764C333.442 129.968 333.554 128.213 333.715 126.508C334.014 123.307 335.41 122.927 337.555 123.935C345.221 127.547 352.891 131.351 360.558 134.417C378.341 141.533 396.121 148.338 413.901 155.104C422.26 158.279 430.614 160.958 438.974 164.076C443.762 165.858 445.453 169.347 445.633 176.564C445.717 180.038 446.025 183.615 446.392 187.177C447.091 194.006 445.534 196.269 441.044 194.443C433.798 191.494 426.554 188.455 419.307 185.453C419.307 185.477 419.307 185.496 419.307 185.52Z" fill="black"/>
<path d="M347.81 92.5043C347.807 92.2779 347.804 92.0562 347.801 91.8298C344.782 90.5794 341.76 89.3756 338.741 88.0581C337.044 87.3167 336.158 87.8646 336.232 90.6213C336.332 94.3798 336.254 98.0793 336.369 101.844C336.524 107.078 336.81 107.637 340.33 109.214C356.101 116.303 371.876 123.426 387.651 130.324C393.25 132.778 398.855 134.616 404.461 136.774C415.643 141.081 426.832 145.538 438.015 149.672C442.57 151.357 442.293 150.242 443.661 145.012C444.298 142.579 444.289 139.471 444.329 136.565C444.407 131.323 442.483 128.692 438.988 127.517C431.259 124.924 423.543 122.815 415.811 119.9C408.574 117.175 401.321 113.428 394.08 110.539C378.653 104.384 363.233 98.5 347.81 92.5043ZM428.695 149.241C411.449 142.098 394.201 135.145 376.959 127.749C364.368 122.347 351.783 116.397 339.195 110.608C335.722 109.011 335.057 107.514 335.026 102.351C335.001 98.4897 334.976 94.6231 334.877 90.7352C334.755 85.9521 335.483 84.8403 338.632 86.1304C351.043 91.228 363.454 96.4454 375.865 101.586C388.885 106.979 401.908 112.546 414.925 117.612C421.631 120.222 428.328 121.861 435.034 124.064C437.173 124.763 439.346 125.634 441.472 126.841C444.211 128.397 445.747 131.835 445.536 135.614C445.25 140.774 444.69 145.879 443.661 150.502C443.344 151.937 441.186 152.427 439.759 152.133C436.109 151.383 432.397 149.951 428.71 148.793C428.704 148.939 428.701 149.091 428.695 149.241Z" fill="black"/>
<path d="M385.377 203.048C385.377 203.336 385.377 203.618 385.38 203.907C380.891 202.047 376.401 200.289 371.912 198.29C369.223 197.095 367.044 197.701 365.144 199.515C362.952 201.611 363.046 206.253 365.663 209.465C367.557 211.787 369.857 213.784 372.005 214.789C381.656 219.303 391.321 223.795 400.968 227.485C405.081 229.059 409.216 228.956 413.245 229.044C415.537 229.093 416.681 226.592 416.429 222.876C416.189 219.342 414.787 216.591 412.496 214.995C411.153 214.056 409.776 213.198 408.414 212.619C400.735 209.376 393.056 206.229 385.377 203.048ZM389.412 225.754C382.221 221.923 374.99 218.477 367.846 214.11C363.185 211.265 360.863 203.567 363.021 199.402C364.65 196.254 367.096 194.585 370.224 195.785C383.925 201.034 397.626 206.45 411.327 211.905C414.424 213.135 417.184 217.933 417.93 222.923C418.45 226.395 416.746 230.097 414.284 231.141C410.727 232.658 406.807 231.69 402.865 230.263C398.394 228.646 393.914 226.608 389.437 224.754L389.412 225.754Z" fill="black"/>
<path d="M407.85 198.992C390.207 192.182 372.564 185.367 354.094 178.239C355.036 177.427 355.437 176.63 355.863 176.782C358.754 177.822 361.767 178.337 364.515 180.4C368.616 183.483 372.356 182.967 376.251 184.107C377.271 184.409 378.331 184.642 379.313 185.327C384.201 188.736 388.988 190.187 393.91 191.22C398.293 192.135 402.835 194.812 407.309 196.756C407.499 196.834 407.688 197.354 407.878 197.672C407.869 198.108 407.859 198.55 407.85 198.992Z" fill="black"/>
<path d="M336.046 164.073C336.571 163.649 337.081 162.687 337.619 162.881C340.373 163.887 343.14 165.029 345.885 166.439C348.845 167.957 349.821 170 349.722 174.495C349.461 186.324 349.486 185.822 342.152 182.765C340.184 181.945 338.191 180.818 336.263 179.464C335.614 179.008 334.606 177.134 334.644 176.374C334.858 172.333 335.349 168.436 335.744 164.485C335.999 165.414 336.478 166.441 336.465 167.251C336.425 169.907 336.111 172.445 336.114 175.119C336.114 175.958 336.767 177.771 337.146 177.952C340.697 179.604 344.25 181.005 347.726 182.444C347.981 180.188 348.167 178.503 348.357 176.823C348.963 171.498 348.099 169.425 344.312 167.603C341.561 166.281 338.803 165.239 336.046 164.073Z" fill="black"/>
<path d="M365.883 148.778C366.878 147.552 367.758 146.47 368.638 145.388C368.504 145.074 368.37 144.755 368.237 144.441C367.459 144.603 366.682 144.76 365.827 144.937C365.672 143.666 365.529 142.495 365.383 141.328C365.165 141.19 364.944 141.055 364.727 140.917C364.397 142.309 364.064 143.704 363.806 144.79C362.843 144.539 361.941 144.31 361.043 144.081C361.702 145.432 362.358 146.782 363.07 148.245C362.177 149.524 361.273 150.816 360.368 152.108L360.9 153.109C361.758 152.617 362.613 152.123 363.545 151.59C363.847 153.065 364.092 154.269 364.338 155.473L364.857 155.707C365.09 154.491 365.327 153.281 365.569 152.026C366.468 153.088 367.211 153.97 367.957 154.849C368.106 154.624 368.255 154.403 368.404 154.177C367.618 152.496 366.834 150.816 365.883 148.778ZM404.925 168.351C406.228 169.585 407.232 170.538 408.233 171.489C408.348 171.177 408.463 170.866 408.575 170.553C407.297 168.692 406.019 166.836 404.658 164.858C405.466 163.545 406.153 162.436 406.837 161.321C406.678 161.025 406.517 160.733 406.355 160.441C405.575 160.707 404.794 160.977 404.048 161.234C403.523 159.584 403.038 158.061 402.55 156.536C402.348 156.572 402.146 156.604 401.943 156.64C402.009 157.955 402.071 159.27 402.136 160.595C401.241 159.841 400.451 159.169 399.658 158.5C399.565 158.74 399.472 158.984 399.379 159.223C400.271 160.852 401.16 162.48 402.108 164.219C401.104 165.83 400.171 167.326 399.239 168.827C399.447 169.177 399.658 169.528 399.867 169.873C400.806 169.141 401.741 168.403 402.683 167.662C403.193 168.947 403.582 169.927 404.201 171.491C404.53 170.061 404.723 169.221 404.925 168.351ZM382.109 151.217C381.938 151.409 381.77 151.598 381.602 151.792C382.283 153.708 382.967 155.625 383.623 157.468C382.18 158.853 380.915 160.068 379.649 161.283C379.811 161.68 379.97 162.077 380.131 162.469C381.219 161.976 382.308 161.483 383.486 160.946C383.7 162.377 383.893 163.678 384.195 165.705C384.838 164.529 385.18 163.9 385.51 163.303C386.402 164.439 387.167 165.412 388.507 167.122C386.237 159.351 386.237 159.351 388.441 156.024C387.493 154.606 386.545 153.188 385.423 151.512C385.112 152.48 384.767 153.554 384.418 154.631C383.647 153.492 382.88 152.355 382.109 151.217ZM350.553 150.318C350.808 150.223 351.066 150.128 351.321 150.033C350.419 147.71 348.716 144.954 348.821 143.177C348.949 141.026 350.603 139.699 352.064 137.224C350.879 137.424 350.255 137.39 349.732 137.653C349.145 137.946 348.65 138.503 347.842 139.174V135.097C347.659 134.945 347.472 134.795 347.286 134.642C346.872 135.61 346.459 136.579 346.275 137.011C345.016 136.609 344.015 136.29 343.017 135.973C343.033 136.353 343.048 136.733 343.064 137.118C345.862 139.805 345.862 139.805 344.024 145.971C344.83 145.983 345.492 145.994 346.082 146.004C346.4 147.046 346.667 147.923 347.167 149.563C347.572 147.977 347.792 147.11 348.066 146.031C349.036 147.702 349.794 149.008 350.553 150.318ZM335.403 149.59C335.176 142.933 334.788 136.531 334.797 130.297C334.803 125.548 335.372 125.199 338.724 126.674C344.584 129.249 350.447 132.311 356.301 134.625C377.013 142.821 397.722 150.857 418.43 158.808C424.803 161.251 431.167 163.193 437.537 165.429C442.875 167.3 444.206 169.872 444.349 177.956C444.418 181.816 444.732 185.764 444.906 189.669C445.018 192.182 444.324 193.308 442.546 192.648C439.617 191.56 436.692 190.717 433.766 189.515C418.073 183.067 402.376 176.426 386.682 170.059C372.014 164.108 357.349 158.422 342.681 152.6C340.287 151.652 337.89 150.621 335.403 149.59Z" fill="white"/>
<path d="M345.846 101.527C345.234 102.552 344.684 103.474 344.273 104.161C345.389 105.563 346.247 106.641 347.233 107.878C347.466 107.151 347.743 106.293 347.939 105.689C348.874 105.995 349.621 106.233 351.004 106.681C349.816 104.872 349.235 103.984 347.724 101.682C349.017 101.336 349.994 101.075 351.11 100.775C349.428 99.2402 348.318 98.2296 347.628 97.5988C346.185 97.739 345.038 97.853 343.686 97.9875C344.509 99.3395 345.15 100.386 345.846 101.527ZM382.146 116.802C381.499 117.804 380.915 118.711 380.315 119.641C381.419 120.879 382.258 121.816 383.113 122.774C383.495 121.984 383.862 121.226 384.217 120.5C385.115 121.577 385.839 122.442 386.567 123.314C386.694 123.084 386.825 122.855 386.952 122.625C386.29 121.125 385.631 119.625 384.907 117.984C385.818 116.915 386.648 115.941 387.478 114.968C387.36 114.641 387.242 114.314 387.123 113.987C386.157 114.2 385.193 114.414 384.108 114.654C384.018 113.094 383.94 111.763 383.862 110.433C383.663 110.293 383.467 110.159 383.268 110.019C382.976 111.077 382.687 112.135 382.395 113.193C381.708 112.645 381.021 112.096 380.334 111.548C380.215 111.725 380.1 111.902 379.982 112.078C380.694 113.633 381.406 115.188 382.146 116.802ZM364.323 116.016C364.761 114.348 365.031 113.32 365.311 112.258C366.256 113.008 367.021 113.613 367.789 114.223C367.885 114.057 367.979 113.894 368.075 113.728C367.469 112.433 366.863 111.137 366.207 109.74C366.937 108.663 367.587 107.706 368.237 106.748C368.143 106.485 368.047 106.224 367.954 105.965C367.164 105.998 366.375 106.035 365.582 106.07C365.479 104.667 365.383 103.358 365.286 102.053C365.044 101.919 364.801 101.785 364.562 101.653C364.276 103.082 363.993 104.507 363.751 105.724C362.569 104.899 361.559 104.198 360.548 103.492C360.514 103.856 360.48 104.221 360.449 104.586C361.425 105.953 362.404 107.322 363.499 108.853C362.411 110.189 361.459 111.362 360.508 112.534C360.642 112.824 360.775 113.114 360.909 113.404C361.643 113.282 362.38 113.165 363.116 113.044C363.437 113.833 363.757 114.622 364.323 116.016ZM347.808 92.5046C363.231 98.5004 378.655 104.386 394.078 110.54C401.322 113.425 408.572 117.171 415.809 119.9C423.541 122.816 431.258 124.92 438.986 127.517C442.484 128.693 444.405 131.324 444.331 136.562C444.287 139.471 444.296 142.579 443.659 145.012C442.291 150.242 442.568 151.358 438.013 149.672C426.831 145.539 415.645 141.078 404.459 136.775C398.857 134.617 393.251 132.774 387.652 130.326C371.874 123.422 356.103 116.3 340.328 109.215C336.809 107.637 336.526 107.079 336.367 101.845C336.255 98.081 336.33 94.3801 336.23 90.6216C336.156 87.8649 337.042 87.317 338.742 88.0597C341.761 89.3772 344.78 90.5797 347.799 91.8301C347.802 92.0518 347.805 92.2782 347.808 92.5046Z" fill="white"/>
<path d="M385.376 203.048C393.055 206.229 400.734 209.376 408.414 212.619C409.775 213.197 411.152 214.055 412.496 214.995C414.787 216.59 416.189 219.341 416.428 222.875C416.68 226.591 415.536 229.092 413.245 229.044C409.216 228.956 405.081 229.059 400.968 227.484C391.321 223.795 381.655 219.303 372.005 214.788C369.857 213.783 367.556 211.786 365.663 209.464C363.045 206.253 362.952 201.611 365.144 199.515C367.043 197.701 369.222 197.094 371.912 198.29C376.401 200.288 380.89 202.047 385.38 203.907C385.376 203.618 385.376 203.335 385.376 203.048Z" fill="#FFEAD1"/>
<path d="M339.385 171.781C339.22 172.067 339.059 172.355 338.894 172.636C339.525 173.535 340.113 174.779 340.803 175.262C342.429 176.4 346.225 174.341 347.254 171.73C344.35 170.939 342.566 175.728 339.385 171.781ZM336.046 164.075C338.801 165.24 341.561 166.283 344.313 167.604C348.099 169.422 348.964 171.5 348.358 176.82C348.168 178.504 347.981 180.19 347.726 182.441C344.251 181.001 340.697 179.606 337.147 177.948C336.764 177.771 336.115 175.959 336.115 175.121C336.111 172.447 336.425 169.908 336.463 167.246C336.475 166.442 336 165.416 335.745 164.486C335.844 164.35 335.947 164.211 336.046 164.075Z" fill="white"/>
<path d="M350.553 150.317C349.795 149.011 349.036 147.701 348.066 146.03C347.792 147.109 347.572 147.976 347.167 149.562C346.667 147.922 346.4 147.045 346.082 146.003C345.495 145.995 344.83 145.982 344.024 145.97C345.862 139.804 345.862 139.804 343.064 137.117C343.048 136.737 343.033 136.352 343.017 135.972C344.015 136.289 345.016 136.608 346.275 137.015C346.459 136.578 346.872 135.609 347.286 134.641C347.472 134.794 347.659 134.948 347.842 135.096V139.173C348.65 138.502 349.145 137.945 349.735 137.653C350.255 137.389 350.88 137.423 352.064 137.228C350.603 139.703 348.949 141.025 348.821 143.181C348.716 144.953 350.419 147.709 351.321 150.032C351.066 150.127 350.808 150.222 350.553 150.317Z" fill="black"/>
<path d="M382.108 151.217C382.879 152.355 383.65 153.494 384.421 154.628C384.769 153.555 385.114 152.481 385.425 151.513C386.544 153.189 387.492 154.607 388.44 156.02C386.236 159.351 386.236 159.351 388.506 167.122C387.166 165.413 386.404 164.441 385.509 163.303C385.182 163.901 384.837 164.529 384.197 165.706C383.895 163.679 383.699 162.377 383.488 160.948C382.307 161.484 381.218 161.977 380.133 162.471C379.972 162.073 379.81 161.676 379.648 161.283C380.914 160.068 382.179 158.854 383.625 157.469C382.966 155.62 382.285 153.709 381.601 151.793C381.772 151.6 381.94 151.411 382.108 151.217Z" fill="black"/>
<path d="M404.924 168.35C404.722 169.224 404.529 170.064 404.203 171.49C403.584 169.931 403.192 168.945 402.686 167.667C401.744 168.407 400.805 169.139 399.869 169.877C399.657 169.526 399.449 169.176 399.238 168.825C400.17 167.329 401.106 165.829 402.11 164.219C401.162 162.485 400.27 160.855 399.378 159.221C399.471 158.982 399.564 158.743 399.657 158.504C400.45 159.172 401.243 159.841 402.135 160.598C402.073 159.269 402.008 157.958 401.946 156.644C402.148 156.608 402.35 156.572 402.552 156.536C403.037 158.059 403.522 159.582 404.047 161.232C404.793 160.976 405.574 160.71 406.354 160.439C406.516 160.731 406.677 161.028 406.839 161.32C406.152 162.434 405.465 163.549 404.657 164.857C406.018 166.834 407.296 168.695 408.577 170.553C408.462 170.864 408.347 171.181 408.235 171.494C407.231 170.541 406.23 169.59 404.924 168.35Z" fill="black"/>
<path d="M365.883 148.779C366.835 150.816 367.618 152.496 368.405 154.178C368.255 154.403 368.106 154.624 367.957 154.85C367.211 153.971 366.468 153.088 365.569 152.026C365.327 153.281 365.091 154.491 364.857 155.707L364.338 155.473C364.093 154.269 363.847 153.066 363.545 151.59C362.613 152.123 361.758 152.617 360.9 153.11L360.368 152.109C361.273 150.816 362.178 149.524 363.07 148.246C362.358 146.782 361.702 145.432 361.043 144.082C361.941 144.31 362.843 144.54 363.807 144.79C364.065 143.704 364.397 142.309 364.727 140.918C364.944 141.056 365.165 141.19 365.383 141.328C365.529 142.495 365.672 143.666 365.827 144.938C366.682 144.76 367.46 144.603 368.237 144.441C368.371 144.755 368.504 145.074 368.638 145.388C367.758 146.47 366.878 147.553 365.883 148.779Z" fill="black"/>
<path d="M364.324 116.016C363.758 114.622 363.438 113.833 363.117 113.044C362.377 113.164 361.644 113.282 360.907 113.403C360.776 113.114 360.643 112.824 360.509 112.534C361.46 111.361 362.412 110.189 363.497 108.851C362.402 107.32 361.426 105.953 360.447 104.585C360.481 104.22 360.515 103.856 360.546 103.49C361.56 104.198 362.57 104.899 363.748 105.722C363.991 104.505 364.277 103.081 364.56 101.656C364.802 101.785 365.045 101.919 365.287 102.053C365.384 103.358 365.477 104.666 365.58 106.069C366.375 106.034 367.165 105.997 367.955 105.965C368.048 106.224 368.141 106.483 368.238 106.748C367.585 107.704 366.935 108.661 366.208 109.74C366.864 111.137 367.47 112.433 368.076 113.728C367.98 113.894 367.883 114.055 367.79 114.223C367.022 113.612 366.257 113.008 365.312 112.257C365.032 113.32 364.762 114.348 364.324 116.016Z" fill="black"/>
<path d="M382.146 116.801C381.406 115.186 380.694 113.632 379.982 112.077C380.1 111.901 380.218 111.724 380.336 111.548C381.023 112.096 381.71 112.644 382.398 113.192C382.687 112.134 382.979 111.076 383.268 110.018C383.467 110.158 383.666 110.293 383.862 110.431C383.94 111.762 384.017 113.092 384.111 114.654C385.192 114.417 386.159 114.2 387.123 113.986C387.241 114.312 387.359 114.639 387.478 114.966C386.647 115.94 385.817 116.918 384.906 117.987C385.631 119.624 386.293 121.124 386.952 122.624C386.825 122.854 386.697 123.083 386.567 123.312C385.842 122.447 385.115 121.575 384.216 120.499C383.865 121.23 383.498 121.984 383.116 122.774C382.261 121.816 381.421 120.879 380.318 119.641C380.918 118.711 381.499 117.802 382.146 116.801Z" fill="black"/>
<path d="M345.846 101.527C345.15 100.385 344.509 99.3393 343.686 97.9873C345.038 97.8529 346.185 97.7388 347.628 97.5986C348.318 98.2294 349.428 99.24 351.11 100.775C349.994 101.074 349.017 101.336 347.724 101.682C349.235 103.984 349.816 104.872 351.004 106.681C349.62 106.232 348.874 105.995 347.939 105.689C347.743 106.293 347.466 107.151 347.233 107.878C346.247 106.641 345.389 105.562 344.273 104.161C344.684 103.474 345.234 102.552 345.846 101.527Z" fill="black"/>
<path d="M339.386 171.781C342.566 175.728 344.351 170.939 347.254 171.73C346.225 174.341 342.429 176.4 340.803 175.262C340.113 174.779 339.526 173.535 338.895 172.636C339.059 172.355 339.221 172.067 339.386 171.781Z" fill="black"/>
<path d="M478.42 315.709C381.077 271.462 184.544 285.29 105.729 297.734V517.227H226.766C226.766 517.227 715.933 547.719 718.707 517.227L718.753 516.724C721.492 486.618 722.446 476.139 678.914 500.993C569.886 563.239 600.099 371.018 478.42 315.709Z" fill="#67B7C5" stroke="black"/>
<path d="M517.781 149.771L517.815 149.423L518.143 149.793L518.153 149.787L518.837 149.336L518.455 149.13C518.542 148.903 518.627 148.678 518.712 148.454C519.04 147.582 519.359 146.737 519.746 145.939C520.59 144.216 521.814 143.333 523.3 143.075C524.793 142.816 526.579 143.183 528.561 144.025L528.561 144.025C530.415 144.812 532.065 145.927 533.442 147.385C534.816 148.839 535.946 150.662 536.741 152.906C536.975 153.573 537.135 154.254 537.287 155.009C537.337 155.26 537.387 155.523 537.44 155.796C537.541 156.326 537.65 156.894 537.781 157.485L537.94 158.2L538.464 158.077C539.728 157.78 540.971 157.712 542.151 158.081C543.308 158.443 544.425 159.228 545.48 160.707C547.037 162.893 548.525 165.212 548.96 167.964C535.565 163.098 522.446 158.332 509.251 153.533C508.878 150.656 509.782 148.933 511.323 147.745L511.324 147.745C512.16 147.097 513.114 147.24 514.189 147.726C514.738 147.973 515.312 148.307 515.918 148.673C516.031 148.742 516.146 148.812 516.262 148.882C516.756 149.183 517.271 149.496 517.781 149.771Z" fill="#EEEFFC" stroke="black"/>
<path d="M451.996 49.888L451.996 49.888L451.998 49.8879C454.176 49.7984 456.257 51.6373 458.228 54.4272C458.433 54.7187 458.613 55.1434 458.813 55.7242C458.874 55.9024 458.939 56.0989 459.007 56.3052C459.142 56.7179 459.29 57.1699 459.453 57.594L459.7 58.234L460.139 58.0648C460.878 57.7803 461.532 57.849 462.094 58.1905C462.651 58.5289 463.236 59.207 463.796 60.4068L463.796 60.4081C464.354 61.5985 464.715 62.8092 464.221 63.7995C461.202 63.1489 458.156 61.8998 455.068 60.5594C454.647 60.3767 454.225 60.1923 453.802 60.0075C451.226 58.881 448.618 57.7408 446.015 56.911C446.01 56.4451 446.023 56.0766 446.06 55.7839C446.11 55.3896 446.2 55.1682 446.325 55.0353C446.447 54.9045 446.633 54.8265 446.953 54.8133C447.28 54.7999 447.717 54.8549 448.317 54.9643L448.215 54.433L448.674 54.6295C448.672 52.9317 449.019 51.7704 449.597 51.0239C450.174 50.2784 450.998 49.9231 451.996 49.888Z" fill="#EEEFFC" stroke="black"/>
<path d="M391.933 33.3432C391.653 32.8432 391.333 32.3532 391.123 31.8232C390.783 30.9732 390.563 30.0732 390.223 29.2232C389.523 27.4632 388.453 26.2032 386.303 26.4432C385.973 26.4832 385.623 26.2832 384.963 26.1132C385.443 25.5832 385.703 25.0632 386.103 24.9132C388.983 23.8332 390.833 22.0832 390.533 18.7432C390.523 18.5832 390.663 18.4032 390.743 18.2532C390.783 18.1832 390.873 18.1332 391.233 17.8032C391.593 18.3732 392.123 18.8732 392.243 19.4532C392.823 22.1332 394.583 23.4832 397.103 24.1432C397.953 24.3632 398.753 24.7532 399.593 25.6032C398.693 25.8432 397.803 26.1032 396.903 26.3332C393.743 27.1532 392.943 28.0932 392.723 31.2632C392.673 31.9332 392.543 32.5932 392.443 33.2632C392.273 33.2932 392.113 33.3132 391.943 33.3432H391.933ZM391.473 28.3732C393.003 27.1732 394.423 26.0432 395.653 25.0832C394.283 24.0432 392.863 22.9732 391.493 21.9232C390.543 23.0032 389.543 24.1132 388.673 25.1032C389.703 26.2932 390.633 27.3832 391.483 28.3732H391.473Z" fill="black"/>
<path d="M488.143 108.463C485.696 110.357 484.12 112.833 483.413 115.893C481.783 114.973 482.243 113.063 481.353 111.893C480.443 110.693 479.513 109.563 477.543 109.233C478.603 108.273 480.013 107.493 480.623 106.303C481.223 105.133 481.013 103.553 481.393 102.033C483.143 104.633 484.703 107.323 488.143 108.463V108.463ZM480.233 108.833C481.233 109.953 482.073 110.903 482.933 111.853C483.823 110.823 484.693 109.823 485.683 108.683C484.583 107.803 483.523 106.973 482.393 106.063C481.653 107.023 480.993 107.863 480.233 108.833V108.833Z" fill="black"/>
<path d="M501.443 217.263C502.553 217.213 503.813 218.413 503.783 219.493C503.763 220.333 502.463 221.433 501.443 221.483C500.363 221.533 499.393 220.543 499.393 219.383C499.393 218.203 500.243 217.323 501.443 217.273V217.263ZM501.223 220.833C501.793 220.333 502.433 220.033 502.493 219.653C502.553 219.273 502.013 218.813 501.743 218.393C501.353 218.693 500.733 218.933 500.633 219.313C500.533 219.673 500.953 220.193 501.233 220.843L501.223 220.833Z" fill="black"/>
<path d="M426.993 42.3431C426.963 44.0131 426.043 44.8331 424.783 44.7831C423.543 44.7431 422.893 44.0532 422.983 42.8632C423.063 41.7532 424.163 40.7332 425.273 41.0432C426.003 41.2432 426.573 42.0131 426.983 42.3431H426.993ZM424.883 41.7932C424.533 42.3332 424.143 42.7331 424.213 42.8531C424.403 43.1731 424.783 43.4031 425.133 43.5731C425.203 43.6131 425.653 43.1931 425.613 43.0831C425.493 42.7131 425.233 42.3832 424.873 41.7932H424.883Z" fill="black"/>
<path d="M337.763 26.613C337.703 27.873 336.643 28.893 335.443 28.833C334.253 28.773 333.493 27.983 333.603 26.913C333.713 25.763 334.723 24.783 335.743 24.823C336.943 24.873 337.813 25.643 337.773 26.613H337.763ZM335.603 25.643C335.193 26.213 334.803 26.573 334.703 27.003C334.663 27.183 335.403 27.773 335.523 27.713C335.923 27.483 336.293 27.083 336.483 26.663C336.543 26.523 336.023 26.123 335.603 25.643Z" fill="black"/>
<path d="M391.473 28.3731C390.623 27.3831 389.683 26.2931 388.663 25.1031C389.543 24.1131 390.533 23.0031 391.483 21.9231C392.863 22.9631 394.273 24.0431 395.643 25.0831C394.423 26.0431 392.993 27.1731 391.463 28.3731H391.473Z" fill="#F0C3BA"/>
<path d="M480.243 108.833C480.993 107.863 481.653 107.023 482.403 106.063C483.543 106.963 484.593 107.803 485.693 108.683C484.703 109.823 483.833 110.833 482.943 111.853C482.093 110.903 481.243 109.953 480.243 108.833V108.833Z" fill="#EEEFFC"/>
<path d="M290.553 84.1831C287.573 81.6765 285.313 80.2731 283.773 79.9731C284.783 78.9431 285.873 78.1431 286.543 77.0731C287.203 76.0231 287.433 74.7031 287.963 73.2031C289.633 75.5231 291.013 77.8431 294.013 78.5531C291.393 79.5831 290.993 81.8631 290.563 84.1731L290.553 84.1831ZM291.193 78.8031C290.983 79.0131 290.773 79.2131 290.563 79.4231C289.813 78.3231 289.053 77.2331 288.263 76.0831C287.683 77.1531 287.163 78.1031 286.623 79.0931C287.693 79.8931 288.693 80.6331 289.693 81.3831C290.193 80.5231 290.683 79.6631 291.183 78.8031H291.193Z" fill="black"/>
<path d="M291.193 78.8031C290.693 79.6631 290.193 80.5231 289.703 81.3831C288.693 80.6331 287.693 79.8831 286.633 79.0931C287.173 78.1031 287.693 77.1531 288.273 76.0831C289.063 77.2331 289.813 78.3231 290.573 79.4231C290.783 79.2131 290.993 79.0131 291.203 78.8031H291.193Z" fill="white"/>
<path d="M501.223 220.843C500.943 220.193 500.523 219.683 500.623 219.313C500.733 218.933 501.343 218.693 501.733 218.393C502.013 218.813 502.543 219.283 502.483 219.653C502.423 220.033 501.793 220.333 501.213 220.833L501.223 220.843Z" fill="white"/>
<path d="M424.883 41.7932C425.233 42.3832 425.493 42.7032 425.623 43.0832C425.663 43.1932 425.213 43.6132 425.143 43.5732C424.793 43.4032 424.423 43.1632 424.223 42.8532C424.153 42.7332 424.543 42.3332 424.893 41.7932H424.883Z" fill="white"/>
<path d="M335.603 25.6332C336.023 26.1032 336.543 26.5032 336.483 26.6532C336.303 27.0732 335.923 27.4732 335.523 27.7032C335.403 27.7732 334.663 27.1732 334.703 26.9932C334.803 26.5732 335.193 26.2132 335.603 25.6332Z" fill="white"/>
<path d="M258.798 301.522C260.386 303.829 260.927 304.467 262.654 304.867C265.365 305.495 268.038 306.405 270.903 306.221C272.136 306.142 273.385 306.364 274.627 306.368C276.88 306.375 279.173 306.711 281.575 305.707C281.461 304.808 281.349 303.94 281.222 302.95C273.59 302.464 266.203 301.994 258.798 301.522ZM311.984 301.326C310.194 301.524 308.481 301.792 306.759 301.89C301.18 302.203 295.599 302.471 290.017 302.717C288.468 302.784 286.913 302.698 285.361 302.705C284.507 302.709 283.672 302.812 283.371 303.812C283.071 304.81 283.525 305.866 284.667 306.275C286.016 306.759 287.435 307.256 288.845 307.329C295.158 307.652 301.458 307.635 307.683 306.213C311.088 305.434 311.314 305.294 311.984 301.326ZM270.235 129.835C270.162 130.35 270.019 130.746 270.065 131.119C270.43 134.022 271.567 136.468 274.102 138.164C274.985 138.755 276.119 139.201 276.57 140.572C274.101 141.302 271.809 140.453 269.124 140.422C269.771 141.399 270.114 142.155 270.664 142.705C272.012 144.052 273.647 144.934 275.554 145.241C278.032 145.641 279.884 146.994 281.564 148.818C282.945 150.319 283.724 152.082 284.562 153.862C284.831 154.429 285.333 154.886 286.012 155.758C286.314 154.693 286.542 154.132 286.628 153.551C287.338 148.651 286.447 143.974 284.001 139.747C282.252 136.724 280.255 133.72 276.732 132.34C274.623 131.512 272.503 130.709 270.235 129.835ZM367.836 219.996C369.044 224.944 370.235 229.846 371.447 234.743C371.565 235.22 371.811 235.665 371.989 236.101C377.702 234.953 380.543 231.89 380.958 226.44C381.068 225 381.111 223.524 380.917 222.101C380.726 220.692 380.196 219.33 379.797 217.886C380.113 217.457 380.454 217.067 380.711 216.628C380.993 216.146 381.199 215.619 381.589 214.788C380.428 214.788 379.58 214.597 378.859 214.821C374.998 216.016 371.29 217.567 367.836 219.996ZM259.556 305.582C259.033 309.088 259.884 312.239 262.521 314.364C265.609 316.853 269.187 318.603 273.409 318.296C275.791 318.123 278.184 318.093 280.564 317.898C281.324 317.835 282.057 317.447 282.609 317.271C282.44 314.055 282.291 311.191 282.143 308.342C278.217 308.172 274.488 308.238 270.821 307.791C267.137 307.341 263.516 306.382 259.556 305.582ZM312.004 306.574C302.892 309.308 293.776 309.563 284.458 308.219C284.033 310.775 284.207 313.047 284.506 315.285C284.603 316.019 285.163 316.927 285.784 317.313C287.352 318.283 288.994 319.36 290.751 319.761C299.008 321.643 306.852 320.186 314.177 316.091C318.053 313.924 321.289 311.073 322.078 306.08C319.498 304.33 316.823 302.982 313.462 303.953C312.937 304.897 312.441 305.79 312.004 306.574ZM333.913 179.575C330.658 182.683 326.799 184.513 323.135 186.624C323.135 187.168 323.064 187.59 323.146 187.981C324.383 193.918 324.683 199.935 324.695 205.974C324.704 210.549 324.658 215.127 324.663 219.702C324.665 220.489 324.804 221.275 324.895 222.228C330.31 220.867 335.159 218.899 339.519 216.07C341.824 204.896 338.791 187.081 333.913 179.575ZM255.294 157.63C254.634 159.567 255.178 160.877 256.373 161.88C257.399 162.74 258.478 163.657 259.695 164.144C262.289 165.179 264.941 166.146 267.653 166.793C275.523 168.671 283.535 168.673 291.53 167.967C296.914 167.492 302.269 166.582 307.254 164.337C309.03 163.537 310.787 162.513 312.254 161.245C314.948 158.919 314.637 157.014 311.526 155.26C305.172 151.679 298.313 149.783 291.074 149.187C290.487 149.14 289.883 149.311 289.21 149.391C288.359 152.032 289.205 155.194 286.661 157.118C284.893 157.014 283.932 156.166 283.313 154.644C282.732 153.214 281.943 151.858 281.146 150.529C280.571 149.569 279.665 149.198 278.487 149.307C270.033 150.09 262.305 152.844 255.294 157.63ZM365.551 219.281C364.511 219.755 363.928 219.965 363.398 220.268C357.681 223.551 351.48 225.621 345.248 227.646C340.708 229.121 336.198 230.705 331.733 232.396C327.364 234.052 323.067 235.897 318.744 237.675C315.283 239.099 311.828 240.545 308.805 242.81C308.062 243.365 307.212 243.913 306.743 244.67C305.094 247.331 303.738 250.133 303.462 253.333C303.122 257.277 304.604 259.789 308.325 260.997C309.976 261.533 311.772 261.769 313.517 261.849C319.727 262.139 325.708 260.75 331.593 258.986C344.296 255.178 356.236 249.606 367.741 243.064C368.54 242.609 369.271 242.036 370.217 241.395C370.108 233.795 368.104 226.672 365.551 219.281ZM235.483 181.592C236.532 181.947 237.276 182.29 238.055 182.448C245.988 184.056 253.904 185.762 261.87 187.179C269.027 188.453 276.247 189.286 283.545 189.335C289.893 189.378 296.202 189.015 302.49 188.148C309.383 187.198 316.253 186.096 322.98 184.299C327.122 183.192 330.387 180.746 332.969 177.043C328.751 169.273 323.186 162.887 315.84 158.029C313.129 162.997 311.511 164.373 305.915 166.416C304.552 166.914 303.164 167.369 301.756 167.719C290.171 170.594 278.526 170.723 266.859 168.298C263.807 167.664 260.833 166.693 258.101 165.126C256.373 164.134 254.786 162.981 253.84 161.137C253.577 160.623 253.23 160.151 252.781 159.434C244.967 165.349 239.358 172.606 235.483 181.592ZM322.873 222.931C324.128 216.431 322.84 192.008 321.009 187.086C320.53 187.086 320.013 187.031 319.51 187.094C310.646 188.185 301.8 189.459 292.914 190.323C288.284 190.773 283.574 190.726 278.919 190.498C274.364 190.273 269.839 189.491 265.294 189.026C256.503 188.126 247.851 186.452 239.242 184.516C237.843 184.201 236.465 183.79 234.831 183.357C230.41 193.997 229.771 204.906 230.91 215.991C237.058 219.801 243.584 221.826 250.193 223.683C257.643 225.776 265.394 225.905 272.944 227.318C273.248 227.374 273.567 227.354 273.878 227.36C278.451 227.437 283.023 227.577 287.595 227.568C291.127 227.561 294.673 227.538 298.186 227.216C302.525 226.819 306.836 226.112 311.156 225.523C315.167 224.977 319.102 224.103 322.873 222.931ZM339.354 227.314C339.774 222.981 339.656 219.837 338.958 218.323C338.041 218.784 337.138 219.265 336.213 219.699C334.71 220.405 333.229 221.178 331.675 221.752C324.739 224.315 317.662 226.348 310.282 227.168C306.979 227.535 303.685 227.976 300.378 228.283C297.59 228.542 294.789 228.686 291.992 228.82C291.067 228.864 290.134 228.666 289.204 228.671C285.058 228.697 280.905 228.908 276.765 228.758C273.143 228.627 269.538 228.057 265.918 227.762C254.316 226.812 243.151 224.262 232.761 218.816C232.416 218.635 232.017 218.554 231.483 218.374C231.363 218.91 231.219 219.283 231.208 219.66C231.03 225.268 230.842 230.877 230.722 236.486C230.678 238.563 230.785 240.643 230.863 242.721C230.947 244.899 231.148 247.076 231.178 249.256C231.246 254.35 231.272 259.445 231.259 264.541C231.242 271.046 232.82 277.111 236.286 282.619C241.929 291.587 250.031 297.217 260.25 299.784C262.236 300.283 264.345 300.366 266.405 300.482C270.036 300.685 273.674 300.778 277.309 300.893C281.241 301.02 285.149 301.481 289.113 301.159C294.081 300.756 299.077 300.602 304.062 300.548C306.375 300.523 308.634 300.36 310.835 299.716C325.593 295.388 335.484 286.258 338.648 270.838C339.435 267.005 339.373 262.998 339.678 259.07C339.689 258.92 339.46 258.752 339.25 258.468C338.321 258.765 337.341 259.074 336.362 259.388C330.117 261.389 323.808 263.096 317.221 263.526C313.974 263.737 310.762 263.525 307.678 262.468C303.206 260.934 301.052 257.343 302.082 252.698C302.635 250.194 303.845 247.84 304.691 245.396C305.335 243.536 306.582 242.227 308.144 241.115C311.137 238.984 314.48 237.556 317.854 236.195C324.789 233.399 331.738 230.638 338.676 227.853C338.861 227.779 339 227.601 339.354 227.314ZM276.507 147.644C275.515 147.274 274.564 146.948 273.636 146.568C271.251 145.59 269.373 144.015 268.156 141.721C267.435 140.363 267.417 139.8 267.874 137.736C269.513 138.186 270.785 139.872 272.96 139.238C272.535 138.754 272.207 138.326 271.827 137.952C269.787 135.947 269.016 133.383 268.654 130.662C268.514 129.62 268.659 128.586 269.603 127.627C270.088 127.837 270.629 128.054 271.156 128.299C272.096 128.737 272.987 129.341 273.972 129.615C281.843 131.803 285.701 137.693 288.181 144.88C288.45 145.657 288.644 146.46 288.908 147.373C291.597 147.786 294.257 148.124 296.891 148.611C305.335 150.173 312.949 153.642 319.555 159.106C332.283 169.638 339.919 183.036 341.867 199.56C342.569 205.518 342.295 211.386 340.662 217.177C340.467 217.868 340.3 218.626 340.377 219.325C340.647 221.772 341.03 224.207 341.397 226.836C349.975 224.599 357.967 221.478 365.62 217.469C366.255 217.808 366.789 218.092 367.356 218.395C367.625 218.301 367.928 218.227 368.2 218.094C371.09 216.681 373.93 215.159 376.878 213.885C378.071 213.37 379.506 213.153 380.81 213.219C382.834 213.323 383.516 214.667 382.674 216.473C382.414 217.031 382.017 217.526 381.603 218.173C381.828 218.894 382.078 219.674 382.311 220.457C383.366 224.009 382.876 227.451 381.537 230.821C380.646 233.063 378.915 234.534 376.885 235.684C375.263 236.602 373.6 237.451 371.816 238.406C371.753 239.761 371.693 241.09 371.618 242.699C368.014 244.704 364.372 246.915 360.568 248.799C355.076 251.52 349.51 254.105 343.884 256.535C341.968 257.363 341.055 258.428 341.154 260.474C341.209 261.614 341.113 262.761 341.108 263.905C341.081 269.501 339.823 274.755 337.343 279.818C335.544 283.491 333.474 286.933 330.767 289.957C326.743 294.448 321.828 297.693 316.203 299.871C315.672 300.075 315.212 300.488 314.763 300.857C314.663 300.94 314.748 301.248 314.748 301.609C318 302.194 321.192 303.035 323.744 305.756C323.28 308.596 322.618 311.421 320.437 313.54C318.425 315.495 316.167 317.133 313.593 318.374C306.097 321.987 298.282 322.865 290.195 321.215C287.989 320.763 285.894 319.761 283.319 318.861C280.231 319.535 276.621 319.787 272.982 319.848C268.322 319.927 264.406 317.964 261.109 315.044C258.461 312.698 257.252 309.416 257.959 305.716C258.056 305.214 258.229 304.726 258.377 304.193C257.064 301.857 255.363 300.262 252.808 299.102C239.062 292.868 231.496 281.937 229.681 267.083C229.232 263.403 229.821 259.607 229.774 255.866C229.674 247.863 229.395 239.861 229.34 231.858C229.311 227.599 229.614 223.338 229.725 219.077C229.753 218.048 229.736 216.988 229.534 215.984C227.185 204.276 228.641 192.993 233.455 182.147C237.752 172.465 244.036 164.278 252.587 157.941C258.855 153.296 265.809 150.128 273.485 148.61C274.401 148.429 275.316 148.244 276.229 148.05C276.286 148.037 276.32 147.923 276.507 147.644Z" fill="black"/>
<path d="M339.354 227.314C339 227.601 338.86 227.78 338.676 227.853C331.737 230.637 324.788 233.399 317.854 236.195C314.48 237.556 311.137 238.983 308.144 241.115C306.581 242.227 305.335 243.535 304.691 245.396C303.844 247.84 302.635 250.194 302.082 252.698C301.053 257.343 303.206 260.934 307.678 262.468C310.762 263.525 313.975 263.737 317.221 263.526C323.807 263.096 330.117 261.389 336.363 259.387C337.341 259.074 338.321 258.765 339.25 258.468C339.459 258.752 339.689 258.92 339.678 259.07C339.373 262.998 339.434 267.005 338.648 270.837C335.485 286.258 325.593 295.388 310.834 299.716C308.634 300.361 306.375 300.523 304.062 300.548C299.076 300.602 294.081 300.756 289.113 301.159C285.149 301.481 281.241 301.02 277.309 300.895C273.674 300.777 270.036 300.685 266.405 300.482C264.345 300.366 262.236 300.283 260.251 299.784C250.032 297.218 241.93 291.587 236.287 282.619C232.821 277.111 231.241 271.045 231.259 264.541C231.272 259.445 231.246 254.35 231.178 249.256C231.148 247.077 230.947 244.899 230.864 242.721C230.785 240.643 230.678 238.563 230.722 236.487C230.841 230.877 231.03 225.268 231.207 219.66C231.22 219.283 231.364 218.91 231.482 218.374C232.017 218.554 232.416 218.635 232.761 218.816C243.151 224.262 254.315 226.812 265.918 227.762C269.538 228.057 273.143 228.627 276.765 228.759C280.905 228.909 285.058 228.697 289.204 228.671C290.134 228.665 291.067 228.864 291.992 228.82C294.789 228.686 297.59 228.542 300.378 228.282C303.685 227.976 306.979 227.535 310.282 227.169C317.663 226.348 324.738 224.315 331.675 221.752C333.229 221.178 334.71 220.405 336.213 219.699C337.137 219.265 338.041 218.784 338.958 218.323C339.656 219.836 339.774 222.981 339.354 227.314Z" fill="white"/>
<path d="M322.873 222.932C319.102 224.104 315.168 224.978 311.157 225.524C306.836 226.111 302.525 226.818 298.185 227.216C294.673 227.539 291.127 227.561 287.596 227.568C283.023 227.576 278.451 227.438 273.878 227.36C273.567 227.355 273.249 227.374 272.945 227.317C265.394 225.905 257.643 225.777 250.193 223.683C243.584 221.825 237.057 219.802 230.911 215.991C229.772 204.906 230.411 193.998 234.831 183.357C236.465 183.789 237.843 184.201 239.242 184.515C247.85 186.451 256.503 188.126 265.294 189.025C269.839 189.491 274.364 190.273 278.919 190.497C283.573 190.727 288.283 190.772 292.914 190.323C301.8 189.46 310.646 188.184 319.51 187.093C320.012 187.032 320.529 187.085 321.009 187.085C322.84 192.009 324.128 216.432 322.873 222.932Z" fill="white"/>
<path d="M235.483 181.592C239.358 172.605 244.966 165.348 252.78 159.434C253.23 160.15 253.576 160.623 253.84 161.137C254.786 162.982 256.373 164.133 258.101 165.126C260.832 166.694 263.806 167.664 266.858 168.298C278.525 170.724 290.17 170.593 301.755 167.719C303.164 167.37 304.551 166.914 305.915 166.416C311.511 164.373 313.129 162.996 315.84 158.028C323.185 162.887 328.749 169.274 332.967 177.043C330.387 180.745 327.121 183.192 322.979 184.298C316.251 186.095 309.383 187.199 302.488 188.149C296.201 189.015 289.892 189.378 283.544 189.334C276.247 189.286 269.027 188.454 261.87 187.179C253.903 185.761 245.988 184.056 238.055 182.449C237.274 182.291 236.532 181.948 235.483 181.592Z" fill="white"/>
<path d="M365.55 219.281C368.103 226.672 370.107 233.795 370.216 241.394C369.27 242.036 368.54 242.609 367.741 243.064C356.236 249.606 344.295 255.178 331.592 258.986C325.707 260.75 319.726 262.139 313.516 261.849C311.773 261.769 309.977 261.533 308.325 260.997C304.603 259.789 303.121 257.277 303.461 253.333C303.737 250.133 305.093 247.331 306.743 244.67C307.212 243.913 308.063 243.365 308.804 242.81C311.828 240.545 315.282 239.099 318.743 237.675C323.066 235.897 327.364 234.052 331.733 232.396C336.197 230.705 340.707 229.121 345.247 227.646C351.479 225.621 357.681 223.551 363.399 220.268C363.927 219.965 364.51 219.755 365.55 219.281Z" fill="white"/>
<path d="M255.293 157.63C262.304 152.844 270.033 150.09 278.487 149.308C279.664 149.199 280.571 149.569 281.146 150.53C281.942 151.858 282.732 153.214 283.313 154.644C283.932 156.166 284.894 157.014 286.66 157.119C289.205 155.195 288.358 152.032 289.21 149.391C289.882 149.312 290.487 149.139 291.073 149.187C298.312 149.783 305.173 151.68 311.526 155.261C314.636 157.014 314.948 158.92 312.253 161.246C310.786 162.513 309.03 163.537 307.254 164.337C302.27 166.583 296.913 167.492 291.529 167.967C283.534 168.673 275.522 168.671 267.653 166.793C264.941 166.146 262.289 165.179 259.695 164.144C258.477 163.658 257.398 162.74 256.373 161.879C255.177 160.877 254.634 159.567 255.293 157.63Z" fill="white"/>
<path d="M333.913 179.576C338.791 187.081 341.824 204.897 339.519 216.069C335.159 218.899 330.309 220.867 324.895 222.227C324.804 221.276 324.664 220.488 324.663 219.702C324.658 215.126 324.704 210.55 324.695 205.974C324.683 199.934 324.383 193.918 323.146 187.982C323.064 187.591 323.135 187.168 323.135 186.625C326.799 184.513 330.658 182.682 333.913 179.576Z" fill="#CAE4E4"/>
<path d="M312.004 306.575C312.441 305.79 312.937 304.897 313.462 303.953C316.823 302.983 319.498 304.33 322.077 306.079C321.289 311.073 318.053 313.925 314.177 316.091C306.852 320.187 299.007 321.644 290.75 319.76C288.994 319.36 287.351 318.284 285.784 317.313C285.161 316.927 284.603 316.02 284.504 315.284C284.207 313.046 284.033 310.776 284.458 308.218C293.774 309.563 302.891 309.307 312.004 306.575Z" fill="white"/>
<path d="M259.555 305.582C263.516 306.381 267.138 307.341 270.82 307.792C274.487 308.238 278.216 308.172 282.143 308.341C282.291 311.191 282.441 314.055 282.608 317.27C282.056 317.447 281.323 317.836 280.563 317.898C278.184 318.094 275.79 318.123 273.408 318.296C269.187 318.603 265.608 316.854 262.52 314.364C259.884 312.239 259.033 309.088 259.555 305.582Z" fill="white"/>
<path d="M367.835 219.996C371.29 217.567 374.998 216.017 378.859 214.821C379.58 214.597 380.428 214.788 381.589 214.788C381.198 215.619 380.993 216.146 380.711 216.628C380.454 217.067 380.113 217.457 379.797 217.886C380.195 219.33 380.724 220.692 380.916 222.101C381.11 223.524 381.066 225 380.957 226.44C380.543 231.89 377.701 234.953 371.987 236.101C371.811 235.665 371.565 235.22 371.446 234.743C370.235 229.847 369.044 224.944 367.835 219.996Z" fill="white"/>
<path d="M270.235 129.835C272.502 130.708 274.622 131.513 276.733 132.34C280.254 133.72 282.251 136.724 284 139.747C286.447 143.973 287.338 148.651 286.627 153.55C286.542 154.132 286.314 154.692 286.012 155.758C285.332 154.887 284.83 154.43 284.562 153.863C283.723 152.083 282.945 150.32 281.563 148.818C279.884 146.993 278.032 145.642 275.554 145.242C273.646 144.935 272.012 144.053 270.664 142.705C270.114 142.156 269.77 141.4 269.123 140.421C271.808 140.453 274.1 141.302 276.57 140.572C276.119 139.202 274.986 138.755 274.101 138.163C271.567 136.467 270.429 134.022 270.065 131.119C270.018 130.747 270.161 130.35 270.235 129.835Z" fill="white"/>
<path d="M311.984 301.326C311.314 305.294 311.089 305.435 307.683 306.213C301.458 307.634 295.158 307.651 288.846 307.329C287.435 307.257 286.017 306.759 284.666 306.276C283.525 305.867 283.072 304.81 283.372 303.812C283.673 302.812 284.507 302.71 285.361 302.705C286.913 302.698 288.468 302.785 290.018 302.716C295.599 302.472 301.18 302.203 306.758 301.89C308.481 301.793 310.194 301.524 311.984 301.326Z" fill="white"/>
<path d="M258.798 301.522C266.203 301.994 273.589 302.464 281.222 302.95C281.349 303.94 281.46 304.808 281.575 305.707C279.172 306.711 276.88 306.375 274.627 306.368C273.385 306.364 272.136 306.142 270.903 306.221C268.037 306.405 265.365 305.496 262.653 304.867C260.927 304.467 260.386 303.829 258.798 301.522Z" fill="white"/>
<path d="M221.908 263.253C122.036 201.082 89.1337 187.67 0.0472646 184.896L0.0472644 419.958L0.0472604 522.747L559.194 522.748C516.33 490.079 523.684 489.993 411.57 484.079C271.428 476.687 346.749 340.968 221.908 263.253Z" fill="#3DA3B4" stroke="black"/>
<path d="M162.157 105.395C166.288 105.709 172.758 106.077 181.565 106.499L181.585 106.5L181.605 106.498C181.859 106.47 182.069 106.431 182.225 106.378C182.303 106.351 182.38 106.317 182.445 106.269C182.509 106.221 182.581 106.145 182.604 106.033C182.628 105.917 182.59 105.817 182.543 105.746C182.497 105.677 182.434 105.62 182.37 105.572C182.241 105.475 182.056 105.379 181.828 105.281L181.818 105.277L181.809 105.274C175.183 103.05 167.748 101.337 159.506 100.136L159.506 100.136L159.501 100.136C158.516 100.012 157.705 100.096 157.101 100.431C156.484 100.773 156.121 101.355 155.997 102.133L155.996 102.141L155.995 102.149C155.951 102.623 156.059 103.057 156.321 103.44C156.58 103.818 156.979 104.133 157.498 104.393C158.531 104.911 160.093 105.239 162.157 105.395ZM162.157 105.395L162.176 105.146M162.157 105.395C162.157 105.395 162.157 105.395 162.157 105.395L162.176 105.146M162.176 105.146C158.066 104.835 156.088 103.844 156.244 102.173C156.473 100.738 157.548 100.142 159.47 100.384C167.7 101.583 175.12 103.292 181.729 105.511C182.62 105.893 182.569 106.139 181.577 106.249C172.771 105.827 166.304 105.46 162.176 105.146ZM182.079 101.091L182.123 101.11L182.17 101.11C182.294 101.112 182.417 101.1 182.522 101.058C182.635 101.013 182.744 100.924 182.782 100.778C182.817 100.647 182.782 100.52 182.737 100.421C182.691 100.317 182.619 100.209 182.53 100.098L182.516 100.08L182.499 100.066C177.534 95.7287 173.556 92.6008 170.569 90.6889L170.557 90.6812L170.544 90.675C168.946 89.8908 167.598 89.7496 166.573 90.3932L166.529 90.4205L166.5 90.4626C166.2 90.8958 166.024 91.3322 165.996 91.7694C165.966 92.2098 166.087 92.6302 166.345 93.0244L166.351 93.0339L166.358 93.0429C166.683 93.4522 167.26 93.9184 168.065 94.4418C168.875 94.9686 169.934 95.5654 171.24 96.2319C173.852 97.5651 177.466 99.1851 182.079 101.091ZM185.083 96.3234L185.103 96.337L185.125 96.3464C185.257 96.4028 185.393 96.4434 185.521 96.4403C185.664 96.4369 185.808 96.3767 185.893 96.2302C185.964 96.106 185.967 95.9596 185.952 95.8331C185.936 95.6998 185.895 95.5463 185.835 95.3772L185.829 95.3591L185.819 95.3421C183.587 91.2015 181.827 88.3214 180.543 86.7174L180.543 86.7173L180.539 86.7134C179.939 85.9945 179.054 85.7685 177.957 85.9707L177.865 85.9876L177.807 86.0604C177.265 86.7383 177.089 87.4418 177.366 88.1386L177.371 88.1504L177.376 88.1616C178.951 91.1907 181.525 93.9098 185.083 96.3234ZM180.157 110.204L180.111 110.192L180.063 110.198C175.11 110.812 171.196 111.414 168.323 112.007C166.888 112.303 165.708 112.597 164.787 112.89C163.872 113.181 163.192 113.477 162.771 113.786L162.761 113.793L162.753 113.8C162.4 114.112 162.172 114.485 162.083 114.918C161.995 115.347 162.048 115.814 162.222 116.311L162.239 116.36L162.274 116.398C163.092 117.29 164.429 117.512 166.178 117.18L166.192 117.177L166.206 117.173C169.593 116.122 174.258 114.162 180.196 111.298L180.217 111.289L180.235 111.275C180.35 111.192 180.448 111.107 180.52 111.019C180.59 110.935 180.657 110.822 180.659 110.687C180.66 110.536 180.579 110.421 180.482 110.347C180.391 110.279 180.276 110.235 180.157 110.204ZM181.449 115.803L181.425 115.806L181.402 115.814C177.332 117.197 174.129 119.136 171.807 121.638L171.798 121.648L171.79 121.658C171.339 122.256 171.321 122.981 171.664 123.779L171.701 123.864L171.785 123.905C172.789 124.391 173.702 124.408 174.472 123.874L174.472 123.874L174.476 123.871C176.14 122.666 178.601 120.356 181.852 116.956L181.866 116.942L181.877 116.926C181.979 116.779 182.06 116.642 182.111 116.518C182.159 116.4 182.194 116.258 182.159 116.119C182.116 115.955 181.993 115.859 181.857 115.818C181.734 115.781 181.591 115.784 181.449 115.803Z" fill="white" stroke="black" stroke-width="0.5"/>
<mask id="path-50-outside-1_317_4" maskUnits="userSpaceOnUse" x="190.845" y="105.9" width="68" height="34" fill="black">
<rect fill="white" x="190.845" y="105.9" width="68" height="34"/>
<path d="M195.803 119.071C195.393 119.071 195.123 118.872 194.994 118.473L191.933 108.43C191.875 108.219 191.845 108.031 191.845 107.867C191.845 107.644 191.928 107.463 192.092 107.322C192.256 107.169 192.455 107.093 192.69 107.093C193.124 107.093 193.405 107.298 193.534 107.709L195.838 115.29L198.301 107.691C198.43 107.293 198.711 107.093 199.145 107.093C199.567 107.093 199.837 107.298 199.954 107.709L202.047 115.307L204.861 107.515C205.014 107.105 205.295 106.9 205.705 106.9C205.94 106.9 206.139 106.976 206.303 107.128C206.468 107.269 206.55 107.451 206.55 107.674C206.55 107.873 206.52 108.061 206.462 108.237L202.751 118.508C202.692 118.684 202.592 118.825 202.452 118.931C202.311 119.024 202.147 119.071 201.959 119.071C201.502 119.071 201.22 118.86 201.115 118.438L199.057 111.016L196.647 118.473C196.577 118.696 196.471 118.854 196.331 118.948C196.202 119.03 196.026 119.071 195.803 119.071Z"/>
<path d="M210.768 119.071C209.936 119.071 209.185 118.895 208.517 118.544C207.86 118.18 207.344 117.67 206.969 117.013C206.594 116.345 206.406 115.559 206.406 114.656C206.406 113.918 206.571 113.214 206.899 112.546C207.239 111.866 207.708 111.32 208.306 110.91C208.916 110.5 209.608 110.294 210.381 110.294C211.097 110.294 211.706 110.441 212.211 110.734C212.727 111.016 213.114 111.356 213.372 111.754C213.63 112.153 213.758 112.511 213.758 112.827C213.758 112.98 213.712 113.126 213.618 113.267C213.524 113.408 213.389 113.531 213.213 113.636L208.499 116.345C208.664 116.708 208.951 116.99 209.361 117.189C209.783 117.389 210.252 117.488 210.768 117.488C211.448 117.488 212.029 117.236 212.51 116.732C212.697 116.544 212.891 116.45 213.09 116.45C213.325 116.45 213.518 116.527 213.671 116.679C213.835 116.832 213.917 117.019 213.917 117.242C213.917 117.43 213.846 117.605 213.706 117.77C213.377 118.133 212.938 118.444 212.387 118.702C211.847 118.948 211.308 119.071 210.768 119.071ZM212.017 112.616C211.876 112.37 211.677 112.188 211.419 112.071C211.161 111.942 210.856 111.877 210.505 111.877C209.836 111.877 209.273 112.106 208.816 112.563C208.37 113.021 208.112 113.584 208.042 114.252C208.019 114.428 208.007 114.639 208.007 114.885L212.017 112.616Z"/>
<path d="M216.453 119.071C216.23 119.071 216.031 118.995 215.855 118.843C215.691 118.678 215.609 118.491 215.609 118.28V108.078C215.609 107.844 215.685 107.65 215.838 107.498C216.002 107.334 216.207 107.252 216.453 107.252C216.676 107.252 216.87 107.334 217.034 107.498C217.21 107.662 217.298 107.855 217.298 108.078V118.28C217.298 118.491 217.21 118.678 217.034 118.843C216.858 118.995 216.664 119.071 216.453 119.071Z"/>
<path d="M223.037 119.071C222.334 119.071 221.689 118.901 221.102 118.561C220.516 118.221 220.053 117.758 219.713 117.172C219.373 116.574 219.203 115.923 219.203 115.219C219.203 114.422 219.391 113.642 219.766 112.88C220.141 112.118 220.633 111.496 221.243 111.016C221.853 110.535 222.498 110.294 223.178 110.294C223.799 110.294 224.298 110.394 224.673 110.593C225.06 110.781 225.435 111.086 225.799 111.508C225.975 111.696 226.063 111.901 226.063 112.124C226.063 112.346 225.98 112.54 225.816 112.704C225.652 112.857 225.453 112.933 225.218 112.933C225.066 112.933 224.943 112.909 224.849 112.862C224.767 112.815 224.667 112.722 224.55 112.581C224.351 112.358 224.151 112.188 223.952 112.071C223.764 111.954 223.512 111.895 223.196 111.895C222.832 111.895 222.463 112.053 222.087 112.37C221.724 112.686 221.425 113.103 221.19 113.619C220.968 114.123 220.856 114.645 220.856 115.184C220.856 115.653 220.956 116.064 221.155 116.415C221.366 116.755 221.636 117.019 221.964 117.207C222.293 117.383 222.639 117.471 223.002 117.471C223.471 117.471 223.852 117.383 224.145 117.207C224.45 117.031 224.72 116.791 224.954 116.486C225.177 116.193 225.429 116.046 225.711 116.046C225.934 116.046 226.127 116.128 226.291 116.292C226.455 116.445 226.537 116.621 226.537 116.82C226.537 117.054 226.473 117.254 226.344 117.418C226.004 117.875 225.541 118.268 224.954 118.596C224.368 118.913 223.729 119.071 223.037 119.071Z"/>
<path d="M231.088 119.071C230.42 119.071 229.804 118.889 229.241 118.526C228.69 118.162 228.256 117.67 227.94 117.049C227.623 116.415 227.465 115.729 227.465 114.991C227.465 114.158 227.652 113.384 228.028 112.669C228.403 111.942 228.907 111.367 229.54 110.945C230.174 110.511 230.854 110.294 231.581 110.294C232.249 110.294 232.859 110.482 233.41 110.857C233.973 111.232 234.412 111.731 234.729 112.352C235.057 112.974 235.221 113.642 235.221 114.357C235.221 115.202 235.034 115.987 234.659 116.714C234.283 117.43 233.773 118.004 233.128 118.438C232.495 118.86 231.815 119.071 231.088 119.071ZM231.088 117.488C231.499 117.488 231.891 117.348 232.267 117.066C232.642 116.785 232.941 116.409 233.164 115.94C233.386 115.471 233.498 114.973 233.498 114.445C233.498 114 233.41 113.584 233.234 113.197C233.058 112.798 232.818 112.481 232.513 112.247C232.208 112.001 231.874 111.877 231.51 111.877C231.1 111.877 230.713 112.024 230.349 112.317C229.998 112.599 229.716 112.98 229.505 113.46C229.294 113.929 229.189 114.434 229.189 114.973C229.189 115.501 229.276 115.952 229.452 116.327C229.64 116.703 229.874 116.99 230.156 117.189C230.449 117.389 230.76 117.488 231.088 117.488Z"/>
<path d="M237.958 119.071C237.736 119.071 237.536 118.989 237.36 118.825C237.196 118.661 237.114 118.467 237.114 118.245V111.139C237.114 110.916 237.196 110.722 237.36 110.558C237.536 110.382 237.736 110.294 237.958 110.294C238.193 110.294 238.392 110.382 238.556 110.558C238.721 110.722 238.803 110.916 238.803 111.139V112.37C239.53 110.986 240.497 110.294 241.705 110.294C242.186 110.294 242.602 110.435 242.954 110.717C243.317 110.998 243.575 111.42 243.727 111.983C244.478 110.857 245.393 110.294 246.471 110.294C247.198 110.294 247.773 110.576 248.195 111.139C248.617 111.69 248.828 112.522 248.828 113.636V118.245C248.828 118.467 248.74 118.661 248.564 118.825C248.4 118.989 248.207 119.071 247.984 119.071C247.749 119.071 247.55 118.989 247.386 118.825C247.222 118.661 247.14 118.467 247.14 118.245V113.531C247.14 112.991 247.063 112.587 246.911 112.317C246.759 112.047 246.518 111.913 246.19 111.913C245.85 111.913 245.51 112.047 245.17 112.317C244.83 112.587 244.548 112.956 244.325 113.425C244.114 113.894 244.009 114.41 244.009 114.973V118.245C244.009 118.479 243.927 118.678 243.763 118.843C243.598 118.995 243.399 119.071 243.165 119.071C242.942 119.071 242.742 118.989 242.567 118.825C242.402 118.661 242.32 118.467 242.32 118.245V113.531C242.32 112.968 242.25 112.558 242.109 112.3C241.98 112.042 241.763 111.913 241.459 111.913C241.083 111.913 240.714 112.065 240.35 112.37C239.987 112.663 239.67 113.021 239.401 113.443C239.19 113.795 239.031 114.146 238.926 114.498C238.832 114.85 238.785 115.237 238.785 115.659L238.803 118.245C238.803 118.467 238.721 118.661 238.556 118.825C238.392 118.989 238.193 119.071 237.958 119.071Z"/>
<path d="M254.912 119.071C254.08 119.071 253.329 118.895 252.661 118.544C252.004 118.18 251.488 117.67 251.113 117.013C250.738 116.345 250.55 115.559 250.55 114.656C250.55 113.918 250.714 113.214 251.043 112.546C251.383 111.866 251.852 111.32 252.45 110.91C253.059 110.5 253.751 110.294 254.525 110.294C255.24 110.294 255.85 110.441 256.354 110.734C256.87 111.016 257.257 111.356 257.515 111.754C257.773 112.153 257.902 112.511 257.902 112.827C257.902 112.98 257.855 113.126 257.762 113.267C257.668 113.408 257.533 113.531 257.357 113.636L252.643 116.345C252.807 116.708 253.095 116.99 253.505 117.189C253.927 117.389 254.396 117.488 254.912 117.488C255.592 117.488 256.173 117.236 256.653 116.732C256.841 116.544 257.035 116.45 257.234 116.45C257.468 116.45 257.662 116.527 257.814 116.679C257.978 116.832 258.061 117.019 258.061 117.242C258.061 117.43 257.99 117.605 257.849 117.77C257.521 118.133 257.081 118.444 256.53 118.702C255.991 118.948 255.452 119.071 254.912 119.071ZM256.161 112.616C256.02 112.37 255.821 112.188 255.563 112.071C255.305 111.942 255 111.877 254.648 111.877C253.98 111.877 253.417 112.106 252.96 112.563C252.514 113.021 252.256 113.584 252.186 114.252C252.162 114.428 252.151 114.639 252.151 114.885L256.161 112.616Z"/>
<path d="M212.329 139.106C211.953 139.106 211.689 139.03 211.537 138.878C211.385 138.725 211.308 138.479 211.308 138.139V128.043C211.308 127.809 211.396 127.609 211.572 127.445C211.748 127.269 211.947 127.181 212.17 127.181H215.16C216.005 127.181 216.726 127.328 217.324 127.621C217.933 127.902 218.391 128.283 218.696 128.764C219.001 129.233 219.153 129.743 219.153 130.294C219.153 131.174 218.883 131.907 218.344 132.493C218.942 132.774 219.387 133.15 219.681 133.619C219.974 134.076 220.12 134.645 220.12 135.325C220.12 136.544 219.47 137.482 218.168 138.139C216.866 138.784 214.92 139.106 212.329 139.106ZM215.758 131.948C216.239 131.948 216.632 131.784 216.937 131.455C217.253 131.115 217.412 130.734 217.412 130.312C217.412 129.902 217.212 129.562 216.814 129.292C216.427 129.01 215.876 128.87 215.16 128.87H213.067V131.948H215.758ZM213.067 137.435C214.627 137.412 215.899 137.224 216.884 136.873C217.881 136.521 218.379 136.005 218.379 135.325C218.379 134.821 218.15 134.416 217.693 134.111C217.236 133.795 216.591 133.636 215.758 133.636H213.067V137.435Z"/>
<path d="M227.601 139.247C227.367 139.247 227.173 139.183 227.021 139.054C226.88 138.925 226.81 138.755 226.81 138.544V138.297C226.329 138.813 225.661 139.071 224.805 139.071C224.16 139.071 223.579 138.913 223.063 138.596C222.548 138.28 222.143 137.834 221.85 137.26C221.557 136.673 221.41 136.011 221.41 135.272C221.41 134.451 221.586 133.66 221.938 132.898C222.29 132.124 222.782 131.496 223.415 131.016C224.06 130.535 224.799 130.294 225.631 130.294C226.171 130.294 226.657 130.371 227.091 130.523C227.525 130.664 227.977 130.84 228.446 131.051V138.368C228.446 138.602 228.364 138.807 228.199 138.983C228.035 139.159 227.836 139.247 227.601 139.247ZM224.928 137.435C225.268 137.435 225.596 137.365 225.913 137.224C226.241 137.084 226.511 136.914 226.722 136.714L226.775 132.124C226.435 131.983 226.065 131.913 225.667 131.913C225.162 131.913 224.717 132.071 224.33 132.387C223.943 132.692 223.644 133.103 223.433 133.619C223.222 134.123 223.116 134.662 223.116 135.237C223.116 135.952 223.275 136.497 223.591 136.873C223.908 137.248 224.353 137.435 224.928 137.435Z"/>
<path d="M234.176 139.071C233.473 139.071 232.828 138.901 232.241 138.561C231.655 138.221 231.192 137.758 230.852 137.172C230.512 136.574 230.342 135.923 230.342 135.219C230.342 134.422 230.53 133.642 230.905 132.88C231.28 132.118 231.772 131.496 232.382 131.016C232.992 130.535 233.637 130.294 234.317 130.294C234.938 130.294 235.437 130.394 235.812 130.593C236.199 130.781 236.574 131.086 236.938 131.508C237.114 131.696 237.202 131.901 237.202 132.124C237.202 132.346 237.119 132.54 236.955 132.704C236.791 132.857 236.592 132.933 236.357 132.933C236.205 132.933 236.082 132.909 235.988 132.862C235.906 132.815 235.806 132.722 235.689 132.581C235.49 132.358 235.29 132.188 235.091 132.071C234.903 131.954 234.651 131.895 234.335 131.895C233.971 131.895 233.602 132.053 233.226 132.37C232.863 132.686 232.564 133.103 232.329 133.619C232.107 134.123 231.995 134.645 231.995 135.184C231.995 135.653 232.095 136.064 232.294 136.415C232.505 136.755 232.775 137.019 233.103 137.207C233.432 137.383 233.778 137.471 234.141 137.471C234.61 137.471 234.991 137.383 235.284 137.207C235.589 137.031 235.859 136.791 236.093 136.486C236.316 136.193 236.568 136.046 236.85 136.046C237.073 136.046 237.266 136.128 237.43 136.292C237.594 136.445 237.676 136.621 237.676 136.82C237.676 137.054 237.612 137.254 237.483 137.418C237.143 137.875 236.68 138.268 236.093 138.596C235.507 138.913 234.868 139.071 234.176 139.071Z"/>
<path d="M240.046 139.071C239.835 139.071 239.642 138.989 239.466 138.825C239.29 138.649 239.202 138.45 239.202 138.227L239.167 128.078C239.167 127.855 239.249 127.662 239.413 127.498C239.589 127.334 239.794 127.252 240.029 127.252C240.275 127.252 240.474 127.34 240.627 127.515C240.791 127.68 240.873 127.879 240.873 128.113L240.89 133.812C241.383 133.39 241.957 132.845 242.614 132.176C243.271 131.508 243.828 130.898 244.285 130.347C244.473 130.113 244.701 129.995 244.971 129.995C245.205 129.995 245.399 130.072 245.551 130.224C245.716 130.376 245.798 130.57 245.798 130.804C245.798 131.004 245.739 131.174 245.622 131.315C245.317 131.725 244.93 132.176 244.461 132.669C244.004 133.161 243.581 133.589 243.194 133.953L246.097 137.594C246.249 137.77 246.325 137.951 246.325 138.139C246.325 138.385 246.243 138.596 246.079 138.772C245.927 138.936 245.727 139.018 245.481 139.018C245.2 139.018 244.977 138.919 244.813 138.719C243.898 137.488 243.03 136.363 242.21 135.342L241.928 134.973C241.682 135.161 241.342 135.395 240.908 135.677V138.227C240.908 138.45 240.826 138.649 240.662 138.825C240.498 138.989 240.292 139.071 240.046 139.071Z"/>
</mask>
<path d="M195.803 119.071C195.393 119.071 195.123 118.872 194.994 118.473L191.933 108.43C191.875 108.219 191.845 108.031 191.845 107.867C191.845 107.644 191.928 107.463 192.092 107.322C192.256 107.169 192.455 107.093 192.69 107.093C193.124 107.093 193.405 107.298 193.534 107.709L195.838 115.29L198.301 107.691C198.43 107.293 198.711 107.093 199.145 107.093C199.567 107.093 199.837 107.298 199.954 107.709L202.047 115.307L204.861 107.515C205.014 107.105 205.295 106.9 205.705 106.9C205.94 106.9 206.139 106.976 206.303 107.128C206.468 107.269 206.55 107.451 206.55 107.674C206.55 107.873 206.52 108.061 206.462 108.237L202.751 118.508C202.692 118.684 202.592 118.825 202.452 118.931C202.311 119.024 202.147 119.071 201.959 119.071C201.502 119.071 201.22 118.86 201.115 118.438L199.057 111.016L196.647 118.473C196.577 118.696 196.471 118.854 196.331 118.948C196.202 119.03 196.026 119.071 195.803 119.071Z" fill="white"/>
<path d="M210.768 119.071C209.936 119.071 209.185 118.895 208.517 118.544C207.86 118.18 207.344 117.67 206.969 117.013C206.594 116.345 206.406 115.559 206.406 114.656C206.406 113.918 206.571 113.214 206.899 112.546C207.239 111.866 207.708 111.32 208.306 110.91C208.916 110.5 209.608 110.294 210.381 110.294C211.097 110.294 211.706 110.441 212.211 110.734C212.727 111.016 213.114 111.356 213.372 111.754C213.63 112.153 213.758 112.511 213.758 112.827C213.758 112.98 213.712 113.126 213.618 113.267C213.524 113.408 213.389 113.531 213.213 113.636L208.499 116.345C208.664 116.708 208.951 116.99 209.361 117.189C209.783 117.389 210.252 117.488 210.768 117.488C211.448 117.488 212.029 117.236 212.51 116.732C212.697 116.544 212.891 116.45 213.09 116.45C213.325 116.45 213.518 116.527 213.671 116.679C213.835 116.832 213.917 117.019 213.917 117.242C213.917 117.43 213.846 117.605 213.706 117.77C213.377 118.133 212.938 118.444 212.387 118.702C211.847 118.948 211.308 119.071 210.768 119.071ZM212.017 112.616C211.876 112.37 211.677 112.188 211.419 112.071C211.161 111.942 210.856 111.877 210.505 111.877C209.836 111.877 209.273 112.106 208.816 112.563C208.37 113.021 208.112 113.584 208.042 114.252C208.019 114.428 208.007 114.639 208.007 114.885L212.017 112.616Z" fill="white"/>
<path d="M216.453 119.071C216.23 119.071 216.031 118.995 215.855 118.843C215.691 118.678 215.609 118.491 215.609 118.28V108.078C215.609 107.844 215.685 107.65 215.838 107.498C216.002 107.334 216.207 107.252 216.453 107.252C216.676 107.252 216.87 107.334 217.034 107.498C217.21 107.662 217.298 107.855 217.298 108.078V118.28C217.298 118.491 217.21 118.678 217.034 118.843C216.858 118.995 216.664 119.071 216.453 119.071Z" fill="white"/>
<path d="M223.037 119.071C222.334 119.071 221.689 118.901 221.102 118.561C220.516 118.221 220.053 117.758 219.713 117.172C219.373 116.574 219.203 115.923 219.203 115.219C219.203 114.422 219.391 113.642 219.766 112.88C220.141 112.118 220.633 111.496 221.243 111.016C221.853 110.535 222.498 110.294 223.178 110.294C223.799 110.294 224.298 110.394 224.673 110.593C225.06 110.781 225.435 111.086 225.799 111.508C225.975 111.696 226.063 111.901 226.063 112.124C226.063 112.346 225.98 112.54 225.816 112.704C225.652 112.857 225.453 112.933 225.218 112.933C225.066 112.933 224.943 112.909 224.849 112.862C224.767 112.815 224.667 112.722 224.55 112.581C224.351 112.358 224.151 112.188 223.952 112.071C223.764 111.954 223.512 111.895 223.196 111.895C222.832 111.895 222.463 112.053 222.087 112.37C221.724 112.686 221.425 113.103 221.19 113.619C220.968 114.123 220.856 114.645 220.856 115.184C220.856 115.653 220.956 116.064 221.155 116.415C221.366 116.755 221.636 117.019 221.964 117.207C222.293 117.383 222.639 117.471 223.002 117.471C223.471 117.471 223.852 117.383 224.145 117.207C224.45 117.031 224.72 116.791 224.954 116.486C225.177 116.193 225.429 116.046 225.711 116.046C225.934 116.046 226.127 116.128 226.291 116.292C226.455 116.445 226.537 116.621 226.537 116.82C226.537 117.054 226.473 117.254 226.344 117.418C226.004 117.875 225.541 118.268 224.954 118.596C224.368 118.913 223.729 119.071 223.037 119.071Z" fill="white"/>
<path d="M231.088 119.071C230.42 119.071 229.804 118.889 229.241 118.526C228.69 118.162 228.256 117.67 227.94 117.049C227.623 116.415 227.465 115.729 227.465 114.991C227.465 114.158 227.652 113.384 228.028 112.669C228.403 111.942 228.907 111.367 229.54 110.945C230.174 110.511 230.854 110.294 231.581 110.294C232.249 110.294 232.859 110.482 233.41 110.857C233.973 111.232 234.412 111.731 234.729 112.352C235.057 112.974 235.221 113.642 235.221 114.357C235.221 115.202 235.034 115.987 234.659 116.714C234.283 117.43 233.773 118.004 233.128 118.438C232.495 118.86 231.815 119.071 231.088 119.071ZM231.088 117.488C231.499 117.488 231.891 117.348 232.267 117.066C232.642 116.785 232.941 116.409 233.164 115.94C233.386 115.471 233.498 114.973 233.498 114.445C233.498 114 233.41 113.584 233.234 113.197C233.058 112.798 232.818 112.481 232.513 112.247C232.208 112.001 231.874 111.877 231.51 111.877C231.1 111.877 230.713 112.024 230.349 112.317C229.998 112.599 229.716 112.98 229.505 113.46C229.294 113.929 229.189 114.434 229.189 114.973C229.189 115.501 229.276 115.952 229.452 116.327C229.64 116.703 229.874 116.99 230.156 117.189C230.449 117.389 230.76 117.488 231.088 117.488Z" fill="white"/>
<path d="M237.958 119.071C237.736 119.071 237.536 118.989 237.36 118.825C237.196 118.661 237.114 118.467 237.114 118.245V111.139C237.114 110.916 237.196 110.722 237.36 110.558C237.536 110.382 237.736 110.294 237.958 110.294C238.193 110.294 238.392 110.382 238.556 110.558C238.721 110.722 238.803 110.916 238.803 111.139V112.37C239.53 110.986 240.497 110.294 241.705 110.294C242.186 110.294 242.602 110.435 242.954 110.717C243.317 110.998 243.575 111.42 243.727 111.983C244.478 110.857 245.393 110.294 246.471 110.294C247.198 110.294 247.773 110.576 248.195 111.139C248.617 111.69 248.828 112.522 248.828 113.636V118.245C248.828 118.467 248.74 118.661 248.564 118.825C248.4 118.989 248.207 119.071 247.984 119.071C247.749 119.071 247.55 118.989 247.386 118.825C247.222 118.661 247.14 118.467 247.14 118.245V113.531C247.14 112.991 247.063 112.587 246.911 112.317C246.759 112.047 246.518 111.913 246.19 111.913C245.85 111.913 245.51 112.047 245.17 112.317C244.83 112.587 244.548 112.956 244.325 113.425C244.114 113.894 244.009 114.41 244.009 114.973V118.245C244.009 118.479 243.927 118.678 243.763 118.843C243.598 118.995 243.399 119.071 243.165 119.071C242.942 119.071 242.742 118.989 242.567 118.825C242.402 118.661 242.32 118.467 242.32 118.245V113.531C242.32 112.968 242.25 112.558 242.109 112.3C241.98 112.042 241.763 111.913 241.459 111.913C241.083 111.913 240.714 112.065 240.35 112.37C239.987 112.663 239.67 113.021 239.401 113.443C239.19 113.795 239.031 114.146 238.926 114.498C238.832 114.85 238.785 115.237 238.785 115.659L238.803 118.245C238.803 118.467 238.721 118.661 238.556 118.825C238.392 118.989 238.193 119.071 237.958 119.071Z" fill="white"/>
<path d="M254.912 119.071C254.08 119.071 253.329 118.895 252.661 118.544C252.004 118.18 251.488 117.67 251.113 117.013C250.738 116.345 250.55 115.559 250.55 114.656C250.55 113.918 250.714 113.214 251.043 112.546C251.383 111.866 251.852 111.32 252.45 110.91C253.059 110.5 253.751 110.294 254.525 110.294C255.24 110.294 255.85 110.441 256.354 110.734C256.87 111.016 257.257 111.356 257.515 111.754C257.773 112.153 257.902 112.511 257.902 112.827C257.902 112.98 257.855 113.126 257.762 113.267C257.668 113.408 257.533 113.531 257.357 113.636L252.643 116.345C252.807 116.708 253.095 116.99 253.505 117.189C253.927 117.389 254.396 117.488 254.912 117.488C255.592 117.488 256.173 117.236 256.653 116.732C256.841 116.544 257.035 116.45 257.234 116.45C257.468 116.45 257.662 116.527 257.814 116.679C257.978 116.832 258.061 117.019 258.061 117.242C258.061 117.43 257.99 117.605 257.849 117.77C257.521 118.133 257.081 118.444 256.53 118.702C255.991 118.948 255.452 119.071 254.912 119.071ZM256.161 112.616C256.02 112.37 255.821 112.188 255.563 112.071C255.305 111.942 255 111.877 254.648 111.877C253.98 111.877 253.417 112.106 252.96 112.563C252.514 113.021 252.256 113.584 252.186 114.252C252.162 114.428 252.151 114.639 252.151 114.885L256.161 112.616Z" fill="white"/>
<path d="M212.329 139.106C211.953 139.106 211.689 139.03 211.537 138.878C211.385 138.725 211.308 138.479 211.308 138.139V128.043C211.308 127.809 211.396 127.609 211.572 127.445C211.748 127.269 211.947 127.181 212.17 127.181H215.16C216.005 127.181 216.726 127.328 217.324 127.621C217.933 127.902 218.391 128.283 218.696 128.764C219.001 129.233 219.153 129.743 219.153 130.294C219.153 131.174 218.883 131.907 218.344 132.493C218.942 132.774 219.387 133.15 219.681 133.619C219.974 134.076 220.12 134.645 220.12 135.325C220.12 136.544 219.47 137.482 218.168 138.139C216.866 138.784 214.92 139.106 212.329 139.106ZM215.758 131.948C216.239 131.948 216.632 131.784 216.937 131.455C217.253 131.115 217.412 130.734 217.412 130.312C217.412 129.902 217.212 129.562 216.814 129.292C216.427 129.01 215.876 128.87 215.16 128.87H213.067V131.948H215.758ZM213.067 137.435C214.627 137.412 215.899 137.224 216.884 136.873C217.881 136.521 218.379 136.005 218.379 135.325C218.379 134.821 218.15 134.416 217.693 134.111C217.236 133.795 216.591 133.636 215.758 133.636H213.067V137.435Z" fill="white"/>
<path d="M227.601 139.247C227.367 139.247 227.173 139.183 227.021 139.054C226.88 138.925 226.81 138.755 226.81 138.544V138.297C226.329 138.813 225.661 139.071 224.805 139.071C224.16 139.071 223.579 138.913 223.063 138.596C222.548 138.28 222.143 137.834 221.85 137.26C221.557 136.673 221.41 136.011 221.41 135.272C221.41 134.451 221.586 133.66 221.938 132.898C222.29 132.124 222.782 131.496 223.415 131.016C224.06 130.535 224.799 130.294 225.631 130.294C226.171 130.294 226.657 130.371 227.091 130.523C227.525 130.664 227.977 130.84 228.446 131.051V138.368C228.446 138.602 228.364 138.807 228.199 138.983C228.035 139.159 227.836 139.247 227.601 139.247ZM224.928 137.435C225.268 137.435 225.596 137.365 225.913 137.224C226.241 137.084 226.511 136.914 226.722 136.714L226.775 132.124C226.435 131.983 226.065 131.913 225.667 131.913C225.162 131.913 224.717 132.071 224.33 132.387C223.943 132.692 223.644 133.103 223.433 133.619C223.222 134.123 223.116 134.662 223.116 135.237C223.116 135.952 223.275 136.497 223.591 136.873C223.908 137.248 224.353 137.435 224.928 137.435Z" fill="white"/>
<path d="M234.176 139.071C233.473 139.071 232.828 138.901 232.241 138.561C231.655 138.221 231.192 137.758 230.852 137.172C230.512 136.574 230.342 135.923 230.342 135.219C230.342 134.422 230.53 133.642 230.905 132.88C231.28 132.118 231.772 131.496 232.382 131.016C232.992 130.535 233.637 130.294 234.317 130.294C234.938 130.294 235.437 130.394 235.812 130.593C236.199 130.781 236.574 131.086 236.938 131.508C237.114 131.696 237.202 131.901 237.202 132.124C237.202 132.346 237.119 132.54 236.955 132.704C236.791 132.857 236.592 132.933 236.357 132.933C236.205 132.933 236.082 132.909 235.988 132.862C235.906 132.815 235.806 132.722 235.689 132.581C235.49 132.358 235.29 132.188 235.091 132.071C234.903 131.954 234.651 131.895 234.335 131.895C233.971 131.895 233.602 132.053 233.226 132.37C232.863 132.686 232.564 133.103 232.329 133.619C232.107 134.123 231.995 134.645 231.995 135.184C231.995 135.653 232.095 136.064 232.294 136.415C232.505 136.755 232.775 137.019 233.103 137.207C233.432 137.383 233.778 137.471 234.141 137.471C234.61 137.471 234.991 137.383 235.284 137.207C235.589 137.031 235.859 136.791 236.093 136.486C236.316 136.193 236.568 136.046 236.85 136.046C237.073 136.046 237.266 136.128 237.43 136.292C237.594 136.445 237.676 136.621 237.676 136.82C237.676 137.054 237.612 137.254 237.483 137.418C237.143 137.875 236.68 138.268 236.093 138.596C235.507 138.913 234.868 139.071 234.176 139.071Z" fill="white"/>
<path d="M240.046 139.071C239.835 139.071 239.642 138.989 239.466 138.825C239.29 138.649 239.202 138.45 239.202 138.227L239.167 128.078C239.167 127.855 239.249 127.662 239.413 127.498C239.589 127.334 239.794 127.252 240.029 127.252C240.275 127.252 240.474 127.34 240.627 127.515C240.791 127.68 240.873 127.879 240.873 128.113L240.89 133.812C241.383 133.39 241.957 132.845 242.614 132.176C243.271 131.508 243.828 130.898 244.285 130.347C244.473 130.113 244.701 129.995 244.971 129.995C245.205 129.995 245.399 130.072 245.551 130.224C245.716 130.376 245.798 130.57 245.798 130.804C245.798 131.004 245.739 131.174 245.622 131.315C245.317 131.725 244.93 132.176 244.461 132.669C244.004 133.161 243.581 133.589 243.194 133.953L246.097 137.594C246.249 137.77 246.325 137.951 246.325 138.139C246.325 138.385 246.243 138.596 246.079 138.772C245.927 138.936 245.727 139.018 245.481 139.018C245.2 139.018 244.977 138.919 244.813 138.719C243.898 137.488 243.03 136.363 242.21 135.342L241.928 134.973C241.682 135.161 241.342 135.395 240.908 135.677V138.227C240.908 138.45 240.826 138.649 240.662 138.825C240.498 138.989 240.292 139.071 240.046 139.071Z" fill="white"/>
<path d="M195.803 119.071C195.393 119.071 195.123 118.872 194.994 118.473L191.933 108.43C191.875 108.219 191.845 108.031 191.845 107.867C191.845 107.644 191.928 107.463 192.092 107.322C192.256 107.169 192.455 107.093 192.69 107.093C193.124 107.093 193.405 107.298 193.534 107.709L195.838 115.29L198.301 107.691C198.43 107.293 198.711 107.093 199.145 107.093C199.567 107.093 199.837 107.298 199.954 107.709L202.047 115.307L204.861 107.515C205.014 107.105 205.295 106.9 205.705 106.9C205.94 106.9 206.139 106.976 206.303 107.128C206.468 107.269 206.55 107.451 206.55 107.674C206.55 107.873 206.52 108.061 206.462 108.237L202.751 118.508C202.692 118.684 202.592 118.825 202.452 118.931C202.311 119.024 202.147 119.071 201.959 119.071C201.502 119.071 201.22 118.86 201.115 118.438L199.057 111.016L196.647 118.473C196.577 118.696 196.471 118.854 196.331 118.948C196.202 119.03 196.026 119.071 195.803 119.071Z" stroke="black" mask="url(#path-50-outside-1_317_4)"/>
<path d="M210.768 119.071C209.936 119.071 209.185 118.895 208.517 118.544C207.86 118.18 207.344 117.67 206.969 117.013C206.594 116.345 206.406 115.559 206.406 114.656C206.406 113.918 206.571 113.214 206.899 112.546C207.239 111.866 207.708 111.32 208.306 110.91C208.916 110.5 209.608 110.294 210.381 110.294C211.097 110.294 211.706 110.441 212.211 110.734C212.727 111.016 213.114 111.356 213.372 111.754C213.63 112.153 213.758 112.511 213.758 112.827C213.758 112.98 213.712 113.126 213.618 113.267C213.524 113.408 213.389 113.531 213.213 113.636L208.499 116.345C208.664 116.708 208.951 116.99 209.361 117.189C209.783 117.389 210.252 117.488 210.768 117.488C211.448 117.488 212.029 117.236 212.51 116.732C212.697 116.544 212.891 116.45 213.09 116.45C213.325 116.45 213.518 116.527 213.671 116.679C213.835 116.832 213.917 117.019 213.917 117.242C213.917 117.43 213.846 117.605 213.706 117.77C213.377 118.133 212.938 118.444 212.387 118.702C211.847 118.948 211.308 119.071 210.768 119.071ZM212.017 112.616C211.876 112.37 211.677 112.188 211.419 112.071C211.161 111.942 210.856 111.877 210.505 111.877C209.836 111.877 209.273 112.106 208.816 112.563C208.37 113.021 208.112 113.584 208.042 114.252C208.019 114.428 208.007 114.639 208.007 114.885L212.017 112.616Z" stroke="black" mask="url(#path-50-outside-1_317_4)"/>
<path d="M216.453 119.071C216.23 119.071 216.031 118.995 215.855 118.843C215.691 118.678 215.609 118.491 215.609 118.28V108.078C215.609 107.844 215.685 107.65 215.838 107.498C216.002 107.334 216.207 107.252 216.453 107.252C216.676 107.252 216.87 107.334 217.034 107.498C217.21 107.662 217.298 107.855 217.298 108.078V118.28C217.298 118.491 217.21 118.678 217.034 118.843C216.858 118.995 216.664 119.071 216.453 119.071Z" stroke="black" mask="url(#path-50-outside-1_317_4)"/>
<path d="M223.037 119.071C222.334 119.071 221.689 118.901 221.102 118.561C220.516 118.221 220.053 117.758 219.713 117.172C219.373 116.574 219.203 115.923 219.203 115.219C219.203 114.422 219.391 113.642 219.766 112.88C220.141 112.118 220.633 111.496 221.243 111.016C221.853 110.535 222.498 110.294 223.178 110.294C223.799 110.294 224.298 110.394 224.673 110.593C225.06 110.781 225.435 111.086 225.799 111.508C225.975 111.696 226.063 111.901 226.063 112.124C226.063 112.346 225.98 112.54 225.816 112.704C225.652 112.857 225.453 112.933 225.218 112.933C225.066 112.933 224.943 112.909 224.849 112.862C224.767 112.815 224.667 112.722 224.55 112.581C224.351 112.358 224.151 112.188 223.952 112.071C223.764 111.954 223.512 111.895 223.196 111.895C222.832 111.895 222.463 112.053 222.087 112.37C221.724 112.686 221.425 113.103 221.19 113.619C220.968 114.123 220.856 114.645 220.856 115.184C220.856 115.653 220.956 116.064 221.155 116.415C221.366 116.755 221.636 117.019 221.964 117.207C222.293 117.383 222.639 117.471 223.002 117.471C223.471 117.471 223.852 117.383 224.145 117.207C224.45 117.031 224.72 116.791 224.954 116.486C225.177 116.193 225.429 116.046 225.711 116.046C225.934 116.046 226.127 116.128 226.291 116.292C226.455 116.445 226.537 116.621 226.537 116.82C226.537 117.054 226.473 117.254 226.344 117.418C226.004 117.875 225.541 118.268 224.954 118.596C224.368 118.913 223.729 119.071 223.037 119.071Z" stroke="black" mask="url(#path-50-outside-1_317_4)"/>
<path d="M231.088 119.071C230.42 119.071 229.804 118.889 229.241 118.526C228.69 118.162 228.256 117.67 227.94 117.049C227.623 116.415 227.465 115.729 227.465 114.991C227.465 114.158 227.652 113.384 228.028 112.669C228.403 111.942 228.907 111.367 229.54 110.945C230.174 110.511 230.854 110.294 231.581 110.294C232.249 110.294 232.859 110.482 233.41 110.857C233.973 111.232 234.412 111.731 234.729 112.352C235.057 112.974 235.221 113.642 235.221 114.357C235.221 115.202 235.034 115.987 234.659 116.714C234.283 117.43 233.773 118.004 233.128 118.438C232.495 118.86 231.815 119.071 231.088 119.071ZM231.088 117.488C231.499 117.488 231.891 117.348 232.267 117.066C232.642 116.785 232.941 116.409 233.164 115.94C233.386 115.471 233.498 114.973 233.498 114.445C233.498 114 233.41 113.584 233.234 113.197C233.058 112.798 232.818 112.481 232.513 112.247C232.208 112.001 231.874 111.877 231.51 111.877C231.1 111.877 230.713 112.024 230.349 112.317C229.998 112.599 229.716 112.98 229.505 113.46C229.294 113.929 229.189 114.434 229.189 114.973C229.189 115.501 229.276 115.952 229.452 116.327C229.64 116.703 229.874 116.99 230.156 117.189C230.449 117.389 230.76 117.488 231.088 117.488Z" stroke="black" mask="url(#path-50-outside-1_317_4)"/>
<path d="M237.958 119.071C237.736 119.071 237.536 118.989 237.36 118.825C237.196 118.661 237.114 118.467 237.114 118.245V111.139C237.114 110.916 237.196 110.722 237.36 110.558C237.536 110.382 237.736 110.294 237.958 110.294C238.193 110.294 238.392 110.382 238.556 110.558C238.721 110.722 238.803 110.916 238.803 111.139V112.37C239.53 110.986 240.497 110.294 241.705 110.294C242.186 110.294 242.602 110.435 242.954 110.717C243.317 110.998 243.575 111.42 243.727 111.983C244.478 110.857 245.393 110.294 246.471 110.294C247.198 110.294 247.773 110.576 248.195 111.139C248.617 111.69 248.828 112.522 248.828 113.636V118.245C248.828 118.467 248.74 118.661 248.564 118.825C248.4 118.989 248.207 119.071 247.984 119.071C247.749 119.071 247.55 118.989 247.386 118.825C247.222 118.661 247.14 118.467 247.14 118.245V113.531C247.14 112.991 247.063 112.587 246.911 112.317C246.759 112.047 246.518 111.913 246.19 111.913C245.85 111.913 245.51 112.047 245.17 112.317C244.83 112.587 244.548 112.956 244.325 113.425C244.114 113.894 244.009 114.41 244.009 114.973V118.245C244.009 118.479 243.927 118.678 243.763 118.843C243.598 118.995 243.399 119.071 243.165 119.071C242.942 119.071 242.742 118.989 242.567 118.825C242.402 118.661 242.32 118.467 242.32 118.245V113.531C242.32 112.968 242.25 112.558 242.109 112.3C241.98 112.042 241.763 111.913 241.459 111.913C241.083 111.913 240.714 112.065 240.35 112.37C239.987 112.663 239.67 113.021 239.401 113.443C239.19 113.795 239.031 114.146 238.926 114.498C238.832 114.85 238.785 115.237 238.785 115.659L238.803 118.245C238.803 118.467 238.721 118.661 238.556 118.825C238.392 118.989 238.193 119.071 237.958 119.071Z" stroke="black" mask="url(#path-50-outside-1_317_4)"/>
<path d="M254.912 119.071C254.08 119.071 253.329 118.895 252.661 118.544C252.004 118.18 251.488 117.67 251.113 117.013C250.738 116.345 250.55 115.559 250.55 114.656C250.55 113.918 250.714 113.214 251.043 112.546C251.383 111.866 251.852 111.32 252.45 110.91C253.059 110.5 253.751 110.294 254.525 110.294C255.24 110.294 255.85 110.441 256.354 110.734C256.87 111.016 257.257 111.356 257.515 111.754C257.773 112.153 257.902 112.511 257.902 112.827C257.902 112.98 257.855 113.126 257.762 113.267C257.668 113.408 257.533 113.531 257.357 113.636L252.643 116.345C252.807 116.708 253.095 116.99 253.505 117.189C253.927 117.389 254.396 117.488 254.912 117.488C255.592 117.488 256.173 117.236 256.653 116.732C256.841 116.544 257.035 116.45 257.234 116.45C257.468 116.45 257.662 116.527 257.814 116.679C257.978 116.832 258.061 117.019 258.061 117.242C258.061 117.43 257.99 117.605 257.849 117.77C257.521 118.133 257.081 118.444 256.53 118.702C255.991 118.948 255.452 119.071 254.912 119.071ZM256.161 112.616C256.02 112.37 255.821 112.188 255.563 112.071C255.305 111.942 255 111.877 254.648 111.877C253.98 111.877 253.417 112.106 252.96 112.563C252.514 113.021 252.256 113.584 252.186 114.252C252.162 114.428 252.151 114.639 252.151 114.885L256.161 112.616Z" stroke="black" mask="url(#path-50-outside-1_317_4)"/>
<path d="M212.329 139.106C211.953 139.106 211.689 139.03 211.537 138.878C211.385 138.725 211.308 138.479 211.308 138.139V128.043C211.308 127.809 211.396 127.609 211.572 127.445C211.748 127.269 211.947 127.181 212.17 127.181H215.16C216.005 127.181 216.726 127.328 217.324 127.621C217.933 127.902 218.391 128.283 218.696 128.764C219.001 129.233 219.153 129.743 219.153 130.294C219.153 131.174 218.883 131.907 218.344 132.493C218.942 132.774 219.387 133.15 219.681 133.619C219.974 134.076 220.12 134.645 220.12 135.325C220.12 136.544 219.47 137.482 218.168 138.139C216.866 138.784 214.92 139.106 212.329 139.106ZM215.758 131.948C216.239 131.948 216.632 131.784 216.937 131.455C217.253 131.115 217.412 130.734 217.412 130.312C217.412 129.902 217.212 129.562 216.814 129.292C216.427 129.01 215.876 128.87 215.16 128.87H213.067V131.948H215.758ZM213.067 137.435C214.627 137.412 215.899 137.224 216.884 136.873C217.881 136.521 218.379 136.005 218.379 135.325C218.379 134.821 218.15 134.416 217.693 134.111C217.236 133.795 216.591 133.636 215.758 133.636H213.067V137.435Z" stroke="black" mask="url(#path-50-outside-1_317_4)"/>
<path d="M227.601 139.247C227.367 139.247 227.173 139.183 227.021 139.054C226.88 138.925 226.81 138.755 226.81 138.544V138.297C226.329 138.813 225.661 139.071 224.805 139.071C224.16 139.071 223.579 138.913 223.063 138.596C222.548 138.28 222.143 137.834 221.85 137.26C221.557 136.673 221.41 136.011 221.41 135.272C221.41 134.451 221.586 133.66 221.938 132.898C222.29 132.124 222.782 131.496 223.415 131.016C224.06 130.535 224.799 130.294 225.631 130.294C226.171 130.294 226.657 130.371 227.091 130.523C227.525 130.664 227.977 130.84 228.446 131.051V138.368C228.446 138.602 228.364 138.807 228.199 138.983C228.035 139.159 227.836 139.247 227.601 139.247ZM224.928 137.435C225.268 137.435 225.596 137.365 225.913 137.224C226.241 137.084 226.511 136.914 226.722 136.714L226.775 132.124C226.435 131.983 226.065 131.913 225.667 131.913C225.162 131.913 224.717 132.071 224.33 132.387C223.943 132.692 223.644 133.103 223.433 133.619C223.222 134.123 223.116 134.662 223.116 135.237C223.116 135.952 223.275 136.497 223.591 136.873C223.908 137.248 224.353 137.435 224.928 137.435Z" stroke="black" mask="url(#path-50-outside-1_317_4)"/>
<path d="M234.176 139.071C233.473 139.071 232.828 138.901 232.241 138.561C231.655 138.221 231.192 137.758 230.852 137.172C230.512 136.574 230.342 135.923 230.342 135.219C230.342 134.422 230.53 133.642 230.905 132.88C231.28 132.118 231.772 131.496 232.382 131.016C232.992 130.535 233.637 130.294 234.317 130.294C234.938 130.294 235.437 130.394 235.812 130.593C236.199 130.781 236.574 131.086 236.938 131.508C237.114 131.696 237.202 131.901 237.202 132.124C237.202 132.346 237.119 132.54 236.955 132.704C236.791 132.857 236.592 132.933 236.357 132.933C236.205 132.933 236.082 132.909 235.988 132.862C235.906 132.815 235.806 132.722 235.689 132.581C235.49 132.358 235.29 132.188 235.091 132.071C234.903 131.954 234.651 131.895 234.335 131.895C233.971 131.895 233.602 132.053 233.226 132.37C232.863 132.686 232.564 133.103 232.329 133.619C232.107 134.123 231.995 134.645 231.995 135.184C231.995 135.653 232.095 136.064 232.294 136.415C232.505 136.755 232.775 137.019 233.103 137.207C233.432 137.383 233.778 137.471 234.141 137.471C234.61 137.471 234.991 137.383 235.284 137.207C235.589 137.031 235.859 136.791 236.093 136.486C236.316 136.193 236.568 136.046 236.85 136.046C237.073 136.046 237.266 136.128 237.43 136.292C237.594 136.445 237.676 136.621 237.676 136.82C237.676 137.054 237.612 137.254 237.483 137.418C237.143 137.875 236.68 138.268 236.093 138.596C235.507 138.913 234.868 139.071 234.176 139.071Z" stroke="black" mask="url(#path-50-outside-1_317_4)"/>
<path d="M240.046 139.071C239.835 139.071 239.642 138.989 239.466 138.825C239.29 138.649 239.202 138.45 239.202 138.227L239.167 128.078C239.167 127.855 239.249 127.662 239.413 127.498C239.589 127.334 239.794 127.252 240.029 127.252C240.275 127.252 240.474 127.34 240.627 127.515C240.791 127.68 240.873 127.879 240.873 128.113L240.89 133.812C241.383 133.39 241.957 132.845 242.614 132.176C243.271 131.508 243.828 130.898 244.285 130.347C244.473 130.113 244.701 129.995 244.971 129.995C245.205 129.995 245.399 130.072 245.551 130.224C245.716 130.376 245.798 130.57 245.798 130.804C245.798 131.004 245.739 131.174 245.622 131.315C245.317 131.725 244.93 132.176 244.461 132.669C244.004 133.161 243.581 133.589 243.194 133.953L246.097 137.594C246.249 137.77 246.325 137.951 246.325 138.139C246.325 138.385 246.243 138.596 246.079 138.772C245.927 138.936 245.727 139.018 245.481 139.018C245.2 139.018 244.977 138.919 244.813 138.719C243.898 137.488 243.03 136.363 242.21 135.342L241.928 134.973C241.682 135.161 241.342 135.395 240.908 135.677V138.227C240.908 138.45 240.826 138.649 240.662 138.825C240.498 138.989 240.292 139.071 240.046 139.071Z" stroke="black" mask="url(#path-50-outside-1_317_4)"/>
</g>
<defs>
<clipPath id="clip0_317_4">
<rect width="720" height="517" fill="white"/>
</clipPath>
</defs>
</svg>
