<svg viewBox="0 0 16 19" fill="none" xmlns="http://www.w3.org/2000/svg">
    <g id="Frame" clip-path="url(#clip0_200_10536)">
        <g id="logos">
            <g id="1">
                <g id="Group">
                    <path id="outline"
                          d="M13.6088 9.87453L2.00012 3.08069V16.6684L13.6088 9.87453ZM15.1929 8.47016C15.6921 8.75846 16 9.29429 16 9.87453C16 10.4548 15.6921 10.9906 15.1929 11.2789L2.46615 18.7285C1.42609 19.3379 0 18.6418 0 17.3242V2.42491C0 1.1073 1.42609 0.411173 2.46615 1.02054L15.1929 8.47016Z"
                          fill="#595959"/>
                    <path id="inner-play"
                          d="M9.05095 9.55353L4.55169 6.99617C4.3744 6.8954 4.149 6.95743 4.04823 7.13471C4.01662 7.19033 4 7.2532 4 7.31717V12.4319C4 12.6358 4.16531 12.8011 4.36923 12.8011C4.4332 12.8011 4.49607 12.7845 4.55169 12.7529L9.05095 10.1955C9.22823 10.0948 9.29026 9.86936 9.18949 9.69208C9.15663 9.63426 9.10876 9.5864 9.05095 9.55353Z"
                          fill="#595959"/>
                </g>
            </g>
        </g>
    </g>
    <defs>
        <clipPath id="clip0_200_10536">
            <rect width="16" height="18.1538" fill="white" transform="translate(0 0.797607)"/>
        </clipPath>
    </defs>
</svg>
