<svg xmlns="http://www.w3.org/2000/svg" viewBox="0 0 517 517">
  <path d="M148.978261,223 C157.702942,197.864308 173.594088,178.070248 196.652174,163.617225 C219.71026,149.164202 244.949138,142.566182 272.369565,143.822967 L464,154.191388 C443.43468,112.717496 413.210344,80.3557781 373.326087,57.1052632 C337.180979,36.3683174 298.232093,26 256.478261,26 C222.202727,26 189.174072,33.5405944 157.391304,48.6220096 C125.608537,63.7034247 98.8117033,85.0684423 77,112.717703 L148.978261,223 Z M210.460797,185.647248 C192.390229,196.974049 180.311321,212.019574 173.540681,231.525697 L156.165766,281.582597 L45.0157036,111.282787 L56.5870673,96.6145304 C77,67 110.845026,41.9302751 146.245114,25.1323854 C181.48798,8.40910034 218.320789,2.84217094e-14 256.478261,2.84217094e-14 C302.7696,2.84217094e-14 346.179539,11.5558638 386.26453,34.5531749 L386.420303,34.643262 C430.70158,60.4570178 464.470477,96.613959 487.293536,142.641012 L507.088217,182.560763 L271.077218,169.791072 C248.969525,168.796621 228.997815,174.028073 210.460797,185.647248 Z M179,258.5 C179,280.305665 186.583257,298.840201 201.75,314.104167 C216.916743,329.368132 235.333225,337 257,337 C278.666775,337 297.083257,329.368132 312.25,314.104167 C327.416743,298.840201 335,280.305665 335,258.5 C335,236.694335 327.416743,218.159799 312.25,202.895833 C297.083257,187.631868 278.666775,180 257,180 C235.333225,180 216.916743,187.631868 201.75,202.895833 C186.583257,218.159799 179,236.694335 179,258.5 Z M153,258.5 C153,229.852917 163.281615,204.723219 183.306581,184.569888 C203.363454,164.384445 228.422187,154 257,154 C285.577813,154 310.636546,164.384445 330.693419,184.569888 C350.718385,204.723219 361,229.852917 361,258.5 C361,287.147083 350.718385,312.276781 330.693419,332.430112 C310.636546,352.615555 285.577813,363 257,363 C228.422187,363 203.363454,352.615555 183.306581,332.430112 C163.281615,312.276781 153,287.147083 153,258.5 Z M474.853472,175 L345.014155,181.535459 C362.450697,202.075574 371.4802,225.883078 372.102934,252.958684 C372.725667,280.034291 365.564338,305.086631 350.61873,328.116458 L246,489.635648 C292.08229,492.125359 335.050267,481.855455 374.905221,458.825629 C407.910104,439.530369 434.375888,414.322424 454.303364,383.201037 C474.230841,352.07965 486.062603,318.157847 489.799005,281.434611 C493.535407,244.711374 488.553612,209.233526 474.853472,175 Z M498.992229,163.339752 C514.252679,201.472134 519.826709,243.167589 515.665464,284.066391 C511.516375,324.845732 498.323986,362.668468 476.199293,397.221319 C454.034628,431.836595 424.551045,459.918914 388.027382,481.271317 L387.913506,481.337504 C343.688258,506.892666 295.71279,518.359425 244.597331,515.597784 C234.111619,515.017204 226.412508,514.484609 221.5,514 C216.451967,513.502022 209.210265,512.560735 199.774894,511.17614 L224.177729,475.500992 L328.808912,313.962595 C340.919164,295.301795 346.611904,275.386991 346.109808,253.556521 C345.623888,232.429404 338.768002,214.352932 325.192996,198.361678 L291.112965,158.215657 L492.092679,148.099349 L498.992229,163.339752 Z M151.164835,304.409449 L63.3626374,132 C38.4540879,170.729852 26,213.207118 26,259.433071 C26,297.538248 34.5621854,332.988025 51.6868132,365.783465 C68.8114409,398.578904 92.3185319,425.908027 122.208791,447.771654 C152.099051,469.63528 185.413736,483.377925 222.153846,489 L281,371.874016 C254.846023,376.871416 229.782171,372.967256 205.807692,360.161417 C181.833213,347.355579 163.61911,328.771775 151.164835,304.409449 Z M218.057469,337.227971 C236.816942,347.248242 255.839072,350.211292 276.120302,346.336033 L327.898486,336.442459 L239.5,516.5 L218.221032,514.700836 C177.355565,508.447487 140.123952,493.08907 106.858867,468.756883 C73.751295,444.53991 47.6102266,414.148549 28.6396328,377.817893 C9.56006483,341.27854 0,301.697272 0,259.433071 C0,208.224931 13.8857111,160.864816 41.4947679,117.935993 L70.5,79.5 L174.323887,292.591717 C184.366407,312.22854 198.77799,326.929941 218.057469,337.227971 Z"/>
</svg>
