<svg xmlns="http://www.w3.org/2000/svg" viewBox="0 0 512 512">
  <path d="M75,512 L242,512 L242,330 L182,330 L182,270 L242,270 L242,195 C242,153.644531 275.644531,120 317,120 L392,120 L392,180 L332,180 C315.457031,180 302,193.457031 302,210 L302,270 L389.292969,270 L379.292969,330 L302,330 L302,512 L437,512 C478.355469,512 512,478.355469 512,437 L512,75 C512,33.644531 478.355469,0 437,0 L75,0 C33.644531,0 0,33.644531 0,75 L0,437 C0,478.355469 33.644531,512 75,512 Z M30,75 C30,50.1875 50.1875,30 75,30 L437,30 C461.8125,30 482,50.1875 482,75 L482,437 C482,461.8125 461.8125,482 437,482 L332,482 L332,360 L404.707031,360 L424.707031,240 L332,240 L332,210 L422,210 L422,90 L317,90 C259.101562,90 212,137.101562 212,195 L212,240 L152,240 L152,360 L212,360 L212,482 L75,482 C50.1875,482 30,461.8125 30,437 L30,75 Z"/>
</svg>
