<svg xmlns="http://www.w3.org/2000/svg" viewBox="0 0 497 497">
  <path d="M248.5,0 C111.25716,0 0,111.25716 0,248.5 C0,385.74284 111.25716,497 248.5,497 C385.74284,497 497,385.74284 497,248.5 C497,111.25716 385.74284,0 248.5,0 Z M248.5,461.500224 C130.853663,461.500224 35.4997763,366.147903 35.4997763,248.5 C35.4997763,130.852097 130.853663,35.4997763 248.5,35.4997763 C366.146337,35.4997763 461.500224,130.852097 461.500224,248.5 C461.500224,366.147903 366.146337,461.500224 248.5,461.500224 Z M201.320915,216.017118 C200.184296,217.579577 198.942782,218.999568 197.948632,220.702931 C190.884685,232.914541 189.358234,246.760628 192.375128,259.504539 L155.312891,401.007352 L251.199079,299.832598 C266.961449,297.667386 281.587201,288.721599 290.177599,273.91737 C292.236351,270.332167 293.728359,266.604495 294.899421,262.806371 L301.750447,266.250671 L341.688674,78.2075337 L195.251118,213.001789 L201.320915,216.017118 Z M228.690577,238.417594 C230.146576,235.896992 232.205329,234.05116 234.477001,232.595161 L261.456831,246.085859 C261.70576,249.528593 261.279919,253.008902 259.434088,256.202708 C254.535353,264.686646 243.671717,267.598645 235.18778,262.699911 C226.702276,257.765168 223.791843,246.93754 228.690577,238.417594 Z"/>
</svg>
