<svg xmlns="http://www.w3.org/2000/svg" viewBox="0 0 419 519">
  <path d="M271.926,51.6604727 C315.8517,74.3725266 345.9909,120.142411 346,172.900619 C346,177.932577 341.9232,182 336.9,182 L82.1,182 C77.0768,182 73,177.932577 73,172.900619 C73,120.133311 103.1483,74.3634272 147.074,51.6604727 L124.3513,13.7888508 C121.7669,9.47574437 123.1592,3.8887247 127.4726,1.30450062 C131.786,-1.27972347 137.3734,0.103382381 139.9578,4.42558815 L163.9363,44.3900676 C178.2142,39.3126133 193.5022,36.4008115 209.5,36.4008115 C225.4978,36.4008115 240.7858,39.3126133 255.0637,44.3900676 L279.0422,4.42558815 C281.6266,0.103382381 287.2049,-1.28882285 291.5274,1.30450062 C295.8408,3.8887247 297.2331,9.47574437 294.6487,13.7888508 L271.926,51.6604727 Z M91.5458,163.801239 L327.4542,163.801239 C322.795,102.808091 271.6712,54.608672 209.5,54.608672 C147.3288,54.608672 96.205,102.808091 91.5458,163.801239 Z M273.993174,104 C277.30603,104 280,106.685888 280,110 L280,122 C280,125.314112 277.315131,128 274.002275,128 L261.997725,128 C258.684869,128 256,125.314112 256,122 L256,110 C256,106.685888 258.684869,104 261.997725,104 L273.993174,104 Z M157.002275,104 C160.315131,104 163,106.685888 163,110 L163,122 C163,125.314112 160.315131,128 157.002275,128 L144.997725,128 C141.684869,128 139,125.314112 139,122 L139,110 C139,106.685888 141.684869,104 144.997725,104 L157.002275,104 Z M336.9,191 C341.9323,191 346,195.072667 346,200.111111 L346,383.891333 C346,408.154222 326.2712,427.888889 302.0106,427.888889 L291.4,427.888889 L291.4,482.610222 C291.4,502.672889 275.0746,519 255,519 C234.9254,519 218.6,502.672889 218.6,482.610222 L218.6,427.888889 L200.4,427.888889 L200.4,482.610222 C200.4,502.672889 184.0746,519 164,519 C143.9254,519 127.6,502.672889 127.6,482.610222 L127.6,427.888889 L116.9894,427.888889 C92.7379,427.888889 73,408.154222 73,383.891333 L73,200.111111 C73,195.072667 77.0768,191 82.1,191 L336.9,191 Z M327.8,383.891333 L327.8,209.222222 L91.2,209.222222 L91.2,383.891333 C91.2,398.095556 102.7752,409.666667 116.9985,409.666667 L136.7,409.666667 C141.7232,409.666667 145.8,413.739333 145.8,418.777778 L145.8,482.610222 C145.8,492.623333 153.9627,500.777778 164,500.777778 C174.0373,500.777778 182.2,492.632444 182.2,482.610222 L182.2,418.777778 C182.2,413.739333 186.2768,409.666667 191.3,409.666667 L227.7,409.666667 C232.7232,409.666667 236.8,413.739333 236.8,418.777778 L236.8,482.610222 C236.8,492.623333 244.9627,500.777778 255,500.777778 C265.0373,500.777778 273.2,492.632444 273.2,482.610222 L273.2,418.777778 C273.2,413.739333 277.2768,409.666667 282.3,409.666667 L302.0106,409.666667 C316.2339,409.666667 327.8,398.104667 327.8,383.891333 Z M387.5,191 C404.87,191 419,205.297714 419,222.869714 L419,350.130286 C419,367.702286 404.87,382 387.5,382 C370.13,382 356,367.702286 356,350.130286 L356,222.869714 C356,205.297714 370.13,191 387.5,191 Z M401,350.130286 L401,222.869714 C401,215.329762 394.943,209.190476 387.5,209.190476 C380.057,209.190476 374,215.329762 374,222.869714 L374,350.130286 C374,357.670238 380.057,363.809524 387.5,363.809524 C394.943,363.809524 401,357.670238 401,350.130286 Z M31.5,191 C48.87,191 63,205.297714 63,222.869714 L63,350.130286 C63,367.702286 48.87,382 31.5,382 C14.13,382 0,367.702286 0,350.130286 L0,222.869714 C0,205.297714 14.13,191 31.5,191 Z M45,350.130286 L45,222.869714 C45,215.329762 38.943,209.190476 31.5,209.190476 C24.057,209.190476 18,215.329762 18,222.869714 L18,350.130286 C18,357.670238 24.057,363.809524 31.5,363.809524 C38.943,363.809524 45,357.670238 45,350.130286 Z"/>
</svg>
