<?xml version="1.0" encoding="UTF-8"?>
<svg version="1.1" viewBox="0 0 204.7 200.9" xmlns="http://www.w3.org/2000/svg">
 <title>Fedora logo (2021)</title>
 <path d="m102.7 1.987c-55.41 0-100.3 44.21-100.4 98.79h-0.01773v76.47h0.01773c0.02659 12.38 10.22 22.4 22.8 22.4h77.58c55.42-0.0349 100.3-44.24 100.3-98.79 8e-5 -54.58-44.91-98.79-100.4-98.79zm20.39 40.68c16.85 0 32.76 12.7 32.76 30.23 0 1.625 0.01 3.252-0.26 5.095-0.4668 4.662-4.794 8.012-9.505 7.355-4.711-0.6649-7.909-5.07-7.037-9.679 0.0799-0.526 0.1083-1.352 0.1083-2.772 0-9.938-8.257-13.77-16.06-13.77-7.805 0-14.84 6.462-14.85 13.77 0.1349 8.455 0 16.84 0 25.29l14.49-0.1067c11.31-0.2306 11.44 16.54 0.1305 16.46l-14.61 0.1067c-0.0354 6.801 0.0532 5.571 0.0178 8.996 0 0 0.1225 8.318-0.1296 14.62-1.749 18.52-17.76 33.32-37 33.32-20.4 0-37.2-16.41-37.2-36.54 0.6124-20.7 17.38-36.99 38.5-36.8l11.78-0.08737v16.43l-11.78 0.1066h-0.06216c-11.6 0.3382-21.55 8.1-21.74 20.34 0 11.15 9.148 20.08 20.5 20.08 11.34 0 20.42-8.124 20.42-20.06l-0.01772-62.23c0.0058-1.155 0.04435-2.073 0.1731-3.347 1.914-15.22 15.74-26.82 31.39-26.82z" />
</svg>
