<svg xmlns="http://www.w3.org/2000/svg" viewBox="0 0 423 512">
  <path fill-rule="evenodd" d="M182,123.062501 C182,121.812495 183.03895,120.875005 185.116883,120.250002 C187.887459,118.999997 189.792201,118.6875 190.831168,119.312503 C191.870134,119.937505 192.21645,120.40625 191.870128,120.718752 C191.523806,121.031253 190.658014,121.499998 189.272726,122.125001 L187.194804,123.062501 C186.50216,123.687503 185.46321,124 184.077922,124 C182.692634,124 182,123.687503 182,123.062501 Z M205.688313,122.125001 L204.129872,120.718752 C203.78355,120.40625 204.129866,119.937505 205.168832,119.312503 C206.207799,118.6875 208.112541,118.999997 210.883117,120.250002 C212.96105,120.875005 214,121.656247 214,122.593751 C214,123.531255 213.307366,124 211.922078,124 C210.53679,124 209.49784,123.687503 208.805196,123.062501 L207.766235,122.125001 L205.688313,122.125001 Z M423,432.879217 C422.333461,440.210542 417.667761,446.542045 409.002758,451.873917 C405.670065,453.206885 400.6711,455.872781 394.005713,459.871686 C376.009169,467.869494 364.011653,475.867183 358.012805,483.864991 L355.013396,481.865549 L358.012805,483.864991 C343.348954,501.193576 327.019002,510.524213 309.022458,511.857181 C301.023994,512.523665 293.358914,510.85748 286.026989,506.858575 C278.695064,502.859671 273.02957,496.861405 269.030338,488.863596 C268.363799,486.864144 267.697271,484.531485 267.030732,481.865549 C259.032268,482.532033 248.367809,481.865559 235.037036,479.866107 C223.705879,477.866655 216.040799,477.200181 212.041567,477.866665 C204.043103,478.533149 194.045173,479.866097 182.047477,481.865549 C173.382474,483.865001 167.050452,484.864712 163.05122,484.864712 C158.385449,495.528457 149.720577,502.193197 137.056342,504.859133 C120.392875,508.858037 101.730073,505.19243 81.0673741,493.862202 L83.0669801,490.863038 L81.0673741,493.862202 C73.0689101,489.863297 59.4050724,486.530927 40.0754511,483.864991 C32.0769871,483.198507 26.0782291,482.532033 22.0789971,481.865549 C12.0809171,479.866097 5.41563042,475.534016 2.08293709,468.869175 C-1.24975624,462.204335 -0.58322757,451.873987 4.08254309,437.877822 C5.41562042,434.545402 5.41562042,428.213899 4.08254309,418.883122 L3.08274009,416.88368 C2.41620143,411.551808 2.08293709,407.552964 2.08293709,404.887028 C2.08293709,400.221639 3.08273009,396.222795 5.08234609,392.890375 C8.41503942,386.225535 14.4137974,381.226979 23.0788001,377.894559 L26.0782091,376.894838 C33.4101344,374.895386 38.4090994,372.562727 41.0752541,369.896791 L47.0740721,361.899022 C51.0733041,355.900666 54.4059474,351.901822 57.0721021,349.90237 C54.4059474,333.906753 56.4055334,316.245191 63.0709201,296.917154 C73.0690001,266.258888 92.3983314,233.934897 121.059494,199.944211 C129.057958,189.280467 134.723452,178.616882 138.056145,167.953137 C141.388838,158.622361 143.388424,147.625539 144.054963,134.962343 C144.054963,131.629922 143.721699,125.298419 143.05516,115.967642 C141.722083,95.3066374 141.722083,78.9780234 143.05516,66.9813107 C145.054776,46.9867897 151.386798,31.6578868 162.051417,20.9941422 C175.38219,6.99797741 195.37805,0 222.039597,0 C245.36845,0 263.364724,7.33121443 276.028959,21.9938632 C286.027039,33.9905759 292.692326,50.6524269 296.025019,71.979916 C297.358096,84.6431127 298.024625,102.637912 298.024625,125.964853 L298.024625,130.963458 C297.358086,144.293139 300.357465,157.289383 307.022852,169.952579 C311.688623,177.283904 319.353702,187.947489 330.018321,201.943653 L331.018124,202.943374 C353.0139,229.602736 368.677324,254.595512 378.008865,277.922454 C388.673484,305.914783 389.673277,332.240508 381.008274,356.900417 L385.007486,358.899859 L389.006698,361.899022 C393.672469,365.231442 397.338376,372.562657 400.004531,383.892885 L400.004531,384.892607 C402.670686,394.889867 405.003536,401.22137 407.003152,403.887307 C417.667771,415.884019 422.666736,425.547893 422.000197,432.879217 L423,432.879217 Z M207.574007,108 C212.931377,109.33334 217.284174,110.99999 220.63253,113 C219.293188,106.99997 219.962849,101.500025 222.641534,96.5 C225.320219,91.499975 228.668525,89.166665 232.686552,89.5 C236.704579,89.833335 239.718055,92.99997 241.727068,99 C243.736082,105.00003 243.736082,110.99997 241.727068,117 L237.709061,121 C243.736102,123.00001 247.754069,124.66666 249.763083,126 C254.450781,121.33331 257.129426,115.166705 257.799097,107.5 C258.468768,99.833295 257.464277,92.6667 254.785592,86 C249.428222,75.33328 241.894534,70 232.184301,70 C222.474068,70 215.275211,75.33328 210.587512,86 C207.239156,93.33337 206.234664,100.66663 207.574007,108 Z M161.849081,127 C162.515949,126.33333 163.682951,125.33334 165.350121,124 L167.850863,122 L167.850863,121 C163.849655,117.66665 162.015796,112.33337 162.34923,105 C162.682664,97.66663 164.683238,93.833335 168.351011,93.5 C172.018785,93.166665 174.852931,95.166645 176.853535,99.5 C178.854139,103.833355 179.520997,108.33331 178.854129,113 C181.521601,110.99999 184.855891,109.33334 188.857098,108 C189.523966,98.66662 187.856821,90.833365 183.855614,84.5 C179.854406,78.166635 175.019686,75 169.351308,75 C163.682931,75 159.18164,78.3333 155.8473,85 C152.51296,91.6667 151.345959,99.166625 152.346261,107.5 C153.346563,115.833375 156.514138,122.33331 161.849081,127 Z M151.499826,148.866424 C153.499117,154.18053 158.497269,159.16243 166.494434,163.812272 C168.493725,165.140799 171.492616,167.631748 175.491198,171.285196 C179.48978,174.938644 182.988487,177.429594 185.987423,178.75812 C188.98636,180.086646 192.485067,180.7509 196.483649,180.7509 C201.815091,181.415163 206.813244,180.75091 211.478256,178.75812 C214.143978,177.429594 217.975895,175.27077 222.974122,172.281586 C227.97235,169.292401 231.804267,167.133578 234.469988,165.805052 C246.465734,162.483736 253.962963,156.67152 256.961899,148.36823 C259.960836,140.064939 256.462129,133.920597 246.465674,129.935017 L234.469988,125.949458 C229.804976,123.956668 226.139664,122.296035 223.473942,120.967509 C214.143918,114.98914 205.313848,112 196.983469,112 C188.65309,112 180.15623,116.317646 171.492636,124.953068 L155.498388,135.913356 C151.499806,139.234673 150.166965,143.552319 151.499826,148.866424 Z M118.040323,401.401 L98.1139943,365.375316 C91.4718515,356.035277 84.4977063,350.698192 77.1913493,349.363901 C69.8849923,348.029609 63.9071535,350.364584 59.2576536,356.368895 L52.2834386,364.374602 C48.9623672,369.044622 46.30555,372.3803 44.3129071,374.381737 C40.3276215,377.717465 35.3460892,380.386007 29.3681607,382.387444 L25.382895,384.388871 C18.076538,387.057454 13.2610567,390.559916 10.9363068,394.896362 C8.61155681,399.232809 8.11340358,406.070949 9.44183213,415.410988 L9.44183213,418.413128 C11.4344749,427.753167 11.7665771,434.758091 10.4381486,439.42811 C5.78864864,452.103877 4.79234218,461.110208 7.44919927,466.447373 C9.44184209,469.783101 13.427068,472.118076 19.4049964,473.452367 C22.7260678,474.786659 29.3681109,476.12093 39.331325,477.455221 C59.2577532,479.456658 73.870248,482.792336 83.1692478,487.462355 C100.438819,496.802394 116.711825,500.47164 131.988753,498.470203 C148.59411,495.801621 157.560868,486.128154 158.889296,469.449514 C159.553511,464.112349 157.228796,457.107424 151.915081,448.434531 C148.59401,443.764512 142.948273,436.092452 134.977702,425.418122 C125.678702,414.076646 120.032966,406.071019 118.040323,401.401 Z M272.280003,436.252378 L272.280003,435.251483 C276.275279,421.90615 278.272887,412.564557 278.272887,407.226424 C279.604645,388.542958 281.269318,375.531454 283.266956,368.191521 C286.596353,353.511655 293.587981,344.170062 304.24205,340.166462 C306.239688,321.482996 318.891205,317.479456 342.19698,328.155722 C352.18517,332.159322 359.01033,336.162862 362.672667,340.166462 C366.335003,344.170062 367.167339,348.840858 365.169701,354.178991 L370.163771,354.178991 C374.159047,340.833658 363.838073,329.156667 339.200538,319.147668 C341.864056,307.804135 341.697588,296.127144 338.701131,284.116344 C335.704675,272.105545 330.544187,260.428554 323.219515,249.085021 C317.226601,239.076021 310.567908,230.735313 303.243236,224.062647 C300.579718,224.062647 301.578522,226.398045 306.239678,231.068912 C314.896109,239.076111 321.887736,250.085846 327.214771,264.098445 C334.539443,282.781911 335.205313,300.130584 329.212399,316.144983 C325.217123,314.81045 321.554842,314.143193 318.225445,314.143193 C314.896049,293.457927 307.238551,272.105715 295.252724,250.085916 C288.593931,238.742383 281.935238,223.729109 275.276445,205.045643 C267.285893,185.69491 261.293069,168.679866 257.297793,154 C252.636638,160.672666 245.312076,165.677091 235.323886,169.013424 C233.326248,169.680691 229.996902,171.348833 225.335746,174.017899 L219.342863,178.021479 C212.01819,182.025079 204.693628,184.026849 197.368956,184.026849 C190.044283,184.026849 183.38559,181.69145 177.392676,177.020584 L172.398606,173.017004 C169.06921,169.680671 166.405733,167.678901 164.408095,167.011634 L158.415211,162.00716 C157.749332,176.019759 153.754116,192.701175 146.429443,212.051907 C142.434168,223.39544 135.775474,239.075971 126.453164,259.09397 L119.461466,275.10829 C110.805035,295.793556 106.14395,316.478511 105.478071,337.163777 C96.1557605,324.485711 92.826414,309.138808 95.4899312,291.122609 C97.4875691,279.111809 101.81572,266.767562 108.474513,254.089496 C116.465064,238.075096 119.128542,231.068902 116.465024,233.070702 C101.81568,257.092301 92.8264439,277.11 89.4970474,293.124399 C86.1676509,305.802465 86.1676509,317.479456 89.4970474,328.155722 C93.4923232,340.166522 101.81569,350.175371 114.467396,358.182571 L128.450792,367.190626 C139.104861,375.197825 147.095293,382.871277 152.422327,390.21121 C159.746999,400.220209 162.244009,408.394103 159.913432,414.733136 C157.582854,421.072169 152.089432,424.241638 143.433001,424.241638 C150.091795,432.248838 154.75288,438.921404 157.416397,444.259537 C175.395138,456.270337 195.371218,460.941133 217.345235,458.272067 C235.989855,456.270267 254.301262,448.930444 272.280003,436.252378 Z M401.026651,407.934297 C397.699647,404.604659 394.871735,397.612525 392.542832,386.957683 C390.213929,376.302842 387.552365,369.643665 384.558061,366.979955 C381.563757,364.316245 378.569498,362.651451 375.575194,361.985523 C372.58089,361.319596 368.422197,361.319596 363.09899,361.985523 L361.102797,361.985523 C357.110392,366.647016 351.288221,370.809001 343.636111,374.471603 C335.984001,378.134205 329.330091,379.299561 323.674184,377.967705 C318.018276,376.63585 313.526887,373.139783 310.199883,367.479398 C306.872879,361.819014 304.876706,355.659276 304.211305,349 L303.213209,349 C296.5592,352.329638 291.901463,359.321773 289.23986,369.976614 C287.909058,377.301818 286.578276,390.287211 285.247474,408.933184 C285.247474,414.260604 283.251301,423.583451 279.258896,436.902003 L275.266511,449.887526 C271.274105,465.203861 270.94141,477.190377 274.268414,485.847436 C281.587824,499.831916 293.065817,506.158133 308.702738,504.826278 C324.339659,503.494423 338.811912,495.170452 352.11993,479.854118 C356.777736,473.860769 362.766254,468.533429 370.085664,463.871936 C374.74347,460.542298 381.39738,456.879751 390.047591,452.884185 C398.697803,448.88862 404.353626,445.89199 407.015229,443.894208 C411.673035,440.56457 414.334599,436.902023 415,432.906457 C415,426.913109 410.342264,418.922098 401.026651,408.933184 L401.026651,407.934297 Z M159.622657,148.178012 C158.290508,146.858634 157.457927,145.374356 157.12489,143.725133 C156.791852,142.07591 157.124885,141.251311 158.123997,141.251311 C159.123109,141.251311 160.288722,142.24083 161.620871,144.219898 L162.619978,146.198955 L170.612833,153.125656 C178.605728,159.722547 186.598503,163.020943 194.591398,163.020943 C202.584293,163.020943 212.575262,159.392707 224.564604,152.136127 C227.228903,151.476438 230.892258,149.167561 235.55478,145.209426 L238.552101,143.230369 C239.88425,142.57068 241.049863,141.416241 242.048975,139.767018 C243.048087,138.117796 243.880667,137.623036 244.546742,138.282725 C247.21104,138.282725 246.211943,140.426683 241.549421,144.714662 C236.886899,149.002641 231.891415,152.465957 226.562818,155.104713 C213.241326,161.701604 202.917325,165 195.590505,165 C186.265461,165 176.940556,161.701604 167.615512,155.104713 L160.621764,148.178012 L159.622657,148.178012 Z"/>
</svg>
