<svg xmlns="http://www.w3.org/2000/svg" viewBox="0 0 568 580">
  <path d="M175.689724,260.337524 C175.689724,219.076733 195.00368,182.345027 225,158.697226 L179.088609,85 C140.611807,112.714669 111.659222,152.828034 98,199.521779 C119.383077,213.324448 133.563627,237.442044 133.563627,264.852537 C133.563627,291.290965 120.457034,314.599951 100.33788,328.62994 C115.023567,372.859967 143.641553,410.722861 180.972081,437 L223.670236,360.839055 C194.414353,337.199914 175.689724,300.958571 175.689724,260.337524 Z M198.689724,260.337524 C198.689724,292.86808 213.357449,322.936331 238.125464,342.949215 L253.226874,355.151355 L188.572133,470.47639 L167.733203,455.807767 C126.044811,426.463107 94.621753,384.40366 78.5096433,335.877566 L73.0997607,319.584201 L87.1818851,309.764104 C101.749396,299.605524 110.563627,283.038273 110.563627,264.852537 C110.563627,246.020453 101.008901,228.839457 85.5265291,218.845663 L71.1062511,209.537446 L75.9251171,193.06426 C90.8869654,141.917515 122.614161,97.3329445 165.645968,66.3373258 L185.604427,51.9613371 L255.408949,164.011954 L239.239387,176.759337 C213.817008,196.801241 198.689724,227.303478 198.689724,260.337524 Z M112,264.991858 C112,234.0849 86.8991523,209 55.9983723,209 C25.0824008,209 0,234.0849 0,264.991858 C0,295.9151 25.0824008,321 55.9983723,321 C86.8991523,321 112,295.914015 112,264.991858 Z M135,264.991858 C135,308.610955 99.6073116,344 55.9983723,344 C12.3784243,344 -23,308.616223 -23,264.991858 C-23,221.380225 12.3819771,186 55.9983723,186 C99.6040644,186 135,221.384711 135,264.991858 Z M425.474793,400.01028 C438.449159,400.01028 450.66357,403.182416 461.396988,408.814685 C494.826357,373.602467 516.427239,327.139755 520,275.675743 L433.35865,274 C426.687694,338.945588 371.790408,389.542016 305.066796,389.542016 C286.598702,389.542016 268.973801,385.658959 253.068798,378.63726 L210,453.947391 C238.711811,468.0675 270.943414,476 305.065715,476 C319.791329,476 334.232635,474.51009 348.148567,471.671807 C351.117039,431.618192 384.597217,400.01028 425.474793,400.01028 Z M425.474793,423.01028 C396.875626,423.01028 373.181484,445.092765 371.08566,473.371732 L369.799235,490.72947 L352.745,494.20784 C337.17545,497.383394 321.191911,499 305.065715,499 C268.123961,499 232.364338,490.576757 199.84991,474.586569 L177.880162,463.782122 L243.394085,349.224428 L262.357823,357.596489 C275.651097,363.465169 290.137282,366.542016 305.066796,366.542016 C359.527896,366.542016 404.964783,325.334258 410.47903,271.649895 L412.641705,250.595009 L544.619317,253.147608 L542.944775,277.268627 C539.07713,332.980315 515.959621,384.747661 478.077234,424.650385 L466.106069,437.259993 L450.709936,429.181004 C443.016497,425.143937 434.440815,423.01028 425.474793,423.01028 Z M481,478.008685 C481,447.068859 455.940555,422 425.009227,422 C394.0779,422 369,447.068859 369,478.008685 C369,508.924628 394.0779,534 425.009227,534 C455.940555,534 481,508.924628 481,478.008685 Z M504,478.008685 C504,521.631549 468.638734,557 425.009227,557 C381.378546,557 346,521.630372 346,478.008685 C346,434.368739 381.37292,399 425.009227,399 C468.644358,399 504,434.367562 504,478.008685 Z M467.464015,119.597739 C454.824942,128.518056 439.3565,133.797537 422.654133,133.797537 C379.751423,133.797537 345.014266,99.1669876 345.014266,56.4338258 C345.014266,54.1641019 345.116011,51.9688129 345.284864,49.7659725 C332.242059,47.2772591 318.76305,46 304.996126,46 C270.512249,46 237.900907,54.0885883 209,68.4135234 L251.870238,143.657459 C268.083365,136.377946 286.0662,132.28295 304.996126,132.28295 C371.213527,132.28295 425.791983,181.986019 433.249653,246 L520,243.360259 C516.16942,196.155612 496.987297,153.276817 467.464015,119.597739 Z M484.759506,104.436407 C518.222358,142.609602 538.775144,190.365231 542.924644,241.499962 L544.881441,265.613784 L412.847179,269.631476 L410.404164,248.661514 C404.235215,195.709451 359.00665,155.28295 304.996126,155.28295 C289.759491,155.28295 274.959178,158.502717 261.29098,164.639586 L242.229746,173.197868 L176.953244,58.6274555 L198.785749,47.8060227 C231.527155,31.577518 267.692942,23 304.996126,23 C320.134747,23 335.059416,24.3998832 349.595746,27.1735779 L369.788749,31.0266292 L368.217591,51.5238201 C368.081084,53.304668 368.014266,54.8951989 368.014266,56.4338258 C368.014266,86.4526933 392.442313,110.797537 422.654133,110.797537 C434.129779,110.797537 445.041917,107.271218 454.201673,100.80651 L471.114071,88.8701953 L484.759506,104.436407 Z M478,56.0048841 C478,25.0790654 452.985042,0 422.015744,0 C391.08119,0 365.998914,25.0790654 366,56.0048841 C366,86.928532 391.082276,112 422.016829,112 C452.986127,112 478,86.928532 478,56.0048841 Z M501,56.0048841 C501,99.6447245 465.675053,135 422.016829,135 C378.381416,135 343,99.6327719 343,56.0056916 C342.998468,12.3753635 378.37997,-23 422.015744,-23 C465.674028,-23 501,12.3629272 501,56.0048841 Z" transform="translate(23 23)"/>
</svg>
