<svg xmlns="http://www.w3.org/2000/svg" viewBox="0 0 27.3 21.7"><g id="Layer_2" data-name="Layer 2"><g id="Layer_1-2" data-name="Layer 1"><g id="Symbols"><g id="Watch-Sessions"><g id="tv-alt"><path id="Combined-Shape" d="M22.86,20.34a.34.34,0,0,1,.34.34h0v.68a.34.34,0,0,1-.34.34H4.44a.35.35,0,0,1-.35-.34h0v-.68a.35.35,0,0,1,.35-.34H22.86ZM25.93,0A1.36,1.36,0,0,1,27.3,1.36h0V16.27a1.36,1.36,0,0,1-1.37,1.36H1.37A1.36,1.36,0,0,1,0,16.27H0V1.36A1.36,1.36,0,0,1,1.37,0H25.93Zm0,1.36H1.37V16.27H25.93ZM12.5,6.24a1,1,0,0,1,.5.14l3,1.76a1,1,0,0,1,.36,1.36,1,1,0,0,1-.36.36l-3,1.76a1,1,0,0,1-1.36-.36,1,1,0,0,1-.14-.5V7.24A1,1,0,0,1,12.5,6.24Z"/></g></g></g></g></g></svg>