<svg xmlns="http://www.w3.org/2000/svg" fill="none" viewBox="0.11 0.18 40.55 40.27">
    <path d="M1.11279 0.182831C0.560508 0.182831 0.112793 0.630546 0.112793 1.18283C0.112793 1.73512 0.560508 2.18283 1.11279 2.18283L1.11279 0.182831ZM32.5924 40.1554C32.9829 40.5459 33.6161 40.5459 34.0066 40.1554L40.3706 33.7914C40.7611 33.4009 40.7611 32.7677 40.3706 32.3772C39.98 31.9867 39.3469 31.9867 38.9564 32.3772L33.2995 38.0341L27.6426 32.3772C27.2521 31.9867 26.619 31.9867 26.2284 32.3772C25.8379 32.7677 25.8379 33.4009 26.2284 33.7914L32.5924 40.1554ZM1.11279 2.18283C9.04936 2.18283 14.9162 3.5514 19.2628 5.7905C23.5955 8.02247 26.4705 11.1461 28.3935 14.7581C32.2781 22.0548 32.2995 31.3525 32.2995 39.4483H34.2995C34.2995 31.4709 34.3209 21.6359 30.1589 13.8182C28.0584 9.87288 24.8985 6.44392 20.1787 4.01254C15.4727 1.5883 9.26958 0.182831 1.11279 0.182831L1.11279 2.18283Z" fill="black"/>
</svg>
