<svg viewBox="0 0 27 27" xmlns="http://www.w3.org/2000/svg">
<path fill-rule="evenodd" clip-rule="evenodd" d="M9.80392 17.1429C9.64551 16.9846 9.43069 16.8956 9.2067 16.8956C8.98271 16.8956 8.76789 16.9846 8.60948 17.1429L1.68946 24.0629V19.3865C1.68946 19.1625 1.60046 18.9476 1.44204 18.7892C1.28363 18.6308 1.06876 18.5418 0.844729 18.5418C0.620693 18.5418 0.405833 18.6308 0.247415 18.7892C0.088998 18.9476 0 19.1625 0 19.3865V26.1021C0 26.3262 0.088998 26.541 0.247415 26.6994C0.405833 26.8579 0.620693 26.9469 0.844729 26.9469H7.56032C7.78436 26.9469 7.99922 26.8579 8.15764 26.6994C8.31605 26.541 8.40505 26.3262 8.40505 26.1021C8.40505 25.8781 8.31605 25.6632 8.15764 25.5048C7.99922 25.3464 7.78436 25.2574 7.56032 25.2574H2.8839L9.80392 18.3374C9.96229 18.179 10.0512 17.9641 10.0512 17.7402C10.0512 17.5162 9.96229 17.3013 9.80392 17.1429ZM17.1429 9.80392C17.3013 9.96229 17.5162 10.0512 17.7402 10.0512C17.9641 10.0512 18.179 9.96229 18.3374 9.80392L25.2574 2.8839V7.56032C25.2574 7.78436 25.3464 7.99922 25.5048 8.15764C25.6632 8.31605 25.8781 8.40505 26.1021 8.40505C26.3262 8.40505 26.541 8.31605 26.6994 8.15764C26.8579 7.99922 26.9469 7.78436 26.9469 7.56032V0.844729C26.9469 0.620693 26.8579 0.405833 26.6994 0.247415C26.541 0.088998 26.3262 0 26.1021 0H19.3865C19.1625 3.3384e-09 18.9476 0.088998 18.7892 0.247415C18.6308 0.405833 18.5418 0.620693 18.5418 0.844729C18.5418 1.06876 18.6308 1.28363 18.7892 1.44204C18.9476 1.60046 19.1625 1.68946 19.3865 1.68946H24.0629L17.1429 8.60948C16.9846 8.76789 16.8956 8.98271 16.8956 9.2067C16.8956 9.43069 16.9846 9.64551 17.1429 9.80392Z" />
</svg>
