<svg viewBox="0 0 17 17" xmlns="http://www.w3.org/2000/svg">
<g clip-path="url(#clip0_2633_13173)">
<path d="M1.5 3.328C2.385 2.958 3.654 2.559 4.888 2.435C6.218 2.301 7.346 2.498 8 3.187V12.933C7.065 12.403 5.88 12.33 4.787 12.44C3.607 12.56 2.417 12.901 1.5 13.251V3.328ZM9 3.187C9.654 2.498 10.782 2.301 12.112 2.435C13.346 2.559 14.615 2.958 15.5 3.328V13.251C14.582 12.901 13.393 12.559 12.213 12.441C11.119 12.33 9.935 12.402 9 12.933V3.187ZM8.5 2.283C7.515 1.436 6.087 1.31 4.787 1.44C3.273 1.593 1.745 2.112 0.793 2.545C0.705649 2.58473 0.631575 2.64875 0.579621 2.72943C0.527667 2.81011 0.500027 2.90404 0.5 3V14C0.500023 14.0837 0.521037 14.166 0.561117 14.2394C0.601197 14.3128 0.659062 14.375 0.729411 14.4203C0.79976 14.4656 0.880345 14.4925 0.963783 14.4985C1.04722 14.5046 1.13085 14.4896 1.207 14.455C2.089 14.055 3.51 13.574 4.887 13.435C6.296 13.293 7.477 13.522 8.11 14.312C8.15685 14.3704 8.21622 14.4175 8.28372 14.4499C8.35122 14.4823 8.42513 14.4991 8.5 14.4991C8.57487 14.4991 8.64878 14.4823 8.71628 14.4499C8.78378 14.4175 8.84315 14.3704 8.89 14.312C9.523 13.522 10.704 13.293 12.112 13.435C13.49 13.574 14.912 14.055 15.793 14.455C15.8692 14.4896 15.9528 14.5046 16.0362 14.4985C16.1197 14.4925 16.2002 14.4656 16.2706 14.4203C16.3409 14.375 16.3988 14.3128 16.4389 14.2394C16.479 14.166 16.5 14.0837 16.5 14V3C16.5 2.90404 16.4723 2.81011 16.4204 2.72943C16.3684 2.64875 16.2944 2.58473 16.207 2.545C15.255 2.112 13.727 1.593 12.213 1.44C10.913 1.309 9.485 1.436 8.5 2.283Z" />
</g>
<defs>
<clipPath id="clip0_2633_13173">
<rect width="16" height="16" fill="white" transform="translate(0.5 0.5)"/>
</clipPath>
</defs>
</svg>
