<svg xmlns="http://www.w3.org/2000/svg" viewBox="0 0 448 512"><path d="M400 64h-48V12c0-6.627-5.373-12-12-12h-8c-6.627 0-12 5.373-12 12v52H128V12c0-6.627-5.373-12-12-12h-8c-6.627 0-12 5.373-12 12v52H48C21.49 64 0 85.49 0 112v352c0 26.51 21.49 48 48 48h352c26.51 0 48-21.49 48-48V112c0-26.51-21.49-48-48-48zM48 96h352c8.822 0 16 7.178 16 16v48H32v-48c0-8.822 7.178-16 16-16zm352 384H48c-8.822 0-16-7.178-16-16V192h384v272c0 8.822-7.178 16-16 16zm-66.467-194.937l-134.791 133.71c-4.7 4.663-12.288 4.642-16.963-.046l-67.358-67.552c-4.683-4.697-4.672-12.301.024-16.985l8.505-8.48c4.697-4.683 12.301-4.672 16.984.024l50.442 50.587 117.782-116.837c4.709-4.671 12.313-4.641 16.985.068l8.458 8.527c4.672 4.709 4.641 12.313-.068 16.984z"/></svg>