<svg viewBox="0 0 62 77" xmlns="http://www.w3.org/2000/svg">
<g clip-path="url(#clip0_1024_2639)">
<path d="M31 5.125C24.2038 5.125 17.686 7.82477 12.8804 12.6304C8.07477 17.436 5.375 23.9538 5.375 30.75V35.875H10.5C11.8592 35.875 13.1628 36.415 14.1239 37.3761C15.085 38.3372 15.625 39.6408 15.625 41V56.375C15.625 57.7342 15.085 59.0378 14.1239 59.9989C13.1628 60.96 11.8592 61.5 10.5 61.5H5.375C4.01577 61.5 2.7122 60.96 1.75108 59.9989C0.789954 59.0378 0.25 57.7342 0.25 56.375V30.75C0.25 26.7119 1.04537 22.7132 2.5907 18.9825C4.13604 15.2517 6.40106 11.8619 9.25647 9.00647C12.1119 6.15107 15.5017 3.88604 19.2325 2.3407C22.9632 0.795372 26.9619 0 31 0C35.0381 0 39.0368 0.795372 42.7675 2.3407C46.4983 3.88604 49.8881 6.15107 52.7435 9.00647C55.5989 11.8619 57.864 15.2517 59.4093 18.9825C60.9546 22.7132 61.75 26.7119 61.75 30.75V61.5C61.75 64.8981 60.4001 68.157 57.9973 70.5598C55.5945 72.9626 52.3356 74.3125 48.9375 74.3125H38.0008C37.5509 75.0916 36.904 75.7385 36.1249 76.1883C35.3459 76.6382 34.4621 76.875 33.5625 76.875H28.4375C27.0783 76.875 25.7747 76.335 24.8136 75.3739C23.8525 74.4128 23.3125 73.1092 23.3125 71.75C23.3125 70.3908 23.8525 69.0872 24.8136 68.1261C25.7747 67.165 27.0783 66.625 28.4375 66.625H33.5625C34.4621 66.625 35.3459 66.8618 36.1249 67.3117C36.904 67.7615 37.5509 68.4084 38.0008 69.1875H48.9375C50.9764 69.1875 52.9317 68.3776 54.3734 66.9359C55.8151 65.4942 56.625 63.5389 56.625 61.5H51.5C50.1408 61.5 48.8372 60.96 47.8761 59.9989C46.915 59.0378 46.375 57.7342 46.375 56.375V41C46.375 39.6408 46.915 38.3372 47.8761 37.3761C48.8372 36.415 50.1408 35.875 51.5 35.875H56.625V30.75C56.625 27.3849 55.9622 24.0527 54.6744 20.9437C53.3866 17.8348 51.4991 15.0099 49.1196 12.6304C46.7401 10.2509 43.9152 8.36336 40.8063 7.07559C37.6973 5.78781 34.3651 5.125 31 5.125V5.125Z" />
</g>
</svg>
