<svg viewBox="0 0 46 46" fill="none" xmlns="http://www.w3.org/2000/svg">
<g clip-path="url(#clip0_66_7413)">
<rect width="24" height="30" transform="translate(13 16)" fill="white" fill-opacity="0.01"/>
<path d="M37.3252 19.0175H12.6756C11.8553 19.0175 11.343 19.9114 11.7549 20.6246L19.5428 33.8634V41.9192C19.5428 42.5119 20.0183 42.9907 20.6075 42.9907H29.3933C29.9825 42.9907 30.458 42.5119 30.458 41.9192V33.8634L38.2493 20.6246C38.6578 19.9114 38.1455 19.0175 37.3252 19.0175ZM28.0607 40.58H21.9401V35.3567H28.064V40.58H28.0607ZM28.3821 32.6581L28.064 33.2139H21.9368L21.6187 32.6581L14.9792 21.4282H35.0216L28.3821 32.6581Z" fill="url(#paint0_linear_66_7413)" fill-opacity="0.85"/>
</g>
<g clip-path="url(#clip1_66_7413)">
<rect width="16" height="16" transform="translate(0.957764 3.83905)" fill="white" fill-opacity="0.01"/>
<path d="M3.79422 12.8529L4.90769 12.3336L5.4269 13.4471C5.44049 13.4762 5.48019 13.4853 5.51579 13.4687L6.29263 13.1065C6.32823 13.0899 6.3468 13.0536 6.33246 13.0229L5.814 11.911L6.92746 11.3918C6.95659 11.3782 6.96566 11.3385 6.94906 11.3029L6.58682 10.5261C6.57021 10.4905 6.53397 10.4719 6.50322 10.4862L5.39138 11.0047L4.87216 9.89125C4.85858 9.86212 4.81888 9.85304 4.78327 9.86965L4.00644 10.2319C3.97083 10.2485 3.95227 10.2847 3.96585 10.3139L4.48507 11.4273L3.37161 11.9465C3.34247 11.9601 3.3334 11.9998 3.35 12.0354L3.71225 12.8123C3.72885 12.8479 3.76509 12.8664 3.79422 12.8529ZM9.1026 10.3775L12.2358 8.91647C12.265 8.90288 12.274 8.86319 12.2574 8.82758L11.8952 8.05075C11.8786 8.01514 11.8423 7.99658 11.8116 8.01091L8.67998 9.47121C8.65085 9.4848 8.64177 9.52449 8.65838 9.5601L9.02062 10.3369C9.03722 10.3725 9.07347 10.3911 9.1026 10.3775ZM11.1025 14.6663L14.2357 13.2052C14.2649 13.1917 14.2739 13.152 14.2573 13.1164L13.8951 12.3395C13.8785 12.3039 13.8422 12.2854 13.8115 12.2997L10.6799 13.76C10.6507 13.7736 10.6417 13.8133 10.6583 13.8489L11.0205 14.6257C11.0371 14.6613 11.0734 14.6799 11.1025 14.6663ZM11.8874 16.3494L15.0206 14.8884C15.0497 14.8748 15.0588 14.8351 15.0422 14.7995L14.6799 14.0227C14.6633 13.9871 14.6271 13.9685 14.5964 13.9828L11.4647 15.4431C11.4356 15.4567 11.4265 15.4964 11.4431 15.532L11.8054 16.3089C11.822 16.3445 11.8582 16.363 11.8874 16.3494ZM8.10884 16.5154L8.53405 14.8414C8.5644 14.7248 8.44652 14.6241 8.33971 14.6739L7.51755 15.0573C7.48033 15.0746 7.45227 15.1074 7.44396 15.1487L7.20764 16.0786L6.34344 15.6619C6.32521 15.653 6.30528 15.6482 6.28502 15.6478C6.26475 15.6474 6.24464 15.6514 6.22607 15.6595L5.4023 16.0436C5.29548 16.0934 5.29684 16.2485 5.40567 16.3002L6.96139 17.0505L6.52624 18.7666C6.49427 18.884 6.61216 18.9847 6.71897 18.9349L7.54112 18.5515C7.57835 18.5341 7.6064 18.5013 7.61472 18.46L7.86097 17.4881L8.76379 17.9242C8.80165 17.942 8.84556 17.9432 8.88116 17.9266L9.70331 17.5432C9.81013 17.4934 9.80877 17.3384 9.69994 17.2867L8.10884 16.5154Z" fill="url(#paint1_linear_66_7413)" fill-opacity="0.85"/>
</g>
<g clip-path="url(#clip2_66_7413)">
<rect width="15" height="15" transform="translate(16.9578 0.611725)" fill="white" fill-opacity="0.01"/>
<path d="M19.5945 4.88907H20.7664V11.3344H19.5945V4.88907ZM24.9998 7.52579H23.9158C23.9041 7.52579 23.8929 7.53042 23.8847 7.53866C23.8765 7.5469 23.8718 7.55808 23.8718 7.56973V8.65372C23.8718 8.66537 23.8765 8.67655 23.8847 8.68479C23.8929 8.69303 23.9041 8.69766 23.9158 8.69766H24.9998C25.0114 8.69766 25.0226 8.69303 25.0308 8.68479C25.0391 8.67655 25.0437 8.66537 25.0437 8.65372V7.56973C25.0437 7.55808 25.0391 7.5469 25.0308 7.53866C25.0226 7.53042 25.0114 7.52579 24.9998 7.52579V7.52579ZM28.1492 5.94376H29.321V10.2797H28.1492V5.94376Z" fill="#E2E4F6"/>
<path d="M30.2 4.94766H29.2332V3.54141C29.2332 3.47696 29.1804 3.42422 29.116 3.42422H28.3542C28.2898 3.42422 28.2371 3.47696 28.2371 3.54141V4.94766H27.2703C27.2058 4.94766 27.1531 5.0004 27.1531 5.06485V11.1586C27.1531 11.2231 27.2058 11.2758 27.2703 11.2758H28.2371V12.682C28.2371 12.7465 28.2898 12.7992 28.3542 12.7992H29.116C29.1804 12.7992 29.2332 12.7465 29.2332 12.682V11.2758H30.2C30.2644 11.2758 30.3171 11.2231 30.3171 11.1586V5.06485C30.3171 5.0004 30.2644 4.94766 30.2 4.94766ZM29.321 10.2797H28.1492V5.94376H29.321V10.2797ZM25.9226 6.52969H24.9558V4.01016C24.9558 3.94571 24.9031 3.89297 24.8386 3.89297H24.0769C24.0125 3.89297 23.9597 3.94571 23.9597 4.01016V6.52969H22.9929C22.9285 6.52969 22.8757 6.58243 22.8757 6.64688V9.57657C22.8757 9.64102 22.9285 9.69376 22.9929 9.69376H23.9597V12.2133C23.9597 12.2777 24.0125 12.3305 24.0769 12.3305H24.8386C24.9031 12.3305 24.9558 12.2777 24.9558 12.2133V9.69376H25.9226C25.9871 9.69376 26.0398 9.64102 26.0398 9.57657V6.64688C26.0398 6.58243 25.9871 6.52969 25.9226 6.52969ZM25.0437 8.65372C25.0437 8.66537 25.0391 8.67655 25.0308 8.68479C25.0226 8.69303 25.0114 8.69766 24.9998 8.69766H23.9158C23.9041 8.69766 23.8929 8.69303 23.8847 8.68479C23.8765 8.67655 23.8718 8.66537 23.8718 8.65372V7.56973C23.8718 7.55808 23.8765 7.5469 23.8847 7.53866C23.8929 7.53042 23.9041 7.52579 23.9158 7.52579H24.9998C25.0114 7.52579 25.0226 7.53042 25.0308 7.53866C25.0391 7.5469 25.0437 7.55808 25.0437 7.56973V8.65372ZM21.6453 3.89297H20.6785V3.07266C20.6785 3.00821 20.6257 2.95547 20.5613 2.95547H19.7996C19.7351 2.95547 19.6824 3.00821 19.6824 3.07266V3.89297H18.7156C18.6511 3.89297 18.5984 3.94571 18.5984 4.01016V12.2133C18.5984 12.2777 18.6511 12.3305 18.7156 12.3305H19.6824V13.1508C19.6824 13.2152 19.7351 13.268 19.7996 13.268H20.5613C20.6257 13.268 20.6785 13.2152 20.6785 13.1508V12.3305H21.6453C21.7097 12.3305 21.7625 12.2777 21.7625 12.2133V4.01016C21.7625 3.94571 21.7097 3.89297 21.6453 3.89297ZM20.7664 11.3344H19.5945V4.88907H20.7664V11.3344Z" fill="url(#paint2_linear_66_7413)" fill-opacity="0.85"/>
</g>
<g clip-path="url(#clip3_66_7413)">
<rect width="14.6667" height="16" transform="matrix(0 1 -1 0 45.321 5.93465)" fill="white" fill-opacity="0.01"/>
<g clip-path="url(#clip4_66_7413)">
<path d="M36.0824 6.26764C35.7036 6.26764 35.3402 6.41815 35.0723 6.68606C34.8044 6.95397 34.6539 7.31733 34.6539 7.69621C34.6539 8.07509 34.8044 8.43845 35.0723 8.70636C35.3402 8.97427 35.7036 9.12478 36.0824 9.12478C36.4613 9.12478 36.8247 8.97427 37.0926 8.70636C37.3605 8.43845 37.511 8.07509 37.511 7.69621C37.511 7.31733 37.3605 6.95397 37.0926 6.68606C36.8247 6.41815 36.4613 6.26764 36.0824 6.26764ZM41.0824 8.90157C40.7983 8.90157 40.5257 9.01445 40.3248 9.21538C40.1239 9.41631 40.011 9.68884 40.011 9.973C40.011 10.2572 40.1239 10.5297 40.3248 10.7306C40.5257 10.9315 40.7983 11.0444 41.0824 11.0444C41.3666 11.0444 41.6391 10.9315 41.84 10.7306C42.041 10.5297 42.1539 10.2572 42.1539 9.973C42.1539 9.68884 42.041 9.41631 41.84 9.21538C41.6391 9.01445 41.3666 8.90157 41.0824 8.90157ZM35.9931 12.4284C35.4248 12.4284 34.8798 12.6541 34.4779 13.056C34.0761 13.4578 33.8503 14.0029 33.8503 14.5712C33.8503 15.1395 34.0761 15.6846 34.4779 16.0864C34.8798 16.4883 35.4248 16.7141 35.9931 16.7141C36.5615 16.7141 37.1065 16.4883 37.5084 16.0864C37.9102 15.6846 38.136 15.1395 38.136 14.5712C38.136 14.0029 37.9102 13.4578 37.5084 13.056C37.1065 12.6541 36.5615 12.4284 35.9931 12.4284ZM43.0021 15.7319C42.6706 15.7319 42.3526 15.8636 42.1182 16.098C41.8838 16.3325 41.7521 16.6504 41.7521 16.9819C41.7521 17.3134 41.8838 17.6314 42.1182 17.8658C42.3526 18.1002 42.6706 18.2319 43.0021 18.2319C43.3336 18.2319 43.6515 18.1002 43.886 17.8658C44.1204 17.6314 44.2521 17.3134 44.2521 16.9819C44.2521 16.6504 44.1204 16.3325 43.886 16.098C43.6515 15.8636 43.3336 15.7319 43.0021 15.7319Z" fill="url(#paint3_linear_66_7413)" fill-opacity="0.85"/>
</g>
</g>
<defs>
<linearGradient id="paint0_linear_66_7413" x1="25.0011" y1="19.0175" x2="25.0011" y2="42.9907" gradientUnits="userSpaceOnUse">
<stop stop-color="#3ECEAC"/>
<stop offset="1" stop-color="#050EFF"/>
</linearGradient>
<linearGradient id="paint1_linear_66_7413" x1="5.93962" y1="6.43406" x2="11.977" y2="19.3813" gradientUnits="userSpaceOnUse">
<stop stop-color="#050EFF"/>
<stop offset="1" stop-color="#5AD4B9"/>
</linearGradient>
<linearGradient id="paint2_linear_66_7413" x1="24.4578" y1="2.95547" x2="24.4578" y2="13.268" gradientUnits="userSpaceOnUse">
<stop stop-color="#050EFF"/>
<stop offset="1" stop-color="#5AD3BA"/>
</linearGradient>
<linearGradient id="paint3_linear_66_7413" x1="45.9932" y1="11.2676" x2="30.2789" y2="11.2676" gradientUnits="userSpaceOnUse">
<stop stop-color="#050EFF"/>
<stop offset="1" stop-color="#5AD4B9"/>
</linearGradient>
<clipPath id="clip0_66_7413">
<rect width="24" height="30" fill="white" transform="translate(13 16)"/>
</clipPath>
<clipPath id="clip1_66_7413">
<rect width="16" height="16" fill="white" transform="translate(0.957764 3.83905)"/>
</clipPath>
<clipPath id="clip2_66_7413">
<rect width="15" height="15" fill="white" transform="translate(16.9578 0.611725)"/>
</clipPath>
<clipPath id="clip3_66_7413">
<rect width="14.6667" height="16" fill="white" transform="matrix(0 1 -1 0 45.321 5.93465)"/>
</clipPath>
<clipPath id="clip4_66_7413">
<rect width="14.6667" height="16" fill="white" transform="matrix(0 1 -1 0 45.321 5.93465)"/>
</clipPath>
</defs>
</svg>
