<svg viewBox="0 0 16 16" fill="none" xmlns="http://www.w3.org/2000/svg">
<g clip-path="url(#clip0_1_1027)">
<path d="M7.99916 1.07536C7.49976 1.07536 7.02694 1.13894 6.7599 1.18692V1.18808C5.16004 1.47078 3.71137 2.30928 2.66933 3.55573C1.62729 4.80218 1.05881 6.37652 1.06412 8.00115C1.06412 8.652 1.15487 9.29186 1.3329 9.91034C1.35487 9.99415 1.3855 10.0832 1.41209 10.1687C2.34096 12.9808 5.00966 14.9235 7.99685 14.9246C8.03442 14.9246 8.14251 14.9246 8.28701 14.9183C8.53083 14.9072 8.76644 14.8268 8.96618 14.6865C9.16593 14.5463 9.32152 14.352 9.41472 14.1264L9.6887 13.4594L12.8707 5.71279H11.8268L10.4881 9.10632L9.13901 5.71279H8.03558L9.928 10.3439L8.51995 13.7599C8.49763 13.8149 8.46011 13.8623 8.41179 13.8967C8.36348 13.9311 8.30636 13.951 8.24713 13.9541C8.1639 13.957 8.0824 13.9599 7.99743 13.9599C5.34722 13.9599 2.98776 12.1854 2.25888 9.64503C2.10581 9.1105 2.02838 8.55717 2.02883 8.00115C2.02469 6.5908 2.52282 5.22505 3.43399 4.14855C4.34517 3.07204 5.60985 2.35512 7.00151 2.1262C7.12983 2.10481 7.51536 2.04238 7.99858 2.04238C10.5517 2.04238 12.7782 3.62152 13.6227 6.00064C13.655 6.08387 13.6793 6.17 13.7076 6.25497C13.8805 6.81795 13.9695 7.40406 13.9695 8.00115C13.9745 9.28042 13.5652 10.5269 12.803 11.5543C12.0408 12.5817 10.9665 13.3348 9.74072 13.701L10.0216 14.6258C12.9609 13.7322 14.9348 11.0698 14.9359 8.00173C14.9359 7.10696 14.7637 6.34282 14.5602 5.75209L14.4845 5.54227H14.4833C13.4666 2.85276 10.9158 1.07536 7.99916 1.07536ZM5.93911 5.62435C5.24549 5.62435 4.68193 5.84746 4.21662 6.3041C3.75306 6.75842 3.51954 7.3295 3.51954 8.00115C3.51954 8.66818 3.75479 9.23637 4.21605 9.68896C4.68193 10.1456 5.24491 10.3676 5.93853 10.3676C6.92463 10.3676 7.76275 9.81555 8.12806 8.92887L8.14713 8.88147L7.20555 8.56125C7.10844 8.82483 6.76914 9.42134 5.93911 9.42134C5.54895 9.42134 5.22006 9.28608 4.95995 9.01673C4.6958 8.74506 4.56286 8.40287 4.56286 8.00115C4.56286 7.59654 4.69291 7.26129 4.95995 6.97633C5.22122 6.70755 5.54953 6.57056 5.93911 6.57056C6.7703 6.57056 7.10844 7.19598 7.2067 7.43123L8.14713 7.11159L8.12806 7.06303C7.76391 6.1752 6.92463 5.62435 5.93911 5.62435Z" fill="black" stroke="black" stroke-width="0.289008"/>
</g>
<defs>
<clipPath id="clip0_1_1027">
<rect width="16" height="16" fill="white"/>
</clipPath>
</defs>
</svg>
