<svg version="1.1" xmlns="http://www.w3.org/2000/svg" xmlns:xlink="http://www.w3.org/1999/xlink" viewBox="0 0 1000 1000" xml:space="preserve">
<g><g transform="translate(0.000000,272.000000) scale(0.100000,-0.100000)"><path d="M6713.1,278.5c-30.6-15.3-1047.1-1010.8-2255-2211C3250.1-3134.7,2254.7-4116.7,2245.1-4116.7c-7.7,0-386.7,365.6-842.3,811.7c-606.8,595.3-846.1,819.3-895.9,836.5c-250.8,82.3-490-178-379-411.6c32.5-68.9,1872.2-1887.5,1967.9-1946.8c76.6-45.9,214.4-47.9,294.8-1.9c76.6,42.1,4690,4626.8,4726.4,4695.7c63.2,126.3,17.2,292.9-111,386.7C6940.9,301.4,6789.6,314.8,6713.1,278.5z"/><path d="M9467.7,278.5c-30.7-13.4-1047.1-1008.8-2256.9-2211C5999-3132.8,5001.7-4116.7,4994-4116.7c-9.6,0-107.2,84.2-216.3,187.6c-246.9,229.7-294.8,258.4-415.4,247c-212.5-19.1-348.4-250.8-252.7-432.6c36.4-72.8,700.6-704.5,765.7-729.4c80.4-30.6,204.8-23,271.8,17.2c99.5,61.3,4691.9,4634.5,4726.4,4707.2C9986.5,119.6,9716.6,385.7,9467.7,278.5z"/></g></g>
</svg>