<svg viewBox="0 0 21 21" xmlns="http://www.w3.org/2000/svg">
<path d="M11.4959 3H5.45426C4.64885 3 3.99593 3.65292 3.99593 4.45833V10.5H17.3293V8.83333H12.9543C12.1488 8.83333 11.4959 8.18042 11.4959 7.375V3Z" />
<path d="M17.3293 7.58333V7.51184C17.3293 7.12507 17.1756 6.75414 16.9021 6.48065L13.8486 3.42714C13.5751 3.15365 13.2042 3 12.8174 3H12.7459V7.375C12.7459 7.49006 12.8392 7.58333 12.9543 7.58333H17.3293Z" />
<path fill-rule="evenodd" clip-rule="evenodd" d="M3.1626 12.7917C3.1626 12.4465 3.44242 12.1667 3.7876 12.1667H5.45426C6.4898 12.1667 7.32926 13.0061 7.32926 14.0417C7.32926 15.0772 6.4898 15.9167 5.45426 15.9167H4.4126V17.375C4.4126 17.7202 4.13278 18 3.7876 18C3.44242 18 3.1626 17.7202 3.1626 17.375V12.7917ZM4.4126 14.6667H5.45426C5.79944 14.6667 6.07926 14.3868 6.07926 14.0417C6.07926 13.6965 5.79944 13.4167 5.45426 13.4167H4.4126V14.6667Z" />
<path fill-rule="evenodd" clip-rule="evenodd" d="M8.1626 12.7917C8.1626 12.4465 8.44242 12.1667 8.7876 12.1667H10.0376C10.5774 12.1667 11.2959 12.3009 11.8961 12.7493C12.5267 13.2205 12.9543 13.9858 12.9543 15.0833C12.9543 16.1808 12.5267 16.9462 11.8961 17.4173C11.2959 17.8658 10.5774 18 10.0376 18H8.7876C8.44242 18 8.1626 17.7202 8.1626 17.375V12.7917ZM9.4126 13.4167V16.75H10.0376C10.4006 16.75 10.8279 16.6551 11.1479 16.416C11.4374 16.1997 11.7043 15.8192 11.7043 15.0833C11.7043 14.3475 11.4374 13.967 11.1479 13.7507C10.8279 13.5116 10.4006 13.4167 10.0376 13.4167H9.4126Z" />
<path fill-rule="evenodd" clip-rule="evenodd" d="M13.9959 12.7917C13.9959 12.4465 14.2758 12.1667 14.6209 12.1667H17.5376C17.8828 12.1667 18.1626 12.4465 18.1626 12.7917C18.1626 13.1368 17.8828 13.4167 17.5376 13.4167H15.2459V14.6667H16.7043C17.0494 14.6667 17.3293 14.9465 17.3293 15.2917C17.3293 15.6368 17.0494 15.9167 16.7043 15.9167H15.2459V17.375C15.2459 17.7202 14.9661 18 14.6209 18C14.2758 18 13.9959 17.7202 13.9959 17.375V12.7917Z" />
</svg>
