<svg xmlns="http://www.w3.org/2000/svg" viewBox="0 0 576 512"><path d="M321.496 406.121l21.718 29.272A331.764 331.764 0 0 1 288 440C168.14 440 63.003 376.006 6.646 280.369a47.999 47.999 0 0 1 0-48.739c25.834-43.84 61.913-81.01 104.943-108.427l19.125 25.777c-39.83 24.942-73.004 59.027-96.499 98.896a16.008 16.008 0 0 0 0 16.246C86.163 352.277 182.135 408 288 408c11.298 0 22.476-.64 33.496-1.879zM141.972 164.155C133.037 183.57 128 205.19 128 228c0 85.822 71.23 156 160 156 5.566 0 11.063-.277 16.479-.815l-23.266-31.359C213.676 348.408 160 294.277 160 228a120.48 120.48 0 0 1 4.664-33.26l-22.692-30.585zM569.354 280.37c-33.709 57.202-84.861 103.039-146.143 130.673l56.931 76.732c4 5.391 2.872 13.004-2.519 17.004l-6.507 4.828c-5.391 4-13.004 2.872-17.003-2.519L95.859 24.225c-4-5.391-2.872-13.004 2.519-17.004l6.507-4.828c5.391-4 13.004-2.872 17.003 2.519l62.189 83.82C216.741 77.883 251.696 72 288 72c119.86 0 224.996 63.994 281.354 159.63a48.005 48.005 0 0 1 0 48.74zM416 228c0-68.483-57.308-124-128-124-28.059 0-54.002 8.754-75.095 23.588l34.709 46.782c20.339-16.584 48.244-18.755 70.523-6.84h-.02c-14.554 0-26.353 11.799-26.353 26.353s11.799 26.353 26.353 26.353c14.554 0 26.353-11.799 26.353-26.353v-.02c15.223 28.465 6.889 64.554-20.679 83.18l38.514 51.911C394.803 306.465 416 269.638 416 228zm125.785 19.877c-29.072-49.333-73.341-90.435-127.66-115.887 55.405 69.029 41.701 170.413-32.734 222.688l22.238 29.973c57.564-24.305 106.246-66.38 138.155-120.527a16.008 16.008 0 0 0 .001-16.247z"/></svg>