<svg viewBox="0 0 44 44" xmlns="http://www.w3.org/2000/svg">
<rect width="44" height="44" rx="22" fill="#3EAAAF" fill-opacity="0.08"/>
<g>
<path d="M22 32.5C19.2152 32.5 16.5445 31.3938 14.5754 29.4246C12.6062 27.4555 11.5 24.7848 11.5 22C11.5 19.2152 12.6062 16.5445 14.5754 14.5754C16.5445 12.6062 19.2152 11.5 22 11.5C24.7848 11.5 27.4555 12.6062 29.4246 14.5754C31.3938 16.5445 32.5 19.2152 32.5 22C32.5 24.7848 31.3938 27.4555 29.4246 29.4246C27.4555 31.3938 24.7848 32.5 22 32.5ZM22 34C25.1826 34 28.2348 32.7357 30.4853 30.4853C32.7357 28.2348 34 25.1826 34 22C34 18.8174 32.7357 15.7652 30.4853 13.5147C28.2348 11.2643 25.1826 10 22 10C18.8174 10 15.7652 11.2643 13.5147 13.5147C11.2643 15.7652 10 18.8174 10 22C10 25.1826 11.2643 28.2348 13.5147 30.4853C15.7652 32.7357 18.8174 34 22 34Z" fill="#24959A"/>
<path d="M22 29.5C20.0109 29.5 18.1032 28.7098 16.6967 27.3033C15.2902 25.8968 14.5 23.9891 14.5 22C14.5 20.0109 15.2902 18.1032 16.6967 16.6967C18.1032 15.2902 20.0109 14.5 22 14.5C23.9891 14.5 25.8968 15.2902 27.3033 16.6967C28.7098 18.1032 29.5 20.0109 29.5 22C29.5 23.9891 28.7098 25.8968 27.3033 27.3033C25.8968 28.7098 23.9891 29.5 22 29.5ZM22 31C23.1819 31 24.3522 30.7672 25.4442 30.3149C26.5361 29.8626 27.5282 29.1997 28.364 28.364C29.1997 27.5282 29.8626 26.5361 30.3149 25.4442C30.7672 24.3522 31 23.1819 31 22C31 20.8181 30.7672 19.6478 30.3149 18.5558C29.8626 17.4639 29.1997 16.4718 28.364 15.636C27.5282 14.8003 26.5361 14.1374 25.4442 13.6851C24.3522 13.2328 23.1819 13 22 13C19.6131 13 17.3239 13.9482 15.636 15.636C13.9482 17.3239 13 19.6131 13 22C13 24.3869 13.9482 26.6761 15.636 28.364C17.3239 30.0518 19.6131 31 22 31Z" fill="#24959A"/>
<path d="M22 26.5C20.8065 26.5 19.6619 26.0259 18.818 25.182C17.9741 24.3381 17.5 23.1935 17.5 22C17.5 20.8065 17.9741 19.6619 18.818 18.818C19.6619 17.9741 20.8065 17.5 22 17.5C23.1935 17.5 24.3381 17.9741 25.182 18.818C26.0259 19.6619 26.5 20.8065 26.5 22C26.5 23.1935 26.0259 24.3381 25.182 25.182C24.3381 26.0259 23.1935 26.5 22 26.5ZM22 28C23.5913 28 25.1174 27.3679 26.2426 26.2426C27.3679 25.1174 28 23.5913 28 22C28 20.4087 27.3679 18.8826 26.2426 17.7574C25.1174 16.6321 23.5913 16 22 16C20.4087 16 18.8826 16.6321 17.7574 17.7574C16.6321 18.8826 16 20.4087 16 22C16 23.5913 16.6321 25.1174 17.7574 26.2426C18.8826 27.3679 20.4087 28 22 28Z" fill="#24959A"/>
<path d="M24.25 22C24.25 22.5967 24.0129 23.169 23.591 23.591C23.169 24.0129 22.5967 24.25 22 24.25C21.4033 24.25 20.831 24.0129 20.409 23.591C19.9871 23.169 19.75 22.5967 19.75 22C19.75 21.4033 19.9871 20.831 20.409 20.409C20.831 19.9871 21.4033 19.75 22 19.75C22.5967 19.75 23.169 19.9871 23.591 20.409C24.0129 20.831 24.25 21.4033 24.25 22Z" fill="#24959A"/>
</g>
</svg>
