<svg viewBox="0 0 14 15" xmlns="http://www.w3.org/2000/svg">
<g id="123" clip-path="url(#clip0_27_1406)">
<path id="Vector" d="M3.9375 10.6117C3.82147 10.6117 3.71019 10.5656 3.62814 10.4836C3.54609 10.4015 3.5 10.2903 3.5 10.1742V8.42422C3.5 8.30819 3.54609 8.19691 3.62814 8.11487C3.71019 8.03282 3.82147 7.98672 3.9375 7.98672H4.8125C4.92853 7.98672 5.03981 8.03282 5.12186 8.11487C5.20391 8.19691 5.25 8.30819 5.25 8.42422V10.1742C5.25 10.2903 5.20391 10.4015 5.12186 10.4836C5.03981 10.5656 4.92853 10.6117 4.8125 10.6117H3.9375ZM6.5625 10.6117C6.44647 10.6117 6.33519 10.5656 6.25314 10.4836C6.17109 10.4015 6.125 10.2903 6.125 10.1742V6.67422C6.125 6.55819 6.17109 6.44691 6.25314 6.36487C6.33519 6.28282 6.44647 6.23672 6.5625 6.23672H7.4375C7.55353 6.23672 7.66481 6.28282 7.74686 6.36487C7.82891 6.44691 7.875 6.55819 7.875 6.67422V10.1742C7.875 10.2903 7.82891 10.4015 7.74686 10.4836C7.66481 10.5656 7.55353 10.6117 7.4375 10.6117H6.5625ZM9.1875 10.6117C9.07147 10.6117 8.96019 10.5656 8.87814 10.4836C8.79609 10.4015 8.75 10.2903 8.75 10.1742V4.92422C8.75 4.80819 8.79609 4.69691 8.87814 4.61487C8.96019 4.53282 9.07147 4.48672 9.1875 4.48672H10.0625C10.1785 4.48672 10.2898 4.53282 10.3719 4.61487C10.4539 4.69691 10.5 4.80819 10.5 4.92422V10.1742C10.5 10.2903 10.4539 10.4015 10.3719 10.4836C10.2898 10.5656 10.1785 10.6117 10.0625 10.6117H9.1875Z" />
<path id="Vector_2" d="M3.5 0.111725C3.03587 0.111725 2.59075 0.296099 2.26256 0.624288C1.93437 0.952477 1.75 1.3976 1.75 1.86172V12.3617C1.75 12.8259 1.93437 13.271 2.26256 13.5992C2.59075 13.9274 3.03587 14.1117 3.5 14.1117H10.5C10.9641 14.1117 11.4092 13.9274 11.7374 13.5992C12.0656 13.271 12.25 12.8259 12.25 12.3617V1.86172C12.25 1.3976 12.0656 0.952477 11.7374 0.624288C11.4092 0.296099 10.9641 0.111725 10.5 0.111725L3.5 0.111725ZM3.5 0.986725H10.5C10.7321 0.986725 10.9546 1.07891 11.1187 1.24301C11.2828 1.4071 11.375 1.62966 11.375 1.86172V12.3617C11.375 12.5938 11.2828 12.8163 11.1187 12.9804C10.9546 13.1445 10.7321 13.2367 10.5 13.2367H3.5C3.26794 13.2367 3.04538 13.1445 2.88128 12.9804C2.71719 12.8163 2.625 12.5938 2.625 12.3617V1.86172C2.625 1.62966 2.71719 1.4071 2.88128 1.24301C3.04538 1.07891 3.26794 0.986725 3.5 0.986725Z" />
</g>
<defs>
<clipPath id="clip0_27_1406">
<rect width="14" height="14" fill="white" transform="translate(0 0.111725)"/>
</clipPath>
</defs>
</svg>
