<svg viewBox="0 0 52 52" xmlns="http://www.w3.org/2000/svg">
<path d="M6.5 32.5H16.25C17.112 32.5 17.9386 32.8424 18.5481 33.4519C19.1576 34.0614 19.5 34.888 19.5 35.75V45.5C19.5 46.362 19.1576 47.1886 18.5481 47.7981C17.9386 48.4076 17.112 48.75 16.25 48.75H6.5C5.63805 48.75 4.8114 48.4076 4.2019 47.7981C3.59241 47.1886 3.25 46.362 3.25 45.5V35.75C3.25 34.888 3.59241 34.0614 4.2019 33.4519C4.8114 32.8424 5.63805 32.5 6.5 32.5ZM35.75 3.25H45.5C46.362 3.25 47.1886 3.59241 47.7981 4.2019C48.4076 4.8114 48.75 5.63805 48.75 6.5V16.25C48.75 17.112 48.4076 17.9386 47.7981 18.5481C47.1886 19.1576 46.362 19.5 45.5 19.5H35.75C34.888 19.5 34.0614 19.1576 33.4519 18.5481C32.8424 17.9386 32.5 17.112 32.5 16.25V6.5C32.5 5.63805 32.8424 4.8114 33.4519 4.2019C34.0614 3.59241 34.888 3.25 35.75 3.25ZM35.75 32.5C34.888 32.5 34.0614 32.8424 33.4519 33.4519C32.8424 34.0614 32.5 34.888 32.5 35.75V45.5C32.5 46.362 32.8424 47.1886 33.4519 47.7981C34.0614 48.4076 34.888 48.75 35.75 48.75H45.5C46.362 48.75 47.1886 48.4076 47.7981 47.7981C48.4076 47.1886 48.75 46.362 48.75 45.5V35.75C48.75 34.888 48.4076 34.0614 47.7981 33.4519C47.1886 32.8424 46.362 32.5 45.5 32.5H35.75ZM35.75 0C34.0261 0 32.3728 0.68482 31.1538 1.90381C29.9348 3.12279 29.25 4.77609 29.25 6.5V16.25C29.25 17.9739 29.9348 19.6272 31.1538 20.8462C32.3728 22.0652 34.0261 22.75 35.75 22.75H45.5C47.2239 22.75 48.8772 22.0652 50.0962 20.8462C51.3152 19.6272 52 17.9739 52 16.25V6.5C52 4.77609 51.3152 3.12279 50.0962 1.90381C48.8772 0.68482 47.2239 0 45.5 0L35.75 0ZM6.5 29.25C4.77609 29.25 3.12279 29.9348 1.90381 31.1538C0.68482 32.3728 0 34.0261 0 35.75L0 45.5C0 47.2239 0.68482 48.8772 1.90381 50.0962C3.12279 51.3152 4.77609 52 6.5 52H16.25C17.9739 52 19.6272 51.3152 20.8462 50.0962C22.0652 48.8772 22.75 47.2239 22.75 45.5V35.75C22.75 34.0261 22.0652 32.3728 20.8462 31.1538C19.6272 29.9348 17.9739 29.25 16.25 29.25H6.5ZM29.25 35.75C29.25 34.0261 29.9348 32.3728 31.1538 31.1538C32.3728 29.9348 34.0261 29.25 35.75 29.25H45.5C47.2239 29.25 48.8772 29.9348 50.0962 31.1538C51.3152 32.3728 52 34.0261 52 35.75V45.5C52 47.2239 51.3152 48.8772 50.0962 50.0962C48.8772 51.3152 47.2239 52 45.5 52H35.75C34.0261 52 32.3728 51.3152 31.1538 50.0962C29.9348 48.8772 29.25 47.2239 29.25 45.5V35.75ZM0 6.5C0 4.77609 0.68482 3.12279 1.90381 1.90381C3.12279 0.68482 4.77609 0 6.5 0L16.25 0C17.9739 0 19.6272 0.68482 20.8462 1.90381C22.0652 3.12279 22.75 4.77609 22.75 6.5V16.25C22.75 17.9739 22.0652 19.6272 20.8462 20.8462C19.6272 22.0652 17.9739 22.75 16.25 22.75H6.5C4.77609 22.75 3.12279 22.0652 1.90381 20.8462C0.68482 19.6272 0 17.9739 0 16.25V6.5ZM17.4005 9.2755C17.5516 9.12441 17.6714 8.94505 17.7532 8.74765C17.835 8.55024 17.8771 8.33867 17.8771 8.125C17.8771 7.91133 17.835 7.69976 17.7532 7.50235C17.6714 7.30495 17.5516 7.12559 17.4005 6.9745C17.2494 6.82341 17.07 6.70357 16.8726 6.6218C16.6752 6.54003 16.4637 6.49795 16.25 6.49795C16.0363 6.49795 15.8248 6.54003 15.6274 6.6218C15.4299 6.70357 15.2506 6.82341 15.0995 6.9745L9.75 12.3272L7.6505 10.2245C7.49941 10.0734 7.32005 9.95357 7.12265 9.8718C6.92524 9.79003 6.71367 9.74795 6.5 9.74795C6.28633 9.74795 6.07476 9.79003 5.87735 9.8718C5.67995 9.95357 5.50059 10.0734 5.3495 10.2245C5.19841 10.3756 5.07857 10.555 4.9968 10.7524C4.91503 10.9498 4.87295 11.1613 4.87295 11.375C4.87295 11.5887 4.91503 11.8002 4.9968 11.9976C5.07857 12.195 5.19841 12.3744 5.3495 12.5255L8.5995 15.7755C8.75045 15.9268 8.92977 16.0469 9.12719 16.1288C9.32461 16.2107 9.53626 16.2529 9.75 16.2529C9.96374 16.2529 10.1754 16.2107 10.3728 16.1288C10.5702 16.0469 10.7496 15.9268 10.9005 15.7755L17.4005 9.2755Z" />
</svg>
