<svg xmlns="http://www.w3.org/2000/svg" viewBox="0 0 640 512"><path d="M638.59 368.22l-33.37-211.59c-8.86-50.26-48.4-90.77-100.66-103.13h-.07a803.14 803.14 0 0 0-369 0C83.17 65.86 43.64 106.36 34.78 156.63L1.41 368.22C-8.9 426.73 38.8 480 101.51 480c49.67 0 93.77-30.07 109.48-74.64l7.52-21.36h203l7.49 21.36C444.72 449.93 488.82 480 538.49 480c62.71 0 110.41-53.27 100.1-111.78zm-45.11 54.88c-13.28 15.82-33.33 24.9-55 24.9-36.2 0-68.07-21.41-79.29-53.27l-7.53-21.36-7.52-21.37H195.86l-7.53 21.37-7.53 21.36C169.58 426.59 137.71 448 101.51 448c-21.66 0-41.71-9.08-55-24.9A59.93 59.93 0 0 1 33 373.2l33.28-211c6.66-37.7 36.72-68.14 76.53-77.57a771.07 771.07 0 0 1 354.38 0c39.84 9.42 69.87 39.86 76.42 77l33.47 212.15c3.11 17.64-1.72 35.16-13.6 49.32zm-339.3-218.74h-42.54v-42.54a9.86 9.86 0 0 0-9.82-9.82h-19.64a9.86 9.86 0 0 0-9.82 9.82v42.54h-42.54a9.86 9.86 0 0 0-9.82 9.82v19.64a9.86 9.86 0 0 0 9.82 9.82h42.54v42.54a9.86 9.86 0 0 0 9.82 9.82h19.64a9.86 9.86 0 0 0 9.82-9.82v-42.54h42.54a9.86 9.86 0 0 0 9.82-9.82v-19.64a9.86 9.86 0 0 0-9.82-9.82zM416 224a32 32 0 1 0 32 32 32 32 0 0 0-32-32zm64-64a32 32 0 1 0 32 32 32 32 0 0 0-32-32z"/></svg>