<svg xmlns="http://www.w3.org/2000/svg" viewBox="0 0 384 512"><path d="M368 32h4c6.627 0 12-5.373 12-12v-8c0-6.627-5.373-12-12-12H12C5.373 0 0 5.373 0 12v8c0 6.627 5.373 12 12 12h4c0 91.821 44.108 193.657 129.646 224C59.832 286.441 16 388.477 16 480h-4c-6.627 0-12 5.373-12 12v8c0 6.627 5.373 12 12 12h360c6.627 0 12-5.373 12-12v-8c0-6.627-5.373-12-12-12h-4c0-91.821-44.108-193.657-129.646-224C324.168 225.559 368 123.523 368 32zM48 32h288c0 110.457-64.471 200-144 200S48 142.457 48 32zm288 448H48c0-110.457 64.471-200 144-200s144 89.543 144 200zM285.621 96H98.379a12.01 12.01 0 0 1-11.602-8.903 199.464 199.464 0 0 1-2.059-8.43C83.054 71.145 88.718 64 96.422 64h191.157c7.704 0 13.368 7.145 11.704 14.667a199.464 199.464 0 0 1-2.059 8.43A12.013 12.013 0 0 1 285.621 96zm-15.961 50.912a141.625 141.625 0 0 1-6.774 8.739c-2.301 2.738-5.671 4.348-9.248 4.348H130.362c-3.576 0-6.947-1.61-9.248-4.348a142.319 142.319 0 0 1-6.774-8.739c-5.657-7.91.088-18.912 9.813-18.912h135.694c9.725 0 15.469 11.003 9.813 18.912z"/></svg>