<svg xmlns="http://www.w3.org/2000/svg" fill="none" viewBox="0 0 32 32">
<g clip-path="url(#clip0_101_1415)">
<path d="M22 0H10C4.47715 0 0 4.47715 0 10V22C0 27.5228 4.47715 32 10 32H22C27.5228 32 32 27.5228 32 22V10C32 4.47715 27.5228 0 22 0Z" fill="#EEE2F6"/>
<path d="M16 15.925C14.1956 15.925 12.5164 16.4501 11.1076 17.3552C10.8274 17.5352 10.4547 17.4813 10.2592 17.2205L9.25969 15.8879C9.06304 15.6257 9.11714 15.2562 9.38504 15.0771C11.281 13.8102 13.5536 13.075 16 13.075C18.4459 13.075 20.7182 13.8099 22.614 15.0764C22.8822 15.2557 22.9361 15.6259 22.7387 15.888L22.0153 16.8488C21.927 16.9661 21.7968 17.0461 21.6508 17.0795C21.3762 17.1423 21.1044 17.2229 20.848 17.3258C19.4425 16.4213 17.7803 15.925 16 15.925ZM26.3402 11.088L25.3405 12.421C25.1448 12.682 24.7729 12.7356 24.5001 12.5489C22.0855 10.8963 19.1554 9.925 16 9.925C12.8446 9.925 9.91448 10.8963 7.4999 12.5489C7.22716 12.7356 6.85525 12.682 6.6595 12.421L5.6598 11.088C5.46336 10.8261 5.51701 10.4561 5.78289 10.2714C8.68288 8.25663 12.2047 7.075 16 7.075C19.7954 7.075 23.3171 8.25663 26.2171 10.2714C26.483 10.4561 26.5367 10.8261 26.3402 11.088ZM12.9925 19.895C13.8732 19.3758 14.9031 19.075 16 19.075C16.46 19.075 16.9057 19.1329 17.3373 19.2378C17.5233 19.2831 17.6482 19.4158 17.7043 19.5836C17.7608 19.7527 17.7463 19.9556 17.6508 20.1313C17.1867 20.9857 16.925 21.9603 16.925 23V23.0036C16.925 23.2001 16.925 23.3954 16.9602 23.5915L16.4731 24.2425C16.2366 24.5585 15.7629 24.5588 15.526 24.243L12.86 20.6883C12.6624 20.4249 12.7187 20.0564 12.9925 19.895ZM19.2116 21.2632L20.5455 19.6626C20.782 19.3787 21.218 19.3787 21.4545 19.6626L22.7884 21.2632C23.0074 21.526 22.8205 21.925 22.4785 21.925C22.1728 21.925 21.925 22.1728 21.925 22.4785V25.3333C21.925 25.6601 21.6601 25.925 21.3333 25.925H20.6667C20.3399 25.925 20.075 25.6601 20.075 25.3333V22.4785C20.075 22.1728 19.8272 21.925 19.5215 21.925C19.1795 21.925 18.9926 21.526 19.2116 21.2632ZM25.925 20.6667V23.5215C25.925 23.8272 26.1728 24.075 26.4785 24.075C26.8205 24.075 27.0074 24.474 26.7884 24.7368L25.4545 26.3374C25.218 26.6213 24.782 26.6213 24.5455 26.3374L23.2116 24.7368C22.9926 24.474 23.1795 24.075 23.5215 24.075C23.8272 24.075 24.075 23.8272 24.075 23.5215V20.6667C24.075 20.3399 24.3399 20.075 24.6667 20.075H25.3333C25.6601 20.075 25.925 20.3399 25.925 20.6667Z" fill="black" stroke="#EEE2F6" stroke-width="0.15"/>
</g>
<defs>
<clipPath id="clip0_101_1415">
<rect width="32" height="32" fill="white"/>
</clipPath>
</defs>
</svg>