<svg viewBox="0 0 35 35" fill="none" xmlns="http://www.w3.org/2000/svg">
<g clip-path="url(#clip0_10_16)">
<path d="M17.5 32.8125C13.4389 32.8125 9.54408 31.1992 6.67243 28.3276C3.80078 25.4559 2.1875 21.5611 2.1875 17.5C2.1875 13.4389 3.80078 9.54408 6.67243 6.67243C9.54408 3.80078 13.4389 2.1875 17.5 2.1875C21.5611 2.1875 25.4559 3.80078 28.3276 6.67243C31.1992 9.54408 32.8125 13.4389 32.8125 17.5C32.8125 21.5611 31.1992 25.4559 28.3276 28.3276C25.4559 31.1992 21.5611 32.8125 17.5 32.8125ZM17.5 35C22.1413 35 26.5925 33.1563 29.8744 29.8744C33.1563 26.5925 35 22.1413 35 17.5C35 12.8587 33.1563 8.40752 29.8744 5.12563C26.5925 1.84375 22.1413 0 17.5 0C12.8587 0 8.40752 1.84375 5.12563 5.12563C1.84375 8.40752 0 12.8587 0 17.5C0 22.1413 1.84375 26.5925 5.12563 29.8744C8.40752 33.1563 12.8587 35 17.5 35V35Z" />
<path fill-rule="evenodd" clip-rule="evenodd" d="M17.5 13C18.3284 13 19 12.3284 19 11.5C19 10.6716 18.3284 10 17.5 10C16.6716 10 16 10.6716 16 11.5C16 12.3284 16.6716 13 17.5 13ZM19 15.877C19 15.0485 18.3284 14.377 17.5 14.377C16.6716 14.377 16 15.0485 16 15.877V24.5C16 25.3284 16.6716 26 17.5 26C18.3284 26 19 25.3284 19 24.5V15.877Z" />
</g>
<defs>
<clipPath id="clip0_10_16">
<rect width="35" height="35" fill="white"/>
</clipPath>
</defs>
</svg>