<svg viewBox="0 0 20 20" fill="none" xmlns="http://www.w3.org/2000/svg">
<g clip-path="url(#clip0_8_72)">
<path d="M13.1249 6.45831C13.1249 6.11313 12.8451 5.83331 12.4999 5.83331C12.1547 5.83331 11.8749 6.11313 11.8749 6.45831C11.8749 8.47982 11.4283 9.7927 10.6105 10.6106C9.79264 11.4284 8.47976 11.875 6.45825 11.875C6.11307 11.875 5.83325 12.1548 5.83325 12.5C5.83325 12.8452 6.11307 13.125 6.45825 13.125C8.47976 13.125 9.79264 13.5716 10.6105 14.3894C11.4283 15.2073 11.8749 16.5201 11.8749 18.5416C11.8749 18.8868 12.1547 19.1666 12.4999 19.1666C12.8451 19.1666 13.1249 18.8868 13.1249 18.5416C13.1249 16.5201 13.5715 15.2073 14.3893 14.3894C15.2072 13.5716 16.5201 13.125 18.5416 13.125C18.8868 13.125 19.1666 12.8452 19.1666 12.5C19.1666 12.1548 18.8868 11.875 18.5416 11.875C16.5201 11.875 15.2072 11.4284 14.3893 10.6106C13.5715 9.7927 13.1249 8.47982 13.1249 6.45831Z" fill="#394DFE"/>
<path d="M6.04158 1.45831C6.04158 1.11313 5.76176 0.833313 5.41658 0.833313C5.07141 0.833313 4.79158 1.11313 4.79158 1.45831C4.79158 2.75644 4.50416 3.54849 4.02629 4.02635C3.54843 4.50422 2.75638 4.79165 1.45825 4.79165C1.11307 4.79165 0.833252 5.07147 0.833252 5.41665C0.833252 5.76182 1.11307 6.04165 1.45825 6.04165C2.75638 6.04165 3.54843 6.32907 4.02629 6.80694C4.50416 7.2848 4.79158 8.07685 4.79158 9.37498C4.79158 9.72016 5.07141 9.99998 5.41658 9.99998C5.76176 9.99998 6.04158 9.72016 6.04158 9.37498C6.04158 8.07685 6.32901 7.2848 6.80688 6.80694C7.28474 6.32907 8.07679 6.04165 9.37492 6.04165C9.7201 6.04165 9.99992 5.76182 9.99992 5.41665C9.99992 5.07147 9.7201 4.79165 9.37492 4.79165C8.07679 4.79165 7.28474 4.50422 6.80688 4.02635C6.32901 3.54849 6.04158 2.75644 6.04158 1.45831Z" fill="#394DFE"/>
</g>
<defs>
<clipPath id="clip0_8_72">
<rect width="20" height="20" fill="white"/>
</clipPath>
</defs>
</svg>
