<svg viewBox="0 0 14 15" fill="none" xmlns="http://www.w3.org/2000/svg">
<g id="icon &#60;- change size here">
<path id="Vector" d="M7 1.86172L5.88467 5.25264C5.82759 5.42619 5.73055 5.5839 5.60136 5.71309C5.47218 5.84227 5.31446 5.93931 5.14092 5.99639L1.75 7.11172L5.14092 8.22706C5.31446 8.28414 5.47218 8.38118 5.60136 8.51036C5.73055 8.63954 5.82759 8.79726 5.88467 8.97081L7 12.3617L8.11533 8.97081C8.17241 8.79726 8.26945 8.63954 8.39864 8.51036C8.52782 8.38118 8.68554 8.28414 8.85908 8.22706L12.25 7.11172L8.85908 5.99639C8.68554 5.93931 8.52782 5.84227 8.39864 5.71309C8.26945 5.5839 8.17241 5.42619 8.11533 5.25264L7 1.86172Z" stroke="#394EFF" stroke-linecap="round" stroke-linejoin="round" fill="white"/>
<path id="Vector_2" d="M2.91663 1.86172V4.19506" stroke="#394EFF" stroke-linecap="round" stroke-linejoin="round"/>
<path id="Vector_3" d="M11.0834 10.0284V12.3617" stroke="#394EFF" stroke-linecap="round" stroke-linejoin="round"/>
<path id="Vector_4" d="M1.75 3.02838H4.08333" stroke="#394EFF" stroke-linecap="round" stroke-linejoin="round"/>
<path id="Vector_5" d="M9.91663 11.1951H12.25" stroke="#394EFF" stroke-linecap="round" stroke-linejoin="round"/>
</g>
</svg>
