<svg xmlns="http://www.w3.org/2000/svg" viewBox="0 0 640 512"><defs><style>.fa-secondary{opacity:.4}</style></defs><path d="M319.45 0C217.44.31 144 83 144 176a175 175 0 0 0 43.56 115.78c16.52 18.85 42.36 58.23 52.21 91.45 0 .26.07.52.11.78h160.24c0-.26.07-.51.11-.78 9.85-33.22 35.69-72.6 52.21-91.45A175.9 175.9 0 0 0 319.45 0zm.55 96a80.09 80.09 0 0 0-80 80 16 16 0 0 1-32 0A112.12 112.12 0 0 1 320 64a16 16 0 0 1 0 32z" class="fa-secondary"/><path d="M112.81 160H16a16 16 0 0 0-16 16v32a16 16 0 0 0 16 16h101.78a209.51 209.51 0 0 1-4.97-64zM40.73 67.71l80.88 46.69a203.27 203.27 0 0 1 28.12-57.66l-77-44.46a16 16 0 0 0-21.86 5.86l-16 27.71a16 16 0 0 0 5.86 21.86zm91 196l-91 52.55a16 16 0 0 0-5.86 21.86l16 27.71a16 16 0 0 0 21.86 5.86l94.42-54.51c-.88-1.06-1.83-2.27-2.64-3.18a207.68 207.68 0 0 1-32.76-50.26zm467.52 52.55l-91.49-52.82c-8.24 17.65-18.23 34.52-31.28 49.4-1.1 1.26-2.36 2.85-3.59 4.37l94.36 54.48a16 16 0 0 0 21.86-5.86l16-27.71a16 16 0 0 0-5.84-21.83zm0-248.58a16 16 0 0 0 5.86-21.86l-16-27.71a16 16 0 0 0-21.86-5.86l-77.08 44.5a207.31 207.31 0 0 1 28.46 57.47zM240.06 454.35a32 32 0 0 0 5.36 17.65l17.09 25.69A32 32 0 0 0 289.15 512h61.71a32 32 0 0 0 26.64-14.28L394.59 472a32 32 0 0 0 5.41-17.65V416H240zM624 160h-96.81c1.12 14.55 2.18 31.7-5.53 64H624a16 16 0 0 0 16-16v-32a16 16 0 0 0-16-16z" class="fa-primary"/></svg>