<svg viewBox="0 0 12 12" xmlns="http://www.w3.org/2000/svg">
<g clip-path="url(#clip0_82_1859)">
<path d="M10.7141 6.08031H5.91944V1.28567C5.91944 1.22674 5.87123 1.17852 5.8123 1.17852H5.46408C4.76056 1.17737 4.06375 1.31534 3.41374 1.58449C2.76373 1.85364 2.17336 2.24866 1.67658 2.74683C1.18736 3.23454 0.797544 3.81267 0.528817 4.44906C0.249181 5.10911 0.105689 5.81883 0.106942 6.53567C0.10579 7.23919 0.243758 7.93601 0.512909 8.58601C0.78206 9.23602 1.17708 9.82639 1.67525 10.3232C2.16676 10.8147 2.73998 11.2017 3.37748 11.4709C4.03753 11.7506 4.74724 11.8941 5.46408 11.8928C6.16761 11.894 6.86442 11.756 7.51443 11.4868C8.16444 11.2177 8.75481 10.8227 9.25158 10.3245C9.7431 9.83299 10.1302 9.25978 10.3994 8.62228C10.679 7.96222 10.8225 7.25251 10.8212 6.53567V6.18745C10.8212 6.12852 10.773 6.08031 10.7141 6.08031ZM8.594 9.6937C8.17928 10.1052 7.68745 10.4308 7.14669 10.6519C6.60593 10.873 6.02686 10.9852 5.44266 10.9821C4.26275 10.9767 3.15382 10.5147 2.31944 9.68031C1.47971 8.84058 1.01766 7.72361 1.01766 6.53567C1.01766 5.34772 1.47971 4.23076 2.31944 3.39103C3.05069 2.65978 3.99221 2.21379 5.00873 2.11201V6.99103H9.88775C9.78462 8.0129 9.33462 8.95978 8.594 9.6937ZM11.8927 5.33567L11.8578 4.95799C11.744 3.72451 11.1962 2.56067 10.315 1.6821C9.43312 0.801913 8.27166 0.257184 7.03105 0.141918L6.65203 0.107096C6.58908 0.101739 6.53551 0.149953 6.53551 0.2129V5.3571C6.53551 5.41602 6.58373 5.46424 6.64266 5.46424L11.7855 5.45085C11.8485 5.45085 11.898 5.39727 11.8927 5.33567ZM7.44355 4.5562V1.1196C8.28721 1.29618 9.06143 1.71399 9.67212 2.32227C10.2842 2.93299 10.7034 3.70977 10.8775 4.54683L7.44355 4.5562Z" fill="black"/>
</g>
<defs>
<clipPath id="clip0_82_1859">
<rect width="12" height="12" fill="white"/>
</clipPath>
</defs>
</svg>
