<svg xmlns="http://www.w3.org/2000/svg" viewBox="0 0 640 512"><path d="M496 272h32V144h-96v128h64zm-32-96h32v64h-32v-64zm-128 96h32V144h-96v128h64zm-32-96h32v64h-32v-64zm-128 96h32V144h-96v128h64zm-32-96h32v64h-32v-64zm488-16h8V96c0-17.67-14.33-32-32-32H32C14.33 64 0 78.33 0 96v64h8c13.26 0 24 10.74 24 24 0 13.25-10.74 24-24 24H0v240h640V208h-8c-13.25 0-24-10.75-24-24 0-13.26 10.75-24 24-24zm-24 256h-80v-16c0-8.84-7.16-16-16-16s-16 7.16-16 16v16h-96v-16c0-8.84-7.16-16-16-16s-16 7.16-16 16v16h-96v-16c0-8.84-7.16-16-16-16s-16 7.16-16 16v16h-96v-16c0-8.84-7.16-16-16-16s-16 7.16-16 16v16H32v-64h576v64zm0-282.59c-18.91 9-32 28.3-32 50.59s13.09 41.59 32 50.59V320H32v-85.41c18.9-9 32-28.3 32-50.59s-13.1-41.59-32-50.59V96h576v37.41z"/></svg>