<svg viewBox="0 0 100 100" xmlns="http://www.w3.org/2000/svg">
<rect width="100" height="100" rx="13.1579" fill-opacity="0.08"/>
<g clip-path="url(#clip0_14_33)">
<path d="M27.4167 33.3334C27.9692 33.3334 28.4991 33.1139 28.8898 32.7232C29.2805 32.3325 29.5 31.8026 29.5 31.25C29.5 30.6975 29.2805 30.1676 28.8898 29.7769C28.4991 29.3862 27.9692 29.1667 27.4167 29.1667C26.8641 29.1667 26.3342 29.3862 25.9435 29.7769C25.5528 30.1676 25.3333 30.6975 25.3333 31.25C25.3333 31.8026 25.5528 32.3325 25.9435 32.7232C26.3342 33.1139 26.8641 33.3334 27.4167 33.3334ZM35.75 31.25C35.75 31.8026 35.5305 32.3325 35.1398 32.7232C34.7491 33.1139 34.2192 33.3334 33.6667 33.3334C33.1141 33.3334 32.5842 33.1139 32.1935 32.7232C31.8028 32.3325 31.5833 31.8026 31.5833 31.25C31.5833 30.6975 31.8028 30.1676 32.1935 29.7769C32.5842 29.3862 33.1141 29.1667 33.6667 29.1667C34.2192 29.1667 34.7491 29.3862 35.1398 29.7769C35.5305 30.1676 35.75 30.6975 35.75 31.25ZM39.9167 33.3334C40.4692 33.3334 40.9991 33.1139 41.3898 32.7232C41.7805 32.3325 42 31.8026 42 31.25C42 30.6975 41.7805 30.1676 41.3898 29.7769C40.9991 29.3862 40.4692 29.1667 39.9167 29.1667C39.3641 29.1667 38.8342 29.3862 38.4435 29.7769C38.0528 30.1676 37.8333 30.6975 37.8333 31.25C37.8333 31.8026 38.0528 32.3325 38.4435 32.7232C38.8342 33.1139 39.3641 33.3334 39.9167 33.3334V33.3334Z" fill-opacity="0.5"/>
<path d="M25.3333 20.8333C23.1232 20.8333 21.0036 21.7113 19.4408 23.2741C17.878 24.8369 17 26.9565 17 29.1666V70.8333C17 73.0434 17.878 75.1631 19.4408 76.7259C21.0036 78.2887 23.1232 79.1666 25.3333 79.1666H75.3333C77.5435 79.1666 79.6631 78.2887 81.2259 76.7259C82.7887 75.1631 83.6667 73.0434 83.6667 70.8333V29.1666C83.6667 26.9565 82.7887 24.8369 81.2259 23.2741C79.6631 21.7113 77.5435 20.8333 75.3333 20.8333H25.3333ZM79.5 29.1666V37.5H21.1667V29.1666C21.1667 28.0616 21.6057 27.0018 22.3871 26.2204C23.1685 25.439 24.2283 25 25.3333 25H75.3333C76.4384 25 77.4982 25.439 78.2796 26.2204C79.061 27.0018 79.5 28.0616 79.5 29.1666ZM25.3333 75C24.2283 75 23.1685 74.561 22.3871 73.7796C21.6057 72.9982 21.1667 71.9384 21.1667 70.8333V41.6666H79.5V70.8333C79.5 71.9384 79.061 72.9982 78.2796 73.7796C77.4982 74.561 76.4384 75 75.3333 75H25.3333Z" fill-opacity="0.5"/>
</g>
<defs>
<clipPath id="clip0_14_33">
<rect width="66.6667" height="60" fill="white" transform="translate(17 20)"/>
</clipPath>
</defs>
</svg>
