<svg viewBox="0 0 250 78" xmlns="http://www.w3.org/2000/svg">
<path fill-rule="evenodd" clip-rule="evenodd" d="M239.854 9.85271L181.341 68.6533L93.0054 29.5492L9.44029 68.5101L9.01772 67.6037L92.9946 28.4509L181.117 67.4606L239.146 9.14734L239.854 9.85271Z" fill="#C2C2C2"/>
<path d="M9.65947 77.6938C14.9942 77.6938 19.3189 73.3691 19.3189 68.0343C19.3189 62.6996 14.9942 58.3749 9.65947 58.3749C4.32469 58.3749 0 62.6996 0 68.0343C0 73.3691 4.32469 77.6938 9.65947 77.6938Z" fill="#C7CCF9"/>
<path d="M92.9847 38.9071C98.3194 38.9071 102.644 34.5824 102.644 29.2476C102.644 23.9128 98.3194 19.5881 92.9847 19.5881C87.6499 19.5881 83.3252 23.9128 83.3252 29.2476C83.3252 34.5824 87.6499 38.9071 92.9847 38.9071Z" fill="#B4E4E7"/>
<path d="M180.31 77.6938C185.645 77.6938 189.969 73.3691 189.969 68.0343C189.969 62.6996 185.645 58.3749 180.31 58.3749C174.975 58.3749 170.65 62.6996 170.65 68.0343C170.65 73.3691 174.975 77.6938 180.31 77.6938Z" fill="#C7CCF9"/>
<path d="M239.659 19.3189C244.994 19.3189 249.319 14.9942 249.319 9.65947C249.319 4.32469 244.994 0 239.659 0C234.325 0 230 4.32469 230 9.65947C230 14.9942 234.325 19.3189 239.659 19.3189Z" fill="#B4E4E7"/>
</svg>
