<svg width="24" height="24" viewBox="0 0 24 24" fill="none" xmlns="http://www.w3.org/2000/svg">
<g clip-path="url(#clip0_41_19)">
<path d="M3.3125 22.6568V1.93646L21.3807 12.2138L3.3125 22.6568Z" fill="white"/>
<path d="M19.6572 11.9819L4.37603 3.01376V20.9501L19.6572 11.9819ZM21.7424 10.1281C22.3994 10.5087 22.8048 11.216 22.8048 11.9819C22.8048 12.7479 22.3994 13.4552 21.7424 13.8358L4.98948 23.6696C3.62039 24.474 1.74316 23.555 1.74316 21.8158V2.14811C1.74316 0.408813 3.62039 -0.510111 4.98948 0.294281L21.7424 10.1281Z" fill="#122AF5"/>
<path d="M13.3606 11.4876C13.5378 11.5891 13.6471 11.7777 13.6471 11.9819C13.6471 12.1862 13.5378 12.3748 13.3606 12.4763L8.84233 15.0986C8.47309 15.3131 7.9668 15.0681 7.9668 14.6043V9.35957C7.9668 8.89576 8.47309 8.65071 8.84233 8.86522L13.3606 11.4876Z" fill="#3EAAAF"/>
</g>
<defs>
<clipPath id="clip0_41_19">
<rect width="24" height="24" fill="white"/>
</clipPath>
</defs>
</svg>
