<svg xmlns="http://www.w3.org/2000/svg" viewBox="0 0 16 16">
  <path d="M8,16 C3.581722,16 0,12.418278 0,8 C0,3.581722 3.581722,0 8,0 C12.418278,0 16,3.581722 16,8 C16,12.418278 12.418278,16 8,16 Z M8,15 C11.8659932,15 15,11.8659932 15,8 C15,4.13400675 11.8659932,1 8,1 C4.13400675,1 1,4.13400675 1,8 C1,11.8659932 4.13400675,15 8,15 Z M7.65234375,8.4375 C7.65234375,9.13281598 7.43424697,9.70898209 6.99804688,10.1660156 C6.56184678,10.6230492 5.99609723,10.8515625 5.30078125,10.8515625 C4.61848617,10.8515625 4.06445525,10.6230492 3.63867188,10.1660156 C3.2128885,9.70898209 3,9.13281598 3,8.4375 L3,7.4140625 C3,6.7213507 3.2128885,6.14583563 3.63867188,5.6875 C4.06445525,5.22916437 4.6171841,5 5.296875,5 C5.99219098,5 6.55859156,5.22916437 6.99609375,5.6875 C7.43359594,6.14583563 7.65234375,6.7213507 7.65234375,7.4140625 L7.65234375,8.4375 Z M6.70703125,7.40625 C6.70703125,6.9322893 6.58007939,6.54297027 6.32617188,6.23828125 C6.07226436,5.93359223 5.72916883,5.78125 5.296875,5.78125 C4.88020625,5.78125 4.55078246,5.93359223 4.30859375,6.23828125 C4.06640504,6.54297027 3.9453125,6.9322893 3.9453125,7.40625 L3.9453125,8.4375 C3.9453125,8.91666906 4.06640504,9.30924326 4.30859375,9.61523438 C4.55078246,9.92122549 4.88150832,10.0742188 5.30078125,10.0742188 C5.73567926,10.0742188 6.07877479,9.92187652 6.33007812,9.6171875 C6.58138146,9.31249848 6.70703125,8.91927324 6.70703125,8.4375 L6.70703125,7.40625 Z M11.7617188,9.30859375 C11.7617188,9.0716134 11.673829,8.87760492 11.4980469,8.7265625 C11.3222647,8.57552008 11.011721,8.44010477 10.5664062,8.3203125 C9.93098641,8.153645 9.442059,7.93294408 9.09960938,7.65820312 C8.75715975,7.38346217 8.5859375,7.02343973 8.5859375,6.578125 C8.5859375,6.11978937 8.77538873,5.74218898 9.15429688,5.4453125 C9.53320502,5.14843602 10.0221324,5 10.6210938,5 C11.2460969,5 11.748045,5.16796707 12.1269531,5.50390625 C12.5058613,5.83984543 12.6888021,6.24348723 12.6757812,6.71484375 L12.6679688,6.73828125 L11.7578125,6.73828125 C11.7578125,6.44661313 11.6588552,6.21028736 11.4609375,6.02929688 C11.2630198,5.84830639 10.9804706,5.7578125 10.6132812,5.7578125 C10.2669254,5.7578125 10.000652,5.83333258 9.81445312,5.984375 C9.62825428,6.13541742 9.53515625,6.33072797 9.53515625,6.5703125 C9.53515625,6.78645941 9.6360667,6.96614512 9.83789062,7.109375 C10.0397146,7.25260488 10.3736956,7.3880202 10.8398438,7.515625 C11.451826,7.67968832 11.9166651,7.90624855 12.234375,8.1953125 C12.5520849,8.48437645 12.7109375,8.85286234 12.7109375,9.30078125 C12.7109375,9.77474195 12.5214863,10.1516913 12.1425781,10.4316406 C11.76367,10.7115899 11.2656281,10.8515625 10.6484375,10.8515625 C10.0546845,10.8515625 9.53385641,10.694663 9.0859375,10.3808594 C8.63801859,10.0670557 8.42057285,9.63672148 8.43359375,9.08984375 L8.44140625,9.06640625 L9.35546875,9.06640625 C9.35546875,9.41276215 9.47525922,9.67122311 9.71484375,9.84179688 C9.95442828,10.0123706 10.2656231,10.0976562 10.6484375,10.0976562 C11.0000018,10.0976562 11.2734365,10.0266934 11.46875,9.88476562 C11.6640635,9.74283783 11.7617188,9.55078246 11.7617188,9.30859375 Z"/>
</svg>
