<svg width="42" height="42" viewBox="0 0 42 42" fill="inherit" xmlns="http://www.w3.org/2000/svg">
<g clip-path="url(#clip0_1_47)">
<path d="M21 0C25.1534 0 29.2135 1.23163 32.667 3.53914C36.1204 5.84665 38.812 9.1264 40.4015 12.9636C41.9909 16.8009 42.4068 21.0233 41.5965 25.0969C40.7862 29.1705 38.7861 32.9123 35.8492 35.8492C32.9123 38.7861 29.1705 40.7862 25.0969 41.5965C21.0233 42.4068 16.8009 41.9909 12.9636 40.4015C9.1264 38.812 5.84665 36.1204 3.53914 32.667C1.23163 29.2135 0 25.1534 0 21C0 15.4305 2.21249 10.089 6.15076 6.15076C10.089 2.21249 15.4305 0 21 0ZM21 1.27615C17.099 1.27615 13.2856 2.43294 10.042 4.60022C6.79845 6.76751 4.27039 9.84795 2.77754 13.452C1.28469 17.0561 0.894093 21.0219 1.65514 24.8479C2.41619 28.674 4.29471 32.1884 7.05313 34.9469C9.81156 37.7053 13.326 39.5838 17.1521 40.3449C20.9781 41.1059 24.9439 40.7153 28.548 39.2225C32.1521 37.7296 35.2325 35.2015 37.3998 31.958C39.5671 28.7144 40.7238 24.901 40.7238 21C40.7238 18.4098 40.2137 15.845 39.2225 13.452C38.2312 11.059 36.7784 8.88466 34.9469 7.05313C33.1153 5.22161 30.941 3.76876 28.548 2.77754C26.155 1.78633 23.5902 1.27615 21 1.27615Z" />
<circle cx="21" cy="21" r="20" fill="inherit" />
<path d="M29.3192 23.0838C31.1527 21.9531 31.1527 20.1438 29.3192 19.0454L18.6819 12.6565C16.8485 11.5258 15.3462 12.2608 15.3462 14.2719V27.7604C15.3462 29.7312 16.8485 30.4742 18.69 29.3758L29.3192 23.0838Z" fill="white"/>
</g>
<defs>
<clipPath id="clip0_1_47">
<rect width="42" height="42" fill="white"/>
</clipPath>
</defs>
</svg>
