<?xml version="1.0" encoding="UTF-8"?>
<svg viewBox="0 0 8 8" version="1.1" xmlns="http://www.w3.org/2000/svg" xmlns:xlink="http://www.w3.org/1999/xlink">
    <path d="M4,0 C4.27614237,0 4.5,0.223857625 4.5,0.5 L4.5,3.5 L7.5,3.5 C7.77614237,3.5 8,3.72385763 8,4 C8,4.27614237 7.77614237,4.5 7.5,4.5 L4.5,4.5 L4.5,7.5 C4.5,7.77614237 4.27614237,8 4,8 C3.72385763,8 3.5,7.77614237 3.5,7.5 L3.5,4.5 L0.5,4.5 C0.223857625,4.5 0,4.27614237 0,4 C0,3.72385763 0.223857625,3.5 0.5,3.5 L3.5,3.5 L3.5,0.5 C3.5,0.223857625 3.72385763,0 4,0 Z" id="Path"></path>
</svg>