<svg viewBox="0 0 157 200" xmlns="http://www.w3.org/2000/svg">
<path d="M156.877 1.64707C156.914 0.898282 156.144 0.376269 155.462 0.687692L151.61 2.44671C150.865 2.78695 150.823 3.82961 151.538 4.22925L155.2 6.27642C155.848 6.63833 156.65 6.19411 156.687 5.45327L156.877 1.64707ZM0.371826 100.542C7.55254 99.968 15.7724 100.132 24.1312 100.173C32.4654 100.214 40.9251 100.134 48.4931 99.0527C56.0574 97.9722 62.8178 95.8818 67.6883 91.8446C72.5816 87.7878 75.4799 81.8404 75.4799 73.2182H74.0852C74.0852 81.5822 71.2859 87.1788 66.7306 90.955C62.152 94.7504 55.7115 96.782 48.269 97.845C40.8302 98.9071 32.4775 98.9907 24.1391 98.9495C15.8249 98.9083 7.63855 99.9611 0.371826 100.542ZM68.0514 86.3092C70.9892 88.8626 74.6421 89.6433 78.719 88.9095C82.7546 88.183 87.2025 85.9768 91.8679 82.5856C101.206 75.798 111.628 64.106 121.647 49.2607C121.647 49.2607 121.608 48.8808 121.139 48.6374C111.156 63.4289 100.138 74.9847 90.9781 81.6434C86.394 84.9754 82.1543 87.8167 78.4382 88.4857C74.7635 89.1473 71.6011 88.4469 69.0333 86.215L68.0514 86.3092ZM121.647 49.2607C147.109 11.5346 146.27 15.5123 154.168 4.98484L153.696 4.31224C145.876 14.7349 146.614 10.8914 121.139 48.6374C121.608 48.8808 121.647 49.2607 121.647 49.2607ZM75.4799 73.2182C75.4799 72.7895 75.4325 72.4126 75.3242 72.0969C75.2168 71.7832 75.0327 71.4851 74.723 71.2815C74.0475 70.8378 73.2543 71.1004 72.7178 71.3974C71.583 72.0263 70.2547 73.5012 69.143 75.2197C68.0165 76.9617 67.0397 79.0652 66.6771 81.0438C66.3186 82.9988 66.5353 84.9913 68.0514 86.3092L69.0333 86.215C67.9989 85.316 67.7208 83.0559 68.0542 81.238C68.3834 79.4433 68.593 77.4789 69.6638 75.8237C70.7498 74.1449 72.6304 72.8931 73.4626 72.4322C73.9099 72.1842 73.9629 72.311 73.8876 72.2613C73.8783 72.2552 73.9327 72.2866 73.9885 72.4497C74.0442 72.6112 74.0852 72.8588 74.0852 73.2182H75.4799Z" fill="black"/>
</svg>
