<svg viewBox="0 0 16 16" fill="none" xmlns="http://www.w3.org/2000/svg">
<path d="M12.8868 12.169L14.6833 11.3017V10.4345L10.5329 8.4522L14.6833 6.31509V5.47885L12.9488 4.67353L8.03444 7.12036L3.03747 4.67353L1.42688 5.5408V6.28412L5.32944 8.42123L1.42688 10.4035V11.3017L3.09941 12.169L8.05507 9.62919L12.8868 12.169Z" fill="#00D8A2" stroke="#00D8A2" stroke-width="0.555154"/>
<path d="M13.1121 11.8153V11.4417L14.4644 10.741V11.1606L13.1121 11.8153ZM1.53571 10.7312L2.84237 11.4813V11.7799L1.53571 11.1189V10.7312ZM8.22871 9.15374L12.7237 11.3747V11.8212L8.22871 9.51851V9.15374ZM3.2308 11.4396L7.84033 9.15415V9.51839L3.2308 11.8505V11.4396ZM6.49464 7.7052L1.83006 5.45314L3.03819 4.83914L8.03452 7.42926L12.9472 4.84025L14.198 5.4809L9.6492 7.77012C9.46729 7.86164 9.46758 8.12133 9.64961 8.21249L14.1515 10.4657L12.9846 11.0703L8.03452 8.53396L2.99687 11.1221L1.8463 10.4616L6.49733 8.14967C6.68152 8.0581 6.67994 7.79467 6.49464 7.7052ZM1.59379 6.2161V5.80622L5.94422 7.97676L5.50442 8.15248L1.59379 6.2161ZM10.5145 8.17656C10.5085 8.17293 10.0978 7.97915 10.0978 7.97915L14.4643 5.78162V6.19331L10.5145 8.17656ZM10.9516 8.39178L14.7894 6.46475C14.8085 6.45517 14.8245 6.44047 14.8357 6.42231C14.8469 6.40415 14.8528 6.38324 14.8528 6.3619V5.45028C14.8528 5.42912 14.847 5.40836 14.8359 5.3903C14.8249 5.37224 14.8091 5.35757 14.7903 5.3479L13.0001 4.43096C12.9839 4.42269 12.966 4.41836 12.9478 4.41833C12.9297 4.4183 12.9118 4.42257 12.8956 4.43078L8.086 6.87136C8.06999 6.87947 8.05231 6.88373 8.03436 6.88379C8.01641 6.88385 7.99869 6.87971 7.98263 6.87171L3.08839 4.43008C3.07231 4.42208 3.05458 4.41794 3.03662 4.41802C3.01866 4.41809 3.00097 4.42236 2.98495 4.43049L1.21021 5.33241C1.19127 5.34203 1.17536 5.3567 1.16424 5.3748C1.15313 5.3929 1.14723 5.41373 1.14722 5.43497V6.36149C1.14722 6.40526 1.17205 6.44523 1.21132 6.46463L5.06532 8.36876L1.22915 10.2735C1.2103 10.2829 1.19438 10.2973 1.18313 10.3151C1.17188 10.3329 1.16572 10.3534 1.16533 10.3744L1.14856 11.2855C1.14817 11.3071 1.15389 11.3284 1.16505 11.3469C1.17621 11.3655 1.19237 11.3805 1.21167 11.3903L3.05455 12.3227C3.0706 12.3308 3.08833 12.335 3.10631 12.335C3.1243 12.3351 3.14203 12.3309 3.1581 12.3228L7.98257 9.90028C7.99867 9.8922 8.01644 9.88801 8.03446 9.88805C8.05247 9.88809 8.07023 9.89236 8.0863 9.90051L12.8507 12.323C12.8665 12.331 12.8839 12.3352 12.9016 12.3354C12.9194 12.3356 12.9369 12.3317 12.9528 12.324L14.7879 11.4355C14.8073 11.4261 14.8237 11.4114 14.8352 11.3931C14.8467 11.3748 14.8528 11.3537 14.8528 11.3321V10.3801C14.8528 10.3586 14.8468 10.3375 14.8354 10.3193C14.8241 10.301 14.8078 10.2863 14.7885 10.2769L10.9516 8.39178Z" fill="black"/>
</svg>
