<svg viewBox="0 0 16 16" fill="none" xmlns="http://www.w3.org/2000/svg">
<path d="M5.4578 9.23896C4.94236 9.38524 4.6042 9.64172 4.38144 9.898C4.5948 9.71128 4.8806 9.53992 5.26612 9.43064C5.66044 9.31888 5.99684 9.31968 6.2748 9.37332V9.15596C6.03768 9.13428 5.76584 9.15156 5.4578 9.23896ZM4.35788 7.41176L2.44362 7.91608C2.44362 7.91608 2.47851 7.96536 2.54311 8.03112L4.16616 7.60344C4.16616 7.60344 4.14316 7.8998 3.94343 8.16492C4.32124 7.87908 4.35788 7.41176 4.35788 7.41176ZM5.96024 11.9106C3.26637 12.6362 1.84113 9.51424 1.40962 7.89384C1.21026 7.14588 1.12323 6.5794 1.10004 6.21384C1.09755 6.17588 1.0987 6.14388 1.10138 6.11456C0.961639 6.123 0.894735 6.19564 0.908347 6.40556C0.931543 6.77092 1.01857 7.33736 1.21793 8.08556C1.64924 9.70572 3.07467 12.8276 5.76856 12.1021C6.35492 11.9441 6.79544 11.6564 7.12612 11.2891C6.82132 11.5644 6.43984 11.7812 5.96024 11.9106ZM6.46648 5.50112V5.69284H7.52312C7.50144 5.62496 7.4796 5.5638 7.45792 5.50112H6.46648Z" fill="#2D4552"/>
<path d="M7.75929 7.08008C8.23449 7.21504 8.48581 7.5482 8.61865 7.84304L9.14849 7.99352C9.14849 7.99352 9.07621 6.96164 8.14285 6.69652C7.26969 6.44844 6.73237 7.18168 6.66701 7.27656C6.92101 7.0956 7.29193 6.94744 7.75929 7.08008ZM11.9769 7.8478C11.103 7.5986 10.5658 8.33336 10.5014 8.42692C10.7556 8.24616 11.1264 8.09796 11.5935 8.2312C12.068 8.36636 12.3191 8.69912 12.4523 8.99416L12.9829 9.1452C12.9829 9.1452 12.9095 8.11312 11.9769 7.8478ZM11.4505 10.5685L7.04293 9.33632C7.04293 9.33632 7.09065 9.57824 7.27373 9.89148L10.9847 10.9289C11.2902 10.7522 11.4505 10.5685 11.4505 10.5685ZM8.39473 13.2208C4.90477 12.2851 5.32669 7.83844 5.89141 5.73132C6.12393 4.86296 6.36297 4.21753 6.56121 3.78488C6.44293 3.76053 6.34497 3.82284 6.24817 4.01971C6.03769 4.4466 5.76853 5.14168 5.50805 6.11472C4.94349 8.2218 4.52157 12.6683 8.01137 13.604C9.65629 14.0447 10.9377 13.3749 11.893 12.3231C10.9862 13.1443 9.82861 13.6048 8.39473 13.2208Z" fill="#2D4552"/>
<path d="M6.46647 10.8686V9.97124L3.97332 10.6782C3.97332 10.6782 4.15755 9.6078 5.45779 9.23896C5.85211 9.1272 6.18855 9.12796 6.46647 9.18164V5.50112H7.71479C7.57887 5.08112 7.44739 4.75776 7.33695 4.53308C7.15427 4.1612 6.96699 4.40772 6.54183 4.76332C6.24239 5.01348 5.48559 5.54716 4.34675 5.85404C3.20789 6.16112 2.28719 6.07968 1.90304 6.01316C1.35843 5.9192 1.07358 5.7996 1.10022 6.21384C1.12342 6.5792 1.21045 7.14568 1.40981 7.89384C1.84112 9.51404 3.26655 12.636 5.96043 11.9104C6.66411 11.7208 7.16079 11.346 7.50507 10.8684H6.46647V10.8686ZM2.44342 7.91608L4.35787 7.41176C4.35787 7.41176 4.30207 8.14824 3.58438 8.33744C2.86648 8.52644 2.44342 7.91608 2.44342 7.91608Z" fill="#E2574C"/>
<path d="M13.6714 5.54369C13.1738 5.63093 11.9799 5.73961 10.5044 5.34413C9.0286 4.94889 8.0494 4.25762 7.66144 3.9327C7.11148 3.47206 6.86956 3.15193 6.63148 3.63615C6.421 4.06325 6.15184 4.75833 5.89132 5.73137C5.3268 7.83845 4.90488 12.285 8.39464 13.2206C11.8837 14.1555 13.7412 10.0935 14.3057 7.98625C14.5662 7.01341 14.6805 6.27673 14.7119 5.80173C14.7478 5.26365 14.3782 5.41985 13.6714 5.54369ZM6.65984 7.28697C6.65984 7.28697 7.2098 6.43161 8.14256 6.69673C9.07592 6.96185 9.1482 7.99373 9.1482 7.99373L6.65984 7.28697ZM8.93676 11.1252C7.29608 10.6446 7.04304 9.33633 7.04304 9.33633L11.4504 10.5686C11.4504 10.5684 10.5608 11.5998 8.93676 11.1252ZM10.495 8.43653C10.495 8.43653 11.0442 7.58177 11.9768 7.84765C12.9094 8.11317 12.9828 9.14505 12.9828 9.14505L10.495 8.43653Z" fill="#2EAD33"/>
<path d="M5.67788 10.1948L5.24292 10.3182C5.34568 10.8975 5.5268 11.4534 5.81108 11.9445C5.86056 11.9336 5.90964 11.9242 5.96004 11.9104C6.09212 11.8748 6.2146 11.8306 6.33252 11.7825C6.01488 11.3112 5.80476 10.7683 5.67788 10.1948ZM5.50804 6.11477C5.28452 6.94901 5.08456 8.14977 5.1396 9.35417C5.23812 9.31141 5.3422 9.27157 5.4578 9.23877L5.53832 9.22077C5.44016 7.93429 5.65236 6.62333 5.8914 5.73137C5.952 5.50573 6.01276 5.29585 6.07332 5.10013C5.97576 5.16221 5.87072 5.22585 5.75108 5.29141C5.6704 5.54045 5.58892 5.81265 5.50804 6.11477Z" fill="#C04B41"/>
</svg>
