<svg viewBox="0 0 29 19" fill="none" xmlns="http://www.w3.org/2000/svg">
<path opacity="0.7" d="M11.6355 2.9045C10.8963 1.75328 9.80334 0.873101 8.521 0.396241C7.23867 -0.0806184 5.83621 -0.128393 4.5244 0.260101C3.21259 0.648595 2.06231 1.45237 1.24645 2.55061C0.430585 3.64885 -0.00678382 4.98223 7.95597e-05 6.35034C0.00076002 7.48328 0.305669 8.59524 0.882952 9.57006C1.46024 10.5449 2.28871 11.3468 3.28182 11.892C4.27493 12.4372 5.39624 12.7058 6.52859 12.6695C7.66095 12.6333 8.76279 12.2937 9.71903 11.6861C9.22188 13.1623 8.29591 14.7372 6.77033 16.316C6.47844 16.6179 6.31846 17.0234 6.32558 17.4433C6.3327 17.8632 6.50633 18.2631 6.80828 18.555C7.11022 18.8469 7.51575 19.0069 7.93566 18.9997C8.35556 18.9926 8.75543 18.819 9.04731 18.517C14.6867 12.6728 13.9542 6.31998 11.6355 2.91209V2.9045ZM26.8154 2.9045C26.0762 1.75328 24.9833 0.873101 23.7009 0.396241C22.4186 -0.0806184 21.0161 -0.128393 19.7043 0.260101C18.3925 0.648595 17.2422 1.45237 16.4264 2.55061C15.6105 3.64885 15.1731 4.98223 15.18 6.35034C15.1807 7.48328 15.4856 8.59524 16.0629 9.57006C16.6402 10.5449 17.4686 11.3468 18.4617 11.892C19.4549 12.4372 20.5762 12.7058 21.7085 12.6695C22.8409 12.6333 23.9427 12.2937 24.899 11.6861C24.4018 13.1623 23.4758 14.7372 21.9503 16.316C21.6584 16.6179 21.4984 17.0234 21.5055 17.4433C21.5126 17.8632 21.6863 18.2631 21.9882 18.555C22.2901 18.8469 22.6957 19.0069 23.1156 18.9997C23.5355 18.9926 23.9354 18.819 24.2272 18.517C29.8666 12.6728 29.1342 6.31998 26.8154 2.91209V2.9045Z" />
</svg>
