<svg viewBox="0 0 496 496" version="1.1" xmlns="http://www.w3.org/2000/svg" xmlns:xlink="http://www.w3.org/1999/xlink">
    <g id="Page-1" stroke="none" stroke-width="1">
        <g id="redo" transform="translate(248.000000, 248.000000) scale(-1, 1) translate(-248.000000, -248.000000)">
            <path d="M484,1.42108547e-14 L474,1.42108547e-14 C467.373,1.42108547e-14 462,5.373 462,12 L462,122.625 C418.804,49.047 338.761,-0.285 247.207,0.001 C110.82,0.428 -0.213,112.009 0,248.396 C0.214,385.181 111.166,496 248,496 C311.926,496 370.202,471.813 414.178,432.092 C419.291,427.474 419.532,419.531 414.66,414.659 L407.591,407.59 C403.088,403.087 395.842,402.876 391.109,407.136 C353.218,441.238 303.065,462 248,462 C130.256,462 34,366.669 34,248 C34,130.256 129.331,34 248,34 C330.862,34 402.737,81.077 438.289,150 L324,150 C317.373,150 312,155.373 312,162 L312,172 C312,178.627 317.373,184 324,184 L484,184 C490.627,184 496,178.627 496,172 L496,12 C496,5.373 490.627,1.42108547e-14 484,1.42108547e-14 Z" id="Shape"></path>
        </g>
    </g>
</svg>