<svg id="Layer_1" data-name="Layer 1" xmlns="http://www.w3.org/2000/svg" viewBox="0 0 16 14">
  <path
    d="M.59,2.59A2,2,0,0,0,0,4v8a2,2,0,0,0,.59,1.41A2,2,0,0,0,2,14H7.5a.5.5,0,0,0,0-1H2a1,1,0,0,1-.71-.29A1,1,0,0,1,1,12V7H14V8a.5.5,0,0,0,1,0V4a2,2,0,0,0-2-2H2A2,2,0,0,0,.59,2.59ZM14,6H1V4a1,1,0,0,1,.29-.71A1,1,0,0,1,2,3H13a1,1,0,0,1,1,1ZM2.85,4.85a.48.48,0,0,1-.7,0,.48.48,0,0,1,0-.7.48.48,0,0,1,.7,0,.48.48,0,0,1,0,.7Zm1.5,0a.5.5,0,1,1-.7-.7.5.5,0,1,1,.7.7Zm1.5,0a.5.5,0,1,0-.7-.7.5.5,0,1,0,.7.7ZM15,15a3.48,3.48,0,1,0-2.47,1A3.46,3.46,0,0,0,15,15Zm-4.2-4.46a.31.31,0,0,1,.19,0l3.33,1.34a.33.33,0,0,1,.15.11.34.34,0,0,1,0,.37.3.3,0,0,1-.13.12l-.92.46,1,1a.35.35,0,0,1,.1.24.34.34,0,0,1-.1.23.33.33,0,0,1-.23.1.35.35,0,0,1-.24-.1l-1-1-.46.92a.3.3,0,0,1-.12.13.34.34,0,0,1-.37,0,.33.33,0,0,1-.11-.15L10.52,11a.31.31,0,0,1,0-.19.33.33,0,0,1,.26-.26Z"
    transform="translate(0 -2)" />
</svg>
