<svg xmlns="http://www.w3.org/2000/svg" viewBox="0 0 496 496">
  <path d="M12.0003059,1.42108547e-14 L22.0003059,1.42108547e-14 C28.6273059,1.42108547e-14 34.0003059,5.373 34.0003059,12 L34.0003059,122.625 C77.1963059,49.047 157.239306,-0.285 248.793306,0.001 C385.180306,0.428 496.213306,112.009 496.000306,248.396 C495.786306,385.181 384.834306,496 248.000306,496 C184.074306,496 125.798306,471.813 81.8223059,432.092 C76.7093059,427.474 76.4683059,419.531 81.3403059,414.659 L88.4093059,407.59 C92.9123059,403.087 100.158306,402.876 104.891306,407.136 C142.782306,441.238 192.935306,462 248.000306,462 C365.744306,462 462.000306,366.669 462.000306,248 C462.000306,130.256 366.669306,34 248.000306,34 C165.138306,34 93.2633059,81.077 57.7113059,150 L172.000306,150 C178.627306,150 184.000306,155.373 184.000306,162 L184.000306,172 C184.000306,178.627 178.627306,184 172.000306,184 L12.0003059,184 C5.37330594,184 0.000305944828,178.627 0.000305944828,172 L0.000305944828,12 C0.000305944828,5.373 5.37330594,1.42108547e-14 12.0003059,1.42108547e-14 Z M229.454327,351.491551 L210.568464,351.491551 L210.568464,230.315249 L182,230.698718 L182,217.085557 L229.454327,211.908722 L229.454327,351.491551 Z M356.717773,298.285184 C356.717773,316.116596 352.771275,329.777554 344.878158,339.268467 C336.985042,348.75938 326.16812,353.504765 312.427068,353.504765 C298.686016,353.504765 287.82116,348.743402 279.832176,339.220533 C271.843192,329.697664 267.84876,316.052685 267.84876,298.285184 L267.84876,265.210956 C267.84876,247.443456 271.827215,233.782498 279.784243,224.227673 C287.741271,214.672849 298.558193,209.895508 312.235333,209.895508 C325.976386,209.895508 336.825263,214.672849 344.782291,224.227673 C352.739319,233.782498 356.717773,247.443456 356.717773,265.210956 L356.717773,298.285184 Z M337.83191,261.184528 C337.83191,249.105185 335.642961,240.013857 331.264998,233.910273 C326.887035,227.80669 320.543877,224.754944 312.235333,224.754944 C303.92679,224.754944 297.59961,227.80669 293.253602,233.910273 C288.907595,240.013857 286.734624,249.105185 286.734624,261.184528 L286.734624,302.119877 C286.734624,314.199221 288.93955,323.322504 293.34947,329.489999 C297.759389,335.657495 304.118525,338.741197 312.427068,338.741197 C320.735611,338.741197 327.046814,335.673473 331.360865,329.537933 C335.674917,323.402393 337.83191,314.263133 337.83191,302.119877 L337.83191,261.184528 Z"/>
</svg>
