<svg xmlns="http://www.w3.org/2000/svg" viewBox="0 0 16 17">
  <path d="M12.5903839,12.6222478 C11.9447366,11.9766004 11.1428571,11.173067 11.1428571,8.03571429 C11.1428571,5.73187054 9.46472545,3.8203192 7.2642433,3.45582589 C7.37148516,3.30093448 7.42882251,3.1169649 7.42857143,2.92857143 C7.42857143,2.41573884 7.01283259,2 6.50000327,2 C5.98716741,2 5.57142857,2.41573884 5.57142857,2.92857143 C5.57142857,3.12444196 5.63222098,3.30603571 5.7357567,3.45582589 C3.53527455,3.8203192 1.85714286,5.73187054 1.85714286,8.03571429 C1.85714286,11.173067 1.05500223,11.9766004 0.409354911,12.6222478 C-0.465504464,13.4971071 0.154520089,15 1.39425,15 L4.64285714,15 C4.64285714,16.0240402 5.47595982,16.8571429 6.5,16.8571429 C7.52404018,16.8571429 8.35714286,16.0240402 8.35714286,15 L11.6054888,15 C12.8427522,15 13.4670134,13.4988772 12.5903839,12.6222478 Z M6.5,15.9285714 C5.98797991,15.9285714 5.57142857,15.5120201 5.57142857,15 L7.42857143,15 C7.42857143,15.5120201 7.01202009,15.9285714 6.5,15.9285714 Z M11.6054888,14.0714286 L1.39425,14.0714286 C0.981529018,14.0714286 0.775270089,13.5695357 1.06594196,13.2788348 C2.0772433,12.2675625 2.78571429,11.1355469 2.78571429,8.03571429 C2.78571429,5.98296205 4.44695759,4.32142857 6.5,4.32142857 C8.55272321,4.32142857 10.2142857,5.98267187 10.2142857,8.03571429 C10.2142857,11.1237656 10.916692,12.2617299 11.9337969,13.2788348 C12.2256295,13.5706964 12.0165848,14.0714286 11.6054888,14.0714286 Z M15.8392857,2.75892857 C15.9276786,2.75892857 16,2.83125 16,2.91964286 L16,3.08035714 C16,3.16875 15.9276786,3.24107143 15.8392857,3.24107143 L13.2410714,3.24107143 L13.2410714,5.83928571 C13.2410714,5.92767857 13.16875,6 13.0803571,6 L12.9196429,6 C12.83125,6 12.7589286,5.92767857 12.7589286,5.83928571 L12.7589286,3.24107143 L10.1607143,3.24107143 C10.0723214,3.24107143 10,3.16875 10,3.08035714 L10,2.91964286 C10,2.83125 10.0723214,2.75892857 10.1607143,2.75892857 L12.7589286,2.75892857 L12.7589286,0.160714286 C12.7589286,0.0723214286 12.83125,0 12.9196429,0 L13.0803571,0 C13.16875,0 13.2410714,0.0723214286 13.2410714,0.160714286 L13.2410714,2.75892857 L15.8392857,2.75892857 Z"/>
</svg>
