<svg viewBox="0 0 25 42" version="1.1" xmlns="http://www.w3.org/2000/svg" xmlns:xlink="http://www.w3.org/1999/xlink">
    <g id="Page-1-Copy-2" stroke="none" stroke-width="1" fill="none" fill-rule="evenodd">
        <g id="Register" transform="translate(-525.000000, -212.000000)" fill="#FFFFFF">
            <g id="Group-22" transform="translate(525.000000, 212.000000)">
                <path d="M3.49990758,35 C5.43212126,35 7,36.568207 7,38.5 C7,40.4321627 5.43212126,42 3.49990758,42 C1.56806359,42 0,40.4321627 0,38.5 C0,36.568207 1.56806359,35 3.49990758,35 Z M12.4999076,26 C14.4321213,26 16,27.568207 16,29.5 C16,31.4321627 14.4321213,33 12.4999076,33 C10.5680636,33 9,31.4321627 9,29.5 C9,27.568207 10.5680636,26 12.4999076,26 Z M3.49990758,26 C5.43212126,26 7,27.568207 7,29.5 C7,31.4321627 5.43212126,33 3.49990758,33 C1.56806359,33 0,31.4321627 0,29.5 C0,27.568207 1.56806359,26 3.49990758,26 Z M21.4999076,18 C23.4321213,18 25,19.5636272 25,21.5000924 C25,23.432491 23.4321213,25 21.4999076,25 C19.5680636,25 18,23.432491 18,21.5000924 C18,19.5636272 19.5680636,18 21.4999076,18 Z M12.4999076,18 C14.4321213,18 16,19.5636272 16,21.5000924 C16,23.432491 14.4321213,25 12.4999076,25 C10.5680636,25 9,23.432491 9,21.5000924 C9,19.5636272 10.5680636,18 12.4999076,18 Z M3.49990758,18 C5.43212126,18 7,19.5636272 7,21.5000924 C7,23.432491 5.43212126,25 3.49990758,25 C1.56806359,25 0,23.432491 0,21.5000924 C0,19.5636272 1.56806359,18 3.49990758,18 Z M12.4999076,9 C14.4321213,9 16,10.563586 16,12.5 C16,14.4321627 14.4321213,16 12.4999076,16 C10.5680636,16 9,14.4321627 9,12.5 C9,10.563586 10.5680636,9 12.4999076,9 Z M3.49990758,9 C5.43212126,9 7,10.563586 7,12.5 C7,14.4321627 5.43212126,16 3.49990758,16 C1.56806359,16 0,14.4321627 0,12.5 C0,10.563586 1.56806359,9 3.49990758,9 Z M3.50009242,0 C5.43212126,0 7,1.56820702 7,3.5 C7,5.43179298 5.43212126,7 3.50009242,7 C1.56806359,7 0,5.43179298 0,3.5 C0,1.56820702 1.56806359,0 3.50009242,0 Z" id="Combined-Shape"></path>
            </g>
        </g>
    </g>
</svg>