<?xml version="1.0" encoding="UTF-8"?>
<svg viewBox="0 0 640 512" version="1.1" xmlns="http://www.w3.org/2000/svg" xmlns:xlink="http://www.w3.org/1999/xlink">
    <title>Group</title>
    <g id="Page-1" stroke="none" stroke-width="1" fill="none" fill-rule="evenodd">
        <g id="Group" fill="#000000" fill-rule="nonzero">
            <g id="funnel-dollar">
                <path d="M464.02,160 C459.32,160 454.7,160.34 450.09,160.7 L568.06,46.09 C585.02,29.13 573.01,0 548.97,0 L27.03,0 C3.05,0 -9.05,29.1 7.94,46.09 L224,256 L224,438 C224,446.81 228.3,455.07 235.52,460.12 L309.52,507.1 C314.34,510.47 319.67,512 324.88,512 C338.87,512 352,500.97 352,484.98 L352,471.76 C382.43,496.88 421.46,511.97 464.02,511.97 C561.36,511.97 640,433.19 640,335.99 C640,238.64 561.22,160 464.02,160 Z M320,474 L256.26,435.75 L256,435.53 L256,242.47 L39.35,32 L536.64,32 L385.94,178.41 C327.93,207.19 288.04,266.83 288.04,335.97 C288.04,373.62 299.92,408.39 320,436.98 L320,474 Z M464.02,479.96 C384.63,479.96 320.04,415.37 320.04,335.98 C320.04,256.59 384.63,192 464.02,192 C543.41,192 608,256.59 608,335.98 C608,415.37 543.41,479.96 464.02,479.96 L464.02,479.96 Z" id="Shape"></path>
            </g>
            <g id="user-friends" transform="translate(356.000000, 214.000000)">
                <path d="M94.2,110 C124.569687,110 149.15,85.3973214 149.15,55 C149.15,24.6026786 124.569687,0 94.2,0 C63.8303125,0 39.25,24.6026786 39.25,55 C39.25,85.3973214 63.8303125,110 94.2,110 Z M94.2,15.7142857 C115.836562,15.7142857 133.45,33.34375 133.45,55 C133.45,76.65625 115.836562,94.2857143 94.2,94.2857143 C72.5634375,94.2857143 54.95,76.65625 54.95,55 C54.95,33.34375 72.5634375,15.7142857 94.2,15.7142857 Z M133.499062,119.821429 C117.112187,119.821429 113.04,125.714286 94.2,125.714286 C75.36,125.714286 71.2878125,119.821429 54.9009375,119.821429 C37.09125,119.821429 19.7721875,127.776786 9.61625,142.852679 C3.5325,151.888393 0,162.741071 0,174.428571 L0,196.428571 C0,209.441964 10.5484375,220 23.55,220 L164.85,220 C177.851562,220 188.4,209.441964 188.4,196.428571 L188.4,174.428571 C188.4,162.741071 184.8675,151.888393 178.78375,142.852679 C168.627812,127.776786 151.30875,119.821429 133.499062,119.821429 Z M172.7,196.428571 C172.7,200.75 169.1675,204.285714 164.85,204.285714 L23.55,204.285714 C19.2325,204.285714 15.7,200.75 15.7,196.428571 L15.7,174.428571 C15.7,166.276786 18.1040625,158.370536 22.6178125,151.642857 C29.3884375,141.575893 41.4578125,135.535714 54.851875,135.535714 C68.295,135.535714 73.103125,141.428571 94.2,141.428571 C115.296875,141.428571 120.105,135.535714 133.499062,135.535714 C146.893125,135.535714 158.9625,141.575893 165.733125,151.642857 C170.246875,158.370536 172.650937,166.276786 172.650937,174.428571 L172.650937,196.428571 L172.7,196.428571 Z M177.27375,107.803571 C163.634375,107.803571 166.578125,123.566964 177.27375,123.566964 C187.576875,123.566964 196.800625,128.133929 202.00125,135.84375 C205.484687,141 207.349062,147.089286 207.349062,153.375 L207.349062,187.642857 C207.349062,189.803571 205.582812,191.571429 203.424062,191.571429 L203.375,207.285714 C214.217813,207.285714 223,198.495536 223,187.642857 L223,153.325893 C223,143.553571 220.05625,134.517857 215.002813,127.004464 C206.515,114.433036 192.090625,107.803571 177.27375,107.803571 Z" id="Shape"></path>
                <path d="M145.5,15.7142857 C171.503125,15.7142857 192.6,36.8303571 192.6,62.8571429 C192.6,88.8839286 171.503125,110 145.5,110 C139.287804,110 133.355628,108.794819 127.924233,106.605418 C135.02424,103.885229 141.366911,99.6388769 146.552619,94.2681225 C163.385776,93.7113201 176.9,79.8395457 176.9,62.8571429 C176.9,48.4790738 167.212896,36.3307282 154.025766,32.6048127 C150.225197,26.0837645 145.033162,20.4735323 138.856601,16.1808184 C141.026469,15.8731181 143.244782,15.7142857 145.5,15.7142857 Z" id="Combined-Shape"></path>
            </g>
        </g>
    </g>
</svg>