<svg viewBox="0 0 18 19" xmlns="http://www.w3.org/2000/svg">
    <g clip-path="url(#clip0_2766_21989)">
        <path d="M5.0625 10.375C4.01821 10.375 3.01669 10.7898 2.27827 11.5283C1.53984 12.2667 1.125 13.2682 1.125 14.3125C1.125 15.3568 1.53984 16.3583 2.27827 17.0967C3.01669 17.8352 4.01821 18.25 5.0625 18.25H12.9375C13.9818 18.25 14.9833 17.8352 15.7217 17.0967C16.4602 16.3583 16.875 15.3568 16.875 14.3125C16.875 13.2682 16.4602 12.2667 15.7217 11.5283C14.9833 10.7898 13.9818 10.375 12.9375 10.375H5.0625ZM12.9375 17.125C12.1916 17.125 11.4762 16.8287 10.9488 16.3012C10.4213 15.7738 10.125 15.0584 10.125 14.3125C10.125 13.5666 10.4213 12.8512 10.9488 12.3238C11.4762 11.7963 12.1916 11.5 12.9375 11.5C13.6834 11.5 14.3988 11.7963 14.9262 12.3238C15.4537 12.8512 15.75 13.5666 15.75 14.3125C15.75 15.0584 15.4537 15.7738 14.9262 16.3012C14.3988 16.8287 13.6834 17.125 12.9375 17.125ZM5.0625 1.375C4.31658 1.375 3.60121 1.67132 3.07376 2.19876C2.54632 2.72621 2.25 3.44158 2.25 4.1875C2.25 4.93342 2.54632 5.64879 3.07376 6.17624C3.60121 6.70368 4.31658 7 5.0625 7C5.80842 7 6.52379 6.70368 7.05124 6.17624C7.57868 5.64879 7.875 4.93342 7.875 4.1875C7.875 3.44158 7.57868 2.72621 7.05124 2.19876C6.52379 1.67132 5.80842 1.375 5.0625 1.375ZM7.81875 1.375C8.19333 1.74128 8.49082 2.17882 8.69369 2.66184C8.89656 3.14486 9.00071 3.6636 9 4.1875C9.00071 4.7114 8.89656 5.23014 8.69369 5.71316C8.49082 6.19618 8.19333 6.63372 7.81875 7H12.9375C13.6834 7 14.3988 6.70368 14.9262 6.17624C15.4537 5.64879 15.75 4.93342 15.75 4.1875C15.75 3.44158 15.4537 2.72621 14.9262 2.19876C14.3988 1.67132 13.6834 1.375 12.9375 1.375H7.81875ZM5.0625 0.25H12.9375C13.9818 0.25 14.9833 0.664843 15.7217 1.40327C16.4602 2.14169 16.875 3.14321 16.875 4.1875C16.875 5.23179 16.4602 6.23331 15.7217 6.97173C14.9833 7.71016 13.9818 8.125 12.9375 8.125H5.0625C4.01821 8.125 3.01669 7.71016 2.27827 6.97173C1.53984 6.23331 1.125 5.23179 1.125 4.1875C1.125 3.14321 1.53984 2.14169 2.27827 1.40327C3.01669 0.664843 4.01821 0.25 5.0625 0.25V0.25Z"/>
    </g>
    <defs>
        <clipPath id="clip0_2766_21989">
            <rect width="18" height="18" fill="white" transform="translate(0 0.25)"/>
        </clipPath>
    </defs>
</svg>
