<svg viewBox="0 0 19 19" xmlns="http://www.w3.org/2000/svg">
<g id="Frame">
<path id="Vector" d="M11.792 4.75C11.792 5.74456 11.3969 6.69839 10.6936 7.40165C9.99038 8.10491 9.03655 8.5 8.04199 8.5C7.04743 8.5 6.0936 8.10491 5.39034 7.40165C4.68708 6.69839 4.29199 5.74456 4.29199 4.75C4.29199 3.75544 4.68708 2.80161 5.39034 2.09835C6.0936 1.39509 7.04743 1 8.04199 1C9.03655 1 9.99038 1.39509 10.6936 2.09835C11.3969 2.80161 11.792 3.75544 11.792 4.75ZM8.04199 7.25C8.70503 7.25 9.34092 6.98661 9.80976 6.51777C10.2786 6.04893 10.542 5.41304 10.542 4.75C10.542 4.08696 10.2786 3.45107 9.80976 2.98223C9.34092 2.51339 8.70503 2.25 8.04199 2.25C7.37895 2.25 6.74307 2.51339 6.27423 2.98223C5.80538 3.45107 5.54199 4.08696 5.54199 4.75C5.54199 5.41304 5.80538 6.04893 6.27423 6.51777C6.74307 6.98661 7.37895 7.25 8.04199 7.25ZM8.36199 16C8.21859 15.5941 8.12254 15.173 8.07574 14.745H1.79199C1.79324 14.4375 1.98449 13.5125 2.83199 12.665C3.64699 11.85 5.18074 11 8.04199 11C8.36699 11 8.67574 11.0112 8.96699 11.0312C9.24949 10.605 9.58699 10.2188 9.97199 9.88375C9.38824 9.7975 8.74699 9.75 8.04199 9.75C1.79199 9.75 0.541992 13.5 0.541992 14.75C0.541992 16 1.79199 16 1.79199 16H8.36199Z" />
<path id="Vector_2" d="M18.042 14.125C18.042 15.2853 17.5811 16.3981 16.7606 17.2186C15.9401 18.0391 14.8273 18.5 13.667 18.5C12.5067 18.5 11.3939 18.0391 10.5734 17.2186C9.75293 16.3981 9.29199 15.2853 9.29199 14.125C9.29199 12.9647 9.75293 11.8519 10.5734 11.0314C11.3939 10.2109 12.5067 9.75 13.667 9.75C14.8273 9.75 15.9401 10.2109 16.7606 11.0314C17.5811 11.8519 18.042 12.9647 18.042 14.125ZM13.667 11.625C13.5012 11.625 13.3423 11.6908 13.225 11.8081C13.1078 11.9253 13.042 12.0842 13.042 12.25V14.125C13.042 14.2908 13.1078 14.4497 13.225 14.5669C13.3423 14.6842 13.5012 14.75 13.667 14.75C13.8328 14.75 13.9917 14.6842 14.1089 14.5669C14.2261 14.4497 14.292 14.2908 14.292 14.125V12.25C14.292 12.0842 14.2261 11.9253 14.1089 11.8081C13.9917 11.6908 13.8328 11.625 13.667 11.625ZM13.667 16.625C13.8328 16.625 13.9917 16.5592 14.1089 16.4419C14.2261 16.3247 14.292 16.1658 14.292 16C14.292 15.8342 14.2261 15.6753 14.1089 15.5581C13.9917 15.4408 13.8328 15.375 13.667 15.375C13.5012 15.375 13.3423 15.4408 13.225 15.5581C13.1078 15.6753 13.042 15.8342 13.042 16C13.042 16.1658 13.1078 16.3247 13.225 16.4419C13.3423 16.5592 13.5012 16.625 13.667 16.625Z" />
</g>
</svg>
