<svg xmlns="http://www.w3.org/2000/svg" fill="none" viewBox="-0.25 0.5 71.07 70.25"><g clip-path="url(#a)"><path fill-rule="evenodd" clip-rule="evenodd" d="M10.5 70.5v-.495H10v.495h.5Zm0-1.485v-.99H10v.99h.5Zm0-1.98v-.99H10v.99h.5Zm0-1.98v-.99H10v.99h.5Zm0-1.98v-.99H10v.99h.5Zm0-1.98v-.991H10v.99h.5Zm0-1.981v-.99H10v.99h.5Zm0-1.98v-.99H10v.99h.5Zm0-1.98v-.99H10v.99h.5Zm0-1.98v-.99H10v.99h.5Zm0-1.98v-.99H10v.99h.5Zm0-1.981v-.99H10v.99h.5Zm0-1.98v-.99H10v.99h.5Zm0-1.98v-.99H10v.99h.5Zm0-1.98v-.99H10v.99h.5Zm0-1.98v-.99H10v.99h.5Zm0-1.981v-.99H10v.99h.5Zm0-1.98v-.99H10v.99h.5Zm0-1.98v-.99H10v.99h.5Zm0-1.98v-.99H10v.99h.5Zm0-1.98v-.99H10v.99h.5Zm0-1.98v-.991H10v.99h.5Zm0-1.981v-.99H10v.99h.5Zm0-1.98v-.99H10v.99h.5Zm0-1.98v-.99H10v.99h.5Zm0-1.98v-.99H10v.99h.5Zm0-1.98v-.991H10v.99h.5Zm0-1.981v-.99H10v.99h.5Zm0-1.98v-.99H10v.99h.5Zm0-1.98v-.99H10v.99h.5Zm0-1.98v-.99H10v.99h.5Zm0-1.98v-.99H10v.99h.5Zm0-1.981v-.99H10v.99h.5Zm0-1.98v-.99H10v.99h.5Zm0-1.98v-.99H10v.99h.5Zm0-1.98v-.496H10v.495h.5Zm10 68.811v-.495H20v.495h.5Zm0-1.485v-.99H20v.99h.5Zm0-1.98v-.99H20v.99h.5Zm0-1.98v-.99H20v.99h.5Zm0-1.98v-.99H20v.99h.5Zm0-1.98v-.991H20v.99h.5Zm0-1.981v-.99H20v.99h.5Zm0-1.98v-.99H20v.99h.5Zm0-1.98v-.99H20v.99h.5Zm0-1.98v-.99H20v.99h.5Zm0-1.98v-.99H20v.99h.5Zm0-1.981v-.99H20v.99h.5Zm0-1.98v-.99H20v.99h.5Zm0-1.98v-.99H20v.99h.5Zm0-1.98v-.99H20v.99h.5Zm0-1.98v-.99H20v.99h.5Zm0-1.981v-.99H20v.99h.5Zm0-1.98v-.99H20v.99h.5Zm0-1.98v-.99H20v.99h.5Zm0-1.98v-.99H20v.99h.5Zm0-1.98v-.99H20v.99h.5Zm0-1.98v-.991H20v.99h.5Zm0-1.981v-.99H20v.99h.5Zm0-1.98v-.99H20v.99h.5Zm0-1.98v-.99H20v.99h.5Zm0-1.98v-.99H20v.99h.5Zm0-1.98v-.991H20v.99h.5Zm0-1.981v-.99H20v.99h.5Zm0-1.98v-.99H20v.99h.5Zm0-1.98v-.99H20v.99h.5Zm0-1.98v-.99H20v.99h.5Zm0-1.98v-.99H20v.99h.5Zm0-1.981v-.99H20v.99h.5Zm0-1.98v-.99H20v.99h.5Zm0-1.98v-.99H20v.99h.5Zm0-1.98v-.496H20v.495h.5Zm10 68.316v.495H30v-.495h.5Zm0-1.98v.99H30v-.99h.5Zm0-1.98v.99H30v-.99h.5Zm0-1.98v.99H30v-.99h.5Zm0-1.98v.99H30v-.99h.5Zm0-1.981v.99H30v-.99h.5Zm0-1.98v.99H30v-.99h.5Zm0-1.98v.99H30v-.99h.5Zm0-1.98v.99H30v-.99h.5Zm0-1.98v.99H30v-.99h.5Zm0-1.98v.99H30v-.99h.5Zm0-1.981v.99H30v-.99h.5Zm0-1.98v.99H30v-.99h.5Zm0-1.98v.99H30v-.99h.5Zm0-1.98v.99H30v-.99h.5Zm0-1.98v.99H30v-.99h.5Zm0-1.981v.99H30v-.99h.5Zm0-1.98v.99H30v-.99h.5Zm0-1.98v.99H30v-.99h.5Zm0-1.98v.99H30v-.99h.5Zm0-1.98v.99H30v-.99h.5Zm0-1.981v.99H30v-.99h.5Zm0-1.98v.99H30v-.99h.5Zm0-1.98v.99H30v-.99h.5Zm0-1.98v.99H30v-.99h.5Zm0-1.98v.99H30v-.99h.5Zm0-1.981v.99H30v-.99h.5Zm0-1.98v.99H30v-.99h.5Zm0-1.98v.99H30v-.99h.5Zm0-1.98v.99H30v-.99h.5Zm0-1.98v.99H30v-.99h.5Zm0-1.98v.99H30v-.99h.5Zm0-1.981v.99H30v-.99h.5Zm0-1.98v.99H30v-.99h.5Zm0-1.98v.99H30v-.99h.5Zm0-1.486v.495H30v-.495h.5Zm10 69.307v-.495H40v.495h.5Zm0-1.485v-.99H40v.99h.5Zm0-1.98v-.99H40v.99h.5Zm0-1.98v-.99H40v.99h.5Zm0-1.98v-.99H40v.99h.5Zm0-1.98v-.991H40v.99h.5Zm0-1.981v-.99H40v.99h.5Zm0-1.98v-.99H40v.99h.5Zm0-1.98v-.99H40v.99h.5Zm0-1.98v-.99H40v.99h.5Zm0-1.98v-.99H40v.99h.5Zm0-1.981v-.99H40v.99h.5Zm0-1.98v-.99H40v.99h.5Zm0-1.98v-.99H40v.99h.5Zm0-1.98v-.99H40v.99h.5Zm0-1.98v-.99H40v.99h.5Zm0-1.981v-.99H40v.99h.5Zm0-1.98v-.99H40v.99h.5Zm0-1.98v-.99H40v.99h.5Zm0-1.98v-.99H40v.99h.5Zm0-1.98v-.99H40v.99h.5Zm0-1.98v-.991H40v.99h.5Zm0-1.981v-.99H40v.99h.5Zm0-1.98v-.99H40v.99h.5Zm0-1.98v-.99H40v.99h.5Zm0-1.98v-.99H40v.99h.5Zm0-1.98v-.991H40v.99h.5Zm0-1.981v-.99H40v.99h.5Zm0-1.98v-.99H40v.99h.5Zm0-1.98v-.99H40v.99h.5Zm0-1.98v-.99H40v.99h.5Zm0-1.98v-.99H40v.99h.5Zm0-1.981v-.99H40v.99h.5Zm0-1.98v-.99H40v.99h.5Zm0-1.98v-.99H40v.99h.5Zm0-1.98v-.496H40v.495h.5Zm10 68.316v.495H50v-.495h.5Zm0-1.98v.99H50v-.99h.5Zm0-1.98v.99H50v-.99h.5Zm0-1.98v.99H50v-.99h.5Zm0-1.98v.99H50v-.99h.5Zm0-1.981v.99H50v-.99h.5Zm0-1.98v.99H50v-.99h.5Zm0-1.98v.99H50v-.99h.5Zm0-1.98v.99H50v-.99h.5Zm0-1.98v.99H50v-.99h.5Zm0-1.98v.99H50v-.99h.5Zm0-1.981v.99H50v-.99h.5Zm0-1.98v.99H50v-.99h.5Zm0-1.98v.99H50v-.99h.5Zm0-1.98v.99H50v-.99h.5Zm0-1.98v.99H50v-.99h.5Zm0-1.981v.99H50v-.99h.5Zm0-1.98v.99H50v-.99h.5Zm0-1.98v.99H50v-.99h.5Zm0-1.98v.99H50v-.99h.5Zm0-1.98v.99H50v-.99h.5Zm0-1.981v.99H50v-.99h.5Zm0-1.98v.99H50v-.99h.5Zm0-1.98v.99H50v-.99h.5Zm0-1.98v.99H50v-.99h.5Zm0-1.98v.99H50v-.99h.5Zm0-1.981v.99H50v-.99h.5Zm0-1.98v.99H50v-.99h.5Zm0-1.98v.99H50v-.99h.5Zm0-1.98v.99H50v-.99h.5Zm0-1.98v.99H50v-.99h.5Zm0-1.98v.99H50v-.99h.5Zm0-1.981v.99H50v-.99h.5Zm0-1.98v.99H50v-.99h.5Zm0-1.98v.99H50v-.99h.5Zm0-1.486v.495H50v-.495h.5Zm10 69.307v-.495H60v.495h.5Zm0-1.485v-.99H60v.99h.5Zm0-1.98v-.99H60v.99h.5Zm0-1.98v-.99H60v.99h.5Zm0-1.98v-.99H60v.99h.5Zm0-1.98v-.991H60v.99h.5Zm0-1.981v-.99H60v.99h.5Zm0-1.98v-.99H60v.99h.5Zm0-1.98v-.99H60v.99h.5Zm0-1.98v-.99H60v.99h.5Zm0-1.98v-.99H60v.99h.5Zm0-1.981v-.99H60v.99h.5Zm0-1.98v-.99H60v.99h.5Zm0-1.98v-.99H60v.99h.5Zm0-1.98v-.99H60v.99h.5Zm0-1.98v-.99H60v.99h.5Zm0-1.981v-.99H60v.99h.5Zm0-1.98v-.99H60v.99h.5Zm0-1.98v-.99H60v.99h.5Zm0-1.98v-.99H60v.99h.5Zm0-1.98v-.99H60v.99h.5Zm0-1.98v-.991H60v.99h.5Zm0-1.981v-.99H60v.99h.5Zm0-1.98v-.99H60v.99h.5Zm0-1.98v-.99H60v.99h.5Zm0-1.98v-.99H60v.99h.5Zm0-1.98v-.991H60v.99h.5Zm0-1.981v-.99H60v.99h.5Zm0-1.98v-.99H60v.99h.5Zm0-1.98v-.99H60v.99h.5Zm0-1.98v-.99H60v.99h.5Zm0-1.98v-.99H60v.99h.5Zm0-1.981v-.99H60v.99h.5Zm0-1.98v-.99H60v.99h.5Zm0-1.98v-.99H60v.99h.5Zm0-1.98v-.496H60v.495h.5Z" fill="#D7D7D7"/><path fill-rule="evenodd" clip-rule="evenodd" d="M70.817 60.89h-.504v.5h.504v-.5Zm-1.51 0h-1.008v.5h1.007v-.5Zm-2.015 0h-1.007v.5h1.007v-.5Zm-2.014 0H64.27v.5h1.008v-.5Zm-2.015 0h-1.007v.5h1.007v-.5Zm-2.014 0h-1.007v.5h1.007v-.5Zm-2.014 0h-1.007v.5h1.007v-.5Zm-2.014 0h-1.008v.5h1.008v-.5Zm-2.015 0H54.2v.5h1.007v-.5Zm-2.014 0h-1.007v.5h1.007v-.5Zm-2.014 0H50.17v.5h1.008v-.5Zm-2.015 0h-1.007v.5h1.007v-.5Zm-2.014 0h-1.007v.5h1.007v-.5Zm-2.014 0h-1.007v.5h1.007v-.5Zm-2.014 0h-1.008v.5h1.008v-.5Zm-2.015 0H40.1v.5h1.007v-.5Zm-2.014 0h-1.007v.5h1.007v-.5Zm-2.014 0H36.07v.5h1.008v-.5Zm-2.015 0h-1.007v.5h1.007v-.5Zm-2.014 0h-1.007v.5h1.007v-.5Zm-2.014 0h-1.007v.5h1.007v-.5Zm-2.015 0h-1.007v.5h1.007v-.5Zm-2.014 0H26v.5h1.007v-.5Zm-2.014 0h-1.007v.5h1.007v-.5Zm-2.014 0H21.97v.5h1.008v-.5Zm-2.015 0h-1.007v.5h1.007v-.5Zm-2.014 0h-1.007v.5h1.007v-.5Zm-2.014 0h-1.007v.5h1.007v-.5Zm-2.014 0h-1.008v.5h1.008v-.5Zm-2.015 0H11.9v.5h1.007v-.5Zm-2.014 0H9.885v.5h1.007v-.5Zm-2.014 0H7.87v.5h1.007v-.5Zm-2.015 0H5.856v.5h1.007v-.5Zm-2.014 0H3.842v.5h1.007v-.5Zm-2.014 0H1.828v.5h1.007v-.5Zm-2.014 0H.317v.5H.82v-.5Zm69.996-10h-.504v.5h.504v-.5Zm-1.51 0h-1.008v.5h1.007v-.5Zm-2.015 0h-1.007v.5h1.007v-.5Zm-2.014 0H64.27v.5h1.008v-.5Zm-2.015 0h-1.007v.5h1.007v-.5Zm-2.014 0h-1.007v.5h1.007v-.5Zm-2.014 0h-1.007v.5h1.007v-.5Zm-2.014 0h-1.008v.5h1.008v-.5Zm-2.015 0H54.2v.5h1.007v-.5Zm-2.014 0h-1.007v.5h1.007v-.5Zm-2.014 0H50.17v.5h1.008v-.5Zm-2.015 0h-1.007v.5h1.007v-.5Zm-2.014 0h-1.007v.5h1.007v-.5Zm-2.014 0h-1.007v.5h1.007v-.5Zm-2.014 0h-1.008v.5h1.008v-.5Zm-2.015 0H40.1v.5h1.007v-.5Zm-2.014 0h-1.007v.5h1.007v-.5Zm-2.014 0H36.07v.5h1.008v-.5Zm-2.015 0h-1.007v.5h1.007v-.5Zm-2.014 0h-1.007v.5h1.007v-.5Zm-2.014 0h-1.007v.5h1.007v-.5Zm-2.015 0h-1.007v.5h1.007v-.5Zm-2.014 0H26v.5h1.007v-.5Zm-2.014 0h-1.007v.5h1.007v-.5Zm-2.014 0H21.97v.5h1.008v-.5Zm-2.015 0h-1.007v.5h1.007v-.5Zm-2.014 0h-1.007v.5h1.007v-.5Zm-2.014 0h-1.007v.5h1.007v-.5Zm-2.014 0h-1.008v.5h1.008v-.5Zm-2.015 0H11.9v.5h1.007v-.5Zm-2.014 0H9.885v.5h1.007v-.5Zm-2.014 0H7.87v.5h1.007v-.5Zm-2.015 0H5.856v.5h1.007v-.5Zm-2.014 0H3.842v.5h1.007v-.5Zm-2.014 0H1.828v.5h1.007v-.5Zm-2.014 0H.317v.5H.82v-.5Zm69.492-10h.504v.5h-.504v-.5Zm-2.014 0h1.007v.5H68.3v-.5Zm-2.014 0h1.007v.5h-1.007v-.5Zm-2.014 0h1.007v.5H64.27v-.5Zm-2.015 0h1.007v.5h-1.007v-.5Zm-2.014 0h1.007v.5h-1.007v-.5Zm-2.014 0h1.007v.5h-1.007v-.5Zm-2.015 0h1.008v.5h-1.008v-.5Zm-2.014 0h1.007v.5H54.2v-.5Zm-2.014 0h1.007v.5h-1.007v-.5Zm-2.015 0h1.008v.5H50.17v-.5Zm-2.014 0h1.007v.5h-1.007v-.5Zm-2.014 0h1.007v.5h-1.007v-.5Zm-2.014 0h1.007v.5h-1.007v-.5Zm-2.015 0h1.008v.5h-1.008v-.5Zm-2.014 0h1.007v.5H40.1v-.5Zm-2.014 0h1.007v.5h-1.007v-.5Zm-2.014 0h1.007v.5H36.07v-.5Zm-2.015 0h1.007v.5h-1.007v-.5Zm-2.014 0h1.007v.5h-1.007v-.5Zm-2.014 0h1.007v.5h-1.007v-.5Zm-2.015 0h1.007v.5h-1.007v-.5Zm-2.014 0h1.007v.5H26v-.5Zm-2.014 0h1.007v.5h-1.007v-.5Zm-2.014 0h1.007v.5H21.97v-.5Zm-2.015 0h1.007v.5h-1.007v-.5Zm-2.014 0h1.007v.5h-1.007v-.5Zm-2.014 0h1.007v.5h-1.007v-.5Zm-2.015 0h1.008v.5h-1.008v-.5Zm-2.014 0h1.007v.5H11.9v-.5Zm-2.014 0h1.007v.5H9.885v-.5Zm-2.014 0h1.007v.5H7.87v-.5Zm-2.015 0h1.007v.5H5.856v-.5Zm-2.014 0h1.007v.5H3.842v-.5Zm-2.014 0h1.007v.5H1.828v-.5Zm-1.511 0H.82v.5H.317v-.5Zm70.5-10h-.504v.5h.504v-.5Zm-1.51 0h-1.008v.5h1.007v-.5Zm-2.015 0h-1.007v.5h1.007v-.5Zm-2.014 0H64.27v.5h1.008v-.5Zm-2.015 0h-1.007v.5h1.007v-.5Zm-2.014 0h-1.007v.5h1.007v-.5Zm-2.014 0h-1.007v.5h1.007v-.5Zm-2.014 0h-1.008v.5h1.008v-.5Zm-2.015 0H54.2v.5h1.007v-.5Zm-2.014 0h-1.007v.5h1.007v-.5Zm-2.014 0H50.17v.5h1.008v-.5Zm-2.015 0h-1.007v.5h1.007v-.5Zm-2.014 0h-1.007v.5h1.007v-.5Zm-2.014 0h-1.007v.5h1.007v-.5Zm-2.014 0h-1.008v.5h1.008v-.5Zm-2.015 0H40.1v.5h1.007v-.5Zm-2.014 0h-1.007v.5h1.007v-.5Zm-2.014 0H36.07v.5h1.008v-.5Zm-2.015 0h-1.007v.5h1.007v-.5Zm-2.014 0h-1.007v.5h1.007v-.5Zm-2.014 0h-1.007v.5h1.007v-.5Zm-2.015 0h-1.007v.5h1.007v-.5Zm-2.014 0H26v.5h1.007v-.5Zm-2.014 0h-1.007v.5h1.007v-.5Zm-2.014 0H21.97v.5h1.008v-.5Zm-2.015 0h-1.007v.5h1.007v-.5Zm-2.014 0h-1.007v.5h1.007v-.5Zm-2.014 0h-1.007v.5h1.007v-.5Zm-2.014 0h-1.008v.5h1.008v-.5Zm-2.015 0H11.9v.5h1.007v-.5Zm-2.014 0H9.885v.5h1.007v-.5Zm-2.014 0H7.87v.5h1.007v-.5Zm-2.015 0H5.856v.5h1.007v-.5Zm-2.014 0H3.842v.5h1.007v-.5Zm-2.014 0H1.828v.5h1.007v-.5Zm-2.014 0H.317v.5H.82v-.5Zm69.492-10h.504v.5h-.504v-.5Zm-2.014 0h1.007v.5H68.3v-.5Zm-2.014 0h1.007v.5h-1.007v-.5Zm-2.014 0h1.007v.5H64.27v-.5Zm-2.015 0h1.007v.5h-1.007v-.5Zm-2.014 0h1.007v.5h-1.007v-.5Zm-2.014 0h1.007v.5h-1.007v-.5Zm-2.015 0h1.008v.5h-1.008v-.5Zm-2.014 0h1.007v.5H54.2v-.5Zm-2.014 0h1.007v.5h-1.007v-.5Zm-2.015 0h1.008v.5H50.17v-.5Zm-2.014 0h1.007v.5h-1.007v-.5Zm-2.014 0h1.007v.5h-1.007v-.5Zm-2.014 0h1.007v.5h-1.007v-.5Zm-2.015 0h1.008v.5h-1.008v-.5Zm-2.014 0h1.007v.5H40.1v-.5Zm-2.014 0h1.007v.5h-1.007v-.5Zm-2.014 0h1.007v.5H36.07v-.5Zm-2.015 0h1.007v.5h-1.007v-.5Zm-2.014 0h1.007v.5h-1.007v-.5Zm-2.014 0h1.007v.5h-1.007v-.5Zm-2.015 0h1.007v.5h-1.007v-.5Zm-2.014 0h1.007v.5H26v-.5Zm-2.014 0h1.007v.5h-1.007v-.5Zm-2.014 0h1.007v.5H21.97v-.5Zm-2.015 0h1.007v.5h-1.007v-.5Zm-2.014 0h1.007v.5h-1.007v-.5Zm-2.014 0h1.007v.5h-1.007v-.5Zm-2.015 0h1.008v.5h-1.008v-.5Zm-2.014 0h1.007v.5H11.9v-.5Zm-2.014 0h1.007v.5H9.885v-.5Zm-2.014 0h1.007v.5H7.87v-.5Zm-2.015 0h1.007v.5H5.856v-.5Zm-2.014 0h1.007v.5H3.842v-.5Zm-2.014 0h1.007v.5H1.828v-.5Zm-1.511 0H.82v.5H.317v-.5Zm70.5-10h-.504v.5h.504v-.5Zm-1.51 0h-1.008v.5h1.007v-.5Zm-2.015 0h-1.007v.5h1.007v-.5Zm-2.014 0H64.27v.5h1.008v-.5Zm-2.015 0h-1.007v.5h1.007v-.5Zm-2.014 0h-1.007v.5h1.007v-.5Zm-2.014 0h-1.007v.5h1.007v-.5Zm-2.014 0h-1.008v.5h1.008v-.5Zm-2.015 0H54.2v.5h1.007v-.5Zm-2.014 0h-1.007v.5h1.007v-.5Zm-2.014 0H50.17v.5h1.008v-.5Zm-2.015 0h-1.007v.5h1.007v-.5Zm-2.014 0h-1.007v.5h1.007v-.5Zm-2.014 0h-1.007v.5h1.007v-.5Zm-2.014 0h-1.008v.5h1.008v-.5Zm-2.015 0H40.1v.5h1.007v-.5Zm-2.014 0h-1.007v.5h1.007v-.5Zm-2.014 0H36.07v.5h1.008v-.5Zm-2.015 0h-1.007v.5h1.007v-.5Zm-2.014 0h-1.007v.5h1.007v-.5Zm-2.014 0h-1.007v.5h1.007v-.5Zm-2.015 0h-1.007v.5h1.007v-.5Zm-2.014 0H26v.5h1.007v-.5Zm-2.014 0h-1.007v.5h1.007v-.5Zm-2.014 0H21.97v.5h1.008v-.5Zm-2.015 0h-1.007v.5h1.007v-.5Zm-2.014 0h-1.007v.5h1.007v-.5Zm-2.014 0h-1.007v.5h1.007v-.5Zm-2.014 0h-1.008v.5h1.008v-.5Zm-2.015 0H11.9v.5h1.007v-.5Zm-2.014 0H9.885v.5h1.007v-.5Zm-2.014 0H7.87v.5h1.007v-.5Zm-2.015 0H5.856v.5h1.007v-.5Zm-2.014 0H3.842v.5h1.007v-.5Zm-2.014 0H1.828v.5h1.007v-.5Zm-2.014 0H.317v.5H.82v-.5Z" fill="#D7D7D7"/><path fill-rule="evenodd" clip-rule="evenodd" d="m0 64.432.233-1.011c.234-1.012.7-3.034 1.167-2.023.525 1.011.992 5.057 1.458 3.034.467-2.023.934-10.113 1.4-10.113.525 0 .992 8.09 1.459 10.113.466 2.023.933-2.023 1.4-9.102.525-7.08.991-17.192 1.458-22.249.467-5.057.933-5.057 1.4-4.045.525 1.011.992 3.034 1.458 6.068.467 3.034.934 7.079 1.4 11.124.525 4.045.992 8.09 1.459 8.09.466 0 .933-4.044 1.4-9.101.525-5.057.991-11.125 1.458-17.193.467-6.068.933-12.136 1.4-11.124.525 1.011.992 9.102 1.458 10.113.467 1.011.934-5.057 1.4-2.023.525 3.034.992 15.17 1.459 22.25.466 7.079.933 9.102 1.4 10.113.466 1.011.991 1.011 1.458-2.023.467-3.034.933-9.102 1.4-8.09.467 1.01.992 9.102 1.458 10.113.467 1.011.934-5.057 1.4-7.08.467-2.022.992 0 1.459-2.022.466-2.023.933-8.09 1.4-13.147.466-5.057.991-9.102 1.458-11.125.467-2.023.933-2.023 1.4 4.045.467 6.068.992 18.204 1.458 21.238.467 3.034.934-3.034 1.4-5.056.467-2.023.992 0 1.459 4.045.466 4.045.933 10.113 1.4 10.113.466 0 .991-6.068 1.458-13.147.467-7.08.933-15.17 1.4-15.17.467 0 .992 8.09 1.458 8.09.467 0 .934-8.09 1.4-5.056.467 3.034.934 17.192 1.459 16.181.466-1.011.933-17.192 1.4-24.271.466-7.08.933-5.057 1.458-1.012.467 4.045.933 10.113 1.4 16.181.467 6.068.933 12.136 1.458 12.136.467 0 .934-6.068 1.4-6.068.467 0 .934 6.068 1.459 4.045.466-2.022.933-12.135 1.4-11.124.466 1.011.933 13.147 1.458 12.136.467-1.011.933-15.17 1.4-22.25.467-7.079.933-7.079 1.458-8.09.467-1.011.934-3.034 1.4 1.011.467 4.046.934 14.159 1.459 19.216.466 5.056.933 5.056 1.4 7.079.466 2.023.933 6.068 1.458 1.011.467-5.056.933-19.215 1.167-26.294l.233-7.08V70.5H0v-6.068Z" fill="#D7D9EA" stroke="#000" stroke-width=".5"/><path fill-rule="evenodd" clip-rule="evenodd" d="m70 63.877-.233-1.104c-.234-1.104-.7-3.312-1.167-2.208-.525 1.104-.992 5.52-1.458 3.312-.467-2.208-.934-11.04-1.4-11.04-.525 0-.992 8.832-1.459 11.04-.466 2.207-.933-2.208-1.4-9.936-.525-7.727-.991-18.766-1.458-24.286-.467-5.519-.933-5.519-1.4-4.415-.525 1.104-.992 3.312-1.458 6.623-.467 3.312-.934 7.728-1.4 12.143-.525 4.416-.992 8.831-1.459 8.831-.466 0-.933-4.415-1.4-9.935-.525-5.52-.991-12.143-1.458-18.766-.467-6.623-.933-13.247-1.4-12.143-.525 1.104-.992 9.935-1.458 11.04-.467 1.103-.934-5.52-1.4-2.209-.525 3.312-.992 16.559-1.459 24.286-.466 7.727-.933 9.935-1.4 11.04-.466 1.103-.991 1.103-1.458-2.209-.467-3.311-.933-9.935-1.4-8.83-.467 1.103-.992 9.934-1.458 11.038-.467 1.104-.934-5.52-1.4-7.727-.467-2.208-.992 0-1.459-2.208-.466-2.208-.933-8.831-1.4-14.35-.466-5.52-.991-9.936-1.458-12.144-.467-2.207-.933-2.207-1.4 4.416-.467 6.623-.992 19.87-1.458 23.182-.467 3.312-.934-3.312-1.4-5.52-.467-2.207-.992 0-1.459 4.416-.466 4.416-.933 11.04-1.4 11.04-.466 0-.991-6.624-1.458-14.352-.467-7.727-.933-16.558-1.4-16.558-.467 0-.992 8.831-1.458 8.831-.467 0-.934-8.831-1.4-5.52-.467 3.312-.934 18.767-1.459 17.663-.466-1.104-.933-18.766-1.4-26.494-.466-7.727-.933-5.52-1.458-1.104-.467 4.416-.933 11.04-1.4 17.663-.467 6.623-.933 13.247-1.458 13.247-.467 0-.934-6.624-1.4-6.624-.467 0-.934 6.624-1.459 4.416-.466-2.208-.933-13.247-1.4-12.143-.466 1.104-.933 14.35-1.458 13.247-.467-1.104-.933-16.559-1.4-24.286-.467-7.727-.933-7.727-1.458-8.831-.467-1.104-.934-3.312-1.4 1.104-.467 4.415-.934 15.454-1.459 20.974-.466 5.52-.933 5.52-1.4 7.727-.466 2.208-.933 6.623-1.458 1.104C.933 41.798.467 26.344.233 18.617L0 10.888V70.5H70v-6.623Z" fill="#8ED4DA" stroke="#000" stroke-width=".5"/><path d="m13.625 50.864.89 1.168c.536.703 1.596.7 2.128-.008l.872-1.16" stroke="#010101" stroke-width=".267" stroke-linecap="round" stroke-linejoin="round"/><path d="m42.612 57.023 1.657 1.636a1.335 1.335 0 0 0 1.882-.007l1.626-1.63" stroke="#010101" stroke-width=".4" stroke-linecap="round" stroke-linejoin="round"/></g><rect x=".25" y=".75" width="69.5" height="69.5" rx="3.75" stroke="#000" stroke-width=".5"/><defs><clipPath id="a"><rect y=".5" width="70" height="70" rx="4" fill="#fff"/></clipPath></defs></svg>