<svg xmlns="http://www.w3.org/2000/svg" fill="none" viewBox="-0.68 0.5 71.5 70"><g clip-path="url(#a)"><path fill-rule="evenodd" clip-rule="evenodd" d="M10.5 70.5v-.495H10v.495h.5Zm0-1.485v-.99H10v.99h.5Zm0-1.98v-.99H10v.99h.5Zm0-1.98v-.99H10v.99h.5Zm0-1.98v-.99H10v.99h.5Zm0-1.98v-.991H10v.99h.5Zm0-1.981v-.99H10v.99h.5Zm0-1.98v-.99H10v.99h.5Zm0-1.98v-.99H10v.99h.5Zm0-1.98v-.99H10v.99h.5Zm0-1.98v-.99H10v.99h.5Zm0-1.981v-.99H10v.99h.5Zm0-1.98v-.99H10v.99h.5Zm0-1.98v-.99H10v.99h.5Zm0-1.98v-.99H10v.99h.5Zm0-1.98v-.99H10v.99h.5Zm0-1.981v-.99H10v.99h.5Zm0-1.98v-.99H10v.99h.5Zm0-1.98v-.99H10v.99h.5Zm0-1.98v-.99H10v.99h.5Zm0-1.98v-.99H10v.99h.5Zm0-1.98v-.991H10v.99h.5Zm0-1.981v-.99H10v.99h.5Zm0-1.98v-.99H10v.99h.5Zm0-1.98v-.99H10v.99h.5Zm0-1.98v-.99H10v.99h.5Zm0-1.98v-.991H10v.99h.5Zm0-1.981v-.99H10v.99h.5Zm0-1.98v-.99H10v.99h.5Zm0-1.98v-.99H10v.99h.5Zm0-1.98v-.99H10v.99h.5Zm0-1.98v-.99H10v.99h.5Zm0-1.981v-.99H10v.99h.5Zm0-1.98v-.99H10v.99h.5Zm0-1.98v-.99H10v.99h.5Zm0-1.98v-.496H10v.495h.5Zm10 68.811v-.495H20v.495h.5Zm0-1.485v-.99H20v.99h.5Zm0-1.98v-.99H20v.99h.5Zm0-1.98v-.99H20v.99h.5Zm0-1.98v-.99H20v.99h.5Zm0-1.98v-.991H20v.99h.5Zm0-1.981v-.99H20v.99h.5Zm0-1.98v-.99H20v.99h.5Zm0-1.98v-.99H20v.99h.5Zm0-1.98v-.99H20v.99h.5Zm0-1.98v-.99H20v.99h.5Zm0-1.981v-.99H20v.99h.5Zm0-1.98v-.99H20v.99h.5Zm0-1.98v-.99H20v.99h.5Zm0-1.98v-.99H20v.99h.5Zm0-1.98v-.99H20v.99h.5Zm0-1.981v-.99H20v.99h.5Zm0-1.98v-.99H20v.99h.5Zm0-1.98v-.99H20v.99h.5Zm0-1.98v-.99H20v.99h.5Zm0-1.98v-.99H20v.99h.5Zm0-1.98v-.991H20v.99h.5Zm0-1.981v-.99H20v.99h.5Zm0-1.98v-.99H20v.99h.5Zm0-1.98v-.99H20v.99h.5Zm0-1.98v-.99H20v.99h.5Zm0-1.98v-.991H20v.99h.5Zm0-1.981v-.99H20v.99h.5Zm0-1.98v-.99H20v.99h.5Zm0-1.98v-.99H20v.99h.5Zm0-1.98v-.99H20v.99h.5Zm0-1.98v-.99H20v.99h.5Zm0-1.981v-.99H20v.99h.5Zm0-1.98v-.99H20v.99h.5Zm0-1.98v-.99H20v.99h.5Zm0-1.98v-.496H20v.495h.5Zm10 68.316v.495H30v-.495h.5Zm0-1.98v.99H30v-.99h.5Zm0-1.98v.99H30v-.99h.5Zm0-1.98v.99H30v-.99h.5Zm0-1.98v.99H30v-.99h.5Zm0-1.981v.99H30v-.99h.5Zm0-1.98v.99H30v-.99h.5Zm0-1.98v.99H30v-.99h.5Zm0-1.98v.99H30v-.99h.5Zm0-1.98v.99H30v-.99h.5Zm0-1.98v.99H30v-.99h.5Zm0-1.981v.99H30v-.99h.5Zm0-1.98v.99H30v-.99h.5Zm0-1.98v.99H30v-.99h.5Zm0-1.98v.99H30v-.99h.5Zm0-1.98v.99H30v-.99h.5Zm0-1.981v.99H30v-.99h.5Zm0-1.98v.99H30v-.99h.5Zm0-1.98v.99H30v-.99h.5Zm0-1.98v.99H30v-.99h.5Zm0-1.98v.99H30v-.99h.5Zm0-1.981v.99H30v-.99h.5Zm0-1.98v.99H30v-.99h.5Zm0-1.98v.99H30v-.99h.5Zm0-1.98v.99H30v-.99h.5Zm0-1.98v.99H30v-.99h.5Zm0-1.981v.99H30v-.99h.5Zm0-1.98v.99H30v-.99h.5Zm0-1.98v.99H30v-.99h.5Zm0-1.98v.99H30v-.99h.5Zm0-1.98v.99H30v-.99h.5Zm0-1.98v.99H30v-.99h.5Zm0-1.981v.99H30v-.99h.5Zm0-1.98v.99H30v-.99h.5Zm0-1.98v.99H30v-.99h.5Zm0-1.486v.495H30v-.495h.5Zm10 69.307v-.495H40v.495h.5Zm0-1.485v-.99H40v.99h.5Zm0-1.98v-.99H40v.99h.5Zm0-1.98v-.99H40v.99h.5Zm0-1.98v-.99H40v.99h.5Zm0-1.98v-.991H40v.99h.5Zm0-1.981v-.99H40v.99h.5Zm0-1.98v-.99H40v.99h.5Zm0-1.98v-.99H40v.99h.5Zm0-1.98v-.99H40v.99h.5Zm0-1.98v-.99H40v.99h.5Zm0-1.981v-.99H40v.99h.5Zm0-1.98v-.99H40v.99h.5Zm0-1.98v-.99H40v.99h.5Zm0-1.98v-.99H40v.99h.5Zm0-1.98v-.99H40v.99h.5Zm0-1.981v-.99H40v.99h.5Zm0-1.98v-.99H40v.99h.5Zm0-1.98v-.99H40v.99h.5Zm0-1.98v-.99H40v.99h.5Zm0-1.98v-.99H40v.99h.5Zm0-1.98v-.991H40v.99h.5Zm0-1.981v-.99H40v.99h.5Zm0-1.98v-.99H40v.99h.5Zm0-1.98v-.99H40v.99h.5Zm0-1.98v-.99H40v.99h.5Zm0-1.98v-.991H40v.99h.5Zm0-1.981v-.99H40v.99h.5Zm0-1.98v-.99H40v.99h.5Zm0-1.98v-.99H40v.99h.5Zm0-1.98v-.99H40v.99h.5Zm0-1.98v-.99H40v.99h.5Zm0-1.981v-.99H40v.99h.5Zm0-1.98v-.99H40v.99h.5Zm0-1.98v-.99H40v.99h.5Zm0-1.98v-.496H40v.495h.5Zm10 68.316v.495H50v-.495h.5Zm0-1.98v.99H50v-.99h.5Zm0-1.98v.99H50v-.99h.5Zm0-1.98v.99H50v-.99h.5Zm0-1.98v.99H50v-.99h.5Zm0-1.981v.99H50v-.99h.5Zm0-1.98v.99H50v-.99h.5Zm0-1.98v.99H50v-.99h.5Zm0-1.98v.99H50v-.99h.5Zm0-1.98v.99H50v-.99h.5Zm0-1.98v.99H50v-.99h.5Zm0-1.981v.99H50v-.99h.5Zm0-1.98v.99H50v-.99h.5Zm0-1.98v.99H50v-.99h.5Zm0-1.98v.99H50v-.99h.5Zm0-1.98v.99H50v-.99h.5Zm0-1.981v.99H50v-.99h.5Zm0-1.98v.99H50v-.99h.5Zm0-1.98v.99H50v-.99h.5Zm0-1.98v.99H50v-.99h.5Zm0-1.98v.99H50v-.99h.5Zm0-1.981v.99H50v-.99h.5Zm0-1.98v.99H50v-.99h.5Zm0-1.98v.99H50v-.99h.5Zm0-1.98v.99H50v-.99h.5Zm0-1.98v.99H50v-.99h.5Zm0-1.981v.99H50v-.99h.5Zm0-1.98v.99H50v-.99h.5Zm0-1.98v.99H50v-.99h.5Zm0-1.98v.99H50v-.99h.5Zm0-1.98v.99H50v-.99h.5Zm0-1.98v.99H50v-.99h.5Zm0-1.981v.99H50v-.99h.5Zm0-1.98v.99H50v-.99h.5Zm0-1.98v.99H50v-.99h.5Zm0-1.486v.495H50v-.495h.5Zm10 69.307v-.495H60v.495h.5Zm0-1.485v-.99H60v.99h.5Zm0-1.98v-.99H60v.99h.5Zm0-1.98v-.99H60v.99h.5Zm0-1.98v-.99H60v.99h.5Zm0-1.98v-.991H60v.99h.5Zm0-1.981v-.99H60v.99h.5Zm0-1.98v-.99H60v.99h.5Zm0-1.98v-.99H60v.99h.5Zm0-1.98v-.99H60v.99h.5Zm0-1.98v-.99H60v.99h.5Zm0-1.981v-.99H60v.99h.5Zm0-1.98v-.99H60v.99h.5Zm0-1.98v-.99H60v.99h.5Zm0-1.98v-.99H60v.99h.5Zm0-1.98v-.99H60v.99h.5Zm0-1.981v-.99H60v.99h.5Zm0-1.98v-.99H60v.99h.5Zm0-1.98v-.99H60v.99h.5Zm0-1.98v-.99H60v.99h.5Zm0-1.98v-.99H60v.99h.5Zm0-1.98v-.991H60v.99h.5Zm0-1.981v-.99H60v.99h.5Zm0-1.98v-.99H60v.99h.5Zm0-1.98v-.99H60v.99h.5Zm0-1.98v-.99H60v.99h.5Zm0-1.98v-.991H60v.99h.5Zm0-1.981v-.99H60v.99h.5Zm0-1.98v-.99H60v.99h.5Zm0-1.98v-.99H60v.99h.5Zm0-1.98v-.99H60v.99h.5Zm0-1.98v-.99H60v.99h.5Zm0-1.981v-.99H60v.99h.5Zm0-1.98v-.99H60v.99h.5Zm0-1.98v-.99H60v.99h.5Zm0-1.98v-.496H60v.495h.5Z" fill="#D7D7D7"/><path fill-rule="evenodd" clip-rule="evenodd" d="M70.817 60.89h-.504v.5h.504v-.5Zm-1.51 0h-1.008v.5h1.007v-.5Zm-2.015 0h-1.007v.5h1.007v-.5Zm-2.014 0H64.27v.5h1.008v-.5Zm-2.015 0h-1.007v.5h1.007v-.5Zm-2.014 0h-1.007v.5h1.007v-.5Zm-2.014 0h-1.007v.5h1.007v-.5Zm-2.014 0h-1.008v.5h1.008v-.5Zm-2.015 0H54.2v.5h1.007v-.5Zm-2.014 0h-1.007v.5h1.007v-.5Zm-2.014 0H50.17v.5h1.008v-.5Zm-2.015 0h-1.007v.5h1.007v-.5Zm-2.014 0h-1.007v.5h1.007v-.5Zm-2.014 0h-1.007v.5h1.007v-.5Zm-2.014 0h-1.008v.5h1.008v-.5Zm-2.015 0H40.1v.5h1.007v-.5Zm-2.014 0h-1.007v.5h1.007v-.5Zm-2.014 0H36.07v.5h1.008v-.5Zm-2.015 0h-1.007v.5h1.007v-.5Zm-2.014 0h-1.007v.5h1.007v-.5Zm-2.014 0h-1.007v.5h1.007v-.5Zm-2.015 0h-1.007v.5h1.007v-.5Zm-2.014 0H26v.5h1.007v-.5Zm-2.014 0h-1.007v.5h1.007v-.5Zm-2.014 0H21.97v.5h1.008v-.5Zm-2.015 0h-1.007v.5h1.007v-.5Zm-2.014 0h-1.007v.5h1.007v-.5Zm-2.014 0h-1.007v.5h1.007v-.5Zm-2.014 0h-1.008v.5h1.008v-.5Zm-2.015 0H11.9v.5h1.007v-.5Zm-2.014 0H9.885v.5h1.007v-.5Zm-2.014 0H7.87v.5h1.007v-.5Zm-2.015 0H5.856v.5h1.007v-.5Zm-2.014 0H3.842v.5h1.007v-.5Zm-2.014 0H1.828v.5h1.007v-.5Zm-2.014 0H.317v.5H.82v-.5Zm69.996-10h-.504v.5h.504v-.5Zm-1.51 0h-1.008v.5h1.007v-.5Zm-2.015 0h-1.007v.5h1.007v-.5Zm-2.014 0H64.27v.5h1.008v-.5Zm-2.015 0h-1.007v.5h1.007v-.5Zm-2.014 0h-1.007v.5h1.007v-.5Zm-2.014 0h-1.007v.5h1.007v-.5Zm-2.014 0h-1.008v.5h1.008v-.5Zm-2.015 0H54.2v.5h1.007v-.5Zm-2.014 0h-1.007v.5h1.007v-.5Zm-2.014 0H50.17v.5h1.008v-.5Zm-2.015 0h-1.007v.5h1.007v-.5Zm-2.014 0h-1.007v.5h1.007v-.5Zm-2.014 0h-1.007v.5h1.007v-.5Zm-2.014 0h-1.008v.5h1.008v-.5Zm-2.015 0H40.1v.5h1.007v-.5Zm-2.014 0h-1.007v.5h1.007v-.5Zm-2.014 0H36.07v.5h1.008v-.5Zm-2.015 0h-1.007v.5h1.007v-.5Zm-2.014 0h-1.007v.5h1.007v-.5Zm-2.014 0h-1.007v.5h1.007v-.5Zm-2.015 0h-1.007v.5h1.007v-.5Zm-2.014 0H26v.5h1.007v-.5Zm-2.014 0h-1.007v.5h1.007v-.5Zm-2.014 0H21.97v.5h1.008v-.5Zm-2.015 0h-1.007v.5h1.007v-.5Zm-2.014 0h-1.007v.5h1.007v-.5Zm-2.014 0h-1.007v.5h1.007v-.5Zm-2.014 0h-1.008v.5h1.008v-.5Zm-2.015 0H11.9v.5h1.007v-.5Zm-2.014 0H9.885v.5h1.007v-.5Zm-2.014 0H7.87v.5h1.007v-.5Zm-2.015 0H5.856v.5h1.007v-.5Zm-2.014 0H3.842v.5h1.007v-.5Zm-2.014 0H1.828v.5h1.007v-.5Zm-2.014 0H.317v.5H.82v-.5Zm69.492-10h.504v.5h-.504v-.5Zm-2.014 0h1.007v.5H68.3v-.5Zm-2.014 0h1.007v.5h-1.007v-.5Zm-2.014 0h1.007v.5H64.27v-.5Zm-2.015 0h1.007v.5h-1.007v-.5Zm-2.014 0h1.007v.5h-1.007v-.5Zm-2.014 0h1.007v.5h-1.007v-.5Zm-2.015 0h1.008v.5h-1.008v-.5Zm-2.014 0h1.007v.5H54.2v-.5Zm-2.014 0h1.007v.5h-1.007v-.5Zm-2.015 0h1.008v.5H50.17v-.5Zm-2.014 0h1.007v.5h-1.007v-.5Zm-2.014 0h1.007v.5h-1.007v-.5Zm-2.014 0h1.007v.5h-1.007v-.5Zm-2.015 0h1.008v.5h-1.008v-.5Zm-2.014 0h1.007v.5H40.1v-.5Zm-2.014 0h1.007v.5h-1.007v-.5Zm-2.014 0h1.007v.5H36.07v-.5Zm-2.015 0h1.007v.5h-1.007v-.5Zm-2.014 0h1.007v.5h-1.007v-.5Zm-2.014 0h1.007v.5h-1.007v-.5Zm-2.015 0h1.007v.5h-1.007v-.5Zm-2.014 0h1.007v.5H26v-.5Zm-2.014 0h1.007v.5h-1.007v-.5Zm-2.014 0h1.007v.5H21.97v-.5Zm-2.015 0h1.007v.5h-1.007v-.5Zm-2.014 0h1.007v.5h-1.007v-.5Zm-2.014 0h1.007v.5h-1.007v-.5Zm-2.015 0h1.008v.5h-1.008v-.5Zm-2.014 0h1.007v.5H11.9v-.5Zm-2.014 0h1.007v.5H9.885v-.5Zm-2.014 0h1.007v.5H7.87v-.5Zm-2.015 0h1.007v.5H5.856v-.5Zm-2.014 0h1.007v.5H3.842v-.5Zm-2.014 0h1.007v.5H1.828v-.5Zm-1.511 0H.82v.5H.317v-.5Zm70.5-10h-.504v.5h.504v-.5Zm-1.51 0h-1.008v.5h1.007v-.5Zm-2.015 0h-1.007v.5h1.007v-.5Zm-2.014 0H64.27v.5h1.008v-.5Zm-2.015 0h-1.007v.5h1.007v-.5Zm-2.014 0h-1.007v.5h1.007v-.5Zm-2.014 0h-1.007v.5h1.007v-.5Zm-2.014 0h-1.008v.5h1.008v-.5Zm-2.015 0H54.2v.5h1.007v-.5Zm-2.014 0h-1.007v.5h1.007v-.5Zm-2.014 0H50.17v.5h1.008v-.5Zm-2.015 0h-1.007v.5h1.007v-.5Zm-2.014 0h-1.007v.5h1.007v-.5Zm-2.014 0h-1.007v.5h1.007v-.5Zm-2.014 0h-1.008v.5h1.008v-.5Zm-2.015 0H40.1v.5h1.007v-.5Zm-2.014 0h-1.007v.5h1.007v-.5Zm-2.014 0H36.07v.5h1.008v-.5Zm-2.015 0h-1.007v.5h1.007v-.5Zm-2.014 0h-1.007v.5h1.007v-.5Zm-2.014 0h-1.007v.5h1.007v-.5Zm-2.015 0h-1.007v.5h1.007v-.5Zm-2.014 0H26v.5h1.007v-.5Zm-2.014 0h-1.007v.5h1.007v-.5Zm-2.014 0H21.97v.5h1.008v-.5Zm-2.015 0h-1.007v.5h1.007v-.5Zm-2.014 0h-1.007v.5h1.007v-.5Zm-2.014 0h-1.007v.5h1.007v-.5Zm-2.014 0h-1.008v.5h1.008v-.5Zm-2.015 0H11.9v.5h1.007v-.5Zm-2.014 0H9.885v.5h1.007v-.5Zm-2.014 0H7.87v.5h1.007v-.5Zm-2.015 0H5.856v.5h1.007v-.5Zm-2.014 0H3.842v.5h1.007v-.5Zm-2.014 0H1.828v.5h1.007v-.5Zm-2.014 0H.317v.5H.82v-.5Zm69.492-10h.504v.5h-.504v-.5Zm-2.014 0h1.007v.5H68.3v-.5Zm-2.014 0h1.007v.5h-1.007v-.5Zm-2.014 0h1.007v.5H64.27v-.5Zm-2.015 0h1.007v.5h-1.007v-.5Zm-2.014 0h1.007v.5h-1.007v-.5Zm-2.014 0h1.007v.5h-1.007v-.5Zm-2.015 0h1.008v.5h-1.008v-.5Zm-2.014 0h1.007v.5H54.2v-.5Zm-2.014 0h1.007v.5h-1.007v-.5Zm-2.015 0h1.008v.5H50.17v-.5Zm-2.014 0h1.007v.5h-1.007v-.5Zm-2.014 0h1.007v.5h-1.007v-.5Zm-2.014 0h1.007v.5h-1.007v-.5Zm-2.015 0h1.008v.5h-1.008v-.5Zm-2.014 0h1.007v.5H40.1v-.5Zm-2.014 0h1.007v.5h-1.007v-.5Zm-2.014 0h1.007v.5H36.07v-.5Zm-2.015 0h1.007v.5h-1.007v-.5Zm-2.014 0h1.007v.5h-1.007v-.5Zm-2.014 0h1.007v.5h-1.007v-.5Zm-2.015 0h1.007v.5h-1.007v-.5Zm-2.014 0h1.007v.5H26v-.5Zm-2.014 0h1.007v.5h-1.007v-.5Zm-2.014 0h1.007v.5H21.97v-.5Zm-2.015 0h1.007v.5h-1.007v-.5Zm-2.014 0h1.007v.5h-1.007v-.5Zm-2.014 0h1.007v.5h-1.007v-.5Zm-2.015 0h1.008v.5h-1.008v-.5Zm-2.014 0h1.007v.5H11.9v-.5Zm-2.014 0h1.007v.5H9.885v-.5Zm-2.014 0h1.007v.5H7.87v-.5Zm-2.015 0h1.007v.5H5.856v-.5Zm-2.014 0h1.007v.5H3.842v-.5Zm-2.014 0h1.007v.5H1.828v-.5Zm-1.511 0H.82v.5H.317v-.5Zm70.5-10h-.504v.5h.504v-.5Zm-1.51 0h-1.008v.5h1.007v-.5Zm-2.015 0h-1.007v.5h1.007v-.5Zm-2.014 0H64.27v.5h1.008v-.5Zm-2.015 0h-1.007v.5h1.007v-.5Zm-2.014 0h-1.007v.5h1.007v-.5Zm-2.014 0h-1.007v.5h1.007v-.5Zm-2.014 0h-1.008v.5h1.008v-.5Zm-2.015 0H54.2v.5h1.007v-.5Zm-2.014 0h-1.007v.5h1.007v-.5Zm-2.014 0H50.17v.5h1.008v-.5Zm-2.015 0h-1.007v.5h1.007v-.5Zm-2.014 0h-1.007v.5h1.007v-.5Zm-2.014 0h-1.007v.5h1.007v-.5Zm-2.014 0h-1.008v.5h1.008v-.5Zm-2.015 0H40.1v.5h1.007v-.5Zm-2.014 0h-1.007v.5h1.007v-.5Zm-2.014 0H36.07v.5h1.008v-.5Zm-2.015 0h-1.007v.5h1.007v-.5Zm-2.014 0h-1.007v.5h1.007v-.5Zm-2.014 0h-1.007v.5h1.007v-.5Zm-2.015 0h-1.007v.5h1.007v-.5Zm-2.014 0H26v.5h1.007v-.5Zm-2.014 0h-1.007v.5h1.007v-.5Zm-2.014 0H21.97v.5h1.008v-.5Zm-2.015 0h-1.007v.5h1.007v-.5Zm-2.014 0h-1.007v.5h1.007v-.5Zm-2.014 0h-1.007v.5h1.007v-.5Zm-2.014 0h-1.008v.5h1.008v-.5Zm-2.015 0H11.9v.5h1.007v-.5Zm-2.014 0H9.885v.5h1.007v-.5Zm-2.014 0H7.87v.5h1.007v-.5Zm-2.015 0H5.856v.5h1.007v-.5Zm-2.014 0H3.842v.5h1.007v-.5Zm-2.014 0H1.828v.5h1.007v-.5Zm-2.014 0H.317v.5H.82v-.5Z" fill="#D7D7D7"/><path d="M-.18 51.578 7.011 36.38c2.292-4.841 9.297-4.482 11.081.569l2.772 7.848c1.8 5.095 8.888 5.402 11.121.482l9.547-21.031c1.788-3.94 7.033-4.75 9.925-1.531l6.573 7.312 6.252 6.402c1.48 1.515 2.53 2.73 4.437 1.81l.952-.46" stroke="#9299D3" stroke-linecap="round"/><path d="M-.18 48.578 9.914 37.775a6 6 0 0 1 7.495-1.033l8.418 5.104 5.652 4.333a6 6 0 0 0 8.474-1.195l13.263-17.936c2.765-3.739 8.548-3.047 10.354 1.238l6.016 14.28" stroke="#8ED4DA" stroke-linecap="round"/><circle cx="39.627" cy="29.275" r="2.837" fill="#9299D3" stroke="#000" stroke-width=".5"/><circle cx="20.122" cy="42.916" r="2.837" fill="#9299D3" stroke="#000" stroke-width=".5"/><circle cx="41.47" cy="42.023" r="2.837" fill="#8ED4DA" stroke="#000" stroke-width=".5"/></g><rect x=".25" y=".75" width="69.5" height="69.5" rx="3.75" stroke="#000" stroke-width=".5"/><defs><clipPath id="a"><rect y=".5" width="70" height="70" rx="4" fill="#fff"/></clipPath></defs></svg>