<svg xmlns="http://www.w3.org/2000/svg" fill="none" viewBox="0.5 0 71 71">
<rect x="0.75" y="0.25" width="70.5" height="70.5" rx="4.25" fill="white"/>
<path fill-rule="evenodd" clip-rule="evenodd" d="M11.5 70.5V70.005H11L11 70.5H11.5ZM11.5 69.0149L11.5 68.0248H11L11 69.0149H11.5ZM11.5 67.0347L11.5 66.0446H11L11 67.0347H11.5ZM11.5 65.0545L11.5 64.0644H11L11 65.0545H11.5ZM11.5 63.0743L11.5 62.0842H11L11 63.0743L11.5 63.0743ZM11.5 61.0941V60.104H11L11 61.0941H11.5ZM11.5 59.1139L11.5 58.1238H11L11 59.1139L11.5 59.1139ZM11.5 57.1337L11.5 56.1436H11L11 57.1337H11.5ZM11.5 55.1535L11.5 54.1634H11L11 55.1535L11.5 55.1535ZM11.5 53.1733L11.5 52.1832H11L11 53.1733H11.5ZM11.5 51.1931V50.2031H11L11 51.1931L11.5 51.1931ZM11.5 49.213L11.5 48.2229H11L11 49.213H11.5ZM11.5 47.2328L11.5 46.2427H11V47.2328L11.5 47.2328ZM11.5 45.2526L11.5 44.2625H11V45.2526H11.5ZM11.5 43.2724L11.5 42.2823H11V43.2724H11.5ZM11.5 41.2922V40.3021H11V41.2922H11.5ZM11.5 39.312L11.5 38.3219H11V39.312L11.5 39.312ZM11.5 37.3318L11.5 36.3417H11V37.3318H11.5ZM11.5 35.3516L11.5 34.3615H11V35.3516H11.5ZM11.5 33.3714L11.5 32.3814H11V33.3714H11.5ZM11.5 31.3913V30.4012H11V31.3913H11.5ZM11.5 29.4111L11.5 28.421H11V29.4111H11.5ZM11.5 27.4309L11.5 26.4408H11V27.4309H11.5ZM11.5 25.4507L11.5 24.4606H11V25.4507H11.5ZM11.5 23.4705L11.5 22.4804H11V23.4705H11.5ZM11.5 21.4903V20.5002H11V21.4903H11.5ZM11.5 19.5101L11.5 18.52H11V19.5101H11.5ZM11.5 17.53L11.5 16.5399H11V17.53H11.5ZM11.5 15.5498L11.5 14.5597H11V15.5498H11.5ZM11.5 13.5696L11.5 12.5795H11V13.5696H11.5ZM11.5 11.5894V10.5993H11V11.5894H11.5ZM11.5 9.60921L11.5 8.61911H11V9.60921H11.5ZM11.5 7.62902L11.5 6.63893H11V7.62902H11.5ZM11.5 5.64883L11.5 4.65874H11V5.64883H11.5ZM11.5 3.66864L11.5 2.67854H11V3.66864H11.5ZM11.5 1.68845L11.5 1.19336H11V1.68845L11.5 1.68845ZM21.5 70.5V70.005H21V70.5H21.5ZM21.5 69.0149V68.0248H21V69.0149H21.5ZM21.5 67.0347V66.0446H21V67.0347H21.5ZM21.5 65.0545V64.0644H21V65.0545H21.5ZM21.5 63.0743V62.0842H21V63.0743L21.5 63.0743ZM21.5 61.0941V60.104H21V61.0941H21.5ZM21.5 59.1139V58.1238H21V59.1139L21.5 59.1139ZM21.5 57.1337V56.1436H21V57.1337H21.5ZM21.5 55.1535V54.1634H21V55.1535L21.5 55.1535ZM21.5 53.1733V52.1832H21V53.1733H21.5ZM21.5 51.1931V50.2031H21V51.1931L21.5 51.1931ZM21.5 49.213V48.2229H21V49.213H21.5ZM21.5 47.2328V46.2427H21V47.2328L21.5 47.2328ZM21.5 45.2526V44.2625H21V45.2526H21.5ZM21.5 43.2724V42.2823H21V43.2724H21.5ZM21.5 41.2922V40.3021H21V41.2922H21.5ZM21.5 39.312V38.3219H21V39.312L21.5 39.312ZM21.5 37.3318L21.5 36.3417H21L21 37.3318H21.5ZM21.5 35.3516V34.3615H21V35.3516H21.5ZM21.5 33.3714V32.3814H21V33.3714H21.5ZM21.5 31.3913V30.4012H21V31.3913H21.5ZM21.5 29.4111V28.421H21V29.4111H21.5ZM21.5 27.4309V26.4408H21V27.4309H21.5ZM21.5 25.4507V24.4606H21V25.4507H21.5ZM21.5 23.4705V22.4804H21V23.4705H21.5ZM21.5 21.4903V20.5002H21V21.4903H21.5ZM21.5 19.5101V18.52H21V19.5101H21.5ZM21.5 17.53V16.5399H21V17.53H21.5ZM21.5 15.5498V14.5597H21V15.5498H21.5ZM21.5 13.5696V12.5795H21V13.5696H21.5ZM21.5 11.5894V10.5993H21V11.5894H21.5ZM21.5 9.60921V8.61911H21V9.60921H21.5ZM21.5 7.62902V6.63893H21V7.62902H21.5ZM21.5 5.64883V4.65874H21V5.64883H21.5ZM21.5 3.66864V2.67854H21V3.66864H21.5ZM21.5 1.68845V1.19336H21V1.68845L21.5 1.68845ZM31.5 70.005V70.5H31V70.005H31.5ZM31.5 68.0248V69.0149H31V68.0248H31.5ZM31.5 66.0446V67.0347H31V66.0446H31.5ZM31.5 64.0644V65.0545H31V64.0644H31.5ZM31.5 62.0842V63.0743L31 63.0743V62.0842H31.5ZM31.5 60.104V61.0941H31V60.104H31.5ZM31.5 58.1238V59.1139L31 59.1139V58.1238H31.5ZM31.5 56.1436V57.1337H31V56.1436H31.5ZM31.5 54.1634V55.1535L31 55.1535V54.1634H31.5ZM31.5 52.1832V53.1733H31V52.1832H31.5ZM31.5 50.2031V51.1931L31 51.1931V50.2031H31.5ZM31.5 48.2229V49.213H31V48.2229H31.5ZM31.5 46.2427V47.2328L31 47.2328V46.2427H31.5ZM31.5 44.2625V45.2526H31V44.2625H31.5ZM31.5 42.2823V43.2724H31V42.2823H31.5ZM31.5 40.3021V41.2922H31V40.3021H31.5ZM31.5 38.3219V39.312L31 39.312V38.3219H31.5ZM31.5 36.3417V37.3318H31V36.3417H31.5ZM31.5 34.3615V35.3516H31V34.3615H31.5ZM31.5 32.3814V33.3714H31V32.3814H31.5ZM31.5 30.4012V31.3913H31V30.4012H31.5ZM31.5 28.421V29.4111H31V28.421H31.5ZM31.5 26.4408V27.4309H31V26.4408H31.5ZM31.5 24.4606V25.4507H31V24.4606H31.5ZM31.5 22.4804V23.4705H31V22.4804H31.5ZM31.5 20.5002V21.4903H31V20.5002H31.5ZM31.5 18.52V19.5101H31V18.52H31.5ZM31.5 16.5399V17.53H31V16.5399H31.5ZM31.5 14.5597V15.5498H31V14.5597H31.5ZM31.5 12.5795V13.5696H31V12.5795H31.5ZM31.5 10.5993V11.5894H31V10.5993H31.5ZM31.5 8.61911V9.60921H31V8.61911H31.5ZM31.5 6.63893V7.62902H31V6.63893H31.5ZM31.5 4.65874V5.64883H31V4.65874H31.5ZM31.5 2.67854V3.66864H31V2.67854H31.5ZM31.5 1.19336V1.68845L31 1.68845V1.19336H31.5ZM41.5 70.5V70.005H41V70.5H41.5ZM41.5 69.0149V68.0248H41V69.0149H41.5ZM41.5 67.0347V66.0446H41V67.0347H41.5ZM41.5 65.0545V64.0644H41V65.0545H41.5ZM41.5 63.0743V62.0842H41V63.0743L41.5 63.0743ZM41.5 61.0941V60.104H41V61.0941H41.5ZM41.5 59.1139V58.1238H41V59.1139L41.5 59.1139ZM41.5 57.1337V56.1436H41V57.1337H41.5ZM41.5 55.1535V54.1634H41V55.1535L41.5 55.1535ZM41.5 53.1733V52.1832H41V53.1733H41.5ZM41.5 51.1931V50.2031H41V51.1931L41.5 51.1931ZM41.5 49.213V48.2229H41V49.213H41.5ZM41.5 47.2328V46.2427H41V47.2328L41.5 47.2328ZM41.5 45.2526V44.2625H41V45.2526H41.5ZM41.5 43.2724V42.2823H41V43.2724H41.5ZM41.5 41.2922V40.3021H41V41.2922H41.5ZM41.5 39.312V38.3219H41V39.312L41.5 39.312ZM41.5 37.3318V36.3417H41V37.3318H41.5ZM41.5 35.3516V34.3615H41V35.3516H41.5ZM41.5 33.3714V32.3814H41V33.3714H41.5ZM41.5 31.3913V30.4012H41V31.3913H41.5ZM41.5 29.4111V28.421H41V29.4111H41.5ZM41.5 27.4309V26.4408H41V27.4309H41.5ZM41.5 25.4507V24.4606H41V25.4507H41.5ZM41.5 23.4705V22.4804H41V23.4705H41.5ZM41.5 21.4903V20.5002H41V21.4903H41.5ZM41.5 19.5101V18.52H41V19.5101H41.5ZM41.5 17.53V16.5399H41V17.53H41.5ZM41.5 15.5498V14.5597H41V15.5498H41.5ZM41.5 13.5696V12.5795H41V13.5696H41.5ZM41.5 11.5894V10.5993H41V11.5894H41.5ZM41.5 9.60921V8.61911H41V9.60921H41.5ZM41.5 7.62902V6.63893H41V7.62902H41.5ZM41.5 5.64883V4.65874H41V5.64883H41.5ZM41.5 3.66864V2.67854H41V3.66864H41.5ZM41.5 1.68845V1.19336H41V1.68845L41.5 1.68845ZM51.5 70.005V70.5H51V70.005H51.5ZM51.5 68.0248V69.0149H51V68.0248H51.5ZM51.5 66.0446V67.0347H51V66.0446H51.5ZM51.5 64.0644V65.0545H51V64.0644H51.5ZM51.5 62.0842V63.0743L51 63.0743V62.0842H51.5ZM51.5 60.104V61.0941H51V60.104H51.5ZM51.5 58.1238V59.1139L51 59.1139V58.1238H51.5ZM51.5 56.1436V57.1337H51V56.1436H51.5ZM51.5 54.1634V55.1535L51 55.1535V54.1634H51.5ZM51.5 52.1832V53.1733H51V52.1832H51.5ZM51.5 50.2031V51.1931L51 51.1931V50.2031H51.5ZM51.5 48.2229V49.213H51V48.2229H51.5ZM51.5 46.2427V47.2328L51 47.2328V46.2427H51.5ZM51.5 44.2625V45.2526H51V44.2625H51.5ZM51.5 42.2823V43.2724H51V42.2823H51.5ZM51.5 40.3021V41.2922H51V40.3021H51.5ZM51.5 38.3219V39.312L51 39.312V38.3219H51.5ZM51.5 36.3417V37.3318H51V36.3417H51.5ZM51.5 34.3615V35.3516H51V34.3615H51.5ZM51.5 32.3814V33.3714H51V32.3814H51.5ZM51.5 30.4012V31.3913H51V30.4012H51.5ZM51.5 28.421V29.4111H51V28.421H51.5ZM51.5 26.4408V27.4309H51V26.4408H51.5ZM51.5 24.4606L51.5 25.4507H51L51 24.4606H51.5ZM51.5 22.4804V23.4705H51V22.4804H51.5ZM51.5 20.5002V21.4903H51V20.5002H51.5ZM51.5 18.52V19.5101H51V18.52H51.5ZM51.5 16.5399V17.53H51V16.5399H51.5ZM51.5 14.5597V15.5498H51V14.5597H51.5ZM51.5 12.5795V13.5696H51V12.5795H51.5ZM51.5 10.5993V11.5894H51V10.5993H51.5ZM51.5 8.61911V9.60921H51V8.61911H51.5ZM51.5 6.63893V7.62902H51V6.63893H51.5ZM51.5 4.65874V5.64883H51V4.65874H51.5ZM51.5 2.67854V3.66864H51V2.67854H51.5ZM51.5 1.19336V1.68845L51 1.68845V1.19336H51.5ZM61.5 70.5V70.005H61V70.5H61.5ZM61.5 69.0149V68.0248H61V69.0149H61.5ZM61.5 67.0347V66.0446H61V67.0347H61.5ZM61.5 65.0545V64.0644H61V65.0545H61.5ZM61.5 63.0743V62.0842H61V63.0743L61.5 63.0743ZM61.5 61.0941V60.104H61V61.0941H61.5ZM61.5 59.1139V58.1238H61V59.1139L61.5 59.1139ZM61.5 57.1337V56.1436H61V57.1337H61.5ZM61.5 55.1535V54.1634H61V55.1535L61.5 55.1535ZM61.5 53.1733V52.1832H61V53.1733H61.5ZM61.5 51.1931V50.2031H61V51.1931L61.5 51.1931ZM61.5 49.213V48.2229H61V49.213H61.5ZM61.5 47.2328V46.2427H61V47.2328L61.5 47.2328ZM61.5 45.2526V44.2625H61V45.2526H61.5ZM61.5 43.2724V42.2823H61V43.2724H61.5ZM61.5 41.2922V40.3021H61V41.2922H61.5ZM61.5 39.312V38.3219H61V39.312L61.5 39.312ZM61.5 37.3318V36.3417H61V37.3318H61.5ZM61.5 35.3516V34.3615H61V35.3516H61.5ZM61.5 33.3714V32.3814H61V33.3714H61.5ZM61.5 31.3913V30.4012H61V31.3913H61.5ZM61.5 29.4111V28.421H61V29.4111H61.5ZM61.5 27.4309V26.4408H61V27.4309H61.5ZM61.5 25.4507L61.5 24.4606H61L61 25.4507H61.5ZM61.5 23.4705V22.4804H61V23.4705H61.5ZM61.5 21.4903V20.5002H61V21.4903H61.5ZM61.5 19.5101V18.52H61V19.5101H61.5ZM61.5 17.53V16.5399H61V17.53H61.5ZM61.5 15.5498V14.5597H61V15.5498H61.5ZM61.5 13.5696V12.5795H61V13.5696H61.5ZM61.5 11.5894V10.5993H61V11.5894H61.5ZM61.5 9.60921V8.61911H61V9.60921H61.5ZM61.5 7.62902V6.63893H61V7.62902H61.5ZM61.5 5.64883V4.65874H61V5.64883H61.5ZM61.5 3.66864V2.67854H61V3.66864H61.5ZM61.5 1.68845V1.19336H61V1.68845L61.5 1.68845Z" fill="#D7D7D7"/>
<path fill-rule="evenodd" clip-rule="evenodd" d="M70.8926 60.8892L70.3954 60.8892L70.3954 61.3892L70.8926 61.3892L70.8926 60.8892ZM69.401 60.8892L68.4065 60.8892L68.4065 61.3892L69.401 61.3892L69.401 60.8892ZM67.4121 60.8892L66.4177 60.8892L66.4177 61.3892L67.4121 61.3892L67.4121 60.8892ZM65.4233 60.8892L64.4289 60.8892L64.4289 61.3892L65.4233 61.3892L65.4233 60.8892ZM63.4345 60.8892L62.4401 60.8892L62.4401 61.3892L63.4345 61.3892L63.4345 60.8892ZM61.4457 60.8892L60.4512 60.8892L60.4512 61.3892L61.4457 61.3892L61.4457 60.8892ZM59.4568 60.8892L58.4624 60.8892L58.4624 61.3892L59.4568 61.3892L59.4568 60.8892ZM57.468 60.8892L56.4736 60.8892L56.4736 61.3892L57.468 61.3892L57.468 60.8892ZM55.4792 60.8892L54.4848 60.8892L54.4848 61.3892L55.4792 61.3892L55.4792 60.8892ZM53.4904 60.8892L52.4959 60.8892L52.4959 61.3892L53.4904 61.3892L53.4904 60.8892ZM51.5015 60.8892L50.5071 60.8892L50.5071 61.3892L51.5015 61.3892L51.5015 60.8892ZM49.5127 60.8892L48.5183 60.8892L48.5183 61.3892L49.5127 61.3892L49.5127 60.8892ZM47.5239 60.8892L46.5295 60.8892L46.5295 61.3892L47.5239 61.3892L47.5239 60.8892ZM45.535 60.8892L44.5406 60.8892L44.5406 61.3892L45.5351 61.3892L45.535 60.8892ZM43.5462 60.8892L42.5518 60.8892L42.5518 61.3892L43.5462 61.3892L43.5462 60.8892ZM41.5574 60.8892L40.563 60.8892L40.563 61.3892L41.5574 61.3892L41.5574 60.8892ZM39.5686 60.8892L38.5742 60.8892L38.5742 61.3892L39.5686 61.3892L39.5686 60.8892ZM37.5797 60.8892L36.5853 60.8892L36.5853 61.3892L37.5797 61.3892L37.5797 60.8892ZM35.5909 60.8892L34.5965 60.8892L34.5965 61.3892L35.5909 61.3892L35.5909 60.8892ZM33.6021 60.8892L32.6077 60.8892L32.6077 61.3892L33.6021 61.3892L33.6021 60.8892ZM31.6133 60.8892L30.6189 60.8892L30.6189 61.3892L31.6133 61.3892L31.6133 60.8892ZM29.6245 60.8892L28.63 60.8892L28.63 61.3892L29.6245 61.3892L29.6245 60.8892ZM27.6356 60.8892L26.6412 60.8892L26.6412 61.3892L27.6356 61.3892L27.6356 60.8892ZM25.6468 60.8892L24.6524 60.8892L24.6524 61.3892L25.6468 61.3892L25.6468 60.8892ZM23.658 60.8892L22.6636 60.8892L22.6636 61.3892L23.658 61.3892L23.658 60.8892ZM21.6692 60.8892L20.6748 60.8892L20.6748 61.3892L21.6692 61.3892L21.6692 60.8892ZM19.6803 60.8892L18.6859 60.8892L18.6859 61.3892L19.6803 61.3892L19.6803 60.8892ZM17.6915 60.8892L16.6971 60.8892L16.6971 61.3892L17.6915 61.3892L17.6915 60.8892ZM15.7027 60.8892L14.7083 60.8892L14.7083 61.3892L15.7027 61.3892L15.7027 60.8892ZM13.7139 60.8892L12.7195 60.8892L12.7195 61.3892L13.7139 61.3892L13.7139 60.8892ZM11.7251 60.8892L10.7306 60.8892L10.7306 61.3892L11.7251 61.3892L11.7251 60.8892ZM9.73623 60.8892L8.74181 60.8892L8.74181 61.3892L9.73623 61.3892L9.73623 60.8892ZM7.74741 60.8892L6.75299 60.8892L6.75299 61.3892L7.74741 61.3892L7.74741 60.8892ZM5.75858 60.8892L4.76416 60.8892L4.76416 61.3892L5.75858 61.3892L5.75858 60.8892ZM3.76974 60.8892L2.77533 60.8892L2.77533 61.3892L3.76974 61.3892L3.76974 60.8892ZM1.78091 60.8892L1.2837 60.8892L1.2837 61.3892L1.78091 61.3892L1.78091 60.8892ZM70.8926 50.8892L70.3954 50.8892L70.3954 51.3892L70.8926 51.3892L70.8926 50.8892ZM69.401 50.8892L68.4065 50.8892L68.4065 51.3892L69.401 51.3892L69.401 50.8892ZM67.4121 50.8892L66.4177 50.8892L66.4177 51.3892L67.4121 51.3892L67.4121 50.8892ZM65.4233 50.8892L64.4289 50.8892L64.4289 51.3892L65.4233 51.3892L65.4233 50.8892ZM63.4345 50.8892L62.4401 50.8892L62.4401 51.3892L63.4345 51.3892L63.4345 50.8892ZM61.4457 50.8892L60.4512 50.8892L60.4512 51.3892L61.4457 51.3892L61.4457 50.8892ZM59.4568 50.8892L58.4624 50.8892L58.4624 51.3892L59.4568 51.3892L59.4568 50.8892ZM57.468 50.8892L56.4736 50.8892L56.4736 51.3892L57.468 51.3892L57.468 50.8892ZM55.4792 50.8892L54.4848 50.8892L54.4848 51.3892L55.4792 51.3892L55.4792 50.8892ZM53.4904 50.8892L52.4959 50.8892L52.4959 51.3892L53.4904 51.3892L53.4904 50.8892ZM51.5015 50.8892L50.5071 50.8892L50.5071 51.3892L51.5015 51.3892L51.5015 50.8892ZM49.5127 50.8892L48.5183 50.8892L48.5183 51.3892L49.5127 51.3892L49.5127 50.8892ZM47.5239 50.8892L46.5295 50.8892L46.5295 51.3892L47.5239 51.3892L47.5239 50.8892ZM45.535 50.8892L44.5406 50.8892L44.5406 51.3892L45.5351 51.3892L45.535 50.8892ZM43.5462 50.8892L42.5518 50.8892L42.5518 51.3892L43.5462 51.3892L43.5462 50.8892ZM41.5574 50.8892L40.563 50.8892L40.563 51.3892L41.5574 51.3892L41.5574 50.8892ZM39.5686 50.8892L38.5742 50.8892L38.5742 51.3892L39.5686 51.3892L39.5686 50.8892ZM37.5797 50.8892L36.5853 50.8892L36.5853 51.3892L37.5797 51.3892L37.5797 50.8892ZM35.5909 50.8892L34.5965 50.8892L34.5965 51.3892L35.5909 51.3892L35.5909 50.8892ZM33.6021 50.8892L32.6077 50.8892L32.6077 51.3892L33.6021 51.3892L33.6021 50.8892ZM31.6133 50.8892L30.6189 50.8892L30.6189 51.3892L31.6133 51.3892L31.6133 50.8892ZM29.6245 50.8892L28.63 50.8892L28.63 51.3892L29.6245 51.3892L29.6245 50.8892ZM27.6356 50.8892L26.6412 50.8892L26.6412 51.3892L27.6356 51.3892L27.6356 50.8892ZM25.6468 50.8892L24.6524 50.8892L24.6524 51.3892L25.6468 51.3892L25.6468 50.8892ZM23.658 50.8892L22.6636 50.8892L22.6636 51.3892L23.658 51.3892L23.658 50.8892ZM21.6692 50.8892L20.6748 50.8892L20.6748 51.3892L21.6692 51.3892L21.6692 50.8892ZM19.6803 50.8892L18.6859 50.8892L18.6859 51.3892L19.6803 51.3892L19.6803 50.8892ZM17.6915 50.8892L16.6971 50.8892L16.6971 51.3892L17.6915 51.3892L17.6915 50.8892ZM15.7027 50.8892L14.7083 50.8892L14.7083 51.3892L15.7027 51.3892L15.7027 50.8892ZM13.7139 50.8892L12.7195 50.8892L12.7195 51.3892L13.7139 51.3892L13.7139 50.8892ZM11.7251 50.8892L10.7306 50.8892L10.7306 51.3892L11.7251 51.3892L11.7251 50.8892ZM9.73622 50.8892L8.74181 50.8892L8.74181 51.3892L9.73622 51.3892L9.73622 50.8892ZM7.74741 50.8892L6.75299 50.8892L6.75299 51.3892L7.74741 51.3892L7.74741 50.8892ZM5.75857 50.8892L4.76416 50.8892L4.76416 51.3892L5.75858 51.3892L5.75857 50.8892ZM3.76974 50.8892L2.77533 50.8892L2.77533 51.3892L3.76974 51.3892L3.76974 50.8892ZM1.78091 50.8892L1.2837 50.8892L1.2837 51.3892L1.78091 51.3892L1.78091 50.8892ZM70.3954 40.8892L70.8926 40.8892L70.8926 41.3892L70.3954 41.3892L70.3954 40.8892ZM68.4065 40.8892L69.401 40.8892L69.401 41.3892L68.4065 41.3892L68.4065 40.8892ZM66.4177 40.8892L67.4121 40.8892L67.4121 41.3892L66.4177 41.3892L66.4177 40.8892ZM64.4289 40.8892L65.4233 40.8892L65.4233 41.3892L64.4289 41.3892L64.4289 40.8892ZM62.4401 40.8892L63.4345 40.8892L63.4345 41.3892L62.4401 41.3892L62.4401 40.8892ZM60.4512 40.8892L61.4457 40.8892L61.4457 41.3892L60.4512 41.3892L60.4512 40.8892ZM58.4624 40.8892L59.4568 40.8892L59.4568 41.3892L58.4624 41.3892L58.4624 40.8892ZM56.4736 40.8892L57.468 40.8892L57.468 41.3892L56.4736 41.3892L56.4736 40.8892ZM54.4848 40.8892L55.4792 40.8892L55.4792 41.3892L54.4848 41.3892L54.4848 40.8892ZM52.4959 40.8892L53.4904 40.8892L53.4904 41.3892L52.4959 41.3892L52.4959 40.8892ZM50.5071 40.8892L51.5015 40.8892L51.5015 41.3892L50.5071 41.3892L50.5071 40.8892ZM48.5183 40.8892L49.5127 40.8892L49.5127 41.3892L48.5183 41.3892L48.5183 40.8892ZM46.5295 40.8892L47.5239 40.8892L47.5239 41.3892L46.5295 41.3892L46.5295 40.8892ZM44.5406 40.8892L45.535 40.8892L45.5351 41.3892L44.5406 41.3892L44.5406 40.8892ZM42.5518 40.8892L43.5462 40.8892L43.5462 41.3892L42.5518 41.3892L42.5518 40.8892ZM40.563 40.8892L41.5574 40.8892L41.5574 41.3892L40.563 41.3892L40.563 40.8892ZM38.5742 40.8892L39.5686 40.8892L39.5686 41.3892L38.5742 41.3892L38.5742 40.8892ZM36.5853 40.8892L37.5797 40.8892L37.5797 41.3892L36.5853 41.3892L36.5853 40.8892ZM34.5965 40.8892L35.5909 40.8892L35.5909 41.3892L34.5965 41.3892L34.5965 40.8892ZM32.6077 40.8892L33.6021 40.8892L33.6021 41.3892L32.6077 41.3892L32.6077 40.8892ZM30.6189 40.8892L31.6133 40.8892L31.6133 41.3892L30.6189 41.3892L30.6189 40.8892ZM28.63 40.8892L29.6245 40.8892L29.6245 41.3892L28.63 41.3892L28.63 40.8892ZM26.6412 40.8892L27.6356 40.8892L27.6356 41.3892L26.6412 41.3892L26.6412 40.8892ZM24.6524 40.8892L25.6468 40.8892L25.6468 41.3892L24.6524 41.3892L24.6524 40.8892ZM22.6636 40.8892L23.658 40.8892L23.658 41.3892L22.6636 41.3892L22.6636 40.8892ZM20.6748 40.8892L21.6692 40.8892L21.6692 41.3892L20.6748 41.3892L20.6748 40.8892ZM18.6859 40.8892L19.6803 40.8892L19.6803 41.3892L18.6859 41.3892L18.6859 40.8892ZM16.6971 40.8892L17.6915 40.8892L17.6915 41.3892L16.6971 41.3892L16.6971 40.8892ZM14.7083 40.8892L15.7027 40.8892L15.7027 41.3892L14.7083 41.3892L14.7083 40.8892ZM12.7195 40.8892L13.7139 40.8892L13.7139 41.3892L12.7195 41.3892L12.7195 40.8892ZM10.7306 40.8892L11.7251 40.8892L11.7251 41.3892L10.7306 41.3892L10.7306 40.8892ZM8.74181 40.8892L9.73622 40.8892L9.73622 41.3892L8.74181 41.3892L8.74181 40.8892ZM6.75299 40.8892L7.74741 40.8892L7.74741 41.3892L6.75299 41.3892L6.75299 40.8892ZM4.76416 40.8892L5.75857 40.8892L5.75857 41.3892L4.76416 41.3892L4.76416 40.8892ZM2.77533 40.8892L3.76974 40.8892L3.76974 41.3892L2.77533 41.3892L2.77533 40.8892ZM1.2837 40.8892L1.78091 40.8892L1.78091 41.3892L1.2837 41.3892L1.2837 40.8892ZM70.8926 30.8892L70.3954 30.8892L70.3954 31.3892L70.8926 31.3892L70.8926 30.8892ZM69.401 30.8892L68.4065 30.8892L68.4065 31.3892L69.401 31.3892L69.401 30.8892ZM67.4121 30.8892L66.4177 30.8892L66.4177 31.3892L67.4121 31.3892L67.4121 30.8892ZM65.4233 30.8892L64.4289 30.8892L64.4289 31.3892L65.4233 31.3892L65.4233 30.8892ZM63.4345 30.8892L62.4401 30.8892L62.4401 31.3892L63.4345 31.3892L63.4345 30.8892ZM61.4457 30.8892L60.4512 30.8892L60.4512 31.3892L61.4457 31.3892L61.4457 30.8892ZM59.4568 30.8892L58.4624 30.8892L58.4624 31.3892L59.4568 31.3892L59.4568 30.8892ZM57.468 30.8892L56.4736 30.8892L56.4736 31.3892L57.468 31.3892L57.468 30.8892ZM55.4792 30.8892L54.4848 30.8892L54.4848 31.3892L55.4792 31.3892L55.4792 30.8892ZM53.4904 30.8892L52.4959 30.8892L52.4959 31.3892L53.4904 31.3892L53.4904 30.8892ZM51.5015 30.8892L50.5071 30.8892L50.5071 31.3892L51.5015 31.3892L51.5015 30.8892ZM49.5127 30.8892L48.5183 30.8892L48.5183 31.3892L49.5127 31.3892L49.5127 30.8892ZM47.5239 30.8892L46.5295 30.8892L46.5295 31.3892L47.5239 31.3892L47.5239 30.8892ZM45.535 30.8892L44.5406 30.8892L44.5406 31.3892L45.5351 31.3892L45.535 30.8892ZM43.5462 30.8892L42.5518 30.8892L42.5518 31.3892L43.5462 31.3892L43.5462 30.8892ZM41.5574 30.8892L40.563 30.8892L40.563 31.3892L41.5574 31.3892L41.5574 30.8892ZM39.5686 30.8892L38.5742 30.8892L38.5742 31.3892L39.5686 31.3892L39.5686 30.8892ZM37.5797 30.8892L36.5853 30.8892L36.5853 31.3892L37.5797 31.3892L37.5797 30.8892ZM35.5909 30.8892L34.5965 30.8892L34.5965 31.3892L35.5909 31.3892L35.5909 30.8892ZM33.6021 30.8892L32.6077 30.8892L32.6077 31.3892L33.6021 31.3892L33.6021 30.8892ZM31.6133 30.8892L30.6189 30.8892L30.6189 31.3892L31.6133 31.3892L31.6133 30.8892ZM29.6245 30.8892L28.63 30.8892L28.63 31.3892L29.6245 31.3892L29.6245 30.8892ZM27.6356 30.8892L26.6412 30.8892L26.6412 31.3892L27.6356 31.3892L27.6356 30.8892ZM25.6468 30.8892L24.6524 30.8892L24.6524 31.3892L25.6468 31.3892L25.6468 30.8892ZM23.658 30.8892L22.6636 30.8892L22.6636 31.3892L23.658 31.3892L23.658 30.8892ZM21.6692 30.8892L20.6747 30.8892L20.6747 31.3892L21.6692 31.3892L21.6692 30.8892ZM19.6803 30.8892L18.6859 30.8892L18.6859 31.3892L19.6803 31.3892L19.6803 30.8892ZM17.6915 30.8892L16.6971 30.8892L16.6971 31.3892L17.6915 31.3892L17.6915 30.8892ZM15.7027 30.8892L14.7083 30.8892L14.7083 31.3892L15.7027 31.3892L15.7027 30.8892ZM13.7139 30.8892L12.7195 30.8892L12.7195 31.3892L13.7139 31.3892L13.7139 30.8892ZM11.7251 30.8892L10.7306 30.8892L10.7306 31.3892L11.7251 31.3892L11.7251 30.8892ZM9.73622 30.8892L8.74181 30.8892L8.74181 31.3892L9.73622 31.3892L9.73622 30.8892ZM7.7474 30.8892L6.75299 30.8892L6.75299 31.3892L7.7474 31.3892L7.7474 30.8892ZM5.75857 30.8892L4.76416 30.8892L4.76416 31.3892L5.75857 31.3892L5.75857 30.8892ZM3.76974 30.8892L2.77533 30.8892L2.77533 31.3892L3.76974 31.3892L3.76974 30.8892ZM1.78091 30.8892L1.2837 30.8892L1.2837 31.3892L1.78091 31.3892L1.78091 30.8892ZM70.3954 20.8892L70.8926 20.8892L70.8926 21.3892L70.3954 21.3892L70.3954 20.8892ZM68.4065 20.8892L69.401 20.8892L69.401 21.3892L68.4065 21.3892L68.4065 20.8892ZM66.4177 20.8892L67.4121 20.8892L67.4121 21.3892L66.4177 21.3892L66.4177 20.8892ZM64.4289 20.8892L65.4233 20.8892L65.4233 21.3892L64.4289 21.3892L64.4289 20.8892ZM62.4401 20.8892L63.4345 20.8892L63.4345 21.3892L62.4401 21.3892L62.4401 20.8892ZM60.4512 20.8892L61.4457 20.8892L61.4457 21.3892L60.4512 21.3892L60.4512 20.8892ZM58.4624 20.8892L59.4568 20.8892L59.4568 21.3892L58.4624 21.3892L58.4624 20.8892ZM56.4736 20.8892L57.468 20.8892L57.468 21.3892L56.4736 21.3892L56.4736 20.8892ZM54.4848 20.8892L55.4792 20.8892L55.4792 21.3892L54.4848 21.3892L54.4848 20.8892ZM52.4959 20.8892L53.4904 20.8892L53.4904 21.3892L52.4959 21.3892L52.4959 20.8892ZM50.5071 20.8892L51.5015 20.8892L51.5015 21.3892L50.5071 21.3892L50.5071 20.8892ZM48.5183 20.8892L49.5127 20.8892L49.5127 21.3892L48.5183 21.3892L48.5183 20.8892ZM46.5295 20.8892L47.5239 20.8892L47.5239 21.3892L46.5295 21.3892L46.5295 20.8892ZM44.5406 20.8892L45.535 20.8892L45.5351 21.3892L44.5406 21.3892L44.5406 20.8892ZM42.5518 20.8892L43.5462 20.8892L43.5462 21.3892L42.5518 21.3892L42.5518 20.8892ZM40.563 20.8892L41.5574 20.8892L41.5574 21.3892L40.563 21.3892L40.563 20.8892ZM38.5742 20.8892L39.5686 20.8892L39.5686 21.3892L38.5742 21.3892L38.5742 20.8892ZM36.5853 20.8892L37.5797 20.8892L37.5797 21.3892L36.5853 21.3892L36.5853 20.8892ZM34.5965 20.8892L35.5909 20.8892L35.5909 21.3892L34.5965 21.3892L34.5965 20.8892ZM32.6077 20.8892L33.6021 20.8892L33.6021 21.3892L32.6077 21.3892L32.6077 20.8892ZM30.6189 20.8892L31.6133 20.8892L31.6133 21.3892L30.6189 21.3892L30.6189 20.8892ZM28.63 20.8892L29.6245 20.8892L29.6245 21.3892L28.63 21.3892L28.63 20.8892ZM26.6412 20.8892L27.6356 20.8892L27.6356 21.3892L26.6412 21.3892L26.6412 20.8892ZM24.6524 20.8892L25.6468 20.8892L25.6468 21.3892L24.6524 21.3892L24.6524 20.8892ZM22.6636 20.8892L23.658 20.8892L23.658 21.3892L22.6636 21.3892L22.6636 20.8892ZM20.6747 20.8892L21.6692 20.8892L21.6692 21.3892L20.6747 21.3892L20.6747 20.8892ZM18.6859 20.8892L19.6803 20.8892L19.6803 21.3892L18.6859 21.3892L18.6859 20.8892ZM16.6971 20.8892L17.6915 20.8892L17.6915 21.3892L16.6971 21.3892L16.6971 20.8892ZM14.7083 20.8892L15.7027 20.8892L15.7027 21.3892L14.7083 21.3892L14.7083 20.8892ZM12.7195 20.8892L13.7139 20.8892L13.7139 21.3892L12.7195 21.3892L12.7195 20.8892ZM10.7306 20.8892L11.7251 20.8892L11.7251 21.3892L10.7306 21.3892L10.7306 20.8892ZM8.74181 20.8892L9.73622 20.8892L9.73622 21.3892L8.74181 21.3892L8.74181 20.8892ZM6.75299 20.8892L7.7474 20.8892L7.7474 21.3892L6.75299 21.3892L6.75299 20.8892ZM4.76416 20.8892L5.75857 20.8892L5.75857 21.3892L4.76416 21.3892L4.76416 20.8892ZM2.77533 20.8892L3.76974 20.8892L3.76974 21.3892L2.77533 21.3892L2.77533 20.8892ZM1.2837 20.8892L1.78091 20.8892L1.78091 21.3892L1.2837 21.3892L1.2837 20.8892ZM70.8926 10.8892L70.3954 10.8892L70.3954 11.3892L70.8926 11.3892L70.8926 10.8892ZM69.401 10.8892L68.4065 10.8892L68.4065 11.3892L69.401 11.3892L69.401 10.8892ZM67.4121 10.8892L66.4177 10.8892L66.4177 11.3892L67.4121 11.3892L67.4121 10.8892ZM65.4233 10.8892L64.4289 10.8892L64.4289 11.3892L65.4233 11.3892L65.4233 10.8892ZM63.4345 10.8892L62.4401 10.8892L62.4401 11.3892L63.4345 11.3892L63.4345 10.8892ZM61.4457 10.8892L60.4512 10.8892L60.4512 11.3892L61.4457 11.3892L61.4457 10.8892ZM59.4568 10.8892L58.4624 10.8892L58.4624 11.3892L59.4568 11.3892L59.4568 10.8892ZM57.468 10.8892L56.4736 10.8892L56.4736 11.3892L57.468 11.3892L57.468 10.8892ZM55.4792 10.8892L54.4848 10.8892L54.4848 11.3892L55.4792 11.3892L55.4792 10.8892ZM53.4904 10.8892L52.4959 10.8892L52.4959 11.3892L53.4904 11.3892L53.4904 10.8892ZM51.5015 10.8892L50.5071 10.8892L50.5071 11.3892L51.5015 11.3892L51.5015 10.8892ZM49.5127 10.8892L48.5183 10.8892L48.5183 11.3892L49.5127 11.3892L49.5127 10.8892ZM47.5239 10.8892L46.5295 10.8892L46.5295 11.3892L47.5239 11.3892L47.5239 10.8892ZM45.535 10.8892L44.5406 10.8892L44.5406 11.3892L45.5351 11.3892L45.535 10.8892ZM43.5462 10.8892L42.5518 10.8892L42.5518 11.3892L43.5462 11.3892L43.5462 10.8892ZM41.5574 10.8892L40.563 10.8892L40.563 11.3892L41.5574 11.3892L41.5574 10.8892ZM39.5686 10.8892L38.5742 10.8892L38.5742 11.3892L39.5686 11.3892L39.5686 10.8892ZM37.5797 10.8892L36.5853 10.8892L36.5853 11.3892L37.5797 11.3892L37.5797 10.8892ZM35.5909 10.8892L34.5965 10.8892L34.5965 11.3892L35.5909 11.3892L35.5909 10.8892ZM33.6021 10.8892L32.6077 10.8892L32.6077 11.3892L33.6021 11.3892L33.6021 10.8892ZM31.6133 10.8892L30.6189 10.8892L30.6189 11.3892L31.6133 11.3892L31.6133 10.8892ZM29.6245 10.8892L28.63 10.8892L28.63 11.3892L29.6245 11.3892L29.6245 10.8892ZM27.6356 10.8892L26.6412 10.8892L26.6412 11.3892L27.6356 11.3892L27.6356 10.8892ZM25.6468 10.8892L24.6524 10.8892L24.6524 11.3892L25.6468 11.3892L25.6468 10.8892ZM23.658 10.8892L22.6636 10.8892L22.6636 11.3892L23.658 11.3892L23.658 10.8892ZM21.6692 10.8892L20.6747 10.8892L20.6747 11.3892L21.6692 11.3892L21.6692 10.8892ZM19.6803 10.8892L18.6859 10.8892L18.6859 11.3892L19.6803 11.3892L19.6803 10.8892ZM17.6915 10.8892L16.6971 10.8892L16.6971 11.3892L17.6915 11.3892L17.6915 10.8892ZM15.7027 10.8892L14.7083 10.8892L14.7083 11.3892L15.7027 11.3892L15.7027 10.8892ZM13.7139 10.8892L12.7195 10.8892L12.7195 11.3892L13.7139 11.3892L13.7139 10.8892ZM11.725 10.8892L10.7306 10.8892L10.7306 11.3892L11.725 11.3892L11.725 10.8892ZM9.73622 10.8892L8.74181 10.8892L8.74181 11.3892L9.73622 11.3892L9.73622 10.8892ZM7.7474 10.8892L6.75299 10.8892L6.75299 11.3892L7.7474 11.3892L7.7474 10.8892ZM5.75857 10.8892L4.76416 10.8892L4.76416 11.3892L5.75857 11.3892L5.75857 10.8892ZM3.76974 10.8892L2.77533 10.8892L2.77533 11.3892L3.76974 11.3892L3.76974 10.8892ZM1.78091 10.8892L1.2837 10.8892L1.2837 11.3892L1.78091 11.3892L1.78091 10.8892Z" fill="#D7D7D7"/>
<g clip-path="url(#clip0_3002_31308)">
<mask id="path-4-inside-1_3002_31308" fill="white">
<path fill-rule="evenodd" clip-rule="evenodd" d="M1 63.4321L1.23668 62.4207C1.47336 61.4094 0.942492 59.3868 1.41585 60.3981C1.94839 61.4094 2.42175 65.4547 2.89511 63.4321C3.36847 61.4094 3.84183 53.3188 4.31519 53.3188C4.84772 53.3188 5.32109 61.4094 5.79445 63.4321C6.26781 65.4547 6.74117 61.4094 7.21453 54.3302C7.74706 47.2509 8.22043 37.1377 8.69379 32.081C9.16715 27.0244 9.64051 27.0244 10.1139 28.0358C10.6464 29.0471 11.1198 31.0697 11.5931 34.1037C12.0665 37.1377 12.5398 41.183 13.0132 45.2282C13.5457 49.2735 14.0191 53.3188 14.4925 53.3188C14.9658 53.3188 15.4392 49.2735 15.9126 44.2169C16.4451 39.1603 16.9184 33.0924 17.3918 27.0244C17.8652 20.9565 18.3385 14.8885 18.8119 15.8999C19.3444 16.9112 19.8178 25.0018 20.2911 26.0131C20.7645 27.0244 21.2379 20.9565 21.7112 23.9905C22.2438 27.0244 22.7171 39.1603 23.1905 46.2396C23.6638 53.3188 24.1372 55.3415 24.6106 56.3528C25.0839 57.3641 25.6165 57.3641 26.0898 54.3302C26.5632 51.2962 27.0365 45.2282 27.5099 46.2396C27.9833 47.2509 28.5158 55.3415 28.9892 56.3528C29.4625 57.3641 29.9359 51.2962 30.4092 49.2735C30.8826 47.2509 31.4151 49.2735 31.8885 47.2509C32.3619 45.2282 32.8352 39.1603 33.3086 34.1037C33.7819 29.0471 34.3145 25.0018 34.7878 22.9791C35.2612 20.9565 35.7346 20.9565 36.2079 27.0244C36.6813 33.0924 37.2138 45.2282 37.6872 48.2622C38.1605 51.2962 38.6339 45.2282 39.1073 43.2056C39.5806 41.183 40.1132 43.2056 40.5865 47.2509C41.0599 51.2962 41.5332 57.3641 42.0066 57.3641C42.48 57.3641 43.0125 51.2962 43.4859 44.2169C43.9592 37.1377 44.4326 29.0471 44.9059 29.0471C45.3793 29.0471 45.9118 37.1377 46.3852 37.1377C46.8586 37.1377 47.3319 29.0471 47.8053 32.081C48.2786 35.115 48.752 49.2735 49.2845 48.2622C49.7579 47.2509 50.2313 31.0697 50.7046 23.9905C51.178 16.9112 51.6513 18.9338 52.1839 22.9791C52.6572 27.0244 53.1306 33.0924 53.604 39.1603C54.0773 45.2282 54.5507 51.2962 55.0832 51.2962C55.5566 51.2962 56.0299 45.2282 56.5033 45.2282C56.9767 45.2282 57.45 51.2962 57.9826 49.2735C58.4559 47.2509 58.9293 37.1377 59.4026 38.149C59.876 39.1603 60.3494 51.2962 60.8819 50.2849C61.3553 49.2735 61.8286 35.115 62.302 28.0358C62.7753 20.9565 63.2487 20.9565 63.7812 19.9452C64.2546 18.9338 64.728 16.9112 65.2013 20.9565C65.6747 25.0018 66.148 35.115 66.6806 40.1716C67.1539 45.2282 67.6273 45.2282 68.1007 47.2509C68.574 49.2735 69.0474 53.3188 69.5799 48.2622C70.0533 43.2056 70.5266 29.0471 70.7633 21.9678L71 14.8885V64.0122L70.5434 68.154C70.4463 68.6387 70.0533 69.5 69.5799 69.5C69.0474 69.5 68.574 69.5 68.1007 69.5C67.6273 69.5 67.1539 69.5 66.6806 69.5C66.148 69.5 65.6747 69.5 65.2013 69.5C64.728 69.5 64.2546 69.5 63.7812 69.5C63.2487 69.5 62.7753 69.5 62.302 69.5C61.8286 69.5 61.3553 69.5 60.8819 69.5C60.3494 69.5 59.876 69.5 59.4026 69.5C58.9293 69.5 58.4559 69.5 57.9826 69.5C57.45 69.5 56.9767 69.5 56.5033 69.5C56.0299 69.5 55.5566 69.5 55.0832 69.5C54.5507 69.5 54.0773 69.5 53.604 69.5C53.1306 69.5 52.6572 69.5 52.1839 69.5C51.6513 69.5 51.178 69.5 50.7046 69.5C50.2313 69.5 49.7579 69.5 49.2845 69.5C48.752 69.5 48.2786 69.5 47.8053 69.5C47.3319 69.5 46.8586 69.5 46.3852 69.5C45.9118 69.5 45.3793 69.5 44.9059 69.5C44.4326 69.5 43.9592 69.5 43.4859 69.5C43.0125 69.5 42.48 69.5 42.0066 69.5C41.5332 69.5 41.0599 69.5 40.5865 69.5C40.1132 69.5 39.5806 69.5 39.1073 69.5C38.6339 69.5 38.1605 69.5 37.6872 69.5C37.2138 69.5 36.6813 69.5 36.2079 69.5C35.7346 69.5 35.2612 69.5 34.7878 69.5C34.3145 69.5 33.7819 69.5 33.3086 69.5C32.8352 69.5 32.3619 69.5 31.8885 69.5C31.4151 69.5 30.8826 69.5 30.4092 69.5C29.9359 69.5 29.4625 69.5 28.9892 69.5C28.5158 69.5 27.9833 69.5 27.5099 69.5C27.0365 69.5 26.5632 69.5 26.0898 69.5C25.6165 69.5 25.0839 69.5 24.6106 69.5C24.1372 69.5 23.6638 69.5 23.1905 69.5C22.7171 69.5 22.2438 69.5 21.7112 69.5C21.2379 69.5 20.7645 69.5 20.2911 69.5C19.8178 69.5 19.3444 69.5 18.8119 69.5C18.3385 69.5 17.8652 69.5 17.3918 69.5C16.9184 69.5 16.4451 69.5 15.9126 69.5C15.4392 69.5 14.9658 69.5 14.4925 69.5C14.0191 69.5 13.5457 69.5 13.0132 69.5C12.5398 69.5 12.0665 69.5 11.5931 69.5C11.1198 69.5 10.6464 69.5 10.1139 69.5C9.64051 69.5 9.16715 69.5 8.69379 69.5C8.22043 69.5 7.74706 69.5 7.21453 69.5C6.74117 69.5 6.26781 69.5 5.79445 69.5C5.32109 69.5 4.84772 69.5 4.31519 69.5C3.84183 69.5 2.6057 69.7658 2.6057 69.7658C2.6057 69.7658 1.59485 69.5 1.41585 68.5C0.942492 68.5 1.47336 68.5 1.23668 68.5V68.5C1.10597 68.5 1 68.394 1 68.2633V63.4321Z"/>
</mask>
<path fill-rule="evenodd" clip-rule="evenodd" d="M1 63.4321L1.23668 62.4207C1.47336 61.4094 0.942492 59.3868 1.41585 60.3981C1.94839 61.4094 2.42175 65.4547 2.89511 63.4321C3.36847 61.4094 3.84183 53.3188 4.31519 53.3188C4.84772 53.3188 5.32109 61.4094 5.79445 63.4321C6.26781 65.4547 6.74117 61.4094 7.21453 54.3302C7.74706 47.2509 8.22043 37.1377 8.69379 32.081C9.16715 27.0244 9.64051 27.0244 10.1139 28.0358C10.6464 29.0471 11.1198 31.0697 11.5931 34.1037C12.0665 37.1377 12.5398 41.183 13.0132 45.2282C13.5457 49.2735 14.0191 53.3188 14.4925 53.3188C14.9658 53.3188 15.4392 49.2735 15.9126 44.2169C16.4451 39.1603 16.9184 33.0924 17.3918 27.0244C17.8652 20.9565 18.3385 14.8885 18.8119 15.8999C19.3444 16.9112 19.8178 25.0018 20.2911 26.0131C20.7645 27.0244 21.2379 20.9565 21.7112 23.9905C22.2438 27.0244 22.7171 39.1603 23.1905 46.2396C23.6638 53.3188 24.1372 55.3415 24.6106 56.3528C25.0839 57.3641 25.6165 57.3641 26.0898 54.3302C26.5632 51.2962 27.0365 45.2282 27.5099 46.2396C27.9833 47.2509 28.5158 55.3415 28.9892 56.3528C29.4625 57.3641 29.9359 51.2962 30.4092 49.2735C30.8826 47.2509 31.4151 49.2735 31.8885 47.2509C32.3619 45.2282 32.8352 39.1603 33.3086 34.1037C33.7819 29.0471 34.3145 25.0018 34.7878 22.9791C35.2612 20.9565 35.7346 20.9565 36.2079 27.0244C36.6813 33.0924 37.2138 45.2282 37.6872 48.2622C38.1605 51.2962 38.6339 45.2282 39.1073 43.2056C39.5806 41.183 40.1132 43.2056 40.5865 47.2509C41.0599 51.2962 41.5332 57.3641 42.0066 57.3641C42.48 57.3641 43.0125 51.2962 43.4859 44.2169C43.9592 37.1377 44.4326 29.0471 44.9059 29.0471C45.3793 29.0471 45.9118 37.1377 46.3852 37.1377C46.8586 37.1377 47.3319 29.0471 47.8053 32.081C48.2786 35.115 48.752 49.2735 49.2845 48.2622C49.7579 47.2509 50.2313 31.0697 50.7046 23.9905C51.178 16.9112 51.6513 18.9338 52.1839 22.9791C52.6572 27.0244 53.1306 33.0924 53.604 39.1603C54.0773 45.2282 54.5507 51.2962 55.0832 51.2962C55.5566 51.2962 56.0299 45.2282 56.5033 45.2282C56.9767 45.2282 57.45 51.2962 57.9826 49.2735C58.4559 47.2509 58.9293 37.1377 59.4026 38.149C59.876 39.1603 60.3494 51.2962 60.8819 50.2849C61.3553 49.2735 61.8286 35.115 62.302 28.0358C62.7753 20.9565 63.2487 20.9565 63.7812 19.9452C64.2546 18.9338 64.728 16.9112 65.2013 20.9565C65.6747 25.0018 66.148 35.115 66.6806 40.1716C67.1539 45.2282 67.6273 45.2282 68.1007 47.2509C68.574 49.2735 69.0474 53.3188 69.5799 48.2622C70.0533 43.2056 70.5266 29.0471 70.7633 21.9678L71 14.8885V64.0122L70.5434 68.154C70.4463 68.6387 70.0533 69.5 69.5799 69.5C69.0474 69.5 68.574 69.5 68.1007 69.5C67.6273 69.5 67.1539 69.5 66.6806 69.5C66.148 69.5 65.6747 69.5 65.2013 69.5C64.728 69.5 64.2546 69.5 63.7812 69.5C63.2487 69.5 62.7753 69.5 62.302 69.5C61.8286 69.5 61.3553 69.5 60.8819 69.5C60.3494 69.5 59.876 69.5 59.4026 69.5C58.9293 69.5 58.4559 69.5 57.9826 69.5C57.45 69.5 56.9767 69.5 56.5033 69.5C56.0299 69.5 55.5566 69.5 55.0832 69.5C54.5507 69.5 54.0773 69.5 53.604 69.5C53.1306 69.5 52.6572 69.5 52.1839 69.5C51.6513 69.5 51.178 69.5 50.7046 69.5C50.2313 69.5 49.7579 69.5 49.2845 69.5C48.752 69.5 48.2786 69.5 47.8053 69.5C47.3319 69.5 46.8586 69.5 46.3852 69.5C45.9118 69.5 45.3793 69.5 44.9059 69.5C44.4326 69.5 43.9592 69.5 43.4859 69.5C43.0125 69.5 42.48 69.5 42.0066 69.5C41.5332 69.5 41.0599 69.5 40.5865 69.5C40.1132 69.5 39.5806 69.5 39.1073 69.5C38.6339 69.5 38.1605 69.5 37.6872 69.5C37.2138 69.5 36.6813 69.5 36.2079 69.5C35.7346 69.5 35.2612 69.5 34.7878 69.5C34.3145 69.5 33.7819 69.5 33.3086 69.5C32.8352 69.5 32.3619 69.5 31.8885 69.5C31.4151 69.5 30.8826 69.5 30.4092 69.5C29.9359 69.5 29.4625 69.5 28.9892 69.5C28.5158 69.5 27.9833 69.5 27.5099 69.5C27.0365 69.5 26.5632 69.5 26.0898 69.5C25.6165 69.5 25.0839 69.5 24.6106 69.5C24.1372 69.5 23.6638 69.5 23.1905 69.5C22.7171 69.5 22.2438 69.5 21.7112 69.5C21.2379 69.5 20.7645 69.5 20.2911 69.5C19.8178 69.5 19.3444 69.5 18.8119 69.5C18.3385 69.5 17.8652 69.5 17.3918 69.5C16.9184 69.5 16.4451 69.5 15.9126 69.5C15.4392 69.5 14.9658 69.5 14.4925 69.5C14.0191 69.5 13.5457 69.5 13.0132 69.5C12.5398 69.5 12.0665 69.5 11.5931 69.5C11.1198 69.5 10.6464 69.5 10.1139 69.5C9.64051 69.5 9.16715 69.5 8.69379 69.5C8.22043 69.5 7.74706 69.5 7.21453 69.5C6.74117 69.5 6.26781 69.5 5.79445 69.5C5.32109 69.5 4.84772 69.5 4.31519 69.5C3.84183 69.5 2.6057 69.7658 2.6057 69.7658C2.6057 69.7658 1.59485 69.5 1.41585 68.5C0.942492 68.5 1.47336 68.5 1.23668 68.5V68.5C1.10597 68.5 1 68.394 1 68.2633V63.4321Z" fill="#D7D9EA" stroke="black" mask="url(#path-4-inside-1_3002_31308)"/>
<path fill-rule="evenodd" clip-rule="evenodd" d="M71 65.363C71 64.9447 70.9563 64.5275 70.8695 64.1183L70.7659 63.6299C70.5318 62.526 69.8565 60.2247 69.3883 61.3286C68.8615 62.4325 68.3933 67.2807 67.9251 65.0729C67.4569 62.8651 66.9887 53.6013 66.5205 53.6013C65.9938 53.6013 65.5256 62.8651 65.0574 65.0729C64.5892 67.2807 64.121 62.4325 63.6528 54.7052C63.1261 46.9778 62.6579 35.9388 62.1897 30.4193C61.7215 24.8997 61.2533 24.8997 60.7851 26.0036C60.2584 27.1075 59.7902 29.3154 59.322 32.6271C58.8538 35.9388 58.3856 40.3544 57.9174 44.77C57.3906 49.1856 56.9224 53.6013 56.4542 53.6013C55.986 53.6013 55.5178 49.1856 55.0496 43.6661C54.5229 38.1466 54.0547 31.5232 53.5865 24.8997C53.1183 18.2763 52.6501 11.6529 52.1819 12.7568C51.6552 13.8607 51.187 22.6919 50.7188 23.7958C50.2506 24.8997 49.7824 18.2763 49.3142 21.588C48.7875 24.8997 48.3193 38.1466 47.8511 45.8739C47.3829 53.6013 46.9147 55.8091 46.4465 56.913C45.9783 58.0169 45.4516 58.0169 44.9834 54.7052C44.5152 51.3934 44.047 44.77 43.5788 45.8739C43.1106 46.9778 42.5838 55.8091 42.1156 56.913C41.6474 58.0169 41.1792 51.3934 40.711 49.1856C40.2428 46.9778 39.7161 49.1856 39.2479 46.9778C38.7797 44.77 38.3115 51.1466 37.8433 45.6271C37.3751 40.1075 36.8484 35.6919 36.3802 33.4841C35.912 31.2763 35.4438 31.2763 34.9756 37.8997C34.5074 44.5232 33.9807 44.77 33.5125 48.0817C33.0443 51.3934 32.5761 44.77 32.1079 42.5622C31.6397 40.3544 31.1129 42.5622 30.6447 46.9778C30.1765 51.3935 29.7083 58.0169 29.2401 58.0169C28.7719 58.0169 28.2452 51.3934 27.777 43.6661C27.3088 35.9388 26.8406 27.1075 26.3724 27.1075C25.9042 27.1075 25.3775 35.9388 24.9093 35.9388C24.4411 35.9388 23.9729 27.1075 23.5047 30.4193C23.0365 33.731 22.5683 49.1856 22.0416 48.0817C21.5734 46.9778 21.1052 29.3154 20.637 21.588C20.1688 13.8607 19.7006 16.0685 19.1738 20.4841C18.7056 24.8997 18.2374 31.5232 17.7692 38.1466C17.301 44.77 16.8328 51.3934 16.3061 51.3934C15.8379 51.3934 15.3697 44.77 14.9015 44.77C14.4333 44.77 13.9651 51.3934 13.4384 49.1856C12.9702 46.9778 12.502 35.9388 12.0338 37.0427C11.5656 38.1466 11.0974 51.3934 10.5707 50.2895C10.1025 49.1856 9.63428 33.731 9.16608 26.0036C8.69788 18.2763 8.22968 18.2763 7.70295 17.1724C7.23475 16.0685 6.76656 13.8607 6.29836 18.2763C5.83016 22.6919 6.36196 33.731 5.83524 39.2505C5.36704 44.77 5.89883 44.77 5.43063 46.9778C4.96243 49.1856 4.49424 53.6013 3.96751 48.0817C3.49931 42.5622 1.1515 26.9321 0.917404 19.2048L0.917328 11.4793L1.14831 54.1521V62.5659C1.14831 66.3591 0.837319 67.2933 1.116 67.981C1.23929 68.2853 1.44786 68.5467 1.60527 68.8348C1.79415 69.1804 2.04625 69.576 2.46635 69.8879C2.95399 70.2501 3.52688 70.5273 4.12385 70.6394C4.21375 70.6563 4.30974 70.6708 4.41596 70.6859C4.71296 70.7281 5.0128 70.7494 5.31277 70.7494C5.64005 70.7494 5.93538 70.7494 6.2616 70.7494C6.7298 70.7494 7.19799 70.7494 7.66619 70.7494C8.19292 70.7494 8.66112 70.7494 9.12932 70.7494C9.59752 70.7494 10.0657 70.7494 10.5339 70.7494C11.0606 70.7494 11.5288 70.7494 11.997 70.7494C12.4652 70.7494 12.9334 70.7494 13.4016 70.7494C13.9284 70.7494 14.3966 70.7494 14.8648 70.7494C15.333 70.7494 15.8012 70.7494 16.2694 70.7494C16.7961 70.7494 17.2643 70.7494 17.7325 70.7494C18.2007 70.7494 18.6689 70.7494 19.1371 70.7494C19.6638 70.7494 20.132 70.7494 20.6002 70.7494C21.0684 70.7494 21.5366 70.7494 22.0048 70.7494C22.5315 70.7494 22.9997 70.7494 23.4679 70.7494C23.9361 70.7494 24.4043 70.7494 24.8725 70.7494C25.3407 70.7494 25.8674 70.7494 26.3356 70.7494C26.8038 70.7494 27.2721 70.7494 27.7402 70.7494C28.2084 70.7494 28.7352 70.7494 29.2034 70.7494C29.6716 70.7494 30.1398 70.7494 30.608 70.7494C31.0762 70.7494 31.6029 70.7494 32.0711 70.7494C32.5393 70.7494 33.0075 70.7494 33.4757 70.7494C33.9439 70.7494 34.4706 70.7494 34.9388 70.7494C35.407 70.7494 35.8752 70.7494 36.3434 70.7494C36.8116 70.7494 37.3383 70.7494 37.8065 70.7494C38.2747 70.7494 38.7429 70.7494 39.2111 70.7494C39.6793 70.7494 40.2061 70.7494 40.6743 70.7494C41.1425 70.7494 41.6107 70.7494 42.0789 70.7494C42.5471 70.7494 43.0738 70.7494 43.542 70.7494C44.0102 70.7494 44.4784 70.7494 44.9466 70.7494C45.4148 70.7494 45.9415 70.7494 46.4097 70.7494C46.8779 70.7494 47.3461 70.7494 47.8143 70.7494C48.2825 70.7494 48.7507 70.7494 49.2774 70.7494C49.7456 70.7494 50.2138 70.7494 50.682 70.7494C51.1502 70.7494 51.6184 70.7494 52.1452 70.7494C52.6134 70.7494 53.0816 70.7494 53.5498 70.7494C54.018 70.7494 54.4862 70.7494 55.0129 70.7494C55.4811 70.7494 55.9493 70.7494 56.4175 70.7494C56.8857 70.7494 57.3539 70.7494 57.8806 70.7494C58.3488 70.7494 58.817 70.7494 59.2852 70.7494C59.7534 70.7494 60.2216 70.7494 60.7483 70.7494C61.2165 70.7494 61.6847 70.7494 62.1529 70.7494C62.6211 70.7494 63.0893 70.7494 63.616 70.7494C64.0842 70.7494 64.5524 70.7494 65.0206 70.7494C65.4888 70.7494 65.957 70.7494 66.4838 70.7494C66.7956 70.7494 67.1038 70.7314 67.4238 70.6956C67.7526 70.6589 68.0722 70.5676 68.3937 70.4894C68.8098 70.3882 68.8705 70.4186 69.5741 69.8749C70.3912 69.2434 70.3321 68.7671 70.468 68.5207C70.8841 67.8304 70.9417 67.2846 71 66.3573V65.363Z" fill="#8ED4DA" stroke="black" stroke-width="0.5"/>
<path d="M14.6663 51.6711L15.5141 52.8036C16.0502 53.5196 17.1252 53.5159 17.6564 52.7962L18.4867 51.6711" stroke="#010101" stroke-width="0.266932" stroke-linecap="round" stroke-linejoin="round"/>
<path d="M43.1328 58.2068L44.7334 59.8172C45.258 60.3449 46.1127 60.3418 46.6334 59.8104L48.2045 58.2068" stroke="#010101" stroke-width="0.400398" stroke-linecap="round" stroke-linejoin="round"/>
</g>
<rect x="0.75" y="0.25" width="70.5" height="70.5" rx="4.25" stroke="black" stroke-width="0.5"/>
<defs>
<clipPath id="clip0_3002_31308">
<rect width="70" height="60" fill="white" transform="translate(1 11)"/>
</clipPath>
</defs>
</svg>