<svg xmlns="http://www.w3.org/2000/svg" fill="none" viewBox="0 0.5 70 70"><g clip-path="url(#a)"><rect x=".289" y=".789" width="69.421" height="10.803" rx="2.025" fill="#E8E9F4" stroke="#000" stroke-width=".579"/><rect x=".289" y="15.171" width="38.405" height="38.163" rx="4.339" fill="#fff" stroke="#000" stroke-width=".579"/><path fill-rule="evenodd" clip-rule="evenodd" d="M3.114 49.14a.181.181 0 1 0-.24.273l2.867 2.522a.181.181 0 1 0 .24-.272L3.114 49.14Zm-.01 1.76a.181.181 0 0 0-.22.287l.989.756a.181.181 0 1 0 .22-.289l-.989-.755Z" fill="#010101"/><g clip-path="url(#b)" stroke="#000"><rect x="43.034" y="15.46" width="26.16" height="8.592" rx="1.736" fill="#fff" stroke-width="1.157"/><rect opacity=".5" x="42.745" y="29.39" width="26.738" height="9.17" rx="2.025" fill="#D7D9EA" stroke-width=".579"/><rect opacity=".2" x="42.745" y="43.609" width="26.738" height="9.17" rx="2.025" fill="#D7D9EA" stroke-width=".579"/></g><circle opacity=".35" cx="17.437" cy="37.108" r="14.356" fill="#8ED4DA"/><circle opacity=".35" cx="17.437" cy="37.108" r="7.906" fill="#8ED4DA"/><circle opacity=".35" cx="17.437" cy="37.108" r="5.039" fill="#8ED4DA"/><path d="M12.503 49.504v-1.022c0-1.338.756-2.56 1.952-3.159l.197-.098a1.706 1.706 0 0 0 .94-1.52v-6.582a1.16 1.16 0 0 1 1.555-1.09l.162.058c.42.153.734.505.84.939l.281 1.165a3.567 3.567 0 0 0 2.088 2.45l.143.06 1.573.7 1.057.401c.414.157.779.422 1.055.768l.442.552c.19.238.479.377.783.377.468 0 .874.323.979.779l.382 1.67c.053.23.08.467.08.704v4.196c0 .46-.046.919-.138 1.37l-.162.792a4.656 4.656 0 0 1-4.186 3.712l-1.244.101a8.799 8.799 0 0 1-3.273-.352l-.605-.184a6.913 6.913 0 0 1-4.9-6.615v-.172Z" fill="#fff"/><path d="M25.955 42.56h-.907c0-.302-.302-.907-.605-1.21-.302-.302-.907-.604-1.663-.604-.302 0-.605 0-.907.151-.151-.302-.303-.454-.454-.756-.302-.302-.756-.605-1.663-.605-.302 0-.605 0-.756.151v-2.57C19 36.21 18.395 35 16.883 35c-.605 0-1.21.302-1.663.605-.756.907-.756 2.117-.756 2.117v6.502c-.907.15-1.664.453-2.117.907-.907 1.058-.907 2.42-.907 4.233v1.059c0 2.117 1.058 3.175 2.117 4.234l.453.605c1.966 1.814 3.63 2.419 7.712 2.419 4.385 0 6.35-2.42 6.35-7.712v-3.78c0-1.058-.302-3.175-2.117-3.629Zm.605 3.63v3.93c0 5.142-1.965 6.2-4.838 6.2-3.63 0-4.99-.454-6.502-1.966l-.605-.605c-1.058-1.21-1.663-1.814-1.663-3.326v-1.059c0-1.511 0-2.57.453-3.175.152-.151.605-.302 1.059-.302v.756l-.454 2.268c0 .151 0 .151.151.302.152.151.303 0 .303 0l1.512-1.814V37.722c0-.151 0-.756.302-1.059.152 0 .303-.15.605-.15.454 0 .605.453.605.604V43.619c0 .453.302.907.756.907s.756-.454.756-.756v-1.966c0-.151.151-.756.756-.756.454 0 .756.151.756.605v1.966c0 .453.302.907.756.907s.756-.454.756-.756V42.71c0-.15.151-.453.756-.453.302 0 .454.151.454.151.302.151.302.605.302.605v1.21c0 .453.302.756.605.756.454 0 .756-.152.756-.605 0-.151.151-.303.302-.454h.303c.907.303 1.058 1.815 1.058 2.268 0-.151 0-.151 0 0Z" fill="#000"/><rect x=".289" y="59.407" width="69.421" height="10.803" rx="2.025" fill="#fff" stroke="#000" stroke-width=".579"/><path stroke="#000" stroke-width=".463" stroke-linecap="round" d="M46.457 67.73H23.543"/><path stroke="#000" stroke-width=".231" stroke-linecap="round" d="M40.787 66.526H29.213"/></g><defs><clipPath id="a"><path fill="#fff" transform="translate(0 .5)" d="M0 0h70v70H0z"/></clipPath><clipPath id="b"><rect x="42.455" y="14.882" width="27.317" height="38.187" rx="2.314" fill="#fff"/></clipPath></defs></svg>