<svg xmlns="http://www.w3.org/2000/svg" fill="none" viewBox="0 0.5 70 70">
<path fill-rule="evenodd" clip-rule="evenodd" d="M1.04045 18.5957C1.09274 18.5268 1.19103 18.5132 1.25999 18.5655L2.12056 19.2181C2.18952 19.2704 2.20303 19.3686 2.15074 19.4376C2.09845 19.5066 2.00016 19.5201 1.9312 19.4678L1.07064 18.8153C1.00168 18.763 0.988162 18.6647 1.04045 18.5957Z" fill="#010101"/>
<rect x="2.96313" y="3.5" width="17.5737" height="3" rx="1.5" fill="#8ED4DA" stroke="black" stroke-width="0.5"/>
<rect x="2.96313" y="9" width="27.5737" height="3" rx="1.5" fill="#8ED4DA" stroke="black" stroke-width="0.5"/>
<rect x="2.96313" y="14.5" width="17.5737" height="3" rx="1.5" fill="#8ED4DA" stroke="black" stroke-width="0.5"/>
<rect x="0.25" y="0.75" width="33.25" height="19.5" rx="1.75" stroke="black" stroke-width="0.5"/>
<path d="M53.5001 18.6018C52.6957 18.6018 52.0435 17.9492 52.0435 17.1441C52.0435 16.3391 52.6957 15.6865 53.5001 15.6865C54.3045 15.6865 54.9567 16.3391 54.9567 17.1441C54.9567 17.9492 54.3046 18.6018 53.5001 18.6018Z" fill="#CC0000"/>
<path fill-rule="evenodd" clip-rule="evenodd" d="M67.0136 20.4419H67.5349C67.5349 20.3585 67.5341 20.2752 67.5327 20.1919C67.5314 20.116 67.5295 20.0401 67.527 19.9643C67.5268 19.9568 67.5265 19.9494 67.5263 19.9419H67.0136V20.4419ZM67.1536 17.1278L66.6667 17.2414C66.5969 16.942 66.5173 16.6449 66.4279 16.3505L66.9064 16.2053C66.9989 16.5102 67.0813 16.8179 67.1536 17.1278ZM66.5994 15.301L66.1315 15.4771C66.0774 15.3333 66.0209 15.1903 65.962 15.0482C65.9031 14.906 65.8419 14.7649 65.7785 14.625L66.234 14.4186C66.2996 14.5635 66.3629 14.7096 66.4239 14.8568C66.4849 15.004 66.5434 15.1521 66.5994 15.301ZM65.8116 13.5621L65.3706 13.7978C65.2256 13.5264 65.0717 13.26 64.9094 12.999L65.334 12.735C65.5021 13.0053 65.6614 13.2811 65.8116 13.5621ZM64.8035 11.9409L64.397 12.2322C64.218 11.9823 64.0308 11.7383 63.8356 11.5004L64.2221 11.1832C64.4242 11.4295 64.6181 11.6822 64.8035 11.9409ZM63.5924 10.4652L63.2274 10.807C63.1224 10.6949 63.0155 10.5844 62.9067 10.4756C62.7979 10.3668 62.6874 10.2598 62.5753 10.1548L62.917 9.78989C63.0332 9.89864 63.1476 10.0094 63.2602 10.122C63.3729 10.2347 63.4836 10.3491 63.5924 10.4652ZM62.199 9.1602L61.8818 9.5467C61.644 9.35151 61.3999 9.16426 61.1501 8.98523L61.4413 8.57881C61.7 8.76419 61.9527 8.95808 62.199 9.1602ZM60.6473 8.04822L60.3832 8.47283C60.1222 8.31052 59.8558 8.15671 59.5845 8.01167L59.8202 7.57071C60.1012 7.72089 60.377 7.88016 60.6473 8.04822ZM58.9636 7.14831L58.7573 7.60374C58.6173 7.54033 58.4763 7.47917 58.3341 7.42029C58.192 7.36141 58.049 7.3049 57.9052 7.25078L58.0813 6.78283C58.2302 6.83887 58.3783 6.89738 58.5255 6.95835C58.6727 7.01932 58.8187 7.08265 58.9636 7.14831ZM57.1769 6.47584L57.0318 6.95431C56.7374 6.865 56.4402 6.78539 56.1409 6.7156L56.2544 6.22866C56.5644 6.30093 56.8721 6.38336 57.1769 6.47584ZM55.3178 6.04235L55.2363 6.53567C54.9331 6.4856 54.6281 6.44544 54.3219 6.41528L54.3709 5.91769C54.688 5.94892 55.0038 5.9905 55.3178 6.04235ZM53.4179 5.85523C53.2589 5.85002 53.0997 5.84741 52.9404 5.84741C52.7811 5.84741 52.6219 5.85002 52.4629 5.85523L52.4792 6.35496C52.6328 6.34993 52.7865 6.34741 52.9404 6.34741C53.0943 6.34741 53.248 6.34993 53.4016 6.35496L53.4179 5.85523ZM51.5099 5.91769L51.5589 6.41528C51.2527 6.44544 50.9477 6.4856 50.6445 6.53567L50.563 6.04235C50.877 5.9905 51.1928 5.94892 51.5099 5.91769ZM49.6263 6.22866L49.7399 6.7156C49.4406 6.7854 49.1434 6.865 48.849 6.95431L48.7039 6.47584C49.0087 6.38336 49.3164 6.30093 49.6263 6.22866ZM47.7995 6.78283L47.9756 7.25078C47.8318 7.3049 47.6888 7.36141 47.5467 7.42029C47.4045 7.47917 47.2635 7.54033 47.1235 7.60374L46.9172 7.14831C47.0621 7.08265 47.2081 7.01932 47.3553 6.95835C47.5025 6.89738 47.6506 6.83887 47.7995 6.78283ZM46.0606 7.57071L46.2963 8.01167C46.025 8.15671 45.7586 8.31052 45.4976 8.47283L45.2335 8.04822C45.5038 7.88016 45.7796 7.72089 46.0606 7.57071ZM44.4395 8.57881L44.7307 8.98523C44.4809 9.16426 44.2368 9.35151 43.999 9.54671L43.6818 9.1602C43.9281 8.95808 44.1808 8.76419 44.4395 8.57881ZM42.9638 9.78989L43.3055 10.1548C43.1934 10.2599 43.0829 10.3668 42.9741 10.4756C42.8653 10.5844 42.7584 10.6949 42.6534 10.807L42.2884 10.4652C42.3972 10.3491 42.5079 10.2347 42.6206 10.122C42.7332 10.0094 42.8476 9.89864 42.9638 9.78989ZM41.6587 11.1832L42.0452 11.5004C41.85 11.7383 41.6628 11.9823 41.4838 12.2322L41.0773 11.9409C41.2627 11.6822 41.4566 11.4295 41.6587 11.1832ZM40.5468 12.735L40.9714 12.999C40.8091 13.26 40.6552 13.5264 40.5102 13.7978L40.0692 13.5621C40.2194 13.2811 40.3787 13.0053 40.5468 12.735ZM39.6468 14.4186L40.1023 14.625C40.0389 14.7649 39.9777 14.906 39.9188 15.0482C39.8599 15.1903 39.8034 15.3333 39.7493 15.4771L39.2814 15.301C39.3374 15.1521 39.3959 15.004 39.4569 14.8568C39.5179 14.7096 39.5812 14.5635 39.6468 14.4186ZM38.9744 16.2053L39.4528 16.3505C39.3635 16.6449 39.2839 16.942 39.2141 17.2414L38.7272 17.1278C38.7995 16.8179 38.8819 16.5102 38.9744 16.2053ZM38.5409 18.0645L39.0342 18.1459C38.9841 18.4492 38.944 18.7542 38.9138 19.0604L38.4162 19.0114C38.4475 18.6943 38.489 18.3785 38.5409 18.0645ZM65.9712 20.4419V19.9419H64.9287V20.4419H65.9712ZM63.8862 20.4419V19.9419H62.8438V20.4419H63.8862ZM61.8013 20.4419V19.9419H60.7589V20.4419H61.8013ZM59.7164 20.4419V19.9419H58.6739V20.4419H59.7164ZM57.6315 20.4419V19.9419H56.589V20.4419H57.6315ZM55.5466 20.4419V19.9419H54.5041V20.4419H55.5466ZM53.4616 20.4419V19.9419H52.4192V20.4419H53.4616ZM51.3767 20.4419V19.9419H50.3342V20.4419H51.3767ZM49.2918 20.4419V19.9419H48.2493V20.4419H49.2918ZM47.2069 20.4419V19.9419H46.1644V20.4419H47.2069ZM45.1219 20.4419V19.9419H44.0795V20.4419H45.1219ZM43.037 20.4419V19.9419H41.9946L41.9946 20.4419H43.037ZM40.9521 20.4419V19.9419H39.9096L39.9096 20.4419H40.9521ZM38.8672 20.4419H38.3459C38.3459 20.3585 38.3467 20.2752 38.3481 20.1919C38.3494 20.116 38.3513 20.0401 38.3538 19.9643C38.354 19.9568 38.3543 19.9494 38.3545 19.9419H38.8672L38.8672 20.4419ZM67.3399 18.0645L66.8466 18.1459C66.8967 18.4492 66.9368 18.7542 66.967 19.0604L67.4646 19.0114C67.4333 18.6943 67.3918 18.3785 67.3399 18.0645Z" fill="black"/>
<path d="M63.8829 15.9093C64.4462 17.2693 64.7508 18.7216 64.7818 20.1919H52.9404L41.099 20.1919C41.13 18.7216 41.4346 17.2693 41.9979 15.9093C42.5931 14.4723 43.4655 13.1667 44.5654 12.0668C45.6652 10.967 46.9709 10.0946 48.4079 9.49936C49.8449 8.90413 51.385 8.59778 52.9404 8.59778C54.4958 8.59778 56.0359 8.90413 57.4729 9.49936C58.9099 10.0946 60.2156 10.967 61.3154 12.0668C62.4153 13.1667 63.2877 14.4723 63.8829 15.9093Z" fill="#F0D3D3" stroke="black" stroke-width="0.5"/>
<path d="M41.099 20.1919C41.1368 18.3987 41.5815 16.6363 42.4008 15.0383C43.2581 13.366 44.501 11.9218 46.0269 10.8249C47.5527 9.72803 49.3176 9.00993 51.1758 8.72996C52.9516 8.46242 54.7638 8.60232 56.4756 9.13769L52.7607 20.1919L41.099 20.1919Z" fill="#8ED4DA" stroke="black" stroke-width="0.5"/>
<path d="M59.2694 3.55419L54.1595 17.6557C54.0827 17.8678 53.8905 18.0047 53.6794 18.0211C53.6028 18.0271 53.5238 18.0172 53.4469 17.9892C53.1581 17.8844 53.0088 17.5651 53.1136 17.2761L58.2234 3.17459C58.3282 2.88558 58.6472 2.7363 58.936 2.84109C59.2249 2.94587 59.3741 3.26518 59.2694 3.55419Z" fill="#CC0000"/>
<path d="M57.1028 18.7177C57.2973 19.1872 57.4107 19.6857 57.4388 20.1919H52.9404L48.442 20.1919C48.4701 19.6857 48.5835 19.1872 48.778 18.7177C49.0044 18.1711 49.3363 17.6745 49.7546 17.2561C50.173 16.8377 50.6697 16.5059 51.2163 16.2795C51.7629 16.0531 52.3487 15.9365 52.9404 15.9365C53.532 15.9365 54.1179 16.0531 54.6645 16.2795C55.2111 16.5059 55.7078 16.8377 56.1262 17.2561C56.5445 17.6745 56.8764 18.1711 57.1028 18.7177Z" fill="#CC0000" stroke="black" stroke-width="0.5"/>
<rect x="36.5" y="0.75" width="33.25" height="19.5" rx="1.75" stroke="black" stroke-width="0.5"/>
<path fill-rule="evenodd" clip-rule="evenodd" d="M1.27615 45.0455C1.21077 44.9888 1.1118 44.9959 1.0551 45.0612C0.998408 45.1266 1.00545 45.2256 1.07083 45.2823L3.58391 47.4615C3.64929 47.5182 3.74826 47.5111 3.80496 47.4458C3.86165 47.3804 3.85461 47.2814 3.78923 47.2247L1.27615 45.0455ZM1.26775 46.5651C1.19862 46.513 1.10037 46.5269 1.04831 46.596C0.996256 46.6651 1.0101 46.7634 1.07923 46.8155L1.94581 47.468C2.01494 47.52 2.11319 47.5062 2.16524 47.4371C2.2173 47.3679 2.20346 47.2697 2.13432 47.2176L1.26775 46.5651Z" fill="#010101"/>
<path fill-rule="evenodd" clip-rule="evenodd" d="M6.3501 23.0585L6.3501 47.9067H5.8501V23.0585H6.3501ZM15.8501 23.0585L15.8501 47.9067H15.3501L15.3501 23.0585H15.8501ZM25.3501 47.9067L25.3501 23.0585H24.8501L24.8501 47.9067H25.3501ZM34.8501 23.0585L34.8501 47.9067H34.3501L34.3501 23.0585H34.8501ZM44.3501 47.9067V23.0585H43.8501V47.9067H44.3501ZM53.8501 23.0585V47.9067H53.3501V23.0585H53.8501ZM63.3501 47.9067V23.0585H62.8501V47.9067H63.3501Z" fill="#DADADA"/>
<path d="M0.499268 34.5383L1.92292 42.0322L12.2277 46.7221L22.5325 32.5035L26.8374 27.037L43.1422 37.3919L53.447 42.4788L63.7518 25.6548L69.4983 37.3919V46.6898V46.6898C69.4983 47.5258 68.8207 48.2035 67.9847 48.2035H63.7518H53.447H43.1422H32.8374H22.5325H12.2277H1.92292V48.2035C1.13666 48.2035 0.499268 47.5661 0.499268 46.7799V34.5383Z" fill="#9299D3"/>
<path d="M0.618164 37.0927L1.92297 33.0017L13.5202 38.8212L22.5326 42.5353L32.8374 33.4613L43.1422 43.6526L49.4258 39.3552L58.7518 32.5151L69.3615 40.5348V46.8878V46.8878C69.3615 47.6143 68.7724 48.2033 68.0459 48.2033H63.7518H53.447H43.1422H32.8374H22.5326H12.2278H1.92297H1.61816C1.06588 48.2033 0.618164 47.7556 0.618164 47.2033V37.0927Z" fill="#8ED4DA" fill-opacity="0.7"/>
<rect x="0.25" y="22.75" width="69.5" height="25.5" rx="1.75" stroke="black" stroke-width="0.5"/>
<g clip-path="url(#clip0_3001_32567)">
<path d="M1.63477 61.1841H4.96094L5.81597 58.6187L7.62144 63.6549L9.4269 56.9082L10.1871 61.1841H16.2732L17.2234 58.6187L17.7935 61.1841H20.4542" stroke="#9299D3" stroke-width="0.8" stroke-linecap="round" stroke-linejoin="round"/>
</g>
<rect x="0.25" y="50.75" width="21.1667" height="19.5" rx="1.75" stroke="black" stroke-width="0.5"/>
<path fill-rule="evenodd" clip-rule="evenodd" d="M25.7604 67.0462C25.6954 66.9891 25.5964 66.9954 25.5392 67.0604C25.4821 67.1254 25.4884 67.2244 25.5534 67.2816L28.0306 69.4608C28.0955 69.5179 28.1946 69.5116 28.2517 69.4466C28.3089 69.3816 28.3025 69.2826 28.2376 69.2255L25.7604 67.0462ZM25.752 68.5658C25.6832 68.5132 25.5849 68.5264 25.5324 68.5951C25.4798 68.6639 25.493 68.7623 25.5618 68.8148L26.416 69.4673C26.4847 69.5199 26.5831 69.5067 26.6356 69.4379C26.6881 69.3692 26.675 69.2708 26.6062 69.2183L25.752 68.5658Z" fill="#010101"/>
<path d="M33.8988 53.4094L33.8727 53.2617L33.725 53.2878C32.5675 53.4925 31.4763 53.9727 30.5435 54.6879C29.6107 55.4031 28.8638 56.3323 28.3658 57.397C27.8678 58.4617 27.6334 59.6306 27.6823 60.805C27.7313 61.9794 28.0622 63.1248 28.6471 64.1444C29.232 65.1639 30.0537 66.0277 31.0428 66.6628C32.0319 67.2979 33.1593 67.6856 34.3297 67.7931C35.5002 67.9007 36.6794 67.7249 37.7677 67.2808C38.8559 66.8366 39.8213 66.137 40.5822 65.2411L40.6793 65.1267L40.5649 65.0296L37.7978 62.6795L37.6835 62.5824L37.5864 62.6967C37.2339 63.1118 36.7866 63.436 36.2823 63.6418C35.7781 63.8476 35.2317 63.929 34.6894 63.8792C34.1471 63.8293 33.6247 63.6497 33.1664 63.3555C32.7081 63.0612 32.3274 62.661 32.0564 62.1885C31.7854 61.7161 31.6321 61.1854 31.6094 60.6413C31.5867 60.0972 31.6953 59.5555 31.926 59.0622C32.1568 58.5689 32.5029 58.1383 32.9351 57.807C33.3673 57.4756 33.8729 57.2531 34.4092 57.1583L34.5569 57.1322L34.5308 56.9844L33.8988 53.4094Z" fill="#8ED4DA" stroke="black" stroke-width="0.3"/>
<path d="M40.524 65.0792L40.6415 65.1725L40.7348 65.0551C41.6357 63.9208 42.1801 62.5449 42.2991 61.1012C42.418 59.6576 42.1062 58.2111 41.4031 56.9447C40.7 55.6782 39.6371 54.6487 38.3489 53.9864C37.0607 53.324 35.605 53.0585 34.1658 53.2235L34.0168 53.2405L34.0339 53.3896L34.4457 56.9825L34.4628 57.1315L34.6118 57.1144C35.2814 57.0377 35.9587 57.1612 36.558 57.4694C37.1574 57.7775 37.6519 58.2565 37.979 58.8457C38.3062 59.4349 38.4512 60.1079 38.3959 60.7796C38.3405 61.4513 38.0872 62.0914 37.6681 62.6191L37.5748 62.7366L37.6922 62.8299L40.524 65.0792Z" fill="#9299D3" stroke="black" stroke-width="0.3"/>
<rect x="24.4167" y="50.75" width="21.1667" height="19.5" rx="1.75" stroke="black" stroke-width="0.5"/>
<path fill-rule="evenodd" clip-rule="evenodd" d="M49.2089 68.5954C49.2615 68.5266 49.3598 68.5135 49.4286 68.566L50.2828 69.2185C50.3516 69.2711 50.3647 69.3694 50.3122 69.4382C50.2596 69.5069 50.1613 69.5201 50.0925 69.4676L49.2383 68.815C49.1696 68.7625 49.1564 68.6642 49.2089 68.5954Z" fill="#010101"/>
<rect x="52.595" y="57.9683" width="2.71436" height="9.49268" rx="1.25" fill="#F0D3D3" stroke="black" stroke-width="0.5"/>
<rect x="57.8094" y="53.5391" width="2.71436" height="13.9219" rx="1.25" fill="#8ED4DA" stroke="black" stroke-width="0.5"/>
<rect x="63.0237" y="55.4243" width="2.71436" height="12.0366" rx="1.25" fill="#9299D3" stroke="black" stroke-width="0.5"/>
<path d="M58.452 66.0739L58.4963 66.1411C58.8218 66.635 59.5522 66.617 59.853 66.1077L59.8731 66.0739" stroke="#010101" stroke-width="0.313395" stroke-linecap="round" stroke-linejoin="round"/>
<rect x="48.5833" y="50.75" width="21.1667" height="19.5" rx="1.75" stroke="black" stroke-width="0.5"/>
<path fill-rule="evenodd" clip-rule="evenodd" d="M1.25882 65.4446C1.19318 65.3882 1.09425 65.3957 1.03785 65.4613C0.981455 65.527 0.988947 65.6259 1.05459 65.6823L5.45371 69.462C5.51935 69.5184 5.61828 69.5109 5.67468 69.4453C5.73108 69.3797 5.72358 69.2807 5.65794 69.2243L1.25882 65.4446ZM1.03905 67.0605C1.09622 66.9955 1.19523 66.9891 1.26021 67.0463L3.73738 69.2255C3.80236 69.2827 3.8087 69.3817 3.75153 69.4467C3.69437 69.5116 3.59536 69.518 3.53038 69.4608L1.05321 67.2816C0.988229 67.2244 0.981893 67.1254 1.03905 67.0605ZM1.03218 68.5952C1.08472 68.5264 1.18306 68.5133 1.25183 68.5658L2.10602 69.2183C2.17479 69.2709 2.18796 69.3692 2.13542 69.438C2.08289 69.5067 1.98455 69.5199 1.91578 69.4674L1.06158 68.8148C0.992811 68.7623 0.979649 68.664 1.03218 68.5952Z" fill="#010101"/>
<defs>
<clipPath id="clip0_3001_32567">
<rect width="20" height="20" fill="white" transform="translate(0.75 50.4893)"/>
</clipPath>
</defs>
</svg>