<svg xmlns="http://www.w3.org/2000/svg" fill="none" viewBox="0.5 0 71.12 71">
<rect x="0.75" y="0.25" width="70.5" height="70.5" rx="4.25" fill="white"/>
<path fill-rule="evenodd" clip-rule="evenodd" d="M11.25 59.2832V58.7803H10.75L10.75 59.2832H11.25ZM11.25 57.7745L11.25 56.7687H10.75L10.75 57.7745H11.25ZM11.25 55.7628L11.25 54.757H10.75L10.75 55.7628H11.25ZM11.25 53.7512V52.7454H10.75L10.75 53.7512H11.25ZM11.25 51.7396L11.25 50.7338H10.75L10.75 51.7396H11.25ZM11.25 49.7279L11.25 48.7221H10.75L10.75 49.7279H11.25ZM11.25 47.7163L11.25 46.7105H10.75L10.75 47.7163H11.25ZM11.25 45.7047L11.25 44.6989H10.75L10.75 45.7047H11.25ZM11.25 43.693L11.25 42.6872H10.75L10.75 43.693H11.25ZM11.25 41.6814L11.25 40.6756H10.75L10.75 41.6814H11.25ZM11.25 39.6698L11.25 38.6639H10.75V39.6698H11.25ZM11.25 37.6581L11.25 36.6523H10.75V37.6581H11.25ZM11.25 35.6465L11.25 34.6407H10.75V35.6465H11.25ZM11.25 33.6349V32.629H10.75V33.6349H11.25ZM11.25 31.6232L11.25 30.6174H10.75V31.6232H11.25ZM11.25 29.6116L11.25 28.6058H10.75V29.6116H11.25ZM11.25 27.6V26.5941H10.75V27.6H11.25ZM11.25 25.5883L11.25 24.5825H10.75V25.5883H11.25ZM11.25 23.5767L11.25 22.5709H10.75V23.5767H11.25ZM11.25 21.5651L11.25 20.5592H10.75V21.5651H11.25ZM11.25 19.5534L11.25 18.5476H10.75V19.5534H11.25ZM11.25 17.5418L11.25 16.536H10.75V17.5418H11.25ZM11.25 15.5301L11.25 14.5243H10.75V15.5301H11.25ZM11.25 13.5185L11.25 12.5127H10.75V13.5185H11.25ZM11.25 11.5069L11.25 10.5011H10.75V11.5069H11.25ZM11.25 9.49524L11.25 8.48943H10.75V9.49524H11.25ZM11.25 7.48361L11.25 6.47779H10.75V7.48361H11.25ZM11.25 5.47197L11.25 4.46616H10.75V5.47197H11.25ZM11.25 3.46034L11.25 2.45452H10.75V3.46034H11.25ZM11.25 1.4487L11.25 0.945801H10.75V1.4487H11.25ZM21.25 59.2832V58.7803H20.75V59.2832H21.25ZM21.25 57.7745V56.7687H20.75V57.7745H21.25ZM21.25 55.7628V54.757H20.75V55.7628H21.25ZM21.25 53.7512V52.7454H20.75V53.7512H21.25ZM21.25 51.7396V50.7338H20.75V51.7396H21.25ZM21.25 49.7279V48.7221H20.75V49.7279H21.25ZM21.25 47.7163V46.7105H20.75V47.7163H21.25ZM21.25 45.7047V44.6989H20.75V45.7047H21.25ZM21.25 43.693V42.6872H20.75V43.693H21.25ZM21.25 41.6814V40.6756H20.75V41.6814H21.25ZM21.25 39.6698V38.6639H20.75V39.6698H21.25ZM21.25 37.6581V36.6523H20.75V37.6581H21.25ZM21.25 35.6465V34.6407H20.75V35.6465H21.25ZM21.25 33.6349V32.629H20.75V33.6349H21.25ZM21.25 31.6232L21.25 30.6174H20.75L20.75 31.6232H21.25ZM21.25 29.6116V28.6058H20.75V29.6116H21.25ZM21.25 27.6V26.5941H20.75V27.6H21.25ZM21.25 25.5883V24.5825H20.75V25.5883H21.25ZM21.25 23.5767V22.5709H20.75V23.5767H21.25ZM21.25 21.5651V20.5592H20.75V21.5651H21.25ZM21.25 19.5534V18.5476H20.75V19.5534H21.25ZM21.25 17.5418V16.536H20.75V17.5418H21.25ZM21.25 15.5301V14.5243H20.75V15.5301H21.25ZM21.25 13.5185V12.5127H20.75V13.5185H21.25ZM21.25 11.5069V10.5011H20.75V11.5069H21.25ZM21.25 9.49524V8.48943H20.75V9.49524H21.25ZM21.25 7.48361V6.47779H20.75V7.48361H21.25ZM21.25 5.47197V4.46616H20.75V5.47197H21.25ZM21.25 3.46034V2.45452H20.75V3.46034H21.25ZM21.25 1.4487V0.945801H20.75V1.4487H21.25ZM31.25 58.7803V59.2832H30.75V58.7803H31.25ZM31.25 56.7687V57.7745H30.75V56.7687H31.25ZM31.25 54.757V55.7628H30.75V54.757H31.25ZM31.25 52.7454V53.7512H30.75V52.7454H31.25ZM31.25 50.7338V51.7396H30.75V50.7338H31.25ZM31.25 48.7221V49.7279H30.75V48.7221H31.25ZM31.25 46.7105V47.7163H30.75V46.7105H31.25ZM31.25 44.6989V45.7047H30.75V44.6989H31.25ZM31.25 42.6872V43.693H30.75V42.6872H31.25ZM31.25 40.6756V41.6814H30.75V40.6756H31.25ZM31.25 38.6639V39.6698H30.75V38.6639H31.25ZM31.25 36.6523V37.6581H30.75V36.6523H31.25ZM31.25 34.6407V35.6465H30.75V34.6407H31.25ZM31.25 32.629V33.6349H30.75V32.629H31.25ZM31.25 30.6174V31.6232H30.75V30.6174H31.25ZM31.25 28.6058V29.6116H30.75V28.6058H31.25ZM31.25 26.5941V27.6H30.75V26.5941H31.25ZM31.25 24.5825V25.5883H30.75V24.5825H31.25ZM31.25 22.5709V23.5767H30.75V22.5709H31.25ZM31.25 20.5592V21.5651H30.75V20.5592H31.25ZM31.25 18.5476V19.5534H30.75V18.5476H31.25ZM31.25 16.536V17.5418H30.75V16.536H31.25ZM31.25 14.5243V15.5301H30.75V14.5243H31.25ZM31.25 12.5127V13.5185H30.75V12.5127H31.25ZM31.25 10.5011V11.5069H30.75V10.5011H31.25ZM31.25 8.48943V9.49524H30.75V8.48943H31.25ZM31.25 6.47779V7.48361H30.75V6.47779H31.25ZM31.25 4.46616V5.47197H30.75V4.46616H31.25ZM31.25 2.45452V3.46034H30.75V2.45452H31.25ZM31.25 0.945801V1.4487H30.75V0.945801H31.25ZM41.25 59.2832V58.7803H40.75V59.2832H41.25ZM41.25 57.7745V56.7687H40.75V57.7745H41.25ZM41.25 55.7628V54.757H40.75V55.7628H41.25ZM41.25 53.7512V52.7454H40.75V53.7512H41.25ZM41.25 51.7396V50.7338H40.75V51.7396H41.25ZM41.25 49.7279V48.7221H40.75V49.7279H41.25ZM41.25 47.7163V46.7105H40.75V47.7163H41.25ZM41.25 45.7047V44.6989H40.75V45.7047H41.25ZM41.25 43.693V42.6872H40.75V43.693H41.25ZM41.25 41.6814V40.6756H40.75V41.6814H41.25ZM41.25 39.6698V38.6639H40.75V39.6698H41.25ZM41.25 37.6581V36.6523H40.75V37.6581H41.25ZM41.25 35.6465V34.6407H40.75V35.6465H41.25ZM41.25 33.6349V32.629H40.75V33.6349H41.25ZM41.25 31.6232V30.6174H40.75V31.6232H41.25ZM41.25 29.6116V28.6058H40.75V29.6116H41.25ZM41.25 27.6V26.5941H40.75V27.6H41.25ZM41.25 25.5883V24.5825H40.75V25.5883H41.25ZM41.25 23.5767V22.5709H40.75V23.5767H41.25ZM41.25 21.5651V20.5592H40.75V21.5651H41.25ZM41.25 19.5534V18.5476H40.75V19.5534H41.25ZM41.25 17.5418V16.536H40.75V17.5418H41.25ZM41.25 15.5301V14.5243H40.75V15.5301H41.25ZM41.25 13.5185V12.5127H40.75V13.5185H41.25ZM41.25 11.5069V10.5011H40.75V11.5069H41.25ZM41.25 9.49524V8.48943H40.75V9.49524H41.25ZM41.25 7.48361V6.47779H40.75V7.48361H41.25ZM41.25 5.47197V4.46616H40.75V5.47197H41.25ZM41.25 3.46034V2.45452H40.75V3.46034H41.25ZM41.25 1.4487V0.945801H40.75V1.4487H41.25ZM51.25 58.7803V59.2832H50.75V58.7803H51.25ZM51.25 56.7687V57.7745H50.75V56.7687H51.25ZM51.25 54.757V55.7628H50.75V54.757H51.25ZM51.25 52.7454V53.7512H50.75V52.7454H51.25ZM51.25 50.7338V51.7396H50.75V50.7338H51.25ZM51.25 48.7221V49.7279H50.75V48.7221H51.25ZM51.25 46.7105V47.7163H50.75V46.7105H51.25ZM51.25 44.6989V45.7047H50.75V44.6989H51.25ZM51.25 42.6872V43.693H50.75V42.6872H51.25ZM51.25 40.6756V41.6814H50.75V40.6756H51.25ZM51.25 38.6639V39.6698H50.75V38.6639H51.25ZM51.25 36.6523V37.6581H50.75V36.6523H51.25ZM51.25 34.6407V35.6465H50.75V34.6407H51.25ZM51.25 32.629V33.6349H50.75V32.629H51.25ZM51.25 30.6174V31.6232H50.75V30.6174H51.25ZM51.25 28.6058V29.6116H50.75V28.6058H51.25ZM51.25 26.5941V27.6H50.75V26.5941H51.25ZM51.25 24.5825V25.5883H50.75V24.5825H51.25ZM51.25 22.5709V23.5767H50.75V22.5709H51.25ZM51.25 20.5592L51.25 21.5651H50.75L50.75 20.5592H51.25ZM51.25 18.5476V19.5534H50.75V18.5476H51.25ZM51.25 16.536V17.5418H50.75V16.536H51.25ZM51.25 14.5243V15.5301H50.75V14.5243H51.25ZM51.25 12.5127V13.5185H50.75V12.5127H51.25ZM51.25 10.5011V11.5069H50.75V10.5011H51.25ZM51.25 8.48943V9.49524H50.75V8.48943H51.25ZM51.25 6.47779V7.48361H50.75V6.47779H51.25ZM51.25 4.46616V5.47197H50.75V4.46616H51.25ZM51.25 2.45452V3.46034H50.75V2.45452H51.25ZM51.25 0.945801V1.4487H50.75V0.945801H51.25ZM61.25 59.2832V58.7803H60.75V59.2832H61.25ZM61.25 57.7745V56.7687H60.75V57.7745H61.25ZM61.25 55.7628V54.757H60.75V55.7628H61.25ZM61.25 53.7512V52.7454H60.75V53.7512H61.25ZM61.25 51.7396V50.7338H60.75V51.7396H61.25ZM61.25 49.7279V48.7221H60.75V49.7279H61.25ZM61.25 47.7163V46.7105H60.75V47.7163H61.25ZM61.25 45.7047V44.6989H60.75V45.7047H61.25ZM61.25 43.693V42.6872H60.75V43.693H61.25ZM61.25 41.6814V40.6756H60.75V41.6814H61.25ZM61.25 39.6698V38.6639H60.75V39.6698H61.25ZM61.25 37.6581V36.6523H60.75V37.6581H61.25ZM61.25 35.6465V34.6407H60.75V35.6465H61.25ZM61.25 33.6349V32.629H60.75V33.6349H61.25ZM61.25 31.6232V30.6174H60.75V31.6232H61.25ZM61.25 29.6116V28.6058H60.75V29.6116H61.25ZM61.25 27.6V26.5941H60.75V27.6H61.25ZM61.25 25.5883V24.5825H60.75V25.5883H61.25ZM61.25 23.5767V22.5709H60.75V23.5767H61.25ZM61.25 21.5651L61.25 20.5592H60.75L60.75 21.5651H61.25ZM61.25 19.5534V18.5476H60.75V19.5534H61.25ZM61.25 17.5418V16.536H60.75V17.5418H61.25ZM61.25 15.5301V14.5243H60.75V15.5301H61.25ZM61.25 13.5185V12.5127H60.75V13.5185H61.25ZM61.25 11.5069V10.5011H60.75V11.5069H61.25ZM61.25 9.49524V8.48943H60.75V9.49524H61.25ZM61.25 7.48361V6.47779H60.75V7.48361H61.25ZM61.25 5.47197V4.46616H60.75V5.47197H61.25ZM61.25 3.46034V2.45452H60.75V3.46034H61.25ZM61.25 1.4487V0.945801H60.75V1.4487H61.25Z" fill="#D7D7D7"/>
<path fill-rule="evenodd" clip-rule="evenodd" d="M70.7464 50.6416L71.25 50.6416L71.25 51.1416L70.7464 51.1416L70.7464 50.6416ZM68.7321 50.6416L69.7393 50.6416L69.7393 51.1416L68.7321 51.1416L68.7321 50.6416ZM66.7179 50.6416L67.725 50.6416L67.725 51.1416L66.7179 51.1416L66.7179 50.6416ZM64.7036 50.6416L65.7107 50.6416L65.7107 51.1416L64.7036 51.1416L64.7036 50.6416ZM62.6893 50.6416L63.6964 50.6416L63.6964 51.1416L62.6893 51.1416L62.6893 50.6416ZM60.675 50.6416L61.6821 50.6416L61.6821 51.1416L60.675 51.1416L60.675 50.6416ZM58.6607 50.6416L59.6679 50.6416L59.6679 51.1416L58.6607 51.1416L58.6607 50.6416ZM56.6464 50.6416L57.6536 50.6416L57.6536 51.1416L56.6464 51.1416L56.6464 50.6416ZM54.6321 50.6416L55.6393 50.6416L55.6393 51.1416L54.6321 51.1416L54.6321 50.6416ZM52.6179 50.6416L53.625 50.6416L53.625 51.1416L52.6179 51.1416L52.6179 50.6416ZM50.6036 50.6416L51.6107 50.6416L51.6107 51.1416L50.6036 51.1416L50.6036 50.6416ZM48.5893 50.6416L49.5964 50.6416L49.5964 51.1416L48.5893 51.1416L48.5893 50.6416ZM46.575 50.6416L47.5821 50.6416L47.5821 51.1416L46.575 51.1416L46.575 50.6416ZM44.5607 50.6416L45.5679 50.6416L45.5679 51.1416L44.5607 51.1416L44.5607 50.6416ZM42.5464 50.6416L43.5536 50.6416L43.5536 51.1416L42.5464 51.1416L42.5464 50.6416ZM40.5321 50.6416L41.5393 50.6416L41.5393 51.1416L40.5321 51.1416L40.5321 50.6416ZM38.5179 50.6416L39.525 50.6416L39.525 51.1416L38.5179 51.1416L38.5179 50.6416ZM36.5036 50.6416L37.5107 50.6416L37.5107 51.1416L36.5036 51.1416L36.5036 50.6416ZM34.4893 50.6416L35.4964 50.6416L35.4964 51.1416L34.4893 51.1416L34.4893 50.6416ZM32.475 50.6416L33.4821 50.6416L33.4821 51.1416L32.475 51.1416L32.475 50.6416ZM30.4607 50.6416L31.4679 50.6416L31.4679 51.1416L30.4607 51.1416L30.4607 50.6416ZM28.4464 50.6416L29.4536 50.6416L29.4536 51.1416L28.4464 51.1416L28.4464 50.6416ZM26.4322 50.6416L27.4393 50.6416L27.4393 51.1416L26.4322 51.1416L26.4322 50.6416ZM24.4179 50.6416L25.425 50.6416L25.425 51.1416L24.4179 51.1416L24.4179 50.6416ZM22.4036 50.6416L23.4107 50.6416L23.4107 51.1416L22.4036 51.1416L22.4036 50.6416ZM20.3893 50.6416L21.3965 50.6416L21.3965 51.1416L20.3893 51.1416L20.3893 50.6416ZM18.375 50.6416L19.3822 50.6416L19.3822 51.1416L18.375 51.1416L18.375 50.6416ZM16.3607 50.6416L17.3679 50.6416L17.3679 51.1416L16.3607 51.1416L16.3607 50.6416ZM14.3465 50.6416L15.3536 50.6416L15.3536 51.1416L14.3465 51.1416L14.3465 50.6416ZM12.3322 50.6416L13.3393 50.6416L13.3393 51.1416L12.3322 51.1416L12.3322 50.6416ZM10.3179 50.6416L11.325 50.6416L11.325 51.1416L10.3179 51.1416L10.3179 50.6416ZM8.30362 50.6416L9.31076 50.6416L9.31076 51.1416L8.30362 51.1416L8.30362 50.6416ZM6.28934 50.6416L7.29648 50.6416L7.29648 51.1416L6.28934 51.1416L6.28934 50.6416ZM4.27505 50.6416L5.2822 50.6416L5.2822 51.1416L4.27505 51.1416L4.27505 50.6416ZM2.26077 50.6416L3.26791 50.6416L3.26791 51.1416L2.26077 51.1416L2.26077 50.6416ZM0.75 50.6416L1.25363 50.6416L1.25363 51.1416L0.75 51.1416L0.75 50.6416ZM70.7464 40.6416L71.25 40.6416L71.25 41.1416L70.7464 41.1416L70.7464 40.6416ZM68.7321 40.6416L69.7393 40.6416L69.7393 41.1416L68.7321 41.1416L68.7321 40.6416ZM66.7179 40.6416L67.725 40.6416L67.725 41.1416L66.7179 41.1416L66.7179 40.6416ZM64.7036 40.6416L65.7107 40.6416L65.7107 41.1416L64.7036 41.1416L64.7036 40.6416ZM62.6893 40.6416L63.6964 40.6416L63.6964 41.1416L62.6893 41.1416L62.6893 40.6416ZM60.675 40.6416L61.6821 40.6416L61.6821 41.1416L60.675 41.1416L60.675 40.6416ZM58.6607 40.6416L59.6679 40.6416L59.6679 41.1416L58.6607 41.1416L58.6607 40.6416ZM56.6464 40.6416L57.6536 40.6416L57.6536 41.1416L56.6464 41.1416L56.6464 40.6416ZM54.6321 40.6416L55.6393 40.6416L55.6393 41.1416L54.6321 41.1416L54.6321 40.6416ZM52.6179 40.6416L53.625 40.6416L53.625 41.1416L52.6179 41.1416L52.6179 40.6416ZM50.6036 40.6416L51.6107 40.6416L51.6107 41.1416L50.6036 41.1416L50.6036 40.6416ZM48.5893 40.6416L49.5964 40.6416L49.5964 41.1416L48.5893 41.1416L48.5893 40.6416ZM46.575 40.6416L47.5821 40.6416L47.5821 41.1416L46.575 41.1416L46.575 40.6416ZM44.5607 40.6416L45.5679 40.6416L45.5679 41.1416L44.5607 41.1416L44.5607 40.6416ZM42.5464 40.6416L43.5536 40.6416L43.5536 41.1416L42.5464 41.1416L42.5464 40.6416ZM40.5321 40.6416L41.5393 40.6416L41.5393 41.1416L40.5321 41.1416L40.5321 40.6416ZM38.5179 40.6416L39.525 40.6416L39.525 41.1416L38.5179 41.1416L38.5179 40.6416ZM36.5036 40.6416L37.5107 40.6416L37.5107 41.1416L36.5036 41.1416L36.5036 40.6416ZM34.4893 40.6416L35.4964 40.6416L35.4964 41.1416L34.4893 41.1416L34.4893 40.6416ZM32.475 40.6416L33.4821 40.6416L33.4821 41.1416L32.475 41.1416L32.475 40.6416ZM30.4607 40.6416L31.4679 40.6416L31.4679 41.1416L30.4607 41.1416L30.4607 40.6416ZM28.4464 40.6416L29.4536 40.6416L29.4536 41.1416L28.4464 41.1416L28.4464 40.6416ZM26.4322 40.6416L27.4393 40.6416L27.4393 41.1416L26.4322 41.1416L26.4322 40.6416ZM24.4179 40.6416L25.425 40.6416L25.425 41.1416L24.4179 41.1416L24.4179 40.6416ZM22.4036 40.6416L23.4107 40.6416L23.4107 41.1416L22.4036 41.1416L22.4036 40.6416ZM20.3893 40.6416L21.3965 40.6416L21.3965 41.1416L20.3893 41.1416L20.3893 40.6416ZM18.375 40.6416L19.3822 40.6416L19.3822 41.1416L18.375 41.1416L18.375 40.6416ZM16.3607 40.6416L17.3679 40.6416L17.3679 41.1416L16.3607 41.1416L16.3607 40.6416ZM14.3465 40.6416L15.3536 40.6416L15.3536 41.1416L14.3465 41.1416L14.3465 40.6416ZM12.3322 40.6416L13.3393 40.6416L13.3393 41.1416L12.3322 41.1416L12.3322 40.6416ZM10.3179 40.6416L11.325 40.6416L11.325 41.1416L10.3179 41.1416L10.3179 40.6416ZM8.30362 40.6416L9.31076 40.6416L9.31076 41.1416L8.30362 41.1416L8.30362 40.6416ZM6.28934 40.6416L7.29648 40.6416L7.29648 41.1416L6.28934 41.1416L6.28934 40.6416ZM4.27505 40.6416L5.2822 40.6416L5.2822 41.1416L4.27505 41.1416L4.27505 40.6416ZM2.26077 40.6416L3.26791 40.6416L3.26791 41.1416L2.26077 41.1416L2.26077 40.6416ZM0.75 40.6416L1.25363 40.6416L1.25363 41.1416L0.75 41.1416L0.75 40.6416ZM71.25 30.6416L70.7464 30.6416L70.7464 31.1416L71.25 31.1416L71.25 30.6416ZM69.7393 30.6416L68.7321 30.6416L68.7321 31.1416L69.7393 31.1416L69.7393 30.6416ZM67.725 30.6416L66.7179 30.6416L66.7179 31.1416L67.725 31.1416L67.725 30.6416ZM65.7107 30.6416L64.7036 30.6416L64.7036 31.1416L65.7107 31.1416L65.7107 30.6416ZM63.6964 30.6416L62.6893 30.6416L62.6893 31.1416L63.6964 31.1416L63.6964 30.6416ZM61.6821 30.6416L60.675 30.6416L60.675 31.1416L61.6821 31.1416L61.6821 30.6416ZM59.6679 30.6416L58.6607 30.6416L58.6607 31.1416L59.6679 31.1416L59.6679 30.6416ZM57.6536 30.6416L56.6464 30.6416L56.6464 31.1416L57.6536 31.1416L57.6536 30.6416ZM55.6393 30.6416L54.6321 30.6416L54.6321 31.1416L55.6393 31.1416L55.6393 30.6416ZM53.625 30.6416L52.6179 30.6416L52.6179 31.1416L53.625 31.1416L53.625 30.6416ZM51.6107 30.6416L50.6036 30.6416L50.6036 31.1416L51.6107 31.1416L51.6107 30.6416ZM49.5964 30.6416L48.5893 30.6416L48.5893 31.1416L49.5964 31.1416L49.5964 30.6416ZM47.5821 30.6416L46.575 30.6416L46.575 31.1416L47.5821 31.1416L47.5821 30.6416ZM45.5679 30.6416L44.5607 30.6416L44.5607 31.1416L45.5679 31.1416L45.5679 30.6416ZM43.5536 30.6416L42.5464 30.6416L42.5464 31.1416L43.5536 31.1416L43.5536 30.6416ZM41.5393 30.6416L40.5321 30.6416L40.5321 31.1416L41.5393 31.1416L41.5393 30.6416ZM39.525 30.6416L38.5179 30.6416L38.5179 31.1416L39.525 31.1416L39.525 30.6416ZM37.5107 30.6416L36.5036 30.6416L36.5036 31.1416L37.5107 31.1416L37.5107 30.6416ZM35.4964 30.6416L34.4893 30.6416L34.4893 31.1416L35.4964 31.1416L35.4964 30.6416ZM33.4821 30.6416L32.475 30.6416L32.475 31.1416L33.4821 31.1416L33.4821 30.6416ZM31.4679 30.6416L30.4607 30.6416L30.4607 31.1416L31.4679 31.1416L31.4679 30.6416ZM29.4536 30.6416L28.4464 30.6416L28.4464 31.1416L29.4536 31.1416L29.4536 30.6416ZM27.4393 30.6416L26.4322 30.6416L26.4322 31.1416L27.4393 31.1416L27.4393 30.6416ZM25.425 30.6416L24.4179 30.6416L24.4179 31.1416L25.425 31.1416L25.425 30.6416ZM23.4107 30.6416L22.4036 30.6416L22.4036 31.1416L23.4107 31.1416L23.4107 30.6416ZM21.3965 30.6416L20.3893 30.6416L20.3893 31.1416L21.3965 31.1416L21.3965 30.6416ZM19.3822 30.6416L18.375 30.6416L18.375 31.1416L19.3822 31.1416L19.3822 30.6416ZM17.3679 30.6416L16.3607 30.6416L16.3607 31.1416L17.3679 31.1416L17.3679 30.6416ZM15.3536 30.6416L14.3465 30.6416L14.3465 31.1416L15.3536 31.1416L15.3536 30.6416ZM13.3393 30.6416L12.3322 30.6416L12.3322 31.1416L13.3393 31.1416L13.3393 30.6416ZM11.325 30.6416L10.3179 30.6416L10.3179 31.1416L11.325 31.1416L11.325 30.6416ZM9.31076 30.6416L8.30362 30.6416L8.30362 31.1416L9.31076 31.1416L9.31076 30.6416ZM7.29648 30.6416L6.28934 30.6416L6.28934 31.1416L7.29648 31.1416L7.29648 30.6416ZM5.2822 30.6416L4.27505 30.6416L4.27505 31.1416L5.2822 31.1416L5.2822 30.6416ZM3.26791 30.6416L2.26077 30.6416L2.26077 31.1416L3.26791 31.1416L3.26791 30.6416ZM1.25363 30.6416L0.749999 30.6416L0.749999 31.1416L1.25363 31.1416L1.25363 30.6416ZM70.7464 20.6416L71.25 20.6416L71.25 21.1416L70.7464 21.1416L70.7464 20.6416ZM68.7321 20.6416L69.7393 20.6416L69.7393 21.1416L68.7321 21.1416L68.7321 20.6416ZM66.7179 20.6416L67.725 20.6416L67.725 21.1416L66.7179 21.1416L66.7179 20.6416ZM64.7036 20.6416L65.7107 20.6416L65.7107 21.1416L64.7036 21.1416L64.7036 20.6416ZM62.6893 20.6416L63.6964 20.6416L63.6964 21.1416L62.6893 21.1416L62.6893 20.6416ZM60.675 20.6416L61.6822 20.6416L61.6822 21.1416L60.675 21.1416L60.675 20.6416ZM58.6607 20.6416L59.6679 20.6416L59.6679 21.1416L58.6607 21.1416L58.6607 20.6416ZM56.6464 20.6416L57.6536 20.6416L57.6536 21.1416L56.6464 21.1416L56.6464 20.6416ZM54.6321 20.6416L55.6393 20.6416L55.6393 21.1416L54.6321 21.1416L54.6321 20.6416ZM52.6179 20.6416L53.625 20.6416L53.625 21.1416L52.6179 21.1416L52.6179 20.6416ZM50.6036 20.6416L51.6107 20.6416L51.6107 21.1416L50.6036 21.1416L50.6036 20.6416ZM48.5893 20.6416L49.5964 20.6416L49.5964 21.1416L48.5893 21.1416L48.5893 20.6416ZM46.575 20.6416L47.5821 20.6416L47.5821 21.1416L46.575 21.1416L46.575 20.6416ZM44.5607 20.6416L45.5679 20.6416L45.5679 21.1416L44.5607 21.1416L44.5607 20.6416ZM42.5464 20.6416L43.5536 20.6416L43.5536 21.1416L42.5464 21.1416L42.5464 20.6416ZM40.5321 20.6416L41.5393 20.6416L41.5393 21.1416L40.5321 21.1416L40.5321 20.6416ZM38.5179 20.6416L39.525 20.6416L39.525 21.1416L38.5179 21.1416L38.5179 20.6416ZM36.5036 20.6416L37.5107 20.6416L37.5107 21.1416L36.5036 21.1416L36.5036 20.6416ZM34.4893 20.6416L35.4964 20.6416L35.4964 21.1416L34.4893 21.1416L34.4893 20.6416ZM32.475 20.6416L33.4822 20.6416L33.4822 21.1416L32.475 21.1416L32.475 20.6416ZM30.4607 20.6416L31.4679 20.6416L31.4679 21.1416L30.4607 21.1416L30.4607 20.6416ZM28.4464 20.6416L29.4536 20.6416L29.4536 21.1416L28.4464 21.1416L28.4464 20.6416ZM26.4322 20.6416L27.4393 20.6416L27.4393 21.1416L26.4322 21.1416L26.4322 20.6416ZM24.4179 20.6416L25.425 20.6416L25.425 21.1416L24.4179 21.1416L24.4179 20.6416ZM22.4036 20.6416L23.4107 20.6416L23.4107 21.1416L22.4036 21.1416L22.4036 20.6416ZM20.3893 20.6416L21.3965 20.6416L21.3965 21.1416L20.3893 21.1416L20.3893 20.6416ZM18.375 20.6416L19.3822 20.6416L19.3822 21.1416L18.375 21.1416L18.375 20.6416ZM16.3608 20.6416L17.3679 20.6416L17.3679 21.1416L16.3608 21.1416L16.3608 20.6416ZM14.3465 20.6416L15.3536 20.6416L15.3536 21.1416L14.3465 21.1416L14.3465 20.6416ZM12.3322 20.6416L13.3393 20.6416L13.3393 21.1416L12.3322 21.1416L12.3322 20.6416ZM10.3179 20.6416L11.325 20.6416L11.325 21.1416L10.3179 21.1416L10.3179 20.6416ZM8.30363 20.6416L9.31077 20.6416L9.31077 21.1416L8.30363 21.1416L8.30363 20.6416ZM6.28934 20.6416L7.29648 20.6416L7.29648 21.1416L6.28934 21.1416L6.28934 20.6416ZM4.27506 20.6416L5.2822 20.6416L5.2822 21.1416L4.27506 21.1416L4.27506 20.6416ZM2.26078 20.6416L3.26792 20.6416L3.26792 21.1416L2.26078 21.1416L2.26078 20.6416ZM0.750006 20.6416L1.25364 20.6416L1.25364 21.1416L0.750006 21.1416L0.750006 20.6416ZM71.25 10.6416L70.7464 10.6416L70.7464 11.1416L71.25 11.1416L71.25 10.6416ZM69.7393 10.6416L68.7321 10.6416L68.7321 11.1416L69.7393 11.1416L69.7393 10.6416ZM67.725 10.6416L66.7179 10.6416L66.7179 11.1416L67.725 11.1416L67.725 10.6416ZM65.7107 10.6416L64.7036 10.6416L64.7036 11.1416L65.7107 11.1416L65.7107 10.6416ZM63.6964 10.6416L62.6893 10.6416L62.6893 11.1416L63.6964 11.1416L63.6964 10.6416ZM61.6822 10.6416L60.675 10.6416L60.675 11.1416L61.6822 11.1416L61.6822 10.6416ZM59.6679 10.6416L58.6607 10.6416L58.6607 11.1416L59.6679 11.1416L59.6679 10.6416ZM57.6536 10.6416L56.6464 10.6416L56.6464 11.1416L57.6536 11.1416L57.6536 10.6416ZM55.6393 10.6416L54.6321 10.6416L54.6321 11.1416L55.6393 11.1416L55.6393 10.6416ZM53.625 10.6416L52.6179 10.6416L52.6179 11.1416L53.625 11.1416L53.625 10.6416ZM51.6107 10.6416L50.6036 10.6416L50.6036 11.1416L51.6107 11.1416L51.6107 10.6416ZM49.5964 10.6416L48.5893 10.6416L48.5893 11.1416L49.5964 11.1416L49.5964 10.6416ZM47.5821 10.6416L46.575 10.6416L46.575 11.1416L47.5821 11.1416L47.5821 10.6416ZM45.5679 10.6416L44.5607 10.6416L44.5607 11.1416L45.5679 11.1416L45.5679 10.6416ZM43.5536 10.6416L42.5464 10.6416L42.5464 11.1416L43.5536 11.1416L43.5536 10.6416ZM41.5393 10.6416L40.5321 10.6416L40.5321 11.1416L41.5393 11.1416L41.5393 10.6416ZM39.525 10.6416L38.5179 10.6416L38.5179 11.1416L39.525 11.1416L39.525 10.6416ZM37.5107 10.6416L36.5036 10.6416L36.5036 11.1416L37.5107 11.1416L37.5107 10.6416ZM35.4964 10.6416L34.4893 10.6416L34.4893 11.1416L35.4964 11.1416L35.4964 10.6416ZM33.4822 10.6416L32.475 10.6416L32.475 11.1416L33.4822 11.1416L33.4822 10.6416ZM31.4679 10.6416L30.4607 10.6416L30.4607 11.1416L31.4679 11.1416L31.4679 10.6416ZM29.4536 10.6416L28.4464 10.6416L28.4464 11.1416L29.4536 11.1416L29.4536 10.6416ZM27.4393 10.6416L26.4322 10.6416L26.4322 11.1416L27.4393 11.1416L27.4393 10.6416ZM25.425 10.6416L24.4179 10.6416L24.4179 11.1416L25.425 11.1416L25.425 10.6416ZM23.4107 10.6416L22.4036 10.6416L22.4036 11.1416L23.4107 11.1416L23.4107 10.6416ZM21.3965 10.6416L20.3893 10.6416L20.3893 11.1416L21.3965 11.1416L21.3965 10.6416ZM19.3822 10.6416L18.375 10.6416L18.375 11.1416L19.3822 11.1416L19.3822 10.6416ZM17.3679 10.6416L16.3608 10.6416L16.3608 11.1416L17.3679 11.1416L17.3679 10.6416ZM15.3536 10.6416L14.3465 10.6416L14.3465 11.1416L15.3536 11.1416L15.3536 10.6416ZM13.3393 10.6416L12.3322 10.6416L12.3322 11.1416L13.3393 11.1416L13.3393 10.6416ZM11.325 10.6416L10.3179 10.6416L10.3179 11.1416L11.325 11.1416L11.325 10.6416ZM9.31077 10.6416L8.30363 10.6416L8.30363 11.1416L9.31077 11.1416L9.31077 10.6416ZM7.29648 10.6416L6.28934 10.6416L6.28934 11.1416L7.29648 11.1416L7.29648 10.6416ZM5.2822 10.6416L4.27506 10.6416L4.27506 11.1416L5.2822 11.1416L5.2822 10.6416ZM3.26792 10.6416L2.26078 10.6416L2.26078 11.1416L3.26792 11.1416L3.26792 10.6416ZM1.25364 10.6416L0.750006 10.6416L0.750006 11.1416L1.25364 11.1416L1.25364 10.6416Z" fill="#D7D7D7"/>
<path d="M67 70.5158H5C2.79086 70.5158 1 68.7249 1 66.5158V59.5194H24.5953L28.528 10.2097L34.0339 59.5194H41.4242L45.5482 47.4629L49.0113 59.5194H53.9138L56.0167 57.3019L58.1818 59.5194H71V66.5158C71 68.7249 69.2091 70.5158 67 70.5158Z" fill="#8ED4DA"/>
<path d="M31.4813 36.7663H26.5953V36.5194L28.5281 10.2097L31.4813 36.5194V36.7663Z" fill="#F0D3D3"/>
<path fill-rule="evenodd" clip-rule="evenodd" d="M29.4931 19.8367C29.5641 19.7983 29.5961 19.6971 29.5645 19.6107C29.533 19.5243 29.4498 19.4854 29.3788 19.5238L27.9564 20.2936C27.8854 20.332 27.8534 20.4332 27.885 20.5196C27.9165 20.606 27.9996 20.6449 28.0706 20.6065L29.4931 19.8367ZM29.3107 18.7345C29.3399 18.8221 29.3052 18.922 29.2332 18.9575L28.316 19.4102C28.2441 19.4457 28.162 19.4035 28.1328 19.3158C28.1037 19.2282 28.1384 19.1283 28.2104 19.0928L29.1275 18.6401C29.1995 18.6046 29.2815 18.6469 29.3107 18.7345ZM29.1849 17.9566C29.2582 17.9251 29.2966 17.8273 29.2708 17.7381C29.2449 17.6489 29.1646 17.6022 29.0913 17.6336L28.1957 18.0183C28.1225 18.0498 28.084 18.1476 28.1099 18.2368C28.1357 18.326 28.2161 18.3728 28.2893 18.3413L29.1849 17.9566ZM29.0965 16.7647C29.1215 16.8543 29.0821 16.9515 29.0086 16.982L28.3326 17.2616C28.2591 17.292 28.1792 17.2441 28.1542 17.1546C28.1292 17.065 28.1686 16.9678 28.2421 16.9373L28.9181 16.6577C28.9916 16.6273 29.0715 16.6752 29.0965 16.7647ZM28.9157 15.9799C28.9424 16.0687 28.9048 16.167 28.8318 16.1995L28.4318 16.3774C28.3589 16.4099 28.2781 16.3642 28.2514 16.2753C28.2248 16.1865 28.2623 16.0882 28.3353 16.0557L28.7353 15.8778C28.8083 15.8454 28.889 15.8911 28.9157 15.9799Z" fill="#010101"/>
<path d="M0.935059 59.5129H24.4565L28.5279 7.74609L34.3444 59.5129H41.2123L45.2838 47.2982L48.7738 59.5129H53.5701L55.9065 57.1053L58.1208 59.5129H71.3664" stroke="black" stroke-width="0.5"/>
<line x1="47.8135" y1="68.4827" x2="27.6118" y2="68.4827" stroke="black" stroke-width="0.4"/>
<line x1="41.1006" y1="67.3827" x2="30.8989" y2="67.3827" stroke="black" stroke-width="0.2"/>
<rect x="0.75" y="0.25" width="70.5" height="70.5" rx="4.25" stroke="black" stroke-width="0.5"/>
</svg>