<svg width="15" height="15" viewBox="0 0 15 15" fill="none" xmlns="http://www.w3.org/2000/svg">
<g id="wrapper" clip-path="url(#clip0_314_2037)">
<path id="Union" fill-rule="evenodd" clip-rule="evenodd" d="M2.53879 2.82223C2.61693 2.74409 2.72291 2.7002 2.83341 2.7002H8.08341C8.49763 2.7002 8.83341 2.36441 8.83341 1.9502C8.83341 1.53598 8.49763 1.2002 8.08341 1.2002H2.83341C2.32508 1.2002 1.83757 1.40213 1.47813 1.76157C1.11868 2.12102 0.916748 2.60853 0.916748 3.11686V8.9502C0.916748 9.45853 1.11868 9.94604 1.47813 10.3055C1.83757 10.6649 2.32508 10.8669 2.83341 10.8669H6.75008V11.7002H5.16675C4.75253 11.7002 4.41675 12.036 4.41675 12.4502C4.41675 12.8644 4.75253 13.2002 5.16675 13.2002H7.50008H9.83341C10.2476 13.2002 10.5834 12.8644 10.5834 12.4502C10.5834 12.036 10.2476 11.7002 9.83341 11.7002H8.25008V10.8669H12.1667C12.6751 10.8669 13.1626 10.6649 13.522 10.3055C13.8815 9.94604 14.0834 9.45853 14.0834 8.9502V7.2002C14.0834 6.78598 13.7476 6.4502 13.3334 6.4502C12.9192 6.4502 12.5834 6.78598 12.5834 7.2002V8.9502C12.5834 9.0607 12.5395 9.16668 12.4614 9.24482C12.3832 9.32296 12.2773 9.36686 12.1667 9.36686H7.50008H2.83341C2.72291 9.36686 2.61693 9.32296 2.53879 9.24482C2.46065 9.16668 2.41675 9.0607 2.41675 8.9502V3.11686C2.41675 3.00636 2.46065 2.90037 2.53879 2.82223ZM10.5834 3.7002C10.5834 3.14791 11.0311 2.7002 11.5834 2.7002C12.1357 2.7002 12.5834 3.14791 12.5834 3.7002C12.5834 4.25248 12.1357 4.7002 11.5834 4.7002C11.0311 4.7002 10.5834 4.25248 10.5834 3.7002ZM11.5834 1.2002C10.2027 1.2002 9.08341 2.31948 9.08341 3.7002C9.08341 5.08091 10.2027 6.2002 11.5834 6.2002C12.9641 6.2002 14.0834 5.08091 14.0834 3.7002C14.0834 2.31948 12.9641 1.2002 11.5834 1.2002Z" fill="black" fill-opacity="0.85"/>
</g>
<defs>
<clipPath id="clip0_314_2037">
<rect width="14" height="14" fill="white" transform="translate(0.5 0.200073)"/>
</clipPath>
</defs>
</svg>
