<svg width="18" height="18" viewBox="0 0 18 18" fill="none" xmlns="http://www.w3.org/2000/svg">
<g id="Setting" clip-path="url(#clip0_314_2018)">
<path id="Vector" d="M17.2928 11.2871L15.9769 10.1621C16.0392 9.78041 16.0713 9.39068 16.0713 9.00094C16.0713 8.61121 16.0392 8.22148 15.9769 7.83978L17.2928 6.71478C17.392 6.62982 17.463 6.51665 17.4964 6.39034C17.5298 6.26402 17.5239 6.13054 17.4796 6.00764L17.4615 5.95541C17.0993 4.94296 16.5568 4.00441 15.8604 3.18509L15.8242 3.14291C15.7398 3.04357 15.6272 2.97216 15.5013 2.93809C15.3754 2.90402 15.2422 2.90889 15.1191 2.95206L13.4858 3.53264C12.8832 3.03844 12.2102 2.64871 11.4829 2.3755L11.1675 0.667908C11.1437 0.539421 11.0814 0.421216 10.9888 0.328997C10.8963 0.236778 10.7778 0.17491 10.6492 0.151613L10.595 0.141568C9.54834 -0.0472709 8.44745 -0.0472709 7.4008 0.141568L7.34656 0.151613C7.21798 0.17491 7.09953 0.236778 7.00696 0.328997C6.91438 0.421216 6.85205 0.539421 6.82825 0.667908L6.51084 2.38353C5.78941 2.6568 5.11759 3.04633 4.52201 3.53666L2.87669 2.95206C2.75368 2.90855 2.62033 2.90351 2.49438 2.93759C2.36843 2.97168 2.25584 3.04329 2.17156 3.14291L2.1354 3.18509C1.4398 4.00499 0.897447 4.94338 0.534281 5.95541L0.516201 6.00764C0.425799 6.25876 0.50013 6.54001 0.703031 6.71478L2.03495 7.85184C1.97267 8.22952 1.94254 8.61523 1.94254 8.99893C1.94254 9.38465 1.97267 9.77036 2.03495 10.146L0.703031 11.2831C0.603782 11.3681 0.532747 11.4812 0.499374 11.6075C0.466001 11.7338 0.47187 11.8673 0.516201 11.9902L0.534281 12.0425C0.897897 13.055 1.43629 13.9891 2.1354 14.8128L2.17156 14.855C2.25604 14.9543 2.36864 15.0257 2.49452 15.0598C2.62039 15.0938 2.75364 15.089 2.87669 15.0458L4.52201 14.4612C5.12067 14.9534 5.78964 15.3431 6.51084 15.6143L6.82825 17.33C6.85205 17.4584 6.91438 17.5767 7.00696 17.6689C7.09953 17.7611 7.21798 17.823 7.34656 17.8463L7.4008 17.8563C8.45707 18.0462 9.53873 18.0462 10.595 17.8563L10.6492 17.8463C10.7778 17.823 10.8963 17.7611 10.9888 17.6689C11.0814 17.5767 11.1437 17.4584 11.1675 17.33L11.4829 15.6224C12.2099 15.3499 12.8867 14.9589 13.4858 14.4652L15.1191 15.0458C15.2421 15.0893 15.3755 15.0944 15.5014 15.0603C15.6274 15.0262 15.74 14.9546 15.8242 14.855L15.8604 14.8128C16.5595 13.9871 17.0979 13.055 17.4615 12.0425L17.4796 11.9902C17.57 11.7431 17.4957 11.4619 17.2928 11.2871ZM14.5506 8.07684C14.6008 8.38018 14.6269 8.69157 14.6269 9.00295C14.6269 9.31434 14.6008 9.62572 14.5506 9.92907L14.418 10.7346L15.9187 12.0184C15.6912 12.5425 15.404 13.0386 15.0629 13.4969L13.1986 12.836L12.5678 13.3543C12.0876 13.748 11.5533 14.0574 10.9747 14.2744L10.2093 14.5617L9.84968 16.5103C9.2823 16.5746 8.70947 16.5746 8.14209 16.5103L7.7825 14.5576L7.02312 14.2663C6.45058 14.0494 5.91821 13.74 5.44209 13.3483L4.81129 12.828L2.93495 13.4949C2.59343 13.0349 2.30817 12.5387 2.07915 12.0163L3.59589 10.7206L3.46531 9.91702C3.41709 9.61768 3.39098 9.30831 3.39098 9.00295C3.39098 8.69559 3.41509 8.38822 3.46531 8.08889L3.59589 7.28532L2.07915 5.98956C2.30616 5.46523 2.59343 4.97103 2.93495 4.51099L4.81129 5.17795L5.44209 4.65764C5.91821 4.2659 6.45058 3.95652 7.02312 3.73956L7.7845 3.45228L8.1441 1.4996C8.70861 1.43532 9.28517 1.43532 9.85169 1.4996L10.2113 3.44826L10.9767 3.73554C11.5533 3.95251 12.0896 4.26188 12.5698 4.65563L13.2006 5.17393L15.0649 4.513C15.4064 4.97304 15.6916 5.46925 15.9207 5.99157L14.42 7.27527L14.5506 8.07684ZM8.99991 5.26635C7.04723 5.26635 5.46419 6.84938 5.46419 8.80206C5.46419 10.7547 7.04723 12.3378 8.99991 12.3378C10.9526 12.3378 12.5356 10.7547 12.5356 8.80206C12.5356 6.84938 10.9526 5.26635 8.99991 5.26635ZM10.591 10.3931C10.3823 10.6024 10.1343 10.7684 9.86123 10.8815C9.58818 10.9945 9.29545 11.0525 8.99991 11.0521C8.39924 11.0521 7.83473 10.817 7.40883 10.3931C7.19955 10.1844 7.03359 9.93644 6.92051 9.66339C6.80743 9.39033 6.74945 9.09761 6.74991 8.80206C6.74991 8.20139 6.98495 7.63688 7.40883 7.21099C7.83473 6.78509 8.39924 6.55206 8.99991 6.55206C9.60058 6.55206 10.1651 6.78509 10.591 7.21099C10.8003 7.41967 10.9662 7.66768 11.0793 7.94073C11.1924 8.21379 11.2504 8.50651 11.2499 8.80206C11.2499 9.40273 11.0149 9.96724 10.591 10.3931Z" fill="black" fill-opacity="0.85"/>
</g>
<defs>
<clipPath id="clip0_314_2018">
<rect width="18" height="18" fill="white"/>
</clipPath>
</defs>
</svg>
