<svg width="98" height="79" viewBox="0 0 98 79" fill="none" xmlns="http://www.w3.org/2000/svg">
<path d="M61.7777 21.5287H64.7407L73.1851 13.0842L73.6 9.49903C68.7624 5.22927 62.9163 2.26322 56.6137 0.881054C50.3112 -0.501108 43.7603 -0.253748 37.58 1.59977C31.3996 3.45328 25.7938 6.85177 21.292 11.4742C16.7903 16.0966 13.5412 21.7903 11.8518 28.0176C12.7926 27.632 13.8347 27.5694 14.8148 27.8398L31.7037 25.0546C31.7037 25.0546 32.5629 23.6324 33.0074 23.7213C36.6261 19.7469 41.6271 17.3061 46.9867 16.8985C52.3462 16.4909 57.6588 18.1473 61.837 21.5287H61.7777Z" fill="#EA4335"/>
<path d="M85.2149 28.0176C83.2739 20.8698 79.2887 14.4441 73.7482 9.52869L61.8964 21.3805C64.3664 23.3988 66.3459 25.9516 67.6855 28.8464C69.0251 31.7412 69.6899 34.9025 69.6297 38.0916V40.1954C71.0149 40.1954 72.3865 40.4682 73.6663 40.9983C74.946 41.5284 76.1089 42.3053 77.0884 43.2848C78.0678 44.2643 78.8448 45.4271 79.3749 46.7069C79.905 47.9867 80.1778 49.3583 80.1778 50.7435C80.1778 52.1287 79.905 53.5003 79.3749 54.7801C78.8448 56.0599 78.0678 57.2227 77.0884 58.2022C76.1089 59.1817 74.946 59.9586 73.6663 60.4887C72.3865 61.0188 71.0149 61.2916 69.6297 61.2916H48.5334L46.4297 63.425V76.0768L48.5334 78.1805H69.6297C75.5208 78.2264 81.2701 76.3749 86.0273 72.8999C90.7846 69.4248 94.2969 64.5109 96.0449 58.8849C97.7928 53.259 97.6835 47.2198 95.7331 41.6608C93.7826 36.1018 90.0947 31.3181 85.2149 28.0176V28.0176Z" fill="#4285F4"/>
<path d="M27.4074 78.0621H48.5037V61.1733H27.4074C25.9044 61.1729 24.419 60.8496 23.0519 60.2251L20.0889 61.1436L11.5852 69.5881L10.8445 72.551C15.6132 76.1519 21.432 78.0881 27.4074 78.0621V78.0621Z" fill="#34A853"/>
<path d="M27.4074 23.2768C21.6913 23.3109 16.1286 25.1295 11.4963 28.4786C6.86394 31.8276 3.39326 36.5399 1.56901 41.9571C-0.255244 47.3744 -0.341967 53.2262 1.32095 58.6951C2.98387 64.1641 6.31338 68.9771 10.8445 72.462L23.0815 60.2249C21.5264 59.5224 20.165 58.453 19.1141 57.1086C18.0632 55.7642 17.3541 54.1849 17.0477 52.5062C16.7413 50.8275 16.8468 49.0996 17.355 47.4706C17.8633 45.8416 18.7592 44.3603 19.9658 43.1537C21.1724 41.947 22.6537 41.0512 24.2827 40.5429C25.9117 40.0347 27.6396 39.9292 29.3183 40.2356C30.997 40.542 32.5763 41.251 33.9207 42.302C35.2651 43.3529 36.3345 44.7143 37.0371 46.2694L49.2741 34.0323C46.7056 30.6746 43.3953 27.9565 39.6019 26.0906C35.8085 24.2248 31.6349 23.2617 27.4074 23.2768V23.2768Z" fill="#FBBC05"/>
</svg>
