<svg viewBox="0 0 120 120" xmlns="http://www.w3.org/2000/svg"><rect fill="#fff" height="120" rx="6.01" width="120"/><path d="m66.84 29.17 16.44 9.5a7 7 0 0 1 1.62-1.28 7.13 7.13 0 1 1 7.1 12.35 7 7 0 0 1 -1.9.76v19a7.13 7.13 0 1 1 -5.25 13.11 6.85 6.85 0 0 1 -1.76-1.43l-16.32 9.44a7.26 7.26 0 0 1 .36 2.25 7.13 7.13 0 1 1 -14-2l-16.42-9.51a7 7 0 0 1 -1.59 1.25 7.13 7.13 0 1 1 -5.25-13.11v-19a7 7 0 0 1 -1.9-.76 7.13 7.13 0 1 1 7.13-12.35 7 7 0 0 1 1.61 1.27l16.45-9.5a7.22 7.22 0 0 1 -.29-2 7.13 7.13 0 1 1 14.26 0 7.24 7.24 0 0 1 -.29 2.01zm-1.72 2.92 16.49 9.52a7.12 7.12 0 0 0 5.13 8.87v19l-.27.07-21.54-37.27zm-10.05.2-21.53 37.3-.28-.08v-19a7.06 7.06 0 0 0 4.45-3.35 7.15 7.15 0 0 0 .68-5.53l16.48-9.51a1.89 1.89 0 0 1 .2.17zm6.93 1.71 21.52 37.27a7.09 7.09 0 0 0 -1.25 1.6 6.84 6.84 0 0 0 -.75 1.88h-43a6.84 6.84 0 0 0 -.75-1.88 7.26 7.26 0 0 0 -1.25-1.59l21.48-37.28a7.21 7.21 0 0 0 4 0zm3.28 54.09 16.38-9.46c0-.16-.09-.31-.13-.47h-43c0 .09 0 .19-.08.28l16.46 9.5a7.14 7.14 0 0 1 10.41.15z" fill="#e535ab" fill-rule="evenodd"/></svg>